<?xml version="1.0" encoding="iso-8859-1"?>
<!-- Generator: Adobe Illustrator 25.3.0, SVG Export Plug-In . SVG Version: 6.00 Build 0)  -->
<svg version="1.1" id="Calque_1" xmlns="http://www.w3.org/2000/svg" xmlns:xlink="http://www.w3.org/1999/xlink" x="0px" y="0px"
	 viewBox="0 0 84.4 21" style="enable-background:new 0 0 84.4 21;" xml:space="preserve">
<g>
	<path d="M84.4,11.5c0,0.7,0,1.4,0,2.1c0.1,1.1-0.5,2.1-1.1,2.9c-0.9,1.3-2.2,1.1-3.4,0.8c-3-0.7-6-1.7-8.7-3.2c-1.9-1.1-4-1-6.1-1
		c-0.3,0-0.3,0.2-0.3,0.4c0,1.1-0.7,1.7-1.6,2c-0.6,0.2-1,0.7-1.7,0.5c-0.6-0.1-1.2,1-2,0.4c-0.5,0.7-1.4,0.5-2.1,0.7
		c-0.5,0.1-1.3-0.2-1.7,0.1c-0.5,0.4-0.9,0.5-1.4,0.2c-0.1-0.1-0.4,0.1-0.6,0.2c-0.2,0.1-0.4,0.3-0.6,0.3c-1.6-0.2-3.2,0.4-4.7,0.5
		c-0.3,0-0.6,0-0.8-0.1c-0.5-0.2-0.8-0.4-1.2,0.2c-0.1,0.1-0.4,0-0.6,0c-0.4,0-0.9-0.3-1.2-0.1c-0.9,0.5-1.6,0-2.3-0.4
		c-0.9-0.5-1.9-1.1-2.7-1.8c-0.8-0.8-1.7-0.9-2.6-0.5c-2,0.9-4.1,1-6.3,0.9c-0.6,0-1.3,0.3-1.9,0.3c-1.6,0-3.1-0.1-4.7-0.1
		c-0.1,0-0.2,0-0.3,0c0,0.1,0,0.4,0.1,0.4c0.5,0.4,1.1,0.7,1.6,1.1c0.6,0.4,1.3,0.9,1.8,1.4c0.3,0.3,0.3,0.6-0.2,0.8
		c-1,0.5-1.9,0.5-2.8-0.4c-1-1-2.2-1.7-2.9-2.9c-0.2-0.3-0.6-0.5-1-0.6c-2.2-0.4-4.4-0.8-6.7-1c-3.8-0.3-7.4-1.5-11.1-2.2
		C2,13.5,1.5,13.2,1,13c-0.5-0.2-0.8-0.5-0.6-1.1c0-0.1,0.1-0.3,0.1-0.3c-0.3-0.3-0.7-0.6-0.4-1C0.5,10,1,9.5,1.5,9.2
		C2.2,8.9,3,8.9,3.8,8.7c3.3-0.9,6.5-1.8,9.8-2.7c3.2-0.8,6.3-1.5,9.5-2.2c1.6-0.3,3.2-0.5,4.7-0.7c0.4-0.1,0.8-0.3,1.1-0.5
		c0.8-0.6,1.5-1.2,2.2-1.8c1.8-1.3,3.2-1,4.5,0.9c0.3,0.5,0.7,1,1,1.4c1.1,1.4,2.1,1.5,3.6,0.4c1.5-1.1,3-2.1,4.8-2.7
		c1.2-0.4,2.3-0.5,3.5-0.6c2.7-0.1,5.3,0.4,7.9,0.8c1,0.2,2,0.8,3,1.2c1.1,0.4,2.2,0.8,3.3,1.3C64,4.1,65,5,65.9,6.2
		c0.2,0.3,0.3,0.6,0.3,1c0,0.3-0.1,0.7-0.1,0.8c0.4,0.2,0.9,0.5,1.3,0.4c0.9-0.2,1.9-0.4,2.7-0.8c2.6-1.2,5.2-2.5,8-3.4
		c1.4-0.4,2.7-0.2,4.1-0.2c0.9,0,1.1,0.9,1.3,1.5C84,7.2,84.5,9,84.3,11C84.3,11.1,84.3,11.3,84.4,11.5
		C84.3,11.5,84.3,11.5,84.4,11.5z"/>
	<path d="M9.5,10c-0.7,0.5-1.5,0.8-2.4,0.7c-0.1,0-0.2-0.1-0.3-0.2c0.1-0.1,0.1-0.2,0.2-0.2c0.8-0.2,1.6-0.3,2.4-0.4L9.5,10z"/>
</g>
</svg>
