<?xml version="1.0" encoding="iso-8859-1"?>
<!-- Generator: Adobe Illustrator 25.3.0, SVG Export Plug-In . SVG Version: 6.00 Build 0)  -->
<svg version="1.1" id="Calque_1" xmlns="http://www.w3.org/2000/svg" xmlns:xlink="http://www.w3.org/1999/xlink" x="0px" y="0px"
	 viewBox="0 0 72.5 46.4" style="enable-background:new 0 0 72.5 46.4;" xml:space="preserve">
<g>
	<path d="M29.3,0.1c2.7-0.2,5.3,0.7,7.9,1.1c3.3,0.6,6.3,2,9.1,3.6c1.6,1,3.1,2.2,4.5,3.5c1.1,1.1,1.8,2.6,1.7,4.2
		c-0.1,1.6-0.2,3.2-0.5,4.8c-0.1,0.8-0.6,1.5-1,2.3c-0.1,0.1-0.1,0.3-0.1,0.4c0.1,0,0.2,0,0.3-0.1c0.4-0.2,0.8-0.5,1.2-0.8
		c3.1-1.9,6.3-3.9,9.5-5.7c2.8-1.6,5.9-2.6,9-3.3c0.3-0.1,0.6-0.1,0.9-0.1c0.3,0.1,0.6,0.3,0.7,0.5c0.1,0.2-0.1,0.6-0.3,0.8
		c-0.2,0.3-0.6,0.4-0.9,0.6c-2.9,1.9-4.9,4.5-6.4,7.5c-1.2,2.6-0.9,5.2,0.8,7.5c1,1.3,1.8,2.8,2.5,4.3c0.1,0.2,0.2,0.3,0.2,0.5
		c0,0.6,0.2,1.3,0,1.7c-0.4,0.6-1,0.1-1.5-0.1c-2-0.7-4-1.5-6-2.3c-3.2-1.4-6.2-3-9.1-5c-0.2-0.2-0.5-0.3-0.8-0.4
		c-0.1-0.1-0.2,0-0.3-0.1c0,0.1,0,0.3,0.1,0.4c0.5,0.7,1.1,1.4,1.5,2.2c0.4,0.9,0.8,1.8,1,2.8c0.4,1.7-0.4,3.1-1.5,4.4
		c-4.1,4.5-9.1,7.2-15.1,8c-1.3,0.2-2.6,0.4-3.9,0.3c-1.9-0.1-3.9-0.3-5.3-1.8c-1.5-1.5-3.5-2.5-4.4-4.5c0-0.1-0.1-0.3-0.2-0.3
		c-0.2-0.1-0.5-0.2-0.6-0.1c-0.1,0.1-0.3,0.5-0.2,0.6c0.3,0.4,0.6,0.8,1,1c2.1,1.2,2.5,3.1,2.3,5.3c0,0.4,0,0.8-0.1,1.2
		c-0.2,1.2-1,1.5-2,0.8c-0.4-0.3-0.7-0.6-1-1c-1.3-1.7-2.6-3.4-3.5-5.4c-0.6-1.4-1.6-2.3-3.2-2.7c-1-0.2-2-0.7-3-1.1
		c-3.8-1.7-7.4-3.8-11-5.9c-1.1-0.7-1.5-1.7-1.8-2.7c-0.2-0.7,0.1-1.5,0.7-1.9c1.9-1.1,2.7-3,3.5-4.8c1.3-2.7,2.7-5.3,5-7.3
		c1-0.9,2.1-1.8,3.3-2.4c1.4-0.7,2.3-1.7,2.9-3c0.6-1.3,1.3-2.5,2-3.8c0.2-0.3,0.5-0.7,0.9-0.9c2.5-1.4,5.1-2.6,7.9-3.2
		C27.3-0.1,28.3,0.1,29.3,0.1z"/>
	<path d="M27.6,19.4c-0.1-0.4-0.2-1-0.4-1.6c-0.2-0.6-0.6-0.7-1.1-0.3c-1,0.8-2,1.6-2.8,2.5c-1.8,1.9-3.6,4-5.4,6
		c-0.4,0.5-0.1,0.5,0.3,0.6c1.1,0.3,1.9,1.1,2.5,2c0.1,0.2,0.1,0.5,0.1,0.8c-0.2-0.1-0.4-0.2-0.6-0.4c-0.1-0.1-0.2-0.3-0.3-0.5
		c-1.2-1.4-1.8-1.4-3.4-0.8c-0.2,0.1-0.4,0.1-0.6,0.1c0-0.2,0-0.5,0.1-0.6c0.7-0.9,1.4-1.8,2.1-2.7c1.7-2.1,3.4-4.3,5.7-5.9
		c0.6-0.5,1.1-1.1,1.7-1.6c1-0.9,1.8-0.8,2.4,0.4c0.6,1.2,0.8,2.5,0.4,3.9c-1,2.9-2.1,5.7-3.6,8.3c-0.8,1.3-1.5,2.5-3.3,2.1
		c-0.1,0-0.2,0.3-0.4,0.3c-0.1,0.1-0.4,0.1-0.5,0c-0.3-0.3-0.3-1.9,0-2.2c0.1-0.1,0.5,0.1,0.5,0.2c0.1,0.5,0.4,0.8,0.9,0.7
		c0.4-0.1,1-0.2,1.2-0.5c0.5-0.5,0.8-1,1.1-1.6c1.4-2.4,2.5-5,3.1-7.7C27.5,20.5,27.5,20,27.6,19.4z"/>
	<path d="M10.3,21.2c0,0-0.5,0-0.8-0.1c-0.6-0.3-1.1-0.2-1.6,0.2c-0.2,0.2-0.5,0.2-0.7,0.3c0-0.3-0.1-0.6,0-0.9
		c0.2-1.3,1-2.4,1.8-3.4c0.9-1.2,3-1.2,4-0.2c0.5,0.5,0.9,1.2,0.6,1.9c-0.4,1-0.9,1.8-2.1,2.1C11.2,21.2,10.9,21.2,10.3,21.2z"/>
	<path d="M50.2,22.8c-0.1,0.3-0.1,0.4-0.2,0.5c-0.8,0.3-1.5,0.6-2.3,0.7c-0.3,0-0.8-0.3-1-0.6c-0.2-0.3-0.2-0.9,0.3-1
		c0.9-0.1,1.9-0.2,2.8,0.3C50,22.6,50.1,22.7,50.2,22.8z"/>
	<path d="M10.8,17.9c0.6,0,1.1,0.4,1.1,0.9c0,0.5-0.9,1.4-1.5,1.4c-0.5,0-1.2-0.7-1.2-1.1C9.3,18.3,9.9,17.8,10.8,17.9z"/>
</g>
</svg>
