<svg xmlns="http://www.w3.org/2000/svg" viewBox="0 0 800 314" width="800" height="314">
  <g transform="scale(0.6666666666666666, 0.6666666666666666)">
    <path d="M 275.500 37.644 C 272.750 37.868, 267.125 38.687, 263 39.463 C 258.875 40.239, 251.017 41.177, 245.539 41.546 C 240.060 41.916, 232.914 43.069, 229.658 44.109 C 226.403 45.149, 222.430 46, 220.830 46 C 219.230 46, 216.251 46.825, 214.210 47.834 C 212.170 48.843, 207.350 50.480, 203.500 51.473 C 167.981 60.632, 93.856 104.412, 42.248 146.713 C 28.031 158.366, 19.262 171.911, 17.496 184.944 C 17.091 187.938, 15.898 192.888, 14.846 195.944 C 12.004 204.202, 11.510 213.962, 13.389 224.750 C 14.275 229.838, 15 238.248, 15 243.438 C 15 252.201, 16.954 264.177, 19.010 268.019 C 19.494 268.923, 22.571 271.092, 25.847 272.838 C 31.993 276.114, 37.906 281.733, 47.062 293 C 55.161 302.966, 74.604 322.018, 83.267 328.477 C 88.165 332.129, 92.838 336.748, 95.915 340.979 C 105.222 353.773, 115.825 365.588, 121.648 369.649 C 131.742 376.689, 132.740 377, 145.207 377 L 156.514 377 168.507 382.345 C 186.359 390.302, 241.327 410.632, 254.033 413.977 C 257.626 414.923, 261.579 416.240, 262.818 416.903 C 264.057 417.566, 269.539 418.959, 275 420 C 280.461 421.041, 285.958 422.444, 287.215 423.119 C 290.265 424.756, 308.726 425.495, 312.250 424.122 C 313.762 423.532, 315 422.292, 315 421.365 C 315 419.810, 316.747 419.747, 337.750 420.544 C 350.262 421.018, 365.900 421.427, 372.500 421.453 L 384.500 421.500 384.801 418.914 C 384.966 417.492, 384.454 415.792, 383.664 415.136 C 381.600 413.423, 369.487 411.038, 362.750 411.017 L 357 411 357 396.590 L 357 382.180 365.750 381.458 C 370.563 381.062, 376.525 380.123, 379 379.373 C 381.475 378.623, 390.925 377.308, 400 376.450 C 409.075 375.591, 418.075 374.478, 420 373.974 C 421.925 373.471, 429.125 372.570, 436 371.973 C 442.875 371.376, 453.450 370.035, 459.500 368.994 C 465.550 367.952, 475.225 366.813, 481 366.462 C 491.263 365.839, 499.921 363.882, 511 359.682 C 516.021 357.778, 519.329 357.545, 549 357.004 C 582.422 356.395, 602.044 354.155, 615.474 349.415 C 617.688 348.634, 623.671 347.548, 628.769 347.003 C 633.867 346.457, 639.510 345.396, 641.308 344.645 C 643.107 343.893, 647.708 342.943, 651.533 342.533 C 655.358 342.124, 660.066 341.177, 661.994 340.430 C 663.922 339.682, 669.775 338.352, 675 337.474 C 680.225 336.596, 687.425 335.058, 691 334.056 C 694.575 333.054, 699.750 331.762, 702.500 331.185 C 708.230 329.984, 716.620 327.792, 726 325.044 C 729.575 323.997, 734.525 322.622, 737 321.988 C 739.475 321.355, 744.200 320.141, 747.500 319.291 C 750.800 318.441, 761.825 315.120, 772 311.909 C 782.175 308.699, 794.043 305.139, 798.373 303.998 C 802.703 302.858, 807.428 301.328, 808.873 300.599 C 810.318 299.871, 814.821 298.537, 818.880 297.635 C 822.940 296.734, 830.140 294.467, 834.880 292.598 C 839.621 290.728, 844.625 288.893, 846 288.520 C 855.858 285.843, 911.493 260.001, 950 240.213 C 989.581 219.874, 1025.644 203.625, 1036 201.464 C 1037.925 201.062, 1041.068 199.893, 1042.985 198.867 C 1044.902 197.840, 1047.504 197, 1048.767 197 C 1050.031 197, 1052.737 196.297, 1054.782 195.437 C 1056.827 194.577, 1062.836 193, 1068.136 191.933 C 1073.437 190.866, 1079.287 189.370, 1081.136 188.608 C 1082.986 187.847, 1086.525 186.916, 1089 186.540 C 1091.475 186.164, 1096.089 184.988, 1099.254 183.928 C 1102.419 182.868, 1106.919 181.980, 1109.254 181.956 C 1111.589 181.932, 1115.300 181.228, 1117.500 180.392 C 1119.700 179.556, 1126.225 178.276, 1132 177.548 C 1143.799 176.060, 1164.902 171.658, 1167.885 170.061 C 1171.929 167.897, 1173 165.944, 1173 160.735 C 1173 155.863, 1172.743 155.366, 1167.743 150.557 C 1164.852 147.775, 1160.015 144.198, 1156.993 142.607 C 1153.972 141.015, 1145.200 136.014, 1137.500 131.494 C 1129.800 126.973, 1118.775 120.561, 1113 117.246 C 1098.382 108.853, 1065.542 92.542, 1058.965 90.407 C 1055.959 89.432, 1052.150 87.817, 1050.500 86.820 C 1048.850 85.823, 1046.245 85.006, 1044.710 85.004 C 1043.176 85.002, 1040.240 84.143, 1038.187 83.095 C 1036.133 82.048, 1032.214 80.867, 1029.477 80.472 C 1026.739 80.077, 1022.978 79.132, 1021.118 78.373 C 1019.257 77.613, 1014.082 76.568, 1009.618 76.049 C 1005.153 75.531, 998.800 74.165, 995.500 73.014 C 992.200 71.862, 985.103 70.497, 979.728 69.981 C 974.353 69.465, 967.603 68.379, 964.728 67.568 C 961.853 66.756, 954.100 65.790, 947.500 65.421 C 940.900 65.051, 933.564 64.105, 931.198 63.317 C 928.833 62.530, 922.083 61.488, 916.198 61.002 C 910.314 60.516, 903.641 59.456, 901.370 58.646 C 896.999 57.088, 887.092 55.483, 875.500 54.457 C 871.650 54.116, 864.225 53.228, 859 52.484 C 853.775 51.740, 844.325 50.852, 838 50.511 C 831.675 50.171, 824.025 49.261, 821 48.489 C 800.763 43.324, 667.614 43.307, 638.500 48.465 C 621.584 51.461, 521.743 51.108, 507 48 C 504.525 47.478, 494.625 46.589, 485 46.024 C 475.375 45.459, 464.800 44.452, 461.500 43.785 C 457.316 42.940, 439.916 42.535, 404 42.447 C 353.958 42.325, 342.771 41.763, 334 38.929 C 330.518 37.804, 285.629 36.818, 275.500 37.644" stroke="none" fill="black" fill-rule="evenodd"/>
  </g>
</svg>