<?xml version="1.0" encoding="UTF-8" standalone="no"?>
<svg
   xmlns:dc="http://purl.org/dc/elements/1.1/"
   xmlns:cc="http://creativecommons.org/ns#"
   xmlns:rdf="http://www.w3.org/1999/02/22-rdf-syntax-ns#"
   xmlns:svg="http://www.w3.org/2000/svg"
   xmlns="http://www.w3.org/2000/svg"
   xmlns:sodipodi="http://sodipodi.sourceforge.net/DTD/sodipodi-0.dtd"
   xmlns:inkscape="http://www.inkscape.org/namespaces/inkscape"
   version="1.1"
   id="Calque_1"
   x="0px"
   y="0px"
   viewBox="0 0 82.1 23.5"
   style="enable-background:new 0 0 82.1 23.5;"
   xml:space="preserve"
   sodipodi:docname="Acestrorhynchidae.svg"
   inkscape:version="1.0.2-2 (e86c870879, 2021-01-15)"><metadata
   id="metadata29"><rdf:RDF><cc:Work
       rdf:about=""><dc:format>image/svg+xml</dc:format><dc:type
         rdf:resource="http://purl.org/dc/dcmitype/StillImage" /></cc:Work></rdf:RDF></metadata><defs
   id="defs27" /><sodipodi:namedview
   pagecolor="#ffffff"
   bordercolor="#666666"
   borderopacity="1"
   objecttolerance="10"
   gridtolerance="10"
   guidetolerance="10"
   inkscape:pageopacity="0"
   inkscape:pageshadow="2"
   inkscape:window-width="1920"
   inkscape:window-height="991"
   id="namedview25"
   showgrid="false"
   inkscape:zoom="4.3635811"
   inkscape:cx="10.266645"
   inkscape:cy="28.669815"
   inkscape:window-x="-9"
   inkscape:window-y="-9"
   inkscape:window-maximized="1"
   inkscape:current-layer="Calque_1" />
<g
   id="g22">
	<path
   d="M38.4,20.2c-2.9-0.1-5.7-0.3-8.6-0.4c-2.6,0-5.2-0.3-7.8-0.6c-1.8-0.2-3.5-0.8-5.2-1.1c-2-0.4-4.1-0.7-6.1-1.1   c-2.6-0.5-5.1-1.1-7.7-1.8c-0.7-0.2-1.3-0.5-2-0.8c-0.2-0.1-0.5-0.4-0.6-0.6c-0.6-0.9-0.4-1.3,0.6-1.6c1.7-0.4,3.4-0.7,5.1-1   c2.4-0.5,4.9-1,7.4-1.4C16.2,9.3,19.1,9,22,8.6c2.3-0.3,4.6-0.6,6.9-1c0.3,0,0.6,0,0.9-0.1c4.4-0.5,8.7-0.5,13.1-0.4   c2,0,3.8-0.2,5.2-1.7c0.2-0.2,0.5-0.3,0.7-0.5c0.2,0,0.3,0.1,0.4,0.2c0.9,1.8,3.6,1.9,5.1,0.2c0.2-0.2,0.3-0.4,0.4-0.6   c0.4-0.8,1.4-1.8,0.7-2.5C54.9,1.7,54,2.8,53.3,3c-0.6,0.2-1.1,0.6-1.7,0.2c-0.1-0.1-0.2-0.3-0.2-0.4c1.4-1.7,3.4-2.4,5.4-2.8   c1.3-0.2,1.8,0.5,1.2,1.7c-0.5,1.2-1.1,2.4-1.6,3.6C56,6.4,55.2,7.2,54,7.6c-0.4,0.1-0.8,0.3-1.2,0.4c0,0,0,0.4,0,0.4   c0.4,0.2,0.8,0.4,1.2,0.4c1.8,0.3,3.5,0.6,5.3,0.8c0.4,0.1,0.8-0.1,1.2-0.2c0.8-0.1,1.5-0.2,2.3-0.2c0.3,0,0.9,0.2,0.9,0.4   c0.4,1.3,1.3,0.7,2.2,0.8c3.2,0.2,6-1.1,8.9-2.2c1.4-0.5,2.8-1,4.2-1.5c0.3-0.1,0.7-0.2,1-0.2c0.7-0.1,1.3-0.1,1.7,0.6   c0.4,0.7,0.4,1.4,0,2c-0.8,1.2-1.6,2.3-2.9,3.1c-1.9,1.3-1.9,1.5-0.1,3.1c0.8,0.8,1.7,1.6,2.4,2.4c0.4,0.4,0.7,0.9,0.8,1.4   c0.2,0.7-0.2,1.3-0.9,1.4c-0.6,0.1-1.2,0.1-1.8,0c-1.6-0.5-3.2-1-4.7-1.7c-1.1-0.5-2.2-1.3-3.3-1.7c-1.3-0.5-2.6-0.8-3.9-1.2   c-0.5-0.1-1-0.2-1.6-0.3c-0.2,0-0.3,0.1-0.5,0.1c0.1,0.2,0.1,0.3,0.2,0.5c0.5,1.3,0.5,1.5-0.8,2c-0.6,0.3-1.2,0.4-1.9,0.6   c-1.1,0.3-2.2,0.6-3.2,1.1c-0.8,0.4-1.5,1.1-1.8,2.1c-0.5,1.6-1.5,2-2.9,1.1c-1.3-0.8-2.4-1.9-3.6-2.9c0-0.2,0.1-0.3,0.3-0.4   c1.1-0.5,1.8,0.4,2.5,0.9c1,0.7,1.7,0.9,2.5-0.3c1.2-1.7,2.9-2.4,4.8-2.9c0.9-0.2,1.5-0.4,1-1.7c-0.4-1.1,0.6-1.5,1.6-1.6   c2.2-0.2,4.3,0.1,6.4,0.7c2.4,1.2,4.8,2.7,7.4,3.5c0.4,0.1,1,0.4,1.3-0.1c0.3-0.5-0.3-0.8-0.6-1.1c-0.5-0.6-1.1-1.1-1.6-1.6   c-1.5-1.6-1.4-2.8,0.4-4.1c0.7-0.5,1.5-1,2-1.7c0.2-0.3,0.5-0.7,0.2-1.1c-0.3-0.3-0.7-0.2-1-0.1c-1.8,0.6-3.4,1.4-5.1,2.1   c-0.6,0.3-0.8,0.8-0.7,1.5c0.1,0.8-0.1,1.5-0.5,2.2c-0.3,0.7-0.8,1.2-1.7,0.7c-1.1-0.4-2.2-0.7-2-2.2c0.1-0.7-0.5-1-1.1-1   c-1.1,0.1-2.2,0-3.3,0.1c-1,0.1-2,0-2.9-0.6c-0.3-0.2-0.6-0.3-1-0.3c-3.8,0.2-7.3-1-10.9-1.9c-3.6-0.9-7.2-0.6-10.7-0.5   c-5.1,0.2-10.1,0.6-15.2,1.3c-2.8,0.4-5.7,0.9-8.5,1.3c-0.5,0.1-1.3,0.1-1.3,0.9c0,0.7,0.6,1.2,1,1.6c0.3,0.3,0.3-0.2,0.4-0.3   c0.1-0.7,0.2-1.5,1.2-1.4c1.2,0.1,1,1.2,1.1,1.9c0.1,1-0.4,1.8-1.2,2.3c-0.2,0.1-0.4,0-0.5,0.2c0.1-0.1,0.3,0,0.4-0.1   c1.4-0.9,1.5-2.2,1.1-3.6c-0.2-0.6-0.7-1.3,0.4-1.5c0.9-0.2,1.5,0.4,1.6,1.3c0,0.2,0,0.4,0,0.5c0-0.1,0-0.3,0.1-0.4   c0.3-0.7,0.9-1.1,1.7-1c0.8,0.1,1.4,0.5,1.5,1.3c0.2,1.4,1.2,1.8,2.4,1.9c1.1,0.2,2.3,0.4,3.3,0.8c1.4,0.6,1.5,1.7,0.3,2.7   c-0.1,0.1-0.3,0.1-0.4,0.1c0.2,0.1,0.3,0,0.5,0c2.9,0,5.9,0.3,8.8-0.3c1.4-0.3,1.8,0.2,1.6,1.8C38.7,20.1,38.6,20.1,38.4,20.2z"
   id="path2" />
	<path
   d="M51.4,20.2c-0.2-0.1-0.5-0.2-0.6-0.3c-0.6-0.7-1.3-0.8-2.2-0.6c-1.4,0.3-2.9,0.4-4.4,0.5c-1,0-0.6,0.5-0.5,1   c0,0.1,0,0.2,0,0.4c-0.1,0.1-0.1,0.1-0.2,0.2c-1.6,0.1-2.5-1.2-3.7-2c-0.4-0.2-0.4-0.7-0.2-1.1c0.3-0.4,0.8-0.7,1.2-0.6   c4.3,1.4,8.5-0.2,12.8-0.6c0.4,0,0.7-0.1,1.1-0.2c0.7-0.1,1.4,0,1.6,0.8c0.1,0.7-0.5,1-1,1.3c-1.1,0.6-2.5,0.2-3.6,1   C51.5,20,51.4,20.1,51.4,20.2z"
   id="path4" />
	<path
   d="M43.6,21.1c0.3,0.5,0.7,0.9,0.9,1.4c0.2,0.5-0.1,0.9-0.7,0.8c-0.3-0.1-0.6-0.2-0.8-0.3c-1.4-0.7-2.8-1.5-4.2-2.3   c-0.2-0.1-0.3-0.4-0.4-0.6c0.1-0.1,0.2-0.2,0.3-0.2c1.1-0.8,1.9,0.3,2.7,0.6c0.7,0.3,1.2,1.1,2.1,0.6   C43.5,21.2,43.6,21.1,43.6,21.1z"
   id="path6" />
	<path
   d="M48.8,5c0.4-1.2,1.6-1.6,2.5-2.2c0.1,0.1,0.1,0.2,0.2,0.3c-0.1,1.7-0.8,2.2-2.5,2.1C49,5.1,48.9,5,48.8,5z"
   id="path8" />
	<path
   d="M42.5,14.4c-1.4,0-2.9,0-4.3,0c-0.2,0-0.4-0.1-0.6-0.2c0.2-0.1,0.3-0.1,0.5-0.2c1.3,0,2.6,0,3.9-0.1   c2.6-0.1,5.1-0.2,7.6-0.4c0.5,0,0.9-0.2,1.4-0.3c0.2,0,0.4,0.1,0.6,0.2c-0.2,0.1-0.3,0.4-0.5,0.4c-2,0-3.8,0.7-5.8,0.5   C44.4,14.4,43.5,14.4,42.5,14.4C42.5,14.4,42.5,14.4,42.5,14.4z"
   id="path10" />
	<path
   d="M65.7,13.3c-0.6,0-1.2,0-1.8,0c-0.1,0-0.3-0.2-0.4-0.2c0.1-0.1,0.2-0.4,0.3-0.4c1.3,0,2.6,0,3.9,0c0.1,0,0.3,0.2,0.4,0.3   c-0.2,0.1-0.3,0.3-0.5,0.3C67,13.3,66.4,13.3,65.7,13.3C65.7,13.3,65.7,13.3,65.7,13.3z"
   id="path12" />
	<path
   d="M61.8,15.9c-0.1,0.1-0.1,0.2-0.2,0.3c-1.4,0.5-2.8,1-4.2,1.4c-0.1,0-0.2,0-0.3-0.1c0,0,0-0.2,0-0.3c1.5-0.5,2.9-1,4.4-1.4   C61.6,15.8,61.7,15.9,61.8,15.9z"
   id="path14" />
	<path
   d="M62.3,12.9c-0.1-0.1,0,0,0.1,0.2c0,0-0.1,0.2-0.2,0.2c-1,0.1-2,0.2-3,0.3c-0.1,0-0.3-0.2-0.4-0.2c0.1-0.1,0.3-0.4,0.4-0.4   C60.2,12.9,61.1,12.9,62.3,12.9z"
   id="path16" />
	<path
   d="M54.2,13.1c0.3,0.1,0.5,0.2,0.7,0.3c-0.2,0.1-0.4,0.2-0.6,0.3c-0.4,0.1-0.8,0.5-1.3,0c0,0,0-0.2,0-0.2   C53.4,13.4,53.8,13.3,54.2,13.1z"
   id="path18" />
	<path
   d="M56.7,13.8c-0.3-0.1-0.5-0.2-0.7-0.3c0.3-0.1,0.7-0.3,1-0.4c0.1,0,0.3,0.2,0.4,0.2C57.2,13.5,56.9,13.6,56.7,13.8z"
   id="path20" />
</g>
<path
   style="fill:#000000;stroke:#000000;stroke-width:0.857;fill-opacity:1;stroke-opacity:1;stroke-miterlimit:4;stroke-dasharray:none"
   d="m 55.072079,21.193576 c -0.345348,-0.07375 -0.735781,-0.298728 -1.422799,-0.819861 -0.353699,-0.268296 -0.742184,-0.531532 -0.8633,-0.584968 -0.121115,-0.05344 -0.22021,-0.114622 -0.22021,-0.135968 0,-0.04885 0.463422,-0.13686 1.34545,-0.255503 0.796115,-0.107088 1.148724,-0.21459 1.603175,-0.48877 0.446126,-0.269158 0.701111,-0.528568 0.780715,-0.794264 0.124791,-0.416513 -0.07063,-0.887884 -0.463868,-1.11889 -0.25695,-0.150945 -0.964282,-0.159634 -1.661285,-0.02041 -0.267842,0.0535 -0.860818,0.138844 -1.317725,0.189651 -0.456907,0.05081 -1.81044,0.256665 -3.007851,0.457464 -3.126858,0.524358 -3.535327,0.569381 -5.184961,0.571517 -1.568334,0.002 -1.954151,-0.04037 -3.219619,-0.35386 -0.745019,-0.18456 -0.867667,-0.200886 -1.064988,-0.141768 -0.548488,0.164331 -0.92513,0.630276 -0.927743,1.147715 -0.0013,0.261034 0.115222,0.420712 0.54302,0.744021 0.160144,0.121029 0.1621,0.12676 0.02865,0.08396 -0.183075,-0.05872 -0.850564,-0.05965 -1.009673,-0.0014 -0.116709,0.04272 -0.122661,0.02511 -0.146761,-0.434039 -0.04333,-0.825633 -0.306219,-1.128463 -0.97977,-1.128644 -0.182321,-4.9e-5 -0.697953,0.06271 -1.145848,0.139453 -0.447895,0.07675 -1.136624,0.171498 -1.530509,0.210557 -0.777989,0.07715 -4.359648,0.09014 -5.946526,0.02158 l -0.933442,-0.04033 0.291306,-0.308013 c 0.160218,-0.169408 0.341221,-0.417985 0.402229,-0.552395 0.136265,-0.300213 0.146503,-0.787604 0.02205,-1.049864 -0.111556,-0.235088 -0.506919,-0.607849 -0.805272,-0.759239 -0.563564,-0.285961 -2.263568,-0.698864 -4.025138,-0.97764 -1.05327,-0.166684 -1.656671,-0.724385 -1.867351,-1.72592 -0.156806,-0.745431 -0.437086,-1.082096 -1.078369,-1.295308 -0.373048,-0.124031 -1.02583,-0.127221 -1.310128,-0.0064 -0.273054,0.116039 -0.701239,0.511527 -0.792588,0.732064 -0.03925,0.09475 -0.08117,0.16246 -0.09317,0.150463 -0.012,-0.012 -0.06128,-0.173957 -0.109512,-0.359914 -0.122489,-0.47222 -0.322228,-0.736542 -0.694045,-0.918454 -0.271956,-0.133056 -0.355931,-0.147623 -0.677759,-0.117571 -0.455081,0.0425 -0.81499,0.215377 -0.865247,0.415617 -0.02015,0.0803 -0.02335,0.245084 -0.0071,0.366193 l 0.02954,0.220199 -0.197637,-0.08258 c -0.273787,-0.114395 -0.877506,-0.111381 -1.103549,0.0055 -0.253847,0.131269 -0.38256,0.373731 -0.520998,0.981428 -0.06588,0.289214 -0.15693,0.573914 -0.202322,0.632668 -0.07767,0.100538 -0.106,0.08255 -0.481329,-0.305618 -0.475401,-0.491666 -0.690157,-0.880622 -0.690157,-1.249977 0,-0.43846 0.176295,-0.65083 0.658862,-0.793681 0.114757,-0.03397 4.585821,-0.731102 7.765304,-1.210771 6.447115,-0.9726362 14.590308,-1.5926696 21.024124,-1.6008043 3.204154,-0.00405 4.362791,0.129371 6.952462,0.8006074 5.757405,1.4923059 6.436165,1.6188779 9.032115,1.6842699 l 1.575541,0.03969 0.687509,0.357804 c 1.035389,0.538855 1.07232,0.543344 3.929062,0.477629 1.486448,-0.03419 2.436519,-0.03425 2.559989,-1.6e-4 0.107983,0.02981 0.290579,0.14056 0.405768,0.246099 l 0.209437,0.19189 0.01407,0.61925 c 0.01207,0.531194 0.03498,0.661981 0.161097,0.919754 0.08086,0.165277 0.213359,0.352684 0.294437,0.41646 0.180865,0.142269 0.114488,0.146861 -0.439221,0.03038 -0.901254,-0.189586 -1.866431,-0.276638 -3.09553,-0.279194 -1.415845,-0.0029 -1.938424,0.0635 -2.447178,0.311178 -0.618587,0.301143 -0.768264,0.710096 -0.534091,1.459258 0.21785,0.696942 0.161547,1.064576 -0.196976,1.286155 -0.09767,0.06036 -0.524684,0.203542 -0.948918,0.318175 -2.321747,0.627362 -3.636931,1.437725 -4.713674,2.904377 -0.475099,0.647143 -0.889023,0.882251 -1.371765,0.779163 z m 3.201386,-3.825753 c 0.841493,-0.259994 3.346868,-1.123576 3.369488,-1.161436 0.0053,-0.0089 0.05183,-0.08373 0.103317,-0.166235 0.09065,-0.145242 0.08898,-0.152124 -0.05243,-0.216554 -0.188358,-0.08582 -0.473915,-0.0096 -2.811584,0.750794 l -1.790387,0.58235 v 0.187048 c 0,0.16392 0.102454,0.298517 0.232607,0.305584 0.01765,9.57e-4 0.444691,-0.125739 0.948989,-0.281551 z M 45.919853,14.35941 c 0.596254,-0.01256 1.327707,-0.06858 1.80471,-0.138221 0.441151,-0.06441 1.150145,-0.168335 1.575541,-0.230953 0.425396,-0.06262 1.035571,-0.13139 1.355945,-0.152825 0.578014,-0.03867 0.584117,-0.04063 0.792869,-0.254412 l 0.210371,-0.21544 -0.259875,-0.09925 c -0.289066,-0.110395 -0.428183,-0.101083 -1.096693,0.07341 -0.514498,0.134292 -1.917845,0.243088 -4.955792,0.384202 -1.024102,0.04757 -2.416307,0.113278 -3.09379,0.146018 -0.677482,0.03274 -1.889216,0.07371 -2.692742,0.09103 -1.074824,0.02318 -1.534242,0.05456 -1.73824,0.11872 -0.30749,0.09671 -0.297097,0.149388 0.05526,0.280106 0.187566,0.06958 0.751029,0.07743 3.630917,0.05055 1.874894,-0.0175 3.860075,-0.04132 4.411515,-0.05294 z m 8.088749,-0.513491 c 0.464,-0.174649 0.906156,-0.388385 0.906156,-0.438032 0,-0.02093 -0.15507,-0.107643 -0.344601,-0.1927 l -0.344602,-0.154648 -0.367002,0.146824 c -0.20185,0.08075 -0.388386,0.146968 -0.414523,0.147144 -0.02614,1.77e-4 -0.145755,0.0276 -0.26582,0.06094 -0.188694,0.0524 -0.215889,0.08063 -0.200524,0.208162 0.01208,0.100292 0.08171,0.18169 0.217407,0.25417 0.260191,0.138974 0.371201,0.134627 0.813509,-0.03186 z m 3.070176,-0.272697 0.367298,-0.239304 -0.134134,-0.103504 c -0.07377,-0.05693 -0.177901,-0.118129 -0.231394,-0.136004 -0.09028,-0.03017 -0.925762,0.27454 -1.043897,0.380722 -0.04769,0.04286 0.49225,0.335477 0.621531,0.336834 0.02931,3.1e-4 0.218582,-0.107127 0.420596,-0.238744 z m 3.794389,-0.108532 c 1.105672,-0.104267 1.366138,-0.145544 1.456936,-0.23089 0.08915,-0.08379 0.09899,-0.129367 0.05081,-0.235262 l -0.05976,-0.131336 -1.511764,0.03372 c -0.83147,0.01855 -1.563327,0.05255 -1.626349,0.07557 -0.06302,0.02302 -0.185792,0.127751 -0.272825,0.232743 l -0.15824,0.190894 0.186886,0.118296 c 0.125707,0.07957 0.252532,0.110919 0.38741,0.09576 0.110288,-0.01239 0.806391,-0.07967 1.546895,-0.149498 z m 7.068447,-0.308964 0.222005,-0.169814 -0.191195,-0.159617 -0.191195,-0.159617 h -2.020887 -2.020887 l -0.137521,0.214847 -0.137521,0.214846 0.208302,0.129837 c 0.207051,0.129058 0.21983,0.129746 2.127598,0.114585 l 1.919295,-0.01525 z"
   id="path854" /><path
   style="fill:#a0a0a0;stroke:none;stroke-width:0.0572924"
   d="M 78.261408,18.52704 C 77.834629,18.424754 76.588081,17.983996 75.92529,17.701027 75.011521,17.310908 74.226307,16.923724 72.487262,16.005754 l -1.248047,-0.658792 0.233179,-0.115368 c 0.350662,-0.173493 0.764424,-0.845269 1.03283,-1.676884 0.111103,-0.344237 0.128361,-0.513708 0.121826,-1.19638 -0.0083,-0.869987 0.05667,-1.131232 0.348059,-1.398932 0.226805,-0.208367 3.92132,-1.8036965 5.180895,-2.2371641 0.685738,-0.2359883 0.945553,-0.2373052 1.176893,-0.00597 0.152867,0.1528668 0.170772,0.2034986 0.143603,0.4060666 -0.06216,0.4634384 -0.669828,1.1744245 -1.545011,1.8077025 -1.107779,0.801582 -1.489563,1.125743 -1.760642,1.494907 -0.510932,0.695801 -0.571147,1.296516 -0.206012,2.055215 0.263038,0.546556 0.480719,0.800905 1.831217,2.139693 0.651623,0.645972 1.199721,1.232503 1.217997,1.303402 0.10397,0.403347 -0.285458,0.715755 -0.752641,0.603785 z"
   id="path856" /><path
   style="fill:#000000;stroke:#000000;stroke-width:0.457;fill-opacity:1;stroke-opacity:1;stroke-miterlimit:4;stroke-dasharray:none"
   d="m 77.516607,18.257966 c -1.453073,-0.48981 -2.418248,-0.922961 -4.640684,-2.082647 -0.819281,-0.427507 -1.502493,-0.789504 -1.518248,-0.804436 -0.01576,-0.01493 0.01003,-0.04005 0.05729,-0.05582 0.174746,-0.05829 0.5779,-0.54131 0.769703,-0.92218 0.354002,-0.702953 0.440232,-1.046034 0.469332,-1.867302 0.03833,-1.081664 0.0612,-1.210019 0.254995,-1.430736 0.18692,-0.21289 1.264708,-0.722443 3.436682,-1.6247806 2.136575,-0.8876316 2.61248,-1.0094557 2.939266,-0.7524059 0.188051,0.1479211 0.200796,0.4183459 0.03503,0.7432745 -0.19712,0.3863859 -0.847476,1.015205 -1.782961,1.723914 -0.492949,0.373451 -1.021472,0.816212 -1.174494,0.983913 -0.777229,0.851783 -0.847025,1.640394 -0.235922,2.665658 0.108398,0.181862 0.74623,0.88744 1.518917,1.680245 1.457984,1.495945 1.494236,1.552395 1.191421,1.855209 -0.202304,0.202304 -0.450618,0.181258 -1.320329,-0.111909 z"
   id="path858" /><path
   style="fill:#a0a0a0;stroke:none;stroke-width:0.0572924"
   d="M 50.716826,6.3290223 C 50.255208,6.1675729 49.761288,5.8393353 49.518294,5.5325297 49.420823,5.4094637 49.350629,5.3000458 49.362305,5.2893788 c 0.01168,-0.010667 0.233612,-0.047556 0.493191,-0.081976 1.026722,-0.1361426 1.479861,-0.6158597 1.643723,-1.7401331 l 0.03953,-0.2712471 0.142289,0.093231 C 52.059534,3.5372537 53.123989,3.2243716 54.139209,2.5667069 54.948659,2.0423421 55.13239,1.9990372 55.393108,2.2711677 55.7097,2.6016191 55.65056,3.0635018 55.197425,3.7994545 55.062848,4.0180251 54.841905,4.3914398 54.70644,4.629265 54.377264,5.2071748 54.07453,5.5394175 53.569096,5.8774725 52.95735,6.286633 52.55769,6.4109637 51.761165,6.439904 51.17916,6.46105 51.057336,6.448114 50.716822,6.3290222 Z"
   id="path860" /><path
   style="fill:#a0a0a0;stroke:none;stroke-width:0.0572924"
   d="M 50.647213,6.263673 C 50.224655,6.0853031 49.737298,5.7538845 49.554969,5.5209108 c -0.161861,-0.20682 -0.135105,-0.2319898 0.30607,-0.287922 0.939049,-0.1190529 1.461408,-0.6234269 1.62328,-1.5673901 l 0.06753,-0.3938253 0.224574,0.077372 c 0.176827,0.060922 0.298419,0.063981 0.571902,0.014389 0.437504,-0.079335 0.959736,-0.2724166 0.959736,-0.3548382 0,-0.034498 0.01603,-0.046694 0.03562,-0.027101 0.04328,0.043276 0.404204,-0.1383991 1.047753,-0.527392 0.582627,-0.3521689 0.783703,-0.3752213 1.002702,-0.1149551 0.184806,0.2196285 0.197848,0.5970824 0.03317,0.9599684 -0.180697,0.3981882 -1.00316,1.7351462 -1.229001,1.9978071 C 53.938579,5.5990951 53.246553,6.06565 52.809823,6.2331213 52.545385,6.3345243 52.324848,6.3654145 51.732516,6.384017 51.037642,6.40584 50.964889,6.397773 50.647206,6.2636724 Z"
   id="path862" /><path
   style="fill:#a0a0a0;stroke:none;stroke-width:0.0572924"
   d="m 50.647213,6.2599153 c -0.18728,-0.076988 -0.4786,-0.2350842 -0.647377,-0.3513253 -0.29174,-0.2009296 -0.60917,-0.5348229 -0.557538,-0.5864552 0.01324,-0.013235 0.221255,-0.058354 0.462266,-0.1002644 0.54311,-0.094444 0.874233,-0.2509026 1.129887,-0.5338816 0.221668,-0.2453602 0.416444,-0.713781 0.472495,-1.136314 l 0.03747,-0.2824632 0.228292,0.078653 c 0.180556,0.062207 0.300711,0.065521 0.574633,0.015849 0.39808,-0.072186 0.911135,-0.2620314 0.973628,-0.3602717 0.02345,-0.03686 0.04303,-0.047159 0.04351,-0.022885 0.0011,0.055385 0.280055,-0.08726 0.971906,-0.4969898 0.644739,-0.3818293 0.835954,-0.4079181 1.057758,-0.1443182 0.113913,0.1353775 0.148032,0.2383894 0.147066,0.444016 -0.0015,0.3268207 -0.09458,0.5371329 -0.668315,1.5106215 -0.56651,0.9612293 -0.995794,1.4082006 -1.684448,1.7538485 -0.565343,0.2837559 -0.899585,0.3553708 -1.649943,0.3535182 -0.450905,-0.00111 -0.612527,-0.026743 -0.89129,-0.1413378 z"
   id="path864" /><path
   style="fill:#a0a0a0;stroke:none;stroke-width:0.0572924"
   d="M 50.66009,6.2651489 C 50.212862,6.081219 49.786468,5.7993173 49.584046,5.5537439 49.491262,5.4411814 49.424653,5.3397802 49.436025,5.328408 49.447398,5.3170356 49.68765,5.2604148 49.969918,5.2025839 50.538014,5.0861932 50.866259,4.9124693 51.101959,4.6034511 51.291971,4.3543327 51.457376,3.9253525 51.506655,3.553868 l 0.03776,-0.2846564 0.22922,0.078973 c 0.126071,0.043435 0.271522,0.066741 0.323223,0.051791 0.0517,-0.01495 0.196735,-0.042396 0.322296,-0.060992 0.302932,-0.044864 0.888909,-0.2608734 0.888909,-0.3276797 0,-0.029148 0.02171,-0.039581 0.04824,-0.023183 0.02653,0.016398 0.252121,-0.088701 0.501309,-0.2335524 0.929632,-0.5403916 1.030093,-0.5895406 1.207099,-0.5905549 0.270228,-0.00155 0.478145,0.2686584 0.476497,0.6192511 -0.0015,0.3267733 -0.09869,0.546482 -0.670457,1.516259 -0.899269,1.5252471 -1.803896,2.1050515 -3.279174,2.1017292 -0.500853,-0.00113 -0.659742,-0.024344 -0.931487,-0.136104 z"
   id="path866" /><path
   style="fill:#a0a0a0;stroke:none;stroke-width:0.0572924"
   d="M 50.66009,6.2651489 C 50.212862,6.081219 49.786468,5.7993173 49.584046,5.5537439 49.491262,5.4411814 49.425918,5.3385149 49.438837,5.325596 c 0.01292,-0.012919 0.203176,-0.057727 0.422794,-0.099573 1.023308,-0.1949827 1.437725,-0.6007514 1.618556,-1.584779 0.06244,-0.3397986 0.08213,-0.3775167 0.171983,-0.3294312 0.25134,0.1345132 1.132991,-9.202e-4 1.530261,-0.2350684 0.104211,-0.061422 0.220228,-0.1116941 0.257815,-0.1117171 0.03759,-2.29e-5 0.287485,-0.1310752 0.555326,-0.2912273 0.992712,-0.593577 1.149131,-0.6309941 1.398571,-0.3345515 0.113913,0.1353775 0.148032,0.2383894 0.147066,0.444016 -0.0015,0.3288426 -0.110713,0.5758473 -0.674875,1.5269854 C 54.319919,5.2314684 53.868631,5.7049205 53.215568,6.04209 52.65867,6.3296107 52.322865,6.4029997 51.572149,6.4012529 51.091718,6.4001351 50.929421,6.3759158 50.66009,6.2651489 Z"
   id="path868" /><path
   style="fill:#000000;fill-opacity:1;stroke:#000000;stroke-width:0.0261826;stroke-miterlimit:4;stroke-dasharray:none;stroke-opacity:1"
   d="M 50.66009,6.2651489 C 50.212862,6.081219 49.786468,5.7993173 49.584046,5.5537439 49.491262,5.4411814 49.42512,5.339313 49.437064,5.3273696 c 0.01194,-0.011943 0.211038,-0.060547 0.442432,-0.1080071 1.01857,-0.2089155 1.42157,-0.6070185 1.601164,-1.5817066 0.06199,-0.3364468 0.08171,-0.3739036 0.17151,-0.3258429 0.25134,0.1345132 1.132991,-9.202e-4 1.530261,-0.2350684 0.104211,-0.061422 0.211269,-0.1116754 0.237906,-0.1116754 0.02664,0 0.36649,-0.180471 0.755229,-0.4010467 0.818665,-0.4645212 0.990217,-0.496165 1.218577,-0.2247738 0.194675,0.2313582 0.199086,0.6003405 0.01198,1.0021577 C 55.207924,3.767049 54.540462,4.8657058 54.279515,5.1958287 53.869225,5.7148842 53.086764,6.2063486 52.46018,6.338554 52.293197,6.373786 51.893583,6.402001 51.572148,6.401253 51.091717,6.400133 50.92942,6.375916 50.660089,6.265149 Z"
   id="path870" /><path
   style="fill:#000000;fill-opacity:1;stroke:#000000;stroke-width:1.026;stroke-miterlimit:4;stroke-dasharray:none;stroke-opacity:1"
   d="M 50.455808,6.1187299 C 50.169127,5.9800943 49.882286,5.787178 49.716845,5.6217365 L 49.446442,5.3513334 49.975623,5.2215264 C 50.974682,4.9764592 51.262071,4.670503 51.530082,3.5666393 l 0.05564,-0.2291695 0.400903,0.018949 c 0.557435,0.026347 0.90186,-0.086739 1.990526,-0.6535551 1.019237,-0.5306686 1.198972,-0.5735737 1.389279,-0.331638 0.211717,0.2691555 0.16345,0.6487228 -0.15996,1.257894 -0.407777,0.7680821 -0.957468,1.5923925 -1.220129,1.8296917 -0.726779,0.6566003 -1.339641,0.8865092 -2.363147,0.8865092 -0.696796,0 -0.70019,-6.588e-4 -1.167388,-0.2265905 z"
   id="path872" /><path
   style="fill:#000000;fill-opacity:1;stroke:#000000;stroke-width:1.026;stroke-miterlimit:4;stroke-dasharray:none;stroke-opacity:1"
   id="path874"
   d="m 15.140863,16.470061 c 0.204477,0.197645 0.476515,0.279074 0.744937,0.349814 0,0 0.67984,-0.468695 0.67984,-0.468695 v 0 c -0.254247,-0.0613 -0.514738,-0.12891 -0.700079,-0.325215 0,0 -0.724698,0.444096 -0.724698,0.444096 z" /><path
   style="fill:#000000;fill-opacity:1;stroke:#000000;stroke-width:1.026;stroke-miterlimit:4;stroke-dasharray:none;stroke-opacity:1"
   id="path878"
   d="m 41.118165,19.855936 c -0.0647,-0.0557 -0.03319,-0.02532 -0.09397,-0.09171 0,0 -0.72347,0.436922 -0.72347,0.436922 v 0 c 0.06419,0.07591 0.03172,0.04026 0.09695,0.107353 0,0 0.720495,-0.452562 0.720495,-0.452562 z" /><path
   style="fill:#000000;fill-opacity:1;stroke:#000000;stroke-width:1.026;stroke-miterlimit:4;stroke-dasharray:none;stroke-opacity:1"
   id="path882"
   d="M 52.9225,3.5822768 C 52.78625,3.4492597 52.66726,3.3001171 52.525543,3.1728234 52.434057,3.0805103 52.331075,3.0036942 52.223209,2.9320243 c -0.03922,-0.020277 -0.07683,-0.040983 -0.111574,-0.068103 0,0 -0.72261,0.4495902 -0.72261,0.4495902 v 0 c 0.03604,0.033971 0.07145,0.063661 0.120045,0.078382 0.108848,0.064637 0.210504,0.1379764 0.301654,0.2264281 0.145444,0.1191621 0.263871,0.2668987 0.387078,0.4080504 0,0 0.724698,-0.4440954 0.724698,-0.4440952 z" /><path
   style="fill:#000000;fill-opacity:1;stroke:#000000;stroke-width:1.026;stroke-miterlimit:4;stroke-dasharray:none;stroke-opacity:1"
   id="path884"
   d="M 50.843623,6.6861204 C 50.805507,6.4921872 50.749367,6.3043859 50.676824,6.1206468 50.611494,5.9960597 50.549405,5.8663021 50.454239,5.7614632 c 0,0 -0.724419,0.4424781 -0.724419,0.4424781 v 0 c 0.09487,0.089666 0.146894,0.215677 0.212422,0.3266273 0.07102,0.1782905 0.130415,0.3599806 0.149625,0.5521258 0,0 0.751756,-0.396574 0.751756,-0.396574 z" /></svg>
