<?xml version="1.0" encoding="iso-8859-1"?>
<!-- Generator: Adobe Illustrator 25.3.0, SVG Export Plug-In . SVG Version: 6.00 Build 0)  -->
<svg version="1.1" id="Calque_1" xmlns="http://www.w3.org/2000/svg" xmlns:xlink="http://www.w3.org/1999/xlink" x="0px" y="0px"
	 viewBox="0 0 72.1 50.2" style="enable-background:new 0 0 72.1 50.2;" xml:space="preserve">
<g>
	<path d="M72.1,25.9c0.1,2-0.4,3.4-2,5.6c-0.3,0.5-0.7,1-0.9,1.5c-0.2,0.7-0.4,1.2-1,1.6c-0.1,0.1-0.1,0.4-0.2,0.5
		c-0.1,0.4-0.2,0.5-0.6,0.4c-0.2-0.1-0.4,0-0.6,0c0.4,0.8-0.4,0.9-0.7,1.2c-0.4,0.4-0.7,0.7-1.4,0.6c-0.2,0-0.5,0.9-1.3,0.4
		c-0.3-0.2-1.3,1.3-1,1.8c0.6,1.1,0.2,1.9-0.6,2.7c0,0-0.1,0.1-0.1,0.2c-0.3,0.4-0.6,1-1,1.1c-0.3,0.1-0.8-0.5-1.2-0.7
		c-0.2-0.1-0.6-0.1-0.8,0c-1.1,0.8-2.1,1.7-3.2,2.6c-0.7,0.7-1.4,1.4-2,2.1c-1.4,1.5-3.3,1.8-5.1,2.1c-1.3,0.2-2.6,0-3.9,0.5
		c-0.8-0.6-1.7,0-2.5-0.3c-0.7-0.2-1.7,0.1-2.6-0.1c-0.9-0.2-1.9-0.2-2.8-0.4c-0.9-0.1-1.9-0.3-2.8-0.6c-2.6-0.9-5.2-1.9-7.6-3.5
		c-2.3-1.5-4.6-3-6.7-4.8c-1.5-1.3-2.9-2.7-3.6-4.7c-0.9-2.4-1.1-2.4-0.2-5.1c0-0.1,0-0.2,0-0.3c-0.1,0-0.2,0-0.3,0.1
		c-0.1,0-0.2,0.1-0.3,0.2c-1.7,1.1-3.6,1.3-5.4,0.8c-1.4-0.3-2.7-1-3.8-1.8C4.4,28.7,3,27.5,2,25.9c-0.8-1.3-1.3-2.8-1.9-4.2
		C0,21.4,0,21,0.1,20.8c0.7-1.3,1.3-2.6,2.5-3.7c2-1.8,4.4-2.8,6.7-4c1.9-1,3.8-0.6,5.7,0.2c0.7,0.3,1.4,0.7,2.1,1.1
		c0.1,0.1,0.3,0.2,0.4,0.2c0-0.2-0.1-0.3-0.1-0.5c0-0.2-0.1-0.5,0-0.7c0.4-0.7,0.7-1.5,0.9-2.4c0.2-0.8,0.7-1.6,1.2-2.4
		c0.3-0.5,0.7-0.9,1.2-1.3c1.1-1.1,2.1-2.5,3.8-3c1.4-0.4,2.5-1.5,3.8-2.2c1.1-0.5,2.2-0.8,3.3-1c1-0.2,2.2,0,2.9-0.4
		c1-0.6,2,0.1,2.9-0.3c0.8-0.4,1.9-0.1,2.9-0.2C41.5,0,42.6,0.5,43.8,0c2.5,1.1,5.3,0.8,7.8,2c2.5,1.2,5.2,2.1,7.5,3.8
		c0.9,0.6,1.6,1.4,2.6,1.9c1.2,0.7,1.9,1.6,2.6,2.8c0.2,0.4,0.7,0.7,1,1c1.8,1.9,3.1,4,4,6.4c0.1,0.2,0.2,0.5,0.3,0.6
		c0.8,1,1.3,2.1,1.8,3.3C71.7,23.2,72,24.5,72.1,25.9z"/>
	<path d="M16.1,16.6c-1-0.7-2.1-1.3-3.1-2.1c-0.2-0.1-0.2-0.4-0.3-0.6c0.2,0,0.5,0,0.6,0c0.8,0.4,1.6,0.9,2.4,1.4
		C16.1,15.7,16.8,16,16.1,16.6z"/>
	<path d="M60.1,31.3c0-0.1,0-0.4,0.1-0.7c0.1-0.2,0.3-0.3,0.5-0.5c0.1,0.2,0.2,0.3,0.3,0.5c0,0.2,0,0.5,0,0.7c0,1.7,0.2,1.9,1.9,2.1
		c0.9,0.1,1.8,0.3,2.7,0.5c0.1,0,0.3,0.1,0.3,0.2c0,0.2,0,0.4-0.2,0.5c-0.2,0.1-0.4,0.3-0.6,0.2c-1.1-0.2-2.2-0.4-3.3-0.6
		C60.9,34,60.1,32.6,60.1,31.3z"/>
	<path d="M25.1,24.4c-1.3-0.2-2.7-0.3-4-0.5c-0.9-0.1-1.8-0.2-2.7-0.3c-0.1,0-0.2-0.1-0.2-0.2c0.1-0.1,0.2-0.2,0.3-0.2
		c0.9,0,1.7,0.1,2.6,0.1c1.5,0.1,3,0.2,4.4,0.4c0.2,0,0.5,0.2,0.7,0.4c-0.2,0.1-0.5,0.2-0.7,0.3C25.3,24.5,25.2,24.4,25.1,24.4z"/>
	<path d="M56.3,9.7c1.9,0.8,3.9,1.4,5.4,3.1c0.1,0.1,0.1,0.2,0.1,0.3c0,0.1-0.2,0.1-0.3,0.1c0,0-0.1,0-0.2-0.1c-1.7-1-3.4-2-5.1-3
		c-0.1-0.1-0.1-0.2-0.2-0.3C56.1,9.9,56.2,9.8,56.3,9.7z"/>
	<path d="M29.6,22.8c0.2-0.9,0.2-1,0.9-0.5c0.5,0.4,1.7,0.4,1,1.5c0,0,0.2,0.2,0.2,0.3c0.1,0.2,0.1,0.4,0.2,0.5
		c-0.2,0.1-0.5,0.2-0.7,0.1c-0.5-0.2-1-0.4-1.3-0.7C29.7,23.8,29.7,23.2,29.6,22.8z"/>
	<path d="M43.2,13.3c-0.4-0.3-0.7-0.5-1-0.7c-0.1-0.1,0-0.5-0.1-0.7c-0.3-1.6-0.3-1.6,1.2-1.2c0.4,0.1,0.6,0.3,0.5,0.7
		c-0.1,0.4-0.1,0.9-0.2,1.4C43.5,13,43.4,13.1,43.2,13.3z"/>
	<path d="M43.3,7.1c1.2,0.2,2.2,0.3,3.3,0.4c0.1,0,0.2,0.2,0.3,0.2c-0.1,0.1-0.2,0.1-0.3,0.2c-0.2,0.1-0.3,0.2-0.5,0.2
		C44.6,8.1,43,8,41.4,7.8c-0.1,0-0.2-0.2-0.3-0.4c0.1-0.1,0.2-0.1,0.3-0.2C42.1,7.3,42.8,7.2,43.3,7.1z"/>
	<path d="M55.5,9.7C55.3,9.8,55.1,10,55,10c-1.3-0.5-2.7-1-4-1.5c-0.1,0-0.1-0.2-0.1-0.3c0-0.1,0.2-0.2,0.2-0.2
		c1.4,0.4,2.7,0.8,4,1.3C55.3,9.3,55.4,9.5,55.5,9.7z"/>
	<path d="M35.2,8.4c-0.1,0.1-0.2,0.2-0.4,0.3c-1.1,0.4-2.2,0.9-3.3,1.3c-0.1,0-0.3-0.1-0.4-0.2c0,0,0-0.3,0.1-0.3
		c1.1-1,2.5-1.2,3.9-1.4C35.1,8,35.2,8.2,35.2,8.4z"/>
	<path d="M26.1,16.4c-0.1-0.2-0.2-0.4-0.1-0.5c0.2-0.4,0.4-0.7,0.7-1c0,0,0.4,0.1,0.4,0.2c0.2,0.4,0.7,0.7,0.3,1.3
		c-0.1,0.1-0.2,0.3-0.3,0.4c-0.2,0.3,0,1-0.7,0.8c-0.5-0.2-0.6-0.6-0.3-1C26.2,16.4,26.1,16.4,26.1,16.4z"/>
	<path d="M50.1,24.2c-0.3-0.1-0.5-0.2-0.5-0.3c-0.3-0.6-0.8-1.4-0.6-1.8c0.3-0.6,1,0.1,1.6,0.2c0.6,0.1,0.7,0.6,0.2,1
		C50.5,23.6,50.3,23.9,50.1,24.2z"/>
	<path d="M39.6,35.7c0.1-0.3,0.2-0.5,0.1-0.6c-0.1-0.3-0.8-0.5-0.2-0.8c0.3-0.1,0.8,0.1,1.1,0.3c0.2,0.1,0.4,0.5,0.3,0.7
		c0,0.3-0.2,0.7-0.5,0.9c-0.2,0.2-0.5,0.2-0.8,0.3c-0.1-0.2-0.2-0.4-0.2-0.7C39.6,35.8,39.6,35.7,39.6,35.7z"/>
	<path d="M26.4,30.3c0-0.1,0.2-0.3,0.2-0.3c0.5,0.2,1,0.3,1.4,0.7c0.3,0.3,0.2,0.7-0.2,1c-0.1,0.1-0.2,0.2-0.4,0.4
		c-0.3,0.4-0.6,0.3-0.7-0.1C26.5,31.4,26.5,30.9,26.4,30.3z"/>
	<path d="M35.7,16.4c-0.1,0.2-0.2,0.5-0.5,0.6c-0.2,0.1-0.5-0.1-0.7-0.3c-0.2-0.1-0.4-0.3-0.5-0.5c-0.1-0.2,0-0.5,0.2-0.7
		c0.1-0.2,0.4-0.2,0.6-0.3c0.5-0.3,0.9-0.4,0.6,0.5C35.4,15.8,35.6,16.1,35.7,16.4z"/>
	<path d="M21.4,31.3c0.8,0,1.4,0.4,1.3,0.9c-0.1,0.4-0.6,0.8-0.9,1.2c-0.3-0.5-0.6-1-0.8-1.5C21,31.7,21.3,31.4,21.4,31.3z"/>
	<path d="M67.3,19c0,0,0,0.1-0.1,0.1c-0.1,0-0.3,0.1-0.3,0c-0.7-0.8-1.4-1.6-2-2.4c-0.1-0.1,0-0.3,0.1-0.5c0-0.1,0.2-0.1,0.3,0
		c1,0.6,1.5,1.6,2,2.6C67.4,18.9,67.4,19,67.3,19z"/>
	<path d="M40.7,24.8c-0.3-0.4-0.7-0.9-1.1-1.3c-0.2-0.2-0.4-0.3-0.6-0.5c0.2-0.1,0.4-0.1,0.6-0.2c1.4-0.2,1.8,0.4,1.3,2c0,0,0,0,0,0
		C41,24.8,40.8,24.8,40.7,24.8L40.7,24.8z"/>
	<path d="M38.6,7.3c0.4,0.1,0.7,0.1,1.1,0.2c0.1,0,0.3,0.2,0.4,0.2c-0.1,0-0.2,0.1-0.3,0.1c-1.1,0.2-2.2,0.5-3.3,0.6
		c-0.1,0-0.3-0.1-0.4-0.2c0,0,0-0.3,0.1-0.3C37,7.8,37.9,7.5,38.6,7.3z"/>
	<path d="M40.2,42.7c1,0.2,1.7,0.4,2.5,0.6c0,0,0.1,0.1,0.1,0.1c0,0.1-0.1,0.3-0.1,0.3c-0.3,0.1-0.6,0.1-0.8,0.1
		c-0.5-0.1-1-0.2-1.6-0.3c-0.3-0.1-0.6-0.2-0.9-0.3C39.7,43,40,42.8,40.2,42.7z"/>
	<path d="M38.8,41.1c0.2-0.2,0.4-0.4,0.6-0.4c0.5,0,1.3,0.6,1.3,1c0,0.6-0.5,0.8-1,0.8C38.5,42.5,39.7,41.3,38.8,41.1z"/>
	<path d="M36,42.1c0.2-0.1,0.4-0.2,0.5-0.2c0.8,0.3,1.8,0.3,2.3,1.1c0,0.1,0,0.3-0.1,0.3c-1,0.2-1.6-0.4-2.4-0.9
		C36.2,42.4,36.1,42.2,36,42.1C36,42.1,36,42.1,36,42.1z"/>
	<path d="M24.2,35.9c0.1,0,0.1,0,0.2,0c1.2,0.3,2.1,1.1,3,1.8l0,0C25.9,37.9,24.9,37.1,24.2,35.9L24.2,35.9z"/>
	<path d="M49.2,8.6c-0.1,0-0.1,0-0.2,0c-0.4-0.1-0.9,0.1-1-0.5c0-0.4,0.6-0.7,1.1-0.5c0.3,0.1,0.7,0.2,1,0.3
		c0.1,0.1,0.2,0.3,0.2,0.4c0,0.1-0.2,0.2-0.3,0.2C49.8,8.6,49.5,8.6,49.2,8.6C49.2,8.6,49.2,8.6,49.2,8.6z"/>
	<path d="M43.4,14.1c0.4,0.5,0.6,0.7,0.8,1c-0.3,0.2-0.6,0.6-0.9,0.6c-0.2,0-0.7-0.4-0.7-0.6C42.7,14.8,43,14.6,43.4,14.1z"/>
	<path d="M54.6,39.2c-0.3,0.2-0.6,0.6-1,0.7c-0.2,0-0.6-0.3-0.8-0.5c-0.1-0.1-0.1-0.4-0.2-0.6c0.2,0,0.4-0.1,0.6,0
		c0.4,0,0.7,0.1,1,0.2C54.4,38.9,54.5,39,54.6,39.2z"/>
	<path d="M39.9,47.6c-0.8,0.2-0.8-0.6-1.3-0.8c0.1-0.1,0.2-0.4,0.3-0.3c0.4,0,0.8,0.1,1.1,0.2c0.2,0.1,0.3,0.4,0.4,0.5
		C40.3,47.4,40.1,47.5,39.9,47.6z"/>
	<path d="M44.1,25.2c0.7,0,1,0,1.3,0c0.3,0.1,0.6,0.2,0.9,0.3c-0.2,0.6-0.6,0-0.8,0.1c-0.6,0.1-1.2,0.1-1.8,0.1
		c-0.3,0-0.7-0.1-1-0.2c-0.1,0-0.1-0.2-0.2-0.3c0.1,0,0.3-0.1,0.4-0.1C43.5,25.1,44,25.2,44.1,25.2z"/>
	<path d="M40.7,24.8c0,0.4-1.2,0.2-0.6,1.1c0,0-0.4,0.4-0.6,0.6c-0.1,0.1-0.4,0.1-0.5,0c-0.1-0.1-0.2-0.3-0.1-0.5
		C39.1,25.1,39.4,24.9,40.7,24.8L40.7,24.8z"/>
	<path d="M29.2,38.9c0.6-0.5,1,0.1,1.4,0.4c0.3,0.3,0.7,0.5,1.1,0.8C31,40.5,30.5,40,30,39.7C29.7,39.6,29.5,39.2,29.2,38.9
		L29.2,38.9z"/>
	<path d="M55.8,11.9c0.2,0,0.3,0,0.4,0.1c0.4,0.3,1.1,0.3,1,1c0,0.1-0.2,0.2-0.3,0.2c-0.5,0.1-1.2-0.4-1.3-1
		C55.6,12.2,55.7,12,55.8,11.9z"/>
	<path d="M54.7,15.2c0.4,0.3,0.7,0.5,0.8,0.8c0.1,0.4-0.3,0.6-0.7,0.5c-0.2,0-0.6-0.3-0.6-0.4C54.1,15.8,54.4,15.6,54.7,15.2z"/>
	<path d="M25.8,38.6c0,0,0,0.1-0.1,0.1c-0.5,0.1-1,0.2-1.5,0.2c0,0-0.2-0.5-0.1-0.6c0.4-0.4,1.3-0.4,1.6,0
		C25.7,38.5,25.7,38.6,25.8,38.6z"/>
	<path d="M41.5,5.2c0.2,0.4,0.5,0.7,0.5,1c0,0.1-0.5,0.4-0.6,0.4c-0.3-0.1-0.5-0.4-0.6-0.7C40.8,5.8,41.2,5.5,41.5,5.2z"/>
	<path d="M24.1,36c-0.4-0.2-0.9-0.3-1.3-0.5c-0.2-0.2-0.5-0.7-0.4-0.9c0.3-0.5,0.5,0.2,0.7,0.3C23.6,35.1,24.2,35.2,24.1,36L24.1,36
		z"/>
	<path d="M48.9,25.9c-0.4,0-0.6,0-0.7,0c-0.4-0.1-0.8-0.2-1.2-0.4c0.4-0.6,0.9-0.3,1.4-0.1c0.1,0,0.2,0.1,0.3,0.1
		c0.3,0.1,0.6,0.1,0.8,0.2C49.2,25.8,49,25.9,48.9,25.9z"/>
	<path d="M28.1,42.2c-0.3-0.3-0.6-0.5-0.6-0.8c0-0.5,0.4-0.5,0.7-0.4c0.2,0,0.3,0.2,0.5,0.4C28.5,41.6,28.3,41.9,28.1,42.2z"/>
	<path d="M36,42.1c-0.3,0-0.7,0-0.8-0.1c-0.3-0.4-1.2,0.1-1.2-0.7c0.4,0.1,0.9,0,1.3,0.2C35.6,41.5,35.8,41.9,36,42.1L36,42.1z"/>
	<path d="M43.9,43.9c0,0-0.2,0-0.4-0.1c-0.1,0-0.2-0.2-0.1-0.3c0.1-0.3,1.4-0.6,1.6-0.4c0.1,0.1,0,0.4,0,0.5
		C44.6,43.7,44.3,43.8,43.9,43.9z"/>
	<path d="M29.6,7.3c-0.5,0.2-0.8,0.5-0.9,0.4c-0.3-0.3-0.5-0.6-0.8-1c0.1-0.1,0.3-0.3,0.4-0.2C28.6,6.6,28.9,6.9,29.6,7.3z"/>
	<path d="M33.4,24.3c0.2,0,0.5-0.1,0.7,0c0.1,0,0.2,0.2,0.3,0.4c-0.1,0.1-0.2,0.2-0.3,0.2c-0.2,0-0.5,0.1-0.7,0
		c-0.3-0.1-0.6-0.2-0.9-0.3C32.8,24.4,33.1,24.3,33.4,24.3C33.4,24.2,33.4,24.3,33.4,24.3z"/>
	<path d="M21.3,23.1c-0.1-0.2-0.3-0.3-0.3-0.4c0-0.5,0.6-0.8,1.1-0.6c0.1,0,0.2,0.4,0.2,0.4C21.9,22.6,21.6,22.8,21.3,23.1z"/>
	<path d="M33.5,42.5c0.1,0.1,0.3,0.4,0.3,0.4c-0.2,0.2-0.4,0.6-0.6,0.5c-0.3-0.1-0.5-0.4-0.7-0.6C32.8,42.7,33.1,42.6,33.5,42.5z"/>
	<path d="M47.8,6c-0.4,0.2-0.6,0.4-0.8,0.4c-0.2-0.1-0.3-0.4-0.5-0.6c0.2-0.2,0.4-0.4,0.6-0.4C47.3,5.4,47.4,5.7,47.8,6z"/>
	<path d="M39,4.2c-0.2,0.2-0.4,0.4-0.4,0.4c-0.3-0.1-0.7-0.3-1-0.5c0,0,0-0.3,0.1-0.3c0.1-0.1,0.3-0.1,0.4-0.1
		C38.3,3.8,38.6,4,39,4.2z"/>
	<path d="M27.4,37.8c0.8,0.1,1.4,0.3,1.8,1.1l0,0C28.3,39,27.7,38.6,27.4,37.8L27.4,37.8z"/>
	<path d="M20.9,11.5c0.3-0.2,0.5-0.4,0.8-0.6c0.1-0.1,0.4,0,0.5,0.1c0.1,0.1,0.2,0.4,0.1,0.5c-0.1,0.1-0.4,0.2-0.5,0.2
		C21.5,11.7,21.2,11.6,20.9,11.5L20.9,11.5z"/>
	<path d="M36.4,24.7c-0.1,0.2-0.2,0.4-0.3,0.4c-0.4-0.1-0.7-0.3-1-0.5c0,0,0.1-0.2,0.1-0.3C35.5,24.4,35.9,24.6,36.4,24.7z"/>
	<path d="M19,36.1c-0.3,0.2-0.7,0.4-1,0.6c0,0-0.2-0.2-0.2-0.2c0.3-0.2,0.6-0.5,0.9-0.7c0,0,0.2,0.1,0.3,0.2C19,35.9,19,36,19,36.1z
		"/>
	<path d="M63.9,14.6c0.2,0.2,0.4,0.4,0.6,0.6c0,0.1-0.1,0.3-0.2,0.4c-0.3-0.2-0.5-0.4-0.8-0.5C63.6,15,63.7,14.8,63.9,14.6z"/>
	<path d="M41.1,24.8c0.1,0,0.1,0,0.2,0c0.3,0.1,0.5,0.3,0.8,0.4c-0.1,0.1-0.1,0.2-0.2,0.2C41.3,25.6,41.1,25.3,41.1,24.8L41.1,24.8z
		"/>
	<path d="M19.5,32c0.1,0,0.3,0,0.3,0c0.2,0.2,0.5,0.5,0.7,0.7c0,0-0.1,0.2-0.2,0.3c-0.2-0.2-0.5-0.4-0.7-0.7
		C19.5,32.2,19.5,32.1,19.5,32L19.5,32z"/>
	<path d="M56.4,37.7c-0.2-0.2-0.4-0.4-0.4-0.5c0-0.1,0.1-0.2,0.2-0.4c0.2,0.2,0.4,0.3,0.6,0.5C56.6,37.4,56.5,37.5,56.4,37.7z"/>
	<path d="M32.8,40.1c0.3,0.3,0.5,0.4,0.6,0.6C33.3,40.8,33.1,41,33,41c-0.2,0-0.3-0.2-0.4-0.4C32.5,40.5,32.7,40.3,32.8,40.1z"/>
	<path d="M43.6,46c-0.1-0.3-0.2-0.5-0.2-0.7c0-0.1,0.3-0.3,0.3-0.3c0.2,0.1,0.3,0.2,0.5,0.3C44.1,45.5,44,45.6,43.6,46z"/>
	<path d="M11.8,15c0.5,0.2,0.9,0.3,1.2,0.5c0.7,0.4,1.4,0.9,2.1,1.4c0.1,0.1,0.2,0.2,0.2,0.3c-0.2,0-0.3,0.2-0.5,0.1
		c-0.2,0-0.4-0.2-0.7-0.3c-0.9-0.4-1.7-0.8-2.6-1.2c-0.1-0.1-0.3-0.3-0.3-0.4C11.4,15.2,11.6,15.1,11.8,15z"/>
	<path d="M14.6,27.9c-0.1,0.2-0.1,0.3-0.2,0.4c-1.1,0.5-2.2,1-3.4,1.5c-0.1,0-0.3-0.2-0.4-0.3c0,0,0-0.2,0.1-0.3
		c1.1-0.5,2.3-1,3.4-1.5C14.3,27.7,14.5,27.8,14.6,27.9z"/>
	<path d="M9.5,17.2c0.7,0.2,1.4,0.4,2.1,0.6c0.3,0.1,0.7,0.3,1,0.5c0.3,0.2,1-0.2,1.1,0.6c-0.4,0-0.8-0.1-1.1-0.2
		c-1-0.3-2-0.6-3.1-0.9c-0.2,0-0.3-0.2-0.4-0.3C9.1,17.4,9.3,17.3,9.5,17.2z"/>
	<path d="M9,27.3c-0.2-0.1-0.3-0.1-0.4-0.1C8.7,27.1,8.8,27,8.9,27c1.3-0.4,2.6-0.7,3.9-1c0.1,0,0.2,0.1,0.3,0.1
		c-0.1,0.1-0.1,0.2-0.2,0.3c-0.1,0.1-0.2,0.2-0.3,0.2C11.4,26.8,10.2,27.1,9,27.3z"/>
	<path d="M13.6,17.8c-0.2,0-0.3,0.1-0.5,0.1c-1.2-0.5-2.4-1.1-3.5-1.6c-0.1,0-0.1,0-0.2,0c-0.1-0.1-0.1-0.1-0.2-0.2
		c0.1,0,0.2-0.2,0.3-0.1c1.3,0.5,2.6,1,3.9,1.6C13.6,17.4,13.6,17.6,13.6,17.8z"/>
	<path d="M9.7,28.5c0,0-0.1,0-0.2-0.1c0.1-0.1,0.2-0.3,0.4-0.3C10,28,10.2,28,10.3,28c0.3,0,0.7,0,1-0.1c-0.3,0.2-0.6,0.5-1,0.6
		C10.2,28.7,10,28.6,9.7,28.5z"/>
</g>
</svg>
