<?xml version="1.0" encoding="iso-8859-1"?>
<!-- Generator: Adobe Illustrator 25.3.0, SVG Export Plug-In . SVG Version: 6.00 Build 0)  -->
<svg version="1.1" id="Calque_1" xmlns="http://www.w3.org/2000/svg" xmlns:xlink="http://www.w3.org/1999/xlink" x="0px" y="0px"
	 viewBox="0 0 86.6 21.2" style="enable-background:new 0 0 86.6 21.2;" xml:space="preserve">
<g>
	<path d="M6.9,13.7c-0.3,0-0.6,0-0.9,0c-0.5,0-0.6,0.3-0.6,0.7c0.1,0.4,0.3,0.8,0.3,1.2c0,0.2-0.2,0.4-0.3,0.7
		C5,15.8,4.6,17,4.1,16.4c-0.2-0.2-0.4-0.5-0.4-0.8c-0.1-0.4,0.2-1.1,0-1.3c-0.3-0.3-1-0.4-1.5-0.5c-0.5-0.1-1.1,0-1.6-0.1
		C0.3,13.5,0,13,0,12.7c0-0.2,0.4-0.7,0.6-0.7c3.6-0.4,6.2-3,9.4-4.2c1-0.4,1.9-1,3-0.9c0.3,0,0.7-0.2,1-0.3c1.3-0.6,2.6-1.3,4-1.9
		c0.5-0.2,1.1-0.3,1.7-0.3c1.3,0,2.4-0.9,3.7-0.6c1.1-1,2.7-0.3,3.9-1.1c0.8-0.5,1.3,0.5,2,0.4c0.6-0.1,1.1-0.9,1.8-0.4
		c0.7,0.5,1.3,0.4,2,0.1c0.5-0.2,0.9-0.3,1.4,0.2c0.1,0.2,0.7,0.2,1,0.1c0.7-0.3,1.4-0.4,2,0.2c0.1,0.1,0.4,0.2,0.5,0.2
		c1.3-0.6,2.4,0.2,3.6,0.4c1.3,0.2,2.7,0,3.9,0.5c1.1,0.4,2.1,0.6,3.2,0.8c0.5,0.1,1,0,1.5,0.1c0.3,0,0.6,0,0.8,0.2
		c0.4,0.3,0.7,0.4,1.1,0.2c0.2-0.1,0.6-0.1,0.8,0.1c1,0.7,2.1,0.6,3.2,0.7c0.2,0,0.5,0,0.6,0.1c1.1,0.7,2.2,0.4,3.2-0.3
		c0.5-0.4,1-0.8,1.6-1.2c0.6-0.4,1.3-0.9,2-1.2c0.7-0.3,1.2-0.1,1.4,0.6c0.3,1.1,0.8,2,1.7,2.6c0.2,0.1,0.2,0.6,0.2,0.7
		c-0.8,0.6-0.5,0.6,0.2,0.6c2.1,0,4-0.4,5.9-1.3c3.1-1.5,6.2-3.1,9-5.1C83,0.6,84.4,0,86,0c0.2,0,0.4,0.1,0.7,0.2
		c-0.2,0.2-0.3,0.5-0.5,0.6c-2.4,1.5-4.2,3.5-5.9,5.7c-0.2,0.3-0.4,0.7-0.6,1.1c-0.8,1.6-0.8,1.6,0.6,2.7c0.6,0.5,1.5,1,1.5,1.9
		c-0.1,1-1.2,0.9-1.8,1.2c-1.7,0.8-3.4,0.3-5-0.2c-0.9-0.3-1.8-0.8-2.7-1c-0.7-0.2-1.5-0.4-2.2-0.5c-0.5-0.1-0.8,0-0.5,0.6
		c0.1,0.3,0.1,0.7,0.1,1.1c0,1.5-0.4,1.9-1.9,1.8c-1.1,0-2.2-0.3-3-1.1c-1.5-1.3-3-1.4-4.8-0.7c-0.7,0.2-1.5,0.1-2.2,0.4
		C56.9,14,57.6,15,57,15.6c-0.1,0.1-0.1,0.2-0.2,0.3c-0.9,1.5-1.2,1.6-2.8,0.7c-0.7-0.4-1.3-0.8-1.9-1.3c-1.4-1.3-2.9-1.4-4.6-1
		c-0.3,0.1-0.6,0.2-0.9,0.2c-2.6,0.1-5.1,0.2-7.7,0.4c-0.7,0-1.4,0.2-2.1,0.3c-0.5,0-1,0.1-1.4,0c-0.8-0.2-1.5-0.4-2.3,0
		c-0.2,0.1-0.5,0.1-0.7,0c-1-0.3-2-0.4-3.1-0.1c-0.9,0.3-1,0.1-0.7,0.9c0.3,0.8,0.6,1.6,0.8,2.3c0.1,0.4,0.2,0.9,0.2,1.4
		c-0.1,1.2-0.5,1.5-1.7,1.5c-1.4,0.1-2.6-0.4-3.5-1.4c-1.3-1.4-2.6-2.8-3.8-4.3c-0.4-0.5-0.8-0.8-1.5-0.8c-1,0-2-0.2-3-0.2
		c-1,0-1.9,0.4-3,0.1c-1.4-0.3-2.8-0.5-4.2-0.7c-0.6-0.1-1.3-0.2-1.9-0.3C6.9,13.6,6.9,13.7,6.9,13.7z"/>
	<path d="M72.4,8.9c0.6-0.1,1.2-0.2,1.8-0.2c0.2,0,0.4,0.3,0.5,0.4c0,0.1-0.2,0.4-0.4,0.4c-0.6,0.1-1.3,0.2-1.9,0.3
		C72.4,9.5,72.4,9.2,72.4,8.9z"/>
	<path d="M24.8,8.6c-1-0.4-0.7-1.3-0.7-2.1c0,0,0.1-0.1,0.2-0.1c0.1,0.1,0.1,0.2,0.2,0.3c0.5,0.7,0.6,0.7,1-0.2
		c0-0.1,0.1-0.1,0.1-0.2c0.2-0.1,0.4-0.2,0.6-0.2c0.1,0,0.3,0,0.4,0c0.3,0.1,0.6,0.6,1,0c0.7-0.9,0.8-0.1,1.2,0.4
		c0.1,0.2,0.7-1.2,1.2-0.3C30.6,6.9,31,7,31.7,6.9c0.1,0,0.4,0,0.5,0.1c0.3,0.3,0.4,0.5,0.6-0.1c0.1-0.4,0.3-0.9,0.9-0.4
		c0.3,0.2,0.4,0.5,0.7,0.8c0.2-0.2,0.3-0.6,0.6-0.7c0.2-0.1,0.6,0,0.8,0.2c0.4,0.5,0.6,0.8,0.9-0.1c0,0,0.5,0,0.6,0.1
		c0.5,0.6,0.8,1.3,0.6,2.1c-0.1,0.3-0.3,0.6-0.5,0.7c-0.1,0.1-0.4-0.2-0.6-0.4c-0.2-0.1-0.4-0.7-0.6-0.2c-0.5,1.1-0.7,0.5-1.2,0
		c-0.1-0.1-0.5,0-0.7,0c-0.2-0.3-0.4-0.3-0.7,0c-0.1-0.2-0.4-0.3-0.4-0.5C33,8.1,32.8,8,32.6,8.3c-0.3,0.5-0.6,0.9-1.2,0.5
		c-0.4-0.3-0.6,0-0.8,0.3C30.3,9.5,30,9.3,29.9,9C30,8.9,30,8.8,30,8.7c0,0.1-0.1,0.2-0.2,0.3c-0.3-0.1-0.7-0.3-0.9-0.2
		c-0.5,0.3-0.8,0.1-1.2-0.2c-0.1-0.1-0.5,0.1-0.7,0.1c-0.2,0-0.5,0-0.7,0c-0.3,0.1-0.5,0.2-0.8,0.2C25.3,8.9,25.1,8.7,24.8,8.6
		l0.1-0.1L24.8,8.6z"/>
	<path d="M40.8,6.9C41,7,41.1,7.2,41.3,7.3c0.2,0.1,0.5,0.2,0.6,0.1c0.6-0.8,0.8,0,1.2,0.3c0.1,0.1,0.1,0.9,0.4,0.1
		c0.3-0.7,0.6-0.6,1-0.2c0.4,0.5,0.7,0.7,1-0.2c0.1-0.4,0.6,0,0.8,0.2c0.3,0.6,0.5,0.5,0.8,0c0.3-0.6,0.6-0.1,0.8,0.1
		c0.3,0.3,0.5,1,0.9,0c0,0,0.4,0,0.6,0.1c0.7,0.2,1.3,0.4,2,0.6c0.9-1.1,1.2,0.1,1.5,0.5c0.2,0.2,0,0.8-0.1,1.2
		c0,0.1-0.2,0.2-0.4,0.3c-0.5,0.2-0.7-0.8-1.1-0.3c-0.4,0.5-0.7,0.2-1,0c-0.6-0.4-1.3-0.6-1.9,0.1c-0.1,0.1-0.2,0.2-0.3,0.2
		c-0.4-0.2-1-0.7-1.2-0.6c-0.5,0.4-0.9,0.5-1.3-0.1c-0.4-0.7-0.4-0.2-0.5,0.1c-0.2,0.5-0.5,0.9-0.8,0c-0.2-0.5-0.6-0.4-0.9,0
		c-0.6,0.6-0.8,0.6-1-0.1c-0.2-0.8-0.5-0.7-0.9-0.3c-0.1,0.1-0.2,0-0.4,0c-0.7,0-0.6-0.5-0.7-1c-0.1-0.5-0.2-1,0.3-1.4
		C40.6,6.9,40.7,6.9,40.8,6.9z"/>
	<path d="M59.1,10.2c-1.3,0.1-1.4,0-1.5-0.7c-0.1-0.6,0.2-0.8,0.8-0.6C58.6,9,58.8,9.4,59.2,9c0.6-0.6,1.2,0.1,1.9,0
		c0.1,0,0.5,0.3,0.5,0.5c0,0.2-0.2,0.6-0.4,0.7c-0.5,0.1-1,0.1-1.5,0.1C59.3,10.3,59.1,10.2,59.1,10.2z"/>
	<path d="M21.6,8.6c-0.1-0.2-0.1-0.5-0.2-0.6c-0.7-0.4-0.3-0.8-0.1-1.2c0.3-0.1,0.7-0.1,1-0.2c0.7-0.2,1,0,1.3,0.8
		c0.1,0.5-0.2,1.3-0.6,1.5c-0.2,0-0.4-0.2-0.6-0.2C22.1,8.6,21.8,8.6,21.6,8.6z"/>
	<path d="M54.6,9.6c0-0.4,0-0.6,0.1-0.8c0.1-0.2,0.4-0.4,0.5-0.3c0.4,0.4,0.9,0.3,1.4,0.3c0.4,0,0.8,0.8,0.5,1.1
		c-0.2,0.2-0.8,0.2-0.9,0c-0.3-0.4-0.4-0.2-0.6,0c-0.2,0.2-0.5,0.3-0.7,0.4C54.9,10.1,54.7,9.8,54.6,9.6z"/>
	<path d="M64.5,9.7c-0.2,0.1-0.6,0.5-0.7,0.4c-0.4-0.2-0.6-0.2-1,0.1c-0.5,0.3-0.7-0.2-0.8-0.6C61.8,9.3,62,9,62.5,9
		c0.4,0,0.7,0.2,1.1-0.2C63.9,8.5,64.4,9,64.5,9.7z"/>
	<path d="M38.9,9.3c-0.2-0.3-0.6-0.6-0.7-0.9c-0.1-0.5,0-1.1,0.2-1.5c0.1-0.3,1.2,0.5,1.3,1.2c0.1,0.5-0.2,1-0.3,1.5
		C39.2,9.5,39.1,9.4,38.9,9.3C39,9.2,39,9.1,39,8.9C39,9.1,39,9.2,38.9,9.3z"/>
	<path d="M54.4,9.8c-0.1,0.1-0.3,0.4-0.5,0.6c-0.2-0.2-0.4-0.5-0.6-0.7c0,0,0-0.1,0-0.2c0.1-0.4-0.3-1.1,0.4-1.1
		C54.3,8.4,54.4,9,54.4,9.8z"/>
	<path d="M36.4,12.2c-0.6,0-1,0.3-1.1,0.9c0,0.3-0.2,0.6-0.4,0.9c0-0.5-0.1-1,0-1.4C35.1,11.9,35.5,11.8,36.4,12.2z"/>
	<path d="M25.5,6.5c-0.7-0.6,0.1-0.7,0.4-0.9c0.5-0.3,0.7,0,0.8,0.5l-0.1,0.1C26.3,6.5,25.9,6.4,25.5,6.5L25.5,6.5z"/>
	<path d="M26.6,4c0.6,0.1,1.2,0.2,1.8,0.4C27.4,4.9,27.1,4.9,26.6,4z"/>
	<path d="M10,10.1c-0.4,0.3-0.6,0.7-0.8,0.7c-0.3,0-0.5-0.4-0.8-0.5C8.6,10,8.8,9.6,9,9.6C9.2,9.5,9.5,9.8,10,10.1z"/>
</g>
</svg>
