<?xml version="1.0" encoding="iso-8859-1"?>
<!-- Generator: Adobe Illustrator 25.3.0, SVG Export Plug-In . SVG Version: 6.00 Build 0)  -->
<svg version="1.1" id="Calque_1" xmlns="http://www.w3.org/2000/svg" xmlns:xlink="http://www.w3.org/1999/xlink" x="0px" y="0px"
	 viewBox="0 0 74.1 32.5" style="enable-background:new 0 0 74.1 32.5;" xml:space="preserve">
<g>
	<path d="M52.9,12.2c2.2,0,4.2-0.6,6.2-1.1c3.3-0.9,6.7-1.8,10-2.6c1.5-0.4,3,0,4.4,0.5c0.2,0.1,0.4,0.3,0.7,0.5
		c-0.2,0.2-0.4,0.6-0.7,0.7c-2.2,1-3.9,2.7-5.7,4.2c-1.1,0.9-1,1.4,0,2.4c1.6,1.5,3.3,2.9,4.9,4.4c0.2,0.2,0.3,0.5,0.5,0.8
		c-0.3,0.1-0.6,0.4-0.9,0.4c-3,0.2-5.9-0.2-8.7-1.4c-1.3-0.5-2.6-0.9-3.8-1.5c-1-0.4-2.1-0.4-3.2-0.3c-1.5,0.2-3,0.6-4.5,1
		c-0.7,0.1-1.4,0.3-2.1,0.4c-0.3,0.1-0.7,0.2-1,0.3c-0.4,0.2-0.7,0.4-1,0.6c0.4,0.1,0.8,0.3,1.2,0.4c0.2,0.1,0.4,0,0.5,0
		c0.9,0.2,1.1,0.6,0.8,1.5c-0.5,1.3-0.9,2.7-1.4,4c-0.2,0.6-0.2,1.2-0.3,1.7c-0.2,0.8-0.8,1.3-1.6,0.9c-0.6-0.3-1.2-0.7-1.6-1.2
		c-1.3-1.9-3.2-3.2-4.9-4.7c-0.4-0.3-1-0.5-1.5-0.5c-1.7,0.1-3.3,0.2-5,0.4c-1.8,0.2-3.5,0.4-5.3,0.7c-0.4,0-0.7,0-1.1,0.1
		c-0.4,0.2-0.9,0.3-0.6,1c0.4,1,0.3,2-0.1,3c-0.3,0.9-0.5,2-0.8,2.9c-0.3,0.9-0.5,0.8-1.3,0.3c-1.9-1.2-3.1-3.1-4-5.1
		c-0.5-1.1-1.3-1.8-2.6-1.9c-0.6,0-1.2-0.2-1.7-0.4c-2.8-0.9-5.5-1.8-8.3-2.6c-2.4-0.8-4.4-2-6.4-3.5c-0.4-0.3-0.8-0.6-1.3-0.9
		c-0.6-0.3-1-0.9-0.7-1.4c0.2-0.5,0.8-0.9,1.5-0.5c0.2,0.1,0.5,0.1,0.7,0.1c0.4,0,1.1,0.1,1.1,0c0.2-0.7-0.5-0.3-0.8-0.5
		C2,15,1.7,13.8,2.3,13.2c0.7-0.6,1.5-1.1,2.3-1.6C5,11.4,5.6,11.3,5.9,11c1.5-1.2,3.4-1.5,5.1-1.9c1.4-0.3,2.8-0.4,4.2-0.7
		c1.6-0.3,3.2-0.8,4.9-1.2C20.4,7.2,20.7,7,21,7c1.8,0.4,2.2-0.9,2.7-2.1c0.4-0.9,0.4-1.9,1.6-2.3c0.4-0.2,0.6-1,0.9-1.5
		c0.2-0.3,0.2-0.7,0.4-1c0.1-0.1,0.4-0.2,0.6-0.2c0,0.2,0.2,0.4,0.1,0.6c-0.2,0.6,0,0.6,0.4,0.4c0.6-0.3,0.9-0.1,0.8,0.6
		c0,0.6,0.1,0.9,0.8,0.6c0.5-0.2,0.5,0.3,0.6,0.6c0.1,0.3,0.3,0.6,0.5,0.9C30.6,3.4,30.8,3.2,31,3c0.2-0.2,0.4-0.3,0.7-0.4
		c0.1,0.3,0.4,0.7,0.3,0.9c-0.3,0.8-0.2,1.3,0.8,1.3c0.2,0,0.3,0.2,0.5,0.2c0.5,0.3,0,1.4,0.8,1.4c0.8,0,0.9,0.4,1.2,0.8
		c0.2,0.3,0.5,0.4,0.9,0.2c1.7-0.6,1.7-0.6,2.5-1.5c1.3-1.4,2.7-2.8,4.1-4.3c1.1-1.2,2.6-1.1,3,0.5c0.5,1.8,1.7,3.2,2.5,4.9
		C48.6,8,49,8.9,49.3,9.7c0.2,0.5,0,0.9-0.6,1.1c-0.2,0.1-0.4,0.1-0.5,0.1c-0.6,0.1-1.2,0.1-1.8,0.2c0.6,0.1,1.1,0.3,1.7,0.4
		C49.7,11.8,51.3,12,52.9,12.2z"/>
	<path d="M45.7,13.7c-0.8-0.2-1.5-0.4-2.2-0.6c-1.3-0.4-2.6-0.7-3.9-1.1c-0.3-0.1-0.5-0.3-0.8-0.5c0.3,0,0.5,0,0.8,0
		c2.1,0.5,4.2,1.1,6.3,1.7c0.1,0,0.1,0.3,0.1,0.4C45.9,13.7,45.7,13.7,45.7,13.7z"/>
	<path d="M27.9,10.2c0.4,0,0.8,0,1.2,0.1c0.1,0,0.2,0.2,0.4,0.3c-0.1,0-0.3,0.1-0.4,0.1c-0.8,0-1.5,0-2.3,0c-0.2,0-0.5-0.2-0.7-0.3
		c0.2-0.1,0.4-0.2,0.6-0.3C27,10.1,27.4,10.1,27.9,10.2C27.9,10.1,27.9,10.2,27.9,10.2z"/>
	<path d="M33.7,11.3c-0.1-0.1-0.8-0.3-0.7-0.4c0.2-0.8,0.7-0.2,1.1-0.2c0.2,0,0.3,0,0.5,0c0.1,0,0.2,0.2,0.2,0.2
		c-0.1,0.1-0.2,0.3-0.3,0.3C34.3,11.4,34.1,11.3,33.7,11.3z"/>
	<path d="M30.9,11c-0.3-0.1-0.5-0.1-0.7-0.2c-0.1,0-0.1-0.3,0-0.4c0.3-0.2,1.3,0,1.3,0.3C31.4,10.8,31,10.9,30.9,11z"/>
	<path d="M24.7,10.8c-0.2-0.1-0.3-0.1-0.5-0.2c0.2-0.1,0.3-0.3,0.5-0.4c0.1-0.1,0.4-0.1,0.5-0.1c0.2,0,0.3,0.2,0.4,0.3
		c-0.1,0.1-0.2,0.3-0.3,0.3c-0.2,0-0.3-0.1-0.5-0.1C24.7,10.7,24.7,10.7,24.7,10.8z"/>
	<path d="M22.5,10.8c-0.1,0.1-0.2,0.2-0.3,0.2c-0.4-0.1-0.8,0.6-1.3,0c0,0,0-0.2,0-0.2c0.4-0.1,0.8-0.2,1.3-0.3c0,0,0.1,0,0.1,0.1
		C22.4,10.7,22.5,10.7,22.5,10.8z"/>
	<path d="M37.1,11.7c-0.1,0-0.2,0-0.4,0c-0.1,0-0.2-0.2-0.2-0.2c0.1-0.1,0.2-0.3,0.3-0.3c0.2,0,0.5,0.1,0.7,0.2
		c0.1,0.1,0.3,0.2,0.4,0.2c-0.1,0-0.2,0.1-0.3,0.1C37.5,11.7,37.3,11.7,37.1,11.7C37.1,11.7,37.1,11.7,37.1,11.7z"/>
	<path d="M12,13.1c-0.1,1.1-1,1.9-2,1.8c-1.2-0.1-1.8-0.8-1.7-2.2c0.1-1,1-1.8,2.1-1.7C11.3,11,12,12,12,13.1z"/>
	<path d="M21.3,16.3c-0.1,0.2-0.2,0.6-0.4,0.7c-1.4,0.6-2.9,1.2-4.3,1.8c0.4-0.8,1-1.3,1.9-1.5C19.4,17,20.1,16.2,21.3,16.3z"/>
</g>
</svg>
