<?xml version="1.0" encoding="iso-8859-1"?>
<!-- Generator: Adobe Illustrator 25.3.0, SVG Export Plug-In . SVG Version: 6.00 Build 0)  -->
<svg version="1.1" id="Calque_1" xmlns="http://www.w3.org/2000/svg" xmlns:xlink="http://www.w3.org/1999/xlink" x="0px" y="0px"
	 viewBox="0 0 80.7 34.2" style="enable-background:new 0 0 80.7 34.2;" xml:space="preserve">
<g>
	<path d="M10.9,5c2,0,4.1,0,6.1,0c2.4,0,4.9-0.3,7.3-0.6c0.1,0,0.2,0,0.4,0C27.5,4.2,30.3,4,33.1,4c3.3-0.1,3.3,0,6.3-1.4
		c2.3-1,4.6-1.9,7.1-2.4c0.3-0.1,0.7-0.2,1-0.2c0.6,0.1,1.3-0.3,1.8,0.4c-0.4,0.4-0.8,0.8-1.3,1.1c-1.2,0.8-2.1,1.7-2.5,3.1
		c-0.1,0.4-0.4,0.8-0.7,1.1C44.6,6,44.2,5.9,43.9,6c0.3,0,0.6,0.1,0.9,0.1c0.9-0.1,1.9-0.2,2.8-0.4c1.8-0.5,3.6-1.2,5.5-1.7
		c1.2-0.3,2.5-0.4,3.7-0.4c1,0,1.6,0.5,1.6,1.5c0.1,2.6,0.1,5.2,0,7.8c0,1.3-0.8,2-1.9,1.8c-2.9-0.6-5.9-1-8.6-2.2
		c-1.3-0.6-2.6-0.6-4-0.6c-0.2,0-0.4,0.2-0.7,0.2c0.3,0.1,0.5,0.3,0.8,0.3c0.4,0.1,0.7,0,1.1,0c0.3,0,0.5,0.2,0.7,0.4
		c-0.1,0.2-0.3,0.5-0.4,0.7c-0.2,0.2-0.4,0.3-0.6,0.4c-1.4,1-2.5,2.3-2.9,4.1c-0.3,1.4-0.7,1.6-2.1,1.6c-2.4,0.1-4.7-0.5-7-1.2
		c-1.6-0.5-3.3-0.7-4.6-1.8c-0.2-0.2-0.6-0.2-0.8-0.2c-0.9,0-1.8,0-2.7,0c-0.2,0-0.3,0.1-0.5,0.1c0.2,0.1,0.3,0.1,0.5,0.2
		c0.8,0.2,1.1,0.9,1.4,1.6c0.1,0.2,0.1,0.6-0.1,0.8c-0.1,0.2-0.6,0.2-0.8,0.1c-1.5-0.6-3-1.2-4.4-1.9c-0.6-0.3-1.1-0.4-1.7-0.5
		c-2.7-0.2-5.5-0.3-8.1-1.1C8.6,15,6.4,14,4.6,12.4c-1.3-1.2-2.8-2.3-3.8-3.8C0.4,7.9-0.4,7.1,0.2,6.2C0.8,5.3,1.7,5,2.9,5
		C5.5,5.1,8.2,5.1,10.9,5C10.9,5,10.9,5,10.9,5z"/>
	<path d="M59.4,34.1c-1.6,0.4-3-0.9-4.5-1.9c-0.6-0.4-1.3-0.8-1.8-1.4c-0.8-0.8-1.8,0-2.6-0.6c-0.1,0.1-0.2,0.2-0.2,0.3
		c0.2,1-0.5,0.7-0.9,0.6c-1.1-0.3-2.1-0.9-3.2-1.1c-2.7-0.6-5.3-1.1-8-1.6c-1.5-0.3-3-0.6-4.4-1.3c-0.8-0.4-1.8-0.7-2.7-0.9
		c-2.7-0.7-5.1-2.1-7.8-2.8c-0.1,0-0.4-0.3-0.3-0.4c0.1-0.2,0.2-0.4,0.4-0.4c1.1-0.5,2.2-0.9,3.3-1.3c0.4-0.1,0.9-0.1,1.2,0.1
		c1,0.4,1.8,0.1,2.8-0.1c1-0.2,2.1-0.5,3-0.3c2.5,0.6,4.8,0,7.2-0.2c2.2-0.2,4.4-0.2,6.6,0c2.7,0.2,5.4,0.5,7.9-0.5
		c1.2-0.5,2.2-1.3,3.3-2c0.4-0.3,0.8-0.5,1.1-0.9c1.6-1.7,3.6-1.7,5.6-1c1.5,0.5,2.8,1.3,3.9,2.4c0.9,1,1,1.6,0.2,2.8
		c-0.4,0.6,0,0.8,0.4,0.8c0.6,0,1.3,0.1,1.9-0.1c2-0.6,4.1-0.9,6.3-1.3c0.6-0.1,1.2-0.3,1.7-0.3c0.7-0.1,0.9,0.2,0.6,0.8
		c-0.4,0.8-0.5,1.6-0.5,2.4c0,2-0.2,4,0.3,6c0.1,0.5-0.1,0.8-0.7,0.6c-0.7-0.2-1.4-0.3-2.1-0.5c-1.8-0.7-3.7-1.3-5.5-2.2
		c-1.8-0.9-3.8-0.5-5.6-0.6c-0.1,0-0.2,0.1-0.3,0.1c0.1,0,0.2,0.1,0.3,0.1c0.1,0,0.1,0,0.2,0c1.7-0.4,2.6,0.9,3.6,2
		c0.9,1,0.6,2.3-0.7,2.7C66.5,33,63.3,34.1,59.4,34.1z"/>
	<path d="M5.4,6.2C5.6,6.1,5.9,6.1,6.1,6C6.7,5.7,7,6,7.3,6.5c0.6,1.1,0.5,2-0.7,2.5C5.7,9.3,5.1,8.8,4.7,8C4.4,7.2,4.8,6.6,5.4,6.2
		z"/>
	<path d="M7,11c-0.2,0.2-0.3,0.4-0.5,0.5c-0.2,0.1-0.5,0.2-0.7,0.2C5.9,11.5,5.9,11.1,6,11c0.2-0.2,0.6-0.1,0.9-0.1
		C7,10.9,7,11,7,11z"/>
	<path d="M45.7,28.7c-1.2,0.1-2.4-0.1-3.3-1c-0.5-0.4-0.9-0.8-0.7-1.6c0.2-0.9-0.4-1.5-1-2.1c-0.2-0.3-0.8-0.5-0.4-1
		c0.2-0.2,0.8-0.2,1.1-0.1c3.5,0.6,6.5,2.3,9.4,4.1c0.3,0.2,0.6,0.6,0.6,0.9c0,0.5-0.6,0.5-1,0.5C48.9,28.4,47.3,28.5,45.7,28.7z"/>
</g>
</svg>
