<?xml version="1.0" encoding="iso-8859-1"?>
<!-- Generator: Adobe Illustrator 25.3.0, SVG Export Plug-In . SVG Version: 6.00 Build 0)  -->
<svg version="1.1" id="Calque_1" xmlns="http://www.w3.org/2000/svg" xmlns:xlink="http://www.w3.org/1999/xlink" x="0px" y="0px"
	 viewBox="0 0 230.7 165.4" style="enable-background:new 0 0 230.7 165.4;" xml:space="preserve">
<g>
	<path d="M226.5,86.7c0-1.5-0.1-3,0-4.5c0.8-7.5-2.3-13.6-6.3-19.5c-5-7.2-11.5-12.8-18.5-18c-2.5-1.9-5.1-3.7-7.6-5.6
		c-0.5-0.4-0.6-1.3-0.9-2c0.9-0.3,1.8-0.6,2.6-0.8c0.1,0,0.3,0.1,0.4,0.2c6.8,5.2,14.1,9.9,20,16.3c4.5,4.9,8.8,10,11.8,16
		c1.7,3.5,2.6,7.1,2.7,11c0.2,8.8-0.1,17.5-1.9,26.2c-1.4,6.8-3.7,13.2-8.4,18.3c-3.3,3.7-7.1,7-10.9,10.2
		c-9.4,7.7-19.9,13.9-30.9,19.1c-10.3,4.8-21,8-32.2,9.7c-5,0.7-9.8,1.5-14.8,0c-0.4-0.1-1.3,0-1.4,0.2c-0.8,3.5-2.3,1.2-3.3,0.3
		c-3.3-2.6-6.5-5.1-9.6-7.9c-3.7-3.3-5.5-7.8-6.7-12.5c-0.2-1-0.2-2-0.4-3c-0.2-0.6-0.6-1.1-1-1.7c-0.2,0.5-0.4,1.1-0.5,1.6
		c-0.1,0.8,0,1.7-0.1,2.5c-0.8,6-6,9.1-11.6,7c-4.3-1.7-5.4-4.1-4.1-8.7c0.2-0.8,0.4-1.7,0.8-2.4c0.7-1.3,0-1.8-1-2.1
		c-8.3-2.7-14.5-8.5-21-13.9c-6-5-12.5-9.3-19.3-13.3c-3.2-1.8-6.3-3.6-9.5-5.5c-7.9-4.6-16.1-8.5-25.2-10.4
		c-4-0.8-8.2-1.1-12.3-1.6c-1.3-0.2-2.7,0-4-0.3c-1-0.2-1.9-1-1.2-2.2c1.1-1.8,2.1-3.8,3.5-5.4c7.6-8.8,16.8-15.5,27.5-20.2
		c7.9-3.5,15.8-6.8,23.5-10.8c8.6-4.4,16.8-9.4,25.2-14.2c3.6-2.1,7-4.4,10.7-6.4c2.8-1.6,4.1-3.8,3.9-6.9c-0.4-4.2,0.9-7.8,3.7-11
		c0.7-0.8,1-2,1.3-3.1c1-4.3,3.3-7.5,7.4-9.4c1-0.5,1.9-1.3,3-1.8c0.7-0.3,1.8-0.7,2.3-0.4c4,2.2,9.1,3.1,10.6,8.3
		c1,3.6,2.4,6.8,4.8,9.7c0.9,1.1,1.1,3.1,1.1,4.7c0.1,5.2,1.9,9,7,11.5c8.6,4.2,17,9,25.4,13.6c9.6,5.3,19.8,9.3,29.9,13.6
		c10.3,4.3,19.7,10.5,27.7,18.3c1.7,1.6,3.1,3.5,4.4,5.4c1.9,2.8,0.9,4.5-2.6,5c-2.3,0.3-4.6,0.7-6.9,0.9
		c-7.9,0.7-15.1,3.5-22.3,6.7c-7.9,3.6-14.9,8.6-22.3,13.1c-7.8,4.7-14.3,10.9-21.1,16.6c-4.3,3.7-8.8,7.1-14.2,9
		c-1.8,0.6-1.7,1.4-1.1,2.9c2.7,7.4-0.2,11.2-8.1,10.9c-1.8-0.1-3.2-0.6-4.4-1.9c-0.4-0.5-0.9-0.9-1.4-1.3c0.1,0.6-0.1,1.4,0.3,1.9
		c3.1,5.1,7,9.1,13.4,10.1c13.3,2.2,25.6-1.2,37.8-5.9c12.3-4.7,23.7-11.2,34.3-19.1c5.7-4.3,11.2-8.8,15.4-14.8
		c3.5-4.9,4.7-10.6,5.5-16.3c0.8-5.4,1-10.9,1.5-16.3C226.7,86.7,226.6,86.7,226.5,86.7z"/>
</g>
</svg>
