<?xml version="1.0" encoding="iso-8859-1"?>
<!-- Generator: Adobe Illustrator 25.3.0, SVG Export Plug-In . SVG Version: 6.00 Build 0)  -->
<svg version="1.1" id="Calque_1" xmlns="http://www.w3.org/2000/svg" xmlns:xlink="http://www.w3.org/1999/xlink" x="0px" y="0px"
	 viewBox="0 0 82.9 33" style="enable-background:new 0 0 82.9 33;" xml:space="preserve">
<g>
	<path d="M79.7,13.2C79,13,78,12.8,76.9,12.5c-1.7-0.4-3.4-0.9-5.2-1.3c-0.5-0.1-1.1-0.2-1.6-0.2c-2.4,0-4.8-0.2-7.2,0
		c-2.6,0.3-5.3,0.1-7.9,0.4c-2.3,0.3-4.6,0-6.8,0.3c-2.5,0.3-5,0.1-7.4,0.6c-0.2,0-0.4,0-0.5,0c-0.5,0-1.1,0.1-1.6,0.1
		c0.3,0.4,0.7,0.8,1,1.2c0.8,1,0.4,2.8-0.8,3.3c-0.6,0.2-1.1,0.4-1.7,0.6c-1.2,0.3-1.6,0.1-2.4-0.9c-0.7-0.9-1.4-1.8-2-2.8
		c-0.5-0.8-1-1.2-2-0.9c-0.6,0.2-1.3,0.2-1.9,0.2c-1.1-0.1-2.1,0.1-2.9,0.7c-0.9,0.7-2,0.6-3.1,0.7c-0.5,0-0.9,0-1.3,0.3
		c-0.2,0.1-0.5,0.2-0.6,0.1c-0.8-0.4-1.6-0.8-2.5-0.3c-0.2,0.1-0.7-0.2-1-0.3c-0.1,0-0.2-0.1-0.3-0.1c0,0.2,0,0.3,0,0.5
		c0,0.1,0.1,0.1,0.1,0.2c0.1,0.4,0.8,0.8,0.1,1.2c-0.2,0.1-0.9-0.4-1-0.8c-0.5-1.2-1.3-2-2.5-2.4c-0.2-0.1-0.3-0.2-0.5-0.2
		c-2,0.1-4-0.7-6-0.9c-0.5-0.1-0.5,0.2-0.4,0.5c0.1,0.3,0.2,0.5,0.3,0.8c0.1,0.3,0.2,0.7,0.3,1c-0.3-0.1-0.7-0.3-0.9-0.2
		c-0.9,0.5-1.2-0.7-2-0.6c0,0-0.1-0.3-0.1-0.5c0-0.3,0-0.7-0.2-1c-0.1-0.2-0.4-0.3-0.6-0.3c-0.2,0-0.4,0.2-0.5,0.4
		c-0.1,0.3-0.1,0.6-0.2,0.9C3.2,12.9,3,13,2.9,13c-0.1,0-0.2-0.1-0.3-0.1c-0.1-0.2-0.1-0.3-0.1-0.5c0-0.6-0.1-1-0.9-1
		c-0.6,0-1.1-0.3-0.5-1c0.1-0.1,0-0.4-0.2-0.5C0.8,9.6,0.5,9.5,0.3,9.3C-0.1,8.9-0.1,8.5,0.2,8c0.6-0.9,1.7-1,2.5-1.3
		C4,6.4,4.9,5.8,5.9,5.2C6.6,4.7,7.3,4.4,8,4c0.2-0.1,0.6,0,0.6,0.1c0.2,1.1,0.9,0.5,1.3,0.3c0.6-0.2,1.1-0.7,1.6-1.1
		c0.4-0.3,0.8-0.9,1.3-0.1c0,0.1,0.3,0.1,0.3,0.1c0.6-0.7,1.3-0.1,1.9-0.2C15.6,2.9,16.1,3,16.7,3c1.4,0.2,2.7,0.4,4.1,0.3
		c0.6,0,1.3-0.5,1.9-0.9c0.6-0.5,1.1-1.1,1.7-1.6C26-0.4,28.8-0.2,29.5,1c0.6,0.9,1.1,1.9,1.3,2.9c0.2,1.3,0.3,1.4,1.7,1.5
		c0.5,0,1.1,0,1.6,0.2c1,0.4,1.5,0,2-0.8c0.6-0.8,1.4-1.4,2-2.2c0.6-0.8,1.4-0.7,2.2-0.8c0.8,0,1.6,0.4,2.2,1.1
		C43.3,4,44.4,5,44.5,6.5c0.1,0.6,0.5,0.7,0.8,0.7c0.7,0.1,1.5,0.1,2.3,0.1c2.4,0,4.9,0.2,7.3,0.7c0.1,0,0.2,0,0.4,0
		c2.9,0.1,5.7,0.3,8.6,0.3c2.2,0.1,4.4,0.1,6.6,0.3c1.3,0.2,2.6-0.2,3.9-0.4c1.6-0.3,3.2-0.7,4.9-1c0.4-0.1,0.8-0.1,1.3,0
		c1.6,0.1,2.9,2,2.4,3.6C82.3,12.6,81.6,13.2,79.7,13.2z"/>
	<path d="M20.6,20.6c2.7,0.1,5.4,0.1,8,0.3c2.7,0.2,5.3,0.4,8,0.7c2.7,0.3,5.3,0.7,8,1c0.7,0.1,1.4,0,2.1-0.4
		c0.6-0.4,1.3-0.9,1.8-1.4c1-1,2.2-1.1,3.4-0.4c0.7,0.4,1.4,0.9,2.1,1.4c0.2,1.8,1.5,1.5,2.8,1.6c2,0.2,3.9,0.4,5.8,0.6
		c1.3,0.1,2.6,0.3,3.9,0.4c2.4,0.2,4.8,0.3,7.2,0.4c1.1,0.1,1.9-0.3,2.7-1c0.9-0.8,1.8-1.5,2.8-2.2c0.4-0.3,0.7-0.4,1.2-0.1
		c2.8,1.5,3.3,5,1.5,6.9c-0.2,0.3-0.5,0.5-0.8,0.6c-1.3,0.6-3.2,0.3-4-0.8c-1.1-1.7-2.5-1.9-4.3-1.8c-1.2,0-2.5-0.4-3.7-0.3
		c-3.9,0.4-7.9,0.3-11.8,0.3c-0.9,0-1.9,0.2-2.8,0.4c-0.2,0-0.5,0.4-0.5,0.6c0.1,1.7-0.9,2.5-2.4,2.8c-0.4,0.1-1,0.1-1.4-0.1
		c-0.9-0.4-1.9-0.9-2.6-1.5c-1.1-1-2.3-1.1-3.7-1c-1.7,0.2-3.3,0.5-4.9,0.6c-2.4,0.2-4.8,0.3-7.2,0.4c-2.8,0.1-5.6,0.2-8.4,0.4
		c-0.7,0-1.4,0.3-2.1,0.4c-0.5,0.1-1,0.3-1.5,0.5c0.2,0.5,0.4,0.9,0.7,1.4c0.1,0.1,0.1,0.2,0.1,0.3c0,0.5,0.2,1.3-0.1,1.5
		c-0.6,0.4-0.8-0.4-1.1-0.8c-0.5-0.8-1.1-1.6-1.5-2.4c-0.3-0.6-0.7-0.9-1.4-0.9c-2.7-0.1-5.5-0.2-8.2-0.4c-0.6,0-1.3-0.1-1.9-0.3
		c-1.9-0.6-3.7-1.2-5.4-2.3C0,25.3,0.3,24.7,0.4,24c0.1-0.7,0.6-1,1.3-1c1.2,0.1,2.3-0.4,3.4-0.8c1.3-0.5,2.8-0.5,4.2-0.7
		c1.3-0.2,2.6-0.2,3.9-0.4c1-0.1,2-0.2,3-0.3c1.5-0.2,3-0.3,4.4-0.4C20.6,20.5,20.6,20.6,20.6,20.6z"/>
	<path d="M47.9,25.3c0,0.3,0,0.6,0,0.9c-0.3,0.6-0.6,0.1-0.9,0c-0.2-0.3-0.3-0.6,0-1c0,0,0.1-0.1,0.1-0.1C47.5,25,47.7,25,47.9,25.3
		C47.9,25.2,47.9,25.3,47.9,25.3z"/>
	<path d="M36.4,23.1c-0.9,0.5-0.7,1.4-0.7,2.1c-0.2,0-0.3,0-0.5,0c0.1-0.6,0-1.2,0.2-1.7C35.5,23.3,36,23.2,36.4,23.1z"/>
</g>
</svg>
