<?xml version="1.0" encoding="iso-8859-1"?>
<!-- Generator: Adobe Illustrator 25.3.0, SVG Export Plug-In . SVG Version: 6.00 Build 0)  -->
<svg version="1.1" id="Calque_1" xmlns="http://www.w3.org/2000/svg" xmlns:xlink="http://www.w3.org/1999/xlink" x="0px" y="0px"
	 viewBox="0 0 246.3 74.8" style="enable-background:new 0 0 246.3 74.8;" xml:space="preserve">
<g>
	<path d="M194.8,24.1c3-0.8,6.1-1.4,9.1-2.3c7.9-2.6,15.7-5.2,23.9-6.6c2-0.3,3.8-1,5.7,0.2c-0.9,1.7-1.6,3.6-2.8,5
		c-3.7,4.1-8.2,7.3-13.2,9.6c-0.4,0.2-0.7,0.6-1.1,1c0.5,0.2,1,0.6,1.5,0.7c8.9,1.3,17.3,4.6,25.5,8c0.8,0.3,1.5,0.8,2.1,1.3
		c1.2,1,1.1,2.2-0.4,2.6c-5.1,1.6-10.1,4.1-15.9,2.6c-3.2-0.8-6.5-1-9.8-1.2c-7.3-0.4-14.3-2.7-21.4-4.3c-3-0.7-5.8-0.7-8.8-0.1
		c-2.2,0.5-1.8,0.6-0.8,2.1c0.9,1.3-0.5,1.9-1.7,2.2c-6.2,1.9-12.2,4.3-18.5,5.7c-19.1,4.5-38.3,8.8-57.5,13
		c-6.5,1.4-13.2,1.3-19.8,1.2c-0.5,0-0.9,0.2-1.4,0.3c0.5,0.2,1,0.5,1.5,0.5c2.8,0.4,5.6,0.7,8.3,1.1c0.4,0.1,0.7,0.5,1,0.8
		c-0.5,0.3-1,1-1.4,1c-1.1-0.1-2.2-0.6-3.4-0.7c-1.4-0.2-2.3,0.9-2.3,2.4c0.2,3.5-0.8,4.7-4,4.3c-4.1-0.5-8.2-1.2-12.1-2.3
		c-9.9-2.7-19.8-5.4-29.5-8.6c-12.7-4.2-24.4-10.4-34.6-19.2c-3.7-3.2-6.8-7.2-11-9.9c-0.8-0.5-1.1-1.6-1.6-2.5
		c-1-1.4-0.4-2.4,0.7-3.5c5.7-6.3,12.8-10.5,20.8-13C39.8,10.4,57.6,4.6,76.1,1.7c2.3-0.4,4.6-0.7,6.8-1.1c0.8-0.1,1.8-1.4,2.4,0.2
		c0.1,0.1-1.4,1.1-2.3,1.3C78.4,3,73.6,3.7,69,4.8c-7.9,1.9-15.7,3.9-23.5,5.9c-0.4,0.1-0.7,0.4-1.1,0.6c0.5,0.1,1,0.4,1.4,0.3
		c5.9-1.4,11.8-3.1,17.8-4.3C71.8,5.7,80,3.6,88.5,3.7c0.5,0,1,0.4,1.5,0.6c-0.4,0.2-0.9,0.4-1.4,0.5c-5.5,1-11,2.2-16.6,2.9
		c-8.6,1-16.8,3.6-25.1,5.6c-6.9,1.7-13.8,3.5-20.5,5.6c-4.9,1.5-9.6,3.5-14.4,5.3c-0.9,0.3-1.8,0.9-2.6,1.5c-0.5,0.4-0.8,1-1.2,1.5
		c0.6,0.1,1.3,0.3,1.8,0.2c0.8-0.1,1.6-0.6,2.4-0.8c6.1-1.6,12.1-3.4,18.2-4.8c5.3-1.2,10.8-1.7,16-3.2c7.9-2.3,15.9-3,24.1-2.9
		c10.3,0.1,20.7-0.1,31,0.2c7.4,0.2,14.8,1.1,22.3,1.7c0.3,0,0.7,0.1,1,0.1c7.1,0.4,14.3,0.7,21.4,1.1c4.6,0.3,9.4,0.2,13.8,1.2
		c3.1,0.7,5,0,7-2.1c0.7-0.7,2.1-1.1,3.1-1.1c1.9,0,2.6,1.4,1.6,3.3c-0.4,0.9-0.9,1.3,0.5,1.5c6.9,0.6,13.8,1.3,20.7,2
		c0.5,0,1,0,1.5,0C194.7,23.8,194.7,24,194.8,24.1z"/>
	<path d="M16.7,39.8c0.5,0,1-0.1,1.5,0c1.3,0,2.8,1.7,4-0.1c1.1-1.6,2.2-3.3,0.8-5.4c-0.3-0.4-0.5-0.9-0.6-1.3
		c-0.1-0.2,0.1-0.5,0.1-0.8c0.4,0.1,1.1,0.1,1.3,0.3c1.2,1.6,2.2,3.4,1.5,5.3c-0.8,2.2-2,4.2-4.9,4.1c-0.5,0-1,0.1-1.5,0.1
		c-0.7-0.4-1.5-0.8-2.2-1.4C16.6,40.6,16.7,40.1,16.7,39.8z"/>
	<path d="M75.2,25.8c6.9,0,12.1-0.2,17.2,0.1c8.4,0.5,16.8,1.3,25.2,1.9c4.1,0.3,8.3,0,12.5,0.1c11.9,0.3,23.9,0.1,35.8,1.2
		c10.5,1,20.9,0.4,31.3,0.8c1.2,0,2.3,0.1,3.5,0.2c0.2,0,0.7,0.5,0.6,0.6c-0.2,0.4-0.5,1-0.8,1c-1.5,0-3,0-4.4-0.2
		c-1.6-0.1-3.3-0.6-4.9-0.6c-6.8-0.1-13.7,0.1-20.5-0.1c-11.1-0.2-22.3-0.1-33.3-1.2c-9.1-0.9-18.2-0.3-27.3-0.8
		c-7.9-0.5-15.8-1.5-23.7-1.8c-7.8-0.2-15.6-1-23.3,0.6c-0.6,0.1-1.3,0.2-2,0.2c-6.4,0.4-12.9,0.7-19.3,1.1
		c-2.8,0.2-5.5,0.5-8.3,0.7c-0.3,0-0.7-0.6-1.1-0.9c0.3-0.3,0.6-0.6,0.9-0.8c0.3-0.1,0.7-0.1,1-0.1c6.3-0.3,12.6-0.2,18.8-1.2
		C61.1,25.3,69,26.2,75.2,25.8z"/>
</g>
</svg>
