<?xml version="1.0" encoding="iso-8859-1"?>
<!-- Generator: Adobe Illustrator 25.3.0, SVG Export Plug-In . SVG Version: 6.00 Build 0)  -->
<svg version="1.1" id="Calque_1" xmlns="http://www.w3.org/2000/svg" xmlns:xlink="http://www.w3.org/1999/xlink" x="0px" y="0px"
	 viewBox="0 0 84.1 26.6" style="enable-background:new 0 0 84.1 26.6;" xml:space="preserve">
<g>
	<path d="M6.1,19c-0.1,0.2-0.2,0.4-0.2,0.6c-0.7-0.3-1.6-0.4-2.1-0.9c-1-1.2-2.3-2-3.3-3.2c-0.7-0.8-0.7-0.9-0.1-1.8
		c0.8-1.1,2-1.8,3.2-2.1C6.4,10.7,9,10,11.8,9.4C13.9,9,16,8.9,18.1,8.6c1.5-0.2,3.1-0.4,4.6-0.6c0.6-0.1,1.2-0.2,1.8-0.1
		c1.5,0.2,2.6-0.4,3.6-1.5c1.3-1.6,2.8-3.1,4.2-4.6c0.5-0.5,1.1-0.9,1.7-1.3c1.2-0.8,1.9-0.5,2.5,0.8c0.2,0.4,0.3,0.8,0.3,1.2
		c0.1,1.2,0.3,2.5,0.3,3.7c0,1.1-0.3,2.1-1.4,2.7c-0.5,0.2-1,0.4-1.5,0.7c-0.1,0-0.2,0.2-0.2,0.2c0,0.1,0.1,0.2,0.2,0.3
		C34.6,10,34.8,10,35,10c4.1,0.1,8.2,0.3,12.4,0.3c1.5,0,3.1-0.2,4.6-0.4c1.4-0.2,2.8-0.5,4.2-0.6c0.7,0,1.5,0.4,2.2,0.7
		c0.2,0.1,0.3,0.8,0.3,1.1c-0.1,0.5,0,0.6,0.4,0.6c1.6,0.1,3.2,0.3,4.8,0.3c2.9-0.1,5.6-0.7,8.3-1.7c2.7-1,5.4-1.8,8.1-2.7
		c0.6-0.2,1.3-0.2,1.9-0.2c0.9,0,1.1,0.4,1,1.3c-0.1,0.3-0.2,0.7-0.3,1c-0.1,0.3-0.3,0.6-0.4,1c-1.1,2.9-1.1,3.2,0.7,5.9
		c0.3,0.4,0.5,0.9,0.7,1.4c0.4,1.2,0.1,1.9-1.1,2c-1.4,0.1-2.8,0.1-4.1-0.1c-2.9-0.6-5.8-1.4-8.7-2.1c-0.2-0.1-0.5-0.2-0.7-0.2
		c-3.9-0.2-7.9-0.3-11.7,1c-0.2,0.1-0.4,0.2-0.5,0.3c0.2,0.1,0.4,0.3,0.6,0.4c1,0.1,1.8,0.4,2.3,1.2c0.7,1.1,1.2,2.2,1.3,3.5
		c0,0.8-0.3,1-1,1.2c-2.7,0.5-5-0.2-7.3-1.6c-0.7-0.5-1.5-0.8-2.1-1.4c-1.5-1.4-3.3-1.8-5.3-1.6c-1.4,0.2-2.8,0.3-4.2,0.5
		c-0.5,0.1-1.1,0.1-0.4,0.9c0.7,0.8,0.6,1.8,0.5,2.7c-0.1,1-0.6,1.3-1.6,1.1c-1.4-0.3-2.6-1.1-3.7-2.1c-0.3-0.3-0.6-0.6-0.9-0.9
		c-0.9-0.9-1.6-1.7-3.3-1.4c-1.6,0.3-3.3-0.2-5-0.2c-1.7-0.1-1.7,0-1.2,1.6c0.3,0.9,0.6,1.8,0.8,2.7c0.2,0.8,0.1,0.9-0.7,1
		c-4.1,0.4-7.3-1-9.7-4.4c-0.5-0.8-1.2-1.6-2-2c-1.2-0.5-2.5-0.6-3.8-0.8c-0.1,0-0.2,0.1-0.3,0.1c0.1,0.1,0.1,0.2,0.2,0.3
		c0.4,0.3,0.8,0.7,1.3,1c0.5,0.3,0.9,0.5,1.4,0.8c0.2,0.1,0.3,0.3,0.4,0.5c-0.2,0-0.5,0.1-0.6,0c-1.3-0.7-2.5-1.4-3.8-2
		c-0.1-0.1-0.2-0.1-0.3-0.1c0,0.2-0.1,0.3,0,0.5c0.3,0.4,0.6,0.9,0.9,1.3c0.3,0.4,0.5,0.8,0.8,1.2c0,0.1,0.1,0.2,0.1,0.3
		c-0.1,0-0.2,0-0.3-0.1c-0.9-0.9-1.7-1.9-2.6-2.8C7,19.8,6.6,19.4,6.1,19c-0.2-0.1-0.4-0.2-0.6-0.3C5.8,18.8,6,18.9,6.1,19z"/>
	<path d="M10.2,22.8c0.4,0.3,0.8,0.7,1.2,1c0,0-0.1,0.1-0.1,0.1c-0.4-0.3-0.9-0.6-1.3-0.9C10.1,23,10.1,22.9,10.2,22.8z"/>
</g>
</svg>
