<?xml version="1.0" encoding="iso-8859-1"?>
<!-- Generator: Adobe Illustrator 25.3.0, SVG Export Plug-In . SVG Version: 6.00 Build 0)  -->
<svg version="1.1" id="Calque_1" xmlns="http://www.w3.org/2000/svg" xmlns:xlink="http://www.w3.org/1999/xlink" x="0px" y="0px"
	 viewBox="0 0 84.1 29" style="enable-background:new 0 0 84.1 29;" xml:space="preserve">
<g>
	<path d="M66.2,14.3c1,0.1,1.8-0.3,2.5-1c2.4-2.3,5.5-3.7,8.3-5.5c1.6-1.1,3.3-2.1,5.2-2.6c0.2,0,0.3-0.2,0.5-0.2c0.5,0,0.9,0,1.4,0
		c-0.2,0.4-0.5,0.7-0.7,1.1c-0.5,0.6-1.1,1.1-1.5,1.8c-1.3,2.1-2.9,3.9-4.6,5.6c-0.2,0.2-0.4,0.4-0.6,0.6c-1.8,1.8-1.6,2.2-0.4,4
		c1.7,2.6,3.5,5.1,5.4,7.5c0.6,0.8,1.4,1.4,2.2,2.1c0.2,0.2,0.2,0.4,0.3,0.6c-0.2,0-0.5,0.1-0.7,0.1c-2.9-0.6-5.4-1.8-7.7-3.6
		c-1.7-1.3-3.4-2.6-5.1-3.9c-1.3-1-2.7-1.7-4.4-1.9c-0.3,0-0.6-0.1-0.8,0c-0.2,0.1-1.1,0-0.3,0.7c-0.1,0.1-0.2,0.3-0.4,0.4
		c-1.1,0.5-1.7,1.4-2.1,2.5c-0.3,0.9-0.7,1-1.5,0.5c-0.9-0.6-1.7-1.3-2.5-2c-0.5-0.4-0.9-0.4-1.4-0.2c-2.7,0.6-5.4,1-8,1.5
		c-0.7,0.1-1.4,0.3-2.1,0.5c-0.3,0.1-0.6,0.2-0.8,0.3c0.2,0.2,0.4,0.5,0.6,0.7c1,1.4,1,2-0.3,3.2c-0.1,0.1-0.3,0.3-0.4,0.4
		c-0.8,0.7-0.8,0.8-1.6,0c-1.1-1.1-2.1-2.2-2.6-3.8c-0.2-0.7-0.5-0.8-1.4-0.8c-2.8,0.1-5.6-0.1-8.4-0.2c-0.4,0-0.8-0.1-1.3-0.1
		c-1.8,0-3.6,0-5.4,0c-0.4,0-0.8,0.1-1.2,0.1c0.1,0.3,0.4,0.7,0.4,1c0,0.7,0.1,1.4-0.1,2.1c-0.2,0.7-0.6,1.3-0.9,1.9
		c-0.6,1.1-0.9,1.1-2,0.5c-1.1-0.7-1.8-1.8-2.4-2.8c-0.5-0.8-0.7-1.9-1.4-2.4c-0.7-0.5-1.8-0.4-2.7-0.5c-2.1-0.3-4.2-0.6-6.3-0.9
		c-1.9-0.3-3.9-0.5-5.8-0.7c-0.5-0.1-0.8-0.1-1.1-0.7C2,20.1,1.3,20,0.8,19.7c-1-0.6-1.1-1.2,0-1.7c2.2-1.1,4.4-2.1,6.7-2.9
		c3.1-1.1,6.3-2.2,9.5-3.1c2.1-0.6,4.3-0.9,6.4-1.3c2.4-0.4,4.8-0.7,7.2-1.1c1.2-0.2,2-0.9,2.6-2c1-1.8,2-3.5,3-5.2
		c0.4-0.7,0.9-1.4,1.4-2c0.4-0.5,0.8-0.5,1.2,0c0.5,0.7,0.9,1.4,1.4,2.1c1.4,2.3,3.2,4.1,5.6,5.4C46,8,46.2,8.1,46.4,8.2
		c0.3,0.3,0.7,0.6,0,0.9c-0.2,0.1-0.3,0.2-0.5,0.3c-0.4,0.3-0.9,0.6-1.3,0.9c0.5,0.1,1,0.3,1.5,0.4c1.2,0.2,2.4,0.3,3.5,0.4
		c3.8,0.4,7.4,1.5,11.1,2.3C62.6,13.7,64.4,14,66.2,14.3z"/>
	<path d="M18.4,15.4c0.1-0.1,0.1-0.3,0.2-0.3c1.7,0,3.3,0,5,0c0.6,0,1.3,0.2,1.9,0.2c2.5,0,5-0.2,7.5,0.1c3.9,0.3,7.9,0.1,11.8,0.4
		c6.6,0.5,13.1,0.1,19.7,0.3c0.8,0,1.5,0.2,2.3,0.3c0.4,0,0.8,0,1.2,0c0.9-0.1,1.9-0.2,2.8-0.3c0,0.7-0.4,0.7-1,0.7
		c-1.9,0-3.7,0.1-5.6,0c-6-0.4-12.1-0.1-18.1-0.4c-3.3-0.2-6.7,0.1-10-0.3c-4.4-0.5-8.8-0.1-13.3-0.3C21.5,15.6,20,15.5,18.4,15.4z"
		/>
	<path d="M71,16.1c-0.2-0.5-0.5-1-0.7-1.4c1,0,1.1,0.7,1.1,1.4l0,0l-0.2,0L71,16.1z"/>
	<path d="M71.4,16.1c0.5,0.2,0.4,0.7,0.3,1.1c0,0.2-0.3,0.4-0.4,0.5c0-0.2-0.1-0.4-0.1-0.6C71.2,16.8,71.3,16.4,71.4,16.1L71.4,16.1
		z"/>
	<path d="M8.4,15.7c0.5,0,1.1,0,1.6,0c0.7,0.1,1,0.7,0.9,1.3c-0.1,0.7-0.5,1.2-1.2,1.4c-0.7,0.3-1.3-0.1-1.8-0.5
		c-0.2-0.2-0.3-0.8-0.2-1.1C7.8,16.4,8.1,16.1,8.4,15.7L8.4,15.7z"/>
</g>
</svg>
