<?xml version="1.0" encoding="iso-8859-1"?>
<!-- Generator: Adobe Illustrator 25.3.0, SVG Export Plug-In . SVG Version: 6.00 Build 0)  -->
<svg version="1.1" id="Calque_1" xmlns="http://www.w3.org/2000/svg" xmlns:xlink="http://www.w3.org/1999/xlink" x="0px" y="0px"
	 viewBox="0 0 82.3 33.3" style="enable-background:new 0 0 82.3 33.3;" xml:space="preserve">
<g>
	<path d="M21.2,3.6c3.2,0,5.7,0,8.2,0c0.9,0,1.5-0.2,2-0.9c0.5-0.6,1.1-1.1,1.6-1.6c1.1-1.2,2.5-1.3,4-0.9c2.1,0.6,4.1,1.3,5.8,2.6
		c0.8,0.6,1.9,0.9,1.5,2.3c0,0.1,0.4,0.5,0.6,0.5c1.8,0.2,3.6,0.3,5.3,0.5c0.2,0,0.5-0.1,0.7-0.2c1.5-0.9,3.3-1,5-1.2
		c0.2,0,0.5,0,0.7-0.1c2-1,4.2-0.5,6.3-0.5c0.2,0,0.5,0.2,0.5,0.4c0,0.2-0.2,0.4-0.3,0.6c-1,0.7-2,1.3-2.9,2.1
		c-1.4,1-1.3,2.1,0.1,3.1c0.7,0.5,1.5,1,2.2,1.5c0.3,0.2,0.6,0.4,0.8,0.7c0.4,0.5,0.1,1.1-0.5,1.1c-1.2-0.1-2.5-0.4-3.7-0.5
		c-1.9-0.3-3.9-0.6-5.8-0.9c-0.6-0.1-1.2-0.3-1.7-0.4c-0.9-0.1-1.8-0.3-2.6-0.3c-1.2,0.1-2.3,0.5-3.5,0.6c-1,0.2,0,0.4,0,0.5
		c-0.1,0.3,0,0.8-0.2,0.9c-1.1,0.9-2.3,1.7-3.8,1.7c-1,0-1.8-0.4-2.3-1.1c-1-1.3-2.2-1.6-3.8-1.1c-0.8,0.3-1.8,0.1-2.7,0.2
		c-0.1,0-0.2,0.3-0.2,0.5c0,0.1,0.3,0.2,0.4,0.4c0.1,0.3,0.2,0.7,0.3,1.1c-0.4,0-0.8,0.2-1.2,0.1c-1-0.3-1.9-0.7-2.9-1
		c-1.6-0.6-3.4-0.6-5-0.3c-2,0.3-3.9,0.2-5.9,0.3c-0.7,0-1.4-0.1-2.1,0.5c-0.5,0.5-1.5,0.4-2.1-0.2c-0.4-0.4-0.8-0.6-1.4-0.7
		c-1.3-0.1-2.6-0.2-3.9-0.3c-0.8-0.1-1.7-0.3-2.4-0.6c-1.8-0.7-3.5-1.5-5.2-2.3c-1.2-0.6-1.4-1.8-0.5-2.8c0.6-0.6,1.2-1.2,2-1.5
		c2.9-1.3,6-1.9,9.1-2.3C15,3.5,18.4,3.8,21.2,3.6z"/>
	<path d="M39,20c3.8,0.2,6.6,0.2,9.3,0.5c2.3,0.2,4.6,0.6,6.9,0.7c1.2,0.1,2.2,0,3.3-0.4c3.1-1,5.9-0.2,8.2,2
		c0.2,0.2,0.5,0.4,0.7,0.4c1.1,0,2.3,0.3,3.2-0.1c1.9-0.7,3.9-0.9,5.9-1.5c1.4-0.5,2.8-0.9,4.2-1.4c0.2-0.1,0.5-0.2,0.7-0.2
		c0.7,0,1.2,0.7,0.7,1.2c-1.1,1.3-2.2,2.6-3.4,3.8c-0.2,0.2-0.5,0.3-0.7,0.5c-0.4,0.4-0.5,0.7,0,1.2c1.2,1.2,2.4,2.5,3.5,3.7
		c0.2,0.2,0.3,0.7,0.2,0.9c-0.2,0.2-0.6,0.4-0.9,0.3c-1-0.3-2.1-0.6-3-1c-2.2-1-4.5-1.9-6.9-2.3c-1.2-0.2-2.4-0.1-3.6-0.1
		c-0.2,0-0.6,0.2-0.7,0.4c-1.4,2.4-2.4,2.9-5.1,2.5c-1-0.2-2-0.4-3-0.6c-0.3,0-0.6-0.1-0.8,0c-1.7,0.7-3.5,0.6-5.3,0.6
		c-0.2,0-0.3,0.1-0.5,0.1c0.1,0.1,0.2,0.3,0.3,0.4c0.1,0.2,0.4,0.5,0.4,0.7c0.1,0.6-0.5,1-1.1,0.8c-0.1,0-0.2-0.1-0.3-0.2
		c-1.2-1.9-2.9-1.3-4.6-1.1c-0.9,0.1-1.8,0.3-2.6,0.3c-2,0-4.1,0-6.1,0c-0.8,0-1.5-0.2-2.3-0.3c-0.5,0-1-0.2-1.4,0
		c-1.7,0.5-3.3,0.4-4.9-0.1c-3.4-0.9-6.8-1.5-10.1-2.8c-0.6-0.3-1.1-0.5-1-1.3c0-0.2,0.4-0.6,0.5-0.5c0.6,0.1,0.6,0.1,0.2-0.4
		c-0.5-0.6-0.5-1.2,0.2-1.3c1.8-0.3,3-1.6,4.5-2.5c1.5-0.9,3.2-1.5,5-1.7c1-0.1,2.1-0.5,3.1-0.7C34.5,20.4,37.2,20.2,39,20z"/>
	<path d="M43.2,27c1,0.2,1.9,0.4,2.8,0.7c0.7,0.3,0.7,0.9,0.3,1.5c-1.3,1.8-3,2.4-5.1,2c-1.5-0.3-1.7-1.6-2.5-2.5
		c-0.1-0.1,0.2-0.6,0.3-0.7C40.4,27.6,41.8,27.3,43.2,27z"/>
	<path d="M58.1,25.5c4.8,0,9.6,0,14.4,0c0.4,0,0.7,0,1.1,0.1c0.1,0,0.3,0.2,0.2,0.2c-0.1,0.1-0.2,0.3-0.3,0.4c0,0-0.1,0-0.2,0
		c-1.5-0.1-3.1-0.2-4.6-0.2c-0.5,0-0.9-0.1-1.4-0.1c-2.6,0-5.3,0-7.9,0C58.9,25.8,58.4,26,58.1,25.5L58.1,25.5z"/>
	<path d="M40.8,24c2.5,0.2,5,0.5,7.6,0.7c0.9,0.1,1.8,0,2.7,0.1c0.4,0,0.9,0.2,1.3,0.4l0,0c-1.9,0-3.8,0-5.7,0
		C45,25.1,41.9,24.5,40.8,24L40.8,24z"/>
	<path d="M74.3,23.6c0.2,0.3,0.6,0.6,0.7,0.9c0.1,1.1,0.1,2.2-0.7,3C74.3,26.3,74.3,25,74.3,23.6z"/>
	<path d="M58.1,25.5c-1.6,0-3.1,0-4.7,0c-0.4,0-0.7-0.2-1.1-0.4c0,0,0,0,0,0c1.6,0,3.2,0,4.8,0C57.5,25.1,57.8,25.3,58.1,25.5
		L58.1,25.5z"/>
	<path d="M40.8,24c-1.5,0-3,0.1-4.3-0.7l0,0C38,23.2,39.4,23.4,40.8,24L40.8,24z"/>
</g>
</svg>
