<?xml version="1.0" encoding="iso-8859-1"?>
<!-- Generator: Adobe Illustrator 25.3.0, SVG Export Plug-In . SVG Version: 6.00 Build 0)  -->
<svg version="1.1" id="Calque_1" xmlns="http://www.w3.org/2000/svg" xmlns:xlink="http://www.w3.org/1999/xlink" x="0px" y="0px"
	 viewBox="0 0 81.4 33.3" style="enable-background:new 0 0 81.4 33.3;" xml:space="preserve">
<g>
	<path d="M25.8,11c2.2-0.3,4.5-0.6,6.7-0.8c0.8-0.1,1.1-0.5,1.4-1.1c0.7-1.5,1.4-3,2.2-4.4C37,3.2,38,1.8,39,0.4
		c0.1-0.2,0.4-0.3,0.6-0.4c0.1,0.2,0.2,0.4,0.2,0.6c0.3,1.1,0.7,2.1,0.9,3.2c0.2,1.1,0.4,2.2,0.5,3.3c0.1,1.3,0.1,2.5-1.1,3.4
		c-0.1,0.1-0.2,0.3-0.2,0.5c0,0.1,0.3,0.2,0.4,0.2c2.3,0.3,4.6,0.3,6.9,0.8c2.3,0.5,4.7,0.2,7,0.9c0.8,0.3,1.8,0.1,2.6-0.1
		c1-0.3,1.6-0.1,2.2,0.6c0.6,0.8,1.3,0.9,2.3,0.8c2.4-0.3,4.4-1.5,6.4-2.8c2.8-1.7,5.7-3.2,8.9-4.1c0.9-0.3,2-0.1,3-0.1
		c0.1,0,0.2,0.2,0.2,0.2c0,0.2-0.1,0.4-0.2,0.4c-2,0.6-3.4,2.2-4.8,3.6c-1.7,1.6-3.3,3.3-5,4.9c-1.3,1.3-1.3,1.3-0.1,2.7
		c1.5,1.7,3.5,2.7,5.1,4.2c1.9,1.7,3.8,3.3,5.8,5c0.2,0.2,0.3,0.5,0.5,0.7c0.2,0.3,0.1,0.5-0.2,0.5c-0.5,0-1,0-1.4-0.2
		c-0.9-0.3-1.8-0.5-2.7-0.9c-1.5-0.7-3-1.5-4.5-2.2c-1.3-0.7-2.7-1.3-4-2c-1.6-0.9-3.2-1.8-4.8-2.8c-0.4-0.2-0.8-0.6-1.2-0.7
		c-2.2-0.9-2.6-0.9-5,0.2c-3,1.5-5.7,3.2-7.9,5.8c-0.4,0.5-0.7,1.1-1,1.7c-0.3,0.6-0.6,0.9-1.3,0.5c-1.8-0.9-3.7-1.7-5.5-2.6
		c-1-0.5-2.1-0.5-3-0.3c-1.4,0.4-2.8,0.2-4.3,0.3c-0.4,0-0.8,0-1.3,0c-0.2,0-0.5,0.3-0.2,0.4c1.3,0.7,0.8,1.6,0.5,2.6
		c-0.4,1.1-0.7,2.2-1.1,3.3c-0.1,0.3-0.3,0.6-0.6,0.6c-0.2,0-0.5-0.3-0.6-0.5c-0.8-1.7-1.7-3.4-2.5-5.1c-0.4-0.9-0.7-1.4-1.9-1.5
		c-2.4-0.2-4.8-0.9-7.2-1c-3-0.1-5.7-0.9-8.5-1.5C8,23.1,4.9,22,2.1,20.1c-0.8-0.5-1.3-1.4-1.8-2.2c-0.6-0.9-0.1-2,0.9-2.4
		c1.8-0.7,3.5-1.3,5.4-1.6c2.3-0.3,4.5-1,6.8-1.5c2.1-0.4,4.2-0.7,6.3-1c1.1-0.2,2.1-0.3,3.2-0.4c1-0.1,2-0.3,3-0.4
		C25.8,10.8,25.8,10.9,25.8,11z"/>
	<path d="M60.3,18.4c-1.2,0-2.1,0-2.9,0c-0.1,0-0.2-0.2-0.3-0.3c0.1-0.1,0.3-0.3,0.4-0.3c1.5,0,3.1,0.1,4.6,0.1
		c0.2,0,0.5,0.1,0.7,0.1c0.1,0.1,0.2,0.2,0.3,0.3c-0.1,0.1-0.3,0.2-0.4,0.2C61.8,18.5,60.9,18.4,60.3,18.4z"/>
	<path d="M24.9,21.6c0.3-0.2,0.4-0.3,0.6-0.3c1.6,0.1,3.2,0.2,4.7,0.3c0.2,0,0.3,0.2,0.5,0.4c-0.1,0-0.3,0.1-0.4,0.1
		c-1.5,0-3.1-0.1-4.6-0.2C25.4,22,25.2,21.8,24.9,21.6z"/>
	<path d="M49.1,19.8c-0.1,0.2-0.2,0.3-0.3,0.3c-0.5,0.1-1,0.3-1.5,0.4c-0.5,0.1-1,0-1.4,0c-0.3,0-0.7,0.6-1,0
		c0.3-0.1,0.6-0.3,0.9-0.4c1-0.2,2-0.4,3-0.5C48.8,19.7,48.9,19.8,49.1,19.8z"/>
	<path d="M52.2,18.7c0.2,0.1,0.4,0.2,0.3,0.2c0,0.2-0.1,0.4-0.2,0.4c-0.3,0.1-0.6,0.1-0.9,0.2c-0.7,0.1-1.3,0.2-2,0.3
		c0.4-0.7,1.1-0.7,1.8-0.8C51.6,19,52,18.8,52.2,18.7z"/>
	<path d="M41.8,21.7c0-0.1-0.2-0.2-0.2-0.4c0-0.1,0.2-0.3,0.3-0.4c0.3-0.1,0.6-0.1,0.9-0.1c0.5,0,1-0.7,1.6,0
		c-0.5,0.2-1,0.4-1.5,0.6C42.6,21.6,42.3,21.6,41.8,21.7z"/>
	<path d="M54.5,19.2c-0.3-0.2-0.4-0.2-0.5-0.3c0.1-0.1,0.2-0.2,0.3-0.2c0.7-0.3,1.4-0.8,2.3-0.5c0,0,0,0.1,0.1,0.1
		C55.9,18.7,55.1,19,54.5,19.2z"/>
	<path d="M36.1,21.8c0.1,0.1,0.3,0.2,0.5,0.3c-0.2,0.1-0.4,0.2-0.6,0.2c-0.4,0-0.8,0-1.2,0c-0.1,0-0.2-0.1-0.3-0.1
		c0.1-0.1,0.2-0.1,0.3-0.2C35.2,21.9,35.6,21.9,36.1,21.8z"/>
	<path d="M32.5,22.4c-0.4-0.1-0.8-0.1-1.2-0.2c0.4-0.1,0.8-0.2,1.3-0.2c0.3,0,0.6,0,0.9,0c0.1,0,0.2,0.1,0.3,0.2
		c-0.1,0-0.2,0.1-0.3,0.1C33.1,22.3,32.8,22.3,32.5,22.4C32.5,22.3,32.5,22.4,32.5,22.4z"/>
	<path d="M39.6,22.1c-0.2-0.2-0.3-0.3-0.5-0.4c0.4-0.1,0.7-0.2,1.1-0.3c0.1,0,0.2,0.2,0.2,0.4C40.1,21.9,39.9,22,39.6,22.1z"/>
	<path d="M37.2,21.8c0.4,0,0.8-0.1,1.1-0.1c0.1,0,0.1,0.2,0.2,0.4c-0.4,0.1-0.7,0.1-1.1,0.2C37.4,22.2,37.4,22,37.2,21.8z"/>
</g>
</svg>
