<?xml version="1.0" encoding="iso-8859-1"?>
<!-- Generator: Adobe Illustrator 25.3.0, SVG Export Plug-In . SVG Version: 6.00 Build 0)  -->
<svg version="1.1" id="Calque_1" xmlns="http://www.w3.org/2000/svg" xmlns:xlink="http://www.w3.org/1999/xlink" x="0px" y="0px"
	 viewBox="0 0 86.7 26.3" style="enable-background:new 0 0 86.7 26.3;" xml:space="preserve">
<g>
	<path d="M18.1,3.3c2.6,0.2,5.1,0.3,7.7,0.5c1.2,0.1,2-0.4,2.7-1.4c0.7-1.1,1.6-2.1,3-2.4c0.4-0.1,0.9-0.1,1.4,0
		c0.7,0.2,0.9,0.6,0.8,1.3c-0.1,0.7-0.3,1.4-0.3,2.1c0,1,0.5,1.5,1.5,1.7c1.5,0.3,3,0.9,4.5,0.9c1.6,0,2.9,0.5,4.3,0.9
		c0.2,0.1,0.5,0.1,0.7,0.2c0.8,0.8,1.6,0.5,2.5,0c2.7-1.6,5.7-2.3,8.8-3c1.5-0.3,3.1-0.4,4.6-0.4c2.1-0.1,4.2,0,6.3,0
		c4.9,0,9.7,1,14.3,2.6c2.1,0.7,4.1,1.8,5.5,3.5c0.2,0.3,0.5,0.7,0.4,0.9c-0.2,0.3-0.6,0.4-1,0.6c-0.1,0.1-0.4,0-0.5,0
		c-0.6,0.1-1.2,0.4-1.7,0.3c-0.7-0.1-0.6-0.9-0.8-1.5c-0.1-0.3-0.5-0.5-0.8-0.6c-2.7-0.6-5.4-1.3-8.2-1.8c-1.1-0.2-2.3,0-3.4-0.1
		c-1.2,0-2.4,0-3.6,0c-3.2,0-6.4,0.4-9.4,1.7c-2.1,0.9-4.3,1.8-6.4,2.7c-1.1,0.5-1.1,0.6-0.9,1.8c0.2,1.1-0.4,1.6-1.4,1.2
		c-0.8-0.3-1.6-0.8-2.2-1.4c-0.7-0.7-1.4-1.2-2.5-1c-0.4,0-0.8-0.2-1.2-0.3c-0.6-0.1-1.3-0.4-1.9-0.3c-2.4,0.2-4.3,2.1-4.6,4.5
		c0,0.2,0,0.4,0,0.5c-0.1,0.4-0.2,0.8-0.3,1.2c-0.4-0.1-1-0.1-1.3-0.4c-1-0.9-2.1-1.8-2.2-3.3c0-0.3-0.2-0.7-0.3-1
		c-0.1-0.7-0.6-0.8-1.2-0.8c-2.5,0-4.9,0-7.4,0c-0.6,0-1,0.2-1.4,0.6c-1.6,1.2-2.2,2.6-2.2,4.6c0.1,2.2-0.1,4.5,0.7,6.7
		c0.1,0.3,0.1,0.7,0,1.1c-0.1,0.5-0.6,0.7-1.1,0.5c-1.4-0.6-2.3-1.7-3-2.9c-0.9-1.7-1.4-3.5-1.7-5.4c-0.2-1.6-0.3-3.3-0.4-4.9
		c-0.1-1.1-0.4-1.4-1.5-1.5c-3.7-0.5-7.4-1-11-2.2C1.4,9.1,1,9,0.7,8.8c-0.7-0.3-0.9-1-0.3-1.6c0.3-0.3,0.8-0.6,1.2-0.8
		c1.9-1.1,4-1.5,6.1-1.9c2-0.4,4-0.8,6-1c1.5-0.2,3,0,4.5,0C18.1,3.4,18.1,3.4,18.1,3.3z"/>
	<path d="M14,9.2c0-1,0.3-1.5,0.7-1.2c0.5,0.3,1.5-0.1,1.5,0.9c0,0.5-0.8,1.5-1.2,1.5C14.2,10.4,14,10.2,14,9.2z"/>
	<path d="M12.6,9.9c0,0-0.1,0.2-0.2,0.3c-0.2-0.1-0.5-0.2-0.5-0.3c0-0.7-0.6-1.3-0.1-2c0.1-0.1,0.2-0.2,0.2-0.2
		c0.1,0.1,0.2,0.1,0.2,0.2C12.4,8.5,12.5,9.1,12.6,9.9z"/>
</g>
</svg>
