<?xml version="1.0" encoding="iso-8859-1"?>
<!-- Generator: Adobe Illustrator 25.3.0, SVG Export Plug-In . SVG Version: 6.00 Build 0)  -->
<svg version="1.1" id="Calque_1" xmlns="http://www.w3.org/2000/svg" xmlns:xlink="http://www.w3.org/1999/xlink" x="0px" y="0px"
	 viewBox="0 0 71.1 38.8" style="enable-background:new 0 0 71.1 38.8;" xml:space="preserve">
<g>
	<path d="M50.8,16.1c2.8,0.4,5.1-1.1,7.6-2c2.3-0.8,4.5-1.9,7-1.9c0.9,0,1.9-0.2,2.8-0.3c0.2,0,0.5,0,0.7,0c0.7,0.1,1.4,0.3,2.2,0.4
		c0,0.9-0.9,1.2-1.4,1.7c-1.2,1.3-2.4,2.6-3.6,3.9c-0.6,0.6-1.2,1.1-2.1,1.4c-0.2,0.1-0.4,0.2-0.6,0.3c-0.6,0.4-1.3,0.8-1.9,1.3
		c0.6,0.4,1.2,0.8,1.8,1.3c0.4,0.3,0.9,0.6,1.2,1.1c1.3,2,3.1,3.6,5,5c0.1,0.1,0.2,0.1,0.3,0.2c0.2,0.2,0.5,0.5,0.4,0.7
		c-0.1,0.2-0.4,0.5-0.7,0.5c-1.1,0-2.1,0.1-3.2,0c-3.5-0.4-6.7-2.1-10-3.3c-1.2-0.5-2.5-0.9-3.7-1.4c-2-0.8-4.1-0.8-6.2-0.7
		c-0.4,0-0.8,0.2-1.2,0.3c-0.1,0-0.3,0.1-0.4,0.2c0.1,0.1,0.2,0.1,0.3,0.2c1.2,0.4,1.3,1.3,1.3,2.4c0,2.6-0.8,4.9-2.2,7
		c-0.7,1.1-2,1.4-3.2,1.2c-1.9-0.3-3.5-1.1-4.8-2.5c-1-0.9-2-1.8-3.3-2.4c-0.5-0.2-0.9-0.3-1.5-0.2c-2.5,0.3-5,0.4-7.5,0
		c-0.1,0-0.1-0.1-0.2-0.1c-0.6,0-1.1,0-1.7,0c0.4,0.3,0.7,0.6,1.1,0.9c0.4,0.4,0.9,0.8,1.3,1.3c0.5,0.6,0.5,1.5,0,1.9
		c-1.1,0.9-1.4,2-1.8,3.2c-0.5,1.3-1.2,1.4-2.3,0.6c-1.9-1.4-3.1-3.4-3.8-5.6c-0.4-1.2-1-2.4-1.5-3.6c-1.2-0.4-2.4-0.8-3.6-1.1
		c-0.9-0.2-1.7-0.4-2.6-0.6c-0.6-0.2-1.1-0.4-1.6-0.7c-2-1.2-4.1-2.4-5.8-4.1c-0.5-0.6-1-1.2-1.4-1.8c-0.2-0.3-0.3-0.7-0.3-1
		c0.1-0.3,0.5-0.4,0.7-0.6c0.2-0.2,0.4-0.3,0.4-0.5c0.4-1.9,2-2.5,3.5-3c2.3-0.7,4.6-1.5,6.8-2.6c2.1-1.1,4.2-2,6.4-2.8
		c0.8-0.3,1.7-0.5,2.6-0.7c1.3-0.2,2.5-0.8,3.7-1.3c0.4-0.2,0.8-0.7,1.1-1.2c1.4-2.6,3.5-4.5,5.8-6.2c0.3-0.2,0.6-0.4,0.9-0.6
		C32,0.1,32.2,0,32.3,0c0.4,0.5,1.1,1.1,1.2,1.7c0.2,0.8-0.1,1.7-0.2,2.5c0,0.3,0.1,0.7,0.1,1c0,0.3,0.2,0.5,0.1,0.8
		C33.4,6.3,33,6.6,33,6.8c0.2,0.7,0.6,1.4,1,2c0.1,0.1,0.6,0.1,0.8,0c0.4-0.2,0.6-0.6,0.9-0.8c0.7-0.7,1.5-1.4,2.2-2.1
		c0.9-0.9,2-1,3.1-0.5c1.4,0.7,2.6,1.6,3,3.3c0.2,1,0.4,2,0.7,2.9c0.3,1,0.2,2.2,1.4,2.7c0.1,0,0,0.5,0,0.7c0,0.1-1.3,0.1-0.1,0.5
		C47.6,16,49.1,16.3,50.8,16.1z"/>
	<path d="M50.4,20.4c-2.2-0.1-4.4-0.1-6.6-0.2c-1-0.1-2,0.1-3,0c-1.8-0.3-3.2-1.1-4.6-2.1c-2.4-1.6-5-2.9-7.8-3.5
		c-0.3-0.1-0.8-0.1-1-0.3c-0.3-0.4-0.9,0.3-0.9-0.3c0-0.1,0.7-0.3,1.1-0.2c2.7,0.4,5.2,1.5,7.6,2.9c0.8,0.5,1.7,1.1,2.5,1.7
		c1.2,1,2.7,1.1,4.2,1.2c1,0.1,1.9-0.1,2.9-0.1c1.1,0,2.1,0.1,3.2,0.1c1.2,0.1,2.4,0.1,3.5,0.2c0.1,0,0.3,0.2,0.3,0.3
		c0,0.1-0.2,0.3-0.3,0.3C51.1,20.5,50.7,20.5,50.4,20.4C50.4,20.5,50.4,20.4,50.4,20.4z"/>
	<path d="M23.7,13.7c0.6,0.1,1.3,0.1,2,0.2c-0.7,0.1-1.4,0.3-2.2,0.4c-0.9,0.1-1.9,0.1-2.8,0.2c-0.1,0-0.3-0.1-0.4-0.2
		c0.2-0.1,0.3-0.4,0.5-0.4C21.7,13.8,22.7,13.7,23.7,13.7z"/>
	<path d="M13.4,16.2c-0.1,0-0.3,0-0.3,0c-0.2-0.2-0.4-0.4-0.6-0.5c0.2-0.1,0.5-0.4,0.7-0.4c0.4,0.1,0.5,0.4,0.3,0.8
		C13.4,16.1,13.4,16.2,13.4,16.2C13.3,16.2,13.4,16.2,13.4,16.2z"/>
	<path d="M7.6,20.1c-0.1-0.2-0.2-0.4-0.3-0.6c-0.8-1.4-0.7-1.9,0.5-2.9c0.2-0.1,0.4-0.3,0.5-0.4c1.2,0.2,2.2,0.9,2.4,1.9
		c0.2,0.7-0.7,1.9-1.6,2.1C8.7,20.2,8.1,20.2,7.6,20.1z"/>
</g>
</svg>
