<?xml version="1.0" encoding="iso-8859-1"?>
<!-- Generator: Adobe Illustrator 25.3.0, SVG Export Plug-In . SVG Version: 6.00 Build 0)  -->
<svg version="1.1" id="Calque_1" xmlns="http://www.w3.org/2000/svg" xmlns:xlink="http://www.w3.org/1999/xlink" x="0px" y="0px"
	 viewBox="0 0 83 28" style="enable-background:new 0 0 83 28;" xml:space="preserve">
<g>
	<path d="M57.5,9.7c2.6-0.2,4.6,0.2,6.6-0.4C65,9,65.9,8.8,66.8,8.4c1.2-0.5,2.4-1.2,3.5-1.8c1.2-0.6,2.5-0.7,3.9-0.8
		c1.2-0.1,2.2,0.1,3.3,0.4c2.8,1,4.8,2.8,5.4,5.8c0.4,2.1-0.2,4-1.6,5.6c-1.7,2-4,3.1-6.6,3.5c-1.6,0.3-3-0.1-4.4-0.8
		c-1.9-1-3.8-1.8-6-2.2c-2.3-0.3-4.6-0.4-6.9,0c-1.8,0.3-3.5,0.6-5.3,0.8c-0.4,0.1-0.8,0.2-1.2,0.3c-0.4,0.1-0.9,0.3-1.3,0.4
		c0.4,0.2,0.7,0.5,1.1,0.7c2.3,1.6,3,4.4,1.8,6.4c-0.4,0.7-0.9,1-1.7,1.1c-1.2,0.1-2.3-0.1-3.3-0.6c-1.3-0.6-2.5-1.3-3.5-2.4
		c-0.7-0.8-1.6-1.5-2.3-2.3c-0.6-0.7-1.1-1-2-0.5c-0.5,0.2-1.1,0.2-1.6,0.3c0.2,0.5,0.5,1,0.7,1.5c0.1,0.2,0.1,0.7,0,0.8
		c-0.2,0.2-0.7,0.4-0.9,0.3c-0.6-0.3-1.3-0.7-1.8-1.2c-1.1-1.3-2.4-1.3-3.9-1.1c-2.7,0.4-5.4,0.4-8,0c-0.3,0-0.6-0.1-0.9-0.1
		c-4.6,0.2-9.1-0.9-13.5-2c-2.6-0.6-4.9-1.8-7.2-3.1c-0.7-0.4-1.2-1.1-1.9-1.7c-0.7-0.5-0.6-1.1-0.2-1.7c0.6-1,1.6-1.4,2.7-1.6
		c3.4-0.7,6.8-1.1,10.1-1.9c3.4-0.8,6.8-1,10.2-1.6c1.8-0.3,3.7-0.3,5.5-0.4c2.4-0.1,4.9-0.2,7.3-0.4c0.4,0,0.9-0.1,1.2,0
		C38.9,9,39.5,8.1,40.1,7c1.2-2.3,3.1-4.1,4.9-5.9c1.8-1.8,3.4-1.3,4.7,0.4c0.6,0.8,1.1,1.7,1.4,2.6c0.7,1.8,0.3,3-1.2,4.2
		c-0.2,0.2-0.4,0.3-0.6,0.4c-0.1,0.1-0.2,0.3-0.3,0.4c0.1,0,0.2,0.1,0.3,0.1C52.3,9.4,55.2,9.6,57.5,9.7z"/>
</g>
</svg>
