<?xml version="1.0" encoding="iso-8859-1"?>
<!-- Generator: Adobe Illustrator 25.3.0, SVG Export Plug-In . SVG Version: 6.00 Build 0)  -->
<svg version="1.1" id="Calque_1" xmlns="http://www.w3.org/2000/svg" xmlns:xlink="http://www.w3.org/1999/xlink" x="0px" y="0px"
	 viewBox="0 0 85.1 22" style="enable-background:new 0 0 85.1 22;" xml:space="preserve">
<g>
	<path d="M4.7,15.5c-0.1-0.3-0.3-0.5-0.3-0.8c0-1-0.1-1.3-1-1.4c-0.4,0-0.8,0-1.3,0c-0.9-0.1-1.6-0.6-2-1.6c-0.3-0.9,0-1.7,1-2.1
		c0.2-0.1,0.4-0.2,0.7-0.3c1.1-0.4,1.1-0.4,1.2-1.6c0-0.6-0.2-1.2,0.4-1.6l0.1,0.1c0.1,0.5,0.3,1,0.4,1.5c0.1,0.5,0.4,0.6,0.8,0.4
		c1-0.4,1.9-0.9,2.9-1.4c1.3-0.7,2.6-1.2,4-1.5c2.2-0.5,4.4-1.3,6.7-1.8c1.1-0.2,1.5-1.2,2.5-1.6c0.8,0.5,1.8,0.5,2.7,0.5
		c0.5,0,1.3-0.1,1.2-0.4c-0.1-0.5-0.8-0.2-1.2-0.1c-0.9,0.1-1.8,0.8-2.7,0c0.2-0.3,0.3-0.6,0.5-0.8C23-0.1,25-0.1,27,0.1
		c0.3,0,0.6,0.2,0.8,0.4c0.7,0.5,0.7,1.1,0,1.6c-0.6,0.4-1.3,0.7-1.9,1c-0.1,0-0.2,0.2-0.2,0.3c0.1,0.1,0.2,0.3,0.4,0.3
		C27.6,3.7,29,3.8,30.4,4c2.4,0.2,4.9,0.5,7.3,0.7c0.1,0,0.1,0,0.2,0c2.7,0.1,5.5,0.2,8.2,0.4c2.6,0.2,5.1,0.5,7.6,0.7
		c0.8,0.1,1.7,0,2.5,0c4.7,0.1,9.3,0.1,14,0.4c3.4,0.2,6.8,0.8,10.2,1.4c1.8,0.4,3.5,1.3,4.3,3.2c0.8,1.8,0.5,4.5-2.2,5.6
		c-1.6,0.6-3.2,0.9-4.9,0.9c-3.4,0.1-6.8,0.1-10.3,0c-2.7-0.1-5.3-0.4-8-0.6c-1-0.1-1.9,0-2.9,0c-0.1,0-0.3,0.2-0.4,0.3
		c0,0.1,0.1,0.3,0.2,0.4c0.7,0.5,1.4,0.9,2.1,1.4c1.2,1.1,1,2.1-0.5,2.7c-1.7,0.7-3.4,0.6-5.1,0.4C49.2,21.4,46,20,43.1,18
		c-1.4-1-2.9-1.5-4.7-1.2c-1.6,0.2-3.4,0.1-5,0.1c-0.1,0-0.2,0.1-0.3,0.1c0.1,0.1,0.1,0.2,0.2,0.3c0.6,0.4,1.2,0.7,1.8,1.2
		c0.6,0.5,1.2,1,1.1,1.9c-0.1,0.5-0.3,0.8-0.8,0.8c-1.1,0.1-2.1-0.1-2.8-0.8c-0.7-0.7-1.4-1.5-2-2.3c-0.4-0.7-0.8-0.9-1.6-0.8
		c-0.8,0.1-1.7,0-2.5,0c-5.1,0.3-10.1-0.7-15-1.9c-1.8-0.4-3.7-0.9-5.5-1.3c-0.4-0.1-0.7-0.1-0.8,0.4c-0.1,0.3-0.2,0.5-0.3,0.8
		L4.7,15.5z"/>
	<path d="M4.8,15.4c0.8,0.1,0.9,0.8,1.3,1.3c0.2,0.2,0.3,0.6,0.5,0.9c0.2,0.3,0.3,0.7,0.5,1c-0.6,0.2-0.9-0.3-1.1-0.6
		c-0.5-0.8-0.9-1.6-1.3-2.4L4.8,15.4z"/>
	<path d="M3.3,6.1c0.3-0.5,0.7-1,1-1.5c0.1,0,0.2-0.1,0.3-0.1c0,0.1-0.1,0.2-0.1,0.3C4.3,5.4,4.2,6.1,3.3,6.1L3.3,6.1z"/>
	<path d="M4.3,4.6c0.1-0.4,0.3-0.8,0.4-1.1C4.7,3.4,4.9,3.3,5,3.2C5,3.4,5.2,3.5,5.1,3.7C4.9,4.1,4.7,4.4,4.5,4.8
		C4.4,4.8,4.3,4.7,4.3,4.6z"/>
</g>
</svg>
