<?xml version="1.0" encoding="iso-8859-1"?>
<!-- Generator: Adobe Illustrator 25.3.0, SVG Export Plug-In . SVG Version: 6.00 Build 0)  -->
<svg version="1.1" id="Calque_1" xmlns="http://www.w3.org/2000/svg" xmlns:xlink="http://www.w3.org/1999/xlink" x="0px" y="0px"
	 viewBox="0 0 87.2 28.7" style="enable-background:new 0 0 87.2 28.7;" xml:space="preserve">
<g>
	<path d="M40.9,0.3C47.4,0.1,52.7,0,58.1,0c2.7,0,5.5,0.4,8.2,0.7c0.9,0.1,1.9,0.3,2.8,0.3c1.1,0.1,1.9,0.7,2.6,1.4
		c0.8,0.9,0.9,1.8,0.3,2.7c-0.3,0.5-0.6,1-0.9,1.5c0.6-0.1,1.3-0.2,1.9-0.4c1.4-0.4,2.8-0.9,4.3-1.3c3.1-1,5.7,0.1,8.1,2
		c2,1.6,2.2,3.8,1.7,6c-0.8,3.2-3,5.3-6.3,6.2c-0.4,0.1-0.8,0.1-1.2,0.1c-2.5-0.3-5-0.6-7.4-0.8c-2-0.2-3.9-0.8-6-0.3
		c-2,0.4-4,0.5-6,0.8c-0.4,0.1-0.8,0.2-1.2,0.3c-0.1,0-0.2,0.1-0.3,0.1c0.1,0.1,0.2,0.1,0.4,0.2c0.5,0.1,1,0.2,1.6,0.4
		c1.5,0.4,2.1,2.2,1.2,3.4c-0.9,1.2-4.2,2.5-5.9,1.9c-1.8-0.6-3.7-1.4-4.9-2.8c-1.6-1.9-3.6-1.8-5.7-1.6c-0.1,0-0.1,0-0.2,0
		c-0.8,0.1-1.5,0.2-2.3,0.3c0.4,0.6,0.9,1.3,1.2,1.9c0.2,0.3,0.4,0.7,0.4,1c-0.2,1.2-0.3,2.5-0.8,3.6c-0.5,1.2-1.7,1.3-2.3,0
		c-0.9-1.8-1.6-3.7-2.3-5.5c-0.4-1.1-0.4-1.1-1.5-0.9c-0.6,0.1-1.3,0.2-2,0.2c-5.4,0-10.9,0-16.3,0c-1.4,0-2.7-0.2-4.1-0.4
		c-1.8-0.2-3.7-0.4-5.5-0.7c-2.6-0.5-5.2-0.8-7.4-2.2c-0.8-0.5-1.2-1.3-1.8-1.9c-0.4-0.4-0.1-1.2,0.5-1.7c1-0.7,1.9-1.4,2.9-2
		c2.8-1.6,5.9-2.6,9-3.3c2.8-0.6,5.7-1.3,8.5-1.9c1.2-0.3,2.5-0.4,3.7-0.6c1-0.1,2-0.2,3-0.4c0.3-0.1,0.6-0.3,0.8-0.6
		c0.2-0.2,0.3-0.4,0.3-0.6c0.8-2.7,2.9-3.6,5.4-4.1C36.9,0.6,39.4,0.1,40.9,0.3z"/>
	<path d="M34.2,12.9c-3.8,0-7.5,0-11.3,0c-0.2,0-0.3-0.1-0.5-0.1c0.2-0.1,0.3-0.2,0.5-0.2c0.3,0,0.6,0,0.9,0c7.1,0,14.2,0,21.4,0
		c0.3,0,0.6,0,0.9,0c0.1,0,0.2,0.1,0.4,0.2c-0.1,0-0.2,0.1-0.3,0.1c-0.4,0-0.8,0-1.3,0C41.3,12.9,37.7,12.9,34.2,12.9
		C34.2,12.9,34.2,12.9,34.2,12.9z"/>
	<path d="M62.9,12.9c-2.9,0-5.7,0-8.6,0c-0.2,0-0.3-0.1-0.5-0.1c0.1-0.1,0.3-0.1,0.4-0.2c0.1,0,0.2,0,0.4,0c5.7,0,11.4,0,17,0
		c0.1,0,0.1,0,0.2,0c0.2,0.1,0.4,0.1,0.6,0.2c-0.2,0-0.3,0.1-0.5,0.1c-0.8,0-1.7,0-2.5,0C67.2,12.9,65,12.9,62.9,12.9
		C62.9,12.9,62.9,12.9,62.9,12.9z"/>
	<path d="M7.4,14.2c0,0.5-0.5,0.9-1,0.8c-0.5-0.1-1.2-0.8-1-1c0.3-0.3,0.7-0.6,1.2-0.7C7,13.1,7.4,13.7,7.4,14.2z"/>
	<path d="M18.9,16.4c-0.1-0.2-0.2-0.5-0.4-0.7c0-0.1,0-0.1,0.1-0.2c0.3-0.5,0.6-1,0.9-1.4c0.5,0.7-0.2,1.3-0.2,1.9
		C19.3,16.2,19,16.3,18.9,16.4z"/>
	<path d="M17.1,18.2c0.6-0.6,1.2-1.2,1.8-1.8C18.8,17.4,18.1,18,17.1,18.2z"/>
	<path d="M73.3,10.7c0,0.6,0,0.9,0,1.1c0,0.2-0.1,0.3-0.2,0.5c-0.1-0.2-0.1-0.3-0.2-0.5c0-0.2,0-0.5,0-0.7c0.1-0.4,0.2-0.8,0.2-1.2
		C73.2,10.3,73.3,10.7,73.3,10.7z"/>
	<path d="M15.3,14.8c0-0.3,0-0.6,0-0.9c0,0,0.1-0.1,0.1-0.1c0.1,0.1,0.2,0.1,0.2,0.2c0,0.6,0,1.3,0,1.9c0,0.1-0.1,0.2-0.2,0.2
		c-0.1-0.1-0.1-0.2-0.1-0.3C15.3,15.6,15.3,15.2,15.3,14.8C15.3,14.8,15.3,14.8,15.3,14.8z"/>
	<path d="M8.9,15.4c-0.3,0-0.7,0.1-1,0.1c-0.4,0-0.9,0-1.3,0.1c0.4-0.2,0.8-0.4,1.3-0.5C8.2,15,8.6,14.9,8.9,15.4L8.9,15.4z"/>
</g>
</svg>
