<?xml version="1.0" encoding="iso-8859-1"?>
<!-- Generator: Adobe Illustrator 25.3.0, SVG Export Plug-In . SVG Version: 6.00 Build 0)  -->
<svg version="1.1" id="Calque_1" xmlns="http://www.w3.org/2000/svg" xmlns:xlink="http://www.w3.org/1999/xlink" x="0px" y="0px"
	 viewBox="0 0 85.4 11.2" style="enable-background:new 0 0 85.4 11.2;" xml:space="preserve">
<g>
	<path d="M14,2.1c1,0,2,0,3.1,0c1.2,0,2.2-0.3,3-1.2c0.7-0.8,1.6-1,2.6-0.9C34.3,0.8,46,0.2,57.7,0.4c2.3,0,4.6,0.4,6.9,0.6
		c1.5,0.1,3,0.2,4.4,0.4c2.4,0.3,4.7,0.7,7,1.1c0.4,0.1,0.7,0.4,0.6,0.7c-0.4,1,0.4,0.7,0.7,0.6c1.1-0.4,2.2-1,3.3-1.4
		c1.2-0.4,2.4-0.8,3.6-1c1-0.2,1.2,0.2,0.8,1c-0.4,0.8-1,1.6-1.5,2.4c-0.6,0.9-0.5,1,0.3,1.7c0.3,0.3,0.6,0.5,0.9,0.9
		c0.3,0.3,0.5,0.7,0.7,1.1c-0.5,0-1,0.2-1.4,0.1c-1.2-0.3-2.4-0.7-3.6-1.1c-1.1-0.3-2.3-0.7-3.4-1c-0.2-0.1-0.7-0.1-0.5,0.4
		c0.3,0.7-0.1,0.9-0.8,1c-2.9,0.6-5.8,1.2-8.7,1.8c-1.7,0.3-3.5,0.8-5.3,1c-2.3,0.3-4.6,0.4-7,0.4c-1.1,0-2.1-0.5-2.8-1.3
		c-0.7-0.8-1.4-0.9-2.4-0.7c-0.6,0.2-1.3,0.2-1.9,0.2c-6.7,0-13.3,0.1-20,0c-2.8,0-5.7-0.4-8.5-0.6c-0.7-0.1-1.4,0-2.2,0
		c-2.4-0.1-4.9-0.2-7.3-0.4C9.1,8.3,8.5,8.2,8,7.9C6.1,7.1,4.2,7,2.3,6.6C1.6,6.4,1,6.1,0.4,5.9C0.3,5.8,0.1,5.6,0,5.4
		C0.2,5.3,0.5,5.1,0.7,5c0.5-0.1,1-0.1,1.5-0.2C1.8,4.6,1.4,4.4,1,4.2C0.7,3.9,0.8,3.6,1.1,3.5c0.3-0.1,0.6-0.2,0.8-0.2
		c2.5-0.4,5-0.8,7.6-1C11,2.1,12.5,2.2,14,2.1C14,2.2,14,2.2,14,2.1z"/>
</g>
</svg>
