<?xml version="1.0" encoding="iso-8859-1"?>
<!-- Generator: Adobe Illustrator 25.3.0, SVG Export Plug-In . SVG Version: 6.00 Build 0)  -->
<svg version="1.1" id="Calque_1" xmlns="http://www.w3.org/2000/svg" xmlns:xlink="http://www.w3.org/1999/xlink" x="0px" y="0px"
	 viewBox="0 0 84.9 35.9" style="enable-background:new 0 0 84.9 35.9;" xml:space="preserve">
<g>
	<path d="M63.1,28.4c0,1.1-0.4,2-0.9,2.9c-0.7,1.1-1.7,1.7-3.1,1.8c-1.7,0.1-3.2-0.4-4.7-0.8c-3.3-1-6.6-1.1-9.9-1c-1,0-2,0.2-3,0.4
		c-0.1,0-0.2,0.1-0.2,0.2c0,0.1,0.1,0.2,0.2,0.3c1.3,0.5,1.5,1.5,1.4,2.8c-0.1,0.9-0.7,1.3-1.5,1c-1-0.3-1.7-1-2.3-1.9
		c-0.2-0.3-0.4-0.6-0.5-0.9c-0.2-0.6-0.7-0.8-1.3-0.7c-1.1,0.1-2.1,0.2-3.2,0.4c-0.4,0-0.2,0.2-0.2,0.5c0.1,1.2-0.1,1.5-1.1,1.9
		c-1,0.4-2,0.2-2.3-0.7c-0.6-1.6-1.6-1.6-3-1.4c-1.6,0.2-3.2-0.1-4.8-0.1c-0.4,0-0.8-0.1-1.3-0.1c-2.5,0.1-4.9-0.2-7.3-0.7
		c-0.7-0.1-1.4-0.2-2.2-0.1c-2.3,0.3-4.5-0.6-6.6-1.2c-1-0.3-1.9-0.6-2.9-1c-0.3-0.1-0.7-0.3-0.9-0.5c-0.2-0.3-0.1-0.8-0.3-1.1
		c-0.2-0.3-0.7-0.4-1-0.6C0,27.5,0,27,0.1,26.9c0.4-0.3,0.9-0.6,1.4-0.7c1.1-0.1,1.9-0.5,2.7-1.3c0.5-0.5,1.3-0.4,2,0.1
		c1,0.9,2.2,0.8,3.4,0.6c1.4-0.2,2.8-0.4,4.2-0.6c1.8-0.2,3.6-0.5,5.5-0.7c0.5-0.1,1-0.1,1.4-0.1c4.7,0,9.5,0,14.2,0
		c2.1,0,4.3,0.2,6.4,0.3c0.9,0.1,1.6-0.2,2.1-1c0.5-1,1.3-1.6,2.4-2.1c1-0.5,2.1-0.1,2.7,0.9c0.4,0.7,0.2,1.2-0.8,2
		c0,0-0.1,0.1-0.1,0.1c-0.1,0.2-0.3,0.4-0.4,0.6c0.3,0.1,0.5,0.3,0.8,0.3c1-0.2,2.1-0.4,3.1-0.7c2-0.6,4-1.6,6.1-1.9
		c3-0.5,4-0.2,5.1,2.6C62.7,26.3,62.9,27.3,63.1,28.4z"/>
	<path d="M67.8,6.8c2.5,0.1,5.2-0.3,7.9-0.9c1.7-0.4,3.3-0.8,5-1.4c1.6-0.6,3,0,3.7,1.6c0.3,0.9,0.6,1.8,0.6,2.7
		c-0.1,1.3-0.3,2.6-0.7,3.8c-0.3,1.2-0.7,1.5-1.9,1.4c-1,0-2-0.2-3-0.4c-0.8-0.1-1.6-0.2-2.5-0.3c-0.8-0.1-1.5-0.3-2.3-0.3
		c-1.4,0.1-2.7,0.3-4.1,0.4c-0.6,0.1-1.2,0.1-1.8,0.2c-1.9,0.2-3.8,0.5-5.6,0.7c-0.2,0-0.5,0.1-0.7,0.2c-0.1,0.1-0.2,0.2-0.3,0.3
		c0.1,0,0.2,0,0.4,0.1c0.5,0,1.1,0,1.6,0c0.4,0,0.7,0,1.1,0c0.4,0.1,0.9,0.1,1.3,0.3c0.2,0.2-0.5,0.8-1.4,0.8
		c-2.6,0.1-5.2,0.2-7.9,0.4c-1.7,0.1-3.3,0.2-5,0.4c-0.1,0-0.2,0.1-0.3,0.2c0.1,0.1,0.1,0.3,0.2,0.3c1.1,0.1,1.6,1,2.3,1.5
		c0.1,0.1,0.3,0.4,0.3,0.5c-0.1,0.2-0.4,0.4-0.6,0.4c-0.9-0.1-1.7-0.3-2.6-0.6c-0.5-0.1-1-0.4-1.4-0.7c-1.1-0.6-2.1-1.2-3.3-0.5
		c-3.8,0.1-7.6,0-11.3-1.4c-1.7-0.7-3.5-1.1-5.2-1.8c-2.5-1-5-2-6.8-4.1c-0.3-0.4-1-1-0.5-1.3c0.6-0.5,0.5-1.6,1.7-1.8
		c2.2-0.3,4.3-0.9,6.4-1.3c3.4-0.8,6.7-1.5,10.2-1.5c3.4,0,6.8-0.4,10.2-0.7c0.4,0,0.9-0.3,1.3-0.6c2-1.5,4.1-2.6,6.5-3.2
		c1.8-0.5,2.3-0.2,2.9,1.6c0.2,0.5,0.3,1,0.3,1.5c0,1.4,0.4,1.9-1.5,2.5c-0.1,0-0.3,0.1-0.4,0.2c0.2,0,0.3,0.1,0.5,0.1
		c1.5,0.5,3,0.7,4.6,0.7C66.3,6.8,66.9,6.8,67.8,6.8z"/>
	<path d="M44.4,12c-0.3,0.4-0.5,0.8-0.9,0.9c-0.6,0.2-1.3,0.3-1.9,0.4c-0.4,0.1-0.8,0-1.2,0c-0.6,0-1.3,0.3-1.7,0
		c-0.8-0.5-1.4-1.3-2-2c-0.1-0.1,0.1-0.5,0.3-0.7c0.1-0.1,0.3-0.2,0.5-0.2c1.6,0,3.3-0.4,4.9,0c0.5,0.1,0.9,0.3,1.3,0.5
		C44,11.2,44.1,11.6,44.4,12z"/>
	<path d="M30.8,11.8c0.2-0.5,0.4-1,0.6-1.4c0.1-0.3,0.3-0.5,0.4-0.7c0,0.3,0.1,0.7-0.1,1C31.6,11.1,31.2,11.5,30.8,11.8
		C30.9,11.9,30.8,11.8,30.8,11.8z"/>
</g>
</svg>
