<?xml version="1.0" encoding="iso-8859-1"?>
<!-- Generator: Adobe Illustrator 25.3.0, SVG Export Plug-In . SVG Version: 6.00 Build 0)  -->
<svg version="1.1" id="Calque_1" xmlns="http://www.w3.org/2000/svg" xmlns:xlink="http://www.w3.org/1999/xlink" x="0px" y="0px"
	 viewBox="0 0 78.3 31.9" style="enable-background:new 0 0 78.3 31.9;" xml:space="preserve">
<g>
	<path d="M24.9,3.6c0.2,0,0.4,0,0.5,0c1.9,0.2,3.5-0.1,4.6-2c0.2-0.4,0.6-0.5,1-0.5c0.5,0,1-0.4,1.5-0.7c0.2-0.1,0.2-0.1,1.2,0.1
		c0.1,0,0.3,0.1,0.3,0c1.3-1,2.9-0.2,4.3-0.5c0.9-0.2,1.9,0,2.8,0c0.3,0,2.2,0.3,2.6,0.4c0.1,0,0.1,0.1,0.1,0.1c1-0.9,1.9,0.1,2.9,0
		c0.9,0,1.9,0,2.8,0.1c0.9,0.1,1.8,0.2,2.6,0.5c1.1,0.4,2.3,0.3,3.3,0.8C56,2.2,56.8,2,57.1,1.6c1.6-1.3,3.3-1.5,5.1-0.7
		c0.1,0,0.1,0,0.2,0c0.6,0.3,1.5,0.4,1.7,0.8c0.4,0.9,0.3,1.9-0.4,2.7c-0.6,0.8-1.1,1.5-1.6,2.3C62,7,62,7.2,61.9,7.3
		c0.2,0,0.5,0.2,0.7,0.1c1.1-0.3,2.3-0.6,3.4-1c1.1-0.4,2.3-0.5,3.4-0.7c1.7-0.2,3.3,0.1,4.8,1.1c1.5,1,2.7,2.1,3.6,3.6
		c0.6,0.9,0.7,1.8,0.5,2.7c-0.9,4.4-5.9,7.3-9.7,6.3c-2.3-0.6-4.7-0.7-6.9-1.6c-0.2-0.1-0.5,0-0.7,0c-0.1,0-0.2,0.4-0.1,0.4
		c1.3,0.7,1.6,2.1,2.6,3.1c0.2,0.2,0.4,0.5,0.5,0.7c1,1.7,0.6,3.2-1.4,3.9c-1.7,0.7-3.4,0.6-4.9-0.5c-0.8-0.6-1.5-0.5-2.2,0
		c-1.3,0.9-2.9,0.9-4.4,1.1c-0.4,0.1-0.8-0.1-1.3,0.2c-0.2,0.2-0.7,0-1,0c-0.8-0.1-1.7-0.6-2.5,0C46.1,27,46,27,45.9,27
		c-0.7-0.3-1.4-0.7-2.2-0.2c-1.5-0.6-3.2-0.8-4-2.3c-0.6-1.1-1.4-1.1-2.4-1.1c-1.3,0-2.6-0.3-3.9-0.4c-0.2,0-0.5-0.2-0.7-0.2
		c-0.5,0.1-0.9,0.2-1.4,0.3c0.3,0.3,0.6,0.6,0.9,0.9c0.2,0.3,0.6,0.5,0.6,0.8c0,1.9,0.3,3.9-0.3,5.8c-0.1,0.2-0.2,0.4-0.3,0.6
		c-0.6,0.9-1.6,0.9-2.3,0.1c-0.6-0.7-1-1.6-2.1-1.8c-0.2,0-0.5-0.5-0.6-0.8c-0.7-1.6-1.4-3.1-2-4.7c-0.2-0.7-0.5-1-1.2-1.1
		c-1.9-0.2-3.7-0.9-5.6-1.1c-1.2-0.1-2.3-0.6-3.4-1c-1.7-0.6-3.3-1.3-5.1-1.7c-1.3-0.3-2.5-0.8-3.7-1.3c-1.4-0.5-2.8-1.1-4-2.1
		c-0.6-0.5-1.2-1.1-1.7-1.7c-1-1.3-0.9-2.6,0.1-3.9c1-1.3,2.3-2.1,3.8-2.6C6.2,6.9,7.9,6.5,9.7,6c2.1-0.6,4.2-1.3,6.4-1.4
		c2.1-0.1,4.1-0.7,6.1-0.9C23.1,3.5,24,3.6,24.9,3.6C24.9,3.6,24.9,3.6,24.9,3.6z"/>
	<path d="M24.5,18.3c-0.2-1.1-0.6-2.5-1.5-3.7c-0.3-0.4-0.2-0.6,0.4-0.6c1,0,2,0,3-0.2c2.6-0.5,5.1-0.2,7.7-0.2
		c0.9,0,1.8,0.5,2.7,0.9c1.2,0.6,1.4,2.1,0.3,2.9c-1.7,1.3-3.6,2.3-5.7,2.8c-0.5,0.1-1.2,0-1.7-0.2c-0.8-0.2-1.6-0.5-2.4-0.8
		c-0.6-0.2-1.2-0.3-1.9-0.1C24.6,19.6,24.5,19.6,24.5,18.3z"/>
	<path d="M27,7.5c0.2,0,0.4,0,0.5,0c0.4,0.1,1.1-0.4,1.3,0.4c-0.5,0.1-1,0.2-1.5,0.3c-0.3,0-0.7-0.2-1-0.2c-0.4,0-0.9,0.5-1.2-0.2
		c0.4-0.1,0.7-0.2,1.1-0.2C26.5,7.5,26.7,7.5,27,7.5C27,7.5,27,7.5,27,7.5z"/>
	<path d="M31,8c-0.4,0.1-0.8,0.1-1.2,0.2c-0.1,0-0.3-0.1-0.4-0.2c0.1-0.1,0.2-0.3,0.3-0.4c0.9,0,1.9,0,2.8,0c0.1,0,0.2,0.2,0.2,0.2
		c0,0.1-0.1,0.3-0.2,0.3c-0.5,0-1,0-1.5,0C31,8,31,8,31,8z"/>
	<path d="M46.6,12.5c-0.2,0-0.5,0-0.8-0.1c-0.1,0-0.2-0.3-0.2-0.4c0-0.1,0.1-0.2,0.2-0.2c0.5,0,0.9-0.1,1.4,0c0.2,0,0.5,0.2,0.7,0.3
		c-0.2,0.1-0.4,0.3-0.7,0.4C47.1,12.6,46.9,12.5,46.6,12.5z"/>
	<path d="M37.1,7.8c0.6,0.3,1.5-0.2,1.4,0.6c-0.1,0.6-0.8,0-1.2,0.1c-0.4,0-0.9,0.4-1.1-0.3C36.2,8.1,36.9,7.9,37.1,7.8z"/>
	<path d="M43.9,12c-0.3,0.2-0.5,0.5-0.6,0.4c-0.3-0.1-0.6-0.3-0.8-0.5c0.2-0.2,0.3-0.5,0.5-0.4C43.1,11.6,43.4,11.8,43.9,12z"/>
	<path d="M49.1,12.6c-0.3-0.2-0.5-0.3-0.7-0.5c0.2-0.1,0.4-0.4,0.7-0.4c0.2,0,0.4,0.3,0.6,0.4C49.5,12.3,49.4,12.5,49.1,12.6z"/>
	<path d="M51.8,12.4c-0.6,0.1-0.9,0.2-1.1,0.2c-0.2,0-0.3-0.2-0.5-0.4c0.2-0.1,0.4-0.3,0.5-0.3C51,11.9,51.3,12.1,51.8,12.4z"/>
	<path d="M56,13c-0.3-0.2-0.4-0.3-0.6-0.4c0.2-0.2,0.4-0.4,0.7-0.4c0.1,0,0.4,0.2,0.5,0.3C56.4,12.7,56.2,12.8,56,13z"/>
	<path d="M24.7,7.7c-0.3,0.2-0.4,0.4-0.5,0.4c-0.3,0-0.5-0.2-0.8-0.3c0.1-0.1,0.1-0.3,0.2-0.3C23.9,7.6,24.2,7.6,24.7,7.7z"/>
	<path d="M44.8,11.4c0.1,0.3,0.3,0.5,0.3,0.6c0,0.2-0.3,0.3-0.4,0.4c-0.1-0.2-0.3-0.4-0.4-0.6C44.4,11.7,44.6,11.6,44.8,11.4z"/>
	<path d="M44.4,9.3C44.2,9.2,44,9,43.9,8.9c0.1-0.1,0.3-0.3,0.4-0.3c0.2,0,0.4,0.2,0.6,0.3C44.8,9,44.6,9.1,44.4,9.3z"/>
	<path d="M48.1,9c-0.3,0.3-0.4,0.5-0.6,0.5c-0.2,0-0.3-0.2-0.5-0.2c0.1-0.2,0.2-0.4,0.4-0.5C47.5,8.7,47.7,8.9,48.1,9z"/>
	<path d="M53,12.6c-0.2,0.1-0.4,0.2-0.5,0.2c-0.2,0-0.2-0.3-0.4-0.4c0.2-0.1,0.4-0.2,0.6-0.2c0.2,0,0.3,0.1,0.5,0.1
		C53.1,12.4,53,12.5,53,12.6z"/>
	<path d="M54.8,12.6c-0.2,0.1-0.4,0.2-0.6,0.2c-0.2,0-0.2-0.3-0.4-0.4c0.2-0.1,0.4-0.2,0.6-0.2c0.2,0,0.3,0.1,0.5,0.1
		C54.9,12.4,54.8,12.5,54.8,12.6z"/>
	<path d="M59.9,12.9c-0.6,0.2-0.8,0.4-1,0.3c-0.2,0-0.3-0.3-0.4-0.4c0.2-0.1,0.4-0.2,0.6-0.2C59.3,12.6,59.5,12.7,59.9,12.9z"/>
	<path d="M41.4,8c0.1,0.2,0.2,0.4,0.2,0.6c0,0.1-0.3,0.3-0.5,0.3c-0.2,0-0.5-0.2-0.5-0.3c0-0.2,0.1-0.4,0.2-0.6
		C41.1,8.1,41.3,8,41.4,8z"/>
	<path d="M40.2,8.7c-0.3,0.1-0.5,0.3-0.7,0.2c-0.2,0-0.3-0.3-0.4-0.4c0.2-0.1,0.4-0.2,0.6-0.2C39.8,8.2,39.9,8.4,40.2,8.7z"/>
	<path d="M35.1,7.4c0.3,0.2,0.4,0.4,0.6,0.5c-0.2,0.1-0.3,0.3-0.5,0.4c-0.1,0-0.3-0.1-0.5-0.2C34.8,7.9,34.9,7.7,35.1,7.4z"/>
	<path d="M22.5,7.3c0.1,0.2,0.3,0.4,0.2,0.5c-0.1,0.2-0.3,0.4-0.4,0.4c-0.1,0-0.3-0.2-0.4-0.4C22,7.7,22.1,7.6,22.5,7.3z"/>
	<path d="M46,8.5c0.2,0.2,0.3,0.3,0.4,0.4C46.2,9,46,9.2,45.8,9.3c0,0-0.3-0.3-0.2-0.3C45.7,8.8,45.9,8.7,46,8.5z"/>
</g>
</svg>
