<?xml version="1.0" encoding="UTF-8" standalone="no"?>
<svg
   xmlns:dc="http://purl.org/dc/elements/1.1/"
   xmlns:cc="http://creativecommons.org/ns#"
   xmlns:rdf="http://www.w3.org/1999/02/22-rdf-syntax-ns#"
   xmlns:svg="http://www.w3.org/2000/svg"
   xmlns="http://www.w3.org/2000/svg"
   xmlns:sodipodi="http://sodipodi.sourceforge.net/DTD/sodipodi-0.dtd"
   xmlns:inkscape="http://www.inkscape.org/namespaces/inkscape"
   version="1.1"
   id="Calque_1"
   x="0px"
   y="0px"
   viewBox="0 0 41.6 35.1"
   style="enable-background:new 0 0 41.6 35.1;"
   xml:space="preserve"
   sodipodi:docname="Anacanthobatidae.svg"
   inkscape:version="1.0.2-2 (e86c870879, 2021-01-15)"><metadata
   id="metadata49"><rdf:RDF><cc:Work
       rdf:about=""><dc:format>image/svg+xml</dc:format><dc:type
         rdf:resource="http://purl.org/dc/dcmitype/StillImage" /></cc:Work></rdf:RDF></metadata><defs
   id="defs47" /><sodipodi:namedview
   pagecolor="#ffffff"
   bordercolor="#666666"
   borderopacity="1"
   objecttolerance="10"
   gridtolerance="10"
   guidetolerance="10"
   inkscape:pageopacity="0"
   inkscape:pageshadow="2"
   inkscape:window-width="1920"
   inkscape:window-height="991"
   id="namedview45"
   showgrid="false"
   inkscape:zoom="11.680912"
   inkscape:cx="30.954633"
   inkscape:cy="11.639467"
   inkscape:window-x="-9"
   inkscape:window-y="-9"
   inkscape:window-maximized="1"
   inkscape:current-layer="Calque_1" />
<g
   id="g42">
	<path
   d="M24.5,30.1c-0.2-0.1-0.6-0.2-0.7-0.1c-0.5,0.6-1,1.2-1.4,1.9c-0.5,1-1.2,1.6-2.2,1.9c-3.3,1.1-6.5,1.8-10,0.7   c-1.7-0.5-3.3-0.8-5-1.4c-1.4-0.6-2.6-1.5-3.7-2.4c-1.4-1.1-1.4-2.9-1.5-4.4c-0.3-2.7,0.2-5.3,0.5-8c0.1-0.5,0.1-1.1,0.1-1.6   c0.2-2.8,0.5-5.6,0.5-8.3c0-2.3,0.5-4.8-1-6.9C0.2,1.4,0.3,1.2,0.3,1c0,0,0.2,0,0.3,0c0.5,0.2,1,0.5,1.5,0.7   c1.5,0.6,3.1,0.2,4.5-0.2c3.5-0.8,7-1.4,10.6-1.3C19.8,0.3,22.4,0,25,0c1.5,0,3,0.3,4.4,0.6c1.6,0.4,2.7,1.4,3.2,3   c0.9,2.5,1.4,5.1,1.4,7.8c0,1.5,0.2,3.1,0.3,4.6c0.1,1.5-0.3,2.9-1.4,4.1c-0.2,0-0.3-0.1-0.5-0.3c-0.2-0.2-0.4-0.5-0.3-0.8   c0.8-3.1,0.2-6.2,0.1-9.3c-0.1-1.9-0.6-3.6-1.2-5.4c-0.4-1.3-1.4-2-2.7-2.3c-2.9-0.7-5.8-0.5-8.7-0.2c-0.5,0-1.1,0.2-1.6,0.2   C13.9,1.7,9.9,2.4,5.8,3.2c-0.1,0-0.4,0.1-0.5,0c0.1,0.2,0.3,0.2,0.5,0.2c1.5,0.5,3.1,0.9,4.6,1.5c1.4,0.5,2.4,1.3,2.5,2.9   c0,0.7,0.3,1.6-0.6,2.1c-0.8,0.4-1.8,0.5-2.6-0.1c-0.9-0.7-2-1.1-2.3-2.4C7.2,6.2,6.3,6.1,5.4,6.8C5.2,6.9,5,6.9,4.8,6.9   c-2-1-1.9-1-2,1.3C2.5,13.5,2.4,18.7,1.7,24c-0.6,4.4,1,6.6,5.3,8c3.6,1.1,7.2,2.1,11.1,0.9c2.5-0.8,3-1.5,2.6-4   c-0.2-1.3-0.9-2.5-0.6-3.8c0.2-0.6,0.1-1.3,0.9-1.3c0.7-0.1,1.1,0.5,1.2,1.1c0.3,1.4,1,2.5,2.2,3.4c0.5,0.4,0.8,0.9,0.6,1.6   C24.8,29.9,24.7,30,24.5,30.1z"
   id="path2" />
	<path
   d="M33,20.1c-0.3,0.4-0.6,0.8-0.7,1.2c-0.3,0.8-0.6,1.3-1.6,0.8c-0.5-0.2-0.6,0.3-0.4,0.6c0.2,0.5,0.6,0.9,0.9,1.3   c0.6,1.1,1.4,2.2,1.6,3.3c0.3,1.1,0.9,1.6,1.8,2c0.7,0.3,1.4,0.7,1.9,1.2c0.5,0.4,0.8,0.3,1.3,0.2c2.1-0.7,3.2-3,2.9-5.4   c-0.2-1.9-0.7-3.8-1-5.7c-0.1-0.7-0.4-1.9,0.5-2c1.1-0.1,0.6,1.1,0.7,1.8c0.2,1.5,0.4,3.1,0.5,4.6c0.1,1.3,0.3,2.6,0.1,3.9   c-0.3,2.5-2.7,4.5-5.4,4.6c-0.4,0-0.7,0-1.1,0c-0.7,0-1.1,0-0.9,1c0.3,1.1-0.3,1.6-1.4,1c-0.7-0.3-1.2-0.9-1.8-1.5   c-0.8-0.8-1.5-1.3-2.8-1.2c-1.5,0.1-2.7-0.8-3.8-1.8c0.1-0.1,0.2-0.2,0.2-0.3c1-0.9,1.8-0.1,2.5,0.5c0.4,0.4,0.4,0.4,0.5-0.2   c0.5-1.5,1.4-1.8,2.8-0.8c0.6,0.4,1.2,0.9,1.9,1.3c0.5,0.3,1,0.6,1.6,0.8c-0.6-0.2-1.1-0.5-1.6-0.8c-0.7-0.4-1.4-1-2.1-1.5   c-0.9-0.7-1.2-1.6-0.5-2.6c0.4-0.6,0.5-1,0.1-1.6c-1.3-1.7-2.3-3.7-4.8-3.9c-0.6-0.1-1.2-0.4-1.1-1.2c0-0.8,0.6-0.9,1.2-1.1   c0.2-0.1-0.1-0.1,0.2,0c2.4,0.4,4.9,0.5,7.3,1C32.8,20,32.9,20,33,20.1z"
   id="path4" />
	<path
   d="M5.2,6.4c0.9,1.3,1.9,2.4,3.3,3.2c0.3,0.1,0.5,0.5,0.6,0.9c0.1,0.4,0.2,0.9-0.6,0.6c-0.1,0-0.3,0.1-0.3,0.1   c0.2,1.1-0.6,2.1,0,3.3c0.5,1.1,1,2.3,2.1,3c0.2,0.2,0.5,0.4,0.7,0.6c0.1,0.1,0.1,0.2,0.1,0.3c-0.2,0-0.4,0.1-0.5,0   c-0.8-0.7-1.5-1.3-2.2-2C8,16,7.8,15.5,7.7,15c-0.2-1.4-1.1-2.5-1.9-3.5C5.2,10.7,5,10,5.3,9.2C5.6,8.2,5.4,7.4,5.2,6.4L5.2,6.4z"
   id="path6" />
	<path
   d="M19.4,15.6c-0.2-0.3-0.6-0.7-0.8-1.2c-0.2-0.5-0.3-1.2,0.5-1.5c0.4-0.2,1.2,0.1,0.7-0.8c0.2,0,0.5-0.1,0.6,0   c0.7,0.8,1.5,1.6,2.1,2.4c0.5,0.7,0.9,1,1.7,0.4c0.8-0.5,1.5-0.3,1.8,0.4c0.3,0.7,0,1.3-0.8,1.7c-0.2,0.1-0.5,0.1-0.6,0.3   c-0.5,0.5-0.5,0.5-0.9,0c-0.7-1-1.5-2-2.2-3c-0.1-0.1-0.3-0.2-0.4-0.3c0,0.2-0.1,0.3-0.1,0.5C20.8,15.2,20.3,15.6,19.4,15.6z"
   id="path8" />
	<path
   d="M29.5,7.1c0,0.2,0.1,0.5,0,0.7c-0.1,0.1-0.5,0.3-0.5,0.3c-0.6-0.9-1.4-0.3-2.2-0.3c-1.1,0-1.2-0.2-1-1.2   C26,5.8,26.5,5,25.6,4.4c0,0,0.2-0.4,0.2-0.4c0.6,0.1,1.2,0.1,1.7,0.4c0.7,0.4,1.3,1.1,1.8,1.7c0.2,0.2,0.2,0.7,0.3,1   C29.7,7.1,29.6,7.1,29.5,7.1z"
   id="path10" />
	<path
   d="M4.3,26.4c0.4,0.2,0.7,0.3,0.9,0.4c1,0.7,1.9,1.4,2.9,2c0.7,0.5,0.5,1,0.2,1.5c-0.4,0.6-0.8,0.2-1.2,0   c-1.5-0.6-1.9-2.3-3-3.3C4,27.1,4.2,26.7,4.3,26.4z"
   id="path12" />
	<path
   d="M12.7,26c0.1,0.7-0.5,1.4-1.2,1.5C10.8,27.6,10,27,10,26.3c0-0.6,0.6-1.2,1.2-1.2C11.9,25,12.6,25.5,12.7,26z"
   id="path14" />
	<path
   d="M15.8,5.8c-0.8,0-1.3-0.5-1.2-1.2c0-0.8,0.6-1.3,1.2-1.3C16.4,3.3,17,4,17,4.8C17,5.4,16.5,5.8,15.8,5.8z"
   id="path16" />
	<path
   d="M8.1,21.3c0,0.7-0.5,1.2-1.3,1.2c-0.7,0-1.3-0.6-1.2-1.2c0-0.6,0.7-1.2,1.3-1.2C7.6,20.1,8.1,20.7,8.1,21.3z"
   id="path18" />
	<path
   d="M18.3,30c-0.8,0-1.2-0.3-1.1-1c0-0.9,0.5-1.5,1.4-1.5c0.6,0,1,0.4,1.1,1.1C19.6,29.5,19.1,30,18.3,30z"
   id="path20" />
	<path
   d="M22,5.9c0,0.7-0.8,1.3-1.5,1.2c-0.6-0.1-1.1-0.4-1.2-1.1c-0.1-0.7,0.6-1.2,1.5-1.1C21.6,5,22,5.4,22,5.9z"
   id="path22" />
	<path
   d="M22.5,9c0.7,0,1.3,0.8,1.2,1.5c-0.1,0.4-0.5,0.8-0.9,0.9c-0.7,0.1-1.4-0.6-1.4-1.3C21.4,9.4,21.8,8.9,22.5,9z"
   id="path24" />
	<path
   d="M10.4,13.7c0-0.7,0.4-1.2,1-1.2c0.8,0,1.3,0.4,1.3,1.1c0,0.6-0.2,1-0.9,1.1C11,14.8,10.4,14.4,10.4,13.7z"
   id="path26" />
	<path
   d="M31.1,12.2c-0.5,0.5-0.8,1.1-1.2,1.3c-0.5,0.3-1.2,0.2-1.5-0.5c-0.1-0.3-0.1-0.8,0-1.1c0.1-0.2,0.6-0.2,0.9-0.3   c0.3,0,0.7,0.1,1,0.1C30.6,11.8,30.7,12,31.1,12.2z"
   id="path28" />
	<path
   d="M18.6,19.3c-0.6-0.1-1-0.4-0.9-1c0-0.8,0.5-1.3,1.2-1.2c0.6,0.1,1,0.4,1,1C19.9,18.9,19.4,19.4,18.6,19.3z"
   id="path30" />
	<path
   d="M3.2,25.9c-0.2-0.3-0.7-0.7-0.8-1.2c-0.1-0.6,0.5-1.2,1.1-1.2c0.7,0,1.1,0.6,1.1,1.3C4.4,25.5,4.1,25.9,3.2,25.9z"
   id="path32" />
	<path
   d="M6.5,16.3C6.3,16.5,6,17,5.6,17.1c-0.6,0.2-1.1-0.4-1.1-1c-0.1-0.6,0.2-1,0.9-1.1C5.9,15,6.4,15.4,6.5,16.3z"
   id="path34" />
	<path
   d="M19.7,24.4c-0.2,0.1-0.4,0.2-0.5,0.2c-2-0.5-3.9-1.4-5.4-3c-0.1-0.1,0-0.3,0-0.4c0.1,0,0.3,0,0.3,0.1   c1.5,1.3,3.2,2.2,5.1,2.7C19.4,24.1,19.5,24.2,19.7,24.4z"
   id="path36" />
	<path
   d="M13.3,20.4c-0.2,0.2-0.6,0.6-1,0.8c-0.5,0.1-1.1-0.7-1-1.2c0.1-0.4,0.5-0.8,0.9-0.9C12.7,18.9,13.3,19.6,13.3,20.4z"
   id="path38" />
	<path
   d="M19,11.1c-0.2,0-0.4,0.1-0.5,0c-0.5-0.5-0.9-1-1.3-1.4c-0.3-0.3-0.7-0.6-1-0.9c0.5,0.2,1,0.2,1.4,0.5   c0.5,0.3,0.9,0.8,1.2,1.2C18.9,10.7,18.9,10.9,19,11.1z"
   id="path40" />
</g>
<path
   style="fill:#000000;stroke:#000000;stroke-width:0.244;stroke-miterlimit:4;stroke-dasharray:none"
   d="M 13.330548,33.386321 C 11.73379,33.255593 10.115487,32.906149 7.5518901,32.138521 5.5759954,31.546871 4.2195438,30.859767 3.3000985,29.984795 2.4686232,29.193539 2.0310539,28.415058 1.7689563,27.260736 1.5584329,26.333556 1.5586477,25.286619 1.7697073,23.600851 2.1224608,20.783348 2.312324,18.355063 2.5423538,13.718963 2.8770102,6.9741809 2.8862111,6.8132402 2.9500437,6.5876666 3.0623093,6.190939 3.2884816,6.1990261 4.1794365,6.6316238 4.7618557,6.9144142 4.8312458,6.9379706 5.0465846,6.9259998 l 0.2340692,-0.013012 0.053008,0.2782317 C 5.4802271,7.960522 5.447322,8.5840572 5.2161995,9.4170731 5.0025618,10.18707 5.2295065,10.830709 6.100332,11.924561 c 0.9783379,1.2289 1.3331514,1.936002 1.6196093,3.22769 0.039076,0.176198 0.1397721,0.465131 0.2237698,0.642073 0.1312624,0.276504 0.2317555,0.399907 0.7151462,0.878175 0.3093329,0.306055 0.8756397,0.83095 1.25846,1.166433 0.6311447,0.553102 0.7109587,0.609915 0.8560977,0.609385 0.337352,-0.0012 0.416782,-0.07638 0.297659,-0.281607 -0.05585,-0.09623 -0.487858,-0.473927 -0.913932,-0.799048 C 9.7477973,17.055306 9.2866938,16.528719 8.9977917,16.043669 8.6732738,15.49882 8.1459798,14.364069 8.056786,14.018597 7.972685,13.692855 8.001563,13.116138 8.131802,12.520426 c 0.05193,-0.237527 0.099666,-0.627227 0.1072497,-0.875546 0.012773,-0.418228 0.019935,-0.449817 0.1094962,-0.482948 0.055958,-0.0207 0.1887605,-0.01465 0.3191891,0.01454 0.1228483,0.02749 0.2742547,0.03721 0.3364596,0.0216 0.2218376,-0.05568 0.2378757,-0.379067 0.04537,-0.914833 C 8.9001392,9.8673608 8.788136,9.7323405 8.4098885,9.5121013 7.8416774,9.1812526 7.2367109,8.704833 6.6918241,8.1591004 6.1995894,7.6661016 5.5186584,6.8589759 5.5186584,6.7685155 c 0,-0.065995 0.5799355,-0.3396396 0.7849589,-0.3703846 0.3648456,-0.054712 0.7183052,0.125015 0.883788,0.4493883 0.044667,0.087554 0.1320457,0.3403557 0.1941749,0.5617801 0.2352808,0.8385262 0.5213565,1.1754485 1.6796667,1.9782086 0.8165116,0.5658787 0.9837811,0.6643881 1.2881701,0.7586301 0.671119,0.207788 1.718031,0.01792 2.217214,-0.4021169 0.06918,-0.058213 0.179402,-0.2043509 0.244931,-0.3247503 0.15236,-0.2799362 0.18119,-0.6325799 0.117431,-1.4364041 C 12.846065,6.9373863 12.641132,6.4302461 12.071443,5.8607238 11.551704,5.3411356 11.0007,5.0612071 9.456707,4.5323501 8.3116261,4.1401307 5.9537182,3.417031 5.6949459,3.3787307 5.4278699,3.3392014 5.2970881,3.2531706 5.5040727,3.2531706 c 0.072023,0 0.5815081,-0.085407 1.132189,-0.1897926 4.6839663,-0.8878827 6.8916303,-1.1266647 10.0107203,-1.0827644 1.362572,0.019178 1.756353,0.011868 2.033232,-0.037744 0.356166,-0.063819 1.977331,-0.2294716 3.168505,-0.3237624 1.019579,-0.080708 3.353126,-0.068479 4.173475,0.021871 1.246808,0.1373179 2.455715,0.387093 3.040333,0.6281701 0.786605,0.3243697 1.356871,0.8380241 1.710269,1.5404863 0.226361,0.4499465 0.841277,2.4671493 1.06627,3.4978505 0.188829,0.8650335 0.295706,1.6786523 0.347401,2.6446492 0.0252,0.4708537 0.09673,1.5399057 0.158964,2.3756707 0.08773,1.178146 0.113738,1.836957 0.115762,2.932134 0.0031,1.65447 -0.06006,2.333048 -0.322507,3.467195 -0.05638,0.243623 -0.08008,0.452121 -0.06449,0.567165 0.02778,0.204957 0.02875,0.204495 -0.299603,0.142305 -0.479965,-0.09091 -1.802838,-0.266782 -3.226909,-0.429021 -1.995507,-0.22734 -3.151526,-0.382932 -3.349482,-0.450816 -0.08828,-0.03027 -0.160518,-0.04259 -0.160518,-0.02738 0,0.01522 -0.165761,0.08395 -0.368359,0.152735 -0.687359,0.233376 -0.877316,0.471227 -0.885818,1.109163 -0.0038,0.281748 0.01333,0.38274 0.08931,0.527849 0.179937,0.343658 0.534911,0.524546 1.236527,0.630109 1.229823,0.185037 2.126699,0.728606 3.069913,1.860581 0.400279,0.480385 1.568275,2.096833 1.658467,2.295235 0.166921,0.367189 0.08914,0.742156 -0.267909,1.291477 -0.54901,0.84466 -0.493046,1.599152 0.170569,2.299572 0.109152,0.115204 0.169564,0.198157 0.13425,0.184339 -0.03531,-0.01382 -0.181335,-0.07381 -0.324491,-0.133329 -0.875731,-0.364061 -1.557883,-0.03563 -1.954789,0.941165 -0.05788,0.142444 -0.118721,0.334855 -0.1352,0.427578 -0.04431,0.249315 -0.06934,0.318405 -0.115338,0.318405 -0.02275,0 -0.218891,-0.155291 -0.435866,-0.345091 -0.726707,-0.635692 -1.134107,-0.839776 -1.59937,-0.801193 l -0.229646,0.01904 -0.04614,-0.174764 c -0.08244,-0.312253 -0.29265,-0.576291 -0.779812,-0.979501 -1.017224,-0.841924 -1.620729,-1.746366 -1.933667,-2.897885 -0.20514,-0.754855 -0.235369,-0.840215 -0.36898,-1.041932 -0.07666,-0.115735 -0.217633,-0.250664 -0.331791,-0.317565 -0.171821,-0.100694 -0.242133,-0.115681 -0.523219,-0.111523 -0.384198,0.0057 -0.599597,0.092 -0.721401,0.28908 -0.09951,0.161015 -0.292327,0.942456 -0.344442,1.395964 -0.04751,0.41342 0.01304,0.956515 0.174196,1.562378 0.374222,1.40692 0.465648,1.802721 0.527419,2.283287 0.265975,2.069227 -0.255358,2.78643 -2.564595,3.528143 -0.683152,0.219424 -1.437405,0.386239 -2.183048,0.482816 -0.627557,0.08128 -2.015352,0.113074 -2.653903,0.0608 z M 8.1137854,30.541656 C 8.3710354,30.3731 8.6326027,29.75392 8.581852,29.433653 8.5333421,29.127526 8.3680999,28.950553 7.7659144,28.559796 7.4598596,28.361198 6.7637487,27.881342 6.2190014,27.493451 5.4464048,26.943318 5.1262919,26.742506 4.7636357,26.580475 l -0.4649162,-0.207718 -0.068435,0.158042 c -0.1831045,0.422858 -0.1920609,0.474861 -0.093654,0.543788 0.1525443,0.106846 0.604002,0.694549 1.0263405,1.33608 0.7855463,1.193241 1.0937949,1.494334 2.0104044,1.963731 0.5861679,0.300177 0.7052309,0.321353 0.94041,0.167258 z M 18.995034,29.857235 c 0.268486,-0.147384 0.411533,-0.304819 0.549375,-0.604632 0.17245,-0.375083 0.200853,-0.643087 0.101962,-0.962066 -0.150963,-0.486942 -0.467444,-0.755213 -0.941656,-0.798213 -0.679283,-0.0616 -1.257829,0.300297 -1.435264,0.897787 -0.03438,0.115771 -0.07521,0.378693 -0.09073,0.584271 -0.02433,0.322225 -0.0162,0.400951 0.05893,0.570783 0.154686,0.349692 0.436798,0.467181 1.079664,0.449639 0.403886,-0.01102 0.472593,-0.02497 0.677718,-0.137569 z m -7.077047,-2.472401 c 0.262,-0.133756 0.494678,-0.355011 0.647407,-0.615624 0.08775,-0.149737 0.119932,-0.271454 0.135371,-0.512032 0.02551,-0.39756 -0.02245,-0.516262 -0.31756,-0.785981 -0.308096,-0.281581 -0.597709,-0.38754 -1.059255,-0.38754 -0.312032,0 -0.387903,0.01624 -0.621785,0.133115 -0.327366,0.163587 -0.572992,0.455775 -0.673842,0.801579 -0.1312651,0.45009 0.03817,0.880643 0.478753,1.216555 0.2847,0.217063 0.527678,0.291125 0.897253,0.27349 0.21593,-0.0103 0.359423,-0.04482 0.513658,-0.123562 z M 3.8229912,25.823922 C 4.6051183,25.5766 4.8560971,24.428721 4.2644232,23.804985 4.0667878,23.59664 3.8337896,23.501927 3.5161556,23.500817 3.0685676,23.49925 2.7183832,23.707175 2.5034224,24.102128 2.2558187,24.557058 2.356822,24.928863 2.907561,25.589812 l 0.2782317,0.333909 0.2140244,-0.01683 c 0.1177134,-0.0093 0.3081417,-0.04659 0.4231741,-0.08297 z M 19.510145,24.521487 c 0.120853,-0.05022 0.219732,-0.108112 0.219732,-0.128639 0,-0.02053 -0.102287,-0.116466 -0.227306,-0.213198 -0.174384,-0.134929 -0.341312,-0.210348 -0.716981,-0.323938 -1.483213,-0.448476 -2.908613,-1.185789 -4.12809,-2.135327 -0.188342,-0.146651 -0.400226,-0.325803 -0.470854,-0.398116 -0.08961,-0.09175 -0.169867,-0.131837 -0.265591,-0.132666 -0.122547,-0.0011 -0.140099,0.01439 -0.164584,0.144906 -0.01507,0.08035 -0.01518,0.184629 -2.14e-4,0.231725 0.028,0.08823 0.621168,0.647253 1.069451,1.00789 0.973624,0.783266 2.341995,1.46555 3.791258,1.89036 0.587512,0.172213 0.61218,0.173787 0.893195,0.057 z M 7.4338188,22.388658 c 0.2468844,-0.107342 0.4958898,-0.353911 0.6008803,-0.595002 0.041236,-0.09469 0.068563,-0.281701 0.069676,-0.476828 0.00227,-0.397714 -0.1012746,-0.634243 -0.3999491,-0.913619 -0.4855258,-0.454152 -1.1750696,-0.421895 -1.7117152,0.08007 -0.3562325,0.333214 -0.4912881,0.747279 -0.3863785,1.184591 0.071109,0.296415 0.4270038,0.665346 0.7470207,0.774384 0.2949201,0.100487 0.7815965,0.07634 1.0804653,-0.0536 z m 5.1040742,-1.306742 c 0.122025,-0.08212 0.347756,-0.25983 0.501625,-0.39492 l 0.279763,-0.245618 -0.02199,-0.242521 c -0.04535,-0.500109 -0.420771,-1.055078 -0.76486,-1.130653 -0.386034,-0.08479 -0.928488,0.245236 -1.176537,0.715793 -0.169374,0.321308 -0.04788,0.800639 0.291607,1.150455 0.320591,0.330347 0.559767,0.369959 0.890392,0.147464 z m 6.796091,-1.869408 c 0.36981,-0.175616 0.567113,-0.556217 0.567113,-1.093974 0,-0.482071 -0.155595,-0.728593 -0.57771,-0.915315 -0.260348,-0.115164 -0.71897,-0.15483 -0.941402,-0.08142 -0.230747,0.07615 -0.467162,0.307692 -0.578548,0.566616 -0.117177,0.272384 -0.164051,0.843175 -0.08813,1.073206 0.157857,0.47831 1.042202,0.724646 1.618681,0.450887 z m 5.161641,-1.785301 c 0.157468,-0.149937 0.33285,-0.273086 0.435045,-0.305478 0.48297,-0.153085 0.927474,-0.495593 1.096611,-0.844981 0.167894,-0.346824 0.114988,-0.846543 -0.127919,-1.208221 -0.339848,-0.506023 -0.957935,-0.604165 -1.583889,-0.251496 -0.694263,0.391155 -0.835854,0.435182 -1.089456,0.338763 -0.168526,-0.06407 -0.402026,-0.29178 -0.747594,-0.729044 -0.373712,-0.472877 -0.65138,-0.791865 -1.504531,-1.72842 l -0.617998,-0.678413 -0.280904,0.02975 c -0.154498,0.01636 -0.286063,0.03461 -0.292367,0.04056 -0.0063,0.0059 0.02698,0.09554 0.07397,0.199101 0.04699,0.103562 0.08585,0.221559 0.08637,0.262216 0.0014,0.113832 -0.16615,0.198012 -0.483793,0.242995 -0.159061,0.02253 -0.375055,0.08252 -0.479986,0.133313 -0.22758,0.11017 -0.47045,0.379792 -0.507078,0.562933 -0.109056,0.545278 0.09341,1.077172 0.707436,1.858507 l 0.223975,0.285004 0.23809,-0.02532 c 0.79343,-0.08438 1.227284,-0.465643 1.399894,-1.2302 l 0.07406,-0.328047 0.180974,0.133752 c 0.103134,0.07622 0.390853,0.419118 0.668944,0.797228 0.268384,0.364911 0.791928,1.077612 1.163431,1.58378 0.371503,0.506168 0.722883,0.963645 0.780845,1.016616 0.171563,0.156792 0.291953,0.124963 0.58587,-0.154896 z M 5.6060377,17.122166 c 0.2091669,-0.05811 0.4075427,-0.21237 0.6759832,-0.52566 0.2210363,-0.257967 0.227567,-0.272953 0.2052027,-0.47093 -0.055977,-0.495529 -0.4285551,-1.001759 -0.8135861,-1.105437 -0.3764752,-0.101375 -0.8530999,0.06934 -1.0748922,0.384988 -0.1210934,0.17234 -0.1284462,0.205798 -0.1227916,0.55876 0.00916,0.571509 0.2041662,0.939575 0.5932535,1.119716 0.1944031,0.09001 0.3193486,0.09898 0.5368305,0.03856 z m 6.4646993,-2.466143 c 0.432649,-0.128132 0.639448,-0.46182 0.638902,-1.030924 -3.43e-4,-0.378853 -0.06988,-0.565841 -0.293528,-0.789589 -0.240218,-0.240322 -0.51985,-0.336486 -0.978452,-0.336486 -0.663374,0 -1.040626,0.426576 -1.038305,1.174058 0.0015,0.495426 0.197921,0.799497 0.623739,0.96578 0.264022,0.1031 0.731599,0.110759 1.047644,0.01716 z m 17.715982,-1.072069 c 0.229111,-0.0936 0.408748,-0.249027 0.674931,-0.583983 0.134761,-0.169579 0.34183,-0.422327 0.460152,-0.561661 0.134158,-0.157983 0.194982,-0.260053 0.161597,-0.271181 -0.02944,-0.0098 -0.16582,-0.100505 -0.30306,-0.201536 -0.35908,-0.264339 -0.365156,-0.266506 -0.916898,-0.327028 -0.761374,-0.08352 -1.39045,0.03912 -1.493846,0.291224 -0.06751,0.16459 -0.06511,0.853573 0.0037,1.056385 0.102454,0.302102 0.426261,0.591277 0.752283,0.671825 0.160282,0.0396 0.467095,0.0052 0.661172,-0.07404 z M 23.00445,11.34866 c 0.220386,-0.100864 0.506403,-0.380651 0.623236,-0.609663 0.07464,-0.146305 0.08874,-0.236295 0.07576,-0.483321 C 23.683994,9.8858268 23.558215,9.6047435 23.293876,9.3404045 23.02134,9.067868 22.820914,8.991091 22.379052,8.989964 c -0.32603,-8.304e-4 -0.387267,0.011748 -0.530565,0.1089932 -0.343685,0.2332305 -0.467106,0.5230948 -0.441965,1.0379908 0.02021,0.413912 0.140779,0.666588 0.455194,0.953946 0.349938,0.319824 0.790165,0.419126 1.142734,0.257766 z m -4.008873,-0.241311 c 0.009,-0.009 -0.02465,-0.151283 -0.07475,-0.316217 C 18.715008,10.113511 17.792032,9.2402903 17.05635,9.0271627 16.890574,8.9791374 16.630367,8.9037259 16.478113,8.8595821 c -0.152254,-0.044143 -0.283194,-0.073892 -0.290978,-0.066108 -0.0078,0.00778 0.155312,0.165499 0.362435,0.3504782 0.466961,0.4170367 0.830191,0.7805383 1.48622,1.4873297 l 0.510363,0.549855 0.216544,-0.02872 c 0.119098,-0.0158 0.223895,-0.03608 0.23288,-0.04506 z M 29.539339,7.7502933 c 0.02301,-0.060533 0.02857,-0.2217725 0.01242,-0.360858 -0.01951,-0.168108 -0.01337,-0.2611996 0.01852,-0.2809126 0.06149,-0.038 -0.0928,-0.783396 -0.194838,-0.9413515 -0.03918,-0.060655 -0.253439,-0.3181396 -0.47613,-0.5721888 -0.616597,-0.7034251 -1.200529,-1.1667537 -1.711309,-1.357861 -0.190523,-0.071284 -1.162443,-0.2538575 -1.361814,-0.2558145 -0.0254,-2.483e-4 -0.0919,0.097138 -0.147766,0.2164165 l -0.101576,0.2168701 0.13709,0.1072888 c 0.0754,0.059009 0.190049,0.1973793 0.254777,0.3074898 0.167172,0.2843784 0.156246,0.6018422 -0.04372,1.2703228 -0.284721,0.9518088 -0.292404,1.3756284 -0.02849,1.5713935 0.138971,0.103084 0.664215,0.179278 0.999821,0.1450379 0.139403,-0.014222 0.464978,-0.066327 0.7235,-0.1157872 0.65966,-0.1262063 0.998069,-0.049882 1.251387,0.2822348 l 0.114465,0.1500713 0.256029,-0.1364615 c 0.163609,-0.087203 0.271046,-0.1759623 0.297634,-0.2458904 z M 21.211783,6.9992025 c 0.833598,-0.3719388 1.070541,-1.3612551 0.436094,-1.820846 -0.252766,-0.1831027 -0.662246,-0.2986006 -1.058642,-0.2986006 -0.812432,0 -1.304755,0.3794702 -1.305069,1.0059146 -3e-4,0.5989254 0.400327,1.0549544 1.052072,1.1975606 0.326495,0.07144 0.58208,0.046911 0.875545,-0.084029 z M 16.247908,5.7576778 C 16.538033,5.6715201 16.796837,5.4756183 16.91216,5.2548723 17.042435,5.0055067 17.040328,4.5310428 16.907405,4.1843197 16.793608,3.8874851 16.441904,3.4862293 16.198669,3.3757282 15.949774,3.262656 15.567337,3.2717872 15.297942,3.3972343 c -0.456889,0.2127556 -0.705639,0.6637634 -0.71785,1.3015283 -0.0054,0.2839887 0.01049,0.3694123 0.102028,0.5472943 0.242218,0.4706756 0.938051,0.6980388 1.565788,0.5116209 z"
   id="path874" /><path
   style="fill:#000000;stroke:#000000;stroke-width:0.244;stroke-miterlimit:4;stroke-dasharray:none"
   id="path876"
   d="M 31.857741,29.852065 C 31.59125,29.699266 31.340439,29.52091 31.097125,29.33391 30.884361,29.166427 30.67731,28.99137 30.451426,28.841568 c -0.145391,-0.096 -0.297817,-0.180043 -0.452755,-0.259413 -0.117442,-0.06732 -0.05982,-0.03367 -0.172906,-0.100868 0,0 -0.522776,0.339007 -0.522776,0.339007 v 0 c 0.115189,0.0666 0.0567,0.03225 0.175397,0.103145 0.152667,0.07988 0.301609,0.166402 0.449318,0.255081 0.231753,0.140934 0.441895,0.313586 0.656527,0.478705 0.24084,0.187678 0.492002,0.361889 0.741711,0.537554 0,0 0.531799,-0.342714 0.531799,-0.342714 z" /></svg>
