<?xml version="1.0" encoding="iso-8859-1"?>
<!-- Generator: Adobe Illustrator 25.3.0, SVG Export Plug-In . SVG Version: 6.00 Build 0)  -->
<svg version="1.1" id="Calque_1" xmlns="http://www.w3.org/2000/svg" xmlns:xlink="http://www.w3.org/1999/xlink" x="0px" y="0px"
	 viewBox="0 0 81.5 21.6" style="enable-background:new 0 0 81.5 21.6;" xml:space="preserve">
<g>
	<path d="M6.5,14c-0.2,0.5-0.7,0.4-1.1,0.3c-1.3-0.3-2.6,0.1-3.8,0.4c-0.6,0.1-0.2,0.3-0.1,0.6c0.4,1.5,0.4,1.4,1.6,1.9
		c1.5,0.6,3,0.4,4.4,0.3c1.6-0.2,3.2-0.4,4.7-1.1c0.9-0.4,1.6-1,2.3-1.6c0.1-0.1,0.4-0.1,0.6-0.1c0,0.2,0,0.5-0.1,0.7
		c-0.2,0.3-0.5,0.5-0.8,0.7c-0.4,0.3-0.2,0.4,0.1,0.6c-0.3,0.3-0.5,0.8-0.9,0.9c-1,0.4-2,0.6-3.1,0.8c-0.1,0-0.2,0.1-0.3,0.1
		c0.1,0,0.2,0.1,0.3,0.1c3.1,0.5,6.1,1.2,9.3,1.1c0.1,0,0.2,0,0.4-0.1c-0.1-0.1-0.2-0.2-0.3-0.3c-0.1-0.1-0.2-0.1-0.3-0.2
		c-0.5-0.2-0.9-0.5-1.4-0.7c0.6,0,1.2-0.1,1.7,0.1c0.6,0.2,1.2,0.5,1.8,0.8c0.8,0.4,1.6,0.4,2.4,0.1c1.5-0.6,2.9-1.4,3.7-2.9
		c0.6-1,1.2-2,1.7-3.1c0.6-1.3-0.1-2.5-1.6-2.6c-1.7-0.1-3.5,0-5.1,0.6c-1.2,0.4-2.4,0.7-3.6,1.1c-0.1,0-0.3-0.1-0.5-0.1
		c0.1-0.2,0.2-0.4,0.3-0.5c2.1-0.7,4.3-1.5,6.5-1.8c0.8-0.1,1.7-0.1,2.5,0c1.9,0.2,2.7,2.2,1.8,4.2c-0.8,1.9-2,3.6-3.7,4.9
		c-0.2,0.1-0.3,0.3-0.5,0.4c0.2,0,0.5,0.1,0.7,0.1c2-0.1,4.1-0.1,6.1-0.5c2-0.4,4.1-0.7,6.2-0.8c3.5-0.3,7-0.4,10.5-0.8
		c2.1-0.3,4.2-0.2,6.3-0.3c2.4-0.2,4.7-0.4,7.1-0.6c1.7-0.2,3.4-0.2,5.2-0.4c1.9-0.2,3.8-0.5,5.6-0.7c0.2,0,0.3-0.2,0.5-0.3
		c0.5-0.3,0.6-0.3,0.5,0.3c0,0.1,0.2,0.3,0.4,0.4c0.9,0.4,1.9,0.8,2.8,1.1c0.6,0.2,1.3,0.3,1.9,0.3c0.4,0,0.9-0.4,1.1-0.7
		c0.5-0.9,0.8-2,0.7-3.1c-0.3-1.9-1.2-2.5-2.8-2c-1.2,0.3-2.4,0.6-3.6,0.9c-1.1,0.3-2.2,0.1-3.2-0.4c-0.8,0-1.7,0.3-2.2-0.8
		C67.6,10.4,66,9.7,64.4,9C64.3,9,64.1,9,64,9c-0.8,0.5-1.6-0.4-2.3,0.1c-0.6-0.6-1.6-0.2-2.1-0.7C59,7.9,58,7.7,57.7,6.7
		c-0.2-0.5-0.8-1-1.6-0.6c-0.6,0.3-0.3-0.6-0.6-0.5c-0.3,0.1-0.6,0.4-0.9,0.5c-0.1,0.1-0.4,0-0.5-0.1c-0.5-0.8-1.4-0.6-2.1-0.7
		c-0.5,0-0.9,0.1-1.2-0.3c-0.4,0.4-0.8,0.3-1.2,0c-0.5,0.7-0.7-0.6-1.3-0.1c-0.3,0.3-1,0.2-1.4,0.4c-0.5,0.2-0.6,0.1-0.5-0.4
		c0,0-0.2-0.1-0.2-0.2C46.2,4.7,46.1,4.9,46,5c-0.1,0.1-0.3,0.2-0.4,0.3c-0.1-0.2-0.1-0.4-0.1-0.6c0-0.2,0-0.3,0.1-0.5
		c-0.2,0-0.3,0-0.4,0.1c-0.2,0.2-0.4,0.4-0.6,0.7C44.4,5,44.2,5,44.2,5c-0.1,0-0.2-0.2-0.1-0.3c0.5-0.7,1.1-1.4,1.7-2
		c0.1-0.1,0.5,0,0.7,0c1.8,0.4,3.6,0.8,5.4,1.2C52.2,4,52.8,4,53.3,4c1,0,2,0.3,3,0.6c2.5,0.5,4.8,1.7,7.4,1.6c0.2,0,0.4,0,0.5,0
		C65.9,6.6,67.5,7,69,7.6c1.2,0.4,2.1,1.2,2.5,2.6c0.5,1.7,1.1,1.9,3.2,1.6c0.5-0.1,0.9-0.3,1.3-0.5c1.1-0.5,2.3-0.6,3.5-0.5
		c1.1,0.1,1.8,0.5,1.9,1.5c0.2,1.4,0.3,2.8-0.3,4.2c-0.6,1.3-1.4,1.8-2.8,1.4c-1.3-0.4-2.6-0.8-3.9-1.3c-0.5-0.2-1-0.5-0.6,0.5
		c0.1,0.2,0,0.5-0.2,0.6c-0.9,0.4-1.7,0.9-2.6,1.1c-1.9,0.4-3.8,0.7-5.8,1c-1.2,0.2-2.5,0.4-3.7,0.4c-2.9,0-5.6,0.8-8.4,1.1
		c-2.9,0.3-5.8,0.7-8.7,0.5c-1.9-0.1-3.5-1-4.8-2.2c-0.9-0.8-1.5-0.7-2.4-0.2c-0.2,0.1-0.5,0.4-0.8,0.3c-2-0.4-3.9,0.4-5.8,0.5
		c-1.3,0.1-2.5,0.1-3.8,0.1c-3.7,0-7.4,0-11.2,0c-0.6,0-1.3-0.2-1.9-0.3c-1.4-0.1-2.7-0.5-4.1-0.8c-1.6-0.3-3.2-0.4-4.7-0.7
		c-1.5-0.3-2.9-0.6-4-1.7c-0.3-0.3-0.6-0.6-0.7-1c-0.3-0.7,0.1-1.2,0.9-1.5c0.3-0.1,0.7-0.2,1-0.3c0.1-0.1,0.2-0.2,0.3-0.4
		c-0.1,0-0.2-0.1-0.3-0.1c-0.3-0.1-0.6-0.1-0.9-0.2c-1.3-0.4-1.5-0.7-0.9-1.9c0.6-1.2,1.3-2.3,2-3.3c1.3-2,3.6-2.3,5.7-2.9
		c1.3-0.3,2.7-0.5,4-0.8c0.5-0.1,1-0.6,1.5-1c0.5-0.5,1-1,1.5-1.5c1.9-1.9,4.4-1.9,6.9-1.7c1.8,0.1,3.6,0.4,5.4,0.5
		c2.2,0.2,4.5,0.3,6.7,0.8c0.5,0.1,1.1,0,1.6,0c0.3,0,0.6,0.3,0.9,0.4c-0.1,1.4-1.3,1.5-2.2,1.9C34,3.8,33.8,4,33.6,4.1
		c-0.1,0.1-0.2,0.1-0.3,0.1c-0.1,0-0.1-0.2-0.1-0.3c0,0,0-0.1,0.1-0.2c0.2-0.3,0.4-0.7,0.6-1c-0.4,0.3-0.7,0.6-1.1,0.9
		c-0.1,0.1-0.3,0.3-0.4,0.3c-0.1,0.1-0.3,0-0.5,0c0-0.1,0-0.3,0.1-0.4c0.1-0.1,0.3-0.3,0.4-0.4c0.1-0.1,0.1-0.3,0.1-0.4
		c-0.2,0.1-0.3,0.1-0.5,0.2c-0.1,0.1-0.3,0.2-0.4,0.4c-0.9,1-0.8,0.9-2.1,0.2c-0.3-0.2-0.5-0.4-0.6-0.1c-0.5,0.9-1.4,0.6-2,0.5
		c-0.3,0-0.7-0.3-1.2-0.3c-0.1,0-0.2-0.4-0.2-0.6c0.1-0.1,0.3-0.2,0.4-0.3c0.1-0.1,0.3-0.2,0.4-0.3c-0.1,0.1-0.3,0.2-0.4,0.3
		c-0.1,0.1-0.3,0.2-0.4,0.3c-0.3,0.1-0.3,0.1-0.9-0.1c-0.1-0.1-0.3-0.1-0.4,0C23.6,3.5,22.8,3.3,22,3c-0.5-0.2-1.2,0.1-1.9,0.3
		c-0.5,0.1-1.1,0.2-1.5,0.5c-0.5,0.3-0.9-0.8-1.3,0.1c-0.1-0.2-0.4-0.6-0.4-0.6c-0.3,0.1-0.6,0.3-0.8,0.5c-0.4,0.3-0.7,0.4-0.9-0.2
		c-0.2-0.4-0.5-0.5-0.8-0.1c-1.1,1.6-2.9,1.9-4.6,2C8.1,5.5,6.8,6.1,5.4,6.5C5.2,6.6,5.1,6.7,5,6.7c0.1,0,0.2,0.1,0.3,0.1
		c0.1,0,0.2,0,0.4,0C6.8,7,7.2,7.3,7.3,7.9c0,0.6-0.8,1.6-1.5,1.8C5,10,4.1,9.6,3.8,9C3.6,8.7,3.6,8.4,3.6,8.1
		C3.5,7.8,3.4,7.7,3.2,8C2.8,8.4,2.4,8.9,2.1,9.4c-1.3,2.1-0.7,1.7,0.9,2.2c1.5,0.5,3,1.1,4.4,1.8C8,13.7,8,14.1,7.6,14.7
		c-0.2,0.2-0.4,0.5-0.7,0.6c-1.3,0.4-2.6,0.7-3.9,1c-0.2,0-0.4-0.2-0.6-0.2c0.2-0.2,0.3-0.4,0.5-0.4c1.2-0.3,2.4-0.6,3.6-0.9
		C6.9,14.5,6.9,14.2,6.5,14c-0.8-0.7-1.9-1-2.9-1.3c-0.7-0.2-1.4,0-2.1-0.2c0.6,0.2,1.2,0.1,1.8,0.2C4.5,12.9,5.6,13.3,6.5,14z"/>
	<path d="M17.9,4.2c2.6,0.3,5.2,0.6,7.8,0.7c1.3,0,2.5,0,3.8,0.1c2.5,0.1,5,0.3,7.4,1c0.3,0.1,0.6-0.1,0.9,0
		c2.6,0.4,5.3,0.9,7.9,1.1c1.8,0.2,3.7,0.4,5.5,0.7c2.7,0.5,5.4,0.8,8.1,1.5c2.1,0.5,4.2,0.8,6.3,1.2c0.1,0,0.2,0.1,0.3,0.2
		c0.1,0.1,0.1,0.3,0.2,0.4c0,0-0.2,0.1-0.3,0.1c-1-0.2-2.1-0.3-3.1-0.6c-3.6-0.8-7.3-1.5-11-1.9c-1.8-0.2-3.6-0.6-5.4-0.9
		c-2.6-0.4-5.2-0.9-7.7-1.2c-1.4-0.2-2.7-0.2-4.1-0.4c-1.8-0.2-3.5-0.5-5.3-0.7c-0.5-0.1-1,0-1.4,0C23.4,5.4,19.2,5.2,15,5.1
		c-0.2,0-0.5,0-0.7-0.1c-0.1-0.1-0.2-0.2-0.3-0.4c0.1-0.1,0.3-0.2,0.4-0.2c1.2,0,2.4,0,3.6,0C17.9,4.3,17.9,4.3,17.9,4.2z"/>
	<path d="M34.2,3.7c0.3-0.3,0.7-0.6,1-0.9c0.4-0.3,0.8-0.7,1.2-1c0.9-0.4,1.8-0.5,2.8-0.1c1,0.4,2.2,0.3,3.3,0.5c0.2,0,0.5,0,0.7,0
		c0.6,0.2,1.1,0.4,1.7,0.5c-0.3,0.4-0.7,0.8-1,1.2c-0.3,0.3-0.7,0.5-1,0.8c-0.6,0.8-1.1-0.4-1.6,0c0-0.1-0.1-0.3,0-0.4
		c0.1-0.2,0.3-0.3,0.5-0.5c0.1-0.1,0.1-0.2,0.2-0.3c-0.2,0-0.4,0-0.4,0.1c-0.5,0.4-0.9,0.8-1.3,1.2c-0.1,0.1-0.3,0.1-0.4,0.2
		c0-0.2,0-0.3,0-0.5c0,0,0.1-0.1,0.1-0.1C40,4,40.2,3.7,40.4,3.4c-0.3,0.2-0.6,0.4-0.8,0.6c-0.2,0.1-0.3,0.3-0.5,0.5
		c-0.2,0.1-0.5,0.2-0.7,0.4c0.1-0.2,0.2-0.5,0.2-0.7c0-0.1,0.1-0.2,0.1-0.3c-0.1,0-0.2,0-0.3,0c-0.1,0-0.2,0.1-0.3,0.2
		c-0.3,0.4-0.6,1-1.2,0.2c0-0.1-0.5,0.2-0.8,0.2c-0.1,0-0.2,0-0.3,0c0-0.2,0-0.3,0-0.5c0.1-0.2,0.3-0.3,0.5-0.5
		c0.1-0.1,0.1-0.3,0.2-0.4c-0.2,0-0.3,0-0.5,0.1c-0.4,0.3-0.8,0.8-1.2,1C34.3,4.6,34.3,4,34.2,3.7z"/>
	<path d="M17.5,10.2c-0.1,0.7-0.3,1.3-0.4,1.9c-0.4,2-0.8,4-1.2,6c0,0.1-0.2,0.3-0.2,0.4c-0.1-0.1-0.4-0.2-0.4-0.3
		c0-0.6-0.1-1.2,0-1.7c0.5-2,1-4,1.6-6c0.2-0.8-0.3-1.4-0.5-2c-0.1-0.1,0-0.3,0-0.5c0.2,0,0.6,0,0.6,0.1
		C17.2,8.9,17.3,9.6,17.5,10.2z"/>
	<path d="M5.9,17.3c-0.4,0-0.6,0-0.8-0.1C5,17.2,4.8,17,4.8,17c0-0.1,0.1-0.3,0.3-0.4c0.1-0.1,0.2,0,0.3-0.1c2-0.4,3.9-0.8,5.9-1.2
		c0.3-0.1,0.6-0.2,0.9-0.2c0.1,0,0.3,0.2,0.4,0.3c0,0.1-0.1,0.3-0.3,0.4c-0.8,0.2-1.6,0.5-2.4,0.7C8.5,16.8,7.1,17,5.9,17.3z"/>
	<path d="M69.1,11.1c0.6,0.3,1.2,0.7,2,0.5c0,0,0.1,0.2,0.2,0.2c-0.3,0.1-0.6,0.4-0.9,0.3c-0.5,0-0.9-0.2-1.4-0.3
		c-0.4-0.1-1.1,0.2-1.3-0.6C68.2,11.3,68.7,11.2,69.1,11.1z"/>
</g>
</svg>
