<?xml version="1.0" encoding="iso-8859-1"?>
<!-- Generator: Adobe Illustrator 25.3.0, SVG Export Plug-In . SVG Version: 6.00 Build 0)  -->
<svg version="1.1" id="Calque_1" xmlns="http://www.w3.org/2000/svg" xmlns:xlink="http://www.w3.org/1999/xlink" x="0px" y="0px"
	 viewBox="0 0 87.6 36.6" style="enable-background:new 0 0 87.6 36.6;" xml:space="preserve">
<g>
	<path d="M42.6,12.7c1.3,0,2.5,0.1,3.8,0c2.8-0.2,5.6-0.6,8.3-0.9c2.2-0.3,4.4-0.3,6.5,0.6c1.4,0.6,2.6,1.5,2.4,3.3
		c-0.1,0.7,0.2,1,0.9,0.9c0.2,0,0.4,0,0.5,0c2.1-0.6,4.3-0.8,6.4-1.3c1.9-0.5,3.7-1,5.6-1.6c1.9-0.6,3.8-1.1,5.8-1.1
		c0.5,0,0.9-0.2,1.4-0.3c1.1-0.1,2,0.1,2.8,0.9c0.7,0.7,0.7,1.2,0,1.8c-1.1,1-2.3,1.9-3.6,2.6c-2.4,1.2-4.7,2.6-6.8,4.1
		c-0.8,0.5-1,1.4-0.4,2.2c1,1.4,2,2.7,3.4,3.8c1.6,1.2,3.1,2.6,4.6,4c0.7,0.6,0.6,0.9-0.3,1.1c-1.5,0.5-3.1,0.3-4.6,0.2
		c-1.3-0.1-2.6-0.4-3.9-0.6c-0.9-0.2-1.8-0.4-2.5-0.8c-1.9-1-3.8-1.9-5.7-3c-1.7-1.1-3.7-2-5.7-2.5c-0.7-0.2-0.9,0-0.8,0.7
		c0.4,2,0.7,4,2.1,5.6c0.7,0.8,0.4,1.5-0.7,1.5c-3.2,0-6.2-0.6-8.6-2.9c-1.1-1-2.5-1.6-3.4-2.9c-0.3-0.4-0.9-0.5-1.5-0.6
		c-1.4-0.3-1.7,0-1.7,1.4c0,0.7,0,1.4,0,2.1c-0.1,1.2-0.9,1.5-2,1.2c-2-0.6-3.7-1.7-5-3.3c-0.6-0.7-1.2-1-2.1-1c-1.5,0-3,0-4.5,0
		c-0.7,0-0.9,0.4-0.7,0.9c0.3,0.8,0.6,1.5,0.9,2.3c0.3,0.7,0.5,1.4,0.7,2.2c0.2,0.8,0,1-0.8,1c-0.2,0-0.5,0-0.7,0
		c-2-0.5-4-1-5.9-2.1c-1.8-1.1-3.6-2-5.1-3.5c-0.4-0.4-0.8-0.4-1.3-0.4c-2.5,0.2-5,0.5-7.5,0.7c-1.6,0.1-3.2,0.3-4.8,0.4
		c-0.4,0-0.8,0-1.3,0.1c-0.3,0.1-0.7,0.2-0.4,0.8c0.9,1.5,1.7,3,2.5,4.5c0.1,0.2,0,0.5,0,0.7c-0.3-0.1-0.6-0.1-0.8-0.3
		c-0.1-0.1-0.2-0.3-0.3-0.4c-0.2-0.7-0.5-0.7-1-0.2c-0.5,0.4-0.8,0.3-0.8-0.3c0-0.9-0.5-1.1-1.2-1.1c-0.8,0-1.5,0.7-1.6,1.3
		c-0.1,0.6-0.2,1.3-0.4,1.9c0,0.2-0.3,0.3-0.4,0.5c-0.2-0.2-0.4-0.4-0.6-0.6c0-0.1,0-0.2,0-0.3c0.1-1.8,0.1-3.6,0.2-5.3
		c0-0.5-0.2-0.9-0.6-1.2c-0.4-0.2-0.8-0.5-1.1-0.9c-0.7-0.8-0.8-1.2-0.2-2.1c0.7-1,1.4-1.9,2.5-2.5c0.4-0.2,0.7-0.5,1-0.7
		c2-1.6,4-3.2,6-4.8c0.3-0.3,0.7-0.4,1.1-0.6c0.5-0.2,1-0.3,1.5-0.6c1.9-1.3,4.2-1.7,6.2-2.6c1.7-0.8,3.4-1.7,5.2-2.3
		c2.3-0.8,3.9-2.4,5.4-4.2c2-2.4,4.3-4.5,7-6c1.3-0.7,2.8-1.2,4.2-1.9C41,0,41.4-0.1,41.5,0.3c0.1,0.3,0.2,0.7,0.1,0.9
		c-0.8,1.8-1.7,3.6-2.5,5.4c-0.3,0.7-0.4,1.6-0.4,2.4c0,1.4-0.3,2.5-1.9,2.8c-0.1,0-0.1,0-0.2,0.1c-0.1,0.2-0.3,0.3-0.4,0.5
		c0.2,0.1,0.4,0.2,0.6,0.2c0.9,0,1.8,0,2.7,0C40.6,12.7,41.6,12.7,42.6,12.7C42.6,12.7,42.6,12.7,42.6,12.7z"/>
	<path d="M42.7,19.9c-2.3-0.2-5-0.5-7.7-0.7c-0.9-0.1-1.8,0-2.7,0c-2-0.1-3.9-0.2-5.9-0.4c-0.4,0-0.8-0.2-1.2-0.4
		c-0.1,0-0.2-0.1-0.3-0.2c0.1,0,0.2-0.1,0.3-0.1c0.1,0,0.2,0,0.4,0c2,0.2,4,0.4,6,0.6c0.4,0,0.7,0.1,1.1,0.1
		c2.9,0.1,5.9,0.1,8.8,0.4c3.4,0.3,6.8,0.5,10.1,1.3c0.1,0,0.2,0.1,0.4,0.1c2.1,0.1,4.3,0.3,6.4,0.4c2.4,0,4.8,0.2,7.1,0.7
		c0.5,0.1,1,0,1.4,0.1c0.5,0.1,1.1,0.2,1.6,0.3c0.1,0,0.3,0.2,0.4,0.3c-0.2,0.1-0.3,0.2-0.5,0.1c-1.4-0.1-2.7-0.3-4.1-0.4
		c-0.8-0.1-1.5-0.2-2.3-0.3c-3.6-0.3-7.1-0.4-10.7-0.8c-2.2-0.2-4.3-0.7-6.5-1C44.2,19.8,43.7,19.9,42.7,19.9z"/>
	<path d="M12.5,22.4c-1.1,0-1.9-0.6-1.8-1.5c0-1,1-2,2.1-2c0.8,0,2.2,1.2,2.2,1.9C15,21.5,13.7,22.4,12.5,22.4z"/>
	<path d="M27.2,11.6c1.9,0.4,3.8,0.8,5.7,1.1c0.1,0,0.2,0.2,0.2,0.2c0,0.1-0.1,0.3-0.3,0.4c-0.1,0.1-0.2,0.1-0.3,0
		c-1.6-0.4-3.2-0.7-4.8-1.1C27.5,12.2,27.4,11.9,27.2,11.6L27.2,11.6z"/>
	<path d="M16.7,21.4c-0.2,0.2-0.4,0.5-0.6,0.8c-0.8,1.2-1.8,2.2-3.1,2.9c-0.1,0.1-0.3,0-0.5,0c0-0.1,0.1-0.2,0.1-0.3
		c1.5-0.9,2.5-2.2,3.5-3.5c0.1-0.1,0.3-0.1,0.4-0.1C16.7,21.2,16.7,21.3,16.7,21.4z"/>
</g>
</svg>
