<?xml version="1.0" encoding="iso-8859-1"?>
<!-- Generator: Adobe Illustrator 25.3.0, SVG Export Plug-In . SVG Version: 6.00 Build 0)  -->
<svg version="1.1" id="Calque_1" xmlns="http://www.w3.org/2000/svg" xmlns:xlink="http://www.w3.org/1999/xlink" x="0px" y="0px"
	 viewBox="0 0 81.1 38.4" style="enable-background:new 0 0 81.1 38.4;" xml:space="preserve">
<g>
	<path d="M46.6,12.4c-1.1,0-2.3,0-3.4,0c-4.7,0.1-9.5,0.1-14.2,0.4c-2.3,0.1-4.7,0.4-7,1.1c-1.2,0.4-2.6,0.5-3.8,0.6
		c-1.4,0.1-2.9,0-4.3,0c-2.6,0.1-5.1-0.5-7.6-0.9c-0.9-0.1-1.9-0.3-2.8-0.5c-0.8-0.2-1.6-0.4-2.4-0.8c-0.6-0.3-1.2-0.7-1.1-1.5
		c0.1-0.7,0.4-1.4,1.1-1.7C2,8.7,3,8.2,4,7.8c2.3-1,4.5-2.1,6.9-2.9c2.5-0.8,5.1-1.1,7.6-1.6c3.1-0.5,6.3-0.6,9.4-0.8
		c4.4-0.4,8.8-0.6,13.2-0.7c2.2,0,4.4-0.2,6.6-0.4c0.7-0.1,1.4-0.3,2.1-0.5c2.1-0.6,4.3-0.9,6.5-1c3.9-0.2,7.7,0.4,11.4,1.5
		c2.3,0.7,4.6,1.8,6.3,3.6c1.2,1.2,2.3,2.4,3.4,3.7c1.7,1.9,2.5,4.2,3.1,6.5c0.7,2.9,0.7,5.8-0.2,8.8c-1,3.2-2.9,5.7-5.7,7.5
		c-1.3,0.9-2.7,1.7-4.1,2.5C68,35.7,65,36.4,62,37c-3.2,0.6-6.4,0.9-9.6,1.2c-4,0.4-7.9,0.2-11.8,0.3c-3.5,0.1-7-0.3-10.5-0.7
		c-1.8-0.2-3.7-0.2-5.5-0.4c-1.6-0.1-3.2-0.4-4.8-0.6c-2-0.3-4-0.6-6-0.8c-3.1-0.4-6.2-1.1-9.2-2.1c-0.6-0.2-1.2-0.5-1.7-0.9
		c-1.5-1.1-1.4-2.3,0.3-3.1c0.9-0.4,1.9-0.6,2.9-0.7c2.3-0.3,4.6-0.5,6.9-0.7c2-0.2,4-0.2,6.1-0.4c2.1-0.2,4.1-0.4,6.2-0.6
		c0.2,0,0.5,0,0.7-0.1c2.1-0.1,4.2-0.2,6.2-0.4c2.8-0.3,5.5-0.7,8.3-1c1.5-0.2,3-0.2,4.4-0.4c2-0.2,4-0.5,6-0.8
		c1.7-0.2,3.4-0.4,5.1-0.6c3.3-0.5,6.6-0.8,9.8-1.5c1.8-0.4,3.6-1.4,5.3-2.2c1.2-0.6,1.4-1.4,0.9-2.6c-0.7-1.7-2-2.9-3.5-3.9
		c-1.3-0.8-2.8-1.1-4.4-1.4c-2-0.4-4.1-0.5-6.1-0.2C54.3,12.5,50.5,12.2,46.6,12.4z"/>
	<path d="M22,8.7c0.2,0.9,0.7,1.8,0.2,2.7c-0.1,0.1-0.2,0.2-0.4,0.3c0-0.2-0.1-0.3-0.1-0.5C22,9.7,21.5,9.1,20,8.7
		c-0.3-0.1-0.5-0.2-0.7-0.3c0.2-0.1,0.4-0.3,0.7-0.4c0.3-0.1,0.6-0.1,0.1-0.4c-0.1,0,0-0.6,0.2-0.7c2.2-1.4,4.5-2.1,7.1-1.8
		c0.3,0,0.6,0.1,0.9,0.2c1.2,0.5,1.5,1,0.9,2.2c-1,1.7-2.2,3.2-4.4,3.5c-1.8,0.3-2,0.2-1.6-1.6c0.1-0.1,0.1-0.1,0.2-0.2
		c0.9-0.3,2,0.1,2.9-0.6c0.4-0.3,0.8-0.6,0.7-1.2c-0.2-0.7-0.8-0.7-1.3-0.6C24.4,7,23.3,7,22.6,8C22.4,8.2,22.2,8.5,22,8.7z"/>
	<path d="M22,8.7c-0.1-0.3-0.2-0.5-0.3-0.8c1.4-0.1,1.7,0.1,1.4,1.5l-0.1,0C22.7,9.2,22.3,8.9,22,8.7z"/>
	<path d="M9.7,6.2c0.6,0.3,0.3,0.9,0.3,1.4c0,0.1-0.1,0.1-0.2,0.2C9.8,7.7,9.7,7.6,9.7,7.5C9.7,7.1,9.7,6.7,9.7,6.2L9.7,6.2z"/>
</g>
</svg>
