<?xml version="1.0" encoding="iso-8859-1"?>
<!-- Generator: Adobe Illustrator 25.3.0, SVG Export Plug-In . SVG Version: 6.00 Build 0)  -->
<svg version="1.1" id="Calque_1" xmlns="http://www.w3.org/2000/svg" xmlns:xlink="http://www.w3.org/1999/xlink" x="0px" y="0px"
	 viewBox="0 0 82.1 28.7" style="enable-background:new 0 0 82.1 28.7;" xml:space="preserve">
<g>
	<path d="M31.7,28.5c-2,0.1-3.8-0.4-5.6-1.1C25,27,24,26.7,22.8,26.8c-4.6,0.1-9.2-0.4-13.6-1.6c-1.6-0.4-3.3-0.6-4.9-0.9
		c-1.5-0.2-2.7-0.9-3.8-1.8c-0.2-0.2-0.4-0.6-0.4-0.9C0.1,21.3,0.5,21,0.8,21c0.5-0.1,1.1,0,1.6,0.1c0.6,0.2,1,0.1,1.3-0.5
		c0.3-0.4,0.4-0.7-0.1-1c-0.7-0.4-1.4-0.8-2-1.2c-1.1-0.7-1-1.1-0.5-2.2c0.4-0.8,0.7-1.8,0.8-2.7c0.2-1.9,1.4-3,2.9-3.8
		c5.5-2.9,11.3-5.1,17.5-6c1.4-0.2,2.6-0.7,3.8-1.4c1.3-0.8,2.7-1.5,4.1-2.2c0.6-0.3,1-0.2,1.1,0.6c0.1,0.5,0.2,1,0.3,1.6
		c0.2,1,0.6,1.3,1.6,1.1c0.5-0.1,0.9-0.4,1.3-0.6c2.5-1,5.1-1.6,7.9-1.5c0.8,0,1.5,0.3,2.1,0.8c0.9,0.7,1.9,1.5,2.9,2
		c2.6,1.4,5.2,2.7,7.8,4.1c0.7,0.3,1.5,0.5,1.4,1.6c0,0.1,0.2,0.3,0.3,0.4c1.2,0.3,2.3,1,3.6,0.6c4.7-1.4,9.6-2.5,14.2-4.2
		c2-0.7,4.3-0.9,6.5-1.2c0.2,0,0.5,0.2,0.8,0.3c-0.1,0.2-0.2,0.5-0.4,0.7c-1.8,1.5-3.5,3.1-5.4,4.4c-1.8,1.3-3.7,2.3-5.6,3.5
		c-0.9,0.6-0.9,0.7-0.2,1.4c1.2,1.1,2.4,2.2,3.5,3.3c1.8,1.9,3.5,3.9,5.3,5.8c0.2,0.2,0.4,0.4,0.5,0.7c0.2,0.5,0.1,0.9-0.5,0.9
		c-0.6,0-1.2,0.1-1.8-0.1c-2.1-0.6-4.1-1.3-5.9-2.4c-2.5-1.6-5.1-3.1-7.7-4.5c-1.4-0.8-2.9-1.3-4.6-1.2c-0.3,0-0.8,0.3-0.8,0.4
		c-0.2,1.8-1.6,3-2.4,4.5c-0.8,1.4-1.8,2.7-2.7,4c-1,1.4-2.4,1.8-4,1.3c-2.3-0.8-4.6-1.6-6.9-2.4c-0.2-0.1-0.5-0.2-0.7-0.2
		c-1.4,0.1-2.8,0.2-4.3,0.4c-0.7,0.1-1.4,0.2-2.1,0.2c-0.6,0.1-1.6-0.3-0.8,1c0.3,0.5-0.2,1-0.8,1.1C33,28.6,32.3,28.5,31.7,28.5z"
		/>
</g>
</svg>
