<?xml version="1.0" encoding="iso-8859-1"?>
<!-- Generator: Adobe Illustrator 25.3.0, SVG Export Plug-In . SVG Version: 6.00 Build 0)  -->
<svg version="1.1" id="Calque_1" xmlns="http://www.w3.org/2000/svg" xmlns:xlink="http://www.w3.org/1999/xlink" x="0px" y="0px"
	 viewBox="0 0 80.2 26.1" style="enable-background:new 0 0 80.2 26.1;" xml:space="preserve">
<g>
	<path d="M27.3,21.3c-0.1,0.5-0.2,1.1-0.3,1.8c-0.2,0.9-0.4,1.7-0.6,2.6c-0.1,0.5-0.4,0.6-0.8,0.3c-0.4-0.4-0.8-0.8-1.1-1.3
		c-0.6-1.1-1.3-2.2-1.8-3.3c-0.4-0.8-1-1.2-2-1.2c-2.6,0.1-5.1-0.5-7.6-1c-1.8-0.3-3.6-0.5-5.5-0.8C5,18,2.8,16.9,0.9,15.5
		c-0.7-0.5-0.7-0.8,0-1.4c0.6-0.4,0.2-0.5-0.1-0.7c-1-0.8-1-1-0.2-1.7c0.8-0.6,1.7-1.2,2.5-1.7c3.6-2,7.6-3.2,11.5-4.3
		c1.7-0.5,3.5-0.8,5.2-1.2c0.8-0.2,1.5-0.5,2-1.3c0.6-0.9,1.3-1.7,2-2.5c0.5-0.6,1.1-0.9,1.9-0.6c0.4,0.1,1,0.3,1.4,0.1
		c1.8-0.7,3.5-0.1,5.2,0.3c1.6,0.4,3.2,0.8,4.7,1.6c1.2,0.6,2.4,1.3,3.1,2.5c0.4,0.8,1.1,1,1.9,1c1.1,0,2.3,0.1,3.3,0.4
		c0.9,0.3,1.5,0,2.1-0.5C48.4,5.1,49.2,4.6,50,4c1.2-1,2.4-0.9,3.6-0.2c1.4,0.8,2.7,1.8,4,2.6c0.6,0.4,1.3,0.8,2,1.2
		c0.5,0.3,1.1,0.4,0.7,1.2c0,0.1,0.2,0.5,0.3,0.5c2.3,0.1,4.6,0.9,6.9,0.5c0.4-0.1,0.7-0.3,1.1-0.5c1.1-0.5,2.2-0.9,3.3-1.4
		c1.9-0.8,3.8-1.7,5.7-2.5c0.6-0.3,1.3-0.5,2-0.6c0.4-0.1,0.7,0.2,0.5,0.7c-0.4,0.7-0.8,1.3-1.2,2c-0.6,0.9-1.1,1.8-1.7,2.7
		c-0.9,1.4-0.6,2.8,0.2,4.2c0.8,1.3,1.6,2.5,2.4,3.8c0.1,0.2,0.2,0.6,0.1,0.7c-0.1,0.2-0.5,0.3-0.8,0.3c-0.5-0.1-1.1-0.2-1.5-0.4
		c-3.1-1.4-6.2-2.7-9.3-4.2c-1.8-0.9-3.6-0.7-5.4-0.6c-0.6,0-1.3,0.2-1.9,0.3c-0.5,0.1-1.2,0.2-1,1c0,0.2-0.3,0.5-0.5,0.6
		c-2.5,1.4-4.9,3-7.1,4.8c-0.6,0.5-1.1,0.7-1.8,0.1c-0.9-0.8-2-1.5-2.9-2.3c-0.5-0.4-0.8-0.6-1.6-0.4c-3.2,0.9-6.5,1.6-9.8,1.9
		c-2.8,0.2-5.6,0.5-8.4,0.7C27.5,20.5,26.8,20.4,27.3,21.3z"/>
	<path d="M44.2,10.4c-1.4-0.1-2.8-0.2-4.3-0.4c-1.8-0.2-3.5-0.5-5.3-0.7C29.9,9,25,8.8,20.2,9.2c-0.1,0-0.2,0-0.3,0
		c-0.1,0-0.2-0.1-0.2-0.2c0-0.1,0.1-0.2,0.1-0.2c0.2-0.1,0.4-0.1,0.5-0.1c2.2-0.1,4.4,0.3,6.6-0.3c0.5-0.1,1,0.2,1.6,0.3
		c2.1,0.1,4.3,0.2,6.4,0.4c3.1,0.3,6.1,0.8,9.2,1.2C44.1,10.2,44.2,10.3,44.2,10.4C44.3,10.4,44.2,10.4,44.2,10.4z"/>
	<path d="M44.3,10.4c2.7-0.1,5.3,0.3,8,0.7c0.5,0.1,1,0,1.4,0c4.9,0.1,9.8,0.2,14.6,0.4c0.2,0,0.4,0.2,0.6,0.2
		c-0.2,0.1-0.3,0.2-0.5,0.2c-3.7,0-7.3,0.1-11,0c-3-0.1-5.9-0.4-8.9-0.7c-1.3-0.1-2.6-0.2-3.9-0.4C44.5,10.8,44.4,10.6,44.3,10.4
		L44.3,10.4z"/>
	<path d="M7.2,17.2c0.5-0.6,1.2-0.8,1.9-0.7c0.5,0,1.1,0,1.6,0c1.7-0.1,2.4-1.1,2.1-2.7c0-0.2-0.2-0.5-0.2-0.7
		c0-0.1,0.2-0.3,0.3-0.3c0,0,0.3,0.1,0.3,0.2c0,0.8,0.5,1.5,0.2,2.4c-0.5,1.4-1.5,1.9-2.8,2C9.4,17.3,8.3,17.2,7.2,17.2L7.2,17.2z"
		/>
</g>
</svg>
