<?xml version="1.0" encoding="iso-8859-1"?>
<!-- Generator: Adobe Illustrator 25.3.0, SVG Export Plug-In . SVG Version: 6.00 Build 0)  -->
<svg version="1.1" id="Calque_1" xmlns="http://www.w3.org/2000/svg" xmlns:xlink="http://www.w3.org/1999/xlink" x="0px" y="0px"
	 viewBox="0 0 84.2 42.1" style="enable-background:new 0 0 84.2 42.1;" xml:space="preserve">
<g>
	<path d="M66,10.9c0.7,0,1.3,0,2,0c0.3,0,0.8,0,1,0.2c1,0.9,2,0.6,3,0.2c2.3-0.9,4.5-1.9,6.7-2.8c1.4-0.5,2.8-0.9,4.2-1.4
		C83,7.1,83.1,7,83.2,7c0.3,0.1,0.7,0.2,0.9,0.5c0.1,0.1,0,0.5-0.1,0.8c-1,1.7-2.3,3.2-3.7,4.5c-0.6,0.6-1,1.2-1.6,1.9
		c0.6,0.4,1.2,0.9,1.9,1.3c1.7,0.9,2.4,2.6,3.5,4c0.3,0.4,0.2,0.7-0.3,0.7c-0.7,0-1.4,0.1-2,0c-2.8-0.7-5.6-1.2-8.2-2.5
		c-1-0.5-2-0.7-3.1-0.7c-1.5,0.1-3.1-0.1-4.6,0.4c-0.2,0.1-0.3,0.1-0.5,0.1c0.1,0.2,0.3,0.4,0.4,0.5c1.1,0.6,2.1,1.3,2.7,2.5
		C69,21.6,68.8,22,68,22c-2.7,0.1-5.2-0.2-7.7-1.3c-0.8-0.4-1.6-0.5-2.4-0.4c-1.1,0.1-2.1,0.2-3.2,0.4c-0.2,0-0.4,0.2-0.6,0.2
		c0.1,0.2,0.2,0.4,0.3,0.6c0.2,0.2,0.5,0.4,0.6,0.7c0.4,0.7,0.9,0.9,1.7,0.9c1.4,0,1.7,0.5,1,1.8c-0.7,1.2-1.6,2.4-2.4,3.5
		c-0.4,0.6-1,1-1.5,1.5c-0.6,0.6-0.6,0.7,0.2,1.2c0.8,0.6,1.7,1.1,2.5,1.7c1.1,0.8,2,1.7,2.5,2.9c0.6,1.4,0.2,1.9-1.4,1.8
		c-1.9-0.1-3.6-0.8-5.3-1.4c-0.7-0.2-1.4-0.5-2-0.8c-2-0.9-4.1-0.8-6.2-0.7c-0.2,0-0.3,0.1-0.5,0.1c0.1,0.1,0.2,0.3,0.3,0.4
		c0.5,0.7,1.1,1.4,1.5,2.2c0.6,1.2,0.1,1.8-1.2,1.9c-1.9,0.1-3.7-0.3-5.4-1c-2.3-1-4.6-1.4-7.1-0.8c-1.8,0.5-3.7,0.8-5.6,1.1
		c-0.6,0.1-0.6,0.3-0.4,0.8c0.3,0.5,0.4,1.1,0.6,1.7c0.2,0.5,0,0.9-0.4,1.1c-0.2,0.1-0.7,0.2-0.9,0c-1.1-0.7-2.1-1.3-3.1-2.1
		c-0.5-0.5-1-0.7-1.8-0.7c-1.3,0-2.5-0.1-3.8,0c-3,0.2-5.9-0.5-8.8-1.3c-2.1-0.6-4.2-1.4-6.3-2c-1.1-0.3-1.2-1.2-1.5-2
		c-0.2-0.8,0.4-1.2,0.9-1.6C2.9,30.9,5,30,7.2,29.2c1.3-0.5,2.7-1,4-1.6c2.7-1.2,5.5-2,8.5-2c0.6,0,1-0.1,1.5-0.7
		c1.7-2.1,3.6-4,5.8-5.5c0.4-0.3,0.8-0.5,1.2-0.6c0.9-0.3,1.6,0.1,1.7,0.9c0.3,1.7,0.7,3.5,1.4,5.1c0.2,0.4,0,1.1-0.2,1.5
		c-0.3,0.7-0.4,0.9,0.3,1c2.5,0.3,4.9,0.9,7.5,0.8c0.7,0,1.3-0.1,1.8-0.5c0.4-0.3,1-0.8,1.6-0.4c0.5,0.3,0.9,0.6,0.6,1.3
		c0,0,0.3,0.3,0.5,0.3c1.3,0.1,2.6,0.1,3.8-0.7c1.4-0.9,2.8-1.9,4.1-2.8c0.3-0.2,0.4-0.5,0.1-0.7c-1.1-1-2.2-2-3.4-2.9
		c-0.3-0.2-0.9-0.2-1.4-0.2c-4.4,0.1-8.8-0.6-13-1.8c-2.4-0.7-4.7-1.8-7-2.8c-0.4-0.2-0.8-0.5-1.2-0.8c-0.2-0.1-0.3-0.6-0.2-0.7
		c0.4-0.5-0.4-1,0.2-1.6c1.2-1.1,2.6-1.5,4-2c2.4-0.9,4.8-1.7,7.3-2.4c2.2-0.7,4.3-1.3,6.5-1.9c1.8-0.4,3.3-1.1,4.6-2.5
		c1.7-1.9,3.7-3.4,6-4.5c1-0.5,1.4-0.5,2,0.3C57.4,2.2,58,4,57.5,6.1c-0.3,1-0.8,2-2,2.4c-0.1,0-0.2,0.2-0.3,0.4
		c0.1,0.1,0.3,0.2,0.4,0.3c2.5,0.6,5,1.2,7.5,1.7C64,11,65,10.9,66,10.9C66,10.9,66,10.9,66,10.9z"/>
	<path d="M5.9,34.5c-1,0-1.6-0.7-1.5-1.8c0.1-0.9,0.7-1.5,1.7-1.5c0.9,0,1.8,0.9,1.8,1.7C7.7,33.8,6.7,34.6,5.9,34.5z"/>
	<path d="M6.1,36.3c0.2-0.5,0.6-0.6,1.1-0.8c1.5-0.3,1.7-0.7,1.8-2.2c0-0.4,0.2-0.8,0.3-1.2c0.7,0.3,0.4,0.9,0.4,1.3
		c0.2,1.9-1.2,3-2.8,2.9C6.7,36.3,6.4,36.3,6.1,36.3L6.1,36.3z"/>
	<path d="M32.7,13.8c0,0.6-0.8,1.4-1.6,1.4c-0.8,0.1-1.5-0.6-1.6-1.4c0-0.7,0.6-1.4,1.5-1.5C31.6,12.4,32.7,13.3,32.7,13.8z"/>
</g>
</svg>
