<?xml version="1.0" encoding="iso-8859-1"?>
<!-- Generator: Adobe Illustrator 25.3.0, SVG Export Plug-In . SVG Version: 6.00 Build 0)  -->
<svg version="1.1" id="Calque_1" xmlns="http://www.w3.org/2000/svg" xmlns:xlink="http://www.w3.org/1999/xlink" x="0px" y="0px"
	 viewBox="0 0 86.4 7.2" style="enable-background:new 0 0 86.4 7.2;" xml:space="preserve">
<g>
	<path d="M81,5.1c-0.9-0.1-2.2-0.3-3.4-0.4c-0.5,0-1.3-0.3-0.9,0.8c0.1,0.2-0.3,0.6-0.6,0.8c-1.6,1.1-3.5,1.1-5.3,0.8
		c-0.9-0.2-1.7-0.4-2.6-0.7c-1.2-0.4-2.4-0.6-3.7-0.6c-0.6,0-1.3-0.2-1.9-0.2c-0.8-0.1-1.7-0.1-2.5-0.1c-0.9,0-1.9,0.2-2.8,0.3
		c-0.5,0.1-1.1-0.2-1.5,0.4c-0.1,0.1-0.6,0.1-0.8,0c-1.8-0.8-3.6-0.4-5.5-0.4c-0.8,0-1.5,0.2-2.3,0.2c-4.7,0-9.4,0-14,0
		c-1.3,0-2.6-0.1-3.9,0.3c-0.7,0.2-1.6,0.2-2.3,0c-2.1-0.5-4.1,0-6.2,0.3c-0.4,0.1-0.8,0.1-1.3,0.1c-2,0-4,0.1-5.9,0
		c-2.1-0.1-4.1-0.4-6.2-0.6C6.6,6.1,5.8,6.1,5,6.1C3.4,5.9,1.7,5.6,0.3,4.7C0.2,4.6,0.1,4.4,0,4.3c0.2-0.1,0.3-0.2,0.5-0.2
		C1.3,4,2.2,3.9,3,3.8c0.1,0,0.2-0.1,0.3-0.1C3.2,3.7,3,3.6,2.9,3.6c-0.5,0-1,0-1.4-0.1c-0.1,0-0.3-0.2-0.3-0.3
		c0-0.1,0.1-0.4,0.3-0.4c0.9-0.3,1.8-0.6,2.7-0.8c2.7-0.4,5.5-0.5,8.1-1.2c2.6-0.6,5.3-0.6,8-0.8c2.3-0.2,4.6,0.3,6.9,0.5
		c0.5,0,1.1,0.1,1.6,0.1c3.5,0,7.1,0,10.6,0c2.9,0.1,5.9,0.5,8.8,0.3c7-0.5,14-0.1,21-0.4c1.7-0.1,3.4-0.3,5.2-0.3
		c0.6,0,1.1,0.1,1,0.9c0,0.6,0.5,0.6,0.9,0.6c1.3-0.1,2.6-0.3,3.9-0.4c1.6-0.1,3.2-0.2,4.8-0.3c0.2,0,0.4,0,0.5,0.1
		c0.3,0.2,0.6,0.5,0.9,0.7C86.1,2,86,2.3,85.7,2.5C84.9,2.9,85,3,85.8,3.2c0.2,0,0.4,0.2,0.4,0.3c0.1,0.3,0.2,0.6,0.1,0.8
		c0,0.1-0.4,0.3-0.6,0.3C84.3,4.8,82.8,4.9,81,5.1z"/>
	<path d="M68,3.5c-3.7,0-7.3,0-11,0c-0.2,0-0.5-0.1-0.7-0.1c0.2-0.1,0.4-0.2,0.6-0.2c1.4,0,2.8,0,4.1,0c5.5,0,10.9,0,16.4,0
		c0.6,0,1.3,0.3,1.8-0.5c0.2,0.1,0.5,0.2,0.5,0.3c0,0.2-0.1,0.5-0.2,0.5c-0.5,0.1-1,0.1-1.4,0.1C74.7,3.5,71.4,3.5,68,3.5
		C68,3.5,68,3.5,68,3.5z"/>
	<path d="M46.8,2.8c2.6,0,5.3,0,7.9,0c0.2,0,0.3,0.1,0.5,0.1C55,3,54.9,3.1,54.7,3.1c-1.1,0-2.2,0-3.2,0c-4.3,0-8.6,0-12.9,0
		c-0.2,0-0.4-0.1-0.6-0.2c0.2,0,0.3-0.1,0.5-0.1C41.3,2.8,44.1,2.8,46.8,2.8C46.8,2.8,46.8,2.8,46.8,2.8z"/>
	<path d="M15.8,1.4c0.2,0.1,0.4,0.3,0.6,0.3c0.5,0,0.9,0.2,0.9,0.8c0,0.2,0.1,0.3,0.1,0.5c0-0.2,0.1-0.3,0.1-0.5c0-0.3,0-0.7,0.1-1
		c0.5,0.3,0.7,0.8,0.5,1.3c-0.1,0.4-0.3,0.8-0.6,1c-0.6,0.5-1.7,0.2-2.2-0.4C14.9,2.6,15,2.2,15.8,1.4z"/>
	<path d="M31.7,2.8c-1.4,0-2.9,0-4.3,0c-0.2,0-0.3-0.1-0.5-0.1c0.1-0.1,0.3-0.2,0.4-0.2c3,0,6.1,0,9.1,0c0.1,0,0.3,0.1,0.4,0.2
		c-0.2,0-0.3,0.1-0.5,0.1C34.8,2.8,33.2,2.8,31.7,2.8z"/>
	<path d="M24.1,2c0.7,0.1,1.3,0.2,1.9,0.2c-0.6,0.1-1.2,0.2-1.8,0.2c-0.7,0-1.3-0.1-2-0.2C22.8,2.2,23.5,2.1,24.1,2z"/>
</g>
</svg>
