<svg xmlns="http://www.w3.org/2000/svg" viewBox="-496 -2 1558 804" width="1558" height="804">
  <path d="M0,0 L11,1 L20,5 L24,5 L36,1 L46,1 L56,4 L62,8 L66,11 L66,13 L78,9 L91,9 L101,13 L106,16 L111,14 L119,9 L125,7 L138,7 L150,12 L153,14 L157,13 L171,13 L181,17 L188,21 L198,16 L201,15 L217,15 L223,17 L243,17 L252,20 L260,26 L270,26 L280,29 L288,35 L296,34 L320,30 L330,29 L368,29 L386,33 L422,45 L447,54 L479,67 L497,75 L515,86 L529,97 L541,108 L557,124 L568,139 L576,156 L581,174 L583,186 L584,197 L584,221 L600,211 L621,197 L631,191 L645,185 L667,173 L697,159 L726,147 L758,134 L803,117 L839,105 L885,92 L919,84 L954,78 L994,69 L999,68 L1017,68 L1027,72 L1035,79 L1040,87 L1042,93 L1042,107 L1038,117 L1031,125 L1022,131 L1009,136 L967,148 L947,156 L914,171 L898,179 L884,188 L870,198 L852,208 L840,216 L821,230 L806,243 L798,251 L793,256 L781,268 L770,282 L760,296 L751,312 L747,322 L746,327 L746,346 L755,361 L765,374 L776,386 L809,419 L820,428 L834,438 L851,448 L880,463 L916,479 L931,486 L956,495 L984,502 L1003,507 L1039,519 L1050,525 L1058,533 L1058,569 L1050,577 L1040,582 L1030,584 L1014,583 L976,578 L903,567 L840,555 L804,547 L749,533 L706,520 L670,508 L634,494 L610,483 L605,480 L607,491 L608,507 L606,525 L602,540 L595,556 L586,571 L575,584 L565,595 L553,604 L543,609 L534,615 L517,623 L497,629 L487,631 L482,632 L447,632 L416,629 L396,625 L386,624 L379,626 L367,626 L353,622 L348,621 L342,629 L333,635 L328,637 L316,638 L303,634 L291,627 L278,617 L270,611 L265,612 L257,615 L243,615 L231,610 L222,603 L216,594 L210,583 L209,582 L200,583 L161,591 L159,592 L176,609 L180,614 L188,621 L200,631 L215,641 L234,652 L260,666 L290,681 L318,693 L342,701 L367,708 L404,713 L442,721 L476,728 L491,732 L500,737 L507,744 L512,754 L513,758 L513,769 L509,780 L500,790 L492,794 L486,796 L478,797 L462,797 L453,798 L435,798 L390,794 L356,790 L322,784 L247,770 L215,764 L175,752 L139,740 L118,732 L91,720 L77,717 L64,712 L37,698 L14,685 L-1,676 L-15,668 L-34,655 L-47,644 L-57,635 L-79,613 L-79,611 L-112,608 L-138,604 L-159,600 L-190,594 L-214,588 L-253,576 L-281,566 L-314,551 L-340,538 L-354,533 L-381,528 L-421,523 L-442,518 L-455,513 L-464,508 L-474,499 L-483,487 L-491,471 L-493,464 L-494,453 L-494,429 L-489,419 L-480,411 L-471,407 L-458,406 L-449,399 L-442,396 L-430,395 L-426,396 L-431,388 L-437,379 L-444,368 L-446,362 L-447,351 L-453,339 L-454,334 L-454,327 L-451,317 L-445,308 L-441,306 L-439,301 L-433,293 L-423,285 L-411,279 L-403,276 L-384,262 L-377,258 L-371,253 L-347,238 L-323,224 L-304,214 L-283,201 L-266,190 L-239,176 L-219,167 L-207,163 L-197,159 L-175,153 L-173,153 L-172,143 L-166,119 L-160,97 L-156,86 L-148,75 L-137,68 L-131,66 L-117,66 L-108,68 L-84,32 L-76,24 L-62,17 L-50,16 L-39,19 L-33,21 L-21,9 L-11,3 L-6,1 Z " fill="#000000" stroke="none" fill-rule="nonzero"/>
</svg>