<svg xmlns="http://www.w3.org/2000/svg" viewBox="0 0 708 800" width="708" height="800">
  <g transform="scale(0.59, 0.5899705014749262)">
    <path d="M 717.082 57.401 C 716.443 58.171, 711.720 61.308, 706.586 64.371 C 701.453 67.435, 693.708 72.564, 689.376 75.769 C 685.044 78.975, 673.850 87.035, 664.500 93.682 C 640.690 110.608, 629.268 120.794, 608 144.072 C 588.242 165.698, 582.796 172.154, 575.348 182.780 C 572.758 186.476, 567.367 194.042, 563.369 199.593 C 559.371 205.144, 555.534 210.994, 554.842 212.593 C 554.150 214.192, 550.528 220.149, 546.792 225.832 C 543.056 231.514, 540 236.552, 540 237.027 C 540 237.502, 537.880 238.028, 535.290 238.195 C 530.613 238.498, 530.552 238.548, 526.708 245.250 C 522.998 251.718, 522.678 252, 519.041 252 C 514.283 252, 513.458 253.012, 509.944 263.162 C 505.686 275.459, 496.335 288.211, 472.326 314.461 C 453.099 335.483, 443.136 342.781, 414 357.187 C 381.353 373.328, 360.534 383.265, 354.764 385.459 C 352.159 386.450, 349.517 387.877, 348.892 388.630 C 348.267 389.384, 346.247 390, 344.403 390 C 341.710 390, 340.754 390.574, 339.541 392.921 C 338.710 394.528, 336.561 396.862, 334.765 398.107 C 325.182 404.755, 314.352 416.461, 306.181 429 C 303.135 433.675, 299.598 438.772, 298.322 440.327 C 297.045 441.881, 296 444.066, 296 445.182 C 296 446.298, 294.875 448.548, 293.500 450.182 C 292.125 451.816, 291 454.158, 291 455.386 C 291 456.613, 290.339 458.491, 289.532 459.559 C 288.724 460.626, 288.049 462.756, 288.032 464.290 C 288.014 465.825, 287.089 468.313, 285.976 469.819 C 283.108 473.698, 279.104 486.108, 277.880 494.911 C 275.301 513.453, 253.669 539.739, 228.210 555.265 C 224.519 557.516, 211.864 564.062, 200.087 569.813 C 174.849 582.137, 159.655 590.512, 145.106 600.123 C 139.273 603.976, 123.855 612.506, 110.845 619.077 C 97.835 625.649, 84.560 632.753, 81.345 634.864 C 78.130 636.976, 72.455 639.756, 68.734 641.042 C 56.813 645.163, 55.591 646.811, 55 659.568 L 54.500 670.363 51.643 671.124 C 42.183 673.642, 37.361 689.802, 43.606 698.056 C 47.042 702.597, 48.980 707.192, 50.541 714.500 C 52.067 721.648, 54.799 727.705, 59.563 734.500 C 64.275 741.221, 76.444 765.277, 78.280 771.500 C 85.733 796.756, 86.615 798.650, 91.346 799.537 C 93.891 800.015, 98.649 803.901, 111.099 815.672 C 126.243 829.990, 132.231 834.984, 142.917 842.216 C 148.424 845.942, 152.416 851.703, 163.098 871.338 C 183.185 908.258, 198.370 927.588, 246.695 977.751 C 300.343 1033.440, 332.312 1061.026, 364.690 1079.568 C 373.936 1084.862, 385.100 1091.257, 389.500 1093.779 C 412.302 1106.845, 421.865 1111.990, 436 1118.797 C 444.525 1122.902, 451.626 1126.366, 451.781 1126.494 C 451.935 1126.623, 452.504 1132.077, 453.045 1138.614 C 453.586 1145.151, 454.657 1152.300, 455.425 1154.500 C 456.193 1156.700, 457.097 1160.136, 457.435 1162.135 C 457.772 1164.134, 459.379 1167.734, 461.006 1170.135 C 462.633 1172.536, 464.679 1176.929, 465.553 1179.897 C 467.741 1187.333, 472.701 1197.575, 475.942 1201.353 C 477.426 1203.084, 481.699 1209.900, 485.436 1216.500 C 489.173 1223.100, 495.216 1232.932, 498.865 1238.348 C 502.514 1243.765, 507.047 1250.740, 508.938 1253.848 C 512.481 1259.674, 538.855 1287.368, 547.208 1294.035 L 551.917 1297.792 564.708 1297.280 C 573.817 1296.915, 577.932 1296.359, 579 1295.347 C 582.169 1292.344, 580.663 1264.360, 575.509 1230.500 C 574.170 1221.700, 572.129 1204.375, 570.975 1192 C 569.820 1179.625, 568.392 1166.575, 567.803 1163 C 567.213 1159.425, 566.527 1149.413, 566.278 1140.750 L 565.824 1125 580.251 1125 L 594.678 1125 601.055 1135.247 C 620.963 1167.231, 659.433 1207.971, 669.750 1207.995 C 672.522 1208.001, 672.872 1203.023, 670.500 1197.346 C 669.411 1194.740, 669 1189.952, 669 1179.878 L 669 1166 671.500 1166 L 674 1166 674 1153 L 674 1140 688.443 1140 C 701.782 1140, 703.560 1140.226, 711.697 1142.952 C 730.266 1149.173, 742.226 1150.156, 756.122 1146.601 C 776.618 1141.358, 779.425 1139.357, 807.111 1110.250 C 835.929 1079.952, 898.690 989.909, 917.068 952.495 C 921.976 942.504, 933.387 911.778, 941.579 886.500 C 947.100 869.465, 949 852.324, 949 819.568 C 949 797.371, 949.197 794.138, 950.582 793.607 C 953.048 792.660, 976.032 792.901, 991.500 794.034 C 1024.247 796.435, 1050.361 800.797, 1080.854 808.960 C 1101.728 814.549, 1110.535 812.818, 1114.124 802.424 C 1116.470 795.630, 1118.680 775.282, 1119.979 748.500 C 1121.819 710.600, 1123.128 692.835, 1124.620 685.546 C 1125.413 681.671, 1126.337 670.783, 1126.673 661.352 L 1127.284 644.204 1124.302 637.852 C 1116.274 620.753, 1108.422 618.551, 1081.656 625.890 C 1065.288 630.378, 1037.222 636.971, 1022 639.904 C 962.787 651.313, 962.516 651.353, 942.091 651.782 L 922.681 652.189 923.295 630.844 C 924.175 600.249, 922.197 588.547, 912.356 566.104 C 902.320 543.219, 871.411 482, 854.493 451.500 C 845.340 435, 834.309 415.099, 829.979 407.276 C 825.649 399.453, 818.929 388.111, 815.046 382.071 C 811.162 376.031, 807.579 370.024, 807.084 368.721 C 806.589 367.419, 801.939 361.661, 796.751 355.926 C 775.697 332.655, 754.771 315.262, 736.702 306.014 L 726.904 301 708.452 301 L 690 301 690 263.082 L 690 225.163 693.326 223.108 C 698.922 219.649, 702 216.257, 702 213.548 C 702 211.195, 701.656 211, 697.500 211 L 693 211 693 196.674 C 693 182.687, 693.059 182.293, 695.500 180 C 697.928 177.719, 698 177.261, 698.004 164.076 C 698.008 147.716, 696.965 149.793, 715.372 129.500 C 730.645 112.661, 730.721 112.476, 725.500 104.724 L 722 99.527 722 85.730 C 722 72.996, 722.193 71.554, 724.500 67 C 725.875 64.287, 727 60.702, 727 59.033 C 727 56.118, 726.830 56, 722.622 56 C 720.089 56, 717.755 56.590, 717.082 57.401" stroke="none" fill="black" fill-rule="evenodd"/>
  </g>
</svg>