<?xml version="1.0" encoding="iso-8859-1"?>
<!-- Generator: Adobe Illustrator 25.3.0, SVG Export Plug-In . SVG Version: 6.00 Build 0)  -->
<svg version="1.1" id="Calque_1" xmlns="http://www.w3.org/2000/svg" xmlns:xlink="http://www.w3.org/1999/xlink" x="0px" y="0px"
	 viewBox="0 0 78.6 37.3" style="enable-background:new 0 0 78.6 37.3;" xml:space="preserve">
<g>
	<path d="M56.6,14.2c2.1,0,4.2-0.4,6.2-0.8c1-0.2,2.2,0,3.2-0.1c2.5-0.1,5-0.3,7.5-0.3c1.2,0,2.5,0.2,3.5,1.1
		c1.1,1.1,1.5,2.4,1.1,3.7c-0.2,0.8-0.1,1.5,0.2,2.2c0.3,0.8,0.3,1.5-0.1,2.2c-1,1.5-2.2,2.8-4.3,2.6c-2.8-0.3-5.6-0.5-8.4-0.7
		c-0.8-0.1-1.7,0-2.5,0.1c-0.7,0-1.4,0.1-2.1,0.1c-2-0.1-3.9-0.2-5.9-0.2c-0.2,0-0.3,0.1-0.5,0.2c0.1,0.1,0.1,0.3,0.2,0.4
		c0.8,0.6,0.8,1.4,0.8,2.3c0,1.8-0.9,3.1-2.4,4.1c-0.9,0.6-1.9,0.8-2.9,0.3c-2-1-3.9-2-5.9-3c-0.5-0.2-1-0.4-1.4-0.7
		c-1.2-0.6-2.5-0.1-3.6,0.2c-1.7,0.5-3.5,0.8-5.3,0.9c-0.5,0-0.9,0.2-1.4,0.3c-0.5,0.1-0.9,0.1-1.4,0.1c0.5,0.2,1,0.4,1.4,0.7
		c0.4,0.3,0.7,0.6,0.9,1c0.7,1.8,0.5,3.6-0.3,5.3c-0.7,1.3-1.6,1.4-2.7,0.4c-1.4-1.3-2.6-2.8-3.5-4.5c-0.1-0.1-0.1-0.2-0.2-0.3
		c-0.6-0.9-1.1-2.1-1.9-2.8c-0.9-0.8-2.2-0.2-3.3-0.3c-2-0.3-4-0.6-6-0.9c-0.2,0-0.5-0.2-0.7-0.2c-4-0.1-7.6-1.9-11.2-3.2
		C2.3,24,1.3,23,0.4,21.8c-0.4-0.6-0.5-1.1,0-1.6c0.8-0.8,1.5-1.8,2.6-2.3c3.3-1.6,6.7-2.8,10.1-4.1c2.1-0.8,4.1-1.6,6.2-2.3
		c2.2-0.7,4.4-1.4,6.7-1.7c1.9-0.3,3.1-1.4,4.2-2.7C30.4,6.7,30.7,6.4,31,6c1.8-2.6,4.5-4,7.2-5.5c1.4-0.7,2.9-0.6,4.3,0
		c3.2,1.3,5.8,3.5,8.1,6.1c0.8,0.9,1.6,1.9,2.3,3c1,1.5,0.7,2.5-0.7,3.6c-0.1,0.1-0.2,0.3-0.4,0.4c0.1,0.1,0.3,0.1,0.4,0.2
		C53.6,13.8,55.1,14,56.6,14.2z"/>
	<path d="M19.8,23.3c0.4-0.5,0.9-1,1.3-1.4c0.1-0.1,0.3-0.1,0.4-0.1c0,0.2-0.1,0.3-0.1,0.5c-0.1,0.3-0.3,0.5-0.5,0.7
		C20.6,23.3,20.3,23.8,19.8,23.3z"/>
	<path d="M10.1,20.1C9.7,20,9.2,20,8.9,19.7c-0.5-0.4-1.1-1-1.1-1.5c0-0.6,0.6-1.3,1.4-1.5c0.6-0.1,1.3-0.1,1.9,0
		c1,0.3,1.3,0.8,1.2,1.7c-0.1,0.8-0.9,1.6-1.8,1.6c-0.1,0-0.2,0-0.3,0C10.1,20,10.1,20.1,10.1,20.1z"/>
	<path d="M13.7,23.3c0.9-0.5,1.2-1.3,1.1-2.4c-0.1-0.6-0.4-1.3,0.5-1.7c0.1,0.6,0.2,1.1,0.2,1.7C15.5,22.9,15.4,23.1,13.7,23.3
		L13.7,23.3z"/>
	<path d="M5.5,17.6C6,17.7,6.3,18,6,18.6c-0.1,0.2-0.4,0.3-0.7,0.4c0-0.2-0.1-0.4-0.1-0.6C5.3,18.1,5.3,17.9,5.5,17.6L5.5,17.6z"/>
	<path d="M4.4,20.5c-0.6-0.3-1.5-0.4-1.5-1.4C3.6,19.4,4.3,19.6,4.4,20.5z"/>
	<path d="M13.7,23.4c-0.5,0.2-1,0.4-1.5,0.6c0,0-0.1-0.1-0.1-0.1C12.6,23.7,13.2,23.5,13.7,23.4L13.7,23.4z"/>
</g>
</svg>
