<?xml version="1.0" encoding="iso-8859-1"?>
<!-- Generator: Adobe Illustrator 25.3.0, SVG Export Plug-In . SVG Version: 6.00 Build 0)  -->
<svg version="1.1" id="Calque_1" xmlns="http://www.w3.org/2000/svg" xmlns:xlink="http://www.w3.org/1999/xlink" x="0px" y="0px"
	 viewBox="0 0 83 19.8" style="enable-background:new 0 0 83 19.8;" xml:space="preserve">
<g>
	<path d="M56,19c-1.9,0.2-3.9,0.5-5.8,0.7c-2,0.3-3.6-0.3-5.1-1.6c-0.5-0.4-0.8-1-1.5-0.3C43.4,18.1,43,18,42.7,18
		c-5,0.1-10,0.2-15.1,0.4c-1.4,0-2.9,0-4.3,0c-0.2,0-0.4,0.1-0.6,0.1c0.2,0.1,0.3,0.1,0.5,0.2c0.3,0.2,0.5,0.3,0.7,0.5
		c0.1,0.1,0.1,0.2,0.2,0.3c-0.1,0.1-0.3,0.2-0.4,0.1c-1.1-0.2-2.2-0.5-3.3-0.8c-1.4-0.3-2.7-0.8-4-1.4c-1.3-0.6-2.5-1.1-4.1-0.7
		c-1.2,0.4-2.6,0.4-3.9,0.4c-1,0-2-0.4-2.9-0.8c-1.1-0.5-2.2-1-3.1-1.7c-0.9-0.7-1.7-1.6-2.2-2.6c-0.3-0.5-0.2-1.5,0.1-2.1
		c0.6-1.2,1.3-2.4,2-3.5C3,5.7,3.8,4.8,4.7,4c1.4-1.3,3.1-2.2,5.1-2.2c2.5,0,5,0.2,7.5,0.3c1.5,0.1,2.8-0.1,4-1
		C22.5,0.3,24,0.1,25.4,0c1.9,0,3.8-0.1,5.8,0c2.1,0.1,4.1,0.5,6.2,0.8c2.7,0.4,5.5,0.9,8.2,1.3C47.3,2.5,49,2.8,50.7,3
		c2.3,0.3,4.7,0.7,7,1c4.6,0.5,9.1,1,13.5,2.2c1.8,0.5,3.6,0.7,5.4,1c1.8,0.3,3.7,0.5,5.3,1.5c1.3,0.8,1.4,1.7,0.5,2.9
		c-0.7,0.9-1.5,1.7-2.6,2.1c-2.7,1-5.3,2.2-8,2.9c-3.5,0.9-7,1.8-10.7,1.8c-0.9,0-1.9,0.3-2.8,0.4c-0.8,0.1-1.5,0.3-2.3,0.4
		C56,19.1,56,19.1,56,19z"/>
	<path d="M19.7,12.1c2,0.4,4,0.9,6.1,1.2c1.6,0.2,3.2,0.2,4.8,0.3c0.4,0,0.8-0.3,1.1-0.5c0.5-0.3,0.6-0.8,0.2-1.2
		c-1.6-1.8-3.2-3.3-5.9-3.2c-1,0-2,0.1-3,0c-0.6-0.1-1.1-0.4-1.6-0.7c-0.4-0.2-0.7-0.5-1-0.8c0.6-0.6,0.9,0.1,1.4,0.2
		c1,0.2,2,0.6,3,0.5c2.4-0.2,4.4,0.7,6.2,2.1c0.6,0.5,1.2,1.1,1.7,1.8c0.6,0.9,0.3,1.7-0.6,2.3c-0.9,0.6-2,0.6-3.1,0.6
		c-2-0.1-4-0.5-5.9-1.1c-1.1-0.3-2.2-0.3-3.3-0.5c-0.3,0-0.6-0.1-0.8-0.3c-0.1-0.1-0.2-0.3-0.3-0.4c0.1-0.1,0.3-0.2,0.4-0.2
		c0.2,0,0.5,0.1,0.7,0.1C19.7,12.2,19.7,12.1,19.7,12.1z"/>
</g>
</svg>
