<?xml version="1.0" encoding="iso-8859-1"?>
<!-- Generator: Adobe Illustrator 25.3.0, SVG Export Plug-In . SVG Version: 6.00 Build 0)  -->
<svg version="1.1" id="Calque_1" xmlns="http://www.w3.org/2000/svg" xmlns:xlink="http://www.w3.org/1999/xlink" x="0px" y="0px"
	 viewBox="0 0 81.7 38.2" style="enable-background:new 0 0 81.7 38.2;" xml:space="preserve">
<g>
	<path d="M54.8,30.9c-1.7-0.3-3.4-0.5-5-0.8C49.4,30.1,49,30,48.7,30c-0.2,0-0.5,0.1-0.7,0.1c0.2,0.1,0.4,0.3,0.5,0.5
		c0.3,0.4,0,0.6-0.3,0.5c-1-0.1-2-0.2-3-0.4c-0.5-0.1-0.6-0.1-0.7,0.4c-0.1,0.2-0.6,0.4-0.8,0.3c-1-0.5-1.9-1-2.8-1.6
		c-0.2-0.1-0.4-0.2-0.5-0.1c-0.7,0.6-0.9,0.6-1.3,0.3c-0.3-0.2-0.7-0.4-0.8-0.7c-0.4-1.4-1.5-1.3-2.6-1.3c-1.9,0.1-3.8,0-5.8,0
		c-0.2,0-0.5,0.1-0.7,0.2c0.1,0.3,0.2,0.6,0.4,0.8c0.8,0.9,1.7,1.7,2.5,2.6c0.8,0.9,1.7,1.7,2.3,2.7c0.3,0.5,0.3,1.3,0.4,2
		c0.1,0.3,0,0.7,0.1,1c0.3,0.6,0.3,1-0.5,0.6c-0.6-0.2-0.8,0.9-1.6,0.3c-0.4-0.3-0.9-0.6-1.5-0.2c-0.1,0.1-0.4-0.1-0.6-0.2
		c-0.8-0.5-1.6-1-2.3-1.7c-0.9-0.8-1.9-1.4-2.9-2c-1-0.6-1.7-1.6-2.4-2.6c-0.6-0.8-1.1-1.6-1.4-2.5c-0.3-0.7-0.6-1-1.4-1
		c-1.2,0-2.5-0.2-3.7-0.5c-2.2-0.6-4.4-0.8-6.6-1.3c-1.4-0.3-2.7-0.8-4-1.4c-1.2-0.6-2.3-1.5-3.4-2.2c-0.1-0.1-0.2-0.1-0.3-0.1
		c0,0.2-0.1,0.4-0.1,0.5C2.4,23.4,2.7,24,3,24.6c0.1,0.1-0.2,0.4-0.3,0.6c-0.1-0.1-0.3-0.1-0.4-0.2c-1.2-1.2-1.4-2.8-2.1-4.2
		c-0.8-1.5,0.2-3.9,1.6-4.8c1.4-0.9,2.8-1.8,4-2.9c0.9-0.8,2-1.2,3.2-1.6c1.4-0.5,2.8-0.9,4.2-1.3c0.2-0.1,0.4-0.2,0.7-0.3
		c0.8-0.3,1.8-0.3,2.3-0.9c0.5-0.5,0.6-1.5,0.8-2.3c0.4-1.5,1.4-2.6,2.2-3.8c0.1-0.1,0.4-0.1,0.6-0.2c0,0.2,0.1,0.5,0,0.6
		c-0.2,0.4-0.5,0.8-0.7,1.2c-0.1,0.2,0,0.4,0,0.7c0.2-0.1,0.4-0.1,0.5-0.3c0.8-0.9,1.5-1.8,2.3-2.7C22,2,22.2,2,22.4,1.9
		c0,0.2,0.1,0.5,0.1,0.7C22.4,2.8,22.1,3,22,3.3c-0.1,0.3-0.1,0.7-0.1,1c0.3-0.2,0.6-0.3,0.8-0.5C23.5,3,24.2,2.1,25,1.3
		c0.1-0.1,0.3-0.1,0.5-0.2c0,0.2,0,0.5-0.1,0.6c-0.2,0.4-0.5,0.6-0.7,1c-0.1,0.2-0.2,0.5-0.3,0.8c0,0.2,0.1,0.5,0.1,0.5
		c0.2,0,0.5,0,0.6-0.1c0.9-0.9,1.8-1.8,2.7-2.6c0.3-0.3,0.7-0.5,1.1-0.8c0.3,0.7-0.2,0.9-0.5,1.3c-0.2,0.2-0.5,0.4-0.6,0.7
		c-0.1,0.3-0.1,0.7-0.1,1c0.3-0.1,0.6-0.2,0.8-0.4c0.9-0.9,1.8-1.8,2.7-2.6c0.1-0.1,0.3-0.1,0.5-0.1c0,0.2,0,0.3,0,0.5
		c-0.1,0.2-0.2,0.4-0.4,0.6C30.8,2,30.7,2.4,31,3c0.3-0.3,0.6-0.5,1-0.8c0.9-0.7,1.7-1.4,2.6-2.1C34.6,0,34.9,0.1,35,0.2
		c0,0,0,0.2-0.1,0.3c-0.3,0.4-0.7,0.7-0.9,1c-0.1,0.2-0.1,0.4-0.2,0.6c0.2,0,0.5,0,0.6-0.1c0.7-0.5,1.4-1.1,2.2-1.6
		c0.3-0.2,0.6-0.4,0.9-0.5c0.1,0,0.4,0.3,0.4,0.4c-0.1,0.3-0.4,0.6-0.5,0.9c-0.1,0.2,0.1,0.5,0.2,0.6c0,0.1,0.3,0,0.5-0.1
		c0.4-0.2,0.8-0.6,1.2-0.8c0.2-0.1,0.5-0.2,0.8-0.3c-0.1,0.2-0.2,0.5-0.2,0.7c0,0.1-0.1,0.1-0.1,0.1c0,0.1,0,0.2,0.1,0.3
		C39.7,2,39.9,2,40,2c0.5-0.3,0.9-0.6,1.4-0.8C41.6,1,41.9,1,42.2,0.9c-0.1,0.2-0.2,0.5-0.3,0.7c-0.1,0.2-0.2,0.3-0.2,0.5
		c0,0.1-0.1,0.3,0,0.3c0.1,0.1,0.3,0.1,0.4,0.1c0.5-0.3,1-0.6,1.6-0.8c0.2-0.1,0.4,0,0.6,0c0,0.2,0,0.4-0.1,0.5
		c-0.3,0.3-1,0.5-0.6,1.1c0.5,0.6,0.9,0,1.4-0.3c0.2-0.2,0.5-0.3,0.8-0.4c0.1,0,0.3,0,0.3,0c0.1,0.1,0.1,0.3,0.1,0.5
		c-0.1,0.2-0.3,0.4-0.4,0.6c-0.2,0.4,0.1,0.6,0.4,0.5c0.5-0.1,1-0.4,1.5-0.6c0.1,0,0.2,0.1,0.3,0.1c0,0.1,0,0.2,0,0.3
		c-0.3,0.4-0.7,0.7-1.1,1.1c0.7,0.4,1.1,0,1.6-0.3c0.1-0.1,0.4,0,0.4,0.1c0.1,0.1,0,0.3,0,0.5c-0.3,0.4-1.1,0.3-1,1.1
		c0.4-0.1,0.9-0.3,1.3-0.4c0.2,0,0.3,0,0.5,0.1c-0.1,0.2-0.1,0.4-0.3,0.6c-0.4,0.3-0.8,0.6-1.1,0.9c-0.1,0.1-0.1,0.2,0,0.3
		c0,0.1,0.2,0.1,0.3,0.1c0.5-0.1,0.9-0.3,1.3-0.5c0.3-0.1,0.6-0.4,0.8-0.3c1.4,0.5,2.4-0.4,3.5-0.8c2-0.7,4-1.2,6.1-1.3
		C62,5,63.6,5.7,64.9,6.8c1.2,1,1.1,1.9-0.1,3.1c-1,1.1-2,2.2-3.4,2.8c-0.8,0.3-1.4,0.9-2.3,0.8c-0.1,0-0.2,0.1-0.3,0.1
		c0.1,0,0.2,0.1,0.3,0.1c0.4,0,0.7,0,1.1,0c3-0.4,6-1,9-1.3c2.7-0.2,5.4-0.1,8.1,0c0.6,0,1.3,0.4,1.7,0.8c0.7,0.7,1.4,1.5,2,2.3
		c1.8,2.2,0.3,7-3.5,7.3c-1.8,0.1-3.7,0.2-5.5,0.3c-3,0.2-5.8-0.7-8.6-1.2c-2.2-0.4-4.4-0.5-6.5,0.3c-0.2,0.1-0.3,0.2-0.4,0.3
		c0.2,0.1,0.4,0.1,0.6,0.2c1.7,0.3,3.4,0.7,4.8,1.8c0.5,0.4,1,1,1.4,1.5c0.7,0.9,0.7,1.6-0.1,2.4c-0.6,0.6-1.4,1.3-2.2,1.5
		C58.8,30.4,56.8,30.6,54.8,30.9z"/>
	<path d="M26,26.8c0.1,0,0.5,0.1,0.8,0.3c0.2,0.1,0.2,0.4,0.3,0.6c-0.2,0-0.4,0.1-0.6,0.1c-1-0.4-1-0.4-1.5,0.4
		c-0.1,0.1-0.3,0.3-0.3,0.3c-0.1-0.1-0.3-0.2-0.3-0.4C24.2,27.2,24.7,26.7,26,26.8z"/>
	<path d="M48.5,25c2.5,0.6,4.9,1.3,7.4,1.9c1,0.2,2.1,0.2,3.2,0.3c0.4,0,0.8,0.1,1.2,0.2c0.1,0,0.2,0.2,0.2,0.2
		c-0.1,0.1-0.2,0.3-0.3,0.3c-1.1,0-2.2,0.2-3.2,0c-2.7-0.6-5.3-1.4-7.9-2.1C48.6,25.6,48.5,25.4,48.5,25L48.5,25z"/>
</g>
</svg>
