<?xml version="1.0" encoding="iso-8859-1"?>
<!-- Generator: Adobe Illustrator 25.3.0, SVG Export Plug-In . SVG Version: 6.00 Build 0)  -->
<svg version="1.1" id="Calque_1" xmlns="http://www.w3.org/2000/svg" xmlns:xlink="http://www.w3.org/1999/xlink" x="0px" y="0px"
	 viewBox="0 0 82.7 26.6" style="enable-background:new 0 0 82.7 26.6;" xml:space="preserve">
<g>
	<path d="M29.4,21.9c-0.8-0.1-1-0.8-1.3-1.3c-0.3-0.5-0.8-0.8-1.5-0.8c-2-0.2-4-0.5-6-0.8c-2.3-0.4-4.6-0.7-6.8-1.3
		c-2.5-0.7-5-1.5-7.4-2.5c-1.7-0.6-3.2-1.5-4.8-2.3c-0.4-0.2-0.8-0.5-1.2-0.8C-0.3,11.2,0,10.3,0.9,10c1.4-0.5,3-0.9,4.4-1.5
		c3.2-1.4,6.7-1.5,10-2.3c2.1-0.5,4.2-0.6,6.4-0.8C24.4,5.1,27.2,5,30,4.6c1.4-0.2,2.7,0.1,4.1,0.1c1.7-0.1,3.3-0.3,5-0.3
		c2.1,0,4.2,0.2,6.3,0.3c1.1,0.1,1.9-0.2,2.8-0.9c1.2-1,2.5-1.8,3.8-2.6C53.2,0.4,54.6,0,56.1,0c1.4,0.1,2.9-0.3,4.3,0.3
		c0.3,0.1,0.6,0.2,0.8,0.3c1.2,0.6,1.9,1.6,1.9,3c0,1.4-0.8,2.3-2.1,2.8c-0.2,0.1-0.4,0.2-0.6,0.2c0.2,0,0.5,0.1,0.7,0.1
		c1.2-0.4,2.5-0.8,3.7-1.2c1.8-0.6,3.5-1.4,5.4-1.9c1.3-0.4,2.6,0,3.9,0.3c2.5,0.5,4.9,1.2,6.8,3c1.7,1.7,2.4,3.2,1.3,5.9
		c-1.5,3.5-4.3,5.3-7.8,6.2c-2.8,0.8-5.4,0.3-8-0.8c-1.6-0.7-3.1-1.3-4.8-1.7c-2.3-0.5-4.5-0.2-6.7,0.2c-0.5,0.1-1.1,0.2-1.6,0.3
		c-0.1,0-0.3,0.2-0.4,0.3c0.1,0.1,0.3,0.2,0.4,0.3c0.8,0.2,1.6,0.4,2.4,0.6c1.4,0.4,2.7,0.9,3.9,1.8c0.6,0.4,0.7,0.9,0.4,1.5
		c-0.8,1.8-2.4,2.6-4.1,3.1c-3.1,0.9-6.2,1.5-9.5,1.5c-0.2,0-0.5-0.1-0.7,0c-1.4,0.7-2.7,0.1-4-0.1c-1.4-0.2-2.4-1-3-2.3
		c-0.6-1.2-1.3-2.3-1.9-3.4c-0.3-0.5-0.5-0.7-1.1-0.7c-0.6,0-1.2,0-1.8,0c-0.4,0-0.8,0-1.3,0c0.4,0.2,0.7,0.5,1.1,0.7
		c1.2,0.9,1.9,3.5,1.2,4.7c-0.3,0.4-0.7,0.9-1.2,0.6c-1.6-0.9-3.4-1.6-3.9-3.6c1-0.6,1.5,0.4,2.2,0.7c0.3,0.2,0.7,0.5,1,0.1
		c0.3-0.3,0-0.7-0.3-0.9C31.6,21.1,30.5,21,29.4,21.9z"/>
	<path d="M9.9,11.1c-0.2,0.1-0.3,0.3-0.5,0.4c-0.5,0.2-1.1,0.2-1.6-0.1C7.3,11.1,7,10.5,7,9.8c0-0.7,0.4-1.1,1.1-1.3
		C9,8.3,9.7,8.5,10.2,9.4l0,0C10.6,10,10.2,10.6,9.9,11.1z"/>
	<path d="M25.3,15.5c-0.8,0-1.5,0-2.3,0c-0.3,0-0.9-0.3-0.8-0.4c0.1-0.6,0.6-0.4,1-0.4c1,0,1.9,0,2.9,0c2.3-0.1,4.5-0.8,6.2-2.4
		c1.5-1.3,1.2-2.5-0.7-3.1c-1.7-0.6-3.4-0.5-5.1,0.2c-1.5,0.6-3.1,1.3-4.6,1.9c-0.6,0.2-1.2,0.5-1.8,0.6c-0.1,0-0.4-0.1-0.4-0.2
		c0-0.1,0.1-0.3,0.2-0.5c0.1-0.1,0.3-0.2,0.5-0.3c2.2-0.9,4.4-1.8,6.6-2.7c1.8-0.7,5.4-0.4,6.8,1.4c0.7,0.9,0.8,1.1,0.2,2.1
		c-1.1,1.8-2.9,2.8-4.9,3.4c-1.2,0.3-2.5,0.4-3.7,0.6C25.3,15.6,25.3,15.5,25.3,15.5z"/>
</g>
</svg>
