<?xml version="1.0" encoding="iso-8859-1"?>
<!-- Generator: Adobe Illustrator 25.3.0, SVG Export Plug-In . SVG Version: 6.00 Build 0)  -->
<svg version="1.1" id="Calque_1" xmlns="http://www.w3.org/2000/svg" xmlns:xlink="http://www.w3.org/1999/xlink" x="0px" y="0px"
	 viewBox="0 0 73.3 33.5" style="enable-background:new 0 0 73.3 33.5;" xml:space="preserve">
<g>
	<path d="M54.3,30.1c-1.2,0.1-2.7-0.1-4.2-0.6c-1.2-0.4-2.4-0.6-3.6-0.8c-1.1-0.2-2.2-0.7-2.9-1.6c-0.6-0.9-1.3-0.8-2.2-0.5
		c-0.7,0.3-1.4,0.6-2.2,0.9c-1.8,0.6-3.6,0.9-5.4,0.9c-2.6,0-5.3,0.1-7.9-0.1c-2.2-0.1-4.4-0.4-6.6-0.6c-0.1,0-0.3,0-0.3,0.1
		c0,0.1,0,0.2,0.1,0.3c0.5,0.6,1,1.1,1.6,1.6c0.6,0.5,1.1,0.9,1,1.7c0,0.5,0.3,1,0.5,1.5c0.1,0.2,0,0.4,0,0.6c-0.2,0-0.4,0-0.6,0
		C19,33,17.7,31.1,17,28.9c-0.5-1.3-1.3-1.9-2.6-2.4c-1.8-0.7-3.7-1.1-5.6-1.6c-2.2-0.6-4.3-1.6-6.5-2.4c-1.1-0.4-1.5-1.3-2.1-2.1
		c-0.1-0.1,0-0.6,0.2-0.7c0.3-0.3,0.3-0.5,0-0.7c-0.5-0.4-0.4-0.8,0-1.2c1.2-1.3,2.2-2.7,3.5-4c1.5-1.5,2.5-3.4,3.8-5.1
		c0.6-0.8,0.8-1.8,1.5-2.6C9.4,5.7,9.2,5,9.2,4.4C9.2,3.8,9,3.2,9,2.6c0-0.6,0.1-1.2,1-0.9c0.3,0.1,0.7-0.2,0.9-0.4
		c0.3-0.4,0.5-1.1,0.9-1.3c0.3-0.2,0.9,0.3,1.4,0.3c1,0,1.2,0.1,1.7,1.1c0.2,0.5,0.6,0.9,0.9,1.3c1.2,1.2,1.3,1.2,2.1-0.3
		c0.2-0.4,0.5-0.8,0.8-1.2c0.3-0.4,0.7-0.7,1.1-0.1c0.3,0.4,0.8,0.3,1.1,0c0.4-0.5,0.9-0.5,1.5-0.5c1.3-0.1,2.5,0,3.8,0.4
		c1.2,0.4,2.6,0.3,3.9,0.4c0.2,0,0.6,0,0.7,0.1c0.7,0.7,1.5,0.6,2.4,0.6c0.4,0,0.9,0.2,1.3,0.4c0.4,0.2,0.8,0.6,1.3,0.6
		c1,0,2.1-0.1,2.8,0.9c0.1,0.1,0.4,0.2,0.5,0.2c1.1-0.6,1.7,0.1,2.4,0.7c0.4,0.3,1.1,0.3,1.7,0.4c0.2,0,0.4-0.1,0.5,0
		C44.8,6,46,6.4,47.3,5.7c0,0,0.1,0,0.2,0c2,0.9,3.9,0.2,5.9-0.1c0.2,0,0.5-0.1,0.7,0c1.1,0.7,2.4,0.3,3.6,0.7
		c1.4,0.5,2.8,1.2,3.3,2.8c0.5,1.6,1,3.1,1.3,4.7c0.1,0.6-0.2,1.4-0.3,2c0,0.2,0.1,0.4,0.1,0.7c0.1-0.1,0.3-0.2,0.4-0.3
		c1.5-0.7,2.9-1.5,4.4-2.2c0.3-0.1,0.8-0.1,1.2,0c0.6,0.1,1.1,0.4,1.7,0.4c1.5,0,2.1,1,2.6,2.2c0.6,1.5,1.1,3,0.7,4.6
		c-0.2,0.9-0.7,1.8-1,2.7c-0.2,0.5-0.2,1.1-0.7,1.6c-1.4,1.6-3.2,1.8-5,1.3c-1.8-0.5-3.4-1.3-5.1-2.1c-0.7-0.3-1.4-0.6-2.2-0.5
		c-0.2,0-0.3,0.1-0.5,0.1c0.1,0.1,0.2,0.3,0.3,0.4c0.4,0.4,0.8,0.7,1.1,1.1c0.8,1.3,0.5,2.5-0.9,3.3c-0.8,0.5-1.7,0.9-2.7,0.8
		C55.8,30.1,55.2,30.1,54.3,30.1z"/>
	<path d="M6.2,12.2c0.2,0,0.4,0.1,0.5,0.1c0.2-0.1,0.1,0.8,0.5,0.1c1.1-2,1.1-2,2.8-0.5c0.3,0.3,0.7,0.5,0.9,0.8
		c0.3,0.4,0.4,0.9,0.5,1.4c-0.6,0.2-1.3,0.6-1.8,0.4c-1.4-0.4-2.8-0.8-3.8-2C5.9,12.5,6,12.3,6.2,12.2z"/>
	<path d="M30.6,13.3c1.3,0.8,2.5,1.7,3.5,2.9c1.9,2.5,1.4,4-0.8,6c-2.7,2.5-6,3.7-9.7,3.8c-0.9,0-1.9,0.2-2.8,0.2
		c-1.4,0.1-2.2-0.8-2.9-1.8c-0.2-0.4-0.4-0.8,0.1-1c0.4-0.2,0.6,0.1,0.8,0.5c0.4,1.1,1.3,1.3,2.4,1.3c2.9,0,5.8-0.3,8.4-1.5
		c0.4-0.2,0.8-0.5,1.2-0.7c0.6-0.4,1.2-1,1.8-1.4c1.9-1.2,2.2-3.3,0.7-4.9c-0.5-0.6-1.1-1.1-1.7-1.6c-1.8-1.2-3.7-0.7-5.5-0.1
		c-1,0.3-1.9,0.7-2.9,1c-0.5,0.1-1.2,0.1-1.7,0c-0.1,0-0.2-0.4-0.3-0.6c0.1-0.1,0.3-0.2,0.4-0.1c1,0.3,1.7-0.3,2.5-0.7
		C26.3,13.6,28.3,13,30.6,13.3L30.6,13.3z"/>
	<path d="M18,9.1C18,9.2,18,9.4,17.9,9.6c-0.1,0.2-0.3,0.4-0.5,0.5c-0.5,0.2-1.1,0.4-1.6,0.6c-0.2-0.8,0.6-0.8,1-1.2
		C16.9,9.4,17,9.2,17,9c-0.2,0-0.3-0.2-0.5-0.1c-0.5,0.2-0.6,0-0.8-0.4c-0.1-0.3-0.3-0.6-0.5-0.9c-0.1-0.1,0-0.3,0-0.5
		c0.1,0,0.2,0,0.3,0c0.7,0.5,1.4,1,2.1,1.5C17.9,8.7,18,8.9,18,9.1z"/>
	<path d="M12.2,17.2c-0.3,0-0.7,0-0.9,0.2c-0.5,0.4-0.9,0.5-1.4,0c-0.1-0.1-0.2-0.1-0.3-0.1c-0.4-0.2-1.1,0.4-1.2-0.5
		c0.6-0.1,1.3-0.5,1.8-0.3c0.7,0.3,0.9,0.3,1-0.5c0-0.2,0.3-0.3,0.4-0.5c0.1,0.1,0.3,0.2,0.3,0.3C12.1,16.3,12.2,16.7,12.2,17.2
		C12.3,17.2,12.2,17.2,12.2,17.2z"/>
	<path d="M11.6,9.5c0,0.7-0.6,0.9-1,1.1c-0.2,0.1-0.5,0.2-0.7,0.3c-0.1-0.3-0.4-0.7-0.3-0.9c0.4-0.6,0.9-1.2,1.4-1.8
		c0,0,0.2,0,0.3,0.1C11.3,8.6,11.4,9.1,11.6,9.5z"/>
	<path d="M14.8,8.4c-0.1,0.1-0.2,0.3-0.4,0.5c-0.1-0.2-0.3-0.4-0.4-0.6c-0.1-0.4-0.2-0.7-0.7-0.5c-0.1,0-0.3-0.2-0.4-0.4
		c0-0.1,0.2-0.3,0.3-0.4C14.2,6.6,14.8,7.2,14.8,8.4z"/>
	<path d="M17.5,10.9c0,0.1-0.1-0.3,0.1-0.4c0.3-0.2,1.1,0.4,1.1,0.8c0,0.4-0.5,0.9-0.9,0.9C17.7,12.2,17.7,12.2,17.5,10.9z"/>
	<path d="M62.1,19.7c0.4,0.2,0.8,0.4,1.1,0.7c0.1,0.1,0.1,0.3,0.1,0.5C63.2,21,63,21,62.8,21c-0.3,0-0.6-0.1-0.8-0.2
		c-0.2-0.1-0.4-0.3-0.7-0.4C61.6,20.2,61.8,20,62.1,19.7z"/>
	<path d="M57.6,19.6c0.3,0.2,0.7,0.3,0.9,0.5c0.1,0.1,0.1,0.3,0.1,0.5c0,0.1-0.2,0.2-0.3,0.1c-0.3-0.1-0.6-0.1-0.8-0.2
		c-0.2-0.1-0.3-0.3-0.4-0.4C57.2,19.9,57.3,19.7,57.6,19.6z"/>
	<path d="M53.4,19.7c-0.4,0-0.6,0-0.8-0.1c-0.1,0-0.2-0.2-0.2-0.4c0-0.1,0.1-0.2,0.2-0.2c0.2,0,0.5-0.1,0.7,0
		c0.2,0.1,0.5,0.2,0.7,0.4C53.7,19.5,53.5,19.6,53.4,19.7z"/>
	<path d="M46.8,18.2c-0.1,0.1-0.1,0.2-0.2,0.2c-0.1,0-0.2,0-0.3-0.1c-0.3-0.2-0.7-0.4-1-0.6c0.1-0.1,0.2-0.2,0.2-0.2
		c0.5-0.1,0.9,0,1.2,0.5C46.7,18.1,46.7,18.1,46.8,18.2z"/>
	<path d="M34.2,13.6c0.2,0.3,0.4,0.5,0.5,0.7c0,0.1-0.1,0.3-0.2,0.3c-0.4,0.1-0.7-0.1-0.6-0.6C33.9,14,34.1,13.8,34.2,13.6z"/>
	<path d="M38.5,16.2c-0.2-0.2-0.4-0.3-0.6-0.5c0.1-0.1,0.3-0.3,0.4-0.3c0.3,0.1,0.5,0.3,0.8,0.5C38.9,16,38.8,16.1,38.5,16.2z"/>
	<path d="M30.6,13.3c0.1-0.2,0.1-0.6,0.3-0.6c0.2,0,0.5,0.1,0.7,0.2c-0.2,0.1-0.3,0.3-0.5,0.4C31,13.3,30.8,13.3,30.6,13.3
		L30.6,13.3z"/>
	<path d="M41.6,17.3c-0.3-0.2-0.5-0.4-0.7-0.5c0.1-0.1,0.2-0.3,0.3-0.3c0.3,0.1,0.5,0.3,0.7,0.4C41.8,17,41.8,17.1,41.6,17.3z"/>
</g>
</svg>
