<?xml version="1.0" encoding="iso-8859-1"?>
<!-- Generator: Adobe Illustrator 25.3.0, SVG Export Plug-In . SVG Version: 6.00 Build 0)  -->
<svg version="1.1" id="Calque_1" xmlns="http://www.w3.org/2000/svg" xmlns:xlink="http://www.w3.org/1999/xlink" x="0px" y="0px"
	 viewBox="0 0 64.3 40" style="enable-background:new 0 0 64.3 40;" xml:space="preserve">
<g>
	<path d="M42.3,9.7c0,0.5,0,1.1,0,1.6c0.1,1.2-0.6,1.8-1.6,2.3c-0.6,0.3-1.2,0.6-1.9,0.9c0.6,0.3,1.2,0.7,1.9,0.9
		c3.1,1.1,6.3,1.8,9.6,2c1.4,0.1,2.6-0.3,3.8-0.9c1.7-0.8,3.4-1.6,5.2-2.4c0.8-0.3,1.7-0.6,2.6-0.8c1.5-0.3,2.4,0.5,2.4,2
		c0,0.5-0.1,1.1-0.3,1.6c-0.2,0.6-0.4,1.2-0.8,1.8c-1,1.7-0.9,3.5-0.1,5.3c0.1,0.3,0.3,0.7,0.4,1c0.4,0.9,0.3,1.8-0.2,2.7
		c-0.9,1.5-1.7,1.9-3.4,1.4c-2.4-0.8-4.7-1.7-7.1-2.4c-1.1-0.4-2.3-0.6-3.5-0.9c-0.3-0.1-0.7,0-1.1,0c-2.1,0.2-4.3,0.5-6.4,0.7
		c-0.5,0.1-1,0.2-1.5,0.4c-0.1,0-0.2,0.2-0.4,0.4c0.1,0.1,0.3,0.1,0.4,0.2c0.7,0.1,1.4,0.3,2.1,0.4c1.3,0.3,1.7,0.7,1.6,1.9
		c-0.1,1.5-0.2,3.1-0.4,4.6c-0.1,0.5-0.4,1-0.7,1.4c-1.1,1.5-2.3,2.4-4.2,1c-1.2-0.9-2.4-1.8-3.5-2.8c-1.1-1-2.1-2-3.2-3
		c-0.2-0.2-0.6-0.3-0.8-0.2c-1.8,0.6-3.7,0.2-5.5,0.3c-0.9,0-1.8,0-2.7,0c-0.2,0-0.5,0-0.7,0.1c0.2,0.1,0.4,0.3,0.6,0.4
		c0.8,0.5,1.7,0.9,2.5,1.4c0.5,0.3,0.9,0.9,0.7,1.5c-0.7,1.6-1.3,3.2-2.2,4.6c-0.7,1.1-1.5,1-2.1-0.2c-1-2.1-2.1-4.1-2.9-6.3
		c-0.5-1.4-1.2-2-2.7-2.3c-1.6-0.3-3.2-0.3-4.8-0.3c-3.4,0.1-6.6-0.7-9.9-1.5c-0.5-0.1-1-0.5-1.3-0.9C0,27.5-0.1,27,0,26.7
		c0.1-0.4,0.5-0.6,1-0.4c0.6,0.2,1.3,0.1,2,0.1c0.2,0,0.3-0.1,0.5-0.1c-0.1-0.1-0.1-0.3-0.3-0.4c-0.7-0.6-1.5-1.2-2.2-1.8
		c-0.4-0.4-0.6-0.8-0.1-1.2c1.8-1.6,3.3-3.4,5.2-4.9c2-1.6,4-2.9,6.2-4.2c1.5-0.9,3.2-1.6,4.8-2.3c1.1-0.5,1.9-0.9,2.5-2.2
		c1.2-2.8,2.5-5.7,4.5-8.1c0.2-0.2,0.3-0.5,0.5-0.7c0.7-0.7,1.3-0.6,1.7,0.2c1.2,2.7,1.6,5.4,1,8.3c-0.1,0.3-0.1,0.6-0.1,0.9
		c0,0.5,0,1,0.6,1.2c0.6,0.1,1.2,0.3,1.7-0.3c0.8-1,1.6-1.9,2.4-2.9c1-1.2,2-2.3,3.6-2.7c0.4-0.1,0.8-0.5,1.2-0.8
		c2.3-2.4,4.8-0.7,5.3,1.7c0.3,1.2,0.4,2.4,0.5,3.7C42.4,9.7,42.4,9.7,42.3,9.7z"/>
	<path d="M10.3,22.5C10,22.8,9.7,23,9.5,23.3c-1.8,0.6-2.6,0.3-3.2-0.9c-0.5-1.2,0-2.2,1-2.8c0.7-0.5,1.4-0.6,2.1,0
		C10.6,20.4,10.8,21.3,10.3,22.5z"/>
	<path d="M26.5,27.8c-1.6-0.1-3.2-0.2-4.8-0.3c-1.1-0.1-1.3-0.5-1.1-1.6c0.1-0.7,0.4-1.5,0.3-2.3c-0.1-1,0.3-1.3,1.1-1.5
		c1.7-0.4,3.4-0.9,5.2-1.4c1.2-0.3,2.4-0.6,3.6-0.9c0.1,0,0.2-0.1,0.3-0.1c1-0.1,2-0.3,2.8,0.7c0.6,0.8,0.6,1.7-0.4,2.7
		c-1.4,1.5-3,2.9-4.6,4.2c-0.6,0.5-1.6,0.5-2.3,0.7C26.5,28,26.5,27.9,26.5,27.8z"/>
	<path d="M17.1,17.2c0-0.9,0.8-1,1.4-1.1c1.6-0.3,3.3-0.6,4.9-0.7c1.2-0.1,2.4,0.2,3.5,0.3c3.5,0.4,6.9,1.2,10.2,2.6
		c1.5,0.7,3.1,1.4,4.6,2.1c1.7,0.8,3.6,1.1,5.5,1.4c1.3,0.2,2.6,0.3,3.9,0.4c0.1,0,0.3,0.2,0.4,0.2c-0.2,0.1-0.3,0.4-0.5,0.4
		c-1.5-0.1-3-0.3-4.4-0.5c-3-0.4-5.7-1.7-8.4-2.9c-3.2-1.4-6.5-2.3-9.9-2.9c-1.5-0.3-3.1-0.4-4.6-0.4C21.5,16.3,19.2,16.5,17.1,17.2
		L17.1,17.2z"/>
</g>
</svg>
