<?xml version="1.0" encoding="iso-8859-1"?>
<!-- Generator: Adobe Illustrator 25.3.0, SVG Export Plug-In . SVG Version: 6.00 Build 0)  -->
<svg version="1.1" id="Calque_1" xmlns="http://www.w3.org/2000/svg" xmlns:xlink="http://www.w3.org/1999/xlink" x="0px" y="0px"
	 viewBox="0 0 85.3 17.4" style="enable-background:new 0 0 85.3 17.4;" xml:space="preserve">
<g>
	<path d="M36.5,0.1c1,0,2,0,3.1,0c2-0.1,3.9,0.3,5.8,0.6c1.4,0.2,2.7,0.3,4.1,0.4c2.1,0.2,4.2,0.2,6.2,0.4c1.3,0.1,2.6,0.2,3.9,0.4
		c2.1,0.3,4.2,0.6,6.4,0.7c3,0.1,6,0.2,8.9,0.4C76.5,3,78,3.2,79.6,3.3c1.2,0,2.4-0.2,3.5-0.3c0.2,0,0.4,0,0.5,0
		c1.2,0,1.6,0.3,1.6,1.2c0,0.9-0.9,1.6-1.9,1.5c-0.8-0.1-1.5-0.3-2.3-0.4c-2.3-0.5-4.5-0.3-6.8-0.1c-0.2,0-0.5,0.2-0.7,0.1
		c-2-0.2-3.6,0.5-5.2,1.5c-2.2,1.3-4.7,1.7-7.1,2.1C59.9,9,58.4,9.2,57,9.6c-1.5,0.5-3.1,0.7-4.7,1c-1.7,0.3-3.3,0.9-5,1.3
		c-1.8,0.4-3.5,1-5.4,0.9c-0.8,0-1.6,0.4-2.4,0.7c-2.5,1.1-5.1,1.7-7.8,1.7c-1,0-1.9,0.2-2.8,0.6c-2.8,1.3-5.7,1.7-8.7,1.5
		c-2.8-0.3-5.5-1.1-7.8-2.7c-2.1-1.5-4.4-2.3-6.8-3c-1.3-0.4-2.6-0.9-3.9-1.4C1,9.9,0.5,9.4,0.2,8.6C-0.3,7.2,0,6.7,1.4,6.2
		c1.3-0.5,2.7-0.9,4.1-1.3C7.2,4.3,9,3.7,10.7,3.3c2.6-0.7,5.3-1.3,8-1.7c2.4-0.4,4.8-0.7,7.2-1c0.2,0,0.4,0,0.5,0
		C29.8,0.3,33.2,0.1,36.5,0.1C36.5,0,36.5,0,36.5,0.1z"/>
	<path d="M15.7,8.8c0.5,0.2,1.3,0.2,1.5,0.6c0.3,0.6-0.5,1-0.8,1.4c-1.2,1.5-2.9,1-4.4,1.1c-0.3,0-0.7-0.4-1-0.7
		c-0.5-0.7-0.3-1.3,0.5-1.5C12.8,9.4,14.2,9.1,15.7,8.8z"/>
	<path d="M2.8,6.5c0.1,0,0.1,0,0.2,0c0.5,0,1,0.1,0.8,0.8c-0.1,0.5-0.7,0.5-1,0.3C2.2,7.3,2.6,6.9,2.8,6.5L2.8,6.5z"/>
</g>
</svg>
