<?xml version="1.0" encoding="iso-8859-1"?>
<!-- Generator: Adobe Illustrator 25.3.0, SVG Export Plug-In . SVG Version: 6.00 Build 0)  -->
<svg version="1.1" id="Calque_1" xmlns="http://www.w3.org/2000/svg" xmlns:xlink="http://www.w3.org/1999/xlink" x="0px" y="0px"
	 viewBox="0 0 87.3 43.6" style="enable-background:new 0 0 87.3 43.6;" xml:space="preserve">
<g>
	<path d="M34.9,0c2.3,0.1,4.6,0,6.7,0.9c1.5,0.6,2.9,1.4,4.3,2.1c0.6,0.3,1.1,0.5,1.7,0.7c1.2,0.4,2.4,0.8,3.3,1.7
		c0.2,0.2,0.4,0.3,0.6,0.3c1.7,0,3.4,0.5,5.1-0.1c1.9-0.7,3.8-1.3,5.8-1.8c1-0.2,2.2-0.2,3.2-0.1c0.5,0.1,0.9,0.6,1.4,1
		c0.1,0.1,0,0.4-0.1,0.6c-0.9,1.3-1.2,2.7-1,4.2c0.2,1.6-0.9,2.6-1.8,3.7c-0.2,0.3-1.2,0.3-1.8,0.2c-0.7-0.1-1.4-0.3-2.1-0.5
		c-0.5-0.1-1-0.2-1.5-0.3c-0.1,0-0.3,0.4-0.3,0.6c0,0.1,0.2,0.2,0.4,0.3c1.5,1,3,1.9,4.7,2.3c0.2,0.1,0.5,0,0.7,0.1
		c1.5,1.6,3.4,0.9,5.1,1c1.9,0.1,3.5-0.7,4.9-1.9c1.9-1.6,3.9-3.2,5.8-4.8c1.2-1,2.8-1.4,4.3-1.8c1-0.3,2.1-0.2,2.8,0.7
		c0.2,0.2,0.3,0.7,0.2,0.9c-1.3,2.1-1,4.3-1.1,6.6c-0.1,2.3,0,4.7-0.6,7c-0.1,0.4,0,0.8,0.1,1.2c0.2,0.9,0.6,1.8,0.8,2.7
		c0.2,1-0.1,1.5-1.1,1.6c-1.4,0.2-2.7,0-3.9-0.6c-2.2-1.1-4.3-2.3-6.5-3.4c-0.5-0.3-0.9-0.6-1.3-0.9c-0.7-0.6-1.6-0.8-2.5-0.7
		c-1.9,0.2-3.9,0.5-5.8,0.8c-0.3,0.1-0.7,0.5-0.8,0.8c-0.3,0.7-0.7,1-1.3,1.3c-0.7,0.4-1.2,1.1-1.7,1.7c-0.3,0.4-0.1,0.7,0.4,0.7
		c0.5,0,1-0.1,1.4-0.1c0.9-0.1,1.8-0.2,2.7-0.2c1.2,0,1.8,0.8,1.7,1.9c-0.1,0.9-0.2,1.9-0.3,2.8c0,0.5,0,1.1,0,1.6
		c-0.2,2-1.5,3.3-3.6,3.4c-2.1,0.1-3.9-0.5-5.6-1.5c-0.7-0.4-1.3-0.9-2-1.2c-0.6-0.3-1.2-0.4-1.8-0.6c-0.5-0.1-1.1-0.4-1,0.6
		c0,0.3-0.4,0.6-0.6,0.8c-0.3,0.3-0.8,0.6-1.1,0.9c-2.1,2.2-4.9,3.4-7.7,4.6c-2.7,1.1-5.5,1.6-8.4,1.4c-0.8-0.1-1.7,0-2.5,0
		c-3,0.1-5.8-0.5-8.6-1.5c-3.8-1.4-7.5-3.1-10.8-5.5c-1.5-1.1-3-2.3-4.4-3.6c-1.5-1.2-2.9-2.5-4.8-3.2c-1.9-0.7-2.7-2.4-3.6-4.1
		c-0.1-0.2-0.1-0.6-0.2-0.7c-1.1-0.8-0.5-1.6,0-2.4c1.2-1.9,2.6-3.6,4.4-5.1c1.2-1,2.2-2.1,3-3.5c1-1.7,2.4-3,4.1-4
		c2.3-1.3,4.4-2.9,6.6-4.3c0.1-0.1,0.2-0.2,0.3-0.2c3.4-2.9,5.7-4.2,9.1-4.8C30.3,0.3,32.6,0.2,34.9,0z"/>
	<path d="M28.5,21c-0.6,0.4-1,1-1.3,1.8c-0.5,1.8-1.4,3.3-3.3,3.9c-0.1,0-0.2,0.1-0.3,0.2c0.2,0.1,0.4,0.1,0.5,0.2
		c0.1,0.1,0.2,0.3,0.3,0.5c-0.2,0.1-0.4,0.2-0.5,0.2c-1.3-0.5-2.7-1-3.2-2.5c-0.4-1.2-0.5-1-1.6-0.5c-0.3,0.2-0.6,0.3-0.9,0.6
		c-0.5,0.5-1.2,0.5-1.7,0.2c-2.2-1-4.5-1-6.8-0.9c-0.8,0-1.5,0-2.3-0.1c-0.2,0-0.5-0.2-0.7-0.1c-0.5,0.1-1,0.4-1.1-0.3
		c0-0.2,0.7-0.5,1.1-0.8c0.1-0.1,0.3-0.1,0.3-0.1c1.3,0.7,2.6-0.1,3.8,0c0.4,0,0.8-0.1,1.2-0.1c0.5,0,1-0.1,1.5-0.1
		c0.2,0,0.5,0.1,0.7,0c0.8-0.5,1.5-0.6,2.3-0.1c0.2,0.1,0.8-0.3,0.9-0.5c0.2-0.4,0.3-1,0.2-1.5c-0.2-0.7,0.1-1,0.6-1.3
		c0.5-0.2,1.2-0.1,1.4-0.8c0.1,0.1,0.4,0.2,0.4,0.3c0,0.9,0,1.8,0,2.7c0,0.2,0.1,0.3,0.1,0.5c0.1-0.2,0.1-0.3,0.2-0.5
		c0.6-2.1,1.2-4.2,2.5-6c0.5-0.7,1.3-1.2,2-1.7c0.7-0.4,1.3-0.2,1.6,0.6c0.7,1.8,1.4,3.6,1.2,5.7C27.8,20.6,27.9,21,28.5,21L28.5,21
		z"/>
	<path d="M40.2,31.4c-2-0.3-4.6-0.1-7.2-0.9c-1.1-0.3-2.4-0.2-3.6-0.1c-1.5,0.1-3-0.3-4.4-0.5c-0.9-0.1-1.8,0-2.6,0
		c-0.8,0-1.6,0-2.5,0c-1,0-1.9-0.1-2.9-0.2c-0.6-0.1-1.1-0.3-1.7-0.5c-0.1,0-0.1-0.2-0.1-0.3c0-0.1,0.2-0.2,0.3-0.2
		c1.6,0.2,3.2,0.5,4.7,0.7c0.4,0.1,0.8,0,1.2,0c1.7,0,3.3,0.1,5,0.1c0.7,0,1.3,0.1,2,0.1c1.7,0.1,3.5,0.1,5.2,0.4
		c2.4,0.4,4.8,0.6,7.3,0.7c1.3,0,2.6,0.2,3.7-0.9c0.1-0.1,0.4,0,0.7,0c-0.1,0.2-0.2,0.4-0.3,0.5C43.3,31.4,43.3,31.4,40.2,31.4z"/>
	<path d="M38.4,13.1c1.8-0.5,3.5,0.3,5,1.3c1.2,0.9,2.7,1.3,4,1.8c0.7,0.3,1.4,0.7,2,1c0.3,0.1,0.5,0.3,0.8,0.4
		c0.2,0.1,0.8-0.2,0.6,0.4c0,0.1-0.7,0.2-0.9,0c-1.5-1-3.1-1.6-4.9-2.1c-1-0.3-1.9-1-2.8-1.6c-0.7-0.4-1.3-0.7-2.2-0.7
		c-0.6,0-1.2-0.2-1.8-0.2c-0.9,0-1.8,0.2-2.6,0.2c-0.2,0-0.4-0.2-0.6-0.2c0.2-0.1,0.3-0.4,0.5-0.4C36.6,13.1,37.4,13.1,38.4,13.1z"
		/>
	<path d="M20.3,11.2c-0.1-0.1-0.2-0.1-0.3-0.2c0-0.1,0-0.3,0.1-0.3c1.2-0.4,2.1-1.7,3.6-0.9c0.2,0.1,0.5,0,0.7-0.1
		c2.3-0.6,4.5-1.3,6.8-1.9c0.5-0.1,1.1-0.1,1.6-0.1c0.1,0,0.2,0.1,0.3,0.2c-0.1,0.1-0.2,0.2-0.3,0.2c-2.6,0.7-5.2,1.4-7.8,2.1
		c-0.2,0-0.4,0.1-0.5,0.1c-1.4-0.2-2.6,0.1-3.7,0.9C20.5,11.2,20.4,11.2,20.3,11.2z"/>
	<path d="M28.5,21c1.7-1.4,3.7-2.2,5.9-2.2c1,0,1.9,0,2.9,0c0.2,0,0.3,0.2,0.5,0.4c-0.2,0.1-0.4,0.3-0.6,0.3c-0.6,0-1.2,0.1-1.8,0
		c-2-0.2-3.8,0.2-5.5,1.1C29.5,20.9,29,20.9,28.5,21L28.5,21z"/>
	<path d="M7.2,27.1c0.2,0,0.5,0,0.7,0c1.8,0.4,3.7,0.7,5.5,1.2c0.2,0,0.3,0.3,0.5,0.5c-0.2,0.1-0.4,0.2-0.6,0.2
		c-0.8-0.1-1.5-0.2-2.3-0.4c-1.5-0.3-3-0.7-4.5-1c-0.2,0-0.3-0.1-0.5-0.2c0.1-0.1,0.3-0.2,0.4-0.2C6.7,27,7,27,7.2,27.1
		C7.2,27.1,7.2,27.1,7.2,27.1z"/>
	<path d="M30.3,12c0.8-0.1,1.5,0,2.1,0.7c0.2,0.3,0.5,0.6,0.8,0.8c-0.6,0.4-0.8-0.3-1.1-0.4c-0.6-0.2-1.2-0.4-1.8-0.6
		c-0.8-0.3-1.1,0.4-1.6,0.8c-0.1,0.1-0.3,0-0.5,0c0.1-0.1,0.1-0.3,0.2-0.4C28.6,12,29.4,11.9,30.3,12z"/>
	<path d="M43.9,20.9c0,0.1,0,0.1,0,0.2c-0.1,0-0.2,0.1-0.3,0c-1.2-1-2.7-1-4.1-1.5c-0.1,0-0.2-0.1-0.3-0.2c0.1-0.1,0.2-0.2,0.3-0.2
		c1.7-0.1,3.1,0.5,4.4,1.5C43.9,20.8,43.9,20.9,43.9,20.9z"/>
</g>
</svg>
