<?xml version="1.0" encoding="iso-8859-1"?>
<!-- Generator: Adobe Illustrator 25.3.0, SVG Export Plug-In . SVG Version: 6.00 Build 0)  -->
<svg version="1.1" id="Calque_1" xmlns="http://www.w3.org/2000/svg" xmlns:xlink="http://www.w3.org/1999/xlink" x="0px" y="0px"
	 viewBox="0 0 213.5 133" style="enable-background:new 0 0 213.5 133;" xml:space="preserve">
<g>
	<path d="M65.9,71c8.7,0.7,17.1,1.3,25.5,2c4.6,0.4,9.2,0.7,13.8,1.2c3.9,0.4,7.9,0.8,11.8,1.5c1.9,0.3,3.5,0.3,5.3-0.5
		c4.8-2.2,9.7-4.2,15.1-4.6c0.7,0,1.3-0.4,1.9-0.3c9.6,1.7,19.3,0.2,28.9,1c5,0.4,10.3,0.1,15,2.8c1.1,0.6,2.5,1.1,3.3,2
		c2.3,2.4,5.3,3.4,8.4,3.9c0.3,0.1,0.7,0,1,0c3.9,0.7,4.9,2.5,3.4,6.3c-0.5,1.2-1,2.3-1.6,3.5c1.4-0.3,2.8-0.4,4.2-0.8
		c5-1.6,9.9,1.1,11.1,6.1c1,4.2-2.8,9.3-7.5,10.2c-0.6,0.1-1.3,0.2-2,0.1c-2.3-0.4-3,0.6-3.5,2.9c-0.7,3-3.1,5.1-5.5,6.9
		c-4.6,3.4-9.8,5.6-15.3,7c-9.1,2.4-18.2,4.8-27.4,6.7c-6.6,1.3-13.4,1.9-20.2,2.4c-3.9,0.2-7.9-0.4-11.9-0.9
		c-1.6-0.2-3.3-0.8-4.6-1.7c-4.1-2.8-8.6-4.1-13.5-4.3c-4.3-0.2-8.6-0.7-12.8-1.3c-1.3-0.2-1.4,0.2-1.4,1.2c0,2.5,0.1,4.9-0.1,7.4
		c-0.1,1.6-1.1,1.9-2.4,0.9c-0.8-0.6-1.5-1.4-2.2-2.1c-0.8-0.8-1.5-1.3-2.5-0.3c-1.4,1.4-2.3,0.7-3-0.8c-0.3-0.8-0.7-1.5-0.9-2.3
		c-0.3-1.4-0.2-3.2-1-4.1c-0.6-0.7-2.5-0.3-3.8-0.5c-5.8-0.6-11.5-1.2-17.2-1.9c-6.4-0.9-12.7-1.9-19.1-3c-9-1.7-17.6-4.8-26-8.3
		c-2.8-1.2-5.2-3.6-7.3-5.8c-2.7-3-2.4-6,0.6-8.7c2.1-1.9,4.4-3.5,6.8-5c8.7-5.3,17.5-10.3,27-13.8c6.1-2.2,12.3-3.8,18.9-3.7
		C58.9,72,62.5,71.4,65.9,71z"/>
	<path d="M90.4,3.2c5.3,0,10.7-0.2,16,0c6.9,0.3,13.9,1,20.8,1.5c4.1,0.3,8.3,0.5,12.4,0.4c1.4,0,3.2-0.4,4.1-1.3
		c4.8-4.9,10.6-3.9,16.4-3.2c0.7,0.1,1.3,0.4,1.9,0.4c6.5-0.4,12.8,1.4,19.2,2.3c5.2,0.7,9.7,3.2,13.8,6.5c2,1.6,1.7,2.9-0.5,5.4
		c-0.4,0.4-0.5,1-0.8,1.5c0.6,0,1.2,0,1.8-0.1c2.3-0.3,3.7-2.1,5.3-3.5c2.8-2.5,6-3.2,8.6-1.6c2.3,1.4,3.2,3.9,3.7,6.3
		c0.7,4.1,0.5,8.3-1.7,12.1c-0.8,1.4-2,2.6-3.3,3.5c-1.7,1.3-3.7,1.5-5.5,0c-1.5-1.3-3.2-2.4-4.8-3.6c-1.6-1.3-3.3-1.2-5.1-0.4
		c-1.4,0.6-1.3,1.1-0.3,2c1.5,1.4,1.2,3.1-0.1,4.4c-1,1-2.2,2.2-3.5,2.5c-3.5,0.9-7.1,1.8-10.7,2c-8,0.3-16,0.2-24,0.2
		c-1.5,0-3-0.3-4.4-0.8c-5.9-2-11.7-1.5-17.7-0.3c-1.2,0.2-1.8,0.6-1.3,1.9c0.2,0.6,0.4,1.3,0.5,1.9c0.1,2.3-1.1,3.5-3.4,3.1
		c-1.6-0.3-3-0.7-4.7-0.1c-1.7,0.6-2.9-0.9-3.1-2.4c-0.6-3.2-2.7-3.7-5.4-3.4c-12.4,1.5-24.9,0.9-37.4,1.1c-0.4,0-0.9,0.2-1.3,0.3
		c0.3,0.4,0.6,0.8,0.9,1.1c0.5,0.4,1.2,0.7,1.6,1.1c1.1,1.1,0.7,2.8-0.9,3c-1.4,0.2-3,0.2-4.3-0.3c-2.5-0.9-4.7-2.3-7.1-3.5
		c-0.7-0.3-1.5-1-1.8,0.5c-0.5,2.4-2.3,2-3.2,0.8c-2.7-4-6.5-4-10.8-4.4c-6.9-0.6-13.6-2.5-20.5-3.4c-4.6-0.6-9.2-1-13.6-2.4
		c-5.6-1.9-10.8-4.3-14.6-9.1c-1.9-2.3-1.6-2.5,0.3-5c2.6-3.4,5.7-4.2,9.8-4.2c10.6,0,20.5-3.1,30-7.6c4.5-2.1,9.4-3.2,14.4-3.4
		c4.3-0.2,8.5-1.2,12.8-1.5c4.3-0.3,8.6-0.3,13-0.3C84.7,3.1,87.6,3.1,90.4,3.2C90.4,3.2,90.4,3.2,90.4,3.2z"/>
	<path d="M43.2,20.2c0.3,1.6,0.7,3.1,0.9,4.7c0.1,0.6-0.2,1.2-0.3,1.8c-0.5-0.5-1.4-1-1.4-1.6c-0.2-1.6-0.1-3.2-0.1-4.8
		C42.6,20.2,42.9,20.2,43.2,20.2z"/>
	<path d="M188.1,98.9c-3.3,0.5-6.5,0.7-9.7,1.4c-6,1.2-12.2,0.7-18,2.7c-1.4,0.5-3,0.2-4.5,0.2c-1.6,0-3.2-0.2-4.9-0.4
		c1.5-0.2,3-0.4,4.6-0.6c1.9-0.3,3.9-0.7,5.8-1c8.7-1.1,17.2-3,26-3.1c2.1,0,4.2-0.7,6.3-0.9c0.6-0.1,1.3,0.5,1.9,0.8
		c-0.7,0.4-1.3,1.1-2,1.1c-1.8,0.2-3.6,0.1-5.5,0.1C188.1,99.1,188.1,99,188.1,98.9z"/>
	<path d="M14.3,102.1c-1.8,0.1-4-1.8-4.2-3.5c-0.2-2.1,1.6-4.2,3.8-4.4c1.9-0.2,4.1,1.6,4.2,3.4C18.3,99.3,16,102,14.3,102.1z"/>
	<path d="M102.2,95.2c2.1,0.3,4.2,0.5,6.3,1.1c2.9,0.8,5.8,2,8.7,2.9l0,0C111.9,99.4,106.8,98.1,102.2,95.2L102.2,95.2z"/>
	<path d="M140.4,103.5c-3.6-0.4-7.2-0.9-10.8-1.3c-0.3,0-0.5-0.3-0.7-0.5c0.3-0.1,0.6-0.4,0.9-0.4c1.2,0,2.3-0.1,3.5,0
		c3.6,0.3,7.2,0.7,10.8,1c0.5,0,0.9,0.2,1.4,0.3c-0.5,0.2-1,0.6-1.6,0.6c-1.2,0.1-2.3,0-3.5,0C140.4,103.3,140.4,103.4,140.4,103.5z
		"/>
	<path d="M117.2,99.2c1.9,0.3,3.9,0.5,5.8,0.8c0.8,0.1,1.6,0.5,2.5,0.8c-1,0.1-2,0.5-2.9,0.3C120.8,100.7,119,99.9,117.2,99.2
		L117.2,99.2z"/>
	<path d="M32.3,102.2c-0.3-0.5-0.8-0.9-1-1.5c-0.3-1-0.3-2-0.4-3.1c0,0,0.3-0.2,0.4-0.1c1.7,0.7,0.8,2.2,1,3.3
		C32.3,101.3,32.2,101.8,32.3,102.2C32.2,102.2,32.3,102.2,32.3,102.2z"/>
	<path d="M32.2,102.2c0.3,0.2,0.7,0.3,0.7,0.6c0.4,1.2,0.8,2.4,1.1,3.5c-0.2,0-0.7,0.1-0.7,0C32.7,105.1,30.8,104.1,32.2,102.2
		L32.2,102.2z"/>
	<path d="M15,19.2c0.5,0,1.1-0.2,1.5,0c0.9,0.6,2.1,1.4,2.2,2.2c0,0.8-1,2.2-1.9,2.5c-0.8,0.3-2.1-0.3-3-0.8
		c-0.3-0.1-0.4-0.9-0.6-1.3C12.4,19.7,12.8,19.2,15,19.2z"/>
	<path d="M24.5,24.3c-0.7,0.6-1.2,1.5-1.8,1.6c-0.8,0.2-1.7-0.3-2.6-0.4c0.1-0.4,0.1-1.1,0.2-1.1c2-0.2,1.5-1,0.6-2.1
		c-0.3-0.4-0.1-1.1-0.1-1.6c0.5,0.3,1.1,0.4,1.5,0.8C23,22.2,23.6,23.2,24.5,24.3z"/>
</g>
</svg>
