<?xml version="1.0" encoding="iso-8859-1"?>
<!-- Generator: Adobe Illustrator 25.3.0, SVG Export Plug-In . SVG Version: 6.00 Build 0)  -->
<svg version="1.1" id="Calque_1" xmlns="http://www.w3.org/2000/svg" xmlns:xlink="http://www.w3.org/1999/xlink" x="0px" y="0px"
	 viewBox="0 0 83.2 26.9" style="enable-background:new 0 0 83.2 26.9;" xml:space="preserve">
<g>
	<path d="M22.6,22.2c-4.5-0.2-9-0.5-13.4-1.6C6.6,20,4,19.4,1.6,18.3c-0.4-0.2-0.7-0.4-1.1-0.6c-0.4-0.2-0.7-0.5-0.3-1
		c0.1-0.1,0.3-0.4,0.2-0.4c-0.8-1,0.1-1.3,0.7-1.7c2.3-1.6,4.7-2.7,7.5-3.3c0.4-0.1,0.8-0.2,1.2-0.2c2.3,0,4.6-0.4,6.9-0.7
		c2.6-0.3,5.2-0.5,7.8-0.8c2.1-0.2,4.3-0.5,6.4-0.7c0.4,0,0.8-0.3,1-0.6c0.4-0.5,0.9-1,1.2-1.6c1.3-2.2,3.2-3.8,5-5.6
		C40-0.6,41-0.4,41.7,2c0.6,2.1,0.8,4.2-0.3,6.2c-0.3,0.6-0.2,0.8,0.4,1c0.3,0.1,0.6,0.1,0.9,0.1c1.8,0,3.7,0.1,5.5,0.3
		c2.3,0.3,4.6,0.3,7,0.4c1.1,0.1,2.1,0.3,3.2,0.4c1.1,0.1,2.2,0.2,3.4,0.3c0.9,0.1,1.8,0,2.6-0.5c0.3-0.2,0.8-0.4,1.2-0.3
		c0.5,0,1,0.2,1.4,0.5c0.3,0.2,0,1,0.7,1c0.8,0,1.7,0.3,2.5,0c3-0.9,6.1-1.7,8.8-3.3c0.8-0.5,1.7-0.7,2.6-1.1
		c0.5-0.2,0.9-0.2,1.3,0.2c0.4,0.5,0.4,1.1-0.1,1.6c-1.1,1.1-2.1,2.1-3.2,3.1c-0.1,0.1-0.3,0.2-0.5,0.3c-1,0.8-1.1,1.7-0.2,2.7
		c0.7,0.8,1.6,1.5,2.3,2.3c0.6,0.8,1.2,1.6,1.6,2.5c0.2,0.3,0.2,0.9,0.1,1.1c-0.3,0.3-0.9,0.4-1.3,0.3c-0.9-0.2-1.8-0.5-2.7-1
		c-1.8-0.9-3.6-1.9-5.3-2.9c-1.4-0.8-2.9-0.8-4.3-0.7c-0.5,0,0,0.2,0,0.3c0,0.3,0.2,0.8,0,1c-0.8,1.1-1.8,2.1-2.6,3.1
		c-0.5,0.6-1,0.5-1.6,0.2c-1.1-0.7-2.2-1.2-3.2-2c-0.9-0.7-1.8-1-3-0.6c-2,0.6-4.1,1-6.3,1.4c-2.3,0.4-4.6,0.6-6.9,0.9
		c-0.7,0.1-1.4,0.2-2.1,0.4c-0.1,0-0.2,0.1-0.3,0.1c0.1,0,0.2,0.1,0.3,0.1c0.2,0,0.5,0.1,0.7,0.1c1,0.4,1.2,0.8,0.9,1.9
		c-0.2,0.8-0.4,1.6-0.7,2.4c-0.4,1.2-1.2,1.5-2.1,0.6c-1.2-1.2-2.4-2.4-3.3-3.7c-0.6-0.8-1.1-1.2-2.2-1.2c-1.4,0.1-2.9-0.1-4.3,0
		c-2.5,0.2-5,0.4-7.5,0.6C24.4,22.3,23.5,22.2,22.6,22.2z"/>
	<path d="M3.9,17.2c0.2-0.1,0.5-0.2,0.7-0.2c0.4,0.3,0.8,0.7,1.2,1.1c-0.2,0.1-0.4,0.2-0.5,0.2C4.8,18,4.4,17.6,3.9,17.2z"/>
	<path d="M50.2,14.3c-2.7,0-5.4,0-8.1,0c-0.2,0-0.3-0.1-0.5-0.2c0.2,0,0.3-0.1,0.5-0.1c5.7-0.6,11.3-0.3,17-0.4
		c0.2,0,0.5,0.1,0.7,0.1c-0.2,0.2-0.4,0.4-0.7,0.5c-0.5,0.1-0.9,0.1-1.4,0.1C55.2,14.3,52.7,14.3,50.2,14.3z"/>
	<path d="M67.6,14c-2,0-4.1,0-6.1,0c-0.2,0-0.3-0.1-0.5-0.2c0.2-0.1,0.3-0.2,0.5-0.2c4-0.5,8.1-0.3,12.1-0.4c0.2,0,0.5,0.1,0.7,0.2
		c0,0,0.1,0.1,0.1,0.1c0,0.1-0.1,0.3-0.1,0.3c-0.3,0.1-0.7,0.1-1,0.1C71.3,14,69.5,14,67.6,14C67.6,14,67.6,14,67.6,14z"/>
	<path d="M74.1,11.1c0.4,0,0.7,0,1.1,0c0.5,0.1,0.8,0.4,0.6,1c-0.4,1-0.6,2.1-0.5,3.3c0,0.2-0.2,0.5-0.3,0.8c0,0.1-0.3,0-0.4,0
		c-0.1,0-0.1-0.3-0.1-0.3c0.8-0.5,0.4-1.4,0.5-2.1c0-0.1,0-0.2,0-0.4C74.9,12,74.9,12,74.1,11.1L74.1,11.1z"/>
	<path d="M16.8,18.9c0.4-0.5,0.9-1,1.3-1.4c0.1-0.1,0.3,0,0.4-0.1c0,0.2,0,0.4-0.1,0.5C18,18.3,17.4,18.6,16.8,18.9
		C16.9,19,16.8,18.9,16.8,18.9z"/>
	<path d="M8.3,17.1c-0.7,0-1.5-0.9-1.5-1.7c0-0.8,1.1-1.8,2.1-1.8c0.8,0,1.6,0.7,1.6,1.5C10.4,16.1,9.3,17.1,8.3,17.1z"/>
</g>
</svg>
