<?xml version="1.0" encoding="iso-8859-1"?>
<!-- Generator: Adobe Illustrator 25.3.0, SVG Export Plug-In . SVG Version: 6.00 Build 0)  -->
<svg version="1.1" id="Calque_1" xmlns="http://www.w3.org/2000/svg" xmlns:xlink="http://www.w3.org/1999/xlink" x="0px" y="0px"
	 viewBox="0 0 186.2 164.6" style="enable-background:new 0 0 186.2 164.6;" xml:space="preserve">
<g>
	<path d="M147.5,84.1c-1.8,0-3.7-0.1-5.5,0c-0.9,0.1-1.7,0.6-2.5,0.9c0.6,0.4,1.5,0.7,1.9,1.3c0.4,0.6,0.8,1.7,0.5,2.2
		c-1.3,2.3-2.6,4.7-4.5,6.5c-2,2-4.5,3.4-6.8,5c-1.6,1.1-1.8,2.2-0.3,3.5c0.5,0.4,1.2,0.6,1.7,1.1c2.5,2.4,2.4,5.1-0.5,6.8
		c-2.2,1.3-3.3,3-4,5.3c-1.9,6.8-6.5,11.9-10.6,17.3c-3.9,5-8.4,9.4-12.8,14c-6.1,6.2-13.3,11.1-20.9,15.2
		c-3.8,2.1-7.6,2.3-11.6-0.5c-7-5-13.3-10.6-18.1-17.6c-6.3-9.2-14.5-16.2-23.3-22.9c-5.5-4.2-10.1-9.7-15-14.6
		c-0.9-0.9-1.6-2.1-2.5-3.1c-3.2-3.2-5.6-7-7.5-11.1c-0.9-2-1.8-3.9-3.8-5.1c-1.9-1.1-1.5-2.5-0.2-3.7c2.2-2,3-4.7,3.8-7.4
		c2-5.9,5.9-10.7,9.3-15.8c5.7-8.3,13-15.1,20.1-22.1c3.1-3,5.9-6.2,8.2-10c2.3-3.9,4.9-7.5,7.3-11.3c2.9-4.7,6.4-8.9,10.5-12.6
		C66.8-1,71.1-1.4,79.1,2.5c16.1,7.7,28.7,19.7,40.5,32.6c2.3,2.5,3.8,5.8,5.5,8.8c1,1.8,2,3.2,4.1,4c2.7,1,3.2,2.5,1.9,4.9
		c-0.7,1.3-1.7,2.4-2.6,3.5c-1.5,1.7-1.5,2.1,0.7,3.1c1.3,0.6,2.6,1.3,4,1.9c2.9,1.2,4.9,3.2,6.7,5.7c2,2.8,2.1,2.7-0.8,5.1
		c-0.3,0.2-0.4,0.8-0.5,1.2c0,0.1,0.5,0.4,0.8,0.4c1.5,0.1,3,0.1,4.5,0.1c7.5,0.1,14.9,1.6,21.8,4.5c7.1,3,12,8.5,15.9,15.2
		c8.1,14.2,5.2,32.8-4.3,44.9c-1.5,1.9-3.2,4-6.2,3.6c-0.6-0.1-1.2-0.5-1.6-0.9c-0.2-0.2,0.1-1,0.4-1.3c0.7-0.9,1.6-1.7,2.4-2.5
		c2-2,3.1-4,1.6-7c-1.4-2.8,0.9-5.1,2.6-6.9c1.7-1.8,2.6-3.7,3.1-6c0.2-1.2,0.2-1.7-0.8-2.5c-3-2.5-3.6-5.6-1.6-8.9
		c1.3-2.2,1-4.1-0.1-6.1c-1.7-3.2-3.2-6.5-5.8-9.3c-2.9-3.1-6.4-4.8-10.4-5.3c-4.4-0.7-8.9-1-13.3-1.5
		C147.5,83.9,147.5,84,147.5,84.1z"/>
	<path d="M37.6,88.8c0.7,0.2,1.8,0.3,2.5,0.9c1.1,0.8,2,1.2,3.5,0.8c1.8-0.5,3,1.6,2,3.3c-1,1.7-2.3,3.2-3.5,4.7
		c-0.2,0.3-0.9,0.2-1.3,0.3c0.1-0.4,0.1-0.8,0.2-1.2c0.6-1.9,0.2-2.4-1.5-2.1c-1.1,0.2-2.2,0.5-3.4,0.7c-2,0.3-3.2-0.7-3.7-2.5
		c-0.4-1.4,1-3.9,2.5-4.4C35.7,88.9,36.5,89,37.6,88.8z"/>
	<path d="M40.1,71c1-0.4,2-1.6,3.1-0.4c1,1,1.9,2.2,2.6,3.5c0.1,0.3-1.5,1.9-1.8,1.8c-2.7-1.2-3.8,1-5.4,2.2
		c-2.1,1.5-4.3,1.4-5.6-0.7c-0.6-1-0.9-2.6-0.6-3.6c0.2-0.8,1.6-1.5,2.6-1.8C36.6,71.3,38.6,72.7,40.1,71L40.1,71z"/>
	<path d="M19.5,86.9c0.8,0.2,2,0.4,3,0.9c1.8,0.7,4.2,0.5,4.9,3c-1.8-0.6-3.6-1.2-5.4-1.7c-1.1-0.3-2.2-0.6-3.3-1
		c-0.7-0.2-1.3-0.4-2-0.6C17.6,87.2,18.4,87.1,19.5,86.9z"/>
	<path d="M26.6,96.4c-0.2,0.2-0.5,0.6-0.6,0.5C23,96,20.1,95,17.2,94c-0.2-0.1-0.3-0.4-0.4-0.6c0.3-0.1,0.6-0.3,0.9-0.3
		c2.8,0.8,5.6,1.6,8.4,2.5C26.3,95.7,26.4,96.1,26.6,96.4z"/>
	<path d="M25.1,80c1.6-3.1,3.5-3.6,6.4-1.6c0.2,0.1,0.4,0.6,0.3,0.8c-0.1,0.2-0.6,0.6-0.7,0.5C29,78.5,27.1,79.8,25.1,80L25.1,80z"
		/>
	<path d="M146.7,79c-1.2,0-2.3,0.1-3.5,0c-0.5,0-1-0.4-1.6-0.5c0.6-0.2,1.2-0.6,1.8-0.6c2.8,0,5.5,0.1,8.3,0.2
		c0.3,0,0.5,0.3,0.8,0.5c-0.3,0.1-0.6,0.4-0.8,0.4C150,79,148.3,79,146.7,79C146.7,79,146.7,79,146.7,79z"/>
	<path d="M48,79.4c1.4,0.1,2.3,0.3,3.3,0.3c0.6,0,1.1-0.4,1.7-0.6c-0.3,0.7-0.3,1.7-0.9,2.2c-1.3,1.3-3.8,0.4-4.4-1.4
		C47.6,79.7,48.1,79.4,48,79.4z"/>
	<path d="M47.7,88.6c-0.1-0.2-0.5-0.5-0.4-0.7c0.3-2.5,2.6-3.5,4.8-2.3c0.3,0.1,0.5,0.5,0.5,0.8c0,0.2-0.6,0.5-0.7,0.5
		c-1.6-0.9-2.4,0.3-3.3,1.2C48.3,88.3,48,88.4,47.7,88.6z"/>
	<path d="M19.6,74.6c-0.2,0.3-0.3,0.6-0.5,0.8c-0.6,0.3-1.2,0.4-1.8,0.7c-1,0.4-1.9,0.8-2.8,1.2c-0.2-2,1.6-2,2.7-2.7
		c0.5-0.3,1.2-0.4,1.8-0.4C19.1,74.1,19.4,74.5,19.6,74.6z"/>
	<path d="M42.8,49.6c-0.5,0.7-1,1.4-1.6,2.1c-0.3-0.3-0.9-0.7-0.9-0.8c0.5-0.8,1.2-1.5,1.8-2.3C42.3,48.9,42.5,49.2,42.8,49.6z"/>
	<path d="M25.1,80c-0.1,0.1-0.1,0.4-0.2,0.4c-1,0.6-1.9,1.9-3.4,0.9c-0.1-0.1-0.1-0.3-0.1-0.4C22.3,79.4,23.6,79.2,25.1,80L25.1,80z
		"/>
	<path d="M36.4,100.3c-0.9-0.4-1.3-0.5-1.8-0.7c1.2-0.4,2.4-0.9,3.6-1.3c0.1,0,0.4,0.4,0.6,0.6C38,99.4,37.1,99.9,36.4,100.3z"/>
	<path d="M34.6,105.4c0,0-0.1,0.2-0.2,0.2c-0.3,0-0.6,0.1-0.9,0c-1.4-0.7-1.5-1.9-1.4-3.3c0-0.3,0.3-0.5,0.4-0.8
		c0.1,0.1,0.3,0.2,0.3,0.3C33.5,103.1,34,104.2,34.6,105.4z"/>
	<path d="M29.7,114.8c1.1,0.9,1.9,1.5,2.7,2.2c0.1,0.1-0.1,0.5-0.2,0.7c0,0.1-0.3,0.1-0.4,0.1c-0.8-0.4-1.7-0.9-2.4-1.4
		C29.3,116.3,29.6,115.7,29.7,114.8z"/>
	<path d="M40.1,71c-0.3-0.1-0.6-0.2-0.9-0.4c-0.9-0.5-1.7-1-2.6-1.5c0.2-0.2,0.5-0.6,0.7-0.6C38.9,68.7,40.2,69.1,40.1,71L40.1,71z"
		/>
	<path d="M32.5,96.6c0,0.7,0,0.8,0,1c-0.6-0.1-1.2,0-1.7-0.2c-0.7-0.2-1.4-0.6-2.1-0.9c0.1-0.1,0.3-0.3,0.4-0.3
		C30.2,96.3,31.4,96.5,32.5,96.6z"/>
	<path d="M27.5,113.4c-1.1,0.2-1.7,0.5-1.9,0.3c-0.6-0.5-0.9-1.2-1.4-1.8c0.4-0.1,0.9-0.3,1.2-0.1C26,112.1,26.5,112.6,27.5,113.4z"
		/>
</g>
</svg>
