<?xml version="1.0" encoding="iso-8859-1"?>
<!-- Generator: Adobe Illustrator 25.3.0, SVG Export Plug-In . SVG Version: 6.00 Build 0)  -->
<svg version="1.1" id="Calque_1" xmlns="http://www.w3.org/2000/svg" xmlns:xlink="http://www.w3.org/1999/xlink" x="0px" y="0px"
	 viewBox="0 0 78.5 33" style="enable-background:new 0 0 78.5 33;" xml:space="preserve">
<g>
	<path d="M59.5,15.1c3.2,0.2,6-1.1,8.9-2.2c1.4-0.6,2.9-1.2,4.2-1.9c1.4-0.7,3-0.7,4.5-1.1c0.6-0.2,0.9,0.2,0.6,0.8
		c-1.3,2.8-2.8,5.3-5.8,6.7c-1.9,0.9-1.9,1.1,0,2.3c1.6,1,3.3,1.9,4.9,3c0.6,0.4,1,1,1.4,1.5c0.6,0.8,0.3,1.5-0.6,1.7
		c-0.7,0.1-1.5,0.2-2.1,0c-1.7-0.4-3.4-0.8-5-1.4c-2.6-0.9-5.1-2-7.7-3c-0.9-0.3-1.8-0.4-2.8-0.6c-0.8-0.1-1.4,0.2-1.8,0.9
		c-0.6,1.1-1.3,2.3-1.9,3.4c-0.7,1.2-0.7,2.6-0.7,4c0,0.9-0.3,1.2-1.2,1c-0.5-0.1-0.9-0.3-1.3-0.5c-2.1-1.2-4.1-2.4-6.1-3.6
		c-0.5-0.3-1-0.6-1.5-0.9c-0.2-0.1-0.4-0.2-0.7-0.2c-1.4,0.1-2.7,0.2-4.1,0.3c-0.1,0-0.2,0.1-0.3,0.1c0.1,0.1,0.1,0.2,0.2,0.3
		c0.1,0.1,0.2,0.1,0.3,0.2c2,1,2.2,2.6,1.8,4.5c-0.1,0.5-0.2,1-0.2,1.6c-0.2,1.1-0.6,1.3-1.5,0.8c-1.6-0.9-2.7-2.3-3.8-3.7
		c-0.5-0.7-1-1.4-1.5-2.1c-0.5-0.6-1-0.9-1.9-0.7c-2.2,0.3-4.4,0.4-6.6-0.2C26.6,26,26.4,26,26.1,26c-0.7,0-1.3,0-2,0.1
		c0.3,0.6,0.5,1.1,0.9,1.7c0.6,1,1.4,1.9,2,2.9c0.1,0.1,0.2,0.3,0.2,0.5c-0.2,0.1-0.4,0.2-0.6,0.2c-1.9-0.2-3.8-0.6-5.4-1.7
		c-1.3-0.9-2.5-1.8-3.6-2.9c-1.3-1.2-2.7-1.8-4.5-1.9c-0.8,0-1.6-0.3-2.4-0.4c-0.3-0.1-0.7-0.2-1-0.2c-0.1,0-0.3,0.1-0.5,0.2
		c0.1,0.1,0.1,0.3,0.3,0.4c1.6,0.8,3.2,1.6,4.7,2.5c0.9,0.5,1.7,1.2,2.6,1.8c0.1,0,0.1,0.2,0.1,0.3c-0.1,0.1-0.2,0.2-0.3,0.1
		c-0.3-0.1-0.7-0.2-1-0.4c-2.5-1.4-4.9-2.9-7.4-4.3c-1-0.6-2.1-1-3.2-1.5c-0.2-0.1-0.4-0.1-0.6-0.1c0.1,0.3,0,0.6,0.2,0.8
		c0.8,0.9,1.6,1.8,2.5,2.5c1,0.8,2.1,1.6,3.1,2.4c0.1,0.1,0.1,0.4,0.2,0.5c-0.2,0-0.4,0.1-0.5,0C9,29,8.3,28.4,7.6,27.9
		c-0.4-0.3-0.7-0.6-1.1-0.9c-0.1-0.1-0.3-0.1-0.5-0.1c0,0.2,0.1,0.3,0.1,0.5c0.1,0.2,0.2,0.3,0.2,0.5c0.1,0.3,0.1,0.7,0.2,1
		C6,29,6.1,28.4,5.9,28.1c-0.7-0.8-1.3-1.7-2-2.5c-0.3-0.4-0.7-0.9-0.9-1.3c-0.4-1-0.9-1.7-2-2.1c-1.2-0.5-1.3-1.5-0.4-2.3
		c0.7-0.6,1.4-1.3,2.3-1.7c3.6-1.9,7.2-3.9,11.3-4.9c2.8-0.7,5.5-1.3,8.3-2c1-0.2,1.8-0.7,2.3-1.7c1.3-2.5,2.9-4.9,5.1-6.8
		c1-0.9,2.1-1.7,3.2-2.5c0.2-0.2,0.7-0.2,0.9,0c0.2,0.2,0.4,0.7,0.3,0.9c-0.7,2.4-0.1,4.7,0.3,7c0.3,1.6,0.3,2.8-1.3,3.7
		c-0.1,0.1-0.2,0.3-0.3,0.4c0.2,0.1,0.3,0.1,0.5,0.2c0.1,0,0.1,0,0.2,0c3.2,0.1,6.4,0.2,9.7,0.4c0.3,0,0.6,0,0.9,0
		c2.4,0.6,4.6-0.1,6.7-0.9c0.6-0.2,1.2-0.4,1.9-0.5c1.6-0.3,2.5,0.7,3.2,1.8c0.1,0.2,0.3,0.7,0.2,0.8C55.4,15,56.5,15,57,15.1
		C57.8,15.2,58.6,15.1,59.5,15.1z"/>
	<path d="M32,18c1.2,0.1,2.4,0.3,3.5,0.4c1.1,0.1,2.1,0.2,3.2,0.3c0.3,0,0.6,0,0.9,0c3.7,0,7.5,0.3,11.1-0.1
		c4.4-0.4,8.7-0.1,13.1-0.3c0.5,0,1.1,0.1,1.6,0.2c-0.5,0-1.1,0.1-1.6,0.1c-0.6,0.1-1.3,0.2-1.9,0.2c-0.2,0-0.4,0.1-0.5,0.1
		c-1.6-0.8-3.2,0.2-4.7,0.1c-1.5-0.1-3.1-0.2-4.7,0c-2.9,0.5-5.8,0.3-8.8,0.3c-2.6,0-5.2-0.2-7.8-0.4c-1.3-0.1-2.7-0.4-4-0.7
		c-0.2,0-0.3-0.1-0.5-0.2c0.2-0.1,0.3-0.2,0.5-0.2C31.6,18,31.9,18,32,18z"/>
	<path d="M5.9,18.1c0.1-0.2,0.2-0.5,0.4-0.7l0,0c0.7,0,1.4,0,2.1,0.2c0.9,0.3,1.1,0.7,1.1,1.5c0,0.9-0.7,0.8-1.2,1
		c-0.5,0.2-1.1,0.2-1.6,0.1C5.7,20,5.4,19.1,5.9,18.1C6,18.1,6,18.2,6.1,18.3C6,18.2,6,18.1,5.9,18.1z"/>
	<path d="M22.8,16.6c0.2-0.1,0.4-0.4,0.6-0.3c1.3,0.2,2.7,0.5,4,0.7c0.1,0,0.2,0.1,0.3,0.2c-0.2,0.1-0.3,0.2-0.5,0.2
		c-1.1-0.2-2.2-0.4-3.3-0.6C23.5,16.7,23.2,16.7,22.8,16.6L22.8,16.6z"/>
	<path d="M22.8,16.6c-0.4,0.2-0.8,0.3-1.3,0.4c-0.3,0.1-0.7,0.1-1.1,0.1c0.4-0.2,0.7-0.4,1.1-0.5C22,16.6,22.4,16.6,22.8,16.6
		L22.8,16.6z"/>
</g>
</svg>
