<?xml version="1.0" encoding="iso-8859-1"?>
<!-- Generator: Adobe Illustrator 25.3.0, SVG Export Plug-In . SVG Version: 6.00 Build 0)  -->
<svg version="1.1" id="Calque_1" xmlns="http://www.w3.org/2000/svg" xmlns:xlink="http://www.w3.org/1999/xlink" x="0px" y="0px"
	 viewBox="0 0 73.1 36.1" style="enable-background:new 0 0 73.1 36.1;" xml:space="preserve">
<g>
	<path d="M23.9,36.1c-1.3-0.2-1.3-0.2-1.7-1.4c-0.6-2-1-4-1-6.1c0-0.7-0.2-1.1-1-1.2c-1.5-0.2-2.9-0.5-4.4-0.7
		c-3.6-0.3-7.1-1.1-10.3-2.6c-2-0.9-3.8-2.3-5.2-4C0.2,19.8,0,19.5,0,19.4c0.5-1.2,0.1-2.9,1.7-3.7c1.4-0.7,2.7-1.5,4.1-2.1
		c3-1.4,6.2-2.2,9.4-2.7c1-0.1,2-0.3,3-0.4c1.2-0.1,2-0.6,2.4-1.7c0.7-1.6,1.8-3,2.9-4.4c0.5-0.6,0.9-1.3,1.3-1.9
		c0.5-0.7,0.9-1.4,1.3-2.1c0.3-0.5,0.5-0.6,0.9,0.1c2,3.1,4.2,6.1,6.3,9.1c0.7,0.9,1.4,0.9,2.2,0c0.7-0.8,1.5-1.6,2.1-2.4
		c0.5-0.6,1-0.7,1.7-0.6c3.9,0.9,7.9,1.8,11.8,2.8c2.8,0.7,5.5,1.7,7.4,4c0.5,0.7,0.9,1.2,0.7,2.1c0,0.2,0,0.4,0,0.6
		c0.2,0,0.5,0,0.7-0.1c1-0.6,2-1.1,2.9-1.7c2.8-1.7,5.5-3.3,8.3-5c0.5-0.3,1.3-0.6,1.6-0.4c0.7,0.5-0.1,1-0.4,1.5
		c-0.9,1.1-1.8,2.2-2.7,3.3c-1,1.2-2.1,2.3-3.1,3.5c-0.8,1-0.9,1.4-0.1,2.3c1.4,1.8,3,3.4,4.4,5.1c0.6,0.7,1.1,1.5,1.6,2.3
		c0.1,0.2,0.1,0.7,0,0.8C72.3,28,72,28,71.6,28c-0.2,0-0.3-0.1-0.5-0.2c-2.7-1.6-5.3-3.2-7.9-4.8c-1.2-0.7-2.4-1.6-3.5-2.3
		c-0.5-0.3-0.7-0.1-0.6,0.6c0.1,0.8-0.2,1.3-0.8,1.7c-2.7,1.6-5.4,3.3-8.2,4.8c-1.6,0.9-3.4,1.3-5.2,2c-0.9,0.3-1.5,0.1-2.1-0.5
		c-0.8-0.8-1.6-1.6-2.5-2.2c-0.7-0.5-1.5-0.7-2.4-0.5c-2.4,0.6-4.8,1-7.2,1c-0.9,0-1.9,0.2-2.8,0.3c-0.5,0.1-0.3,0.2,0,0.3
		c0.8,0.5,0.7,1.2,0.5,1.9c-0.1,0.2-0.2,0.5-0.2,0.7c0.2,2.2-1.3,3.5-2.5,4.9C25.3,35.9,24.5,35.9,23.9,36.1z"/>
	<path d="M11.2,17.3c0,1.6-1.5,3.2-3.1,3.2c-1.6,0-2.8-1.3-2.7-2.9c0-1.8,1.7-3.1,2.9-3.1C9.6,14.4,11.2,16.1,11.2,17.3z"/>
	<path d="M10.1,18.4c-0.4,0.3-0.8,0.6-1.2,0.8c-0.6,0.3-1.5,0.1-1.9-0.4c-0.4-0.5-0.4-1.7,0.1-2.2C7.6,16,8.3,15.9,9,16.2
		C10,16.6,10.2,17.4,10.1,18.4L10.1,18.4z"/>
</g>
</svg>
