<?xml version="1.0" encoding="iso-8859-1"?>
<!-- Generator: Adobe Illustrator 25.3.0, SVG Export Plug-In . SVG Version: 6.00 Build 0)  -->
<svg version="1.1" id="Calque_1" xmlns="http://www.w3.org/2000/svg" xmlns:xlink="http://www.w3.org/1999/xlink" x="0px" y="0px"
	 viewBox="0 0 212.7 108" style="enable-background:new 0 0 212.7 108;" xml:space="preserve">
<g>
	<path d="M85.8,48.8c4.1-0.1,3.8-0.2,4.8-3.9c2-7.5,4.4-14.9,6.7-22.3c0.4-1.2,1.1-2.4,1.9-3.5c0.3-0.5,1.5-1,1.6-0.9
		c2.6,2.6,2.7-0.3,3.4-1.5c1-1.7,1.7-3.6,2.6-5.3c0.6-1.1,1.4-2.2,3.1-1.9c0.7,0.1,1.5-0.5,2.2-0.6c2.6-0.5,2.9-4.1,5.6-4.3
		c2.7-0.2,4.3-2,6.2-3.5c2.4-1.9,6.8-0.8,7.6,2.2c1.5,5.4,3,10.8,4,16.3c1.4,7.3,5.8,11.6,12.4,14.3c7,2.9,14.1,5.7,20.5,9.9
		c3,2,4.3,4.5,4.3,7.9c0,4.5-0.3,9-4.3,12.1c-0.5,0.4-0.9,1-1.3,1.5c-0.8,1.3-0.4,2.4,1.1,2.5c1.5,0,3,0,4.4-0.5
		c6.1-2.2,12-4.8,18.1-6.9c4-1.4,8.2-2.6,12.4-3.3c2.3-0.4,4.9,0.3,7.3,0.9c2.1,0.5,2.6,1.8,1.7,3.8c-1.5,3.2-2.7,6.4-2.9,9.9
		c-0.1,2.9-0.3,5.8-0.5,8.7c-0.2,2.6-0.6,5.2-1,7.8c-0.5,2.9-2.6,4.3-5.4,3.6c-10-2.4-20.1-4.3-29.1-9.5c-0.7-0.4-1.5-0.9-2.3-1
		c-1.3-0.1-2.6,0.2-3.8,0.3c0.4,1,0.6,2.2,1.1,3.1c1.2,2.1,2.5,4.2,3.8,6.2c1,1.6,0.9,3.2-0.3,4.6c-3,3.3-6.5,5.8-10.9,6.4
		c-4.6,0.6-9.2,1.4-13.8,1.2c-7.5-0.4-15-0.8-22.1-3.6c-1.3-0.5-2.1-1.3-2.5-2.8c-0.7-2.5-1.7-5-2.6-7.5c-0.9-2.6-1.2-2.9-3.4-2.1
		c-3.2,1-6.3,1.1-9.6,1c-6.3-0.1-12.6,0.6-18.9,1c-0.4,0-0.9,0.5-1,0.9c-0.1,0.4,0.1,1,0.4,1.3c0.6,0.5,1.3,1,2.1,1.3
		c2.7,1.3,4.3,3.6,5.5,6.2c2,4.4-0.2,8.5-5,9.1c-4,0.5-7.2-0.8-9.6-4.1c-2.5-3.5-4.8-7.2-6.2-11.3c-0.6-1.8-1.4-2.6-3.5-2.7
		c-5-0.1-9.9-0.5-14.8-1c-1.5-0.1-2.9-0.6-4.3-1.1c-7.1-2.1-14.3-4.2-21.4-6.3c-2.5-0.7-4.8,0-6.1,2c-2.6,4.2-6.9,6-10.9,8.4
		c-3,1.8-6,3.4-9,5.1c-0.4,0.2-0.9,0.8-1.3,0.7c-0.9,0-1.8-0.3-2.8-0.5c0.2-0.8,0.2-1.6,0.5-2.3c1.2-2.5,3.8-3.1,6-4.1
		c3.6-1.7,7.2-3.2,10.7-5c1.3-0.7,2.2-1.9,3.3-3c0.2-0.2,0.3-0.7,0.5-0.8c4.9-2.7,6.6-7.6,8-12.5c0.8-2.6,3.6-3.9,3.8-6.8
		c0-0.3,1.8-0.9,2.4-0.6c2.1,1.2,3.6,0.3,4.7-1.3c3.4-4.9,8.3-5.6,13.8-6.2c4.3-0.5,8.4-2.7,12.6-4.3c0.9-0.3,1.9-1.6,2.5-1.4
		c4.2,1.1,3.6-1.6,3.9-4.2c0.7-5.7,1.7-11.4,2.7-17.1c0.6-3.4,1.5-6.8,2.4-10.1c0.3-1,1.3-2,2.1-0.6c1.2,2.1,2.3,2.1,3.7,0.3
		c0.4-0.5,0.9-1,1.4-1.4c0.9-0.7,1.6-0.5,1.6,0.6c0,2.5,1.1,2.3,2.8,1.4c0.5-0.3,1.2-0.3,1.8-0.5c0.1,0.8,0.6,1.7,0.3,2.3
		c-1.1,2.6-2.6,5-3.5,7.7c-2,5.9-3.8,11.9-5.6,18c-1,3.3-0.8,3.4,2.4,3.4C85.2,48.8,85.5,48.8,85.8,48.8z"/>
	<path d="M135.5,70.8c1,0.1,1.7,0.1,2.3,0.3c0.3,0.1,0.6,0.9,0.5,1.1c-0.6,1-3.2,0.8-3.9-0.2c-0.1-0.1-0.2-0.4-0.1-0.5
		C134.7,71.2,135.2,70.9,135.5,70.8z"/>
	<path d="M52.8,62.6c0,4.3-3.9,6.6-6.8,4.8c-0.7-0.4-1.4-1.5-1.5-2.4c-0.3-2.5,3.8-6,6.1-5C51.7,60.6,52.4,62.1,52.8,62.6z"/>
</g>
</svg>
