<?xml version="1.0" encoding="iso-8859-1"?>
<!-- Generator: Adobe Illustrator 25.3.0, SVG Export Plug-In . SVG Version: 6.00 Build 0)  -->
<svg version="1.1" id="Calque_1" xmlns="http://www.w3.org/2000/svg" xmlns:xlink="http://www.w3.org/1999/xlink" x="0px" y="0px"
	 viewBox="0 0 86.4 22.2" style="enable-background:new 0 0 86.4 22.2;" xml:space="preserve">
<g>
	<path d="M82.1,16.7c-3.1,0.1-6.2-0.3-9.2-0.9c-2.9-0.6-5.9-0.8-8.9-0.2c-0.2,0-0.5,0-0.7,0.1c-3,0.1-6,0.3-9,0.4
		c-0.2,0-0.4,0-0.5,0c-0.1,0-0.2,0.1-0.3,0.1c0.1,0.1,0.2,0.3,0.3,0.4c0.2,0.1,0.5,0.2,0.6,0.3c0.7,0.9,1.4,1.8,2,2.8
		c0.5,0.8,0.3,1.1-0.4,1.7c-1,0.8-2.2,0.9-3.4,0.5c-1.9-0.7-3.9-1.5-5.8-2.3c-1-0.4-2.1-1-3.1-1.4c-0.5-0.2-1.1-0.4-1.7-0.4
		c-0.4,0-0.9,0.2-1.3,0.4c0.2,0.4,0.4,0.8,0.6,1.2c0.1,0.1,0.2,0.2,0.2,0.3c0.2,0.5,0.5,0.9,0.6,1.4c0,0.3-1.3,0.8-1.9,0.6
		c-1.1-0.3-2.2-0.6-3.2-1c-1.1-0.4-2.2-0.9-3.3-1.4c-1.4-0.7-2.9-1-4.5-0.6c-1.2,0.3-2.5,0.1-3.8,0.1c-2.7,0.1-5.3-0.2-8-0.7
		c-2.1-0.3-4.1-0.4-6.2-0.6c-0.1,0-0.2,0.1-0.2,0.1c0.1,0.1,0.1,0.2,0.2,0.3c0.3,0.2,0.6,0.4,1,0.7c-0.5,0.4-0.9,0-1.3-0.2
		c-0.7-0.3-1.4-0.7-2.1-1c-0.3-0.1-0.6-0.1-1-0.2c0.1,0.3,0.1,0.7,0.2,1c0.1,0.3,0.4,0.6,0.5,0.9c0.1,0.3,0,0.6-0.1,1
		c0,0.1-0.1,0.2-0.2,0.3c-0.1-0.1-0.2-0.2-0.3-0.3c-0.2-0.6-0.5-1.1-0.5-1.7c-0.2-1.1-1-1.5-1.9-1.8c-0.1-0.1-0.4-0.1-0.5,0
		c-0.8,1.1-1.1,0.2-1.5-0.4c-0.3-0.5-1.1-0.9-1.1-1.3c0.1-1-0.4-1.2-1.2-1.5c-0.5-0.2-1.2-0.4-1.1-1.2c0.1-0.7,0.5-1.2,1.2-1.3
		c1.4-0.3,2.8-0.8,4.2-1c2.7-0.3,5.4-0.8,8.1-1.3c2.4-0.5,4.9-0.9,7.4-1.2c2.5-0.3,5-0.5,7.5-0.7c1-0.1,1.6-0.6,2.3-1.2
		c1.9-1.8,4-3.3,6.4-4.6c0.6-0.3,1.2-0.5,1.8-0.7C39.6-0.2,40,0,40,0.8c0.1,1.7,0.1,3.3,0,5c-0.1,0.6-0.9,1.2-1.3,1.8
		c-0.1,0.1-0.1,0.3-0.2,0.4c0.1,0,0.2,0.1,0.3,0.1c0.4,0,0.7,0,1.1,0c2.2,0,4.4,0.3,6.6,0.7C47.8,9,49.2,9,50.5,9.1
		c2.3,0.3,4.6,0.6,6.9,1c2.9,0.5,5.8,1.1,8.8,1.5c2.7,0.3,5.3-0.1,8-0.8c2.3-0.6,4.7-1.1,7.1-1.6c0.7-0.1,1.4,0,2.1,0.1
		c0.5,0.1,1,0.3,1.5,0.4c-0.2,0.5-0.4,1-0.5,1.4c-0.2,1.4-0.3,2.9,1,3.9c0.3,0.2,0.5,0.5,0.8,0.8c0.4,0.4,0.2,0.8-0.3,0.9
		C84.6,16.8,83.3,16.7,82.1,16.7z"/>
	<path d="M23.1,13.1c0.2-0.2,0.3-0.3,0.5-0.5c-0.2,0-0.4-0.2-0.5-0.1c-1.5,0.5-2.9,1-4.4,1.4c-0.3,0.1-0.7,0.2-1,0.3
		c-0.1,0-0.3-0.1-0.4-0.2c0.1-0.1,0.1-0.2,0.2-0.2c0.4-0.2,0.7-0.4,1.1-0.5c2.9-0.9,5.8-1.7,8.7-2.5c0.3-0.1,0.7-0.1,1.1-0.1
		c0.5,0,1.1,0,1.3,0.3c0.4,0.5-0.3,0.7-0.5,1.1c-0.2,0.4-0.4,0.9-0.6,1.3c-1.7,2.6-4.3,2.7-6.9,2.6c-1.2,0-2.5-0.2-3.7-0.3
		c-0.3,0-0.6,0-0.9-0.1c-0.1,0-0.2-0.3-0.2-0.4c0-0.1,0.2-0.2,0.2-0.2c1.2,0.5,2.1-0.5,3.2-0.8c0.2,0,0.4,0,0.5,0
		c0.9,0.4,4.2,0.2,4.9-0.4c0.1-0.1,0.2-0.2,0.2-0.3c-0.1-0.2-0.3-0.1-0.5-0.1C24.5,13.6,23.6,14.2,23.1,13.1z"/>
	<path d="M40.4,10c-1.5-0.2-3-0.3-4.6-0.5c-0.1,0-0.2-0.1-0.3-0.2c0.1-0.1,0.3-0.2,0.4-0.2c0.3,0,0.6-0.1,0.9,0
		c1.8,0.5,3.6,0.3,5.5,0.3c0.2,0,0.4,0.1,0.7,0.2c-0.3,0.1-0.5,0.2-0.8,0.2c-0.6,0-1.2,0-1.8,0C40.4,10,40.4,10,40.4,10z"/>
	<path d="M40.1,12c0.8,0,1.7,0,2.5,0c0.1,0,0.3,0.1,0.4,0.2c-0.2,0.1-0.3,0.2-0.5,0.2c-1.7,0-3.5,0-5.2,0c-0.1,0-0.2-0.1-0.3-0.1
		c0.1-0.1,0.3-0.2,0.4-0.2C38.3,12.1,39.2,12.1,40.1,12C40.1,12.1,40.1,12.1,40.1,12z"/>
	<path d="M42.4,15.6c-0.2,0-0.5,0-0.7,0c-0.6-0.1-1.2-0.2-1.8-0.2c0.6-0.1,1.2,0,1.7-0.2c1-0.4,2,0.2,2.9,0.1c0.1,0,0.2,0.1,0.2,0.2
		c-0.1,0.1-0.2,0.2-0.3,0.2C43.8,15.6,43.1,15.6,42.4,15.6C42.4,15.6,42.4,15.6,42.4,15.6z"/>
	<path d="M52.2,11c0,0.2,0.5,0.6,0,0.6c-1.5,0-2.9-0.1-4.4-0.2c-0.2,0-0.3-0.1-0.5-0.2c0.1-0.1,0.3-0.2,0.4-0.2
		C49.3,11,50.7,11,52.2,11L52.2,11z"/>
	<path d="M15.2,15.5c-0.1-0.9,0.1-1.5,0.9-1.7c0.1,0,0.3,0,0.5,0c0,0.1,0,0.2,0,0.3c-0.2,0.5-0.4,0.9-0.7,1.4
		c-0.1,0.1-0.2,0.2-0.4,0.3C15.3,15.6,15.2,15.5,15.2,15.5z"/>
	<path d="M43.4,10.9c0.7,0.1,1.4,0.2,2.1,0.3c-0.7,0-1.4,0.2-2.1,0.1c-0.6-0.1-1.4,0.4-1.9-0.4C42.2,10.9,42.8,10.9,43.4,10.9
		C43.4,10.9,43.4,10.9,43.4,10.9z"/>
	<path d="M50,12.4c-0.4,0-0.8,0-1.2,0c-0.2,0-0.4-0.1-0.7-0.2c0.2-0.1,0.4-0.2,0.6-0.2c0.9,0,1.8,0,2.6,0c0.1,0,0.2,0.1,0.3,0.1
		c-0.1,0.1-0.2,0.2-0.3,0.2C51,12.4,50.5,12.4,50,12.4C50,12.4,50,12.4,50,12.4z"/>
	<path d="M57.8,13c-0.1,0-0.2,0.1-0.3,0.1c-0.6-0.1-1.3-0.2-1.9-0.4c-0.1,0-0.1-0.1-0.2-0.2c0,0,0.1-0.1,0.1-0.1
		c0.7,0.1,1.5,0.3,2.2,0.4C57.7,12.9,57.7,12.9,57.8,13z"/>
	<path d="M33.4,12.1c-0.2,0-0.5,0-0.7,0c-0.1,0-0.2-0.1-0.3-0.2c0.1,0,0.2-0.1,0.3-0.1c0.5,0,1.1,0,1.6,0c0.2,0,0.3,0.1,0.5,0.2
		c-0.2,0.1-0.3,0.2-0.5,0.2C34,12.1,33.7,12.1,33.4,12.1C33.4,12.1,33.4,12.1,33.4,12.1z"/>
	<path d="M57.4,11.6c0.4,0.1,0.7,0.2,1,0.3c0.1,0,0.1,0.2,0.2,0.3c-0.1,0-0.2,0.1-0.3,0.1c-0.3-0.1-0.7-0.2-1-0.2
		c-0.3-0.1-0.6-0.1-0.8-0.2C56.7,11.8,57,11.7,57.4,11.6z"/>
	<path d="M64.4,13.1c-0.2,0.2-0.4,0.3-0.4,0.3c-0.4-0.3-0.8-0.6-1.2-0.8c0.1-0.1,0.2-0.2,0.2-0.2C63.5,12.6,63.9,12.9,64.4,13.1z"/>
	<path d="M37.6,14.2c-0.7,0-1,0-1.3,0c-0.1,0-0.3-0.1-0.4-0.2c0.1-0.1,0.2-0.1,0.3-0.1c0.3,0,0.6,0,0.9,0c0.4,0,0.8,0.1,1.3,0.2
		C38,14.1,37.6,14.2,37.6,14.2z"/>
	<path d="M56.9,13.8c-0.2,0,0.1,0,0.3,0c0.1,0,0.1,0.1,0.1,0.1c-0.1,0.1-0.1,0.2-0.2,0.2c-0.5,0-1.1,0-1.6,0c-0.1,0-0.2-0.1-0.3-0.2
		c0.1-0.1,0.2-0.2,0.3-0.2C55.9,13.8,56.2,13.8,56.9,13.8z"/>
	<path d="M40.5,10.6c-0.1,0,0.1,0,0.2,0c0.1,0,0.2,0.2,0.1,0.2c0,0.1-0.1,0.2-0.2,0.2c-0.3,0-0.6-0.1-0.8-0.1
		c-0.1,0-0.2-0.1-0.3-0.1c0.1-0.1,0.2-0.2,0.3-0.2C40,10.6,40.1,10.6,40.5,10.6z"/>
	<path d="M4.3,11.4C5,11.1,5.2,11,5.3,11c0.1,0,0.2,0.3,0.3,0.4c-0.2,0.1-0.4,0.2-0.6,0.2C4.9,11.7,4.8,11.6,4.3,11.4z"/>
	<path d="M23.1,13.1c-0.6,0.3-1.2,0.5-1.8,0.8C21.7,13.2,22.3,13,23.1,13.1z"/>
</g>
</svg>
