<?xml version="1.0" encoding="iso-8859-1"?>
<!-- Generator: Adobe Illustrator 25.3.0, SVG Export Plug-In . SVG Version: 6.00 Build 0)  -->
<svg version="1.1" id="Calque_1" xmlns="http://www.w3.org/2000/svg" xmlns:xlink="http://www.w3.org/1999/xlink" x="0px" y="0px"
	 viewBox="0 0 82 33.3" style="enable-background:new 0 0 82 33.3;" xml:space="preserve">
<g>
	<path d="M9.2,21.4c-0.7,0-1.3,0-2,0c-0.1,0-0.3,0.1-0.4,0.2c0.1,0.1,0.2,0.3,0.3,0.4c0.4,0.2,0.8,0.4,1.2,0.7
		c0.1,0.1,0.1,0.3,0.1,0.4c-0.2,0-0.4,0.1-0.5,0.1c-0.7-0.3-1.3-0.8-2-1.1c-1.6-0.8-3.2-1.6-4.8-2.4c-1.1-0.6-1.5-1.1-1-2.2
		c0.4-0.9,0.7-1.7,0.6-2.7c0-0.5,0.5-0.7,0.7-0.4c0.8,0.8,1.4,0.4,2.1-0.1c2.8-2,6.1-2.9,9.3-3.9c2.6-0.8,5.4-1.1,8.1-1.4
		c0.8-0.1,1.2-0.4,1.4-1.1c0.8-3.1,3-5.2,5.2-7.3c0.5-0.5,0.9-0.7,1.5-0.1c0.9,0.8,1.9,1.4,2.8,2.2c0.4,0.3,0.8,0.7,1.1,1.1
		c1.2,1.6,1.3,3.4-0.3,4.7C32.5,8.6,32.3,8.8,32,9c0.4,0.1,0.8,0.1,1.1,0.2c1.7,0.5,3.3,0.3,4.9-0.1c0.8-0.2,1.6-0.3,2.4-0.4
		c1,0,1.9,0.1,2.9,0.1c3.3,0,6.6,0.6,9.9,1c3,0.4,5.9,1.2,8.9,1.8c2,0.4,4,0.2,5.9-0.6c3-1.3,6.1-2.4,9.4-2.5
		c1.4-0.1,2.7-0.2,4.1-0.3c0.1,0,0.3,0.2,0.5,0.2c-0.1,0.2-0.2,0.4-0.3,0.5c-0.2,0.2-0.5,0.3-0.8,0.4c-2.2,0.9-3.3,2.6-3.4,4.9
		c-0.1,1.5,0.1,3.1-0.3,4.6c-0.3,1.3-0.2,2.7,0.5,3.8c0.8,1.1,2,1.9,3.1,2.9c0.2,0.1,0.5,0.1,0.7,0.2c0.2,0.1,0.3,0.3,0.5,0.5
		c-0.2,0.1-0.4,0.2-0.6,0.2c-2.9-0.3-5.8-0.6-8.6-1.6c-2.4-0.8-4.7-1.8-7.1-2.5c-2.4-0.7-4.8-1.1-7.3-1.6c-0.8-0.2-1.7-0.1-2.5,0
		c-0.9,0.1-1.9,0.3-2.8,0.5c0.7,0.7,1.7,0.6,2.5,1c1.9,0.9,2.7,3.2,1.7,5.2c-0.1,0.2-0.4,0.4-0.7,0.4c-0.4,0-0.8-0.1-1.2-0.4
		c-2.3-1.5-4.9-2.5-6.9-4.4c-0.8-0.7-1.7-1.1-2.8-0.9c-0.5,0.1-1.1-0.1-1.6-0.2c-0.4,0-0.8-0.2-1.2-0.1c-4.1,0.7-8.2,0.2-12.4,0.3
		c-1,0-1.9,0-2.9,0c-0.1,0-0.2,0-0.4,0.1c0.1,0.1,0.2,0.2,0.3,0.3c0.6,0.4,1.1,0.9,1.8,1.2c1.3,0.8,2.1,1.8,2.5,3.3
		c0.5,2,1.8,3.7,3.2,5.3c0.3,0.3,0.4,0.7,0.5,1c-0.4-0.1-0.8,0-1.1-0.2c-2.6-1.4-4.8-3.3-6.9-5.3c-1.6-1.4-3.1-3-4.6-4.5
		c-0.8-0.8-1.6-1.2-2.7-1.2c-0.8,0-1.7,0-2.5,0c-2-0.2-4-0.4-6-0.6C10.9,21.4,10,21.5,9.2,21.4C9.2,21.5,9.2,21.4,9.2,21.4z"/>
	<path d="M20.2,18.5c-0.8,0.7-1.7,0.3-2.5,0.3c-0.2,0-0.4-0.1-0.7-0.2c-0.4-0.2-1.1,0.3-1.4-0.4c0.5-0.2,1-0.3,1.4-0.4
		c3.4-0.7,6.9-0.9,10.3-0.3c0.2,0,0.5,0.1,0.7,0.2c0.1,0,0.2,0.2,0.2,0.3c0,0.1-0.1,0.2-0.1,0.3c-1.8,0.2-2.9,1.5-4.4,2.2
		c-1.5,0.7-3.1,1-4.7,0.4c-0.5-0.2-1-0.3-1.6-0.4c-0.4-0.1-0.7-0.3-1.1-0.4c0.2-0.6,0.8-0.4,1.2-0.4c0.7,0.1,1.4,0.2,2.1,0.4
		c2,0.5,3.6-0.3,5.2-1.3c0.1-0.1,0.1-0.3,0.1-0.4c-0.1,0-0.2,0-0.3,0C23.2,18.3,21.7,18.4,20.2,18.5c-0.3-0.3-0.8-0.1-1.1-0.2
		C19.4,18.4,19.9,18.2,20.2,18.5z"/>
	<path d="M12.6,17.3c-0.1,0.3-0.3,0.9-0.6,1.5c0,0.1-0.2,0.1-0.3,0.2c0-0.1-0.2-0.3-0.1-0.4c0.2-0.7,0.4-1.3,0.6-2
		c0-0.1,0.1-0.3,0.2-0.4c0,0.2,0.1,0.3,0.1,0.5C12.6,16.8,12.6,16.9,12.6,17.3z"/>
</g>
</svg>
