<?xml version="1.0" encoding="iso-8859-1"?>
<!-- Generator: Adobe Illustrator 25.3.0, SVG Export Plug-In . SVG Version: 6.00 Build 0)  -->
<svg version="1.1" id="Calque_1" xmlns="http://www.w3.org/2000/svg" xmlns:xlink="http://www.w3.org/1999/xlink" x="0px" y="0px"
	 viewBox="0 0 86.1 27.5" style="enable-background:new 0 0 86.1 27.5;" xml:space="preserve">
<g>
	<path d="M44.1,13.9C48,14,52,14,55.9,14.3c2.5,0.2,5,0.1,7.5,0.3c3.4,0.2,6.8,0.5,10.2,0.7c0.4,0,0.7,0,1.1,0
		c2.8,0.1,5.6,0.2,8.4,0.4c0.8,0.1,1.6,0.3,2.4,0.6c0.3,0.1,0.6,0.5,0.6,0.7c-0.1,0.3-0.4,0.8-0.7,0.8c-1.2,0.3-2.4,0.6-3.7,0.8
		c-2.1,0.3-4.1,0.5-6.2,0.8c-1.5,0.2-2.9,0.5-4.4,0.7c-1.6,0.2-3.3,0.5-4.9,0.7c-2,0.2-3.9,0.2-5.9,0.4c-2.2,0.2-4.5,0.4-6.7,0.6
		c-1.2,0.1-2.5,0.3-3.7,0.4c-2,0.2-3.9,0.3-5.9,0.4c-3.1,0.1-6.2,0.2-9.3,0.4c-1.9,0.1-3.7-0.4-5.1-1.7c-0.6-0.5-1-0.4-1.6-0.2
		c-1.9,0.7-3.8,1.5-5.8,1.6c-1.7,0.1-3.4,0.1-5.2,0.1c-1.1,0-2.1-0.2-3.2-0.2c-0.1,0-0.3,0.1-0.4,0.1c0.1,0.1,0.2,0.3,0.4,0.4
		c1.9,1.2,3.7,2.3,5.6,3.5c0.3,0.2,0.6,0.5,0.9,0.8c-0.5,0.4-0.9-0.1-1.3-0.3c-1.3-0.7-2.6-1.5-3.9-2.2c-1-0.6-2-1.3-3-1.9
		c-0.8-0.5-1.6-0.7-2.5-0.7c-2.2-0.1-4.5-0.4-6.7-0.7c-0.3,0-0.6-0.5-0.9-0.8c-0.4-0.4,0.8-0.7,0.2-1c-0.5-0.4-0.6-0.8-0.8-1.3
		c-0.1-0.4-0.4-0.8-0.6-1.3c-0.1-0.3-0.3-0.5-0.4-0.8c-0.5-1.1-0.3-2,0.7-2.6c1.8-1.1,3.8-2.1,6-2.2c1.3-0.1,2.6,0.3,3.9,0.5
		c0.4,0,0.7,0.1,1.1,0.2c0.5,0.1,0.9-0.2,1.1-0.7c1.4-4.2,4.2-7.4,7.5-10.2c0.6-0.5,1.1-1.5,1.9-1.1c0.7,0.3,0,1.3,0.1,2.1
		c0.2,1,0.2,2,0.4,3c0.2,0.7,0.1,1.2-0.5,1.7c-1.4,1.2-2.5,2.5-3.4,4.1c-0.1,0.3-0.3,0.5-0.5,0.8c-0.5,1-0.4,1.1,0.6,1.2
		c3.2,0.1,6.3,0.1,9.5,0.4c3.2,0.3,6.3,0.2,9.5,0.3c2,0.1,4,0.3,6.1,0.5C44.1,14,44.1,13.9,44.1,13.9z"/>
	<path d="M5.7,14.5c0,0-0.2-0.1-0.2-0.2c0-0.3,0.1-0.7,0.2-1c0.2-0.5,0.6-0.7,1.1-0.6c0.1,0,0.3,0.3,0.3,0.4C7,13.4,6.7,13.7,6.5,14
		C6.3,14.2,6,14.3,5.7,14.5z"/>
</g>
</svg>
