<svg xmlns="http://www.w3.org/2000/svg" viewBox="-803 -2 1597 423" width="1597" height="423">
  <path d="M0,0 L13,0 L23,5 L30,13 L33,22 L35,29 L39,37 L39,50 L36,58 L29,67 L27,80 L24,86 L24,88 L81,90 L115,90 L126,82 L134,75 L143,67 L159,55 L172,47 L182,42 L194,33 L216,21 L230,16 L243,11 L248,10 L256,10 L267,14 L272,18 L279,28 L285,37 L290,50 L291,58 L296,70 L304,83 L309,93 L320,100 L326,107 L328,113 L328,121 L349,124 L386,131 L415,134 L440,135 L478,135 L486,134 L494,134 L497,133 L514,132 L529,128 L542,123 L547,122 L554,122 L564,125 L571,130 L578,129 L628,117 L668,108 L683,103 L694,102 L704,105 L714,112 L732,111 L736,110 L751,110 L766,116 L776,121 L782,126 L787,135 L788,138 L788,150 L781,170 L774,178 L762,187 L757,192 L753,202 L748,208 L736,214 L728,215 L739,222 L744,226 L747,229 L757,234 L763,241 L767,249 L772,253 L779,264 L784,270 L787,276 L790,289 L790,302 L786,310 L781,315 L775,319 L766,322 L755,326 L727,326 L721,325 L718,326 L703,326 L682,319 L670,314 L625,302 L561,286 L542,281 L539,280 L523,278 L485,278 L417,283 L361,287 L299,293 L260,296 L248,296 L248,303 L244,314 L238,322 L231,328 L225,330 L223,334 L211,344 L202,348 L198,349 L193,355 L186,361 L179,369 L175,371 L173,375 L165,391 L158,398 L154,404 L146,411 L140,413 L127,413 L114,407 L101,402 L87,394 L70,382 L54,374 L38,362 L25,350 L16,341 L5,332 L3,330 L-45,332 L-152,335 L-194,337 L-202,337 L-204,348 L-205,356 L-205,365 L-206,369 L-206,384 L-209,393 L-215,400 L-226,406 L-231,412 L-241,417 L-255,417 L-265,412 L-275,403 L-276,402 L-289,401 L-299,396 L-313,384 L-320,376 L-333,360 L-344,346 L-348,341 L-359,340 L-401,338 L-443,335 L-469,331 L-489,328 L-528,327 L-552,324 L-580,320 L-604,313 L-635,302 L-660,295 L-679,287 L-694,281 L-717,268 L-738,254 L-752,243 L-766,228 L-777,214 L-784,203 L-790,188 L-796,176 L-800,163 L-801,151 L-799,141 L-795,132 L-795,120 L-791,111 L-786,105 L-769,96 L-750,89 L-727,84 L-700,78 L-679,74 L-650,71 L-606,69 L-577,69 L-491,74 L-450,76 L-419,77 L-323,78 L-165,79 L-135,79 L-112,78 L-100,60 L-91,48 L-80,35 L-66,22 L-52,11 L-41,4 L-35,2 L-23,2 L-14,6 L-9,4 Z " fill="#000000" stroke="none" fill-rule="nonzero"/>
</svg>