<?xml version="1.0" encoding="iso-8859-1"?>
<!-- Generator: Adobe Illustrator 25.3.0, SVG Export Plug-In . SVG Version: 6.00 Build 0)  -->
<svg version="1.1" id="Calque_1" xmlns="http://www.w3.org/2000/svg" xmlns:xlink="http://www.w3.org/1999/xlink" x="0px" y="0px"
	 viewBox="0 0 228.3 52.4" style="enable-background:new 0 0 228.3 52.4;" xml:space="preserve">
<g>
	<path d="M222.9,34.8c3.3,0.2,3.6,3.6,5.4,5.3c0,0-0.8,1.5-1.3,1.6c-1.6,0.2-3.4,0.4-5,0.1c-7.3-1.5-14.5-3.1-21.7-5
		c-6.6-1.7-13-3.8-19.6-5.5c-1.7-0.5-3.6-0.5-5.4-0.3c-4.6,0.5-9.2,1.2-13.8,1.8c-0.3,0-0.6,0.2-0.9,0.3c0.3,0.3,0.5,0.7,0.9,0.9
		c0.4,0.3,0.9,0.4,1.3,0.7c1.2,0.9,1.2,2.2-0.2,2.6c-3,1-6,1.7-9.1,2.5c-1,0.2-2,0.2-3,0.3c-4.8,0.6-8.7,2.8-11.9,6.4
		c-2.7,3-2.9,3-6.3,1c-5.3-3-11.3-4.8-16.3-8.5c-1-0.7-2.5-1-3.7-1.1c-7.8-0.1-15.7-0.1-23.5,0c-0.4,0-0.8,0.3-1.3,0.5
		c0.3,0.4,0.5,0.9,0.9,1.1c0.7,0.4,1.5,0.6,2.4,0.8c4.5,0.9,6,8.1,4,11.6c-0.2,0.4-1.4,0.7-2,0.5c-1-0.4-2.1-1.1-2.8-2
		c-2.7-3.2-5.3-6.3-7.7-9.7c-1.2-1.7-2.5-2.6-4.4-2.7c-1.3-0.1-2.7-0.3-4,0c-7.1,1.8-14.3,1.2-21.3,0.7c-7.3-0.6-14.6-0.2-21.9-0.8
		c-10-0.8-19.5-3.6-28-9c-0.7-0.4-1.3-1-1.9-1.6c-1-1.1-0.8-1.8,0.8-2.4c0.5-0.2,1.1-0.3,1.6-0.5c-0.5-0.1-1-0.1-1.4-0.3
		C1,23.5,0.1,23,0,22.5c-0.1-0.5,0.6-1.5,1.2-1.8C4.6,19,8,17.1,11.6,15.9c8.3-2.8,16.8-5,25.5-6.3c3.4-0.5,6.8-1.2,10.2-2
		c5.3-1.2,10.6-1,15.9-0.8c8.6,0.2,17.2,0.6,25.9,1c4.5,0.2,8.9,0.5,13.4,1c3.6,0.4,6.5-1,9.4-2.6c1.6-0.9,3.2-1.8,4.9-2.3
		c1-0.3,2.3,0.1,3.3,0.5c1.8,0.9,1.8,2.2,0.1,3.3c-0.7,0.4-1.5,0.7-2.2,1.2c-0.3,0.2-0.4,0.8-0.7,1.2c0.3,0.1,0.6,0.4,0.9,0.4
		c3.1,0.4,6.2,0.7,9.4,1.1c2.6,0.3,4.8-0.5,7-2c4.4-3,8.9-5.7,13.4-8.6c2.5-1.5,2.7-1.7,4.4,0.7c2.4,3.5,5.4,6.2,9.3,7.9
		c1.5,0.7,1.5,1.7,0.2,2.6c-0.4,0.3-1,0.4-1.3,0.7c-1.2,1.1-3.5,0.1-4,2.3c1.6,0.1,3.3,0.2,4.9,0.3c5.4,0.6,10.8,1.3,16.3,1.8
		c2.3,0.2,4.6,0,6.8-0.6c7.8-2,15.6-4.4,23.5-6.3c5-1.2,10-2,15.1-2.8c1.1-0.2,2.3-0.2,3.5,0c1.7,0.2,2.4,1.3,1.3,2.6
		c-1.9,2.3-3.8,4.6-6.1,6.4c-3.3,2.5-6.9,4.6-10.4,6.8c-1.6,1-1.2,1.6,0.2,2.4c3.2,1.8,6.2,3.8,9.4,5.7
		C222,32.4,223,33.2,222.9,34.8c-1.6,1.4-3.1,0.6-4.6-0.1c-3-1.5-5.9-3.1-8.5-5.2c-4.2-3.2-4.1-7,0.4-10c2.2-1.5,4.5-2.8,6.7-4.4
		c0.5-0.4,1.4-0.7,1.1-1.4c-0.3-0.6-1.2-0.5-1.8-0.4c-7.3,1.1-14.4,2.8-21.2,5.5c-3.2,1.3-2.5,4.3-2.6,6.9c-0.1,2.6,0.9,4.7,3.5,5.4
		c7.5,2.2,15.1,4,22.8,5.5C220.3,37,221.7,36.2,222.9,34.8z"/>
	<path d="M22.9,23.8c-1.3,0-2.7,0.2-3.9-0.1c-1.7-0.4-2.6-2.3-2-4c0.5-1.6,2.5-2.5,4.5-2c1.7,0.4,2.6,1.5,2.3,3.2
		C23.5,21.9,23.1,22.9,22.9,23.8C22.8,23.8,22.9,23.8,22.9,23.8z"/>
</g>
</svg>
