<?xml version="1.0" encoding="iso-8859-1"?>
<!-- Generator: Adobe Illustrator 25.3.0, SVG Export Plug-In . SVG Version: 6.00 Build 0)  -->
<svg version="1.1" id="Calque_1" xmlns="http://www.w3.org/2000/svg" xmlns:xlink="http://www.w3.org/1999/xlink" x="0px" y="0px"
	 viewBox="0 0 85.3 22.6" style="enable-background:new 0 0 85.3 22.6;" xml:space="preserve">
<g>
	<path d="M82.8,16.2c-1.8,0.2-3.4-0.7-5-1.3c-2.8-1-5.6-1.9-8.6-2c-1.2,0-2.5-0.2-3.7-0.3c-0.7,0-1.4,0.2-2.1,0.3
		c-0.2,0-0.6,0.2-0.6,0.3c-0.2,1.1-1.2,1.2-2,1.5c-2.7,1-5.5,1.9-8.3,2.8c-2.1,0.7-3.9,1.8-5.4,3.3c0,0-0.1,0.1-0.1,0.1
		c-2.6,2.7-3.2,1.8-5.4,0.1c-1.6-1.2-3.1-2.6-4.5-4.1c-0.8-0.8-1.7-0.8-2.6-0.7c-0.6,0-0.1,0.2,0,0.3c0.7,0.5,0.6,1.1,0.2,1.7
		c-0.2,0.4-0.4,0.9-0.6,1.3c-0.9,1.6-1.3,1.7-2.7,0.4c-1.1-1-2.2-2.1-3.2-3.1c-0.5-0.5-0.9-0.6-1.6-0.4c-0.7,0.2-1.4,0.2-2.1,0.1
		c-1.1,0-2.3-0.2-3.4-0.3c-2.1-0.2-4.1-0.5-6.2-0.7c-1.4-0.1-2.8-0.2-4.3-0.4c-2.9-0.4-5.6-1.3-8.1-2.7c-0.5-0.3-0.9-0.6-1.4-0.8
		c-1.2-0.7-1.3-0.7-0.8-2C0.4,9.3,0.7,9,0.9,9c2.6-0.2,5.1-1.3,7.6-1.7c2.4-0.4,4.7-1.2,7.2-1.2c2.7,0,5.5-0.3,8.2-0.7
		c1.6-0.3,3.2-0.1,4.8-0.3c3.1-0.4,6.2-0.3,9.3-0.3c0.9,0,1.3-0.6,1.7-1.1c0.6-0.7,1.1-1.6,1.6-2.4c0.2-0.4,0.5-0.5,0.8-0.1
		c0.6,0.8,1.3,1.7,1.8,2.5C44.5,4.6,45,4.9,46,4.6C47.1,4.3,48,3.7,49,3c1.3-1,2.7-1.9,4.2-2.7c0.9-0.5,1.6-0.4,2,0.4
		C55.8,2,57.1,2.5,58,3.3c1,0.8,2,1.5,2.9,2.4c0.9,0.8,1.6,1.4,2.5,1.4c1.4,0,2.7-0.1,4.1-0.2c0.6,0,1.2-0.1,1.8-0.1
		c1.9,0.1,3.6-0.6,5.3-1.4c1.4-0.7,2.8-1.5,4.3-2.2c1.1-0.5,2.2-0.8,3.4-1c1.2-0.2,1.8,0.5,1.4,1.7c-0.6,1.8-1.8,3.2-2.8,4.7
		c-0.8,1.1-0.8,1.3,0.3,2.1c1.3,1,2.7,1.7,3.6,3.2c0.9,1.6,0.6,2.2-1.2,2.3C83.3,16.2,83,16.2,82.8,16.2z"/>
	<path d="M16.9,9.4c0.3-0.2,0.6-0.6,0.9-0.7c1.2-0.2,2.5-0.3,3.7-0.4C22.3,8.2,23.2,8,24,8c1.2,0,2.5,0.2,3.7,0.3
		c0.2,0,0.5,0.4,0.6,0.6c0,0.1-0.2,0.4-0.4,0.5c-0.9,0.6-1.9,1.3-2.8,1.9c-0.7,0.5-1.5,1-2.2,1.5c-1.3,1-2.3,1-3.5-0.2
		c-0.9-0.8-1.8-1.7-2.7-2.5c-0.1-0.1-0.1-0.2-0.2-0.2C16.6,9.8,16.7,9.6,16.9,9.4c1.1,0.5,2.2,0.9,3.1,1.8c0.8,0.7,3.3,0,3.8-1
		c0.2-0.5-0.3-0.2-0.4-0.2c-1.1,0-2.3-0.1-3.4,0.1C18.8,10.1,17.8,9.9,16.9,9.4z"/>
	<path d="M12.2,14.4c0.4-0.4,0.9-0.8,0.7-1.5c-0.1-0.8-0.2-1.6-0.3-2.4c0-0.2,0.1-0.4,0.2-0.6c0.1,0.2,0.4,0.3,0.4,0.5
		c0.1,0.9,0.3,1.7,0.3,2.6c0,0.4-0.2,0.9-0.5,1.3C12.9,14.4,12.5,14.3,12.2,14.4L12.2,14.4z"/>
</g>
</svg>
