<?xml version="1.0" encoding="iso-8859-1"?>
<!-- Generator: Adobe Illustrator 25.3.0, SVG Export Plug-In . SVG Version: 6.00 Build 0)  -->
<svg version="1.1" id="Calque_1" xmlns="http://www.w3.org/2000/svg" xmlns:xlink="http://www.w3.org/1999/xlink" x="0px" y="0px"
	 viewBox="0 0 83.2 29" style="enable-background:new 0 0 83.2 29;" xml:space="preserve">
<g>
	<path d="M65.3,8.2c0.9,0,1.8,0,2.7,0c1.3-0.1,2.4-0.4,3.5-1.1c3-1.7,6-3.4,9.4-4.4c0.3-0.1,0.7-0.2,1-0.2C83,2.4,83.4,3,83,4
		c-1,2.4-2,4.7-3.8,6.6c-0.8,0.9-0.8,1,0,2.1c0.8,1.2,1.7,2.3,2.5,3.4c0.2,0.3,0.5,0.7,0.6,1.1c0.4,1.1-0.2,2.1-1.4,2
		c-0.9,0-1.9-0.1-2.8-0.4c-2-0.7-4-1.6-6-2.3c-1-0.4-2-0.6-3.1-0.8c-1-0.2-2,0-2.8,0.8c-2,2.1-4.7,3.1-7.3,4.5
		c-0.9,0.5-1.9,0.9-2.9,1.3c-2.9,1.3-5.8,2.5-8.7,3.8c-1.1,0.5-2.2,1.1-3.3,1.7c-0.5,0.3-1.1,0.6-1.6,0.8c-0.7,0.4-1.4,0.3-1.9-0.4
		c-0.5-0.5-0.9-1.1-1.4-1.6c-0.7-0.8-1.5-1.5-2.2-2.3c-0.1-0.1-0.2,0-0.3-0.1c0,0.1,0,0.2,0,0.3c0,0.4,0,0.8-0.1,1.2
		c-0.1,0.4-0.3,0.6-0.8,0.4c-1-0.4-2-0.8-2.9-1.3c-0.9-0.5-1.8-1.1-2.7-1.7c-0.4-0.2-0.9-0.4-1.3-0.4c-2.4-0.3-4.9-0.4-7.3-0.8
		c-2.3-0.3-4.7-0.8-7-1.2c-1.6-0.2-3.2-0.5-4.8-0.5c-1.4-0.1-2.6-0.7-3.9-1.3c-0.1-0.1-0.3,0-0.5-0.1c0.1,0.1,0.1,0.3,0.2,0.4
		c0.2,0.2,0.4,0.3,0.6,0.4c0.4,0.3,1,0.4,0.9,1.1c-0.4-0.2-0.9-0.3-1.3-0.5c-0.9-0.7-1.7-1.4-2.6-2.1c-0.5-0.4-1-0.7-1.4-1
		c-0.5-0.3-1-0.7-1.4-1.1c-0.1-0.1-0.1-0.5,0-0.6c1.1-0.5,0.5-1,0-1.6c-0.6-0.7-0.4-1.2,0.5-1.6c1.2-0.5,2.4-1,3.7-1.4
		c2.9-0.9,5.8-2,8.8-2.4c2.2-0.3,2.8-1.4,3.2-3.1c0.3-1.5,0.9-2.9,1.9-4.2c0.2-0.3,0.5-0.7,0.8-1c0.3-0.2,0.7-0.3,1.1-0.5
		c0.1,0.3,0.3,0.7,0.4,1C20.8,1.7,20.9,2.3,21,3c0.1,1.3,0.2,2.6-0.6,3.8c-0.2,0.3-0.1,0.7,0.5,0.6c2.7-0.6,5.3-1.1,8-1.6
		c1.3-0.2,2.6-0.3,3.9-0.4c2.1-0.2,4.2-0.6,6.4-0.6c2.6-0.1,5.1-0.4,7.7,0.2c1.5,0.3,3,0.5,4.6,0.8c1.4,0.3,2.8,0.6,4.2,0.9
		c1,0.2,2,0.5,2.9-0.3c0.2-0.1,0.4-0.2,0.7-0.2c0.4,0,0.7,0.4,0.5,0.8c-0.1,0.3-0.2,0.5-0.3,0.8c0.3,0.1,0.6,0.1,0.9,0.2
		c1.7,0.2,3.4,0.3,5.2,0.5C65.3,8.3,65.3,8.2,65.3,8.2z"/>
	<path d="M62.3,12.1c0.5-0.9,1.2-1,2.1-0.7c1.6,0.4,3.3,0.8,5,0.3c0.4-0.1,0.8,0.1,1.2,0.1c0.3,0,0.6,0.1,0.8,0.2
		c-0.3,0.1-0.5,0.2-0.8,0.2c-1.3,0.2-2.7,0.6-4,0c-0.3-0.1-0.6,0-0.5,0.5c0,0-0.3,0.2-0.4,0.1C64.7,11.8,63.5,12.3,62.3,12.1
		L62.3,12.1z"/>
	<path d="M15.2,14.3c0-0.1,0-0.1,0.1-0.2c2.1-0.3,4.2-0.5,6.3,0.3c0.1,0.1,0.2,0.2,0.4,0.4c-0.2,0-0.4,0.1-0.6,0.1
		C19.3,14.3,17.2,14.3,15.2,14.3L15.2,14.3z"/>
	<path d="M24.9,14.3c1-0.3,1.9-0.1,2.9,0c0.8,0.1,1.1,0.5,1,1.3c0,0.1-0.1,0.2-0.2,0.3c-0.1-0.1-0.2-0.2-0.2-0.3
		c-0.2-1.2-1.2-0.9-2-1c-0.1,0-0.2,0.1-0.3,0.1c-0.7,0.5-0.7,0.5-1.2-0.1C25,14.5,24.9,14.4,24.9,14.3L24.9,14.3z"/>
	<path d="M54.8,12.5c-0.5,0.1-1,0.3-1.5,0.5c-0.1,0.1,0.5,0.8-0.3,0.6c-0.6-0.2-1.2-0.3-1.9-0.4c0.6-0.2,1.2-0.4,1.9-0.6
		c0.4-0.1,0.7-0.4,1.1-0.5C54.3,12,54.5,12.3,54.8,12.5L54.8,12.5z"/>
	<path d="M32.8,13.9c0.1,0.3,0.2,0.6,0.2,0.8c0,0.1-0.1,0.3-0.1,0.5c0,0-0.3,0-0.3-0.1c-0.6-1-1.7-0.9-2.7-1.2
		c-0.2-0.1-0.5,0-0.7-0.1c-0.1,0-0.2-0.2-0.3-0.3c0.1-0.1,0.3-0.2,0.4-0.2c0.9,0.1,1.7,0.3,2.6,0.4C32.2,13.9,32.5,13.9,32.8,13.9
		L32.8,13.9z"/>
	<path d="M62.3,12.2c0,0.4,0,0.7-0.6,0.6c-0.5-0.1-0.9-0.2-1.4-0.2c-0.2,0-0.4,0.2-0.5,0.4c-0.1,0.2,0.3,0.7-0.2,0.6
		c-0.3,0-0.5-0.4-0.8-0.7c0.1-0.1,0.3-0.4,0.5-0.4C60.3,12.3,61.3,12.2,62.3,12.2L62.3,12.2z"/>
	<path d="M54.8,12.5c1.1-0.1,2.2,0.2,3.1-0.5c0.1-0.1,0.3,0.1,0.4,0.1c0,0.1,0,0.2-0.1,0.3c-0.4,0.4-2.7,0.7-3.1,0.5
		C54.9,12.9,54.9,12.7,54.8,12.5L54.8,12.5z"/>
	<path d="M32.8,13.9c0.4-0.9,1.3-1,2-1.3c0.2-0.1,0.6,0.4,0.9,0.6l0,0C34.7,13.5,33.8,13.7,32.8,13.9L32.8,13.9z"/>
	<path d="M35.7,13.2c0.2,0,0.5,0,0.7,0c0.3,0,0.6,0.1,0.9,0.1c-0.2,0.2-0.3,0.5-0.5,0.6c-0.4,0.4-0.6-0.1-0.8-0.3
		C35.8,13.6,35.8,13.4,35.7,13.2L35.7,13.2z"/>
	<path d="M42.9,13.2c-0.2,0-0.4,0-0.5-0.1c-0.3-0.1-0.5-0.3-0.7-0.4c0.3-0.2,0.6-0.3,0.9-0.5c0.1,0.2,0.2,0.5,0.3,0.7
		C42.8,13,42.9,13.1,42.9,13.2L42.9,13.2z"/>
	<path d="M44.3,13.2c0.3-0.3,0.6-0.5,1-0.7c0.1-0.1,0.3,0,0.4,0c-0.1,0.2-0.1,0.4-0.2,0.4C45.2,13.1,44.8,13.1,44.3,13.2
		C44.4,13.2,44.3,13.2,44.3,13.2z"/>
	<path d="M44.4,13.2c-0.7,0.9-0.7,0.9-1.5,0l0,0C43.4,13.2,43.8,13.2,44.4,13.2L44.4,13.2z"/>
	<path d="M24.9,14.3c-0.2,0-0.3,0-0.5,0c-0.4-0.1-0.7-0.1-1.1-0.2c0,0,0-0.1,0-0.2c0.4-0.5,0.8,0.1,1.2,0
		C24.7,14,24.8,14.2,24.9,14.3L24.9,14.3z"/>
</g>
</svg>
