<?xml version="1.0" encoding="iso-8859-1"?>
<!-- Generator: Adobe Illustrator 25.3.0, SVG Export Plug-In . SVG Version: 6.00 Build 0)  -->
<svg version="1.1" id="Calque_1" xmlns="http://www.w3.org/2000/svg" xmlns:xlink="http://www.w3.org/1999/xlink" x="0px" y="0px"
	 viewBox="0 0 82.6 30.1" style="enable-background:new 0 0 82.6 30.1;" xml:space="preserve">
<g>
	<path d="M6,18c-0.8,0-1.1-0.4-1.1-1.1c0-0.3,0-0.7-0.5-0.4c-0.6,0.3-1.1,0.8-1.7,1c-0.6,0.2-0.2,1.4-1.2,1.1c0,0.1-0.1,0.3,0,0.3
		C1.6,18.9,1.8,19,1.9,19c1.4-0.5,2.7,0.1,4,0.4c0.8,0.2,1.6,0.4,2.4,0.1c0.5-0.2,1.1-0.2,1.4,0.4c0.3,0.5,0.1,0.9-0.2,1.3
		c-0.2,0.2-0.2,0.4,0.2,0.4c2.7,0.4,5.4,0.9,8.1-0.3c1.4-0.7,1.6-1,1.2-2.5c-0.2-0.8-0.4-1.6-0.5-2.4c-0.1-1.6-0.7-2.1-2.3-2.2
		c-0.2,0-0.3,0-0.4-0.1c0.1-0.2,0.1-0.3,0.2-0.5c0.3-0.4,1.1-0.1,1-0.9c0.2,0,0.5-0.1,0.7,0c0.9,0.7,1.7,1.4,1.6,2.6
		c0,1.2,0.1,2.4,0.6,3.5c0.6,1.2-0.2,2-1.1,2.7c-0.1,0.1-0.2,0.2-0.2,0.3c0.1,0,0.2,0.1,0.3,0.1c1-0.1,2-0.1,3-0.2
		c1.2-0.2,1.2-0.2,1.9,0.8c0.6,0.8,1.1,1.7,1.7,2.5c2.2,2.8,5.1,4.1,8.6,4.4c0.7,0,1.3,0.2,1.9,0.3c1.1,0.2,2.2-0.1,3.1-0.6
		c2-1.1,1.9-4.1-0.1-5.3c-1.4-0.9-3-1-4.6-1.4c-2.2-0.5-4.4-0.5-6.6-0.2c-0.3,0-0.7-0.1-1-0.1c-0.5-0.1-1-0.1-1.6-0.2
		c0.6-0.1,1.1-0.1,1.7-0.2c2.6-0.5,5.3-0.2,7.9-0.4c2.7-0.2,5.3-0.4,8-0.6c0.7-0.1,1.4,0,2.2,0c2.4,0,4.8,0.1,7.2-0.1
		c1.8-0.1,3.5-0.5,5.3-0.7c0.9-0.1,1.8-0.3,2.7-0.3c2.6,0,5.2,0.1,7.9,0.2c0.2,0,0.3,0,0.5,0.1c3.5,1.9,7.3,3.1,11.3,3.7
		c0.1,0,0.2,0,0.4,0c0.4,0.1,1,0.6,1.2,0c0.1-0.2-0.4-0.8-0.8-1.1c-1.6-1.1-3.1-2.1-4.7-3.2c-0.3-0.2-0.8-0.4-1.1-0.6
		c-1-0.7-1.1-1.4-0.2-2.4c1.2-1.3,2.4-2.5,3.5-3.8c0.7-0.8,1.2-1.6,1.8-2.4c0.1-0.1,0-0.2,0.1-0.3c-0.1,0-0.2-0.1-0.3,0
		c-0.8,0.3-1.6,0.5-2.3,0.8c-2.8,1.4-5.6,2.9-8.4,4.3c-0.5,0.2-0.3,0.3,0,0.5c1.3,0.8,1.8,3,0.9,3.9c-0.1,0.1-0.4,0.1-0.6,0.1
		c0-0.2,0-0.3,0.1-0.5c0.6-1,0.6-1.1-0.6-1.1c-1.7,0-3.4,0-5,0c-0.2,0-0.3-0.1-0.5-0.2c0.2-0.1,0.3-0.2,0.5-0.2c1.8,0,3.6,0,5.4,0
		c0.5,0,0.6-0.1,0.3-0.6c-0.8-1.2-1.4-1.6-2.8-1.1c-1.7,0.6-3.4,0.2-5.1-0.1c-3.1-0.5-6-1.2-9.2-1.4c-2.9-0.2-5.8-0.6-8.7-0.7
		c-1.4,0-2.8-0.4-4.2-0.6c-1.2-0.2-2.5-0.3-3.7-0.4c-1.6-0.3-3.3-0.6-4.9-0.8c-2.9-0.5-5.7-0.9-8.7,0c-2.2,0.6-4.4,0.8-6.6,1.3
		c-1.7,0.4-3.4,0.9-5.2,1.4c-0.4,0.1-0.4,0.2-0.2,0.6c0.2,0.3,0.5,0.5,0.6,0.9c0.1,0.2-0.2,0.5-0.3,0.7c-0.1-0.9-0.7-1.4-1.6-1.7
		c-0.2-0.1-0.3-0.2-0.4-0.3c0.2-0.2,0.3-0.4,0.5-0.5c1.2-0.4,2.5-0.8,3.7-1.1c3.3-0.7,6.6-1.5,9.9-2.1c0.9-0.2,1.5-0.6,1.9-1.4
		c1-2.3,2.3-4.4,3.9-6.3c0.5-0.6,1-1.2,1.5-1.7c1.1-1.1,2.3-1.2,3.7-0.4c1.5,0.8,3,1.7,4.5,2.6c1.8,1.2,3.8,2,5.8,2.7
		c1.3,0.5,2.7,1.1,4,1.6c0.2,0.1,0.4,0.2,0.6,0.3c0.7,0.5,1.3,1.2,1.2,2c-0.1,0.8-1,1.2-1.7,1.4c-1.5,0.3-3,0.5-4.6,0.8
		c-0.1,0-0.3,0.2-0.4,0.2c0.1,0.1,0.2,0.3,0.4,0.3c0.2,0.1,0.5,0,0.7,0c2.8,0,5.6,0.3,8.4,0.7c1.1,0.2,2.2,0.1,3.3-0.4
		c1.4-0.7,1.4-0.6,2.3,0.7c0.1,0.2,0.4,0.4,0.7,0.4c1.4,0.3,2.8,0.4,4.2,0.7c2.9,0.6,5.3-0.6,7.7-1.9c2.5-1.4,5.2-2.7,8-3.5
		c0.1,0,0.1,0,0.2-0.1c0.7-0.3,1.4-0.4,2.1,0c-0.2,0.6-0.3,1.4-0.7,1.9c-0.7,1-1.6,1.9-2.4,2.9c-0.9,1-1.8,1.9-2.8,2.8
		c-0.5,0.5-0.4,0.8,0.1,1.1c1.8,1.1,3.6,2.1,5.2,3.4c0.8,0.6,1.5,1.5,2.2,2.3c0.4,0.5,0.2,1-0.5,0.9c-1.4-0.1-2.8-0.2-4-0.6
		c-2.9-0.9-5.7-1.9-8.6-3c-1.1-0.4-2.1-0.7-3.3-0.7c-1.6,0-3.2-0.2-4.8-0.3c-0.4,0-0.7,0-1.1,0.1c-0.1,0-0.2,0.2-0.3,0.4
		c0.1,0,0.2,0.1,0.3,0.1c1.5,0.2,3,0.5,4.6,0.7c1.1,0.2,2,1.1,1.8,2.1c-0.3,1.4-1,2.5-2.4,3c-3.3,1.1-6.6,1.4-10,0.7
		c-1.2-0.3-2.3-0.7-3.1-1.6c-1.1-1.1-2.1-2.3-3.1-3.4c-0.4-0.4-0.8-0.7-1.4-0.6c-2,0.1-4.1-0.3-6.1,0.3c-0.7,0.2-1.6,0-2.3,0.1
		c-0.3,0-0.6,0.1-0.9,0.1c0.3,0.2,0.5,0.4,0.8,0.6c0.7,0.4,1.4,0.6,2,1.1c1.3,0.9,1.8,2.8,1.3,4.5c-0.3,1.1-1.9,2.3-3.3,2.3
		c-1.8,0-3.6,0.1-5.4-0.3c-4.2-0.7-7.1-3-9-6.6c-0.6-1.1-0.7-1.2-1.9-0.9c-0.6,0.1-1.3,0.3-1.9,0.2c-2.1,0-4.3,0.1-6.4,0
		c-2.6-0.1-5.1-0.5-7.6-0.6c-1.4-0.1-2.8-0.3-4.2-0.8c-0.4-0.1-0.9-0.4-1.2-0.7c-0.3-0.3-0.3-0.6-0.1-1.2c0.9-2.2,3-2.8,4.7-4
		c0.4-0.3,0.9-0.5,1.4-0.7c0.5-0.2,0.3,0.3,0.4,0.5c0,0.2-0.2,0.3-0.4,0.4C5.4,16.3,5.4,16.5,6,18z"/>
	<path d="M6.3,15.5c0.1-0.1,0.2-0.2,0.4-0.4c0.2,0,0.5-0.1,0.7,0c0.8,0,1.4,0.5,1.4,1c0,0.5-0.6,1.3-1.2,1.4
		c-0.5,0.1-1.2-0.4-1.3-1.2C6.2,16.1,6.3,15.8,6.3,15.5z"/>
	<path d="M8.5,18c-1,0.5-1.6,0.5-2.6,0C6.8,18,7.7,18,8.5,18z"/>
	<path d="M10.3,16.2c-0.1,1.2-0.1,1.2-1.1,1.4C9.5,17.1,9.9,16.7,10.3,16.2z"/>
	<path d="M21.1,18.7c-0.1-0.1-0.2-0.1-0.3-0.2c-1.4-1.3-1.3-1.9,0.5-2.6c2.4-1,4.9-1.6,7.5-2.1c1.2-0.2,2,0.4,1.7,1.5
		c-0.4,1.5-1.1,2.8-1.8,4.2c-0.2,0.3-0.8,0.5-1.2,0.6c-0.5,0.1-1,0.1-1.4,0c-1.3-0.2-2.6-0.4-3.8-0.8C21.8,19.3,21.5,18.9,21.1,18.7
		c0.6-0.8,1.3-0.9,2.2-0.7c0.8,0.2,1.6,0.3,2.5,0.5c1,0.2,1.8-0.3,2.1-1.2c0.3-0.9,0-1.5-1-1.2C24.8,16.5,22.5,16.7,21.1,18.7z"/>
	<path d="M15.5,20.2c-0.3,0.3-0.4,0.6-0.6,0.8c-0.1,0.1-0.4,0-0.4,0c-0.3-1.2-0.6-2.3-0.9-3.5c0-0.1,0.1-0.2,0.1-0.3
		c0.1,0,0.2,0.1,0.3,0.1C14.4,18.3,14.9,19.2,15.5,20.2z"/>
	<path d="M55.6,16.9c2,0,4.1,0,6.1,0c0.2,0,0.3,0.1,0.5,0.2c-0.2,0.1-0.3,0.2-0.5,0.2c-1.9,0-3.8,0-5.8,0
		C55.9,17.2,55.8,17,55.6,16.9L55.6,16.9z"/>
	<path d="M38.9,15.8c0.8,0,1.7,0,2.5,0c0.1,0,0.2,0.1,0.3,0.1c-0.1,0.1-0.2,0.2-0.4,0.2c-1.7,0-3.4,0-5.2,0c-0.1,0-0.3-0.1-0.4-0.2
		c0.2-0.1,0.3-0.1,0.5-0.2C37.1,15.8,38,15.8,38.9,15.8C38.9,15.8,38.9,15.8,38.9,15.8z"/>
	<path d="M45.6,16.6c-0.9-0.1-1.8-0.2-2.7-0.3c0.9,0,1.8-0.1,2.6-0.1c0.6,0,1.2,0,1.8,0c0.4,0,0.8,0.1,1.2,0.1
		c-0.4,0.1-0.9,0.2-1.3,0.2C46.7,16.6,46.2,16.5,45.6,16.6C45.7,16.6,45.7,16.6,45.6,16.6z"/>
	<path d="M55.7,16.9c-1.8,0-3.6,0-5.4,0c-0.2,0-0.3-0.1-0.5-0.1c0.1-0.1,0.2-0.2,0.3-0.2c1.8,0.1,3.7,0.1,5.5,0.2
		C55.6,16.8,55.6,16.8,55.7,16.9C55.6,16.9,55.7,16.9,55.7,16.9z"/>
	<path d="M32.1,15.8c-0.3,0-0.6,0-0.9,0c0,0-0.1-0.1-0.1-0.1c0.1-0.1,0.1-0.2,0.2-0.2c0.6,0,1.3,0,1.9,0c0.1,0,0.2,0.1,0.3,0.2
		c-0.1,0-0.2,0.1-0.3,0.1C32.8,15.8,32.4,15.8,32.1,15.8C32.1,15.8,32.1,15.8,32.1,15.8z"/>
</g>
</svg>
