<?xml version="1.0" encoding="iso-8859-1"?>
<!-- Generator: Adobe Illustrator 25.3.0, SVG Export Plug-In . SVG Version: 6.00 Build 0)  -->
<svg version="1.1" id="Calque_1" xmlns="http://www.w3.org/2000/svg" xmlns:xlink="http://www.w3.org/1999/xlink" x="0px" y="0px"
	 viewBox="0 0 83.7 11.8" style="enable-background:new 0 0 83.7 11.8;" xml:space="preserve">
<g>
	<path d="M6.6,8.8c-2,0.1-4,0.3-6.1,0.4C0.4,9.2,0.1,9,0,8.9C0,8.8,0,8.5,0.1,8.4c0.2-0.2,0.4-0.5,0.7-0.5c1-0.1,0.7-0.5,0.2-0.9
		C0.9,6.9,1.1,6.3,1.3,6.3C1.7,6.1,2.2,6.1,2.7,6c2-0.1,3.9-0.2,5.9-0.4c0.6-0.1,1.1-0.3,1.7-0.5c2.6-0.9,5.3-1.3,8-1.7
		c3.7-0.5,7.4-0.2,11-0.5c1.3-0.1,2.6,0.3,3.9-0.2c0.5,0.9,1.4-0.2,2.1,0.3c0.5,0.3,1.5-0.1,2.3-0.1c0.8,0,1.6,0,2.3,0
		c0.7,0,1.5-0.1,2.2-0.1c0.8,0,1.6,0.1,2.4,0.1c0.8,0,1.6-0.1,2.4,0c0.8,0,1.6,0.2,2.4,0.1c0.6-0.1,1.3-0.1,2-0.5
		c1.6-1,3.3-1.7,5-2.4c1.2-0.5,1.6-0.2,1.7,1.2c0,0.2,0,0.5,0,0.7c0.1,1.2,0.4,1.4,1.5,1.5c2.5,0.1,5,0.2,7.5,0.4
		c2.2,0.2,4.5,0.4,6.7,0.7c1.8,0.2,3.4-0.4,4.8-1.5c1.2-0.9,2.6-1.2,4.1-1.1c0.5,0,1,0.2,1.1,0.7c0.1,0.3-0.2,0.8-0.4,1.1
		c-0.1,0.2-0.3,0.4-0.5,0.5c-0.4,0.3-0.3,0.7-0.1,1.1c0.2,0.2,0.4,0.4,0.6,0.7c0.7,1,0.3,2-1,2.1c-1.2,0.1-2.3-0.1-3.3-0.5
		c-0.4-0.2-0.8-0.4-1.1-0.5c-1.5-0.7-3-1.2-4.6-1.1c-1.9,0.1-3.7-0.1-5.6,0c-2.1,0.1-4.2,0.4-6.4,0.6c-0.7,0.1-1.3,0.1-2,0.1
		c-1.1,0-1.2,0.1-1.5,1.1c-0.1,0.5-0.2,1-0.4,1.5c-0.6,1.8-1.2,2-2.9,1.2c-1.3-0.6-2.5-1.4-3.9-1.9c-1.4-0.6-2.8-1.4-4.4-0.7
		c-0.3,0.1-0.7,0.1-1.1,0.1c-2.2,0-4.4,0.3-6.5,0.7c-0.4,0.1-0.8,0-1.3,0c-1.5,0.1-3.1,0.2-4.6,0.4c-0.4,0-0.3,0.2-0.1,0.4
		c0.1,0.1,0.3,0.3,0.4,0.4c0.4,0.4,0.5,0.8,0.2,1.3c-0.3,0.4-0.8,0.5-1.3,0.2c-0.7-0.4-1.5-0.8-2.2-1.3c-1-0.8-1.9-1.2-3.3-0.8
		c-0.9,0.3-2,0.1-3,0.1c-1.7,0-3.5,0.1-5.2,0C16.2,9.5,14.1,9.2,12,9c-1.8-0.1-3.6,0-5.4,0C6.6,9,6.6,8.9,6.6,8.8z"/>
</g>
</svg>
