<?xml version="1.0" encoding="iso-8859-1"?>
<!-- Generator: Adobe Illustrator 25.3.0, SVG Export Plug-In . SVG Version: 6.00 Build 0)  -->
<svg version="1.1" id="Calque_1" xmlns="http://www.w3.org/2000/svg" xmlns:xlink="http://www.w3.org/1999/xlink" x="0px" y="0px"
	 viewBox="0 0 85.2 13.2" style="enable-background:new 0 0 85.2 13.2;" xml:space="preserve">
<g>
	<path d="M4.8,5.7C8.7,5.8,12.4,5,16.2,4.1c2.6-0.6,5.1-1.1,7.8-1c4,0.1,7.9,0,11.9,0.1c1,0,2.1,0.3,3.1-0.4c0.1-0.1,0.5,0,0.6,0.1
		c0.2,0.3,0.4,0.3,0.7,0.1c0.4-0.3,0.7-0.8,1.2-0.1c0.1,0.1,0.5,0,0.7-0.1c0.4-0.1,0.8-0.6,0.8,0.3c0,0,0.2,0.1,0.3,0.1
		c0.4-0.2,0.7-0.4,1.1-0.5c0.3,0,0.3,0.7,0.8,0.4c0.3-0.2,0.6-0.3,0.9-0.4c0.3,0.9,1.3-0.1,1.6,0.5c0.2,0.3,0.4,0.3,0.7,0.2
		c0.5-0.1,1.1-1.1,1.4,0.2c0,0,0.1,0.1,0.2,0c0.1,0,0.3-0.1,0.3-0.2c0.6-1.1,1.1,0.3,1.8,0.1c0.5-0.2,1-1.1,1.6-0.1
		c0,0.1,0.3,0.1,0.5,0c0.5-0.2,1-0.7,1.5,0.1c0.9-0.9,1.9,0.6,2.8-0.2c0.2-0.1,0.7,0,1,0.2c2,0.9,3.6,0.4,5.1-1.2
		c0.6-0.7,1.4-1.3,2.1-1.9c0.4-0.3,0.9-0.4,1.2,0.2c0.6,1.2,1.6,1.8,2.9,2.1c0.3,0.1,0.7,0.3,1,0.5c1.1,0.7,1.3,1.1,0.4,2.1
		c-0.5,0.6-0.1,0.7,0.2,0.7C73.2,5.9,74.2,6,75.1,6c0.7,0,1.3,0,2,0c0.6,0,1.1-0.1,1.6-0.6c0.6-0.5,1.2-1,1.8-1.5
		c0.9-0.7,1.9-0.7,2.8,0c2.6,2.1,2.6,3.9-0.2,6.5c-0.2,0.2-0.8,0.3-1.1,0.1c-0.6-0.3-1.1-0.7-1.6-1.1c-0.8-0.7-1.8-1-2.8-1.1
		C76,8.1,74.4,8,72.8,7.9c-0.7-0.1-0.7,0-0.5,0.7c0.1,0.2,0.1,0.6,0,0.8c-0.4,1-1.2,1.4-2.2,1.7c-0.6,0.1-1.3,0.3-1.9,0.4
		c-0.9,0.1-1.5,0.7-2.1,1.2c-0.9,0.8-1.4,0.7-2.1-0.2c-0.4-0.6-0.8-1.2-1.2-1.7c-0.5-0.7-1.1-1-1.9-1.1c-2.1-0.1-4.2-0.3-6.2-0.4
		C53.1,9.2,51.6,9.1,50,9c-0.7-0.1-1.2,0-1.3,0.8c0,0.2-0.3,0.4-0.4,0.6c-0.4,0.5-0.9,0.5-1.2-0.1c-0.4-1-1.2-1-2.1-1
		c-1.9,0-3.8,0.1-5.8,0c-2.4-0.1-4.7-0.4-7.1-0.6c-0.5,0-1,0-1.4,0c-0.9-0.1-1.9-0.2-2.8-0.3c-0.6,0-1.2-0.2-1.8,0
		c-2.4,0.5-4.8,0.3-7.1,0.3c-1.4,0-2.7-0.2-4.1-0.3c-0.6,0-1.3,0.3-1.9,0.3c-3.4,0-6.7,0.1-10.1,0c-0.7,0-1.3-0.4-2-0.7
		C0.5,7.7-0.1,7.4,0,6.8C0.2,6,1,5.5,1.7,5.5C2.7,5.6,3.7,5.6,4.8,5.7z"/>
	<path d="M14.2,5.3c0.2,0,0.4,0,0.5,0c0.4,0.1,0.7,0.1,1.1,0.2c-0.1,0.1-0.2,0.3-0.3,0.4C14.9,6.1,14.3,6.3,14.2,5.3L14.2,5.3z"/>
</g>
</svg>
