<?xml version="1.0" encoding="iso-8859-1"?>
<!-- Generator: Adobe Illustrator 25.3.0, SVG Export Plug-In . SVG Version: 6.00 Build 0)  -->
<svg version="1.1" id="Calque_1" xmlns="http://www.w3.org/2000/svg" xmlns:xlink="http://www.w3.org/1999/xlink" x="0px" y="0px"
	 viewBox="0 0 83.9 26" style="enable-background:new 0 0 83.9 26;" xml:space="preserve">
<g>
	<path d="M45.7,9C46.9,8.9,49,8.5,51,8.4c2.1-0.1,4.2-0.1,6.3-0.1c0.8,0,1.7,0.2,2.5,0.3c1.7,0.3,3.5,0.5,4.5,2.1
		c0.3,0.4,0.5,1,0.5,1.4c-0.1,0.6,0,0.7,0.5,0.7c4.3,0.4,8.4-0.3,12.5-1.6c1.1-0.3,2.2-0.6,3.3-0.6c1.7,0.1,2.8,1.1,2.8,2.8
		c0,1.3-0.2,2.6-0.4,3.9c-0.1,1-0.2,2-0.3,3c-0.1,0.6,0,1.3-0.2,1.9c-0.7,2.3-2.5,3.3-4.9,2.6c-1.7-0.6-3.4-1.2-5-2
		c-3-1.5-6.3-2.2-9.5-3.1c-0.7-0.2-0.9,0.2-1.1,0.7c-0.5,1.3-1.6,2.1-2.8,2.5c-1.5,0.5-3.1,0.4-4.6,0.1c-1.4-0.3-2.8-0.7-4.1-1.1
		c-1.8-0.6-3.6-1-5.4-1.2c-1.3-0.1-1.3,0-1.3,1.2c0,0.1,0,0.1,0,0.2c0.3,3.2-1.6,3.3-3.9,2.7c-1-0.3-1.9-1-2.8-1.6
		c-1-0.7-1.8-1.2-3.2-1.1c-2.1,0.1-4.2,0.3-6.3-0.2c-1-0.2-1.2,0-1.2,1.2c0,0.5,0,1,0.1,1.4c0.2,0.5-0.1,0.9-0.5,1
		c-1.1,0.3-2.1,0.7-3.3,0.3c-2-0.7-3.6-1.8-5.1-3.2c-1-0.8-1.8-1.3-3.2-0.9c-1.2,0.3-2.5,0.1-3.8,0.1c-0.8,0-1.5,0-2.3,0
		c-0.3,0-0.6-0.1-1-0.1c0.1,0.3,0.1,0.7,0.3,1c0.3,0.7,0.3,1.6,1.5,1.6c0.4,0,0.7,0.4,1,0.7c0.1,0.1,0.2,0.4,0.1,0.6
		c-0.1,0.1-0.4,0.3-0.6,0.2c-0.8-0.3-1.6-0.7-2.5-1c-0.9-0.3-1.8-0.7-2.4-1.5C5.5,23.2,5.3,23,5.1,23c-0.8-0.1-0.8-0.6-0.8-1.1
		c0.1-0.9-0.3-1.2-1.2-1.4c-0.9-0.2-1.8-0.8-2.6-1.4c-0.8-0.6-0.8-1.6,0-2.5c1.2-1.4,2.8-2.3,4.3-3.1c2.5-1.4,5.2-2,7.9-3
		c3.4-1.2,6.9-1.9,10.4-2.6c1.1-0.2,2.2-1.2,3.2-1.9c2.2-1.5,4.3-3.2,6.5-4.7c1.2-0.8,2.7-1.3,4.2-1.2c1.2,0.1,1.4,0.3,1,1.4
		c-0.3,0.9-0.7,1.8-1.2,2.6c-0.6,1.2-0.8,2.4-0.8,3.8c0,0.6,0.3,0.9,0.9,0.8c0.4,0,0.7,0,1.1,0C40.3,8.7,42.5,8.8,45.7,9z"/>
	<path d="M13.7,14.7c-0.2-0.1-0.5-0.2-0.5-0.3c0.1-0.3,0.2-0.5,0.3-0.8c0.2-0.3,0.5-0.6,0.7-0.9c0.1,0.4,0.1,0.8,0.2,1.3
		C14.2,14.2,14,14.5,13.7,14.7z"/>
	<path d="M24.9,15.1c0-0.4,0.1-0.7,0.6-0.7c2.4,0.3,4.7,0.6,7.1,1c0.2,0,0.5,0,0.7,0c5,0.1,9.9,0.5,14.9,0.4c1.8-0.1,3.6-0.1,5.4,0
		c3,0.2,5.9,0.4,8.9,0.6c0.5,0,1.1,0,1.6,0c1.6,0.1,3.2,0.3,4.8,0.5c0.1,0,0.3,0.2,0.4,0.3c-0.2,0.1-0.3,0.3-0.5,0.3
		c-1.5-0.1-3.1-0.3-4.6-0.5c-0.4,0-0.8-0.2-1.2-0.2c-5-0.1-9.9-0.2-14.9-0.4c-4.7-0.1-9.5-0.2-14.2-0.4c-2.2-0.1-4.4-0.5-6.6-0.7
		C26.6,15.3,25.7,15.2,24.9,15.1L24.9,15.1z"/>
	<path d="M5.1,15.4C5.7,15,6.4,14.7,7,14.3c0.6-0.5,1.2-0.9,2.1-0.5c1,0.4,0.7,1.2,0.8,1.9c0.1,0.4-0.1,0.5-0.4,0.5
		c-1.3,0-2.7-0.1-4-0.1C5.3,16,5.2,15.6,5.1,15.4C5.1,15.4,5.1,15.4,5.1,15.4z"/>
	<path d="M30.1,9.6c-1.2,0-2.4,0-3.6,0c-0.1,0-0.2-0.2-0.3-0.4C26.3,9.1,26.5,9,26.6,9c1.5-0.1,3-0.3,4.5-0.3c0.8,0,1.5,0.1,2.3,0.3
		c0.3,0.1,0.5,0.3,0.8,0.5c-0.3,0.1-0.6,0.3-1,0.3C32.2,9.7,31.1,9.7,30.1,9.6C30.1,9.7,30.1,9.6,30.1,9.6z"/>
	<path d="M9.4,16.2c0.1-0.2,0.3-0.3,0.4-0.5c0.5-0.5,1-1,1.5-1.4c0.2-0.2,0.6-0.3,0.9-0.4c-0.1,0.3-0.2,0.5-0.3,0.7
		c-0.5,0.6-1.1,1.3-1.6,1.9c-1.1,1.3-2.6,1.1-4.1,1c-0.1,0-0.2-0.2-0.2-0.2c0-0.1,0.2-0.4,0.3-0.4c0.5-0.1,0.9-0.1,1.4-0.1
		C8.3,16.8,8.9,16.7,9.4,16.2z"/>
	<path d="M55.9,19.4c0.5-0.1,1-0.2,1.6-0.3c0.1,0,0.3,0.1,0.4,0.2c-0.1,0.1-0.2,0.3-0.3,0.4c-2.3,0.6-4.6,0.8-6.9,0.7
		c-0.1,0-0.3-0.1-0.4-0.2c0.2-0.1,0.3-0.2,0.5-0.2c1.7-0.3,3.4-0.6,5.1-0.9C55.9,19.2,55.9,19.3,55.9,19.4z"/>
	<path d="M24.9,15.1c0.2,0.3,0.6,0.5,0.7,0.8c0.1,0.3-0.1,0.6-0.2,0.9c-0.2-0.2-0.4-0.3-0.6-0.5c-0.9-1-1.9-1.9-3.4-2
		c-0.4,0-0.8-0.2-1.2-0.4c-0.1-0.1-0.3-0.3-0.2-0.4c0-0.1,0.3-0.3,0.4-0.2C22,13.5,23.6,13.9,24.9,15.1L24.9,15.1z"/>
	<path d="M20.2,21.5c0-0.3,0.1-0.9,0.6-0.6c1.3,0.8,2.5,1.7,3.8,2.6c0.1,0.1,0,0.3,0.1,0.4c-0.1,0-0.2,0-0.3,0
		c-0.6-0.3-1.2-0.7-1.9-1C21.7,22.4,21,21.9,20.2,21.5L20.2,21.5z"/>
	<path d="M19.2,15c0.1-0.1,0.3-0.3,0.4-0.2c0.5,0.1,0.9,0.2,1.4,0.3c0.4,0.1,0.9,0.1,1.2,0.4c0.2,0.2-0.6,0.6-1.5,0.4
		c-0.5-0.1-0.9-0.3-1.3-0.5C19.3,15.3,19.3,15.1,19.2,15z"/>
	<path d="M18.8,19.7c-0.2-0.1-0.3-0.2-0.3-0.3c0-0.1,0-0.3,0.1-0.3c0.5-0.3,1-0.5,1.6-0.7c0.1,0,0.2,0.1,0.3,0.2c0,0,0,0.1-0.1,0.2
		C19.9,19,19.3,19.3,18.8,19.7z"/>
	<path d="M23.1,18.8c-0.2-0.3-0.3-0.6-0.3-0.6c0.4-0.4,0.8-0.7,1.2-1c0,0,0.2,0.2,0.3,0.3C24,17.9,23.6,18.3,23.1,18.8z"/>
</g>
</svg>
