<?xml version="1.0" encoding="iso-8859-1"?>
<!-- Generator: Adobe Illustrator 25.3.0, SVG Export Plug-In . SVG Version: 6.00 Build 0)  -->
<svg version="1.1" id="Calque_1" xmlns="http://www.w3.org/2000/svg" xmlns:xlink="http://www.w3.org/1999/xlink" x="0px" y="0px"
	 viewBox="0 0 82.9 38" style="enable-background:new 0 0 82.9 38;" xml:space="preserve">
<g>
	<path d="M63.2,4.9c-0.2,1.9-0.2,3.9-0.5,5.8c-0.1,0.8-0.7,1.6-1.1,2.4c-0.1,0.3-0.1,0.5,0.2,0.5c1.9,0,3.8,0.2,5.6-0.8
		c1.9-1.2,4-2.1,6.2-2.8c2.5-0.7,4.7-0.6,6.6,1.4c1.5,1.6,2.4,3.3,2.4,5.6c0,2.1,0.3,4.1,0.3,6.2c-0.1,3.1-1.4,5.6-4.1,7.3
		c-1.2,0.8-2.5,0.8-3.8,0.6c-1.1-0.2-2.2-0.4-3.3-0.7c-0.8-0.3-1.6-0.8-2.3-1.3c-1.5-1-2.7-2.6-4.5-3.2c-0.2-0.1-0.3-0.2-0.5-0.2
		c-0.1,0-0.2,0-0.3,0c0,0.1,0,0.3,0.1,0.4c0.5,0.7,1,1.5,1.6,2.2c0.8,1.1,0.7,2.3,1,3.5c0.1,0.6-0.2,1-0.7,1.3
		c-1.2,0.7-2.5,1-3.9,0.8c-4.3-0.5-8.4-1.7-12.5-3.1c-0.9-0.3-1.7-0.9-2.4-1.5c-1-0.8-2.2-0.9-3.4-0.7c-0.7,0.1-1.4,0.2-2.1,0.3
		c-2.7,0.1-5.5,0.2-8.2,0.3c-0.1,0-0.2,0-0.3,0.1c0.1,0.1,0.1,0.2,0.2,0.3c0.3,0.3,0.7,0.6,1.1,1c2.1,1.9,1.5,4.9,0.4,6.5
		c-0.9,1.2-2.3,1.5-3.6,0.6C29,36,26.9,34.6,24.8,33c-1-0.8-1.9-1.8-2.7-2.8c-0.6-0.6-1.2-0.9-2-0.9c-4,0.3-7.8-0.9-11.4-2.6
		c-1.5-0.7-3.1-1.3-4.6-2c-1.5-0.7-2.7-1.7-3.5-3.2c-0.7-1.2-0.6-2.4,0.4-3.2C3.5,16.2,6.1,14,9.6,13c2.1-0.6,4.1-1.3,6.2-1.9
		c0.8-0.2,1.3-0.6,1.9-1.2c0.6-0.7,1.3-1.3,2-2C20,7.6,20.4,7.4,20.7,7c1.8-2.1,4.1-3,6.7-3.4c1.1-0.2,2.4-0.2,3.5-0.4
		C31.9,3,32.9,2.9,34,2.9c0.8,0,1.5,0.2,2.3,0.3c1.7,0.1,3.4,0.2,5.1,0.4c1.6,0.2,3.2,0.3,4.8,0.7c2.2,0.5,4.4,0.3,6.6,0.3
		c0.8,0,1.5-0.6,2.2-1c1.7-1,3.3-2.2,5-3.1c1.8-1,3.1-0.2,3.2,1.9C63.2,3.2,63.1,4,63.2,4.9C63.2,4.9,63.2,4.9,63.2,4.9z"/>
	<path d="M6.8,16.8c1.9,0,3.1,1,3.1,2.8c0,1.6-1.4,3-3.1,2.9c-1.3,0-3-1.6-3-2.8C3.7,18.1,5,16.8,6.8,16.8z"/>
	<path d="M29,21.5c-2,0.1-4,0.1-5.9,1c-0.1,0.1-0.3-0.1-0.5-0.1c0.1-0.1,0.1-0.3,0.2-0.4c0.2-0.1,0.4-0.3,0.6-0.3
		c1.6-0.3,3.2-0.7,4.9-0.9c1.1-0.1,2.2,0.1,3.4,0.2c0.9,0.1,1.2,0.6,1.2,1.5c0.1,1.1-0.1,2-1,2.7c-1,0.7-2,1.3-3,1.8
		c-0.3,0.2-0.7,0.2-1,0.2c-1.5-0.1-3-0.2-4.4-0.3c-0.2,0-0.5,0-0.7-0.1c-0.1-0.1-0.3-0.2-0.4-0.3c0.1-0.1,0.2-0.3,0.3-0.3
		c0.9,0,1.8,0,2.7,0.2c2,0.3,3.9,0.3,5.6-1.2c0.4-0.3,0.8-0.7,1.1-1.1c0.8-1.1,0.4-2.2-1-2.5C30.4,21.4,29.7,21.5,29,21.5z"/>
	<path d="M71,19.6c0,0.3,0,0.6,0,0.9c0.5,2.7-2.6,4.6-4.7,4.3c-0.2,0-0.3-0.1-0.5-0.2c0.1-0.1,0.3-0.2,0.4-0.2
		c0.5-0.1,1-0.2,1.6-0.4c1.5-0.5,2.4-1.7,2.4-3.3c0-1.2,0-2.5-0.2-3.7c-0.2-1-0.5-2.1-1.8-2.3c-0.1,0-0.2-0.3-0.3-0.4
		c0.2-0.1,0.3-0.2,0.5-0.1c1.2,0.3,2.1,0.9,2.3,2.2c0.2,1.1,0.3,2.2,0.5,3.3C71.1,19.5,71.1,19.6,71,19.6z"/>
	<path d="M46.5,27.2c0.8-1,2.1-1.1,3.2-1.4c2.7-0.7,5.4-1.2,8.2-1.8c0.1,0,0.3-0.1,0.4,0c0.1,0.1,0.3,0.2,0.4,0.3
		c-0.1,0.1-0.2,0.3-0.3,0.4c-0.9,0.3-1.8,0.5-2.8,0.7c-2.7,0.6-5.3,1.2-8,1.8C47.3,27.2,46.9,27.2,46.5,27.2L46.5,27.2z"/>
	<path d="M22.6,24.1c-0.1,0.7-0.2,1.4-0.8,1.8c-0.1,0.1-0.2,0.1-0.3,0.1c0-0.1-0.1-0.2-0.1-0.3c0.4-0.9,0.4-1.8,0.1-2.8
		c0-0.1,0.1-0.3,0.1-0.3c0.1,0,0.3,0,0.3,0.1C22.2,23.1,22.4,23.6,22.6,24.1z"/>
</g>
</svg>
