<?xml version="1.0" encoding="iso-8859-1"?>
<!-- Generator: Adobe Illustrator 25.3.0, SVG Export Plug-In . SVG Version: 6.00 Build 0)  -->
<svg version="1.1" id="Calque_1" xmlns="http://www.w3.org/2000/svg" xmlns:xlink="http://www.w3.org/1999/xlink" x="0px" y="0px"
	 viewBox="0 0 65.4 40.9" style="enable-background:new 0 0 65.4 40.9;" xml:space="preserve">
<g>
	<path d="M63.8,30.4c-2.5-0.1-4.7-1-7-2c-2-0.9-3.9-1.8-5.8-2.7c-0.4-0.2-0.9-0.3-1.3-0.5c-0.8-0.4-1.5,0.2-2.2,0.5
		c-0.1,0.1,0.3,0.8,0.3,1.2c0,0.8,0.1,1.6-0.1,2.3c-0.9,3.2-2,6.4-3,9.7c-0.6,1.9-1.7,2.5-3.7,1.7c-1.3-0.6-2.5-1.4-3.7-2.2
		c-1.5-1-2.9-2.1-4.3-3.2c-0.5-0.4-1.1-0.5-1.6-0.1c-0.8,0.6-1.7,1.2-2.5,1.7c-0.6,0.4-1.2,1-1.9,1.3c-0.8,0.4-1.8,0.5-1.5,1.8
		c0,0-0.5,0.3-0.7,0.2c-4-2-8.5-3.2-12.1-6c-1.5-1.1-3.2-2-4.8-3.1c-1.3-0.9-2.4-2-3.6-2.9c-0.8-0.7-1.5-1.4-2.3-2
		c-2.2-1.8-2.4-3.5-1.7-6.3C0.5,19.5,0.8,19.3,1,19c2.9-2.9,5.8-5.8,9.1-8.4c1.3-1,2.5-2.1,4-2.7c0.7-0.3,0.9-0.9,1-1.6
		c0.5-2.2,1.4-4.2,2.7-6c0.2-0.2,0.5-0.3,0.7-0.4c0.1,0.2,0.3,0.4,0.3,0.6c0.1,1.1,0.3,2,1.6,2.3c0.3,0.1,0.5,0.5,0.7,0.8
		c0.8,1.5,2.5,2.1,4,1.2c0.4-0.2,0.5-0.1,0.6,0.2c0.1,0.3,0.2,0.6,0.4,0.8c0.4,0.5,0.8,0.8,1.5,0.6c0.3-0.1,0.7-0.2,1.1-0.1
		c1.9,0.2,3.5-0.6,5.1-1.2c2.6-1.1,5-2.5,7.8-3.2c1.3-0.3,1.7-0.1,2,1.1c0.6,2.4,1.5,4.7,2.5,7c0.9,1.8,1,3.9,1.4,5.8
		c0.1,0.6-0.1,1.1-0.5,1.6c-0.4,0.5-0.2,0.9,0.4,1.1c1.1,0.4,2,0.3,3-0.3c3.2-1.9,6.3-3.9,9.8-5.1c1.3-0.4,2.7-0.6,4-0.8
		c0.3,0,0.7,0.2,1.1,0.3c-0.2,0.2-0.4,0.5-0.7,0.7c-0.2,0.2-0.4,0.3-0.6,0.4c-1.6,0.8-2.1,2.4-1.9,3.9c0.3,3,0.6,6,0.5,9
		c0,1.1,0.6,1.9,1.5,2.4c0.3,0.2,0.6,0.3,0.9,0.5c0.1,0.1,0.1,0.2,0.1,0.3c0,0.1-0.1,0.2-0.2,0.2C64.7,30.4,64.2,30.4,63.8,30.4z"/>
	<path d="M12.9,15.7c1.4-0.3,1.4-0.3,1.4-1.5c0.1-2.1,0.5-2.6,2.7-3.3c1.9-0.6,3.7-1.3,5.5-2c1-0.4,1.8-0.2,2.8,0.1
		c0.6,0.2,1.2,0.4,1.8,0.6c0.2,0.1,0.4,0.2,0.6,0.4c1.3,1.8,2.7,3.6,3.6,5.7c0.1,0.2,0,0.5,0,0.7l0,0c-0.3-0.4-0.7-0.7-0.9-1.1
		c-0.6-1.7-1.9-3-2.9-4.5c-0.2-0.3-0.6-0.4-0.9-0.5c-2.8-1.1-2.8-1.1-5.6-0.2c-1.6,0.5-3.3,1.1-4.9,1.7c-0.7,0.3-1.2,0.8-1.1,1.6
		c0.2,1.6-0.6,2.6-2.1,3.1c-0.4,0.1-0.7,0.4-1.1,0.5c-1.6,0.5-3,1.4-4.3,2.5c-0.4,0.3-0.7,0.6-1.1,0.9c-0.1,0-0.2,0-0.3,0
		c0-0.1-0.1-0.2,0-0.3c1.3-1.5,2.8-2.7,4.7-3.4C11.6,16.4,12.3,16,12.9,15.7L12.9,15.7z"/>
	<path d="M16.9,19.2c1.2,0.1,2.2-0.1,3.2-0.9c0.2-0.1,0.4-0.2,0.6-0.3c1.3-0.5,2.5,0,2.6,1.4c0.3,2.5-0.4,4.8-2.1,6.8
		c-1.1,1.2-2.1,1.3-3.5,0.4c-0.5-0.3-0.9-0.6-1.3-0.9c-0.3-0.3-0.3-0.7,0.2-0.7c0.5-0.1,1.1-0.1,1.2-0.6c0.1-0.5,0-1.2-0.2-1.7
		c-0.1-0.3-0.5-0.6-0.8-0.9c-0.1-0.2-0.3-0.5-0.2-0.5C17.4,20.6,16.6,19.9,16.9,19.2L16.9,19.2z"/>
	<path d="M12.9,15.7c-0.4,0-0.7,0.1-1.1,0c-1.1-0.3-1.7-1.3-1.5-2.3c0.2-0.9,1-1.4,2.2-1.3c1.2,0.2,1.9,1.5,1.2,2.5
		C13.6,15,13.2,15.3,12.9,15.7C12.9,15.7,12.9,15.7,12.9,15.7z"/>
	<path d="M31.3,16.4c0.6,0.9,1.3,1.8,1.7,2.8c0.7,1.8,1.6,3.5,2.5,5.2c0.3,0.5,0.3,1.1,0.4,1.6l0,0c-1.3-1.9-2.4-3.9-3.3-6
		c-0.4-0.9-0.9-1.8-1.3-2.7C31.2,17.1,31.3,16.7,31.3,16.4L31.3,16.4z"/>
	<path d="M16.9,19.3c-0.4,1.1-0.7,2.2-1.1,3.3c-0.1,0.2-0.3,0.3-0.5,0.4c-0.1-0.2-0.2-0.3-0.2-0.5c0-0.4,0.1-0.8,0.2-1.2
		c0.3-0.8,0.5-1.7,0.9-2.5C16.6,18.2,16.9,18.7,16.9,19.3L16.9,19.3z"/>
	<path d="M9.1,14.2c0.2,0,0.4,0,0.5,0.1c0.1,0.1,0.3,0.2,0.3,0.3c0,0.1-0.1,0.4-0.2,0.4c-0.6,0.3-1.1,0.6-1.7,0.9
		c-0.2,0.1-0.4,0-0.7,0c0.1-0.2,0.2-0.4,0.3-0.5c0.2-0.2,0.7-0.5,0.7-0.7C8.4,14.1,8.8,14.3,9.1,14.2z"/>
</g>
</svg>
