<?xml version="1.0" encoding="iso-8859-1"?>
<!-- Generator: Adobe Illustrator 25.3.0, SVG Export Plug-In . SVG Version: 6.00 Build 0)  -->
<svg version="1.1" id="Calque_1" xmlns="http://www.w3.org/2000/svg" xmlns:xlink="http://www.w3.org/1999/xlink" x="0px" y="0px"
	 viewBox="0 0 67 55.2" style="enable-background:new 0 0 67 55.2;" xml:space="preserve">
<g>
	<path d="M53.9,17.8c-0.2,1.5-0.3,2.9-0.6,4.4c-0.3,1.4-0.7,1.7-2.2,1.7c-0.4,0-0.8,0-1.3,0c-0.2,0-0.4,0.1-0.6,0.2
		c0.2,0.2,0.3,0.6,0.5,0.7c1.4,0.7,2.9,0.8,4.3,0c1.2-0.7,2.3-1.7,3.5-2.4c2.2-1.3,4.3-2.5,6.6-3.6c0.4-0.2,1-0.3,1.6-0.3
		c0.8,0,1.4,0.6,1.5,1.5c0,0.5-0.1,0.9-0.2,1.4c-0.6,3.2-1.3,6.4-1.2,9.7c0,2.2,0.6,4.3,0.9,6.5c0.2,1.1,0.4,2.2,0.5,3.3
		c0.1,1-0.8,1.6-1.7,1.2c-1-0.4-2-1-3-1.6c-1.6-1.1-3.2-2.2-4.8-3.4c-1-0.8-2-1.7-3-2.5c-1.3-1-2.9-1.2-4.4-1
		c-0.1,0-0.2,0.1-0.3,0.1c0.1,0.1,0.2,0.1,0.4,0.2c0.2,0,0.5,0,0.7,0c1.1,0.1,1.3,0.5,1,1.5c-0.6,1.6-0.9,3.2-0.9,4.9
		c0.1,1.4-0.6,1.7-1.8,1c-0.6-0.4-1.1-0.6-1.8-0.2c-0.5,0.3-0.7,0.7-0.8,1.3c0,1.1,0.6,1.9,1.1,2.8c0.3,0.6,0.5,1.2,0.7,1.8
		c0,0.1-0.1,0.4-0.2,0.5c-0.1,0.1-0.4,0.1-0.5,0c-0.3-0.3-0.7-0.5-0.9-0.9c-1.1-1.5-2.2-3.1-3.3-4.7c-0.4-0.6-0.6-1.3-1.6-1
		c-0.2,0.1-0.6-0.3-0.7-0.6c-0.2-0.7-0.6-0.6-1.1-0.5c-3,0.9-6,0.8-9,0.3c-0.2,0-0.5,0-0.7,0c-0.7,0-1.3,0-2,0.1
		c0.5,0.4,0.9,0.9,1.4,1.3c0.6,0.5,1.2,1,1.9,1.4c1.9,1.1,2.8,2.9,3.2,4.9c0.2,1.3-0.4,2.5-0.9,3.7c-0.3,0.6-0.7,1.1-1.1,1.6
		c-1.2,1.6-2.8,2.2-4.8,2.1c-1.9,0-2.8-0.8-3.6-2.4c-0.6-1.3-1.5-2.4-2.2-3.7c-0.4-0.6-0.8-1.2-0.9-1.9c-0.4-2.3-1-4.5-0.9-6.9
		c0.1-1.2,0-1.3-1.3-1.6c-1.6-0.4-3.2-0.8-4.8-1.2c-4.1-1.1-7.9-2.7-11.6-4.6c-1-0.5-2.1-1.1-2.6-2.3c-0.2-0.5-0.3-0.9,0.1-1.3
		c1.2-1.3,2.6-2.5,3.7-3.9c1.6-2.1,3.8-3.8,5.2-6.1c1.5-2.3,3.5-4,6-5.2c1-0.4,1.5-1.1,1.7-2.1c0.1-0.6,0.4-1.1,0.6-1.6
		c0.3-0.5,0.7-0.3,0.7,0.1c0.2,0.9,0.3,0.7,0.6,0.1c0.8-1.3,1.6-2.5,2.4-3.7c0.1-0.2,0.5-0.2,0.7-0.4c0.1,0.3,0.2,0.5,0.1,0.8
		c0,0.2-0.2,0.4-0.2,0.7c0,0.3,0,0.7,0.1,1.1c0.3-0.2,0.6-0.4,0.8-0.7c1.8-2.1,3.5-4.2,5.3-6.2c0.6-0.7,1.4-1.3,2.2-1.8
		c0.2-0.2,0.5-0.2,0.8-0.2c0,0.3,0,0.5-0.1,0.8c-0.6,1.1-1.3,2.3-2,3.4C29,4.3,29,4.5,29,4.6c0.2-0.1,0.4-0.1,0.5-0.3
		c0.9-0.7,1.7-1.5,2.6-2.2c0.1-0.1,0.3,0,0.5-0.1c0,0.2,0.1,0.5,0,0.6c-0.3,0.6-0.7,1.2-1,1.9c-0.1,0.2,0,0.5-0.1,0.8
		c0.2-0.1,0.5-0.1,0.7-0.2c0.1,0,0.2-0.2,0.3-0.2c0.6-0.5,1-1.3,2-1.2c-0.3,0.6-0.6,1.2-0.9,1.8c-0.2,0.3-0.3,0.7-0.4,1
		c0,0.2,0.1,0.5,0.1,0.7c0.1-0.1,0.3-0.2,0.4-0.3c0.6-0.4,0.8-1.4,1.8-1.2c-0.2,0.6-0.5,1.3-0.7,1.9c-0.1,0.2-0.1,0.3-0.2,0.5
		c0,0.1,0,0.2,0,0.3c0.1,0,0.3,0,0.4-0.1C35.6,8,36,7.6,36.4,7.2c0.1-0.1,0.4-0.1,0.5-0.1c0.1,0.1,0.2,0.3,0.2,0.5
		C37,8.3,36.9,9,36.8,9.7c0,0.3,0.1,0.4,0.4,0.2c0,0,0.1-0.1,0.1-0.1c0.4-0.3,1-0.9,1.2-0.8c0.7,0.2,0.2,1,0.3,1.6
		c0,0.2-0.1,0.5-0.1,0.7c0,0.1,0,0.2,0,0.3c0.1,0,0.2,0,0.3-0.1c0.4-0.4,1-1.1,1.3-1c0.7,0.2,0.2,1,0.3,1.6c0,0.2,0.1,0.3,0.1,0.5
		c0.2-0.1,0.4-0.1,0.6-0.3c0.7-0.4,0.6-0.4,0.9,0.4c0.2,0.9,0.4,0.9,1,0.3c1.1-1.1,2.3-2.1,3.3-3.3c0.8-1.1,1.9-0.7,2.9-0.8
		c0.8-0.1,1.4,0.5,1.9,1.1c1.6,2.1,2.4,4.4,2.4,6.9c0,0.3,0,0.6,0,0.9C53.8,17.8,53.8,17.8,53.9,17.8z"/>
	<path d="M10.5,22.8c0.2,0.2,0.5,0.5,0.7,0.7c0.7,0.9,0.7,1.8-0.2,2.5c-0.8,0.7-1.7,1-2.6,0.3c-0.8-0.5-1.4-1.1-1.1-2.2
		c0.3-1.1,1.1-1.6,2.3-1.6C9.9,22.6,10.2,22.6,10.5,22.8z"/>
	<path d="M15.9,20.3c0,0.4,0,0.5,0,0.5c-0.1,0.2-0.3,0.3-0.4,0.5c-0.1-0.1-0.3-0.2-0.3-0.4c-0.2-0.4-0.3-0.9-0.4-1.3
		c-0.1-0.5-1-0.6-0.4-1.3c0.3,0.3,0.7,0.6,1,0.9C15.6,19.6,15.8,20.1,15.9,20.3z"/>
	<path d="M13.5,19.6c0.8,0.4,1.1,1.1,1.3,1.8c0.2,0.5,0,1-0.4,1.2c-0.2,0.1-0.4,0.1-0.7,0.1c0.1-0.2,0.1-0.3,0.2-0.5
		c0.5-0.9-0.1-1.5-0.6-2.2c-0.1-0.1,0-0.3,0-0.4C13.3,19.6,13.4,19.6,13.5,19.6z"/>
	<path d="M12.2,30c0.2,1.4-1.3,2.9-2.7,2.8c-0.1,0-0.2,0-0.2-0.1c0-0.1,0-0.2,0-0.2c0,0,0.1-0.1,0.2-0.1c1.3-0.3,2.1-1,2.2-2.4
		c0-0.1,0.2-0.2,0.3-0.2C12,29.8,12.1,29.9,12.2,30z"/>
</g>
</svg>
