<?xml version="1.0" encoding="iso-8859-1"?>
<!-- Generator: Adobe Illustrator 25.3.0, SVG Export Plug-In . SVG Version: 6.00 Build 0)  -->
<svg version="1.1" id="Calque_1" xmlns="http://www.w3.org/2000/svg" xmlns:xlink="http://www.w3.org/1999/xlink" x="0px" y="0px"
	 viewBox="0 0 91.8 47" style="enable-background:new 0 0 91.8 47;" xml:space="preserve">
<g>
	<path d="M0,46.8C0,31.5,0,16.2,0,0.9C0,0.1,0.1,0,0.9,0c30,0,60,0,90,0c0.8,0,0.9,0.1,0.9,0.9c0,15.3,0,30.6,0,45.9
		c-0.5,0.3-1.1,0.2-1.6,0.2c-29.5,0-59.1,0-88.6,0C1.1,47,0.5,47.1,0,46.8z"/>
	<path d="M73.4,25.1c-0.1,0.2-0.2,0.6-0.3,0.9c-0.1,0.1-0.3,0.2-0.4,0.3c0-0.1-0.1-0.2-0.1-0.3c0.2-1.8-0.3-3.4-1-4.9
		c-0.1-0.1,0-0.3,0-0.5c0.1,0.1,0.3,0.1,0.4,0.2C73.2,22,73.1,23.6,73.4,25.1z"/>
	<path d="M23.4,25.4c-0.1,0.8-0.6,1.2-1.3,1.5c-1,0.3-2,0.5-3,0.3c0.2-0.2,0.3-0.6,0.5-0.6C21,26.6,22.2,26,23.4,25.4z"/>
</g>
</svg>
