<?xml version="1.0" encoding="iso-8859-1"?>
<!-- Generator: Adobe Illustrator 25.3.0, SVG Export Plug-In . SVG Version: 6.00 Build 0)  -->
<svg version="1.1" id="Calque_1" xmlns="http://www.w3.org/2000/svg" xmlns:xlink="http://www.w3.org/1999/xlink" x="0px" y="0px"
	 viewBox="0 0 87.9 18.7" style="enable-background:new 0 0 87.9 18.7;" xml:space="preserve">
<g>
	<path d="M28.1,0.1c2.3,0,4.6,0,6.8,0c0.8,0,1.6,0.2,2.5,0.3C39.6,0.6,41.8,0.7,44,1c2.2,0.3,4.2-0.3,6.2-0.6c1-0.2,2-0.3,3-0.3
		c2.6,0,5.2-0.1,7.7,0.2c2.7,0.3,5.5,0.5,8.1,1.5c0.8,0.3,1.2,0.9,1.8,1.4c0.6,0.5,0.4,1.3-0.1,1.9c-0.4,0.4-0.8,0.7-1.2,1.1
		c-0.1,0.1-0.2,0.3-0.2,0.5c0,0.1,0.3,0.2,0.4,0.2C71,7,72.2,6.7,73.4,6.3c1.8-0.6,3.6-1.2,5.3-1.8c0.9-0.3,1.8-0.9,2.7-0.9
		c1.7,0,3.4,0.2,5.1,0.5c1.1,0.2,1.6,1.1,1.3,2.1c-0.3,0.8-0.6,1.6-1.4,2.2C85.5,9,85.2,9.9,85.6,11c0.1,0.2,0.1,0.5,0.3,0.5
		c1.3,0.7,1.2,2.2,1.9,3.3c0.3,0.5,0.1,0.9-0.4,1.2c-1.1,0.9-2.4,1-3.7,0.8c-1.9-0.3-3.7-0.7-5.6-1.1c-1.5-0.3-2.8-1-4.1-1.7
		c-1.1-0.6-2.2-0.7-3.4-0.8c-0.2,0-0.4,0.2-0.6,0.3c0.1,0.2,0.2,0.4,0.4,0.5c0.4,0.3,0.9,0.4,1.2,0.8c0.9,1,0.2,2.5-1.3,2.8
		c-1.1,0.2-2.3,0.5-3.4,0.7c-0.3,0.1-0.6,0.1-0.9,0.1c-3.3,0-6.6-0.1-9.8-0.2c-0.9,0-1.9-0.2-2.5-0.6c-1.6-1.2-3.2-1.1-4.9-0.5
		c-0.8,0.3-1.7,0.4-2.5,0.5c-4.8,1-9.6,0.8-14.4,0.8c-2.6,0-5.3,0.1-7.9,0c-1.7,0-3.3-0.3-5-0.5c-1.1-0.1-2.1-0.5-3.2-0.4
		c-1.7,0.1-3.3-0.7-5.1-0.5c-0.2,0-0.4,0-0.5,0c-2.3-1-4.8-1.5-7.1-2.7c-0.6-0.3-1.2-0.6-1.8-0.6c-0.8-0.1-1.2-0.5-1.2-1.2
		c-0.1-0.7,0.4-1.1,1.1-1.1c0.5,0,1-0.1,0.3-0.7C1,10.4,0.3,10.1,0.6,9.4c0.2-0.6,0.5-1.4,1-1.7c2-1.5,4-2.9,6.3-3.7
		c1.8-0.6,3.6-1.1,5.2-2c2.2-1.2,4.7-1.1,7-1.8c1-0.3,2.3-0.1,3.4-0.1C25.1,0,26.6,0.1,28.1,0.1C28.1,0.1,28.1,0.1,28.1,0.1z"/>
	<path d="M22.1,11.6c-0.3,1.9-1,3.3-2.3,4.3c-0.1,0-0.2,0-0.3,0c-0.1-0.1-0.1-0.2,0-0.3c0.2-0.3,0.5-0.5,0.7-0.8
		c1.4-1.9,1.5-3.7,0.1-5.7c-0.4-0.6-0.8-1.1-1.3-1.7c-0.2-0.3-0.4-0.6-0.5-0.9c-0.1-0.3-0.2-0.6-0.3-0.9c0.2,0.2,0.5,0.4,0.7,0.6
		c0.8,1.1,1.6,2.2,2.3,3.4C21.7,10.2,21.9,11,22.1,11.6z"/>
	<path d="M8.3,7.1c0-0.9,0.3-1.3,1.2-1.3c0.9,0,1.7,0.5,1.7,1.4c0,0.7-0.7,1.4-1.5,1.4C9,8.6,8.3,7.9,8.3,7.1z"/>
	<path d="M27.7,13.3c1,0.2,1.8-0.2,2.5-0.7c0.4-0.2,0.6-0.6,0.9-0.9c-0.4-0.1-0.9-0.4-1.3-0.4c-0.8,0-1.6,0.2-2.5,0.3
		c-0.2,0-0.3-0.1-0.5-0.1c0.1-0.1,0.3-0.3,0.4-0.3c1.2-0.3,2.4-0.8,3.6-0.3c1,0.4,1.2,1.1,0.4,1.7c-1.2,1-2.6,1.6-4.2,1.5
		c-0.2,0-0.7-0.3-0.6-0.4c0-0.4,0.3-0.6,0.8-0.4C27.3,13.2,27.5,13.2,27.7,13.3z"/>
	<path d="M41.7,14.7c0.6,0.1,1.4,0.2,2.1,0.4c0.2,0,0.4,0.3,0.4,0.5c0,0.2-0.2,0.5-0.3,0.5c-1,0.4-2,0.8-3.2,0.5
		c-0.9-0.2-0.7-0.9-0.9-1.3c0-0.1,0.2-0.4,0.4-0.5C40.6,14.8,41.1,14.8,41.7,14.7z"/>
	<path d="M6.7,7.3C6.6,7.4,6.6,7.6,6.5,7.6c-0.6,0-1,0.7-1.6,0.2c-0.1,0-0.1-0.3,0-0.3c0.5-0.1,1.1-0.3,1.6-0.4
		C6.5,7.1,6.6,7.2,6.7,7.3z"/>
	<path d="M44,8.2c-0.2,0.2-0.3,0.4-0.4,0.4c-0.2,0-0.4-0.1-0.6-0.2C43.1,8.3,43.2,8,43.4,8C43.5,7.9,43.7,8.1,44,8.2z"/>
</g>
</svg>
