<?xml version="1.0" encoding="iso-8859-1"?>
<!-- Generator: Adobe Illustrator 25.3.0, SVG Export Plug-In . SVG Version: 6.00 Build 0)  -->
<svg version="1.1" id="Calque_1" xmlns="http://www.w3.org/2000/svg" xmlns:xlink="http://www.w3.org/1999/xlink" x="0px" y="0px"
	 viewBox="0 0 86.5 28.5" style="enable-background:new 0 0 86.5 28.5;" xml:space="preserve">
<g>
	<path d="M83.1,21.4c-1.1-0.2-2.4-0.4-3.5-0.8c-2.3-0.8-4.6-1.7-6.9-2.5c-0.3-0.1-0.7-0.3-1-0.3c-2.2,0-4.3,0-6.5,0.1
		c-0.1,0-0.2,0.1-0.3,0.2c0.1,0.1,0.2,0.2,0.2,0.2c0,0,0.1,0.1,0.2,0.1c0.5,0.1,1.2,0,1.4,0.6c0.1,0.7-0.7,0.8-1.1,1.2
		c-1.1,0.8-2.2,1.4-3.3,2.2c-0.6,0.5-1.1,1-1.6,1.6c-0.6,0.7-1,0.8-1.6,0.1c-0.8-0.9-1.5-1.9-2.3-2.9c-0.2-0.3-0.4-0.6-0.5-0.9
		c-0.3-0.9-1-1.1-1.8-1c-2.2,0.1-4.3,0-6.5,0c-3.2,0.1-6.5,0.2-9.7,0.3c-0.2,0-0.5,0.1-0.7,0.1c0.2,0,0.5,0.1,0.7,0.1
		c0.2,0,0.5,0,0.7,0.1c0.3,0.1,0.5,0.3,0.7,0.5c0.1,0.1-0.2,0.4-0.3,0.6c0,0-0.1,0.1-0.1,0.1c-2.5,1.6-3.7,4.2-5.4,6.5
		c-0.7,1-0.8,1.1-1.8,0.2c-1.8-1.7-3.3-3.7-3.8-6.3c-0.2-1.3-0.3-1.2-1.5-1.1c-1.1,0.1-2.1,0-3.2,0c-0.5,0-0.9-0.1-1.4-0.1
		c-2-0.2-4-0.5-6-0.6c-1.7-0.2-3.4-0.4-5.2-0.4c-2.7-0.1-5.4-0.6-8-1.3C1.7,17.6,0.7,17,0,16c0.7-1,1.8-1.4,2.9-1.7
		c2.3-0.7,4.7-1.5,7-2c3.4-0.8,6.8-1.6,10.3-2.2c2.4-0.4,4.9-0.4,7.3-0.5c1,0,1.6-0.2,2.3-1c1.3-1.5,2.7-2.8,4.2-4.1
		c1.5-1.3,3.1-2.4,4.7-3.6c0.2-0.1,0.4-0.3,0.6-0.4c1-0.6,1.6-0.7,1.6,0.8c0.1,2.8,0.5,5.7,0.7,8.5c0,0.1,0.2,0.3,0.4,0.4
		c0.4,0.1,0.8,0.2,1.2,0.2c2.6,0.1,5.3,0.2,7.9,0.4c2.2,0.2,4.4,0.4,6.6,0.6c0.6,0.1,1.2,0.2,1.7-0.3c0.7-0.6,1.6-0.4,2.4-0.3
		c0.2,0,0.6,0.3,0.6,0.5c0,0.7,0.5,0.8,1.1,0.9c1.2,0.1,2.4,0.2,3.5,0.4c2.8,0.6,5.4,0.3,8-1.1c1.4-0.8,2.8-1.4,4.2-2.1
		c1.7-0.8,3.5-1.2,5.3-1.5c0.4-0.1,0.8-0.1,1.3,0c0.7,0.1,1,0.7,0.6,1.3c-0.7,1.1-1.5,2.2-2.4,3.1c-0.8,0.8-1.9,1.4-2.9,2.1
		c-0.5,0.3-0.5,0.5,0,0.8c0.5,0.3,1,0.7,1.5,0.9c1.2,0.5,2,1.5,2.9,2.4c0.3,0.4,0.6,0.9,0.7,1.4c0.2,0.8-0.1,1.1-1,1.3
		C84.5,21.2,83.9,21.3,83.1,21.4z"/>
	<path d="M75.4,14.8c-0.1,0.1-0.2,0.2-0.3,0.3c-0.1-0.1-0.2-0.2-0.3-0.4c-0.1-0.3-0.1-0.5-0.1-0.8c0-0.1,0.2-0.2,0.3-0.3
		c0,0,0.2,0.1,0.2,0.2C75.4,14.1,75.4,14.4,75.4,14.8z"/>
	<path d="M28.9,19.9c0-0.1,0-0.1,0.1-0.2c0.4-0.5,0.9-0.7,1.5-0.4c0,0,0,0.1,0,0.1c-0.3,0.6-0.9,0.5-1.4,0.5
		C29.1,20,29,20,28.9,19.9C29,20,28.9,19.9,28.9,19.9z"/>
	<path d="M75.2,15.7c0.2,0.1,0.4,0.1,0.4,0.2c-0.1,0.3-0.2,0.6-0.2,0.9c-0.2,0-0.3-0.1-0.5-0.1C75,16.3,75.1,16,75.2,15.7z"/>
</g>
</svg>
