<?xml version="1.0" encoding="iso-8859-1"?>
<!-- Generator: Adobe Illustrator 25.3.0, SVG Export Plug-In . SVG Version: 6.00 Build 0)  -->
<svg version="1.1" id="Calque_1" xmlns="http://www.w3.org/2000/svg" xmlns:xlink="http://www.w3.org/1999/xlink" x="0px" y="0px"
	 viewBox="0 0 76.3 29.2" style="enable-background:new 0 0 76.3 29.2;" xml:space="preserve">
<g>
	<path d="M21.9,26.1c-0.8,0-1.7,0-2.5,0c-0.7,0-1.5-0.2-1.8,0.9c-0.2,0.7-1.6,0.8-2.1,0.1c-0.6-0.6-0.9-1.5-1.5-2
		c-0.6-0.5-1.6-0.4-2.3-0.8c-1.5-0.9-2.8-1.9-4.3-2.9C7,21.2,6.6,21,6.2,20.8c-1.4-0.7-2.6-1.6-2.9-3.4c-0.1-0.5-0.3-0.9-0.5-1.3
		c-0.9-2-1.8-4-2.7-6c-0.1-0.2,0-0.7,0.2-0.7C1.8,8.9,3.2,8,5,7.8c4.1-0.4,8.2-0.2,12.2-1.2c2.6-0.6,5.3-0.7,7.9-1.2
		c3.2-0.6,6.4-0.3,9.7-0.3c1.6,0,2.8-0.5,3.8-1.8c1.4-1.8,3.4-2.7,5.6-3.2C45-0.1,45.6,0.1,46,0.7c0.9,1.5,1.5,3,0.5,4.6
		c-0.3,0.5-0.1,0.9,0.3,1c1.8,0.1,3.3,1,4.9,1.5c0.9,0.2,1.7,0.5,2.6,0.8c1.1,0.4,2.1,0.7,3.3,0.7c0.9,0,1.9,0.3,2.8,0.3
		c3.2-0.1,6.3-0.6,9.4-1.2c1.8-0.4,3.6-0.7,5.5-0.6c0.9,0.1,1.1,0.3,0.6,1.1c-0.5,0.8-1,1.7-1.9,2.3c-0.5,0.3-0.7,0.9-1,1.4
		c-0.4,0.5-0.3,0.9,0.1,1.2c0.7,0.6,1.4,1.2,2.1,1.9c0.3,0.3,0.7,0.6,1,1c0.4,0.7,0.1,1.2-0.7,1.1c-0.9,0-1.9-0.1-2.8-0.4
		c-3.2-0.7-6.5-0.7-9.6-1.7c-0.7-0.2-1.4-0.1-2.1,0c-0.6,0.1-1,0.3-0.2,0.8c0.5,0.3,0.3,0.7-0.1,1c-0.3,0.2-0.6,0.4-0.9,0.6
		c-4.6,2.2-9.2,4.5-13.9,6.5c-2.8,1.2-5.6,2.6-8.3,4c-1.9,1-3.1,0.1-4.6-0.9c-0.5-0.3-0.4-1.4-1.5-1.2c-0.6,0.1-1.4-0.2-2.1-0.3
		C26.9,26.4,24.4,26.2,21.9,26.1C21.9,26.1,21.9,26.1,21.9,26.1z"/>
	<path d="M67.1,10.7c1,1.1,1,1.8,0,3.3C67.3,12.9,67.6,11.8,67.1,10.7z"/>
	<path d="M6.9,9.7c-0.2,0-0.4,0.1-0.5,0C6.1,9.6,5.9,9.4,5.6,9.3c0.2-0.2,0.4-0.5,0.6-0.6c0.4-0.1,0.7,0,0.8,0.5
		C7,9.3,7,9.5,6.9,9.7L6.9,9.7z"/>
	<path d="M4.1,9.7C4.2,9.8,4.2,9.9,4.3,10c0.3,0.5,0.3,0.9-0.2,1.2c-0.1,0-0.3,0-0.3,0c-0.1-0.5-0.2-1-0.2-1.4
		C3.6,9.8,3.9,9.7,4.1,9.7L4.1,9.7z"/>
	<path d="M10.5,14.2c-0.5-0.3-1-0.5-1.5-0.8c-0.3-0.3-0.5-0.7-0.1-1.1c0.2-0.2,0.5-0.3,0.2-0.7c-0.6-0.6-0.2-0.9,0.3-1.2
		c0.2-0.1,0.4-0.2,0.7-0.3c0.9-0.3,1.6,0,2.2,0.7c0.5,0.6,0.5,1.2,0.2,2C12.1,13.6,11.7,14.3,10.5,14.2z"/>
</g>
</svg>
