<?xml version="1.0" encoding="iso-8859-1"?>
<!-- Generator: Adobe Illustrator 25.3.0, SVG Export Plug-In . SVG Version: 6.00 Build 0)  -->
<svg version="1.1" id="Calque_1" xmlns="http://www.w3.org/2000/svg" xmlns:xlink="http://www.w3.org/1999/xlink" x="0px" y="0px"
	 viewBox="0 0 231.1 81" style="enable-background:new 0 0 231.1 81;" xml:space="preserve">
<g>
	<path d="M23,63.1c-0.8,5,1,10.7,3.1,16.3c0.2,0.5-0.1,1.1-0.2,1.6c-0.4-0.2-1-0.2-1.3-0.6c-1.2-1.5-2.7-3-3.5-4.8
		c-1.8-4.6-3.2-9.3-3.4-14.4c-0.2-6-0.7-11.9-0.9-17.9c-0.1-1.5-0.6-2.4-1.9-3.2c-5.5-3.2-9.8-7.9-13.6-13c-2.6-3.4-1.7-5.5,2.3-6.2
		c0.7-0.1,1.3-0.1,2,0C7.2,21.1,8,20.6,8,19.1c0-0.3,0-0.7,0-1c-0.6-3.2,1.2-4.9,3.7-6.2C17,9,22.6,7.4,28.6,6.9
		c5.1-0.4,10.1-1.6,15.1-2.6C53.9,2.2,64-0.2,74.6,0c9,0.1,17.6,2.7,26.2,5.4c8.4,2.6,16.8,4.9,25.1,7.8c10.2,3.5,20.8,5.1,31.2,7.7
		c5.7-0.6,11.1,1.8,16.7,2.2c3.6,0.3,7.2,1.3,10.7,2.1c10.3,2.6,20.5,5.2,30.7,7.9c2,0.6,4,1.6,5.8,2.8c2.5,1.6,4.9,3.4,8.2,3.1
		c1.4-0.1,2.1,0.8,2,2.2c0,0.8-0.1,1.7-0.1,2.5c0.1,2-1.1,2.6-2.9,2.5c-0.5,0-1.1,0.1-1.5-0.1c-3-1.7-5.4-0.2-7.9,1.2
		c-3.7,2.1-7.6,2.9-11.9,3c-7.8,0.3-15.5,1.1-23.3,1.7c-1.2,0.1-2.3,0.1-3.5,0.1c-8.6,0.1-17.2,0.8-25.7,2c-0.7,0.1-1.3,0.1-2,0.1
		c-12.5,0.4-24.9,0.7-37.4,1.1c-3.8,0.1-7.6,0.5-11.4,1c-2.8,0.4-3.9,2.8-5.5,4.7c-0.9,1.1-1.7,2.5-2.7,3.4
		c-0.6,0.5-1.8,0.4-2.7,0.6c-0.1-0.9-0.4-1.8-0.4-2.7c0-0.6,0.4-1.3,0.5-1.9c0.3-3-0.2-3.6-3.4-4.2c-3.6-0.7-7.1-1.3-10.7-2
		c-0.6-0.1-1.3,0.1-2,0.1c0.4,0.4,0.9,0.8,1.2,1.3c0.6,1.3,2,3.3,1.6,3.7c-1.5,1.5-2.4-0.7-3.6-1.3c-1.2-0.5-2.1-1.6-3.1-2.4
		c-3.2-2.3-6.5-3.7-10.6-3.5c-2.4,0.1-4.9-0.6-7.4-0.8c-7.6-0.8-14.9-2.8-22.3-4.4c-2.2-0.5-2.6-0.2-2.4,2
		c1.1,9.3,1.4,18.9,6.5,27.3c0.1,0.1,0.2,0.3,0.2,0.4c-0.1,0.4-0.2,1.1-0.5,1.2c-0.3,0.2-1.1,0-1.3-0.3c-1.2-1.6-2.3-3.2-3.3-4.9
		c-3-5.6-4.6-11.7-5.9-17.8c-0.1-0.5,0.1-1.1-0.1-1.5c-0.3-0.5-0.9-1.1-1.3-1.1c-0.5,0-1.2,0.7-1.2,1.2C23,55.7,23.1,57.8,23,60
		C23,60.7,23,61.3,23,63.1z"/>
	<path d="M114.7,38.5c-0.2,0.4-0.2,0.8-0.5,0.9c-1.7,1-3.3,2.4-5.2,2.7c-8.8,1.6-17.6,2.8-26.4,4.2c-1.4,0.2-2.7,1.1-4.2,1.6
		c-0.3,0.1-1.1-0.1-1.2-0.4c-0.2-0.3,0-1.1,0.3-1.3c1.3-0.8,2.6-1.6,4-1.9c2.7-0.6,5.6-0.7,8.3-1.2c6.2-1,12.4-2,18.6-3
		c0.5-0.1,1-0.2,1.4-0.4c0.6-0.3,1.1-0.7,1.6-1c-0.5-0.4-1.1-0.8-1.7-1.1c-4.5-1.7-9-3.3-13.4-5.2c-3-1.3-5.9-2.9-8.8-4.5
		c-0.8-0.4-1.9-1.3-0.9-2.3c0.3-0.4,1.7-0.4,2.2,0c6.1,5.2,13.7,7.1,21.1,9.6c1.4,0.5,2.7,1.3,3.9,2.1
		C114.2,37.6,114.4,38.1,114.7,38.5z"/>
	<path d="M38.7,22.2c-4.3,0.1-6.8-2.2-6.8-6c0-3.8,2.6-7,5.6-7c3.4,0,7.2,3.1,7.4,6.3C45.2,19.2,42.5,22.2,38.7,22.2z"/>
	<path d="M135.5,21.4c-0.2,0.3-0.4,0.7-0.6,0.7c-0.6,0.1-1.4,0.1-2,0c-6.1-1.8-12.3-3.5-18.2-6c-0.7-0.3-1.3-1-1.9-1.5
		c-0.2-0.2-0.2-0.6-0.3-0.8c0.3-0.1,0.7-0.3,0.9-0.2c6.8,3.1,13.7,5.6,21,7C134.9,20.5,135.2,21,135.5,21.4z"/>
	<path d="M61.2,36.3c1.1-0.3,2.2-0.7,3.3-0.9c0.4-0.1,0.8,0.3,1.2,0.5c-0.3,0.4-0.5,1-0.8,1c-1.9,0.4-3.8,0.7-5.7,1
		c-2.4,0.5-3.1,0-3.3-2.9c0-0.3,0.2-0.9,0.3-1c2.4-0.4,4.8-0.7,7.2-0.9c0.3,0,0.6,0.2,0.9,0.3c-0.3,0.2-0.6,0.5-1,0.7
		c-0.7,0.3-1.5,0.7-2.3,0.9c-0.8,0.2-1.6,0.3-2.3,0.5C59.6,35.8,60.4,36,61.2,36.3z"/>
	<path d="M151.2,26.8c-4.1-1-7.9-2-11.7-3c-0.4-0.1-0.6-0.7-1-1c0.5-0.2,1.1-0.7,1.5-0.5c3.8,0.9,7.6,1.9,11.4,2.9
		c0.4,0.1,0.7,0.5,1,0.7C152,26.2,151.6,26.5,151.2,26.8z"/>
	<path d="M57.5,39.5c0.3,0,0.7,0.2,1.2,0.2c1.4,0.1,2.7,0.1,4.1,0.1c-1,1.5-2.6,1.1-4,1.3c-0.8,0.1-1.7,0.1-2.4,0
		c-0.7-0.2-1.3-0.7-1.9-1c0.7-0.1,1.3-0.3,2-0.4C56.6,39.6,56.9,39.6,57.5,39.5z"/>
	<path d="M16,17.1c0.7-0.5,1.4-1.3,2.1-1.4c0.6,0,1.8,0.9,1.7,1.3c-0.1,1-0.8,1.9-1.2,2.8c-0.5-0.4-1.1-0.8-1.6-1.2
		C16.6,18.2,16.4,17.6,16,17.1L16,17.1z"/>
	<path d="M54.8,42c0.7,0,1.3-0.1,2,0c1,0.1,1.9,0.3,2.8,0.5c-1.1,0.4-2.2,1.1-3.4,1.2c-1.4,0.1-2.9-0.3-4.4-0.6
		c-0.6-0.1-1-0.6-1.5-0.9c0.5-0.1,1-0.3,1.5-0.3C52.8,41.9,53.8,42,54.8,42C54.8,42,54.8,42,54.8,42z"/>
	<path d="M60.1,30.9c0.6-0.1,1.3-0.1,1.8-0.3c1.2-0.3,2.3-1.1,3.4,0.1c-1.2,0.5-2.4,1-3.6,1.4c-0.6,0.2-1.3,0.1-2,0
		c-0.6-0.1-1-0.5-1.5-0.8c0.5-0.3,1.1-0.7,1.6-1C60,30.5,60.1,30.7,60.1,30.9z"/>
	<path d="M64.7,25.9c0.5,0.6,0.8,0.9,1.1,1.2c-0.5,0.3-0.9,0.8-1.4,0.9c-0.2,0.1-0.6-0.5-1-0.8C63.8,26.8,64.1,26.4,64.7,25.9z"/>
	<path d="M70.3,30c-0.5-0.3-0.7-0.5-1-0.6c0.6-0.4,1.1-1,1.7-1.2c0.4-0.1,0.9,0.2,1.4,0.3C71.7,29,70.9,29.5,70.3,30z"/>
</g>
</svg>
