<?xml version="1.0" encoding="iso-8859-1"?>
<!-- Generator: Adobe Illustrator 25.3.0, SVG Export Plug-In . SVG Version: 6.00 Build 0)  -->
<svg version="1.1" id="Calque_1" xmlns="http://www.w3.org/2000/svg" xmlns:xlink="http://www.w3.org/1999/xlink" x="0px" y="0px"
	 viewBox="0 0 85.2 17.4" style="enable-background:new 0 0 85.2 17.4;" xml:space="preserve">
<g>
	<path d="M75.2,7.7c-0.6-0.4-0.4-0.9-0.2-1.4c0.3-1.1,0-1.5-1.2-1.4c-0.7,0.1-1.4,0.3-2.1,0.3c-1.9,0-3.7,0-5.6,0
		c-0.7,0-1.3-0.4-1.9-0.4c-0.6,0-1.3,0.4-1.9,0.4c-1.1,0-2.3-0.2-3.4-0.3c-1.6-0.1-3.1,0-4.7,0C50.6,4.8,47,4.7,43.4,4.5
		c-1.6-0.1-3.2-0.2-4.8-0.4c-0.1,0-0.1,0-0.2,0c-1.3-1-2.7-0.3-4.1-0.3c-3.2,0-6.5,0-9.7,0c-0.5,0-1.1-0.1-1.6-0.2
		c-0.4,0-0.7-0.2-1.1-0.1c-3.2,0.6-6.5,0.1-9.7,0.3c-1,0.1-2,0.3-3,0.5C9.1,4.3,9.1,4.7,9,4.9c-0.9,0-1.8-0.1-2.7-0.1
		C6.9,3.9,7.9,4,8.8,3.7C9.9,3.2,11,3,12.2,3c0.3,0,0.6,0,0.9-0.1c1.1-0.4,2.1-0.3,3.2,0C16.7,3,17.1,3,17.5,3
		c3.6-0.7,7.3-0.4,10.9-0.2c2,0.1,4.1,0.1,6.1,0.2c1.2,0.1,2.3-0.4,3.4-1c0.8-0.5,1.8-1,2.6-1.6c0.9-0.6,1.8-0.5,2.7-0.1
		c1,0.4,2,0.9,2.9,1.3C46.9,2,47,2.6,46.4,3.3c-0.1,0.1-0.3,0.2-0.4,0.3c0.2,0,0.3,0.1,0.5,0.1c3.8,0.5,7.6,0.3,11.5,0.4
		c0.7,0,1.4,0.2,2.1,0.3c1.8,0.2,3.5-0.1,5.2-0.9c1.3-0.7,1.4-0.6,2.4,0.5c0.2,0.2,0.6,0.4,0.9,0.4c1.3,0,2.5,0,3.8,0
		c0.3,0,0.7-0.1,1-0.3c1.6-1,3.5-1.1,5.3-1.4c0.9-0.2,1.9-0.4,2.8-0.5C82.1,2,82.8,1.9,83.5,2c0.5,0.1,0.9,0.5,0.6,1
		c-0.2,0.5-0.5,1.1-0.8,1.6C82.5,5.9,82.7,7,83.7,8c0.5,0.5,1,1,1.3,1.6c0.5,0.9,0,1.9-1.1,2.1c-0.4,0.1-0.7,0-1.1,0c-2,0-4,0-5.9,0
		c-1.3,0-2.6-0.1-3.9-0.5c-0.6-0.2-1.3-0.1-1.9-0.2c-0.7-0.1-1.1,0.1-1.4,0.9c-0.3,0.8-1.1,1.7-1.9,2.1c-2.2,1.1-4.5,1.5-6.7-0.2
		c-1.1-0.8-2.3-1.1-3.7-1.1c-3,0-6.1,0.2-9.1,0.7c-0.3,0-0.6,0-0.9,0c-0.5,0-1,0.1-1.5,0.1c0.3,0.3,0.7,0.5,0.9,0.8
		c0.3,0.4,0.5,1,0.6,1.5c0.2,0.9-0.6,1.6-1.5,1.5c-1.5-0.2-2.7-1-3.6-2.1c-0.7-0.8-1.6-1-2.6-1.2c-1.7-0.3-3.4,0.2-5.1,0.1
		c-1.7-0.1-3.5-0.2-5.2,0c-4.4,0.6-8.7,0.1-13.1,0.3c-1.4,0.1-2.8,0.3-4.3,0.3c-2.1,0-4.2-0.2-6.1-1.1c-1.6-0.7-3.2-1.4-4.7-2.1
		c-0.6-0.3-1.2-0.6-1.1-1.2c0.2-0.9-0.6-2,0.7-2.7C1.1,7.6,1.5,7.3,1.9,7C3,6.4,4.2,5.7,5.3,5.1c0.1,0,0.2,0,0.3,0
		c0,0.1,0.1,0.3,0,0.3C5.4,5.7,5.2,5.9,4.9,6.2c-0.7,1-0.9,2-0.3,3.2c0.6,1.1,1.7,1.5,2.8,1.5c0.4,0,0.8,0,1.2,0.1
		c-2.1,1.4-5.2-0.7-5.1-2.7c0-1.1-0.1-1.1-1.2-0.6C2,7.8,2.1,8.8,1.2,8.3C1,8.2,0.6,8.7,0.9,9.1c0.3,0.3,0.7,0.6,1.1,0.8
		c0.9,0.3,1.7,0.5,1.4,1.8c0,0.1,0.2,0.4,0.4,0.4c2,0.7,3.9,1.7,6.1,1.8c1.6,0,3.2,0.3,4.8-0.1c0.7-0.2,1.4-0.6,2-1.1
		c0.3-0.2,0.5-0.7,0.4-0.9c-0.6-1.3-0.3-3-1.8-3.9c-0.6-0.3-1.1-0.9-1.7-1.3c-0.1-0.1-0.2-0.3-0.3-0.4c0-0.1,0-0.2,0.1-0.3
		c0,0,0.2,0,0.3,0c1,0.7,2,1.5,3,2.3c0.5,0.4,1.1,0.9,0.7,1.8c-0.1,0.2,0.1,0.6,0.2,0.8c0.7,1,0.6,1.9-0.3,2.7
		c-0.1,0.1-0.2,0.1-0.3,0.2c0.1,0,0.3,0.1,0.4,0.1c0.6,0,0.9,0.1,0.9-0.8c0-0.7,0.5-1.2,1.4-1.3c1.3-0.2,2.7-0.7,4-0.9
		c0.7-0.1,1.4-0.1,2.1,0.1c0.8,0.2,0.9,0.7,0.4,1.3c-0.1,0.1-0.2,0.3-0.4,0.4c-0.3,0.3-0.6,0.7-1,1c0.5,0.1,1,0.2,1.5,0.2
		c2.7-0.5,5.4-0.2,8.1-0.3c1.5-0.1,3-0.4,4.5-0.3c1.7,0.1,3.3,0,4.9-0.4c1.6-0.3,3.2-0.2,4.8-0.4c1.7-0.1,3.3-0.3,5-0.4
		c0.8-0.1,1.5-0.2,2.3-0.3c0.7,0,1.5-0.2,2.1,0c2.7,0.6,5.3,0.1,7.9-0.6c1.7-0.5,3.4-1.1,5.3-1c1.1,0.1,2.1,0.2,3.2,0.4
		c2.3-0.6,4.6-0.6,6.9-0.6c0.4,0,0.7,0,1-0.3c0.3-0.4,0-0.8-0.3-1.1c-0.9-1-1.5-2-1.1-3.4c0.1-0.3,0-0.6-0.3-0.8
		C80,3.9,77,5,76.7,5.9C76.4,6.7,76.2,7.5,75.2,7.7z"/>
	<path d="M7.1,9.5C5.7,9.5,4.9,8.9,5,7.8c0.1-1,1.2-1.9,2.4-1.9c1,0,2,1,2,1.9C9.3,8.8,8.4,9.6,7.1,9.5z"/>
	<path d="M9,4.9c1.5,0.2,1.7,1.5,2,2.6c0.2,0.9,0,1.9-0.9,2.4c0.1-0.3,0.1-0.6,0.2-0.8c0.4-1.4,0.2-2.6-0.9-3.7
		C9.2,5.3,9.1,5.1,9,4.9z"/>
	<path d="M24.4,8.1c2.6,0,5.3-0.2,7.9,0c8.7,0.7,17.5,0.2,26.2,0.2c2.9,0,5.9-0.1,8.8-0.4c1.9-0.2,3.8-0.2,5.7-0.3
		c0.2,0,0.3,0.1,0.5,0.2c-0.1,0.1-0.3,0.2-0.4,0.2c-2,0.1-3.9,0.2-5.9,0.3C56.6,9,46,8.9,35.4,8.7C32,8.7,28.6,8.5,25.2,8.4
		C24.9,8.4,24.7,8.2,24.4,8.1C24.4,8.1,24.4,8.1,24.4,8.1z"/>
	<path d="M24.4,8.1C22.2,8,20,7.9,17.8,7.7c-0.1,0-0.2-0.2-0.3-0.2c0.1,0,0.2-0.1,0.3-0.1c0.4,0,0.9-0.1,1.3,0
		c1.6,0.5,3.2,0.3,4.8,0.4C24.1,7.7,24.3,8,24.4,8.1L24.4,8.1z"/>
	<path d="M75.2,7.7c1,1.4,1,1.4-0.4,2.6C75,9.4,75.1,8.6,75.2,7.7z"/>
</g>
</svg>
