<?xml version="1.0" encoding="iso-8859-1"?>
<!-- Generator: Adobe Illustrator 25.3.0, SVG Export Plug-In . SVG Version: 6.00 Build 0)  -->
<svg version="1.1" id="Calque_1" xmlns="http://www.w3.org/2000/svg" xmlns:xlink="http://www.w3.org/1999/xlink" x="0px" y="0px"
	 viewBox="0 0 80.1 28.8" style="enable-background:new 0 0 80.1 28.8;" xml:space="preserve">
<g>
	<path d="M76.4,18c-1.6-0.1-3.3-0.9-5.1-1.5c-0.8-0.3-1.7-0.4-2.6-0.6c-0.1,0-0.2,0.1-0.3,0.1c0.1,0.1,0.1,0.3,0.2,0.4
		c0.4,0.2,0.8,0.3,1.2,0.5c0.7,0.4,0.9,1,0.3,1.6c-0.8,0.7-1.7,1.5-2.8,1.9c-3.3,1.1-6.7,2.1-10.1,2.9c-2.3,0.5-4.7,0.8-7,1.6
		c-0.8,0.3-1.6,0.2-2.4,0.3c-1.9,0.2-3.9,0.5-5.8,0.6c-1.2,0.1-2.4-0.2-3.4-1.1c-1.3-1.1-2.5-2.4-4.3-2.8c-0.5-0.1-0.9-0.1-1.3,0.3
		c-0.6,0.6-1.7,0.7-2,1.6c-1.3,0.4-2.5,1.5-4,0.5c-0.2-0.2-0.6-0.3-0.8-0.3c-2,0.5-3.7,0-5.4-1c-0.2-0.1-0.4,0-0.6-0.1
		c0.1,0.2,0.1,0.4,0.2,0.5c1.6,1.4,1.5,3.2,1.4,5.1c0,0.1-0.1,0.4-0.2,0.4c-0.1,0-0.3-0.1-0.5-0.2c-1.1-1-2.3-2.1-3-3.5
		c-0.4-0.8-0.6-1.7-0.7-2.5c-0.1-0.8-0.5-1-1.1-1.1c-0.5-0.1-1.1-0.2-1.6-0.2c-1.7,0-3.3-0.3-4.8-1.1c-0.2-0.1-0.4-0.3-0.6-0.3
		c-2.5-0.4-4.7-1.6-7-2.6c-0.8-0.4-1.5-1-2.1-1.6c-0.4-0.3-0.1-0.7,0.2-0.8c0.8-0.1,1.5-0.2,2.3-0.3c0.3,0,0.5-0.1,0.8-0.1
		C3.4,14.3,3.2,14.2,3,14c-0.7-0.5-1.5-1-2.1-1.6c-1-0.9-1-1.4,0-2.2c2.2-1.7,4.6-2.8,7.5-3c2.4-0.2,4.8-0.5,7.3-0.7
		c1.3-0.1,2.5-0.1,3.8,0c1,0.1,1.6-0.3,2.1-1.1c1.6-2.5,4.2-3.4,6.7-4.5c0.6-0.3,1.4-0.1,2.1-0.2c3.3-0.6,6.6-0.8,10-0.5
		c1.2,0.1,2.4,0,3.7,0.2c2.2,0.3,4.4,0.4,6.6,0.4c2.5,0.1,4.9,0.4,7.2,1.1c3.5,1,7,1.8,10.4,3.2c0.5,0.2,1.1,0.5,1.5,0.9
		c0.7,0.6,0.6,1.5-0.2,2c-0.4,0.3-0.9,0.5-1.4,0.8c-0.1,0,0.1,0.5,0.1,0.5c0.4,0,0.9,0.1,1.2-0.1c1.1-0.3,2.2-0.8,3.4-1.1
		c1.1-0.3,2.3-0.7,3.4-0.9c0.5-0.1,1.3,0,1.7,0.4c0.6,0.5,1.2,1.1,1.6,1.8c0.5,0.7,0.6,1.4,0.3,2.3c-0.2,0.6-0.1,1.4-0.1,2.1
		c-0.1,0.8-0.1,1.5-0.4,2.2C79,17.5,78.2,18,76.4,18z"/>
	<path d="M13.3,16.8c-0.1,0-0.2,0-0.2,0c0-0.1-0.1-0.2-0.1-0.3c0.4-0.8,0.9-1.5,1.3-2.3c0,0,0.2,0,0.3,0c0,0,0.1,0.1,0.1,0.1
		C14.8,15,13.9,16.6,13.3,16.8z"/>
</g>
</svg>
