<?xml version="1.0" encoding="iso-8859-1"?>
<!-- Generator: Adobe Illustrator 25.3.0, SVG Export Plug-In . SVG Version: 6.00 Build 0)  -->
<svg version="1.1" id="Calque_1" xmlns="http://www.w3.org/2000/svg" xmlns:xlink="http://www.w3.org/1999/xlink" x="0px" y="0px"
	 viewBox="0 0 89 29.2" style="enable-background:new 0 0 89 29.2;" xml:space="preserve">
<g>
	<path d="M87,20.8c-1.3-0.3-2.5-0.6-3.8-0.9c-2.1-0.6-4.1-1.3-6.1-1.9c-0.5-0.1-1.1-0.2-1.6-0.2c-1.8,0-3.6,0-5.4,0
		c-0.7,0-1.2,0.1-1.6,0.8c-1.4,2.3-3.8,3.6-5.8,5.3c-0.7,0.6-1.4,1.1-2,1.7c-1.2,1-2.1,0.9-3-0.4c-1.2-1.6-2.1-3.4-2.9-5.2
		c-0.3-0.7-0.7-0.7-1.3-0.6c-0.1,0-0.2,0.1-0.3,0.1c-1.6,0.4-3.2,1-4.9,1.3c-1.7,0.3-3.5,0.4-5.3,0.7c-0.8,0.1-1.5,0.3-2.3,0.3
		c-1.6,0.1-3.2,0.2-4.8,0.4c-0.4,0-0.5,0.2-0.2,0.5c1,0.9,0.9,2,0.4,3.1c-0.3,0.8-0.4,1.8-1.2,2.5c-1.3,1.2-3.2,1.4-4.6,0.3
		c-0.3-0.3-0.7-0.5-1-0.7c-1.8-1.2-3.2-2.8-3.8-4.9c-0.1-0.5-0.3-0.7-0.8-0.7c-2.3,0-4.5-0.9-6.8-1.1c-1.2-0.1-2.3-0.4-3.5-0.5
		c-2.7-0.3-5.5-0.5-8.2-0.5c-1.7,0-3.3-0.5-4.8-1.4c-0.5-0.3-0.9-0.6-1.2-1c-0.4-0.4-0.2-0.9,0.3-1.1c0.2-0.1,0.4-0.1,0.5-0.1
		c1.1-0.2,1.1-0.2,0.7-1.3c-0.3-0.9-0.3-0.9,0.6-1.2C3.6,13.3,4.8,13.1,6,13c1.9-0.2,3.9-0.5,5.8-0.9c2.4-0.4,4.8-0.9,7.2-1.2
		c2.5-0.3,5-0.5,7.5-0.7c1-0.1,1.2-0.2,1.4-1.2c0.3-1.3,0.6-2.7,1.1-3.9c0.6-1.5,1.5-3,2.3-4.4C31.7,0,32.2-0.2,33,0.1
		c1.7,0.6,3.1,1.4,4.4,2.5c2.1,1.7,4.1,3.4,7,3.6c1.2,0.1,2.4,0.5,3.6,0.8c1.3,0.4,2.6,0.8,3.9,1.2c1.5,0.4,2.7,1.2,3.1,2.8
		c0,0.2,0.4,0.4,0.6,0.5c1.4,0.1,2.7,0.3,4.1,0.3c4.3,0.2,8.6,0.3,12.9,0.4c1,0,2-0.1,3-0.5c1.2-0.4,2.5-0.7,3.7-1.2
		c2.4-0.9,4.8-1.9,7.1-2.8c0.3-0.1,0.8-0.4,0.9-0.3c0.5,0.5,1.4,0.6,1.4,1.5c0.1,0.8,0.1,1.6-0.4,2.2c-0.5,0.7-1,1.3-1.5,2
		c-0.7,1-0.8,1.3,0,2.4c0.5,0.8,1.1,1.6,1.7,2.3c0.4,0.6,0.5,1.2,0.1,1.8C88.4,20.5,87.9,21,87,20.8z"/>
</g>
</svg>
