<?xml version="1.0" encoding="iso-8859-1"?>
<!-- Generator: Adobe Illustrator 25.3.0, SVG Export Plug-In . SVG Version: 6.00 Build 0)  -->
<svg version="1.1" id="Calque_1" xmlns="http://www.w3.org/2000/svg" xmlns:xlink="http://www.w3.org/1999/xlink" x="0px" y="0px"
	 viewBox="0 0 82.1 28" style="enable-background:new 0 0 82.1 28;" xml:space="preserve">
<g>
	<path d="M82.1,10.1c0.6,3.2-2.7,6.2-5.6,6.5c-1.5,0.1-3.1-0.2-4.5-0.6c-2.4-0.7-4.8-1.7-7.2-2.6c-0.4-0.2-0.9-0.4-1.3-0.5
		c-0.6-0.1-1.2-0.1-1.8-0.1c0.4,0.3,0.8,0.7,1.2,1c0.3,0.2,0.5,0.5,0.8,0.8c0.7,0.7,0.6,1.1-0.3,1.4c-1.6,0.5-3.2,1-4.8,1.4
		c-0.1,0-0.1,0.1-0.2,0c-1.3-0.5-2.3,0.3-3.5,0.5c-1.1,0.1-2.3,0.5-3.4,0.4c-1.2-0.1-2.4,0.6-3.6-0.3c-0.3-0.3-1-0.2-1.5-0.2
		c-1.3,0.1-2.3-0.5-3.2-1.3c-0.6-0.6-1.3-0.6-2-0.4c-2.9,0.7-5.8,1.5-8.7,2c-2.3,0.4-4.8,0.3-7.1,0.4c-1.1,0-2.3,0-3.4,0
		c-0.2,0-0.4,0.2-0.6,0.3c0.1,0.2,0.2,0.4,0.4,0.6c0.9,0.5,1.8,1.1,2.8,1.6c0.6,0.3,1,0.7,1.2,1.4c0.5,1.2,1.1,2.3,1.7,3.5
		c0.2,0.5,0.5,1.1,0.6,1.6c0,0.2-0.1,0.5-0.3,0.6c-0.2,0.1-0.4-0.1-0.6-0.2c-0.1-0.1-0.2-0.2-0.2-0.3c0-1.1-0.9-1.4-1.7-1.8
		c-1.7-0.8-3.4-1.6-5.2-2.4c-1.1-0.5-2-1.3-2.3-2.5c-0.1-0.5-0.3-0.9-0.5-1.3c-0.3-0.7-0.7-1.1-1.5-1.3c-3.1-0.7-6.2-1.5-9.3-2.3
		c-0.5-0.1-0.9-0.2-1.4-0.2c-2.1-0.1-3.5-1.3-4.7-2.7C0,12.6-0.1,12.1,0,11.8c0.1-0.4,0.5-0.5,1-0.3c0.5,0.1,1.1,0.1,1.6,0.1
		c0.1,0,0.3-0.2,0.3-0.3c0-0.1-0.2-0.4-0.3-0.4c-0.3-0.1-0.7-0.1-1-0.2c-0.8-0.2-1-0.6-0.5-1.2c0.5-0.6,1.1-1.3,1.6-1.9
		C3,7.4,3.2,7.3,3.3,7.3C4.4,8,5,7,5.7,6.7c0.5-0.2,1.1-0.4,1.7-0.5C8.5,6,9.6,5.9,10.7,5.7c2.2-0.4,4.3-0.9,6.5-1.2
		c2.5-0.4,5.1-0.7,7.6-1.1c0.4-0.1,0.8-0.4,1.2-0.7c0.3-0.3,0.6-0.7,0.8-1.1c0.7-1.2,2-0.6,3-0.9c0.1,0,0.3,0.2,0.4,0.3
		c0.3,0.6,0.5,1.3,0.8,1.9c0.5,0.9,1.5,1.3,2.4,0.9C33.7,3.5,34,3.2,34,2.9c0-0.7,0.4-1.3,1-1.6C35.5,1,36.2,1,36.7,0.8
		c0.5-0.2,0.9-0.8,1.5-0.1c0.1,0.1,0.5,0,0.6-0.1c0.7-0.7,1.5-0.6,2.4-0.5c1.7,0.2,3.4,0.1,5.1,0c0.6,0,1.2,0.1,1.7,0
		C49,0,49.7,0.8,50.5,0.2c0.7-0.5,1.5,0.3,2.2-0.1c0.7-0.3,1.2,0.7,1.9,0.1c1.4,0.5,3-0.1,4.5,0.5c0.6,0.2,1.3,0.2,1.9,0.1
		c1.5-0.2,2.4,0.8,3.3,1.7c0.1,0.1,0.1,0.5,0.1,0.8c-0.1,1.2-0.7,2.1-1.6,2.9c-0.1,0.1-0.3,0.2-0.4,0.3c0.2,0,0.4,0.1,0.6,0.1
		c1.5,0,2.8-0.6,4.1-1.2c1.3-0.6,2.6-1.3,3.9-1.7c1.2-0.4,2.4-0.7,3.6-0.9c1.5-0.3,2.7,0.4,3.9,1C81.2,5,82.2,7.3,82.1,10.1z"/>
	<path d="M14.2,16.2c0.7-0.7,1.3-1.4,2-2c0.4-0.4,0.5-0.7,0.4-1.2c-0.2-1.6-0.4-3-1.5-4.3c-0.1-0.1,0-0.2,0-0.3c0.1,0,0.3,0,0.4,0.1
		c1,0.9,1.7,2,1.6,3.4c0,0.6,0.2,0.9,0.9,0.6c0.4-0.1,0.8-0.1,1.2-0.1c0.5,0,1.1,0.1,1.6,0.1c-0.6,0.2-1.2,0.6-1.7,0.6
		c-1-0.1-1.6,0.5-2.2,1.1c-0.4,0.4,0.3,0.8-0.1,1.1c-0.3,0.2-0.7,0.4-1.1,0.6c-0.4,0.2-0.9,0.4-1.3,0.6
		C14.3,16.3,14.3,16.3,14.2,16.2z"/>
</g>
</svg>
