<?xml version="1.0" encoding="iso-8859-1"?>
<!-- Generator: Adobe Illustrator 25.3.0, SVG Export Plug-In . SVG Version: 6.00 Build 0)  -->
<svg version="1.1" id="Calque_1" xmlns="http://www.w3.org/2000/svg" xmlns:xlink="http://www.w3.org/1999/xlink" x="0px" y="0px"
	 viewBox="0 0 53.8 16.7" style="enable-background:new 0 0 53.8 16.7;" xml:space="preserve">
<g>
	<path d="M27.5,15c-1.7-0.4-3.5-0.2-5.2-0.3c-1,0.5-2.1,0.1-3.1,0.6c-0.7,0.4-1.5,0.3-2.3,0c-1-0.3-2-0.5-3-0.4c-2,0.1-4-0.2-6-0.6
		C5.4,13.9,3,13,0.7,12c-0.7-0.3-0.9-0.9-0.6-1.5c0.4-1.2,1.2-1.9,2.3-2.4c1-0.5,1.9-0.9,2.9-1.3c0.3-0.1,0.6-0.1,0.9-0.1
		c0,0,0.1,0.1,0.1,0.1C7.8,7.7,7,9,6.8,10.2c-0.2,1.2-0.5,1.3-1.9,1.1c-0.5-0.3-1.1-0.4-1.6-0.8c-0.1-0.1-0.3-0.2-0.4-0.2
		c-0.2-0.1-0.3-0.4-0.4-0.5c-0.1,0.2,0.1,0.5-0.1,0.8c-0.1,0.1-0.1,0.2-0.2,0.2c0.2-0.1,0.2-0.2,0.4-0.3c0.3-0.2,0.5-0.1,0.8,0.1
		c0.4,0.4,1,0.6,1.5,0.8c0.9,0.2,1.8,0.4,2.6,1c0.3,0.2,0.8,0.4,1.1,0.1c0.4-0.4,0.1-0.8-0.1-1.2c-0.6-1.1-1-2.2-1.3-3.4
		C7,6.7,7.6,6.8,8.1,6.7c0.6-0.1,1.3,0.1,1.1,0.7c-0.3,1.4,0.4,2.4,1,3.4c0.1,0.1,0.1,0.2,0.2,0.3c0.8,1.5,0.5,2.1-1.1,2.6
		c-0.1,0-0.2,0-0.2,0c0,0,0.1,0,0.1,0c1.3,0,1.6-0.9,1.9-1.9c0.3-1.1,0.2-2.2-0.5-3.2c-0.1-0.2-0.3-0.3-0.4-0.5
		c-0.2-0.4-0.2-0.7,0.2-1C10.7,7,11,7.2,11.3,7.4c1,0.9,2.1,3.5,1.2,5.1c-0.6,1.2-0.5,1.1,0.8,1.4c1.2,0.3,2.3-0.4,3.4-0.3
		c2.9,0.1,5.8,0,8.6,0c1.4,0,2.9,0,4.3-0.5c0.5-0.2,1-0.3,1.5,0.1c0.1,0.1,0.2,0.2,0.2,0.3c-0.1,1-1,1-1.6,1.3
		c-0.6,0.2-1.2,0-1.8,0.2C27.8,15,27.7,15,27.5,15z"/>
	<path d="M37.5,4.4c0.1,0,0.3,0.1,0.4,0.1c0.3,0.2,0.5,0.4,0.8,0.7c-0.3,0.1-0.6,0.3-0.9,0.4c-0.1,0-0.2,0.1-0.2,0.1
		c0.1,0,0.2,0,0.2,0.1c1.4,0.4,2.8,0.6,4.2,0.5c0.2,0,0.4,0,0.6-0.1c3-1.2,6.2-2,9.4-2.9c0.3-0.1,0.7-0.1,1.1,0
		C53.8,3.5,54,4,53.6,4.6c-0.3,0.4-0.6,0.7-1,1C52,6,51.5,6.6,50.7,6.7c0,0-0.1-0.1-0.1-0.1c-0.2-0.5,0.1-0.7,0.4-1
		c0.2-0.2,0.6-0.3,0.4-0.6c-0.2-0.2-0.5-0.1-0.8,0C49.6,5,48.8,5.2,48,5.5c-1.6,0.6-3.2,1-4.8,1.5c-1.7,0.5-3.5,0.4-5.2,0
		c-3.6-0.8-7.1-2-10.7-2.3C23.1,4.4,19,4.6,14.9,5.3c-2.6,0.5-5.3,1.1-7.9,1.6C6.7,7,6.4,7,6.2,6.6l0,0C6.6,6.4,7,6.1,7.5,5.9
		c2.1-0.5,4.2-1.1,6.4-1.5c1.7-0.3,3.4-0.5,5.1-0.7c0.4-0.1,0.8-0.2,1-0.6c0.2-0.3,0.3-0.5,0.5-0.8c0.2-0.3,0.4-0.6,0.6-0.7
		c0.8-0.3,1.5-0.8,2-1.5C23.2,0,23.8,0,24.2,0c0.1,0,0.2,0.2,0.2,0.2c-0.3,0.6,0.1,1,0.2,1.5c0.1,0.4,0.3,0.7,0.2,1.1
		c0,0.6,1.1,0.9,1.6,0.4c0.2-0.2,0.4-0.4,0.6-0.5c0.1,0,0.2,0.1,0.3,0.1c0.1,0.1,0.2,0.2,0.4,0.2c2.4,0,4.5,0.9,6.8,1.3
		c0.9,0.2,1.7,0.7,2.6,0.1C37.3,4.5,37.4,4.4,37.5,4.4z"/>
	<path d="M52.1,10.4c0.5,0.3,1,0.5,1.4,0.8c0.4,0.4,0.4,0.8-0.1,1.1c-0.7,0.4-1.4,0.6-2.2,0.5c-1.9-0.2-3.8-0.8-5.6-1.3
		c-1.3-0.4-2.6-0.6-4-0.7c-0.6-0.1-1.3,0.1-2,0.2c-0.4,0.1-0.8,0.1-1.2,0.2c-0.5,0.2-1,0.3-1.4,0.8c-0.2,0.3-0.5,0.6-0.8,0.9
		c-0.6,0.7-0.6,0.9-0.1,1.7c0.1,0.1,0.1,0.2,0.1,0.3c0,0.1-0.1,0.2-0.2,0.2c-1,0.1-1.2-0.7-1.3-1.4c-0.1-0.6-0.3-0.6-0.7-0.5
		c-0.5,0.2-1,0.3-1.6,0.6c-0.5,0.2-1,0.2-1.3-0.3l0,0c-0.3-0.7,0.3-0.9,0.7-1.1c1.6-0.9,3.4-1.1,5.1-1.8c1.8-0.7,3.7-0.8,5.6-0.8
		c1.2,0,2.2-0.2,3.4,0.6c1.2,0.9,3,0.9,4.5,1.1c0.8,0.1,1.3-0.2,1.4-1C52,10.5,52.1,10.4,52.1,10.4z"/>
	<path d="M36.3,14.9c0.4,0.2,0.8,0.4,1.1,0.7c0.2,0.2,0.4,0.5,0.6,0.8c-0.3,0.1-0.7,0.3-1,0.3c-1.7,0-3.3,0.2-5-0.2
		c-0.4-0.1-0.9,0-1.3,0c-1.2-0.1-2.3-0.5-3.2-1.4c0,0,0.1-0.1,0.1-0.1c1.4-0.2,2.6,0.5,3.9,0.6c1.2,0.1,2.4,0.1,3.6,0.1
		c0.4,0,0.8-0.1,1-0.5C36.2,15,36.3,14.9,36.3,14.9z"/>
	<path d="M27.1,2.8c0.4-0.5,0.8-0.7,1.4-0.7C29.7,2,30.8,1.7,32,1.6c1.3-0.1,2.7-0.2,4,0c0.3,0,0.7,0.3,0.7,0.5
		c-0.1,0.9,0.6,1.5,0.8,2.3c0,0-0.1,0.1-0.1,0.1c-0.7,0.4-1-0.1-1.2-0.5c-0.5-1.2-1.5-1.4-2.6-1.3C32,2.7,30.5,2.7,29,3.1
		c-0.6,0.1-1.2,0.3-1.8-0.2C27.1,2.8,27.1,2.8,27.1,2.8z"/>
	<path d="M50.7,6.7c-0.1,0.1-0.1,0.2-0.2,0.3c-0.2,0.4-0.7,0.7-0.5,1.1c0.2,0.5,0.6,1,1,1.5c0.3,0.3,0.8,0.6,1.1,0.8
		c0,0-0.1,0.1-0.1,0.1c-0.9,0.4-1.6,0.2-2.4-0.9c-0.5-0.7-0.6-1.5-0.3-2.2C49.5,6.7,49.8,6.2,50.7,6.7C50.6,6.6,50.7,6.6,50.7,6.7z"
		/>
	<path d="M16.9,7.4c-0.4,1.2-1.5,1.7-2.5,2.2C13.5,10,13,9.7,12.7,8.7C12.5,8.3,12.2,8,12,7.6l0,0c0.6,0.1,0.9,0.5,1.2,1
		c0.4,0.7,0.4,0.7,1.1,0.5c0.8-0.2,1.4-0.8,2-1.4c0.1-0.1,0.3-0.2,0.4-0.4C16.9,7.2,16.9,7.3,16.9,7.4z"/>
	<path d="M16.7,7.3c0.2-0.6,0.2-0.6-0.3-0.6c-0.7,0-1.3,0-2,0c-0.1,0-0.2-0.1-0.3-0.1c0.1-0.1,0.2-0.2,0.4-0.2c0.9,0,1.9,0,2.8,0
		c0.1,0,0.3,0.1,0.4,0.2c0,0.1,0,0.3-0.1,0.4c-0.2,0.2-0.4,0.3-0.7,0.5C16.8,7.4,16.8,7.3,16.7,7.3z"/>
	<path d="M12,7.6c-0.4-0.1-0.6-0.4-0.2-0.7c0.3-0.2,0.6-0.3,1-0.3c0.2,0,0.5,0.1,0.7,0.1c-0.2,0.1-0.4,0.1-0.6,0.2
		C12.6,7.1,12.3,7.4,12,7.6C12,7.6,12,7.6,12,7.6z"/>
	<path d="M44.9,6.8c-0.1,0.2-0.1,0.4-0.2,0.6c-0.1,0.2-0.3,0.4-0.5,0.6c-0.3-0.3,0-0.6,0.1-0.8c0.1-0.1,0.1-0.3,0.2-0.4
		c0.1-0.1,0.1-0.3,0.2-0.4C44.8,6.5,44.9,6.6,44.9,6.8z"/>
	<path d="M35.9,8.7c-0.4,0-0.6,0-0.8,0c-0.1,0-0.2-0.1-0.3-0.1c0.1-0.1,0.1-0.2,0.2-0.2c0.4,0,0.8,0,1.2,0c0.1,0,0.1,0.1,0.2,0.2
		c-0.1,0.1-0.2,0.2-0.2,0.2C36,8.7,35.8,8.7,35.9,8.7z"/>
	<path d="M22.2,8.4c-0.1,0-0.3,0.1-0.4,0.1c-0.1,0-0.2-0.1-0.1-0.1c0-0.1,0.1-0.2,0.2-0.2c0.1,0,0.3,0,0.5,0c0.2,0,0.3,0.1,0.5,0.2
		C22.6,8.3,22.4,8.4,22.2,8.4C22.3,8.5,22.3,8.4,22.2,8.4z"/>
	<path d="M44.7,8.8c0,0.2-0.1,0.3-0.1,0.5c0,0-0.2,0-0.3,0c0-0.3,0.1-0.6,0.2-0.8c0,0,0.2,0,0.2,0C44.6,8.6,44.6,8.7,44.7,8.8z"/>
	<path d="M37.6,8.7c-0.2,0-0.4-0.1-0.6-0.1c-0.1,0-0.1-0.1-0.1-0.1c0.3-0.1,0.5-0.2,0.8-0.2c0.1,0,0.2,0.1,0.2,0.2
		c0,0-0.1,0.1-0.1,0.2C37.7,8.6,37.6,8.6,37.6,8.7z"/>
	<path d="M40.8,8.6c-0.1,0-0.1-0.1-0.2-0.1c0.1-0.1,0.1-0.2,0.2-0.3c0.3,0,0.6,0,0.9,0c0,0,0,0.1,0,0.1C41.4,8.5,41.1,8.6,40.8,8.6z
		"/>
	<path d="M34,8.6c0,0-0.1,0-0.2,0c-0.1,0-0.1-0.1-0.2-0.2c0-0.1,0.1-0.1,0.1-0.1c0.2,0,0.4,0,0.6,0c0.1,0,0.1,0.1,0.1,0.2
		c0,0.1-0.1,0.2-0.2,0.2C34.2,8.7,34.1,8.7,34,8.6z"/>
	<path d="M25.9,7.9c0.1,0.1,0.2,0.3,0.2,0.3c-0.1,0.1-0.2,0.3-0.3,0.3c-0.1,0-0.2-0.2-0.3-0.3C25.6,8.2,25.7,8.1,25.9,7.9z"/>
	<path d="M27.7,8C27.9,8.1,28,8.2,28,8.4c-0.1,0.1-0.2,0.2-0.4,0.2c-0.1,0-0.2-0.2-0.2-0.2C27.5,8.2,27.6,8.1,27.7,8z"/>
</g>
</svg>
