<?xml version="1.0" encoding="iso-8859-1"?>
<!-- Generator: Adobe Illustrator 25.3.0, SVG Export Plug-In . SVG Version: 6.00 Build 0)  -->
<svg version="1.1" id="Calque_1" xmlns="http://www.w3.org/2000/svg" xmlns:xlink="http://www.w3.org/1999/xlink" x="0px" y="0px"
	 viewBox="0 0 85.1 14.7" style="enable-background:new 0 0 85.1 14.7;" xml:space="preserve">
<g>
	<path d="M66.1,11.5c-0.5,0-1.1,0-1.6,0.1c-0.8,0.1-1,0.8-0.5,1.4c0.2,0.2,0.4,0.4,0.6,0.6c0.1,0.2,0.4,0.5,0.3,0.6
		c-0.2,0.2-0.5,0.5-0.7,0.5c-0.6-0.1-1.2-0.2-1.7-0.5c-1-0.7-1.9-1.5-2.8-2.3c-1-1-2.1-1.6-3.7-1.5c-1.7,0.2-3.5,0.2-5.2,0.3
		c-0.2,0-0.3,0.1-0.5,0.1c0.1,0.1,0.2,0.3,0.3,0.4c0.1,0.2,0.4,0.3,0.5,0.5c0.1,0.3,0.1,0.6,0,0.8c-0.1,0.1-0.4,0.2-0.6,0.2
		c-1.2-0.4-2.5-0.7-3.3-1.6c-0.6-0.7-1.4-0.9-2.3-0.7c-0.6,0.1-1.3,0.2-1.9,0.2c-5,0-10,0.2-14.9-0.1c-2.9-0.1-5.8-0.1-8.7-0.9
		c-1.2-0.3-2.5-0.4-3.7-0.4c-2.5-0.2-5-0.3-7.5-0.4c-2.3-0.1-4.6,0-6.8,0C0.8,9.1,0,9.1,0,8.5c0-0.8,0.8-0.6,1.4-0.7
		c1.9-0.1,3.8-0.2,5.7-0.4c0.1,0,0.3-0.1,0.4-0.1c-0.1,0-0.2-0.1-0.3-0.1C5.6,7.2,3.9,7.1,2.3,6.9C1.8,6.9,1.2,6.7,0.7,6.5
		C0.5,6.4,0.3,6,0.4,5.9C0.5,5.7,0.8,5.6,1,5.4c0,0,0.1,0,0.2,0c4.5,0.6,9.1,0.3,13.6,0.2c1.6,0,3.3-0.6,4.9-0.9
		c0.2,0,0.3-0.1,0.5-0.1c1.7-0.1,3.3-0.3,5-0.4C36.1,3.9,47,3.9,57.9,4c1.3,0,2.3-0.3,3.1-1.3c0.8-0.9,1.7-1.7,2.7-2.4
		c0.8-0.6,1.4-0.4,1.7,0.5c0.5,2,2.1,1.8,3.4,2c0.6,0.1,1.2,0,1.8,0c2.6,0,5.1,0.7,7.5,1.5c0.4,0.1,1.1,0.3,0.9,0.9
		c-0.1,0.4-0.5,0.8-0.8,1.1c-0.1,0.1-0.4,0.1-0.7,0.2c-0.1,0-0.3,0.1-0.4,0.2c0.2,0,0.4,0.1,0.5,0.1c0.6-0.2,1.2-0.4,1.8-0.7
		c1-0.5,2-1,3.1-1.4c1.1-0.4,1.7,0.2,1.4,1.4c-0.2,0.8-0.3,1.6-0.7,2.4c-0.4,0.9-0.2,1.7,0.2,2.5c0.5,0.8,1,1.6,1.4,2.5
		c0.1,0.2,0.2,0.6,0.1,0.6c-0.2,0.1-0.6,0.3-0.8,0.2c-0.7-0.3-1.5-0.5-2.1-1c-1.3-1-2.6-2-3.9-3.1c-1.2-1.1-2-1.1-3.5-0.4
		c-1.6,0.8-3.3,1.3-5.1,1.3C68.4,11.3,67.2,11.5,66.1,11.5C66.1,11.6,66.1,11.5,66.1,11.5z"/>
</g>
</svg>
