<svg xmlns="http://www.w3.org/2000/svg" viewBox="-655 -2 1614 493" width="1614" height="493">
  <path d="M0,0 L12,2 L18,6 L25,14 L25,16 L35,13 L45,13 L53,16 L59,20 L65,28 L67,36 L66,46 L63,54 L68,55 L76,61 L80,67 L82,74 L82,81 L79,90 L92,90 L102,95 L110,104 L112,110 L112,122 L107,132 L109,136 L113,142 L121,126 L130,113 L138,103 L145,92 L158,74 L172,55 L183,40 L190,33 L199,29 L211,29 L221,34 L226,39 L226,41 L233,41 L242,45 L249,53 L257,58 L267,63 L276,69 L282,73 L295,74 L305,79 L310,84 L326,87 L341,95 L353,99 L359,103 L372,106 L380,111 L391,112 L400,116 L416,117 L427,121 L434,123 L449,125 L457,129 L462,131 L473,134 L497,141 L511,143 L522,147 L532,149 L548,151 L561,157 L574,162 L583,169 L588,179 L589,188 L587,196 L581,205 L573,212 L569,218 L649,218 L666,214 L699,203 L723,198 L748,195 L801,180 L823,174 L838,168 L858,162 L872,158 L883,158 L892,160 L907,160 L915,164 L922,172 L924,176 L924,179 L928,181 L933,187 L936,193 L938,199 L944,204 L949,214 L949,228 L953,238 L954,242 L955,255 L955,305 L954,308 L953,321 L951,327 L950,340 L946,354 L945,355 L943,366 L943,384 L939,392 L932,400 L927,410 L917,421 L909,425 L895,430 L864,430 L847,424 L829,416 L808,409 L782,398 L772,394 L754,390 L734,383 L711,375 L690,366 L681,364 L660,355 L647,351 L632,349 L612,348 L622,361 L632,373 L636,382 L637,392 L634,401 L629,408 L615,416 L603,419 L599,422 L593,424 L579,425 L572,428 L556,428 L547,432 L535,432 L528,431 L519,437 L516,438 L501,439 L493,443 L475,443 L467,446 L455,446 L447,451 L444,452 L430,452 L421,448 L416,450 L411,452 L398,452 L391,451 L384,454 L373,454 L368,453 L359,458 L345,458 L335,453 L332,453 L326,456 L322,457 L314,457 L307,455 L301,456 L298,457 L284,457 L274,454 L266,457 L255,457 L249,456 L242,458 L233,458 L223,454 L216,448 L211,441 L202,441 L194,439 L186,434 L179,427 L164,407 L154,391 L149,382 L149,380 L29,380 L-43,378 L-93,376 L-82,384 L-74,393 L-70,401 L-68,409 L-68,434 L-72,443 L-77,449 L-79,449 L-80,459 L-86,468 L-94,474 L-105,477 L-110,481 L-117,484 L-130,486 L-149,487 L-159,484 L-173,479 L-181,479 L-190,477 L-197,473 L-208,471 L-217,465 L-223,460 L-232,449 L-241,436 L-247,424 L-250,415 L-262,393 L-274,366 L-274,364 L-291,364 L-315,362 L-339,358 L-350,354 L-356,352 L-393,348 L-415,345 L-446,344 L-465,341 L-482,336 L-489,335 L-511,334 L-535,331 L-556,330 L-575,327 L-605,322 L-627,320 L-640,316 L-648,310 L-653,302 L-653,275 L-647,263 L-639,254 L-629,248 L-622,245 L-612,237 L-596,228 L-584,223 L-572,220 L-552,216 L-526,208 L-498,197 L-475,186 L-459,181 L-442,174 L-432,171 L-421,164 L-406,159 L-379,153 L-321,142 L-288,137 L-276,135 L-200,129 L-177,128 L-136,127 L-105,127 L-102,117 L-98,110 L-94,99 L-87,88 L-76,67 L-63,45 L-54,30 L-49,22 L-42,16 L-36,14 L-25,14 L-21,14 L-12,4 L-5,1 Z " fill="#000000" stroke="none" fill-rule="nonzero"/>
</svg>