<?xml version="1.0" encoding="iso-8859-1"?>
<!-- Generator: Adobe Illustrator 25.3.0, SVG Export Plug-In . SVG Version: 6.00 Build 0)  -->
<svg version="1.1" id="Calque_1" xmlns="http://www.w3.org/2000/svg" xmlns:xlink="http://www.w3.org/1999/xlink" x="0px" y="0px"
	 viewBox="0 0 69.5 38.9" style="enable-background:new 0 0 69.5 38.9;" xml:space="preserve">
<g>
	<path d="M46.6,23.6c-0.1,0.4-0.2,0.9-0.5,1.3c-1.5,2.2-2.2,4.6-2,7.2c0,0.6,0,1.3-0.1,1.9c-0.2,0.8-0.7,1.2-1.4,0.9
		c-1.4-0.5-3,0-4.3-0.9c-1.9,0.3-3.3-1.1-4.9-1.7c-1.1-0.4-2-0.4-3,0c-0.3,0.1-0.6,0.1-0.9,0.2c-0.1,0-0.2,0.2-0.3,0.4
		c0.1,0.1,0.2,0.2,0.3,0.2c1.5-0.1,2.1,0.8,2.7,1.9c0.4,0.7,0.6,1.4,1,2.1c0.4,0.7,0.1,1.2-0.3,1.6c-0.3,0.2-1,0.2-1.3,0.1
		c-2.9-1.4-5.8-2.7-8.1-5.1c-0.5-0.6-1.1-0.8-1.9-0.8c-2.9,0.1-5.6-0.6-8.4-1.3c-0.4-0.1-0.8-0.2-1.2-0.4c-3.1-1.5-6.1-2.9-8.8-5
		c-1-0.8-1.9-1.8-2.8-2.7c-0.2-0.2-0.3-0.6-0.2-0.8c0.8-0.9,0.4-2.1,0.7-3.1c0.2-0.8,0.5-1.5,1-2c1.4-1.8,3-3.3,4.8-4.8
		c3.8-3.2,8.3-4.7,13.2-5.4c0.8-0.1,1.6-0.3,2.5-0.4c1.7-0.2,3-1.1,4.3-2c1.1-0.7,2.1-1.6,3.5-1.7c0.3,0,0.6-0.3,0.9-0.5
		c0.6-0.3,1.3-0.5,1.9-0.8c0.7-0.3,1.4-0.7,2.1-1c0.8-0.4,1.6-0.7,2.5-1c0.8-0.3,1.2,0,1,0.8c-0.2,1.1-0.5,2.2-0.7,3.3
		c-0.1,0.7-0.2,1.4-0.3,2.1c-0.2,1.6,0.4,2.8,1.6,3.7c0.3,0.2,0.6,0.4,0.8,0.7c0.3,0.4,0.6,0.8,0.1,1.3c-0.2,0.2-0.3,0.4,0.2,0.5
		c3,0.6,6,1.5,9.1,1.4c0.6,0,1.2-0.1,1.7-0.3c3.1-1,6.2-2.1,9.3-3.2c2-0.7,4.1-1.3,6.2-1.8c0.8-0.2,1.7-0.1,2.5,0
		c0.2,0,0.6,0.2,0.7,0.5c0.1,0.1-0.2,0.5-0.3,0.7c-0.8,0.9-1.6,1.7-2.4,2.6c-1.4,1.6-3.2,2.6-5.2,3.4c-0.4,0.2-0.9,0.3-1.3,0.6
		c-1.3,0.8-1.5,2.1-0.6,3.3c0.6,0.8,1.3,1.5,2.3,1.9c2.1,1,3.6,2.7,4.6,4.8c0.4,0.8,0.9,1.6,1.2,2.4c0.3,0.8-0.3,1.5-1.1,1.3
		c-1-0.3-1.9-0.7-2.8-1.2c-1.5-0.8-3-1.5-4.3-2.5c-2.3-1.5-4.4-3.2-6.6-4.8c-1-0.7-2-1.2-3.3-1.1c-0.7,0-1.3-0.2-1.3,1.1
		C48.4,22.3,47.6,23.2,46.6,23.6c-0.3-0.3-0.6-0.6-0.9,0c-1.8,2.8-3.5,5.6-6.2,7.6c-0.3,0.2-0.5,0.6-0.1,0.9
		c0.6,0.6,1.5,0.9,2.3,0.7c0.8-0.1,0.9-0.9,0.8-1.6c-0.2-2.8,1.2-4.9,2.7-7C45.5,23.9,45.8,23.2,46.6,23.6z"/>
	<path d="M8.1,20.4c-1.2,0-2.2-1.1-2.1-2.4c0-1.1,1.3-2.3,2.6-2.3c0.9,0,2.2,1.4,2.1,2.4C10.4,19.1,9.3,20.7,8.1,20.4z"/>
</g>
</svg>
