<?xml version="1.0" encoding="iso-8859-1"?>
<!-- Generator: Adobe Illustrator 25.3.0, SVG Export Plug-In . SVG Version: 6.00 Build 0)  -->
<svg version="1.1" id="Calque_1" xmlns="http://www.w3.org/2000/svg" xmlns:xlink="http://www.w3.org/1999/xlink" x="0px" y="0px"
	 viewBox="0 0 77.3 28.8" style="enable-background:new 0 0 77.3 28.8;" xml:space="preserve">
<g>
	<path d="M72.8,18.4c-2.4,0-4.6-0.6-6.8-1.5c-1.3-0.5-2.5-0.8-3.8-0.6c-0.2,0-0.4,0.2-0.6,0.3c0.1,0.2,0.2,0.4,0.4,0.6
		c0.5,0.4,1.1,0.8,1.5,1.2c0.7,0.6,0.6,0.6-0.2,1.2c-1.7,1.4-3.8,1.9-5.7,2.6c-2,0.7-3.9,1.6-5.9,2.1c-1.3,0.3-2.5,1.2-3.8,1.3
		c-1.4,0.1-2.7,1-4.1,0.6c-1,0.5-2.1,0.3-3.2,0.4c-1.1,0.2-1.7-0.3-2.4-0.9c-0.6-0.5-1.1-1.1-1.7-1.5c-0.5-0.3-1-1-1.6-0.2
		c-1.1-0.5-2.4,0.7-3.4-0.6c-0.4-0.6-1.2-0.3-1.8-0.1c-1.5,0.5-3,0.9-4.5,1.3c-2.1,0.6-4.3,0.3-6.4,0.2c-0.6,0-1.3-0.2-1.9-0.3
		c-0.4-0.1-0.8-0.2-1.2-0.2c0.2,0.4,0.3,0.8,0.6,1.1c0.6,0.6,1.2,1.1,1.9,1.7c0.5,0.4,1.1,0.8,1.6,1.2c0.1,0.1,0,0.5,0,0.5
		c-0.9,0-1.8,0.5-2.6-0.5c-0.6-0.8-1.5-1.4-2.1-2.1c-1.5-1.8-3.3-2.7-5.6-3.1c-2.4-0.3-4.7-1.2-6.9-2.3c-0.8-0.4-1.5-0.9-1.9-1.8
		C0,18.1,0.1,17.9,1,17.5c0.2-0.1,0.5-0.1,0.7-0.2c0.1,0,0.3-0.2,0.2-0.2c-0.1-0.1-0.2-0.3-0.3-0.4c0,0-0.1-0.1-0.2-0.1
		c-1.6-0.8-1.6-0.8-1.1-2.6c0.5-1.9,1.2-3.8,2.2-5.6c0.3-0.5,0.4-1,0.6-1.5c0.5-1.1,0.9-2.2,1.4-3.2c0.1-0.3,0.2-0.6,0.3-0.8
		c0.2-0.4,0.3-0.8,0.5-1c0.2-0.2,0.4,0.7,0.2,1.4C5.5,3.4,5.5,3.6,5.4,3.7C4.7,4.5,4.8,5.2,5.6,5.9C5.7,5.9,5.8,6,5.9,6.1
		c0.2,0.4,0.2,1,0.5,1C6.7,7.2,7.2,7,7.7,6.9c2.1-0.4,3.5-1.7,4.6-3.4c0.2-0.3,0.4-0.6,0.6-0.9c1.7-2.4,4.1-2.9,6.9-2.6
		c2.4,0.2,4.8,0.1,7.2,0.5C29,0.9,31,1,32.9,1.8C34.5,2.3,36.2,2.5,38,2c1.5-0.4,3.1-0.4,4.6-0.5c3.6-0.1,7.3,0.2,10.9,0.6
		C56,2.4,58.4,3,60.8,3.7c2.4,0.7,3,2.5,1.5,4.5c-0.2,0.3-0.5,0.7-0.7,1c-0.2,0.4-0.4,0.8-0.6,1.1c0.5,0,0.9,0.2,1.4,0.1
		c0.5,0,0.9-0.2,1.4-0.4c2.1-0.7,4.2-1.6,6.4-2.3c2.1-0.6,3.2-0.6,5.1-0.2c0.9,0.2,1.6,1,1.8,2c0.1,0.9,0.3,1.7,0.4,2.6
		c0.1,1.9-0.6,3.6-1.5,5.2c-0.3,0.5-1.2,0.7-1.8,0.9C73.7,18.5,73.2,18.4,72.8,18.4z"/>
	<path d="M22.5,8.4c3.1-0.2,6.2,0.2,9.3,0.7c0.5,0.1,0.9,0.4,1.3,0.6c-0.5,0-1,0.1-1.4,0c-2-0.8-4.1-0.6-6.2-0.8
		c-2.7-0.2-5.4,0.1-8,0.2C17.4,9.1,17.2,9,17,9c0.1-0.1,0.2-0.3,0.4-0.3c0.5-0.1,0.9-0.2,1.4-0.3C20,8.4,21.2,8.4,22.5,8.4z"/>
</g>
</svg>
