<?xml version="1.0" encoding="iso-8859-1"?>
<!-- Generator: Adobe Illustrator 25.3.0, SVG Export Plug-In . SVG Version: 6.00 Build 0)  -->
<svg version="1.1" id="Calque_1" xmlns="http://www.w3.org/2000/svg" xmlns:xlink="http://www.w3.org/1999/xlink" x="0px" y="0px"
	 viewBox="0 0 70.6 39.5" style="enable-background:new 0 0 70.6 39.5;" xml:space="preserve">
<g>
	<path d="M31.1,0c2.2,0.2,4.5,0.3,6.7,0.8c1.7,0.3,3.3,1,4.8,1.7c2.2,0.9,4.3,2,6.3,3.4c2.5,1.9,4.9,4,6.8,6.5
		c0.8,1.1,1.6,2.1,2.4,3.2c0.1,0.1,0.4,0.2,0.5,0.2c1.2-0.3,2.5-0.5,3.6-1c1.9-0.8,3.5-0.1,5.1,0.7c0.7,0.3,1.3,0.9,1.8,1.4
		c2.1,1.9,2,4.5-0.2,6.2c-0.5,0.4-1,0.7-1.3,1.2c-0.9,1-2.2,1.2-3.3,1.6c-0.3,0.1-0.8,0-1.2-0.1c-1.4-0.5-2.8-1-4.2-1.5
		c-0.5-0.2-0.7-0.1-1,0.3c-1.3,1.7-2.4,3.5-3.9,5c-2.1,2.1-4.5,3.8-7.1,5.3c-2.3,1.3-4.7,2.5-7.2,3.1c-3,0.7-6.1,1.8-9.3,1.5
		c-1.9-0.2-3.8-0.4-5.7-0.7c-2.4-0.4-4.8-1.1-6.9-2.3c-0.7-0.4-1.4-0.9-2-1.4c-0.2-0.2-0.4-0.5-0.6-0.6c-1.3-0.7-1.8-1.8-1.5-3.3
		c0-0.1,0-0.1,0-0.2c0-0.4-0.1-0.8-0.5-0.7c-0.2,0-0.4,0.4-0.4,0.6c-0.1,0.3,0,0.7,0,1.1c0.1,1,0.1,1-1,1.2
		c-1.9,0.3-3.6-0.9-4.1-2.7c-0.2-0.7-0.2-1.3,0.3-1.9c0.5-0.6,0.2-0.8-0.3-1c-1.2-0.4-2.1-1.5-3.4-1.8c-0.7-0.1-1.2-1-1.8-1.6
		c-0.5-0.6-1-1.2-1.5-1.8c-0.3-0.3-0.7-0.7-0.7-1c0.1-0.7,0.3-1.5,0.6-2.2c0.2-0.4,0.6-0.6,0.9-0.9c0.7-0.7,1-1.5,0.3-2.3
		c-0.6-0.8-0.2-1.6,0.2-2.2c1.2-2.1,2.8-4,4.7-5.6c1.8-1.6,3.7-2.9,5.8-4c2-1,4.1-1.6,6.2-2.2c1.8-0.5,3.7-0.8,5.5-1.2
		C26.5,0.4,28.7,0,31.1,0z"/>
</g>
</svg>
