<?xml version="1.0" encoding="iso-8859-1"?>
<!-- Generator: Adobe Illustrator 25.3.0, SVG Export Plug-In . SVG Version: 6.00 Build 0)  -->
<svg version="1.1" id="Calque_1" xmlns="http://www.w3.org/2000/svg" xmlns:xlink="http://www.w3.org/1999/xlink" x="0px" y="0px"
	 viewBox="0 0 77.1 35.4" style="enable-background:new 0 0 77.1 35.4;" xml:space="preserve">
<g>
	<path d="M69.2,23.3c-0.5-0.1-1.3-0.3-2.1-0.6c-2.3-0.7-4.5-1.5-6.8-2.1c-0.8-0.2-1.7-0.2-2.5-0.2c-0.4,0-0.6,0.5-0.3,0.8
		c0.3,0.3,1.1,0.5,0.7,1.2c0,0,0.3,0.3,0.5,0.3c0.3,0,0.7-0.1,1.1-0.1c0.3,0,0.5,0.1,0.8,0.1c-0.2,0.2-0.3,0.5-0.5,0.6
		c-0.5,0.3-1.1,0.5-1.6,0.8c-0.5,0.2-1.2,0.4-0.4,1.1c0.3,0.2,0,0.7-0.5,0.8c-0.4,0.1-0.8,0-1.3,0.1c-0.6,0.1-1.5-0.2-1.2,0.9
		c0,0-0.1,0.1-0.1,0.1c-1.3,0-2,1.3-3.3,1.4c-0.5,0.1-0.9-0.1-1.3,0.4c-0.1,0.1-0.5,0.1-0.8,0.1c-1.6-0.2-3-0.9-4.3-1.6
		c-0.9-0.4-1.7-1.1-2.6-1.2c-0.9-0.1-1.9,0.5-2.9,0.8c-2.6,0.9-5.2,1.7-7.9,2.2c-1.4,0.3-1.4,0.4-1.6,1.9c0,0.1,0,0.2,0,0.4
		c-0.1,0.2-0.2,0.5-0.2,0.4c-0.2,0-0.4-0.1-0.6-0.2c-0.7-0.6-0.7-0.6-1,0.1c-0.1,0.2-0.1,0.3-0.2,0.5c-0.2,0.4-0.5,0.5-0.8,0.1
		c-0.2-0.2-0.3-0.5-0.5-0.7c-0.2-0.2-0.5-0.3-0.7,0.1c-0.2,0.3-0.4,0.6-0.7,0.8c-0.1,0.1-0.5-0.1-0.7-0.3c-0.1-0.1-0.1-0.3-0.1-0.5
		c0-0.4-0.1-0.8-0.1-1.2c-0.3,0.2-0.6,0.4-1,0.6c-0.4,0.2-0.7,0.1-0.7-0.4c0-0.8-0.4-0.9-1-0.9c-0.4,0-0.7,0-1.1-0.1
		c-0.4,0-0.9-0.1-1.3-0.1c0.3,0.4,0.5,0.9,0.8,1.2c0.6,0.5,1.2,0.9,1.9,1.4c0.7,0.4,1,1.1,0.7,1.8c0,0.2-0.2,0.4-0.3,0.4
		c-0.3,0-0.7-0.2-1-0.1c-0.2,0-0.4,0.5-0.6,0.6c-0.3,0.1-0.7-0.1-1-0.1c-0.3,0-0.8,0-0.9,0.2c-0.5,0.6-1,0.4-1.4,0
		c-0.5-0.5-1.1-1.1-1.4-1.8c-1.9-3.3-1.9-3.5-5.5-4.2c-2.8-0.6-5.2-1.6-6.8-4.1c-0.4-0.6-0.9-1.1-1.3-1.7c-0.1-0.2-0.2-0.7-0.1-0.8
		c1.2-0.9,0.4-2,0.4-3c0-0.9-0.6-1.8-0.9-2.7C1.5,15,1,13,0.7,11c-0.1-0.6-0.3-1.2-0.6-1.8c-0.4-1,0-1.5,1.1-1.4
		C1.6,7.9,1.8,8,1.8,7.5c0-0.6,0.1-1.3-0.1-1.8C1,4,1.8,2.4,1.8,0.8c0-0.2,0.2-0.5,0.3-0.6c0.2-0.1,0.6,0,0.7,0.1
		C3,0.4,3,0.7,3.1,0.9c0.3,0.9,1,1.5,1.9,1.4c1.5,0,2.6,0.7,3.7,1.6c1.3,1,2.7,1.7,4.3,2.1c1.3,0.3,2.6,0.4,3.9,0
		c1-0.3,2.1-0.4,3.2-0.4c0.8,0,1.4-0.2,1.9-1c1.5-2.5,4.1-3.5,6.6-4.6c1.2,0.1,2.4,0.2,3.5,0.4c0.9,0.2,1.7,0.5,2.6,0.7
		c1.6,0.5,3.3,1,4.9,1.5C40.6,3,41.8,3.2,43,3.5c1,0.3,2,0.7,3,1.1c2,0.8,4.1,1.3,6.1,2.3c1,0.5,2.1,0.8,3.1,1.2
		c0.8,0.3,1.5,0.8,2.3,1.2c0.1,0,0.1,0.4,0.1,0.4c-0.5,0.6-0.9,1.1-1.4,1.7c-0.2,0.3-0.4,0.5-0.6,0.8c-0.3,0.5,0,0.9,0.3,1
		c0.6,0.3,1.2,0.6,2,0.3c2.5-0.9,5.1-1.6,7.7-2.3c1.5-0.4,3-0.7,4.6-0.7c2.2-0.1,3.9,1,5.2,2.4c0.8,0.9,1.8,1.9,1.8,3.3
		c0,1.2-0.2,2.5-0.4,3.7c0,0.3-0.4,0.6-0.6,0.8c-0.7,0.6-1.4,1.1-2.1,1.7c-0.2,0.1-0.4,0.3-0.6,0.3C72.1,23,70.8,23.1,69.2,23.3z"/>
	<path d="M8,12.8c0.6,0.6,0.9,1.4,1.9,1.7c0.9,0.2,1.5,1.8,1.3,2.7c-0.2,1-1.4,2.1-2.4,2.1c-1,0-1.8-0.5-2.3-1.5
		c-0.4-0.9-0.7-1.8,0-2.7C6.7,15,6.8,14.7,7,14.6C7.9,14.3,7.7,13.5,8,12.8L8,12.8z"/>
	<path d="M60.5,16.8c0,0.6-0.4,1-0.8,1c-0.1,0-0.2-0.2-0.4-0.3c0.3-0.3,0.6-0.6,0.9-0.9C60.2,16.5,60.4,16.7,60.5,16.8z"/>
	<path d="M24.1,9.3c0.1,0.1,0.3,0.2,0.4,0.3c0.1,0.3,0.2,0.6,0.2,0.9c0,0-0.3,0.1-0.3,0.1c-0.2-0.3-0.4-0.7-0.5-1
		C23.9,9.5,24,9.4,24.1,9.3z"/>
	<path d="M27.5,10.2c-0.2,0.2-0.3,0.3-0.4,0.4c-0.1-0.2-0.3-0.4-0.4-0.6c0,0,0.3-0.3,0.3-0.2C27.2,9.8,27.3,10,27.5,10.2z"/>
	<path d="M38.3,12.4c-0.3,0.1-0.6,0.2-0.9,0.3c0,0-0.1-0.3-0.2-0.4c0.3-0.1,0.6-0.2,0.9-0.2C38.2,12.1,38.3,12.3,38.3,12.4z"/>
	<path d="M43.4,16.8c-0.4,0.1-0.6,0.3-0.8,0.2c-0.2,0-0.2-0.3-0.4-0.4c0.1-0.1,0.3-0.2,0.4-0.2C42.9,16.4,43,16.6,43.4,16.8z"/>
	<path d="M10.1,20.8c0.5-0.2,0.9-0.3,1.2-0.4c0,0,0.1,0.2,0.2,0.3c-0.2,0.1-0.5,0.3-0.7,0.3C10.6,21.1,10.5,20.9,10.1,20.8z"/>
</g>
</svg>
