<?xml version="1.0" encoding="iso-8859-1"?>
<!-- Generator: Adobe Illustrator 25.3.0, SVG Export Plug-In . SVG Version: 6.00 Build 0)  -->
<svg version="1.1" id="Calque_1" xmlns="http://www.w3.org/2000/svg" xmlns:xlink="http://www.w3.org/1999/xlink" x="0px" y="0px"
	 viewBox="0 0 83.7 22.6" style="enable-background:new 0 0 83.7 22.6;" xml:space="preserve">
<g>
	<path d="M21.8,5.7c2.5,0,4.5,0,6.5,0c2,0.1,3.9,0.2,5.9,0.3c2.8,0.2,5-0.9,7-2.6c1.3-1.1,2.7-2.1,4.2-3c1.2-0.7,1.7-0.5,2.5,0.6
		C49,2.7,49.3,4.6,49,6.5c-0.1,0.7,0.1,0.6,0.6,0.6c1,0,1.7-0.4,2.4-1c1.3-1.2,2.5-2.3,3.9-3.4c0.5-0.5,1.2-0.8,1.8-1.1
		c0.8-0.4,1.3-0.3,1.6,0.5C59.7,3,60,4,60.3,4.9c0.2,0.6,0.2,1.1,0.3,1.7c0,0.2,0.1,0.5,0.1,0.7c-0.1,1.2-0.1,1.1,1.1,1.2
		c3.1,0.2,6.2-0.4,9.2-0.9c2.2-0.4,4.5-0.5,6.7-0.9c1.5-0.2,2.9-0.5,4.4,0c1.5,0.4,2,1.3,1.3,2.6c-0.3,0.7-0.7,1.3-1.1,2
		c-0.3,0.5-0.8,0.7-1.4,0.2c-0.2-0.2-0.4-0.3-0.6-0.3c-0.2,0-0.6-0.1-0.7,0.1c-1.4,1.7-3.3,2.5-5.2,3.2c-0.7,0.3-1.7,0.2-2.4,0.1
		c-2-0.5-4-1.2-6-1.8c-0.4-0.1-0.5,0.1-0.6,0.4c-0.5,1.7-1.3,2.1-2.9,1.5c-0.8-0.3-1.5-0.7-2.3-1.1c-1.3-0.7-2.7-1.1-4.1-1
		c-3.2,0.1-6.3,0.2-9.5,0.4c-0.2,0-0.5,0.1-0.7,0.1c-0.9,0.1-1.3,0.4-1.6,1.4c-0.7,2.4-2.5,4-4.6,5.3c-0.3,0.2-0.7,0.2-1,0.1
		c-1-0.2-1.9-0.7-2.6-1.4c-0.9-0.9-1.8-1.7-2.8-2.5c-1.2-1-2.6-1.2-4.2-1c-1.4,0.2-2.8,0.3-4.2,0.4c-0.5,0-0.7-0.1-0.7,0.7
		c0.1,2.4-1,4.5-2.8,6.1c-0.6,0.6-1.5,0.5-2.1-0.2c-1.2-1.4-2.5-2.9-3.1-4.7c-0.1-0.4-0.4-0.9-0.6-1.3c-0.3-0.7-0.7-1-1.5-1
		c-3.1,0-6.1-0.6-9.1-1.6c-0.4-0.2-0.9-0.3-1.4-0.4c-0.2,0-0.4,0.1-0.6,0.2c0.1,0.1,0.2,0.3,0.3,0.4c0.1,0.2,0.1,0.4,0.1,0.6
		c-0.2,0-0.5,0.1-0.6,0.1c-0.3-0.2-0.6-0.4-0.8-0.7c-0.6-0.7-1.2-1.3-1.7-2.1c-0.5-0.8-0.4-1.8,0.4-2.1c1.9-0.8,3.6-2.2,5.7-2.5
		c1.4-0.2,2.8-0.3,4.3-0.5C12,6.3,13.2,6.3,14.4,6C17,5.5,19.7,5.9,21.8,5.7z"/>
	<path d="M48.6,10.1c-0.4,0.4-0.6,0.7-0.9,0.9c-0.1,0.1-0.6-0.3-0.6-0.5c-0.1-0.6,0.4-0.6,0.8-0.7C48,9.7,48.2,9.9,48.6,10.1z"/>
	<path d="M30.3,7.1c0,0.2,0.1,0.5,0,0.7c-0.1,0.2-0.4,0.4-0.5,0.6c-0.2-0.2-0.5-0.5-0.7-0.7c0.2-0.2,0.4-0.4,0.6-0.5
		C29.9,7.1,30.1,7.2,30.3,7.1C30.4,7.2,30.3,7.1,30.3,7.1z"/>
	<path d="M10.6,12.2c-0.1,0.2-0.1,0.4-0.1,0.4c-0.1,0-0.3,0-0.4-0.1c-0.2-0.2-0.4-0.4-0.5-0.7c-0.1-0.2,0.1-0.4,0.2-0.6
		c0.2,0.1,0.4,0.2,0.5,0.3C10.4,11.7,10.5,12,10.6,12.2z"/>
	<path d="M12.3,11.9c-0.2,0.2-0.2,0.4-0.4,0.4c-0.1,0-0.4-0.1-0.4-0.2c-0.1-0.4-0.1-0.8-0.2-1.2c0,0,0.2-0.1,0.3-0.1
		C11.8,11.2,12,11.6,12.3,11.9z"/>
	<path d="M12.9,10.5c0.3,0.4,0.5,0.5,0.5,0.7c0.1,0.3,0,0.6,0,0.9c-0.2-0.1-0.6-0.2-0.7-0.4C12.7,11.5,12.8,11.1,12.9,10.5z"/>
	<path d="M35.2,8.1c0.3-0.3,0.5-0.5,0.7-0.6c0.1,0,0.3,0.2,0.5,0.3c-0.2,0.2-0.3,0.5-0.5,0.6C35.8,8.5,35.5,8.3,35.2,8.1z"/>
	<path d="M41.2,9.5c-0.4,0.2-0.7,0.4-0.8,0.3c-0.2-0.1-0.5-0.3-0.5-0.5c0-0.1,0.3-0.5,0.4-0.5C40.4,8.8,40.6,9.1,41.2,9.5z"/>
	<path d="M49.1,8.2c0.2,0.1,0.5,0.1,0.6,0.2c0.1,0.1,0.1,0.4,0,0.6c0,0.1-0.3,0.2-0.4,0.1c-0.2-0.1-0.3-0.3-0.4-0.5
		C48.8,8.5,49,8.4,49.1,8.2C49.1,8.2,49.1,8.2,49.1,8.2z"/>
	<path d="M56.8,9.6c0.4-0.2,0.6-0.3,0.8-0.3c0.2,0,0.3,0.3,0.4,0.5c-0.1,0.1-0.3,0.2-0.4,0.2C57.3,10,57.2,9.8,56.8,9.6z"/>
	<path d="M35.5,14.5c0.4,0,0.8-0.1,1.1-0.1c0.2,0,0.4,0.3,0.5,0.5c-0.2,0.2-0.4,0.4-0.6,0.5c-0.4,0.1-0.8,0.1-1.2-0.1
		c-0.3-0.1-0.4-0.4-0.7-0.6c0.2-0.1,0.4-0.3,0.7-0.4C35.5,14.3,35.5,14.4,35.5,14.5z"/>
	<path d="M37.7,16.6c-0.2-0.3-0.4-0.6-0.4-0.6c0.1-0.2,0.4-0.4,0.6-0.5c0.1,0.2,0.4,0.4,0.3,0.5C38.2,16.1,37.9,16.3,37.7,16.6z"/>
	<path d="M43,5.7c0.3-0.2,1.2,0.4,0.8-0.6c-0.1-0.1,0.3-0.4,0.4-0.6c0.1,0.2,0.3,0.3,0.4,0.5c0.1,0.2,0.2,0.4,0.3,0.5
		c0.3,0.4,0.1,0.7-0.3,0.8c-0.2,0.1-0.6,0.1-0.8,0.2C42.9,6.9,43,6.3,43,5.7L43,5.7z"/>
	<path d="M42.9,5.7c-0.1,0-0.2,0.1-0.3,0.1c-0.2,0-0.5,0.1-0.6-0.1c-0.1-0.1-0.1-0.5,0-0.6c0.1-0.1,0.5-0.2,0.6-0.1
		C42.8,5.2,42.9,5.5,42.9,5.7L42.9,5.7z"/>
	<path d="M58.6,6.4c-0.4,0.2-0.6,0.4-0.7,0.4c-0.3-0.1-0.5-0.4-0.7-0.6c0.2-0.1,0.4-0.4,0.5-0.4C57.9,5.9,58.2,6.1,58.6,6.4z"/>
	<path d="M55.6,6.4c0-0.1-0.1-0.2-0.1-0.3c0-0.2,0-0.5,0.1-0.7c0,0,0.4,0,0.5,0c0.1,0.2,0.2,0.5,0.1,0.7C56.1,6.3,55.7,6.3,55.6,6.4
		C55.5,6.4,55.6,6.4,55.6,6.4z"/>
</g>
</svg>
