<?xml version="1.0" encoding="iso-8859-1"?>
<!-- Generator: Adobe Illustrator 25.3.0, SVG Export Plug-In . SVG Version: 6.00 Build 0)  -->
<svg version="1.1" id="Calque_1" xmlns="http://www.w3.org/2000/svg" xmlns:xlink="http://www.w3.org/1999/xlink" x="0px" y="0px"
	 viewBox="0 0 81.4 30.5" style="enable-background:new 0 0 81.4 30.5;" xml:space="preserve">
<g>
	<path d="M63.5,23.7c-2,0.2-4-0.3-5.8-1.3c-0.3-0.2-0.8-0.3-1.2-0.3c-1.7,0.1-3.5,0.2-5.2,0.3c-0.9,0.1-1.7,0.3-2.6,0.3
		c-1.6,0-3.2,0.5-4.7,0.7c-0.2,0-0.4,0.2-0.6,0.3c-1.2,0.9-2.3,2.4-3,4.4c-1,0.4-1.1,1.6-1.7,2.3c-0.1,0.1-0.6,0.1-0.8,0
		c-1-0.7-2.2-0.6-3.3-0.6c-5.1,0.3-9.9-1.2-14.6-2.9c-3-1.1-5.8-2.4-8.6-4c-0.9-0.5-1.9-0.6-2.7-1.4C8,20.8,6.9,20.6,6,20.2
		c-0.6-0.3-1.2-0.4-1.8-0.7c-1-0.4-2-0.8-2.9-1.3c-2-1.1-1.5-3.2,0.1-4c1.6-0.8,3.3-1.3,5.1-1.5c1-0.1,1.5-0.6,2-1.3
		c0.4-0.6,0.8-1.3,1.2-2c1.8-3,4.1-5.5,6.7-7.8c0.7-0.6,1.4-1,2.2-1.5c0.1-0.1,0.3,0,0.5,0c0,0.2,0,0.4-0.1,0.5
		c-1.2,1-2.6,1.9-3.7,3c-2.3,2.3-4.2,5-5.8,7.8c-0.4,0.7-0.3,0.8,0.5,0.8c0.7,0,1.4-0.1,2.1-0.2c0.4,0,0.7-0.1,1.1-0.1
		c3.8-0.1,7.6-0.3,11.5-0.4c1.9,0,3.3-0.6,4.6-1.9c1.1-1.1,2.3-2,3.4-3.1c1.3-1.3,2.5-2.6,3.7-3.9c1.3-1.4,2.5-2.2,3.9,0.5
		c0.8,1.6,1,3.4,1.4,5.1c0.3,1.3,0.2,1.4,1.6,1.6c1.8,0.3,3.6,0.5,5.5,0.7c1.8,0.2,3.5,0.4,5.3,0.4c1.9,0,3.9,0,5.5-1.5
		c0.6-0.6,1.5-1,2.3-1.4c2.4-1,4.6-0.1,6.6,1c0.8,0.5,1.4,1.3,2,1.9c0.2,0.2,0.3,0.6,0.4,1c0.1,1,0.1,1.1,1,1
		c1.1-0.1,2.2-0.3,3.3-0.6c1.7-0.3,3.4-0.9,5.3-0.9c1.3,0,1.5,0.6,0.8,1.7c-0.4,0.7-1.2,1.3-1.3,2c-0.1,0.6,0.6,1.4,0.9,2.1
		c0.2,0.7,0.8,1.5,0.1,2.2c-0.7,0.7-1.5,0.3-2.3,0.1c-1.6-0.5-3.2-1-4.7-1.5c-0.3-0.1-0.7-0.2-1-0.3c-0.9-0.1-0.9,0-0.7,0.9
		c0.1,0.4,0,0.8-0.1,1.2c-0.5,1.3-1.3,2.2-2.6,2.8C67.5,23.5,65.6,23.9,63.5,23.7z"/>
	<path d="M15.8,16.1c-0.8,0.1-1.3,0.3-1.8,0.2c-0.2,0-0.5-0.4-0.6-0.7c0-0.1,0.3-0.4,0.5-0.6c0,0,0.1,0,0.2,0
		c1.9,0.3,3.9,0.5,5.8,0.8c0.3,0,0.6,0.2,0.8,0.4c0.1,0.2,0.2,0.7,0.1,0.7c-1.4,0.8-2.5,2.2-4.3,2.4c-1.1,0.1-2.2,0.1-2.9-1
		c-0.2-0.3-0.3-0.7,0.1-0.9c0.2-0.1,0.5-0.5,0.6,0.1c0,0.9,0.6,1,1.4,1c1.5,0.1,2.6-0.6,3.6-1.7c0.2-0.3,0.1-0.4-0.2-0.4
		C17.8,16.4,16.7,16.3,15.8,16.1z"/>
	<path d="M73.4,16.9c0.3-0.7,1.2-1.2,0.8-2.1c0,0,0.2-0.2,0.2-0.2c0.1,0,0.2,0.1,0.3,0.2C75.2,16,74.8,16.7,73.4,16.9L73.4,16.9z"/>
</g>
</svg>
