<svg xmlns="http://www.w3.org/2000/svg" viewBox="-541 -2 1586 447" width="1586" height="447">
  <path d="M0,0 L112,0 L139,1 L154,4 L159,7 L165,8 L223,11 L239,14 L246,17 L258,18 L328,20 L354,22 L368,26 L380,27 L431,29 L450,31 L465,36 L480,38 L505,41 L517,45 L523,47 L551,48 L567,50 L580,54 L584,56 L613,59 L625,62 L631,65 L659,69 L671,73 L675,75 L707,79 L719,83 L724,85 L743,88 L758,94 L777,97 L792,102 L799,105 L813,107 L826,112 L829,114 L846,118 L862,124 L879,128 L893,134 L909,138 L917,142 L926,146 L940,153 L956,158 L968,164 L980,169 L990,173 L1003,177 L1011,182 L1018,186 L1028,192 L1035,199 L1040,209 L1041,213 L1041,224 L1038,232 L1034,238 L1026,245 L1011,255 L993,262 L984,267 L972,270 L956,277 L948,280 L935,286 L920,290 L909,295 L887,300 L876,305 L855,310 L847,314 L830,318 L818,324 L799,328 L791,332 L779,335 L759,338 L740,345 L729,348 L716,353 L689,358 L679,362 L657,365 L636,367 L627,371 L612,374 L597,376 L585,381 L567,384 L551,386 L540,390 L521,393 L496,395 L489,397 L478,401 L464,403 L443,405 L427,410 L411,412 L356,415 L341,417 L326,421 L314,422 L252,422 L238,419 L224,413 L212,410 L198,403 L181,391 L171,383 L165,377 L122,376 L-58,376 L-48,380 L-39,387 L-32,396 L-28,404 L-27,409 L-27,417 L-30,426 L-35,433 L-40,437 L-48,440 L-57,441 L-71,438 L-81,433 L-93,430 L-104,424 L-119,420 L-144,408 L-164,396 L-183,383 L-196,373 L-210,361 L-218,353 L-226,348 L-256,344 L-266,340 L-269,338 L-293,334 L-310,329 L-312,328 L-331,325 L-343,319 L-346,317 L-359,313 L-368,308 L-388,305 L-399,319 L-410,332 L-420,345 L-426,350 L-434,353 L-443,353 L-453,349 L-458,345 L-463,338 L-470,340 L-483,340 L-492,336 L-497,332 L-503,323 L-506,314 L-506,298 L-502,285 L-510,284 L-519,278 L-525,269 L-527,262 L-527,243 L-534,236 L-538,228 L-539,218 L-536,208 L-528,199 L-520,195 L-511,193 L-476,191 L-468,185 L-464,181 L-467,168 L-467,159 L-464,150 L-460,144 L-453,138 L-447,135 L-437,134 L-427,137 L-419,143 L-416,146 L-409,145 L-384,141 L-376,137 L-364,134 L-346,123 L-330,116 L-320,113 L-309,108 L-294,104 L-283,99 L-271,96 L-264,95 L-254,90 L-243,87 L-232,85 L-224,81 L-207,77 L-193,74 L-183,70 L-165,67 L-151,65 L-141,61 L-124,58 L-99,55 L-82,49 L-70,36 L-57,25 L-42,15 L-33,11 L-26,8 L-18,3 L-12,1 Z " fill="#000000" stroke="none" fill-rule="nonzero"/>
</svg>