<?xml version="1.0" encoding="iso-8859-1"?>
<!-- Generator: Adobe Illustrator 25.3.0, SVG Export Plug-In . SVG Version: 6.00 Build 0)  -->
<svg version="1.1" id="Calque_1" xmlns="http://www.w3.org/2000/svg" xmlns:xlink="http://www.w3.org/1999/xlink" x="0px" y="0px"
	 viewBox="0 0 85.4 42" style="enable-background:new 0 0 85.4 42;" xml:space="preserve">
<g>
	<path d="M63.5,14.2c0.4,0,0.7,0,1.1,0c1.1,0,1.5,0.3,1.8,1.4c0.4,1.2,0.8,1.4,2,1.5c2.8,0.3,5.4-0.5,7.9-1.8
		c2.4-1.2,4.8-2.4,7.6-2.2c0.2,0,0.5,0,0.7,0c0.7,0.1,0.8,0.3,0.6,0.9c-0.1,0.2-0.1,0.4-0.2,0.5c-1.3,1.6-1.6,3.7-2.5,5.5
		c-0.7,1.4-0.8,2.8-0.4,4.3c0.2,0.6,0.1,1.1-0.2,1.7c-0.2,0.4-0.4,1-0.3,1.5c0.3,2.4,0.7,4.8,1,7.2c0.1,0.9-0.2,1.4-1.1,1.4
		c-1.9,0.1-3.6-0.6-5.2-1.5c-2.2-1.3-3.5-3.4-5.1-5.2c-1.1-1.2-2.3-2.4-3.4-3.6c-0.4-0.5-0.9-0.4-1.2,0.1c-1.6,2.4-4,4-6.2,5.9
		c-1.1,0.9-2,2-2.9,3.2c-0.9,1.1-1.6,2.4-2.3,3.6c-0.7,1.1-1.2,1.2-2.1,0.3c-1.1-1.1-2-2.3-3-3.5c-0.4-0.5-0.8-0.9-1.1-1.4
		c-0.5-0.7-1-1-1.9-1c-1.9,0.2-3.8,0.3-5.7,0.4c-0.5,0-0.9,0.2-0.4,0.7c0.6,0.7,0.5,1.3,0.1,2c-0.5,0.9-0.9,1.8-1.4,2.7
		c-0.3,0.5-0.7,1-0.8,1.6C38.6,41,37.3,41,37.4,42c-0.2,0-0.4,0.1-0.5,0c-0.6-0.5-1.3-0.9-1.8-1.5c-1.2-1.4-1.5-3.1-1.9-4.7
		c-0.5-2.2-0.5-2.2-2.8-2.2c-1.9,0-3.8-0.1-5.7-0.1c-0.3,0-0.6,0.3-0.8,0.5c-0.5,1.1-1,2.3-1.4,3.5c-0.3,1-0.6,1.3-1.6,0.5
		c-1.2-1.1-2.2-2.4-2.7-3.9c-0.4-1.2-1.1-1.6-2.3-1.9c-3.6-0.9-7.1-2-10.4-3.6c-0.7-0.3-1.3-0.9-1.9-1.3c-0.7-0.5-1.3-1-1.9-1.6
		c-0.9-1-1.9-1.8-1.6-3.4C0.3,21.9,0,21.6,0,21.3c0.1-0.8,0.5-1.4,1.2-1.8c2.2-1.2,4.5-2.5,6.7-3.8c0.3-0.2,0.6-0.3,0.9-0.6
		c3.5-2.8,7.7-4.3,11.9-5.6C25.1,8.2,29.5,8,34,8.1c0.7,0,1.4,0,2.1-0.1c1.4-0.3,2.5-0.9,3.5-2c1.2-1.4,2.5-2.7,3.9-3.9
		c0.8-0.8,1.8-1.4,2.8-1.9C46.6-0.1,47.1,0,47.5,0c0,0.3,0.1,0.7,0.1,1c-0.2,1.1-0.2,2.1,0.1,3.2c0.5,1.9,0.9,3.8,1.3,5.7
		c0.2,0.6,0.4,1,1.3,1.2c3.6,0.7,7.2,1.7,10.7,2.9c0.8,0.3,1.8,0.3,2.6,0.4C63.5,14.3,63.5,14.2,63.5,14.2z"/>
	<path d="M17.7,27.7c0.9,0.2,1.7,0.4,2.5,0.6c0.1,0,0.2,0.3,0.3,0.4c-0.2,0.1-0.3,0.2-0.5,0.1c-0.8-0.1-1.5-0.2-2.3-0.3
		c-0.2,0-0.4-0.2-0.6-0.3C17.4,28.1,17.6,27.9,17.7,27.7z"/>
	<path d="M4.3,20.5c0.1,0.1,0.2,0.1,0.3,0.2c0.3,0.3,0.9,0.4,1.1,0.5c0.6,0.1,0.5-0.1,0.3-0.4c-0.1-0.2-0.3-0.3-0.3-0.4
		c-0.1-0.2-0.3-0.5-0.2-0.7c0.1-0.4,0.4-0.6,0.7-0.9c0,0,0.3,0.1,0.3,0.1c0.2,1.2,0.9,2.5-0.1,3.7c-0.7,0.9-1.7,1.1-2.6,0.5
		c-0.8-0.5-0.8-1.8,0-2.4C4,20.5,4.2,20.5,4.3,20.5z"/>
</g>
</svg>
