<?xml version="1.0" encoding="iso-8859-1"?>
<!-- Generator: Adobe Illustrator 25.3.0, SVG Export Plug-In . SVG Version: 6.00 Build 0)  -->
<svg version="1.1" id="Calque_1" xmlns="http://www.w3.org/2000/svg" xmlns:xlink="http://www.w3.org/1999/xlink" x="0px" y="0px"
	 viewBox="0 0 85.2 18.3" style="enable-background:new 0 0 85.2 18.3;" xml:space="preserve">
<g>
	<path d="M13.4,17.3c-0.7-0.6-1.5-1.2-2.1-1.9c-0.5-0.6-0.9-0.9-1.7-1.1c-2.7-0.6-5.3-1.3-7.9-2.1c-1.5-0.4-2.1-1.7-1.5-3
		C0.3,9,0.8,8.7,1.1,8.5c2.2-0.8,4.3-1.6,6.5-2.4C8.4,5.9,9.2,5.8,10,5.5c2.1-0.8,4.3-1,6.4-1.2c1.8-0.2,3.6-0.4,5.4-1.2
		c3.2-1.4,6.7-2,10.3-2c2.5-0.1,5-0.4,7.5-0.6c0.1,0,0.2,0,0.4,0c5.4-0.3,10.9-0.5,16.3-0.3c1.5,0.1,2.9,0.4,4.4,0.6
		c1.2,0.2,2.4,0.3,3.5,0.4c2.2,0.3,4.5,0.6,6.7,0.9c1,0.1,2,0.3,3,0.5C75.7,2.8,76.9,4,78,5.3c0.4,0.5,0.4,1-0.1,1.4
		c-0.6,0.5-1.1,1-1.7,1.6c-0.1,0.1-0.2,0.2-0.4,0.3c0.2,0,0.4,0,0.6,0c0.8-0.3,1.7-0.5,2.5-0.9c1-0.5,2.1-0.9,3.2-1
		c1.3-0.1,2.1,0.2,2.5,1.4c0.5,1.2,0.7,2.4,0.4,3.7c-0.1,0.4-0.2,0.8-0.2,1.2c-0.3,1.7-1.2,2.4-3.1,1.6c-1-0.4-1.9-1-2.8-1.5
		c-0.4-0.2-0.7-0.4-1.1-0.5c-0.3-0.1-0.7,0-1,0c0.1,0.3,0.2,0.5,0.3,0.8c0.7,1.5,0.5,1.8-1.1,2.4c-2,0.8-4.2,0.9-6.3,1.3
		c-2.3,0.4-4.7,0.7-7,1c-0.1,0-0.2,0-0.4,0c-2.7,0.1-5.4,0.3-8,0.3c-1.5,0-3.1,0-4.6-0.4c-1.3-0.3-2.5-1.1-3.7-1.8
		c-0.5-0.3-0.9-0.7-1.6-0.2c-0.1,0.1-0.4-0.1-0.7-0.1c-1.4,0.1-2.7,0.2-4.1,0.2c-0.2,0-0.4,0-0.5,0.1c-2.3,0.1-4.7,0.4-7,0.3
		c-3.2-0.1-6.3-0.4-9.4-0.6c-1.6-0.1-3.2-0.2-4.8-0.4c-1.4-0.2-2.8-0.4-4.2-0.6c-0.5-0.1-0.9-0.1-1.4-0.1c-0.5,0-0.4,0.3-0.2,0.6
		c0.5,0.6,1,1.2,1.5,1.7c0,0.1,0.1,0.2,0.1,0.3C13.6,17.4,13.5,17.4,13.4,17.3z"/>
	<path d="M13.6,17.1c0.4,0.3,0.8,0.7,1.2,1c0,0-0.1,0.1-0.1,0.1c-0.4-0.3-0.9-0.6-1.3-0.9C13.5,17.3,13.6,17.2,13.6,17.1z"/>
	<path d="M69.3,9.7c-8.9,0-17.7,0.2-26.6-0.1c-5.5-0.2-11-0.1-16.5-0.3c-0.9,0-1.7-0.1-2.6-0.2c-0.2,0-0.3,0-0.5,0
		c0.1,0.1,0.1,0.3,0.2,0.4c1,1.4,1,2.1-0.1,3.3c-1.4,1.5-2.9,1.9-4.8,1.2c-0.3-0.1-0.7-0.3-1-0.4c-0.5-0.2-1-0.4-1.4-0.8
		c-0.1-0.1,0.3-0.8,0.4-1.2c0.1-0.4,0-0.8,0-1.2c0.8-0.3,1,0.4,1.3,0.9c0.7,1.1,1.7,1.5,2.9,1.2c0.6-0.2,1.1-0.5,1.2-1.2
		c0.1-0.7-0.4-1.1-1-1.4c-1.6-0.7-3-0.3-4.4,0.5c-0.2-0.1-0.3-0.2-0.5-0.3c-0.8-0.6-0.7-0.5,0-1.1c1.2-0.8,2.5-1.4,4-1.2
		c0.4,0,0.8,0,1,0.2c0.9,0.6,1.9,0.5,2.9,0.6c6.1,0.5,12.3,0.1,18.4,0.4c8.4,0.5,16.7,0,25.1,0.3C68.1,9.4,68.8,9.1,69.3,9.7
		L69.3,9.7z"/>
	<path d="M69.3,9.7c1.8,0,3.7,0,5.5,0c0.4,0,0.8,0,1.2,0c0.6,0.1,1.1,0.3,1.7,0.5c-0.5,0-1.1,0-1.6,0c-0.6,0-1.3-0.1-1.9-0.1
		c-1.3,0-2.6,0-3.9,0C69.9,10.1,69.6,9.9,69.3,9.7L69.3,9.7z"/>
</g>
</svg>
