<?xml version="1.0" encoding="iso-8859-1"?>
<!-- Generator: Adobe Illustrator 25.3.0, SVG Export Plug-In . SVG Version: 6.00 Build 0)  -->
<svg version="1.1" id="Calque_1" xmlns="http://www.w3.org/2000/svg" xmlns:xlink="http://www.w3.org/1999/xlink" x="0px" y="0px"
	 viewBox="0 0 77.2 34.9" style="enable-background:new 0 0 77.2 34.9;" xml:space="preserve">
<g>
	<path d="M75.5,27.1c-0.3-0.1-0.9-0.2-1.5-0.4c-2.8-0.7-5.4-1.6-8-3c-2.1-1.1-4.3-2-6.6-2.8c-1-0.4-2.2-0.3-3.3-0.4
		c-0.7-0.1-0.9,0-0.3,0.6c0,0-0.2,0.5-0.4,0.7c-1.8,1.2-3.6,2.3-5.4,3.4c-1.4,0.8-2.7,1.7-4.1,2.5c-0.6,0.4-1.3,0.6-1.9,1
		c-0.5,0.3-1.1,0.5-1.6,0.8c-0.6,0.4-1.2,0.4-1.8,0c-1-0.7-1.9-1.5-3-2.2c-0.4-0.3-1-0.3-1.5-0.3c-0.5,0-0.9,0.2-1.4,0.3
		c-2.4,0.5-4.8,0.3-7.1,0.4c-0.4,0-0.8,0-0.4,0.5c0.4,0.5,0.3,1,0.2,1.5c-0.5,1.5-0.9,3.1-1.3,4.6c-0.1,0.4-0.5,0.6-0.8,0.4
		c-0.4-0.2-0.9-0.4-1.2-0.8c-1.2-1.8-2.4-3.5-3.2-5.5c-0.6-1.4-0.7-1.4-2.2-1.8c-2.3-0.5-4.5-1.1-6.8-1.5c-3.1-0.5-5.7-2-8.3-3.6
		c-0.9-0.6-1.8-1.1-2.8-1.6c-0.6-0.3-0.8-0.7-0.7-1.4c0.3-1.3,0.9-2.4,2.1-3.1c2-1.2,3.9-2.8,6-3.8c2-1,4.2-1.6,6.4-2.2
		c1.9-0.6,3.7-1.4,5.7-1.5c0.2,0,0.5-0.3,0.7-0.5c0.5-0.9,0.9-1.7,1.8-2.4c0.5-0.3,0.6-1.1,0.9-1.7c0.4-0.8,0.8-1.6,1.7-2
		c0.3-0.1,0.5-0.5,0.8-0.7c0.7-0.9,1.3-1,2.2-0.3c3.1,2.6,6.8,3.8,10.5,4.8c2.6,0.7,5.1,1.6,7.7,2.3c2.1,0.6,4.1,1.4,5.9,2.5
		c1.2,0.7,2.4,1.5,3.6,2.4c0.5,0.4,0.4,0.6-0.2,0.8c-0.2,0.1-0.5,0.1-0.7,0.2c-0.2,0.1-0.4,0.1-0.6,0.2c0.2,0.1,0.3,0.1,0.5,0.2
		c2.3,0.5,4.5,0,6.3-1.3c2.5-1.9,5.4-3,8.2-4.3c1.1-0.5,2.1-1.1,3.3-1.4c0.8-0.2,1.6-0.2,2.4-0.2c0.7,0,0.8,0.4,0.3,0.9
		c-2.7,2.7-5.3,5.5-8.5,7.6c-3,2-2.1,2.3-0.1,4c2.6,2.1,5.3,4,8,5.9c0.5,0.4,1.2,0.6,1.7,0.9c0.2,0.1,0.4,0.4,0.4,0.7
		c0,0.1-0.3,0.3-0.5,0.4C76.4,27.1,76,27,75.5,27.1z"/>
	<path d="M3.9,19.1c-0.6-0.9-0.7-1.7,0-2.6c0.7-0.7,1.4-1.2,2.5-1c1.2,0.2,1.9,0.9,2.1,1.9c0.1,0.8-0.6,2-1.5,2.4
		c-0.7,0.3-1.5,0.3-2.2,0.1C4.5,19.6,4.2,19.4,3.9,19.1z"/>
	<path d="M20.8,23c-0.7,0.1-1.4,0.2-2.1,0.3c-0.1,0-0.4-0.1-0.4-0.2c-0.1-0.1,0-0.3,0.1-0.5c0.2-0.5,1.3-0.5,0.9-1.3
		c-0.2-0.4-0.9-0.5-1.3-0.8c-0.4-0.2-0.8-0.5-1.1-0.8c0.4-0.2,0.8-0.4,1.2-0.5c1.7-0.5,3.3-0.9,5-1.3c2.7-0.6,5.5-0.6,8.3-0.5
		c0.2,0,0.5,0.1,0.6,0.3c0.1,0.1,0,0.5-0.2,0.6c-0.4,0.4-0.8,0.9-1.3,1.2c-1.3,0.9-2.5,1.8-3.9,2.5C24.7,22.7,22.8,23.2,20.8,23z"/>
	<path d="M24.5,12.7c-0.2,0.1-0.4,0.3-0.6,0.4c-2.8,0.3-5.6,0.3-8.4,1c-0.1,0-0.3-0.2-0.4-0.3c0,0,0.1-0.2,0.2-0.3
		c0.9-0.2,1.7-0.5,2.6-0.6c1.8-0.2,3.7-0.3,5.6-0.5C23.9,12.5,24.2,12.7,24.5,12.7L24.5,12.7z"/>
	<path d="M55.1,16c-0.3,0-0.6,0.1-0.8,0.1c-1.9-0.3-3.8-0.6-5.7-0.9c-0.2,0-0.4-0.2-0.6-0.3c0.2-0.1,0.4-0.4,0.7-0.4
		c0.8,0.1,1.6,0.2,2.4,0.3C52.5,15.2,53.8,15.6,55.1,16L55.1,16z"/>
	<path d="M60.9,14.5c0.1,0,0.3,0,0.3,0.1c1.1,1.1,1.6,3.2,1.1,4.5c-0.3,0.7-0.7,1.1-1.4,1.2c0.4-0.6,0.9-1.2,1-1.8
		c0.2-0.9,0.2-1.9-0.4-2.7C61.2,15.3,61.1,14.9,60.9,14.5z"/>
	<path d="M55.1,15.9c0.1,0,0.2-0.1,0.3-0.1c1.6,0.2,3.2,0.4,4.7,0.6c0.2,0,0.3,0.3,0.5,0.5c-0.2,0.1-0.3,0.2-0.5,0.2
		C58.5,16.9,56.7,16.9,55.1,15.9C55.1,16,55.1,15.9,55.1,15.9z"/>
	<path d="M29.9,12.7c-1.8,0.3-3.6,0.4-5.4,0l0,0c0-0.1,0.1-0.1,0.1-0.1c1.7-0.4,3.5-0.3,5.2,0C29.9,12.6,29.9,12.7,29.9,12.7
		L29.9,12.7z"/>
	<path d="M37.7,13.6c-1-0.1-2-0.1-3-0.2c-0.1,0-0.2-0.2-0.3-0.3c0.1-0.1,0.2-0.3,0.4-0.3c1.1,0.1,2.2,0.2,3.3,0.3
		c0.2,0,0.5,0.2,0.5,0.3C38.4,13.9,38.1,13.7,37.7,13.6C37.7,13.6,37.7,13.6,37.7,13.6z"/>
	<path d="M46.3,14.1c0.2,0,0.5,0,0.8,0.1c0.1,0,0.2,0.2,0.3,0.4c-0.1,0.1-0.3,0.3-0.4,0.3c-0.4,0-0.7,0-1.1-0.1
		c-0.3-0.1-0.5-0.3-0.7-0.5c0.3-0.1,0.5-0.1,0.8-0.2C46.1,14.1,46.2,14.1,46.3,14.1z"/>
	<path d="M43.7,14.1c-0.3,0.2-0.4,0.4-0.5,0.4c-0.3-0.1-0.7-0.1-1-0.3c-0.1,0-0.2-0.2-0.2-0.4c0-0.1,0.2-0.2,0.3-0.2
		C42.7,13.7,43.1,13.9,43.7,14.1z"/>
	<path d="M29.9,12.7c0.1,0,0.1-0.1,0.2-0.1c0.5,0,1,0,1.6,0.1c0,0.1,0,0.2,0,0.2C31,13.2,30.4,13.3,29.9,12.7
		C29.9,12.7,29.9,12.7,29.9,12.7z"/>
	<path d="M33.1,13.2c-0.2,0-0.4,0.1-0.5,0.1c-0.1,0-0.2-0.2-0.3-0.3c0.1-0.1,0.1-0.2,0.2-0.2c0.3,0,0.7,0,1,0c0.1,0,0.2,0.2,0.3,0.3
		c-0.1,0.1-0.2,0.1-0.3,0.1C33.4,13.2,33.2,13.2,33.1,13.2z"/>
	<path d="M39.6,13.8c-0.1,0-0.3-0.1-0.5-0.2c-0.1,0-0.1-0.2-0.1-0.3c0,0,0.1-0.1,0.1-0.1c0.4,0,0.8,0.1,1.1,0.1c0,0,0.1,0.1,0.1,0.1
		c0,0.1-0.1,0.2-0.2,0.3C39.9,13.8,39.8,13.8,39.6,13.8z"/>
</g>
</svg>
