<?xml version="1.0" encoding="iso-8859-1"?>
<!-- Generator: Adobe Illustrator 25.3.0, SVG Export Plug-In . SVG Version: 6.00 Build 0)  -->
<svg version="1.1" id="Calque_1" xmlns="http://www.w3.org/2000/svg" xmlns:xlink="http://www.w3.org/1999/xlink" x="0px" y="0px"
	 viewBox="0 0 78.7 35.8" style="enable-background:new 0 0 78.7 35.8;" xml:space="preserve">
<g>
	<path d="M59,16.4c1.3,0.3,2.5-0.4,3.7-1.1c2.9-2,6.2-3.2,9.5-4.5c1.3-0.5,2.7-0.7,4-0.8c2-0.1,2.8,1,2.3,2.9
		c-0.2,0.6-0.5,1.2-0.9,1.7c-1,1.4-2,2.7-3,4.1c-0.5,0.7-0.9,1.4-1.3,2.1c-0.1,0.2-0.1,0.6,0,0.8c0.3,0.6,0.6,1.3,1.1,1.8
		c0.9,1.1,1.9,2,2.2,3.5c0.1,0.7,0.7,1.2,1.1,1.8c0.3,0.5,0.5,0.9,0.7,1.4c0.4,1.2,0.1,1.9-1.2,1.9c-1.1,0-2.1-0.1-3.2-0.4
		c-3.9-0.8-7.7-1.9-11.3-3.7c-2.2-1.1-4.5-1.9-7-1.6c-0.5,0.1-0.9,0.1-1.4,0.2c-0.2,0-0.4,0.2-0.6,0.3c0.2,0.2,0.3,0.4,0.5,0.5
		c1.1,0.5,2.1,1.1,2.7,2.2c0.6,0.9,0.3,2.6-0.7,2.9c-1.1,0.4-2.3,0.6-3.6,0.4c-1.8-0.3-3.3-1-4.2-2.6c-0.1-0.2-0.4-0.3-0.5-0.5
		c-0.7-1.4-2-1.4-3.2-1.2c-3.4,0.7-6.9,0.7-10.3,0.7c-0.2,0-0.4,0-0.5,0c-0.2,0-0.5,0-0.7,0.1c0.2,0.1,0.4,0.3,0.6,0.4
		c1,0.6,1.4,1.5,1,2.3c-0.6,1.1-1.1,2.4-2.2,3.2c-0.7,0.5-1,0.6-1.7-0.1c-1.4-1.3-2.7-2.6-3.5-4.2c-0.6-1.2-1.5-1.8-2.9-1.7
		c-0.9,0.1-1.8,0.2-2.7,0.3c-0.2,0-0.5,0.1-0.7,0.1c-1.8-0.1-3.7-0.2-5.5-0.4c-1.6-0.2-3.3-0.6-4.9-0.6c-1.1,0-2.1-0.3-3.2-0.5
		C7,28.1,6.7,28,6.4,28c-0.4,0-0.8,0-1,0.5c-0.2,0.5,0.1,0.6,0.3,0.9c0.1,0.2,0.3,0.4,0.4,0.6c0,0.1,0,0.2-0.1,0.3
		c-0.1,0.1-0.2,0.1-0.3,0.1c0,0-0.1,0-0.2-0.1c-0.4-0.2-0.7-0.5-1.1-0.7c0.1,0.5,0.2,0.9,0.3,1.4c0,0.5,0,1-0.5,1.4
		c-0.8,0.5-0.7,0.6-1.1-0.3c-0.3-0.6-0.6-1.2-0.9-1.8C2.2,30.2,2.1,30,2,29.9c0,0.2-0.1,0.3-0.1,0.5c0.1,0.9,0.2,1.7,0.3,2.6
		c0,0.1-0.2,0.2-0.2,0.4c-0.1-0.1-0.2-0.2-0.2-0.3C2,31.9,1.3,31,1,29.9c-0.2-0.7-0.7-1.4-0.4-2.2c0.1-0.2-0.1-0.6-0.2-0.8
		c-0.6-1-0.3-1.8,0.2-2.6c0.9-1.3,1.6-2.6,2.5-3.9c2.1-2.9,4.7-5.3,7.8-7.2c1.3-0.8,2.6-1.5,3.8-2.3c2.6-1.5,5.5-2.3,8.4-3
		c0.8-0.2,1.4-0.5,1.9-1.2c1.8-2.4,3.9-4.3,6.3-6.1c0.5-0.4,1.2-0.5,1.8-0.6c0.8-0.1,3.6,0.6,4.2,1.1c1.3,1.2,2.5,2.4,3.9,3.5
		c1.3,1,2.1,2.6,2.4,4.2c0.1,0.7,0,1.2-0.7,1.4c-0.7,0.3-1.4,0.6-2.1,0.9c-0.1,0-0.3,0.2-0.2,0.2c0.1,0.1,0.2,0.3,0.3,0.3
		c1.6,0.5,3.2,1,4.8,1.4c0.5,0.1,1,0.2,1.4,0.4c2.1,1,4.2,0.8,6.3,0.2c0.9-0.2,1.7-0.4,2.6-0.5c0.8-0.1,1.1,0.4,0.8,1.2
		c-0.6,1.5-0.4,1.8,1.3,1.9C58.3,16.4,58.6,16.4,59,16.4z"/>
	<path d="M10.3,19.4c0,0.8-1,2-1.7,2c-1,0-2-1-1.9-1.9c0.1-0.8,0.8-1.7,2-1.7C9.7,17.9,10.3,18.5,10.3,19.4z"/>
	<path d="M8.7,15.8c0.2,0.1,0.5,0.2,0.7,0.4c0.9,0.9,0.8,0.8,1.9,0.1c1.4-0.9,1.9-2.3,2.4-3.7c0.2,0.1,0.5,0.3,0.5,0.3
		c-0.6,1.4-1,3-2.4,3.9c-0.3,0.2-0.5,0.5-0.9,0.6c-1,0.5-1.5,0.3-1.9-0.7C8.9,16.3,8.8,16,8.7,15.8z"/>
	<path d="M4,20.7c0.6,0.2,0.9-0.9,1.6-0.3c-0.3,0.5-0.5,1-0.9,1.4C4.6,22,4.3,22.1,4.1,22C4,22,3.9,21.7,3.8,21.5
		C3.8,21.3,3.9,21,4,20.7C4,20.8,4,20.7,4,20.7z"/>
	<path d="M13.5,21.8c-0.2-0.1-0.3-0.2-0.4-0.2c0.2-0.2,0.3-0.4,0.5-0.6c0,0,0.2,0.1,0.4,0.1C13.8,21.4,13.7,21.6,13.5,21.8z"/>
</g>
</svg>
