<?xml version="1.0" encoding="iso-8859-1"?>
<!-- Generator: Adobe Illustrator 25.3.0, SVG Export Plug-In . SVG Version: 6.00 Build 0)  -->
<svg version="1.1" id="Calque_1" xmlns="http://www.w3.org/2000/svg" xmlns:xlink="http://www.w3.org/1999/xlink" x="0px" y="0px"
	 viewBox="0 0 82 32.7" style="enable-background:new 0 0 82 32.7;" xml:space="preserve">
<g>
	<path d="M40.8,14.8c2.2,0.5,4.1-1,6.1-2.5c0.3-0.2,0.5-0.5,0.8-0.6c1.2-0.6,2.1-0.1,2,1.2c-0.1,1.4,0.6,2.1,1.7,2.5
		c2.3,0.8,4.5,1.8,6.9,2.4c1.7,0.4,3.4,0.2,5.1-0.6c2-1,4-1.9,5.9-3c2.5-1.3,5.1-2.2,7.8-3.2c1.4-0.5,2.7-0.3,4.1-0.3
		c0.2,0,0.4,0.3,0.7,0.5c-0.2,0.1-0.3,0.3-0.5,0.3c-0.7,0.2-1.5,0.3-2.2,0.6c-1.8,0.6-3.2,1.7-4.5,3.1c-0.9,1-1.7,2-2.6,2.9
		c-0.8,0.8-1.3,1.7-0.8,2.9c0.2,0.4,0.1,0.7-0.5,0.6c-1-0.3-2-0.7-3-1c-0.3-0.1-0.6-0.4-1-0.4c-0.2-0.1-0.4,0.1-0.7,0.1
		c0.1,0.1,0.2,0.3,0.4,0.4c0.7,0.6,1.4,1.1,2,1.7c0.3,0.3,0.7,0.6,0.4,1.1c-0.3,0.4-0.6,0.6-1.2,0.5c-1.5-0.3-3-0.8-4.4-1.5
		c-0.6-0.3-1.2-0.6-1.8-0.9c-0.5-0.3-0.9-0.3-1.5-0.1c-3.5,1.1-6.9,2.1-10.6,2.3c-1,0.1-2,0.2-3,0.3c-0.1,0-0.2,0-0.4,0.1
		c0.1,0.1,0.2,0.2,0.3,0.3c2.3,1.2,2.3,1.2,0.9,3.4c-0.5,0.8-0.9,1.7-0.8,2.7c0,0.3,0,0.6,0,0.9c-0.1,1.1-1,1.6-1.9,0.9
		c-0.8-0.7-1.5-1.5-2.2-2.4c-0.8-1-1.4-2.2-2.2-3.3c-0.3-0.5-0.7-0.7-1.5-0.6c-3,0.5-6,0.8-9,1.1c-0.2,0-0.5,0.1-0.7,0
		c-2-0.4-4,0-6,0.1c-1.5,0-2.8-0.5-4.2-0.9c-1.9-0.6-3.9-1-5.9-1.2c-1.1-0.1-2.2-0.3-3.4-0.5c-0.2,0-0.3-0.1-0.5-0.1
		c-1.3,0-2.3-0.5-3.4-1.2c-0.3-0.2-0.9-0.3-1.3-0.3c-0.2,0-0.4,0.2-0.6,0.4C4,23.6,4.2,23.9,4.3,24c0.3,0.2,0.8,0.4,1.1,0.6
		c0.2,0.2,0.3,0.6,0.2,0.9c0,0.2-0.5,0.2-0.8,0.3c-0.1,0-0.2-0.1-0.3-0.1c-1-0.4-2-0.7-3-1.2c-0.4-0.2-0.9-0.4-1.2-0.8
		c-0.5-0.5-0.4-1.3,0.2-1.7c0.4-0.3,0.9-0.5,1.4-0.8c1.5-0.6,2.6-1.7,3.5-2.9c0.6-0.8,1.2-1.5,1.8-2.2c0.7-0.9,1.6-1.4,2.7-1.7
		c2.1-0.5,4.1-1.2,6.3-1.2c1.2,0,1.3-0.2,1.5-1.5c0.3-3.5,1-7,2.5-10.3c0.1-0.2,0.1-0.4,0.2-0.5c0.2-0.3,0.5-0.7,0.8-1
		c0,0.4-0.1,0.7-0.1,1.1c-0.1,2.2,0.5,4.3,1.6,6.3c0.5,0.9,0.9,1.9,1.4,2.9c0.4,0.7,0.7,1.5,1.1,2.2c0.4,0.9,1,1.3,2,1.4
		c0.5,0.1,0.9,0,1.3-0.3c0.8-0.5,1.7-0.9,2.6-1.3c1.1-0.4,1.5,0,1.2,1.2c-0.1,0.5-0.3,0.8,0.5,0.7c0.2,0,0.3,0.1,0.5,0.1
		C35.6,14.5,37.9,14.6,40.8,14.8z"/>
	<path d="M45.8,18.7c0.7,0,1.4,0,2.1,0c0.2,0,0.3,0.1,0.5,0.1C48.3,18.9,48.2,19,48,19c-1.5,0-3,0-4.4,0c-0.1,0-0.3-0.1-0.4-0.2
		c0.2,0,0.3-0.1,0.5-0.1C44.4,18.7,45.1,18.7,45.8,18.7C45.8,18.7,45.8,18.7,45.8,18.7z"/>
	<path d="M35.6,18.8c-0.7-0.1-1.4-0.2-2.1-0.3c0.7-0.1,1.4-0.1,2.1-0.1c0.7,0,1.3,0,2,0c0.2,0,0.3,0.1,0.5,0.2
		c-0.1,0.1-0.3,0.2-0.4,0.2c-0.7,0-1.3,0-2,0C35.6,18.7,35.6,18.8,35.6,18.8z"/>
	<path d="M51.7,19.4c-0.4,0-0.5,0-0.7,0c-0.1,0-0.2-0.1-0.3-0.2c0.1,0,0.2-0.1,0.3-0.1c0.2,0,0.3,0,0.5,0c0.3,0,0.6,0.1,0.8,0.1
		C52.1,19.3,51.8,19.4,51.7,19.4z"/>
	<path d="M54,19.4c-0.2,0-0.4,0-0.6-0.1c0,0,0-0.1,0-0.2c0.5,0,1,0,1.5,0c0,0.1-0.1,0.2-0.1,0.2C54.5,19.4,54.3,19.4,54,19.4z"/>
	<path d="M11,18.1c-0.3-0.2-0.8-0.4-1.2-0.7c-0.5-0.3-0.4-0.8-0.1-1.2c0.5-0.7,1.4-1,2.1-0.8c0.6,0.2,1.2,0.3,1.2,1
		c0,0.7-0.5,1.2-1.1,1.4C11.6,17.9,11.4,18,11,18.1z"/>
</g>
</svg>
