<?xml version="1.0" encoding="iso-8859-1"?>
<!-- Generator: Adobe Illustrator 25.3.0, SVG Export Plug-In . SVG Version: 6.00 Build 0)  -->
<svg version="1.1" id="Calque_1" xmlns="http://www.w3.org/2000/svg" xmlns:xlink="http://www.w3.org/1999/xlink" x="0px" y="0px"
	 viewBox="0 0 78.1 32.1" style="enable-background:new 0 0 78.1 32.1;" xml:space="preserve">
<g>
	<path d="M70.7,11.6c-0.9-0.2-1.9-0.4-2.8-0.5c-0.3-0.1-0.6-0.2-0.9-0.2c-2,0.4-4,0.8-5.9,1.4c-1.3,0.4-2.5,1.2-3.6,1.9
		c-0.8,0.6-1.5,1.3-2.2,2.1c-1.4,1.8-1.5,2.2,0.1,3.9c2.4,2.8,5.3,5,9,5.9c2.6,0.6,5.1,0.9,7.8,0.4c1.2-0.2,2.5-0.3,3.7-0.8
		c0.1,0,0.3,0.1,0.5,0.1c-0.1,0.1-0.2,0.4-0.3,0.4c-1.3,0.5-2.6,1-4.1,0.9c-1.6-0.1-3.1-0.1-4.7,0c-2.8,0.1-5.4-0.4-8.1-1
		c-2-0.4-4-0.7-5.9-1.3c-1.4-0.4-2.8-1-4.1-1.6c-1.2-0.5-2.5-1.1-3.7-1.8c-0.8-0.5-1.7-0.5-2.6-0.5c-1.3,0.1-2.6-0.2-3.9,0.3
		c-0.5,0.2-0.6,0.4-0.1,0.6c1,0.6,1.9,1.2,2.9,1.7c1.1,0.6,1.2,0.8,0.5,1.9c-1.3,1.9-3.1,3.4-5.2,3.8c-2.1,0.4-4.5,0.9-6.4-1.1
		c-0.6-0.6-1.6-0.7-2-1.6c-1.3,0.5-1.4-1.2-2.5-1.1c-0.7-1.5-1.9-1.2-3.2-0.9c-1.2,0.2-2.4,0.1-3.6,0.1c-0.1,0-0.3,0.4-0.2,0.4
		c1.1,1.8,1.3,3.9,1.2,5.9c0,0.9-0.4,1-1.1,0.5c-0.6-0.4-1.3-0.9-1.9-1.4c-0.3-0.3-0.6-0.6-0.8-0.9c-0.6-1.1-1.2-2.2-1.7-3.3
		c-0.4-0.8-1.1-0.9-1.9-1c-4.3-0.5-8.4-1.6-12-4C-0.2,20.3,0,20.3,0,18.8c-0.1-2.3,1.4-3.3,2.8-4.5c1.8-1.5,3.9-2.5,6-3.4
		c0.9-0.4,1.9-0.4,2.9-0.4c0.6,0,1-0.1,1.3-0.7c0.4-0.9,1.4-0.4,2-0.8c0.2,0.4,0.4,0.3,0.6,0c0.4-0.7,1.6-0.3,1.9-1.1
		c0,0,0.8,0.3,0.8,0.3c0.5-1,1.4,0.1,1.5-0.2c0.4-0.8,1-0.7,1.6-0.5c0.5-0.8,1.7,0,2-1c0-0.1,0.4,0,0.4,0c0.1,0.6,0.4,0.6,0.7,0.2
		C25,6.2,25.5,6.2,26,6.3c0.4,0,0.5-1.1,1.2-0.3c0,0,0.2,0,0.3-0.1c0.5-1.1,1.8-0.7,2.6-1.3c0.8-0.6,1.7-1,2.7-1.5c2.3-1,4.7-2,7-3
		C40,0,40.2,0,40.5,0c0,0.2,0,0.5-0.1,0.6c-0.4,0.6-0.3,1.1-0.1,1.8c0.5,2,1.3,3.9,2.5,5.6c0.7,1,0.5,1.3-0.6,1.8
		c-1.3,0.7-2.6,1.4-3.9,2.1c-0.7,0.4-0.6,0.7,0,1.2c0.1,0.1,0.3,0.3,0.4,0.3c2,0.4,4.1,1.1,6.2,0.7c0.7-0.1,1.4-0.4,2-0.8
		c2.8-1.5,5.8-2.2,8.8-2.8c2.9-0.6,5.8-0.9,8.7-0.7c2.2,0.2,4.5,0.2,6.5,1.4C70.8,11.5,70.8,11.6,70.7,11.6z"/>
	<path d="M74.1,12.5c1.4-0.1,2.5,0.9,3.9,1.2c0,0,0.1,0.1,0.1,0.1c0,0.1-0.1,0.2-0.2,0.2c-0.4,0-0.9,0-1.2-0.1
		c-0.9-0.4-1.8-0.8-2.7-1.2C74,12.7,74,12.6,74.1,12.5z"/>
	<path d="M70.8,11.5c1.2,0,2.3,0.3,3.2,1.1c-0.1,0.1-0.1,0.1-0.2,0.2c-1.1-0.4-2.1-0.7-3.2-1.1C70.8,11.6,70.8,11.5,70.8,11.5z"/>
	<path d="M16,12.8c-0.2,0.2-0.3,0.3-0.5,0.3c-1.6,0.3-3.2,0.6-4.6,1.6c-0.1,0.1-0.4,0-0.6-0.1c0.1-0.2,0.1-0.4,0.2-0.4
		c1.5-1,3.1-1.7,4.9-1.7C15.7,12.6,15.8,12.7,16,12.8z"/>
	<path d="M34.4,13.5c1.4,0.5,2.9,1,4.3,1.5c0.1,0.1,0.2,0.4,0.3,0.6c-0.2,0-0.4-0.1-0.6-0.1c-0.7-0.2-1.5-0.4-2.2-0.6
		c-0.7-0.2-1.3-0.5-2-0.8c-0.1,0-0.2-0.2-0.1-0.3C34.1,13.6,34.3,13.6,34.4,13.5z"/>
	<path d="M27.7,12.7c1.4,0.2,2.6,0.3,3.7,0.4c0.1,0,0.2,0.3,0.4,0.5c-0.1,0.1-0.3,0.3-0.4,0.3c-1.2-0.2-2.4-0.3-3.6-0.5
		c-0.2,0-0.3-0.3-0.4-0.5C27.5,12.8,27.7,12.7,27.7,12.7z"/>
	<path d="M47.7,17.4c0,0.2,0,0.5,0,0.7c0,0.1-0.2,0.2-0.2,0.4c-0.1-0.1-0.3-0.3-0.3-0.4c0.1-1-0.2-1.8-0.5-2.7
		c0-0.1,0.1-0.3,0.1-0.5c0.1,0.1,0.4,0.2,0.4,0.3c0.2,0.7,0.4,1.4,0.6,2.1C47.8,17.4,47.8,17.4,47.7,17.4z"/>
	<path d="M33.6,13.7c-0.1,0.1-0.1,0.3-0.2,0.3c-0.3,0-0.6,0.1-0.9,0c-0.1,0-0.2-0.1-0.2-0.2c0-0.1,0.1-0.2,0.2-0.2
		c0.3,0,0.6-0.1,0.9-0.1C33.4,13.4,33.5,13.6,33.6,13.7z"/>
</g>
</svg>
