<?xml version="1.0" encoding="iso-8859-1"?>
<!-- Generator: Adobe Illustrator 25.3.0, SVG Export Plug-In . SVG Version: 6.00 Build 0)  -->
<svg version="1.1" id="Calque_1" xmlns="http://www.w3.org/2000/svg" xmlns:xlink="http://www.w3.org/1999/xlink" x="0px" y="0px"
	 viewBox="0 0 84.6 58" style="enable-background:new 0 0 84.6 58;" xml:space="preserve">
<g>
	<path d="M84.5,31c0,0.5,0,1.1,0,1.6c0.2,1.9-0.6,3.4-1.8,4.8c-0.5,0.6-1,0.8-1.7,0.7c-2-0.1-3.9-0.6-5.9-1.2
		c-1.1-0.3-2.2-0.6-3.3-0.9c-0.2-0.1-0.5-0.1-0.7-0.2c-1.8-0.8-3.4-0.9-5.1-0.3c-0.1,0-0.2,0.1-0.3,0.1c-0.4,0.1-0.9,0.2-1.3,0.3
		c0.3,0.3,0.6,0.7,1,0.9c1,0.8,1.1,1.9,1.4,2.9c0.3,0.9-0.2,1.7-0.7,2.5c-0.8,1.1-1.7,2-3.2,2.6c-1.6,0.6-3.4,0.9-5,1.4
		c-1.6,0.5-3.4,0.3-5.1,0.4c-0.7,0-1.6-0.3-1.7,0.8c-0.6,0-1.1,0.3-1.5,0.7c-0.1,0.1-0.3,0-0.3,0c-0.5-1-1-0.4-1.5-0.1
		c-0.4,0.2-0.7,0.2-1-0.1c-0.2-0.2-0.4-0.3-0.5-0.5c-0.8-1.2-1.7-1.3-3.1-0.8c-1.8,0.6-3.6,1.2-5.6,1.1c-0.4,0-0.8,0.2-1.2,0.2
		c-0.5,0.1-0.9,0.2-1.4,0.2c0.5,0.3,1,0.7,1.5,0.8c0.6,0.1,1.3,0.2,1.8,0.2c1,0,1.3,0.4,1.7,1.2c0.8,1.6,1.1,3.3,1.6,5
		c0.1,0.4,0.1,0.8,0,1.2c-0.1,1.1-0.8,1.5-1.8,1c-0.6-0.3-1.3-0.7-1.9-1c-0.5-0.2-1-0.3-1.4-0.5c-0.3-0.1-0.8-0.2-0.9-0.5
		c-0.6-1-1.6-1.4-2.4-2c-1.3-1-2.4-2.4-3.2-3.8c-0.6-1.1-1.4-1.7-2.8-1.9c-1.7-0.2-3.4-0.7-5-1.2c-1.9-0.6-3.7-1.4-5.5-2.2
		c-0.9-0.4-1.8-1.1-2.7-1.6c-1.3-0.9-2.7-1.6-3.9-2.6c-0.4-0.3-0.9-0.5-1.3-0.9c-1.1-1-2.1-2.1-3.1-3.2c-1.2-1.4-2.9-2-4.6-2.6
		c-1.2-0.4-1.5-1.3-0.7-2.2c0.4-0.4,0.7-0.9,1.1-1.3c0.4-0.5,0.8-1,1.4-1.3c2.7-1.4,5.6-2.6,8.2-4.1c2.7-1.5,5.5-2.7,7.8-4.9
		c1.3-1.2,2.8-2.2,4.2-3.2c1-0.8,2.1-1.6,3.1-2.3c0.1-0.1,0.3-0.2,0.4-0.4c0.2-1,0.8-1.6,1.7-1.9c0.3-0.1,0.4-0.8,0.5-1.2
		c0.3-1,0.7-1.9,1.3-2.8c0.1-0.2,0.5-0.4,0.7-0.4c1.1,0.5,1.4-0.4,1.8-1C33.5,5.4,34.2,4.1,35,3c0.7-0.9,1.6-1.8,2.4-2.6
		c0.6-0.6,1.1-0.6,1.3,0.2c0.3,1.2,1.1,1.2,1.9,1.1c0.6-0.1,0.8,0.2,1,0.6c0.3,0.9,0.7,1.5,1.8,1.7c0.2,0,0.6,0.5,0.6,0.8
		c0,1.7,1.3,2.7,2,4.1c0.4,0.8,1.1,1.4,1.6,2.1c0.2,0.3,0.3,0.6,0.4,1c0.1,0.3,0.1,0.7,0.2,1c0.4,1.5,1.3,2.1,2.9,1.8
		c1.1-0.3,2.2-0.2,3.3,0c1.2,0.2,2.4,0.4,3.6,0.7c2.7,0.6,4.7,2.2,6.5,4.1c1.4,1.5,0.9,4.7-0.8,5.9c-0.2,0.1-0.4,0.2-0.6,0.3
		c-0.1,0.1-0.2,0.3-0.2,0.4c0.2,0,0.3,0,0.5,0.1c3.2,1.9,6.3,1.5,9.5,0.1c1-0.4,2.1-0.7,3.2-1c1.5-0.4,3-0.7,4.4-1.2
		c1.6-0.5,2.9,0.3,3.6,1.8C84.6,27.5,84.6,29.2,84.5,31z"/>
	<path d="M53.1,27.8c-0.3-0.3-0.7-0.6-1-1c-1-1.6-2.5-2.5-4.1-3.3c-2.9-1.3-6-1.9-9.1-2.5c-1.7-0.3-3.5,0-5.2-0.1
		c-2.5-0.1-4.7,0.4-6.6,2c-0.1,0.1-0.3,0.2-0.5,0.2c-0.1,0-0.2,0-0.3,0c0-0.2,0-0.4,0.1-0.5c0.2-0.2,0.4-0.5,0.6-0.6
		c1.9-1.1,3.8-1.9,6-2c3-0.1,5.9,0.3,8.8,0.9c2,0.4,3.9,0.9,5.8,1.6c2.4,1,4.5,2.4,5.6,4.9L53.1,27.8z"/>
	<path d="M17.2,30.6c-1.8,0-2.6-0.8-2.6-2.6c0-1.8,0.8-2.5,2.7-2.5c1.9,0,2.9,1,2.9,2.8C20.1,29.8,19,30.7,17.2,30.6z"/>
</g>
</svg>
