<?xml version="1.0" encoding="iso-8859-1"?>
<!-- Generator: Adobe Illustrator 25.3.0, SVG Export Plug-In . SVG Version: 6.00 Build 0)  -->
<svg version="1.1" id="Calque_1" xmlns="http://www.w3.org/2000/svg" xmlns:xlink="http://www.w3.org/1999/xlink" x="0px" y="0px"
	 viewBox="0 0 86.6 9.8" style="enable-background:new 0 0 86.6 9.8;" xml:space="preserve">
<g>
	<path d="M12.1,8.4c-0.3-0.1-0.7-0.2-1-0.4C10.5,7.7,10,7.6,9.3,7.8c-1,0.3-2,0.2-3,0c-1.5-0.4-3-0.6-4.5-0.9
		c-0.2,0-0.5-0.1-0.7-0.2C0.7,6.5,0.2,6.3,0.2,6c0-0.5,0.5-0.6,0.9-0.6c0.1,0,0.2,0,0.4,0C1.4,5.2,1.3,5.2,1.2,5.1C1.1,5,1.1,5,1,5
		c-1.3-0.8-1.4-1.2-0.1-2.1C1.4,2.5,2,2.3,2.5,2.2c2-0.6,4-1.1,6-1.7C9,0.4,9.5,0.4,10,0.4c2.6,0,5.2,0.2,7.7-0.1
		c2.8-0.3,5.5-0.4,8.2-0.2c3.5,0.3,6.9,0,10.4,0.4c2.7,0.3,5.4,0.1,8.1,0.3c2.1,0.1,4.2,0.4,6.4,0.7c0.1,0,0.1,0,0.2,0
		c2.1,0.1,4.3,0.3,6.4,0.3c2.5,0.1,5,0.3,7.5,0.7c1.4,0.2,2.8,0.3,4.3,0.4c2.3,0.1,4.5,0.2,6.8,0.4c2.4,0.2,4.7,0.5,7.1,0.7
		c0.7,0.1,1.3,0,2,0c0.4,0,0.8,0.1,1.2,0.2c0.2,0.1,0.3,0.3,0.5,0.4c-0.2,0.1-0.3,0.2-0.5,0.2c-3.3,0.1-6.6,0.2-9.9,0.4
		c-3,0.2-5.9,0.4-8.9,0.7c-0.1,0-0.2,0-0.4,0c-3,0.1-6.1,0.2-9.1,0.4c-2.3,0.1-4.6,0.4-6.9,0.7c-0.1,0-0.2,0-0.4,0
		c-3.2,0.1-6.3,0.2-9.5,0.4c-2.3,0.1-4.5,0.4-6.7,0.6c-0.5,0-1,0.1-1.4,0.1c-2.6,0-5.1,0.6-7.6,0.9c-2.8,0.4-5.6,1.1-8.5,0.8
		c-1-0.1-1.9-0.4-2.9-0.7c0.1-0.2,0.2-0.4,0.4-0.5c0.2-0.1,0.4-0.3,0.7-0.2c5,0.6,9.7-0.9,14.6-1.4C34.6,6.4,39.7,6.3,44.8,6
		c4.7-0.3,9.4-0.3,14.1-0.6c2.9-0.2,5.8-0.3,8.8-0.5c0.2,0,0.4,0,0.5,0c-0.2,0-0.3,0-0.5,0c-8.4,0.5-16.9,0.8-25.3,1.2
		c-7.3,0.4-14.5,0.5-21.6,2c-2.7,0.6-5.3,0-8,0.1C12.6,8.3,12.4,8.3,12.1,8.4z"/>
	<path d="M14,9.1c-0.6-0.2-1.2-0.5-1.8-0.7c0.1-0.1,0.1-0.1,0.2-0.2c0.8-0.3,1.5-0.3,1.8,0.7C14.1,9,14,9.1,14,9.1z"/>
</g>
</svg>
