<?xml version="1.0" encoding="iso-8859-1"?>
<!-- Generator: Adobe Illustrator 25.3.0, SVG Export Plug-In . SVG Version: 6.00 Build 0)  -->
<svg version="1.1" id="Calque_1" xmlns="http://www.w3.org/2000/svg" xmlns:xlink="http://www.w3.org/1999/xlink" x="0px" y="0px"
	 viewBox="0 0 78.2 43.4" style="enable-background:new 0 0 78.2 43.4;" xml:space="preserve">
<g>
	<path d="M46.7,43.4c-0.2-0.1-0.5-0.2-0.8-0.4c-0.7-0.5-1.3-1-2-1.6c-1.5-1.2-2.5-3.1-4.5-3.8c-0.5-0.2-0.9-1-1.2-1.5
		c-0.4-0.8-0.9-1-1.7-0.9c-0.8,0.1-1.2,0.5-1.1,1.3c0,0.3,0.2,0.6,0.2,0.8c0,0.1-0.4,0.3-0.5,0.3c-0.4-0.2-0.7-0.5-1-0.8
		c-0.6-0.7-1.3,0.2-1.8-0.1c-0.5-0.3-0.7-1.1-1.2-1.4c-0.5-0.3-1.1-0.3-1.7-0.4c-1-0.1-1.9,0-2.9,0c-0.5,0-1,0-1.4,0
		c0.3,0.3,0.6,0.6,0.9,0.9c0.6,0.7,0.9,1.7,0.4,2.4c-0.9,1.2-1.1,2.6-1.5,3.9c-0.1,0.2-0.1,0.5-0.2,0.7c-0.3,0.6-0.9,0.7-1.2,0.1
		c-0.9-1.7-1.8-3.5-2.7-5.2c-0.1-0.3-0.2-0.6-0.3-0.8c-0.4-1-0.5-2.3-1.2-2.9c-0.8-0.7-2.1-0.8-3.2-0.9c-2.7-0.3-5.2-1.1-7.8-1.9
		c-1.4-0.5-2.8-0.9-4.2-1.4c-1.4-0.5-2.7-1.1-3.7-2.2C0.2,27.3,0,26.9,0,26.5C0,26,0.5,25.4,0.4,25c-0.1-0.7,0.3-1.1,0.5-1.6
		c1.3-2.6,2.7-5.2,4.6-7.4c1-1.2,2.2-2.2,3.4-3.1c3.6-2.7,7.6-4.4,11.9-5.6c0.8-0.2,1.7-0.1,1.9-1.2c0.8-0.3,1.2-0.8,1.7-1.5
		c1-1.7,2.3-3.2,4-4.2C28.7,0.1,29,0,29.3,0.4c0.6,0.7,1.3,1.4,1.9,2.1c0.2,0.2,0.3,0.5,0.5,0.8c0.3,0.7,0.4,1.5,0.9,2
		c0.4,0.4,1.4,0.3,1.8,0.8c0.7,0.6,1,0.5,1.6,0c1.3-1.4,3.3-1.8,4.8-2.8c1.5-1,3.3-1.7,5-2.4c1-0.4,2.1-0.6,3.1-0.8
		c1.4-0.2,1.9,0.5,1.3,1.8c-0.6,1.2-1.3,2.4-1.8,3.7c-0.7,1.9-0.2,3.3,1.5,4.4c1.4,1,2.8,2,4.4,2.8c2.3,1.3,4.1,3,5.4,5.2
		c0.4,0.7,0.7,0.6,1.2,0.1c0.9-0.9,1.8-1.8,2.7-2.7c2.1-2.2,4.5-4.1,7.2-5.5c1.9-1.1,4.1-1.6,6.2-2.3c0.2-0.1,0.5,0,0.7,0
		c0.5,0,0.7,0.4,0.6,0.9c-0.1,0.3-0.3,0.7-0.5,0.9c-2.2,2.2-3.5,4.9-5.2,7.4c-0.7,1.1-1.6,2.1-2.4,3.1c-0.8,1-0.9,1.4,0,2.3
		c1.9,1.8,3.3,4,4.6,6.3c0.7,1.2,1.7,2.2,2.5,3.2c0.1,0.1,0.2,0.3,0.4,0.4c0.3,0.4,0.6,0.9,0.2,1.3c-0.2,0.2-0.7,0.3-1.1,0.3
		c-4.3-0.7-7.8-2.8-10.9-5.7c-1.4-1.3-2.7-2.6-4.1-4c-0.5-0.5-1-0.4-1.3,0.2c-2.2,3.9-5.4,6.7-9.3,8.9c-0.7,0.4-1.3,0.8-2,1.2
		c-2.2,1.4-2.6,2.7-1.8,5.3c0.2,0.8,0.5,1.6,0.7,2.4C48,42.8,47.6,43.3,46.7,43.4z"/>
</g>
</svg>
