<svg xmlns="http://www.w3.org/2000/svg" viewBox="0 0 800 441" width="800" height="441">
  <g transform="scale(0.6666666666666666, 0.6661631419939577)">
    <path d="M 431.509 31.134 C 427.681 33.207, 426.696 33.271, 407.261 32.720 L 387.004 32.146 381.752 36.413 C 375.458 41.526, 372.832 43, 370.016 43 C 366.686 43, 362.203 45.760, 361.506 48.239 C 361.156 49.483, 359.785 53.008, 358.459 56.072 C 357.132 59.137, 355.368 64.873, 354.538 68.817 C 353.709 72.762, 351.949 78.580, 350.627 81.745 C 349.306 84.910, 347.907 89.428, 347.519 91.785 C 346.515 97.876, 343.268 101.143, 332.895 106.500 C 324.628 110.770, 322.908 111.273, 313.940 112.052 C 308.515 112.524, 302.732 113.605, 301.088 114.454 C 299.445 115.304, 295.715 116.493, 292.800 117.097 C 286.045 118.495, 270.167 123.552, 262.875 126.628 C 259.781 127.932, 256.398 129, 255.357 129 C 254.316 129, 251.843 130.102, 249.861 131.449 C 247.879 132.795, 244.962 134.209, 243.379 134.590 C 241.795 134.971, 236.438 137.690, 231.472 140.632 C 226.507 143.574, 219.618 146.936, 216.162 148.103 C 212.706 149.270, 207.318 152.213, 204.189 154.642 C 201.060 157.072, 195.305 161.265, 191.401 163.959 C 186.944 167.034, 183.834 169.987, 183.044 171.893 C 182.237 173.843, 179.945 175.979, 176.643 177.861 C 170.859 181.159, 164.778 186.336, 147.119 203 C 136.333 213.177, 134.760 215.087, 133.437 219.606 C 132.339 223.356, 130.913 225.539, 128.069 227.825 C 122.933 231.952, 115.440 243.369, 113.929 249.368 C 113.257 252.036, 110.810 256.715, 108.431 259.880 C 106.073 263.016, 102.276 269.839, 99.993 275.041 C 97.710 280.244, 93.229 289.450, 90.035 295.500 C 86.428 302.332, 83.959 308.379, 83.521 311.459 C 83.133 314.186, 81.272 319.482, 79.386 323.227 C 72.190 337.515, 71.780 339.182, 71.040 357.155 C 70.469 371.016, 70.039 374.288, 68.475 376.655 C 66.639 379.433, 66.424 381.003, 64.365 406.667 C 64 411.214, 64.245 415.234, 65.036 417.667 C 66.646 422.619, 78.477 442.675, 84.710 451.018 C 87.374 454.583, 92.332 461.550, 95.729 466.500 C 109.538 486.620, 129.425 508.312, 146.987 522.409 C 158.892 531.965, 177.122 543.922, 181.671 545.158 C 183.777 545.731, 186.175 546.790, 187 547.512 C 187.825 548.235, 190.975 549.723, 194 550.820 C 206.168 555.231, 220.921 561.671, 231.322 567.112 C 236.515 569.829, 241.799 571.962, 264.795 580.628 C 268.258 581.933, 272.083 583.002, 273.295 583.004 C 274.508 583.007, 278.650 584.122, 282.500 585.483 C 286.350 586.844, 290.752 587.967, 292.282 587.979 C 293.811 587.991, 297.824 588.930, 301.199 590.067 C 304.574 591.204, 312.968 592.793, 319.851 593.599 C 328.155 594.571, 333.398 595.690, 335.433 596.926 C 337.120 597.950, 340.525 599.116, 343 599.516 C 345.475 599.917, 349.707 601.110, 352.405 602.169 C 355.103 603.227, 360.503 604.706, 364.405 605.455 C 368.355 606.213, 377.263 609.383, 384.500 612.608 C 399.270 619.188, 396.003 618.854, 429.500 617.202 C 440.500 616.660, 451.300 615.703, 453.500 615.076 C 455.868 614.401, 476.878 613.370, 505 612.548 C 547.922 611.294, 553.271 610.951, 560.500 608.997 C 565.147 607.741, 575.416 606.266, 585 605.478 C 594.075 604.731, 603.391 603.428, 605.703 602.582 C 609.921 601.037, 628.183 599.969, 677.019 598.411 C 699.371 597.698, 729.495 599.672, 740.619 602.577 C 755.055 606.348, 786.606 606.281, 795.752 602.459 C 797.804 601.602, 801.512 600.471, 803.992 599.947 C 806.471 599.423, 810.975 597.909, 814 596.583 C 817.025 595.257, 822.200 593.281, 825.500 592.192 C 844.416 585.949, 850.322 582.916, 862 573.449 C 866.125 570.105, 872.928 565.062, 877.117 562.243 C 886.344 556.035, 894.353 547.415, 897.784 540 C 899.183 536.975, 901.176 533.375, 902.213 532 C 905.806 527.235, 914.314 513.481, 916.131 509.500 C 917.611 506.256, 917.960 502.901, 917.978 491.750 L 918 478 938.030 478 C 957.261 478, 958.303 478.102, 964.132 480.555 C 967.471 481.961, 973.645 483.507, 977.851 483.991 C 982.058 484.476, 987.668 485.835, 990.317 487.012 C 993.612 488.477, 998.509 489.410, 1005.817 489.966 C 1013.322 490.538, 1018.136 491.473, 1022 493.110 C 1027.189 495.309, 1028.952 495.461, 1053.162 495.794 L 1078.825 496.148 1086.662 491.926 C 1090.973 489.604, 1096.975 485.832, 1100 483.543 C 1103.025 481.254, 1107.548 478.204, 1110.052 476.765 C 1115.767 473.479, 1134.651 453.990, 1136.828 449.132 C 1138.108 446.275, 1138.460 442.085, 1138.477 429.500 L 1138.500 413.500 1134.309 405.390 C 1126.135 389.570, 1101.352 361.214, 1093 358.124 C 1091.075 357.412, 1086.800 355.645, 1083.500 354.198 C 1077.607 351.614, 1077.034 351.560, 1051.469 351.224 C 1030.276 350.946, 1024.049 351.183, 1017.969 352.499 C 1006.605 354.960, 999.206 355.804, 978.778 356.969 C 964.411 357.789, 958.596 358.534, 953.778 360.171 C 948.335 362.020, 944.593 362.361, 925.641 362.738 L 903.782 363.172 904.141 327.836 C 904.498 292.742, 904.485 292.471, 902.244 288.278 C 901.003 285.955, 899.501 280.560, 898.907 276.289 C 897.134 263.535, 893.103 256.481, 885.471 252.773 C 882.138 251.154, 879.839 248.760, 875.539 242.430 C 872.462 237.900, 868.861 233.484, 867.536 232.616 C 866.211 231.747, 859.415 225.741, 852.433 219.269 C 830.710 199.128, 824.666 193.934, 819.500 190.962 C 816.750 189.380, 811.578 185.611, 808.006 182.586 C 801.742 177.280, 792.623 172, 789.725 172 C 787.440 172, 770.851 163.153, 766.184 159.446 C 763.810 157.560, 759.310 155.275, 756.184 154.368 C 753.058 153.460, 744.672 150.249, 737.548 147.231 C 725.156 141.981, 724.053 141.702, 712.048 140.792 C 703.824 140.169, 697.088 139.042, 692.500 137.522 C 688.650 136.246, 683.374 134.942, 680.775 134.624 C 678.176 134.306, 673.901 132.957, 671.275 131.627 C 667.489 129.710, 664.349 129.091, 656.116 128.638 C 646.174 128.092, 645.442 127.892, 638.937 123.962 C 635.200 121.704, 629.210 118.832, 625.627 117.580 C 616.652 114.444, 614.464 112.792, 610.885 106.450 C 607.451 100.365, 606.357 99.540, 600.429 98.558 C 593.975 97.490, 582.323 87.287, 576.500 77.604 C 575.856 76.533, 573.186 75.589, 569 74.951 C 556.818 73.096, 556.804 73.089, 549.500 65.497 C 541.587 57.270, 536.439 55, 525.701 55 C 519.354 55, 517.141 53.447, 510.154 44.093 C 505.567 37.952, 503.834 37.565, 478.407 37.007 L 455.314 36.500 449.907 33.103 C 442.960 28.739, 437.094 28.111, 431.509 31.134" stroke="none" fill="black" fill-rule="evenodd"/>
  </g>
</svg>