<?xml version="1.0" encoding="iso-8859-1"?>
<!-- Generator: Adobe Illustrator 25.3.0, SVG Export Plug-In . SVG Version: 6.00 Build 0)  -->
<svg version="1.1" id="Calque_1" xmlns="http://www.w3.org/2000/svg" xmlns:xlink="http://www.w3.org/1999/xlink" x="0px" y="0px"
	 viewBox="0 0 84.2 26.4" style="enable-background:new 0 0 84.2 26.4;" xml:space="preserve">
<g>
	<path d="M36.8,1.3c-0.3,1.3-0.5,2.5-0.9,3.7c-0.3,0.8-0.1,1.4,0.5,1.9c1.1,0.8,2.2,1.7,3.7,2c3.4,0.8,6.8,1.7,10.2,2.6
		c1.1,0.3,2,0.2,2.9-0.2c0.3-0.1,0.6-0.3,1-0.5c1.6-0.7,1.8-0.7,2.8,0.6c1,1.3,2.5,1.5,4,1.8c0.2,0,0.5-0.1,0.7-0.2
		c3.4-1.6,7.1-2.4,10.7-3.3c2.9-0.7,5.9-0.5,8.9-0.4c0.9,0,1.9,0.2,2.6,0.9c0.4,0.4,0.3,0.7-0.2,0.9c-0.8,0.3-1.6,0.5-2.3,0.9
		c-0.7,0.3-1.3,0.8-2.2,0.3c-0.1-0.1-0.5,0-0.7,0.1c-3.3,1.2-6.5,2.3-9.5,4c-1.5,0.8-1.7,1.3-1,2.9c0.2,0.5,0.5,0.9,0.7,1.4
		c0.1,0.3,0.2,0.8,0,0.9c-0.2,0.2-0.7,0.2-1,0.1c-0.8-0.3-1.7-0.7-2.4-1.2c-1.1-0.8-2.1-1.8-3.1-2.7c-1-1-3.2-1.4-4.4-0.7
		c-0.3,0.2-0.6,0.4-0.9,0.5c-0.6,0.3-1,0.6-0.6,1.4c0.1,0.1,0.1,0.3,0.1,0.5c0,0.5-0.5,0.9-1,0.7c-0.6-0.2-1.2-0.5-1.7-0.9
		c-1.5-1.1-3.2-1.3-5.1-1.1c-0.4,0-0.7,0.1-1.1,0.1c-0.8-0.1-1.1,0.1-1.3,1c-0.2,0.8-0.8,1.6-1.3,2.3c-0.6,0.9-1.3,0.9-2.1,0.2
		c-0.9-0.7-1.8-1.6-2.7-2.3c-0.3-0.2-0.6-0.4-0.9-0.4c-1.6-0.2-3.2-0.3-4.8-0.4c-2.6-0.1-5.1-0.3-7.7-0.4c-1.9-0.1-3.5,1.5-3.7,3.3
		c-0.1,1.2-0.2,2.5-0.4,3.7c0,0.1,0,0.2,0,0.4c-0.2,0.7-0.7,0.9-1.3,0.4c-1.6-1.3-2.4-3.1-3.1-4.9c-0.4-1.2-0.6-2.5-0.7-3.8
		c-0.1-0.7-0.4-0.9-1-1c-0.9-0.2-1.7-0.4-2.6-0.6c-1.9-0.3-3.8-0.5-5.7-0.7c-0.4-0.1-0.8-0.2-1.2-0.3C5.6,14.2,4,13.6,2.4,13
		c-0.7-0.3-1.3-0.5-1.9-0.9c-0.5-0.3-0.5-0.8-0.1-1.2c0.3-0.3,0.7-0.5,1.1-0.6C5,9.5,8.5,8.5,12.1,7.7C14,7.2,16,7.1,17.9,6.8
		c2.4-0.5,4.9-0.3,7.3-0.3c1,0,1.8-0.3,2.6-1c1.5-1.3,3-2.7,4.7-3.9c0.8-0.6,1.7-1.1,2.7-1.4C36.1-0.3,36.8,0.3,36.8,1.3z"/>
	<path d="M17.2,14.8c-0.4,0-0.7-0.2-0.7-0.6c0-0.5,0-1.1,0.1-1.6c0,0,0,0,0,0c0.3-0.2,0.6-0.7,0.9-0.6c0.5,0.1,1.3,0.4,1.4,0.7
		c0.2,0.7,0.1,1.6-0.9,2C17.7,14.2,17.5,14.8,17.2,14.8z"/>
	<path d="M16.6,12.6c-0.1,0.4-0.2,0.9-0.3,1.3c-0.1,0.2-0.3,0.6-0.3,0.6c-0.4-0.1-0.9-0.2-1.1-0.5c-0.5-1,0.1-2,1.2-2.2
		C16.9,11.5,16.5,12.2,16.6,12.6C16.6,12.6,16.6,12.6,16.6,12.6z"/>
	<path d="M7.9,11.2c0,0.9-0.3,1.1-0.9,1.1c-0.4,0-0.9,0-0.9-0.6c-0.1-0.5,0.7-1.3,1.1-1.1C7.6,10.7,7.8,11,7.9,11.2z"/>
	<path d="M34.1,7c-1.1-0.4-2.2-0.8-3.3-1.1c-0.3-0.1-0.7-0.2-1-0.3c0.3-0.1,0.7-0.2,1-0.2c1.3,0.1,2.6,0.4,3.5,1.4
		C34.2,6.8,34.2,6.9,34.1,7z"/>
	<path d="M67.7,15.1c-1,0.7-2,1.3-3.2,1.4l0,0C65.4,15.8,66.4,15.1,67.7,15.1L67.7,15.1z"/>
	<path d="M21.9,15c-0.2,0.4-0.4,0.7-0.6,1c-0.2-0.2-0.5-0.5-0.7-0.7c0.2-0.2,0.4-0.4,0.7-0.5C21.5,14.7,21.7,14.9,21.9,15z"/>
	<path d="M67.7,15.1c0.5-0.2,1-0.4,1.5-0.6c0,0,0.1,0.1,0.1,0.1C68.8,14.7,68.2,14.9,67.7,15.1L67.7,15.1z"/>
</g>
</svg>
