<?xml version="1.0" encoding="iso-8859-1"?>
<!-- Generator: Adobe Illustrator 25.3.0, SVG Export Plug-In . SVG Version: 6.00 Build 0)  -->
<svg version="1.1" id="Calque_1" xmlns="http://www.w3.org/2000/svg" xmlns:xlink="http://www.w3.org/1999/xlink" x="0px" y="0px"
	 viewBox="0 0 85.3 42" style="enable-background:new 0 0 85.3 42;" xml:space="preserve">
<g>
	<path d="M40.4,15.5c0.5,0.2,1.1,0.5,0.8,1.1c-0.2,0.5-0.9,0.8-1.5,0.6c-0.6-0.2-1.1-0.4-1.7-0.6c-0.8-0.4-1.6-0.9-2.4-1.2
		c-0.9-0.3-1.4-1.4-2.7-1c-0.9,0.3-1.9,0.3-2.8,0.3c-1.2,0.1-2.4,0.1-3.6,0.2c-0.1,0-0.2,0.1-0.3,0.1c0.1,0.1,0.1,0.3,0.2,0.3
		c1.8,0.8,1.5,2,0.8,3.3c-0.2,0.4-0.3,0.8-0.4,1.2c-0.3,0.6-0.8,0.6-1.2,0.2c-0.4-0.5-0.8-1-1.1-1.6c-0.3-0.8-0.6-1.6-0.8-2.4
		c-0.1-0.6-0.5-0.8-1-0.8c-0.8,0-1.6,0-2.3,0c-1.4-0.1-2.8-0.2-4.3-0.3c-0.7-0.1-1,0.1-0.7,0.9c0.3,0.9,0,2,0.6,2.9
		c0.2,0.4-0.2,0.9-0.7,0.7c-0.6-0.3-1.3-0.5-1.9-1c-1.1-0.9-1.9-1.9-2.5-3.2c-0.4-0.8-1.3-1.2-1.9-1C7.8,14.7,6.7,14,5.4,14
		c-1.1,0-2.2-0.2-3.4-0.3c-1.6-0.1-2.3-1.1-2-2.6c0-0.1,0.3-0.2,0.4-0.3c0.9,0.2,1.8,0.3,2.7,0.8c1.2,0.7,2.2,0.2,3.1-0.8
		c0.8-0.9,1.5-0.7,1.8,0.3c0.1,0.2-0.2,0.5,0.1,0.6c0.1,0,0.2-0.4,0.3-0.6c0.2-0.7-0.2-1.4-0.4-2.1C7.9,7.9,8.5,7.4,9.6,7.7
		c4.8,1.6,9.7,1.9,14.7,1.8c5.1-0.1,10.2,0.5,15.3,0.7c0.2,0,0.5,0,0.7,0c-0.2,0-0.4,0-0.7,0c-2-0.3-3.9-0.1-5.9-0.3
		C30.4,9.5,27,9.2,23.7,8.3c-3.8-1-7.5-1.1-11.4-0.6c-1,0.1-2,0-3,0C8,7.8,6.7,8.7,5.5,9.3C5.4,9.4,5.2,9.5,5.1,9.6
		c-1.3,0.6-2.4,2-4,0.6C1.5,9,2.6,8.7,3.6,8.4c3.2-1.2,6.5-2.1,10-2.2c1.4,0,2.8-0.2,4.3-0.3c0.4,0,0.7,0,1.1,0
		c1.4,0.2,1.4,0.2,1.9-1.2C21.3,3.4,21.6,2,22.6,1c1-1,2.2-1.3,3.4-0.7c2.1,1,3.5,2.8,4.9,4.6c0.4,0.6,0.2,1.1-0.5,1.4
		c-0.6,0.3-1.2,0.5-1.8,0.7c-0.2,0.1-0.4,0.2-0.6,0.4c0.3,0.1,0.5,0.4,0.8,0.4c0.9,0.2,1.9,0.3,2.8,0.4c2.2,0.3,4.4,0.6,6.6,0.7
		c2.6,0.2,5.2,0.1,7.8-0.9c1.4-0.5,2.9-0.8,4.3-1.2c0.4-0.1,0.8-0.1,1.2-0.1c0.3,0,0.5,0.2,0.8,0.3c-0.1,0.3-0.2,0.6-0.4,0.8
		c-0.8,0.9-1.5,1.8-2.3,2.7c-0.5,0.6-0.5,0.8,0.1,1.2c0.6,0.4,1,0.7,1.8,0c1.1-1,2.5-1.8,3.9-2.6c1-0.6,1.5-0.3,1.3,0.9
		c-0.1,0.9-0.5,1.8-0.9,2.7c-1.5,3.3-1.4,3.8,1.8,5.4c2.7,1.3,5.5,2.7,8.2,4c0.6,0.3,1.2,0.7,1.5,1.2c0.4,0.6,0.9,0.6,1.4,0.5
		c1.7-0.2,3.4-0.4,5.1-0.8c2.2-0.5,4.2-1.6,6.2-2.8c1.2-0.8,2.5-1.3,3.9-1.6c0.3-0.1,0.7-0.1,1.1,0c0.1,0,0.4,0.1,0.4,0.3
		c0,0.1-0.1,0.4-0.2,0.4c-2.2,1.7-3.3,4.1-4.8,6.3c-0.8,1.1-0.5,2.1,0.3,3c1,1.1,1.9,2.3,2.8,3.5c0.5,0.6,1,1.2,1.4,1.8
		c0.3,0.5,0.2,0.8-0.4,0.8c-1.5,0.1-2.9-0.6-4.3-1.2c-2-0.9-4-1.8-6.2-2.2c-1.1-0.2-2.3-0.2-3.4-0.2c-0.5,0-0.3,0.3-0.2,0.6
		c0.3,1.8,0.9,3.4,1.9,4.9c0.3,0.5,0.5,1.1,0.7,1.6c0.1,0.4-0.1,0.7-0.6,0.6c-0.7-0.2-1.5-0.4-2.2-0.8c-2.3-1.3-4.7-2.3-6.7-4
		c-0.8-0.7-1.6-0.4-2.4-0.4c-1.8,0.2-3.7,0.5-5.5,0.7c-0.2,0-0.3,0.1-0.5,0.2C55,34.8,55,35,55.1,35c1.1,0.8,1.3,1.9,1.4,3.1
		c0.1,0.8,0.1,1.7,0,2.5c-0.1,1.2-0.8,1.6-1.9,1c-1.4-0.8-2.4-1.9-3.4-3.1c-0.8-1-1.6-2-2.5-3c-0.2-0.2-0.5-0.3-0.8-0.3
		c-0.5-0.1-1.1,0-1.6,0c-0.7,0-1.4,0.1-2.1,0.1c0.1,0.7,0.3,1.3,0.4,2c0.1,0.3,0.1,0.6,0.1,0.9c0,1.6-0.9,2.2-2.3,1.4
		c-1.7-1-3.1-2.3-4-4c-0.4-0.7-0.8-1.1-1.6-1.2c-1.1-0.2-2.2-0.4-3.3-0.6c-2-0.3-4-0.5-6-0.8c-1.3-0.2-1.9-1.3-2.5-2.3
		c-0.1-0.2,0.1-0.7,0.3-1c1.3-1.9,2.6-3.8,4.6-5.1c1.5-0.9,2.8-2,4.1-3.1c2-1.6,4.3-2.6,6.7-3.2c1.7-0.4,3.5-0.7,5.2-1.1
		c1.1-0.3,1.4-1.3,2-2.1c0,0-0.2-0.4-0.4-0.4c-1-0.3-1.9-0.5-2.9-0.8c-1.7-0.4-3.4-0.6-5.1-0.5c-0.1,0-0.2,0-0.3,0.1
		c0.1,0.1,0.1,0.3,0.2,0.4C39.7,14.4,40.5,14.6,40.4,15.5C39.6,16,39,15.4,38.5,15c-0.3-0.2-0.5-0.4-0.9-0.4
		c0.3,0.2,0.6,0.4,0.9,0.5C39.1,15.4,39.6,16,40.4,15.5z"/>
	<path d="M4.7,8.7c0.2,0,0.5,0,0.7,0.1c0.5,0.2,0.8,0.5,0.7,1.1c-0.1,0.5-0.6,0.8-1.2,0.7c-0.7-0.1-1-0.6-0.6-1.2
		C4.4,9.1,4.5,8.9,4.7,8.7L4.7,8.7z"/>
</g>
</svg>
