<?xml version="1.0" encoding="iso-8859-1"?>
<!-- Generator: Adobe Illustrator 25.3.0, SVG Export Plug-In . SVG Version: 6.00 Build 0)  -->
<svg version="1.1" id="Calque_1" xmlns="http://www.w3.org/2000/svg" xmlns:xlink="http://www.w3.org/1999/xlink" x="0px" y="0px"
	 viewBox="0 0 59.5 45.9" style="enable-background:new 0 0 59.5 45.9;" xml:space="preserve">
<g>
	<path d="M48.5,41c1.3,1.1,2.8,1.9,4.4,2.6c1.1,0.5,2.1,1.1,3.2,1.6c0.1,0.1,0.2,0.3,0.2,0.4c-0.2,0-0.4,0.1-0.6,0.1
		c-0.4-0.1-0.8-0.3-1.1-0.5c-0.5-0.3-1-0.5-1.2,0.4c0,0.1-0.4,0.2-0.5,0.1c-0.5-0.2-1.1-0.6-1.5,0.2c0,0-0.5-0.2-0.7-0.3
		c-0.3-0.1-0.7-0.3-0.8-0.2c-0.9,1-1.4,0.1-2-0.4c-1.5-1.2-3-2.3-4.6-3.4c-0.1-0.1-0.3,0-0.5-0.1c0.1,0.1,0.1,0.3,0.2,0.4
		c0.8,0.8,1.6,1.6,2.4,2.4c0.1,0.1,0.1,0.3,0.2,0.4c-0.2,0-0.4,0.1-0.5,0c-3-1.9-5.5-4.2-7.4-7.3c-0.5-0.8-0.7-0.8-1.2-0.1
		c-2.2,3.2-5.2,4.2-8.9,4c-2.8-0.2-5.3-1.3-7.8-2.3c-1.5-0.6-3.1-1.3-4.6-2.1c-0.6-0.3-1.2-0.3-1.7,0.1c-0.3,0.2-0.7,0.1-1,0.3
		c-0.6,0.4-0.6-0.2-0.9-0.4c-0.3-0.3-0.5-0.1-0.6,0.2c-0.1,0.2-0.2,0.5-0.3,0.7c-0.2-0.2-0.4-0.4-0.5-0.7c-0.4-0.8-0.9-1.1-1.9-0.9
		c-0.2,0-0.6,0.1-0.6,0c-0.8-1.3-1-0.3-1.3,0.3c0,0.1-0.2,0.1-0.3,0.2c0-1-1.3-0.4-1.6-1.1c-0.1-0.2-0.2-0.4-0.2-0.6
		c-0.1,0.2-0.3,0.3-0.4,0.5c-0.1,0.1-0.1,0.3-0.2,0.5c0,0.1-0.2,0.1-0.3,0.1c-0.1,0-0.2-0.2-0.2-0.2c0.2-0.5,0.1-1-0.3-1.4
		c-0.2-0.2-0.2-0.8,0-1c0.5-0.6,0.5-1.1,0.3-1.8c-0.1-0.3,0.2-0.6,0.6-0.4C4,31.6,4.2,31.8,4.5,32c0.1,0.1,0.4,0.3,0.4,0.2
		c0.4-0.2,0.7-0.9,1.4-0.1c0.2,0.3,1.1,0.1,1.7,0.1c0.1,0,0.2,0,0.3,0c0-0.1-0.1-0.3-0.1-0.4c-0.4-0.8-0.8-1.5-1.1-2.3
		c-0.2-0.5-1.1-0.3-1-1c0.1-0.6-0.3-0.9-0.6-1.4c-0.3-0.7-0.8-1.5-0.3-2.4c0.1-0.1,0-0.4-0.1-0.4c-0.1-0.1-0.4-0.1-0.5,0
		c-0.4,0.2-0.8,0.5-1.2,0.7c-0.8,0.5-1.8,0.7-2.7,0.6c-0.2,0-0.4-0.2-0.6-0.3c0.1-0.2,0.2-0.4,0.4-0.5c0.2-0.1,0.4-0.2,0.6-0.3
		c0.8-0.3,1.7-0.5,2.5-0.9c2.4-1.4,5-2.5,7.6-3.6c0.3-0.1,0.8-0.4,0.8-0.6c0.1-1.1,0.8-0.9,1.5-0.7c0.2,0.1,0.6-0.2,0.8-0.2
		c0.7-0.1,1.3-0.1,1.9-0.8c0.8-0.9,0.8,0.9,1.6,0.7c1.7-0.5,3.1,0.9,4.7,0.9c0.9,0,1.7,0.2,2.6,0.4c0.6,0.1,1.6-0.3,1.5,1
		c0,0.1,0.3,0.2,0.4,0.2c0.2-0.1,0.4-0.3,0.4-0.4c0.5-2,1-4,1.5-6c0.1-0.5,0.4-1,0.4-1.5c0-1.5,1.2-2.3,1.9-3.4
		c0.2-0.4,0.9,0.3,1-0.4c0.1-0.4,0.2-0.7,0.7-0.5c0.1,0,0.4-0.2,0.4-0.4c0.3-1.2,1.7-1.6,2.3-2.5C35.8,5.7,36,5.8,36.1,6
		c0.1,0.1,0,0.3,0,0.5c0.1-0.1,0.3-0.1,0.4-0.3c0.4-0.8,0.8-1.6,1.3-2.4c0.2-0.4,0.4-1.2,1.1-0.4c0,0,0.3-0.2,0.4-0.3
		c0.4-0.6,0.9-1.3,1.3-1.9c0-0.1,0.2-0.1,0.3-0.1C40.9,1.2,41,1.4,41,1.5c-0.2,0.4-0.4,0.9-0.6,1.3c-0.8,1.4-1.7,2.9-2.5,4.3
		c-0.1,0.1,0,0.3,0,0.5c0.1-0.1,0.3-0.2,0.4-0.3C39.7,5.1,41,3,42.4,1c0.2-0.3,0.4-0.6,0.7-0.8C43.1,0,43.2,0,43.3,0
		c0,0.2,0.1,0.3,0.1,0.5C43.3,0.7,43.2,1,43,1.2c-2.9,3.8-5,8.1-7.1,12.4c-0.2,0.5-0.4,1-0.6,1.5c0,0.1,0.1,0.2,0.1,0.3
		c0.1-0.1,0.2-0.1,0.3-0.2c0.2-0.3,0.4-0.6,0.5-0.9c1.9-3.8,4.1-7.4,6.5-10.8c0.8-1.1,1.6-2.2,2.4-3.3c0.1-0.1,0.2-0.1,0.3-0.1
		c0.1,0.2,0.2,0.3,0.2,0.5c-0.1,0.2-0.2,0.4-0.3,0.6c-1.3,1.8-2.7,3.5-3.9,5.3c-1.3,2-2.3,4.1-3.5,6.2c-0.1,0.2,0,0.4,0,0.6
		c0.1-0.1,0.3-0.2,0.4-0.4c1.5-2.2,2.8-4.4,4.4-6.5c1.4-1.9,2.9-3.7,4.4-5.6c0.1-0.1,0.3-0.1,0.5-0.2c0,0.2,0.1,0.5,0,0.6
		c-1.6,1.9-3.3,3.8-4.7,5.8c-1.8,2.6-3.3,5.3-5,8c-0.1,0.2,0,0.4-0.1,0.6c0.1-0.1,0.3-0.2,0.4-0.3c2.1-2.9,4.2-5.8,6.3-8.6
		C45.7,5.4,47,4,48.2,2.6c0.1-0.1,0.4,0,0.6-0.1c0,0.2,0,0.4,0,0.5c-0.8,1-1.6,1.9-2.4,2.9c-1.6,2.1-3.2,4.1-4.8,6.2
		c-0.1,0.1,0,0.3,0,0.5c0.1-0.1,0.3-0.1,0.4-0.3c0.8-0.9,1.5-1.9,2.3-2.7c1.8-2,3.7-3.9,5.6-5.8c0.1-0.1,0.3-0.1,0.4-0.1
		c0,0.2,0,0.4-0.1,0.5c-0.3,0.4-0.7,0.8-1.1,1.2C47,7.3,45,9.4,43.3,11.9c-0.5,0.8-1.5,1.2-1.7,2.3c-0.2,0.2-0.3,0.5-0.5,0.7
		c0.2-0.2,0.3-0.5,0.5-0.7c1.2-1.2,2.4-2.3,3.6-3.5c1.4-1.4,2.7-2.9,4.1-4.3c0.5-0.5,1.1-0.9,1.7-1.3c0.1,0,0.2,0,0.3,0.1
		c0.1,0.1,0.1,0.2,0,0.3c-0.3,0.4-0.6,0.7-1,1c-1.6,1.6-3.2,3.2-4.8,4.8c-0.1,0.1-0.1,0.3-0.1,0.5c0.1-0.1,0.3-0.1,0.4-0.2
		c1.7-1.4,3.3-2.9,5-4.3c0.1-0.1,0.3,0,0.4-0.1c0,0.2,0,0.4-0.1,0.5c-1.1,1-2.1,2.1-3.2,3.1c-0.9,0.8-1.8,1.6-2.6,2.4
		c-0.1,0.1-0.1,0.3-0.2,0.4c0.2,0,0.3,0,0.5-0.1c1-0.9,2.1-1.8,3.1-2.7c0.6-0.5,1.4-1,2.1-1.4c0.1-0.1,0.3,0,0.5-0.1
		c0,0.2,0,0.5-0.1,0.6c-0.9,0.7-1.8,1.4-2.7,2.1c-0.5,0.4-1,0.9-1.5,1.3c-0.1,0.1,0,0.2,0,0.3c0.1,0,0.2,0,0.3,0
		c0.6-0.4,1.2-0.9,1.9-1.4c0.3-0.2,0.7-0.4,1.1-0.6c0.2-0.1,0.4,0.1,0.6,0.1c-0.1,0.1-0.2,0.3-0.3,0.4c-1.1,0.8-2.2,1.5-3.2,2.3
		c-0.6,0.5-1.2,1.2-1.8,1.7c-0.1,0.1-0.2,0.1-0.3,0.2c-0.2,0.1-0.4,0.3-0.6,0.4c0.1-0.1,0.3-0.2,0.4-0.3c0.1-0.1,0.3-0.2,0.4-0.3
		c1.1-0.7,2.1-1.3,3.2-1.9c0.4-0.2,0.8-0.3,1.3-0.5c0.2,0.7-0.5,0.8-0.9,1.1c-1.1,0.8-2.1,1.5-3.2,2.3c-0.1,0.1-0.1,0.2-0.2,0.3
		c0.2,0,0.4,0.1,0.5,0c0.6-0.3,1.1-0.8,1.6-1.1c0.2-0.1,0.5,0,0.8,0c-0.1,0.2-0.2,0.5-0.4,0.6c-1.1,0.8-2.3,1.5-3.4,2.3
		c-0.1,0.1-0.1,0.2-0.2,0.3c0.2,0,0.3,0.1,0.4,0.1c0.4-0.2,0.9-0.4,1.3-0.5c0.1,0,0.4,0.1,0.4,0.2c0,0.1-0.1,0.4-0.2,0.4
		c-0.5,0.3-1.1,0.5-1.6,0.8c-0.6,0.3-0.6,0.6,0.1,0.7c0,0,0,0.4-0.1,0.5c-0.4,0.2-0.8,0.3-1.1,0.5c-0.3,0.2-0.5,0.5-0.6,0.8
		c-0.1,0.3-0.1,0.7-0.1,1c0.3,0,0.7,0,1,0c1.4-0.4,2.8-0.7,4.1-1.1c0.9-0.3,1.7-0.3,2.5,0.3c0.8,0.5,1.7,0.9,2.5,1.3
		c0.5,0.2,1.1,0.3,0.8,1.1c0,0.1,0.1,0.3,0.3,0.4c0.6,0.5,1.2,1.2,1.9,1.3c1.1,0.2,0.8,0.9,0.9,1.5c0.2,1.5-0.1,2.7-1.5,3.6
		c-0.4,0.2-1.1,0.3-0.7,1c-0.6,0.3-1,1-1.9,0.9c-1.1-0.1-2.3,0-3.4,0C49.8,34,49.5,34,49.3,34c-0.2,0-0.5,0-0.7,0
		c0.2,0.1,0.5,0,0.7,0c0.2,0,0.5,0,0.7,0.2c0,0.3,0.1,0.8,0.1,0.8c1,0.1,1.3,1.4,2.4,1.4c0.2,0,0.5,0.2,0.6,0.4
		c0.2,0.6,0.5,1,1.2,1.1c0.2,0,0.4,0.3,0.4,0.5c0.1,0.6,0.5,0.8,1,0.9c0.3,0.1,0.6,0.3,0.7,0.5c0.2,0.8,0.8,1.1,1.5,1.3
		c0.1,0,0.2,0.3,0.3,0.5c-0.2,0-0.3,0.1-0.5,0.1c-1.1-0.3-2.3-0.6-3.4-1c-0.2-0.1-0.4-0.2-0.7-0.3c-0.2,0-0.3,0-0.5,0
		c0.1,0.1,0.2,0.2,0.3,0.3c1.5,0.7,3.1,1.3,4.6,1.9c0.4,0.2,0.8,0.3,1.2,0.4c0.1,0.1,0.2,0.2,0.3,0.3c-0.2,0-0.4,0.1-0.5,0.1
		c-2.7-1-5.4-1.9-8.1-2.9c-0.1,0-0.2-0.1-0.3-0.2c-0.2,0-0.3,0-0.5,0.1c0.1,0.1,0.2,0.3,0.4,0.4c0.7,0.4,1.4,0.7,2.1,1.1
		c1.8,0.8,3.6,1.7,5.4,2.5c0.3,0.1,0.5,0.3,0.8,0.4c0.1,0,0.1,0.2,0.1,0.3c0,0.1-0.2,0.2-0.3,0.1c-0.3-0.1-0.6-0.1-0.8-0.3
		c-2.5-1.2-5-2.3-7.4-3.5C49.7,41.2,49.1,41.1,48.5,41c-0.1-0.1-0.3-0.2-0.4-0.3c-0.1-0.1-0.2-0.1-0.3-0.2c0.1,0.1,0.2,0.1,0.3,0.2
		C48.2,40.8,48.4,40.8,48.5,41z"/>
	<path d="M23.7,28.6c-0.1-0.2-0.2-0.9-0.6-1.4c-0.4-0.6-0.9-0.8-1.7-0.5c-0.4,0.2-1.2,0.7-1.4,0.1c-0.2-0.7,0.7-0.6,1.2-0.9
		c1-0.5,1.9-1.1,2.8-1.5c1.2-0.5,2.4-0.7,3.7-0.1c0.1,0,0.1,0.1,0.2,0.1c1,0.2,1.9,0.6,2.3,1.7c0.5,1.2,1,2.4,0.4,3.8
		c-0.2,0.5-0.3,1.1-0.4,1.7c-0.3,1.9-0.9,2.4-2.7,1.8c-1.9-0.6-3.8-1.3-5.4-2.6c-0.5-0.4-1.1-0.4-1.7-0.1c-0.1,0.1-0.5-0.1-0.5-0.2
		c0-0.2,0-0.5,0.2-0.6c0.4-0.3,0.9-0.6,1.5-0.3c0.3,0.1,0.5,0.3,0.8,0.4C23.5,30.4,23.7,30.3,23.7,28.6z"/>
	<path d="M7.3,24.6c-0.3-0.5,0-0.9,0.4-1.2c0.7-0.5,1.5-1,2.3-1.3c0.4-0.2,0.9,0,1.4,0.1c0.1,0,0.3,0.4,0.3,0.6
		c0,0.1-0.2,0.3-0.4,0.3c-0.4,0.1-0.7,0-1.1,0.1c-0.5,0.2-1.1,0.4-1.5,0.8c-0.8,0.8-0.6,1.6,0.3,2.2c0.7,0.4,1.4,0.6,2.1,0.9
		c0.2,0.1,0.4,0.3,0.4,0.4c0,0.2-0.2,0.5-0.4,0.6c-1.4,0.4-3.9-1.6-3.9-3C7.2,24.8,7.3,24.7,7.3,24.6z"/>
	<path d="M29.2,22.7c0.2,0.1,0.4,0.1,0.5,0.2c0.7,0.8,1.9,1,2.6,1.9c0.4,0.5,1.1,0.8,1.7,1c0.4,0.1,0.7,0.1,0.5,0.6
		c-0.1,0.2-0.5,0.4-0.8,0.5c-0.2,0-0.4-0.2-0.6-0.3c-1.4-0.9-2.8-1.9-4.2-2.9c-0.1-0.1-0.2-0.4-0.1-0.6
		C28.8,22.9,29.1,22.8,29.2,22.7z"/>
	<path d="M20.1,31.2c0.1,0.4,0.2,0.6,0.3,0.8c0.4,1,0.8,2.1,1.2,3.1c0,0.1,0,0.4-0.1,0.5c-0.2,0-0.5,0.1-0.6,0
		c-0.9-1-1.3-2.2-1.6-3.5C19.4,32,19.7,31.8,20.1,31.2z"/>
	<path d="M27.9,37.2c0,0,0.4,0.1,0.4,0.3c0.1,0.6-0.5,0.8-1,0.8c-0.5,0.1-0.8-0.3-0.8-0.8C26.6,36.8,27.2,37.2,27.9,37.2z"/>
	<path d="M9.8,24.1c0.4-0.3,0.7-0.6,0.9-0.6c0.2,0,0.4,0.4,0.7,0.6c-0.2,0.2-0.5,0.5-0.7,0.5C10.4,24.8,10.2,24.4,9.8,24.1z"/>
	<path d="M29.5,36.3c0.2,0.3,0.3,0.5,0.3,0.6c0,0.4-0.2,0.8-0.7,0.8c-0.1,0-0.3-0.3-0.3-0.3C28.9,37,29.2,36.7,29.5,36.3z"/>
	<path d="M26.3,37.7c-0.2,0.2-0.4,0.4-0.6,0.6c-0.1-0.1-0.3-0.3-0.2-0.4c0.1-0.2,0.3-0.4,0.5-0.7C26.1,37.3,26.1,37.5,26.3,37.7z"/>
</g>
</svg>
