<svg xmlns="http://www.w3.org/2000/svg" viewBox="0 0 800 180" width="800" height="180">
  <g transform="scale(0.6666666666666666, 0.6666666666666666)">
    <path d="M 631 21.638 C 629.625 21.824, 619.237 22.378, 607.915 22.868 C 582.314 23.978, 580.719 24.527, 572.894 34.934 L 567.500 42.108 542.500 41.549 C 495.745 40.502, 454.504 39.148, 453 38.610 C 450.536 37.730, 304.582 33.830, 290.500 34.268 C 254.718 35.382, 230.625 37.177, 225.767 39.092 C 222.090 40.541, 218.400 41, 210.423 41 C 198.629 41, 194.949 42.249, 189.326 48.162 C 185.709 51.964, 165.979 79.486, 162.748 85.235 C 159.543 90.938, 157.793 91.338, 120 95.010 C 104.887 96.478, 101.464 98.402, 85.439 114.434 C 73.098 126.781, 71.695 127.858, 59.964 134 C 43.166 142.796, 39.345 146.017, 32.443 157.202 C 29.288 162.316, 24.777 168.975, 22.419 172 L 18.132 177.500 17.816 193.586 L 17.500 209.673 21.319 215.424 C 32.247 231.884, 47.789 240.105, 83.053 248.079 C 97.480 251.341, 97.542 251.346, 127 251.488 C 159.186 251.642, 177.913 253.292, 212 258.973 C 248.419 265.043, 254.358 265.503, 296 265.468 C 335.657 265.436, 362.666 264.035, 402.500 259.943 C 412.950 258.869, 438.600 256.405, 459.500 254.465 C 480.400 252.526, 503.505 250.278, 510.845 249.470 C 518.185 248.661, 531.583 248, 540.618 248 L 557.045 248 561.272 251.834 C 563.598 253.943, 567.975 257.606, 571 259.973 L 576.500 264.278 595.500 263.512 C 605.950 263.091, 640.375 262.328, 672 261.817 C 703.625 261.306, 742.318 260.674, 757.985 260.413 C 783.487 259.988, 786.802 260.117, 789.635 261.642 C 792.608 263.243, 793.242 263.245, 800.149 261.664 C 804.789 260.603, 815.982 259.615, 830.500 258.987 C 843.150 258.439, 857.775 257.330, 863 256.522 C 868.225 255.713, 882.400 254.596, 894.500 254.039 C 919.510 252.888, 926.793 252.348, 936 250.963 C 939.575 250.425, 948.800 249.573, 956.500 249.068 C 964.875 248.520, 972.308 247.484, 975 246.491 C 977.870 245.432, 985.115 244.501, 995 243.920 C 1003.525 243.420, 1013.650 242.351, 1017.500 241.546 C 1021.350 240.741, 1033.050 238.906, 1043.500 237.468 C 1063.525 234.714, 1071.657 233.015, 1076.582 230.559 C 1078.228 229.738, 1084.058 228.390, 1089.537 227.564 C 1095.017 226.738, 1102.841 224.923, 1106.925 223.531 C 1111.009 222.139, 1115.876 221, 1117.741 221 C 1123.462 221, 1126.956 218.448, 1126.985 214.250 C 1127 212.019, 1127.123 212, 1141.790 212 C 1168.421 212, 1178.459 206.553, 1187.043 187.443 C 1188.759 183.624, 1191.138 178.475, 1192.331 176 C 1195.862 168.675, 1195.493 145.647, 1191.658 134 C 1185.485 115.250, 1181.643 109.637, 1170.034 102.405 L 1164.567 99 1146.784 99 L 1129 99 1129 95.901 C 1129 88.826, 1122.705 81.466, 1112 76.024 C 1104.218 72.068, 1075.103 60.661, 1065 57.610 C 1045.638 51.763, 968.574 40.019, 949.250 39.971 C 942.787 39.955, 925.125 39.020, 910 37.894 C 894.875 36.769, 872.150 35.476, 859.500 35.023 C 836.184 34.188, 812.458 32.102, 797 29.528 C 792.325 28.750, 781.161 27.626, 772.191 27.031 C 762.219 26.370, 754.253 25.331, 751.691 24.359 C 745.660 22.071, 644.632 19.793, 631 21.638" stroke="none" fill="black" fill-rule="evenodd"/>
  </g>
</svg>