<?xml version="1.0" encoding="iso-8859-1"?>
<!-- Generator: Adobe Illustrator 25.3.0, SVG Export Plug-In . SVG Version: 6.00 Build 0)  -->
<svg version="1.1" id="Calque_1" xmlns="http://www.w3.org/2000/svg" xmlns:xlink="http://www.w3.org/1999/xlink" x="0px" y="0px"
	 viewBox="0 0 89.3 19" style="enable-background:new 0 0 89.3 19;" xml:space="preserve">
<g>
	<path d="M79.9,14.1c0,0.3,0,1-0.2,1.7c-0.3,1.1-0.8,1.3-1.8,0.9c-2.7-1.1-5.4-2.3-8-3.5c-0.9-0.4-1.7-0.4-2.6-0.4
		c-0.9,0-1.9,0.2-2.8,0.3c-1,0.1-2.1,0-2.4,1.3c0,0.2-0.4,0.3-0.5,0.4c-0.9,0.7-1.8,1.4-2.6,2.2c-0.8,0.7-1.5,0.9-2.4,0.4
		c-1-0.6-2-1.1-2.9-1.6c-0.3-0.2-0.8-0.5-1.1-0.4c-2.8,0.4-5.7,0.5-8.5,0.7c-2,0.2-4.1,0.2-6.1,0.2c-2,0-3.9-0.1-5.9-0.3
		c-1.6-0.2-2.6,0.5-3.5,1.6c-1.7,2-2,2-3.9,0.2c-0.2-0.2-0.3-0.3-0.5-0.5c-0.7-0.7-1.2-1.7-2.1-2.1c-0.8-0.4-1.9,0-2.8-0.2
		c-2.5-0.5-5-0.7-7.5-0.7c-1.1,0-2.3-0.6-3.4-0.9c-1.3-0.3-2.5-1-3.9-1.2C3.1,11.7,2,11.2,1,10.7C-0.3,10.1-0.3,9,0.8,8.5
		c1.1-0.5,2.2-0.9,3.4-1.2c2.5-0.5,5-1,7.5-1.4c2.6-0.4,5.2-0.6,7.8-0.8c2-0.2,3.9-0.3,5.9-0.5C27.9,4.3,30,3,32.1,1.8
		c1.2-0.6,2.4-1.1,3.6-1.7c0.5-0.2,1-0.2,1.4,0.3c0.7,0.7,1.3,1.4,2.1,1.9c1.4,0.9,2.8,1.8,4.2,2.6c0.2,0.1,0.5,0.2,0.7,0.2
		c1.8,0.1,3.6,0.2,5.4,0.4c3,0.4,6.1,0.4,9.1,0.4c0.9,0,1.8-0.1,2.6-0.6c0.6-0.4,1.3-0.7,1.8-1.2c0.6-0.7,1.4,0.1,2-0.3
		c0.7-0.5,1.2-0.3,1.7,0.3c0.3,0.4,0.7,0.7,0.9,1.1c0.8,1.5,2.3,1.7,3.8,2.1c0.3,0.1,0.7-0.1,1-0.2c2.9-1.3,5.7-2.7,8.4-4.4
		c1.4-0.9,2.9-1.7,4.5-2.3c0.8-0.3,1.9-0.3,2.8-0.2c0.9,0,1.3,0.5,1.1,1.4c-0.2,0.9-0.6,1.7-1,2.6c-0.4,0.9-1,1.7-1.5,2.6
		c-0.4,0.9-0.9,1.7-2.1,1.3c-0.2-0.1-0.7,0-0.8,0.2C83,9.2,82,9.7,80.9,10.3C79.6,11.1,79.8,12.4,79.9,14.1z"/>
	<path d="M17.8,13.2c-0.2-0.1-0.3-0.1-0.3-0.2c-0.8-0.6-0.2-2.2,0.4-2.6c0.1,0,0.2-0.1,0.3,0c0.1,0.1,0.1,0.2,0.1,0.3
		c0,0.2-0.1,0.4-0.2,0.5c-0.5,0.5-0.6,1-0.2,1.6C17.9,12.9,17.8,13.1,17.8,13.2z"/>
	<path d="M10,7.3c0.1,0,0.2,0,0.3,0c0.3,0.1,0.8,0.2,1,0.4c0.2,0.3-0.5,0.7-1,0.6C9.7,8.2,9.7,7.7,10,7.3L10,7.3z"/>
</g>
</svg>
