<?xml version="1.0" encoding="iso-8859-1"?>
<!-- Generator: Adobe Illustrator 25.3.0, SVG Export Plug-In . SVG Version: 6.00 Build 0)  -->
<svg version="1.1" id="Calque_1" xmlns="http://www.w3.org/2000/svg" xmlns:xlink="http://www.w3.org/1999/xlink" x="0px" y="0px"
	 viewBox="0 0 81.6 27.4" style="enable-background:new 0 0 81.6 27.4;" xml:space="preserve">
<g>
	<path d="M23.7,1.9c0.5,0,1,0,1.4,0c0.8,0.1,1.5-0.1,2.1-0.8c0.6-0.7,1.4-0.8,2.2-0.9c1.2-0.1,2.4-0.3,3.6,0
		c2.2,0.5,4.4,0.2,6.6,0.3c2.1,0.1,4.1,0.4,6.2,0.6c0.8,0.1,1.7,0,2.5,0.1c3.4,0.3,6.8,0.6,10.1,1.8c2.6,0.9,4.6,2.5,6.3,4.5
		c0.1,0.1,0.2,0.3,0.3,0.4c0.8,1.3,0.5,1.8-1,1.9c-0.8,0.1-1.6-0.2-2.2,0.5c-0.1,0.1-0.3,0.4-0.2,0.4c0.1,0.2,0.3,0.3,0.5,0.3
		c1.8,0.2,3.4-0.4,5-1.2c2.9-1.5,6-2.2,9.3-2c0.7,0,1.4,0.2,2.1,0.4c2.2,0.6,3.3,2.2,2.8,4.4c-0.3,1.2-0.3,2.3,0,3.5
		c0.4,1.8-0.9,3.7-2.7,4.3c-1.5,0.5-3,0.5-4.6,0.1c-2.6-0.5-5.1-1.2-7.4-2.4c-1.4-0.7-2.9-0.6-4.4-0.5c-0.2,0-0.5,0.3-0.6,0.5
		c-0.1,0.1,0.1,0.5,0.3,0.6c0.6,0.2,1.2,0.4,1.9,0.6c0.6,0.2,0.6,0.5,0.3,1c-0.9,1.5-2.3,2.3-3.7,3c-2.2,1.2-4.7,1.7-7.2,2.1
		c-2,0.3-4.1,0.1-6.1,0.4c-2.5,0.4-4.9,0.1-7.3,0.3c-1.3,0.1-2.5-0.3-3.5-1c-0.8-0.6-1.6-0.8-2.6-0.6c-1.5,0.3-3.1,0.1-4.7,0.1
		c-1.1,0-2.1-0.1-3.2-0.3c-2.5-0.3-4.9-0.7-7.4-1.1c-0.2,0-0.4-0.1-0.6-0.1c0.1,0.2,0.2,0.4,0.2,0.6c0.4,0.9,0.8,1.8,1.1,2.8
		c0.1,0.2-0.1,0.4-0.1,0.7c-0.2-0.1-0.4-0.3-0.5-0.4c-1.2-0.7-2.2-1.8-2.8-3c-0.7-1.4-1.8-1.8-3.2-2.1c-0.9-0.2-1.9-0.5-2.7-0.9
		c-2.9-1.4-5.8-2.7-8.6-4.4c-1.1-0.7-1.1-0.6-1-2c0-0.6-0.2-1.3-0.2-1.9C-0.1,12,0.2,11.4,1,11c0.5-0.3,0.9-0.7,1.4-1
		c0.8-0.5,1.6-1,2.4-1.4C6.2,7.8,7.5,7,8.8,6.2c1.7-1.2,3.5-2.3,5.5-3c1.6-0.6,3.3-1,5-1c1.5-0.1,3-0.3,4.4-0.4
		C23.7,1.8,23.7,1.8,23.7,1.9z"/>
	<path d="M4.8,9.4c0.7,0.2,1.4,0.4,1.9,0.7c0.7,0.5,0.8,1.7,0.4,2.4c-0.5,0.9-1.6,1.6-2.3,1.5c-0.8-0.1-1.9-1.2-1.9-1.9
		c0-0.7,0.4-1.3,0.6-2C4,9.9,4.4,9.6,4.8,9.4z"/>
	<path d="M17,12.9c1.4-0.2,2.8-0.4,4.2-0.6c1.5-0.2,3-0.1,4.4,0.5c1.5,0.6,2,1.8,1,3.1c-1.2,1.7-3.1,2.7-5.1,3
		c-0.8,0.1-1.7-0.2-2.5-0.8c-0.8-0.7-1.7-1.1-2.8-0.9c-0.2,0-0.4-0.2-0.6-0.2c0.2-0.2,0.3-0.4,0.5-0.4c1.6-0.7,1.8-1.1,1.1-2.6
		C17.2,13.7,17.1,13.3,17,12.9L17,12.9z"/>
	<path d="M59.7,8.2c-0.2,0-0.4,0.2-0.5,0.1c-0.8-0.3-1.6-0.7-2.5-1c-1.4-0.5-2.9-1-4.3-1.6c-0.1-0.1-0.2-0.3-0.3-0.4
		c0.1,0,0.2-0.1,0.3-0.1c2.4,0.8,4.8,1.4,7,2.6C59.5,7.8,59.6,8,59.7,8.2z"/>
	<path d="M46.9,4c-0.9-0.1-1.9-0.2-2.8-0.3c-2.2-0.3-4.3-0.5-6.5-0.8c-0.1,0-0.2-0.2-0.3-0.4c0.1,0,0.2-0.1,0.3-0.1
		c3.1,0.2,6.1,0.6,9.1,1.3C46.7,3.8,46.8,3.9,46.9,4L46.9,4z"/>
	<path d="M46.9,4c1.4-0.2,2.6,0.4,3.9,0.7c0.1,0,0.2,0.2,0.3,0.4c-0.1,0-0.2,0.1-0.3,0.1C49.5,4.8,48.1,4.7,46.9,4L46.9,4z"/>
	<path d="M34.6,2.2c0.1,0,0.1,0,0.2,0c0.6,0.1,1.2,0.2,1.8,0.2c-0.6,0.1-1.1,0.1-1.7,0.2c-0.1,0-0.1,0-0.2,0c-0.7-0.1-1.3-0.2-2-0.2
		C33.3,2.3,34,2.2,34.6,2.2C34.6,2.2,34.6,2.2,34.6,2.2z"/>
</g>
</svg>
