<?xml version="1.0" encoding="iso-8859-1"?>
<!-- Generator: Adobe Illustrator 25.3.0, SVG Export Plug-In . SVG Version: 6.00 Build 0)  -->
<svg version="1.1" id="Calque_1" xmlns="http://www.w3.org/2000/svg" xmlns:xlink="http://www.w3.org/1999/xlink" x="0px" y="0px"
	 viewBox="0 0 77.5 37.2" style="enable-background:new 0 0 77.5 37.2;" xml:space="preserve">
<g>
	<path d="M58.5,14.9c2.8,0.2,4.9-0.4,7-1.7c1.9-1.1,3.9-2.1,6-2.7c1.1-0.3,1.8-0.1,2.6,0.5c2.8,2.2,4.5,7.8,2.5,12.1
		c-0.7,1.5-1.1,3.1-2.4,4.3c-1.4,1.3-1.9,1.5-3.7,0.6c-1.8-0.9-3.5-2-5.2-3.1c-2-1.4-4.2-1.8-6.5-1.9c-0.5,0-1,0.1-1.6,0.2
		c-0.2,0-0.3,0.1-0.5,0.2c0.2,0.1,0.3,0.1,0.5,0.2c0.5,0.3,1.1,0.5,1.5,0.9c2,1.8,1.8,4.2-0.3,5.9c-0.6,0.5-1.3,0.8-2,1.2
		c-1.4,0.6-2.8,0.4-4.1-0.3c-1.1-0.6-2.1-1.5-3.6-1.2c-0.2,0.1-0.5-0.2-0.8-0.4c-1.6-1.5-3.5-1.8-5.5-2.1c-2.3-0.3-4.6-0.3-7-0.3
		c-1.7,0-3.3,0.2-5,0.3c-0.1,0-0.2,0-0.3,0.1c0.1,0.1,0.2,0.1,0.3,0.2c0.2,0.2,0.4,0.3,0.6,0.5c1.1,1,1.4,2.1,0.8,3.5
		c-0.7,1.7-1.5,3.4-2.8,4.7c-0.9,0.9-1.5,1-2.5,0.2c-1.4-1-2.4-2.4-2.7-4c-0.3-1.4-0.5-2.9-0.7-4.3c-0.1-0.5-0.2-0.7-0.7-0.8
		c-2.3-0.4-4.7-0.9-7-1.4c-2.6-0.6-5.2-1.1-7.8-1.8c-2.2-0.6-4.3-1.4-6.4-2.2C1,22,0.8,21.9,0.7,21.8c-0.6-0.5-0.8-1-0.5-1.5
		c0.4-0.5,0.9-0.5,1.4-0.2C2.5,20.6,3.4,21,4.5,21c0.1,0,0.2,0,0.3-0.1c-0.1-0.1-0.1-0.3-0.2-0.4C3.8,20,2.9,19.6,2.1,19
		c-0.8-0.6-0.8-1,0-1.4c0.9-0.5,1.8-1,2.8-1.3c2.4-0.7,4.6-1.9,6.7-3.3c3.7-2.5,7.6-4.4,12.1-4.9C24.3,8,25,7.8,25.6,7.8
		c1.1-0.2,1.5-1,2.1-1.8C28.9,4.3,30,2.7,31.2,1c0.2-0.3,0.5-0.5,0.7-0.8c0.4-0.4,0.8-0.3,0.9,0.2c0.2,0.6,0.4,1.1,1,1.4
		c0.1,0.1,0.3,0.3,0.3,0.4c0.1,1.3,0.8,2,2.2,2c0.1,0,0.4,0.4,0.4,0.7c0.2,0.9,0.6,1.4,1.6,1.4c0.7,0.1,1,0.5,1,1.2
		c-0.1,1.1,0.8,1.5,1.4,2.1c0.2,0.2,0.6,0.2,0.8,0.1c0.5-0.2,1-0.4,1.5-0.6c1.4-0.9,3.1-1.1,4.3-2.3c0,0,0.1-0.1,0.2-0.1
		c2.9-0.8,7.1-0.9,9.6,2.1c0.6,0.7,1,1.7,1.3,2.7c0.2,0.8-0.3,1.6-1,2.1c-0.3,0.2-0.7,0.4-1.1,0.6c-0.2,0.1-0.3,0.2-0.5,0.3
		c0.2,0.1,0.4,0.3,0.6,0.3C57.2,14.9,58,14.9,58.5,14.9z"/>
	<path d="M29,25.4c-1.8-0.3-3.3-1.1-4.8-1.9C24,23.4,23.9,23,24,22.9c0.5-0.9,0.1-1.6-0.7-2.1c-0.7-0.4-0.3-0.6,0-0.9
		c0.2-0.1,0.4-0.2,0.6-0.3c1.6-0.5,3.3-1,4.9-1.6c1.7-0.6,3.8,0.5,4.1,2.3c0.1,0.5,0,1-0.1,1.5c-0.3,1.5-1.5,2.4-2.6,3.3
		C29.9,25.3,29.4,25.3,29,25.4z"/>
	<path d="M13.8,14.7c1.4,1,2.9,2,3.1,3.9c0.1,1,0.4,1.8,1.1,2.5c0.2,0.3,0.2,0.7,0.3,1.1c0,0-1.6,0.4-1.7,0.3
		c-0.1-0.1-0.2-0.3-0.2-0.4c0.2-2.6-0.3-4.4-2-6.2c-0.3-0.3-0.6-0.6-0.9-0.9c0,0,0-0.2,0-0.3C13.7,14.7,13.8,14.7,13.8,14.7z"/>
	<path d="M25.8,12c3.6,0.4,7,0.7,10.1,2.2c0.4,0.2,0.7,0.4,1.1,0.6c-0.4-0.1-0.9-0.1-1.3-0.2c-0.8-0.3-1.7-0.7-2.5-0.9
		c-2.6-0.8-5.3-1.3-8-1.2c-0.7,0-1.4,0.2-2.1,0.3c-0.1,0-0.3-0.1-0.4-0.2c0.1-0.1,0.2-0.1,0.3-0.2C23.9,12.3,25,12.1,25.8,12z"/>
	<path d="M22.6,15.2c-0.2,0-0.4,0.1-0.5,0.1c-1.2-0.6-2.5-1.2-3.7-1.8c-0.1,0-0.1-0.2-0.1-0.3c0.1,0,0.2-0.1,0.3-0.1
		c1.3,0.5,2.5,1.1,3.8,1.6C22.5,14.9,22.5,15,22.6,15.2z"/>
	<path d="M47.5,18.2c-0.7-0.1-1.6-0.3-2.5-0.5c-0.1,0-0.2-0.3-0.3-0.4c0.2,0,0.3-0.2,0.5-0.1c0.9,0.2,1.7,0.4,2.6,0.6
		c0.4,0.1,0.8,0.2,1.2,0.2C48.6,18.1,48.2,18.2,47.5,18.2z"/>
	<path d="M60.6,18.9c0.5,0,0.9,0,1.4,0c0.2,0,0.3,0.1,0.5,0.2c-0.2,0.1-0.3,0.2-0.5,0.2c-0.5,0-0.9,0-1.4,0c-0.6,0-1.3-0.1-1.9-0.2
		C59.3,19,59.9,18.9,60.6,18.9C60.6,18.9,60.6,18.9,60.6,18.9z"/>
	<path d="M55.7,18.5c0.5,0.1,0.9,0.1,1.3,0.2c-0.4,0.1-0.9,0.2-1.3,0.2c-0.5,0-0.9-0.1-1.4-0.1C54.8,18.7,55.3,18.6,55.7,18.5z"/>
	<path d="M5.6,18.7c-0.2-0.2-0.3-0.3-0.4-0.4c0.3-0.2,0.5-0.4,0.8-0.6C6,17.8,6.2,18,6.1,18C6,18.3,5.8,18.4,5.6,18.7z"/>
</g>
</svg>
