<?xml version="1.0" encoding="iso-8859-1"?>
<!-- Generator: Adobe Illustrator 25.3.0, SVG Export Plug-In . SVG Version: 6.00 Build 0)  -->
<svg version="1.1" id="Calque_1" xmlns="http://www.w3.org/2000/svg" xmlns:xlink="http://www.w3.org/1999/xlink" x="0px" y="0px"
	 viewBox="0 0 66.2 46.5" style="enable-background:new 0 0 66.2 46.5;" xml:space="preserve">
<g>
	<path d="M54.6,26.4c1.3,0,2.6-0.1,3.9-0.1c1.3,0,1.5,0.2,1.1,1.5c-0.1,0.5-0.3,0.9-0.5,1.3c-0.3,0.8-0.7,1.3-1.6,1.5
		c-0.2,0-0.3,0.1-0.4,0.2c0.2,0.1,0.3,0.2,0.5,0.3c0.9,0.5,1.6,0.3,2.4-0.2c1.6-0.8,3.4-1.4,5.1-2c0.9-0.3,1.2,0.1,1,1
		c-0.6,2.2-0.8,4.4-0.3,6.7c0.1,0.5-0.1,0.7-0.7,0.8c-1,0.1-1.9-0.1-2.7-0.5c-1-0.5-2-1.1-3-1.6c-0.7-0.3-1.4-0.7-2.1-0.9
		c-0.2-0.1-0.5,0.3-0.7,0.4c0.1,0.2,0.3,0.4,0.4,0.4c0.8,0.2,0.6,0.6,0.2,1c-1.7,1.7-3.6,3.1-5.7,4.3c-0.8,0.4-1.5,0.5-2.1-0.2
		c-0.8-0.9-1.7-1-2.9-0.7c-1,0.3-2.1,0.3-3.2,0.4c-0.5,0-1,0-0.6,0.8c0.1,0.2,0.1,0.5,0,0.7c-0.3,0.5-0.8,1-1.2,1.5
		c-0.2-0.5-0.6-1-0.7-1.5c-0.3-1.4-0.2-1.5-1.7-1.4c-4.3,0.4-7.9-1.3-11.4-3.5c-3.3-2.1-6.8-3.3-10.7-3.7c-1.4-0.1-2.8-0.3-4.3-0.3
		c-0.6,0-1.2-0.1-1.6-0.6c-0.1-0.2-0.3-0.5-0.2-0.6c0.1-0.2,0.4-0.3,0.6-0.3c1.3,0.3,2.6,0,4,0.3c1.3,0.2,2.6,0.1,3.9,0.1
		c2,0,3.9-0.4,5.7-1.4c4.2-2.1,8.5-4.1,13.1-5.2c1.9-0.5,4-0.7,6-0.9c1.5-0.2,3-0.3,4.4-1.1c0.3-0.1,0.5-0.3,0.7-0.5
		c1-1.2,2-2.5,3.1-3.7c1.9-1.9,3.8-3.8,5.7-5.7c0.6-0.6,1.2-1.1,1.9-1.6c0.3-0.2,0.7-0.4,1-0.6c-0.2,0.3-0.3,0.7-0.5,0.9
		c-0.4,0.4-0.8,0.8-1.3,1.3c-1.3,1.2-2.2,2.6-3.1,4.1c-1.3,2-2.8,3.8-4.2,5.7c-0.3,0.4-1,0.8-0.1,1.3c0.1,0.1,0,0.8-0.2,1.1
		c-0.5,0.6-0.1,0.9,0.4,1c0.8,0.2,1.6,0.3,2.4,0.4C54.6,26.5,54.6,26.5,54.6,26.4z"/>
	<path d="M9.7,5C9.6,5.2,9.3,5.8,8.9,6.1C8.6,6.4,8.1,6.6,7.7,6.7C7.3,6.8,7.3,7.1,7.6,7.2c1.9,0.6,1.9,2,1.8,3.6
		c-0.1,0.9-0.3,1.2-1.3,0.9c-0.9-0.3-0.8,0.1-0.9,0.7c-0.1,1,0,2,0.3,2.9c0.4,1.5,0.8,3,1.2,4.5c0.1,0.5,0.3,0.4,0.5,0.1
		c0.4-0.4,0.8-0.2,1.1,0.1c0.4,0.5,0,0.8-0.3,1c-0.2,0.2-0.5,0.3-0.8,0.4c-0.6,0.1-0.8,0.6-0.8,1c-0.2,1.9-0.9,3.8-0.8,5.8
		c0,1.4-0.2,2.8-1,4.1c-0.4,0.8-0.7,1.6-0.9,2.5c-0.1,1-0.6,1.9-1,2.8c-1.2,2.8-2.4,5.7-3.6,8.5c-0.1,0.2-0.5,0.5-0.6,0.4
		C0.3,46.4,0,46.1,0,45.9c0-0.5,0.2-1,0.3-1.5c0.9-2.7,1-5.5,0.3-8.2c0-0.2,0-0.4,0-0.5C0.5,31.4,0.2,27.2,0.4,23
		c0.1-3.4,0-6.9,0.3-10.3C1,8.8,0.9,5,1,1.1c0-0.3,0-0.6,0.1-0.9C1.1,0.1,1.3,0,1.4,0c0.1,0,0.2,0.1,0.3,0.2C1.8,0.6,1.8,1,1.8,1.4
		c0.1,0.3,0.1,0.7,0.3,1C2.3,2.8,2.7,3,3,3.3c0.2-0.4,0.3-0.7,0.5-1.1c0-0.1,0-0.1,0-0.2c0.3-0.6,0.6-1.1,0.9-1.7
		c0.7,0.3,0.9,0.9,1.1,1.5C5.7,2.4,6,2.9,6.1,3.5c0.1,0.7,0.4,0.4,0.6,0.1c0.4-0.5,1-0.7,1.6-0.6C9.2,3.2,9.7,3.8,9.7,5z"/>
	<path d="M41.3,31.7c0.5,0.1,1.3-0.3,1.7,0.5c0.5,0.8-0.3,1.3-0.7,1.9c-0.6,0.9-1.3,1.7-2,2.5c-0.4,0.5-1,0.7-1.6,0.5
		c-1.1-0.4-2.1-0.7-3.3-0.6c-0.4,0-0.3-0.2-0.1-0.4c0.6-0.7,0.3-1.2-0.4-1.6c-0.1,0-0.1-0.4,0-0.5c0.8-0.4,1.6-0.8,2.4-1.2
		C38.5,32,39.7,31.6,41.3,31.7z"/>
	<path d="M4.3,31c0-0.4,0-0.8,0-1.2c0-0.3,0.3-0.5,0.4-0.8C4.8,29.3,5,29.6,5,29.9C5,30.4,5.1,31,4.3,31L4.3,31z"/>
</g>
</svg>
