<?xml version="1.0" encoding="iso-8859-1"?>
<!-- Generator: Adobe Illustrator 25.3.0, SVG Export Plug-In . SVG Version: 6.00 Build 0)  -->
<svg version="1.1" id="Calque_1" xmlns="http://www.w3.org/2000/svg" xmlns:xlink="http://www.w3.org/1999/xlink" x="0px" y="0px"
	 viewBox="0 0 83.2 50.9" style="enable-background:new 0 0 83.2 50.9;" xml:space="preserve">
<g>
	<path d="M41.3,13.6c0.9-0.2,1.9-0.4,2.8-0.7c2-0.7,4-1.4,6.1-2.1c0.7-0.2,1.3-0.5,2-0.6c1.5-0.4,2.6,0.5,2.3,2.1
		c-0.2,1.1-0.5,2.3-1,3.2c-0.8,1.4-0.8,2.6,0,4c0.6,1,1.2,2.1,1.1,3.4c-0.1,1.7-0.8,2.3-2.4,1.8c-1.4-0.4-2.8-1-4.2-1.4
		c-2.4-0.7-4.8-1.4-7.2-2c-0.2,0-0.3,0-0.5-0.1c0.1,0.2,0.2,0.3,0.3,0.5c1.7,1.9,2.2,4,1.4,6.5c-0.9,2.8-3.3,4.3-6.2,3.7
		c-1.3-0.3-2.7-0.1-3.9-1.1c-1.3,0.7-1.9-1-3-0.9c-0.4,0-0.9-0.6-1.2-1c-0.4-0.7-0.9-0.7-1.5-0.7c-1.2,0.1-2.5,0.3-3.7,0.3
		c-0.6,0-0.7,0.2-0.5,0.8c0.8,1.6,0.6,3.2-0.2,4.8c-0.8,1.5-1.6,1.7-2.6,0.3c-1.2-1.6-2.4-3.3-3.5-5c-0.4-0.5-0.7-0.9-1.4-0.9
		c-1.7-0.2-3.3-0.7-4.8-1.8c-2.9-2-5.6-4.2-8-6.8c-0.6-0.7-1.3-1.4-1.4-2.4c-0.1-0.8,0.2-1.4,0.8-1.9c1.8-1.4,3.4-3,5-4.6
		c2.2-2.2,4.7-4.1,7.7-5.1c1.2-0.4,1.8-1,2-2.1c0.1-0.8,0.5-1.1,1.2-0.4c0.3,0.3,0.5,0.1,0.6-0.3c0.1-0.4,0.3-0.9,0.6-1.3
		c0.2-0.3,0.5-0.4,0.7,0c0.4,0.9,0.6,0.2,0.8-0.1C19.8,1,20,0.3,20.8,1.1c0.1,0.1,0.5-0.1,0.8-0.2c0.2-0.1,0.5-0.4,0.5-0.4
		c1,1,1.4-0.1,2-0.5C24.2,0,24.3,0,24.4,0c0.3,1.4,1.6-0.2,2.1,0.7c0,0.1,0.4,0.1,0.6,0c0.4-0.2,0.6,0.2,0.8,0.3
		c1.1,0.6,2.2,1.2,3.2,1.9c0.6,0.4,1.7,0.2,2.6,0c3.6-0.7,7.5,1.8,8.1,5.3c0.2,1.4-0.3,2.6-1,3.7c-0.2,0.2-0.4,0.4-0.6,0.7
		c-0.1,0.2-0.2,0.4-0.2,0.6c0,0.1,0.3,0.2,0.4,0.2c0.3,0,0.6,0,0.9,0C41.3,13.5,41.3,13.5,41.3,13.6z"/>
	<path d="M30.3,36.5c0.6-1.1,1.8-1,2.7-1.5c0.7-0.3,1.4-0.5,2.1-0.9c1.5-0.7,3-1.6,4.5-2.2c1-0.4,2.1-0.4,3.1-0.6
		c0.6-0.1,1.2-0.2,1.7-0.4c0.2-0.1,0.5-0.2,0.6-0.3c0.5-1.3,1.8-1.8,2.5-2.9c0.5-0.9,1.4-0.6,2.2-0.8c0.9-0.2,1.6,0,1.9,1
		c0.2,0.5,0.6,0.9,0.9,1.3c0.7,1,1.7,1.2,2.8,0.7c1.2-0.6,2.4-1.3,3.7-1.8c2.8-1.2,5.9-0.3,7.7,2.1c1.2,1.6,0.8,3.4-0.8,4.8
		c-0.1,0.1-0.1,0.3-0.2,0.4c0.1,0.1,0.2,0.1,0.3,0.1c1.2,0,2.4,0,3.6-0.2c1.9-0.3,3.7-0.8,5.5-1.2c1.4-0.4,2.8-0.9,4.2-1.3
		c0.5-0.2,1-0.4,1.5-0.4c1.6-0.2,2.6,0.8,2.2,2.3c-0.2,0.9-0.5,1.7-0.9,2.5c-0.4,0.8-0.5,1.4-0.1,2.2c0.3,0.5,0.5,1.1,0.8,1.6
		c0.6,0.9,0.3,1.7-0.4,2.5c-0.6,0.7-1.2,0.7-2.3,0.3c-2.7-1-5.4-2.1-8.3-2.5c-1.3-0.2-2.6-0.1-3.9-0.1c-0.4,0-0.7,0-1.1,0.1
		c0.2,0.3,0.5,0.5,0.6,0.8c0.1,0.4,0.2,0.8,0.2,1.2c-0.2,0.2-0.6,0.3-0.8,0.1c-1.9-1.2-3.3,0.1-4.8,0.8c-1,0.5-0.3,1.8-1.1,2.3
		c-0.8-0.4-1.5-0.9-2.3-1.2c-0.8-0.3-1.7-0.5-2.6-0.5c-2.9-0.2-5.8-0.3-8.7-0.5c-0.1,0-0.4,0-0.4,0.1c0,0.2,0,0.4,0,0.5
		c0.4,0.5,0.7,1.1,1.1,1.6c0.6,0.6,0.6,1.2,0.2,1.9c-0.4,0.6-0.7,1.2-1.1,1.7c-0.2-2.3-1.9-4.3-1.2-6.7c1.3-1.1,2.7-0.6,4.1-0.5
		c3.3,0.2,6.7,0.7,9.9-0.6c0.4-0.2,0.8-0.2,1.2-0.5c3.2-2.2,6.8-2.4,10.5-2c0.2,0,0.5,0.1,0.8-0.1c-0.2,0-0.5,0-0.7,0
		c-6.7,0.2-13.1-1.3-19.4-3.6c-1.3-0.5-2.8-0.7-4.2-0.6c-1.9,0.1-3.3,0.9-3.8,3c-0.3,1.1-0.4,2.4-1.3,3.3c-0.4,0.5-0.2,0.7,0.4,0.8
		c0.8,0.1,1.6-0.1,2.2,0.5c-0.1,2.4,0.9,4.6,1.5,6.9c-0.1,0.2-0.1,0.4-0.2,0.6c0,0-0.4,0-0.4-0.1c-0.9-1.5-2-3-2.3-4.8
		c-0.1-1-0.6-1.4-1.6-1.6c-2.4-0.5-4.7-1.1-7.1-1.6c-2.5-0.6-4.9-1.4-7.2-2.6c-0.6-0.3-0.9-0.9-0.7-1.4c0.3-0.6,0.8-0.5,1.2-0.3
		c0.2,0.1,0.4,0.2,0.7,0.2c0.1,0,0.2,0,0.3-0.1c0,0,0-0.2,0-0.3c-0.1-0.2-0.2-0.3-0.3-0.5C29.1,37,29.1,37,30.3,36.5
		c0.1,0.2-0.1,0,0.1,0.2C30.5,36.7,30.4,36.7,30.3,36.5z"/>
	<path d="M61.9,47.4c1.8,0.4,3.5,0.2,5.1-0.7c0,0.2,0,0.4-0.1,0.5C65.5,48.4,63.5,48.5,61.9,47.4z"/>
	<path d="M67,46.6c0.2-1.1,0.5-2.1,0.7-3.2c0.1,0,0.1,0,0.2,0.1C68.4,44.7,68.1,45.6,67,46.6z"/>
	<path d="M4,15.8c0-1.1,0.8-2,1.9-1.9c0.9,0,1.8,1,1.8,1.9c0,0.9-0.9,2.1-1.6,2.1C5,17.9,4,16.9,4,15.8z"/>
	<path d="M27.1,12.1c-0.5-0.1-0.9-0.1-1.4-0.3c-2.6-1.1-5.3-0.8-7.9-0.2c-1.4,0.3-2.7,0.8-4.1,1.3c-0.5,0.2-0.9,0.7-1.4,1.1
		c-0.1,0.1-0.2,0.1-0.3,0c-0.1-0.1-0.1-0.3-0.1-0.3c0.3-0.3,0.5-0.8,0.9-1c1.8-0.6,3.6-1.3,5.4-1.7c2.7-0.7,5.4-0.6,8,0.6
		C26.6,11.7,26.8,11.9,27.1,12.1L27.1,12.1z"/>
	<path d="M47.3,40.9c-1.4,0.5-2.1-0.6-2.9-1.4c-0.4-0.4-0.3-0.8,0.1-1.2c1.4-1.3,3.1-1.9,4.9-2.5c0.4-0.1,0.8-0.1,1.2-0.1
		c1.4,0.2,2,1.3,1.4,2.6c-0.7,1.5-1.8,2.3-3.4,2.5C48.2,40.9,47.8,40.9,47.3,40.9z"/>
</g>
</svg>
