<?xml version="1.0" encoding="iso-8859-1"?>
<!-- Generator: Adobe Illustrator 25.3.0, SVG Export Plug-In . SVG Version: 6.00 Build 0)  -->
<svg version="1.1" id="Calque_1" xmlns="http://www.w3.org/2000/svg" xmlns:xlink="http://www.w3.org/1999/xlink" x="0px" y="0px"
	 viewBox="0 0 79.9 29.3" style="enable-background:new 0 0 79.9 29.3;" xml:space="preserve">
<g>
	<path d="M6.8,13.9c0.3,0,0.6,0,0.9,0c1.4,0.2,2.5-0.4,3.2-1.5c0.9-1.3,2.2-2.3,3.5-3.1c1.8-1.2,3.7-2.1,5.6-3.2
		c2.1-1.2,4.1-1,6.2,0.1c2.3,1.2,4.7,2.4,7,3.5c2.6,1.2,5.3,1.8,8.1,1.1c0.6-0.1,1.2,0,1.8-0.1c1.5-0.1,3-0.1,4.4-0.4
		c3.3-0.7,6.1,0.3,8.5,2.4c0.7,0.7,1.4,0.9,2.4,0.9c3.3,0,6.5-0.4,9.8-1c1.4-0.2,2.9-0.4,4.4,0.3c0.6,0.3,1.4,0.3,2.1,0.2
		c1.6,0,3,0.1,3.8,1.6c0.2,0.3,0.6,0.4,0.8,0.6c0.2,0.2,0.5,0.5,0.5,0.7c0,1.3,0.2,2.7-0.4,3.7c-0.7,1.1-1.9,1.8-3,2.6
		c-0.3,0.2-0.8,0.1-1.2,0.1c-0.4,0-0.9-0.1-1.1,0.1c-1.1,1-2.2,0.4-3.4,0.3c-2.7-0.1-5.4-0.6-8.1-0.8c-1.2-0.1-2.4-0.5-3.7-0.7
		c-0.7-0.1-1.4-0.2-1.6,0.9c-0.2,0.6-0.9,1.1-1.5,1.7c-0.4,0.4-0.9,0.7-1.6,0.3c-0.3-0.1-0.7-0.1-1.1,0c-1.4,0.1-2.7,0.4-4.1,0.5
		c-0.4,0-0.8-0.2-1.1-0.4c-0.8-0.5-1.7-0.7-2.7-0.9c-1.6-0.3-3.2-0.9-4.7-1.5c-0.9-0.4-1.7-0.7-2.7-0.1c-0.6,0.3-1.4,0.3-2.1,0.3
		c-0.5,0-0.9,0.2-1.2,0.6c-0.5,0.7-1.1,1.4-1.8,2c-2.2,2.1-4.9,2.8-7.8,3.2c-0.7,0.1-1.7,0.2-2.2,0.7c-1,0.9-2,0.8-3.2,0.5
		c-3.2-0.6-6.2-1.9-9.2-3.3c-1-0.5-2.1-0.9-3.1-1.4c-0.7-0.3-1.4-0.5-2.2-0.5c-1.1,0-1.6-0.9-1.2-1.9c0.1-0.2,0.2-0.5,0.3-0.6
		c0.6-0.5,0.5-1.1,0.1-1.5c-0.5-0.6-0.5-1.2-0.3-2c0.2-0.8,0.8-1,1.3-1.3c0.5-0.3,0.9-0.6,1.4-0.8c0.1-0.1,0.3-0.2,0.4-0.3
		c-0.2,0-0.3-0.1-0.5-0.1c-0.5,0-1.1,0-1.6,0c-0.8,0-1.4-0.4-1.6-1.1C2.6,11.6,1.8,8.9,1.7,6C1.6,4.6,1.2,3.2,0.9,1.9
		C0.9,1.6,0.6,1.4,0.4,1.1C0.3,0.8-0.1,0.4,0,0.2c0.3-0.5,0.7,0,1.1,0c0.5,0.1,1.2-0.2,1.4,0.5c0.2,0.6,0.4,1.3,0.3,1.9
		c-0.4,3.3,0,7.1,1.1,10.1c0.3,0.8,0.6,1.2,1.5,1.1C5.8,13.9,6.3,13.9,6.8,13.9z"/>
	<path d="M11.1,22.5c-0.5-0.8-1.3-1.3-2.2-1.8C8,20.2,7.1,19.6,6.2,19c-0.1-0.1-0.1-0.3-0.1-0.5c0.1,0,0.3-0.1,0.4-0.1
		c2.7,1.4,5.2,3.1,7.4,5.2c0.5,0.5,0.5,0.8-0.3,0.9C12.8,23.9,12,23.2,11.1,22.5z"/>
	<path d="M16.6,15.4c-0.7,0-1.2-0.5-1.2-1c0.1-0.6,0.8-1.2,1.5-1.2c0.6,0,1.2,0.6,1.2,1.1C18,15,17.4,15.4,16.6,15.4z"/>
	<path d="M23.4,17.1c0-0.2,0-0.4,0-0.5c0-0.1,0.2-0.2,0.3-0.3c0,0,0.2,0.1,0.2,0.2c0,0.6,0,1.1-0.1,1.7c0,0.1-0.2,0.2-0.3,0.2
		c-0.1,0-0.2-0.1-0.2-0.2C23.3,17.8,23.4,17.4,23.4,17.1z"/>
	<path d="M8.6,16.6c0.3,0.4,0.6,0.6,0.6,0.9c0,0.2-0.3,0.4-0.5,0.6c-0.2-0.3-0.4-0.5-0.5-0.8C8.2,17.2,8.4,16.9,8.6,16.6z"/>
	<path d="M22.9,25.7c0.1,0.2,0.2,0.3,0.2,0.3c-0.1,0.3-0.2,0.6-0.4,0.9c0,0-0.2,0-0.3,0c0-0.2,0-0.5,0.1-0.7
		C22.6,26.1,22.8,25.9,22.9,25.7z"/>
</g>
</svg>
