<?xml version="1.0" encoding="iso-8859-1"?>
<!-- Generator: Adobe Illustrator 25.3.0, SVG Export Plug-In . SVG Version: 6.00 Build 0)  -->
<svg version="1.1" id="Calque_1" xmlns="http://www.w3.org/2000/svg" xmlns:xlink="http://www.w3.org/1999/xlink" x="0px" y="0px"
	 viewBox="0 0 63.4 38.4" style="enable-background:new 0 0 63.4 38.4;" xml:space="preserve">
<g>
	<path d="M8.3,13.3c0.6-0.6,1.1-1.2,1.7-1.7c0.9-0.7,0.9-0.7,0.4-1.8c-0.1-0.3-0.3-0.5-0.4-0.8c-0.4-0.6-0.3-0.6,0-1.8
		C10.1,6.7,9.9,6,9.8,5.3C9.8,4.9,9.6,4.6,9.5,4.2c0-0.1,0.1-0.2,0.2-0.3c0.1,0,0.3,0,0.3,0c0.2,0.2,0.3,0.5,0.5,0.8
		c0.5,0.6,1.3,0.7,2.2,0.4c0.9-0.2,0.9-0.8,0.9-1.5c0-0.9-0.1-1.8-0.1-2.7c0-0.3,0.1-0.5,0.3-0.8c0.1-0.1,0.3-0.2,0.4-0.2
		c0,0.1,0.1,0.2,0.1,0.3c0,0.4,0,0.7,0.1,1.1c0.1,1.2,1.1,1.7,1.9,2.2c0.1,0.1,0.6-0.3,0.7-0.5c0.3-0.8,0.5-1.7,0.9-2.5
		c0.1-0.2,0.4-0.3,0.7-0.4c0.1,0.2,0.1,0.4,0.2,0.6c0,0.9,0.6,1.5,1.3,2.1c0.3,0.3,0.7,0.1,0.9-0.2c0.4-0.6,0.6-1.3,1-1.9
		c0.1-0.1,0.3-0.3,0.4-0.3c0.1,0,0.2,0.2,0.3,0.3C22.9,1,22.8,1.3,23,1.5c0.6,0.8,1.2,1,1.9,0.2c0.3-0.4,0.6-0.7,1-1
		c0.1-0.1,0.3-0.2,0.4-0.3c0.1,0.2,0.1,0.3,0.2,0.5c0.1,0.6,0.1,1.3,0.3,1.9c0.1,0.4,0.6,0.6,0.9,0.1c0.2-0.2,0.3-0.5,0.5-0.7
		c0.2-0.2,0.5-0.3,0.7-0.4c0.1,0.2,0.3,0.5,0.3,0.7c0.3,1.3,0.5,1.5,1.7,0.8C31.3,3,31.5,3,31.8,3.4c0.6,0.9,1.4,1.3,2.5,0.8
		c0.4-0.2,0.6,0,0.8,0.4c0.1,0.2,0.3,0.4,0.4,0.5c0.5,0.5,1.3-0.3,1.7,0.6c0.3,0.5,0.9,0.8,1.3,1.1C38.6,7,38.9,7.2,39,7.4
		c0.1,0.5,0.4,0.5,0.8,0.5c0.5,0,0.9,0.1,1.1,0.7c0.3,0.9,1.1,1.1,2,1.1c0.5,0,1,0.1,1.4-0.1c1.4-0.5,2.5,0.1,3.5,0.9
		c1.3,1,2.3,2.4,3.8,3.2c0.2,0.1,0.3,0.7,0.3,1.1c-0.1,0.7-0.4,1.5-0.7,2.2c-0.2,0.6,0,0.6,0.4,0.6c0.5-0.1,1.1-0.2,1.5-0.4
		c1.9-0.9,3.8-2,5.7-2.9c0.6-0.3,1.2-0.4,1.9-0.5c0.6-0.1,1.1,0.1,1.3,0.7c0.5,1.9,1.1,3.9,1.4,5.8c0.2,1.4,0,3-0.3,4.4
		c-0.2,1-0.8,2-1.4,2.8c-0.7,1-1.8,0.7-2.6,0.4c-1.8-0.7-3.4-1.6-5.2-2.4c-1.1-0.5-2.2-0.8-3.3-1.2c-0.2-0.1-0.5,0.1-0.6,0.2
		c-0.1,0.2,0,0.5,0.1,0.6c1.3,0.8,1.7,2.2,2.2,3.5c0.3,0.7,0.2,0.9-0.3,1.2c-0.1,0-0.2,0.1-0.3,0.2c-0.6,0.2-1.1,0.3-1.7,0.5
		c0.3,0.7,0.7,1.3,1,2c0.2,0.4,0.4,0.7,0.5,1.1c-0.5,0.1-1.1,0.3-1.5,0.1c-1.8-0.6-3.6-1.4-5.2-2.6c-1.4-1-2.8-2.1-4.3-2.7
		c-1.1-0.4-2.6-0.5-3.7-0.2c-1.7,0.6-3.4,0.6-5.1,0.6c-0.3,0-0.6,0-0.9,0c-0.1,0-0.2,0.1-0.2,0.2c0,0.1,0,0.2,0.1,0.3
		c0.2,0.1,0.4,0.3,0.6,0.4c1.1,0.5,1.2,0.7,0.6,1.8c-0.4,0.6-0.9,1.2-0.4,1.9c0,0,0.1,0.1,0,0.2c-0.7,1.2-0.4,2.6-1.1,3.8
		c-0.6,0.9-2,1.5-3.1,1c-0.6-0.3-1.1-0.7-1.6-1.1c-0.6-0.5-0.7-1.6-1.9-1.6c-0.2,0-0.4-0.6-0.5-0.9c-0.4-1.5-0.9-3-1.3-4.6
		c-0.3-1.2-0.6-1.5-1.8-1.7c-2.5-0.4-5-0.8-7.6-1.2c-0.7-0.1-1.4-0.4-2-0.6c-3-0.9-6.1-1.6-8.9-3.1c-1.7-0.9-2-1.8-1.4-3.6
		c0.7-2,2.1-3.2,3.8-4.3c1.2-0.8,2.4-1.5,3.7-2.2C7.9,13.3,8.1,13.4,8.3,13.3c0.5,1.1,0.7,2.3,1.1,3.4c0.5,1.8-0.2,3.2-2,4.3
		c-1.5,0.9-2.9,0.8-4.5-0.3c-0.2-0.1-0.3-0.5-0.5-0.3c-0.1,0.1,0.1,0.4,0.3,0.6c2.1,2.8,5.2,3.5,8.4,3.4c2.1-0.1,3.8-2.8,3.2-4.7
		c-0.2-0.6-0.2-1.1,0.4-1.4c0.6-0.4,1.2-0.2,1.7,0.1c1.4,0.8,1.7,3.1,0.7,4.4c-0.7,0.8-2,1.4-1.8,2.5c0.2,1.2,1.8,0.9,2.7,1.4
		c1.3,0.7,2.8,0.6,4.3,0.5c2.2,0,2.5,0.6,2.4,2.8c-0.1,2.1,0.7,4.2,2.2,5.9c0.7,0.8,1.7,0.5,2.1-0.6c0.4-1.1,0.6-2.3,0.6-3.5
		c0.1-1-0.6-1.4-1.4-1.5c-0.8-0.2-1.6-0.3-1.6-1.3c0-1.1,1-1.1,1.7-1.3c3.2-0.8,6.5-0.6,9.8-1.2c1.2-0.2,2.5-0.3,3.7-0.6
		c1.3-0.4,1.9,0,2.1,1.4c0.1,1.3,1.9,3.1,3.1,3.3c0.5,0.1,0.6,0,0.4-0.6c-0.7-1.9-0.5-2.1,1.3-2c0.4,0,0.9,0.2,1.1-0.4
		c0.2-0.5-0.2-0.8-0.5-1.1c-0.7-0.7-1.5-1-2.4-0.8c-0.8,0.1-1.5,0.1-1.7-0.9c-0.1-0.9,0.5-1.3,1.2-1.5c1.9-0.6,3.5-0.5,5.6,0.3
		c2.2,0.8,4.4,2,6.8,2.5c1.4,0.3,2.3-0.1,2.5-1.5c0.5-2.5,0.7-4.9-0.2-7.4c-0.5-1.2-1.2-1.5-2.4-1.1c-0.9,0.4-1.7,0.8-2.6,1.2
		c-1.3,0.7-2.1,1.6-1.5,3.2c0.4,1-0.1,1.8-0.7,2.6c-0.5,0.6-1.1,1.1-1.8,0.7c-0.9-0.4-0.5-1.1-0.3-1.8c0.5-1.6,0-2.4-1.6-2.7
		c-3.6-0.6-6.2-3.1-9.2-4.8c-0.6-0.3-1.2-0.9-0.7-1.7c0.9-0.4,1.6,0.3,2.3,0.5c0.2,0.1,0.3,0.1,0.5,0.2c-0.2-0.1-0.3-0.1-0.5-0.2
		C42,13,41.5,12.8,41,12.5c-0.3-0.1-0.4-0.4-0.4-0.7c0.1-0.3,0.4-0.4,0.7-0.4c2.1-0.2,3.5,0.8,4.9,2.1c0.7,0.7,1.1,1.5,1.9,2.1
		c0.4,0.3,0.9,0.5,1.3,0.1c0.4-0.4,0.3-0.9,0.1-1.3c-1-2.1-3.6-3.5-5.9-3.1c-0.6,0.1-1.2,0.1-1.8,0.1c-1.3,0-1.3,0-1.2,1
		c0,0.2-0.2,0.3-0.3,0.4c-1,0.6-2,0.1-2.9-0.3c-3.7-1.6-7.5-2.7-11.5-3.3C20.3,8.4,15.6,10,11,12.8C10.2,13.3,9.5,14.3,8.3,13.3z"/>
	<path d="M23.3,26.5c-1.3,0.1-2.6,0.2-3.9,0.3c-0.2,0-0.5-0.1-0.5-0.2c-0.1-0.2,0.1-0.4,0.2-0.6c0-0.1,0.2-0.1,0.3-0.2
		c1.7-0.8,1.3-1.8,0.2-3.1c-0.2-0.2-0.4-0.3-0.6-0.5c0.2-0.2,0.5-0.4,0.7-0.5c1.4-0.4,2.9-0.8,4.3-1.3c0.5-0.1,1-0.2,1.4-0.4
		c1.4-0.9,3-0.8,4.5-0.6c1.1,0.2,2.2,0.8,3.2,1.4c0.8,0.5,0.8,1.3,0.1,2c-2.1,2.1-4.5,3.7-7.7,3.7C24.7,26.6,24,26.6,23.3,26.5
		C23.3,26.6,23.3,26.6,23.3,26.5z"/>
	<path d="M5.4,16.9c0.6,0,1.1,0.4,1.1,0.9c0,0.6-0.7,1.5-1.2,1.5c-0.5,0-1.2-0.7-1.2-1.3C4.1,17.5,4.8,16.9,5.4,16.9z"/>
</g>
</svg>
