<?xml version="1.0" encoding="iso-8859-1"?>
<!-- Generator: Adobe Illustrator 25.3.0, SVG Export Plug-In . SVG Version: 6.00 Build 0)  -->
<svg version="1.1" id="Calque_1" xmlns="http://www.w3.org/2000/svg" xmlns:xlink="http://www.w3.org/1999/xlink" x="0px" y="0px"
	 viewBox="0 0 87.5 36.9" style="enable-background:new 0 0 87.5 36.9;" xml:space="preserve">
<g>
	<path d="M22,0c1,0,1.9,0,2.9,0c2.5,0,5,0.5,7.5,0.8c2,0.3,3.9,0.7,5.8,1.3c0.8,0.3,1.6,0.7,2.4,1.2c0.5,0.3,0.6,0.9,0.2,1.4
		c-0.4,0.6-0.7,1.2-1.1,1.8c0.8-0.1,1.6-0.2,2.4-0.4c2-0.5,4-1,6.1-1.4c0.9-0.2,1.8-0.1,2.7,0c0.7,0,1.4,0,2.1,0.2
		c0.7,0.2,1.2,0.7,1.9,1c1.2,0.4,2.4,0.7,3.6,1.1c1,0.3,2,0.6,2.9,1c0.2,0.1,0.3,0.3,0.3,0.5c0,0.1-0.2,0.3-0.3,0.4
		c-1.2,0.1-2,0.7-2.9,1.4c-1.1,0.7-2.4,1.3-3.8,1.7c-1.2,0.3-2.4,1-3.5,1.5c-0.3,0.1-0.6,0.2-0.8,0.2c-3.3-0.7-6.6-0.9-9.9-1
		c-0.7,0-1.4-0.2-2.1-0.3c-0.2,0-0.3,0.1-0.5,0.1c0.1,0.1,0.3,0.2,0.4,0.2c0.8,0,1.2,0.5,1.5,1.1c0.2,0.3,0.4,0.6,0.7,0.8
		c0.3,0.3,0.9,0.7,0.9,0.8c-0.2,0.5-0.6,0.9-1,1.2c-1.8,1.4-3.8,2.3-6.1,2.3c-0.5,0-1.1,0.2-1.6,0.2c-0.8,0-1.6,0.1-2.3,0
		c-1.3-0.1-2.6-0.4-3.9-0.6c-1.1-0.2-2.1-0.3-2.9-1.2c-0.4-0.5-1-0.5-1.6-0.3c-0.8,0.3-1.6,0.4-2.4,0.6c-0.4,0.1-0.6,0.3-0.3,0.7
		c1.5,2.5,3.5,4.4,6.3,5.4c0.5,0.2,1,0.3,1.5,0.5c0.6,0.3,1.5,0.4,1,1.5c0,0.1,0.2,0.3,0.3,0.4c0.1,0.2,0.1,0.4,0.2,0.6
		c-0.2,0-0.5,0-0.6-0.1c-3-1.4-5.9-2.8-8.9-4.2c-0.7-0.3-1.6-0.5-2.3-0.8c-1.2-0.6-2.3-1.3-3.3-2.1c-0.6-0.5-1.1-0.7-1.9-0.7
		c-0.9,0-1.8-0.2-2.6-0.3c-1.1-0.1-2.1,0-3.2,0c-1.1,0-2.1-0.3-2.7-1.4c-0.2-0.3-0.6-0.5-1-0.8c-0.9-0.7-1.4-1.6-1.7-2.7
		c-0.2-0.9,0.2-1.7,0.8-2.4c1.6-2.2,3.9-3.6,5.9-5.4c0.2-0.2,0.5-0.4,0.8-0.5c1.4-0.5,2.3-1.5,3.2-2.5C12.4,1,14.4,0.1,16.8,0
		C18.6,0,20.3,0,22,0C22,0,22,0,22,0z"/>
	<path d="M63.6,36.1c-2.8,0.2-5.6,0.5-8.4,0.7c-0.4,0-0.8,0-1.3,0c-2.9,0-5.8,0.1-8.6,0c-2.5-0.1-5-0.4-7.5-0.6
		c-0.9-0.1-1.6-0.4-2-1.2c-0.1-0.3-0.5-0.4-0.8-0.6c-0.4-0.2-0.8-0.2-1,0.3c-0.1,0.4-0.3,0.8-0.6,1.1c-0.2,0.3-0.5,0.4-0.7,0.7
		c-0.2-0.2-0.4-0.4-0.5-0.7c-0.1-0.1-0.2-0.3-0.2-0.5c0-1.2-0.6-1.8-1.8-2c-0.7-0.1-1.3-0.6-1.8-1c-1.3-1.3-1.1-2.8,0.5-3.8
		c0.3-0.2,0.7-0.4,1.1-0.5c0.6-0.2,1.2-0.5,1.6-1.1c0.7-1.1,1.8-1.6,3-1.8c2.4-0.4,4.9-0.8,7.4-1c0.8-0.1,1.7,0.1,2.5,0.2
		c0.3,0,0.6,0.1,0.9,0.1c2.6,0,5.1,0.2,7.6,0.7c0.1,0,0.3,0,0.4,0c1.6-0.7,3.2,0.2,4.7,0.3c0.2,0,0.5,0.2,0.7,0.1
		c0.9-0.5,1.7,0,2.6,0c2,0.1,3.9,0.2,5.9,0.4c0.7,0.1,1.5,0.4,2.1,0.3c2.4-0.5,4.6,0.3,6.9,0.5c3.4,0.2,6.7,1,9.8,2.4
		c0.2,0.1,0.4,0.2,0.6,0.3c1.2,0.9,1.2,1.8,0,2.5c-1.1,0.6-2.4,1.1-3.6,1.5c-2.3,0.6-4.6,1-7,1.5c-2.4,0.5-4.9,0.9-7.4,1
		c-1.6,0.1-3.3,0.3-4.9,0.5C63.6,36.2,63.6,36.1,63.6,36.1z"/>
	<path d="M3.3,9.7c0.3-0.1,0.6-0.2,0.8-0.2c0.7-0.2,1.5,0.2,1.7,0.9c0.2,0.6-0.4,1.4-1.1,1.5c-0.4,0-0.9-0.2-1.3-0.3
		C3.3,10.9,3.3,10.3,3.3,9.7z"/>
</g>
</svg>
