<?xml version="1.0" encoding="iso-8859-1"?>
<!-- Generator: Adobe Illustrator 25.3.0, SVG Export Plug-In . SVG Version: 6.00 Build 0)  -->
<svg version="1.1" id="Calque_1" xmlns="http://www.w3.org/2000/svg" xmlns:xlink="http://www.w3.org/1999/xlink" x="0px" y="0px"
	 viewBox="0 0 83.8 24.2" style="enable-background:new 0 0 83.8 24.2;" xml:space="preserve">
<g>
	<path d="M10,3.5C7.7,3.3,5.3,3.2,2.9,3C1.6,2.9,0.5,2.4,0,1C0,0.8,0.1,0.5,0.1,0.3c0.2,0,0.5,0,0.7,0.1C1,0.6,1.3,0.7,1.4,1
		C2,2.5,3.3,2.5,4.5,2.5c4,0.1,7.9,0.1,11.9,0c1,0,2-0.6,3-0.9c1.6-0.4,3.2-0.8,4.8-1.2c2.1-0.6,4.3-0.4,6.4-0.3
		c1.8,0.1,3.7,0.4,5.5,0.6c1.9,0.2,3.8,0.5,5.6,0.8c0.2,0,0.5-0.1,0.7-0.1c1.5-0.5,2.9,0.1,4.4,0.3c0.3,0,0.5,0.3,0.7,0.5
		c0.2,0.2,0.1,0.5-0.2,0.5c-0.6,0-1.2,0.1-1.8-0.1C45.1,2.4,45,2.6,45,3c0,0.5-0.1,0.9-0.2,1.4c0,0.2,0,0.3,0,0.5
		c0.2,0,0.3-0.1,0.5-0.1c1.3-0.5,2.6-1.1,4-1.6c1.5-0.5,3-0.5,4.4,0.5C54.2,4,55.1,3.9,55.8,4c0.4,0,0.6,0.1,0.5,0.6
		c-0.1,0.7,0.6,0.3,0.9,0.4c0.2,0.1,0.4,0.2,0.5,0.3c-0.2,0.1-0.3,0.4-0.5,0.4c-0.5,0.1-1,0-1.4,0.1C55.4,6,55,6.1,54.6,6.3
		c-0.1,0-0.1,0.2-0.1,0.3c0,0.1,0.1,0.2,0.2,0.2c0,0,0.1,0,0.2,0C55.3,7,56,6.6,56,7.3c0,0.2-0.6,0.4-0.9,0.7
		c-0.2,0.2-0.4,0.4-0.5,0.5c0.3,0,0.6,0,0.8-0.1c1.4-0.7,2.7-1.5,4-2.3c1.1-0.6,2.2-1.3,3.3-1.9C63,4.1,63.4,4,63.7,4
		c0.2,0,0.6,0.3,0.6,0.4c0,0.4-0.2,0.7,0.4,0.4c0.5-0.3,1.1-0.6,1.6-0.8c0.2-0.1,0.8,0.1,0.9,0.3c0.2,0.8,0.6,0.7,1.2,0.4
		c0.4-0.2,0.8-0.4,1.2-0.4c0.3,0,0.8,0.1,0.8,0.2c0.2,0.9,0.7,0.9,1.4,0.6c0.6-0.2,1,0.1,0.8,0.7c-0.1,0.5-0.1,0.7,0.4,0.6
		c0.2,0,0.4,0,0.5,0c1.3,0,1.3,0,1,1.2c-0.1,0.6,0.1,0.9,0.6,0.9c1.9,0,3.8-0.1,5.7-0.1c0.5,0,0.9-0.1,1.4-0.1
		c0.2,0,0.4,0.3,0.4,0.4c0,0.2-0.3,0.6-0.4,0.6c-1,0.1-1.9,0-2.9,0.1c-1.4,0-2.8-0.1-4.1,0.4c-0.6,0.3-1.2,0.5-1.2,1.4
		c-0.1,1.2,0.1,1.4,1.2,1.8c0.4,0.1,0.8,0.2,1.2,0.2c2,0,4,0,5.9,0c0.4,0,0.9,0.2,1.3,0.4c0,0,0,0.4-0.1,0.5
		c-0.4,0.2-0.9,0.4-1.3,0.3c-2.3-0.6-4.7-0.1-7-0.2c-0.3,0-0.6,0.1-0.8,0.3c-0.1,0.1-0.2,0.2-0.3,0.4c0.1,0.1,0.3,0.2,0.4,0.3
		c0.2,0.1,0.4,0,0.5,0.1c0.5,0.3,0.5,0.8,0.2,1.2c-0.2,0.4-0.5,0.3-0.9,0.1c-0.3-0.2-0.8-0.2-1.2-0.3c-0.6,0-1.4,0-0.5,0.9
		c0,0-0.1,0.5-0.2,0.5c-0.7,0.2-1.8-0.3-2,1c0,0.1-0.5,0.1-0.8,0c-0.5-0.1-1-0.4-1.5-0.5c-0.7-0.1-0.5,0.1-0.2,0.5
		c0.1,0.1,0.1,0.6,0.1,0.6c-0.2,0.2-0.5,0.3-0.8,0.2c-0.8-0.2-1.6-0.4-2.4-0.6c-0.2,0-0.6-0.1-0.6,0c-0.4,1.2-0.9,0.6-1.6,0.2
		c-0.9-0.5-2-0.9-2.9-1.3c-0.3-0.1-0.4-0.1-0.7,0.2c-0.7,0.8-0.7,0.7,0.1,1.4c0.3,0.3,0.2,0.5-0.1,0.6c-0.7,0.1-1.4,0.3-2.1,0.3
		c-1.1,0.1-2.1,0.1-3.1,0.5c-1.1,0.4-2.5,0.3-3.7,0.1c-1.2-0.2-2.4-0.6-3.3-1.6c-1.1-1.1-2.8-1.1-4.1-0.3c-4,2.3-8.3,4.1-13,4.8
		c-4.2,0.7-8.4,0.5-12.5,0.3c-3.1-0.1-6-1.2-8.4-3.1c-2.5-1.8-3.3-4.4-2.8-7.4c0.2-0.9,0.5-1.7-0.5-2.3c-0.1-0.1-0.2-0.6-0.1-0.8
		C5.8,9.8,6.1,9,7.1,9.1c0.1,0,0.2-0.3,0.2-0.4C6.9,6.5,7,6.3,9,5.4c1.5-0.7,3.1-1.2,4.7-1.7c0.2-0.1,0.3-0.1,0.5-0.2
		c-0.2,0-0.3-0.1-0.5-0.1c-1.2,0-2.4,0-3.6,0C10,3.4,10,3.5,10,3.5z"/>
	<path d="M32.5,14.5c-0.2-0.1-0.7-0.3-1.2-0.5c-0.2-0.1-0.4-0.3-0.6-0.4c0,0.2-0.1,0.5,0,0.7c0.3,1.1-0.1,2-0.9,2.6
		c-0.5,0.4-1.3,0.4-1.5-0.2c-0.3-0.5-0.5-1.3-0.4-1.8c0.2-0.9,0.8-1.7,1.2-2.5c0.3-0.6,0.7-0.6,1.2-0.3c0.5,0.4,1,0.8,1.5,1.2
		c0.9,0.7,2.1,0.5,2.6-0.4c0.4-0.7,0.1-1.4-0.8-1.6c-0.8-0.2-1.6-0.3-2.5-0.5c-0.3-0.1-0.6-0.3-0.9-0.5c-0.1-0.1-0.2-0.3-0.1-0.4
		c0-0.1,0.3-0.3,0.4-0.2c0.9,0.7,2.1,0.4,3.1,0.7c1.5,0.5,1.9,1.1,1.7,2.4C35.1,13.9,34.3,14.4,32.5,14.5z"/>
	<path d="M16.6,4.9c0.3,0.2,0.6,0.4,0.5,0.5c-0.1,0.2-0.3,0.4-0.5,0.6c-0.2-0.2-0.4-0.3-0.4-0.5C16.2,5.4,16.4,5.2,16.6,4.9z"/>
</g>
</svg>
