<?xml version="1.0" encoding="iso-8859-1"?>
<!-- Generator: Adobe Illustrator 25.3.0, SVG Export Plug-In . SVG Version: 6.00 Build 0)  -->
<svg version="1.1" id="Calque_1" xmlns="http://www.w3.org/2000/svg" xmlns:xlink="http://www.w3.org/1999/xlink" x="0px" y="0px"
	 viewBox="0 0 84.6 20.1" style="enable-background:new 0 0 84.6 20.1;" xml:space="preserve">
<g>
	<path d="M80.8,13.3c-1.3-0.1-3-0.2-4.7-0.4c-0.7-0.1-1.5-0.4-2.2-0.8c-1.7-0.9-3.5-0.7-5.2-0.2c-0.1,0-0.3,0.1-0.4,0.2
		c0.1,0.1,0.3,0.2,0.4,0.3c0.9,0.2,1.9,0.3,2.8,0.5c1.7,0.4,2.3,1.5,1.5,3c-0.5,1-1.2,2-2,2.9C70,19.9,68.4,20.4,67,20
		c-2.5-0.6-4.9-1.5-7.3-2.4c-1.3-0.5-2.4-1.2-2.7-2.8c-0.1-0.4-0.4-1-1-0.5c-1.5,1.3-3.3,1.1-5,1.5c-2.5,0.5-5,1-7.5,1.4
		c-2.2,0.3-4.4,0.5-6.5,0.8c-0.9,0.1-1.9,0.3-2.8,0.4c-1.5,0.1-3,0.2-4.4,0.4c-0.9,0.1-1.9,0.3-2.8,0.3c-2.6-0.1-5.2-0.4-7.8-0.6
		c-0.2,0-0.5,0-0.7,0c-3.8,0.1-7.3-0.7-10.7-2.3c-1.8-0.9-3.6-1.7-5.3-2.6c-0.9-0.5-1.5-1.3-2.2-2c-0.1-0.1,0-0.5,0.1-0.8
		c0-0.1,0.4-0.1,0.6,0c0.3,0.1,0.6,0.3,1,0.5c0.5,0.2,1,0.5,1.7,0.2c0.6-0.2,1.3-0.1,1.9-0.2c0.2,0,0.4,0,0.5-0.1
		c-0.1-0.1-0.3-0.2-0.4-0.3C4.2,9.8,3,9,1.8,8.2C1.7,8.1,1.5,8.1,1.5,8C1.2,7.5,0.8,7,0.8,6.5c0-0.3,0.8-0.7,1.3-0.7
		c1.7-0.1,3.4,0,5-0.1c0.9,0,1.8-0.2,2.7-0.2c1.2,0,2.4,0.1,3.6,0.1c0.4,0,0.7,0.1,1.1,0.1c4.5,0.1,9.1,0.1,13.6,0.4
		c8.3,0.6,16.5,0,24.8,0.3c2.2,0.1,3.8-0.8,5.1-2.3c2.9-3.3,6.7-4.3,10.9-4.1c1.4,0.1,2.2,1.1,2.9,2.2C72,2.9,71.6,4,70.7,4.7
		c-1.1,0.8-2.1,1.5-3.2,2.2c-0.1,0.1-0.2,0.3-0.3,0.4c0.1,0.1,0.3,0.2,0.4,0.2c0.8,0.1,1.5,0.3,2.3,0.3C70.9,7.9,72,7.9,73,7.4
		c1.6-0.9,3.3-1.2,5.1-1.3c1.3-0.1,2.6-0.2,3.9-0.3c0.3,0,0.6,0,0.9,0c1.5,0.2,1.9,0.9,1.3,2.3c-0.1,0.2-0.2,0.5-0.3,0.6
		c-0.6,0.7-0.4,1.4,0,2.1c0.1,0.2,0.2,0.4,0.3,0.6c0.8,1.3,0.1,1.6-1.1,1.9C82.6,13.4,81.9,13.3,80.8,13.3z"/>
	<path d="M41,9c0.8,0.1,1.6,0.3,2.4,0.3c0.8,0,1.7-0.1,2.4,0.5c0.1,0.1,0.5-0.1,0.8-0.1c0.9-0.1,1.9-0.5,2.7,0.3
		c0.1,0.1,0.2,0.1,0.3,0c0.4-0.1,0.9-0.4,1.3-0.3c3.2,0.3,6.3-0.1,9.5,0c0.3,0,0.6-0.1,0.9,0c0.2,0.1,0.5,0.4,0.5,0.5
		c0,0.2-0.3,0.5-0.5,0.6c-0.2,0.1-0.5,0.1-0.7,0c-1.6-0.4-3.2,0.4-4.7-0.3c-0.2-0.1-0.5,0.2-0.8,0.3c-0.6,0.1-1.3,0.5-1.7,0.2
		c-0.8-0.4-1.6-0.2-2.4-0.2c-3.1-0.1-6.3-0.2-9.4-0.5c-0.5,0-1.5,0.3-1.6-0.9c0-0.1-0.2-0.2-0.3-0.4C39.9,9.1,40.1,9,40.3,9
		c0.2,0,0.4,0.1,0.6,0.2C41,9.2,41,9.1,41,9z"/>
	<path d="M65.1,9.6c1.3-1,2.8-0.7,4.2-0.7c2.3,0,4.5-0.2,6.7,0c0.2,0,0.4-0.1,0.5,0c0.2,0.1,0.6,0.3,0.5,0.4
		c-0.1,0.3-0.3,0.6-0.4,0.7c-1.2,0.1-2.5,0.3-3.7,0.3c-1.5,0-3.1-0.2-4.6-0.2c-0.9,0-1.9,0-2.8,0C65.3,10.1,65.1,9.9,65.1,9.6z"/>
	<path d="M31.8,8.1C33,7.4,34,8.6,35.1,8.4c0.2,0.8,0.5,0.3,0.9,0.2c0.8-0.1,1.6,0.1,2.4,0.2c0.2,0,0.6,0.3,0.6,0.4
		c-0.1,0.4-0.2,0.8-0.8,0.8c-0.9-0.1-1.8-0.2-2.6-0.3c-0.9-0.1-1.9-0.2-2.8-0.3c-0.6-0.1-1.2-0.2-1.7-0.5c-0.2-0.1-0.3-0.4-0.5-0.7
		C30.9,8.1,31.1,8,31.4,8C31.5,7.9,31.7,8.1,31.8,8.1z"/>
	<path d="M21.3,17.4c-0.3-0.2-0.5-0.3-0.6-0.4c0.2-0.2,0.3-0.4,0.5-0.5c0.3-0.1,0.6,0,0.9-0.1c0.1,0,0.3-0.1,0.4-0.2
		c-0.2,0-0.3-0.1-0.5-0.1c-0.2,0-0.3-0.1-0.5-0.1c-0.1,0-0.1-0.2-0.1-0.3c0-0.1,0.1-0.2,0.2-0.3c0,0,0.1-0.1,0.2-0.1
		c1.6-0.1,3.2-0.3,4.8-0.4c0.1,0,0.3,0.1,0.4,0.2c0,0-0.1,0.3-0.2,0.3C24.8,16.2,23.1,16.8,21.3,17.4z"/>
	<path d="M29.2,8.7c-1.1-0.1-2.2-0.2-3.3-0.4c-0.3,0-0.6-0.3-0.8-0.5c-0.2-0.3-0.2-0.6,0.3-0.6c0.4,0,0.8,0.1,1.2,0.1
		c0.9,0.1,1.9,0.1,2.8,0.2c0.3,0,0.6,0.1,0.8,0.3c0.1,0.1,0.1,0.5,0.1,0.7c0,0.1-0.3,0.2-0.5,0.2C29.5,8.8,29.3,8.7,29.2,8.7
		C29.2,8.7,29.2,8.7,29.2,8.7z"/>
	<path d="M65.1,9.6c0.2,0.2,0.3,0.3,0.5,0.5c-0.7,0.2-1.4,0.4-2.2,0.6c-0.2,0-0.7-0.2-0.7-0.3c0-0.3,0.1-0.8,0.4-0.9
		C63.7,9.1,64.4,9.2,65.1,9.6z"/>
	<path d="M8.9,9C9,9.3,9.3,9.6,9.2,9.6C9.1,9.8,8.8,9.9,8.6,10C8.5,9.9,8.3,9.7,8.3,9.5C8.4,9.3,8.6,9.2,8.9,9z"/>
</g>
</svg>
