<?xml version="1.0" encoding="iso-8859-1"?>
<!-- Generator: Adobe Illustrator 25.3.0, SVG Export Plug-In . SVG Version: 6.00 Build 0)  -->
<svg version="1.1" id="Calque_1" xmlns="http://www.w3.org/2000/svg" xmlns:xlink="http://www.w3.org/1999/xlink" x="0px" y="0px"
	 viewBox="0 0 82.1 25.2" style="enable-background:new 0 0 82.1 25.2;" xml:space="preserve">
<g>
	<path d="M61.4,8.7c2.8,0.3,5.5-0.4,8.3-1.3c2.7-0.8,5.4-1.5,8.1-2.2c1.2-0.3,2.5-0.3,3.7-0.4c0.2,0,0.6,0.2,0.6,0.4
		c0,0.2-0.2,0.6-0.4,0.7c-1.1,0.7-2.4,1.4-3.5,2.1C77,9,75.9,10,74.8,10.9c-0.7,0.7-0.6,0.7,0,1.4c1.1,1,2.1,2.1,3.1,3.1
		c0.8,0.8,1.6,1.6,2.4,2.4c0.3,0.3,0.5,0.5,0.7,0.8c0.3,0.4,0.1,0.8-0.3,0.8c-0.6,0.1-1.2,0.1-1.7-0.2c-2.8-1.3-5.8-2.1-8.8-3
		c-0.6-0.2-1.2-0.2-1.7-0.3c-1.5-0.1-3-0.4-4.4-0.2c-1.9,0.2-3.8,0.3-5.5,1.4c-1.1,0.7-2.4,1.3-3.6,1.9c-1,0.4-2,0.6-3.1,0.9
		c-1.1,0.3-2.3,0.4-3.2,0.9c-1.6,0.8-3.3,0.7-4.9,0.4c-1.2-0.2-2.3-0.3-3.3,0.3c-2,1-4,1.3-6.2,1.3c-0.2,0-0.4,0-0.5,0.1
		c0.2,0.1,0.3,0.2,0.5,0.3c0.5,0.3,1,0.6,1.5,1c0.4,0.3,0.3,0.9-0.2,1c-0.7,0.1-1.5,0.3-2.1,0.1c-0.9-0.2-1.8-0.7-2.5-1.2
		c-0.6-0.4-1.1-0.6-1.8-0.5c-1.3,0.2-2.7,0.5-4,0.6c-0.5,0.1-1.1,0.1-1.6,0c-2.7-0.4-5.4-0.9-8.1-1.4c-1-0.2-1.9-0.7-2.9-0.9
		c-0.6-0.1-1.4-0.6-1.9,0.4c0,0.1-0.4,0.1-0.5,0c-0.9-1-2.3-0.9-3.3-1.5c-1.4-0.8-3-1.5-4.4-2.3c-0.3-0.2-0.5-0.6-0.8-0.9
		c-0.3-0.4-0.5-0.8-0.8-1.2c-1.2-1.3-1.1-2.4,0.3-3.4c1.5-1,3-2,4.6-2.6c3.9-1.5,8-2.5,12.3-3c2.3-0.2,4.3-1.1,6.1-2.6
		c2-1.6,4.3-2.9,6.5-4.3C30.9,0.2,31.2,0,31.5,0c0.3,0,0.5,0.1,0.8,0.2c0,0,0,0.4-0.2,0.6c-1,1.1-1.7,2.4-1.8,3.9
		c0,0.5-0.7,0.8-1.1,1.3C29.1,6.1,29,6.2,29,6.3c0.1,0.1,0.2,0.3,0.4,0.3c1.8,0.1,3.7,0.3,5.5,0.4c3.1,0.2,6.2,0.5,9.3,0.7
		c0.2,0,0.4,0,0.5,0c2.8,0.1,5.6,0.2,8.4,0.4c1.1,0.1,2.1,0.2,3.2,0.4c0.8,0.1,1.6,0.3,2.5,0.3C59.6,8.8,60.4,8.7,61.4,8.7z"/>
	<path d="M18.5,19.5c-1.5,0-2.4-0.5-2.8-1.4c-0.2-0.4,0-0.7,0.4-0.8c2.4-0.7,4.9-1.5,7.3-2.2c0.2-0.1,0.5,0,0.8,0
		c-0.1,0.2-0.2,0.4-0.4,0.6c-1.2,1-2.4,2.1-3.7,3C19.5,19.2,18.8,19.4,18.5,19.5z"/>
	<path d="M33,12c1.9,0,3.7,0,5.6,0c0.2,0,0.4,0.2,0.6,0.3c-0.2,0.1-0.4,0.4-0.6,0.4c-1,0-1.9,0-2.9,0c-2.4,0-4.9,0-7.3,0
		c-0.4,0-0.8,0-1.2-0.1c-0.1,0-0.2-0.2-0.3-0.4c0,0,0.1-0.2,0.2-0.2c0.4,0,0.7-0.1,1.1-0.1C29.7,12,31.4,12,33,12C33,12,33,12,33,12
		z"/>
	<path d="M9.3,13.5c-0.2,0.2-0.3,0.4-0.4,0.4c-0.6,0.2-1.1,0.3-1.7,0.5c-0.4,0.1-0.8,0.3-1.2,0.4c-0.7,0.3-1.1,0.6-0.7,1.4
		c0.1,0.1-0.2,0.4-0.3,0.6C5,16.7,5,16.6,4.9,16.4c-0.4-0.6-0.8-1.2-1.2-1.9C3.3,14,3.2,13.4,3.8,13c0.5-0.4,1.3-0.6,1.6,0
		c0.9,1.5,2.1,1,3.3,0.6C8.9,13.5,9.1,13.5,9.3,13.5z"/>
	<path d="M43.9,12.7c-1,0-2,0-3,0c-0.3,0-0.5-0.2-0.7-0.3c0.2-0.1,0.4-0.4,0.7-0.4c1.1,0,2.1,0,3.2,0c1,0,2,0,3,0
		c0.3,0,0.5,0.2,0.7,0.3c-0.2,0.1-0.4,0.4-0.7,0.4C46,12.7,45,12.7,43.9,12.7C43.9,12.7,43.9,12.7,43.9,12.7z"/>
	<path d="M52.5,12.7c-1,0-2,0-3,0c-0.3,0-0.5-0.2-0.7-0.3c0.3-0.1,0.6-0.4,0.8-0.4c1.1,0,2.3,0,3.4,0c0.9,0,1.8,0,2.7,0
		c0.3,0,0.5,0.2,0.7,0.3c-0.2,0.1-0.4,0.4-0.7,0.4C54.7,12.7,53.6,12.7,52.5,12.7C52.5,12.7,52.5,12.7,52.5,12.7z"/>
	<path d="M63.6,11.6c0.6,0,1.2,0.1,1.7,0.2c0.1,0,0.2,0.2,0.3,0.4c-0.1,0.1-0.3,0.2-0.4,0.2c-1.1,0-2.1,0-3.2,0
		c-0.1,0-0.3-0.2-0.4-0.3c0.1-0.1,0.2-0.3,0.3-0.3C62.6,11.7,63.1,11.7,63.6,11.6C63.6,11.7,63.6,11.6,63.6,11.6z"/>
	<path d="M18.4,12.3c-0.4,0-0.8,0-1.2,0c-0.2,0-0.3-0.2-0.5-0.4c0.2-0.1,0.4-0.3,0.6-0.3c0.9,0,1.8,0,2.6,0c0.2,0,0.3,0.2,0.5,0.4
		c-0.2,0.1-0.4,0.3-0.6,0.3C19.4,12.4,18.9,12.3,18.4,12.3C18.4,12.3,18.4,12.3,18.4,12.3z"/>
	<path d="M24.5,12c0.3,0,0.4,0,0.5,0c0.2,0.1,0.3,0.2,0.5,0.4c-0.1,0.1-0.2,0.2-0.4,0.3c-0.2,0-0.5,0.1-0.7,0
		c-0.2-0.1-0.3-0.2-0.5-0.4c0.1-0.1,0.2-0.2,0.4-0.3C24.4,12,24.5,12,24.5,12z"/>
	<path d="M67.8,11.9c-0.2,0.2-0.4,0.4-0.5,0.4c-0.2,0-0.4-0.1-0.6-0.2c0.1-0.1,0.2-0.3,0.3-0.3C67.2,11.7,67.4,11.8,67.8,11.9z"/>
</g>
</svg>
