<?xml version="1.0" encoding="iso-8859-1"?>
<!-- Generator: Adobe Illustrator 25.3.0, SVG Export Plug-In . SVG Version: 6.00 Build 0)  -->
<svg version="1.1" id="Calque_1" xmlns="http://www.w3.org/2000/svg" xmlns:xlink="http://www.w3.org/1999/xlink" x="0px" y="0px"
	 viewBox="0 0 83.7 28" style="enable-background:new 0 0 83.7 28;" xml:space="preserve">
<g>
	<path d="M26.7,6.1c1.2,0,2.4-0.1,3.6,0c1.3,0.1,2.1-0.5,2.9-1.4c1-1.2,2.2-2.4,3.2-3.6C36.6,1,36.8,0.8,37,0.7
		c1.8-1.2,2.4-0.7,2.7,0.9C39.8,2,40,2.5,40.2,3c0.9,2.2,2.5,3.6,4.9,3.8c3.7,0.3,7.3,1,10.9,1.8c0.8,0.2,1.7,0.2,2.3-0.6
		c0.1-0.2,0.4-0.3,0.6-0.4c0.8-0.5,1.3-0.4,1.7,0.5c0.1,0.2,0.1,0.5,0.2,0.7c0.5,0.7,1,1.3,2,1.3c1,0,2,0.4,3,0.6
		c1.5,0.3,2.8,0.1,3.9-1.1c2.1-2.3,4.6-4.1,7.1-5.9c1.6-1.1,3.5-1.9,5.4-2.4c0.3-0.1,0.6-0.1,0.9,0c0.4,0.1,0.8,0.4,0.4,0.9
		c-0.6,0.7-0.8,1.7-1.8,2.1c-0.4,0.1-0.5,0.9-0.8,1.3C79.4,7.6,78,9.8,76.5,12c-0.7,1-0.7,2.1-0.3,3.2c0.6,1.4,1.2,2.7,1.7,4.1
		c0.1,0.3,0.2,0.8,0,1c-0.2,0.2-0.7,0.3-1,0.2c-1.1-0.5-2.2-0.9-3.2-1.5c-1.2-0.8-2.4-1.8-3.5-2.7c-0.3-0.3-0.6-0.5-1-0.8
		c-0.5-0.3-1-0.9-1.5-0.9c-1,0.1-2.1,0.3-3.1,0.7c-0.6,0.3-1,1-1.3,1.6c-0.5,0.8-0.9,1.2-1.5,0.6c-1.6-1.4-3.3-0.6-5-0.4
		c-0.1,0-0.2,0.1-0.3,0.1c-0.9,0.2-1.8,0.6-2.8,0.7c-1.2,0-1,1.1-1.5,1.7c-0.6,0.7-1.1,1.6-1.6,2.4c-0.1,0.2-0.2,0.4-0.3,0.6
		c-0.2,0.6-0.7,0.7-1.2,0.3c-0.7-0.5-1.4-1-1.8-1.6c-0.7-1.1-1.4-1.5-2.8-1.4c-2.9,0.3-5.8,0.4-8.7,0.8c-2.1,0.3-4.2,0.2-6.3,0.2
		c-1.2,0-2.4-0.2-3.6-0.3c-0.8-0.1-1.2,0-1.5,1c-0.4,1.7-1.1,3.2-1,5c0,0.3-0.2,0.7-0.3,1c-0.2,0.6-0.7,0.6-1.1,0.3
		c-0.4-0.3-0.8-0.7-1.1-1.2c-1.2-1.6-2-3.5-2.5-5.5c-0.3-1.2-0.8-1.8-2.2-1.8c-1.6,0-3.2-0.3-4.7-0.7c-1.2-0.3-2.3-0.7-3.4-1.2
		c-1.4-0.6-2.8-1.3-4.2-2c-0.3-0.1-0.6-0.3-0.7-0.5c-0.4-1.3-1.7-1.7-2.7-2.4c-0.1-0.1-0.2-0.1-0.3-0.2c-0.9-0.7-0.8-1.3,0.3-1.6
		C3.3,9.8,5.7,9,8.1,8.3c2.1-0.6,4.2-1,6.3-1.4c1.5-0.3,3.1-0.3,4.6-0.4c2.6-0.2,5.1-0.3,7.7-0.5C26.7,6,26.7,6.1,26.7,6.1z"/>
	<path d="M66.6,12.9c0.2-0.1,0.4-0.3,0.6-0.3c1.4,0,2.7,0,4.1,0c0.2,0,0.3,0.1,0.5,0.1c-0.2,0.1-0.4,0.2-0.5,0.2
		C69.7,13,68.1,12.9,66.6,12.9C66.6,12.9,66.6,12.9,66.6,12.9z"/>
	<path d="M62.3,12.6c0.3,0,0.6,0,0.9,0c0.1,0,0.2,0.1,0.3,0.2c-0.1,0.1-0.2,0.1-0.3,0.1c-0.3,0-0.6,0-0.9,0c-0.4,0-0.8-0.1-1.2-0.1
		c0.4-0.1,0.8-0.2,1.2-0.3C62.3,12.5,62.3,12.6,62.3,12.6z"/>
	<path d="M66.6,12.9c-0.6,0.7-1.3,0.3-2,0.3c-0.1,0-0.2-0.1-0.3-0.2c0.1,0,0.2-0.1,0.3-0.1C65.3,12.9,65.9,13,66.6,12.9L66.6,12.9z"
		/>
	<path d="M33.1,6.2c0.4-0.1,0.8-0.2,1.2-0.2c0.1,0,0.3,0.1,0.4,0.1c-0.1,0.1-0.2,0.3-0.4,0.4C33.9,6.6,33.4,6.7,33.1,6.2L33.1,6.2z"
		/>
	<path d="M4.6,11.9c-0.6,0.4-0.9,0.6-1,0.6c-0.2-0.1-0.3-0.4-0.4-0.6c0.2-0.1,0.4-0.3,0.5-0.3C4,11.6,4.2,11.8,4.6,11.9z"/>
</g>
</svg>
