<?xml version="1.0" encoding="iso-8859-1"?>
<!-- Generator: Adobe Illustrator 25.3.0, SVG Export Plug-In . SVG Version: 6.00 Build 0)  -->
<svg version="1.1" id="Calque_1" xmlns="http://www.w3.org/2000/svg" xmlns:xlink="http://www.w3.org/1999/xlink" x="0px" y="0px"
	 viewBox="0 0 80.7 20.2" style="enable-background:new 0 0 80.7 20.2;" xml:space="preserve">
<g>
	<path d="M72.1,4.4c2.2-3,5.9-2.9,7.8,0.1c0.1,0.1,0.1,0.2,0.1,0.3c0.6,1.9,1,3.9-0.3,5.7c-0.7,1.1-2,1.3-3.1,1.8
		c-0.1,0.1-0.4-0.1-0.5,0c-1.4,0.7-2.6,0.4-3.8-0.4c-0.5-0.4-0.7-0.1-0.7,0.5c0.3,1.8-0.8,2.8-2.2,3.4c-1.1,0.5-2.3,0.9-3.5,1.2
		c-1.7,0.3-3.4,0.9-5.1,0.6c-0.1-1.4,1.1-1.2,1.9-1.4c1.4-0.3,2.8-0.5,4.2-1c0.5-0.2,1-0.3,1.5-0.6c0.6-0.4,1.2-0.8,0.9-1.5
		c-0.2-0.8-1-0.7-1.7-0.7c-4,0.5-7.9,1.2-11.9,1.6c-5.1,0.5-10.1,1.3-15.2,1.4c-0.9,0-1.8,0.1-2.7,0.3c-0.2,0.1-0.6,0-0.5,0.3
		c0,0.2,0.3,0.3,0.5,0.4c1.2,0.4,2.5,0.6,3.7,0.7c5.6,0.4,11.1,0.9,16.7,0c0.9-0.2,1.9-0.4,2.6,0.7c-0.5,0.2-1,0.6-1.5,0.7
		c-1.5,0.2-3.1,0.3-4.6,0.5c-0.8,0.1-1.6,0.2-2.5,0.3c-0.3,0-0.6,0.1-0.9,0c-1.2-0.1-2.5-0.3-3.7-0.3c-3.9-0.1-7.8-0.3-11.7-1.4
		c-0.9-0.3-1.4-0.7-2-1.3c-0.5-0.5-1.1-0.8-1.9-0.6c-2.4,0.5-4.9,0.9-7.3,1.4c-0.3,0.1-0.7,0-1.1-0.1c-0.6-0.1-1.2-0.2-1.8-0.2
		c-0.7,0-1.4,0-2.1,0.1c0.6,0.5,1.1,1.2,1.8,1.5c0.7,0.3,1.5,0.3,2.2,0.5c0.2,0,0.4,0.2,0.6,0.2c-0.1,0.2-0.2,0.4-0.4,0.6
		c-1.6,1.2-3.2,0.9-4.6-0.8c0.1-0.1,0.3-0.2,0.5-0.2c0.2,0,0.4,0.1,0.6,0.2c-0.2-0.1-0.4-0.2-0.6-0.3c-0.2-0.1-0.5,0-0.7,0.1
		c-0.4-0.4-0.8-0.7-1.1-1.1c-0.7-0.7-1.5-1-2.5-1c-1.8,0-3.5,0.4-5.3,0.3c-0.7,0-1.4-0.4-2.1-0.7c-1.6-0.7-3.1-1.4-4.7-2.1
		c-0.7-0.3-1.3-0.6-2-0.9c-1.1-0.5-1.3-0.7-1.1-1.9c0-0.2,0.1-0.5,0.2-0.7C1,9.6,1.2,8.7,0.1,8.2C0,8.1,0,7.9,0,7.7
		c0.2,0,0.3-0.1,0.5-0.1c0.2,0,0.6,0,0.6,0c0.2-0.9,0.5-0.6,0.8-0.1c0.3,0.4,0.5,0.5,0.7,0C2.6,7.3,2.7,7,2.9,6.9
		c0.7-0.6,0.7-1-0.2-1.5c-0.5-0.3-0.4-1.2-1-1.6C1.4,3.6,2.5,2.8,2.9,3c0.6,0.2,1.3,0.5,1.7,0.9C5,4.2,5,4.2,5.2,3.7
		c0.1-0.2,0.6-0.3,0.7-0.3c0.2,0.1,0.3,0.5,0.3,0.7C6.2,4.5,6,4.7,6.1,5c0,0.2,0.3,0.3,0.5,0.4c0-0.1,0-0.3,0-0.4
		c-0.1-0.5,0-0.8,0.6-0.6c0.6,0.1,1.3,0.1,1.9,0.3C10.6,5.1,11.3,5,12,3.8c0.8-1.4,2.1-1.9,3.5-2.3c1.6-0.4,3.3-0.6,5-0.7
		c1.9-0.1,3.8,0,5.8-0.1c0.8,0,1.5-0.2,2.3-0.2c0.3,0,0.6-0.1,0.9,0c1.3,0.1,2.6,0.1,3.9,0.1c1.7-0.1,3.5,0.4,5.3,0.5
		c1.2,0.1,2.5,0.2,3.7,0.2c1.8,0,3.7-0.2,5.5,0c0.7,0.1,1.4,0,1.9-0.2c3.7-1.5,7.6-1.1,11.3-1c2.9,0.1,5.7,0.9,8.6,1.4
		C71,1.8,72,2.5,71.9,4.2C71.8,4.3,72,4.4,72.1,4.4c0.1,1.3-0.6,2.9-1.7,3.2c-1.5,0.3-3,0.7-4.6,0.4c-4.7-0.7-9.4-0.9-14.1-1.3
		c-4.8-0.4-9.6-0.1-14.4-0.3C33.5,6.2,29.8,5.5,26,5.5c-5.2-0.1-10.5-0.5-15.6,0.8C9.2,6.7,8.3,7,8.6,8.6c0.2,1.2-0.6,2-1.6,2.6
		c-0.5,0.3-1,0.1-1.6,0.2c-0.7,0.1-0.4-1.2-0.6-0.7c-0.3,0.6,0.6,0.6,1.1,0.7C6.4,11.6,7,11.6,7,12c0.1,2.2,1.5,0.6,2.2,0.6
		c0.6,0.1,1.1-0.5,1.6-0.7c0.6-0.3,1.2-0.2,1.6,0.4c0.4,0.7,0,1.2-0.6,1.5c-1,0.4-1.8,1.2-2.9,1c-0.1,0-0.2,0-0.3,0
		c-0.2,0-0.2-0.1,0,0c0.1,0,0.2,0,0.3,0c2.8,1.1,5.1,0.3,7.2-1.6c0.8-0.8,0.9-1.9,1.4-2.9c0-0.2,0.1-0.3,0.1-0.5
		c0.2-0.6,0.2-1.2-0.2-1.8c-0.1-0.2-0.3-0.4-0.4-0.6c-0.4-0.9-0.1-1.4,0.8-1.5c0.9-0.1,1.6,0.4,1.8,1.4c0.4,1.7,0.4,3.2-0.4,4.8
		c-1.3,2.5-0.8,3.1,1.9,3.4c3,0.3,5.8-0.2,8.6-0.9c4.3-1.1,8.8-1.4,13.2-1.6c5.6-0.3,11.1-1.1,16.6-1.9c2.2-0.3,4.4-0.5,6.6-0.9
		c0.5-0.1,1.1-0.1,1.6-0.3c2-0.8,3.8-1.5,5.7,0.7c1,1.2,3,0.5,4.4-0.3c1.2-0.8,1.3-2,1.1-3.3c-0.4-2.2-2.1-3.2-4.2-2.4
		C73.7,4.6,73,5.4,72.1,4.4z"/>
	<path d="M14.4,13.3c0.7-0.7,1.3-1.5,2-2.2c0.8-0.9,1.2-2,0.9-3.2c-0.1-0.4,0.1-0.5,0.4-0.5c0.2,0.2,0.3,0.3,0.5,0.5
		c0.2,0.7,0.3,1.4-0.1,2l0,0c-0.8,1-1.6,2.1-2.5,3c-0.3,0.3-0.7,0.4-1,0.6c-0.1,0-0.2,0.1-0.3,0.1C14.3,13.5,14.4,13.4,14.4,13.3z"
		/>
	<path d="M23.8,5c0.8,0.2,1.6,0.2,2.2,0.5c1.3,0.7,2.6,1.5,3.7,2.4c0.8,0.6,0.9,1.4,0.4,2.2c-1,1.7-2.1,3.3-4.2,4
		c-1.4,0.5-2.7,1-4.1,0.1c-0.5-0.3-1-0.5-1.4-0.8c0.7-0.6,1.2,0.1,1.7,0.3c1.7,0.7,3.2,0.2,4.6-0.7c1-0.7,1.8-1.6,2.5-2.6
		c0.7-0.9,0.6-1.6-0.3-2.3c-1.2-0.9-2.5-1.9-4-2.2c-1.4-0.3-2.6,0-3.5,1.2C21,7.8,20.4,8.3,20,8.9c-0.1,0.1-0.2,0.1-0.3,0
		c-0.1-0.1-0.1-0.3-0.1-0.3c0.9-1,1.7-2.1,2.7-3C22.6,5.2,23.3,5.2,23.8,5z"/>
	<path d="M14.6,13.5c-1.2,0.7-2.5,1.4-3.7,2c-0.1,0.1-0.3-0.1-0.5-0.1c0.1-0.1,0.2-0.4,0.3-0.4c1.2-0.6,2.5-1.1,3.8-1.7
		C14.5,13.3,14.5,13.4,14.6,13.5z"/>
	<path d="M13.9,6.7c0.3,0.4,0.6,0.8,0.9,1.2c0,0.1,0,0.2-0.1,0.3c0,0-0.1,0-0.1,0c-0.4-0.4-0.7-0.7-1.1-1.1c0,0,0-0.1,0-0.2
		C13.5,6.8,13.7,6.8,13.9,6.7z"/>
	<path d="M15.8,6.4C15.9,7,16,7.3,16,7.5c0,0.2-0.3,0.3-0.4,0.4c-0.1-0.2-0.3-0.4-0.3-0.5C15.3,7.2,15.5,6.9,15.8,6.4z"/>
</g>
</svg>
