<?xml version="1.0" encoding="iso-8859-1"?>
<!-- Generator: Adobe Illustrator 25.3.0, SVG Export Plug-In . SVG Version: 6.00 Build 0)  -->
<svg version="1.1" id="Calque_1" xmlns="http://www.w3.org/2000/svg" xmlns:xlink="http://www.w3.org/1999/xlink" x="0px" y="0px"
	 viewBox="0 0 68.1 53.1" style="enable-background:new 0 0 68.1 53.1;" xml:space="preserve">
<g>
	<path d="M68.1,30.2c-0.1,0.7-0.2,1.5-0.4,2.3c-0.7,1.9-1.4,3.8-2.1,5.6c-0.3,0.7-0.6,0.7-1.4,0.6c-1.8-0.4-3.6-0.9-5.2-1.8
		c-1.7-0.9-3.5-1.8-5.3-2.6c-0.4-0.2-0.8-0.3-1.2-0.4c-0.1,0-0.3,0.1-0.4,0.1c0.1,0.1,0.1,0.2,0.2,0.3c2.1,0.8,2.8,2.6,3.4,4.5
		c0.3,0.9,0.6,1.8,1,2.7c0.4,0.8,0.3,1.6-0.1,2.4c-1.7,3.3-4.2,5.9-7.6,7.5c-1.2,0.6-2.6,1-3.9,0.3c-0.2-0.1-0.4-0.2-0.5-0.2
		c-0.9,0.4-1.4-0.2-2-0.8c-0.1-0.1-0.2-0.1-0.3-0.2c0,0.2,0,0.3,0,0.5c0,0.2,0.2,0.3,0.2,0.5c0,0.2-0.1,0.3-0.1,0.5
		c-0.2,0-0.3-0.1-0.5-0.2c-0.8-0.8-1.6-1.6-2.4-2.4c-0.6-0.6-0.6-0.6-1.1,0.2c-0.6,0.9-0.7,0.9-1.1,0c-0.5-1.2-0.9-2.4-1.3-3.7
		c-0.4-1.3-0.4-1.2-1.7-1.4c-1.7-0.2-3.4-0.4-5.1-0.7c-0.2,0-0.3,0-0.5,0.1c0.1,0.1,0.1,0.3,0.2,0.4c1,1,1.3,2.3,0.8,3.6
		c-0.5,1.6-0.9,3.1,0.1,4.6c0,0.1,0,0.3,0,0.3c-0.1,0.1-0.3,0.2-0.5,0.1c-0.7-0.4-1.4-0.7-2-1.1c-3.3-2.1-5.5-5-6.8-8.6
		c-0.3-0.9-0.7-1.4-1.7-1.6c-4.1-0.7-7.5-2.6-10.4-5.4c-0.1-0.1-0.2-0.2-0.3-0.2c-2.5-1.1-4.4-3-6.4-4.7c-0.5-0.4-1-1-1.4-1.6
		c-0.5-0.8-0.3-1.4,0.6-1.9c0.2-0.1,0.3-0.1,0.5-0.2c3.4-0.6,5.1-3,6.5-5.8c1-2,2.1-3.8,3.3-5.7c0.6-1,1.4-1.9,2-2.9
		c0.2-0.3,0.3-0.7,0.3-1.1c0-1.4-0.2-2.7-0.2-4.1c0-0.2,0.1-0.4,0.2-0.6c0.2,0.1,0.4,0.3,0.6,0.4c0.2,0.1,0.3,0.3,0.5,0.4
		c0-0.2,0-0.3,0-0.5C14.7,7,14.8,6.2,15,5.4c0.1-0.5,0.4-0.5,0.7-0.2c0.3,0.3,0.5,0.2,0.7-0.1c0.1-0.3,0.1-0.6,0.2-0.9
		c0.1-0.3,0.3-0.9,0.4-0.9c0.5-0.1,0.5,0.5,0.7,0.9c0,0.1,0.2,0.2,0.3,0.2c0.1-0.1,0.3-0.2,0.3-0.4c0.2-0.8,0.6-1.5,1.3-2.1
		c0.2-0.1,0.4-0.2,0.6-0.3c0,0.2,0,0.4,0,0.6c0,0.2,0,0.3,0,0.5c0.2-0.1,0.4-0.2,0.5-0.4c0.2-0.3,0.3-0.7,0.5-0.9
		c0.2-0.3,0.5-0.3,0.7,0.1c0.1,0.3,0.2,0.5,0.4,0.8c0.1,0.1,0.1,0.3,0.2,0.4c0-0.1,0.1-0.2,0.1-0.3c0.1-0.2,0.2-0.5,0.3-0.6
		c0.3-0.4,0.6-0.7,0.9-1.1c0.3,0.3,0.5,0.7,0.8,1c0.1,0.1,0.2,0.3,0.3,0.4c0.3,0.4,0.5,0.4,0.7-0.1c0.4-0.7,0.9-1.3,1.5-2
		c0.2-0.2,0.5-0.3,0.6,0.2c0.1,0.5-0.2,1.2,0.4,1.4c0.2,0.1,0.6-0.7,0.9-1c0.2-0.2,0.4-0.3,0.6-0.4c0.1,0.3,0.2,0.5,0.3,0.8
		c0.1,0.2,0.1,0.5,0.2,0.7c0.1,0.3,0.3,0.6,0.6,0.2c0.2-0.3,0.5-0.5,0.8-0.8c0.4-0.3,0.7-0.4,0.9,0.2c0,0.2,0.1,0.3,0.2,0.5
		c0.2,0.4,0.3,0.8,0.8,0.2C33.6,2,33.8,1.9,34,1.7c0.6-0.4,0.8-0.3,1,0.4c0.2,0.7,0.6,1.1,1.3,0.8c0.6-0.2,0.9-0.2,1.2,0.4
		c0.1,0.1,0.2,0.4,0.3,0.4c1-0.1,1.7,0.5,2.4,1.2c0.1,0.1,0.4,0.1,0.6,0.1c0.3,0,0.7-0.1,0.8,0c0.9,1,2.3,0.9,3.4,1.3
		c2.9,1,5.8,2.2,8.4,3.9c2.6,1.7,4.8,3.9,6.3,6.7c0.8,1.6,0.7,2.8-0.7,4c-1.6,1.4-3.3,2.7-4.9,4.1c-0.6,0.5-1.1,1-1.7,1.5
		c0.7-0.2,1.4-0.3,2.1-0.6c2.4-1.1,4.7-2.3,7.1-3.3c1-0.4,2-0.7,3.1-0.9c0.6-0.1,1,0.2,1.3,0.7C67,24.8,67.9,27.3,68.1,30.2z"/>
</g>
</svg>
