<?xml version="1.0" encoding="iso-8859-1"?>
<!-- Generator: Adobe Illustrator 25.3.0, SVG Export Plug-In . SVG Version: 6.00 Build 0)  -->
<svg version="1.1" id="Calque_1" xmlns="http://www.w3.org/2000/svg" xmlns:xlink="http://www.w3.org/1999/xlink" x="0px" y="0px"
	 viewBox="0 0 235.3 102.4" style="enable-background:new 0 0 235.3 102.4;" xml:space="preserve">
<g>
	<path d="M165.4,31.6c0.6-0.2,2-0.4,3.2-1c4.5-2.2,7.1-1.7,9.8,2.4c2.1,3.1,2.8,3.7,5.9,2.7c3-0.9,6-2,8.6-3.7
		c7.3-4.7,14.3-9.6,21.5-14.5c2.2-1.5,4.3-3.2,6.6-4.4c2.9-1.5,6.1-2.6,9.2-3.6c1.1-0.3,2.6,0.3,3.8,0.7c1.3,0.5,1.7,1.6,0.9,2.8
		c-0.4,0.7-1,1.3-1.5,2c-1.3,1.8-2.1,3.6-2.4,5.9c-0.4,2.9-0.9,5.9-3,8.3c-0.5,0.6-0.6,1.5-0.8,2.3c-0.9,3.1-2.5,5.7-4.7,8.1
		c-2.3,2.4-4.3,5-6.2,7.8c-1.7,2.5-1.8,3.1,0.7,5.1c4.4,3.5,6.9,8.5,10.1,12.9c2.8,3.8,4.5,8.8,4.6,13.9c0.1,3.7,1.4,7.5-0.2,11.2
		c-0.2,0.6,0.6,1.5,0.8,2.3c0.4,2.1,0.9,4.2,0.9,6.3c0,2.6-1.4,3.9-3.8,3.2c-4.7-1.3-9.2-2.9-12.6-6.7c-2.9-3.2-5.9-6.4-8.7-9.6
		c-5.6-6.3-11.3-12.7-16.8-19.1c-3.4-4-7.7-5.3-12.8-4.7c-1.5,0.2-3,0.3-4.5,0.4c-0.4,0-0.8,0.2-1.3,0.3c0.4,0.2,1,0.3,1.3,0.6
		c1,1.1,2.1,2.1,2.7,3.4c2.3,5.3,4.4,10.7,6.6,16.1c0.2,0.5,0.5,0.9,0.6,1.4c0.6,2-0.5,3.4-2.6,2.9c-1.9-0.4-3.9-1.1-5.6-2
		c-5.9-3-12.2-5.3-17-10.3c-3.6-3.7-8.4-3.3-12.7-2.3c-7.3,1.6-14.6,2.6-22,3.7c-1.2,0.2-1.8,0.1-0.9,1.6c2.1,3.5,3.2,7.6,6.3,10.6
		c1.8,1.8,0.4,4-2.2,3.7c-2.4-0.3-4.9-1-7.1-1.9c-8-3.2-15.9-6.6-24-9.8c-1.7-0.7-3.5-1.1-5.3-1.1c-6.2-0.1-12.5-1-18.4,0.2
		c-5.2,1.1-9.6-0.3-14.3-1.3c-5-1-10.1-1.8-15-3.2c-5.9-1.7-11.7-3.7-17.3-6.1c-5.8-2.5-11.4-5.3-16.9-8.4c-2.5-1.4-4.8-3.5-6.8-5.8
		c-3.1-3.5-3-7.5,0.5-10.6c2-1.8,4.7-3.1,7.3-4.1c4.5-1.8,9.1-3.1,13.6-4.7c5-1.8,10-3.5,14.9-5.5c7.4-2.9,15.2-4.5,23.1-5.8
		c6.7-1.1,13.4-2,20.1-2.9c2.8-0.3,5.7-0.2,8.5-0.2c4.9-0.1,9.4-1.1,13.2-4.7c1.9-1.8,4.5-2.8,6.7-4.3c3-2.1,5.9-4.3,8.9-6.3
		c4.1-2.9,8.4-5.5,13.5-5.8c5.1-0.3,6.3,0.7,6.8,5c0.3,2.3,1.4,4.5,1.4,6.8c0,3.1-0.3,6.3-1.2,9.2c-0.8,2.7-3.8,3.4-6.3,4.3
		c-0.5,0.2-0.9,0.3-1.4,0.5c0.4,0.1,0.8,0.3,1.3,0.3c9.1,1,18.1,2,26.9,4.5C161.5,31.1,163,31.2,165.4,31.6z"/>
	<path d="M77.7,75.6c-9.6-1.1-17.7-2.9-25.4-6.4c-0.4-0.2-1-0.8-0.9-1c0.2-0.6,0.6-1.4,1-1.5c2-0.2,4-0.5,5.9-0.2
		c6.2,0.8,12.4,1.7,18.6,2.8c2.8,0.5,5.5,1.2,8.2,2c0.4,0.1,0.8,0.7,0.8,1c0,0.4-0.4,1-0.8,1.1C82.4,74.3,79.5,75.1,77.7,75.6z"/>
	<path d="M49.3,50.1c-0.3,1.2-0.8,3.4-1.3,5.7c-1.4,6.1-1.4,6.3-5.9,10.1c-1.4,1.1-3.1,1.9-4.7,2.6c-0.8,0.3-2.5,0.4-2.6,0.2
		c-0.4-1.5,1.1-1.1,1.8-1.6c2.5-1.6,4.9-3.3,7.3-5.1c0.4-0.3,0.8-1.1,0.8-1.6c0-3,1.6-5.6,2.4-8.4c1-3.5,0.7-6.2-2.1-8.4
		c-1.5-1.2-3.4-2-5.2-2.9c-0.1-0.1-0.7,0.6-1,0.9c-1.2,1.5-2-0.2-2.9-0.5c-0.5-0.2-1.1-1.3-1-1.8c0.2-1.1,0.7-2.3,2.4-1.5
		c2.6,1.2,5.2,2.2,7.7,3.4C48,42.8,49.2,45.2,49.3,50.1z"/>
	<path d="M20.2,43.4c0.9-0.7,1.7-1.5,2.7-2.1c3-2.1,8.4-1.5,10.8,1.2c1.9,2.1,1.8,3.7,0,6.4c-0.3,0.4-0.3,0.9-0.4,1.4
		c0.6,1.8-0.8,2.3-1.9,3c-1.9,1.1-4,1.4-6.2,0.8c-1.9-0.6-3.6-1.3-3.2-3.8c-0.1-0.5,0.1-1.3-0.2-1.4C19.5,47.4,19.7,45.4,20.2,43.4
		L20.2,43.4z"/>
	<path d="M101.2,21.3c7.5-0.4,14.7,1.6,21.9,3.1c0.8,0.2,1.4,1.2,2.1,1.9c-2.4-0.3-4.8-0.7-7.3-1c-4.7-0.7-9.4-1.4-14.1-1.9
		C102.4,23.3,101.2,23.2,101.2,21.3z"/>
	<path d="M10.4,54.5c0.3,0.1,0.6,0.2,0.9,0.4c3.9,3.2,8.9,4.2,13.5,6.1c2.5,1.1,5.5,1,8.2,1.5c0.3,0.1,0.6,0.6,0.9,0.9
		c-0.3,0.3-0.7,0.8-1,0.8c-3.1-0.5-6.3-0.7-9.1-1.9c-4.1-1.6-8.6-2.4-12.2-5.3c-0.6-0.5-1.2-1.1-1.8-1.7c-0.1-0.1-0.2-0.4-0.2-0.4
		C9.9,54.7,10.1,54.6,10.4,54.5z"/>
	<path d="M95.2,77.4c0.4-0.7,0.6-1.7,1.2-1.9c4.6-1.8,9.4-1.7,14.1-0.4c0.5,0.1,0.8,0.8,1.1,1.2c-0.6,0.2-1.2,0.5-1.7,0.5
		C105,76.1,100,76.3,95.2,77.4L95.2,77.4z"/>
	<path d="M22,50.2c1.1,1.1,2.2,2.1,3.2,3.2c0.1,0.2,0.2,0.3,0.3,0.5c-0.1,0.2-0.2,0.3-0.4,0.5c-3.8,1-3.8,1-6.1-2
		c-1.2-1.6-2.3-3.2-3.4-4.9c-0.1-0.2,0-0.7,0.2-0.8c0.2-0.1,0.7-0.1,0.9,0c0.4,0.3,0.9,0.6,1,1C18.3,50.2,20.5,49.6,22,50.2z"/>
	<path d="M31.1,52.4c0.7-0.7,1.5-1.4,2.2-2.2c0.6,0.2,2.1-1.2,1.7,0.4c-1.1,4.2-5.4,5.7-9.7,3.8l0,0C27,53.4,29.5,54.2,31.1,52.4z"
		/>
	<path d="M169.3,33.3c0.8,0.2,1.6,0.4,2.3,0.7c0.8,0.4,2.6-0.1,2.1,1.7c0,0.2-2,0.1-2.9-0.3c-0.7-0.3-1.1-1.3-1.7-1.9L169.3,33.3z"
		/>
	<path d="M20.2,43.4c-0.9,0.4-1.7,0.9-2.6,1.3c-0.3,0.1-0.8-0.1-1.2-0.1c0.2-0.4,0.2-1,0.5-1.3c0.8-0.6,1.7-0.9,2.6-1.4
		C19.7,42.4,19.9,42.9,20.2,43.4L20.2,43.4z"/>
	<path d="M31.2,45.4c1.2,2.2,0.6,4.3-1.2,5.4c-2.3,1.4-4.4,0.2-6-1.7c-0.9-2.6-0.2-4.7,2.2-5.8C28.3,42.3,30,43.6,31.2,45.4z"/>
</g>
</svg>
