<?xml version="1.0" encoding="iso-8859-1"?>
<!-- Generator: Adobe Illustrator 25.3.0, SVG Export Plug-In . SVG Version: 6.00 Build 0)  -->
<svg version="1.1" id="Calque_1" xmlns="http://www.w3.org/2000/svg" xmlns:xlink="http://www.w3.org/1999/xlink" x="0px" y="0px"
	 viewBox="0 0 81.4 32.4" style="enable-background:new 0 0 81.4 32.4;" xml:space="preserve">
<g>
	<path d="M78.8,28.3c-1.1-0.2-2.2-0.4-3.3-0.7c-3.9-1.2-7.5-3-11-5c-1.4-0.8-2.9-1.5-4.3-2.3c-0.8-0.5-1.7-0.3-2.6-0.4
		c-0.5,0-0.2,0.4-0.3,0.5c-0.5,0.5-0.9,1.1-1.5,1.4c-1.2,0.8-2.3,1.7-2.7,3.2c-0.2,0.6-0.6,0.6-1.1,0.4c-0.4-0.2-0.9-0.5-1.2-0.8
		c-1.1-1.6-2.4-1.6-4.1-0.8c-1.7,0.8-3.6,1.2-5.4,1.7c-0.5,0.1-0.7,0.3-0.4,0.8c0.3,0.4,0.2,0.9,0,1.3c-0.7,1.4-1.3,2.8-2,4.2
		c-0.3,0.6-0.9,0.8-1.5,0.2c-0.6-0.5-1.1-1.1-1.5-1.8c-0.5-0.9-0.9-1.8-1.3-2.7c-0.3-0.8-0.8-1.3-1.8-1.3c-2.9,0-5.8-0.2-8.8-0.3
		c-1-0.1-2-0.2-3-0.3c-0.7-0.1-0.6,0.3-0.5,0.7c0.2,0.9,0.3,1.9,0.4,2.8c0,0.7-0.5,1-1.1,0.5c-1.6-1.3-3.1-2.6-4-4.5
		c-0.3-0.6-0.7-0.9-1.5-1.1c-3-0.5-5.9-1.3-8.7-2.4c-1.3-0.5-2.6-1.1-3.9-1.8c-0.6-0.3-1.1-0.8-1.5-1.3c-0.7-0.8-0.4-1.7,0.5-2.2
		c1.6-0.7,3.1-1.4,4.8-2C11,12.7,16.3,11,21.8,9.9c2.4-0.5,4.8-0.6,7.3-0.8c1.3-0.1,2.2-0.4,2.9-1.6c1.7-3,4.1-5.4,7.1-7.1
		c0.2-0.1,0.4-0.2,0.6-0.3c0.6-0.2,0.9,0,0.8,0.7c0,0.3-0.2,0.6-0.3,0.8c-0.3,0.8-0.5,1.7-0.7,2.5c-0.3,1.6,0.2,2.4,1.8,2.9
		c0.6,0.2,1.2,0.3,1.7,0.6c0.9,0.5,0.9,1.1,0.1,1.6c-0.1,0.1-0.3,0.2-0.5,0.3c-0.2,0.1-0.3,0.1-0.5,0.2c0.1,0,0.3,0.1,0.4,0.1
		c1.3,0.3,2.6,0.7,4,1c2.5,0.6,5,1.2,7.4,1.8c1.5,0.4,3,0.8,4.5,1c0.7,0.1,1.5-0.3,2.2-0.7c2.2-1.3,4.4-2.7,6.5-4.1
		c2.3-1.5,4.9-2.5,7.5-3.4c1.5-0.5,3.1-0.9,4.6-1.3c0.1,0,0.2-0.1,0.3-0.1c0.6,0.1,1.3,0.2,1.9,0.2c-0.1,0.8-0.9,0.8-1.4,1.1
		c-2.1,1.4-4.2,2.7-6.2,4.2c-2.2,1.6-4.4,3.3-6.2,5.3c-1,1.2-1.1,1.6-0.2,2.9c0.3,0.4,0.5,0.8,0.9,1.1c2.8,2.3,5.7,4.5,8.5,6.7
		c0.8,0.6,1.8,1.1,2.7,1.7c0.2,0.1,0.3,0.4,0.4,0.6c-0.2,0.1-0.3,0.1-0.5,0.2c-0.2,0-0.4,0-0.5,0C78.8,28.2,78.8,28.2,78.8,28.3z"/>
	<path d="M35.9,16.3c2.4,0,4.8,0,7.2,0c0.2,0,0.5,0.1,0.7,0.1c-0.2,0.1-0.4,0.2-0.6,0.2c-4.8,0-9.7,0-14.5,0c-0.2,0-0.4-0.1-0.6-0.2
		c0.2-0.1,0.4-0.1,0.7-0.1C31.1,16.3,33.5,16.3,35.9,16.3C35.9,16.3,35.9,16.3,35.9,16.3z"/>
	<path d="M22.6,16c1.3,0,2.6,0,3.9,0c0.2,0,0.4,0.1,0.7,0.1c-0.2,0.1-0.4,0.2-0.6,0.2c-2.8,0-5.6,0-8.4,0c-0.2,0-0.4-0.1-0.6-0.2
		c0.2,0,0.3-0.1,0.5-0.1C19.6,16,21.1,16,22.6,16C22.6,16,22.6,16,22.6,16z"/>
	<path d="M10.1,18.8c-0.1,0.2-0.1,0.3-0.2,0.3c-0.1,0-0.3,0-0.3-0.1c-0.2-0.4-0.4-0.8-0.5-1.3c0-0.1,0.1-0.3,0.2-0.4
		c0.1,0.1,0.2,0.2,0.2,0.3C9.7,18,9.9,18.4,10.1,18.8z"/>
	<path d="M14.9,16c0,0-0.4-0.1-0.8-0.2c0.4,0,0.8-0.1,1.2-0.1c0.4,0,0.7,0,1.1,0c0.2,0,0.3,0.1,0.5,0.2c-0.2,0.1-0.3,0.2-0.5,0.2
		C16,16,15.6,16,14.9,16z"/>
</g>
</svg>
