<?xml version="1.0" encoding="iso-8859-1"?>
<!-- Generator: Adobe Illustrator 25.3.0, SVG Export Plug-In . SVG Version: 6.00 Build 0)  -->
<svg version="1.1" id="Calque_1" xmlns="http://www.w3.org/2000/svg" xmlns:xlink="http://www.w3.org/1999/xlink" x="0px" y="0px"
	 viewBox="0 0 82.5 24" style="enable-background:new 0 0 82.5 24;" xml:space="preserve">
<g>
	<path d="M42.8,0c3.3-0.1,6.6,0.3,9.9,0.6c4.2,0.3,8.1,1.6,12.2,2.5c1,0.2,1.8,1,2.8,1.6C67.8,4.8,67.9,5,68,5.2
		c0.3,0.9,0.4,1,1.2,0.8c1.8-0.5,3.5-1,5.3-1.5C75.2,4.3,76,4,76.7,4c0.9,0.1,1.9,0.3,2.7,0.8c2.1,1.4,3.5,3.3,3,6
		c-0.1,0.3-0.2,0.7-0.4,1c-0.4,0.5-0.9,1-1.4,1.4c-1.7,1.6-3.6,2.4-6.1,1.6c-2-0.6-4-1-6.1-1.4c-0.6-0.1-1.2-0.1-1.8-0.1
		c-0.5,0-1-0.1-0.3,0.6c0.2,0.2,0,0.8-0.2,1.1c-0.3,0.4-0.8,0.7-1.3,0.9c-1.5,0.5-2.9,0.9-4.4,1.4c-1.2,0.4-2.4,0.8-3.6,1
		c-1.3,0.2-2.6,0.3-3.8,0.4c-1.9,0.2-3.8,0.5-5.7,0.6c-2.3,0.1-4.7,0.1-7,0.1c-0.4,0-0.8-0.2-1.1-0.5c-1.8-1.6-4-1.3-6.1-1.2
		c-1.1,0-2.2,0.2-3.4,0.3c-0.1,0-0.3,0.1-0.4,0.1c0.1,0.1,0.2,0.3,0.4,0.4c0.7,0.4,1.4,0.7,2.1,1.1c0.9,0.5,1.9,2.7,1.6,3.7
		c-0.1,0.5-0.7,0.9-1.3,0.6c-0.8-0.4-1.7-0.9-2.4-1.5c-1.3-1.2-2.5-2.6-3.7-3.9c-0.4-0.4-0.8-0.5-1.3-0.5c-3.8-0.4-7.5-0.2-11.3-0.4
		c-3.4-0.1-6.8-0.3-9.9-1.8c-1.1-0.5-2.1-1.1-3.1-1.8c-0.5-0.3-0.7-0.7-0.4-1.4c0.4-1,1-1.7,2.1-2c3.7-1.3,7.4-2.5,11.1-3.9
		c2.9-1,5.8-1.6,8.8-2.2c1.5-0.3,2.9-0.8,3.8-2.1c0.9-1.4,2.4-1.7,3.9-1.8c2.7-0.3,5.3-0.5,8-0.7C39.5-0.1,41.2,0,42.8,0z"/>
</g>
</svg>
