<?xml version="1.0" encoding="iso-8859-1"?>
<!-- Generator: Adobe Illustrator 25.3.0, SVG Export Plug-In . SVG Version: 6.00 Build 0)  -->
<svg version="1.1" id="Calque_1" xmlns="http://www.w3.org/2000/svg" xmlns:xlink="http://www.w3.org/1999/xlink" x="0px" y="0px"
	 viewBox="0 0 80.1 31.1" style="enable-background:new 0 0 80.1 31.1;" xml:space="preserve">
<g>
	<path d="M3.9,15c2.2,0.2,4.3-0.5,6.3-1.7c1.1-0.6,2.2-1.4,3.4-2c0.7-0.3,1.5-0.7,2.2-0.6c2.2,0.1,4.3-0.5,6.3-1.1
		c0.3-0.1,0.6-0.3,0.9-0.2c1.8,0,2.6-1.2,3.6-2.5c1.6-2.2,3.4-4.3,5.2-6.3C32,0.1,32.5-0.4,33,0.4c0.1,0.1,0.5-0.1,0.7-0.1
		c0.2,0,0.5-0.1,0.7-0.1c-0.2,0.6,1.1,0.2,0.7,1.1c-0.4,0.7,0.4,0.7,0.7,1c-0.3,0.3-0.6,0.7-1,1c0.1,0.1,0.2,0.2,0.3,0.3
		c0.3,0.1,1.2-0.1,0.3,0.6c-0.1,0.1-0.4,0.3-0.3,0.4c0.2,1.6-0.9,2.6-1.5,3.9c-0.2,0.5,0,0.8,0.6,0.8c0.7,0,1.4,0.2,2.1,0.2
		c0.3,0,0.6-0.1,0.8-0.2c0.6-0.4,1.1-0.9,1.7-1.2c0.4-0.3,1-0.5,1.5-0.5c2.7,0,5.3,0,8,0.6c3.1,0.6,6.2,0.9,9.3,1.5
		c2.7,0.5,5.3,1.2,8,1.8c0.6,0.1,1.1,0.4,1.7,0.7c0.5,0.3,0.8,0.8,0.6,1.3c-0.6,1.1,0.2,0.6,0.5,0.5c2.1-0.8,4.2-1.7,6.3-2.5
		c0.7-0.3,1.5-0.4,2.2-0.6c1.5-0.4,2.2,0,2.8,1.3c0.1,0.2,0.2,0.4,0.3,0.7c0.1,2.4,0.3,4.7-0.6,7c-0.1,0.3-0.2,0.5-0.4,0.8
		c-0.6,1-1.1,1.2-2.2,0.9c-2.4-0.8-4.8-1.3-7-2.5c-0.4-0.2-0.8-0.5-0.8,0.4c0,1.6-0.1,1.7-1.7,2.1c-3.7,0.9-7.4,1.8-11.1,2.7
		c-0.9,0.2-1.8,0.2-2.6,0.4c-1.8,0.2-3.4,0.8-5.3,0.8c-1.9,0-3.6-0.2-5.3-0.9c-0.6-0.3-1.1-0.8-1.5-1.3c-1.3-1.4-2.8-1.4-4.4-0.9
		c-0.7,0.2-1.4,0.3-2.1,0.4c-0.6,0.1-1.3,0.2-1.9,0.3c-1.2,0.1-2.4,0.4-3.4-0.5c-0.3-0.2-0.8-0.2-1.2-0.3c-0.1,0-0.2,0-0.3,0
		c0,0.1,0,0.2,0.1,0.3c1.1,1.3,2.1,2.5,3.2,3.8c0.4,0.5,0.9,0.9,1.4,1.3c0.5,0.5,1.1,0.9,1.6,1.4c0.4,0.3,0.8,0.5,1.2,0.7
		c0.5,0.3,0.9,0.5,1.4,0.8c0.1,0.1,0.2,0.4,0.2,0.6c0,0.1-0.3,0.2-0.4,0.2c-1,0.1-2-0.2-2.9-0.6c-2-0.9-3.8-2.2-5.4-3.7
		c-1.4-1.2-2.6-2.6-3.9-3.9c-1-1-1.9-1.5-3.5-1.2c-1.8,0.4-3.7,0.3-5.5-0.2c-2.4-0.6-4.8-1.2-7.3-1.8c-0.8-0.2-1.6-0.5-2.4-0.7
		c-1.3-0.3-2.6-0.7-4-1c-0.3-0.1-0.6-0.1-0.9-0.2c-0.6-0.3-1-1-0.9-1.6C0.2,15.5,0.6,15,1.3,15C2.1,14.9,2.9,15,3.9,15z"/>
	<path d="M24.6,13.3c-0.3,0.2-0.6,0.5-0.8,0.5c-0.2,0-0.4-0.4-0.6-0.7c0.2,0,0.5,0,0.7-0.1c0.2,0,0.3,0,0.5,0
		C24.5,13.1,24.6,13.2,24.6,13.3z"/>
	<path d="M16.6,13.2c-0.1,0.5-0.9,1.1-1.4,1.1c-0.6,0-1-0.5-1-1c0.1-0.5,0.8-1,1.3-1C16,12.3,16.6,12.8,16.6,13.2z"/>
</g>
</svg>
