<?xml version="1.0" encoding="iso-8859-1"?>
<!-- Generator: Adobe Illustrator 25.3.0, SVG Export Plug-In . SVG Version: 6.00 Build 0)  -->
<svg version="1.1" id="Calque_1" xmlns="http://www.w3.org/2000/svg" xmlns:xlink="http://www.w3.org/1999/xlink" x="0px" y="0px"
	 viewBox="0 0 82.3 22.6" style="enable-background:new 0 0 82.3 22.6;" xml:space="preserve">
<g>
	<path d="M33.1,1C41.6,1,50,1,58.5,1c0.8,0,1.6,0.2,2.2-0.5c0.1-0.1,0.3-0.2,0.5-0.2c2.7,0,5.5-0.8,8.2,0.1c1.4,0.5,2.9,0.5,4.3,0.9
		c2.5,0.8,4.7,1.9,6.4,4c1.7,2.1,2.3,4.5,2.3,7.1c0,1.7-0.1,3.4-0.7,5.1c-0.6,1.6-1.7,2.8-2.9,3.9c-0.9,0.9-2.2,1-3.5,1.1
		c-2.5,0-4.9,0.1-7.4-0.2c-0.2,0-0.4,0.1-0.5,0.1c-1.1-1.1-2.4-0.5-3.7-0.4c-0.8,0.1-1.6,0.1-2.3,0.1c-0.3,0-0.7-0.2-1-0.4
		c-0.7-0.5-0.9-1.3-0.6-1.8c0.6-1,1.3-1.4,2.3-1.1c0.2,0,0.4,0.1,0.5,0.1c1.9,0.8,3.9,0.8,5.9,0.3c1.5-0.4,3.2-0.5,4.7-0.7
		c2.6-0.4,5-1.1,6.8-3.1c0.9-0.9,0.8-1.7,0-2.6c-1.3-1.7-3.2-2.4-5.1-2.9c-3.3-0.8-6.6-1.2-10-1.4c-0.7,0-1.5,0.1-2.1-0.2
		c-1.8-0.8-3.5-0.3-5.2,0c-0.5,0.1-1,0-1.4,0c-10.9,0-21.7,0.1-32.6-0.1c-4-0.1-8-0.2-12-0.3c-0.2,0-0.5,0-0.7,0
		c-1.9-0.7-3.9-0.5-5.8-1C4.1,6.6,3,6.4,1.8,6C1.3,5.8,0.8,5.5,0.4,5c-0.7-0.7-0.4-1.9,0.5-2.2C3.2,2.2,5.5,1,8.1,1
		C16.4,1.1,24.8,1,33.1,1C33.1,1,33.1,1,33.1,1z"/>
</g>
</svg>
