<?xml version="1.0" encoding="iso-8859-1"?>
<!-- Generator: Adobe Illustrator 25.3.0, SVG Export Plug-In . SVG Version: 6.00 Build 0)  -->
<svg version="1.1" id="Calque_1" xmlns="http://www.w3.org/2000/svg" xmlns:xlink="http://www.w3.org/1999/xlink" x="0px" y="0px"
	 viewBox="0 0 76.2 36.6" style="enable-background:new 0 0 76.2 36.6;" xml:space="preserve">
<g>
	<path d="M76.2,14.9c-0.2,1.6-0.3,3.3-0.5,4.9c-0.2,1.6-0.8,2-2.4,1.8c-3.5-0.5-7-1.2-10.3-2.8c-1.5-0.8-3.1-1.2-4.8-1.1
		c-1.6,0.1-3.1,0-4.7,0c-0.6,0-1.2,0.1-1.8,0.2c-1.7,0.4-1.9,0.6-0.5,1.8c2.2,2.1,2.7,4.5,1.9,7.3c-0.1,0.2,0,0.5,0,0.7
		c-0.1,0.4-0.3,0.6-0.7,0.4c-0.6-0.3-1.2-0.6-1.7-0.9c-1.9-1.5-3.9-3-5.7-4.6c-0.7-0.6-1.1-0.6-1.9-0.3c-1.8,0.9-3.7,1.7-5.5,2.6
		c-0.5,0.2-0.7,0.5-0.7,1.1c-0.4,2.8-1.4,5.4-2.9,7.7c-0.9,1.3-2.2,2.2-4,1.9c-0.2,0-0.4,0.1-0.6,0.1c-0.4,0.1-0.5,1.2-1.2,0.3
		c-0.1-0.1-0.8,0.4-1.2,0.4c-0.4,0.1-0.7-0.1-0.5-0.6c0.2-0.5,0.6-1.1,0-1.6c-0.1-0.1,0-0.4,0.1-0.7c0.2-0.8,0.7-1.7,0.4-2.3
		c-0.4-1,0.5-1.2,0.7-1.9c0.1-0.4,0-0.5,0-0.8c-0.1-0.6,0.2-1.3,0.4-2c0.1-0.3,0.5-0.4,0.6-0.6c0.1-0.3,0.3-0.7,0.2-0.9
		c-0.3-0.5-0.6,0-0.8,0.2c-0.9,1.2-2.3,1-3.5,0.8c-1.2-0.2-2.3-0.4-3.5,0c-0.2,0.1-0.4,0-0.5,0.1c-0.5,0-1.1,0.1-1.6,0.1
		c0.3,0.6,0.5,1.2,0.9,1.7c1,1.4,2,2.8,3,4.2c0.2,0.3,0.4,0.6,0.5,1c0,0.1-0.1,0.3-0.2,0.4c0,0.1-0.2,0.1-0.3,0
		c-0.4-0.2-0.7-0.4-1.1-0.7c-1.6-1.3-3.2-2.6-4-4.6c-0.7-1.7-2.1-2.3-3.9-2.5c-2-0.2-4-0.6-6-0.9c-1.1-0.2-2.2-0.4-3.3-0.7
		c-2.9-1-3.7-2.3-4-5c-0.2-1.6-0.2-3.2-0.4-4.8c0-0.7,0.1-1.2,0.9-1.1c0.3,0,0.4-0.2,0.3-0.4c-0.3-0.8,0.3-1.4,0.8-1.6
		c1.9-0.8,1.7-2.4,1.5-3.9c0-0.2-0.2-0.4-0.2-0.5C3.5,6.5,3.6,6.2,3.8,6c0.1-0.1,0.5,0,0.6,0.1C4.8,6.3,4.9,6.7,4.6,7
		C4.1,7.5,4,8,4.2,8.6C4.4,9.3,4.7,9.4,5.3,9c1.3-0.8,2.5-1.6,3.7-2.4c2.9-2.1,6.1-3.5,9.6-4.2c1-0.2,2-0.1,3-0.2
		c3.5-0.3,6.9,0.6,10.2,1.7c1.1,0.4,1.9,0.5,2.6-0.6c0.5-0.7,1.1-1.3,2.1-1.1c0.3,0,0.7-0.2,0.9-0.5c0.4-0.4,0.8-0.7,1.4-0.3
		c0.1,0.1,0.6,0.1,0.7-0.1c0.9-1.1,2.3-0.9,3.5-1.3C43.2,0,43.6,0,43.6,0c0.4,0.6,0.9,0.8,1.6,0.8c0.6,0,0.9,1.1,1.7,0.5
		c0,0,0.2,0.2,0.3,0.3c0.2,0.2,0.3,0.5,0.6,0.6c0.5,0.1,1.1,0,1.4,0.2c0.3,0.3,0.4,0.8,1,0.8c0.4,0,0.5,0.2,0.4,0.6
		c0,0.1,0,0.3,0.1,0.3c1.8,0.3,1.9,2.3,3.1,3.1C54.3,7.6,54,8,53.7,8.2C52.8,9,51.9,9.8,51,10.5c-0.4,0.3-0.2,0.5,0,0.6
		c1.4,0.3,2.9,0.6,4.4,0.8c3.8,0.5,7.1-0.9,10.5-2.3c2.3-1,4.7-1.7,7.2-1.7c1.7,0,1.8,0.2,2.4,1.8C76.1,11.4,76.2,13.1,76.2,14.9z"
		/>
	<path d="M29.9,23.4c0.6,0.3,0.3,0.6,0,0.8c-0.6,0.4-0.6-0.1-0.7-0.5C29.4,23.6,29.7,23.5,29.9,23.4z"/>
	<path d="M11.3,9.4c0,1.3-1.4,2.5-2.6,2.5c-0.7,0-1.4-0.8-1.4-1.5c-0.1-1.3,1.9-2.7,3.1-2.3C11,8.4,11.4,8.8,11.3,9.4z"/>
	<path d="M38.6,15.3c0.5,0.9-0.9,1.5-0.5,2.5c-0.2,0-0.4,0.1-0.4,0.1c-0.6-0.6-1-1.2-0.8-2c0.1-0.5,0.2-0.9,0.3-1.4
		c0.2-0.6,0.7-0.9,1.2-0.7c0.6,0.2,0.4,0.6,0.3,1C38.6,14.9,38.6,15.1,38.6,15.3z"/>
	<path d="M7.3,15c1.1-0.3,2.3-0.6,3.4-0.8c0.1,0,0.3,0.1,0.4,0.2c0,0-0.1,0.2-0.1,0.3c-1,0.7-2.2,0.7-3.4,0.8
		c-0.2,0-0.5-0.1-0.7-0.1c-0.4,0-0.8,0.2-1.2,0.2C5.8,16,6,16.4,6.1,16.7c0,0.1,0,0.2,0,0.3c-0.1,0-0.3,0-0.4-0.1
		c-0.4-0.5-1-1-0.7-1.7c0.3-0.7,1-0.5,1.6-0.5c0.2,0,0.5,0,0.7,0C7.3,14.9,7.3,14.9,7.3,15z"/>
</g>
</svg>
