<?xml version="1.0" encoding="iso-8859-1"?>
<!-- Generator: Adobe Illustrator 25.3.0, SVG Export Plug-In . SVG Version: 6.00 Build 0)  -->
<svg version="1.1" id="Calque_1" xmlns="http://www.w3.org/2000/svg" xmlns:xlink="http://www.w3.org/1999/xlink" x="0px" y="0px"
	 viewBox="0 0 82.1 30.1" style="enable-background:new 0 0 82.1 30.1;" xml:space="preserve">
<g>
	<path d="M11.6,19.2c-0.6-0.5-1.1-1.1-1.8-1.4c-1.4-0.8-2.8-1.5-4.3-2.2c-0.8-0.4-1.5-0.9-2.4-1c-0.1,0-0.4-0.2-0.4-0.1
		c-0.5,0.7-0.9,0.1-1.1-0.2c-0.2-0.3-0.2-0.9,0-1.1c0.6-0.8,1.3-1.4,2.4-1.6c3.4-0.6,7-0.5,10.4-1.6c1.7-0.5,3.5-0.6,5.3-0.8
		c0.8-0.1,1.5-0.2,2.3-0.4c0.5-0.1,1-0.3,1.1-1c0-0.4,0.3-0.8,0.6-1c1.3-0.6,2.1-1.7,2.9-2.8c0.3-0.4,0.4-0.3,0.8-0.1
		c1.3,0.8,2.6,1.5,4,2.1c0.7,0.3,1.3,0.6,1.9,1.2c1.3,1.3,3.4,0.8,4.1-0.9c0.2-0.5,0.5-1.1,0.7-1.6C38.3,4,38.5,3.7,39.2,4
		c0.2,0.1,0.6-0.2,0.8-0.5c0.7-0.9,1.4-1.9,2.1-2.9C42.5,0,43-0.2,43.7,0.2c1.3,0.7,2.6,1.3,3.9,2.1c1.8,1.1,3.5,2.4,5.3,3.5
		c1.6,1,3.2,1.9,4.7,2.9c2.2,1.4,4.7,2.2,7.1,3.2c0.2,0.1,0.4,0.1,0.5,0.2c0.4,0.3,0.7,0.5,1.1,0.8c-0.3,0.3-0.6,0.6-0.8,0.8
		c-0.1,0.1-0.3,0.2-0.4,0.3c-0.3,0.3-0.7,0.6-1,0.9c0.5,0.1,0.9,0.4,1.4,0.4c1.8,0,3.7-0.1,5.5-0.2c1.3-0.1,2.6-0.4,3.9-0.7
		c1.6-0.4,3.1-0.9,4.6-1.4c0.7-0.2,1.4-0.4,2.1-0.5c0.2,0,0.5,0.1,0.6,0.3c0.1,0.2-0.1,0.5-0.2,0.6c-1.1,1.2-2.3,2.3-3.4,3.4
		c-0.3,0.3-0.5,0.5-0.8,0.7c-0.5,0.4-0.6,0.9,0,1.3c0.7,0.6,1.3,1.2,2,1.8c0.7,0.7,1.3,1.5,1.9,2.3c0.1,0.2,0.1,0.5,0.2,0.8
		c-0.3,0-0.6,0.2-0.8,0.1c-4-1.8-8.3-2.7-12.5-4.1c-1.8-0.6-3.7-0.4-5.5-0.4c-0.4,0-0.5,0.3-0.3,0.6c0.4,0.5,0.9,0.9,1.3,1.4
		c0.4,0.4,0.2,0.8-0.4,0.8c-0.3,0-0.6,0-0.9,0c-2.5-0.1-4.8,0.4-7.2,1.2c-1.9,0.6-3.9,1.1-5.8,1.7c-1.4,0.5-2.8,1.1-4.1,1.8
		c-0.9,0.5-1.1,0.6-1.8-0.1c-1.3-1.2-2.6-2.2-3.6-3.7c-0.5-0.8-0.9-0.8-1.7-0.6c-2.4,0.6-4.7,1.2-7.2,1.4c-1.9,0.1-3.8,0.9-5.7,0.2
		c-0.1,0-0.4,0-0.5,0.1c-0.1,0.1,0,0.3,0.1,0.4c0.4,0.4,0.8,0.9,1.2,1.3c0.6,0.6,0.9,1.3,0.4,2.1c-0.2,0.4-0.3,0.8-0.4,1.2
		c-0.1,0.3-0.1,0.8-0.5,0.7c-0.3-0.1-0.5-0.5-0.6-0.8c-0.5-1.6-1.1-3.1-2.2-4.4c-0.3-0.4-0.6-0.6-1.1-0.7c-1.3-0.3-2.6-0.7-4-1
		c-2.2-0.4-4.3-0.8-6.5-1.1C7.7,21.6,4.1,20.3,1,17.9c-1-0.8-1.3-2.3-0.7-3.3c0.1-0.1,0.2-0.2,0.3-0.2c0.1,0.1,0.3,0.2,0.3,0.3
		c0.1,0.3,0,0.6,0.1,0.9c0.1,0.5,0.5,0.6,0.8,0.2C2,15.5,2,15.3,2.4,15.7c0.6,0.5,1.3,1,2.1,1.2C6.9,17.7,9.3,18.4,11.6,19.2
		c0.1,0.1,0.3,0.2,0.4,0.3c0.1,0.1,0.2,0.1,0.3,0.2c-0.1-0.1-0.2-0.1-0.3-0.2C11.9,19.4,11.8,19.3,11.6,19.2z"/>
	<path d="M68.8,18.1c-2.8-0.2-5.5-0.7-8.2-1.3c-5.1-1.2-10.2-2.6-15.4-3.8c-1.3-0.3-2.6-0.4-3.9-0.6c-2-0.3-4-0.5-6-0.7
		c-1.6-0.1-3.2-0.1-4.8-0.1c-3.2,0-6.4,0-9.5,0c-1,0-2-0.2-3-0.3c-0.2,0-0.3-0.1-0.5-0.2c0.2-0.1,0.3-0.2,0.5-0.2c0.4,0,0.7,0,1.1,0
		c4.2,0,8.4-0.1,12.6,0.1c6.8,0.2,13.6,1,20.2,3c4.1,1.2,8.4,2.1,12.6,3c1.4,0.3,2.8,0.3,4.3,0.4C69.4,17.6,68.9,17.9,68.8,18.1z"/>
	<path d="M22.1,17.7c0.3,1.7,0.8,1.9,2.2,0.9c0.4-0.3,0.8-0.3,1.3-0.2c2.8,0.1,5.5,0.2,8.3,0c1.8-0.1,3.3-1.3,4.7-2.4
		c0.4-0.3,0.5-0.7-0.1-0.9c-1.6-0.7-3.2-1.4-5.1-0.7c-2.5,0.9-5,1.7-7.5,2.5c-0.1,0-0.3,0-0.3,0.1c-0.5,0.6-0.9,1.1-1.7,0.3
		c-0.2-0.2-0.9,0.2-1.3,0.3c0-0.7,0.6-1,1-1c2.4-0.3,4.5-1.5,6.8-2.2c0.7-0.2,1.4-0.4,2-0.6c2.3-0.9,4.5-0.3,6.5,0.7
		c1.1,0.5,1.3,1.2,0.4,2.1c-1.8,1.7-3.8,3.1-6.5,2.9c-1.9-0.1-3.7-0.1-5.6,0c-1.1,0-2.1,0.3-3.2,0.4c-0.5,0-1.1,0.1-1.6,0
		C21.4,19.3,21.3,18.6,22.1,17.7z"/>
</g>
</svg>
