<?xml version="1.0" encoding="iso-8859-1"?>
<!-- Generator: Adobe Illustrator 25.3.0, SVG Export Plug-In . SVG Version: 6.00 Build 0)  -->
<svg version="1.1" id="Calque_1" xmlns="http://www.w3.org/2000/svg" xmlns:xlink="http://www.w3.org/1999/xlink" x="0px" y="0px"
	 viewBox="0 0 81.3 36.2" style="enable-background:new 0 0 81.3 36.2;" xml:space="preserve">
<g>
	<path d="M1.7,17.9c0.4-1,1.4-1.1,2.1-1.4c1.9-0.7,3.8-1.2,5.8-1.8c1.6-0.5,3.2-1,4.8-1.4c3.6-1.1,7.2-2.3,10.9-3.2
		c2.2-0.6,4-1.4,5.7-3.1c2.6-2.6,5.6-4.8,8.8-6.6c1-0.6,1.8-0.4,2.6,0.5c-0.9,1-2.3,1.1-3.4,1.8c-2.3,1.4-4.3,3.2-6.4,4.9
		c-0.9,0.7-0.9,1.4,0.3,1.7c1.1,0.3,2.1,0.8,3.2,1.2c2.1,0.8,4.1,0.4,5.7-1c1.6-1.4,1.3-3.3,0.9-5.1c-0.1-0.6-0.4-1.1-0.6-1.7
		c-0.2-0.7-0.3-1.3,0.4-1.8c0.2,0.1,0.4,0.1,0.4,0.2c0.7,1.5,1.5,3,1.7,4.6c0.4,2.7-1,5-3.7,5.9c-0.2,0.1-0.3,0.1-0.5,0.2
		c-0.1,0.1-0.2,0.1-0.3,0.2c0.1,0.1,0.3,0.1,0.4,0.2c1.2,0.3,2.4,0.7,3.6,1c2.8,0.6,5.5,1.3,8.3,1.8c2,0.3,4,0.3,6,0
		c0.9-0.1,1.3,0,2,0.8c0.2,0.2,0.5,0.3,0.7,0.4c1.2,0.2,2.3-0.2,3.3-0.6c2.4-0.9,4.8-2,7.3-2.9c2.6-1,5.3-1.8,7.9-2.7
		c0.2-0.1,0.3-0.2,0.5-0.2c0.8-0.1,1.3,0.5,0.8,1.2c-0.9,1.5-1.8,3-2.9,4.2c-1.2,1.4-2.7,2.5-4.1,3.8c-0.9,0.8-0.9,1.1,0.1,1.7
		c2.8,1.7,5,4,6.7,6.8c0.1,0.2,0.2,0.4,0.3,0.6c0.1,0.4-0.1,0.6-0.4,0.5c-4.9-0.6-9.6-1.9-14-3.9c-1.5-0.6-2.9-1.1-4.5-1
		c-2,0-4.1-0.2-6.1,0.4c-0.2,0.1-0.5,0.1-0.7,0.1c-0.8,0.2-0.8,0.5-0.2,1.2c-0.5,1-1.4,0.7-2.2,0.8c-1.1,0.2-2.1,0.4-3,1
		c0.7,0.8,1.8,0.7,2.7,0.9c1,0.3,2.1,0.3,3.2,0.4c0.3,0,0.6,0.1,0.8-0.2c0.2-0.4-0.1-0.6-0.3-0.9c-0.6-0.6-1.8-0.8-1.2-2
		c1.6,0.2,2.8,1.2,3.6,2.5c0.4,0.6,0.6,1.2,1,1.8c-0.7,0.1-1.4,0.3-2.1,0.3c-3.9,0.1-7.6-0.5-11-2.4c-0.7-0.4-1.3-0.1-1.9,0
		c-1.8,0.2-3.5,0.5-5.3,0.7c-0.2,0-0.3,0.1-0.5,0.2c0.1,0.2,0.1,0.5,0.3,0.6c2,1,2.1,3,2.5,4.8c0.1,0.3,0,0.7,0,1.1
		c0,0.3,0.2,0.9,0.1,1c-0.4,0.2-0.9,0.3-1.4,0.2c-1.4-0.2-2.6-0.8-3.7-1.7c-1.8-1.5-3.5-3.2-5.3-4.8c-0.2-0.1-0.2-0.4-0.3-0.6
		c1.3-0.4,2.1,0.4,2.9,1.1c1.2,1.2,2.6,2.3,3.9,3.3c0.4,0.3,0.9,0.7,1.5,0.4c0.7-0.4,0.3-1.1,0.2-1.6c-0.2-1-0.8-1.7-1.8-2
		c-2.2-0.8-4.5-0.8-6.7-1.3c-2.5,0.1-5,0-7.5-0.2c-3.7-0.3-7.2-1.1-10.8-1.9c-1.7-0.4-3.3-0.9-4.9-1.6c-2.1-1-4.3-1.7-6.4-2.7
		c-0.6-0.3-1.2-0.8-1.7-1.2c-0.4-0.3-0.4-0.5,0.1-0.8c0.2-0.1,0.6-0.2,0.1-0.6c-0.8-0.8-0.7-1,0.1-1.6C0.9,18.2,1.3,18.1,1.7,17.9
		c0.7,1.1,1.8,1.9,2.3,3.3c0.3,0.9,1.6,1.7,3,1.5c0.7-0.1,1.5-0.3,2,0.3c0.9,0.9,2,0.7,3,0.4c0.7-0.2,1.5-0.2,1.6-1.1
		c0.1-0.9,0-1.8-0.7-2.5c-0.3-0.3-0.6-0.3-0.9-0.6c-0.5-0.6-0.8-1.3-0.2-1.9c0.6-0.6,1.2-0.2,1.7,0.3c0.5,0.6,1.2,1.2,1.6,2
		c1.3,2.4,0.6,4.4-1.8,5.6c-0.2,0.1-0.4,0.2-0.7,0.2c0.2,0,0.4,0,0.5,0c1.9,0.4,3.8,1,5.7,1.6c0.2,0.1,0.3,0,0.5,0.1
		c-0.2-0.1-0.4,0-0.6-0.1c-1.8-0.5-2.4-1.4-2-2.9c0.1-0.6,0.3-1,1.1-0.9c1.3,2.4,5.4,3.7,8.4,1.8c0.2-0.1,0.5-0.3,0.4-0.5
		c0-0.3-0.3-0.3-0.6-0.4c-1.2-0.3-2.5-0.4-3.7-0.2c-1,0.2-1.9,0.2-2.9,0.2c-0.9,0.1-1.3-0.3-1.7-1c0-1.1,0.9-1.3,1.6-1.3
		c3-0.3,6-0.5,9,0.2c1.1,0.2,2.1,0.6,2.4,1.9c0.2,1.3-0.9,1.7-1.6,2.4c-0.1,0.1-0.3,0.2-0.5,0.3c-0.7,0.4-1.4,0.7-2.1,1
		c0.8-0.1,1.6-0.1,2.4-0.1c5.5-0.5,11,0,16.4-1.4c2.8-0.7,5.5-1.6,8.2-2.6c4.6-1.6,9.3-2.2,13.9,0c3.1,1.5,6.5,2.2,9.8,3
		c0.3,0.1,0.6,0.2,0.8-0.1c0.2-0.3-0.1-0.5-0.3-0.8c-1.3-1.5-2.8-2.6-4.4-3.7c-2-1.4-2.1-2.3-0.4-4c1.2-1.2,2.6-2.1,3.7-3.4
		c0.4-0.4,0.8-0.8,1.1-1.2c0.2-0.3,0.6-0.7,0.3-1.1c-0.3-0.4-0.8-0.2-1.2,0c-2.3,0.9-4.8,1.6-7,2.7c-1.3,0.7-2.8,0.9-3.8,1.9
		c-0.2,0.1-0.3,0.2-0.5,0.2c-6.9,1-13.5-0.7-20.1-2.1c-2-0.4-4.1-1-6.1-1.4c-1.9-0.4-3.7-0.8-5.5-1.6c-2.7-1.1-5.3-1.4-8.2-0.5
		c-4,1.3-8.1,2.2-12,3.7c-1.9,0.7-3.8,1.3-5.9,1.4c-1.4,0-2.5,1.2-3.8,1.6C3.1,18.3,2.4,18.8,1.7,17.9z"/>
	<path d="M6.8,20.1c-0.9-0.8-1-1.5-0.5-2.4c0.4-0.7,1.2-0.8,2.2-0.4c0.5,0.3,1.2,0.5,1.1,1.2c0,0.7-0.1,1.5-1.1,1.6
		C8,19.9,7.4,19.8,6.8,20.1z"/>
	<path d="M65.9,16.4c1.2,1.7,1.3,4.1,0.3,5.8c-0.1,0.1-0.2,0.2-0.2,0.2c-0.1-0.2-0.1-0.3-0.2-0.5c0-0.1,0-0.2,0.1-0.3
		c0.9-1.7,0.3-3.4-0.2-5.1C65.8,16.6,65.8,16.5,65.9,16.4z"/>
	<path d="M13.2,21.3c0,0.5,0,0.6,0,0.7c0,0.1-0.1,0.2-0.2,0.4c0-0.1-0.1-0.2-0.1-0.3c-0.1-0.5-0.2-1-0.3-1.5c0-0.1,0.1-0.2,0.1-0.2
		c0.1,0.1,0.2,0.1,0.3,0.2C13.1,20.9,13.2,21.2,13.2,21.3z"/>
	<path d="M11.1,20.9c0,0.2,0,0.4-0.1,0.6c0,0-0.1,0-0.2,0c0-0.5,0-1,0-1.5c0.1,0,0.2,0.1,0.2,0.1C11.1,20.4,11.1,20.6,11.1,20.9z"/>
</g>
</svg>
