<?xml version="1.0" encoding="iso-8859-1"?>
<!-- Generator: Adobe Illustrator 25.3.0, SVG Export Plug-In . SVG Version: 6.00 Build 0)  -->
<svg version="1.1" id="Calque_1" xmlns="http://www.w3.org/2000/svg" xmlns:xlink="http://www.w3.org/1999/xlink" x="0px" y="0px"
	 viewBox="0 0 85.6 12.8" style="enable-background:new 0 0 85.6 12.8;" xml:space="preserve">
<g>
	<path d="M59.4,6.1c1.6-1.4,3.5-1.7,5.5-1.4c2,0.3,4,0.9,5.7,2C71.3,7.2,72,7.3,72.8,7c2.3-1,4.7-2.1,7-3.2c0.1-0.1,0.2-0.2,0.3-0.4
		c-0.2,0-0.3,0-0.5,0c-0.2,0-0.4-0.1-0.6-0.1c0.1-0.2,0.2-0.5,0.4-0.7c0.2-0.1,0.4-0.1,0.7-0.2c0.5-0.1,0.8,1,1.4,0.2
		c0.3-0.4,0.9-0.6,1.4-0.8c0.1-0.1,0.2-0.1,0.3-0.2c0.1-0.1,0.1-0.2,0.2-0.3c-0.1-0.1-0.3-0.2-0.4-0.2c-0.8,0.1-1.7,0.2-2.5,0.4
		C79,1.8,77.6,2,76.2,2.3c-0.2,0.1-0.4,0.4-0.6,0.6c0,0,0,0,0,0c-1.9-0.4-3.7-0.2-5.6-0.1c-2.5,0.2-5.1,0.4-7.6-0.4
		c-1.3-0.4-2.5-0.6-3.8-0.3c-1.2,0.3-2.5,0.1-3.8,0.1C50.4,2.1,46,2.1,41.7,1.8c-5.7-0.4-11.5-0.4-17.2-0.2
		c-4.5,0.2-9.1,0.1-13.6,0.3C9.1,2,7.3,2.1,5.5,2.2c-0.5,0-0.7,0.3-1,0.6C3.8,3.5,3,3.5,2.7,2.7c-0.3-0.9-0.6-0.4-1-0.3
		c-0.1,0-0.3,0.2-0.4,0.3c0.1,0.1,0.2,0.1,0.3,0.2C2.1,3.3,2.5,3.6,3,4C2.1,3.7,1.2,3.4,0.3,3.1c-0.5-0.2-0.4-0.7,0-0.9
		C0.7,2,1,1.8,1.4,1.8C2.9,1.7,4.5,1.6,6,1.4C11.4,0.9,16.8,1.4,22.2,1C27.8,0.5,33.4,0.9,39,0.8c2.7,0,5.3,0.5,8,0.6
		c3.7,0.1,7.4,0,11.2,0c0.4,0,0.8-0.2,1.2-0.3c2.2-0.7,4.3-1.6,6.6-0.8c0.2,0.1,0.4,0,0.5,0c0.5,0.1,1.2-0.2,1.4,0.5
		c0.1,0.3-0.5,0.7-0.8,1C67.1,1.9,66.9,2,66.9,2c0.1,0,0.2,0.1,0.3,0.1c2.2-0.1,4.3,0,6.4-0.2c2.6-0.3,5.2-0.8,7.7-1.2
		c1.1-0.2,2.2-0.5,3.3-0.6c0.3,0,0.6,0.1,1,0.2c-0.2,0.2-0.3,0.5-0.5,0.6c-3,2.5-6.5,4.2-9.9,5.9c-0.4,0.2-0.8,0.3-1.2,0.5
		c-1.8,0.9-3.4,0.8-5-0.5c-1.4-1.1-3.2-1.2-4.8-1.7c-0.1,0-0.2,0.1-0.3,0.1c0.1,0.1,0.1,0.2,0.2,0.3C65,6,64.8,6.4,64.3,6.9
		c-1.1,1.1-2.4,1.6-4,1.5c-1.4-0.1-2.7-0.1-4-0.7c-0.4-0.2-0.8-0.1-1.2-0.1c-0.5,0-1-0.1-1.4,0.1c-0.2,0.1-0.2,0.7-0.3,1.1
		c-0.1,0.2-0.2,0.5-0.3,0.6c-1.3,0.6-2.6,1.5-4.2,0.7c-1-0.5-2-0.8-3-1.3c-0.9-0.5-1.9-0.2-2.8-0.2C42.3,8.8,41.5,9,40.8,9
		c-7.5,0.7-15.1,0.3-22.6,0.3c-0.6,0-0.7,0.1-0.5,0.7c0.2,0.5,0.3,1,0.4,1.5c0,0.4,0,0.9-0.2,1.1c-0.2,0.2-0.8,0.1-1.1-0.1
		c-0.6-0.4-1.1-0.9-1.6-1.4c-0.4-0.4-0.8-0.8-1-1.3c-0.7-1.6-2.2-1.7-3.7-2C8.5,7.5,6.6,7.7,4.7,7.6C3.2,7.5,1.9,7,0.8,6.1
		C0.6,5.9,0.6,5.7,0.5,5.5c0.2,0,0.4-0.2,0.5-0.1c0.9,0.6,1.7,0,2.6-0.2c1.1-0.3-0.1-0.6,0-0.8c0.3,0,0.6-0.2,0.8-0.1
		c0.7,0.2,0.8,0.6,0.3,1C4.4,5.4,4.1,5.5,3.9,5.7C3.6,5.9,3.3,6.1,3,6.3c0.3-0.1,0.6-0.1,1-0.2c0.5,0,0.8,0,0.2,0.5
		c0,0,0.1,0.4,0.2,0.4C5.2,7,5.9,7.1,6.7,7.1c0.2,0,0.4-0.3,0.4-0.4c0.5-1.1,1-2.1,1.4-3.2C8.8,3,8.9,2.8,9.4,3
		c1.1,0.5,2.1,1,3.2,1.6c0.1,0.1,0.3,0.4,0.2,0.5c-0.2,0.9-0.3,1.9-1.6,1.9c-0.1,0-0.3,0.2-0.4,0.3c0.2,0,0.3,0.1,0.5,0.1
		c1.8-0.1,3.4,0.4,5.1,0.7c0.8,0.2,1.6,0.3,2.5,0.3c1.4,0.1,2.9,0.3,4.3,0.3c5.7-0.1,11.4-0.2,17-0.4c1.4,0,2.7-0.4,4.1-0.5
		c0.5-0.1,1.1,0,1.5,0.2c1.3,0.5,2.6,1.1,4,1.6c0.5,0.2,1,0.3,1.5-0.1c0.2-0.2,0.6-0.3,0.9-0.4c0.8-0.3,0.9-0.4,0.5-1.1
		c-0.6-1-0.7-1.2-1.5-1.2c-1.2-0.1-2.3-0.7-3.5-0.1c-0.1,0.1-0.3-0.1-0.5-0.1c0.1-0.1,0.3-0.2,0.4-0.2c1.5-0.6,2.9-0.4,4.4,0
		C54,7,56.1,6.9,58.2,6.3C58.6,6.2,59,6.2,59.4,6.1c0.2,0.4,0.4,0.7,0.9,0.8c0.3,0,0.6,0,0.9-0.1c-0.2-0.3-0.5,0-0.7,0
		C59.9,6.7,59.7,6.4,59.4,6.1z"/>
	<path d="M24.9,2.2c2.6,0,5.2-0.2,7.7,0c5,0.4,10.1,0,15.1,0.4c4.4,0.3,8.7,0.1,13.1,0.3C61,2.9,61.1,3,61.3,3
		c-0.2,0.1-0.4,0.2-0.5,0.2c-4,0-7.9,0.3-11.9-0.1c-3.7-0.3-7.3,0-10.9-0.3c-7.6-0.5-15.2-0.3-22.8-0.3c-0.2,0-0.5,0-0.7,0
		c0,0-0.1-0.1-0.1-0.1c0-0.1,0.1-0.2,0.2-0.2c0.4,0,0.8,0,1.3,0C18.8,2.2,21.8,2.2,24.9,2.2C24.9,2.2,24.9,2.2,24.9,2.2z"/>
	<path d="M75.6,2.9c0.8-0.1,1.6-0.2,2.4-0.3c0.1,0,0.3,0.2,0.3,0.3c0,0.1-0.2,0.3-0.3,0.3c-0.8,0.2-1.5,0.4-2.3,0.4
		c-3.2,0-6.4,0-9.7,0c-0.3,0-0.5-0.1-0.8-0.2c0.3-0.1,0.6-0.2,0.8-0.2c2.6,0,5.1,0,7.7,0C74.5,3.2,75.2,3.5,75.6,2.9L75.6,2.9z"/>
</g>
</svg>
