<?xml version="1.0" encoding="iso-8859-1"?>
<!-- Generator: Adobe Illustrator 25.3.0, SVG Export Plug-In . SVG Version: 6.00 Build 0)  -->
<svg version="1.1" id="Calque_1" xmlns="http://www.w3.org/2000/svg" xmlns:xlink="http://www.w3.org/1999/xlink" x="0px" y="0px"
	 viewBox="0 0 84.6 33.7" style="enable-background:new 0 0 84.6 33.7;" xml:space="preserve">
<g>
	<path d="M35.9,33.7c-8.9,0-15.4,0-22,0c-2.8,0-5.6-0.2-8.4-0.4c-1.2-0.1-2.4-0.3-3.4-1C1,31.7,0.8,30.9,1.8,30
		c0.6-0.5,1.4-1,2.1-1.3c2.5-0.8,5-1.4,7.7-1.6c2.9-0.3,5.8-0.7,8.7-1c1.5-0.2,3-0.3,4.5-0.4c2.3-0.2,4.5-0.3,6.8-0.4
		c3-0.2,5.9-0.4,8.9-0.6c1.3-0.1,2.6-0.1,4-0.1c4.9-0.1,9.8-0.1,14.7-0.4c2.1-0.1,4.2-0.2,6.3-0.3c4.3-0.3,8.4-1.1,12-3.5
		c0.1-0.1,0.3-0.1,0.5-0.2c1.8-1.2,1.8-2.8,0.1-4.2c-1.8-1.5-3.9-2.2-6.2-2.6c-2.3-0.4-4.6-0.5-6.9-0.8c-3.4-0.4-6.9-0.7-10.3-0.7
		c-1,0-2.1-0.1-3-0.4c-3.6-1.4-7.4-1.4-11.1-1.3c-4.5,0.1-9,0-13.4,0.4c-3.6,0.3-7.2,0.1-10.8,0.3c-2.6,0.1-5.1,0.4-7.6,0.6
		c-0.1,0-0.1,0-0.2,0c-2.1,0.1-4.2-0.2-6.2-0.7c-0.5-0.1-0.9-0.3-1.3-0.6c-1.2-0.8-1.2-1.4-0.2-2.4c0.3-0.3,0.7-0.5,1-0.7
		C5.1,5.9,8.5,4.6,12,3.5c1.8-0.6,3.7-1,5.6-1.3c3.2-0.5,6.5-0.9,9.7-1.6c1.4-0.3,2.9-0.5,4.4-0.6c3.1-0.1,6.1-0.1,9.2,0
		c2.6,0.1,5.1,0.4,7.7,0.6c1.8,0.1,3.6,0.3,5.4,0.4c3.5,0.3,6.9,0.4,10.4,0.8c3.6,0.4,7.2,1,10.5,2.8c2.3,1.2,4.5,2.7,6,5
		c0.5,0.8,1.4,1.4,1.9,2.1c2.6,3.5,2.5,7.2,0.9,11c-1,2.3-2.6,4.1-4.8,5.3c-0.9,0.5-1.7,1.1-2.6,1.6c-2.5,1.5-5.3,2.2-8.1,2.6
		c-3.5,0.5-7,0.9-10.5,1.2C49.5,34,41.5,33.4,35.9,33.7z"/>
	<path d="M6.3,6.5C7.5,6.7,7.9,7,7.7,7.6c-0.2,0.7-1,1-1.9,0.8C5.1,8.2,5.1,8.1,5.5,6.9C5.8,6.8,6.1,6.6,6.3,6.5z"/>
	<path d="M25.1,6.9c-0.2,0-0.3-0.1-0.5-0.1c0-0.1,0-0.4,0.1-0.4c1.2-0.3,2.5-0.6,3.8-0.2c0.6,0.2,0.8,1,0.2,1.4
		c-0.4,0.3-0.8,0.5-1.2,0.7c-0.7,0.2-1.5,0.3-2.2,0.4c-0.4,0-0.9-0.3-1.3-0.5c-0.1-0.1-0.1-0.4-0.1-0.6c0-0.1,0.3-0.2,0.4-0.2
		c0.4-0.1,0.8,0.5,1.1-0.1c0.1-0.1,0.2-0.2,0.1-0.3C25.4,6.8,25.2,6.7,25.1,6.9z"/>
</g>
</svg>
