<?xml version="1.0" encoding="iso-8859-1"?>
<!-- Generator: Adobe Illustrator 25.3.0, SVG Export Plug-In . SVG Version: 6.00 Build 0)  -->
<svg version="1.1" id="Calque_1" xmlns="http://www.w3.org/2000/svg" xmlns:xlink="http://www.w3.org/1999/xlink" x="0px" y="0px"
	 viewBox="0 0 71.2 38.3" style="enable-background:new 0 0 71.2 38.3;" xml:space="preserve">
<g>
	<path d="M71.2,17.9c-0.2,2.3-0.3,4.9-0.8,7.5c-0.3,1.5-1.1,2.8-2.7,3.4c-1.7,0.7-3.3,0.7-5,0.1c-2.5-0.9-4.6-2.2-6.7-3.7
		c-1.8-1.2-3.7-1.6-5.7-1.8c-1.2-0.1-2.4,0.6-3.3,1.5c-0.3,0.3-0.1,0.3,0.2,0.4c1.3,0.3,2.2,1.1,3.1,2c1.7,1.5,3.3,3,5.2,4.4
		c1.1,0.8,2.4,1.2,3.7,1.8c0.2,0.1,0.5,0.3,0.7,0.4c-0.3,0.2-0.5,0.4-0.8,0.5c-1.3,0.3-2.6,0.4-3.9,0.7c-0.9,0.1-1.8,0.2-2.6,0.4
		c-1.6,0.5-3.1,0.4-4.6-0.2c-0.2-0.1-0.4-0.2-0.7-0.2c-0.2,0-0.3,0-0.5,0.1c0.1,0.1,0.2,0.3,0.2,0.4c0.1,0.1,0.1,0.3,0.1,0.5
		c-0.2,0-0.4,0.2-0.6,0.1c-0.5-0.1-0.9-0.5-1.3-0.6c-0.5-0.1-1-0.1-1.5,0c-0.7,0.1-0.3,0.4,0,0.6c0.1,0.1,0.2,0.3,0.3,0.4
		c-0.2,0-0.4,0.2-0.5,0.1c-1.2-0.6-2.5-1.1-3.9-0.7c-0.2,0.1-0.6-0.1-0.8-0.3c-0.5-0.6-1-0.6-1.5,0c-0.3,0.3-0.5,0.4-0.7,0.1
		c-0.6-0.7-1.3-0.9-2-0.3c-0.5,0.3-0.7,0.1-1-0.3c-0.3-0.5-0.5-1.1-0.9-1.3c-0.4-0.1-0.9,0.1-1.2-0.4c-0.3-0.5-0.5-1-0.8-1.6
		c-0.1-0.2-0.3-0.4-0.5-0.6c-0.1,0.2-0.3,0.4-0.4,0.5c-0.1,0.1-0.2,0.3-0.2,0.5c-0.1-0.1-0.3-0.2-0.3-0.4c-0.1-1.6-1.2-1.6-2.4-1.5
		c-0.6,0.1-1.2,0.1-1.8,0.1c-0.9,0.1-1.8,0.2-2.6,0.3c0.4,0.8,0.9,1.5,1.1,2.3c0.4,1.3,0.7,2.7,1.1,4.1c0.1,0.2,0,0.7-0.1,0.8
		c-0.3,0.1-0.8,0.1-1-0.1c-2.2-2.1-4.6-4-5.7-7c-0.4-1.1-0.9-1.6-2.1-1.8c-1.5-0.2-2.8-1-4.3-1.3c-3.3-0.8-6-2.5-8.6-4.6
		c-0.5-0.4-1-0.7-1.5-1c-1.6-1.2-1.9-3.4-0.4-4.8c2.5-2.4,5.1-4.9,7.7-7.3c1.8-1.6,3.7-3,5.9-4c0.6-0.3,1.1-0.6,1.4-1.2
		c0.4-0.7,0.8-1.3,1.3-1.9c0.3-0.4,0.5-1.7,1.4-0.5c0.4-0.6,1.3-0.2,1.7-0.5c1.3-1,3-0.8,4.2-1.7c2.1,0,4.1-0.6,6.2-0.4
		c1.1,0.1,2,0.4,3,0.6c1.1,0.2,2.1,0.3,3,0.9c0.4,0.3,1,0.2,1.5,0.2c2,0,4.1,0.8,6.1,0.1c1.6,0.6,3.1-0.6,4.7-0.1
		c0.3,0.1,0.7,0,1.1-0.1c2.7-0.5,5.5-1.1,8.2-1.7c0.2,0,0.5-0.2,0.7-0.1c0.2,0,0.4,0.2,0.5,0.3c0,0.1-0.1,0.3-0.2,0.4
		c-0.6,0.4-1.4,0.7-2,1.2c-0.6,0.5-1.1,1-1.6,1.6c-0.7,0.8-1.4,1.8-2.2,2.6c-1.1,1.2-2.5,2.3-3.2,3.8c-0.4,0.8-1,1.3-1.9,1.5
		c-0.4,0.1-0.6,0.3-0.2,0.7c1.1,1.2,3.3,2.1,5.7,1.3c2.2-0.8,4-2,6-3.1c1.7-0.9,3.5-1.7,5.4-1.9c3.1-0.4,4.7,0.9,5.2,3.8
		C71,14,71,15.7,71.2,17.9z"/>
	<path d="M32.3,18c0.7,0,1.3-0.1,2,0c1.3,0.1,1.8,1.1,1.1,2.3c-0.2,0.2-0.3,0.5-0.6,0.7c-2.1,1.8-4.2,3.7-6.7,4.9
		c-0.7,0.3-1.4,0.4-2.2,0.3c-1.4-0.3-2.8-0.3-4.2-0.3c-0.5,0-0.8-0.2-0.6-0.5c0.6-1.3,0-2.2-1-3c-0.7-0.5-0.6-0.7,0.2-1.1
		c2.2-1.1,4.5-1.9,6.9-2.4c1.7-0.4,3.5-0.6,5.2-0.9C32.3,17.8,32.3,17.9,32.3,18z"/>
	<path d="M26.9,10.4c4,0.3,7.8,0.3,11.4,1.7c0.2,0.1,0.5,0.1,0.7,0.2c0.1,0.1,0.2,0.3,0.3,0.5c-0.2,0-0.3,0.1-0.5,0.1
		c-1.4-0.4-2.9-0.8-4.3-1.1c-1.2-0.3-2.5-0.4-3.7-0.6C29.9,11.2,29,11,28.1,11c-0.5,0-1.1-0.1-1.6,0c-3.7,0.3-7.3,1.1-10.8,2.2
		c-0.1,0-0.2,0.1-0.3,0.1c-0.2,0-0.3-0.1-0.4-0.2c0,0,0-0.2,0.1-0.3c0.2-0.1,0.4-0.3,0.6-0.3c2.2-0.5,4.4-1.2,6.6-1.6
		C23.9,10.6,25.5,10.5,26.9,10.4z"/>
	<path d="M50.7,18.8c-2.9-0.1-5.7-0.2-8.5-0.5c-1.7-0.2-3.3-0.2-5-0.3c-0.2,0-0.3-0.1-0.5-0.2c0.1-0.1,0.3-0.2,0.4-0.2
		c2.7,0.1,5.5,0.2,8.2,0.3c0.7,0,1.3,0.1,2,0.1c2.2,0,4.3,0,6.5,0c0.3,0,0.6,0,0.9,0c0.1,0,0.3,0.2,0.4,0.3
		c-0.1,0.1-0.3,0.4-0.4,0.4C53.3,18.8,52,18.7,50.7,18.8C50.7,18.8,50.7,18.8,50.7,18.8z"/>
	<path d="M8.9,14.8c1.4,0,2.4,0.9,2.4,2.2c0,1.1-1.2,2.4-2.3,2.5c-1.2,0-2.4-1.2-2.4-2.4C6.6,15.7,7.5,14.8,8.9,14.8z"/>
	<path d="M8,18.4c-0.1-0.4-0.3-0.9-0.4-1.3c-0.1-0.6,0.3-1,0.9-1.1c0.7-0.2,1.1,0.2,1.5,0.7c0.3,0.5,0,1-0.3,1.2
		C9.2,18.1,8.6,18.2,8,18.4L8,18.4z"/>
</g>
</svg>
