<?xml version="1.0" encoding="iso-8859-1"?>
<!-- Generator: Adobe Illustrator 25.3.0, SVG Export Plug-In . SVG Version: 6.00 Build 0)  -->
<svg version="1.1" id="Calque_1" xmlns="http://www.w3.org/2000/svg" xmlns:xlink="http://www.w3.org/1999/xlink" x="0px" y="0px"
	 viewBox="0 0 76 34.9" style="enable-background:new 0 0 76 34.9;" xml:space="preserve">
<g>
	<path d="M71.6,22.2c-1.9-0.3-3.8-0.6-5.6-0.9c-1.2-0.2-2.5-0.3-3.7-0.4c-3.9-0.3-7.7,0.6-11.4,1.9c-0.2,0.1-0.3,0.2-0.4,0.3
		c0.2,0.1,0.3,0.2,0.5,0.3c0.9,0.4,1.7,0.7,2.6,1.1c0.5,0.2,0.7,0.6,0.7,1.1c0.1,0.9,0.2,1.7,0.3,2.6c0.2,1.5-0.3,2.1-1.9,2.4
		c-0.7,0.1-1.4,0.5-2.3,0.2c-0.3-0.1-0.9,0.4-1.4,0.6c-0.1,0-0.1,0.3-0.1,0.4c0.1,0.3,0.2,0.5,0.4,0.8c0.2,0.3,0.5,0.6,0.7,1
		c-0.4-0.1-0.9-0.2-1.3-0.3c-0.6-0.3-1.1-0.6-1.7-1c-0.9-0.6-1.9-0.7-2.9-0.6c-0.7,0.1-1.2-0.1-1.6-0.8c-0.5-0.8-1.3-1.6-1.9-2.4
		c-0.4-0.5-0.9-0.5-1.4-0.3c-0.3,0.1-0.5,0.5-0.7,0.5c-1.5-0.2-1.7,1-2.1,1.9c-0.6,1.5-1.7,2.7-2.9,3.7c-0.8,0.7-1.4,0.7-2.2,0
		c-0.7-0.6-1.2-1.3-1.8-2c-0.3-0.3-0.4-0.7-0.7-1c-1.2-1.6-2.8-2.2-4.9-2.3c-3.1-0.1-6.2-0.2-9.2-1c-0.3-0.1-0.7-0.1-1-0.3
		c-1.4-0.9-3-0.7-4.5-1.1c-1.7-0.4-3.5-0.6-5.3-0.9c-0.9-0.2-1.8-0.3-2.6-0.5C0.4,25.1,0,24.5,0,23.6c0-0.7,0.4-1.1,1.3-1.2
		c0.8-0.2,1.6-0.3,2.5-0.4c0.1,0,0.3-0.1,0.4-0.2c-0.1-0.1-0.2-0.3-0.3-0.4c-1.1-0.7-2.1-1.3-3.2-2c-1-0.7-0.9-1.2,0.1-1.8
		c1.7-1.1,3.4-2.2,5-3.4c0.9-0.6,1.7-1.3,2.5-2c1.1-0.9,2.4-1.2,3.8-1.3c0.7,0,1.5-0.3,2.2-0.6c1.1-0.5,2.2-1.1,3.4-1.7
		c0.6-0.3,1.2-0.5,1.9-0.6c0.8-0.1,1-0.5,1-1.2c0-1-0.2-2,0.5-2.9c0.1-0.2,0.4-0.3,0.6-0.3C22,3.8,22,4.1,21.8,4.4
		c-0.1,0.1-0.1,0.2-0.1,0.3c-0.1,0.2-0.3,0.5,0.1,0.5c0.2,0,0.5-0.2,0.5-0.4c0.1-0.9,0.5-1.6,1.1-2.2c0.1-0.1,0.4-0.1,0.6-0.2
		c0,0.2,0.1,0.5,0,0.6c-0.1,0.3-0.4,0.4-0.6,0.7c-0.1,0.2,0,0.4-0.1,0.6c0.3,0,0.8,0.1,1-0.1c0.2-0.2,0.2-0.7,0.3-1
		c0.4-0.8,0.6-1.7,1.5-2.1c0.1-0.1,0.3,0,0.5,0c0,0.2,0.1,0.5,0,0.6c-0.3,0.3-0.7,0.5-0.9,0.8c-0.2,0.2-0.3,0.7-0.2,0.9
		c0.1,0.4,0.9,0.2,1.2-0.2C27,3,27.1,2.5,27.4,2.1c0.4-0.7,0.8-1.3,1.2-2C28.7,0,29.1,0,29.4,0c0,0.3,0.1,0.6,0,0.7
		c-0.3,0.4-0.8,0.7-1.1,1.2c-0.2,0.2-0.3,0.7-0.2,0.9c0.1,0.4,0.9,0.3,1.2-0.2c0.3-0.4,0.4-0.9,0.8-1.2c0.4-0.5,1-0.9,1.5-1.2
		c0.1-0.1,0.3,0.1,0.5,0.1c0,0.2,0,0.4-0.1,0.4c-0.3,0.3-0.7,0.6-1.1,0.9c-0.3,0.3-0.5,0.6-0.2,0.9c0.3,0.3,0.7,0.6,1.1,0.2
		c0.4-0.4,0.8-0.9,1.2-1.3c0.3-0.3,0.7-0.6,1.1-0.9c0.1-0.1,0.4,0,0.5,0.1c0.1,0.2,0.1,0.5,0,0.6c-0.4,0.4-0.9,0.6-1.3,1
		C33.1,2.4,33,2.7,33,2.7c0.1,0.2,0.3,0.3,0.5,0.3c0.7,0.1,1.3,0,1.8-0.5c0,0,0.1-0.1,0.1-0.1c0.9-0.7,1.6-0.9,1.6-0.5
		c0.1,0.7-0.8,0.6-1,1.1c-0.1,0.2-0.3,0.3-0.4,0.4c0.3,0.1,0.5,0.3,0.8,0.3c0.3,0,0.7-0.2,1-0.4c0.3-0.1,0.5-0.5,0.7-0.5
		c0.6-0.1,1.2,0,1.7,0.1c0,0.8-0.8,0.5-1.2,0.8c-0.2,0.1-0.3,0.3-0.5,0.4c0.2,0,0.5,0.2,0.7,0.1c0.8-0.2,1.6-0.4,2.4-0.6
		c0.2,0,0.4,0.1,0.6,0.2c-0.1,0.2-0.2,0.4-0.4,0.5c-0.2,0.1-0.6,0.1-0.8,0.2c-0.1,0-0.2,0.2-0.3,0.3c0.1,0.1,0.3,0.2,0.4,0.2
		C42.6,4.8,44.1,4,45,2.2c0.8-1.6,2-1.7,3.6-0.7c0.8,0.5,1.8,0.9,2.6,1.4c1.4,0.9,2.7,1.9,4,2.9c1.5,1.2,3,2.4,4.6,3.6
		c0.4,0.3,0.4,0.6,0.1,0.9c-0.7,0.7-1.5,1.4-2.2,2.1c-0.1,0.1-0.2,0.3-0.3,0.4c0.2,0,0.3,0.1,0.5,0.1c2.4,0.4,4.5-0.7,6.7-1.5
		c1.9-0.7,3.9-1.4,5.9-1.9c2.3-0.6,4.5,0.9,5,3.3c0,0.1,0,0.2,0,0.4c0.1,1.9,0.3,3.9,0.3,5.8c0,1.7-1.2,3-3,3c-0.5,0-1,0-1.4,0
		C71.6,22.1,71.6,22.2,71.6,22.2z"/>
	<path d="M11.3,23.2c-0.4-0.1-0.7,0-0.9-0.1c-0.3-0.1-0.5-0.3-0.7-0.4c0.3-0.1,0.5-0.2,0.8-0.2c0.5-0.1,1.1-0.1,1.6-0.2
		c1.7-0.4,3.1-1.2,3.7-3c0.1-0.2,0.3-0.4,0.4-0.5c0,0.3,0.1,0.6,0,0.8c-0.3,1.3-1.2,2.2-2.4,2.7C12.9,22.6,12,22.9,11.3,23.2z"/>
	<path d="M11.7,15.1c0,1-0.7,1.6-1.7,1.6c-1,0-1.6-0.7-1.6-1.7c0-0.9,0.7-1.6,1.7-1.6C11,13.4,11.7,14.1,11.7,15.1z"/>
</g>
</svg>
