<?xml version="1.0" encoding="iso-8859-1"?>
<!-- Generator: Adobe Illustrator 25.3.0, SVG Export Plug-In . SVG Version: 6.00 Build 0)  -->
<svg version="1.1" id="Calque_1" xmlns="http://www.w3.org/2000/svg" xmlns:xlink="http://www.w3.org/1999/xlink" x="0px" y="0px"
	 viewBox="0 0 80.6 36.7" style="enable-background:new 0 0 80.6 36.7;" xml:space="preserve">
<g>
	<path d="M36.9,36.7c-3.7,0.1-7.3-0.5-10.8-1.6c-1.4-0.4-2.7-1-3.4-2.4c-0.2-0.4-0.5-0.7-0.8-0.9c-0.1-0.1-0.6,0.2-0.6,0.3
		c0.2,0.6,0.2,1.3-0.4,1.5c-0.7,0.3-1.5,0.2-2.2-0.2c-0.9-0.5-1.9-1-2.1-2.1c-0.3-1.7-1.4-2.1-2.8-2.2c-1.3-0.1-2.4-0.5-3.5-1.3
		c-0.3-0.2-0.7-0.4-1.1-0.5c-1.7-0.5-3.1-1.5-4.3-2.7c-0.7-0.7-1.4-1.4-2.2-2.1c-0.6-0.6-1.1-1.2-2.1-1.3c-0.5,0-0.7-0.5-0.6-1.1
		c0.3-1.3,0.8-2.4,1.8-3.2c0.9-0.8,1.5-1.8,1.7-3c0.1-0.5,0.5-1.1,0.9-1.5C5.5,11.1,6.7,9.9,8,8.8c0.7-0.6,1.6-1.1,2.4-1.5
		c1.1-0.7,2.2-1.3,3.4-2c3.7-2.1,7.7-3.8,11.9-4.7C27.3,0.3,28.8,0,30.5,0c1.3,0,2.6,0,4,0c3.1-0.1,6.2,0.5,9.2,1.2
		c5.4,1.3,10.8,2.9,16,4.9c3.1,1.2,6.1,2.3,9,3.9c0.3,0.1,0.5,0.2,0.8,0.4c0.9,0.5,0.9,0.8,0.1,1.4c-0.7,0.6-1.5,1.2-2.2,1.8
		c-0.1,0.1-0.2,0.2-0.2,0.2c0.1,0,0.2,0.1,0.3,0.1c0.4-0.1,0.8-0.2,1.2-0.3c2.4-0.9,4.9-1,7.3-1.4c1.4-0.2,2.8,0.8,3.6,2.2
		c1.4,2.5,1.3,5,0.3,7.5c-0.4,1-0.9,2.1-1.4,3c-0.7,1.2-1.4,1.5-2.7,1.1c-2.3-0.7-4.7-1.4-7-2.2c-0.6-0.2-1.1-0.4-1.7-0.6
		c-0.6-0.2-1.2-0.2-1.7-0.3c0.5,0.4,1,0.7,1.4,1.1c0.6,0.5,1.3,1.1,1.8,1.7c0.8,0.8,0.7,1.6-0.4,2.1c-2.9,1.4-5.9,2.9-8.9,4.2
		c-2.8,1.1-5.6,2.2-8.6,2.7c-2.5,0.4-5,0.9-7.5,1.3C41.1,36.5,39,36.5,36.9,36.7z"/>
	<path d="M4.2,17.9c0,0.7-0.5,0.8-1.1,0.7C3.2,17.7,3.4,17.6,4.2,17.9z"/>
</g>
</svg>
