<?xml version="1.0" encoding="iso-8859-1"?>
<!-- Generator: Adobe Illustrator 25.3.0, SVG Export Plug-In . SVG Version: 6.00 Build 0)  -->
<svg version="1.1" id="Calque_1" xmlns="http://www.w3.org/2000/svg" xmlns:xlink="http://www.w3.org/1999/xlink" x="0px" y="0px"
	 viewBox="0 0 73.3 48.1" style="enable-background:new 0 0 73.3 48.1;" xml:space="preserve">
<g>
	<path d="M55.3,28.3c-3,0.3-4.8-1.5-6.8-3c-1.1-0.9-2.2-1.8-3.4-2.6c-0.4-0.3-0.7-0.5-1,0.3c-0.2,0.8-0.8,1.4-1.2,2.2
		c-0.9,1.9-1.5,3.8,0,5.7c0.1,0.1-0.1,0.6-0.2,0.7c-0.3,0.2-0.7,0.3-1,0.2c-1.1,0-2.2-0.1-3.3-0.2c-0.2,0-0.4,0-0.5,0
		c-2.2-1.1-4.3-0.2-6.3,0.4c-1.6,0.5-3.3,0.3-5,0.3c-0.4,0-0.8,0-1.3,0c-0.3,0-0.4,0.2-0.2,0.4c1.3,1.3,1.5,3.2,2.4,4.7
		c0.2,0.3-0.2,0.6-0.5,0.5c-0.8-0.3-1.7-0.7-2.4-1.2c-1.6-1.3-3-2.7-4.5-4.1c-0.7-0.7-1.6-1.1-2.5-1.6c-2.8-1.2-5.4-2.7-8.2-4
		c-2.8-1.4-5.5-2.7-8.3-4c-0.8-0.4-1.5-1.7-1.1-2.5c0.4-0.9,0.9-1.7,1.8-2.3c2.5-1.7,4.8-3.5,6.9-5.6c1.7-1.7,3.7-3.1,6-4.2
		c1.5-0.7,3-1.5,4.5-2.2c3.3-1.5,6.6-3,10-4.4c1.3-0.6,2.6-1.2,4-1.6c1-0.3,2-0.2,3-0.1c0.4,0,0.8,0.3,1.1,0.5
		c0.8,0.5,0.9,1,0.4,1.8c-1.1,1.5-1.6,3.1-1.8,4.9c-0.1,1.1-0.5,2.2-1.9,2.5c-0.2,0-0.3,0.2-0.5,0.4c0.1,0.2,0.2,0.4,0.4,0.5
		c1.3,0.7,2.6,1.2,4.1,1.2c1.7,0,3,0.8,4,2c0.3,0.3,0.6,0.8,0.6,1.1c-0.3,0.9,0.2,1,0.8,0.9c0.8-0.1,1.6-0.2,2.2-0.5
		c2-1,3.9-2,5.9-3.1c1.6-0.9,3.2-1.2,5-1c1.1,0.1,1.3,0.4,0.7,1.3c-1,1.3-2,2.5-3,3.7c-0.7,0.9-1.6,1.7-2.4,2.4
		c-0.9,0.8-0.8,1.3-0.2,2.1c0.7,1,1.6,1.9,2.4,2.8c1.1,1.2,2.3,2.3,3.4,3.4c0.2,0.2,0.4,0.7,0.3,0.9c-0.1,0.2-0.5,0.5-0.9,0.5
		C56.3,28.4,55.7,28.3,55.3,28.3z"/>
	<path d="M37.4,38c1.1-0.1,2.2-0.2,3.4-0.4c0.6-0.1,1.1-0.4,1.4-1c0.2-0.5,0.7-1,1-1.5c1.4-2.4,3.7-2.4,6-2.2c1.2,0.1,1.6,1.1,1,2.2
		c-0.5,1.1-1.5,1.6-2.4,2.3c-0.2,0.1-0.3,0.3-0.5,0.4c0.2,0.1,0.5,0.3,0.7,0.3c1.2,0.1,2.5,0.3,3.7,0.4c1.5,0.1,3.1,0.3,4.6,0.3
		c0.6,0,1.2-0.2,1.8-0.2c0.6,0,1.3-0.3,1.7,0c1.4,0.9,2.8,0.4,4.1-0.1c1.8-0.7,3.6-1.5,5.4-2.3c0.9-0.4,1.8-0.9,2.7-1.3
		c0.4-0.2,0.9-0.4,1.1,0.1c0.2,0.3,0.2,0.9,0,1.1c-0.8,1-1.7,2-2.5,3c-0.3,0.4-0.6,0.9-0.8,1.3c-0.2,0.6,0.1,1.2,0.6,1.8
		c1,1.1,2,2.4,2.5,3.9c0.1,0.2,0.2,0.5,0.1,0.7c0,0.2-0.4,0.4-0.4,0.4c-0.6-0.2-1.2-0.5-1.8-0.9c-1.7-1-3.3-2.1-5-3.2
		C65,42.5,64,42.2,63,42.3c-1.6,0.1-3.2-0.2-4.8,0.3c-0.4,0.1-0.6,0.3-0.6,0.7c0.1,1.4-1.2,2-2,2.7c-0.2,0.2-0.8,0.1-1.2,0
		c-0.8-0.4-1.6-0.8-2.2-1.4c-0.9-1-2-0.9-3.1-0.8C48.5,43.9,48,44,47.4,44c-1.6,0.1-3.2,0.3-4.8,0.4c-0.2,0-0.3,0.1-0.4,0.2
		c0.1,0.1,0.1,0.3,0.3,0.4c0.8,0.4,0.9,1.2,1.2,1.9c0.3,0.8-0.2,1.4-1,1.1c-1.2-0.5-2.4-1-3.1-2.2c-0.6-1.2-1.7-1.6-2.9-1.3
		c-0.6,0.1-1.2,0.2-1.8,0.2c-3-0.1-6-0.2-8.9-0.4c-0.8,0-1.7-0.2-2.4-0.4c-1.3-0.4-2.5-0.6-3.9-0.6c-0.5,0-1.1-0.1-1.6-0.3
		c-0.5-0.2-1-0.6-1.4-0.9c0.4-0.3,0.8-0.7,1.3-0.8c1.5-0.4,3.1-0.8,4.6-1.2c2-0.4,3.9-0.9,5.9-1.2c1.3-0.2,2.6-0.4,3.9-0.6
		c1.7-0.2,3.3-0.4,5-0.5C37.4,37.8,37.4,37.9,37.4,38z"/>
	<path d="M1.4,19.7c0.4,0,0.8,0.1,0.7,0.6c0,0.2-0.4,0.5-0.4,0.4c-0.3-0.2-0.5-0.4-0.7-0.6C1.1,20,1.2,19.8,1.4,19.7z"/>
	<path d="M4,21.9c-0.9,0-1.6-0.7-1.6-1.5c0.1-0.8,1.1-1.7,1.9-1.7c0.9,0,1.6,0.6,1.6,1.5C6,21.1,5.2,21.9,4,21.9z"/>
	<path d="M23.5,17.5c1.2,0.1,2.3,0.3,3.5,0.4c0.1,0,0.3,0.1,0.4,0.2c-0.2,0.1-0.4,0.4-0.5,0.4c-1.6-0.2-3.2-0.4-4.7-0.6
		c-0.2,0-0.4,0-0.5,0c-0.1,0-0.2-0.1-0.3-0.2c0.1,0,0.2-0.1,0.3-0.1c0.6,0,1.2,0,1.8,0C23.5,17.5,23.5,17.5,23.5,17.5z"/>
	<path d="M33.4,19c-1.6,0-3.2,0.1-4.8-0.4c-0.1,0-0.2-0.2-0.4-0.2c0.1,0,0.2-0.1,0.3-0.1c0.6,0,1.2,0,1.8,0c0.8,0.1,1.6,0.2,2.5,0.3
		C33,18.7,33.2,18.9,33.4,19L33.4,19z"/>
	<path d="M43.3,19.7c-0.2,0-0.5,0-0.7,0c-0.3,0-0.7-0.1-1-0.1c0.3-0.1,0.6-0.2,0.9-0.2c0.9-0.1,1.8-0.2,2.8-0.3
		c0.1,0,0.2,0.2,0.2,0.2c0,0.1-0.2,0.4-0.3,0.4C44.6,19.7,44,19.7,43.3,19.7C43.3,19.7,43.3,19.7,43.3,19.7z"/>
	<path d="M38.1,19c0.4,0.1,1-0.3,1.3,0.4c-0.4,0.1-0.9,0.2-1.3,0.3c-0.3,0-0.6,0.1-0.9,0c-0.3-0.1-0.5-0.3-0.7-0.4
		c0.2-0.1,0.4-0.2,0.7-0.3C37.5,19,37.8,19,38.1,19z"/>
	<path d="M18.8,18.3c-0.5-0.1-0.7-0.1-0.9-0.1c-0.1,0-0.1-0.2-0.1-0.2c0,0,0-0.1,0.1-0.1c0.2-0.1,0.4-0.2,0.6-0.2
		c0.4,0,0.7,0.2,1.1,0.3C19.3,18.1,19,18.2,18.8,18.3z"/>
	<path d="M33.4,19c0.5-0.1,1-0.2,1.6-0.3c0.2,0,0.5,0.3,0.7,0.4c-0.2,0.1-0.4,0.2-0.6,0.2C34.5,19.3,33.8,19.6,33.4,19L33.4,19z"/>
	<path d="M13.4,19c-0.3-0.1-0.5-0.1-0.7-0.2c0.3-0.2,0.6-0.4,0.9-0.5c0.1,0,0.3,0.2,0.5,0.4C13.9,18.8,13.7,18.9,13.4,19z"/>
	<path d="M6.4,22.2c-0.3,0.2-0.6,0.5-0.9,0.7c0,0-0.2-0.1-0.3-0.2c0.3-0.3,0.6-0.6,0.8-0.8C6,21.9,6.2,22,6.4,22.2z"/>
</g>
</svg>
