<?xml version="1.0" encoding="iso-8859-1"?>
<!-- Generator: Adobe Illustrator 25.3.0, SVG Export Plug-In . SVG Version: 6.00 Build 0)  -->
<svg version="1.1" id="Calque_1" xmlns="http://www.w3.org/2000/svg" xmlns:xlink="http://www.w3.org/1999/xlink" x="0px" y="0px"
	 viewBox="0 0 83.1 21.8" style="enable-background:new 0 0 83.1 21.8;" xml:space="preserve">
<g>
	<path d="M10,18.7c0.5,0.6,1.1,1.1,1.6,1.7c0.1,0.1,0.3,0.3,0.2,0.5c0,0.3-0.2,0.7-0.3,1c-0.3-0.2-0.6-0.3-0.9-0.5
		c-0.7-0.4-1.3-0.8-2-1.2c-1.2-0.5-2.2-1.4-3.1-2.4c-0.6-0.7-1.2-1.4-1.8-2.2c-0.2-0.2-0.4-0.5-0.5-0.7c-0.2-0.3-0.2-0.6-0.4-0.9
		c0,0.4-0.1,1,0.1,1.2c1.2,1.2,1.3,3.1,2.8,4.1c0.1,0.1,0.1,0.4,0.2,0.6c-0.2-0.1-0.4-0.1-0.6-0.2c-0.2-0.1-0.3-0.2-0.5-0.2
		c-0.3,0.1-0.5,0.7-1,0.3c-0.6-0.5-1.3-0.9-1.7-1.5c-0.6-0.8-0.9-1.7-0.8-2.8c0.1-0.9-0.3-1.8,0.1-2.8c0.1-0.3-0.3-1-0.7-1.4
		c-0.8-0.9-1.2-1.8-0.5-3c0.4-0.6,0.4-1.5,0.6-2.2C1.3,4.4,2.6,3.4,4,2.6c0.1,0,0.3,0,0.3,0c0,0.1,0,0.3,0,0.4
		C3.7,3.7,3,4.3,2.4,4.9C2.3,5,2.3,5.2,2.3,5.4c0.2-0.1,0.3-0.1,0.5-0.2c1.3-0.9,2.8-1.5,4-2.7C7.1,2,7.8,1.7,8.5,1.6
		c0.6-0.1,1.3,0,1.9,0.1C9.8,1.9,9.3,2.2,8.7,2.3c-0.8,0.1-1.5,0.4-2,1c-0.9,0.9-1.9,1.6-3,2.2c-0.5,0.3-1,0.7-1.4,1.1
		c-0.2,0.2-0.1,0.6,0,0.9c0,0.1,0.5,0.1,0.7,0.1C4.5,7.3,5.9,7,7.4,6.7c2.1-0.4,4.2-0.6,6.3-0.9c1.4-0.2,2.8-0.4,4.2-0.6
		c1.2-0.2,2.4-0.2,3.5-0.4c0.4-0.1,0.7-0.3,1.1-0.5c0.6-0.4,1.2-1,1.9-1.3c2.5-1.2,5.1-2.1,8-2.2c1.8-0.1,3.6-0.5,5.5-0.6
		c2.1-0.1,4.3-0.3,6.4,0.2c0.5,0.1,1,0.1,1.4,0.1c2,0,4.1,0,6.1,0c2.3,0,4.6,0.2,6.9,0.7c0.4,0.1,0.8,0.1,1.3,0c2-0.1,4,0.3,6,0.7
		c1.9,0.4,3.7,0.8,5.6,0.7c0.6,0,1.2,0.1,1.7,0.3c1.6,0.6,1.8,1.2,1.2,2.8c0,0.1,0,0.3,0,0.4c0,0,0.2,0,0.3,0c1.3-0.6,2.6-1,4.1-1.1
		c1.6-0.1,3,0.6,3.4,2.1c0.3,1.1,0.4,2.2,0.5,3.3c0,1.7-1.1,2.9-2.9,3c-2.1,0.1-4.1-0.4-6.1-0.9c-0.5-0.1-0.7,0-0.7,0.5
		c0,1.1-0.9,1.5-1.7,1.8c-2.1,0.7-4.2,1.3-6.3,1.9c-3.6,0.9-7.2,1.7-10.7,2.5c-0.5,0.1-1.1,0.1-1.6,0.1c-2.8,0-5.5,0-8.3,0
		c-0.9,0-1.9-0.2-2.8-0.4c-2-0.6-4-1.2-5.7-2.4c-0.4-0.3-0.8-0.5-1.3-0.6c-0.2-0.1-0.6,0-0.8,0.2c-0.1,0.1-0.2,0.6-0.1,0.8
		c0.6,1,0.4,1.9,0.1,2.9c-0.2,0.8-0.6,0.9-1.3,0.4c-0.6-0.5-1.1-1.1-1.6-1.7c-0.6-0.7-1.1-1.4-1.6-2.1c-0.2-0.2-0.6-0.4-0.9-0.5
		c-0.8-0.2-1.6-0.3-2.5-0.4c-2.4-0.2-4.8-0.2-7.2-0.4c-2.6-0.2-5.2-0.6-7.8-0.9c-0.9-0.1-1.9-0.3-2.8-0.5c-0.2,0-0.3,0.1-0.5,0.1
		c0.1,0.1,0.1,0.3,0.3,0.4c1.2,1,2.6,1.9,4.2,2.2c1.6,0.3,3,1.1,4.3,2c0.1,0.1,0.1,0.3,0.2,0.4c-0.2,0-0.4,0.1-0.5,0.1
		c-1.7-1.4-3.9-1.6-6-2.1c-1-0.2-1.8-1.1-2.7-1.7c-0.2-0.1-0.4-0.1-0.6-0.2c0,0.2,0,0.5,0.1,0.6c1.3,1.4,2.6,2.8,4.5,3.5
		c0.2,0.1,0.4,0.2,0.6,0.4c0.1,0,0.1,0.2,0.1,0.3c-0.1,0.1-0.2,0.2-0.3,0.1C11.5,19.2,10.7,18.9,10,18.7c-0.6-0.4-1.2-0.7-1.8-1.1
		c-0.6-0.4-1.1-0.9-1.6-1.4C7,16.7,7.5,17.1,8,17.5C8.6,17.9,9.3,18.2,10,18.7z"/>
	<path d="M18.6,21.7c-0.2,0-0.5,0.1-0.6,0.1c-0.7-0.3-1.3-0.7-2-1.1c-0.3-0.1-0.8-0.4-0.8-0.4c0.3-0.6,0.7-0.2,1,0
		c0.7,0.3,1.5,0.7,2.2,1.1C18.5,21.3,18.5,21.5,18.6,21.7z"/>
</g>
</svg>
