<?xml version="1.0" encoding="iso-8859-1"?>
<!-- Generator: Adobe Illustrator 25.3.0, SVG Export Plug-In . SVG Version: 6.00 Build 0)  -->
<svg version="1.1" id="Calque_1" xmlns="http://www.w3.org/2000/svg" xmlns:xlink="http://www.w3.org/1999/xlink" x="0px" y="0px"
	 viewBox="0 0 77.8 47.3" style="enable-background:new 0 0 77.8 47.3;" xml:space="preserve">
<g>
	<path d="M74.1,35.2c-1.5-0.1-3-0.2-4.4-1c-1.4-0.8-2.9-1.3-4.6-1.2c-0.4,0-0.5,0.1-0.4,0.5c0.2,0.6,0.4,1.3,0.2,1.7
		c-0.2,0.4-1,0.4-1.5,0.7c-2.7,1.7-5.9,2-8.9,2.8C54,38.9,53.5,39,53,39.2c-1.3,0.7-2.7,0.8-4.1,0.9c-0.8,0.1-1.6,0.4-2.4,0.7
		c-2.1,0.9-4.5,1.1-6.7,1.4c-0.3,0-0.7-0.2-1-0.3c-0.6-0.3-1.1-1.1-1.8-0.2c-0.6-0.6-1.9,0.1-2.3-1.1c-0.2-0.5-0.5-1-0.7-1.4
		c-0.1-0.3-0.2-0.5-0.6-0.1c-1,1-2.2,0.9-3.3,0.4c-0.5-0.2-0.9-0.2-1.4-0.2c-1.4,0-2.7-0.1-4.1-0.2c-0.9,0-1.8-0.1-2.7-0.1
		c-0.6,0-0.9,0.5-0.5,0.9c1.6,1.8,2.4,4.3,4.7,5.5c0.1,0,0.1,0.1,0.1,0.1c0.3,0.5,0.6,0.9,1,1.4c-0.6,0.6-1.2,0-1.7-0.2
		c-2-0.6-3.5-1.9-4.5-3.8c-0.6-1.2-1.5-2.3-2.2-3.4c-0.6-0.9-1.4-1.2-2.4-1.3c-1.6-0.2-3.2-0.3-4.8-0.5c-0.5-0.1-1.1-0.1-1.6-0.3
		c-2.2-1-4.5-2-6.6-3.1c-1.2-0.6-1.1-0.8-0.5-2c0.1-0.2,0-0.5-0.1-0.7c-0.5-1-0.5-0.9,0.4-1.5c1.1-0.8,2.1-1.6,3.1-2.4
		c1.3-1.1,2.5-2.2,3.8-3.2c0.2-0.2,0.6-0.2,1-0.3c1.3-0.2,1.4-0.5,1.3-1.8c-0.1-1.4-0.1-2.9,0-4.3c0-0.7,0.3-0.9,0.9-0.4
		c0.6,0.5,1,0.5,1.4-0.2c0.1-0.1,0.4-0.1,0.6-0.2c0.4,1.1,1.8,0.4,2.4,1.4c0.2,0.4,0.8,0.7,1.3,0c0.1-0.2,0.8,0,1.3-0.1
		c0.4-0.1,0.7-0.3,1.1-0.4c0.4-0.1,0.8-0.1,1.2-0.3c1.2-0.4,2.4-0.7,3.7-0.1c0.5,0.2,1.1,0.1,1.7,0c0.6,0,1.3,0,1.9-0.2
		c1.1-0.4,2,0.6,3.2,0c0.8-0.4,2-0.3,3-0.1c2.5,0.6,4.9,0.3,7.4,0.3c2,0,3.9,0.7,5.9,1c2.2,0.4,4.3,0.7,6.4,1.3
		c1.8,0.5,3.4,1.1,5.3,0.7c0.6-0.1,1.4,0.1,2.1,0.4c0.6,0.2,1.1,0.7,1.5,1.2c0.6,0.6,1.1,1.4,1.7,2.1c0.6,0.8,1.2,1.5,0.3,2.5
		c-0.1,0.1-0.1,0.4,0,0.4c0.1,0.1,0.3,0.2,0.5,0.1c0.4-0.2,0.7-0.4,1.1-0.6c1.6-0.8,3.3-1.4,5.1-1.5c3-0.1,4.8,1.9,4.6,4.8
		c-0.1,0.9-0.3,1.9-0.5,2.8C76.9,34.4,76.1,35.3,74.1,35.2z"/>
	<path d="M25.6,0.3c1.5,0,3,0,4.5,0c0.4,0,0.8,0.1,1.1,0c1.3-0.6,2.6-0.2,3.9-0.2c1.4-0.1,2.7,0.1,4.1,0.1c2.2,0,4.4,0.2,6.7,0.2
		c2.7,0,5.4,0.2,8,0.3c0.8,0,1.7,0.1,2.5,0.1c2.8,0,5.4,0.7,8.1,1.2c2,0.4,4,1.1,6.1,1c0.7,0,1.4,0.1,2.1,0.3
		c1.8,0.4,2.7,1.5,2.6,3.1c-0.1,1.5-1.5,3.1-3,3c-2.1-0.1-3.9,0.6-5.8,1.3c-2.5,1-5.2,1.8-7.8,2.4c-2,0.5-4,0.7-6,0.9
		c-2.7,0.3-5.3,0.6-8,0.7c-3.5,0.1-7.1,0.1-10.6,0c-1.9-0.1-3.8-0.6-5.1-2.2c-0.4-0.5-0.9-0.9-1.5-0.2c0,0-0.1,0.1-0.2,0.1
		c-2.6-0.1-5.1-0.2-7.7-0.3c-0.5,0-1.1-0.2-1.6-0.2c-2,0-4-0.2-6-0.7c-0.2,0-0.4,0.1-0.6,0.1c0.1,0.2,0.1,0.5,0.3,0.6
		c0.8,0.9,1.6,1.7,2.9,2c0.2,0,0.3,0.3,0.5,0.5c-0.2,0.1-0.4,0.2-0.6,0.2c-0.9,0.3-1.6,0-2.2-0.7c-0.7-0.8-1.5-1.6-2.1-2.5
		c-0.4-0.6-0.9-0.8-1.6-0.9c-1.4,0-2.9-0.1-4.3-0.3c-1-0.1-2.1-0.5-3-1C0.7,9.1,0.1,8.9,0,8.2c0-0.9-0.1-1.7,0.7-2.4
		c0.7-0.6,1.5-1,2.4-1.2c2-0.5,3.9-1,5.9-1.5C9.5,3,10.1,3,10.6,2.8c0.6-0.1,1.2-0.2,1.6-0.6c1-0.9,2-1,3.3-1.2
		C18.8,0.5,22.2,0.3,25.6,0.3z"/>
	<path d="M18.7,28.3c0.1,0.8-0.3,1.5-0.8,2.1c-0.4,0.6-0.8,1.1-1.2,1.7c-0.4-0.9,0.4-1.5,0.7-2.2C17.6,29.3,18.3,28.8,18.7,28.3
		L18.7,28.3z"/>
</g>
</svg>
