<?xml version="1.0" encoding="iso-8859-1"?>
<!-- Generator: Adobe Illustrator 25.3.0, SVG Export Plug-In . SVG Version: 6.00 Build 0)  -->
<svg version="1.1" id="Calque_1" xmlns="http://www.w3.org/2000/svg" xmlns:xlink="http://www.w3.org/1999/xlink" x="0px" y="0px"
	 viewBox="0 0 80.3 33.5" style="enable-background:new 0 0 80.3 33.5;" xml:space="preserve">
<g>
	<path d="M60.5,13.7c1.3,0.1,2.4-0.3,3.4-0.9c3.8-2,7.7-4.1,11.6-6.1c1.1-0.6,2.3-0.9,3.5-1.4c0.4-0.2,0.8-0.4,1.1,0
		c0.2,0.3,0.2,0.8,0.2,1.2c0,0.3-0.3,0.6-0.4,1c-0.9,2.2-2.2,4.2-3.9,5.9c-0.9,0.9-1.9,1.6-3,2.3c-1.2,0.8-1.2,0.8-0.1,1.7
		c0.8,0.7,1.7,1.3,2.5,1.9c2.4,1.8,4,4.2,4.7,7.1c0.1,0.2,0,0.6-0.1,0.8c-0.2,0.2-0.6,0.2-0.8,0.1c-2.7-1.1-5.4-2.1-8.1-3.3
		c-2-0.9-3.8-1.9-5.8-2.8c-0.3-0.2-0.7-0.4-1-0.4c-0.9-0.1-1.7-0.6-2.5,0.6c-0.5,0.8-1.6,1.1-2.5,1.7c-1,0.7-2.1,1.4-3.1,2
		c-1,0.6-1.8,1.4-2.3,2.4c-0.4,0.8-0.8,0.9-1.6,0.6c-1.2-0.4-2.4-0.8-3.5-1.4c-0.5-0.2-0.9-0.2-1.3,0.1c0,0-0.1,0-0.2,0.1
		c-2.7,2.3-6.1,3-9.4,3.9c-0.6,0.2-0.8,0.4-0.5,1c0.1,0.1,0.1,0.2,0.1,0.3c0,0.4,0,0.9,0,1.3c-0.4,0-0.8,0-1.1-0.1
		c-0.8-0.2-1.6-0.4-2.3-0.8c-1-0.5-2-0.7-3.1-0.7c-2,0-4,0-6-0.3c-1.2-0.2-2.4,0.2-3.6-0.1c-2.7-0.7-5.5-1.3-8.1-2.5
		c-4.2-1.8-8.2-4-12.1-6.5c-0.3-0.2-0.5-0.5-0.8-0.7c-0.5-0.4-0.6-0.9,0-1.3c0.6-0.4,0.6-0.7,0.3-1.3c-0.6-1-0.6-1.1,0.3-1.7
		c1.5-0.9,3.1-1.9,4.7-2.7c3-1.5,6.2-2.7,9.5-3.7c3.2-0.9,6.4-1.8,9.7-2c0.8,0,1.7-0.1,2.4-0.4c0.4-0.2,0.8-0.7,1-1.1
		c1.1-2.1,2.2-4.2,3.3-6.3c0.2-0.3,0.4-0.6,0.7-0.8c0.8-0.8,1.1-0.7,1.8,0.2C35.1,2.2,36,3.7,37,5c1.1,1.4,2.5,2.4,4.4,2.5
		c0.2,0,0.5,0.3,0.7,0.4c-0.2,0.2-0.3,0.5-0.6,0.6c-0.8,0.4-1.7,0.6-2.5,1c-0.1,0-0.2,0.2-0.2,0.4c0,0,0.2,0.1,0.3,0.2
		c0.3,0.1,0.6,0.2,0.9,0.2c1.9,0.3,3.8,0.6,5.6,0.9c2,0.3,4,0.6,6,1c1.4,0.2,2.8,0.6,4.2,0.8C57.3,13.3,58.9,13.4,60.5,13.7z"/>
	<path d="M21.6,26.1c2.2-0.1,4.5,0.2,6.8,0.7c0.4,0.1,0.8,0.1,0.7,0.5c0,0.2-0.4,0.6-0.7,0.6c-1.9,0.5-3.8,1.2-5.7,1.3
		c-1.9,0.2-3.8-0.2-5.2-1.7c-0.2-0.3-0.5-0.8-0.4-1c0.2-0.3,0.7-0.5,1-0.5C19.2,26,20.3,26.1,21.6,26.1z"/>
	<path d="M8.6,20c0.1,0.6-0.5,0.8-0.9,1c-0.4,0.1-0.6-0.1-0.5-0.4c0.2-0.4,0-0.5-0.4-0.5c-0.4,0-0.8,0-0.2,0.5c0,0-0.1,0.3-0.2,0.5
		c-0.5-0.2-1.1-0.4-1.6-0.7c-0.3-0.2-0.2-0.6,0.2-0.6c0.5,0,0.6,0.1,0.5-0.5c-0.4-1.6-0.2-1.8,1.5-2.2c0.2,0,0.3-0.3,0.4-0.4
		c-0.2-0.1-0.5-0.2-0.7-0.3c-0.1,0-0.3,0.2-0.4,0.3c-0.1,0-0.2-0.1-0.3-0.2C6,16.4,6,16.2,6,16.2c0.4-0.3,0.9-0.7,1.4-0.4
		C7.9,16,8,16.3,8,16.9C8,17.9,8.4,19,8.6,20C8.6,20,8.6,20,8.6,20z"/>
	<path d="M4.5,17.4c0,0.1,0,0.1-0.1,0.2c-0.4,0.4-0.8,0.8-1.2,1.2c0,0-0.2,0-0.3,0c0,0-0.1-0.1,0-0.1c0.4-0.4,0.9-0.9,1.3-1.3
		C4.3,17.2,4.4,17.3,4.5,17.4z"/>
	<path d="M33.1,29.3c-0.8-0.2-1.6-0.4-2.3-0.6c0,0,0.1-0.1,0.1-0.1C31.7,28.5,32.5,28.8,33.1,29.3L33.1,29.3z"/>
	<path d="M8.6,20c0.2-0.2,0.3-0.5,0.5-0.7c0.1-0.2,0.3-0.3,0.5-0.4c0,0.2,0,0.5-0.2,0.6C9.3,19.8,8.9,19.9,8.6,20
		C8.6,20,8.6,20,8.6,20z"/>
</g>
</svg>
