<?xml version="1.0" encoding="iso-8859-1"?>
<!-- Generator: Adobe Illustrator 25.3.0, SVG Export Plug-In . SVG Version: 6.00 Build 0)  -->
<svg version="1.1" id="Calque_1" xmlns="http://www.w3.org/2000/svg" xmlns:xlink="http://www.w3.org/1999/xlink" x="0px" y="0px"
	 viewBox="0 0 84.3 25.8" style="enable-background:new 0 0 84.3 25.8;" xml:space="preserve">
<g>
	<path d="M51.4,11.3c4.1-0.1,8.3,0,12.4-0.3c3.3-0.2,6.5-1.1,9.6-2.3c2.1-0.9,4.3-1.4,6.6-1.5c1.1-0.1,2.2-0.3,3.4-0.3
		c1,0,1.2,0.4,0.8,1.2c-0.6,1.3-1.7,2.3-2.9,3.1c-1.1,0.8-2.3,1.5-3.3,2.4c-0.8,0.7-0.8,0.9,0.1,1.6c0.9,0.6,1.8,1.2,2.7,1.7
		c1.4,0.7,2.3,1.9,3.1,3.1c0.4,0.7,0.2,1.1-0.7,1.2c-2.6,0.2-5.1,0.1-7.6-0.5c-2.4-0.5-4.8-1.2-7.3-1.6c-1.4-0.2-2.9-0.5-4.4-0.2
		C63,19.2,62,19,61,19c-0.2,0-0.3,0.1-0.5,0.1c0.1,0.1,0.3,0.2,0.4,0.3c0.5,0.2,1,0.3,1.5,0.6c0.9,0.5,1.1,1.3,0.7,2.2
		c-0.6,1.4-1.7,2.3-2.8,3.2c-0.7,0.6-1.7,0.4-2.5,0c-1.9-0.8-3.5-2-4.5-3.7c-1.3-2.1-2.9-1.9-4.8-1.6c-0.5,0.1-0.9,0.2-1.4,0.2
		c-1.8,0.1-3.6,0.3-5.3,0.4c-0.6,0-0.3,0.3-0.1,0.5c0.8,0.6,0.7,1.6,0.9,2.4c0.3,0.8-0.4,1.3-1,1.8c-0.5,0.4-1,0.2-1.5-0.1
		c-0.4-0.3-0.8-0.6-1.2-1c-1.1-0.9-2.2-1.9-3.2-2.8c-0.9-0.8-1.9-1-3-0.7c-0.6,0.1-1.3,0.2-1.9,0.2c-3.4,0-6.9,0.2-10.3-0.1
		c-2.8-0.2-5.6-0.2-8.3-0.9c-1.5-0.4-3-0.6-4.5-0.8c-0.4-0.1-0.9-0.1-1.3-0.1c0.2,0.3,0.5,0.6,0.7,1c0.1,0.1,0.1,0.2,0.1,0.3
		c-0.2,0-0.4,0.1-0.5,0c-0.5-0.4-0.9-0.8-1.4-1.1c0,0-0.4,0.2-0.4,0.3c0.2,0.8-0.1,0.8-0.6,0.3c-0.5-0.5-0.9-1.1-1.3-1.7
		C2.6,17.6,2,17,0.9,17c-0.3,0-0.7-0.4-0.9-0.7c-0.1-0.1,0.2-0.5,0.4-0.7c1.5-1.7,3.1-3.4,5.7-3.6c2.6-0.2,5.2-0.7,7.8-1
		c2.6-0.4,5.3-0.7,7.9-1c0.4,0,0.7,0,1.1,0c2.5-0.1,5-0.3,7.5-0.4c1,0,1.4-0.6,1.8-1.4C33.3,6.1,34.6,4,35.8,2
		c0.3-0.5,0.8-0.9,1.3-1.3c0.8-0.7,1.8-1,2.8-0.3c0.9,0.6,1.8,1.2,2.6,1.8c1.6,1.2,3.2,2.4,4.8,3.7c0.8,0.6,1.4,1.5,2,2.3
		c0.5,0.7,0.3,1.2-0.6,1.5c-0.7,0.2-1.3,0.5-2,0.7c-0.1,0.1-0.2,0.2-0.3,0.3c0.1,0.1,0.3,0.2,0.4,0.3c1.5,0.2,3.1,0.3,4.6,0.5
		C51.4,11.4,51.4,11.4,51.4,11.3z"/>
	<path d="M19.1,19.9c-0.8-0.1-1.5-0.3-2.2-0.5c-0.3-0.1-0.6-0.4-0.8-0.7c-0.5-1.1-0.3-1.8,0.8-2.2c2.1-0.7,4.2-1.3,6.3-1.9
		c0.6-0.2,1.2-0.1,1.6,0.5c0.4,0.6,0.1,1.1-0.3,1.6c-0.6,0.6-1.2,1.3-1.9,1.9C21.6,19.5,20.5,20,19.1,19.9z"/>
	<path d="M6.3,12.9c0.8,0,1.6-0.2,2.1,0.5c0.2,0.3,0.4,0.6,0.3,0.9c-0.1,0.7-1.5,1.5-2.2,1.3c-1.4-0.3-1.6-1.1-0.8-2.1
		C5.9,13.3,6.1,13.1,6.3,12.9L6.3,12.9z"/>
</g>
</svg>
