<?xml version="1.0" encoding="iso-8859-1"?>
<!-- Generator: Adobe Illustrator 25.3.0, SVG Export Plug-In . SVG Version: 6.00 Build 0)  -->
<svg version="1.1" id="Calque_1" xmlns="http://www.w3.org/2000/svg" xmlns:xlink="http://www.w3.org/1999/xlink" x="0px" y="0px"
	 viewBox="0 0 87 28.5" style="enable-background:new 0 0 87 28.5;" xml:space="preserve">
<g>
	<path d="M72.3,14.4c-1.5-0.2-3.1-0.5-4.6-0.5c-1.5,0-3.1,0.2-4.6,0.4c-2.2,0.3-4.5,0.5-6.7,1c-3.3,0.8-6.7,0.7-10.1,1
		c-2.5,0.3-5.1,0.4-7.6,0.7c-3,0.4-6,0.7-9.1,0.7c-2.1,0-4.1,0.4-6.2,0.6c-0.5,0-1,0-1.4,0c-2.5,0-5,0.1-7.6,0
		c-4.2-0.2-8.4-0.7-12.4-2.2c-0.3-0.1-0.7-0.3-1-0.5c-0.1-0.1-0.3-0.4-0.3-0.4c0.9-0.9-0.2-1.3-0.5-1.9c-0.5-1.3,0-2.5,0.9-3.4
		c1.1-1,2.3-2,3.7-2.4C6.8,7.2,8.7,6.6,10.6,6C10.8,6,11,6,11.2,6c3.5-0.1,6.9-0.6,10.3-1.1c0.7-0.1,1.5-0.7,2.1-1.3
		c0.7-0.7,1.5-0.9,2.4-1.1c2.2-0.5,4.4-0.9,6.6-1.4C32.7,1,32.9,1,33,1c2.4-0.1,4.9-0.2,7.3-0.4c3-0.2,6-0.4,9-0.5
		C50.7,0,52.1,0,53.5,0c2.7,0.1,5.4,0,8.1,0.3c3.6,0.3,7.3,0.1,10.8,1.3c1.1,0.4,2.3,0.5,3.5,0.7c3.1,0.5,5.5,2.3,7.8,4.1
		c1.4,1,2.1,2.5,2.2,4.3c0,0.7,0.2,1.4,0.5,2c0.6,1.4,0.7,2.8,0.4,4.3c-0.2,0.7-0.2,1.4-0.3,2.1c-0.7,2.7-2.4,4.7-4.4,6.6
		c-0.4,0.3-0.9,0.6-1.4,0.7c-2.3,0.5-4.5,1.1-6.8,1.4c-1.7,0.3-3.5,0.3-5.3,0.4c-3.1,0.1-6.2,0.3-9.3,0.3c-1.5,0-3.1-0.2-4.6-0.4
		c-0.2,0-0.4-0.2-0.4-0.3c0-0.2,0.1-0.4,0.3-0.5c0.4-0.3,0.8-0.4,1.3-0.7c4.5-2.2,9.1-4,13.9-5.5c3.2-1.1,6.3-2.5,9.2-4.3
		c0.7-0.4,0.7-0.6,0.1-1.2c-1.1-1.1-2.6-1.4-4.1-1.5c-0.9,0-1.8,0-2.7,0C72.3,14.3,72.3,14.4,72.3,14.4z"/>
	<path d="M19.9,11.7c0.4-0.2,0.7-0.3,1.1-0.5c1.3-0.7,2.5-1.4,3.8-2.1c0.2-0.1,0.4-0.3,0.4-0.4c-0.1-0.7,0.3-0.6,0.8-0.7
		c0.8,0,1.6,0,2.3-0.1c1-0.1,2-0.2,3-0.3c0.2,0,0.5-0.1,0.7,0c1.7,0.4,3.4,0.1,5.1,0.1c2.1-0.1,4.1,0.3,6.2,0.5
		c0.4,0,0.7,0.1,1.1,0.1c3.7-0.7,7.5,0,11.3-0.4c4.2-0.4,8.4-0.3,12.5-0.3c1.1,0,2.3,0.2,3.4,0.4c1.2,0.2,2.3,0.5,3.5,0.8
		c0.6,0.1,1.1,0.3,1.7,0.6c0.5,0.3,1,0.6,1.5,0.9c-0.7,0.4-1-0.3-1.5-0.4C73.3,9.1,70,8.1,66.5,8.2c-5.7,0.1-11.4,0.1-17,0.4
		c-2.2,0.1-4.4,0.5-6.6,0.2c-2.3-0.3-4.7-0.3-7-0.3c-1.5,0-3.1,0.3-4.6,0.5c-1.6,0.2-2.9,1.1-3.8,2.4c-1.2,1.6-2.7,2.7-4.6,3.2
		c-0.7,0.2-1.2,1.1-2.1,0.4c0.3-0.8,1.2-0.8,1.8-1c1.7-0.5,3-1.5,4.1-2.7c0.5-0.5,1-1,1.5-1.5c0.2-0.2,0.4-0.5,0.6-0.8
		c-0.4,0-0.7-0.1-1.1,0c-1.7,0.5-3.4,1-4.9,2c-0.6,0.4-1.3,0.9-2,1.2c-0.3,0.2-0.8,0.1-1.1,0c-0.1,0-0.2-0.4-0.3-0.6
		c0.2-0.1,0.3-0.1,0.5-0.2C19.8,11.6,19.9,11.6,19.9,11.7z"/>
	<path d="M19.7,17.6c-0.4-0.3-1-0.6-1.2-1c-0.7-1,0.1-2.9,1.4-3c0.1,0,0.2,0.1,0.3,0.1c0.1,0.1,0.1,0.2,0.1,0.3
		c-0.2,0.2-0.4,0.4-0.6,0.7c-0.6,0.8-0.5,1,0.4,1.6c0.2,0.1,0.3,0.4,0.5,0.6C20.4,17.1,20.1,17.3,19.7,17.6z"/>
	<path d="M11.9,15.4c0.6-0.1,1.6,0.6,1.7,1.1c0,0.1-0.2,0.3-0.3,0.3c-0.5-0.3-1.1-0.6-1.6-1C11.8,15.7,11.9,15.5,11.9,15.4z"/>
	<path d="M15.4,16c-0.2,0.1-0.4,0.3-0.5,0.3c-0.3-0.3-0.6-0.6-0.9-1c0,0,0.2-0.3,0.2-0.3C14.7,15.1,15.2,15.3,15.4,16z"/>
	<path d="M10.5,12.3c0.3,0.3,0.5,0.5,0.7,0.8c0,0-0.3,0.4-0.4,0.4c-0.3-0.1-0.5-0.3-0.8-0.5C10.2,12.8,10.3,12.6,10.5,12.3z"/>
	<path d="M16.6,14.6c-0.5,0.2-0.6,0.4-0.8,0.4c-0.4,0-0.9,0-0.8-0.6c0-0.1,0.2-0.3,0.3-0.2C15.7,14.2,16,14.3,16.6,14.6z"/>
</g>
</svg>
