<?xml version="1.0" encoding="iso-8859-1"?>
<!-- Generator: Adobe Illustrator 25.3.0, SVG Export Plug-In . SVG Version: 6.00 Build 0)  -->
<svg version="1.1" id="Calque_1" xmlns="http://www.w3.org/2000/svg" xmlns:xlink="http://www.w3.org/1999/xlink" x="0px" y="0px"
	 viewBox="0 0 84.1 20.2" style="enable-background:new 0 0 84.1 20.2;" xml:space="preserve">
<g>
	<path d="M83.3,10c-0.1,1.3,0.1,3,0.6,4.6c0.4,1.1,0,1.5-1.2,1.5c-0.6,0-1.3-0.1-1.9-0.3c-1.6-0.5-3.3-1.2-4.9-1.7
		c-1.4-0.5-2.8-0.9-4.2-1.3c-0.3-0.1-0.7,0-0.9,0.2c-1.8,0.9-3.6,1.8-5.5,2.6c-2.5,1-5,1.8-7.5,2.8c-3.3,1.3-6.7,1.9-10.2,1.9
		c-2.4,0-4.8-0.1-7.1-1c-0.8-0.3-1.6-0.2-2.4-0.7c-0.8-0.5-1.5-0.9-2.1-1.6c-0.4-0.5-0.8-0.7-1.5-0.5c-1.1,0.4-2.3,0.4-3.4,0.8
		c-3.7,1.4-7.5,1.1-11.3,0.9c-2.1-0.1-4.1-0.7-6.2-0.7c-0.2,0-0.5-0.1-0.7-0.2c-2.4-0.8-4.9-1.5-7.3-2.4c-1.3-0.5-2.7-1.1-3.9-1.8
		C1,13,0.5,12.4,0.2,11.8c-0.4-0.8-0.1-1.6,0.6-2.2c1.3-0.9,2.7-1.5,4.2-1.8C8.5,7.2,12,6.4,15.5,5.8c1.2-0.2,2.3-0.4,3.4-0.7
		c1.1-0.3,2.4-0.4,3.5-0.4c1.3,0,2.3-0.3,3.2-1.3c0.5-0.6,0.9-0.9,1.8-0.6c0.6,0.2,1.3-0.1,2-0.2c2.2-0.1,4.4-0.1,6,1.7
		c0.5,0.5,1.1,0.5,1.7,0.3c0.4-0.1,0.9-0.4,1.2-0.7c1-0.8,2-1.7,3.4-1.8c0.3,0,0.5-0.4,0.7-0.5c0.5-0.2,1.1-0.4,1.7-0.6
		C44.6,1,45.1,1,45.4,0.7c1.2-0.9,2.5-0.7,3.8-0.6c1.6,0.1,3.3,0.4,4.9,0.6c0.8,0.1,1.6,0.3,2.4,0.5c4.3,1.5,8.3,3.5,12.1,5.9
		c1.4,0.9,2.7,1.2,4.4,0.7c3-0.8,6-1.4,9-2.1c0.7-0.1,1.2,0.2,1.2,0.9C83.3,7.7,83.3,8.6,83.3,10z"/>
</g>
</svg>
