<?xml version="1.0" encoding="iso-8859-1"?>
<!-- Generator: Adobe Illustrator 25.3.0, SVG Export Plug-In . SVG Version: 6.00 Build 0)  -->
<svg version="1.1" id="Calque_1" xmlns="http://www.w3.org/2000/svg" xmlns:xlink="http://www.w3.org/1999/xlink" x="0px" y="0px"
	 viewBox="0 0 71 38.9" style="enable-background:new 0 0 71 38.9;" xml:space="preserve">
<g>
	<path d="M71,22.2c0.4,2.9-1.4,4.9-3.5,6.7c-0.3,0.2-0.8,0.4-1.2,0.3c-1.8-0.4-3.6-0.8-5.3-1.3c-0.8-0.2-1.7-0.6-2.4-1.1
		c-1.6-1.1-3.4-1.4-5.2-1.8c-0.3-0.1-0.7-0.1-1.1,0c-0.5,0.1-0.9,0.4-1.4,0.6c0.2,0.4,0.3,0.9,0.6,1.2c0.5,0.6,0.7,1.2,0.8,1.9
		c0,1.1,0.2,2.1,0.3,3.2c0,0.4,0.1,0.8,0.1,1.2c0,1.1-0.5,1.8-1.6,2c-0.8,0.2-1.6,0.2-2.3,0.7c-0.4,0.3-1.2,0-1.8-0.1
		c-0.5-0.1-0.8-0.3-1.3,0.1c-0.1,0.2-0.8,0-1.1-0.2c-0.5-0.3-0.9-0.4-0.9,0.4c0,0.7-0.3,0.6-0.7,0.3c-0.6-0.5-1.2-1-1.8-1.4
		c-0.3-0.2-0.6-0.3-0.7,0.1c-0.2,1-0.6,0.4-0.9,0.1c-0.6-0.8-1.2-1.6-1.8-2.4c-0.3-0.4-0.7-0.9-0.9,0.2c-0.1,0.4-0.5,0.2-0.7-0.1
		c-0.3-0.7-0.6-1.4-0.9-2.1c-0.8-1.7-1.1-2-3-1.7c-1.7,0.4-3.3,0.2-5,0.3c-0.4,0-0.8,0-1.3,0.1c-0.1,0-0.2,0.3-0.2,0.5
		c0,0,0,0.1,0.1,0.1c1.2,1.1,1.2,2.6,1.5,4c0.3,1.1,0.4,2.3,0.4,3.5c0,1.2-0.6,1.7-1.7,1.3c-2.3-0.9-4.4-2.2-5.7-4.4
		c-0.8-1.3-1.5-2.7-2.1-4.1c-0.4-0.9-0.9-1.3-2-1.4c-2.8-0.3-5.6-0.8-8.3-1.7c-0.3-0.1-0.7-0.4-1-0.3c-1.8,0.2-3.4-0.4-5.1-0.7
		c-0.9-0.2-1.3-0.6-1.6-1.4c-0.5-1.4-0.2-2.7,0.2-3.9c0.2-0.6,0.7-1.2,1.3-1.4c0.8-0.2,1.1-0.6,1.2-1.3c0-0.3,0.2-0.6,0.3-0.8
		c1.2-2.2,1.6-4.5,1.4-7c0-0.5-0.3-1.5,0.9-1.1C5.7,9,6,8.7,6,8.5C6.2,8,6.3,7.4,6.5,6.8c0.1-0.3,0.4-0.5,0.6-0.2
		C7.6,7.3,8,6.9,8.2,6.5c0.4-0.6,0.7-1.4,1.1-2c0.1-0.3,0.3-0.7,0.4-0.7c1.9,0,2.5-1.7,3.6-2.8c0.1-0.1,0.5-0.2,0.6-0.2
		c0.7,1,1.4,0.4,2-0.1c0.6-0.5,1.1-0.6,1.8-0.5c0.5,0.1,1,0.2,1.4,0c0.8-0.4,1.5-0.2,2.2,0.1c0.6,0.2,1.1,0.3,1.7,0.1
		c1-0.3,2-0.2,2.9,0.3c0.5,0.3,1.1,0.8,1.8,0.4c0.2-0.1,0.5,0.1,0.6,0.2c0.6,0.6,1.3,0.7,2.2,0.7c0.3,0,0.7,0.1,0.8,0.3
		c0.3,0.5,0.8,0.4,1.3,0.4c0.6,0,1.3-0.4,1.7,0.5c0.1,0.1,0.4,0.3,0.6,0.2c1-0.2,1.9,0,2.8,0.4c0.9,0.4,1.8,0.6,2.7,0.9
		c0.8,0.2,1.7,0.5,2.6,0.6c1.8,0.2,3.2,1.7,5,1.9c1.4,1.5,3.2,0.7,4.9,0.9C53.9,8.2,55,8.2,56,8.4c1.5,0.3,1.8,1.1,1.3,2.5
		c-0.8,2.1-1.7,4.2-2.6,6.2c-0.1,0.2-0.1,0.3-0.2,0.5c0.2,0,0.5,0.1,0.7,0.1c1.5-0.5,3-1.1,4.5-1.7c1.9-0.7,3.8-0.8,5.8-1.1
		c1.7-0.3,3.1,0.7,3.9,2C70.4,18.5,71.2,20.2,71,22.2z"/>
	<path d="M4.3,21.4c0-0.4-0.1-0.7-0.6-0.4c-0.1,0.1-0.3,0-0.5,0c0.9-1.4,1.1-3.2,2.6-4.2c0.4-0.3,0.6-0.3,0.8,0.1
		c0.1,0.1,0.3,0.2,0.4,0.3C8.1,18,8.3,18.6,8,19.6c-0.4,1.3-1.1,1.8-2.4,1.8C5.2,21.4,4.7,21.4,4.3,21.4z"/>
	<path d="M4,25.7c0-0.1,0-0.1,0.1-0.2c0.4-0.4,0.8-0.7,1.2-1.1c0,0,0.1,0.1,0.1,0.1C5.1,25.2,4.7,25.6,4,25.7L4,25.7z"/>
</g>
</svg>
