<?xml version="1.0" encoding="iso-8859-1"?>
<!-- Generator: Adobe Illustrator 25.3.0, SVG Export Plug-In . SVG Version: 6.00 Build 0)  -->
<svg version="1.1" id="Calque_1" xmlns="http://www.w3.org/2000/svg" xmlns:xlink="http://www.w3.org/1999/xlink" x="0px" y="0px"
	 viewBox="0 0 65.6 40.2" style="enable-background:new 0 0 65.6 40.2;" xml:space="preserve">
<g>
	<path d="M29.2,17.6c0.4,0,0.7,0,1.1,0c6.5-0.1,12.9-0.1,19.4-0.4c2.3-0.1,4.8-0.1,7-1c0.3-0.1,0.5-0.3,0.7-0.5
		c-0.2-0.2-0.3-0.3-0.5-0.5c-1.3-0.9-2.6-1.7-3.9-2.6c-0.6-0.4-1.2-0.6-2-0.7c-2.9-0.5-5.7-0.3-8.6-0.3c-3.6,0-7.2,0-10.7,0.4
		c-2.4,0.3-4.8,0.2-7.2,0.3c-0.5,0-1,0.1-1.4,0.1c-1.1,0.1-2.2,0.4-3.2,0.2c-2.3-0.4-4.5-0.3-6.8-0.3c-2.6,0-5.2-0.2-7.8-0.7
		c-0.4-0.1-0.8,0-1.3,0c-0.8,0-1.7,0-2.5-0.1c-0.4-0.1-1-0.3-1.1-0.6c-0.2-0.6,0.4-0.7,0.9-0.9c0.1,0,0.2-0.1,0.3-0.1
		C1.4,9.8,1.3,9.6,1.2,9.6C0.7,9.4-0.1,9.4,0,8.8c0-0.4,0.6-0.8,1.1-1C3.4,6.5,6,5.9,8.6,5.5c2.3-0.4,4.7-0.8,7-1
		C17.7,4.2,19.9,4.1,22,4c0.8,0,1.4-0.2,2.2-0.6c2.9-1.5,5.9-2.5,9.1-3c4.2-0.7,8.4-0.4,12.5-0.3c2.8,0.1,5.6,0.5,8.3,1.1
		c2.5,0.6,5,1.5,6.6,3.7C62,6.5,63,8.2,64.4,9.8c0.9,1.1,1.3,2.5,1.2,4c-0.2,1.6-0.3,3.2-0.4,4.8c0,0.1,0,0.1,0,0.2
		c-0.6,1.7-1.2,3.3-1.9,4.9c-1.4,2.9-3.8,4.7-6.8,5.7c-2.7,1-5.6,1.6-8.6,1.5c-2.8-0.1-5.5,0.1-8.3,0c-2.1-0.1-4.3-0.4-6.4-0.6
		c-0.2,0-0.4,0-0.5-0.1c-6.2-0.4-12.4-0.5-18.7-0.3c-1.3,0-2.6,0.5-3.8,0.8c-0.1,0-0.3,0.2-0.2,0.2c0.1,0.1,0.2,0.3,0.3,0.3
		c1.1,0.3,2.3,0.8,3.4,0.9c1.5,0.2,3,0.3,4.4,0.4c2.7,0.2,5.5,0.2,8.2,0.4c1.5,0.1,3.1,0.4,4.6,0.7c0.9,0.2,1.9,0.5,2.6,1
		c1.3,0.9,2.5,2,3.8,3c0.2,0.2,0.3,0.5,0.4,0.7c-0.2,0.1-0.5,0.3-0.7,0.3c-2.4,0.2-4.8,0.2-7.2,0.4c-2.4,0.2-4.7,0.4-7.1,0.7
		c-0.1,0-0.1,0-0.2,0c-3.1,0.1-6.2,0.4-9.3,0.3c-4.5-0.1-7.6-2.4-9.4-6.5c-0.7-1.5-0.4-3.3-0.1-4.9c0.2-1.1,0.6-2.1,1.4-3
		c0.5-0.6,0.9-1.4,1.3-2.1c1.7-3.5,4.5-5.2,8.3-5.7c2.2-0.3,4.4-0.3,6.6-0.3C23.9,17.6,26.5,17.6,29.2,17.6
		C29.2,17.6,29.2,17.6,29.2,17.6z"/>
	<path d="M22.2,7.9c-1,0.2-2,0.3-3,0.5c-0.1,0-0.2-0.1-0.3-0.1C18.9,8.2,19,8,19,8c1.5-0.5,3-1.1,4.7-0.8c0.7,0.1,1.4,0.5,1.4,1.2
		c0,0.6-0.4,1.3-0.8,1.6c-0.9,0.8-2.2,1-3.3,1.2c-0.4,0.1-0.8-0.1-1.2-0.3c-0.3-0.2-0.9-0.7-0.8-0.8c0.2-0.6,0.7-0.1,1,0
		c1.1,0.2,2.3,0.2,3.3-0.3c0.4-0.2,0.7-0.4,1-0.7c0.3-0.4,0.1-0.9-0.4-0.9c-0.5-0.1-1.1,0-1.6,0C22.2,8,22.2,7.9,22.2,7.9z"/>
</g>
</svg>
