<?xml version="1.0" encoding="iso-8859-1"?>
<!-- Generator: Adobe Illustrator 25.3.0, SVG Export Plug-In . SVG Version: 6.00 Build 0)  -->
<svg version="1.1" id="Calque_1" xmlns="http://www.w3.org/2000/svg" xmlns:xlink="http://www.w3.org/1999/xlink" x="0px" y="0px"
	 viewBox="0 0 82.3 28.8" style="enable-background:new 0 0 82.3 28.8;" xml:space="preserve">
<g>
	<path d="M80.8,25.5c-1.3-0.4-2.6-0.7-3.9-1.2c-3.9-1.4-7.6-3.2-11.1-5.2c-1.4-0.8-2.8-0.9-4.3-0.8c-0.4,0-0.6,0.1-0.2,0.5
		c0.1,0.1,0.3,0.2,0.4,0.4c0.4,0.6,0.3,1.1-0.4,1.2c-0.8,0.2-1.6,0.3-2.5,0.4c-3,0.2-6.1,0.1-9.1,0.5c-3.1,0.3-6.1,0.9-9.1,1.5
		c-1.3,0.2-2.2,0.9-2,2.5c0.1,0.6-0.3,0.7-0.8,0.4c-1.2-0.8-2.5-1.6-3.6-2.6c-1.1-1-2.2-1.4-3.6-1c-0.5,0.1-1.1,0.2-1.6,0.2
		c-1.4,0-2.9,0-4.3,0c-0.7,0-1.4,0.1-2.1,0.2c0.4,0.5,0.8,0.9,1.1,1.4c0.5,0.7,0.9,1.4,1.3,2.1c0.2,0.4,0.5,0.8,0.6,1.3
		c0.1,0.6,0,1.2-0.3,1.6c-0.1,0.2-1,0-1.5-0.2c-2.1-0.9-3.8-2.4-5.6-3.8c-0.8-0.7-1.6-1.5-2.3-2.2c-0.7-0.7-1.5-1.1-2.6-1.1
		c-1.4,0-2.7-0.1-4.1-0.2c-2.2-0.1-4-1.4-6-2.1c-0.6-0.2-1.2-0.5-1.8-0.9C1,18,0.6,17.7,0.3,17.3C-0.3,16.5,0,16.1,1,16
		c0.6-0.1,1.3-0.2,1.9-0.3c0.5-0.1,0.6-0.5,0.4-0.8c-0.3-0.5-0.6-1-1-1.5c-0.5-0.6-0.7-1.1-0.1-1.9c0.7-0.9,1.1-2,1.7-2.9
		C4.6,7.8,5.3,7,6.5,7c1.2,0,2-0.6,2.5-1.9C9.4,4,10,3,11.2,2.3c0.6-0.3,1.1-0.9,1.5-1.5c0.6-0.7,1.3-1,2.3-0.8
		c5,1.1,9.8,2.7,14.8,4.1c3.9,1.1,7.8,2,11.8,2.9c3.6,0.8,7.3,1.5,11,2.1c2.3,0.4,4.6,0.7,6.8,1.1c0.9,0.2,1.7,0.5,2.5,1
		c0.8,0.4,0.8,0.8,0.2,1.6c-0.6,0.8-0.5,0.6,0.4,1.1c1,0.5,1.8,0,2.6-0.2c2.8-0.6,5.5-1.5,8.3-2c2.7-0.5,5.5-0.6,8.2-0.4
		c0.2,0,0.4,0.3,0.7,0.4c-0.2,0.1-0.3,0.3-0.5,0.4c-1.5,0.5-3,1-4.6,1.4c-2.3,0.6-4.5,1.3-6.5,2.4c-1.1,0.6-1.1,0.9-0.1,1.6
		c1.5,1.1,3.1,2.2,4.7,3.2c1.9,1.3,3.9,2.5,5.9,3.7c0.2,0.1,0.3,0.3,0.4,0.5C81.3,25.2,81.1,25.3,80.8,25.5z"/>
	<path d="M18.8,13.6c-0.6-0.1-1.6-0.2-2.6-0.4c-0.1,0-0.2-0.1-0.3-0.2c0.1-0.1,0.2-0.2,0.3-0.2c0.4,0,0.7,0,1.1,0
		c0.9,0.1,1.9,0.2,2.8,0.3c0.2,0,0.3,0.1,0.5,0.2c-0.2,0.1-0.3,0.2-0.5,0.2C19.8,13.6,19.5,13.6,18.8,13.6z"/>
	<path d="M26.2,15c-0.9-0.1-1.8-0.2-2.8-0.4c-0.1,0-0.2-0.1-0.3-0.2c0.1-0.1,0.2-0.2,0.3-0.2C23.8,14.2,25.4,14.6,26.2,15
		C26.2,15,26.2,15,26.2,15z"/>
</g>
</svg>
