<?xml version="1.0" encoding="iso-8859-1"?>
<!-- Generator: Adobe Illustrator 25.3.0, SVG Export Plug-In . SVG Version: 6.00 Build 0)  -->
<svg version="1.1" id="Calque_1" xmlns="http://www.w3.org/2000/svg" xmlns:xlink="http://www.w3.org/1999/xlink" x="0px" y="0px"
	 viewBox="0 0 84.1 22.1" style="enable-background:new 0 0 84.1 22.1;" xml:space="preserve">
<g>
	<path d="M71.4,8.2c2.4-0.3,4.7-0.5,7.1-0.8c0.7-0.1,1.4-0.1,2.2-0.1c1.9,0,3.3,1.4,3.4,3.3c0.1,1.4,0,2.7-0.8,3.9
		c-0.7,1.1-1.5,1.8-2.9,1.8c-2.3,0-4.6-0.1-6.8-1.2c-0.6-0.3-1.3-0.5-2-0.7c-0.7-0.2-1.4-0.3-2.1-0.4c0.5,0.4,1,0.8,1.5,1.2
		c0.3,0.3,0.4,0.6-0.2,0.7c-0.4,0.1-0.2,0.3-0.2,0.5c0,0.1-0.1,0.3-0.1,0.5c-0.9-0.4-0.9,1-1.6,0.8c-0.7-0.2-1,0.8-1.7,0.4
		c-0.2-0.1-0.5,0-0.7,0.1c-1.6,0.9-3.4,1-5.2,1.2c-0.9,0.1-1.8-0.2-2.6,0.5c-0.6-0.4-1.1,0.2-1.6,0.2c-0.6-0.1-1.2,0.1-1.7,0
		c-1.5-0.4-2.9,0.1-4.3,0.2c-1.7,0.1-3.4,0.2-5.1,0.3c-0.7,0-1.5,0.6-2.1-0.2c-1,0.8-2.2,0.1-3.2,0.6c-0.2,0.1-0.5,0-0.8,0
		c-0.7-0.2-1.5-0.4-2.2-0.6c-0.6-0.2-1.3-0.4-1.9-0.3c-0.9,0-1.5-0.5-2.1-0.5c-1.3,0-2.1-1.1-3.2-1.4c-0.5-0.1-0.9-0.9-1.2-1.4
		c-0.3-0.6-0.7-0.9-1.4-0.8c-2,0.1-4-0.1-6.1,0.3c-1.6,0.3-3.3,0.3-5,0.4c-0.5,0-0.6,0.2-0.3,0.6c0.3,0.5,0.6,1.1,1.1,1.4
		c1.1,0.6,1,1.6,1.1,2.5c0.1,0.6-0.3,0.8-0.9,0.8c-1.3,0-2.3-0.6-3.2-1.3c-0.6-0.4-0.7-1.4-0.9-2.2c-0.1-0.4,0-1.1-0.3-1.3
		c-0.3-0.2-0.9,0.1-1.3,0.2c-3.3,0.4-6.6,0.1-9.9-0.3c-0.2,0-0.4,0-0.5-0.1c-0.8-0.1-1.1-0.9-1.4-1.5c-0.1-0.2,0.4-0.8,0.7-1.1
		c1.4-1.2,2.8-2.3,4.6-3c1.9-0.8,3.7-1.7,5.6-2.4c2.8-0.9,5.7-1.4,8.7-1.8c3.1-0.3,6.1-0.7,9.3-0.7c0.8,0,1.7-0.1,2.5-0.3
		c0.4-0.1,0.8-0.5,1.1-0.8c0.8-1.1,1.4-2.2,2.9-2.5c0.7-1.1,2-1.1,3-1.6c1-0.5,2.1-0.8,3.2-1.1C41.9,0.1,42.5,0,43.1,0
		c1.5,0,3,0.1,4.5,0c0.5,0,1,0.4,1,0.4c0.8-0.7,1.8,0.4,2.6-0.2c0.1-0.1,0.4,0.1,0.6,0.1c0.3,0.1,0.6,0.1,1,0.1
		c0.3,0,0.8-0.2,0.8-0.1c0.7,1.1,1.9,0.2,2.7,0.6c0.5,0.3,1.4-0.1,1.7,0.4c0.4,0.8,1.3-0.4,1.5,0.5c0.7,0.1,1.5-0.3,2,0.4
		c1.8,0.3,3,0.9,4.4,1.6c0.5,0.3,1,0.7,1.6,0.9c0.7,0.3,1,1,1.5,1.4c0.1,0.1,0.1,0.3,0.1,0.5c0,0.4-0.1,0.9-0.2,1.3c0.5,0,1,0,1.4,0
		c0.4,0,0.7,0,1.1,0C71.4,8.1,71.4,8.1,71.4,8.2z"/>
</g>
</svg>
