<?xml version="1.0" encoding="iso-8859-1"?>
<!-- Generator: Adobe Illustrator 25.3.0, SVG Export Plug-In . SVG Version: 6.00 Build 0)  -->
<svg version="1.1" id="Calque_1" xmlns="http://www.w3.org/2000/svg" xmlns:xlink="http://www.w3.org/1999/xlink" x="0px" y="0px"
	 viewBox="0 0 88.8 42.3" style="enable-background:new 0 0 88.8 42.3;" xml:space="preserve">
<g>
	<path d="M53.7,9.3c-0.1,0.6-0.4,1.6-1.4,2.2c-1.1,0.7-2.3,1.3-3.4,2c-0.2,0.1-0.3,0.4-0.5,0.6c0.2,0.1,0.5,0.4,0.7,0.4
		c2.9,0,5.7,0.4,8.5,1c0.4,0.1,0.9-0.2,1.3-0.3c0.5-0.2,0.9-0.5,1.4-0.7c1.1-0.4,2.3-0.1,2.6,0.9c0.4,1.6,1.6,1.6,2.8,1.6
		c2.6,0.1,5.1,0.2,7.6-0.7c1-0.3,2.1-0.3,3.1-0.6c2.6-0.7,5.2-1.6,7.8-2.3c0.7-0.2,1.5-0.3,2.3-0.4c1.7,0,2.5,0.9,2.1,2.5
		c-0.6,2.1-1.5,4-3.2,5.4c-1.1,0.9-2.2,1.8-3.3,2.7c-0.5,0.4-0.5,0.8-0.4,1.4c0.4,1.5,1.1,2.9,1.9,4.2c0.8,1.5,1.2,3.1,0.5,4.8
		c-0.2,0.5-0.4,1-0.8,1.4c-0.7,0.8-1.6,1.2-2.7,0.7c-0.5-0.2-1-0.5-1.4-0.7c-2.5-1.5-4.7-3.5-6.7-5.6c-1.1-1.1-2.2-2.2-3.6-2.9
		c-0.4-0.2-0.8-0.3-1.2-0.3c-0.1,0-0.5,0.4-0.4,0.6c0.8,1.9,0,3.5-0.8,5.1c-0.5,0.9-1.2,1.6-1.7,2.4c-0.4,0.6-0.8,1.2-1.1,1.8
		c-0.5,0.8-1,1.7-2,1.8c-0.8,0.1-1.7-0.2-2.4-0.6c-2.3-1.5-4.5-3.1-6-5.5c-0.4-0.7-0.9-1.4-1.4-2.1c-0.5-0.7-1.2-1.2-2.1-1
		c-0.5,0.1-1,0.2-1.6,0.3c-0.5,0.1-1.1,0.1-1.6,0.2c0.3,0.5,0.6,0.9,0.7,1.4c0.2,0.7,0.4,1.3,0.2,2.1c-0.2,0.8-0.1,1.8-0.1,2.7
		c0,2.3-1.1,4.1-2.3,5.9c-0.7,1-1.7,1.3-3,0.9c-3.7-1-6.1-3.1-6.7-7c-0.2-1.2-0.5-2.4-0.7-3.7c-0.1-0.5-0.4-0.6-0.8-0.6
		c-1.7,0.1-3.5,0.2-5.2,0.3c-0.8,0-1.7,0-2.5,0.1c-0.3,0-0.5,0.2-0.7,0.3c0.2,0.2,0.3,0.5,0.5,0.6c0.4,0.3,0.8,0.5,1.2,0.8
		c1.4,0.7,2.4,1.8,3,3.2c0.1,0.3,0.6,0.5,0.2,0.9c-0.4,0.3-0.5,0.8-1.3,0.8c-1.5-0.1-3-0.4-4.5,0.5c-0.5,0.3-1-0.3-1.3-0.7
		c-0.5-0.7-0.9-1.4-1.3-2.1c-0.7-1-1.5-2-2.1-3.1c-0.5-0.9-1.3-1.2-2.2-1.4c-1-0.2-2.1-0.4-3.2-0.4c-2.5,0.1-4.8-0.8-7.1-1.6
		c-1.1-0.4-2.1-0.9-3.2-1.2c-1.4-0.4-2.6-1.1-3.6-2.2c-0.3-0.3-0.4-0.5-0.3-0.9c0.1-0.3,0.1-0.7-0.1-0.9c-0.8-0.9-0.1-1.4,0.4-1.9
		c1.5-1.7,3.4-2.8,5.5-3.6c1.6-0.6,3.2-1.3,5-1.7c1.2-0.3,2.4-0.9,3.4-1.5c3.5-2.1,7.3-3.1,11.3-3.7c2.2-0.3,4.3-0.7,6.5-1
		c0.6-0.1,0.9-0.4,1.3-0.8c2.1-2.5,4.3-5.1,6.5-7.5c0.6-0.7,1.4-1.3,2.2-1.7c0.8-0.5,1.7-0.7,2.7-0.2c2.1,1,4.1,2.3,5.9,3.7
		C52.6,5.2,53.7,6.7,53.7,9.3z"/>
	<path d="M6.9,25.3c-1.5,0-2.8-1.2-2.8-2.4c0-1.4,1.5-3,2.8-3c1.4,0,2.6,1.3,2.6,2.8C9.5,24.4,8.6,25.3,6.9,25.3z"/>
	<path d="M13.1,23.9c-0.3,1-0.7,2.3-1.1,3.5c-0.1,0.3-0.6,0.6-0.9,0.8c-0.1,0.1-0.3,0-0.4,0c0-0.1,0.1-0.2,0.1-0.3
		c1.2-0.9,1.3-2.3,1.6-3.6c0.1-0.3,0-0.7,0.1-1.1c0-0.1,0.2-0.2,0.3-0.4c0.1,0.1,0.3,0.2,0.3,0.3C13.1,23.3,13.1,23.4,13.1,23.9z"/>
	<path d="M53.2,28.4c-0.1-0.1-0.3-0.2-0.4-0.3c0-0.1,0.1-0.3,0.3-0.4c1.2-0.4,2.4-0.7,3.6-1c0.1,0,0.2,0.1,0.3,0.2
		c0,0.1,0,0.2-0.1,0.3c-0.2,0.1-0.4,0.3-0.6,0.4C55.2,27.9,54.2,28.2,53.2,28.4z"/>
	<path d="M72.1,23c-0.2-0.2-0.3-0.3-0.3-0.3c0.2-0.4,0.4-0.8,0.6-1.2c0,0,0.3,0,0.3,0c0,0.3,0,0.5-0.1,0.8
		C72.4,22.5,72.3,22.7,72.1,23z"/>
	<path d="M59.9,25.9c-0.2,0.7-0.8,0.5-1.3,0.6c0,0-0.1-0.2-0.1-0.3C58.9,25.7,59.3,25.6,59.9,25.9L59.9,25.9z"/>
	<path d="M72.6,24.4c0,0-0.1,0.2-0.1,0.4c-0.1-0.2-0.3-0.4-0.3-0.7c0-0.2,0.2-0.4,0.3-0.7C72.5,23.7,72.6,24,72.6,24.4z"/>
</g>
</svg>
