<?xml version="1.0" encoding="iso-8859-1"?>
<!-- Generator: Adobe Illustrator 25.3.0, SVG Export Plug-In . SVG Version: 6.00 Build 0)  -->
<svg version="1.1" id="Calque_1" xmlns="http://www.w3.org/2000/svg" xmlns:xlink="http://www.w3.org/1999/xlink" x="0px" y="0px"
	 viewBox="0 0 79.2 9.2" style="enable-background:new 0 0 79.2 9.2;" xml:space="preserve">
<g>
	<path d="M3.9,0.6c0.9-0.1,1.9-0.2,3-0.3c1-0.1,2,0.2,3,0.1c2.3-0.2,4.6,0.2,6.9,0.1c2.7-0.1,5.3,0.2,8,0.1c2.6-0.1,5.3,0,7.9,0
		c1.2,0,2.3,0.2,3.5-0.4c0.4-0.2,0.9,0.1,1.4,0.1c2.5,0,5-0.1,7.5-0.1c1,0,1.9,0.1,2.9,0.1c1.8,0,3.7-0.1,5.5-0.2
		c0.8,0,1.5,0.1,2.3,0.2c2.7,0,5.4,0,8,0c2.3,0.1,4.6,0.5,6.8,1.4c1,1.3,2.3,0.6,3.2,0.2c2-0.8,4.5,0.6,5.3,2c0.2,0.3,0.2,0.9,0,1.1
		c-0.9,1.5-2.5,2.6-4.3,2.1c-1.7-0.5-3.3-0.2-4.9,0.3c-1.9,0.5-4,0.6-5.9,1c-1.6,0.3-3.3-0.2-4.9,0.7c-0.2,0.1-0.5-0.1-0.7,0
		c-3.5,0-7.1,0-10.6,0.1c-2.1,0-4.3,0.2-6.4,0.3c-1.1,0-2.1-0.2-3-1c-0.3-0.3-0.9-0.4-1.3-0.4c-7.4,0-14.9,0-22.3,0
		c-1,0-1.9,0.5-2.9,0.4C9.7,8,7.6,7.7,5.4,7.3C4.3,7.2,3.2,7.2,2.2,6.5C1.6,6.1,1,5.6,0.4,5.1C-0.1,4.7,0,4,0.1,3.4
		c0-0.1,0.1-0.3,0.2-0.3c1.5,0.2,0.7-0.8,0.5-1.2C0.4,0.8,0.8,0.3,2.1,0.4C2.6,0.4,3.1,0.5,3.9,0.6z"/>
</g>
</svg>
