<?xml version="1.0" encoding="iso-8859-1"?>
<!-- Generator: Adobe Illustrator 25.3.0, SVG Export Plug-In . SVG Version: 6.00 Build 0)  -->
<svg version="1.1" id="Calque_1" xmlns="http://www.w3.org/2000/svg" xmlns:xlink="http://www.w3.org/1999/xlink" x="0px" y="0px"
	 viewBox="0 0 77.1 48.3" style="enable-background:new 0 0 77.1 48.3;" xml:space="preserve">
<g>
	<path d="M59.6,37.6c0.4,0,0.8,0,0.6,0.5c-0.4,0.8-1.2,1.3-2.1,1.6c-0.5,0.2-1.1,0.4-1.6,0.8c-0.7,0.6-0.7,1.5-0.2,2.2
		c0.1,0.1,0.2,0.2,0.2,0.3c0.2,0.5,1.1,0.5,0.9,1.3c-0.6-0.1-1.2-0.1-1.7-0.4c-1.1-0.5-2.2-1.1-3.3-1.7c-0.8-0.4-1.7-0.9-2.5-1.3
		c-0.2-0.1-0.6-0.1-0.9-0.1c-1.6,0.3-3.1,0.7-4.7,1c-0.3,0.1-0.7,0.1-0.2,0.5c0.9,0.7,0.8,1.7,1,2.6c0.2,0.9,0.1,1.9,0,2.8
		c0,0.5-0.4,0.6-0.7,0.3c-0.8-0.7-1.5-1.4-2.2-2.1c-0.7-0.7-1.4-1.5-1.9-2.3c-0.8-1.3-2-1.7-3.3-1.7c-3.9-0.3-7.5-1.4-10.8-3.3
		c-1.5-0.8-3-1.7-4.6-2.3c-1.1-0.5-1-1.4-1.2-2.2c-0.2-0.8,0.5-1.4,1.2-1.8c3.4-1.6,6.7-3.4,10.1-4.9c1.8-0.8,3.9-1.2,5.8-1.7
		c0.9-0.2,1.6-0.7,2.2-1.4c0.7-0.9,1.7-1.7,2.5-2.5c0.6-0.6,1.1-1.2,1.7-1.8c-0.6-0.7-1.4-1-2.3-1.3c-1.7-0.5-1.7-0.4-1.9,1.4
		c-0.1,0.9-0.1,1.8-0.4,2.6c-0.5,1.4-1.5,1.7-2.8,0.9c-1-0.7-2-1.4-3-2.3c-0.5-0.4-0.7-0.2-1.2,0c-1.3,0.5-2.7,0.9-4.1,1.3
		c-0.9,0.2-0.9,0.1-0.5,0.9c0.6,1,0.4,2.1,0.2,3.1c-0.1,0.8-0.9,1.1-1.6,0.7c-1.5-0.9-2.9-1.9-4.3-2.9c-0.5-0.4-1-0.7-1.7-0.7
		c-3.4,0-6.6-0.6-9.8-1.5c-1.7-0.5-3.5-0.8-5.2-1.4c-1.8-0.6-3.6-1.3-5-2.6c-0.8-0.8-0.7-2.4,0.4-3c3.9-2.2,7.8-4.4,11.7-6.5
		c1.7-0.9,3.5-1.5,5.4-1.9c0.7-0.2,1.4-0.7,1.9-1.2c1.9-1.8,3.8-3.5,6-4.8C26.6,0.3,27.4,0,28.4,0c1.3,0,1.8,0.4,1.7,1.7
		c-0.1,1-0.3,2.1-0.6,3.1c-0.1,0.5-0.5,1-0.4,1.5c0.1,1.5-0.6,2.3-1.9,2.9c-0.2,0.1-0.3,0.2-0.5,0.3c0.2,0.1,0.3,0.3,0.5,0.4
		c1.5,0.3,3,0.6,4.5,0.9c0.5,0.1,1.1,0.2,1.6,0.2c0.9,0,1.8-0.1,2.6-0.1c0.7,0,1.4-0.1,2.1-0.1c0.3,0,0.8,0.3,0.8,0.5
		c0.1,1.1,0.9,0.9,1.6,0.9c1.6,0.1,3-0.4,4.4-1.3C47.4,9.3,50,8,52.5,6.5C53.3,6.1,54.1,6,55,6.1c1.2,0.1,1.7,1,1.1,2
		c-0.5,0.8-1.1,1.6-1.7,2.3c-1.4,1.4-2.9,2.7-4.3,4.1c-0.1,0.1-0.3,0.3-0.4,0.4c-0.6,0.9-0.6,1.3,0.3,2.1c1,0.9,2.1,1.8,3.1,2.6
		c0.9,0.8,1.5,1.9,1.9,3c0.5,1.2-0.2,2.1-1.4,1.8C52.1,24,50.5,23.7,49,23c-0.2-0.1-0.5-0.1-0.8-0.2c0,0.3-0.1,0.6-0.1,0.9
		c0.1,0.5,0.2,1,0.3,1.6c0.1,0.9-0.1,1.7-1.2,1.8c-0.1,0-0.3,0.2-0.4,0.4c0.1,0.1,0.3,0.2,0.4,0.2c2.1,0.6,4.1,1.2,6.2,1.7
		c0.4,0.1,0.9,0,1.4-0.1c0.5-0.1,1.1-0.2,1.6-0.2c0.2,0,0.6,0.2,0.6,0.3c0,1.4,1,1,1.8,1.1c3.3,0.3,6.2-0.7,9.1-2
		c2.3-1,4.6-1.8,7.2-2c0.3,0,0.6,0,0.9,0c0.3,0.1,0.6,0.2,0.7,0.4c0.1,0.2-0.2,0.5-0.4,0.7c-1.1,0.9-2.2,1.9-3.3,2.8
		c-1,0.8-2,1.5-2.9,2.3c-0.5,0.4-0.4,0.7,0.2,1c1.5,0.9,3,1.8,4.4,2.7c0.8,0.6,1.6,1.3,2.3,1.9c0.1,0.1,0.1,0.5,0,0.6
		c-0.2,0.2-0.5,0.3-0.8,0.3c-1.8-0.2-3.6-0.4-5.5-0.5c-2.3-0.2-4.4-1-6.5-1.7c-1.6-0.6-3.2-0.4-4.8-0.4c-0.2,0-0.4,0.3-0.6,0.5
		c0.2,0.1,0.5,0.1,0.7,0.2C59.5,37.3,59.5,37.5,59.6,37.6c-0.8,1.1-2.3,0.7-3.4,1.4c-0.7,0.5-1.6,0.8-2.4,1.2
		c-0.3,0.2-0.7,0.4-0.3,0.8c0.2,0.2,0.7,0.4,0.8,0.1C55.3,38.8,57.8,38.7,59.6,37.6z"/>
	<path d="M7.8,16.5c0,1.2-1.2,2.5-2.4,2.5c-0.7,0-2.5-1.4-2.5-2c-0.1-1.1,1.6-3,2.7-2.9C6.5,14.2,8,15.3,7.8,16.5z"/>
	<path d="M10.1,17c-0.3,1-0.5,2-0.8,3c0,0.1-0.3,0.2-0.4,0.3c0-0.2,0-0.3,0-0.5c0.2-1.4,0.5-2.7,0.7-4.1c0-0.2,0.1-0.3,0.2-0.5
		c0.1,0.2,0.2,0.3,0.2,0.5c0,0.4,0,0.8,0,1.2C10,17,10,17,10.1,17z"/>
	<path d="M26.4,35.1c-0.2,0.1-0.5,0.1-0.7,0.2c-0.8,0.3-1.5,0.3-1.9-0.2c-0.5-0.5-0.6-1.4-0.3-2.1c0.3-0.7,1-1.2,1.7-1.1
		c0.7,0.1,1.3,0.8,1.8,1.3c0.2,0.2-0.1,0.7-0.2,1.1C26.8,34.7,26.8,35,26.4,35.1z"/>
	<path d="M26.4,35.1c0.1-0.3,0.3-0.5,0.4-0.8c0.3,0,0.6,0,0.5,0.5c-0.2,0.6-0.3,1.1-0.5,1.7l0,0C25.9,36.3,26.5,35.6,26.4,35.1z"/>
</g>
</svg>
