<?xml version="1.0" encoding="iso-8859-1"?>
<!-- Generator: Adobe Illustrator 25.3.0, SVG Export Plug-In . SVG Version: 6.00 Build 0)  -->
<svg version="1.1" id="Calque_1" xmlns="http://www.w3.org/2000/svg" xmlns:xlink="http://www.w3.org/1999/xlink" x="0px" y="0px"
	 viewBox="0 0 211.1 112.2" style="enable-background:new 0 0 211.1 112.2;" xml:space="preserve">
<g>
	<path d="M177.2,61.1c5.1-1.1,9.6-2.4,14.1-2.9c5.1-0.5,10.3-0.5,15.4-0.4c2,0,3.2,1.7,3.5,3.7c0.4,3.4,0.8,6.8,0.8,10.2
		c0,2.7-1.1,5.5-0.6,8.1c0.7,3.9-1.8,6.6-2.8,9.8c-0.9,3-2.1,3.5-5.3,3.2c-2.4-0.3-4.9-0.8-7.2-1.6c-7.4-2.5-14.7-4.9-21.6-8.6
		c-2.7-1.5-5.7-2.7-8.9-2.1c-0.4,0.1-0.8,0.2-1.2,0.3c0.4,0.3,0.7,0.6,1.1,0.8c0.5,0.2,1,0.1,1.5,0.2c3.4,0.7,5.5,2.3,5.9,6.1
		c0.3,3.2,2,6.2,0.3,9.6c-2.6,5.3-4.7,11-10.1,14.3c-0.9,0.5-2.2,0.4-3.2,0.3c-6.9-0.6-12.5-4.2-18.3-7.4c-2-1.1-4.1-2.2-6.2-3
		c-3-1.1-3.1-1-5.1,1.9c-0.7,1-1.4,1.5-2.4,1c-2.2-1.2-3.9-0.6-6,0.7c-1.4,0.9-3.5,0.8-5.2,1.3c-8.3,2.6-16.9,3.8-25.6,4.3
		c-4.5,0.3-8.9,1-13.4,0.8c-7.1-0.4-14.1-1.3-21-3.1c-1.5-0.4-3.3-0.8-4.8-0.5c-2.6,0.7-5,0.6-7.5-0.2c-0.8-0.2-1.6-0.3-2.5-0.3
		c-4.9,0-8.5-2.9-12-5.8c-0.9-0.7-1.6-1.8-2-2.8c-1.2-3.3-3.8-4.8-6.9-5c-3.3-0.2-5.9-1.7-7.8-3.9C8.8,86.5,5.8,82.5,3,78.5
		c-2.2-3.2-2.5-7.1-2.8-10.9C0,66-0.6,64,2,63.6c0.1,0,0.4-0.9,0.2-1c-1.6-1.7-0.6-2.9,0.6-4.3c1.2-1.4,2.4-2.8,3.1-4.5
		c2.4-6,7.1-10,12.1-13.5c5.3-3.7,9.4-8.5,13-13.6c2.7-3.9,6.6-6.5,9.7-10c0.5-0.5,1.5-0.9,2.2-0.9c1.8,0,2.8-0.9,3.3-2.5
		c0.7-2,2.1-2.4,4.2-2.7c2-0.3,3.9-1.7,5.8-2.6c0.8-0.4,2-1.1,2.6-0.8c3.3,2,5.9,0.4,7.9-1.8C68.9,3,71.1,2.8,73.7,4
		c2.8,1.3,5.2,0.6,7.5-1C82,2.5,82.8,2,83.7,1.5c2.6-1.7,4.8-2.3,7.4,0.4c2.2,2.3,5.4,3.3,8.5,1.1c0.3-0.2,0.6-0.3,0.9-0.4
		c2.3-1.4,3.1,3,5.7,1.3c1.9-1.3,4-1.1,5.6,1.1c0.5,0.6,1.3,1.5,1.9,1.5c4.9,0.2,6,4.8,8.3,7.6c1.2,1.4,0.8,4.1,1,6.2
		c0.1,1.5,0.3,2.8,2.3,1.8c3.1,1.7,6.4,2.6,9.9,2.8c1.4,3.3,5.4,3.7,7.3,6.1c1.9,2.4,3.6,1.8,5.6,1.1c7-2.4,14.1-3.4,21.5-3.4
		c2.4,0,4.2,0.8,5.5,2.7c2.5,3.5,4.9,7.1,6.3,11.2c0.8,2.5-0.7,10-2.6,11.6c-0.6,0.5-1.5,0.6-2.3,0.8c-3.1,0.7-6.1,1.3-9.2,2
		c-0.3,0.1-0.5,0.3-0.8,0.4c0.2,0.3,0.3,0.7,0.5,0.8C170.6,59.2,174.1,60.2,177.2,61.1z"/>
	<path d="M15.1,53.7c0.3-0.9,0.2-2.2,0.8-2.7c1.2-1,2.7-1.6,4.2-2.1c0.8-0.3,1.9,0,2.8,0c1.1,0,0.8,0.5,0.4,1.2
		c-0.4,0.8-0.5,1.9-1,2.5c-0.7,0.8-0.7,0.7,0.3,1.1c5.1,1.7,5.9,4,3,8.3c-1,1.4-1.8,3.1-3.6,3c-1.2-0.1-2.9,0.4-3.7-1.3
		c0-0.1-1,0.6-1.4,0.4c-0.8-0.3-1.5-1-2.3-1.3c-1.7-0.6-0.4-1.6-0.5-2.4c-0.1-1.5,0-3-0.1-4.5C14.4,55.1,14.7,54.4,15.1,53.7z"/>
	<path d="M82.9,49.7c-0.3,0.3-0.6,0.7-0.9,0.8c-0.4,0.1-1.1,0.1-1.4-0.2c-1.3-0.9-2.4-1.4-4-0.5c-0.7,0.4-2.4,0-2.9-0.7
		c-0.5-0.7-0.3-2.1-0.1-3.2c0-0.3,1.2-0.7,1.5-0.5c0.9,0.4,0.5,1-0.2,1.4c-0.3,0.2-0.3,0.8-0.4,1.1c0.3,0,0.7,0.1,0.8,0
		c2.8-2,4.8,0.8,7.3,1.1C82.7,49.2,82.8,49.4,82.9,49.7z"/>
	<path d="M62.3,74.3c-1.3-0.6-2.6-1.2-3.7-1.9c-0.3-0.2-0.2-1.2-0.2-1.8c0.5,0.2,1.1,0.2,1.4,0.5c2.1,1.8,2.9,2,5,0.7
		c0.3-0.2,0.4-0.9,0.4-1.4c0-0.5-0.1-1-0.2-1.5c0.4,0.2,1,0.3,1.3,0.6c1.1,1.1,1.3,2.3-0.2,3.2C65,73.4,63.7,73.7,62.3,74.3z"/>
	<path d="M25.5,83.8c-1.2,0-2.4-0.1-2.3-1.8c0.2-1.5,1.2-2.2,2.7-2.2c1.4-0.1,2.1,0.5,2.1,2C28.1,83.6,26.9,83.8,25.5,83.8z"/>
	<path d="M114,55.7c1.3,0.7,2.3,1.1,3.2,1.8c0.4,0.3,0.7,1.3,0.5,1.7c-0.3,0.4-1.2,0.7-1.7,0.6c-0.9-0.1-1.9-0.5-2.7-1
		c-0.5-0.3-1.1-1.1-0.9-1.4C112.7,56.7,113.4,56.3,114,55.7z"/>
	<path d="M122.5,78.2c-1.5,0.7-2.3,1.5-3.1,1.5c-1-0.1-1.9-0.9-2.9-1.3c0.8-0.8,1.5-2.3,2.3-2.2C119.9,76.1,120.9,77.3,122.5,78.2z"
		/>
	<path d="M106.8,54.1c-1.6,0.7-2.6,1.2-3.5,1.6c-0.1-0.3-0.3-0.7-0.3-0.9c0.1-0.5,0.4-1,0.6-1.5c-0.6-0.1-1.2-0.1-1.8-0.2
		c-0.6-0.1-0.7,2-1.6,0.5c-0.2-0.4,0.2-1.3,0.5-1.8c0.9-1.2,2-0.9,3-0.1C104.6,52.3,105.4,53,106.8,54.1z"/>
	<path d="M36.8,60.2c-0.2,0.4-0.3,0.7-0.4,1.1c-0.3,1.3-0.5,2.6-0.7,3.8c-0.2-1.2-0.5-2.4-0.6-3.7c-0.2-2.2,0.3-4.6-2.7-5.3
		c0.2-0.4,0.4-1.1,0.4-1.1c0.7,0.2,1.8,0.2,2.1,0.7C35.8,57.1,36.2,58.8,36.8,60.2z"/>
	<path d="M94.6,71.8c0.5,0.8,1.4,1.6,1.3,2.3c-0.3,2.1-3.2,3.2-5,1.9c-0.3-0.2-0.4-0.8-0.7-1.2c0.4-0.1,0.8-0.4,1.1-0.3
		c1.8,0.4,3,0.3,2.2-2.1C93.6,72.3,94.1,72.1,94.6,71.8z"/>
	<path d="M41,50.8c-1-1.1-1.8-1.8-2.5-2.5c0.7-0.5,1.4-1.5,2.2-1.5c1,0,1.9,0.7,2.9,1.2C42.8,48.8,42.1,49.7,41,50.8z"/>
	<path d="M85.1,73.8c-0.8-2.2-2.7-2-4.5-2.1c-0.4,0-0.7-0.4-1.1-0.6c0.3-0.4,0.5-0.9,0.9-1c2.4-0.9,4.3,0,5.3,2.6
		C85.9,72.9,85.4,73.4,85.1,73.8L85.1,73.8z"/>
	<path d="M154.8,65.2c-1.1,0.7-2,1.6-2.3,1.4c-0.9-0.5-1.5-1.4-2.2-2.1c0.6-0.5,1.3-1.6,1.7-1.4C152.9,63.4,153.6,64.2,154.8,65.2z"
		/>
	<path d="M27.7,47.1c0.7,1.2,1.5,2.1,1.3,2.3c-0.6,0.8-1.5,1.5-2.3,2.2c-0.5-0.6-1.5-1.4-1.4-1.8C25.8,49,26.7,48.3,27.7,47.1z"/>
	<path d="M102.6,77.3c-0.9-0.9-1.6-1.7-2.3-2.4c0.6-0.4,1.3-1.2,1.8-1.1c0.9,0.3,1.7,1,2.5,1.6C104.1,75.9,103.5,76.5,102.6,77.3z"
		/>
	<path d="M49.8,45.4c0.8,0.9,1.5,1.6,2.1,2.2c-0.6,0.4-1.3,1.1-1.9,1c-0.9-0.1-1.6-0.8-2.4-1.3C48.2,46.8,48.9,46.2,49.8,45.4z"/>
	<path d="M136.4,64.5c-0.9-1-1.8-2-2.7-3.1c0-0.1,0.1-0.4,0.1-0.4c1.2,0.2,2.5,0.2,3.6,0.6c0.3,0.1,0.2,1.3,0.2,2.1
		C137.5,63.9,137.1,64.1,136.4,64.5z"/>
	<path d="M149.7,77.2c-1.7,0.8-2.5,1.5-3.3,1.4c-0.8-0.1-1.4-1-2.1-1.6c0.6-0.4,1.2-1.2,1.7-1.2C147,75.9,147.9,76.5,149.7,77.2z"/>
	<path d="M108.8,76.5c2,2,1.9,0.9,1.5-0.8c0.5,0.1,1.3,0,1.5,0.2c0.4,0.6,0.8,1.6,0.5,2c-0.7,1.2-2.9,1.2-3.8,0.2
		c-0.3-0.3-0.2-0.9-0.1-1.4C108.3,76.6,108.7,76.5,108.8,76.5z"/>
	<path d="M144.1,35.7c1.2,1.8,3.8,2.4,3.9,5c-2.5-0.2-3.8-2-4.8-4.1C143.2,36.5,143.8,36.1,144.1,35.7z"/>
	<path d="M34.6,83.1c-0.6-0.5-1-1-1.4-1.1c-1-0.2-2.4,1-2.6-0.9c0-0.4,1.2-1.2,1.9-1.2c1.5-0.2,2.4,0.8,2.6,2.3
		C35.1,82.5,34.8,82.8,34.6,83.1z"/>
	<path d="M142.4,40.1c-0.5,0.6-0.7,1.2-1.1,1.3c-0.3,0.1-1-0.3-1.1-0.6c-0.3-1.2-0.4-2.4-0.5-3.6c0,0,0.4-0.1,0.4-0.1
		C140.9,38,141.7,39,142.4,40.1z"/>
	<path d="M97,55.1c-0.8-1-1.7-2-1.6-2.2c0.5-0.7,1.3-1.3,2.1-1.7c0.1-0.1,1.2,0.9,1.1,1.2C98.3,53.3,97.7,54,97,55.1z"/>
	<path d="M130.7,78.6c1.2-0.4,2-0.9,2.6-0.8c0.6,0.1,1,0.9,1.5,1.3c-0.6,0.4-1.2,1.3-1.8,1.2C132.4,80.4,131.8,79.6,130.7,78.6z"/>
	<path d="M33,46.4c0.5,1.1,1.1,1.7,1,2.3c0,0.6-0.6,1.2-1,1.9c-0.6-0.6-1.4-1.2-1.6-1.9C31.3,48.1,32.2,47.4,33,46.4z"/>
	<path d="M73.6,70.5c-0.3,0.4-0.5,0.9-0.9,1.1c-0.6,0.4-0.3,2.3-1.8,1.3c-0.4-0.3-0.7-1.5-0.5-1.6c0.8-0.6,1.8-1.1,2.7-1.5
		C73.2,69.8,73.4,70.3,73.6,70.5z"/>
	<path d="M94.2,54.2c-1.1,0.7-1.7,1.3-2.5,1.5c-0.3,0.1-0.9-0.7-1.3-1c0.6-0.6,1.2-1.3,2-1.7C92.6,52.9,93.3,53.6,94.2,54.2z"/>
	<path d="M129.3,59.9c0.5,0.3,1.1,0.6,1.7,0.9c-0.5,0.6-1.1,1.7-1.5,1.6c-0.8-0.2-1.5-0.9-2.2-1.5C127.8,60.7,128.4,60.4,129.3,59.9
		z"/>
	<path d="M145,61.4c0.9,1.1,1.6,1.7,1.9,2.4c0.1,0.3-0.6,0.9-1,1.4c-0.6-0.6-1.3-1.1-1.7-1.8C144,63.1,144.6,62.4,145,61.4z"/>
	<path d="M17,81.2c-0.5,0.1-1,0.4-1.4,0.2c-0.3-0.1-0.9-0.8-0.8-1c0.2-0.5,0.7-1,1.2-1.2c0.4-0.1,1,0.2,1.4,0.4
		c0.8,0.5,1.6,1.1,2.4,1.6c-0.9,0.1-1.8,0.2-2.7,0.2C17,81.4,17,81.3,17,81.2z"/>
	<path d="M60.2,47.6c-1.1,0.4-1.8,0.9-2.5,0.9c-0.4,0-0.8-0.9-1.2-1.3c0.7-0.4,1.3-1,2-1.1C58.9,46,59.4,46.8,60.2,47.6z"/>
	<path d="M125.4,77.2c0.8,1,1.3,1.5,1.6,2.2c0.1,0.2-0.4,0.7-0.7,1.1c-0.6-0.4-1.4-0.8-1.9-1.3C124.3,79,124.9,78.2,125.4,77.2z"/>
	<path d="M102.5,45.5c-1-1.2-1.5-1.8-2-2.4c0.5-0.4,1.1-1.2,1.4-1.1c0.6,0.2,1.4,0.8,1.6,1.4C103.7,43.8,103,44.5,102.5,45.5z"/>
	<path d="M85.1,73.7c-0.8,1.5-2.3,0.9-3.5,1c-1.2,0-2.6,0.1-3-1.5c0.9,0.1,1.8,0.4,2.6,0.4C82.5,73.7,83.8,73.7,85.1,73.7L85.1,73.7
		z"/>
	<path d="M154.6,77.5c-0.9,0.5-1.6,1.1-1.8,0.9c-0.6-0.4-1-1.1-1.5-1.6c0.5-0.3,1-1,1.4-0.9C153.3,76.1,153.7,76.7,154.6,77.5z"/>
	<path d="M133.5,96.9c-0.5-1.3-1-1.9-0.9-2.4c0.1-0.6,0.9-1,1.3-1.5c0.4,0.4,1,0.8,1.1,1.3C135.1,94.7,134.5,95.2,133.5,96.9z"/>
	<path d="M136.6,41.2c-0.8,0.6-1.3,1.4-1.6,1.3c-0.5-0.1-0.9-0.8-1.4-1.2c0.4-0.4,0.8-1.1,1.3-1.3C135.3,39.9,135.8,40.6,136.6,41.2
		z"/>
	<path d="M140.6,78.3c-0.7,0.6-1.2,0.9-1.6,1.2c-0.3-0.5-0.7-1-0.8-1.5c0-0.3,0.6-1,0.8-0.9C139.5,77.3,139.8,77.7,140.6,78.3z"/>
	<path d="M91.8,47.8c-0.3-0.8-0.7-1.4-0.6-1.8c0.1-0.4,0.8-0.6,1.3-1c0.2,0.6,0.5,1.1,0.5,1.7C93,47,92.4,47.3,91.8,47.8z"/>
	<path d="M146.1,87.8c-0.2,0-0.4,0.1-0.5,0c-0.7-0.4-1.5-0.8-2.2-1.2c0.2-0.2,0.4-0.6,0.6-0.7C145.6,85.5,146.1,86.4,146.1,87.8
		L146.1,87.8z"/>
	<path d="M140.1,86.7c1.2,1.4,1.4,1.7,1.7,2c-0.5,0.3-0.9,0.8-1.4,0.9c-0.2,0.1-0.9-0.5-0.9-0.8C139.5,88.2,139.8,87.6,140.1,86.7z"
		/>
	<path d="M89.4,37.5c-1.1-0.9-1.5-1.3-2-1.6c0.4-0.4,0.9-1,1.2-1c0.4,0,1,0.6,1.2,1.1C90,36.3,89.6,36.8,89.4,37.5z"/>
	<path d="M105.3,30.5c0.6,0.7,1.1,1.2,1.4,1.8c0.1,0.1-0.8,0.9-0.9,0.8c-0.5-0.4-1-0.9-1.4-1.5C104.3,31.6,104.8,31.1,105.3,30.5z"
		/>
</g>
</svg>
