<?xml version="1.0" encoding="iso-8859-1"?>
<!-- Generator: Adobe Illustrator 25.3.0, SVG Export Plug-In . SVG Version: 6.00 Build 0)  -->
<svg version="1.1" id="Calque_1" xmlns="http://www.w3.org/2000/svg" xmlns:xlink="http://www.w3.org/1999/xlink" x="0px" y="0px"
	 viewBox="0 0 87.5 11.3" style="enable-background:new 0 0 87.5 11.3;" xml:space="preserve">
<g>
	<path d="M20.6,6.7c-1.4,0.1-2.7,0.5-4,0.4c-2.2-0.2-4.2,0.5-6.3,0.8c-2,0.3-4.1,0.9-6.1,1.3C3.5,9.3,2.8,9.5,2,9.6
		c-0.2,0-0.5-0.2-0.7-0.3c0.2-0.1,0.3-0.4,0.5-0.4c1.5-0.4,3-0.7,4.5-1.1c0.2,0,0.3-0.1,0.5-0.1c-0.2,0-0.3-0.1-0.5-0.1
		C4.5,7.6,2.8,7.4,1.2,6.8C0.7,6.6,0,6.1,0,6c0.3-0.8,0.9-0.1,1.3,0c0.8,0.1,1.5,0.4,2.3,0.4c1.9,0,3.7,0.1,5.6,0
		c2.4-0.2,4.6-1.1,6.6-2.5C18,2.3,20.4,1.1,23,0.5c2.2-0.5,4.4-0.7,6.7-0.3C32.2,0.5,34.5,1.1,37,1c1.5,0,3,0.4,4.6,0.6
		c0.7,0.1,1.4,0.1,2.2,0c2.9-0.4,5.7-0.3,8.5,0c2.1,0.2,4.3-0.1,6.4-0.1c1,0,2-0.1,3,0c0.9,0,1.8,0.2,2.7,0.3
		C71.2,2.2,77.9,2,84.7,2.1c0.4,0,0.7,0,1.1,0c0.6,0.1,1.1,0.2,1.7,0.4C87.2,3,87,3.5,86.8,4c-0.1,0.3-0.3,0.5-0.5,0.8
		c-1.1,1.4-1,2.8-0.1,4.2c0.3,0.5,0.6,1,0.8,1.6c0.2,0.5-0.3,0.9-0.8,0.8c-0.3-0.1-0.6-0.3-1-0.4c-0.9-0.2-1.8-0.4-2.8-0.5
		c-2.7-0.3-5.4-0.5-8.2-0.7c-2.2-0.1-4.4-0.1-6.7,0c-2.2,0.1-4.4,0.4-6.6,0.6c-0.7,0.1-1.4-0.1-2.1-0.1c-0.8,0-1.6-0.2-2.3-0.1
		c-2,0.4-4,0.4-6,0c-0.5-0.1-1.1,0-1.6,0c-3.2,0-6.4-0.3-9.6-0.7c-2.4-0.3-4.8-0.9-7.2-1.3c-2.2-0.3-4.4-0.6-6.5-0.9
		C23.9,6.9,22.2,6.8,20.6,6.7z"/>
	<path d="M17.5,3.8c0.1,0,0.1,0,0.1,0.1c0.3,0.3,0.5,0.5,0.8,0.8c-0.2,0.2-0.5,0.4-0.7,0.5C17.2,5.4,17,5,16.8,4.6
		c0-0.1-0.1-0.2-0.1-0.3C16.9,4.1,17.2,4,17.5,3.8z"/>
</g>
</svg>
