<?xml version="1.0" encoding="iso-8859-1"?>
<!-- Generator: Adobe Illustrator 25.3.0, SVG Export Plug-In . SVG Version: 6.00 Build 0)  -->
<svg version="1.1" id="Calque_1" xmlns="http://www.w3.org/2000/svg" xmlns:xlink="http://www.w3.org/1999/xlink" x="0px" y="0px"
	 viewBox="0 0 84.2 26.8" style="enable-background:new 0 0 84.2 26.8;" xml:space="preserve">
<g>
	<path d="M4,4.3c1.8,0,3.3,0,4.9-0.6c1.2-0.5,2.7-0.4,4.1-0.5c6.2-0.4,12.3-0.4,18.5-0.3C35.6,2.9,39.8,3,44,3.2
		c2.3,0.1,4.6,0.4,6.9,0.7c1.9,0.2,3.5-0.3,5.1-1.4c1.3-0.9,2.8-1.6,4.2-2.4c0.8-0.4,1.2-0.1,1.1,0.7c-0.2,1.2,0.1,2.7-1.4,3.4
		c-0.1,0-0.1,0.2-0.2,0.3c0.1,0,0.2,0.1,0.3,0.1c1.2,0.2,2.3,0.6,3.5,0.7c1,0.1,2.1-0.1,3-0.4c1-0.4,1.9,0.2,2.8,0.2
		c0.1,0,0.4,0.2,0.4,0.3c0.3,1.4,1.2,1.1,2.2,0.7c0.8-0.3,1.6-0.6,2.3-0.9c2.6-1.2,5.4-1.9,8.3-2c0.3,0,0.6,0,0.9,0
		c0.8,0.1,1.1,0.6,0.7,1.4c-0.4,0.9-0.9,1.8-1.3,2.7c-0.6,1-0.6,2.1-0.4,3.3c0.1,0.4,0.1,0.8,0,1.2c-0.4,2-0.8,3.9-0.8,5.9
		c0,1.4-0.6,1.7-1.8,1c-1.6-0.9-3.2-1.9-4.6-3c-1.3-1-2.5-2.2-3.7-3.3c-0.5-0.5-1.1-0.8-1.9-0.9c-0.2,0-0.3,0-0.5,0
		c0.1,0.1,0.1,0.3,0.2,0.4c0.5,0.6,0.2,0.9-0.4,1c-2.9,0.8-5.7,2-8.5,3.2c-1.1,0.5-2.2,0.8-3.4,1.1c-0.9,0.2-1.9,0.1-2.8-0.3
		c-1.7-0.6-3.4-1.2-5.1-1.7c-0.4-0.1-0.8-0.2-1.2-0.1c-1.2,0.1-2.5,0.2-3.7,0.3c-0.4,0-0.8,0.1-1.2,0.2c-2.5,1.1-5.1,1.7-7.7,1.9
		c-1.8,0.2-3.6,0.5-5.5,0.6c-1.1,0.1-2.1-0.2-3.2-0.2c-0.6,0-1.2,0-1.8-0.1c-0.7-0.1-0.6,0.3-0.4,0.7c0.8,2,1.6,4.1,2.4,6.1
		c0.2,0.4,0.4,0.9,0.5,1.3c0.1,0.6-0.4,0.9-0.9,0.7c-0.2-0.1-0.4-0.3-0.6-0.4c-2.6-1.7-4.7-3.9-6.5-6.5c-0.1-0.1-0.1-0.2-0.1-0.3
		c-0.6-0.8-1-1.9-1.8-2.4c-0.7-0.4-1.9-0.2-2.8-0.2c-1.9-0.1-3.6-0.8-5.3-1.5c-1.8-0.8-3.6-1.5-5.1-2.8c-1.7-1.5-2.9-3.3-3.8-5.3
		C-0.1,6.8,0,6.1,0.1,5.6c0.3-1.2,0.4-1.3,1.7-1.3c0.4,0,0.8,0,1.3,0C3.4,4.3,3.8,4.3,4,4.3z"/>
	<path d="M62.7,8.3c-0.6,0.1-1.3,0.2-1.9,0.2c-0.9,0-1.8,0-2.7,0c-1,0-1.9-0.2-2.8-0.1c-1.2,0-2.5,0.3-3.7,0.3
		c-7.6,0-15.1,0.1-22.7,0c-1.7,0-3.4-0.4-5.1-0.6c-1.9-0.2-3.8-0.5-5.6-0.8c-0.8-0.1-1.6-0.4-2.4-0.5c-0.8-0.1-1.6-0.1-2.5-0.1
		c-0.2,0-0.5,0-0.7-0.1c0.2-0.1,0.4-0.4,0.6-0.4c0.8,0,1.7-0.1,2.5,0c3,0.5,6,1.2,9.1,1.6c2.1,0.3,4.3,0.4,6.4,0.4
		c6.2,0,12.5,0,18.7,0c1.7,0,3.3-0.3,5-0.3c2.3-0.1,4.6,0,6.8,0C62,7.9,62.4,8.1,62.7,8.3L62.7,8.3z"/>
	<path d="M5.6,8.7c-1.1,0-1.7-0.6-1.8-1.5C3.7,6.4,4.7,5.4,5.5,5.4c0.7,0,1.8,1,1.8,1.7C7.4,7.9,6.6,8.7,5.6,8.7z"/>
	<path d="M9.5,12c-0.1,0.2-0.2,0.4-0.3,0.6c0,0.1-0.2,0.1-0.3,0.1c0,0-0.1-0.1-0.1-0.1c0.1-0.2,0.2-0.4,0.2-0.6
		c0.1-0.2,0.2-0.4,0.3-0.5C9.4,11.6,9.4,11.8,9.5,12z"/>
	<path d="M7.9,12.2c0.1,0.2,0.3,0.4,0.4,0.7c0,0-0.3,0.3-0.3,0.2c-0.2-0.2-0.4-0.4-0.5-0.6C7.5,12.5,7.5,12.4,7.9,12.2z"/>
</g>
</svg>
