<?xml version="1.0" encoding="iso-8859-1"?>
<!-- Generator: Adobe Illustrator 25.3.0, SVG Export Plug-In . SVG Version: 6.00 Build 0)  -->
<svg version="1.1" id="Calque_1" xmlns="http://www.w3.org/2000/svg" xmlns:xlink="http://www.w3.org/1999/xlink" x="0px" y="0px"
	 viewBox="0 0 86.5 42.4" style="enable-background:new 0 0 86.5 42.4;" xml:space="preserve">
<g>
	<path d="M82.9,12.9c2,1.1,2.7,3.1,3.6,4.9c0.1,0.1,0.1,0.2,0,0.4c-0.1,0.6-0.2,1.1-0.3,1.7c-0.5-0.2-1-0.2-1.5-0.5
		c-1.8-1.2-3.6-2.3-5.3-3.6c-1.7-1.2-3.5-2-5.5-2.4c-1.4-0.3-2.7,0-4.1,0.3c-0.1,0-0.2,0.1-0.2,0.2c0,0.1,0.1,0.2,0.2,0.3
		c0.2,0.1,0.5,0,0.7,0.1c0.9,0.2,1,0.6,0.4,1.3c-0.2,0.2-0.3,0.3-0.5,0.5c-1,0.9-1.8,2-2.1,3.4c-0.3,1.1-0.8,1.3-1.8,0.8
		c-0.6-0.3-1.2-0.8-1.8-1.2c-1.1-1-2.2-2-3.3-3c-0.4-0.4-0.8-0.6-1.4-0.4c-0.4,0.2-0.9,0.1-1.4,0c-0.6,0-1,0-0.4,0.7
		c0.5,0.5,0,1-0.2,1.5c-0.3,0.5-0.7,1-0.9,1.5c-0.1,0.3,0,0.7,0,1c0.3-0.1,0.6-0.1,0.9-0.2c1-0.4,2.1-0.5,3.1-0.1
		c0.4,1.3-0.4,2.2-1.1,3c-1.2,1.3-2.7,2.6-4.1,3.8c-0.9,0.8-0.9,0.9-0.1,1.8c1.3,1.4,2.6,2.8,3.9,4.2c0.4,0.4,0.6,1,0.9,1.5
		c0.4,0.8,0,1.4-0.9,1.3c-0.3,0-0.6-0.2-0.8-0.3c-2.2-0.8-4.5-1.6-6.7-2.5c-2.8-1.1-5.6-1.6-8.5-1.5c-0.2,0-0.3,0.1-0.5,0.1
		c0.1,0.1,0.3,0.2,0.4,0.3c0.1,0.1,0.2,0.1,0.3,0.2c1.3,0.8,1.4,0.8,0.8,2.2c-0.4,1-0.7,2-0.7,3.1c0,0.4-0.3,0.9-0.5,1.2
		c-0.3,0.4-0.7,0.5-1.1,0.2c-0.7-0.5-1.5-1-2.1-1.6c-1.1-1-2.1-2-3.1-3c-0.5-0.5-1-0.7-1.6-0.5c-1.3,0.5-2.7,0.3-4.1,0.3
		c-1.1,0-2.3,0-3.4,0c-0.4,0-0.8,0-1.2,0.1c-0.6,0.1-0.7,0.4-0.3,0.8c0.4,0.4,0.8,0.9,1.3,1.3c1,0.9,1.3,1.9,0.8,3.2
		c-0.3,0.7-0.5,1.5-0.9,2.1c-0.8,1.2-1.5,1.2-2.3,0.1c-0.7-1-1.3-2.1-1.8-3.3c-0.2-0.5-0.3-1-0.4-1.5c-0.3-2.1-0.4-2.2-2.4-2
		c-0.5,0-0.8,0.1-0.5,0.7c0.2,0.4,0.4,0.9,0.5,1.3c0.1,0.4,0.2,0.9,0,1.1c-0.3,0.5-0.9,0.5-1.5,0.2c-0.8-0.4-1.5-0.7-2.2-1.1
		c-0.9-0.6-1.6-1.4-2.5-2c-0.6-0.4-1.2-0.8-1.9-0.9c-1.7-0.4-3.5-0.6-5.3-0.9c-1.6-0.2-3.1-0.8-4.7-0.5c-0.6,0.1-2.1-0.9-2.4-1.5
		c-0.4-0.9-0.3-1.7,0.4-2.4c1.3-1.1,2.6-2.1,3.8-3.2c0.7-0.6,1.5-1,2.1-1.7c2.1-2.2,4.7-3.7,7.5-4.7c1.4-0.5,2.9-0.8,4.3-1.1
		c1.2-0.2,1.9-1,2.6-1.8c0.9-1.1,1.6-2.2,2.4-3.3c0.4-0.5,0.9-1,1.4-1.3c1-0.6,1.5-0.5,2.1,0.5c0.2,0.4,0.3,0.9,0.5,1.3
		c0.5,1.2,1.3,2.1,2.6,2.4c0.7,0.2,1.4,0.4,2.1,0.6c2.6,0.5,5,1.7,7.3,2.9c0.8,0.5,1.6,1,2.3,1.6c0.5,0.4,0.8,1,1.1,1.6
		c0.2,0.5,0.1,1.1-0.6,1.2c-0.2,0-0.3,0.1-0.5,0.1c0.1,0,0.3,0.1,0.4,0.1c2.9,0.6,5.8,0.3,8.5-1c1.3-0.6,2.7-1,4-1.5
		c0.7-0.3,0.7-0.4,0.3-0.9c-0.9-1.2-1.8-2.5-2.6-3.8c-0.4-0.6-0.7-0.8-1.4-0.9c-1-0.1-1.9-0.3-3-0.1c-0.9,0.2-2-0.1-3-0.2
		c-0.3,0-0.6-0.1-0.9-0.1c-2.8,0-5.4-0.6-8.1-1.3c-1.3-0.3-2.5-0.6-3.8-0.9c-0.9-0.2-1.3-0.8-1.7-1.4c-0.6-0.8-0.4-1.8,0.5-2.3
		c1.1-0.6,2.2-1.1,3.4-1.6c1.4-0.5,2.8-1,4.2-1.4c2.7-0.9,5.4-1.3,8.2-1.6c1.2-0.1,2.5-0.1,3.7-0.4c0.9-0.3,1.7-1,2.5-1.6
		c1.7-1.4,3.6-2.4,5.6-3.1C59.1,0.1,59.6,0,60,0c0.9,0,1,0.1,0.7,0.9c-0.2,0.5-0.4,1-0.6,1.5c-0.4,0.9-0.8,1.7-0.3,2.7
		c0.1,0.2,0.1,0.5,0,0.7c-0.2,0.5-0.1,0.6,0.4,0.6c1.1,0.2,2.1,0.5,3.1,0.7c3,0.5,6.1,1.1,9.2,1.3c3.3,0.2,6.3-0.7,8.9-2.8
		c1.1-0.9,2.2-1.8,3.4-2.6c0.2-0.2,0.5-0.3,0.8-0.4c0.7-0.2,1.1,0.2,0.8,0.9c-0.6,1.3-1.3,2.6-2,3.9c-0.5,0.8-1.1,1.6-1.6,2.3
		c-0.7,0.9-0.8,1.7,0,2.6C82.9,12.3,82.8,12.6,82.9,12.9c-1.8,0.1-2.7-1-2-2.8c0.5-1.4,1.4-2.5,2.2-3.7c0.1-0.2,0.3-0.4,0.4-0.6
		c-0.2,0.1-0.4,0.3-0.6,0.4c-1,0.7-1.8,1.5-3,2c-2.1,0.9-2.5,4-0.6,5.5c1.3,1,2.7,2,4.1,2.9c0.2,0.2,0.5,0.5,0.8,0.2
		c0.2-0.2-0.1-0.6-0.2-0.8c-0.3-0.5-0.6-1-1-1.5C82.5,14.1,82.2,13.5,82.9,12.9z"/>
	<path d="M44.5,28.2c-0.6,0-1.2,0-1.8,0c-0.1,0-0.2-0.1-0.3-0.1c0.1-0.1,0.2-0.2,0.3-0.2c0.4-0.1,0.8-0.4,1.2-0.3
		c1.6,0.5,3.3,0.2,5,0.3c0.1,0,0.2,0.2,0.3,0.3c0,0-0.1,0.2-0.2,0.2c-0.4,0.1-0.8,0.1-1.2,0.1c-1.1-0.1-2.1-0.3-3.2-0.4
		C44.5,28.2,44.5,28.2,44.5,28.2z"/>
	<path d="M13,26.1c0.4-0.1,1.5-0.2,2.1,0c0.7,0.2,1.3,0.4,2,0.6c-0.7,0-1.4,0-2-0.1C14.4,26.5,13.7,26.3,13,26.1L13,26.1z"/>
	<path d="M21.8,27.2c-0.7,0-1.4,0-2.1,0c-0.1,0-0.2-0.1-0.3-0.2c0.1,0,0.2-0.1,0.3-0.1c0.7,0,1.4,0,2.1,0c0.8,0,1.6,0.1,2.5,0.1
		c-0.8,0.1-1.6,0.2-2.5,0.3C21.8,27.2,21.8,27.2,21.8,27.2z"/>
	<path d="M27.8,27.5c-0.5,0-0.9,0-1.4,0c-0.2,0-0.3-0.1-0.5-0.2c0.1-0.1,0.3-0.2,0.4-0.2c0.5,0,0.9,0,1.4,0c0.6,0,1.3,0.1,1.9,0.2
		C29,27.5,28.4,27.5,27.8,27.5C27.8,27.6,27.8,27.5,27.8,27.5z"/>
	<path d="M38.6,27.9c-0.5-0.1-1-0.1-1.5-0.2c0.5-0.1,1.1-0.2,1.6-0.2c0.4,0,0.8,0,1.2,0c0.1,0,0.2,0.1,0.3,0.2
		c-0.1,0-0.2,0.1-0.3,0.1C39.5,27.9,39,27.9,38.6,27.9C38.6,27.9,38.6,27.9,38.6,27.9z"/>
	<path d="M35.1,27.9c-0.2,0-0.4,0-0.4-0.1c-0.1-0.1-0.2-0.2-0.3-0.4c0.1-0.1,0.3-0.2,0.4-0.2c0.4,0,0.7,0.1,1,0.2
		c-0.1,0.1-0.1,0.2-0.2,0.3C35.5,27.8,35.2,27.8,35.1,27.9z"/>
	<path d="M70.7,11.1c-1.3,0-2.6,0-3.9,0c-0.2,0-0.4-0.1-0.6-0.2c0.2,0,0.3-0.1,0.5-0.1c1.3,0,2.6,0,3.9,0c1.3,0,2.6,0,3.9,0
		c0.3,0,0.6,0.1,0.8,0.2c-0.3,0.1-0.5,0.2-0.8,0.2C73.4,11.1,72.1,11.1,70.7,11.1C70.7,11.1,70.7,11.1,70.7,11.1z"/>
	<path d="M54.8,11.2c-0.3,0.2-0.4,0.3-0.6,0.3c-0.3,0-0.5-0.2-0.8-0.2c0.1-0.1,0.3-0.4,0.4-0.4C54.1,10.8,54.4,11,54.8,11.2z"/>
</g>
</svg>
