<?xml version="1.0" encoding="iso-8859-1"?>
<!-- Generator: Adobe Illustrator 25.3.0, SVG Export Plug-In . SVG Version: 6.00 Build 0)  -->
<svg version="1.1" id="Calque_1" xmlns="http://www.w3.org/2000/svg" xmlns:xlink="http://www.w3.org/1999/xlink" x="0px" y="0px"
	 viewBox="0 0 83.5 38.7" style="enable-background:new 0 0 83.5 38.7;" xml:space="preserve">
<g>
	<path d="M46.9,37.6c-4.7,0.2-9.1-0.9-13.3-3c-1.5-0.7-3-1.6-4.5-2.2c-1.2-0.5-2.1-1.4-2.9-2.3c-0.1-0.1-0.3-0.5-0.2-0.6
		c1-0.8,0.6-2.2,1.7-3c1.4-1,2.6-2.2,4-3.2c2.1-1.5,4.3-2.9,6.7-4.1c1.9-1,3.8-1.3,5.8-1.6c0.8-0.1,1.5-0.3,2.3-0.3
		c0.7,0,1.5-0.1,2.1,0.1c1.8,0.6,3.4,0.1,4.9-1c1.6-1.3,3.3-2.1,5.3-2.5c1-0.2,2.1-0.2,3.2-0.1c0.4,0,0.9,0.4,1.2,0.7
		c1.5,1.4,2.3,3.3,2.7,5.3c0.1,0.4,0,0.9-0.2,1.2c-0.4,0.5-0.3,0.7,0.2,0.8c1.3,0.3,2.5,0.7,3.8,0.8c0.7,0.1,1.4-0.2,2.1-0.4
		c2.4-0.8,4.8-1.8,7.2-2.6c1.4-0.5,2.6,0.1,3.1,1.5c1,2.6,1.7,5.3,1.4,8.1c-0.2,1.9-0.4,3.8-1.3,5.5c-0.9,1.6-1.8,2-3.5,1.4
		c-2.5-0.9-5.1-1.8-7.6-2.7c-1.3-0.5-2.5-0.1-3.7-0.2c0,0-0.2,0.3-0.1,0.4c0.2,0.9,0.3,1.7,0.6,2.6c0.5,1.8-0.1,2.9-2,2.7
		c-2.5-0.2-5.1-0.2-7.3-1.8c-0.6-0.4-0.9,0.1-1.2,0.3c-0.1,0-0.1,0.2-0.1,0.3c-0.1,1.3-0.3,1.4-1.5,1.2c-1.5-0.3-2.9-0.6-4.4-0.8
		C49.7,37.7,48.3,37.6,46.9,37.6z"/>
	<path d="M57.1,6.5c0,0.5,0,1,0,1.4c-0.3,2.9-1.8,4-4.7,3.5c-1.3-0.2-2.4-0.3-3.7,0c-0.7,0.2-1.5,0.1-2.3,0
		c-1.3-0.1-2.6-0.2-3.9-0.2c-0.8,0-1.6,0.2-2.5,0.3c-0.4,0-0.7,0.1-1.1,0.1c0.2,0.2,0.5,0.4,0.7,0.7c0.5,0.8,0.2,2.2-0.5,2.8
		c-0.4,0.3-0.9,0.6-1.4,0.8c-2.1,0.7-4.2,0.6-6.2-0.6c-0.4-0.2-0.7-0.5-1.3-0.2c-1.6,0.7-3.4,0.7-5.1,0.8c-2.5,0.1-5,0.1-7.6,0
		c-1.7-0.1-3.4-0.4-5.1-0.6c-2.1-0.3-4.2-0.7-6.3-1.1c-1.4-0.3-2.8-0.9-4.2-1.4c-1-0.4-1.3-1.3-1.7-2.2C-0.4,8.5,0,7.6,2,6.9
		c2.8-1.1,5.7-2,8.7-2.6c0.8-0.1,1.5-0.4,2.2-0.6c1.2-0.2,2.5-0.3,3.7-0.5c0.9-0.1,1.9-0.2,2.8-0.3c0.2,0,0.5-0.1,0.7,0
		c1.5,0.5,3.1,0.2,4.6,0.3C26,3.3,27.2,3,28.2,2.4c2-1.2,4.3-1.7,6.5-2.3c1.4-0.3,2.7,0.1,3.9,0.8c1.2,0.7,1.2,1.4,0,2.3
		c-0.1,0.1-0.3,0.2-0.4,0.3c0.2,0,0.4,0.1,0.5,0.1c1.7-0.1,3.5-0.2,5.2-0.5c3.6-0.6,7.2-0.7,10.9-0.6c1.2,0,2.2,1.2,2.3,2.5
		C57.2,5.6,57.1,6,57.1,6.5z"/>
	<path d="M74,24.4c-0.3-0.2-0.6-0.5-0.9-0.7c-0.2-0.2-0.4-0.4-0.6-0.6c0.3,0.1,0.7,0.1,1,0.2C74.1,23.4,74.1,23.9,74,24.4
		C74,24.4,74,24.4,74,24.4z"/>
	<path d="M74,24.4c0.6,0.5,0.8,1.1,0.7,1.9c0,0.1-0.1,0.3-0.2,0.4c-0.1-0.1-0.3-0.3-0.3-0.4C74.2,25.6,74.1,25,74,24.4L74,24.4z"/>
	<path d="M46.3,7.6c0,0.1-0.1,0.3-0.1,0.5c-0.1-0.2-0.2-0.3-0.3-0.5c-0.1-0.2-0.2-0.4-0.2-0.6c0-0.1,0.1-0.3,0.2-0.3
		c0.1,0,0.4,0.1,0.4,0.2C46.3,7.1,46.3,7.3,46.3,7.6z"/>
</g>
</svg>
