<?xml version="1.0" encoding="iso-8859-1"?>
<!-- Generator: Adobe Illustrator 25.3.0, SVG Export Plug-In . SVG Version: 6.00 Build 0)  -->
<svg version="1.1" id="Calque_1" xmlns="http://www.w3.org/2000/svg" xmlns:xlink="http://www.w3.org/1999/xlink" x="0px" y="0px"
	 viewBox="0 0 81.4 35.9" style="enable-background:new 0 0 81.4 35.9;" xml:space="preserve">
<g>
	<path d="M12.3,10.9c1.3,0,2.5,0.1,3.8,0c2.2-0.3,4.3-0.7,6.5-1c0.6-0.1,0.6-0.4,0.6-0.9c0-1.2,0-2.4,0-3.6c0-1.7,0.5-3.3,1.1-4.8
		c0.1-0.2,0.4-0.4,0.6-0.6c0,0.3,0.1,0.5,0.1,0.8c-0.3,1.8-0.6,3.6-0.9,5.4c0,0.3,0.1,0.6,0.1,1c0.2-0.3,0.3-0.6,0.5-0.9
		c0.9-1.6,1.9-3.3,2.8-4.9c0.1-0.2,0.3-0.4,0.4-0.6c0.1-0.1,0.4-0.1,0.5-0.1c0.1,0.1,0.2,0.3,0.1,0.4c-0.3,0.6-0.7,1.2-1,1.9
		c-0.7,1.5-1.4,3-2.2,4.5c-0.1,0.3-0.2,0.5-0.3,0.8c0,0.2,0.1,0.4,0.1,0.6c0.1-0.1,0.3-0.2,0.4-0.4c1.5-1.7,3-3.4,4.5-5.1
		c0.3-0.3,0.7-0.6,1.1-0.9c0.7-0.5,0.9-0.4,0.7,0.5c-0.1,0.9,0.9,1.6,1.8,1.4c0.3,0,0.6-0.2,0.9-0.2c0.1,0,0.4,0.2,0.4,0.3
		c0,1.4,0,1.4,1.2,1.6c0.6,0.1,1,0.3,0.3,0.8c-0.1,0.1-0.2,0.5-0.1,0.6c0.4,0.4,1.2,0.8,1.1,1c-0.2,0.8,0.5,0.6,0.7,0.9
		c0.5,0.8,0.8,0.3,1.2-0.1c1.7-1.3,3.3-2.7,5.1-3.9c0.9-0.7,2-1.1,3-1.6c0.3-0.2,0.8-0.1,1.2-0.2c0.3,0,0.6,0.1,0.8,0
		c1.5-0.7,2.6,0.1,3.8,0.8c0.7,0.4,1.5,0.8,2.3,1.2c0.2,0.1,0.6,0.3,0.6,0.4c-0.2,1.1,1,1.4,1.4,2.1c0.5,0.8,0.5,1.6,0.6,2.4
		c0,0.2-0.3,0.5-0.5,0.5c-1.2,0.4-2.4,0.7-3.6,1.1c-0.1,0-0.2,0.2-0.3,0.3c0.1,0.1,0.2,0.2,0.3,0.2c2.5,0.6,5,1.1,7.4,1.9
		c3.1,1,5.6-0.6,8.2-1.6c3.4-1.2,6.8-2.4,10.2-3.6c0.2-0.1,0.5,0,0.8,0c-0.1,0.3,0,0.6-0.2,0.8c-0.9,1.1-0.9,2.6-1.6,3.8
		c-0.1,0.1-0.1,0.2-0.1,0.3c0,1.3,0.1,2.6,0.1,3.9c0.1,1.8,1.3,3,2.2,4.3c0.4,0.6,0.4,0.5-0.4,0.8c-1.8,0.6-3.4-0.3-5-0.8
		c-3.2-1-6.4-2.2-9.6-3.2c-2.2-0.7-4.4-0.2-6.6-0.2c-0.8,0-1.6,0.2-2.5,0.3c-0.6,0.1-1.2,0.2-1.8,0.3c-0.3,0-0.6,0.1-0.9,0.2
		c0.3,0.1,0.5,0.1,0.8,0.2c0.5,0.1,0.9,0.2,1.3,0.5c0.4,0.2,0.9,0.5,0.3,1.2c-0.2,0.3,0.1,1.1-0.1,1.4c-0.2,0.4-1.1,0.5-1.3,0.9
		c-0.3,0.9-0.9,1.1-1.6,1.4c-0.2,0.1-0.5,0.2-0.6,0.4c-0.4,1.2-1.1,1.5-2.3,1.1c-0.2-0.1-0.5,0.1-0.6,0.3c-0.5,1.2-1,0.5-1.6,0
		c-0.3-0.3-0.7-0.5-1-0.7c-0.2-0.1-0.5-0.2-0.6-0.1c-1,1-1.4-0.1-1.8-0.6c-1.2-1.4-2.3-2.9-3.3-4.4c-0.7-1-0.7-0.9-1.8-0.8
		c-2,0.3-4,0.5-6,0.8c-0.8,0.1-1.7,0.2-2.5,0.4c-2.7,0.6-5.4,0.3-8.1,0.3c-0.8,0-0.8,0.3-0.5,0.8c0.2,0.5,0.5,1,0.6,1.5
		c0.2,0.7,1.3,1.4,0.3,2.3c0,0,0,0.1,0.1,0.2c1,2.4,1,5.2,2.7,7.4c0.3,0.3,0.9,0.9,0.3,1.3c-0.2,0.2-1-0.2-1.4-0.6
		c-0.5-0.5-0.9-1.1-1.3-1.7c-0.8-1.2-1.7-2.4-2.4-3.7c-0.7-1.3-1.1-2.7-1.6-4.1c-0.2-0.6-0.4-1.3-0.4-1.9c0-1.3-0.6-1.8-1.8-1.9
		c-0.4,0-0.7-0.1-1.1-0.2c-2.1-0.2-4.1-0.5-6.2-0.7c-1.6-0.1-3.1,0-4.7,0c-1.2,0-2.4,0.1-3.6,0c-0.6-0.1-1.2-0.4-1.8-0.6
		c0.2-1-0.8-1.2-1.2-1.9c-0.1-0.2-0.1-0.6,0-0.8c0.8-1.4,1.5-2.9,2.4-4.1C3.9,11.6,6,11,8.2,10.9C9.6,10.9,10.9,10.9,12.3,10.9
		C12.3,10.9,12.3,10.9,12.3,10.9z"/>
</g>
</svg>
