<?xml version="1.0" encoding="iso-8859-1"?>
<!-- Generator: Adobe Illustrator 25.3.0, SVG Export Plug-In . SVG Version: 6.00 Build 0)  -->
<svg version="1.1" id="Calque_1" xmlns="http://www.w3.org/2000/svg" xmlns:xlink="http://www.w3.org/1999/xlink" x="0px" y="0px"
	 viewBox="0 0 84 20.7" style="enable-background:new 0 0 84 20.7;" xml:space="preserve">
<g>
	<path d="M26.4,2.7C29.1,3.3,32,3,34.9,3.1c1.2,0.1,2.4-0.2,3.5-0.7C39.1,2,40,1.8,40.9,1.5c1.9-0.6,2.5-0.3,3.7,1.2
		c0.3,0.5,1,0.9,1.1,1.4c0.1,0.7,0.2,0.7,0.8,0.8c2.7,0.3,5.3,0.7,7.9,1c1.2,0.2,2.5,0.4,3.7,0.3c0.8,0,1.6-0.3,2.4-0.6
		c0.5-0.1,0.9-0.4,1.3-0.6c1.5-0.7,2.8-0.7,4.1,0.4c1.3,1.1,2.9,1.4,4.5,1.1c0.5-0.1,1-0.4,1.4-0.7c2.6-1.6,5.2-3.3,7.9-4.8
		c0.9-0.5,2-0.8,3-1.1c0.9-0.2,1.5,0.5,1.1,1.4c-0.5,1.1-1.1,2.2-1.7,3.3c-0.1,0.2-0.3,0.4-0.5,0.5c-2.1,0.6-2.4,2.8-3.5,4.2
		c-0.3,0.4-0.2,1.3,0,1.9c0.2,1,0.6,2,0.9,3.1c0.2,0.7-0.1,1-0.8,1c-1.8,0-3.3-0.9-4.8-1.8c-1-0.7-2-1.5-3-2.2
		c-0.5-0.4-1.1-0.5-1.8-0.3c-1.9,0.4-3.8,0.6-5.6,0.8c-0.3,0-0.5,0.2-0.8,0.3c-1.1,0.7-2.1,1.5-3.2,2.2c-1.1,0.8-2.2,0.7-3.2,0
		c-1.7-1.3-3.3-1.1-5.2-0.6c-2.8,0.8-5.7,1.1-8.6,1.3c-4.2,0.4-8.4,0.2-12.6,0.3c-1,0-1.1,0-1.1,1.1c-0.1,1.4-0.9,2.6-1.6,3.7
		c-0.4,0.7-1.2,0.8-1.8,0.2c-0.6-0.6-1-1.3-1.4-2c-0.5-0.9-0.8-1.9-1.2-2.8c-0.3-0.8-0.9-1.2-1.8-1.2c-3.9-0.2-7.7-0.7-11.5-1.4
		c-0.6-0.1-1.2-0.3-1.6-0.7C6,11,4.2,10.4,2.3,10C1.8,9.9,1.2,9.7,0.7,9.4C-0.1,9-0.2,8.2,0.4,7.7c0.6-0.5,1.3-0.9,2-1.2
		C5.2,5.4,8.1,4.7,11,4.2c2-0.4,4.1-0.6,6.2-0.8c2-0.2,4.1-0.2,6.1-0.3C24.3,3,25.3,2.9,26.4,2.7z"/>
	<path d="M7.7,9C7.5,9.1,7.2,9.5,6.8,9.6C6.3,9.7,5.9,9.1,5.9,8.5c0-0.5,0.3-0.7,0.8-0.7C7.3,7.8,7.8,8.2,7.7,9z"/>
	<path d="M15,10.9c0,0.6,0,0.9-0.1,1.2c0,0.1-0.2,0.2-0.2,0.2c-0.2,0-0.4-0.1-0.4-0.2c0-0.3-0.1-0.7,0-1c0.1-0.3,0.4-0.5,0.6-0.8
		C15,10.7,15,11,15,10.9z"/>
	<path d="M19.3,12.2c0,0.2,0,0.5-0.1,0.7c0,0-0.4,0.1-0.4,0c-0.1-0.4-0.3-0.8-0.3-1.2c0-0.2,0.3-0.4,0.4-0.6
		c0.1,0.2,0.2,0.4,0.3,0.5C19.3,11.8,19.3,12,19.3,12.2C19.3,12.2,19.3,12.2,19.3,12.2z"/>
	<path d="M16.5,11.3c0,0.4,0,0.6-0.1,0.8c0,0.1-0.2,0.2-0.2,0.2c-0.2,0-0.4-0.1-0.4-0.2c-0.1-0.2-0.1-0.5,0-0.7
		c0.1-0.2,0.3-0.4,0.5-0.7C16.3,11,16.4,11.2,16.5,11.3z"/>
	<path d="M17.8,10.7c0.1,0,0.3,0.1,0.3,0.1c-0.1,0.5-0.2,1-0.3,1.6c0,0.1-0.2,0.1-0.2,0.2c0,0-0.1-0.1-0.1-0.1
		c0-0.6,0.1-1.1,0.2-1.7C17.7,10.8,17.8,10.8,17.8,10.7z"/>
	<path d="M73.4,9.7c-0.1,0.1-0.1,0.2-0.2,0.2c-0.4,0.1-0.9,0.3-1.3,0.3c-0.1,0-0.2-0.1-0.3-0.2c0,0,0.1-0.1,0.1-0.1
		c0.5-0.1,1-0.3,1.5-0.4C73.3,9.6,73.4,9.7,73.4,9.7z"/>
</g>
</svg>
