<?xml version="1.0" encoding="iso-8859-1"?>
<!-- Generator: Adobe Illustrator 25.3.0, SVG Export Plug-In . SVG Version: 6.00 Build 0)  -->
<svg version="1.1" id="Calque_1" xmlns="http://www.w3.org/2000/svg" xmlns:xlink="http://www.w3.org/1999/xlink" x="0px" y="0px"
	 viewBox="0 0 67.6 37.5" style="enable-background:new 0 0 67.6 37.5;" xml:space="preserve">
<g>
	<path d="M54.2,20.8c-3.7,0-7.3,0-11,0c-0.8,0-1.7,0.2-2.5,0.2c-0.4,0-0.8,0.1-1.3,0c-2.3-0.1-4.5-0.2-6.8-0.3c-0.7,0-1,0.2-0.9,0.9
		c0.1,1-0.5,1.8-1.1,2.5c-1.7,1.8-3.2,3.7-4.9,5.4c-1.9,1.9-3.9,3.7-6.2,5C18,35.4,16.5,36.2,15,37c-1.5,0.8-2.9,0.7-4.3-0.4
		c-1.8-1.4-3-3.2-4.1-5.1c-1.7-3.4-3.4-6.8-5.5-10c-0.5-0.7-0.8-1.6-1.1-2.4c-0.1-0.5,0-1.1,0.2-1.5c1.1-2.2,2.2-4.3,3.3-6.5
		c0.9-1.7,2-3.4,2.8-5.2c1-2.1,2.7-3.6,4.4-5.1c1.2-1,2.5-1.2,4-0.4c4.7,2.5,9.4,4.9,13,9c0.6,0.7,1.2,1.4,1.6,2.1
		c0.6,0.9,1,1.9,1.9,2.8C32,15,32.2,16,32.1,17c0,0.5,0.2,0.7,0.7,0.8c4,0.3,8,0.6,11.9,0.9c3,0.3,6,0.6,9,0.9c0.4,0,0.8,0,1.3,0
		c2.7,0,5.4,0,8.1,0.1c1.4,0,2.7,0.2,4.1,0.3c0.1,0,0.3,0.2,0.4,0.3c-0.2,0.2-0.3,0.4-0.5,0.4c-0.5,0.1-1,0.1-1.4,0.1
		C61.8,20.7,58,20.7,54.2,20.8C54.2,20.7,54.2,20.7,54.2,20.8z"/>
	<path d="M19.5,18.7c1.4,0,2.9,0.2,4.3,0c0.6-0.1,1.2-0.5,1.8-0.1c0.2,0.1,0.4,0.5,0.3,0.7c-0.1,0.3-0.4,0.3-0.7,0
		c-0.1-0.1-0.2-0.1-0.3-0.1c-1.9,0.5-3.7,0.2-5.6,0c-0.2,0-0.3-0.2-0.5-0.4c0.2-0.1,0.4-0.3,0.6-0.4C19.4,18.6,19.4,18.6,19.5,18.7z
		"/>
	<path d="M9.5,16.5c-0.1,0.1-0.2,0.2-0.2,0.2c-1.1-0.5-2.2-0.3-3.4-0.5c-0.2,0-0.3-0.2-0.4-0.3c0.1-0.1,0.3-0.2,0.4-0.3
		c0.4-0.1,0.9-0.2,1.1-0.4C7.5,14.8,8,14.7,8.3,15C8.8,15.4,9.1,16,9.5,16.5z"/>
	<path d="M7.3,21.4c0.2,0,0.5,0,0.7,0c0.5,0.1,1,0.2,0.9,0.8c-0.1,0.4-1,0.9-1.2,0.6c-0.4-0.4-0.9-0.7-1.4-0.9c0,0,0.1-0.5,0.2-0.5
		C6.7,21.3,7,21.4,7.3,21.4C7.3,21.4,7.3,21.4,7.3,21.4z"/>
	<path d="M16.2,19.3c-0.6-0.1-1.3-0.1-1.9-0.2c-0.1,0-0.2-0.2-0.2-0.3c0-0.1,0.1-0.3,0.2-0.3c1.2,0.1,2.4,0.1,3.6,0.2
		c0.1,0,0.1,0.2,0.2,0.2c-0.1,0-0.2,0.1-0.3,0.1C17.3,19.3,16.7,19.3,16.2,19.3C16.2,19.3,16.2,19.3,16.2,19.3z"/>
	<path d="M14.7,18.1c-0.2-0.1-0.4-0.1-0.6-0.2c0.1-0.2,0.2-0.4,0.4-0.5c0.4-0.4,0.9-0.2,1.3,0c0.2,0.1,0.4,0.3,0.6,0.4
		c-0.2,0.1-0.5,0.3-0.7,0.3c-0.3,0-0.7-0.1-1-0.2C14.7,18,14.7,18.1,14.7,18.1z"/>
	<path d="M17.6,22.9c-0.2,0.1-0.3,0.2-0.4,0.2c-0.3-0.1-0.5-0.2-0.8-0.3c-0.2-0.1-0.5-0.2-0.7-0.2c0.2-0.2,0.3-0.5,0.6-0.6
		c0.2-0.1,0.5,0,0.7,0.1C17.2,22.3,17.3,22.6,17.6,22.9z"/>
	<path d="M1,17.8c0.2-0.1,0.4-0.3,0.6-0.3c0.6-0.1,1.3-0.2,1.9-0.4c0,0.1,0,0.2,0,0.2c-0.7,0.3-1.3,0.5-2,0.8
		C1.5,18.2,1.2,17.9,1,17.8L1,17.8z"/>
	<path d="M29.2,19c-0.1,0.1-0.1,0.2-0.2,0.2c-0.3,0.1-0.6,0.2-0.8,0.2c-0.3,0-0.5-0.2-0.7-0.4c0.3-0.1,0.5-0.4,0.8-0.4
		C28.6,18.7,28.9,18.9,29.2,19z"/>
	<path d="M16,19.8c0.3,0.1,0.5,0.2,0.7,0.3c-0.2,0.2-0.4,0.5-0.7,0.7c-0.1-0.2-0.4-0.3-0.4-0.5C15.7,20.2,15.9,20,16,19.8z"/>
	<path d="M24.5,26.1c-0.3,0.2-0.4,0.4-0.7,0.5c-0.1,0-0.3-0.3-0.4-0.4c0.2-0.2,0.4-0.4,0.6-0.5C24.1,25.7,24.3,25.9,24.5,26.1z"/>
	<path d="M20.3,26.1c0.2,0.4,0.4,0.6,0.4,0.8c-0.1,0.2-0.3,0.4-0.5,0.5c-0.1-0.2-0.4-0.3-0.4-0.5C19.8,26.8,20,26.6,20.3,26.1z"/>
	<path d="M21.8,12.2c-0.4,0.2-0.6,0.3-0.8,0.3c-0.2,0-0.2-0.3-0.4-0.5c0.1-0.1,0.3-0.2,0.4-0.2C21.2,11.8,21.4,12,21.8,12.2z"/>
	<path d="M28.1,12.9c-0.3,0.1-0.5,0.3-0.7,0.2c-0.2,0-0.2-0.3-0.4-0.5c0.2-0.1,0.4-0.2,0.6-0.2C27.8,12.5,27.9,12.7,28.1,12.9z"/>
	<path d="M14,20.6c-0.1-0.1-0.2-0.3-0.2-0.3c0.2-0.2,0.5-0.4,0.7-0.6c0,0,0.2,0.2,0.2,0.2C14.4,20.2,14.2,20.4,14,20.6z"/>
	<path d="M18,24.8c-0.2-0.4-0.4-0.5-0.4-0.7c0-0.1,0.2-0.3,0.2-0.4c0.2,0.1,0.4,0.2,0.5,0.3C18.4,24.1,18.2,24.4,18,24.8z"/>
</g>
</svg>
