<?xml version="1.0" encoding="iso-8859-1"?>
<!-- Generator: Adobe Illustrator 25.3.0, SVG Export Plug-In . SVG Version: 6.00 Build 0)  -->
<svg version="1.1" id="Calque_1" xmlns="http://www.w3.org/2000/svg" xmlns:xlink="http://www.w3.org/1999/xlink" x="0px" y="0px"
	 viewBox="0 0 83.4 22.4" style="enable-background:new 0 0 83.4 22.4;" xml:space="preserve">
<g>
	<path d="M36.6,3.2c2.7,0.2,5,0.3,7.2,0.4c1,0.1,1.8-0.2,2.7-0.8c1.2-0.8,2.5-1.6,3.8-2.3c0.4-0.2,0.9-0.4,1.3-0.4
		c2.3-0.2,2.9,0.1,3.9,2.2c0.1,0.1,0.1,0.2,0.2,0.3c0.8,1.6,0.8,1.8-0.9,2.5c-0.2,0.1-0.3,0.1-0.5,0.2c0.2,0.1,0.4,0.2,0.6,0.2
		c0.9,0.2,1.8,0.4,2.8,0.6c2.5,0.4,4.9,0.8,7.4,1.1c2.2,0.2,4.4-0.2,6.5-0.9c2.5-0.9,5-2,7.6-2.4c0.8-0.1,1.7-0.3,2.5-0.2
		c1.2,0,1.9,1.1,1.4,2.3c-0.3,0.6-0.8,1.2-1.2,1.8c-0.5,0.7-1,1.3-1.6,1.9c-1.6,1.8-1.8,3.8-1.1,6c0.3,0.9,0.7,1.7,1,2.6
		c0.2,0.6,0.4,1.2,0.5,1.9c0.2,1.7-1.2,2.7-2.8,2c-1.3-0.6-2.6-1.5-3.8-2.3c-2.2-1.5-4.3-3.2-6.5-4.6c-1.3-0.9-2.8-1.7-4.5-1.7
		c-0.6,0-1,0-0.4,0.7c0.3,0.4,0.1,0.7-0.4,0.7c-3.7,0.8-7,2.5-10.4,4.2c-1.7,0.9-3.4,1.9-5.2,2.8c-2.2,1.1-4.1,0.6-5.6-1.2
		c-2.3-2.7-2.3-2.7-5.7-2.6c-0.4,0-0.8,0.1-1.2,0.2c-1.2,0.3-1.2,0.3-1.1,1.6c0,0.3-0.1,0.7-0.3,0.9c-0.1,0.1-0.6,0.1-0.8-0.1
		c-0.8-0.5-1.6-1-2.3-1.7c-0.8-0.7-1.6-1-2.6-0.9c-1.5,0.1-3.1,0.3-4.6,0.3c-1.2,0-2.4-0.2-3.6-0.2c-1.4-0.1-2.8-0.1-4.2,0
		c-3.7,0.3-7.1-0.3-10.4-2.1c-1.5-0.8-3-1.7-4.2-3C-0.2,12.1-0.2,12,0.4,11c0.1-0.1,0.2-0.2,0.2-0.3C0.2,9.3,1.4,9,2.3,8.7
		c2-0.8,4.1-1.5,6.2-2.2c3.3-1,6.7-1.3,10.1-1.8c2.4-0.4,4.7-0.5,7.1-0.8c2.2-0.2,4.3-0.2,6.4-0.3C33.8,3.5,35.4,3.3,36.6,3.2z"/>
	<path d="M16.7,14.4c0-0.6,0.4-0.8,0.9-0.8c1.7,0,3.3,0,5,0c0.9,0,1.9-0.2,2.8-0.3c0.9,0,1.8,0.1,2.6,0.3c0.5,0.1,0.6,0.5,0.2,0.9
		c-0.1,0.1-0.2,0.3-0.4,0.3c-2.4,0.9-4.7,2.3-7.5,1.5c-1-0.3-2-0.4-3-0.5c-0.6-0.1-0.9-0.6-1-1.1C16.4,14.6,16.6,14.5,16.7,14.4
		c2.5,0.9,5.1,0.9,7.7,0.5c0.2,0,0.3,0.1,0.5-0.1c-0.1,0.1-0.2,0.1-0.4,0.1C21.9,15.2,19.2,15.3,16.7,14.4z"/>
	<path d="M32.2,9.7c0.3-0.1,0.6-0.3,0.9-0.4c2.7-0.1,5.3,0,8,0c0.2,0,0.4,0.1,0.5,0.2c-0.2,0-0.3,0.1-0.5,0.1c-1.3,0-2.6,0-3.9,0
		C35.5,9.8,33.8,9.7,32.2,9.7C32.2,9.7,32.2,9.7,32.2,9.7z"/>
	<path d="M25.3,10.1c-0.2,0.1-0.4,0.3-0.6,0.3c-1.6,0-3.2,0-4.8,0c-0.2,0-0.3-0.1-0.5-0.1c0.1-0.1,0.3-0.2,0.4-0.2
		C21.7,9.8,23.5,10.2,25.3,10.1C25.3,10.1,25.3,10.1,25.3,10.1z"/>
	<path d="M25.3,10.1c0.4-0.1,0.7-0.3,1.1-0.3c1.9,0,3.8,0,5.7,0l0,0c-0.3,0.6-0.8,0.4-1.3,0.4C29,10.1,27.2,10.1,25.3,10.1
		L25.3,10.1z"/>
	<path d="M47.3,9.7c-1.3,0-2.6,0-4,0c-0.2,0-0.3-0.1-0.5-0.1c0.1-0.1,0.2-0.2,0.3-0.2c1.4,0.1,2.7,0.1,4.1,0.2
		C47.2,9.6,47.3,9.7,47.3,9.7C47.3,9.7,47.3,9.7,47.3,9.7z"/>
	<path d="M17.6,10.8c-0.7,0-1,0-1.3,0c-0.1,0-0.3-0.1-0.4-0.2c0.1-0.1,0.3-0.2,0.4-0.3c0.2-0.1,0.5-0.2,0.7-0.2
		c0.6,0.1,1.1,0.3,1.7,0.5C18.1,10.7,17.7,10.8,17.6,10.8z"/>
	<path d="M9.1,14.4c0,1-0.7,1.1-1.4,1.1c-0.3,0-0.6,0-0.9,0c-0.1,0-0.2-0.1-0.3-0.1c0.1-0.1,0.3-0.2,0.4-0.2
		C7.8,15.2,8.5,14.9,9.1,14.4L9.1,14.4z"/>
	<path d="M9.1,14.4c0-0.5,0-0.9,0.1-1.4c0.1-0.3,0.3-0.6,0.5-0.9c0,0.3,0,0.6,0,0.9C9.5,13.5,9.3,13.9,9.1,14.4
		C9.1,14.4,9.1,14.4,9.1,14.4z"/>
	<path d="M9.5,8.3c-0.2,0-0.4,0-0.5,0c-0.1,0-0.2-0.1-0.3-0.2C8.7,8.1,8.8,8,8.9,8c0.4,0,0.8,0,1.3,0c0.1,0,0.1,0.1,0.2,0.2
		c0,0-0.1,0.1-0.1,0.1C9.9,8.3,9.7,8.3,9.5,8.3z"/>
	<path d="M5.9,11.9c-0.7,0-1.1-0.4-1.1-1.1c0-0.7,0.4-1.1,1-1.1C6.4,9.7,7,10.3,7,11C7,11.5,6.5,11.9,5.9,11.9z"/>
</g>
</svg>
