<?xml version="1.0" encoding="iso-8859-1"?>
<!-- Generator: Adobe Illustrator 25.3.0, SVG Export Plug-In . SVG Version: 6.00 Build 0)  -->
<svg version="1.1" id="Calque_1" xmlns="http://www.w3.org/2000/svg" xmlns:xlink="http://www.w3.org/1999/xlink" x="0px" y="0px"
	 viewBox="0 0 87.4 6.6" style="enable-background:new 0 0 87.4 6.6;" xml:space="preserve">
<g>
	<path d="M24.3,4.8c-2.9-0.1-5.7-0.1-8.6-0.5C13.5,4,11.3,3.9,9.1,4.2C7.3,4.3,5.5,4.4,3.8,4.4C3,4.4,2.2,4.2,1.5,4
		C0.8,3.8,0.9,2.7,0,2.7C0.1,2.5,0.2,2.1,0.4,2c1.2-0.7,2.5-1.2,3.9-1.2c3.3-0.1,6.5,0.1,9.8,0.5c2.9,0.3,5.8,0.6,8.7-0.6
		C24.1,0.1,25.6,0,27.1,0c9.2,0,18.5-0.1,27.7,0c3.1,0,6.3,0.1,9.4,0.6c0.4,0.1,0.8,0,1.3,0c2.7,0.1,5.4,0.2,8,0.4
		c1.5,0.1,3,0.5,4.5,0.7c0.5,0.1,1,0.1,1.4,0c2.1-0.1,4.2,0,6.2,0.3c0.2,0,0.4,0,0.5,0.1c0.4,0.3,0.7,0.7,1.1,1.1
		c-0.3,0.3-0.6,0.7-1,0.9c-0.9,0.3-1.9,0.6-2.8,0.5c-2.6-0.2-4.9,0.8-7.4,0.8c-0.8,0-1.5,0.1-2.3,0.3c-2.6,0.4-5.4,0.2-8,0.7
		c-0.3,0.1-0.7,0-1.1,0c-3.9,0-7.8,0.1-11.7,0C51,6.5,49,6,46.9,5.7c-1.8-0.2-3.6-0.5-5.4-0.6c-3.3-0.1-6.6,0-9.9-0.1
		c-2.4-0.1-4.9-0.3-7.3-0.4C24.3,4.7,24.3,4.8,24.3,4.8z"/>
</g>
</svg>
