<?xml version="1.0" encoding="iso-8859-1"?>
<!-- Generator: Adobe Illustrator 25.3.0, SVG Export Plug-In . SVG Version: 6.00 Build 0)  -->
<svg version="1.1" id="Calque_1" xmlns="http://www.w3.org/2000/svg" xmlns:xlink="http://www.w3.org/1999/xlink" x="0px" y="0px"
	 viewBox="0 0 69.1 40.6" style="enable-background:new 0 0 69.1 40.6;" xml:space="preserve">
<g>
	<path d="M68.6,20.2c0,0.1,0,0.4,0.1,0.5c0.6,0.5,0.4,0.9-0.2,1.2c-0.3,0.2-0.6,0.5-0.6,0.8c0,0.9-0.6,1.2-1.4,1.4
		c-0.6,0.1-1,0.5-1.4,1c-0.2,0.4-0.7,0.6-1.1,0.8c-0.3,0.2-0.7,0.2-1,0.4c-0.8,0.7-1.5,1.4-2.7,0.7c-0.1-0.1-0.4,0-0.5,0.1
		c-1.3,1-2.6,0.3-3.9-0.1c-0.7-0.2-1.4-0.6-2.2-0.8c-0.7-0.2-1.5-0.3-2.3-0.4c-0.2,0-0.5,0.1-0.7,0.1c0.2,0.1,0.4,0.1,0.6,0.2
		c0.5,0,1.2,0.1,1.1,0.6c-0.1,0.5,0.4,1.3-0.5,1.7c-0.5,0.2-0.8,0.9-1.3,1.3c-0.9,0.7-1.6,0.5-2.4,0.1c-0.3-0.2-0.6-0.4-0.9-0.6
		c-1.1-0.7-2.2-0.7-3.2,0c-1.7,1.2-3.4,2.4-5,3.8c-1.9,1.6-3.9,3.1-6.1,4.3c-2.4,1.4-4.8,2.6-7.6,3c-2.7,0.4-5.5,0.5-8-0.8
		c-1.1-0.6-2.3-1-3.4-1.7c-1-0.6-2-1.3-2.9-2.1c-2.1-1.8-4.1-3.8-6.4-5.4C4,29.8,3.4,29,3.1,28c-0.3-1-0.9-1.9-2-2.4
		c-1.4-0.7-1.4-1.6-0.2-2.7c0.4-0.4,0.7-0.8,1-1.2c0.2-0.2,0.4-0.3,0.5-0.4c0,0.2,0.2,0.5,0.1,0.7c-0.1,0.4-0.2,0.7,0.4,0.4l2.7,0.8
		c0.4,0.3,0.9,0.5,1.3,0.1c0.6-0.6,1.8,0.1,2-0.7c0.1-0.5-0.6-1.2-1-1.8c-0.5-0.8-1.1-1.7-1.7-2.5c-0.4-0.5-0.4-0.9-0.1-1.5
		c0.3-0.7,0.6-1.4,0.9-2.1c0.4-0.9,0.4-1.9-0.1-2.7c-0.6-1-1.2-1.9-1.9-2.8c-1.7-2.2-3.3-4.5-4.6-7C-0.1,1.2,0.2,0.4,1,0.1
		C1.5-0.1,2,0.2,1.8,0.6C1.4,1.4,2,2,2.3,2.6c1.1,1.6,2.2,3.2,3.3,4.8c0.9,1.3,1.8,2.6,2.7,4c1,1.5,1.7,1.8,3.5,1.2
		c1.7-0.5,3.4-1,5.1-1.5c0.6-0.2,1.1-0.5,1.3-1.1c0.1-0.3,0.3-0.5,0.5-0.7c0.1-0.1,0.5-0.2,0.6-0.2c0.2,0.1,0.4,0.4,0.4,0.5
		c-0.5,1.1,0.2,0.8,0.9,0.8c2.9-0.1,5.8,0,8.7,0.5c3.8,0.7,7.4,1.9,10.9,3.4c0.9,0.4,1.9,0.5,2.7-0.1c1.4-1,2.9-1.2,4.6-1.1
		c0.7,0,1.4,0,2.2,0c0.8,0,1.3,0.4,1.5,1c0.2,0.6-0.1,1.2-0.6,1.6c-0.5,0.4-0.9,0.7-1.3,1.1c0.7,0.2,1.4,0.5,2.2,0.5
		c0.9,0,1.8-0.2,2.6-0.5c1.5-0.5,2.9-1,4.3-1.8c1.5-0.8,2.7-0.5,4.1,0.1c1.1,0.5,2.1,1,3.3,1.2c0.6,0.1,1.2,0.9,1.7,1.4
		c0.3,0.3,0.5,0.7,0.8,0.9C68.8,19.1,69.1,19.5,68.6,20.2z"/>
	<path d="M39.7,22.8c0,0.2,0,0.6-0.1,1c-0.1,0.8-0.5,1.3-1.3,1.6c-1.1,0.4-2.3,0.6-3.5,0.3c-1.7-0.5-3.5-0.9-5.2-0.1
		c-0.1,0.1-0.4-0.1-0.6-0.2c0.1-0.2,0.2-0.4,0.3-0.5c0.4-0.2,0.8-0.3,1.2-0.4c0.9-0.3,1.2-0.9,0.8-1.7c-0.3-0.8-0.5-1.8-1.9-1.4
		c-0.2,0.1-0.6-0.3-0.8-0.5c-0.2-0.1-0.2-0.4-0.3-0.6c0.2,0,0.5-0.1,0.7,0c1,0.5,1.9,0.2,2.7-0.3c0.9-0.5,1.9-0.8,3-1
		c1.5-0.3,2.6,0.1,3.7,0.9C39.5,20.5,39.8,21.1,39.7,22.8z"/>
	<path d="M16.6,18.3c-1,0-1.8-0.7-1.8-1.6c0-0.6,0.9-1.4,1.6-1.4c0.8,0,1.7,0.9,1.6,1.8C18.1,18,17.6,18.3,16.6,18.3z"/>
	<path d="M23.5,24.4c-0.3,0.8-0.7,1.8-1.2,2.7c-0.3,0.6-0.7,1.1-1.1,1.6c-0.1,0.1-0.3,0.1-0.5,0.2c0-0.2-0.2-0.3-0.1-0.4
		c0.3-0.6,0.7-1.2,1-1.9c0.5-0.9,1.1-1.8,1-3c0-0.2,0.2-0.3,0.3-0.5c0.1,0.2,0.3,0.3,0.4,0.5C23.5,23.8,23.5,24,23.5,24.4z"/>
	<path d="M29.6,28.8c0,0.4,0,0.5,0,0.6c-0.1,0.5,0.3,1.2-0.5,1.3c-0.2,0-0.5-0.8-0.6-1.3c-0.1-0.5,0-1.1,0-1.6
		c0-0.2,0.2-0.3,0.4-0.5c0.2,0.1,0.4,0.3,0.5,0.4C29.5,28.2,29.6,28.7,29.6,28.8z"/>
	<path d="M9.9,18.2c-0.2,0-0.4,0.1-0.5,0.1c-0.6-0.1-1.8-1.4-1.8-2c0-0.3,0.2-0.5,0.4-0.7c0.1-0.1,0.3-0.1,0.5-0.1
		c0,0.1-0.1,0.3-0.1,0.4c0,0.2-0.1,0.6,0,0.7c0.4,0.5,0.9,0.9,1.3,1.3C9.8,18,9.8,18.1,9.9,18.2z"/>
</g>
</svg>
