<?xml version="1.0" encoding="iso-8859-1"?>
<!-- Generator: Adobe Illustrator 25.3.0, SVG Export Plug-In . SVG Version: 6.00 Build 0)  -->
<svg version="1.1" id="Calque_1" xmlns="http://www.w3.org/2000/svg" xmlns:xlink="http://www.w3.org/1999/xlink" x="0px" y="0px"
	 viewBox="0 0 66.8 40.1" style="enable-background:new 0 0 66.8 40.1;" xml:space="preserve">
<g>
	<path d="M27.6,36.3c0,0.9,0,1.8,0,2.7c-0.1,1.1-0.8,1.4-1.7,0.9c-0.5-0.3-1-0.7-1.4-1.1c-0.7-0.7-1.3-1.6-2.1-2.2
		c-1.5-1.1-2.5-2.5-3.4-4.1c-0.4-0.6-0.8-1.1-1.7-1.1c-0.8,0-1.6-0.4-2.4-0.6c-4.3-1.1-8.4-2.5-12.3-4.7C2.1,25.8,1.5,25.4,1,25
		c-1.1-1.2-1.3-2.5-0.8-4.1c0.7-2.4,2-4.3,3.7-6c2.2-2.2,4.6-4.3,7.3-6c1.4-0.9,3.1-1.5,4.7-2.2c0.8-0.4,1.4-1,1.9-1.8
		c0.6-0.9,1.2-1.7,1.8-2.5c0.1-0.1,0.5,0.1,0.7,0.2c0.5,0.5,1,0.7,1.4-0.1c0.1-0.3,0.4-0.5,0.6-0.7c1-1,1-1,2,0.1
		c0.4,0.4,0.8,0.8,1.3,0.2c0.1-0.1,0.5,0,0.5,0.1c0.4,1,1.1,1.1,2,0.7c0.2-0.1,0.7,0.1,0.7,0.2c1.1,2.3,2.6,2.4,4.5,2.5
		c0.8,0.1,1.4-0.6,2-1.1c1.5-1.3,3-2.5,4.5-3.8c0.2-0.2,0.4-0.3,0.6-0.4c1.4-0.8,1.8-0.5,1.9,1c0.1,1.9,0.2,3.8,0.4,5.7
		c0.1,1.3,0.5,2.4,1.6,3.3c1.2,1,2.4,2.1,3.7,3.1c0.2,0.2,0.5,0.2,0.6,0.4c0.6,1.7,1.8,1.2,2.9,0.8c1.2-0.4,2.4-1,3.6-1.6
		c1-0.5,1.9-1.2,3-1.6c2.2-1,4.4-2.1,6.9-2.5c0.3,0,0.6-0.1,0.9,0c0.4,0.1,0.8,0.4,0.6,0.9c-0.1,0.4-0.3,0.8-0.4,1.2
		c-0.7,2-1.4,4-2.1,6c-0.3,0.9-0.3,1.7,0.1,2.6c0.9,2.2,1.8,4.4,2.6,6.6c0.2,0.5,0.4,0.9,0,1.3c-0.4,0.5-0.9,0.3-1.5,0.2
		c-3-0.8-5.9-1.9-8.5-3.6c-0.8-0.5-1.7-0.8-2.7-0.8c-0.7-0.1-1.4-0.3-2.1-0.3c-1.1,0-2.1,0.2-3.2,0.4c-0.1,0-0.3,0.4-0.3,0.5
		c0.4,0.7,0,1.3-0.4,1.8c-1.7,2.1-2,4.5-1.2,7c0.2,0.7,0.5,1.5,0.6,2.2c0.3,1.2-0.5,1.9-1.7,1.4c-0.8-0.3-1.6-0.7-2.4-1.3
		c-1.2-0.8-2.3-1.7-3.4-2.6c-0.5-0.5-1.1-0.9-1.8-0.6c-1.2,0.6-2.3,0.1-3.2-0.3c-1.5-0.7-3.1-0.4-4.6-0.4c-1.1,0-2.1,0.2-3.2,0.3
		c-0.2,0-0.5,0-0.2,0.3c0.8,0.9,0.7,2.1,0.7,3.2C27.6,35.5,27.6,35.9,27.6,36.3C27.6,36.3,27.6,36.3,27.6,36.3z"/>
	<path d="M5.1,20.6c-0.4,0.1-1,0-1.4-0.7c-0.1-0.2-0.4-0.4-0.5-0.4c-1,0.2-0.9-0.1-0.4-0.7c0.3-0.4,0.6-0.8,0.9-1.2
		c0.7-0.9,2-1.1,2.9-0.4c0.8,0.6,1.1,1.4,0.9,2.2c-0.2,0.4-0.5,0.9-0.9,1.1C6.2,20.6,5.8,20.5,5.1,20.6z"/>
	<path d="M24.4,13.6c2.2,0,4.3,0.2,6.4,1c0.2,0.1,0.4,0.1,0.5,0.2c0.1,0,0.1,0.2,0.2,0.3c-0.1,0-0.2,0.2-0.3,0.1
		c-0.9-0.2-1.7-0.4-2.6-0.5c-3.2-0.5-6.4-0.6-9.5,0.3C18,15.3,17,15.7,16,16.2c-0.1,0.1-0.3,0.1-0.5,0.1c0.1-0.2,0.1-0.4,0.3-0.5
		c1.1-1.1,2.7-1.3,4.1-1.7C21.3,13.7,22.9,13.8,24.4,13.6z"/>
	<path d="M11,22.9c0,0.5,0,1.1,0,1.6c0,1.1-0.3,1.5-1.4,1.6c-0.4,0-0.8,0-1.3,0c-0.2,0-0.3-0.2-0.5-0.4c0.1-0.1,0.2-0.2,0.4-0.3
		c0.1,0,0.2,0,0.4,0c2-0.2,2.2-0.3,2-2.4c-0.1-1.1-0.5-2.2-0.7-3.3c0-0.2,0.1-0.4,0.2-0.6c0.2,0.1,0.4,0.3,0.5,0.5
		c0.2,0.6,0.3,1.1,0.4,1.7C11.1,21.9,11,22.4,11,22.9C11,22.9,11,22.9,11,22.9z"/>
	<path d="M55.7,18.7c-0.5,0.7-1.3,0.5-1.9,0.5c-1.3,0.1-2.6,0-4,0c-0.2,0-0.3-0.2-0.5-0.3c0.2-0.1,0.4-0.3,0.5-0.3
		c0.8,0,1.6,0,2.3,0C53.3,18.6,54.5,18.6,55.7,18.7L55.7,18.7z"/>
	<path d="M43.4,18.6c0.2-0.1,0.3-0.3,0.4-0.3c1.5,0.1,3,0.2,4.6,0.3c0.1,0,0.3,0.2,0.4,0.2c-0.2,0.1-0.3,0.2-0.5,0.2
		c-1.4,0-2.9-0.1-4.3-0.1C43.8,18.9,43.6,18.7,43.4,18.6z"/>
	<path d="M39.7,17.5c0.4,0.1,0.9,0.3,1.3,0.4c0.7,0.1,1.4,0,1.9,0.6c-0.6,0-1.3,0-1.9,0c-0.5-0.1-1-0.2-1.5-0.4
		c-0.2-0.1-0.3-0.3-0.5-0.4C39.2,17.6,39.4,17.6,39.7,17.5z"/>
	<path d="M55.7,18.6c0.3-0.5,0.8-0.4,1.2-0.3c0.2,0,0.3,0.2,0.5,0.4C57.2,18.8,57,19,56.8,19C56.4,18.9,56.1,18.8,55.7,18.6
		L55.7,18.6z"/>
	<path d="M57.4,14.8c0.2,0.3,0.4,0.5,0.5,0.8c0.1,0.2,0,0.5-0.1,0.7c-0.1-0.2-0.3-0.3-0.3-0.5c-0.1-0.2-0.2-0.4-0.2-0.7
		C57.2,15.1,57.3,15,57.4,14.8z"/>
	<path d="M33.4,15.5c0.3,0.2,0.6,0.5,1,0.7c-0.1,0.1-0.2,0.2-0.2,0.2c-0.4-0.2-0.7-0.4-1.1-0.7C33.1,15.7,33.2,15.6,33.4,15.5z"/>
	<path d="M35.8,16.3c0.3,0.1,0.7,0.2,1,0.4c0,0,0,0.2,0,0.3c-0.3,0-0.5,0-0.8-0.1c-0.2-0.1-0.3-0.3-0.5-0.4
		C35.6,16.4,35.7,16.4,35.8,16.3z"/>
	<path d="M58.2,17.9c0,0.3,0,0.5-0.1,0.7c0,0-0.1,0.1-0.2,0.1c0-0.5,0-1,0-1.5c0.1,0,0.2,0,0.2,0C58.2,17.4,58.2,17.7,58.2,17.9z"/>
</g>
</svg>
