<?xml version="1.0" encoding="iso-8859-1"?>
<!-- Generator: Adobe Illustrator 25.3.0, SVG Export Plug-In . SVG Version: 6.00 Build 0)  -->
<svg version="1.1" id="Calque_1" xmlns="http://www.w3.org/2000/svg" xmlns:xlink="http://www.w3.org/1999/xlink" x="0px" y="0px"
	 viewBox="0 0 237 88.3" style="enable-background:new 0 0 237 88.3;" xml:space="preserve">
<g>
	<path d="M93,0.1c8.5-0.3,16.9,0.2,25.3,1.7c3.7,0.7,7.6,1.1,11.4,1.1C140,2.8,150,5.2,160,7.5c14.9,3.5,29.2,8.7,43.6,13.8
		c2,0.7,4.1,1.2,6.2,1.9c0.5,0.2,1.2,0.8,1.3,1.3c0.1,0.5-0.4,1.3-0.9,1.6c-2.8,1.7-5.8,3.3-8.6,5c-0.3,0.2-0.5,0.4-0.7,0.6
		c0.3,0.1,0.6,0.3,0.9,0.2c1.5-0.2,2.9-0.4,4.4-0.8c4.8-1.2,9.6-2.7,14.4-3.7c5-1,10-0.7,13.9,3.2c4.2,4.3,3.1,13.7-2.1,16.6
		c-3,1.7-6.5,1-9.8,0.5c-5.7-0.8-11.4-1.7-17.2-2.6c-0.5-0.1-1,0.1-1.5,0.1c0.4,0.4,0.7,0.8,1.1,1.1c0.7,0.5,1.5,0.8,2.2,1.2
		c1.3,0.9,1.1,2-0.1,2.8c-4.4,3.3-9.1,6.1-14.5,7.6c-12,3.2-24,6.5-36.1,9.3c-9.5,2.2-19.1,4-29,3.9c-3.3,0-6.6,0.5-9.9,0.8
		c-3.6,0.3-7-0.3-9.5-3.3c-1.2-1.4-2.4-2.8-3.5-4.2c-0.8-1.1-1.7-1.5-3-0.8c-4.7,2.9-10,3-15.3,3.6c-11.1,1.3-22.3,0.6-33.4,0.8
		c-1.4,0-1.7,0.3-0.8,1.6c2.5,3.9,6.2,6.4,10,8.7c2.5,1.5,5.5,2.4,8.2,3.7c2.5,1.2,5,2.6,7.4,4c0.8,0.5,1.3,1.3,2,2
		c-0.9-0.2-1.8-0.2-2.6-0.5c-5.7-2.6-11.5-5.2-17.1-8c-4.3-2.2-8.4-4.6-11.1-8.9c-1.7-2.6-4.2-4.4-7.6-5.1
		c-4.8-1.1-9.4-3.5-14.3-4.2c-6.9-0.9-13-3.8-19.2-6.5c-2.1-0.9-4-2.3-5.8-3.8c-0.7-0.6-0.9-2.1-0.8-3.1c0.1-0.4,1.6-0.7,2.5-1
		c0.6-0.2,1.3-0.1,2-0.1c0.1,0,0.3-0.2,0.4-0.2c-0.2-0.2-0.3-0.5-0.5-0.5c-1.2-0.1-2.4,0-3.5-0.2c-1.7-0.3-2.7-1.4-2.3-3.2
		c0.2-1.1,0.5-2.2,1.1-3.2c3.5-6.5,8.9-11.1,15.4-14.4c7.9-4,15.7-8,24.5-9.6c5.4-1,10.7-1.9,16.2-2.6c1.8-0.2,3-0.5,4.1-2.2
		c1.4-2.2,3.2-4.3,4.9-6.2c4-4.4,9.6-3.8,14.7-4.5c0.2,0,0.3,0,0.5,0C85.3,0.1,89.1,0.1,93,0.1z"/>
	<path d="M75.1,29.8c5.1-0.5,9.5,1.3,13.8,3.6c3.4,1.8,5.1,5.6,3.9,9.2c-0.7,2-1.7,4.1-3.1,5.6c-4.9,5.3-10.6,8.9-18.4,8.2
		c-2.4-0.2-4.5-0.9-6.6-1.9c-1.6-0.8-3.4-1.2-5-1.8c1.2-1.4,2.4-2.7,3.5-4.1c0.8-1.1,1.5-2.2,1.9-3.5c0.8-2.7-0.2-4.5-2.9-6
		c-1-0.6-2-1.1-2.9-1.9c-0.3-0.2-0.2-1.3,0-1.5c2.8-1.8,5.5-3.9,8.5-5.1C69.9,29.7,72.6,30,75.1,29.8z"/>
</g>
</svg>
