<?xml version="1.0" encoding="iso-8859-1"?>
<!-- Generator: Adobe Illustrator 25.3.0, SVG Export Plug-In . SVG Version: 6.00 Build 0)  -->
<svg version="1.1" id="Calque_1" xmlns="http://www.w3.org/2000/svg" xmlns:xlink="http://www.w3.org/1999/xlink" x="0px" y="0px"
	 viewBox="0 0 67.8 38.7" style="enable-background:new 0 0 67.8 38.7;" xml:space="preserve">
<g>
	<path d="M50.6,15.6c2.7,0.3,4.7-1.2,6.8-2.4c1.8-1,3.4-2.5,5.5-2.9c1.4-0.3,2.8-0.3,4.2-0.4c0.2,0,0.5,0.4,0.5,0.6
		c0,1.5,0.2,3.1,0,4.6c-0.5,2.9-1.1,5.8-1,8.8c0,1.4-0.2,2.8-0.4,4.2c-0.1,0.9-0.5,1.2-1.4,1.2c-0.6,0-1.3-0.1-1.9-0.3
		c-2.7-0.8-5.2-2-7.4-3.7c-1.9-1.6-4.2-2.4-6.8-2.4c-0.4,0-0.8,0.1-1.2,0.2c-0.1,0-0.3,0.2-0.4,0.3c0.1,0,0.2,0.1,0.3,0.1
		c0.2,0.1,0.4,0.2,0.7,0.3c1.4,0.7,1.5,1.1,1.1,2.5c-0.6,2.3-1.2,4.6-0.5,7c0.3,1.3-1.2,2.5-2.4,2c-0.9-0.3-1.7-0.8-2.5-1.3
		c-1.3-0.8-2.5-1.7-3.7-2.4c-0.4-0.2-0.7-0.8-1.4-0.5c-0.3,0.1-0.8-0.2-1.1-0.5c-1.6-1.5-3.5-1.5-5.5-1c-0.4,0.1-0.8,0.1-1.2,0.2
		c-1.3,0.1-2.6,0.2-3.9,0.4c-0.4,0-0.3,0.2-0.1,0.4c0.7,0.3,0.7,0.9,0.7,1.5c0,1.7,0,3.4,0,5.2c0,0.5,0,1.1-0.6,1.4
		c-0.7,0.3-1.4,0.2-2-0.3c-1.2-0.9-1.7-2.2-2.6-3.4c-0.8-1.2-1.2-2.5-1.6-3.8c-0.2-0.8-0.5-1.2-1.5-1.3c-1.5-0.1-3-0.6-4.5-1
		c-1.2-0.3-2.5-0.4-3.6-0.8c-1.9-0.8-3.6-1.8-5.5-2.6c-1.2-0.6-2.4-1.1-3.6-1.5c-1.1-0.4-1.8-1.1-2-2.2c-0.1-0.4,0.1-0.7,0.5-0.7
		c0.4,0,0.7-0.1,1.1,0c0.7,0.1,0.9-0.1,0.7-0.7c-0.3-0.9-0.3-1.3,0.6-2c1.6-1.3,3.3-2.5,5-3.7c0.8-0.6,1.4-1.2,2.2-1.8
		c2.4-1.7,5.1-3.1,8-3.9c1.3-0.4,2.5-1,3.2-2.2c0.1-0.1,0.2-0.3,0.4-0.3c0.8-0.2,1-0.9,1.3-1.5c0.2-0.4,0.4-0.6,0.8-0.2
		c0,0,0.1,0.1,0.1,0.1c0.3-0.2,0.6-0.6,0.9-0.7c0.3,0,1,0.4,1,0.3c0.5-0.6,0.8-0.6,1.1,0.1c1.7,0.2,3,2.1,4.9,1
		c1.7,0.3,2.7-0.7,3.8-1.7c1.1-1,2.5-1.9,3.7-2.8c0.4-0.3,0.8-0.5,1.3-0.6c0.9-0.3,1.5-0.1,1.9,0.8c0.6,1.3,1,2.6,1.5,4
		c0.8,1.9,1.6,3.8,2.4,5.7c0.1,0.3,0.3,0.5,0.4,0.8c0.7,1.5,0.6,1.8-0.8,2.8c-0.2,0.1-0.3,0.3-0.5,0.5c0.2,0.1,0.4,0.3,0.6,0.3
		C47.7,15.1,49.2,15.4,50.6,15.6z"/>
	<path d="M20.9,21.9c-0.3-0.1-0.6-0.2-0.8-0.4c-0.3-0.2-0.3-0.5,0.1-0.6c2.5-0.7,4.8-2.1,7.5-2.3c1.4-0.1,2.7-0.2,4.1-0.2
		c0.4,0,0.8,0.2,1.2,0.4c0.7,0.4,0.7,1.1,0.1,1.6c-2.2,1.7-4.4,3.2-6.5,4.9c-0.9,0.7-1.9,0.7-2.9,0.5c-0.9-0.2-1.7-0.8-2.7-0.4
		c0,0-0.2-0.1-0.3-0.2c0-0.1,0-0.2,0-0.3c0-0.1,0.1-0.1,0.1-0.1c0.4-0.4,1.4-0.5,1.1-1.4C21.7,22.8,21.3,22.3,20.9,21.9
		c1.1-0.6,1.7,0,2.2,0.9c0.8,1.5,1.5,1.7,2.9,0.7c1.2-0.9,2.5-1.7,3.5-2.7c0.2-0.2,0.5-0.4,0.3-0.7c-0.1-0.2-0.4-0.2-0.7-0.1
		c-0.9,0.1-1.9,0.2-2.8,0.5C24.5,20.9,22.9,21.8,20.9,21.9z"/>
	<path d="M25.6,13.8c2.7,0.2,5.1,0.7,7.5,1.4c2.3,0.8,4.7,1.6,7,2.3c0.2,0,0.3,0.3,0.4,0.4c-0.2,0-0.4,0.2-0.6,0.1
		c-1.9-0.6-3.8-1.3-5.7-1.9c-1.8-0.6-3.7-1.2-5.7-1.4c-1.2-0.1-2.4-0.2-3.5-0.4c-0.2,0-0.3-0.2-0.5-0.4c0.2-0.1,0.4-0.1,0.6-0.2
		C25.4,13.8,25.6,13.8,25.6,13.8z"/>
	<path d="M14,21.6c0-0.9,0.1-1.8,0.1-2.6c0-0.2,0.3-0.3,0.5-0.5c0.1,0.2,0.2,0.3,0.2,0.5c0,0.6,0.1,1.2-0.1,1.8
		c-0.3,1-0.4,1.9,0,2.9c0.3,0.8-0.2,1.7-0.9,2.1c-1.5,0.9-3,0.9-4.5,0c-0.1-0.1-0.1-0.3-0.2-0.4c0.2-0.1,0.3-0.2,0.5-0.2
		c0.4,0.1,0.8,0.2,1.2,0.4c0.9,0.5,1.8,0,2.5-0.3c0.5-0.2,0.8-0.7,0.8-1.3C14,23.1,14,22.4,14,21.6C14,21.6,14,21.6,14,21.6z"/>
	<path d="M55.8,20.6c-0.2,0.6-0.4,1.2-0.6,1.9c0,0-0.3,0-0.3-0.1c0.1-0.7,0.2-1.4,0.4-2.1c0,0,0.2-0.1,0.3-0.1
		C55.7,20.3,55.7,20.4,55.8,20.6z"/>
	<path d="M23.4,14c-0.1,0,0.1-0.1,0.4-0.1c0.1,0,0.2,0.1,0.4,0.2c-0.1,0.1-0.1,0.2-0.2,0.2c-0.6,0.1-1.2,0.3-1.8,0.4
		c-0.1,0-0.2-0.2-0.4-0.3c0.1-0.1,0.2-0.3,0.3-0.4C22.3,14,22.7,14,23.4,14z"/>
	<path d="M43.5,18.4c0.6,0.1,1,0.1,1.4,0.2c0.2,0.1,0.3,0.3,0.5,0.4c-0.2,0.1-0.4,0.2-0.6,0.2c-0.4,0-0.8-0.1-1.2-0.3
		c-0.2-0.1-0.4-0.4-0.5-0.5C43.3,18.4,43.5,18.4,43.5,18.4z"/>
	<path d="M20.9,14.1c0.1,0.1,0.2,0.2,0.2,0.4c0,0.1-0.1,0.3-0.3,0.4c-0.3,0.1-0.6,0.2-0.8,0.2c-0.1,0-0.3-0.1-0.5-0.2
		c0.1-0.2,0.2-0.4,0.4-0.5C20.2,14.3,20.5,14.2,20.9,14.1z"/>
</g>
</svg>
