<?xml version="1.0" encoding="iso-8859-1"?>
<!-- Generator: Adobe Illustrator 25.3.0, SVG Export Plug-In . SVG Version: 6.00 Build 0)  -->
<svg version="1.1" id="Calque_1" xmlns="http://www.w3.org/2000/svg" xmlns:xlink="http://www.w3.org/1999/xlink" x="0px" y="0px"
	 viewBox="0 0 82.7 31.2" style="enable-background:new 0 0 82.7 31.2;" xml:space="preserve">
<g>
	<path d="M82.7,19c-0.2,1.4-0.3,2.8-0.5,4.2c-0.2,1.3-0.7,1.5-1.9,1.6c-2,0.2-3.8-0.4-5.6-0.8c-1-0.2-2-0.4-2.9-0.7
		c-0.6-0.1-1.1-0.2-1.7,0.1c-0.3,0.2-0.8,0.2-1.2,0.2c-1.4,0.1-2.7,0.3-4.1,0.4c-0.3,0-0.4,0.1-0.2,0.4c0.3,0.4,0.5,0.8,0.7,1.2
		c0.8,1.5,0.5,3-0.4,4.2c-0.9,1.2-2.3,1.4-3.7,1.3c-2.7-0.3-5.1-1.4-6.8-3.5c-1.3-1.6-2.7-1.7-4.4-0.9c-3.5,1.6-7.2,2.1-11,2.8
		c-4.4,0.8-8.7,1.2-13.2,1c-3.8-0.2-7.6-0.6-11.1-2.2c-1.4-0.6-2.8-1.4-4.2-2c-1.5-0.7-3.1-1.1-4.8-1.1c-1.3,0-2.6-0.2-3.8-0.9
		c-1.1-0.6-1.3-0.8-0.9-1.9c0.2-0.7,0.2-1-0.5-1.2c-0.2,0-0.3-0.5-0.4-0.7c-0.2-1.3,0.5-2.3,1.3-3.2c0.5-0.6,1.1-1.1,1.6-1.7
		c0.5-0.6,1-1.3,1.3-2.1c0.4-1,0.2-1.8-0.6-2.4C3.2,10.8,2.4,10.7,3,9.8c0.1-0.1-0.4-0.7-0.6-1c-0.1-0.2,0-0.4,0-0.6
		C2.6,8.2,2.9,8.2,3,8.4c0.3,0.3,0.6,0.7,0.9,1.1c0.1,0.1,0.5,0.1,0.6,0c0.1-0.2,0.1-0.4,0-0.6c0-0.1-0.2-0.3-0.4-0.3
		c-0.6-0.1-1.1-0.3-0.6-1c0.1-0.2-0.2-0.5-0.3-0.8C3.1,6.4,2.9,6.1,3,5.9c0-0.1,0.5-0.2,0.6-0.4c0.7-0.8,0.8-0.8,1.2,0
		c0,0.1,0,0.1,0,0.2C5,6.1,5.2,6.5,5.3,7c0.1-0.6,0.2-1.2,0.3-1.9c0-0.6,0.1-1.2,0-1.7c-0.1-0.8,0.9-0.9,1-1.5c0,0,0.5-0.1,0.5,0
		c0.4,0.7,0.5,0.6,0.6-0.2C7.7,1.4,8,1,8.2,0.6C8.4,1,8.6,1.4,8.7,1.9c0.1,0.5,0,1,0.1,1.4C8.9,3.7,9,4.1,9.2,4.4
		c0.3,0.6,1,0.6,1.5,0.2c0.3-0.2,0.4-0.6,0.7-0.8c0.3-0.3,0.6-0.4,0.7,0.2c0.1,0.7,0.7,0.6,0.9,0.2c0.7-1,1.5-1.6,2.9-1.3
		c0.6,0.1,0.6-0.6,0.8-1c0.2-0.4,0.6-0.4,0.7,0.1c0.1,0.6,0.4,0.7,0.8,0.3c0.6-0.6,1.1-1.2,1.7-1.8C20,0.2,20.3,0.1,20.5,0
		c0,0.2,0.1,0.5,0,0.7c-0.1,0.4-0.7,0.7-0.3,1.2c0.2,0.2,1.8-0.2,2-0.5c0.1-0.2,0.2-0.4,0.4-0.6c0.1-0.1,0.3,0,0.4,0.1
		c0.6,0.7,0.9,0.7,1.5,0.1c0.1-0.1,0.3-0.3,0.4-0.3c0.1,0,0.4,0.1,0.4,0.2c0.3,0.8,0.3,0.8,0.8,0.3c0.1-0.1,0.2-0.3,0.3-0.4
		c0.2-0.2,0.4-0.1,0.5,0.2c0.3,0.9,0.4,0.9,1.1,0.3c0.5-0.4,0.8-0.5,1.3,0c0.2,0.2,1.1,1,1.7,0c0,0,0.1-0.1,0.2-0.1
		c0.5-0.1,0.8,1,1.5,0.3C33.3,1,34,1.6,34.6,1.5c0.7-0.2,1.1,0.1,1.7,0.3c0.6,0.2,1.2-0.2,1.9,0c1.3,0.3,2.7,0.7,4,1
		C43,2.9,44,3.3,44.8,3.9c1.2,0.9,2.5,1.6,4.1,1.9c0.9,0.2,1.6,0.8,1.8,1.7c0.1,0.6,0.3,0.7,0.7,0.4C52,7.7,52.5,7.5,53,7.2
		c1.6-0.9,3.4-1.1,5.1-1.4c0.4-0.1,0.9,0,1.2-0.1c1.2-0.5,2.2-0.1,3.2,0.5c1.6,0.9,2.2,3.1,1.1,4.6c-0.5,0.8-1,1.7-2.2,1.6
		c-0.2,0-0.4,0.3-0.5,0.4c0.2,0.1,0.4,0.3,0.6,0.4c1.7,0.3,3.4,0.7,5.1,0.8c1.4,0.1,2.7,0.3,4,0.8c0.8,0.3,1.5,0.3,2.3,0.1
		c2-0.5,3.9-1,5.9-1.4c0.5-0.1,0.9-0.2,1.4-0.2c0.9-0.1,1.6,0.3,1.8,1.2c0.2,0.8,0.3,1.7,0.4,2.6c0.1,0.6,0,1.3,0,2
		C82.6,19,82.7,19,82.7,19z"/>
	<path d="M8.3,12C6.6,12,6,11,6.8,9.7C7.3,8.8,8,8.3,9.1,8.3c0.8,0,1.4,0.3,1.7,1c0.3,0.7,0.1,1.4-0.4,1.9C9.8,11.9,9,12.1,8.3,12z"
		/>
	<path d="M25.2,18.3c0-0.1-0.1-0.3-0.1-0.4c0.2-0.4,0.4-0.7,0.5-1.1c0.5-1.1,0.7-2.1,0.4-3.4c-0.3-1.3-0.4-2.7,0.3-4
		c0.1-0.3,0.4-0.5,0.6-0.7c0.1-0.1,0.2-0.1,0.3-0.2c0,0.1,0.2,0.4,0.1,0.4c-0.7,0.9-0.6,2-0.6,3.1c0,0.5,0.1,1,0.3,1.6
		c0.4,1.8-0.2,3.3-1.4,4.6C25.5,18.2,25.4,18.3,25.2,18.3z"/>
	<path d="M46.2,23.7c-0.4,0-0.8,0-1.2,0c-0.2,0-0.5-0.2-0.5-0.4c0-0.2,0.2-0.4,0.4-0.5c0.1-0.1,0.3-0.1,0.5-0.2
		c0.9-0.1,1.9-0.3,2.8-0.3c0.2,0,0.5,0.2,0.7,0.4c-0.1,0.2-0.2,0.6-0.4,0.6c-0.7,0.2-1.5,0.4-2.2,0.6C46.2,23.8,46.2,23.8,46.2,23.7
		z"/>
	<path d="M53.3,21.9c0.4,0.1,1,0.2,1.5,0.4c0.1,0,0.2,0.3,0.2,0.4c0,0.1-0.1,0.2-0.2,0.3c-1,0.2-2,0.3-3,0.4c-0.2,0-0.7-0.3-0.6-0.4
		c0-0.3,0.2-0.7,0.4-0.8C52.1,21.9,52.6,21.9,53.3,21.9z"/>
	<path d="M55.8,17.7c-0.5,0-1,0-1.4-0.1c-0.6-0.1-0.4-0.6-0.5-1c0-0.6,0.5-0.4,0.7-0.4c0.7,0.1,1.4,0.2,2.1,0.4
		c0.3,0.1,0.6,0.4,0.9,0.7c-0.3,0.1-0.6,0.3-0.9,0.3C56.4,17.7,56.1,17.7,55.8,17.7C55.8,17.7,55.8,17.7,55.8,17.7z"/>
	<path d="M18,25.5c-0.5,0-1.1,0-1.6,0c-0.2,0-0.4-0.3-0.4-0.5c0-0.2,0.2-0.5,0.3-0.5c1.3-0.3,2.5,0,3.7,0.4c0.1,0,0.1,0.2,0.1,0.3
		c0,0.1-0.1,0.3-0.2,0.3C19.3,25.5,18.6,25.5,18,25.5C18,25.5,18,25.5,18,25.5z"/>
	<path d="M63.1,22.1c-0.3,0.2-0.4,0.5-0.7,0.5c-0.7,0.2-1.5,0.4-2.2,0.6c-0.2,0-0.6-0.1-0.6-0.1c0-0.3,0-0.9,0.1-0.9
		c1-0.2,2-0.4,3.1-0.5C62.8,21.6,62.9,21.9,63.1,22.1z"/>
	<path d="M23.8,5.5c-0.1,0.1-0.2,0.3-0.3,0.3c-1,0.3-2,0.6-3,0.9c-0.1,0-0.4,0-0.4,0c0-0.2,0-0.4,0-0.7c0-0.1,0.1-0.2,0.2-0.3
		c1-0.4,2.1-0.8,3.2-0.6C23.6,5.2,23.7,5.4,23.8,5.5z"/>
	<path d="M16.1,23.3c-0.3,0.1-0.6,0.1-0.8,0.2c-0.6,0.3-0.7-0.1-0.9-0.5c-0.3-0.5,0-0.8,0.5-0.8c0.4,0,0.8-0.1,1.2,0
		c0.5,0.1,1,0.4,1.6,0.6C17.3,23.8,16.6,23.2,16.1,23.3z"/>
	<path d="M47.8,11.6c-0.4,0-0.9,0.1-1.2,0c-0.3-0.1-0.6-0.5-0.8-0.8c0.3-0.1,0.6-0.3,0.9-0.2c0.9,0.1,1.9,0.2,2.8,0.4
		c0.1,0,0.2,0.1,0.3,0.2c-0.1,0.1-0.2,0.4-0.3,0.4C48.8,11.5,48.3,11.6,47.8,11.6C47.8,11.6,47.8,11.6,47.8,11.6z"/>
	<path d="M50.6,14.4c0.1,0,0.5,0,0.9,0.2c0.4,0.1,0.7,0.3,1.1,0.5c-0.4,0.2-0.7,0.6-1.1,0.6c-0.6,0-1.2-0.1-1.7-0.3
		c-0.2-0.1-0.3-0.5-0.5-0.7c0.2-0.1,0.4-0.2,0.7-0.3C50,14.4,50.2,14.4,50.6,14.4z"/>
	<path d="M54.9,19.8c0.5,0,1.1,0,1.6,0c0.1,0,0.3,0.2,0.3,0.3c0,0.1-0.1,0.3-0.2,0.3c-0.9,0.2-1.7,0.4-2.6,0.5
		c-0.6,0.1-0.5-0.5-0.7-0.7c-0.3-0.3-0.2-0.4,0.1-0.4C54,19.7,54.5,19.8,54.9,19.8C54.9,19.8,54.9,19.8,54.9,19.8z"/>
	<path d="M51.9,24.4c-0.9,0.1-1.8,0.2-2.8,0.3c-0.2,0-0.4-0.1-0.6-0.2c0.1-0.2,0.2-0.4,0.3-0.7c0.3-0.5,0.7-0.7,1.3-0.4
		c0.4,0.2,0.9,0.1,1.4,0.2C51.7,23.8,51.8,24.2,51.9,24.4L51.9,24.4z"/>
	<path d="M31.2,22.6c0.5,0.1,1.4-0.2,1.4,0.6c0,0.7-0.8,0.4-1.3,0.6c-0.2,0-0.3,0.1-0.5,0.2c-0.4,0.1-0.7,0-0.8-0.4
		c-0.1-0.4-0.1-0.8,0.5-0.9C30.7,22.6,31,22.6,31.2,22.6z"/>
	<path d="M48.8,18c-0.4,0-0.6,0-0.7-0.1c-0.2-0.1-0.4-0.3-0.4-0.5c0-0.2,0.2-0.5,0.3-0.5c0.8-0.1,1.6-0.1,2.5-0.1
		c0.1,0,0.3,0.2,0.3,0.3c0,0.1-0.2,0.3-0.3,0.4C49.8,17.8,49.2,17.9,48.8,18z"/>
	<path d="M15.9,19.8c0.5,0.2,1,0.4,1.5,0.6c0.1,0,0.2,0.2,0.1,0.3c0,0.1-0.2,0.2-0.2,0.2c-0.8,0-1.7,0.1-2.5,0.1
		c-0.2,0-0.5-0.2-0.5-0.3c0-0.2,0.1-0.4,0.3-0.6c0.2-0.1,0.4-0.2,0.7-0.2C15.4,19.6,15.6,19.6,15.9,19.8z"/>
	<path d="M43.3,21.1c0.3,0.1,1.2,0.2,1.2,0.4c0,0.8-0.8,0.4-1.2,0.6c-0.4,0.2-0.9,0.2-1.4,0.2c-0.2,0-0.4-0.2-0.6-0.2
		c0.1-0.3,0.2-0.7,0.4-0.7C42.2,21.2,42.7,21.2,43.3,21.1z"/>
	<path d="M31.7,22c-0.6,0-1,0-1.3-0.1c-0.2-0.1-0.4-0.4-0.4-0.6c0-0.2,0.3-0.5,0.5-0.6c0.3-0.1,0.7,0.1,1,0.1c0.5,0,1.2,0.1,1.1,0.8
		C32.7,21.8,31.9,21.9,31.7,22z"/>
	<path d="M27.8,24.4c0.3,0.1,1-0.4,1.4,0.4c-0.5,0.2-0.9,0.4-1.4,0.5c-0.6,0.2-1.3,0.4-1.7-0.3c-0.2-0.2-0.3-0.6,0.2-0.6
		C26.6,24.4,27.1,24.4,27.8,24.4z"/>
	<path d="M21.6,24.1c-0.3,0-0.5,0-0.8,0c-0.4,0-0.9,0-0.9-0.6c0-0.5,0.4-0.5,0.8-0.5c0.3,0,0.6,0,0.9,0c0.5,0.2,0.9,0.4,1.4,0.6
		C22.7,24.5,22,23.9,21.6,24.1z"/>
	<path d="M19.4,18.4c-0.3,0-0.6,0-0.9,0c-0.1,0-0.2-0.3-0.2-0.5c0-0.2,0.1-0.5,0.2-0.5c0.3-0.1,0.7-0.1,1.1,0
		c0.6,0.1,1.1,0.4,1.6,0.6c-0.3,0.7-1,0.4-1.6,0.5C19.5,18.4,19.5,18.4,19.4,18.4z"/>
	<path d="M47.4,20.2c-0.2,0-0.5,0-0.7,0C46.4,20.1,46,20,46,19.9c0.1-0.4,0.2-0.9,0.8-0.8c0.9,0.1,1.8,0.2,2.6,0.3
		c0.1,0,0.2,0.2,0.2,0.2c0,0.1-0.1,0.2-0.2,0.2c-0.6,0.2-1.2,0.3-1.9,0.5C47.4,20.3,47.4,20.2,47.4,20.2z"/>
	<path d="M25.9,21.5c0.3,0.1,0.9,0.3,1,0.6c0.1,0.6-0.6,0.6-1,0.7c-0.3,0-0.6,0.2-0.8,0.2c-0.2,0-0.6-0.2-0.6-0.4
		c-0.1-0.2,0.1-0.6,0.3-0.7C24.9,21.6,25.3,21.6,25.9,21.5z"/>
	<path d="M32.8,25.2c-0.1,0-0.4,0-0.5-0.1c-0.1-0.2-0.1-0.5-0.1-0.7c0.1-0.1,0.4-0.2,0.6-0.2c0.8,0.1,1.7-0.4,2.4,0.2
		C35.5,24.6,34.2,25.1,32.8,25.2z"/>
	<path d="M38.9,28.4c-0.4,0-0.7,0-1-0.1c-0.1,0-0.2-0.2-0.3-0.4c0-0.1,0.1-0.2,0.2-0.3c0.9-0.3,1.8-0.6,2.7-0.3
		c0.1,0.1,0.3,0.2,0.4,0.3c-0.1,0.1-0.2,0.3-0.3,0.3C40,28.2,39.4,28.3,38.9,28.4z"/>
	<path d="M41.9,26c-0.1,0.1-0.3,0.2-0.4,0.2c-0.8,0.1-1.6,0.3-2.5,0.3c-0.2,0-0.4-0.3-0.6-0.5c0.2-0.2,0.3-0.4,0.5-0.5
		c0.9,0,1.8,0,2.7,0C41.6,25.6,41.7,25.7,41.9,26z"/>
	<path d="M22.3,11.3c-0.2-0.2-0.4-0.4-0.6-0.6c0.3-0.2,0.5-0.5,0.8-0.5c0.7,0,1.4,0.1,2.1,0.2c0.1,0,0.2,0.2,0.2,0.3
		c0,0.1-0.1,0.2-0.2,0.2C23.9,11,23.2,11.1,22.3,11.3z"/>
	<path d="M46.3,14.6c0.4,0.2,1.2,0.3,1.2,0.5c0.1,0.7-0.7,0.5-1,0.6c-0.5,0.2-1.1,0.4-1.6-0.1c-0.1-0.1-0.1-0.4,0-0.5
		C45.3,14.9,45.7,14.8,46.3,14.6z"/>
	<path d="M21,20.2c-0.4,0-0.6,0-0.7-0.1c-0.2-0.1-0.4-0.3-0.3-0.5c0-0.2,0.3-0.5,0.4-0.5c0.8,0.1,1.6,0.2,2.5,0.3
		c0,0,0.1,0.1,0.1,0.1c0,0.1-0.1,0.2-0.2,0.2C22.1,20,21.4,20.1,21,20.2z"/>
	<path d="M42.6,28c-0.4,0-0.7-0.1-0.7-0.6c0-0.2,0.3-0.4,0.4-0.5c0.7-0.1,1.5-0.2,2.3-0.3c0.1,0,0.3,0.2,0.4,0.3
		c-0.1,0.1-0.2,0.3-0.3,0.4C44,27.5,43.3,27.8,42.6,28L42.6,28z"/>
	<path d="M29.3,27c-0.4,0-0.7,0-0.9,0c-0.2,0-0.8,0-0.2-0.4c0.3-0.2-0.6-0.8,0.2-0.7c0.7,0.1,1.4,0.3,2.1,0.5c0.1,0,0.1,0.2,0.1,0.3
		c0,0.1-0.1,0.2-0.2,0.3C30,26.9,29.5,27,29.3,27z"/>
	<path d="M18.3,15.9c-0.1-0.1-0.4-0.3-0.6-0.5c0.2-0.2,0.4-0.4,0.6-0.6c0,0,0.1,0,0.2,0c0.5,0.1,1.2-0.3,1.6,0.4
		C20.3,15.4,19.4,15.9,18.3,15.9z"/>
	<path d="M30.1,28.2c0,0,0.3,0,0.6,0.1c0.2,0.1,0.3,0.2,0.5,0.3c-0.2,0.2-0.3,0.4-0.5,0.5c-0.4,0.2-0.8,0.3-1.2,0.3
		c-0.6,0.1-0.7-0.2-0.7-0.7c0-0.5,0.3-0.6,0.7-0.5C29.6,28.3,29.8,28.2,30.1,28.2z"/>
	<path d="M53.5,12.6c0.4,0,0.7,0,1.1,0c0.1,0,0.3,0.1,0.4,0.2c-0.1,0.1-0.2,0.2-0.3,0.2c-0.9,0.5-1.8,0.4-2.8,0.3
		c-0.1,0-0.3-0.3-0.2-0.4c0-0.1,0.2-0.3,0.4-0.3C52.5,12.6,53,12.6,53.5,12.6z"/>
	<path d="M31.1,7.5c-0.3-0.2-0.6-0.4-0.6-0.5c0-0.2,0.2-0.4,0.4-0.6c0.1-0.1,0.2-0.1,0.3-0.1c0.6,0.1,1.1-0.6,1.6,0
		C33,6.2,33,6.5,33,6.5C32.4,6.8,31.7,7.1,31.1,7.5z"/>
	<path d="M26.4,3.4c-0.8,0.4-1.6,0.7-2.4,1c-0.2,0.1-0.5-0.3-0.7-0.4c0.2-0.2,0.3-0.6,0.5-0.6C24.7,3.3,25.5,3.3,26.4,3.4L26.4,3.4z
		"/>
	<path d="M19.4,9.1c-0.1,0.1-0.1,0.2-0.2,0.3c-0.6,0.2-1.1,0.3-1.7,0.4c-0.1,0-0.4-0.2-0.5-0.4c0-0.2,0.1-0.6,0.2-0.6
		c0.7,0,1.4,0,2,0C19.3,8.8,19.4,9,19.4,9.1z"/>
	<path d="M17,11.9c0.4,0,0.8,0.1,1.1,0.1c0,0,0,0.4,0,0.4c-0.7,0.2-1.5,0.4-2.2,0.6c-0.1,0-0.3-0.2-0.3-0.3c0-0.2,0.1-0.5,0.2-0.6
		C16.2,11.9,16.6,11.9,17,11.9z"/>
	<path d="M17.7,27.7c-0.3,0-0.5,0-0.7,0c-0.4,0-0.7-0.1-0.7-0.6c0-0.5,0.4-0.5,0.8-0.4c0.5,0.1,0.9,0.1,1.4,0.2
		c0.2,0,0.3,0.2,0.5,0.3c-0.2,0.1-0.3,0.3-0.5,0.4C18.2,27.7,17.9,27.6,17.7,27.7z"/>
	<path d="M21.7,22.1c-0.4-0.1-0.9-0.3-1.4-0.4c0.3-0.8,1-0.4,1.5-0.5c0.5,0,1,0.2,1.5,0.3C23.1,22.4,22.3,21.8,21.7,22.1z"/>
	<path d="M52.6,19.1c-0.2-0.1-0.6-0.2-0.9-0.4c-0.1,0,0-0.4,0.1-0.5c0.4-0.1,0.9-0.1,1.3-0.1c0.3,0,0.6,0.1,0.8,0.2
		c0.1,0,0.2,0.2,0.2,0.3c-0.1,0.1-0.2,0.3-0.3,0.4C53.4,19.1,53.1,19.1,52.6,19.1z"/>
	<path d="M33,28.7c-0.1-0.1-0.3-0.2-0.5-0.4c0.2-0.2,0.3-0.3,0.5-0.5c0.1-0.1,0.3-0.2,0.5-0.2c0.6,0,1.5-0.3,1.6,0.4
		c0.1,0.5-0.9,0.5-1.3,0.7C33.6,28.8,33.4,28.7,33,28.7z"/>
	<path d="M33.5,4c0.3,0,0.6,0,0.9,0c0.1,0,0.3,0.1,0.4,0.2c-0.1,0.1-0.2,0.3-0.3,0.4c-0.4,0.2-0.8,0.3-1.2,0.5
		c-0.3,0.1-0.7,0.2-0.8,0.1c-0.2-0.2-0.3-0.6-0.2-0.8c0.1-0.2,0.5-0.2,0.8-0.3C33.3,4,33.4,4,33.5,4C33.5,4,33.5,4,33.5,4z"/>
	<path d="M9.4,22.9c0.5,0,0.8,0,1.1,0.1c0.1,0,0.2,0.2,0.3,0.4c0,0.1-0.1,0.2-0.2,0.3c-0.3,0.2-0.7,0.3-1,0.4
		c-0.3,0-0.6-0.1-0.8-0.3c-0.1-0.2-0.2-0.6,0-0.8C8.9,22.9,9.3,22.9,9.4,22.9z"/>
	<path d="M34.4,25.8c0.4,0,0.7,0,1.1,0c0.2,0,0.3,0.1,0.4,0.2c-0.1,0.1-0.2,0.3-0.4,0.3c-0.5,0.1-1,0.3-1.6,0.2
		c-0.4,0-0.8-0.3-1.3-0.4c0.2-0.6,0.8-0.3,1.2-0.4C34,25.8,34.2,25.8,34.4,25.8C34.4,25.8,34.4,25.8,34.4,25.8z"/>
	<path d="M25.3,28.6c-0.5-0.2-1-0.3-1.3-0.6c-0.2-0.2,0.6-0.7,1.2-0.6c0.4,0.1,0.9,0.3,1.3,0.4C26.1,28.1,25.7,28.3,25.3,28.6z"/>
	<path d="M52.9,9.3c1,0.5,2.1,1,3.1,1.6c0,0,0.1,0.1,0.1,0.1c-0.1,0.1-0.2,0.2-0.2,0.2c-1-0.5-2.1-1-3.1-1.5c0,0,0-0.2,0-0.3
		C52.8,9.3,52.9,9.3,52.9,9.3z"/>
	<path d="M23.2,26.2c0.2,0,0.3,0,0.5,0c0.1,0,0.3,0.1,0.3,0.2c0,0.2-0.1,0.4-0.2,0.4c-0.5,0.1-1,0.2-1.5,0.3c-0.3,0-0.7,0.4-0.8-0.2
		c0-0.2,0.4-0.5,0.7-0.6C22.5,26.1,22.8,26.2,23.2,26.2z"/>
	<path d="M51,12c0,0-0.3,0-0.5,0c-0.2,0-0.4,0-0.6,0c0.1-0.2,0.3-0.6,0.5-0.7c0.4-0.1,0.8-0.2,1.2-0.1c0.4,0.1,0.8,0.3,1.2,0.5
		c-0.4,0.1-0.8,0.2-1.2,0.3C51.4,12,51.3,12,51,12z"/>
	<path d="M20.3,13.3c0.3,0.1,1-0.6,1.1,0.2c0.1,0.7-0.7,0.6-1.2,0.6c-0.3,0-0.6,0-0.9,0c-0.2,0-0.3-0.2-0.5-0.4
		c0.2-0.1,0.3-0.3,0.5-0.4C19.7,13.3,20,13.3,20.3,13.3z"/>
	<path d="M7.8,17.2c0.1,0.1,0.3,0.2,0.4,0.3c-0.3,0.5-0.7,0.9-1,1.4c-0.2-0.3-0.5-0.7-0.5-1C6.5,17.2,7.2,17.3,7.8,17.2z"/>
	<path d="M24.5,16.4c-0.4,0.2-0.9,0.4-1.4,0.5c-0.2,0-0.4-0.1-0.6-0.2c-0.1,0-0.1-0.3-0.1-0.3c0.2-0.2,0.5-0.5,0.8-0.5
		c0.4,0,0.9,0.1,1.3,0.2C24.5,16.1,24.5,16.2,24.5,16.4z"/>
	<path d="M21.1,27.6c0.2,0,0.4,0,0.5,0.1c0.1,0.1,0.3,0.2,0.4,0.3c0,0.1-0.1,0.3-0.2,0.4c-0.4,0.1-0.8,0.3-1.2,0.3
		c-0.2,0-0.4-0.3-0.6-0.4c0.2-0.2,0.3-0.5,0.5-0.6C20.6,27.6,20.8,27.6,21.1,27.6z"/>
	<path d="M28.6,5.1c0.3,0,0.7,0,1,0.1c0.1,0,0.1,0.1,0.1,0.1c0,0.1,0,0.2-0.1,0.3c-0.7,0.2-1.3,0.4-2,0.5c-0.1,0-0.3-0.3-0.3-0.5
		c0-0.1,0.2-0.3,0.4-0.4C28,5.1,28.3,5.1,28.6,5.1C28.6,5.1,28.6,5.1,28.6,5.1z"/>
	<path d="M25.8,6.8c0.3,0.1,0.5,0.1,0.7,0.2c0.1,0,0.2,0.2,0.2,0.3c0,0.1,0,0.3-0.1,0.3C26,7.7,25.5,7.9,25,8
		c-0.1,0-0.3-0.2-0.4-0.3c0-0.1,0-0.4,0.1-0.4C25.1,7.1,25.5,6.9,25.8,6.8z"/>
	<path d="M15.9,19.8c-0.2,0-0.5,0-0.7,0c0.2-1.1,0.2-1.1,1.1-0.9c0.3,0.1,0.6,0.1,0.8,0.2c0.1,0,0.2,0.2,0.3,0.3
		c-0.1,0.1-0.2,0.1-0.3,0.2C16.7,19.6,16.3,19.7,15.9,19.8z"/>
	<path d="M24,13c-0.4,0-0.6,0-0.7,0c-0.2-0.1-0.3-0.3-0.5-0.4c0.1-0.1,0.2-0.3,0.3-0.3c0.2-0.1,0.4-0.1,0.5-0.1
		c0.3,0.1,0.7,0.2,1,0.3C24.4,12.8,24.1,13,24,13z"/>
	<path d="M9.7,20.7c0.2,0.3,0.3,0.5,0.4,0.7c-0.3,0.2-0.6,0.4-1,0.6c-0.1,0-0.3-0.3-0.4-0.4C9,21.2,9.3,21,9.7,20.7z"/>
	<path d="M10,20.7c-0.2-0.3-0.3-0.4-0.4-0.6c0.2-0.1,0.5-0.3,0.7-0.3c0.1,0,0.3,0.1,0.4,0.2C10.5,20.2,10.3,20.4,10,20.7z"/>
	<path d="M14.5,17.3c-0.5,0.1-0.8,0.2-1.1,0.3c-0.1,0-0.2-0.2-0.2-0.4c0.3-0.1,0.6-0.2,0.9-0.3C14.1,16.9,14.2,17.1,14.5,17.3z"/>
</g>
</svg>
