<?xml version="1.0" encoding="iso-8859-1"?>
<!-- Generator: Adobe Illustrator 25.3.0, SVG Export Plug-In . SVG Version: 6.00 Build 0)  -->
<svg version="1.1" id="Calque_1" xmlns="http://www.w3.org/2000/svg" xmlns:xlink="http://www.w3.org/1999/xlink" x="0px" y="0px"
	 viewBox="0 0 65.3 49.9" style="enable-background:new 0 0 65.3 49.9;" xml:space="preserve">
<g>
	<path d="M51.3,31.2c0.3,1.9-0.6,3.6-1.5,5.3c-0.8,1.3-1.4,2.7-2.2,4c-1.2,1.9-2.6,3.5-4.3,5c-1.1,0.9-1.1,0.9-2.3,0.2
		c-0.3-0.2-0.7-0.3-0.9-0.5c-0.6-0.5-1.1-0.1-1.6,0.2c-0.1,0.1-0.2,0.2-0.2,0.3c0.1,0.1,0.2,0.2,0.4,0.2c1.7-0.2,2.9,0.9,4.2,1.8
		c0.8,0.5,0.8,1.1-0.1,1.7c-0.2,0.2-0.5,0.4-0.8,0.4c-2,0.3-4,0.7-5.9-0.5c-0.1,0-0.1-0.1-0.1-0.1c-1.9-1.9-4.3-1.8-6.8-1.6
		c-2.1,0.1-4.1-0.4-5.7-1.7c-1.8-1.4-3.9-2.3-5.7-3.7c-0.8-0.7-1.7-1.2-2.6-1.8c-0.3-0.2-0.6-0.3-1-0.4c-1.3-0.4-2.3-1-2.7-2.5
		c-0.1-0.3-0.3-0.6-0.5-0.9c-1.6-2.1-3.2-4.3-4.8-6.4c-1.2-1.6-2.3-3.1-3.6-4.7c-0.5-0.7-1-1.6-2.2-1.2c-0.1,0-0.4-0.4-0.4-0.5
		c0.1-0.6,0.2-1.1,0.5-1.7c0.3-0.5,0.3-1,0.4-1.5c0.1-0.5,0.5-1,0.7-1.6c1.6-4.4,4.7-7.7,8.1-10.7c1.4-1.2,3.2-2,5.2-2.2
		c1.5-0.1,3-0.6,4.5-1c0.3-0.1,0.7-0.4,0.8-0.8c0.8-2,2.4-2.9,4.3-3.6C26,0.1,27.5,0,29,0c0.6,0,1.2,0.3,1.8,0.4
		c2.7,0.5,5.1,1.5,7.4,3c1.8,1.2,3.7,2.2,5.4,3.5c1.9,1.5,3.8,3.1,5.2,5.1c1.1,1.5,2.1,2.9,2.3,4.7c0.1,0.9,0.1,1.9,0.1,2.8
		c0,0.2-0.1,0.4-0.1,0.5c-0.2,0.3-0.4,0.5-0.6,0.8c0.6,0.2,1.3,0.7,1.8,0.6c1.9-0.4,3.8-1,5.7-1.5c1.9-0.5,3.7-1.5,5.7-1.8
		c1.2-0.2,1.8,0.2,1.6,1.3c-0.1,0.7-0.3,1.5-0.6,2.2c-0.7,1.4-1.4,2.7-2.3,4c-0.3,0.5-0.4,1-0.2,1.5c0.5,1.6,1,3.3,1.4,4.9
		c0.1,0.2,0.2,0.4,0.2,0.7c0.1,1-0.6,1.6-1.6,1.3c-0.3-0.1-0.7-0.3-0.9-0.5c-1.9-1.5-4-2.8-6-4c-1.4-0.8-2.9-1.2-4.5-1.4
		c-0.4-0.1-0.8,0-1.2,0.1c-0.2,0-0.4,0.2-0.6,0.4c0.2,0,0.4,0.1,0.6,0.1c0.2,0,0.4-0.2,0.7-0.2c0.7-0.1,1,0.1,1,0.8
		C51.3,29.8,51.3,30.5,51.3,31.2z"/>
	<path d="M19.9,18.3c-0.1-0.2-0.4-0.5-0.3-0.7c0.1-0.4,0.4-0.8,0.7-1.2c0,0,0.2,0,0.3,0c0.1,0.1,0.1,0.2,0.1,0.3
		c-0.1,0.4-0.2,0.8-0.3,1.2C20.2,18,20,18.2,19.9,18.3z"/>
	<path d="M11.8,24.1c-4.2,0-7.6-4.1-6.7-8.2c0.3-1.1,1-2.1,2.1-2.8c3.6-2.3,8.7,0.5,9.2,4.1c0.1,1.2,0.4,2.3,0,3.5
		C15.6,23.1,14.4,24.1,11.8,24.1z"/>
	<path d="M18.8,23c-0.1-2.5-0.2-4.4-1.3-6.2c0-0.1-0.1-0.1-0.1-0.2c0-0.2,0.1-0.4,0.1-0.7c0.2,0.1,0.5,0.1,0.5,0.3
		c0.3,0.5,0.6,0.9,0.7,1.4c0.7,2.3,1.1,4.6,0.5,7c-0.3,1.2-0.4,2.5-0.4,3.7c-0.1,2.6-1.1,4.9-2.1,7.3c-0.1,0.2-0.2,0.5-0.4,0.6
		c-0.1,0.1-0.4,0.1-0.6,0.2c0-0.2-0.1-0.3-0.1-0.5c0.2-0.4,0.4-0.7,0.6-1.1c0.4-0.8,0.6-1.6,0.3-2.5c-0.5-1.5-0.6-3-0.1-4.5
		c0.1-0.3,0.1-0.7,0.1-1.1c0.1-1.9,0.2-3.8,0.3-5.7c0-0.1,0.2-0.3,0.2-0.4c0.1,0.1,0.3,0.3,0.3,0.4c0.1,0.9,0.3,1.9,0.2,2.8
		c-0.4,2.7-0.7,5.4-0.6,8.1c0,0.1,0.1,0.3,0.1,0.4c0.1-0.2,0.1-0.3,0.2-0.5c0.5-2.1,1.1-4.1,1.1-6.3C18.5,24.6,18.8,23.5,18.8,23z"
		/>
	<path d="M13,10.9c-1.7,0.5-2.2,0.4-2.6-0.8c-0.1-0.2-0.1-0.4,0-0.5c0.3-0.6,2.3-1.1,2.9-0.7c1.4,1,2.8,2,4.2,3
		c0.7,0.5,0.7,0.9,0.1,1.6c-0.1,0.1-0.1,0.3-0.1,0.5c0,0,0,0,0,0c-0.1,0.2-0.2,0.4-0.4,0.6c-0.2,0.1-0.4,0.2-0.6,0.3
		c0-0.2-0.1-0.3-0.1-0.5c0.1-0.3,0.2-0.7,0.3-1c0.1-0.5,0.2-0.9-0.5-1.3c-1-0.5-1.9-1.4-2.8-2.1c-0.3-0.2-0.7-0.5-0.9-0.4
		c-0.3,0.1-0.6,0.5-0.9,0.7c0.3,0,0.6,0.1,0.8,0c0.5-0.2,0.8-0.1,0.9,0.4C13.1,10.8,13.1,10.8,13,10.9z"/>
	<path d="M13.2,10.7c0.9,0.7,1.8,1.4,2.7,2.1c0.1,0.1,0.1,0.3,0,0.5c0,0.1-0.3,0.2-0.4,0.1c-1.1-0.7-2.1-1.3-2.5-2.6
		C13.1,10.8,13.1,10.8,13.2,10.7z"/>
	<path d="M21.9,25c-0.2,0-0.5,0.2-0.7,0.1c-0.2-0.1-0.5-0.4-0.5-0.6c0-0.4,0.3-0.3,0.6-0.2c0.5,0.1,0.9,0.1,1.4,0.2
		c0.1,0,0.2,0.2,0.4,0.3c-0.1,0.1-0.2,0.2-0.4,0.2C22.5,25,22.2,25,21.9,25C21.9,25,21.9,25,21.9,25z"/>
	<path d="M19.3,32.2c0.2,0.5,0.4,0.9,0.5,1.3c0,0-0.2,0.2-0.2,0.2c-0.4,0.1-0.8-0.5-0.7-0.9C18.9,32.6,19.1,32.5,19.3,32.2z"/>
	<path d="M22,26.1c-0.4,0.3-0.7,0.5-1,0.8c-0.1-0.2-0.3-0.4-0.3-0.5c0.1-0.6,0.6-0.4,0.9-0.4C21.7,25.8,21.8,26,22,26.1z"/>
	<path d="M20.4,28c0.4,0.4,0.6,0.7,0.8,1c0,0.1-0.1,0.4-0.2,0.4c-0.5,0.1-0.7-0.3-0.8-0.7C20.3,28.5,20.4,28.3,20.4,28z"/>
	<path d="M20.6,30c-0.4,0.4-0.5,0.6-0.6,0.7c-0.1-0.2-0.4-0.4-0.4-0.6c0-0.1,0.2-0.4,0.3-0.5C20,29.7,20.3,29.9,20.6,30z"/>
	<path d="M3.8,19.7c-0.2,0.2-0.4,0.4-0.5,0.3c-0.2-0.1-0.4-0.3-0.5-0.5c0,0,0.3-0.3,0.3-0.3C3.4,19.3,3.6,19.5,3.8,19.7z"/>
	<path d="M18.9,36.1c-0.2-0.4-0.4-0.6-0.4-0.7c0-0.1,0.1-0.3,0.2-0.4c0.2,0.1,0.4,0.2,0.5,0.4C19.2,35.4,19.1,35.6,18.9,36.1z"/>
	<path d="M10.3,15.8c1.4,0,2.7,1.1,2.9,2.2c0.2,1.2-0.6,2.2-1.8,2.7C10.2,21.2,8.3,20,8,19c-0.4-1.4,0.2-2,1.7-1.6
		c0.2,0,0.4,0,0.7,0.1c-0.1-0.2-0.3-0.3-0.4-0.5c-0.1-0.3-0.2-0.6-0.3-0.9C9.9,15.9,10.1,15.8,10.3,15.8z"/>
</g>
</svg>
