<?xml version="1.0" encoding="iso-8859-1"?>
<!-- Generator: Adobe Illustrator 25.3.0, SVG Export Plug-In . SVG Version: 6.00 Build 0)  -->
<svg version="1.1" id="Calque_1" xmlns="http://www.w3.org/2000/svg" xmlns:xlink="http://www.w3.org/1999/xlink" x="0px" y="0px"
	 viewBox="0 0 78.9 32.8" style="enable-background:new 0 0 78.9 32.8;" xml:space="preserve">
<g>
	<path d="M31.4,32.7c-3.9,0-7.5-1.2-10.8-3.2c-1.1-0.7-2.2-1-3.5-1.2c-2.1-0.2-4.1-0.7-5.9-1.9c-1.2-0.9-2.5-1.6-4.1-1.6
		c-0.6,0-0.9,0.2-0.6,0.8c0.2,0.4,0.2,0.8,0.3,1.2c0.3,0.7,0.7,1.2,1.6,1.1c0.7-0.1,1.4,0,2.2,0c0.3,0,0.6,0.1,0.9,0.2
		c-0.3,0.1-0.5,0.2-0.8,0.2c-0.7,0-1.3,0-2,0.1c-0.5,0-0.6,0.3-0.3,0.7c0.3,0.4,0.6,0.7,0.9,1c0.9,0.8,1.9,1.4,2.9,2
		c0.1,0.1,0.2,0.2,0.3,0.4c-0.2,0-0.4,0.2-0.5,0.1c-1.1-0.7-2.4-0.5-3.6-0.7c-1.2-0.2-2.3-0.7-3.2-1.4c-0.3-0.2-0.8-0.5-0.8,0.3
		c0,0-0.3,0.1-0.3,0c-0.2-0.2-0.3-0.5-0.4-0.8c-0.2-0.4-0.4-0.8-0.8-0.2c0,0-0.4-0.1-0.4-0.2c-0.3-0.6-0.8-1-1.4-1.3
		c-1.4-0.9-1.6-2.1-0.7-3.4c0.5-0.7,1-1.4,1.8-1.9c0.8-0.5,1.4-1.3,1.4-2.3c0-1.3,0.9-1.9,1.8-2.4c0.9-0.6,1.9-1,2.8-1.5
		c0.9-0.6,1.8-0.9,2.7-0.6c0.7,0.2,1.2,0.1,1.9-0.1c0.7-0.2,1.5-0.3,2.3-0.5c2.4-0.5,4.7-1.5,7.2-1.7c0.2,0,0.4-0.1,0.5-0.2
		c0.7-0.8,1.7-1.6,2.2-2.5c1.4-2.6,3.2-5,5.2-7.2c1.2-1.4,2.8-2.5,4.3-3.7C34.8,0.2,35.4,0,35.4,0c0.3,0.4,0.6,0.9,0.6,1.3
		c-0.1,0.6-0.4,1.1,0.4,1.4c0.1,0,0.2,0.2,0.2,0.3c-0.7,1,0.5,1.9,0.3,2.8C36.9,6,37,6.2,37,6.4c0.6,1.2,0.8,2.5,0.4,3.8
		c-0.1,0.3-0.1,0.7-0.2,1c-0.2,1.2-0.5,1.4-1.6,1.5c-1.5,0.2-2.9,0.6-4.2,1.3c-0.1,0.1-0.2,0.1-0.3,0.2c0.1,0.1,0.3,0.1,0.4,0.2
		c0.6,0.1,1.2,0.4,1.7,0.3c1.9-0.2,3.8,0.2,5.6,0.5c3,0.4,5.9,0.9,9,1c1,0,2-0.1,2.9-0.6c0.8-0.4,1.7-0.6,2.5-0.8
		c0.3-0.1,0.8,0.2,1.1,0.4c0.1,0.1,0,0.7-0.2,0.9c-0.4,0.6-0.2,0.6,0.4,0.6c1.7,0,3.4,0.1,5.1,0.1c0.4,0,0.8-0.3,1-0.6
		c0.8-0.9,1.8-1.2,2.8-1.5c2.7-0.7,5.4-1.3,8.1-2c0.7-0.2,1.4-0.2,2.1,0c1,0.3,2,0.4,2.9,0.7c1.5,0.4,2.3,1.5,2.2,3.1
		c-0.1,2-0.1,4-0.5,6c-0.1,0.4,0.2,0.8,0.2,1.2c0.3,1.7-1.1,3.4-2.8,3.5c-1.3,0.1-2.5,0.3-3.8,0.3c-1.5,0-3-0.3-4.4-0.4
		c-2.1-0.2-3.6-1.5-5.2-2.5c-1.1-0.8-2.3-1.5-3.7-1.6c-0.6,0-0.8-0.1-0.4,0.7c0.9,2-0.1,4.7-1.9,5.9c-0.9,0.6-1.8,0.5-2.7,0.4
		c-1.3,0-2.7-0.2-3.7-1.1c-0.8-0.7-1.3-1.5-2-2.3c-0.2-0.2-0.3-0.5-0.5-0.7c-0.4-0.5-0.8-0.7-1.5-0.4c-1,0.5-2,0.7-3.1,0.7
		c-0.9,0-1.9,0.2-2.8,0.4c-0.1,0-0.2,0.1-0.2,0.2c0,0.1,0.1,0.2,0.2,0.3c0.8,0.5,1.7,0.9,2.4,1.5c1.3,1.1,1.2,1.7-0.2,2.8
		c-1.2,0.9-2.5,1.3-4,1.3c-0.3,0-0.7-0.2-0.9-0.4c-1.1-1.1-2.2-2.2-3.3-3.3c-0.4-0.4-0.8-0.5-1.4-0.4c-0.9,0.2-1.9,0.3-2.8,0.4
		c-0.2,0-0.3,0.1-0.5,0.2c0.1,0.2,0.1,0.5,0.3,0.6c0.9,0.5,1.6,1.4,2.8,1.4c0.3,0,0.7,0.2,1,0.3c0.1,0.1,0.4,0.3,0.3,0.4
		c-0.1,0.2-0.2,0.5-0.4,0.5C32.9,32.6,32.2,32.7,31.4,32.7z"/>
	<path d="M14.2,23.1c-0.5,0.2-1,0.4-1.4,0.6c0-0.1-0.1-0.3-0.1-0.3c0.4-0.2,0.8-0.5,1.2-0.7C13.9,22.7,14,22.8,14.2,23.1z"/>
	<path d="M27.4,16.6c-0.2,0.2-0.5,0.4-0.8,0.6c0,0-0.2-0.1-0.3-0.1c0.2-0.2,0.4-0.5,0.7-0.7c0.1-0.1,0.2-0.1,0.3,0
		C27.4,16.3,27.3,16.5,27.4,16.6z"/>
</g>
</svg>
