<svg xmlns="http://www.w3.org/2000/svg" viewBox="0 0 800 443" width="800" height="443">
  <g transform="scale(0.6666666666666666, 0.6661654135338346)">
    <path d="M 557.555 64.250 C 553.585 68.237, 547.703 75.100, 544.485 79.500 C 541.267 83.900, 536.933 89.457, 534.853 91.850 C 532.774 94.242, 526.999 102.117, 522.021 109.350 C 517.043 116.582, 511.249 124.975, 509.145 128 C 507.042 131.025, 503.055 137.100, 500.285 141.500 C 497.515 145.900, 491.541 155.284, 487.010 162.352 C 482.478 169.421, 476.790 178.929, 474.368 183.482 L 469.965 191.759 438.732 192.260 C 403.590 192.823, 393.250 193.896, 363 200.119 C 352.275 202.326, 336.975 205.469, 329 207.104 C 321.025 208.738, 311.640 210.959, 308.145 212.038 C 304.649 213.117, 300.374 213.992, 298.645 213.983 C 295.344 213.965, 289.131 215.760, 262 224.571 C 252.925 227.518, 242.125 230.824, 238 231.918 C 219.167 236.910, 207.818 240.385, 199.500 243.706 C 184.271 249.784, 150.189 266.242, 136.451 274.152 C 129.274 278.284, 121.878 282.196, 120.016 282.845 C 118.153 283.494, 115.926 284.641, 115.065 285.394 C 112.688 287.474, 88.970 297.243, 72.417 302.961 C 64.315 305.760, 54.952 309.501, 51.609 311.275 C 44.543 315.024, 34.142 324.884, 31.696 330.151 C 29.528 334.820, 29.426 348.377, 31.500 356.339 C 32.325 359.506, 33 364.790, 33 368.081 C 33 378.842, 36.559 384.284, 51.418 396.243 C 63.592 406.042, 71.555 411.292, 77.816 413.647 C 80.760 414.754, 86.586 418.974, 93.500 425.008 C 106.327 436.201, 116.427 444.376, 127.250 452.323 C 131.512 455.453, 135 458.452, 135 458.987 C 135 460.354, 144.704 465.793, 149.490 467.109 C 151.684 467.713, 156.634 470.121, 160.490 472.461 C 169.468 477.909, 175.766 481.073, 184.500 484.521 C 188.350 486.041, 198.475 490.618, 207 494.692 C 215.525 498.765, 224.525 502.543, 227 503.086 C 229.475 503.629, 234.650 505.372, 238.500 506.960 C 246.495 510.256, 260.089 514, 264.061 514 C 265.538 514, 268.715 514.862, 271.123 515.916 C 275.746 517.939, 297.758 521.527, 327.571 525.117 C 342.712 526.940, 350.104 527.245, 375.100 527.076 L 404.699 526.876 405.933 536.188 C 408.179 553.147, 415.173 576.077, 423.453 593.629 C 431.765 611.251, 438.784 614.676, 452.548 607.827 C 464.981 601.639, 473.081 594.260, 477.769 584.852 C 483.873 572.600, 490 545.263, 490 530.281 L 490 524.300 501.750 523.599 C 508.212 523.214, 515.300 522.500, 517.500 522.014 C 532.305 518.739, 557.596 513.858, 564.859 512.873 C 569.612 512.228, 574.687 511.108, 576.138 510.383 C 587.516 504.697, 597.236 502.601, 614 502.217 L 630.500 501.840 639.763 512.285 C 651.598 525.631, 665.863 539.431, 674.070 545.472 C 682.259 551.501, 684.497 551.341, 700.658 543.577 C 728.005 530.437, 750.761 515.910, 777.500 494.524 C 794.724 480.749, 811.913 467.961, 822.500 461.048 C 830.755 455.657, 867.109 437, 869.357 437 C 870.054 437, 872.487 436.100, 874.764 435 C 877.041 433.900, 879.398 433, 880.003 433 C 880.607 433, 890.191 429.978, 901.301 426.284 L 921.500 419.567 939 419.222 C 959.024 418.828, 953.936 417.263, 981 432.139 C 989.525 436.825, 1001.675 444.044, 1008 448.181 C 1038.822 468.340, 1098.012 498.089, 1127.853 508.420 C 1142.925 513.638, 1159.313 514.544, 1163.468 510.389 C 1169.741 504.116, 1159.600 471.866, 1144.879 451.271 C 1131.270 432.231, 1128.195 428.171, 1120.075 418.517 C 1105.625 401.336, 1092.321 387.494, 1086.293 383.366 L 1080.500 379.398 1080.222 365.166 L 1079.945 350.934 1095.351 335.717 C 1117.714 313.629, 1128.536 298.702, 1143.508 269.296 C 1155.156 246.416, 1156.199 242.045, 1151.200 237.046 C 1148.538 234.384, 1147.455 234, 1142.612 234 C 1127.422 234, 1095.604 244.035, 1070.556 256.726 C 1067.836 258.103, 1063.336 260.027, 1060.556 261.001 C 1050.376 264.565, 1039.436 269.198, 1025.097 276.020 C 1017.026 279.859, 1009.662 283, 1008.733 283 C 1007.804 283, 1004.672 284.108, 1001.772 285.463 C 975.934 297.531, 969.864 299.526, 951.500 301.981 C 919.912 306.203, 897.101 304.600, 870 296.252 C 863.675 294.304, 853.325 291.255, 847 289.477 C 840.675 287.699, 834.241 285.742, 832.701 285.128 C 831.162 284.515, 827.562 283.595, 824.701 283.085 C 821.841 282.574, 813.084 279.882, 805.242 277.103 C 786.853 270.585, 746.004 259.214, 728.500 255.741 C 725.750 255.195, 717.541 253.020, 710.257 250.907 C 702.974 248.794, 692.288 246.038, 686.510 244.783 L 676.006 242.500 676.003 228.095 L 676 213.690 716.750 214.320 C 790.713 215.463, 818.579 217.773, 869.625 226.993 C 893.186 231.249, 896 231.009, 896 224.745 C 896 222.269, 895.303 221.574, 890.750 219.513 C 884.875 216.854, 872.140 214, 866.152 214 C 863.990 214, 857.810 213.093, 852.420 211.983 C 847.029 210.874, 836.517 209.290, 829.060 208.463 C 821.602 207.635, 811.225 206.303, 806 205.501 C 782.749 201.936, 697.105 198.809, 678.713 200.854 C 672.627 201.531, 656.575 202.360, 643.044 202.696 L 618.441 203.307 614.302 198.605 C 607.863 191.290, 602.921 179.946, 592.037 147.500 C 581.853 117.141, 579.951 109.547, 578.008 91.500 C 577.415 86, 576.286 78.125, 575.497 74 C 574.708 69.875, 573.796 64.362, 573.470 61.750 L 572.877 57 568.826 57 C 565.127 57, 564.146 57.631, 557.555 64.250" stroke="none" fill="black" fill-rule="evenodd"/>
  </g>
</svg>