<?xml version="1.0" encoding="iso-8859-1"?>
<!-- Generator: Adobe Illustrator 25.3.0, SVG Export Plug-In . SVG Version: 6.00 Build 0)  -->
<svg version="1.1" id="Calque_1" xmlns="http://www.w3.org/2000/svg" xmlns:xlink="http://www.w3.org/1999/xlink" x="0px" y="0px"
	 viewBox="0 0 74.7 38" style="enable-background:new 0 0 74.7 38;" xml:space="preserve">
<g>
	<path d="M14.6,9.5c1.1,0,2.3,0,3.4,0c1,0,1.1-0.1,0.8-1c-0.3-1-0.3-2,0-3c0.3-0.7,0.5-0.8,0.9-0.2c0.5,0.7,1.1,0.7,1.7,0.4
		c1-0.5,1.9-1.2,2.9-1.7C24.6,4,24.8,3.9,24.9,4C25,4,25.2,4.3,25.1,4.4C24.9,5,24.6,5.7,25.2,6c0.6,0.3,1.4,0.3,2.2,0.5
		c0.2,0.1,0.5,0.1,0.7,0.2c0.1,0.1-0.1,0.4-0.2,0.6c-0.3,0.5-0.8,0.9-1.1,1.4c-0.1,0.2-0.1,0.8,0.1,0.9c0.3,0.2,0.8,0.2,1.2,0.1
		c0.2,0,0.4-0.4,0.4-0.7c0.2-2.6,0.5-5.3,0.7-7.9c0-0.2,0-0.5,0-0.7c0.1-0.5,0.4-0.6,0.9-0.4c0.4,0.2,0.8,0.6,1,0.5
		C31.9,0.2,32.5,0.5,33,1c0,0,0.1,0.1,0.1,0.1c0.4-0.1,0.9-0.4,1.2-0.3C34.8,1,35,1.6,35.6,1.3c0.6-0.3,1-0.3,1.6,0.2
		c0.6,0.6,0.9-0.7,1.5-0.4c0.4,0.2,0.4,1.1,1.2,0.8c0.7-0.3,1.3-0.6,1.9,0.1c0.1,0.1,0.4,0,0.7-0.1c0.2,0,0.6-0.2,0.6-0.1
		c0.7,0.7,1.4,0.8,2.3,0.3c0.1-0.1,0.4,0.2,0.6,0.3c0.3,0.1,0.6,0.4,0.8,0.3C48.2,2,49.6,3,51.1,3.1c1.4,0,2.7,0.3,3.9,1
		c0.4,0.2,1,0.2,1.5,0.1c0.9-0.2,1.7,1,2.6,0.3c0.1,0.2,0.3,0.5,0.2,0.7c-0.8,1.1-1.6,2.2-2.4,3.3c-0.5,0.7-1.1,1.4-1.5,2.2
		c-0.2,0.4-0.2,0.7,0.3,0.7c1.2,0,2.3,0.1,3.4-0.6c1.7-1.1,3.6-1.9,5.7-2.4C65.9,8,66.9,7.2,68,6.7c0.6-0.3,1.3-0.4,1.8-0.8
		C71.3,5,72.6,5.6,74,6.3c0.7,0.3,0.7,1,0.7,1.5c0,2.3-0.1,4.6-0.2,6.9c-0.1,1.2-0.3,2.3-0.5,3.5c-0.2,1.1-0.6,2.2-0.7,3.3
		c0,0.7-0.3,1-0.8,1.2c-0.5,0.1-1.1,0.2-1.5,0.1c-1.4-0.5-2.7-1.1-4.1-1.7c-0.3-0.1-0.7-0.3-0.8-0.1c-0.8,0.8-1.3,0.2-1.9-0.2
		c-1.6-1.1-3.3-2.1-4.7-3.5c-0.3-0.4-0.9-0.5-1.4-0.7c-0.1-0.1-0.3,0-0.5,0.1c0.1,0.1,0.1,0.3,0.3,0.4c0.9,0.9,1.8,1.7,2.7,2.6
		c0.4,0.3,0.3,1.4-0.1,1.9c-0.4,0.5-0.9,0.6-1.4,0.1c-0.5-0.5-0.8-0.2-0.9,0.3c-0.1,0.6-0.3,0.9-0.9,0.5c-0.5-0.3-0.7-0.1-1,0.4
		c-0.2,0.2-0.7,0.5-0.8,0.4c-0.7-0.6-0.8-0.1-1.1,0.4c-0.3,0.5-0.9,0.5-1.1-0.1c-0.3-0.6-0.6-0.6-1-0.1c-0.6,0.7-1.3,1.1-2.1,0.2
		c-0.4-0.4-0.6,0.1-0.8,0.3c-0.6,0.6-1.1,0.8-1.5-0.1c-0.2-0.3-0.3-0.3-0.5-0.1c-0.5,0.4-0.9,1.1-1.6,0.3c-0.1-0.1-0.5,0-0.6,0.1
		c-0.7,0.7-1.2,0.6-1.8-0.1c-0.1-0.1-0.4-0.1-0.5,0c-1,1-1.1,1-1.9,0c-0.6-0.7-0.6-0.7-1,0c-0.7,1.1-1.1,1.2-1.9,0.1
		c-0.4-0.6-0.4-0.1-0.5,0.1c-0.6,0.9-0.8,1.1-1.4,0.8c-0.3-0.2-0.5-0.7-0.9-0.7c-0.2,0-0.5,0.4-0.8,0.6c-0.5,0.3-1,0.2-1.2-0.3
		c-0.3-0.5-0.5-0.6-1.1-0.4c-1.4,0.4-1.9-0.2-2-1.6c0-0.4,0-0.7,0-1.1c0-0.5-0.1-0.9-0.7-0.5c-0.3,0.1-0.6,0.2-0.9,0.1
		c-2.1-1.1-4.5-0.7-6.7-1.1c-0.2,0-0.3,0-0.5-0.1c0.1,0.2,0.1,0.3,0.2,0.4c0.9,0.9,1.8,1.9,2.8,2.8c0.9,0.9,1.9,1.9,2.8,2.7
		c0.3,0.3,0.6,0.5-0.1,0.6c-0.9,0.1-1,0.6-1.1,1.3c-0.2,1.9,0.4,3.6,1,5.3c0.2,0.6,0.3,1.2,0.4,1.9c0.1,0.8,0.2,1.5,0.3,2.3
		c0,0.3-0.1,0.6-0.1,0.8c-0.3-0.1-0.6,0-0.8-0.2c-0.5-0.3-0.9-0.7-1.3-1.1c-2.2-2.3-4.2-4.8-5.6-7.6c-0.8-1.6-1.5-3.2-2.2-4.8
		c-0.3-0.7-0.7-1.5-1-2.3c-0.2-0.5-0.2-1-0.2-1.6c-0.1-1-0.2-1.1-1.1-1.2c-2-0.2-4-0.5-6-0.8c-1.1-0.2-2.3-0.3-3.3-0.8
		c-1.2-0.6-2.4-0.6-3.7-0.6c-1.3,0-1.7-0.3-2-1.5c-0.2-0.8-0.1-1,0.7-1.4c0.7-0.3,1.5-0.5,2.1-1c3.1-2.5,6.6-4,10.7-3.7
		C13.9,9.6,14.3,9.5,14.6,9.5C14.6,9.5,14.6,9.5,14.6,9.5z"/>
</g>
</svg>
