<?xml version="1.0" encoding="iso-8859-1"?>
<!-- Generator: Adobe Illustrator 25.3.0, SVG Export Plug-In . SVG Version: 6.00 Build 0)  -->
<svg version="1.1" id="Calque_1" xmlns="http://www.w3.org/2000/svg" xmlns:xlink="http://www.w3.org/1999/xlink" x="0px" y="0px"
	 viewBox="0 0 84.5 32.1" style="enable-background:new 0 0 84.5 32.1;" xml:space="preserve">
<g>
	<path d="M83.3,25.4c-1.8-0.3-3.7-0.6-5.6-0.9c-4.4-0.7-8.6-1.9-12.9-2.9C64,21.3,63,21.5,62,21.4c-0.6,0-0.6,0.2-0.3,0.6
		c0,0.1-0.3,0.5-0.6,0.6c-1.8,1.1-3.4,2.4-4.9,3.8c-1,0.9-1.3,0.8-2.2-0.2c-0.5-0.6-0.8-1.5-1.4-1.7c-0.5-0.2-1.3,0.3-2,0.5
		c-1.9,0.4-3.7,0.7-5.6,1c-0.2,0-0.3,0.1-0.5,0.2c0.1,0.1,0.3,0.2,0.4,0.3c0.8,0.6,1.1,1.2,0.8,2.1c-0.4,1.1-1,2.1-1.6,3.2
		c-0.3,0.5-0.7,0.5-0.9-0.1c-0.7-1.4-1.5-2.9-2.1-4.3c-0.3-0.7-0.6-1-1.3-0.9c-1.7,0.1-3.3,0.3-5,0.3c-1.8,0-3.6-0.1-5.4-0.2
		c-0.3,0-0.6-0.1-0.9-0.1c-4.6,0.2-8.9-1-13.1-2.3c-3.2-1-6.2-2.3-9.1-4c-1-0.6-2.2-1-3.2-1.6c-1-0.6-1.8-1.3-2.7-2
		c-0.2-0.1-0.3-0.4-0.4-0.6c-0.1-0.5,1.2-2.6,1.7-2.7c1.4-0.3,2.8-0.4,4.2-0.8c1.8-0.5,3.7-0.7,5.6-1.2c2.2-0.7,4.7-0.9,7-1.2
		c2.9-0.4,5.8-0.7,8.7-1c0.7-0.1,1.3,0,2-0.1c2-0.1,3.9-0.3,5.9-0.4c1-0.1,1.4-0.8,1.9-1.5c1-1.6,1.8-3.2,2.8-4.8
		c0.3-0.6,0.7-1.1,1.1-1.6c0.7-0.9,1.1-0.9,1.8,0c0.8,1,1.4,2,2.2,3C46.1,5.5,47.1,7.6,49,9c0,0,0.1,0.1,0.1,0.1
		c0.9,1.2,0.9,1.3,1.9,1.6c3.6,1,7.1,2,10.7,3c2,0.6,4.1,0.4,6.2-0.1c2.5-0.6,5-1,7.5-1.5c2.7-0.6,5.4-0.6,8.2-0.8
		c0.2,0,0.4,0.2,0.5,0.4c0.1,0.1,0,0.4-0.1,0.4c-1.4,1.2-2.7,2.5-4.1,3.7c-1.6,1.3-3.5,1.8-5.4,2.1c-0.1,0-0.2,0.1-0.3,0.2
		c0.1,0,0.2,0.1,0.3,0.1c1.6,0.4,3.1,0.9,4.5,1.8c2,1.2,3.7,2.8,5.3,4.5c0.2,0.2,0.2,0.4,0.3,0.6c-0.2,0.1-0.5,0.2-0.7,0.3
		C83.7,25.4,83.5,25.4,83.3,25.4z"/>
	<path d="M38.5,16.4c-1.6,0-3.1,0-4.7,0c-2.1-0.1-4.2-0.2-6.3-0.4c-0.1,0-0.3-0.2-0.4-0.3c0.1-0.1,0.3-0.3,0.5-0.4
		c0.2-0.1,0.5-0.1,0.7,0c3.1,0.6,6.3,0.2,9.5,0.3c3.8,0.1,7.5,0.2,11.3,0.4c4,0.3,8.1,0.7,12.1,0.7c1.5,0,3,0.2,4.5,0.4
		c0.1,0,0.3,0.2,0.4,0.3c-0.1,0.1-0.3,0.4-0.5,0.4c-0.4,0.1-0.8,0-1.3,0c-1.5-0.1-3.1-0.1-4.6-0.4c-2.4-0.4-4.9-0.3-7.3-0.3
		c-2.1-0.1-4.3-0.2-6.4-0.4c-2.5-0.1-5-0.3-7.5-0.5C38.5,16.3,38.5,16.4,38.5,16.4z"/>
	<path d="M13.7,14.6c-0.2,0.5-0.5,0.3-0.8,0.1c-0.3-0.2-0.7-0.3-1-0.5c0-0.4,0.1-0.9,0.7-0.5C13,14,13.3,14.3,13.7,14.6z"/>
	<path d="M22.3,15.9c-0.2-0.2-0.3-0.3-0.5-0.5c0.2-0.1,0.5-0.3,0.7-0.4c0.1,0,0.3,0.2,0.4,0.3C22.7,15.5,22.5,15.7,22.3,15.9z"/>
	<path d="M25.7,15.7c-0.4,0.2-0.5,0.3-0.6,0.3c-0.3-0.1-0.5-0.3-0.8-0.5c0.2,0,0.3-0.1,0.5-0.1C25.1,15.4,25.3,15.5,25.7,15.7z"/>
</g>
</svg>
