<?xml version="1.0" encoding="iso-8859-1"?>
<!-- Generator: Adobe Illustrator 25.3.0, SVG Export Plug-In . SVG Version: 6.00 Build 0)  -->
<svg version="1.1" id="Calque_1" xmlns="http://www.w3.org/2000/svg" xmlns:xlink="http://www.w3.org/1999/xlink" x="0px" y="0px"
	 viewBox="0 0 83.2 22.1" style="enable-background:new 0 0 83.2 22.1;" xml:space="preserve">
<g>
	<path d="M16.2,2c1.4,0,2.4,0,3.4,0c2-0.1,4,0.3,6,0.7c0.6,0.1,1.2,0.3,1.6,0.6c1.3,1,2.7,0.8,4.1,0.7C32,4,32.6,3.8,33.3,3.8
		c2.6,0,5.2-0.1,7.7,0c2.1,0.1,3.9-0.5,5.7-1.3c1.9-0.8,3.9-1.5,5.8-2.3c0.9-0.4,1.6-0.2,2.4,0.2c2.9,1.5,5.8,3,8.7,4.5
		c0.5,0.3,1,0.7,1.6,0.7c0.7,0,0.5,1,1.1,1c0.5-0.1,1.1-0.1,1.6-0.2c0.6-0.1,1.2-0.3,1.7-0.5C71.8,5,74,4,76.2,3.2
		c1.7-0.6,3.5-1,5.3-1.5c0.6-0.2,1,0.1,1.4,0.5c0.5,0.5,0.2,0.8,0,1.3c-1,2.6-1.4,5.2-0.8,8c0.3,1.3,0.3,2.6,0.4,3.9
		c0.1,1.2-0.5,1.7-1.7,1.4c-0.9-0.2-1.8-0.6-2.7-0.9c-4-1.3-8-2.6-12.1-3.9c-0.3-0.1-0.6-0.2-0.9-0.2c-0.3,0-0.6-0.1-0.4,0.5
		c0.2,0.5-0.2,0.8-0.7,0.9c-3.1,1-5.9,2.6-8.4,4.6c-0.2,0.1-0.4,0.2-0.6,0.4c-1.8,1.5-3.7,1.3-5.5,0c-1.3-0.9-2.6-1.6-4-2.3
		c-0.9-0.5-2-0.8-3.1-0.8c-0.6,0-1.3-0.2-1.9-0.2c-1.4,0-2.8,0-4.2,0.1c-2.8,0.1-5.6,0.4-8.4-0.1c-0.3-0.1-0.7,0-1.1,0
		c-0.4,0-0.4,0.2-0.3,0.6c0.5,1.6,1,3.3,1.5,4.9c0.1,0.3,0.1,0.7,0.1,1c-0.1,0.7-0.6,1.1-1.3,0.8c-0.7-0.3-1.5-0.8-2.1-1.3
		c-1.5-1.2-2.6-2.7-3.7-4.4c-0.8-1.3-1.8-1.9-3.3-2.1c-3.5-0.5-6.9-1-10.3-2.1c-1.9-0.6-3.7-1.3-5.3-2.5C1.6,9.1,1,8.6,0.4,8
		c-0.7-0.8-0.5-1.7,0.4-2.2c0.3-0.2,0.6-0.2,0.8-0.4c2.2-2.2,5.1-2.5,8-3C11.9,1.9,14.2,2.1,16.2,2z"/>
	<path d="M69.2,11.7c0.4-0.2,1.1-0.3,1.3-0.7c0.3-0.6,0.3-1.4,0.4-2c0.1-0.4,0-0.7-0.5-0.8c-0.7-0.1-0.3-0.5-0.1-0.7
		c0.1-0.1,0.6-0.2,0.7-0.1c0.3,0.3,0.6,0.8,0.7,1.2c0.1,0.9,0,1.8,0,2.7c0,0.5-0.3,0.6-0.7,0.6C70.4,11.7,69.8,11.7,69.2,11.7
		L69.2,11.7z"/>
</g>
</svg>
