<?xml version="1.0" encoding="iso-8859-1"?>
<!-- Generator: Adobe Illustrator 25.3.0, SVG Export Plug-In . SVG Version: 6.00 Build 0)  -->
<svg version="1.1" id="Calque_1" xmlns="http://www.w3.org/2000/svg" xmlns:xlink="http://www.w3.org/1999/xlink" x="0px" y="0px"
	 viewBox="0 0 84.7 17.4" style="enable-background:new 0 0 84.7 17.4;" xml:space="preserve">
<g>
	<path d="M60,4.9c1.2-0.3,2.4-0.6,3.6-0.9c2.4-0.7,4.8-1.6,7.2-2c2.2-0.4,4.5-0.4,6.8-0.4c1.7,0,3.4,0.4,5.1,0.7
		c0.6,0.1,1.2,0.3,1.7,0.6c0.5,0.2,0.5,0.9,0,1.1c-0.5,0.2-1,0.4-1.5,0.5c-2.5,0.5-5,1.2-7.3,2.2C72.6,8,69.9,9.6,68,12.3
		c-0.4,0.6-0.9,1.1-1.6,1.5c-1.2,0.7-2.4,0.5-3.5-0.3c-0.8-0.5-1.5-1.2-2.2-1.8c-0.9-0.9-1.8-1.4-3.1-1.2c-1.6,0.2-3.1,0-4.7,0.1
		c-0.3,0-0.5,0.2-0.8,0.3c0.2,0.2,0.3,0.4,0.5,0.5c0.1,0.1,0.3,0.2,0.4,0.3c0.6,0.5,0.5,0.8-0.1,1.2c-1.6,0.8-3.1,1.7-4.8,2.4
		c-1.7,0.7-3.3-0.1-4.7-0.8c-0.6-0.3-1.2-0.8-1.8-1.2c-1.1-0.6-2.1-1.2-3.5-0.8c-1.3,0.4-2.7,0.5-4,0.5c-0.7,0-0.6,0.2-0.5,0.7
		c0.2,1.2-0.4,2.3-1,3.3c-0.1,0.2-0.6,0.4-0.9,0.4c-1.3,0.2-2.5-0.2-3.6-0.8c-1.4-0.8-2.9-1.5-4-2.6c-1.3-1.2-2.9-1.3-4.4-1.5
		c-0.4-0.1-0.8,0-1.3,0c-2.5,0.1-4.8-0.5-7.2-0.9c-0.9-0.2-1.9-0.4-2.8-0.6c-0.5-0.1-1-0.1-1.4-0.4c-1.7-1-3.6-1.2-5.4-1.8
		C1.3,8.7,1.1,8.6,0.9,8.5c-1-0.5-1.2-1.2-0.3-1.9c0.7-0.5,1.5-1,2.3-1.4c2.3-0.9,4.5-1.9,6.9-2.5c3.7-0.9,7.5-2,11.3-2.5
		c0.2,0,0.5,0,0.7,0c0.7,0,1.3,0.2,2,0.1c2.3-0.2,4.5-0.2,6.8,0c1.8,0.2,3.7,0,5.5,0.2c1.3,0.1,2.6,0.4,3.9,0.7
		c1.2,0.2,2.3,0.4,3.5,0.6c1.4,0.2,2.5-0.5,3.7-1c0.6-0.2,1.2-0.6,1.8-0.8c1.4-0.5,3,0.3,3.4,1.7c0.1,0.5,0.1,0.8-0.5,0.9
		c-0.1,0-0.1,0-0.2,0c-0.5,0.2-1,0.4-1.5,0.5c0.5,0.1,1,0.2,1.5,0.3c1.4,0.3,2.7,0.2,3.9-0.8c0.4-0.3,0.9-0.5,1.4-0.7
		c1.3-0.4,2.4,0.1,2.8,1.4c0.1,0.2,0,0.6-0.2,0.8c-0.2,0.2-0.6,0.3-0.9,0.4c0.4,0,0.7,0.1,1.1,0.1c0.1,0,0.1,0,0.2,0
		C59.9,4.8,60,4.9,60,4.9z"/>
	<path d="M71.8,6.3c0,0.2,0.5,0.7-0.3,0.6c-0.4-0.1-0.9-0.3-0.5-0.9C71.5,5.4,71.6,6,71.8,6.3z"/>
	<path d="M63.1,5.2c0.1,0,0.1,0,0.2,0.1c0.7,1.4,0.9,1.5,2.4,1.3c0.1,0,0.2,0,0.4,0c0.5,0,0.1-1.4,0.9-0.8c0.4,0.3,0.7,0.5,1.2,0.5
		c-0.5,0.3-0.9,0.5-1.4,0.8c0.3,0.4,0.7,0.7,1,1.1c0.5,0.7,0.3,0.9-0.6,1c-0.2,0-0.3,0-0.5,0c0,0,0,0,0,0c-0.2-0.4-0.4-0.9-0.5-1.3
		C66.2,7,65.8,6.9,65.1,7c-0.8,0.1-1.5,0.3-2.3,0.3c-1.3,0-2.6-0.2-3.4,1.2c-0.1,0.1-0.4,0.1-0.7,0.1C58.9,8.5,59,8.2,59.1,8
		c0.1-0.2,0.3-0.4,0.4-0.6c-0.3,0-0.6,0-0.9,0c-0.1,0-0.2,0.1-0.3,0.2c-0.5,0.5-0.8,0.3-0.9-0.3c-0.1-0.3-0.1-0.5-0.3-0.2
		c-0.3,0.3-0.6,1.1-0.7-0.1c-0.1,0-0.4,0-0.4,0.1c-0.3,0.5-0.5,0.4-0.9,0c-0.4-0.4-1-0.5-1.6-0.6c-0.5-0.1-0.7,0.1-0.7,0.6
		c0,0.1-0.3,0.3-0.5,0.3c-0.1,0-0.3-0.2-0.3-0.3c0.2-1.1-0.6-0.6-0.9-0.5c-0.4,0.2-0.7,0.6-1,0.9c-0.2-0.1-0.4-0.3-0.7,0
		c-0.9,0.1-1.8,0.1-2.1-1.1c0-0.2-0.3-0.3-0.4-0.4C46.3,6.1,45.7,6,45,5.9c-0.6-0.1-0.7,0.1-0.9,0.7c-0.2,0.5-0.7,0.5-0.8-0.1
		C43.1,6,43,5.6,42.4,5.6c-2.2-0.1-4.4-0.3-6.6-0.4c-0.6,0-1,0.1-1.4,0.6c-0.6,0.7-1.1,0.5-1.2-0.4c0-0.3,0-0.5-0.4-0.5
		c-1.1,0-2.1,0-3.2,0c-0.4,0-0.6,0-0.5,0.6c0.1,0.7-0.1,1.5-0.2,2.2l-0.1,0.1c-1.3-0.2-1.3-0.2-1-1.4c0.1-0.5-0.4-1.2,0.3-1.5
		C28.1,4.7,28,4.5,28,4.5c-2,0-4-0.1-5.9,0c-0.4,0-0.8,0.8-1.2,0.8c-0.4,0-0.8-0.8-1.2-0.8c-1.2,0.1-2.5-0.6-3.5,0.6
		c-0.1,0.1-0.4,0-0.5,0c-0.1-0.2-0.3-0.5-0.2-0.6c0.3-0.4,0.5-0.8,0.3-1.3c0-0.1,0.6-0.5,0.9-0.7c0.2,0.3,0.5,0.7,0.4,0.9
		c-0.3,0.7,0,0.8,0.6,0.8c2.6,0,5.3,0,7.9,0c0.5,0,0.7-0.1,0.6-0.7c0-0.2,0.5-0.5,0.8-0.6c0.4-0.2,0.7,0.1,0.6,0.4
		c-0.3,0.8,0.1,0.9,0.8,0.9c0.6,0,1.3,0.2,1.9,0.3c0.5,0,1,0.2,1.1-0.7c0.1-0.6,1.1-0.6,1.2-0.1c0.2,0.8,0.6,0.8,1.2,0.8
		c0.3,0,0.6,0,0.9,0.1c0.6,0.3,0.7,0,0.8-0.5c0-0.2,0.2-0.4,0.3-0.6l0,0c0.5,0,1,0.1,1.1,0.7c0,0.2-0.4,0.6,0.2,0.6
		c0.4,0,0.9,0.2,1.2-0.4c0.6-0.9,0.7-0.8,1.2,0.1c0.5,1,1.1,1,1.9,0c0.4-0.5,1-0.5,1.2,0c0.3,1,1.1,1,1.8,1.1
		c0.8,0.1,1.8,0.3,2.5-0.5c0.3-0.3,0.8-0.3,1.2,0.3c0.5,0.8,0.8,0.9,1.4,0.2c0.6-0.7,0.9-0.9,1.3,0.2c0.1,0.3,0.7,0.5,1,0.6
		c0.4,0.1,0.8,0.1,1.2,0c0.5-0.1,1-0.4,1.5-0.4c0.4,0,0.8,0.6,1.2,0.7c0.4,0.1,0.8,0.1,1.2,0c0.4-0.1,0.7-0.5,1-0.5
		c0.3,0.1,0.6,0.6,0.9,0.8c0.2,0.1,0.5,0.1,0.7,0.1c0.8,0,1.6,0,2.3,0c0.4,0,0.9,0,1.2-0.3c0.1-0.1-0.1-0.6-0.1-1
		C62.9,5.5,63,5.3,63.1,5.2z"/>
	<path d="M7.6,6.2C8.1,6.4,8.6,6.6,9,7c0.2,0.3-0.7,1-1.4,1C7,7.9,6.4,7.7,5.9,7.5c-0.1,0-0.1-0.6,0-0.7C6.4,6.6,6.9,6.4,7.6,6.2z"
		/>
	<path d="M22.4,3.8c-1.4,0-1.8-0.6-1.5-1.6c0.2-0.6,0.7-0.7,1.2-0.3c0.2,0.1,0.4,0.3,0.5,0.5c0.2,0.3,0.4,0.7,0.5,1
		C22.9,3.6,22.5,3.8,22.4,3.8z"/>
	<path d="M43.3,11.1c0.3,0,0.7,0,1,0.1c0.4,0.1,0.5,0.8,0.1,1.1c-0.1,0.1-0.5-0.1-0.5-0.2c-0.1-0.5-0.4-0.6-0.9-0.5
		c-0.1,0-0.3-0.1-0.5-0.2c0.1-0.2,0.3-0.3,0.4-0.5C43.1,11,43.2,11.1,43.3,11.1C43.4,11.1,43.3,11.1,43.3,11.1z"/>
	<path d="M28.9,7.6c0.2-0.1,0.3-0.2,0.5-0.2c0.5-0.1,0.8,0.2,0.8,0.6c0,0.2-0.4,0.6-0.6,0.7c-0.2,0-0.5-0.3-0.7-0.5
		C28.8,8.1,28.8,7.9,28.9,7.6L28.9,7.6z"/>
	<path d="M15.1,4.2c-0.4,0.3-0.7,0.6-0.9,0.6c-0.3,0-0.5-0.4-0.7-0.6c0.2-0.2,0.5-0.6,0.7-0.6C14.4,3.5,14.7,3.9,15.1,4.2z"/>
	<path d="M31.5,6.8c-0.3-0.3-0.6-0.5-0.8-0.7c0.2-0.2,0.4-0.6,0.7-0.6c0.2,0,0.5,0.3,0.8,0.5C31.9,6.3,31.8,6.5,31.5,6.8z"/>
	<path d="M11.6,6.5c-0.2-0.1-0.3-0.1-0.4-0.1c-0.4-0.2-0.8-0.4-1.2-0.7c0,0,0.1-0.2,0.1-0.3c0.6-0.5,1.1,0.2,1.6,0.3
		c0.1,0,0.1,0.3,0.1,0.4C11.8,6.3,11.7,6.4,11.6,6.5z"/>
	<path d="M31.9,6.7c0.3,0.4,0.6,0.7,0.6,0.8C32.3,7.7,32,8,31.8,8c-0.2,0-0.4-0.3-0.6-0.4C31.3,7.4,31.6,7.1,31.9,6.7z"/>
	<path d="M26.4,12.8c-0.2,0.2-0.4,0.4-0.5,0.4c-0.3,0-0.7-0.1-1-0.3c-0.1,0-0.2-0.3-0.2-0.4c0-0.1,0.1-0.2,0.2-0.2
		c0.4,0,0.8,0,1.2,0C26.2,12.4,26.3,12.6,26.4,12.8z"/>
	<path d="M34.9,5.9c0.3,0.5,0.5,0.8,0.5,1c0,0.3-0.3,0.5-0.5,0.8c-0.2-0.2-0.6-0.3-0.6-0.5C34.3,6.9,34.5,6.7,34.9,5.9z"/>
	<path d="M45.7,5.4c-0.3-0.3-0.6-0.6-0.8-0.8c0.2-0.2,0.4-0.5,0.6-0.5c0.2,0,0.5,0.3,0.6,0.5C46.2,4.8,45.9,5,45.7,5.4z"/>
	<path d="M16.3,6.6c0-0.5-0.1-1,0.5-1.1c0.2,0,0.6,0.2,0.7,0.4c0.1,0.1-0.2,0.5-0.3,0.6C16.9,6.7,16.6,6.6,16.3,6.6L16.3,6.6z"/>
	<path d="M14.8,8.5c-0.1,0-0.1,0-0.2,0.1c-0.4,0.3-0.8,0.3-1-0.1c-0.1-0.2,0-0.6,0-0.6c0.3-0.1,0.7-0.1,1,0c0.2,0,0.2,0.4,0.3,0.5
		C14.9,8.3,14.8,8.5,14.8,8.5z"/>
	<path d="M25.3,7.1c0.2,0.4,0.5,0.6,0.5,0.9c0,0.1-0.4,0.4-0.5,0.4C25,8.2,24.8,8,24.6,7.8C24.8,7.6,25,7.4,25.3,7.1z"/>
	<path d="M25.6,5c0.2,0.4,0.4,0.6,0.4,0.7c-0.2,0.3-0.4,0.6-0.7,0.8c-0.1-0.2-0.3-0.5-0.3-0.7C25.1,5.7,25.4,5.4,25.6,5z"/>
	<path d="M43.7,8.6c-0.3-0.3-0.4-0.4-0.6-0.6c0.2-0.2,0.4-0.5,0.7-0.6c0.1,0,0.3,0.2,0.5,0.4C44.1,8,43.9,8.2,43.7,8.6z"/>
	<path d="M35.7,3.4c-0.4,0-0.9-0.1-0.9-0.6c0-0.2,0.4-0.4,0.6-0.5C36,2.2,36.1,2.6,35.7,3.4L35.7,3.4z"/>
	<path d="M26.3,11c-0.4,0.3-0.7,0.6-0.9,0.6c-0.2,0-0.4-0.3-0.6-0.5c0.3-0.2,0.5-0.4,0.8-0.5C25.7,10.6,25.9,10.8,26.3,11z"/>
	<path d="M16.4,7.6c0.1,0,0.3,0,0.3,0.1c0.2,0.2,0.4,0.5,0.6,0.8c-0.1,0.1-0.3,0.3-0.4,0.3c-0.6,0.1-0.6-0.4-0.6-0.8
		c0-0.1,0-0.1,0-0.2C16.3,7.7,16.3,7.7,16.4,7.6z"/>
	<path d="M26.2,1.8c-0.3,0.2-0.5,0.4-0.7,0.5c-0.1,0-0.3-0.2-0.5-0.4c0.2-0.2,0.4-0.3,0.7-0.5C25.8,1.5,25.9,1.6,26.2,1.8z"/>
	<path d="M19.1,2.7c0-0.6,0.2-0.9,0.8-0.9c0.1,0,0.2,0.1,0.2,0.2C20.1,2.5,19.8,2.8,19.1,2.7L19.1,2.7z"/>
	<path d="M16.2,7.8c-0.3-0.2-0.8-0.3-0.8-0.6c-0.1-0.5,0.4-0.6,0.9-0.6l0,0c0,0.3,0.1,0.7,0.1,1C16.3,7.7,16.3,7.7,16.2,7.8z"/>
	<path d="M41.6,8.8c-0.2-0.4-0.4-0.7-0.4-0.9c0.1-0.2,0.3-0.4,0.5-0.6c0.1,0.2,0.4,0.3,0.4,0.5C42.2,8,42,8.2,41.6,8.8z"/>
	<path d="M14.9,8.3C16,8.4,16,8.4,15.6,9.4l-0.1,0.1c-0.2-0.4-0.5-0.7-0.7-1.1L14.9,8.3z"/>
	<path d="M46.3,12c-0.3,0.2-0.4,0.3-0.6,0.5c-0.1-0.3-0.3-0.6-0.4-0.9c0-0.1,0.1-0.2,0.2-0.3C45.7,11.5,46,11.7,46.3,12z"/>
	<path d="M33.4,2.5c-0.4,0.2-0.6,0.4-0.9,0.3c-0.1,0-0.3-0.3-0.4-0.5C32.4,2.2,32.6,2,32.8,2C33,2,33.1,2.2,33.4,2.5z"/>
	<path d="M11.2,3.4c0.1,0,0.1,0,0.2,0c0.3,0.1,0.6,0.2,0.9,0.3c-0.1,0.1-0.2,0.3-0.3,0.4C11.4,4.2,11.3,3.9,11.2,3.4L11.2,3.4z"/>
	<path d="M28.6,2.1c-0.4,0.1-0.6,0.2-0.9,0.2c-0.1,0-0.2-0.3-0.2-0.4c0.2-0.1,0.5-0.2,0.7-0.3C28.3,1.6,28.4,1.9,28.6,2.1z"/>
	<path d="M19.2,2.7c-0.1,0.2-0.2,0.5-0.3,0.6c-0.2,0.1-0.5-0.1-0.8-0.1c0.2-0.2,0.3-0.4,0.5-0.5C18.7,2.6,19,2.7,19.2,2.7L19.2,2.7z
		"/>
	<path d="M66.7,9.1c-0.5,0.2-1.1,0.4-1.6,0.5c0,0,0-0.1,0-0.1C65.5,8.9,66.1,9.2,66.7,9.1L66.7,9.1z"/>
</g>
</svg>
