<?xml version="1.0" encoding="iso-8859-1"?>
<!-- Generator: Adobe Illustrator 25.3.0, SVG Export Plug-In . SVG Version: 6.00 Build 0)  -->
<svg version="1.1" id="Calque_1" xmlns="http://www.w3.org/2000/svg" xmlns:xlink="http://www.w3.org/1999/xlink" x="0px" y="0px"
	 viewBox="0 0 69.5 28" style="enable-background:new 0 0 69.5 28;" xml:space="preserve">
<g>
	<path d="M50.8,11.2c2.7-0.2,5-0.7,7-2.1c2.4-1.7,5.2-2.3,8.1-2.3c0.4,0,0.9,0.4,1.1,0.7c1,1.6,1.9,3.1,2.3,5.1
		c0.5,2.9-0.5,5.5-0.9,8.2c-0.1,0.4-0.4,0.8-0.7,1.2c-0.7,1.2-1.7,1.6-3,1.4c-2.3-0.4-4.5-1-6.6-2.1c-1.7-0.9-3.6-1.5-5.6-1.9
		c-1.8-0.3-3.5-0.1-5.2,0.1c-0.1,0-0.2,0.2-0.4,0.3c0.1,0.1,0.3,0.2,0.4,0.3c0.3,0.1,0.5,0.2,0.8,0.3c2.1,0.6,2.3,2.7,1.7,4
		c-0.8,1.8-2,3.1-4.2,3.3c-1.4,0.1-2.7,0.5-4,0c-0.4-0.2-0.9-0.3-1.3-0.5c-1.4-0.7-2.8-1.3-4.2-2c-0.5-0.3-1-0.7-1.3-1.1
		c-0.8-1.2-1.8-2-3.4-1.7c-0.6,0.1-1.2,0-1.8,0c-0.3,0-0.7,0.1-1,0.2c0.2,0.3,0.3,0.6,0.6,0.9c0.8,1,1.6,1.9,2.4,2.9
		c0.2,0.2,0.2,0.5,0.3,0.7c-0.3,0.1-0.6,0.3-0.8,0.3c-1.9-0.3-3.8-0.3-5.6-0.9c-0.5-0.2-1-0.5-1.5,0.1c-0.3,0.4-0.8,0.2-1.1-0.1
		c-0.6-0.5-1.4-0.9-1.8-1.5c-0.9-1.4-2.4-2.1-3.6-3.1c-0.3-0.2-0.7-0.4-1.1-0.4c-3.5-0.6-6.9-1.4-10.1-2.8c-1.8-0.8-3.5-1.5-5-2.7
		c-0.9-0.7-1.5-1.6-1.3-2.7c0.1-0.4,0.2-0.8,0.4-1.1c1.3-1.3,2.6-2.6,4.3-3.4c2.6-1.2,5.3-2,8.2-2.4c3.2-0.5,6.4-0.9,9.7-1.4
		c0.4-0.1,0.9-0.1,1.3,0c1.1,0.3,1.7-0.2,2.4-0.9c1.3-1.3,2.8-2.2,4.7-2c2.5,0.3,4.8-0.4,7.2-0.9c1.2-0.2,2.4-0.6,3.6-0.8
		c1.4-0.3,2.8,0,4.1,0.4C47.9,1.2,49.7,2,51.3,3c1.4,0.9,2.4,2.2,2.5,3.9c0.1,1.3-0.3,2.1-1.6,2.4c-1.3,0.4-2.7,0.5-4,0.8
		c-0.1,0-0.3,0.2-0.4,0.2c0.1,0.1,0.2,0.3,0.3,0.3C49.1,10.9,50.1,11.1,50.8,11.2z"/>
	<path d="M4.4,9.8c0.6,0,1.2-0.1,1.8,0c0.9,0.1,1.7,0.9,1.9,1.7c0.2,1.2-0.2,2.1-1.2,2.5c-1,0.5-2.3,0.3-3.1-0.4
		c-0.8-0.7-0.9-1.8-0.2-2.7C3.8,10.5,4.1,10.1,4.4,9.8C4.4,9.8,4.4,9.8,4.4,9.8z"/>
</g>
</svg>
