<?xml version="1.0" encoding="iso-8859-1"?>
<!-- Generator: Adobe Illustrator 25.3.0, SVG Export Plug-In . SVG Version: 6.00 Build 0)  -->
<svg version="1.1" id="Calque_1" xmlns="http://www.w3.org/2000/svg" xmlns:xlink="http://www.w3.org/1999/xlink" x="0px" y="0px"
	 viewBox="0 0 89 38.1" style="enable-background:new 0 0 89 38.1;" xml:space="preserve">
<g>
	<path d="M28.2,27c-1.7-0.1-3.3-0.3-5-0.4c-0.2,0-0.4,0-0.5,0.1c0.1,0.2,0.1,0.4,0.3,0.6c0.6,0.6,1.1,1.3,1.8,1.7
		c1,0.7,1.4,1.7,1.6,2.7c0.1,1.3,0.6,2.6,0.9,3.8c0.1,0.5,0.2,1.1,0.2,1.6c0,0.8-0.9,1.4-1.6,0.7c-1.7-1.5-3.3-3.1-4.5-5.1
		c-1.1-1.9-2.3-3.7-2.7-5.8c-0.2-0.8-0.6-1.1-1.3-1.2c-1.9-0.4-3.7-0.7-5.6-1.2c-1.3-0.3-2.5-0.8-3.7-1.2c-0.3-0.1-0.7-0.3-1-0.4
		c-2.3-0.5-4.1-1.9-6-3.2c-1-0.7-1.2-1.3-0.8-2.5c0.3-1,0.9-1.7,1.8-2.4c1.8-1.3,3.8-2.1,6-2.6c2.3-0.5,4.4-1.3,6.7-1.9
		c2.4-0.6,4.9-1.1,7.3-1.5c1-0.1,1.5-0.6,1.9-1.4c1-1.9,2-3.8,3-5.7C27.4,1,27.8,0,29.1,0.5c0.1,0,0.3-0.1,0.4-0.3
		c0.5-0.6,1.2,0,1.2,0.1c0.1,0.9,1.4,1,1.1,2c-0.1,0.3,0.5,0.7,0.8,1c0.6,0.5,0.9,1.2,0.6,1.9C33.2,6,33.6,6,33.9,6.2
		c0.4,0.3,0.7,0.2,1.1-0.3c1.3-1.8,2.8-3.4,4.6-4.7c0.4-0.3,0.9-0.6,1.2-0.5c1.7,0.3,3.4,0.5,5.1,1c1.9,0.6,3.7,1.4,5.4,2.4
		c3.1,1.8,6.5,3,9.8,4.4c2.5,1,5,2,7.4,3.1c0.7,0.3,1.4,0.5,0.9,1.6c0,0,0.4,0.4,0.6,0.4c2.6,0.1,5.1-0.3,7.6-1.1
		c3-0.9,5.9-1.8,8.9-2.6c1.3-0.4,1.8-0.1,1.9,1.3c0.1,1.2-0.1,2.4,0,3.6c0.1,0.9,0.3,1.9,0.4,2.8c0.1,0.8,0.3,1.6,0.3,2.5
		c0,0.9-0.3,1.2-1.2,1.2c-0.8,0-1.7-0.2-2.5-0.3c-2-0.4-4-0.6-6-0.8c-2.3-0.3-4.5-0.2-6.8-0.3c-0.4,0-0.8,0-1.2,0.1
		c-0.4,0.1-0.7,0.3-0.3,0.7c0.6,0.6,0.2,0.9-0.4,1.2c-1.2,0.5-2.4,1.1-3.6,1.6c-5,2.1-9.9,4.1-14.7,6.5c-0.9,0.5-1.9,0.9-2.9,1.4
		c-1.2-0.6-2.4-1.2-3.6-2c-0.8-0.5-1.6-1.1-2.2-1.8c-0.9-0.9-2-1.2-3.2-1.2c-3.1,0-6.1,0.3-9.1,0.7c-1,0.1-2,0-3.1,0
		C28.2,26.9,28.2,27,28.2,27z"/>
	<path d="M30.2,11.8c-1.2,0-2.4-0.1-3.6,0c-1.5,0.1-3,0.3-4.4,0.5c-0.1,0-0.3,0-0.5-0.1c0.1-0.1,0.2-0.3,0.3-0.4
		c0.4-0.2,0.9-0.3,1.4-0.4c2-0.1,4.1-0.5,6.1-0.3c3.6,0.4,7.3,0.1,10.9,0.3c2.6,0.2,5.2,0.8,7.7,1.2c1.9,0.3,3.9,0.5,5.8,1
		c2.4,0.6,4.8,0.8,7.2,1.2c1.3,0.2,2.6,0.4,3.9,0.6c2.7,0.4,5.4,0.4,8,0.4c1,0,2.1,0.1,3.1,0.2c-1,0.1-2,0.1-3,0.1
		c-1.6,0-3.1,0-4.7,0c-1.9,0-3.8-0.2-5.7-0.6c-1.1-0.2-2.2-0.3-3.4-0.4c-1.8-0.3-3.6-0.6-5.4-0.9c-1.9-0.3-3.8-0.6-5.6-0.9
		c-0.4-0.1-0.8-0.1-1.2-0.2c-1.6-0.3-3.2-0.5-4.7-0.8c-0.6-0.1-1,0.2-1.4,0.6c-1.5,1.8-3,3.6-4.5,5.3c-1,1.2-2,2.4-3,3.5
		c-0.9,0.9-2.1,1.5-3.3,1.8c-2.1,0.5-4.2,0.9-6.3,1.3c-0.3,0.1-0.7,0.1-1,0c-0.5-0.1-0.8-0.4-0.5-1.1c0.8-1.6,0.6-3.1-0.6-4.5
		c-0.2-0.2-0.3-0.5-0.5-0.8c-0.7-1.1-0.7-1,0.6-1.4c1.6-0.4,3.2-0.9,4.7-1.7c2.9-1.6,5.9-2.8,9.2-3.3c0.1,0,0.2-0.1,0.4-0.2
		c-0.2,0-0.3-0.1-0.5-0.1C33.8,11.8,32,11.8,30.2,11.8C30.2,11.8,30.2,11.8,30.2,11.8z"/>
	<path d="M9,13.6c1.1,0,1.7,0.6,1.7,1.8c0,0.6-1.1,1.5-1.8,1.4c-0.9,0-1.7-0.6-1.7-1.2C7.3,14.3,7.9,13.6,9,13.6z"/>
	<path d="M5.4,20.4c1.5,0,3-0.1,4.5,0c2.1,0.1,3.5-0.9,4.3-2.8c0.1-0.2,0.1-0.4,0.2-0.5c0.2-0.3,0.6-0.9,0.7-0.9
		c0.6,0.3,0,0.7-0.1,1c-0.4,1.3-0.9,2.5-2.1,3.2c-0.3,0.1-0.5,0.4-0.8,0.4c-2,0.2-3.9,0.3-5.9,0.4C5.7,21.2,5.4,21,5.4,20.4
		L5.4,20.4z"/>
	<path d="M78.2,15.4c0.8,1.2,0.3,2.2-0.4,3.3C77.9,17.6,78,16.5,78.2,15.4z"/>
</g>
</svg>
