<?xml version="1.0" encoding="iso-8859-1"?>
<!-- Generator: Adobe Illustrator 25.3.0, SVG Export Plug-In . SVG Version: 6.00 Build 0)  -->
<svg version="1.1" id="Calque_1" xmlns="http://www.w3.org/2000/svg" xmlns:xlink="http://www.w3.org/1999/xlink" x="0px" y="0px"
	 viewBox="0 0 82.7 27.9" style="enable-background:new 0 0 82.7 27.9;" xml:space="preserve">
<g>
	<path d="M30,1.5c0.1-0.2,0.1-0.6,0.2-0.6C32,0.4,33.7,0,35.6,0c0.6,0,0.6,0.3,0.7,0.7c0.1,0.6,0.6,1.2,0.7,1.8
		c0.1,0.9,0.1,1.7,0.2,2.6c0,0.3-0.2,0.6-0.1,0.8c0.2,0.5,0.4,0.9,0.7,1.4c0.3-0.3,0.6-0.7,0.9-1c0.6-0.9,1.2-1.8,1.9-2.6
		c1.3-1.6,3.3-2.1,5.2-2.2c2-0.1,4.1-0.2,6,0.2c1.8,0.4,3.5,1.4,4.9,2.8c0.4,0.4,0.2,1.6-0.3,2.3c-0.7,0.9-1.7,1.2-2.8,1.5
		c-0.3,0.1-0.6,0.2-0.9,0.4c0.3,0.1,0.6,0.2,0.9,0.2C55,9,56.6,9.1,58.2,9.3c2.7,0.2,5.2-0.5,7.6-1.7c1.9-0.9,3.9-1.8,6-2.4
		c2.6-0.6,5.2-0.4,7.5,1.2c0.6,0.5,1.2,1.1,1.6,1.8c0.4,0.6,0.6,1.4,1,2.1c1,1.6,0.8,3.4,0.6,5.1c-0.1,1.7-1.1,3.1-1.9,4.5
		c-0.8,1.3-2.2,2.1-3.5,2.6c-0.9,0.4-2.1,0.2-3.1,0.1c-2.5-0.1-4.8-1.3-7.1-2.2c-1.9-0.8-3.9-1.5-5.9-1.8c-0.6-0.1-1.2-0.1-1.8,0
		c-2.3,0.3-4.6,0.7-6.9,1c-0.2,0-0.4,0-0.5,0.1c-0.2,0.1-0.4,0.2-0.6,0.3c0.2,0.1,0.3,0.3,0.5,0.4c0.6,0.2,1.1,0.3,1.7,0.5
		c1.3,0.4,2.6,0.8,3.9,1.3c0.6,0.2,1.3,0.7,1.5,1.2c0.2,0.7-0.4,1.3-1.1,1.6c-1,0.5-2,1.1-3.1,1.3c-2.2,0.6-4.5,1-6.8,1.3
		c-0.6,0.1-1.3,0-1.9-0.3c-2.4-1-4.7-2.1-5.4-4.9c0-0.1,0-0.1,0-0.2c-0.4-1.2-0.4-1.3-1.7-1.3c-2.3,0-4.7,0-7,0c-0.8,0-1.6,0-2.3,0
		c-0.3,0-0.5,0.1-0.8,0.1c0.2,0,0.5,0.1,0.7,0.1c0.9,0.2,1.7,0.4,2.6,0.7c0.5,0.2,1,0.4,1.4,0.7c0.7,0.5,0.7,1.3,0,1.7
		c-0.7,0.4-1.4,0.8-2.1,0.8c-2.8,0.3-5.5-0.3-8.1-1c-0.8-0.2-1.3-0.8-1.6-1.6c-0.1-0.4-0.3-0.8-0.4-1.2c-0.1-0.5-0.5-0.8-1-0.8
		c-0.4,0-0.7,0-1.1,0c-5.6,0-10.9-1.3-15.7-4c-1-0.5-1.8-1.4-2.6-2.2c-0.7-0.7-0.7-1.5,0-2.2c1.4-1.5,3.1-2.4,5-2.9
		C7.4,10.1,9,9,10.7,8.6c2-0.5,4-0.7,6-0.7c2.7,0,5.4-0.2,8-0.3c1,0,1.8-0.5,2.3-1.4c0.5-1,1-2,1.5-3C28.9,2.4,29.1,1.7,30,1.5
		c0.3,0.3,0.3,0.6,0.1,1c-0.5,0.8-0.8,1.6-1.2,2.4c0,0,0,0,0.1-0.2C29.1,3.5,30.5,2.8,30,1.5z"/>
	<path d="M5.5,12.5c0.3,1.6,0.9,1.9,2.4,1.7c0.7-0.1,1.6-0.2,2.2,0c1.1,0.3,2,1,3.2,0.9c0.1,0,0.2,0.2,0.3,0.3
		c-0.1,0.1-0.3,0.3-0.4,0.3c-0.7-0.1-1.5-0.1-2.2-0.4c-1.2-0.6-2.4-0.8-3.8-0.3c-0.3,0.1-0.7,0.1-1.1,0.1c-0.4-0.4-0.8-0.7-1.1-1.1
		C4.3,12.7,4.3,12.6,5.5,12.5L5.5,12.5z"/>
	<path d="M2.6,14.4c0.2,0.4,0.3,0.8-0.4,0.7c-0.1-0.1-0.2-0.3-0.3-0.4C1.5,14.1,1.7,14,2.3,14C2.4,14.1,2.5,14.2,2.6,14.4z"/>
	<path d="M15.5,17.1c0.1-1,0.1-1.9-0.6-2.7c-0.3-0.3-0.6-0.8-0.7-1.2c-0.1-0.3,0.2-0.6,0.3-0.9c0.2,0.2,0.3,0.4,0.5,0.6
		c0.3,0.5,0.6,1,0.9,1.5c0.6,1.1,0.7,2.1,0.1,3.2c-0.1,0.2-0.3,0.3-0.5,0.4c0-0.2,0-0.4,0.1-0.6C15.4,17.3,15.5,17.2,15.5,17.1z"/>
</g>
</svg>
