<?xml version="1.0" encoding="iso-8859-1"?>
<!-- Generator: Adobe Illustrator 25.3.0, SVG Export Plug-In . SVG Version: 6.00 Build 0)  -->
<svg version="1.1" id="Calque_1" xmlns="http://www.w3.org/2000/svg" xmlns:xlink="http://www.w3.org/1999/xlink" x="0px" y="0px"
	 viewBox="0 0 233.3 63.8" style="enable-background:new 0 0 233.3 63.8;" xml:space="preserve">
<g>
	<path d="M59,12.1c0.5,0,1,0,1.5,0c6.3,0.3,12.3-0.6,18.4-2.8c9.9-3.6,20.3-6,30.5-8.8c0.6-0.2,1.3-0.2,2-0.3c5.8-0.5,6-0.4,8.3,4.8
		c2.1,4.8,5.5,8.1,10.2,10.3c1.8,0.8,3.8,1.8,4.8,3.4c1.7,2.7,4.2,3.3,6.7,3.3c9.8,0.2,19.7,0.6,29.5-0.1c7.7-0.6,15.3-2.6,22.9-4.2
		c10.2-2.1,20.4-4.4,30.6-6.4c2.1-0.4,4.3-0.3,6.5-0.1c0.9,0.1,1.9,1.2,2.4,2c0.2,0.4-0.3,1.6-0.9,2c-5.1,3.9-9.3,9-15.5,11.5
		c-1.1,0.4-1.8,1.7-2.7,2.5c1,0.8,1.9,1.8,3,2.3c2.6,1.2,5.3,2,7.8,3.1c1.2,0.5,2.3,1.4,3.1,2.3c1.5,1.8,1.1,4.2-1.1,4.9
		c-4.2,1.4-8.5,3-13.1,1.7c-0.6-0.2-1.3-0.4-1.9-0.4c-6.6-0.4-13.3-0.7-19.9-1.1c-4.6-0.3-9.2-0.8-13.9-1c-3.3-0.1-3.3,0-2.7,3.3
		c0.9,4.8-0.5,6.5-5.3,6.7c-4,0.2-7.9-0.7-11.7-1.8c-4.1-1.1-8.3-2.5-12.4-3.7c-0.8-0.2-1.6-0.6-2.4-0.5c-4.1,0.4-8.2,1-12.3,1.5
		c-2.5,0.3-5,0.2-7.5,0.4c-4.5,0.4-8.9,0.7-13.4,1.2c-0.4,0-0.8,0.5-1.1,0.8c0.3,0.3,0.6,0.6,0.9,0.7c1.7,0.7,3.4,1.3,5.1,1.9
		c1.8,0.6,2.5,2.1,3,3.7c1.8,5.6-1.4,8.9-7.2,7.9c-6.2-1.1-11.5-3.6-15.3-8.6c-4.1-5.3-9.4-6.9-15.8-6.7c-3.3,0.1-6.7,0-10,0
		c-0.6,0-1.2,0.2-1.7,0.4c0.5,0.4,1,0.9,1.5,1.2c1.6,0.9,3.2,1.8,4.7,2.8c1,0.6,2.1,1.1,2.9,1.9c2.1,2.1,1.7,4.7-1.2,5.3
		c-2.9,0.5-6.1,0.8-8.9,0.1c-7.8-2-14.9-5.8-20.8-11.3c-2.4-2.2-4.9-3.4-8-3.3c-9.8,0.5-18.4-3.5-27.3-6.8c-0.8-0.3-1.5-0.8-2.1-1.3
		c-2.7-2.6-5.4-5.4-8.2-8c-1.6-1.5-1.5-3.1-0.5-4.9c1.6-3,4.6-4.4,7.4-5.7c6.7-3.1,13.6-5.1,21.2-4.6c5.6,0.3,11.2-0.7,16.8-1.6
		c4.2-0.7,8.6-0.1,13-0.1C59,12.3,59,12.2,59,12.1z"/>
	<path d="M118.4,38.3c-6.1,0-10.8,0.2-15.5-0.1c-5.2-0.3-10.5-1.1-15.7-1.7c-3.3-0.4-6.6-0.7-9.8-1.2c-6.3-1.1-12.6-2.4-18.9-3.7
		c-3.7-0.7-7.4-1.5-11.1-2.4c-1-0.3-2-1-3-1.5c1.1-0.1,2.3-0.5,3.4-0.3c2.9,0.5,5.8,1.2,8.7,2c8.4,2.3,16.9,4.3,25.7,5
		c5.7,0.5,11.5,0.9,17.2,2c6.6,1.3,13.3,1.2,19.8,0.7c7.5-0.6,14.9-0.4,22.3-0.9c7.2-0.5,14.4-1.8,21.5-2.7
		c3.9-0.5,7.9-0.8,11.8-1.1c0.4,0,0.9,0.3,1.4,0.4c-0.4,0.2-0.8,0.5-1.2,0.6c-3.9,0.7-7.8,1.5-11.7,2c-8,0.9-16.1,1.7-24.1,2.3
		C131.7,38.2,124.3,37.8,118.4,38.3z"/>
	<path d="M11.9,27.7c0,0,0.3-0.8,0.4-1.6c0.1-0.4,0-0.9-0.1-1.3c-0.3,0.2-0.6,0.3-0.8,0.5c-0.1,0.1-0.3,0.2-0.4,0.3
		c-0.6,0.7-1.3,1.3-1.9,2c0.2-1.2-0.1-2.8,0.6-3.6c1.3-1.7,2.7-3.7,5.6-2.8c4.2,1.2,5.9,2.3,6.4,5.3c0.1,0.4-0.1,1.3-0.3,1.3
		c-3.3,0.3-2.3,1.7-0.9,3.3c0.1,0.1-0.1,0.6-0.3,0.9c-1.7,1.7-4.1,0.9-6,0.8C12.5,32.7,11.7,30.5,11.9,27.7z"/>
	<path d="M125.3,22.3c-4-0.7-8.6-1.6-13.1-2.3c-5.5-0.9-11-1.7-16.5-2.7c-5.8-1-11.7-2-17.5-3c-0.5-0.1-1-0.4-1.6-0.7
		c0.6-0.1,1.3-0.5,1.9-0.4c4.3,0.4,8.5,0.7,12.8,1.3c5.4,0.8,10.7,1.8,16,2.7c6.5,1.1,13,2.1,19.5,3.2c0.5,0.1,1,0.7,1.5,1.1
		c-0.5,0.3-1,0.6-1.5,0.7C126.5,22.4,126.1,22.3,125.3,22.3z"/>
	<path d="M172.9,41.3c-6.7,0.9-13.4,1.7-20.1,2.6c-1.3,0.2-2.6,0.3-3.9,0.5c0.9-0.7,1.6-1.7,2.6-1.9c6.1-1.1,12.2-2.1,18.4-3.1
		C171.3,39,172.9,38.9,172.9,41.3z"/>
	<path d="M176.9,24.3c3.1,0,4.2,1.9,4.3,4.7c0,0.4-0.2,0.7-0.3,1.1c-0.2-0.2-0.6-0.3-0.7-0.5C179,27.8,177.9,26,176.9,24.3
		L176.9,24.3z"/>
	<path d="M178.3,37.8c1.2-0.8,2.1-1.4,3-2.1c0,0,0.3,0.2,0.3,0.3c0,0.3,0,0.7-0.1,0.9c-0.6,0.5-1.3,0.9-2,1.2
		C179.2,38.3,178.8,38,178.3,37.8z"/>
</g>
</svg>
