<?xml version="1.0" encoding="iso-8859-1"?>
<!-- Generator: Adobe Illustrator 25.3.0, SVG Export Plug-In . SVG Version: 6.00 Build 0)  -->
<svg version="1.1" id="Calque_1" xmlns="http://www.w3.org/2000/svg" xmlns:xlink="http://www.w3.org/1999/xlink" x="0px" y="0px"
	 viewBox="0 0 83 26.6" style="enable-background:new 0 0 83 26.6;" xml:space="preserve">
<g>
	<path d="M63.2,12.3c1.5-0.2,3.5-0.4,5.3-1.3c3-1.5,6.1-2.8,9.3-3.5c1.5-0.3,3.1-0.7,4.7-0.2c0.2,0.1,0.3,0.1,0.5,0.2
		c-0.1,0.2-0.2,0.4-0.4,0.5c-1.5,0.8-3,1.4-4.4,2.3c-2,1.3-3.9,2.7-5.8,4.1c-0.1,0.1-0.3,0.2-0.4,0.4c-0.8,0.7-0.8,0.9,0,1.5
		c1.2,1,2.5,2,3.9,2.8c1.7,1.1,3.5,2.1,5.2,3.2c0.1,0.1,0.3,0.3,0.2,0.4c0,0.1-0.2,0.3-0.3,0.3c-0.8,0-1.7,0.2-2.5,0
		c-2.7-0.4-5.3-1.4-7.7-2.8c-1.6-0.9-3.2-1.9-5-2.3c-2.1-0.5-4.1-0.2-6.2,0.1c-0.6,0.1,0,0.2,0.1,0.3c0.5,0.3,0.5,0.6-0.1,0.8
		c-0.6,0.2-1.2,0.5-1.8,0.7c-1.2,0.5-1.9,1.4-1.9,2.7c0,0.2,0,0.5-0.1,0.7c-0.1,0.1-0.5,0.2-0.5,0.1c-0.6-0.6-1.1-1.2-1.6-1.9
		c-0.8-1.2-2-1.8-3.5-1.8c-1.7,0-3.3,0-5,0.3c-1.7,0.3-3.5,0.1-5.2,0.1c-0.6,0-1.2,0-1.8,0.2c-0.8,0.2-0.8,0.2-0.4,1
		c0.2,0.4,0.4,1,0.4,1.5c0,1-0.2,2-0.3,3c-0.1,0.7-0.3,0.9-0.9,0.4c-0.6-0.5-1.1-1.1-1.5-1.7c-0.6-1-1-2-1.4-3.1
		c-0.3-0.6-0.6-0.9-1.3-0.9c-2.6,0-5.3,0-7.9,0c-0.8,0-1.7,0.3-2.5,0.3c-2.4-0.1-4.7-0.4-7.1-0.6c-0.3,0-0.6-0.1-0.9,0
		c-2.8,0.1-5.4-0.5-8.1-1.1c-1.3-0.3-2.6-0.4-3.8-0.7c-0.7-0.2-1.4-0.6-2.1-0.9C0.1,17.5,0,17.1,0,17c0-0.2,0.4-0.2,0.5-0.3
		c0.5-0.3,1,0.7,1.4,0c0.1-0.2-0.5-0.7-0.8-1.1c-0.3-0.5,0-0.8,0.4-1c1.1-0.6,2.1-1.4,3.3-1.8c2-0.6,4.1-1.1,6.2-1.5
		c2.2-0.4,4.3-0.7,6.5-1c0.1,0,0.2,0,0.4,0c2.7-0.1,5.4-0.3,8.1-0.4c2.5,0,4.9-0.4,7.3-0.7c1.2-0.2,1.9-1,2.4-1.9c1.2-2,2.5-4,3.8-6
		c0.2-0.3,0.4-0.6,0.6-0.9c0.1-0.1,0.3-0.2,0.4-0.3c0.1,0.1,0.2,0.3,0.2,0.4c0,0.2,0,0.5,0,0.7C40.8,2.4,40.9,3.7,41,5
		c0.2,1.6,0.8,2.3,2.4,2.6c0.6,0.1,1.2,0.3,1.7,0.4c0.5,0.1,0.6,0.4,0.3,0.8C45.2,9.2,45,9.6,44.7,10c0.5,0.2,1,0.4,1.5,0.5
		c1.5,0.2,3.1,0.2,4.6,0.4c1.3,0.1,2.6,0.3,3.9,0.5c2.4,0.3,4.7,0.6,7.1,0.9C62.1,12.3,62.4,12.3,63.2,12.3z"/>
	<path d="M19,13.8c1.6,0,3.2,0,4.8,0c1.3,0,2.6,0.3,3.9,0.3c0.9,0,1.9-0.2,2.8-0.3c0.4,0,0.8-0.1,1.2,0c2.7,0.5,5.3,0.3,8,0
		c2.4-0.2,4.8-0.4,7.1,0.2c0.8,0.2,1.7-0.1,2.6,0c2.3,0.3,4.7,0.3,7.1,0.4c3,0.1,6.1,0.2,9.1,0.4c0.5,0,1,0,1.4,0
		c0.9,0.1,0.8-0.5,0.8-1c0.5,1.2,0.4,1.5-0.6,1.5c-3-0.1-6.1,0.3-9.1-0.3c-0.1,0-0.2,0-0.4,0c-2.6-0.1-5.1-0.2-7.7-0.4
		c-2.9-0.1-5.8-0.5-8.7-0.3c-2.6,0.2-5.2,0.3-7.9,0.3c-0.7,0-1.4-0.2-2.1-0.2c-0.2,0-0.5-0.1-0.7,0c-2.4,0.5-4.8,0.4-7.3,0
		c-1-0.2-2.2,0-3.2,0C19.8,14.2,19.3,14.4,19,13.8z"/>
	<path d="M15.1,13.4c0.1-0.1,0.1-0.3,0.2-0.3c1.3,0.1,2.6,0,3.8,0.6C17.7,13.7,16.4,13.6,15.1,13.4z"/>
</g>
</svg>
