<?xml version="1.0" encoding="iso-8859-1"?>
<!-- Generator: Adobe Illustrator 25.3.0, SVG Export Plug-In . SVG Version: 6.00 Build 0)  -->
<svg version="1.1" id="Calque_1" xmlns="http://www.w3.org/2000/svg" xmlns:xlink="http://www.w3.org/1999/xlink" x="0px" y="0px"
	 viewBox="0 0 73.8 38" style="enable-background:new 0 0 73.8 38;" xml:space="preserve">
<g>
	<path d="M56.5,15.9c1.6-0.4,3.1-0.7,4.7-1.1c3.3-0.9,6.5-1.8,9.8-2.7c0.3-0.1,0.6-0.2,0.9-0.2c1.3-0.1,2.1,0.7,1.6,2
		c-0.4,1-1,1.9-1.6,2.8c-0.2,0.2-0.4,0.4-0.6,0.7c-1.6,1.7-1.7,2.2,0.1,4.2c1.2,1.3,2,2.8,2.5,4.5c0.1,0.5,0.1,1.1,0,1.5
		c-0.3,0.8-1,1-1.9,0.7c-1.5-0.5-2.9-1-4.4-1.6c-2.6-1.1-5.2-2.1-7.9-2.7c-1.2-0.3-2.5-0.4-3.7-0.5c-0.4,0-0.5,0.1-0.3,0.5
		c0.5,0.9,0.4,1.2-0.4,1.7c-2.1,1.3-3.6,3.1-5.4,4.7c-1.1,1.1-2.1,2.3-2.9,3.6c-1,1.8-1.9,2-3.7,1.2c-0.6-0.3-1.1-0.8-1.8-0.5
		c-0.1,0-0.2,0-0.3-0.1c-1-0.8-2.1-1.5-3.1-2.4c-0.4-0.4-0.7-0.6-1.2-0.5c-1.1,0-2.2,0-3.2,0c-0.2,0-0.3,0.1-0.5,0.1
		c0.1,0.1,0.2,0.3,0.3,0.4c1.1,1,1.3,2.4,1.3,3.7c0,0.6-0.3,1.1-0.5,1.7c-0.2,0.5-0.7,0.6-1.2,0.3c-0.6-0.4-1.1-0.9-1.8-1.2
		c-2.1-0.9-3.5-2.6-5.1-4.1c-0.3-0.3-0.8-0.6-1.2-0.6c-4.2-0.3-8-1.7-11.8-3.4c-1.3-0.6-2.7-1-4-1.6c-0.7-0.3-1.3-0.6-1.9-1
		C6.1,25.5,5,25,4,24.4c-1.1-0.6-2.3-1.1-3.3-1.7c-0.9-0.5-0.9-0.8-0.1-1.5c0.3-0.3,0.5-0.3,0.1-0.7c-0.9-1-0.9-1.1,0.1-1.9
		c0.5-0.5,0.9-1.1,1.4-1.6c1.8-1.8,3.4-3.8,5.4-5.2c3.2-2.2,6.6-4,10.4-5c1.1-0.3,2.2-0.5,3.3-0.8c0.4-0.1,0.7-0.4,1-0.6
		c0.4-0.3,0.7-0.7,1.4-0.6c0.5,0,0.6-1.1,1.4-0.7c0.4-1.1,2.1-0.6,2.4-1.8C27.6,2.2,27.9,2,28,2c1.5,0.4,2.7-0.5,4.1-0.6
		c0.6,0,1.3,0,1.8-0.1c0.7-0.2,1.2-0.3,1.8,0c0.8-0.6,1.9,0.4,2.6-0.5c1,0.4,1.7-0.3,2.6-0.7c1.1-0.5,2.2-0.1,2.9,0.7
		c0.7,0.8,1.3,1.6,1.7,2.5c1,1.8,2.5,3.2,3.9,4.6c1.4,1.4,3,2.5,4.5,3.8c1.1,0.9,1.9,1.9,1.2,3.4c-0.2,0.4,0,0.5,0.4,0.6
		c0.2,0,0.5,0,0.7,0C56.4,15.8,56.4,15.8,56.5,15.9z"/>
	<path d="M5.9,14.7c0.9-0.2,1.8-0.6,2.7-0.3c1.7,0.5,2.2,2.3,1,3.6c-1.1,1.1-3.1,1.2-4.1,0.2c-0.3-0.3-0.4-0.7-0.4-1.1
		c-0.1-0.5,0-1.1,0.1-1.6C5.4,15.2,5.6,14.9,5.9,14.7z"/>
	<path d="M6.2,24c-0.1-0.1-0.1-0.2-0.2-0.3c-0.1-0.2-0.3-0.3-0.4-0.5C5.8,23.2,6,23,6.1,23c0.5,0.1,0.9,0.3,1.4,0.4
		c0.3,0.1,0.6,0.3,1,0.4c1.9,0.8,2.5,0.4,3.1-1.5c0.5-1.9,1.3-3.8,1.1-5.9c0-0.2,0.1-0.3,0.2-0.5c0.2,0.2,0.5,0.3,0.5,0.5
		c0.1,0.8,0.2,1.6,0.1,2.3c-0.3,1.5-0.7,3-1.1,4.5c-0.4,1.4-1.3,2.2-2.8,2.3c-0.5-0.3-1-0.5-1.5-0.8C7.4,24.4,6.8,24.3,6.2,24
		L6.2,24z"/>
	<path d="M25,10.7c3.4,0,6.6,0.7,9.9,1.3c3.5,0.7,6.7,2.1,9.9,3.5c3.7,1.6,7.4,3.1,11.3,3.7c1.3,0.2,2.6,0,3.9,0.1
		c0.5,0,1,0.2,1.5,0.3c-0.3,0.9-1,0.4-1.5,0.5c-2.9,0.3-5.5-0.5-8.2-1.3c-3.6-1.1-7.1-2.7-10.7-4c-2.8-1-5.7-1.7-8.5-2.5
		c-3.4-0.9-7-0.7-10.5-0.7c-0.9,0-1.9,0.4-2.8,0.5c-0.1,0-0.3-0.1-0.3-0.1c0-0.2,0-0.4,0.1-0.5c0.2-0.2,0.5-0.3,0.8-0.4
		C21.5,11,23.2,10.9,25,10.7z"/>
</g>
</svg>
