<?xml version="1.0" encoding="iso-8859-1"?>
<!-- Generator: Adobe Illustrator 25.3.0, SVG Export Plug-In . SVG Version: 6.00 Build 0)  -->
<svg version="1.1" id="Calque_1" xmlns="http://www.w3.org/2000/svg" xmlns:xlink="http://www.w3.org/1999/xlink" x="0px" y="0px"
	 viewBox="0 0 82.1 27.4" style="enable-background:new 0 0 82.1 27.4;" xml:space="preserve">
<g>
	<path d="M66.8,12.8c1.8-0.3,3.7-0.6,5.6-1c2-0.4,3.9-0.9,5.9-1.3c1.2-0.2,2.4-0.2,3.5,0.3c0.5,0.2,0.5,0.6,0.2,0.8
		c-0.7,0.5-1.4,0.9-2.1,1.3c-0.5,0.3-1.1,0.5-1.5,0.9c-0.7,0.6-1.4,1.3-2,2c0.6,0.6,1.3,1.2,1.9,1.8c0.9,0.9,1.9,1.8,3.1,2.4
		c0.2,0.1,0.3,0.3,0.5,0.5c-0.2,0.1-0.5,0.2-0.7,0.3c-1.5,0.6-3.1,0.1-4.5-0.3c-2.1-0.6-4.1-1.5-6.2-2.2c-2-0.7-4-1.4-6.2-0.8
		c-1,0.3-2.1,0.3-3.2,0.4c-0.1,0-0.2,0.1-0.3,0.1c0.1,0,0.1,0.1,0.2,0.1c1.1,0.4,0.5,0.7,0,0.9c-0.9,0.3-1.2,1.1-1.7,1.8
		c-0.3,0.4-0.4,0.9-0.7,1.2c-1.1,1.7-1.7,1.8-3.5,0.8c-1.6-0.8-3.2-1.6-4.9-2.2c-0.7-0.3-1.5-0.2-2.3-0.1c-2.6,0.4-5.3,0.9-7.9,1.3
		c-1.9,0.3-3.9,0.5-5.8,0.7c-0.7,0.1-0.3,0.3-0.2,0.6c0.5,0.9,0.9,1.8,1.4,2.7c0.5,1.1,0.2,1.5-0.9,1.3c-1.6-0.3-3.3-0.7-4.7-1.7
		c-0.6-0.4-1.4-0.8-1.9-1.3c-1.4-1.4-3.1-1.7-5.1-1.7c-2.5,0-5-0.1-7.5-0.4c-2.5-0.2-4.9-0.7-7.4-1.1c-1-0.2-2-0.8-3-1
		c-1.2-0.3-2.4-0.7-3.4-1.4c-0.4-0.3-0.7-0.7-1-1.2C0,17.5,0,17,0,17c1-0.4,0.5-1.7,1.3-2.2c0.8-0.5,1.6-1.1,2.5-1.4
		c2.8-0.9,5.7-1.7,8.5-2.5c2.4-0.6,4.8-1.1,7.3-1.6c2.3-0.5,4.7-0.9,7-1.2c0.8-0.1,1.3-0.4,1.7-1.1c1.2-1.9,2.5-3.7,3.8-5.6
		c0.2-0.3,0.4-0.6,0.7-0.8c1.1-1,2.8-0.5,3.3,0.8c0.4,1,1,2,1.6,3c0.2,0.3,0.4,0.5,0.6,0.8c0.5,1.1,1.4,1.9,2.6,2.1
		c0.5,0.1,0.8,0.2,1,0.8c0.2,0.9,0.8,1,1.6,0.7c0.3-0.1,0.5-0.3,0.8-0.4c0.1,0,0.4,0.2,0.4,0.2c-0.3,0.7,0.2,0.5,0.5,0.4
		c0.4-0.2,0.8-0.8,1.3,0c0,0,0.4-0.2,0.6-0.2c0.2-0.1,0.4-0.1,0.6-0.1c0.2,1.3,1.4,0.1,2,0.7c0.1,0.1,0.7-0.2,1.1-0.4
		c1-0.7,2-1.5,3.1-2.2c0.5-0.4,1.1-0.7,1.8-0.8c0.8-0.2,1.6-0.1,2,0.8C58,8,59,8.8,59.9,9.8c0.3,0.3,0.5,0.7,0.7,1
		c0.3,0.5,0,0.6-0.4,0.7c-0.1,0-0.3,0.1-0.4,0.2c0.1,0.1,0.2,0.2,0.3,0.2C62.3,12.2,64.5,12.5,66.8,12.8z"/>
	<path d="M31.2,14.9c0.7,0,1.3,0,2,0c0.4,0,0.8,0.1,1.2,0.3c0.7,0.3,0.8,0.7,0.3,1.3c-0.9,1-1.9,1.9-3.3,2.4
		c-1.1,0.4-2.2,0.7-3.5,0.7c-1.1,0-2.1,0.3-3.2,0.3c-1,0.1-1,0-1.2-1.2c-0.2-0.9-0.9-1.3-1.7-1.7c-0.2-0.1-0.3-0.3-0.5-0.4
		c0.2-0.1,0.3-0.3,0.5-0.4c1.6-0.6,3.3-1,5-1.1c1.4-0.1,2.8-0.3,4.3-0.4C31.2,14.8,31.2,14.8,31.2,14.9z"/>
	<path d="M24.1,11.6c0.3-0.1,0.6-0.4,0.9-0.4c5.1,0,10.2-0.1,15.3,0.1c1.8,0.1,3.6,0.2,5.3,0.3c0.3,0,0.5,0.2,0.8,0.4l0,0
		c-2.6,0.1-5.1,0-7.7-0.3c-1.7-0.2-3.5,0.2-5.3,0.2c-1.7,0-3.5-0.3-5.2-0.2C26.9,11.8,25.5,11.7,24.1,11.6
		C24.1,11.6,24.1,11.6,24.1,11.6z"/>
	<path d="M57.6,13.4c2-0.1,3.9,0.2,5.8,1.1l0,0c-1.2-0.2-2.4-0.2-3.5-0.5C59.2,13.7,58.2,14.2,57.6,13.4L57.6,13.4z"/>
	<path d="M19.1,12.3c0.8-0.6,1.8-0.7,2.8-0.7c0.8,0,1.5,0,2.3,0l0,0c-0.1,0.1-0.1,0.2-0.2,0.2C22.3,12,20.7,12.2,19.1,12.3
		L19.1,12.3z"/>
	<path d="M57.6,13.4c-1.4-0.1-2.8-0.2-4.2-0.4c-0.1,0-0.2-0.1-0.3-0.2c0.1-0.1,0.2-0.2,0.3-0.2c0.3,0,0.6-0.1,0.9,0
		c1,0.1,2,0.2,3,0.4C57.4,13.1,57.5,13.3,57.6,13.4C57.6,13.4,57.6,13.4,57.6,13.4z"/>
	<path d="M46.4,12c1.2,0,2.5,0,3.7,0c0.1,0,0.2,0.1,0.3,0.1c0,0.1-0.1,0.2-0.1,0.2C49.1,12.2,47.7,12.8,46.4,12L46.4,12z"/>
	<path d="M65.5,14.8c-0.7-0.1-1.5,0.4-2.2-0.4l0,0C64.1,14.6,64.9,14.1,65.5,14.8L65.5,14.8z"/>
	<path d="M65.5,14.8c0.7,0.1,1.5-0.4,2.2,0.4l0,0C67,15.1,66.2,15.6,65.5,14.8L65.5,14.8z"/>
	<path d="M7.9,17.3c-0.2-0.2-0.4-0.4-0.5-0.7c-0.5-0.8-0.4-1.4,0.1-1.9c0.5-0.5,1.4-0.7,2-0.4c0.7,0.3,1.1,1,1,1.7
		c-0.1,0.6-0.7,1.2-1.4,1.3C8.7,17.4,8.3,17.4,7.9,17.3L7.9,17.3z"/>
</g>
</svg>
