<?xml version="1.0" encoding="iso-8859-1"?>
<!-- Generator: Adobe Illustrator 25.3.0, SVG Export Plug-In . SVG Version: 6.00 Build 0)  -->
<svg version="1.1" id="Calque_1" xmlns="http://www.w3.org/2000/svg" xmlns:xlink="http://www.w3.org/1999/xlink" x="0px" y="0px"
	 viewBox="0 0 82.9 26.9" style="enable-background:new 0 0 82.9 26.9;" xml:space="preserve">
<g>
	<path d="M67.6,12.6c1.8,0.1,3.4-0.4,5.1-1c2.8-0.9,5.6-1.7,8.3-2.5C81.3,9.1,81.5,9,81.7,9c0.8-0.1,1.1,0.4,0.8,1.1
		c-1,2.3-2.4,4.2-4.8,5.3c-0.6,0.3-0.7,0.5-0.2,1c1.1,1,2.1,2.1,3.2,3.2c0.7,0.7,1.3,1.5,1.9,2.3c0.5,0.6,0.2,1.2-0.7,1.1
		c-1.2-0.1-2.5-0.3-3.7-0.6c-2-0.6-4.1-1.4-6.1-2.1c-1.4-0.5-2.7-0.8-4.2-0.8c-2.6,0-5.2,0-7.7,0c-0.2,0-0.5-0.1-0.7,0
		c-0.5,0.1-0.9,0.3-1.4,0.5c0.4,0.2,0.8,0.3,1.1,0.5c0.2,0.1,0.5,0.2,0.7,0.3c0.1,0.1,0.2,0.2,0.3,0.3c-0.1,0.1-0.2,0.2-0.3,0.2
		c-0.3,0.1-0.5,0.3-0.8,0.3c-3.4,0.4-6.3,1.7-8.6,4.3c-1.4,1.5-1.4,1.4-2.5-0.2c-0.7-1.1-1.4-2.3-2.1-3.5c-0.3-0.6-0.7-1-1.4-0.8
		c-1.9,0.5-3.8,0.3-5.7,0.3c-0.6,0-0.9,0.1-1.1,0.8c-0.2,1.1-0.7,2.1-1.1,3.2c-0.2,0.6-0.7,0.8-1.3,0.3c-0.5-0.4-0.9-0.7-1.4-1.1
		c-0.9-0.7-1.7-1.5-2.6-2.2c-0.8-0.7-1.7-1-2.8-1c-0.7,0-1.4,0-2.2,0c-0.7,0-1.2,0.2-1.8,0.6c-1.2,1-1.5,1-2.9,0.1
		c-1.2-0.8-2.6-1.2-4.1-1.1c-1.6,0-3.2,0-4.9,0c-3.4,0-6.7-0.9-9.8-2.2c-0.5-0.2-1.3-0.6-0.4-1.3c-0.1-0.1-0.2-0.3-0.3-0.3
		c-0.6-0.2-1.2-0.4-1.8-0.7c-0.7-0.3-0.8-0.6-0.4-1.3c0.3-0.4,0.7-0.8,1.1-1.1c3.4-2,7.1-3.2,11-3.9c2.4-0.4,4.8-0.7,7.3-0.7
		c1.1,0,2.2-0.3,3.3-0.3c2.7,0.2,5.3-0.2,8-0.1c0.1,0,0.2,0,0.4,0c1.6,0,1.9-0.2,2.5-1.7c0.7-1.7,1.5-3.5,2.3-5.2
		c0.2-0.5,0.5-0.9,0.8-1.4c0.8-1.2,0.9-1.3,2.1-0.5c1.1,0.6,2.1,1.4,3,2.2c1.3,1.3,2.5,2.7,3.8,4.1C46,7,46.1,7.2,46.3,7.5
		c0.2,0.4,0.2,0.6-0.2,0.9c-0.7,0.4-1.5,0.6-1.8,1.4c0.8,0.1,1.5,0.2,2.3,0.2c1.4,0.1,2.8,0.3,4.3,0.4c1.6,0.2,3.3,0.4,4.9,0.7
		c1.8,0.3,3.6,0.5,5.5,0.8c1.1,0.1,2.1,0.2,3.2,0.4C65.5,12.4,66.5,12.5,67.6,12.6z"/>
	<path d="M15.1,16.5c-0.4-0.2-0.8-0.5-1.2-0.7c-0.4-0.3-0.9-0.5-1.3-0.8c-0.1-0.1-0.2-0.2-0.3-0.3c0.3-0.6,0.8-0.5,1.2-0.2
		c0.7,0.5,1.4,1.1,2,1.6C15.4,16.2,15.3,16.4,15.1,16.5z"/>
	<path d="M4.7,16.5c-0.1-0.7-0.5-1.3,0-2c0.4-0.6,0.9-0.7,1.5-0.3c0.7,0.5,0.8,1.1,0.4,1.6C6.1,16.6,5.4,16.5,4.7,16.5L4.7,16.5z"/>
	<path d="M71,17.2c0-0.6,0-1.2,0-1.7c0-0.1,0.1-0.2,0.2-0.2c0.1,0,0.2,0.1,0.3,0.2C71.8,16.2,71.8,16.8,71,17.2L71,17.2z"/>
	<path d="M6.9,16.9c0.2-0.3,0.4-0.7,0.6-1c0.1-0.1,0.3-0.1,0.4-0.1c0,0.2,0.1,0.3,0.1,0.5C7.8,16.7,7.4,16.9,6.9,16.9
		C6.9,16.9,6.9,16.9,6.9,16.9z"/>
	<path d="M2.2,14.7c0.1,0.1,0.3,0.2,0.3,0.4c0.1,0.3,0.1,0.6,0.1,1C2.5,16,2.4,16,2.3,16c-0.5-0.3-0.4-0.7-0.1-1.1
		C2.2,14.8,2.2,14.8,2.2,14.7L2.2,14.7z"/>
</g>
</svg>
