<?xml version="1.0" encoding="iso-8859-1"?>
<!-- Generator: Adobe Illustrator 25.3.0, SVG Export Plug-In . SVG Version: 6.00 Build 0)  -->
<svg version="1.1" id="Calque_1" xmlns="http://www.w3.org/2000/svg" xmlns:xlink="http://www.w3.org/1999/xlink" x="0px" y="0px"
	 viewBox="0 0 63.7 59.9" style="enable-background:new 0 0 63.7 59.9;" xml:space="preserve">
<g>
	<path d="M32.4,13c0,0.3-0.3,0.7,0.5,0.5c1.1-0.3,2.3-0.4,3.5-0.7c1.4-0.3,2.7-0.3,4,0.4c1,0.5,2,1.1,3,1.6c2.1,1.1,3,3.3,4.5,5
		c0.8,2.7,2.4,5.2,2.1,8.2c-0.1,0.6,0.2,0.8,0.7,0.4c1.5-1.1,3-2.2,4.3-3.5c1.4-1.3,2.8-2.6,4.4-3.6c0.9-0.6,1.9-1,2.9-1.4
		c0.3-0.1,0.9-0.1,1.1,0.1c0.4,0.3,0.1,0.7-0.1,1.1c-0.9,1.7-1.5,3.5-1.4,5.4c0.1,1.7,0,3.4,0.3,5.1c0.2,1.7,0,3.4-0.4,5.1
		c-0.6,2.5-1.1,4.9-1.2,7.5c0,0.6,0.1,1.2,0.2,1.7c0.1,1-0.2,1.3-1.2,1.1c-0.9-0.2-1.7-0.5-2.3-1.1c-1.6-1.6-3.3-3.1-4.9-4.7
		c-0.7-0.7-1.2-1.6-1.8-2.4c-0.1-0.1-0.3-0.2-0.4-0.2c0,0.1-0.1,0.2-0.1,0.3c0,2.4-0.9,4.6-1.6,6.9c-0.5,1.4-1,2.8-1.6,4.2
		c-0.5,1.2-1.6,1.9-2.7,2.5c-0.3,0.2-0.7,0.2-1,0.2c-1.2-0.1-2.5-0.2-3.7-0.6c-1.5-0.4-3-0.1-4.5-0.4c0,0-0.2,0.3-0.2,0.5
		c-0.4,1.6-0.6,1.7-2,0.9c-0.5-0.3-0.9-0.9-1.3-0.9c-1.4,0.2-2.6-0.7-4.1-0.6c-2.3,0.2-4.7,0.1-6.9-0.5C20,51,20,51.2,20,51.6
		c0.2,1.7,0.3,3.4-0.2,5.1c-0.2,0.8,0,1.8,0,2.7c0,0.2,0,0.3,0,0.5c-0.2,0-0.4,0-0.5-0.1c-0.7-0.5-1.3-1-2-1.6
		c-0.8-0.6-1.6-1.3-2.3-2c-0.3-0.3-0.5-0.6-0.7-1c-0.6-1.3-1.1-2.6-1.6-3.9c-0.5-1.2-1.1-1.9-2.5-2.1c-1.6-0.2-3.1-0.9-4.5-1.5
		c-1.3-0.5-2-1.6-2.3-3c-0.1-0.6-0.4-1.1-0.7-1.6c-0.7-1.3-1.5-2.6-2.2-3.9c-0.4-0.9-1-1.9-0.3-3c0.1-0.1,0.2-0.2,0.1-0.3
		c-0.7-1.7,0.4-3.2,0.5-4.9c0.2-1.8,0.9-3.4,2-4.9c1.2-1.6,2.1-3.4,3.3-5.1c1.3-1.7,2.6-3.4,4.4-4.7c0.9-0.6,1.5-1.5,2.3-2.2
		c0.7-0.6,1.5-1.2,2.2-1.8c0.3-0.3,0.6-0.6,0.9-0.8c0.1-0.1,0.3-0.4,0.3-0.4C18,11.4,18,10,18.5,9.2c0.4-0.6,0.5-0.7,0.9,0.1
		c0.3,0.6,0.4,0.2,0.6,0c0.9-0.8,1.7-1.7,2.5-2.5c2.6-2.7,5.7-4.7,8.8-6.6C31.4,0.1,31.5,0,31.6,0c0.2,0,0.3,0.1,0.5,0.1
		C32,0.3,32,0.5,31.9,0.5c-1.1,0.7-2.2,1.4-3.3,2.2c-0.7,0.5-1.5,1.1-2.1,1.7c-0.5,0.4-0.8,1-1.2,1.5c-0.1,0.2,0,0.5,0,0.8
		c0.2-0.1,0.5-0.1,0.7-0.3c2.5-1.7,5-3.5,7.4-5.2c0.2-0.1,0.4-0.3,0.6-0.4c0.2-0.1,0.4-0.1,0.6-0.1c-0.1,0.2-0.1,0.4-0.3,0.5
		c-0.8,0.6-1.5,1.1-2.3,1.7c-1.3,1-2.6,1.9-3.8,2.9c-0.7,0.6-1.4,1.3-1.7,2.3c0,0.1,0,0.2,0.1,0.3c0.1,0,0.2,0,0.3-0.1
		c0.8-0.6,1.7-1.2,2.5-1.7c0.2-0.2,0.5-0.3,0.8-0.4c0.1,0,0.3,0.1,0.5,0.2c-0.1,0.1-0.1,0.2-0.2,0.3c-0.5,0.3-1,0.7-1.5,1
		c-0.7,0.5-1.4,1.1-1.7,2c-0.1,0.2,0.1,0.4,0.1,0.6c0.2-0.1,0.3-0.1,0.5-0.2c0.5-0.3,1-0.7,1.5-1c0.1-0.1,0.3,0,0.5,0
		c0,0.2-0.1,0.3-0.1,0.4c-0.2,0.3-0.4,0.6-0.6,0.9c-0.1,0.1,0,0.3,0,0.5c0.2,0,0.4,0,0.5-0.1c0.5-0.4,0.8-0.6,0.9,0.3
		c0.7,0,1.1,0.3,1.1,1.1C31.8,12.6,32.8,11.9,32.4,13z"/>
	<path d="M21.8,32.7c0.9-0.1,1.6,0.4,2,1.3c0.6,1.1,0.7,2.2,0,3.3c-0.6,1.1-1.2,2.2-2.1,3.1c-1.3,1.2-2.8,1.5-4.4,1
		c-0.6-0.2-0.9-0.5-0.6-1.2c0.5-1.4-0.1-2.4-1.3-3.1c-0.3-0.2-0.6-0.4-0.3-0.8C15.8,35.1,20.3,32.7,21.8,32.7z"/>
	<path d="M6.1,31.7c-1.1,0-1.8-0.6-1.8-1.5c0-1,1-2.1,1.8-2.1c1,0,1.8,0.9,1.8,1.9C7.8,31,7.1,31.7,6.1,31.7z"/>
</g>
</svg>
