<?xml version="1.0" encoding="iso-8859-1"?>
<!-- Generator: Adobe Illustrator 25.3.0, SVG Export Plug-In . SVG Version: 6.00 Build 0)  -->
<svg version="1.1" id="Calque_1" xmlns="http://www.w3.org/2000/svg" xmlns:xlink="http://www.w3.org/1999/xlink" x="0px" y="0px"
	 viewBox="0 0 80.4 30.1" style="enable-background:new 0 0 80.4 30.1;" xml:space="preserve">
<g>
	<path d="M17.8,25.6c-0.8,0-1.7-0.1-2.5,0c-2.3,0.2-4.4-0.5-6.3-1.5c-2.1-1.1-4.2-2.3-6.2-3.6c-0.8-0.5-1.5-1.4-2.2-2.1
		c-0.6-0.6-0.7-1.3-0.2-1.9c0.9-1.1,1.7-2.4,2.9-3c1.9-1,3.7-2.3,5.8-3.1c0.7-0.3,1.4-0.5,2.2-0.7C14.1,8.8,17,8,20.1,8
		c1.6,0,3.2-0.2,4.8-0.3c0.6,0,1-0.2,1.4-0.6c1.2-1.1,2.3-2.4,3.1-3.9c0.6-1,1.3-1.9,2-2.7c0.1-0.2,0.7-0.3,0.7-0.3
		c0.6,0.8,1,0.7,1.4-0.1C33.7,0,34,0,34.2,0c0,0.2,0.1,0.5,0.1,0.7C34.2,0.9,34,1,33.8,1.2c-0.5,0.6-1,1.2-1.4,1.8
		c-0.1,0.1-0.1,0.3-0.1,0.5c0.1-0.1,0.3-0.1,0.4-0.2c0.8-0.8,1.6-1.6,2.4-2.4c0.1-0.1,0.4-0.1,0.6-0.1c0,0.2,0.1,0.5,0,0.7
		c-0.4,0.6-0.8,1.2-1.2,1.7c0,0.1,0,0.2,0,0.3c0.1,0,0.2,0,0.3,0c0.6-0.4,1.1-0.9,1.7-1.3c0.1-0.1,0.5-0.1,0.6,0
		c0.1,0.1,0.2,0.5,0.1,0.6c-0.2,0.3-0.4,0.6-0.7,0.8c-0.4,0.4-0.9,0.8-1.3,1.2C35,5,35,5.2,34.9,5.4c0.2-0.1,0.5-0.1,0.6-0.2
		c0.4-0.3,0.7-0.6,1.1-0.9c0.3-0.2,0.7-0.5,1-0.7c0.1-0.1,0.3,0,0.5,0c0,0.2,0,0.4-0.1,0.5c-0.6,0.7-1.3,1.4-2,2.1
		C36,6.3,36,6.5,36,6.6c0.1,0.1,0.3,0.2,0.4,0.2c0.2,0,0.4-0.2,0.7-0.2c0.2,0,0.3,0,0.5,0.1c0,0.2,0,0.4-0.2,0.6
		C37.1,7.8,37.3,8,37.9,8c0.7,0,1.3,0.1,2,0c0.4-0.1,0.9-0.3,1.3-0.5c1.3-1,2.6-2,4-3c0.8-0.6,1.5-1.1,2.3-1.7
		c0.2-0.2,0.4-0.4,0.7,0c0.8,1,1.6,2.1,2.5,3c0.6,0.6,0.8,1.3,0.6,2.1c-0.1,0.3-0.2,0.6-0.2,0.9c-0.3,2.1-0.2,2.1,1.9,2.2
		c1.1,0,2.1,0.2,3.2,0.4c4.3,0.9,8.4,0.3,12.4-1.4c2.7-1.2,5.7-1.8,8.5-2.5c1-0.2,2-0.1,2.9,0.6c0.6,0.5,0.7,1.1,0.5,1.8
		c-0.4,1-1.1,1.7-2,2.2c-1.2,0.7-2.5,1.3-3.8,1.9c-0.2,0.1-0.3,0.3-0.4,0.5c0,0,0.2,0.3,0.4,0.3c0.8,0.3,1.6,0.5,2.4,0.8
		c0.6,0.2,1.2,0.4,1.8,0.8c1.3,0.8,1.7,2,1.3,3.4c-0.3,1.1-1.2,1.7-2.7,1.7c-1,0-2-0.2-3-0.3c-0.7-0.1-1.3,0-2-0.1
		c-1.4-0.1-2.8-0.3-4.2-0.5c-3.6-0.6-7.2-0.8-10.8,0.4c-0.7,0.2-1.1,0.5-1.1,1.3c0,1.3-0.2,2.7-0.4,4c-0.3,2-1,2.5-3.1,1.9
		c-1.6-0.5-3-1.4-4.6-1.9c-1.8-0.6-3.6-1.7-5.6-0.9c-0.2,0.1-0.4,0.1-0.5,0.1c-2.6,0-5.1-0.1-7.7,0.3c-0.5,0.1-1.1,0.1-1.6,0.1
		c0,0.5,0.1,1,0.1,1.5c0.1,1.2-0.7,2-1.4,2.8c-0.1,0.2-0.5,0.1-0.8,0.1c-0.3-0.1-0.7-0.2-1-0.3c-1.8-1.1-3.6-2.3-5.4-3.5
		c-0.6-0.4-1.2-0.7-2-0.6C20.8,25.6,19.3,25.6,17.8,25.6z"/>
	<path d="M56.1,16.1c-0.3,0.3-0.7-0.6-1.3-0.1c-0.3,0.2-1-0.1-1.5-0.2c-0.5-0.1-1-0.3-1.5-0.4c-1.1-0.2-2.3-0.3-3.5-0.5
		c-0.3-0.1-0.6-0.3-0.7-0.6c-0.1-0.2-0.2-0.7,0.5-0.5c0.8,0.2,1.6,0.2,2.4,0.3c0.8,0.1,1.5,0.3,2.2,0.5c1.2,0.2,2.4,0.5,3.6,0.7
		c0.4,0.1,0.7,0.2,0.6,0.7C56.9,16,56.5,16,56.1,16.1z"/>
	<path d="M38.8,12.5c1.3,0.1,2.2,0.1,3.2,0.2c0.2,0,0.3,0.4,0.5,0.6c-0.2,0.1-0.4,0.3-0.6,0.3c-1,0-2-0.1-3-0.2
		c-0.4,0-0.7-0.2-0.6-0.6C38.4,12.6,38.8,12.5,38.8,12.5z"/>
	<path d="M29.8,12.3c-0.4-0.1-1.2,0.3-1.2-0.5c0-1,0.8-0.5,1.4-0.4c0.1,0,0.2,0,0.3,0c0.7-0.1,1.4,0,1.8,0.7
		c-0.5,0.1-1.1,0.2-1.6,0.3C30.2,12.4,30.1,12.3,29.8,12.3z"/>
	<path d="M26.6,11.4c0.3,0,0.7-0.1,1,0c0.2,0.1,0.4,0.3,0.6,0.5c-0.2,0.2-0.4,0.4-0.6,0.5c-0.2,0-0.5-0.2-0.8-0.3
		c-0.1,0-0.3-0.1-0.3-0.1c-0.3,0.4-0.6,0.5-0.7,0c-0.2-0.6,0.3-0.7,0.7-0.7C26.5,11.3,26.5,11.3,26.6,11.4
		C26.6,11.3,26.6,11.3,26.6,11.4z"/>
	<path d="M58.4,16.3c-0.2,0-0.5,0-0.8-0.1c-0.2-0.1-0.2-0.4-0.3-0.5c0.2-0.1,0.4-0.2,0.5-0.2c0.3,0,0.7,0,1,0.1
		c0.2,0,0.3,0.2,0.5,0.4c-0.2,0.1-0.4,0.2-0.5,0.3C58.7,16.3,58.6,16.3,58.4,16.3z"/>
	<path d="M24.2,11.5c0.2,0,0.5-0.1,0.7-0.1c0.2,0.1,0.3,0.3,0.3,0.5c0,0.1-0.2,0.2-0.4,0.3c-0.3,0-0.7,0.1-1,0
		c-0.2,0-0.3-0.3-0.3-0.5c0-0.1,0.2-0.2,0.4-0.3C24,11.4,24.1,11.5,24.2,11.5z"/>
	<path d="M38.2,12.4c-0.5,0.3-0.7,0.5-0.9,0.6c-0.4,0.1-0.9,0-0.9-0.5c0-0.1,0.2-0.5,0.3-0.5C37.2,12.1,37.6,12.3,38.2,12.4z"/>
	<path d="M44.3,13.9c-0.2,0-0.5,0.1-0.7,0c-0.4-0.1-0.9-0.2-0.7-0.8c0.1-0.5,0.4-0.2,0.7-0.1C44.1,13.1,44.4,13.2,44.3,13.9z"/>
	<path d="M34.5,11.6c0.2,0.2,0.5,0.3,0.5,0.5c0.1,0.7-0.6,0.3-0.9,0.4c-0.1,0.1-0.6-0.2-0.6-0.4C33.5,11.5,34.2,11.9,34.5,11.6z"/>
	<path d="M36.2,12.5c-0.1,0.2-0.2,0.3-0.3,0.4c-0.2-0.3-0.4-0.5-0.5-0.8c0,0,0.1-0.2,0.2-0.3C35.8,12,36,12.3,36.2,12.5z"/>
	<path d="M45.6,13.6c-0.3,0.2-0.4,0.3-0.6,0.4c-0.1-0.2-0.2-0.4-0.3-0.5c0-0.1,0.2-0.3,0.3-0.3C45.2,13.2,45.3,13.4,45.6,13.6z"/>
	<path d="M47.4,14c-0.3,0.2-0.4,0.3-0.6,0.4c-0.1-0.2-0.3-0.3-0.3-0.5c0-0.1,0.2-0.3,0.3-0.3C47,13.6,47.2,13.8,47.4,14z"/>
	<path d="M7.9,15.6c0-1.3,0.9-2.3,2.2-2.3c1.2,0,2.6,1.2,2.6,2.2c0,1.1-1.4,2.6-2.4,2.5C9.2,18,8,16.8,7.9,15.6z"/>
</g>
</svg>
