<svg xmlns="http://www.w3.org/2000/svg" viewBox="0 0 800 430" width="800" height="430">
  <g transform="scale(0.6666666666666666, 0.6666666666666666)">
    <path d="M 534.400 93.833 C 532.255 95.392, 529.882 97.417, 529.128 98.333 C 526.844 101.106, 499.444 100.806, 498.710 98 C 498.209 96.082, 497.346 96, 477.688 96 L 457.189 96 453.075 99.438 C 450.812 101.328, 446.607 105.603, 443.730 108.938 L 438.500 115 424.491 115 C 411.564 115, 410.385 114.845, 409.232 113 C 407.050 109.507, 403.397 110.461, 400.617 115.250 C 397.207 121.125, 394.085 130.894, 393.340 138.020 L 392.715 144 385.471 144 L 378.226 144 377.500 159 L 376.774 174 372.043 174 C 369.442 174, 364.689 174.903, 361.482 176.006 C 358.275 177.110, 349.767 179.610, 342.575 181.563 C 335.384 183.516, 326.125 186.199, 322 187.526 C 317.875 188.853, 310.450 191.024, 305.500 192.351 C 286.868 197.345, 253.837 212.209, 225.500 228.349 C 217.800 232.735, 208.350 237.852, 204.500 239.719 C 195.649 244.013, 193.177 245.422, 184.472 251.143 C 180.586 253.697, 168.812 260.088, 158.307 265.346 C 147.802 270.604, 136.123 276.889, 132.354 279.312 C 128.584 281.735, 123.893 284.469, 121.928 285.388 C 119.964 286.307, 115.372 289.708, 111.724 292.946 C 108.076 296.185, 102.400 300.269, 99.110 302.022 C 91.088 306.297, 90 308.732, 90 322.401 L 90 333 82.316 333 C 73.314 333, 67.814 335.170, 63.044 340.603 C 58.983 345.228, 58.596 356.163, 62.277 362.244 C 65.621 367.769, 93.875 391, 97.249 391 C 97.764 391, 99.329 391.900, 100.727 393 C 102.126 394.100, 103.948 395, 104.777 395 C 105.606 395, 109.052 396.748, 112.435 398.885 C 121.532 404.630, 133.924 410.653, 142.726 413.607 C 147.001 415.042, 152.170 417.067, 154.210 418.108 C 156.251 419.149, 158.460 420, 159.120 420 C 159.780 420, 166.886 422.648, 174.910 425.885 C 193.417 433.351, 203.196 436.443, 230.500 443.465 C 242.600 446.577, 258.575 451.084, 266 453.480 C 287.586 460.447, 292.851 461.825, 304.320 463.512 C 310.271 464.387, 316.229 465.517, 317.560 466.023 C 318.891 466.529, 324.166 467.616, 329.282 468.440 C 340.097 470.180, 350.535 473.234, 357.209 476.610 C 363.278 479.680, 374.834 490.483, 375.679 493.877 C 376.038 495.319, 377.607 499.200, 379.166 502.500 C 380.724 505.800, 381.999 509.675, 381.999 511.110 C 382.002 519.313, 401.266 552.396, 412.585 563.635 C 435.541 586.430, 466.721 608, 476.715 608 C 487.635 608, 500.969 589.144, 503.034 570.781 C 503.573 565.985, 504.686 558.869, 505.507 554.966 C 507.452 545.722, 507.448 527.140, 505.500 519.661 C 504.531 515.940, 504 509.200, 504 500.612 L 504 487.322 532.322 486.669 C 547.899 486.310, 562.862 485.599, 565.572 485.089 C 568.282 484.580, 578.600 483.649, 588.500 483.021 C 598.400 482.393, 612.350 481.414, 619.500 480.845 C 626.650 480.277, 640.268 479.578, 649.762 479.292 L 667.024 478.773 672.270 482.386 C 676.985 485.633, 678.180 486, 684.046 486 C 690.569 486, 690.580 486.005, 695.538 491.053 C 702.617 498.263, 712.889 505.041, 717.716 505.689 C 722.344 506.309, 725 503.771, 725 498.727 L 725 495.900 739.750 496.249 C 749.960 496.491, 756.808 497.185, 762 498.504 C 773.060 501.313, 799.653 501.203, 809.500 498.308 C 813.350 497.175, 820.550 495.070, 825.500 493.629 C 848.268 487.001, 866.256 474.494, 873.676 460.131 L 878 451.762 878 432.381 L 878 413 891.750 413.022 C 908.230 413.049, 931.581 415.241, 938.500 417.411 C 941.250 418.274, 946.200 419.452, 949.500 420.030 C 963.904 422.553, 1016.463 440.494, 1040.969 451.253 C 1056.043 457.871, 1065.868 459.698, 1079.766 458.469 C 1090.904 457.484, 1100.244 450.396, 1110.690 435 C 1115.007 428.639, 1128.792 400.831, 1129.880 396.291 C 1130.379 394.206, 1131.489 390.475, 1132.345 388 C 1133.754 383.925, 1135.324 376.631, 1138.156 361 C 1139.718 352.381, 1138.683 308.440, 1136.803 303.500 C 1135.965 301.300, 1134.969 296.986, 1134.588 293.913 C 1133.531 285.372, 1127.534 269.361, 1122.628 261.983 C 1120.207 258.343, 1117.216 253.371, 1115.979 250.933 C 1111.555 242.208, 1095.246 226.194, 1085.779 221.278 C 1076.012 216.207, 1060.825 219.706, 1024.123 235.485 C 1017.067 238.518, 1010.389 241, 1009.282 241 C 1008.175 241, 1006.197 241.835, 1004.885 242.855 C 1003.573 243.875, 1000.700 245.275, 998.500 245.967 C 996.300 246.658, 990 249.805, 984.500 252.959 C 979 256.113, 970.169 261.013, 964.876 263.847 L 955.252 269 940.626 269 L 926 269 925.991 257.750 C 925.983 247.832, 925.690 245.908, 923.522 241.500 C 922.169 238.750, 921.048 235.979, 921.031 235.343 C 920.858 228.918, 907.343 209.253, 895.499 198.192 C 884.941 188.333, 858.140 172.985, 842.788 168.008 C 839.330 166.887, 835.668 165.495, 834.651 164.915 C 833.634 164.334, 829.809 163.061, 826.151 162.085 C 822.493 161.110, 811.625 158.006, 802 155.189 C 781.290 149.126, 765.432 147.281, 725.510 146.291 L 701.521 145.696 693.563 141.848 C 686.386 138.377, 684.816 137.997, 677.553 137.968 C 672.062 137.947, 668.882 137.469, 667.559 136.468 C 666.491 135.661, 664.602 135, 663.361 135 C 661.344 135, 661.072 134.443, 660.802 129.750 L 660.500 124.500 649.250 124.217 L 638 123.934 638 120.002 C 638 114.528, 636.467 114, 620.566 114 L 607 114 607 107.607 C 607 99.805, 607.373 100, 592.418 100 C 581.829 100, 581 99.861, 581 98.082 C 581 93.068, 580.780 93, 564.452 93 C 555.308 93, 548.869 92.596, 548.500 92 C 547.122 89.770, 538.439 90.899, 534.400 93.833" stroke="none" fill="black" fill-rule="evenodd"/>
  </g>
</svg>