<?xml version="1.0" encoding="iso-8859-1"?>
<!-- Generator: Adobe Illustrator 25.3.0, SVG Export Plug-In . SVG Version: 6.00 Build 0)  -->
<svg version="1.1" id="Calque_1" xmlns="http://www.w3.org/2000/svg" xmlns:xlink="http://www.w3.org/1999/xlink" x="0px" y="0px"
	 viewBox="0 0 80.8 35" style="enable-background:new 0 0 80.8 35;" xml:space="preserve">
<g>
	<path d="M2.3,20.6c0,0.3-0.1,0.8,0,1c0.5,0.5,1.1,1.1,1.8,1.4c1.6,0.6,3.3,1.1,4.9,1.5c1.2,0.3,2.4,0,3.3-0.9
		c0.7-0.8,1.3-1.6,1.5-2.8c0.1-0.9,0.6-1.7,0.9-2.5c0.2-0.5,0.6-0.5,1-0.2c0.1,0.1,0.1,0.2,0.2,0.3c1.3,1.2,1.9,1.2,3.4,0.2
		c0.2-0.1,0.4-0.1,0.6-0.1c-0.1,0.2,0,0.5-0.2,0.6c-0.6,0.9-1.5,1.2-2.5,0.9c-0.6-0.1-1.1-0.4-1.6-0.7c-0.5-0.3-0.7-0.4-0.8,0.3
		c-0.3,2.4-1.3,4.3-3.5,5.4c-0.1,0-0.2,0.2-0.3,0.2c0.1,0,0.2,0.1,0.3,0.1c1.2,0.2,2.3-0.1,2.9-1.2c0.1-0.1,0.2-0.2,0.3-0.4
		c0.1,0.2,0.2,0.5,0.1,0.7c-0.2,0.4-0.5,0.8-0.8,1.2c-0.1,0.1-0.1,0.2-0.1,0.3c0.1,0,0.2,0.1,0.3,0c1.7-0.3,3.1-1.1,4.3-2.4
		c0.7-0.7,1-1.6,0.7-2.6c0-0.1-0.1-0.2-0.1-0.3c0.1-0.2,0.2-0.4,0.3-0.5c0.1,0.1,0.3,0.2,0.4,0.3c0.4,1.3,0.3,2.5-0.6,3.6
		c-0.1,0.1-0.1,0.3-0.2,0.4c0.1,0,0.2,0,0.3,0c2.2-0.6,4.5-1.2,6.7-1.9c1.1-0.3,2.2-0.8,3.3-1.2c0.2-0.1,0.3-0.4,0.5-0.6
		c-0.2-0.1-0.5-0.2-0.7-0.2c-0.6,0.1-1.3,0.3-1.9,0.4c-1.2,0.3-2.3,0.5-3.5,0.8c-0.8,0.2-1.5-0.2-2.1-0.7c-1-0.7-1.1-1.8-0.1-2.5
		c0.5-0.4,1.3-0.6,1.9-0.7c0.4-0.1,0.8,0,1.2,0c0.1,0,0.3-0.3,0.3-0.4c-0.2-0.6,0.2-0.8,0.6-0.8c0.4,0,0.9,0.2,1.3,0.5
		c0.1,0,0,0.5-0.1,0.6c-0.6,0.7-1.3,1-2.2,1c-0.5,0-1-0.1-1.4,0c-0.8,0.1-1.5,0.7-1.4,1.3c0,0.5,0.7,1.1,1.4,1.1
		c0.5,0,1.1,0,1.6-0.1c0.9-0.2,1.8-0.4,2.6-0.8c1.5-0.7,3-0.5,4.5,0.1c0.2,0.1,0.4,0.3,0.5,0.4c-0.2,0.1-0.3,0.3-0.5,0.4
		c-2.5,0.9-4.8,2.2-7.4,2.6c-0.2,0-0.4,0.2-0.7,0.3c0,0,0,0.3,0.1,0.3c0.3,0.1,0.7,0.3,1,0.3c1.1-0.1,1.9,0.5,2.4,1.3
		c0.6,1.1,1.5,1.3,2.6,1.3c1.3,0,2.5-0.1,3.7,0.4l0,0c0.5,0.6,1,1.1,1.5,1.7c0.1,0.2,0,0.3-0.2,0.2c-0.4-0.3-0.8-0.5-1.2-0.8
		c-0.9-0.8-2-1-3.2-1c-1.4,0-1.4,0-0.8,1.3c0,0.1,0.1,0.2,0.1,0.3c-0.2,0-0.4,0.1-0.5,0c-0.6-0.5-1.4-1-1.8-1.7
		c-1.3-2.5-3.5-2.5-5.8-2.3c-0.3,0-0.6,0.1-0.9,0.2c-0.2,0-0.3,0.1-0.4,0.2c0.1,0.1,0.2,0.3,0.4,0.4c2.2,1.4,4.4,2.8,6.6,4.1
		c1.2,0.7,2.4,1.3,3.6,1.9c0.1,0.1,0.3,0,0.5,0c-0.1-0.1-0.1-0.3-0.2-0.4c-0.4-0.4-0.8-0.9-1.2-1.3c-0.1-0.1,0-0.3,0-0.5
		c0.2,0,0.4-0.1,0.5,0c0.5,0.4,1,0.8,1.5,1.3c0.8,0.7,1.5,1.5,2.2,2.3c0.3,0.3,0.6,0.6,0.8,1c0.1,0.2,0.1,0.6-0.4,0.5
		c-0.5-0.1-0.9-0.2-1.4-0.4c-2.9-1.3-5.9-2.5-8.6-4.2c-0.9-0.6-1.9-0.9-2.9-1.3c-0.7-0.3-1.4-0.5-1.9-0.9c-1.7-1.2-3.6-1.6-5.6-1.5
		c-1.9,0.1-3.7-0.1-5.3-1.3c-0.7-0.5-1.5-0.7-2.3-1c-0.7-0.3-1,0-0.8,0.7c0.2,0.7,0.5,1.4,0.8,2.2c0.2,0.5,0.4,1,0.5,1.5
		C7.2,29,7,29.4,7,29.4c-1.2,0.1-0.7,0.8-0.6,1.4c0,0.1-0.1,0.3-0.2,0.3c-0.2,0-0.4-0.1-0.4-0.2c-0.4-1-0.8-2-1.1-3
		c0-0.1,0-0.3-0.1-0.3c-0.5-0.6-1-1.3-1.5-1.9c-0.5,0.7-0.9,1.4-0.9,2.3c0,1.8-1,3.4-1.7,5c-0.1,0.1-0.3,0.2-0.4,0.3
		c0-0.2-0.2-0.5-0.1-0.6c0.7-1.5,1.2-3.1,1.5-4.7c0.3-1.4,0.2-2.7,0-4c-0.2-1.2-0.7-2.5,0.5-3.5c0.1,0,0.2-0.1,0.3,0
		C2.4,20.4,2.3,20.6,2.3,20.6z"/>
	<path d="M54.8,15.8c0.2,0.2,0.4,0.3,0.5,0.5c0.4,0.3,0.7,0.6,1.1,0.9c-0.3,0.2-0.7,0.5-1,0.7c-0.4,0.3-0.1,0.5,0.2,0.6
		c1.1,0.1,2.1,0.3,3.2,0.2c1.6-0.2,3.2-0.5,4.7-0.9c1.7-0.5,3.3-1.2,5-1.8c2.5-0.9,5.1-1.7,7.6-2.4c1.3-0.4,2.7-0.4,4.1-0.5
		c0.2,0,0.4,0.1,0.5,0.2c0.1,0.1,0,0.4-0.1,0.5c-1.8,1.8-3.4,3.7-4.4,6c0,0.1-0.2,0.1-0.3,0.2c-0.1,0-0.2-0.1-0.2-0.1
		c-1-1-0.2-1.8,0.1-2.8c0.2-0.5,0.7-1,0.3-1.5c-0.4-0.5-1,0-1.5,0.1c-2.5,0.7-4.9,1.5-7.3,2.6c-1.2,0.5-1.7,1.4-1.8,2.8
		c-0.1,4.7,0,4.9,4.7,6.1c1.3,0.3,2.7,0.3,4.1,0.6c0.8,0.2,1.1-0.2,0.8-1c-0.2-0.7-0.4-1.4,0.4-1.9c0.1,0,0.2,0,0.3,0
		c0.3,0.3,0.6,0.6,0.8,0.9c0.5,1.3,1.5,2.3,2.6,3c0.2,0.1,0.3,0.4,0.4,0.5c-0.2,0.2-0.5,0.5-0.7,0.4c-1.7-0.1-3.3-0.1-5-0.3
		c-3-0.4-6-1.2-8.7-2.5c-2.2-1.1-4.6-1.6-6.9-2.2c-1.7-0.4-3.6-0.4-5.3,0.1c-0.1,0-0.2,0.2-0.3,0.3c0.1,0.1,0.2,0.2,0.2,0.2
		c2.3,0.1,2.2,1.7,2.1,3.3c-0.1,1.5-0.2,3-0.4,4.6c-0.1,0.8-0.5,1.1-1.4,0.8c-1.1-0.4-2.2-0.8-3.2-1.5c-1.9-1.1-3.7-2.4-5.5-3.6
		c-0.2-0.1-0.4-0.3-0.6-0.4c-1.7-1.3-3.6-0.9-5.5-0.8c-0.1,0-0.2,0.1-0.2,0.2c0,0.1,0.1,0.2,0.2,0.3c0.9,0.3,1.2,0.9,1.1,1.8
		c0,0.1-0.1,0.2-0.2,0.3c-0.1,0-0.3,0-0.3-0.1c-0.3-1.5-1.8-1.6-2.8-2.2c-0.2-0.1-0.4-0.2-0.6-0.4c-0.2-0.3-0.2-0.6,0.2-0.7
		c0.2-0.1,0.5-0.1,0.7,0c2,0.1,4.1,0.2,6.1,0.1c1,0,2.1-0.5,3.1-0.8c1.3-0.4,2.5-0.9,3.7-1.3c0.2-0.1,0.4,0,0.6,0
		c-0.1,0.2-0.2,0.5-0.4,0.6c-1.3,0.5-2.6,0.9-3.9,1.4c-0.3,0.1-0.6,0.1-0.9,0.2c-0.4,0.1-0.5,0.6-0.2,0.8c0.8,0.6,1.6,1.2,2.5,1.8
		c1.6,1,3.2,2,4.8,3c0.3,0.2,0.7,0.3,1,0.4c0.6,0.3,0.9,0,1.1-0.5c0.5-1.8,0.4-3.6,0.3-5.5c0-0.3-0.5-0.6-0.8-0.8
		c-0.8-0.4-1.7-0.6-2.5-1c-0.5-0.2-0.5-0.6,0-0.9c0.2-0.1,0.4-0.3,0.6-0.3c1.7-0.2,3.3-0.6,5-0.3c1.5,0.3,3.1,0.4,4.6,0.9
		c0.4,0.1,0.8,0.1,1.2,0.1c0.8-0.1,1.3-0.6,1.4-1.4c0.1-0.5,0-1.1,0-1.6c0.3-2-0.3-2.5-2.7-2.7c-1.8-0.1-3.7,0-5.6,0
		c-0.6,0-1.2-0.1-1.8-0.2c-0.2-0.1-0.6-0.3-0.6-0.5c0-0.2,0.2-0.6,0.5-0.6c0.9-0.3,1-1,0.8-1.7c0-0.1-0.1-0.2-0.1-0.3
		C54.6,15.7,54.7,15.7,54.8,15.8z"/>
	<path d="M2.1,20.4c1.2-0.6,2.4-1.2,3.7-1.8c0.2-0.1,0.3-0.1,0.5-0.2c3-1.7,8.6-3.9,12.3-4.8c2.1-0.5,4.3-1.1,6.4-1.6
		c0.5-0.1,1.1-0.2,1.6-0.2c2.3,0,4-1.2,5.2-2.9c1-1.4,2.1-2.5,3.2-3.8c1.5-1.8,3-3.6,5-5c0.5-0.3,0.8-0.4,1.2,0.1
		c0.4,0.5,1.1,0.8,1.1,1.6C42.2,1.9,42,2,42,2c-0.6-0.3-1.3-1-1.8-0.9c-0.5,0.1-0.9,1-1.4,1.5c-2.3,2.6-3.7,5.8-5.8,8.5
		c-0.4,0.5-0.3,0.8,0.3,0.9c0.3,0.1,0.7,0.1,1,0.2c0.2,0.1,0.3,0.3,0.4,0.4c-0.1,0.1-0.3,0.2-0.4,0.3c-0.2,0-0.4,0-0.5,0
		c-1.7-0.1-1.9-0.4-1.6-2.1c0-0.2-0.1-0.4-0.1-0.6c-0.1,0.1-0.3,0.2-0.4,0.4c-0.2,0.3-0.3,0.7-0.4,1c-0.7,1-1.6,1.1-2.7,0.9
		c-0.2,0-0.3,0-0.5,0c0.1,0.2,0.1,0.4,0.2,0.4c0.8,0.5,1.4,1.1,1.9,1.9c0.5,0.8,1.4,1.1,2.4,1c0.1,0,0.4-0.1,0.4-0.3
		c0-0.1-0.1-0.3-0.2-0.4c-0.6-0.4-1.3-0.7-1.9-1.1c-0.1-0.1-0.2-0.3-0.2-0.5c0-0.1,0.3-0.3,0.4-0.2c1.1,0.5,2.3,1,3.4,1.5
		c0.4,0.2,0.3,0.6,0,0.9c-0.5,0.7-2.1,1.2-2.9,0.9c-0.8-0.3-1.6-0.7-2.2-1.5c-0.3-0.4-0.6-0.8-1-1c-0.7-0.4-1.2-1-2.2-0.8
		c-1.3,0.3-2.4,0.7-3.4,1.4c-0.2,0.1-0.1,0.7,0,0.9c0.3,0.4,0.7,0.6,1.1,0.9c0.1,0.1,0.2,0.3,0.3,0.4c-0.2,0-0.3,0.2-0.5,0.1
		c-1-0.2-1.7-0.9-1.8-1.7c-0.1-0.7,0.4-1.5,1.3-1.9c0.3-0.2,0.6-0.3,1-0.4c-0.4,0-0.8-0.1-1.2-0.1c-0.8,0.1-1.6,0.4-2.4,0.6
		c-0.2,0-0.5,0-0.5,0.2c-0.7,1.6-2.5,1.3-3.7,2.1c-0.8,0.5-1.7,0.7-2.5,0.9c-0.7,0.2-1.5,0.3-0.9,1.4c0.1,0.1-0.4,0.7-0.7,0.8
		c-0.3,0.1-0.8-0.1-1.1-0.2c-0.1-0.1-0.2-0.5-0.1-0.8c0.1-0.4,0.4-0.7,0.6-1.1c0,0-0.2-0.3-0.2-0.3c-0.5,0.1-0.9,0.3-1.3,0.5
		c-0.1,0,0,0.2,0,0.4c0,0.2,0.1,0.4,0.1,0.5c-0.4,0.2-0.8,0.4-1.3,0.6c-0.1,0-0.3-0.1-0.4-0.1c-0.5-0.3-0.7-0.3-0.7,0
		c0,0.3-0.1,0.6,0,0.8c0.2,0.5,0.1,0.9-0.2,1.1c-0.2,0.2-0.6,0.3-0.9,0.2c-0.1,0-0.3-0.4-0.3-0.7c0-1,0-1-0.9-0.6
		c-1,0.4-2.1,0.8-3.2,1.2C2.2,20.6,2.1,20.5,2.1,20.4z"/>
	<path d="M54.6,16c-1.6-1.4-3.3-1.3-5-0.2c-0.9,0.6-2,0.6-3,0.4c-1.6-0.3-3.1-0.7-4.7-1.1c-1-0.3-2-0.7-3.1-1
		c-0.5-0.2-1.1-0.2-1.6-0.4c-0.5-0.2-1-0.6-1.5-0.8c0.6-0.5,1.1,0,1.6,0.1c1.7,0.5,3.3,1,5,1.4c0.4,0.1,0.9-0.1,1.4-0.2
		c0.8-0.3,1.5-0.8,2.3-1.1c0.3-0.1,0.7-0.1,1-0.1c0.2-0.1,0.3,0,0.2,0.2c-0.8,0.5-1.6,0.9-2.4,1.4c-0.1,0.1-0.2,0.3-0.3,0.4
		c0.1,0.1,0.3,0.2,0.4,0.2c1.7,0.4,3.5,0.7,5.2-0.3c0.1,0,0.1-0.1,0.2-0.1c2.3-1.1,2.7-1,4.6,1C54.7,15.8,54.7,15.9,54.6,16z"/>
	<path d="M47,12.9c0.9-1.4,0.9-1.5-0.2-2.8c-0.6-0.7-1.2-1.4-1.8-2.2c-0.3-0.4-0.3-0.8-0.5-1.3l0.1-0.1c1.8,1.3,2.8,3.1,4.2,4.8
		c0.5,0.6,0.4,0.8-0.3,1.2c-0.4,0.2-0.9,0.4-1.3,0.6C47.2,13.1,47.1,13,47,12.9z"/>
	<path d="M37.2,31.5c0.4,0.2,0.8,0.3,1.1,0.5c0.8,0.4,0.8,0.4,1.2-0.6c0-0.1,0.1-0.2,0.2-0.3c0.1,0.1,0.2,0.1,0.2,0.2
		c0.3,0.6,0.6,1.3,0.8,2c0.1,0.1,0.1,0.4,0,0.4c-0.1,0.1-0.4,0.1-0.5,0.1c-1.1-0.6-2.5-0.9-3.3-2C36.9,31.5,37,31.4,37.2,31.5z"/>
	<path d="M75.9,19.8c0,0.3,0.1,0.6,0.1,0.9c-0.6,1.4-0.2,2.7,0,4.1l0,0c-1.8,0.2-1.8-1.1-1.9-2.3C74,20.7,74.5,20,75.9,19.8
		L75.9,19.8z"/>
	<path d="M42.2,1.9c1.2,1.4,2,2.9,2.5,4.7l-0.1,0.1C43.2,5.4,42.4,3.8,42,2L42.2,1.9z"/>
	<path d="M33.5,27.7c0-0.7,0.5-0.8,1.1-0.7c0.1,0,0.2,0.2,0.3,0.3c0,0.1-0.1,0.2-0.2,0.3C34.3,27.6,33.9,27.6,33.5,27.7L33.5,27.7z"
		/>
	<path d="M35,29.3c0.5,0.2,1,0.5,1.1,1.1c0.1,0.2,0,0.3-0.2,0.2c-0.6-0.1-0.9-0.5-1.1-1.1C34.9,29.5,34.9,29.4,35,29.3z"/>
	<path d="M37,31.7c-0.5-0.2-1-0.5-1.1-1.1c0.1-0.1,0.2-0.1,0.2-0.2c0.4,0.4,0.7,0.7,1.1,1.1C37.1,31.5,37,31.6,37,31.7z"/>
</g>
</svg>
