<?xml version="1.0" encoding="iso-8859-1"?>
<!-- Generator: Adobe Illustrator 25.3.0, SVG Export Plug-In . SVG Version: 6.00 Build 0)  -->
<svg version="1.1" id="Calque_1" xmlns="http://www.w3.org/2000/svg" xmlns:xlink="http://www.w3.org/1999/xlink" x="0px" y="0px"
	 viewBox="0 0 82.9 29.2" style="enable-background:new 0 0 82.9 29.2;" xml:space="preserve">
<g>
	<path d="M54.4,18.4c0.1,0.1,0.3,0.2,0.4,0.4c0.1,0.1,0.2,0.3,0.3,0.4c-0.1,0-0.3,0.1-0.4,0.1c-0.1,0-0.1-0.1-0.2-0.1
		c-0.2,0-0.4,0-0.5,0c0.1,0.1,0.3,0.2,0.4,0.4c0.1,0.1,0.2,0.3,0.2,0.4c-0.2,0-0.3,0.1-0.5,0.1c-1.1-0.4-2.1-0.8-3.2-1.2
		c-0.7-0.3-1.3-0.5-2-0.8c-0.1,0-0.3,0-0.5,0.1c0.1,0.1,0.2,0.3,0.3,0.4c1.2,0.9,2.4,1.7,3.6,2.6c0.1,0.1,0.1,0.2,0.2,0.4
		c-0.1,0-0.2,0.1-0.3,0.1c-0.4,0.1-0.9-0.8-1.1,0.3c-0.2-0.1-0.5,0-0.6-0.2c-1-0.7-1.9-1.4-2.8-2.1c-0.7-0.6-1.3-1.2-2.2-1.3
		c0.5,0.6,1,1.3,1.5,1.9c0.7,0.8,1.4,1.4,2.1,2.2c0.1,0.1,0.2,0.4,0.3,0.6c-0.3-0.1-0.6,0-0.7-0.2c-0.7-0.6-1.4-1.3-2.1-2
		c-0.6-0.5-1.1-1.1-1.7-1.6c-0.2-0.2-0.4-0.3-0.7-0.4c0.1,0.3,0.1,0.6,0.3,0.8c0.8,1,1.6,1.9,2.3,2.9c0.2,0.2,0.2,0.6,0.3,0.9
		c-0.2-0.1-0.5-0.2-0.7-0.4c-1-1.2-2-2.3-3-3.5c-0.1-0.1-0.2-0.3-0.3-0.4c0,0.2-0.1,0.4-0.1,0.5c0.5,1.5,1,3,2,4.3
		c0.1,0.1,0,0.3,0,0.5c-0.1-0.1-0.4-0.1-0.4-0.2c-0.8-1.5-1.7-3-2.5-4.5c-0.2-0.3-0.5-0.7-0.7-1c0,0.4-0.1,0.9,0.1,1.3
		c0.4,1.2,1,2.4,1.4,3.6c0.1,0.1,0,0.3,0,0.5c-0.1-0.1-0.4-0.1-0.4-0.2c-0.7-1.4-1.3-2.8-2-4.1c-0.1-0.2-0.3-0.3-0.4-0.4
		c0,0.2-0.2,0.3-0.1,0.5c0.4,1.4,0.5,2.9,1.3,4.2c0.1,0.2,0,0.4-0.1,0.7c-0.2-0.1-0.4-0.3-0.5-0.4c-0.2-0.4-0.5-0.8-0.6-1.3
		c-0.4-1.3-0.7-2.6-1-3.9c-0.1-0.3-0.1-0.6-0.2-0.8c-0.2,0.2-0.5,0.4-0.6,0.7c-0.1,0.4-0.2,0.8-0.1,1.2c0.2,1,0.4,1.9,0.6,2.9
		c0,0.2-0.1,0.4-0.2,0.6c-0.2-0.2-0.4-0.3-0.5-0.5c-0.2-0.4-0.3-0.9-0.3-1.4c-0.2-0.7-0.3-1.5-0.4-2.3c-0.2-1.5-0.2-1.5-1.7-1.4
		c-0.3,0-0.6,0.1-0.9,0.1c-0.1,0-0.3-0.1-0.4-0.2c0.1-0.1,0.2-0.3,0.3-0.3c1.6-0.2,3.3-0.4,5-0.2c2.2,0.3,4.4,0,6.6-0.1
		c0.4,0,0.7-0.1,1.1-0.1c2.6,0.1,5.2-0.4,7.8-0.8c1.4-0.2,2.8-0.5,4.2-0.6c2.7-0.2,5.5-0.4,8.2-0.3c1.3,0,2.7,0.4,4,0.7
		c0.6,0.2,0.9,0,1.1-0.5c0.4-0.8,0.5-1.6,0.1-2.4c-0.4-0.7-1.8-0.9-2.7-0.7c-1.7,0.4-3.4,0.7-5,1.1c-0.1,0-0.2,0-0.4,0.1
		c-0.5,0.2-1.2,0.2-1.5,0.8c-0.3-0.6-0.9-0.5-1.4-0.5c-0.6-0.1-0.9,0.1-0.7,0.7c0,0-0.3,0.1-0.3,0.1c-0.4-0.6-1.2,0.3-1.6-0.3
		c-0.4,0.7-0.9,0.2-1.3,0.1c-3.6-0.5-7.2-0.3-10.7-1C43.6,13,40,12,36.3,11.1c-0.5-0.1-1-0.4-1.5,0.2c-0.1,0.2-0.4,0.2-0.6,0.3
		c-0.1,0-0.2,0.1-0.4,0c-1-0.2-0.6,1.1-1.3,1.2c-0.6,0.1-1.2,0.2-1.7,0.4c0.1,0.1,0.2,0.2,0.2,0.2c0.3,0.3,0.2,0.5-0.2,0.6
		c-2.6,0.8-5.2,1.6-7.9,1.9c-0.4,0-0.8,0.1-1,0.6c-0.1,0.6,0.3,0.8,0.7,0.9c0.7,0.2,1.4,0.5,2.1,0.5c2.2,0.1,4.3,0,6.5,0.1
		c0.2,0,0.4,0.1,0.6,0.2c-0.2,0-0.3,0.1-0.5,0.1c-1.6,0-3.2,0-4.9,0.1c-0.3,0-0.6,0.1-1,0.2c0.2,0.2,0.4,0.4,0.7,0.5
		c2.8,2.1,5.9,3.4,9.2,4.5c0.4,0.1,0.8,0.2,1.2,0.4c0.1,0.1,0.3,0.2,0.4,0.3c-0.2,0.1-0.4,0.2-0.5,0.2c-1.6-0.5-3.3-1-4.9-1.7
		c-3.1-1.4-6.1-2.9-9.1-4.5c-0.3-0.1-1.1,0.6-1-0.6c0-0.8-0.2-1.6,0.5-2.2c0.3-0.2,0.5-0.5,0.8-0.7c0.1-0.1,0.1-0.3,0-0.3
		c-0.6-0.5-0.2-0.7,0.3-0.8c0.6-0.2,1.2-0.4,1.8-0.7c0.1-0.1,0.2-0.3,0.3-0.4c-0.1-0.1-0.3-0.2-0.5-0.2c-0.3,0-0.6,0-0.9,0.1
		c-0.3,0-0.7,0.5-0.8-0.1c0-0.1,0.5-0.5,0.8-0.6c1.7-0.3,3.4-0.5,5.1-0.9c0.6-0.1,1.6,0.5,1.9-0.6c0,0,0.4,0,0.7,0.1
		c0.5,0.1,0.9,0.1,1.4,0.2c0.1,0,0.2-0.1,0.3-0.1c-0.1-0.1-0.1-0.2-0.2-0.3c0,0-0.1-0.1-0.1-0.1C29.3,8.2,26,6.6,22.2,6.3
		C21.5,6.2,20.8,6,20.1,6c-0.6-0.1-0.5,0.5-0.7,0.8c-0.4,0.6,1.7,0.5,0.2,1.1C19.8,7.9,20,8.1,20.1,8c0.6-0.2,1.4-0.2,1.8-0.6
		c0.7-0.5,1.3-0.5,2-0.3c1.2,0.3,1.3,0.7,0.4,1.6c-0.5,0.6-1.1,1.1-1.6,1.7c-0.5,0.6-1.1,1.2-1.4,1.8c-0.6,1.8-1.9,3.2-3.1,4.5
		c-1,1.1-2.4,1.8-3.9,1.8c-0.3,0-0.6-0.2-0.9-0.4c0.2-0.2,0.4-0.4,0.7-0.5c0.5-0.3,1-0.5,1.4-0.7c1.7-0.8,3.2-1.9,4.1-3.4
		c1.2-1.9,2.6-3.5,4.1-5.1C23.9,8.3,23.9,8.1,24,8c-0.2-0.1-0.4-0.2-0.6-0.2c-0.3,0-0.7,0.2-1,0.3c-0.4,0.2-0.9,0.4-1.3,0.6
		c-1.4,0.4-2.2-0.1-2.4-1.5c-0.1-0.5,0.1-1.1-0.8-1c-1.4,0.1-2,0.5-1.9,1.3c0.5,2.3-1.1,3.4-2.7,4.3C11.7,12.7,9.8,13.2,8,12
		c-0.2-0.2-0.5-0.3-0.7-0.5C7,11.3,6.8,11,6.6,10.8c-0.3,0.2-0.5,0.5-0.8,0.7c-0.8,0.7-1.7,1.3-2.6,2c-0.4,0.3-0.7,0.6-1.1,0.9
		c-0.4,0.5-0.4,0.8,0.3,0.8c1.1,0,2.2-0.1,3.3-0.2c0.9-0.1,1.7-0.4,2.6-0.5c0.7-0.1,1.3-0.1,1.7,0.6c0.4,0.7,0.4,1.4,0,2
		c-0.4,0.7-1.1,0.6-1.8,0.6c-1.3-0.1-2.6-0.7-4-0.6c-0.1,0-0.2-0.1-0.3-0.2c-0.2-0.2-0.4-0.2-0.7-0.2c0.2,0,0.5,0,0.6,0.2
		c1.4,0.2,2.9,0.5,4.3,0.7C8.5,17.8,8.7,18,8.9,18c1.7,0.3,3.4,0.6,5.1,0.9c0.8,0.1,1.5,0.2,2.3,0.2c0.3,0,0.7-0.1,0.8-0.3
		c0.2-0.7,0.6-0.3,1-0.3c0.9,0,1.9-0.5,2.7-0.2c0.7,0.3,1.2,1.3,1.8,1.9c0.8,0.9,1.8,1.6,2.5,2.5c1.6,1.7,3.3,3.3,5.6,4.1
		c0.2,0.1,0.3,0.3,0.5,0.4c-0.2,0-0.5,0.2-0.7,0.1c-1.9-0.9-3.7-1.8-5.1-3.4c-1.4-1.5-3-2.8-4.6-4.2c-0.2-0.2-0.5-0.2-0.8-0.3
		c0,0.3-0.1,0.6,0,0.9c0.4,1,0.9,1.9,1.3,2.9c0.8,2,1.6,3.9,2.9,5.7c0.1,0.1,0,0.2,0,0.3c-0.1,0-0.4,0.1-0.4,0
		c-0.6-0.9-1.3-1.7-1.8-2.6c-1.1-2-2.1-4.1-3.2-6.2c-0.1-0.1-0.2-0.2-0.3-0.3c-0.1,0.2-0.2,0.3-0.2,0.5c0,1.3,0.1,2.6,0.2,3.9
		c0,1-0.1,2,0.5,2.9c0.1,0.1,0,0.3,0,0.5c-0.2,0-0.4,0-0.4-0.1c-0.2-0.4-0.5-0.8-0.6-1.2c-0.2-2-0.3-4-0.4-6c0-0.7-0.2-1-0.9-1
		c-2.4,0.2-4.7-0.5-7-1c-1.1-0.2-2.2-0.2-3.4-0.4c-1.6-0.2-3.3-0.5-4.9-0.8C1,17.2,0.6,17,0.3,16.8c-0.3-0.2-0.4-0.6-0.1-0.9
		c1.4-1.6,2.8-3.3,4.7-4.4C5.7,10.9,6.4,9.9,7,9c1.6-2.2,3.5-3.9,6.4-3.9c0.8,0,1.2-0.5,1.7-0.9c0.1-0.1,0.4-0.2,0.5-0.1
		c0.1,0,0.2,0.3,0.2,0.4c0,0.3-0.5,0.7,0.1,0.8c0.5,0.1,0.9,0.7,1.5,0.2c0.2-0.2,0.4-0.2,0.5-0.4c0.5-0.7,0.7-0.9,1.4-0.1
		c0.7,0.9,1.8,0.5,2.2-0.6c0.5-1.7,1.6-3,2.7-4.3c0.1-0.1,0.3-0.1,0.4-0.2c0,0.2,0.1,0.5,0,0.6c-0.5,0.7-1.1,1.4-1.6,2.1
		c-0.2,0.3-0.4,0.7-0.6,1.1c-0.1,0.1,0,0.3,0,0.5c0.2,0,0.4-0.1,0.5-0.2c0.8-0.6,1.5-1.3,2.3-1.9c0.9-0.6,1.8-1.1,2.8-1.6
		c0.1-0.1,0.3,0,0.5,0.1c-0.1,0.1-0.1,0.4-0.2,0.4c-0.7,0.4-1.4,0.7-2,1.1c-0.1,0.1-0.2,0.3-0.1,0.4c0.1,0.1,0.3,0.3,0.4,0.3
		c0.6-0.2,1.2-0.4,1.8-0.6c0.3-0.1,0.7-0.3,1-0.3c0.2,0,0.4,0.1,0.6,0.2c-0.1,0.1-0.3,0.2-0.4,0.3c-0.7,0.3-1.4,0.6-2.2,0.8
		c-0.6,0.2-1.2,0.6-1.4,1.3c0,0.1-0.1,0.4,0,0.5c0.1,0.1,0.3,0.1,0.5,0.1c1.7-0.4,3.3-0.8,5-1.2c0.3-0.1,0.6-0.1,0.9-0.2
		c0.1,0,0.3,0.1,0.4,0.2c-0.1,0.1-0.2,0.2-0.3,0.2c-0.3,0.2-0.6,0.4,0,0.7c0.3,0.1,0.5,0.4,0.7,0.6c0.1,0.1,0.2,0.2,0.3,0.4
		c-0.2,0.1-0.3,0.1-0.5,0.2c-0.2,0.1-0.3,0.1-0.5,0.2c0.1,0.1,0.2,0.3,0.4,0.4c0.2,0.1,0.3,0.1,0.5,0.1c0.3,0,0.6,0.1,0.9,0.2
		c-0.2,0.1-0.5,0.2-0.6,0.4c-0.1,0.1,0,0.4,0.2,0.5c0.4,0.4,0.9,0.7,1.3,1.1c0.1,0.1,0.3,0.1,0.3,0.2c0,0.3,0,0.7,0,1
		c0.3-0.4,0.6-0.7,0.8-1.1c0.2-0.4,0.3-0.9,0.5-1.3c0.1-0.1,0.3-0.2,0.4-0.2c0.1,0,0.2,0.3,0.2,0.4c-0.2,0.7-0.5,1.5-0.7,2.2
		c0,0.1,0,0.2-0.1,0.3c0.2,0,0.4,0.1,0.5,0C38,9.6,38.8,8.8,39.7,8c0.6-0.5,1-1.1,1.6-1.6c0.3-0.3,0.5-0.8,1.1-0.6
		C42.2,6.2,42,6.6,41.8,7c-0.1,0.1-0.2,0.1-0.3,0.2c-0.2,0.1-0.4,0.3-0.5,0.4c0.1-0.1,0.2-0.2,0.4-0.3c0.1-0.1,0.3-0.2,0.4-0.3
		c1-0.1,1.7-0.8,2.4-1.5c0.1-0.1,0.3-0.1,0.4-0.1c0,0.2,0,0.3-0.1,0.5c-0.1,0.2-0.2,0.4-0.4,0.6c0.3-0.1,0.6-0.1,0.8-0.2
		c0.5-0.2,0.9-0.6,1.4-0.8c0.2-0.1,0.6,0.3,0.8,0.2c0.3-0.1,0.6-0.4,0.8-0.6c0,0,0.3,0.1,0.3,0.1c0,0.2-0.1,0.3-0.1,0.5
		C48,5.8,47.9,6,47.8,6.2C48,6.1,48.1,6,48.3,5.9c0.5-0.4,0.9-1.1,1.7-0.8c-0.5,0.4-0.9,0.9-1.4,1.3c-1,0.8-2.1,1.6-3.1,2.4
		c-0.2,0.2-0.3,0.5-0.4,0.7c0.3,0,0.7,0.1,1,0c0.4-0.1,0.7-0.4,1-0.7c1.3-0.8,2.6-1.7,3.9-2.5c0.1-0.1,0.4,0,0.6,0
		c-0.1,0.1-0.2,0.3-0.3,0.4c-0.8,0.5-1.5,0.9-2.3,1.4C49,8.3,49,8.6,48.9,8.8c0.2,0.1,0.5,0.2,0.6,0.1c0.5-0.3,1-0.6,1.6-0.9
		c0.3-0.1,0.5-0.3,0.8-0.4c0.1,0,0.3,0.1,0.5,0.1c-0.1,0.1-0.1,0.3-0.2,0.4c-0.6,0.4-1.3,0.7-1.9,1c-0.2,0.1-0.2,0.3-0.4,0.5
		c0.2,0,0.4,0,0.5-0.1c0.6-0.3,1.3-0.7,1.9-1c0.3-0.1,0.8-0.1,1.2-0.2c-0.2,0.9,0.4,0.3,0.7,0.4c0,0,0.1,0.4,0,0.4
		c-0.5,0.3-1,0.6-1.6,0.9c-0.1,0.1-0.2,0.1-0.2,0.2c0.1,0,0.2,0.1,0.3,0.1c0.6-0.1,1.2-0.2,1.7-0.3c0.1,0,0.2,0.2,0.2,0.4
		c0,0.1-1.1,0,0,0.3c0.2,0,0.3,0.1,0.5,0.1c-0.1,0.1-0.1,0.3-0.3,0.3c-0.2,0.2-0.5,0.3-0.7,0.5c0.3,0,0.6-0.1,0.8-0.1
		c0.2,0,0.4,0.1,0.6,0.1c-0.1,0.1-0.2,0.3-0.3,0.4c-0.8,0.4-1.6,0.7-2.4,1.1c-0.2,0.1-0.3,0.2-0.4,0.3c0.2,0,0.4,0.1,0.5,0.1
		c2.9,0,5.8,0.2,8.6,0c2.6-0.2,5.3-0.5,7.8-1.4c3.9-1.3,7.8-1.9,11.9-1.8c1,0,0.9,0,0.8,1.1c-0.2,1.4-0.1,2.7,0.5,4
		c0.4,0.9,0.2,1.2-0.7,1.4c-1.1,0.2-2.1,0.3-3.2,0.4c-1.6,0.1-3.1,0.1-4.7,0c-1.4-0.1-2.8-0.5-4.2-0.7c-0.8-0.1-1.6-0.3-2.5-0.3
		c-1.2-0.1-2.4-0.1-3.6,0c-2.2,0.2-4.5,0.4-6.7,0.6C56.6,17,56,17,55.5,17c-0.3,0-0.6,0.1-0.9,0.2c0.3,0.2,0.5,0.6,0.8,0.7
		c0.5,0.2,1,0.2,1.2,0.7c-0.4-0.1-0.9-0.2-1.3-0.2C55,18.4,54.6,18.4,54.4,18.4c-0.2-0.2-0.4-0.2-0.6-0.2
		C54,18.2,54.2,18.2,54.4,18.4z"/>
</g>
</svg>
