<?xml version="1.0" encoding="iso-8859-1"?>
<!-- Generator: Adobe Illustrator 25.3.0, SVG Export Plug-In . SVG Version: 6.00 Build 0)  -->
<svg version="1.1" id="Calque_1" xmlns="http://www.w3.org/2000/svg" xmlns:xlink="http://www.w3.org/1999/xlink" x="0px" y="0px"
	 viewBox="0 0 84.2 30" style="enable-background:new 0 0 84.2 30;" xml:space="preserve">
<g>
	<path d="M29.1,7.9c1-0.1,2-0.2,3-0.3c0.2,0,0.4-0.1,0.5,0c1.5,0.8,2.5-0.2,3.5-1c1.6-1.2,3.1-2.5,4.8-3.7c2.2-1.4,4.6-2.1,7.2-2.6
		c1.4-0.3,2.8-0.4,4.2,0c1.9,0.5,3.3,2.2,3.3,4.3c0,2-0.9,3.2-3.1,3.7c-0.9,0.2-1.8,0.3-2.6,0.3c-0.6,0.1-1.2,0-1.8,0.1
		c-0.7,0.1-1.3,0.4-2,0.7c0.7,0.2,1.4,0.4,2.1,0.6c2.2,0.4,4.3,0.8,6.5,1.2c0.2,0,0.5,0.2,0.7,0.2c2.1,0.1,4.3,0.3,6.4,0.4
		c4.1,0.2,7.9-0.8,11.6-2.4C74.1,9,75,8.7,75.7,8.3c2.4-1.2,4.3-0.3,6,1.3c1.2,1.1,1.7,2.6,2.2,4.2c0.5,1.9,0.5,3.8-0.1,5.7
		c-1.4,4.3-3.4,4.4-6.8,3.9c-2.1-0.3-4.1-1.2-6.1-1.9c-1.6-0.5-3.2-0.8-4.8-1.2c-0.2,0-0.3,0.1-0.5,0.1c0.1,0.1,0.1,0.3,0.2,0.4
		c0.4,0.3,0.9,0.6,1.3,1c1.2,1.1,1,2.7-0.6,3.2c-1.4,0.5-2.9,0.7-4.3,1c-1.1,0.2-2-0.3-2.9-1.1c-1.1-0.9-2.3-1.7-3.5-2.5
		c-1.6-1.1-3.2-0.5-4.8-0.2c-0.7,0.2-1.4,0.4-2,0.6c-0.8,0.3-0.8,0.3-0.3,1c1,1.5,1,3.1,0.7,4.8c0,0.3-0.3,0.5-0.5,0.7
		c-0.5,0.6-1.2,0.8-1.9,0.4c-1.1-0.6-2.1-1.3-3.1-2c-0.8-0.6-1.4-1.3-2-2c-0.6-0.8-1.5-0.9-2.3-0.7c-1.4,0.4-2.8,0.2-4.3,0.3
		c-2.5,0.1-5,0.2-7.5,0.4c-0.3,0-0.4,0.1-0.3,0.4c0.1,0.4,0.4,1,0.2,1.3c-0.3,0.6-0.9,1-1.7,1.2c-0.9,0.2-1.7,0.3-2.6,0
		c-2.3-0.7-4.4-1.6-5.6-3.7c-0.3-0.5-0.6-0.3-1-0.3c-1.6-0.1-3.2-0.4-4.7-0.7c-3.3-0.8-6.7-1.7-9.7-3.5c-0.5-0.3-0.9-0.5-1.4-0.8
		c-1.1-0.7-1.1-0.7-0.7-2.2c0.1-0.4-0.1-0.8,0-1.2c0.3-0.9,1-1.6,1.9-2.1c2.7-1.5,5.6-2.5,8.7-3.2c2.8-0.6,5.5-1.3,8.3-1.9
		c2-0.4,4-0.7,6-1c1.4-0.2,2.7-0.3,4.1-0.5C29.1,7.7,29.1,7.8,29.1,7.9z"/>
	<path d="M50.9,16.4c-3.5,0-6.5,0-9.5,0c-2.9,0-5.8,0.2-8.7,0.7c-0.1,0-0.2,0-0.4,0c-2.9,0.1-5.8,0.2-8.8,0.4
		c-0.7,0-1.4,0.2-2.1,0.3c-0.5,0-1.1,0-1.6,0c-0.1,0-0.2-0.2-0.2-0.3c0-0.1,0.1-0.2,0.1-0.3c0.1-0.1,0.2-0.1,0.3-0.1
		c0.9-0.1,1.9-0.3,2.8-0.3c2.9-0.2,5.8-0.2,8.8-0.4c2.3-0.1,4.6-0.4,6.9-0.6c0.5,0,1-0.1,1.4-0.1c6.8,0,13.7,0,20.5,0
		c2.7,0,5.4-0.2,8-0.3c0.5,0,1.2-0.4,1.5,0.4c-0.5,0.1-1,0.3-1.5,0.3c-1.1,0-2.3-0.1-3.4,0C60.3,16.6,55.4,16.3,50.9,16.4z"/>
	<path d="M4.4,17.4c-0.1-0.5-0.3-1-0.4-1.5c0-0.9,0.8-1.9,1.7-2c1-0.2,1.8,0.1,2.2,0.9c0.4,0.8,0.1,2.3-0.5,2.8
		c-0.3,0.2-0.7,0.3-1,0.3C5.7,17.8,5.1,17.6,4.4,17.4L4.4,17.4z"/>
</g>
</svg>
