<?xml version="1.0" encoding="iso-8859-1"?>
<!-- Generator: Adobe Illustrator 25.3.0, SVG Export Plug-In . SVG Version: 6.00 Build 0)  -->
<svg version="1.1" id="Calque_1" xmlns="http://www.w3.org/2000/svg" xmlns:xlink="http://www.w3.org/1999/xlink" x="0px" y="0px"
	 viewBox="0 0 87.1 34" style="enable-background:new 0 0 87.1 34;" xml:space="preserve">
<g>
	<path d="M80.6,26.1c-1.7-0.2-3.4-0.3-5.2-0.5c-0.4,0-0.8,0-1.3,0c-0.2,0-0.3,0.1-0.5,0.1c0.1,0.1,0.3,0.2,0.4,0.3
		c0.6,0.6,0.7,1.4,0.2,2c-0.4,0.6-0.3,1.6-1.4,1.7c0,0-0.1,0.3-0.1,0.4c0.2,0.6-0.2,0.8-0.7,0.8c-1.3,0.1-2.4,0.7-3.4,1.4
		c-0.4,0.3-0.9,0.3-1.4,0.4c-0.6,0.1-1.1,0.1-1.4,0.7c-0.1,0.2-0.4,0.4-0.6,0.4c-1.4-0.1-2.9,0.4-4.3-0.3c-0.8-0.4-1.6-1-2.6-0.1
		c-0.1,0.1-0.6-0.1-0.8-0.2c-0.5-0.3-0.9-0.8-1.4-1.1c-0.2-0.2-0.7-0.3-0.8-0.2c-0.8,1-1.2,0.1-1.7-0.3c-0.4-0.3-0.6-0.5-1,0
		c-0.1,0.1-0.6,0-0.8-0.1c-0.2-0.2-0.3-0.5-0.5-0.8c-1-1.6-1.3-1.7-3-0.9c-0.9,0.4-1.7,0.6-2.7,0.5c-1.7-0.1-3.5-0.1-5.2-0.1
		c-1.2,0-2.4,0-3.6-0.2c-1.1-0.2-2.3,0.1-3.5,0.2c-0.8,0-1.1,0.1-0.2,0.7c0.2,0.2,0.3,0.5,0.5,0.8c0.3,0.7,0,1.3-0.8,1.4
		c-0.9,0-1.8,0-2.7-0.2c-1.6-0.4-3.2-1-4.5-2.1c-1.1-0.9-2.2-1.5-3.7-1.3c-1,0.1-2-0.3-3-0.3c-1.5-0.1-3-0.3-4.5-0.3
		c-1.5,0-2.9-0.4-4.2-1.2c-1-0.7-2.2-1.1-3.3-1.6c-1.7-0.8-3.4-1.7-4.5-3.4c-0.2-0.3-0.5-0.5-0.8-0.7c-1.6-0.7-1.6-2.2-1.9-3.6
		c-0.1-0.6,0.4-0.9,0.8-1c0.8-0.2,1.5-0.3,1-1.4c-0.1-0.4,0.2-1,0.5-1.4c1-1.5,2.7-2.3,4.2-3.3c0.9-0.5,1.6-1.2,2.4-1.8
		c1.6-1.2,3.1-2.4,4.8-3.4c1.2-0.8,2.5-1.3,3.8-2c1.6-0.8,3.2-1.2,5-1.2c1.1,0,2-0.2,2.8-1c0.5-0.5,1.1-0.8,1.9-0.7
		c0.5,0,1-0.6,1.8-0.3c0.4,0.2,1.1-0.2,1.7-0.4c0.9-0.4,1.7-0.9,2.8-0.2c0.4,0.3,1.2,0,1.7-0.1c1-0.2,2.1-0.7,2.9,0.5
		c0.1,0.2,0.6,0.2,0.9,0.2c0.7,0,1.4-0.2,2.1,0c0.6,0.1,1,0.9,1.8,0.5c0.1-0.1,0.4,0.1,0.6,0.2c0.6,0.4,1.1,0.3,1.7,0
		c0.3-0.2,0.8-0.4,1-0.3c1,0.8,1.8,0.1,2.6-0.2C49,1,49.4,0.8,49.4,0.9c0.8,0.9,1.4,0.1,2.1-0.1c0.3-0.1,0.7,0,1-0.1
		c0.6,0,1.3-0.1,1.9-0.2c0.2,0,0.4-0.2,0.5-0.1c1,0.6,2.2,0.2,3.2,0.5c0.7,0.2,1.4,0.6,2.1,0C60.4,0.8,60.8,1,61,1.1
		c0.6,0.6,1.3,0.9,2.1,1.3c1.1,0.4,2,1.3,3.2,1.3c0.6,1.4,2.3,1.4,3.2,2.3C70.4,7,71.2,8,72.1,8.9c0.6,0.6,1.4,1,1.7,2
		c0.2,0.6,0.9,1.1,0.4,1.9c-0.2,0.4,0.2,0.4,0.5,0.3c0.8-0.4,1.6-0.7,2.5-1.1c0.5-0.2,1-0.5,1.5-0.7c0.4-0.1,0.7-0.1,0.9,0.3
		c0.1,0.4,0.3,0.4,0.7,0.5c1.3,0.3,2.5,0.7,3.5,1.6c0.3,0.3,0.7,0.6,1,0.7c1.3,0.1,1.1,1.5,1.8,2c0.4,0.3-0.9,0.8,0,1.3
		c0.1,0.1,0.3,0.4,0.3,0.4c-0.8,0.9,0.3,1.7,0.1,2.7c-0.2,1.3-0.5,2.3-1.7,2.8c-0.5,0.2-0.5,0.5-0.4,0.9c0.1,0.6-1,1.3-1.8,1.4
		c-0.8,0.1-1.7,0-2.5,0C80.6,26.1,80.6,26.1,80.6,26.1z"/>
	<path d="M10.1,10.1c0.2-0.1,0.4-0.1,0.7-0.2c0.2-0.1,0.4-0.2,0.6-0.3c-0.1,0.2-0.1,0.5-0.2,0.7c-0.2,0.3-0.2,0.5,0.1,0.4
		c0.7,0,1,0.3,1.2,0.8c0,0.1,0.3,0.1,0.4,0.1c0.1-0.1,0.2-0.4,0.1-0.4c-0.2-0.3-0.6-0.6-0.7-1c-0.1-0.3-0.1-0.8,0-1
		c0.2-0.2,0.8-0.3,0.9-0.2c0.4,0.3,0.8,0.7,1,1.2c0.5,1.5-0.6,3.6-2.1,4.1c-0.7,0.2-1.4,0.4-2.1,0.4c-1.4,0-2-0.8-1.7-2.2
		c0.1-0.3,0.1-0.7,0.2-1.1C9.1,11.1,9.6,10.6,10.1,10.1z"/>
	<path d="M55.8,30.7c-0.6-0.3-1.1-0.7-1.7-1c-0.1-0.1-0.2-0.2-0.3-0.3c0.2,0,0.4-0.2,0.5-0.1c0.9,0.4,1.8,0.8,2.6,1.4
		c0.4,0.3-0.1,0.4-0.4,0.5C56.3,31,56.1,30.8,55.8,30.7z"/>
	<path d="M26.9,27.6c-1.3,0.1-1.6-0.9-2.1-1.7c-0.4-0.7-0.2-1.4,0.5-2.1c1.4-1.5,2.4-3.2,2.9-5.2c0.3-1.1,0.9-2.2,1.3-3.3
		c0.1-0.4,0.3-0.8,0.3-1.2c0.3-1.7,1-3,2.5-3.9c0.9-0.5,1.8-1.2,2.6-1.9c1.2-0.9,1.8-0.8,3,0.4c0.4,0.4,0.8,0.7,1.3,0.9
		c1,0.4,0.9,1.4,1.3,2c0.1,0.1,0,0.3-0.1,0.5c-0.1,0.1-0.4,0.3-0.3,0.4c0.3,1.8-1.2,3.1-1.4,4.8c0,0.2-0.2,0.5-0.3,0.6
		c-1.2,1-2.3,2.2-3.6,2.9c-1.4,0.8-2.4,1.8-3.3,3c-0.9,1.3-2.2,2.2-3.4,3.2C27.9,27.4,27.3,27.4,26.9,27.6z"/>
	<path d="M51.8,28.9c0-0.4,0.1-0.7,0.5-0.8c1.3-0.1,2.6-0.3,3.9-0.3c1.2,0,2.3-0.1,3.5-0.7c0.9-0.5,1.9-0.7,2.9-0.9
		c1.1-0.3,2.2-0.7,3.3-1.3c0.9-0.5,1.9-0.5,2.9-0.7c0.1,0,0.3,0.1,0.4,0.2c-0.1,0.1-0.2,0.4-0.3,0.4c-2.1,0.3-3.8,1.5-5.9,2
		c-1.2,0.3-2.3,0.8-3.5,1.2c-0.6,0.2-1.3,0.4-1.9,0.5C55.8,28.7,53.8,28.8,51.8,28.9L51.8,28.9z"/>
	<path d="M53.6,14.6c-0.3-0.1-0.5-0.2-0.7-0.3c-3-1-6.1-2-9.1-3c-0.2-0.1-0.4-0.1-0.5-0.2c-0.5-0.3-1-0.6-1.4-0.9
		c0.6-0.4,1.1,0.1,1.6,0.2c2.9,1,5.7,1.9,8.6,2.9c0.6,0.2,1.1,0.3,1.7,0.5c0.2,0.1,0.3,0.3,0.5,0.5C54,14.4,53.8,14.5,53.6,14.6z"/>
	<path d="M73.8,15.8c0,0.2,0.1,0.4,0,0.5c-0.8,2.1-1,4.5-2.5,6.4c-0.2,0.3-0.4,0.6-0.7,0.8c-0.1,0.1-0.4,0.1-0.6,0.1
		c0-0.2-0.1-0.5,0.1-0.6c1.4-1.4,2-3,2.3-4.9c0.2-0.9,0.8-1.7,0.7-2.7c0-0.2,0.2-0.3,0.3-0.5c0.1,0.2,0.3,0.3,0.4,0.5
		C73.9,15.5,73.8,15.7,73.8,15.8C73.8,15.8,73.8,15.8,73.8,15.8z"/>
	<path d="M29.9,6.2c1.4,0.4,2.9,0.7,4.3,1.1c0.1,0,0.2,0.2,0.3,0.4c0,0-0.2,0.2-0.2,0.2c-1.4-0.4-2.9-0.8-4.3-1.2
		C29.9,6.7,29.9,6.4,29.9,6.2L29.9,6.2z"/>
</g>
</svg>
