<?xml version="1.0" encoding="iso-8859-1"?>
<!-- Generator: Adobe Illustrator 25.3.0, SVG Export Plug-In . SVG Version: 6.00 Build 0)  -->
<svg version="1.1" id="Calque_1" xmlns="http://www.w3.org/2000/svg" xmlns:xlink="http://www.w3.org/1999/xlink" x="0px" y="0px"
	 viewBox="0 0 83.1 27.7" style="enable-background:new 0 0 83.1 27.7;" xml:space="preserve">
<g>
	<path d="M29.8,6.8c1.6,0,3.1-0.1,4.7,0c3.9,0.3,7.8,0.2,11.6,0.4c1.6,0.1,3,0.2,4.6,0c0.7-0.1,1.3-0.3,1.7-0.8c1.3-1.7,2.7-3.3,4-5
		c1.3-1.7,2.8-1.9,4.4-0.5c1.5,1.4,2.3,3,2.6,5.1c0.3,1.7-0.2,2.5-1.5,3.3c-0.5,0.3-0.9,0.9-1.3,1.3c0.6,0.1,1.2,0.1,1.8,0.2
		c0.9,0.1,1.8,0.2,2.7,0.3c2,0.2,3.8-0.3,5.6-0.9c2.8-0.9,5.5-1.9,8.3-2.8c0.7-0.2,1.5-0.4,2.3-0.5c1.2,0,1.5,0.6,1,1.6
		c-0.3,0.5-0.7,1-1.1,1.4c-1,1.1-2.1,2.1-3.2,3.2c-0.7,0.8-0.6,1,0.1,1.7c1.5,1.4,2.9,2.8,4.4,4.2c0.3,0.2,0.5,0.5,0.6,0.9
		c0.3,0.6,0,1.1-0.7,1.1c-0.6,0-1.2,0.1-1.8,0c-1.8-0.5-3.6-1.1-5.4-1.7c-2.3-0.8-4.6-1.8-6.9-2.3c-2.2-0.5-4.5-0.5-6.8,0.1
		c-0.2,0-0.3,0.1-0.5,0.2c0.1,0.1,0.2,0.3,0.3,0.4c2.4,0.9,2.9,2.7,2.8,5c-0.1,1.7-0.5,3.1-1.8,4.3c-0.6,0.5-1,0.6-1.7,0.3
		c-2.2-1.1-3.9-2.6-5.2-4.7c-0.5-0.8-1-1.5-1.4-2.3c-0.4-0.8-1-1-1.9-0.9c-1.2,0.2-2.4,0.2-3.5,0.4c-2.5,0.5-5,1-7.6,1
		c-0.2,0-0.3,0.1-0.5,0.1c0.1,0.2,0.2,0.4,0.3,0.5c1,0.8,1.1,1.8,1,2.9c-0.1,0.9-0.2,1.9-0.3,2.8c-0.1,0.3-0.3,0.6-0.4,0.9
		c-0.3-0.2-0.7-0.2-0.9-0.5c-0.7-0.8-1.3-1.7-1.8-2.6c-0.5-0.8-1-1.5-1.2-2.4c-0.3-1.4-1.2-1.5-2.4-1.4c-0.7,0.1-1.4,0-2.2,0
		c-3.5,0-7-0.6-10.4-1.2c-1.2-0.2-2.3-0.7-3.4-0.9c-1-0.2-2.1-0.3-3.2-0.4c-0.4,0-0.8,0.1-1.1-0.1c-1.9-0.9-4-1-6.1-1.3
		c-1.5-0.2-3-0.2-4.4-0.5c-1.1-0.2-2.2-0.5-3.3-0.9c-0.3-0.1-0.4-0.5-0.6-0.7c0.3-0.2,0.5-0.5,0.8-0.5c0.5-0.1,0.9,0,1.4,0.1
		c0.1,0,0.3,0,0.4-0.1c-0.1-0.1-0.2-0.2-0.4-0.3C2.1,14,1.9,14,1.8,13.9c-0.3-0.3-0.7-0.7-0.7-1.1c0-0.2,0.6-0.6,0.9-0.7
		c1.1-0.4,2.3-0.6,3.4-1c1.1-0.4,2.3-0.7,3.3-1.2c1.2-0.5,2.3-0.9,3.6-1c1.5-0.1,2.9-0.4,4.4-0.8c3.2-0.9,6.4-1.4,9.7-1.3
		C27.5,6.8,28.6,6.8,29.8,6.8z"/>
</g>
</svg>
