<?xml version="1.0" encoding="iso-8859-1"?>
<!-- Generator: Adobe Illustrator 25.3.0, SVG Export Plug-In . SVG Version: 6.00 Build 0)  -->
<svg version="1.1" id="Calque_1" xmlns="http://www.w3.org/2000/svg" xmlns:xlink="http://www.w3.org/1999/xlink" x="0px" y="0px"
	 viewBox="0 0 88.5 17.5" style="enable-background:new 0 0 88.5 17.5;" xml:space="preserve">
<g>
	<path d="M85.4,9.5c-2.9-0.2-4.7,1.3-6.5,2.6c-0.3,0.2-0.4,0.7-0.6,1.1c-0.9,2-2.2,2.5-4.3,1.7c-1.7-0.7-3.4-1.4-5.1-2.1
		c-0.7-0.3-1.5-0.5-2.2-0.8c-0.7-0.3-1.4-0.3-2.3-0.2c-1.3,0.2-2.6,0.1-3.9,0.2c-0.7,0-1.3,0.1-1.1,1.1c0.1,0.3-0.3,0.7-0.6,0.9
		c-0.7,0.5-1.5,0.7-2.2,1.2c-2.3,1.7-4.7,1.7-7.3,0.9c-0.5-0.2-1-0.3-1.5-0.6c-0.9-0.5-1.6-0.3-2.6,0c-3,0.9-5.9,1.7-9.1,1.9
		c-2.6,0.1-5.2-0.1-7.8-0.1c-3.3,0-6.5-0.7-9.6-1.9c-1.6-0.6-3.2-0.8-4.9-1c-2.4-0.2-4.8-0.5-7-1.4c-1.7-0.7-3.4-1.4-5-2.3
		C1.1,10.3,0.6,9.4,0,8.6C-0.1,8.5,0.1,8,0.2,7.9C1,7.5,1.7,7,2.5,6.9C5.8,6.5,9,6,12.1,5.1c1.3-0.4,2.8-0.4,4.2-0.7
		c2.8-0.4,5.6-1,8.4-1.3c1.7-0.2,3.3-0.4,5-0.4c1.2,0,2.2-0.4,3.1-1.1c0.3-0.2,0.5-0.5,0.8-0.7c0.6-0.3,1.3-1,1.7-0.8
		c1.4,0.4,2.7-0.3,4,0.1c1.3,0.4,1.6,1.7,2,2.8c0.1,0.3-0.1,0.6,0,0.9c0.1,0.2,0.3,0.5,0.5,0.5c1.3,0.2,2.6,0.3,3.9,0.4
		c1.7,0.1,3.3,0.2,5,0.4c1.9,0.2,3.5-0.6,5.2-1.3c1.1-0.4,2.1-1.1,3.2-1.5c0.3-0.1,1-0.1,1-0.1c0.2,1,1.2,0.5,1.7,0.8
		c0.6,0.3,1.3,0.8,1.4,1.4c0.2,1,1.3,1.6,1.1,2.8c-0.1,0.5,0.4,0.5,0.8,0.5c1.9,0.1,3.8-0.1,5.6-0.9c1.4-0.6,3-0.8,4.4-1.3
		c1.9-0.6,3.8-0.8,5.7-0.9c2-0.2,4.2,0.1,6.2,0.7C87.5,5.4,88,5.7,88.3,6c0.2,0.3,0.3,0.8,0.2,1.1C87.8,9,87,9.5,85.4,9.5z"/>
	<path d="M6,7.9c0.6-0.1,1.3-0.2,1.9-0.3c0.6-0.1,1.3-0.2,1.6,0.5c0.3,0.7-0.3,1-0.8,1.4C7.2,10.5,5,10.4,3.9,9.3
		C3.3,8.8,3.5,8.2,4.2,8C4.8,7.9,5.4,7.9,6,7.9C6,7.9,6,7.9,6,7.9z"/>
	<path d="M10.2,7.5c0.3-0.2,0.6-0.5,0.9-0.5c0.3,0,0.6,0.3,0.9,0.4c0.1,0,0.1,0.2,0,0.3c-0.2,0.3-1.7,0.4-1.8,0.1
		C10.1,7.8,10.2,7.8,10.2,7.5z"/>
	<path d="M75.1,10.9c-0.9,0.9-2.2,0.6-3.3,0.9c-0.1,0-0.2-0.1-0.2-0.2c0-0.1,0.1-0.2,0.2-0.3C72.9,11.3,73.9,10.6,75.1,10.9
		L75.1,10.9z"/>
	<path d="M80.9,8.7c-0.1,0.1-0.2,0.3-0.4,0.3c-0.4,0.1-0.8,0.2-1.1,0.3c0,0-0.1-0.1-0.1-0.1C79.6,9,80,8.7,80.4,8.5
		C80.5,8.5,80.7,8.7,80.9,8.7L80.9,8.7z"/>
	<path d="M75.1,10.9c0.5-0.3,1-0.6,1.5-0.9c0.1-0.1,0.3,0.1,0.4,0.1c-0.1,0.1-0.1,0.3-0.2,0.3C76.3,10.6,75.7,10.7,75.1,10.9
		C75.1,10.9,75.1,10.9,75.1,10.9z"/>
</g>
</svg>
