<?xml version="1.0" encoding="iso-8859-1"?>
<!-- Generator: Adobe Illustrator 25.3.0, SVG Export Plug-In . SVG Version: 6.00 Build 0)  -->
<svg version="1.1" id="Calque_1" xmlns="http://www.w3.org/2000/svg" xmlns:xlink="http://www.w3.org/1999/xlink" x="0px" y="0px"
	 viewBox="0 0 80.5 29" style="enable-background:new 0 0 80.5 29;" xml:space="preserve">
<g>
	<path d="M74.8,14.1c0.8-0.5,1.6-1,2.5-1.3c1-0.4,1.4-0.3,1.9,0.6c0.4,0.7,0.8,1.3,1,2.1c0.7,1.7-0.5,3.1-2.3,2.8
		c-1.3-0.3-2.7-0.6-4-1c-1.2-0.3-1.2-0.3-2.2,0.3c-5.7,1.7-11.6,1.3-17.4,1.8c-0.2,0-0.4,0-0.6,0.1c0.2,0,0.3-0.1,0.5-0.1
		c4.8-0.4,9.5-0.3,14.3-1c1.1-0.2,2-0.9,3.1-0.7c0.2,0.7-0.3,1-0.8,1.3c-1.2,0.7-2.5,1.3-4,1.3c-0.9,0-1.8-0.1-2.7,0
		c-4.8,0.5-9.7,0.3-14.5,0.4c-1.5,0-3,0.4-4.6,0.6c-1.1,0.2-2.2,0.3-3.4,0.4c-1.3,0.2-1.5,0.5-1.3,1.7c0.1,0.9,0.3,1.9,0.3,2.8
		c0,0.7-0.2,1.4-0.3,2.1c-0.2,0.8-0.7,1.1-1.5,0.8c-0.6-0.2-1.2-0.6-1.6-1c-1.4-1.4-2.7-2.8-4-4.3c-0.5-0.5-1-0.7-1.7-0.6
		c-1.9,0.3-3.8,0.5-5.7,0.6c-1.9,0.2-3.8,0.2-5.7,0.4c-0.2,0-0.3,0.1-0.5,0.1c0.2,0,0.3,0.1,0.5,0.1c0.9,0,1.8,0.1,2.7,0.1
		c0.1,0,0.3,0.2,0.3,0.4c0,0.1-0.2,0.3-0.3,0.3c-0.8,0-1.5-0.1-2.3-0.1c-0.1,0-0.2,0.1-0.3,0.1c0.1,0.1,0.1,0.2,0.2,0.2
		c1.4,0.2,2.7,0.3,4.1,0.4c0.2,0,0.3,0.1,0.5,0.2c-0.1,0.1-0.3,0.2-0.4,0.2c-0.9,0-1.8,0-2.7,0c-0.1,0-0.2,0.1-0.3,0.1
		c0.1,0.1,0.2,0.2,0.3,0.2c1.3,0.2,2.7,0.5,4,0.7c0.9,0.2,1.9,0.3,2.8,0.4c0.1,0,0.2,0.1,0.3,0.2c-0.1,0.1-0.1,0.2-0.2,0.2
		c-0.1,0-0.2,0-0.4,0c-0.4,0-0.8,0.1-1.2,0.1c0.4,0.5,0.8,0.2,1.3,0.3c0.4,0,0.7,0.3,1.1,0.5c-0.4,0.1-0.8,0.3-1.1,0.2
		c-2.5-0.4-5-0.8-7.5-1.5c-2.7-0.7-5.5-1.4-8.1-2.8c-0.4-0.2-0.9-0.4-1.2-0.7c-1.4-1.2-3.2-1.5-4.9-1.7c-1.9-0.3-3.7-0.9-5.4-1.6
		c-0.2-0.1-0.4-0.2-0.6-0.4c-0.1-0.2-0.3-0.5-0.3-0.6c0.2-0.2,0.5-0.4,0.7-0.4c0.8,0,1.5,0.2,2.3,0.3c0.2,0,0.4,0,0.5-0.1
		c-0.2-0.1-0.3-0.3-0.5-0.4c-0.8-0.4-1.7-0.8-2.6-1.2c0-0.2,0.1-0.4,0.2-0.5c0.4-0.4,0.9-0.4,1.3-0.2c2.3,0.7,4.7,0.8,6.8,2.2
		c0.3,0.2,0.7,0.6,1.1,0.2c0.4-0.3,0.3-0.8,0.2-1.2c-0.1-0.4-0.2-0.8-0.3-1.2c-0.2-0.7,0-1.2,0.7-1.5c0.7-0.2,1.1,0.2,1.5,0.7
		c0.1,0.1,0.1,0.2,0.2,0.3c0.3,0.6,0.3,1.5,1.2,1.2c0.9-0.3,0.8-1.2,0.8-2c0-0.9-0.8-2.1,0.8-2.2c1.3-0.1,1.5,1.2,1.6,2.2
		c0.2,2.6-0.5,4.8-2.9,6.3c-0.1,0.1-0.3,0-0.4,0.1c0.1,0,0.2-0.1,0.4-0.1c6.5-0.1,12.9-0.3,19.4-0.9c1.3-0.1,2.6-0.5,3.8-0.9
		c4.2-1.6,8.6-2.3,13.1-2.7c6.2-0.5,12.4-1,18.5-2.4c1.1-0.3,2.4,0.6,3.6,0c1.6,0,2.9,1.2,4.6,1c0.6-0.1,1.3,0.1,1.4-0.7
		c0-0.9-0.6-1.2-1.4-1.2c-0.6,0-1.3,0.2-1.9,0C74.9,14.4,74.9,14.3,74.8,14.1z"/>
	<path d="M28.6,6c-0.8,1-1.7,2-2.5,3c-0.4,0.4-0.2,0.6,0.2,0.7c0.2,0.1,0.5,0.1,0.7,0.2c1.9,0.1,3.8,0.3,5.7,0.4
		c1.4,0.1,2.8,0.4,4.2,0.6c1.2,0.2,2.4,0.3,3.5,0.4c2.5,0.3,4.9,0.7,7.4,1c1.5,0.2,3,0.2,4.4,0.4c1.6,0.2,3.3,0.5,4.9,0.7
		c1.4,0.2,2.7,0.3,4.1,0.4c3.5,0.3,7,0.6,10.5,0.9c1,0.1,1.5-0.4,1.6-1.4c0.1-0.9-0.1-1.3-1-1.5c-1.4-0.3-2.8-0.5-4.2-0.7
		c-2.1-0.3-4.3-0.5-6.4-0.7c-1.7-0.2-3.4-0.2-5.2-0.4c-1.5-0.1-3-0.3-4.4-0.5c-0.6-0.1-1.3-0.2-1.9-0.3c-2-0.1-4-0.3-6-0.7
		c-2.4-0.4-4.8-0.7-7.2-1.1c-1.6-0.3-3.2-0.7-4.9-1.1c-0.2,0-0.4-0.3-0.5-0.4c1.9,0.3,3.9,0.5,5.8,0.8c1.7,0.3,3.5,0.6,5.2,0.9
		c2.5,0.4,5,0.7,7.5,1.1C51.6,9,53,9,54.5,9.2c1.8,0.2,3.5,0.5,5.3,0.7c1.4,0.2,2.7,0.3,4.1,0.4c2.1,0.2,4.3,0.3,6.4,0.4
		c0.9,0.1,1.8,0.2,2.6,0.4c1.3,0.3,1.8,1.1,1.3,2.6c-0.5,1.5,0.5,0.2,0.7,0.4c0.1,0.1,0.1,0.2,0.2,0.2c0.6,0.3,1.5,0.4,1.2,1.4
		c-0.2,0.9-0.9,0.7-1.6,0.5c-0.8-0.4-1.6-0.3-2.4-0.2c-7.4-0.3-14.7-1.1-22-1.8c-10-0.9-19.9-2.8-30-3.6c-3-0.3-6,0.4-9,0.4
		c-0.7,0-1.4,0.2-2.1-0.2C9.2,10.6,9,10.4,9,10.2c0.8-0.2,1.7-0.5,2.5-0.7c1.6-0.2,3.2-0.3,4.8-0.4c0.9,0,1.2-0.3,1.5-1.2
		c0.5-1.6,1.1-3.2,1.8-4.8c0.6-1.4,1.7-2.4,3-3.1C22.8,0,23.1,0,23.3,0c0,0.2,0.1,0.4,0.1,0.6c-0.3,0.8,0.2,1.3,0.4,2
		c0.2,0.6,0.3,1.1,0.5,1.7c-0.8,0.4-1.2-0.2-1.6-0.7c-0.6-0.9-1.1-0.7-1.6,0.1c-0.3,0.6-0.6,1.2-0.8,1.8c-1.1,2.7-0.8,3.1,2.1,2.9
		c1.1-0.1,1.6-0.6,1.5-1.7c0-0.7-0.3-1.4,0.6-1.8c0.9,0.9,1,2,0.8,3.2c0,0.2,0.1,0.4,0.1,0.6c0.1-0.1,0.3-0.2,0.4-0.4
		c0.6-0.7,1.1-1.4,1.8-2C27.8,6.1,28.3,6.1,28.6,6z"/>
	<path d="M1,17.9c-0.6-0.1-1-0.4-1-1c0-0.8-0.1-1.6,0.5-2.3C2,13,3.8,11.9,5.8,11.1c1-0.4,2.2-0.6,3.2-0.8c0.1,0.1,0.1,0.1,0.2,0.2
		c-0.3,1-0.3,1.8,0,3.6c0.3,1.5-0.3,2.6-1.6,3.3C6,18.2,4.5,18,3.2,17c-1.4-1-1.4-1-1.9,0.7C1.2,17.8,1.1,17.8,1,17.9z"/>
	<path d="M75,15.7c-0.6,0.7-1.5,0.2-2.2,0.4c0-0.1,0-0.2,0-0.4C73.5,15.1,74.2,15.2,75,15.7z"/>
	<path d="M20.6,21.4c-0.8,0-1.3,0-1.7-0.1c-0.2,0-0.3-0.4-0.4-0.7c0.2-0.1,0.4-0.3,0.6-0.2c2.7,0.9,4.6-0.8,6.4-2.3
		c0.9-0.8,1.6-1.9,2.3-2.9c0.1-0.1,0.1-0.3,0.2-0.4c-0.1,0-0.2-0.1-0.3,0c-2.6,0.8-5.1,1.9-7.4,3.4c-0.4,0.3-0.7,0.8-1,1.2
		c-0.1,0.1-0.3,0.2-0.4,0.3c-0.1-0.2-0.3-0.4-0.3-0.6c0-0.2,0.2-0.4,0.4-0.6c2.4-2.2,5.2-3.5,8.3-4.3c0.1,0,0.1,0,0.2,0
		c0.5,0.1,0.9,0.1,1.4,0.2c-0.1,0.4-0.1,0.9-0.4,1.2c-1.6,2.3-3.5,4.4-6.1,5.5C21.6,21.4,20.9,21.4,20.6,21.4z"/>
	<path d="M44.4,16.5c-0.2-0.2-0.4-0.4-0.6-0.5c0.2-0.1,0.4-0.3,0.6-0.3c0.2,0,0.4,0.2,0.6,0.4C44.8,16.2,44.6,16.3,44.4,16.5z"/>
	<path d="M46.8,16.1c-0.2,0.1-0.4,0.2-0.6,0.2c-0.3,0-0.5-0.2-0.7-0.3c0-0.1,0.1-0.3,0.1-0.3c0.3,0,0.7-0.1,1,0
		C46.7,15.8,46.7,15.9,46.8,16.1z"/>
	<path d="M6.8,14.2c0,0.5-0.7,1.2-1.4,1.1c-0.6,0-1.1-0.5-1.1-1c0-0.4,0.7-1.1,1.3-1.1C6.1,13.3,6.8,13.8,6.8,14.2z"/>
</g>
</svg>
