<?xml version="1.0" encoding="iso-8859-1"?>
<!-- Generator: Adobe Illustrator 25.3.0, SVG Export Plug-In . SVG Version: 6.00 Build 0)  -->
<svg version="1.1" id="Calque_1" xmlns="http://www.w3.org/2000/svg" xmlns:xlink="http://www.w3.org/1999/xlink" x="0px" y="0px"
	 viewBox="0 0 85.8 23.3" style="enable-background:new 0 0 85.8 23.3;" xml:space="preserve">
<g>
	<path d="M79.7,2.4c1.9,0.5,3.1,1.8,4.1,3.3c1.3,2,2.2,4.1,1.9,6.6c0,0.3-0.3,0.6-0.4,0.9c0,0-0.1-0.1-0.1-0.1
		c-0.2,0-0.1,0.2-0.2,0.3c-0.6,1.6-1.3,3.1-2.6,4.2c-0.6,0.5-1.1,0.9-1.8,0.2c0.6-0.8,1.2-1.5,1.8-2.3c1.6-2.2,1.8-2.8,1.8-5.5
		c-0.2-0.4,0.1-0.8,0.1-1.1c-0.2-2.1-1.6-3.4-3.2-4.6c-2-1.6-4.4-2.3-7-2.5c-1.5-0.1-3-0.4-4.4-0.3c-3,0.3-5.9,0.5-8.8,1.1
		c-1.6,0.3-3.3,0.5-5,0.6c-3,0.3-6.1,0.5-9.1,0.6C44.6,4,42.3,3.7,40,3.7c-0.2,0-0.5,0-0.7,0c-3.2-0.1-6.3-0.2-9.5-0.4
		c-3.4-0.2-6.7-0.7-10.1-1c-1.4-0.1-2.9-0.1-4.3-0.1c-1.9,0-3.8,0-5.8,0C7.9,2.1,6.2,2,4.5,1.9c-0.2,0.1-0.3,0-0.2-0.2
		C5,1.1,5.8,1.4,6.7,1.5c0.6,0.1,1.2,0.2,1.8,0.2c3.4,0,6.8,0,10.3,0c0.8,0,1.6,0.2,2.5,0.3c0.4,0,0.7,0.1,1.1,0
		c0.5-0.1,0.9-0.4,1.4-0.5c-0.1,0.7,0.5,0.6,0.9,0.6c1,0.1,2,0.2,3,0.3c2.7,0.2,5.5,0.5,8.2,0.7c0.4,0,0.7,0,1.1,0
		c4.7,0,9.5,0.1,14.2,0c2,0,4-0.4,6-0.6c1.8-0.2,3.6-0.5,5.5-0.7C65.3,1.5,68.2,0.9,71,1c2.2,0.1,4.4,0.4,6.5,1
		c0.3,0.1,0.6,0.1,0.9,0.1C79,1.7,79.3,2.2,79.7,2.4z"/>
	<path d="M66.6,19.3c-1.1,0.3-2,0.1-3-0.3c-2-0.8-4.1-1.3-6.3-1.1c-1.5,0.1-3,0.5-4.1,1.4c-1.5,1.2-1.4,1.8,0.4,2.8
		c1.5,0.8,3,0.5,4.5,0.1c1-0.2,2.1-0.4,3.1-0.5c0.4,0,0.9,0.2,1.4,0.3c0.1,0,0.2,0.2,0.3,0.3c-0.1,0-0.2,0.1-0.3,0.1
		c-2.7-0.3-5.3,1.1-8,0.8c-0.9-0.1-1.6-0.3-2.3-0.8c-0.9-0.5-1.4-1.7-1-2.6c0.3-0.9,0.8-1.8,1.8-2.4c1.2-0.7,2.5-1,3.9-1.2
		c2.7-0.4,5.3,0.3,7.8,0.9c0.1,0,0.2,0.1,0.3,0.2c0,0.1,0.1,0.2,0.1,0.4c0.2,0.2,0.4,0.2,0.6,0.3c0.4,0.2,0.9,0.3,1.2,0.8
		C66.8,19,66.7,19.2,66.6,19.3z"/>
	<path d="M77.7,1.5c-0.2,0-0.5,0-0.7-0.1c-2.1-0.8-4.3-0.7-6.5-0.7c-3.1,0-6.2,0-9.3,0.7c-1.7,0.4-3.4,0.2-5.2,0.4
		C51.5,2.5,47,2.2,42.4,2.2c-2.6,0-5.2-0.4-7.8-0.6c-1.6-0.1-3.2-0.2-4.8-0.4C28.9,1,28,0.9,27.1,0.8c-0.4,0-0.8-0.1-1.1-0.1
		c0.3-0.7,0.9-0.4,1.4-0.4c2.4,0.2,4.8,0.4,7.3,0.7c2.3,0.2,4.6,0.5,6.9,0.7c0.4,0,0.7,0,1.1,0c2.9,0,5.8,0.1,8.6,0
		c2.7-0.1,5.3-0.4,8-0.6c2.6-0.2,5.1-1,7.8-0.8c1.2,0.1,2.5-0.4,3.7-0.2c2.4,0.2,4.9,0.1,7.1,1.3C77.8,1.4,77.8,1.5,77.7,1.5z"/>
	<path d="M81.7,7.1c-0.7-0.5-1.3-1.1-2-1.4c-1.7-0.7-3.5-1-5.4-1.1c-4.6-0.1-9,0.7-13.4,1.9c-2.2,0.6-4.4,1.2-6.6,1.6
		c-0.9,0.2-0.3,0.4-0.1,0.7c0.1,0.1,0.1,0.2,0.1,0.3C54.1,9.2,53.8,9,53.4,9c-0.4-0.1-0.7-0.2-1.1-0.3c-0.1,0-0.2,0.1-0.3,0.1
		c0-0.1,0-0.2,0.1-0.3c0.5-0.2,0.9-0.5,1.4-0.6c3.6-0.9,7.3-1.7,10.9-2.6c3.8-1,7.8-1.2,11.7-0.9c3.1,0.3,6,1.4,7.8,4.3
		c0.1,0.1,0.3,0.2,0.4,0.3c0.6,0.4,0,0.8-0.1,1.1c-0.7-0.7-1.4-1.3-2.1-2C81.9,7.8,81.8,7.4,81.7,7.1z"/>
	<path d="M66.6,19.6c0.7,0.2,1.3,0.5,2,0.7c3.2,1.2,6.4,1.4,9.7,0.4c0.2-0.1,0.4,0,0.5,0c0.1,0,0.1,0.1,0.2,0.1
		c0.1,0.2,0.1,0.4,0.2,0.6c-1.5,1.1-3.3,1.3-5,1.1c-2.1-0.3-4.1-0.9-6.2-1.4C67.4,20.9,66.5,20.7,66.6,19.6z"/>
	<path d="M35.3,13.2c0.7,0,1.3-0.2,2,0.4c0.5,0.4,1.5,0.3,2.2,0.2c2.7-0.4,5.4-0.9,7.9-2.2c0.6-0.3,1.2-0.7,1.9-1
		c0.1,0,0.2-0.1,0.3-0.1c0,0.1-0.1,0.2-0.1,0.3c-0.7,1-1.8,1.4-2.8,1.8c-2.6,1-5.3,1.7-8.1,1.8c-1.5,0.1-3,0.4-4.5,0.8
		c-0.3,0.1-0.6,0.7-0.8,1.1c-0.4,0.7-0.7,1.5-1.1,2.2c-0.1,0.1-0.2,0.2-0.3,0.3c0-0.2-0.1-0.4-0.1-0.5c0.6-1.2,0.8-2.6,1.8-3.6
		C33.9,14,34.7,13.6,35.3,13.2z"/>
	<path d="M64.5,7.6c0.7-0.9,1.9-0.8,2.9-1.1c2.6-0.5,5.2-1,7.8-0.8c1.7,0.1,3.3,0.5,4.9,0.8c0.4,0.1,0.7,0.4,1,0.6
		c-0.4,0-0.7,0-1.1-0.1c-1.7-0.3-3.5-0.7-5.2-0.9C74.2,6,73.6,6.2,73,6.3c-0.4,0.1-0.8,0.2-1.2,0.2c-2,0-4,0.5-6,0.9
		C65.4,7.5,64.9,7.5,64.5,7.6z"/>
	<path d="M78.8,20.6c0.5-0.3,1-0.6,1.5-0.9c1.5-0.8,2.9-1.8,3.6-3.5c0.1-0.3,0.5-0.4,0.8-0.6c-0.8,2.4-2,4.4-4.8,5
		c-0.3,0.2-0.7,0.2-1,0.1C78.9,20.7,78.8,20.7,78.8,20.6z"/>
	<path d="M19.5,21.7c0.9,0.2,1.8,0.5,2.7,0.7c2.4,0.6,4.7-0.1,6.8-1.1c0.1,0,0.2-0.1,0.3-0.1c0,0.1-0.1,0.2-0.1,0.3
		c-1.9,1.3-3.9,2.1-6.3,1.5c-1.3-0.3-2.6-0.3-3.6-1.2C19.4,21.8,19.5,21.8,19.5,21.7z"/>
	<path d="M4.5,1.9c0.1,0.3,1,0.6,0.4,0.9C3.7,3.5,4.6,3.9,5,4.4C5.2,4.6,5.1,4.8,5.2,5c-0.2,0-0.4,0-0.5-0.1
		C4.3,4.5,3.9,4.1,3.5,3.7c-0.4-0.3-0.8-0.7-1.2-1c0.5-0.3,1.1-0.7,1.6-1C4,1.7,4.1,1.7,4.3,1.7C4.3,1.8,4.4,1.8,4.5,1.9z"/>
	<path d="M23.6,13.1c0.9,0.2,1.7,0.7,2.6,0.1c0.1-0.1,0.3,0,0.5,0.1c1,0.5,2,1,3,1.5c-1.1,0.4-2.1-0.4-3.2-0.5c-1-0.1-2-0.4-2.9-0.7
		c-0.2-0.1-0.4-0.2-0.6-0.3C23.2,13.2,23.4,13.2,23.6,13.1z"/>
	<path d="M54.4,9.3c2.3,0.1,4.6-0.3,6.8-1c0.4-0.1,0.8,0,1.2-0.1c-0.8,0.9-1.9,0.7-2.9,1.1c-1.5,0.6-3,0.5-4.6,0.4
		C54.7,9.7,54.6,9.4,54.4,9.3z"/>
	<path d="M67,18.6c-0.1,0.1-0.2,0.3-0.3,0.4c-0.5-0.1-1-0.3-1.5-0.4c-0.2-0.3-0.8,0-0.7-0.6c0.2-0.2,0.3-0.3,0.5-0.5
		c0.6,0.1,1.1,0.2,1.7,0.4C66.8,18,66.9,18.3,67,18.6z"/>
	<path d="M14.7,11.5c-1.8-0.4-3.6-0.7-5.3-1.1c-0.1,0-0.1-0.1-0.2-0.2C9.3,10.1,9.4,10,9.5,10c0.5,0.1,0.9,0.2,1.4,0.3
		c1.3,0.4,2.7,0.7,4,1.1L14.7,11.5z"/>
	<path d="M76.3,20c-0.2,0.1-0.4,0.4-0.5,0.4c-1.7,0-3.3,0-5,0c-0.2,0-0.4-0.2-0.6-0.4C72.3,20,74.3,20,76.3,20z"/>
	<path d="M1.4,7.6c-0.1,0-0.3,0.1-0.4,0.1C1.2,8,1.4,8.3,1.6,8.6C1.7,8.7,1.7,9,1.7,9.2C1.5,9.1,1.3,9,1.1,8.8
		C0.9,8.7,0.6,8.5,0.5,8.2C0.4,7.8-0.4,7.3,0.2,6.9c0.5-0.4,1,0.1,1.3,0.5c0.1,0.1,0.1,0.2,0.2,0.3C1.6,7.7,1.5,7.6,1.4,7.6z"/>
	<path d="M14.8,11.4c1.2,0.2,2.4,0.5,3.6,0.7c0.3,0.1,0.5,0.2,0.8,0.3c-0.3,0-0.6,0.2-0.8,0.1c-1.2-0.3-2.4-0.7-3.7-1L14.8,11.4z"/>
	<path d="M6.4,13.4c-0.1,0-0.3,0.1-0.3,0.1c-0.8-0.7-1.6-1.4-2.3-2.2c0,0,0-0.1,0-0.1c0.1,0,0.3-0.1,0.3-0.1
		c0.8,0.7,1.6,1.4,2.3,2.1C6.4,13.3,6.4,13.4,6.4,13.4z"/>
	<path d="M34.9,12.8c-1.1,0.1-1.2,1-1.4,1.8c-0.2-0.1-0.6-0.3-0.6-0.3c0.2-0.5,0.5-1,0.8-1.5C34.1,12,34.1,12,34.9,12.8z"/>
	<path d="M73.2,19.6c-0.6,0-1.2,0-1.8,0c-0.1,0-0.2-0.1-0.3-0.2c0.1-0.1,0.2-0.2,0.3-0.2c1.3,0,2.5,0,3.8,0c0.1,0,0.2,0.1,0.3,0.2
		c-0.1,0.1-0.2,0.2-0.3,0.2C74.5,19.7,73.8,19.6,73.2,19.6C73.2,19.6,73.2,19.6,73.2,19.6z"/>
	<path d="M11.7,7.3c-0.1,0.1-0.1,0.2-0.2,0.2c-0.3,0-0.7-0.1-1-0.2C9.9,7.2,9.3,7,8.8,6.8c-0.1,0-0.2-0.2-0.3-0.3
		c0.1,0,0.2-0.1,0.3-0.1c0.9,0.2,1.8,0.5,2.7,0.8C11.6,7.2,11.7,7.2,11.7,7.3z"/>
	<path d="M29.1,21.3c0.6-0.6,1.1-1.2,1.7-1.7c0.1-0.1,0.3-0.1,0.4-0.2c0,0.2,0.1,0.4,0,0.5c-0.6,0.6-1.3,1.1-2,1.7
		C29.2,21.5,29.2,21.4,29.1,21.3z"/>
	<path d="M79.3,18.9c-0.8,1-1.8,1.1-3,1.1C77.2,19.3,78.3,19.1,79.3,18.9z"/>
	<path d="M1.6,7.4C2.2,7.6,2.8,7.8,3.3,8c0.3,0.1,0.5,0.3,0.7,0.5c-0.3,0-0.7,0.1-1,0C2.5,8.2,1.9,7.9,1.4,7.6
		C1.4,7.5,1.5,7.5,1.6,7.4z"/>
	<path d="M19.4,21.9c-0.1,0-0.2,0-0.3-0.1c-0.7-0.3-1.3-0.6-2-1c0,0,0.1-0.1,0.1-0.1c0.6,0.2,1.3,0.4,1.9,0.6
		c0.2,0.1,0.3,0.2,0.4,0.3C19.5,21.8,19.4,21.8,19.4,21.9z"/>
	<path d="M7.5,9.3C7.4,9.5,7.3,9.6,7.2,9.6c-0.5-0.1-1-0.2-1.5-0.4C5.7,9.3,5.6,9.1,5.6,9c0,0,0.1-0.1,0.1-0.1
		C6.3,9,6.9,9.2,7.5,9.3z"/>
	<path d="M79.7,2.4c-0.4-0.1-0.9-0.2-1.3-0.3c-0.2-0.2-0.5-0.4-0.7-0.6c0.1-0.1,0.1-0.1,0.2-0.2C78.6,1.4,79.4,1.5,79.7,2.4z"/>
	<path d="M51.2,10.1c-0.6,0.2-1.2,0.5-1.8,0.7c-0.1-0.1-0.1-0.1-0.2-0.2c0.4-0.7,1.1-0.7,1.8-0.7C51.1,10,51.2,10,51.2,10.1z"/>
	<path d="M17.5,9.2c0.2,0.1,0.5,0.2,0.8,0.3c0.1,0.1,0.2,0.2,0.2,0.3c-0.1,0-0.2,0.1-0.3,0.1c-0.3-0.1-0.6-0.2-0.8-0.3
		c-0.1-0.1-0.2-0.2-0.2-0.3C17.2,9.3,17.3,9.3,17.5,9.2z"/>
	<path d="M52.4,8.7c-0.3,0.6-0.3,1.3-1.1,1.4c-0.1-0.1-0.1-0.1-0.2-0.2c0.4-0.5,0.7-1,1.1-1.4C52.2,8.5,52.3,8.6,52.4,8.7z"/>
	<path d="M24.1,12.5c-0.1,0-0.1,0-0.2,0c-0.3-0.2-0.7-0.4-1-0.6c0,0,0.1-0.1,0.1-0.1c0.4,0.1,0.9,0.2,1.3,0.4c0,0,0.1,0.1,0.1,0.1
		C24.3,12.4,24.2,12.5,24.1,12.5z"/>
</g>
</svg>
