<?xml version="1.0" encoding="iso-8859-1"?>
<!-- Generator: Adobe Illustrator 25.3.0, SVG Export Plug-In . SVG Version: 6.00 Build 0)  -->
<svg version="1.1" id="Calque_1" xmlns="http://www.w3.org/2000/svg" xmlns:xlink="http://www.w3.org/1999/xlink" x="0px" y="0px"
	 viewBox="0 0 78 38.5" style="enable-background:new 0 0 78 38.5;" xml:space="preserve">
<g>
	<path d="M57.2,17.1c2.1,0.1,3.8-0.5,5.4-1.2c2.9-1.2,5.8-2.4,8.7-3.6c0.4-0.2,0.9-0.3,1.3-0.5c0.5-0.2,1,0.1,1.2,0.5
		c0.1,0.3,0.1,0.9-0.1,1.1c-1.1,1.1-2.3,2.1-3.5,3c-0.9,0.7-2,1.3-2.9,2.1c-0.8,0.7-0.8,0.8-0.1,1.5c0.4,0.4,0.9,0.8,1.4,1.1
		c2.2,1.3,4.4,2.6,6.5,4c1.3,0.9,2.3,2.1,2.7,3.7c0.2,0.9-0.1,1.5-1.1,1.5c-0.5,0-1.1-0.1-1.5-0.4c-4.9-2.4-9.8-4.5-14.5-7.4
		c-0.7-0.4-1.5-0.7-2.3-1c-0.3-0.1-0.6-0.1-0.9-0.1c-0.6,0.1-1.3,0.2-1.9,0.3c-0.5,0.1-0.6,0.3-0.3,0.7c0.4,0.5,0.2,0.8-0.3,1.1
		c-1.2,0.7-2.4,1.5-3.6,2.3c-1.2,0.8-1.7,0.7-2.5-0.4c-0.6-0.7-0.8-2-1.8-2.1c-0.8-0.1-1.7,0.4-2.6,0.6c-2.3,0.5-4.5,1-6.8,1.5
		c-0.2,0-0.3,0.1-0.5,0.2c-0.1,0-0.2,0.1-0.3,0.2c0.1,0.1,0.2,0.2,0.3,0.3c2.6,1.2,5.3,2.1,8.1,2.8c1.2,0.3,2.3,0.4,3.5,0.8
		c1.4,0.4,2.2,1.5,2.3,2.9c0.1,1.7,0.2,3.4-0.3,5.1c-0.3,1-0.6,1.1-1.5,0.6c-0.8-0.4-1.5-0.9-2.3-1.4c-0.7-0.4-1.3-0.9-2.1-1.1
		c-1.4-0.4-2.6-1.1-3.8-1.9c-0.9-0.7-1.9-1.4-2.9-2.1c-1.8-1.3-3.1-3-4.3-4.7c-0.6-0.9-1.4-1.2-2.3-0.9c-2.1,0.5-4.3,0.3-6.4,0.3
		c-2.4-0.1-4.9-0.4-7.3-0.6c-1.4-0.1-2.8-0.3-4.3-0.4c-2.7-0.2-5.4-0.8-8.1-1.3c-1.5-0.3-2.7-0.8-3.8-1.7c-0.3-0.3-0.7-0.4-1.1-0.6
		c-1-0.4-1-0.4-0.3-1.3c0.1-0.2,0.2-0.5,0.2-0.6c-0.5-1,0.2-1.5,0.8-1.9c0.9-0.6,1.9-1.1,2.9-1.4c2.6-0.7,5.2-1.3,7.8-1.8
		c1.6-0.3,3.2-0.3,4.8-0.5c0.6-0.1,1.3-0.2,1.8-0.5c2.4-1.4,4.7-3.2,7.2-4.3c3.9-1.8,7.6-4,11.7-5.2c2.9-0.9,5.7-2.2,8.5-3.2
		C47.6,0.7,49,0.4,50.4,0C50.6,0,51,0,51.1,0.2c0.1,0.1,0,0.5-0.1,0.6c-1.8,2.2-3.6,4.3-5.3,6.5c-1.2,1.5-2.7,2.7-4.1,4.1
		c-0.4,0.4-0.7,0.9-1.1,1.4c-0.5,0.6-1.1,1.1-1.7,1.7c0.7,0.2,1.5,0.4,2.3,0.4c0.9,0.1,1.8,0.1,2.7,0c0.4,0,0.8-0.3,1-0.6
		c1-0.9,1.9-1.9,2.9-2.9c1-1,1.5-1.1,2.7-0.2c1.7,1.2,3.3,2.5,5,3.7c0.4,0.3,0.5,0.5,0.3,1c-0.5,0.9-0.4,1.1,0.5,1.2
		C56.6,17.1,57,17.1,57.2,17.1z"/>
	<path d="M30.3,24.3c0.3-0.1,0.6-0.3,0.9-0.4c1.1-0.1,2.1-0.3,3.2-0.3c2.3-0.2,4.6-0.3,6.9-0.4c0.2,0,0.4,0.1,0.6,0.2
		c-0.2,0.1-0.4,0.2-0.7,0.2c-2.1,0.1-4.2,0.1-6.2,0.4C33.5,24.2,31.9,24.3,30.3,24.3L30.3,24.3z"/>
	<path d="M17.4,24.3c-2-0.1-3.9-0.2-5.9-0.3c-0.1,0-0.2-0.2-0.3-0.2c0.1,0,0.2-0.1,0.3-0.1c1.2,0.1,2.5,0,3.7,0.2
		C15.9,23.9,16.8,23.6,17.4,24.3L17.4,24.3z"/>
	<path d="M17.4,24.3c1.9,0,3.8,0,5.7,0c0.4,0,0.7,0.2,1.1,0.3l0,0c-1.9,0-3.7,0-5.6,0C18.2,24.7,17.7,24.9,17.4,24.3L17.4,24.3z"/>
	<path d="M30.3,24.3c0,0.1-0.1,0.1-0.1,0.1c-1.9,0.2-3.8,0.4-5.6,0.5c-0.1,0-0.3-0.2-0.4-0.3l0,0C26.3,24.5,28.3,24.4,30.3,24.3
		L30.3,24.3z"/>
</g>
</svg>
