<?xml version="1.0" encoding="iso-8859-1"?>
<!-- Generator: Adobe Illustrator 25.3.0, SVG Export Plug-In . SVG Version: 6.00 Build 0)  -->
<svg version="1.1" id="Calque_1" xmlns="http://www.w3.org/2000/svg" xmlns:xlink="http://www.w3.org/1999/xlink" x="0px" y="0px"
	 viewBox="0 0 82.4 25" style="enable-background:new 0 0 82.4 25;" xml:space="preserve">
<g>
	<path d="M43.1,17.9c-2.2,0-4.3,0.1-6.5,0c-1.2,0-2.1,0.3-2.9,1.2c-1.2,1.4-2.8,2.2-4.4,2.9c-0.1,0.1-0.3,0-0.5,0.1
		c0-0.2,0-0.4,0.1-0.6c0.7-1,1.5-1.9,1.8-3c0.2-0.7,0.1-0.8-0.5-0.9c-0.5,0-1,0-1.4,0c-3.8-0.1-7.5-0.2-11.3-0.4
		c-1.4-0.1-2.8-0.4-4.2-0.6c-0.9-0.1-1.8-0.1-2.7-0.1c-3.1,0-6-0.6-9-1.1c-0.5-0.1-0.9-0.3-1.3-0.5c-0.1,0-0.1-0.3-0.2-0.4
		c0.1,0,0.2-0.1,0.3-0.1c3.2,0.9,6.5,0.7,9.7,1.3c0.3,0.1,0.6,0,0.9,0c2.4,0,4.9,0.3,7.3,0.7c0.1,0,0.2,0,0.4,0
		c3.2,0.1,6.3,0.2,9.5,0.3c0.4,0,0.7,0,1.1,0c0.5-0.1,0.9-0.2,1.4-0.3c-0.2-0.5-0.2-1.1-0.6-1.6c-0.4-0.6-1-1-1.5-1.6
		c-0.2-0.2-0.1-0.5,0.2-0.5c0.3,0,0.6,0,0.9,0.1c1.2,0.6,2.5,1,3.7,1.8c1.1,0.7,2.1,1.1,3.3,0.9c1.7-0.2,3.4-0.3,5.2-0.3
		c3-0.1,6.1-0.3,9.1-0.4c0.5,0,0.5-0.2,0.4-0.6c-0.3-1.7-1-3.1-2.4-4.2c-0.2-0.1-0.2-0.4-0.3-0.7c0.3,0,0.6-0.1,0.8-0.1
		c2.6,0.9,5,2.3,6.9,4.3c0.7,0.7,1.3,0.9,2.3,0.7c1.5-0.4,3.1-0.3,4.6-0.5c3.3-0.5,6.6-0.9,9.5-2.7c0.7-0.5,1.4-1.1,2-1.8
		c1-1.2,1.2-3-0.9-3.9c-1.1-0.5-2.3-0.7-3.4-1c-0.5-0.1-0.8,0.2-0.6,0.7c0.2,0.7-0.2,0.7-0.6,0.6c-0.4-0.1-0.9-0.4-1.3-0.6
		c-1.2-0.7-2.6-0.9-4-0.7c-2.1,0.4-4.2,0.2-6.3,0.3c-3.3,0.1-6.6,0-9.8,0.4c-4.3,0.5-8.6,0.5-12.9,0.2c-4.1-0.3-8.1-0.2-12.2-0.2
		c-3.4,0-6.8,0.2-10.2,0.3C9.8,5.6,7.2,5.9,4.6,6c-1,0-2-0.1-3-0.2C1.3,5.8,1,5.6,0.9,5.4C0.9,5.1,1,4.8,1.2,4.6
		c0.3-0.3,1-0.4,0.3-1C1.4,3.5,1.6,3,1.8,2.9c0.4-0.2,0.9-0.4,1.3-0.3c2,0.5,4.1,0.2,6.1,0.3c1.9,0.1,3.8,0.1,5.8,0
		c2.1-0.1,4.1-0.4,6.2-0.6c0.1,0,0.2,0,0.4,0c2.2-0.1,4.4-0.3,6.6-0.4c2.9,0,5.8-0.3,8.7-0.7c1.5-0.2,3-0.3,4.4-0.4
		c0.6,0,1.1-0.1,1.6-0.5c0.2-0.2,0.9,0.4,1.4,0.4c1.1,0,2.2-0.2,3.4-0.3c0.4,0,0.8,0,1.3,0c1.3,0,2.6,0,4,0C59,0.2,65,0.1,71.1,0
		c2.2,0,4.3,0.5,6.3,1.2c2.9,1,5.3,4.4,5,6.9c-0.2,2-1.3,3.4-2.7,4.6c-2.4,2-5.2,3.2-8.2,3.7c-2.6,0.5-5.3,0.8-7.9,1.1
		c-1.8,0.2-3.6,0.3-5.3,0.4c-0.9,0-1.3,0.6-1.7,1.2c-1.7,2.4-4.1,4.2-6.6,5.7c-0.2,0.1-0.3,0.2-0.5,0.2c-0.2,0-0.4,0-0.5-0.1
		c-0.1-0.2-0.1-0.5,0-0.6c0.5-0.7,1.1-1.4,1.6-2.1c0.7-1,0.9-2.1,0.7-3.3c-0.1-0.8-0.5-0.9-1.2-0.9C47.8,18,45.4,17.9,43.1,17.9z"/>
</g>
</svg>
