<?xml version="1.0" encoding="iso-8859-1"?>
<!-- Generator: Adobe Illustrator 25.3.0, SVG Export Plug-In . SVG Version: 6.00 Build 0)  -->
<svg version="1.1" id="Calque_1" xmlns="http://www.w3.org/2000/svg" xmlns:xlink="http://www.w3.org/1999/xlink" x="0px" y="0px"
	 viewBox="0 0 81.9 23.6" style="enable-background:new 0 0 81.9 23.6;" xml:space="preserve">
<g>
	<path d="M29.4,4.3c1.1,0,2.3,0,3.4,0c1.1,0.1,2.2,0.2,3.4,0.3c1.6,0.1,3.2,0.1,4.4-1.4c1.1-1.3,2.6-2,4.2-2.7
		c2.3-1,4.6-0.5,6.8,0.3c0.8,0.3,1.6,0.8,2.4,1.2c0.9,0.4,1.2,1.2,1.6,1.9c0.5,1.2,0,1.9-1.3,2.3c-0.7,0.2-1.5,0.4-2.2,0.7
		c-0.2,0-0.3,0.1-0.5,0.2c0.2,0,0.3,0.1,0.5,0.1c0.8,0.1,1.5,0.2,2.3,0.3c1.3,0.1,2.6,0.4,3.9,0.3c3.6-0.1,7.3-0.2,10.8-1
		c2.7-0.6,5.5-1,8.2-1.4c0.7-0.1,1.4-0.1,2.2,0c0.7,0,1.3,0.4,1.5,1c0.3,0.8,0.8,1.5,0.9,2.3c0.1,2.2,0.4,4.5-0.3,6.7
		c-0.1,0.4-0.4,0.9-0.6,1.3c-0.4,0.7-1.1,1-2,0.8c-2.1-0.5-4.3-1-6.4-1.5c-0.3-0.1-0.7-0.1-1.1-0.1c-2.2-0.2-4.4-0.6-6.6-0.7
		c-2.1-0.1-4.3-0.2-6.4,0.2c-1.2,0.2-2.5,0.1-3.8,0.2c-0.1,0-0.3,0.1-0.4,0.2c0.1,0.1,0.2,0.2,0.3,0.3c0.3,0.1,0.6,0.2,0.8,0.3
		c1.5,0.8,1.9,1.7,1.6,3.2c-0.2,1.1-1.4,2.2-2.7,2.3c-4,0.3-7.9-0.3-11.1-3c-0.8-0.7-1.6-0.9-2.6-0.9c-1.8,0.1-3.6,0.2-5.4,0.4
		c-0.1,0-0.2,0-0.3,0.1c0.1,0.1,0.1,0.3,0.2,0.4c1,1,1.3,2.2,1.4,3.6c0,1.2-0.6,1.6-1.7,1c-1.4-0.7-2.2-2-3-3.2
		c-0.2-0.4-0.4-0.7-0.6-1.1c-0.2-0.5-0.5-0.7-1.1-0.7c-2.7-0.1-5.4-0.2-8-0.4c-1.6-0.1-3.2-0.4-4.8-0.6c-1.1-0.1-2.1-0.2-3.2-0.4
		c-2.8-0.6-5.6-1.2-8.3-1.9c-1.7-0.4-3.4-1.1-4.8-2.2C0.4,12.5,0,12.1,0,11.4c0-0.5-0.2-1.2,0.8-0.9c0.5-0.6,1.3-0.7,1.9-1
		C6,7.5,9.8,6.8,13.5,6c2.1-0.5,4.3-1.1,6.4-1.3c2.5-0.3,5.1-0.3,7.7-0.4C28.2,4.2,28.8,4.3,29.4,4.3z"/>
</g>
</svg>
