<?xml version="1.0" encoding="iso-8859-1"?>
<!-- Generator: Adobe Illustrator 25.3.0, SVG Export Plug-In . SVG Version: 6.00 Build 0)  -->
<svg version="1.1" id="Calque_1" xmlns="http://www.w3.org/2000/svg" xmlns:xlink="http://www.w3.org/1999/xlink" x="0px" y="0px"
	 viewBox="0 0 84 26.1" style="enable-background:new 0 0 84 26.1;" xml:space="preserve">
<g>
	<path d="M32.5,0c0.6,0.1,1.4,0.1,1.6,0.5c0.4,0.8,0.8,1.8,0.8,2.7c0,1-0.4,2.1-0.6,3.1c0,0.2,0,0.3,0.1,0.5
		c0.2-0.1,0.3-0.1,0.5-0.2c0.8-0.5,1.6-1,2.4-1.5C39,3.8,40.9,3.1,43,3.3c2.9,0.3,5.7,1.1,8,3c0.7,0.5,1.1,1.4,1.5,2.2
		c0.6,1.3,1,1.5,2.3,1c1-0.5,2-1.1,3-1.5c1-0.5,2-1,3.1-1.3c0.8-0.2,1.6-0.2,2.4,0.2c1.3,0.7,2.6,1.5,3.4,2.8c0.2,0.3,0.3,0.7,0.2,1
		c-0.4,0.8-0.1,1,0.6,0.9c0.9-0.1,1.8-0.2,2.6-0.5c2.4-1.1,5-1.5,7.6-2c1.7-0.3,3.4-0.6,5.1-0.9C83.6,8,83.9,8.2,83.9,9
		c0,0.5,0,1-0.1,1.4c-0.4,1.9-0.5,3.7,0,5.6c0.1,0.2,0,0.5,0.1,0.7c0,1.4-0.4,1.8-1.7,1.6c-1.5-0.2-2.9-0.5-4.4-0.6
		c-1.4-0.1-2.6-0.7-3.9-1.1c-1.4-0.4-2.7-0.9-4.2-0.8c-1,0.1-1.7,0.3-2.1,1.3c0,0.1-0.1,0.1-0.1,0.2c-1.7,2.9-3.3,3.5-6.6,2.7
		c-1.3-0.3-2.6-0.7-3.9-1.1c-0.3-0.1-0.7-0.2-1-0.2c-1.7-0.3-2.9,0.2-3.8,1.8c-0.7,1.3-1.9,2.3-2.8,3.4c-0.9,1-1.8,1.3-3.2,0.8
		c-2.6-1-5.3-1.7-7.6-3.4c-0.5-0.3-1.2-0.4-1.9-0.4c-4,0-8,0-12.1,0c-0.4,0-0.8,0-1.3,0c-0.4,0-0.8-0.1-1.2-0.1
		c0.2,0.3,0.6,0.5,0.7,0.8c0.3,0.5,0.4,1.1,0.6,1.6c0.2,0.6,0.5,1.2,0.8,1.7c0.2,0.3,0.6,0.5,0.8,0.8c0.1,0.1-1.7,0.5-2,0.2
		c-1.1-0.8-2.1-1.7-3.2-2.6c-0.4-0.3-0.8-0.7-1-1.2c-0.8-1.8-2.4-1.8-4-2.1c-2.2-0.4-4.4-0.8-6.6-1.3c-1.4-0.3-2.8-0.8-4.3-1.2
		c-0.2-0.1-0.4,0-0.6,0c0.1,0.1,0.2,0.2,0.3,0.4c0.1,0.1,0.1,0.3,0.2,0.4c-0.2,0-0.5,0.1-0.6,0c-0.6-0.5-1.3-1-1.5-1.9
		c-0.2-0.7-0.8-1.3-1.3-1.9c-0.5-0.7-0.5-0.8,0.1-1.5c1.2-1.2,2.8-1.8,4.3-2.5c2.5-1.1,5-2.2,7.5-3.2c2.2-0.8,4.5-1.5,6.8-2.1
		c0.8-0.2,1.8-0.1,2.7-0.1c1,0.1,1.7-0.2,2.4-1c1.4-1.6,3-2.9,5-3.7C30.3,0.4,31.3,0,32.5,0z"/>
	<path d="M26.9,17c-1.2,0.2-2.5-0.3-3.7-0.7c-0.1,0-0.2-0.2-0.3-0.3c0.1-0.1,0.2-0.3,0.4-0.3c0.3,0,0.7,0,1,0.1
		c1.7,0.7,3.5,0.7,5.3,0.1c1-0.3,1.8-0.8,2.4-1.8c0.4-0.7,0.3-1.1-0.4-1.3c-0.7-0.2-1.4-0.4-2.1-0.4c-1.8,0-3.7,0.1-5.4,0.9
		c-0.1,0-0.2,0.1-0.3,0.1c-0.2,0-0.3-0.1-0.5-0.2c0.1-0.1,0.1-0.4,0.2-0.4c0.7-0.2,1.5-0.5,2.2-0.6c1.8-0.3,3.6-0.6,5.5-0.2
		c2,0.4,2.5,1.5,1.2,3.1c-0.9,1.2-2.3,1.9-3.8,2C28,17,27.5,17,26.9,17z"/>
	<path d="M62,14.1c-3,0.1-6.6,0.3-10.2,0.4c-1.7,0-3.3-0.2-5-0.4c-0.1,0-0.3-0.1-0.4-0.2c0.1,0,0.2-0.1,0.3-0.1c0.7,0,1.3-0.1,2,0
		c2.7,0.6,5.4,0.5,8,0.2c3.4-0.4,6.8-0.1,10.2-0.3c0.2,0,0.4,0.1,0.6,0.2c-0.2,0.1-0.4,0.1-0.7,0.1C65.4,14.1,64,14.1,62,14.1z"/>
	<path d="M10.8,13.8c-0.6,0.6-1.3,0.4-2,0.2c-1.2-0.3-1.3-1.8-0.4-2.6c0.6-0.5,1.2-0.6,1.9-0.5c0.6,0.6,1.2,1.2,0.7,2.1
		c-0.1,0.2-0.2,0.4-0.3,0.6C10.8,13.6,10.8,13.7,10.8,13.8z"/>
	<path d="M71.1,13.3c0.8,0.1,1.7,0.2,2.5,0.3c-0.8,0.1-1.6,0.1-2.5,0.2c-0.8,0-1.6,0-2.3,0c-0.2,0-0.3-0.1-0.5-0.1
		c0.1-0.1,0.3-0.2,0.4-0.2c0.8,0,1.6,0,2.3,0C71.1,13.3,71.1,13.3,71.1,13.3z"/>
	<path d="M10.8,13.1c0.3-0.5,0.5-0.9-0.1-1.4c-0.2-0.2-0.2-0.5-0.3-0.8c1.4,0.7,1.6,1.6,0.4,2.9l-0.1-0.1
		C10.6,13.5,10.6,13.3,10.8,13.1z"/>
	<path d="M23.9,9.1c0,0-0.5-0.1-1-0.1c0.5-0.1,1-0.2,1.4-0.2c0.4,0,0.8,0,1.2,0c0.1,0,0.3,0.1,0.4,0.2c-0.2,0-0.3,0.1-0.5,0.1
		C25.1,9.1,24.7,9.1,23.9,9.1z"/>
	<path d="M43.2,12.9c0.4,0.1,0.8,0.2,1.1,0.3c0.4,0.1,0.7,0.3,1.1,0.4c-0.5,0-0.9,0-1.4,0c-0.3,0-0.6-0.1-0.8-0.2
		c-0.2,0-0.3-0.1-0.5-0.2C42.9,13.1,43.1,13,43.2,12.9z"/>
	<path d="M32.4,9.8c0.3,0.1,0.9,0.2,1.4,0.4c0.1,0,0.1,0.1,0.2,0.2c-0.1,0-0.2,0.1-0.3,0.1c-0.6-0.1-1.2-0.2-1.7-0.3
		c-0.1,0-0.2-0.1-0.4-0.2c0.2,0,0.3-0.1,0.5-0.1C32.1,9.8,32.2,9.8,32.4,9.8z"/>
	<path d="M27.7,9.5c-0.1,0-0.3,0-0.6,0c-0.1,0-0.1-0.1-0.1-0.1c0-0.1,0.1-0.2,0.1-0.2c0.4,0,0.8-0.1,1.2,0c0.2,0,0.4,0.1,0.6,0.2
		c-0.2,0.1-0.4,0.1-0.6,0.2C28.1,9.5,28,9.5,27.7,9.5z"/>
	<path d="M37.3,11.6c-0.4-0.1-0.8-0.3-1.3-0.4c0,0-0.1-0.1-0.1-0.2c0,0,0.1-0.1,0.1-0.1c0.5,0.1,1,0.3,1.5,0.4c0,0,0.1,0.1,0.1,0.1
		C37.5,11.5,37.4,11.5,37.3,11.6z"/>
</g>
</svg>
