<svg xmlns="http://www.w3.org/2000/svg" viewBox="-633 -2 1614 445" width="1614" height="445">
  <path d="M0,0 L366,0 L504,1 L569,2 L644,4 L695,6 L723,8 L749,15 L765,23 L779,33 L791,44 L797,52 L801,62 L802,66 L827,61 L847,58 L856,56 L865,55 L897,55 L921,58 L935,63 L947,69 L959,78 L971,90 L977,98 L977,193 L966,205 L955,214 L943,223 L924,230 L920,231 L899,231 L849,226 L835,223 L817,217 L794,212 L793,219 L786,233 L778,243 L770,252 L758,261 L743,269 L729,273 L720,276 L694,281 L670,286 L641,290 L597,295 L553,297 L535,300 L491,303 L469,305 L450,308 L412,311 L372,313 L334,314 L288,314 L256,312 L220,309 L201,308 L184,305 L177,303 L165,301 L156,297 L141,288 L125,273 L123,271 L76,272 L37,274 L5,276 L-32,277 L-183,277 L-225,273 L-235,273 L-227,283 L-222,295 L-221,299 L-221,325 L-222,335 L-215,343 L-206,351 L-195,360 L-184,371 L-175,378 L-169,383 L-162,391 L-150,406 L-143,420 L-142,429 L-144,439 L-198,439 L-205,432 L-213,425 L-225,413 L-233,406 L-244,396 L-252,389 L-265,377 L-272,369 L-285,354 L-297,342 L-308,328 L-321,310 L-334,288 L-343,274 L-348,263 L-351,253 L-371,253 L-377,254 L-399,254 L-422,249 L-440,243 L-450,240 L-490,239 L-502,236 L-502,246 L-505,257 L-511,265 L-519,271 L-529,275 L-540,275 L-549,272 L-559,263 L-563,254 L-564,246 L-563,233 L-566,223 L-567,211 L-575,203 L-582,193 L-586,182 L-588,176 L-596,169 L-602,159 L-604,152 L-605,125 L-618,117 L-628,109 L-631,105 L-631,70 L-622,62 L-612,59 L-605,59 L-594,63 L-584,69 L-574,73 L-570,76 L-566,74 L-555,69 L-538,62 L-525,59 L-508,54 L-491,50 L-474,45 L-449,41 L-437,38 L-429,37 L-408,36 L-392,33 L-373,30 L-332,26 L-299,23 L-295,19 L-293,16 L-291,16 L-291,14 L-280,7 L-267,3 L-258,4 L-250,8 L-244,15 L-242,19 L-242,22 L-216,22 L-179,24 L-140,28 L-102,31 L-84,34 L-74,36 L-51,37 L-41,26 L-36,20 L-23,10 L-7,2 Z " fill="#000000" stroke="none" fill-rule="nonzero"/>
</svg>