<?xml version="1.0" encoding="iso-8859-1"?>
<!-- Generator: Adobe Illustrator 25.3.0, SVG Export Plug-In . SVG Version: 6.00 Build 0)  -->
<svg version="1.1" id="Calque_1" xmlns="http://www.w3.org/2000/svg" xmlns:xlink="http://www.w3.org/1999/xlink" x="0px" y="0px"
	 viewBox="0 0 82.8 34.5" style="enable-background:new 0 0 82.8 34.5;" xml:space="preserve">
<g>
	<path d="M24.1,22.2c1.7,0,3.4,0,5,0c0.8,0,1.6-0.2,2.5-0.3c0.7-0.1,1.1-0.5,1.6-1c0.9-0.9,1.9-1.8,2.9-2.6c1.3-1,1.9-0.8,2.6,0.6
		c0.3,0.6,0.6,1.3,1,1.9c0.2,0.5,0.3,0.9-0.1,1.3c-0.5,0.6,0,0.5,0.3,0.5c1,0,2,0,3.1,0c0.8,0,1.7,0.2,2.5,0.3
		c0.8,0.1,1.5,0.2,2.2-0.3c0.8-0.6,1.1-0.5,1.8,0.3c0.3,0.4,0.6,0.4,1.1,0.5c1,0.1,2,0.3,3,0.3c0.9,0,1.8-0.1,2.6-0.4
		c2.1-0.7,4.1-1.5,6.2-2.1c0.6-0.2,1.2-0.3,1.7-0.2c1.1,0,1.6,0.8,1.1,1.8c-0.5,1-1.2,1.8-2.2,2.3c-0.4,0.2-0.4,0.5,0,0.8
		c0.6,0.5,1.3,0.9,1.8,1.5c0.3,0.3,0.5,0.8,0.6,1.2c0.1,0.9-0.2,1.4-1.1,1.4c-0.5,0-1.1,0-1.6-0.1c-1.9-0.5-3.8-1-5.6-1.7
		c-1.6-0.6-3.1-0.3-4.7-0.3c-0.2,0-0.5,0.2-0.5,0.3c-0.1,0.8-0.8,1-1.3,1.4c-0.9,0.7-1.7,1.5-2.6,2.2c-0.9,0.8-1.4,1-2.6,0.4
		c-0.9-0.5-1.9-1-2.7-1.8c-0.9-0.9-1.9-0.9-3-0.7c-1.2,0.2-2.4,0.4-3.7,0.7c-0.1,0-0.3,0.2-0.4,0.3c0.1,0.1,0.2,0.2,0.3,0.4
		c0.9,0.9,0.7,3.2-0.4,3.7c-0.2,0.1-0.7,0.1-1-0.1c-1.1-0.8-2.2-1.6-3.3-2.4c-0.5-0.4-0.9-0.8-1.4-1.1c-0.3-0.2-0.8-0.2-1.1-0.2
		c-1.3,0-2.6,0-3.9,0c-0.6,0-1.2-0.1-1.8-0.1c-3.8,0-7.5-0.1-11.2-0.7c-1.1-0.2-2.2,0.1-3.2,0c-2.1-0.2-4.2-0.6-6.3-1
		c-0.5-0.1-0.9-0.3-1.3-0.5c-1.1-0.6-1.5-1.9,0-2.5c0.9-0.4,1.9-0.8,2.9-1c2.2-0.6,4.5-1,6.7-1.6c1.5-0.4,3-0.6,4.6-0.6
		c3-0.1,6-0.3,8.9-0.5C24.1,22.1,24.1,22.1,24.1,22.2z"/>
	<path d="M29.1,3.4c6.5-0.5,12.9,0,19.4-0.2c1.4,0,2.9-0.3,4.2-1.2c2-1.3,4.3-2.1,6.8-1.9C61,0.2,62.8,1.8,63,3.3c0.1,1,0.1,1,1,1
		C67.3,4.2,70.6,4,73.9,3c1.4-0.4,2.7-0.8,4.1-1.2c0.6-0.2,1.3-0.3,1.9-0.3c1.4,0,2.1,0.6,2.5,1.8c0.6,2.2,0.5,4.3,0.3,6.5
		c0,0.5-0.2,0.9-0.2,1.4c-0.3,2-2,3.1-4,2.5c-0.3-0.1-0.6-0.1-0.8-0.3c-3-1.8-6.4-2.1-9.7-2.9C67,10.3,66,10.5,65,10.5
		c-0.5,0-0.6,0.3-0.6,0.7c0,0.7-0.1,1.4-0.7,1.9c-0.9,0.8-1.6,1.7-2.9,2c-1.8,0.4-3.5,0.2-5.1-0.8c-0.6-0.4-1.3-0.8-2-1.2
		c-2-1.2-4.1-1-6.2-0.5c-0.2,0.1-0.5,0.2-0.6,0.3c-1.1,1.6-2.7,1.2-4.2,0.8c-1.2-0.3-2.3-0.5-3.5-0.5c-2.7,0-5.4,0.3-8-0.1
		c-3-0.4-6.1,0-9.1-0.6c-1.7-0.3-3.4-0.3-5.2-0.4c-1.3-0.1-2.5-0.4-3.4-1.3c-1.3-1.2-1-3.4,0.5-4.2c2.4-1.2,4.9-2.2,7.6-2.5
		C24.1,4,26.6,3.7,29.1,3.4z"/>
	<path d="M52.7,6.9c-1.4,0-2.7,0-4.1,0c-0.2,0-0.3-0.1-0.5-0.1c0.1-0.1,0.3-0.2,0.4-0.2c2.8,0,5.6,0,8.4,0c0.1,0,0.3,0.1,0.4,0.2
		c-0.2,0-0.3,0.1-0.5,0.1C55.4,6.9,54,6.9,52.7,6.9z"/>
</g>
</svg>
