<?xml version="1.0" encoding="iso-8859-1"?>
<!-- Generator: Adobe Illustrator 25.3.0, SVG Export Plug-In . SVG Version: 6.00 Build 0)  -->
<svg version="1.1" id="Calque_1" xmlns="http://www.w3.org/2000/svg" xmlns:xlink="http://www.w3.org/1999/xlink" x="0px" y="0px"
	 viewBox="0 0 241.3 69.5" style="enable-background:new 0 0 241.3 69.5;" xml:space="preserve">
<g>
	<path d="M187.5,32.4c10.4,0,20.4-2.1,30.4-4.7c4.2-1.1,8.4-2.1,12.8-1.7c1.6,0.2,3.3,0.5,4.8,1.2c4.2,1.9,4.7,4.6,1.9,8.3
		c-3.6,4.8-4.6,7.6,0.8,14.1c0.7,0.9,1.7,1.6,2.4,2.6c1.4,2,0.8,4-1.6,4.7c-1.9,0.5-4,0.6-5.9,0.3c-9.6-1.7-19.2-3.5-28.8-5.4
		c-5.7-1.1-11.5-1.8-17.3-1.4c-0.5,0-0.9,0.3-1.4,0.4c0.3,0.5,0.6,1,1,1.5c1.2,1.8,2.7,3.4,3.6,5.3c1.4,3.1-0.2,6.1-3.5,6.6
		c-4.2,0.6-8.4,0.4-11.4-3.3c-0.2-0.3-0.5-0.4-0.7-0.7c-5.2-8.3-13.2-7.5-21.3-6.5c-6.1,0.8-12.2,1-18.3,0c-1.3-0.2-2.6-0.3-4-0.3
		c-2.8-0.1-2.9,0-1.3,2.5c1.3,2.1,1.2,4,0.3,6.1c-1.8,4.2-5.3,6.6-9.5,7.2c-4.8,0.7-9.6,0.4-14.1-1.8c-4.2-2-7.1-4.9-8.1-9.4
		c-0.5-2.2-1.7-2.7-3.5-2.5c-4.1,0.3-8.3,0.3-12.4,1c-1.8,0.3-3.7,1.5-5.1,2.8c-3.8,3.4-8.6,4.6-13.3,5c-10.7,0.7-21.3-0.8-31-5.6
		c-5.3-2.7-10.2-6.1-16.5-5.8c-1.6,0.1-3.2-0.8-4.8-1.2c-1.8-0.5-1.9,0.1-0.9,1.4c-0.5,0.1-1.1,0.4-1.4,0.2c-2.3-1.3-4.6-2.5-6.7-4
		c-3.1-2.3-3.3-4.8-0.4-7.5c4.2-3.9,9.3-6.6,14.6-8.5c14.2-5,28.4-10,43.3-12.8c3.6-0.7,7.2-0.9,10.9-1.2c3.3-0.3,6.6-0.7,9.9-0.9
		c1.7-0.1,3.3-0.1,5,0c5.1,0.2,10.3,0.5,15.4,0.8c1.7,0.1,2.6-0.6,3.7-1.9c3.6-4.3,7.5-8.5,11.3-12.6c1-1.1,2.1-2.2,3.3-3
		c2.8-2,5.5-2,8.3-0.1c0.9,0.7,1.9,1.4,2.6,2.4c4.4,6,8.8,12.1,13.1,18.2c1,1.4,0.4,2.5-1.2,3c-0.2,0.1-0.3,0.1-0.5,0.1
		c-2,0.4-4.4-0.3-6.1,1.6c2,0.1,4,0.1,5.9,0.4c9.2,1.2,18.3,2.6,27.5,3.7C175.3,31.6,181.4,31.9,187.5,32.4z"/>
	<path d="M67.4,33.8c-6.8,0.8-13.7,1.6-20.6,2.3c-0.7,0.1-1.3,0.2-2,0.1c-1.4-0.1-2.8-0.4-4.2-0.6c0.9-2.1,2.8-1.3,4.3-1.5
		c4.3-0.6,8.5-1.4,12.8-1.6c6.4-0.2,13-0.4,19.4,0.3c10.5,1.1,20.8,4.1,31.5,3.4c5.9-0.4,11.5,1.3,17.1,2.4
		c4.6,0.9,9.1,1.6,13.8,1.7c14.9,0.2,29.9,0.6,44.8,0.8c3.5,0,6.9-0.5,10.4-0.7c1.5-0.1,3,0,4.5,0.2c0.2,0,0.6,0.5,0.6,0.7
		c-0.1,0.4-0.4,0.8-0.7,1.1c-0.2,0.2-0.6,0.1-1,0.1c-6.8,0.3-13.6,1.2-20.4,0.7c-14.3-1-28.6-0.3-42.8-0.8
		c-4.1-0.2-8.2-1.2-12.2-2.3c-4.9-1.3-9.8-1.9-14.7-1.6c-8.2,0.5-16.1-1.2-24.1-2.6C78.5,34.8,73,34.4,67.4,33.8z"/>
</g>
</svg>
