<?xml version="1.0" encoding="iso-8859-1"?>
<!-- Generator: Adobe Illustrator 25.3.0, SVG Export Plug-In . SVG Version: 6.00 Build 0)  -->
<svg version="1.1" id="Calque_1" xmlns="http://www.w3.org/2000/svg" xmlns:xlink="http://www.w3.org/1999/xlink" x="0px" y="0px"
	 viewBox="0 0 86.8 19.3" style="enable-background:new 0 0 86.8 19.3;" xml:space="preserve">
<g>
	<path d="M76,5.7c0.2-0.2,0.4-0.6,0.7-0.7c2.1-1.1,4.4-1.6,6.8-2.1c1.3-0.3,2.3,0.5,3.2,1.3c0.1,0.1,0.1,0.6,0,0.8
		c-0.3,0.8-0.7,1.6-1.2,2.4c-0.4,0.7-0.5,1.4-0.1,2.2c0.5,0.8,0.8,1.7,1.2,2.6c0.5,1.5,0.2,1.9-1.4,2c-2,0.1-3.9-0.6-5.7-1.3
		c-1.8-0.8-3.6-1.7-5.4-2.6c-0.8-0.4-1.6-0.7-2.5-0.7c-0.9,0.1-1.8,0-2.7,0c-2,0-3.9,0.2-5.8,0.6c-0.5,0.1-1,0-1.4,0.1
		c-0.6,0.2-1.2,0.3-1.6,0.7c-1.7,1.9-3.9,3.2-6,4.6c-0.5,0.4-0.9,1.2-1.8,1c-0.7-0.8-0.2-1.3,0.4-1.7c1.2-0.8,2.3-1.7,3.4-2.5
		c0.1-0.1,0.4,0,0.4-0.2c0.2,0.2,0-0.2,0,0c0,0.1-0.2,0.1-0.3,0.1c-2.1,0.8-4.3,1.3-6.5,2c-0.2,0.1-0.5,0.1-0.6,0.3
		c0,0.3,0.3,0.4,0.5,0.5c0.9,0.5,1.8,0.9,2.6,1.6c0.2,0.8-0.4,0.8-0.9,0.7c-1-0.3-2-0.8-3-1.2c-0.3-0.1-0.5-0.4-0.7-0.5
		c-0.2-0.1-0.4-0.1-0.6-0.2c0,0.2,0.1,0.4,0.1,0.6c0,0.3-0.1,0.5-0.1,0.8c-0.3-0.1-0.6-0.1-0.8-0.3c-0.3-0.2-0.6-0.5-0.7-0.8
		c-0.4-1.1-1.3-1.1-2.2-0.9c-2,0.4-4,0.9-6.1,1.2c-1.8,0.3-3.5,0.4-5.3,0.5c-0.9,0.1-1,0.3-0.8,1.1c0.1,0.4,0.4,0.7,0.5,1.1
		c0,0.1,0,0.4-0.1,0.4c-0.1,0.1-0.4,0.1-0.5,0c-0.5-0.5-1.2-0.9-1.6-1.4c-0.7-1.1-1.7-1.4-2.9-1.3c-1.3,0.1-2.6,0-4,0
		c-3.7,0.1-7.2-0.6-10.8-1.5c-1.7-0.4-3.4-0.5-5-1.3c-0.9-0.4-2-0.3-3-0.4c-0.9-0.2-1.6-0.6-2.1-1.5c-0.3-0.5-0.7-0.8-1-1.2
		c-1.3-1.4-0.9-3,1-3.5C4.4,6.4,7.1,5.7,9.8,5c1-0.2,2-0.3,3-0.4c1.5-0.2,3.1-0.3,4.6-0.4c1-0.1,2-0.2,3-0.4
		c0.5-0.1,0.7-0.3,0.8-0.8c0.1-0.5,0.2-1,0.3-1.5c0.1-0.2,0.2-0.4,0.3-0.6c0.1,0.2,0.2,0.4,0.2,0.6c0,0.1,0,0.3,0,0.4
		c0.3,0.6,0.6,1.3,0.9,1.9c0.4-0.5,0.7-1,1.1-1.5c0.3-0.5,0.6-1,1-1.4c0.1,0.5,0.2,1.1,0.3,1.6c0,0.1,0,0.3,0,0.4
		c0.1,0.2,0.3,0.5,0.4,0.7c0.2-0.2,0.5-0.3,0.5-0.5c0.2-0.5,0.3-1,0.4-1.5c0-0.1,0.2-0.2,0.4-0.3c0.1,0.2,0.4,0.3,0.4,0.5
		c0.1,0.5,0,1,0.1,1.4c0,0.2,0.3,0.4,0.4,0.4c0.2,0,0.4-0.2,0.5-0.4c0.3-0.6,0.4-1.2,0.7-1.8c0.1-0.2,0.3-0.3,0.4-0.4
		c0.1,0.1,0.3,0.3,0.3,0.4C29.9,1.7,30,2.2,30,2.7c0,0.3-0.1,0.8,0.4,0.8c0.2,0,0.5-0.4,0.6-0.7c0.3-0.5,0.4-1,0.7-1.4
		c0.1-0.2,0.3-0.3,0.5-0.5c0.1,0.2,0.2,0.4,0.3,0.6c0,0.4,0,0.7,0,1.1c0,0.2,0.2,0.6,0.4,0.6c0.2,0,0.6-0.1,0.7-0.3
		C34,2.2,34.2,1.6,34.5,1c0-0.1,0.2-0.2,0.3-0.2C34.9,0.9,35,1,35,1.1c0,0.4,0,0.8,0.1,1.2c0.1,0.3,0.2,0.7,0.4,0.8
		c0.4,0.1,1,0.2,1.2-0.4C36.9,2.5,37,2.2,37.1,2c0.2-0.4,0.4-0.7,0.6-1.1c0.1,0.4,0.2,0.7,0.3,1.1c0.1,0.2,0.1,0.5,0.3,0.7
		c0.1,0.2,0.4,0.6,0.5,0.5c0.3,0,0.7-0.2,0.8-0.5c0.4-0.5,0.6-1.1,1-1.7c0-0.1,0.2-0.1,0.3-0.1c0.1,0,0.2,0.2,0.2,0.2
		c0,0.6,0,1.2,0,1.8c0,0.2,0.3,0.5,0.5,0.6c0.3,0.1,0.7,0.1,0.8-0.4c0.2-0.7,0.6-1.3,0.9-1.9c0.1-0.1,0.3-0.2,0.4-0.3
		C43.9,1,44,1.1,44,1.3c0,0.6,0,1.2,0,1.8c0,0.1,0.2,0.4,0.3,0.4c0.1,0,0.4-0.1,0.4-0.2c0.8-1.6,2.3-2.3,3.9-2.9
		c0.8-0.3,1.4-0.4,2.2,0c1.4,0.9,2.8,1.7,4.2,2.6c1.8,1.1,3.6,2.3,5.5,3.3c0.9,0.4,1.9,0.5,2.9,0.6c1.8,0.1,3.6,0,5.3,0.3
		c1.5,0.2,3-0.2,4.4-0.3c0.4,0,0.7-0.3,1-0.6C74.8,5.7,75.4,5.6,76,5.7c0.5,0.8,0.9,1.6,0.8,2.5c0,1.2,0.5,1.9,1.6,2.3
		c1.5,0.7,3,1.4,4.7,1.7c1.3,0.3,1.7-0.2,1.3-1.4c-0.6-1.6-0.7-3,0-4.6C85,5,84.3,4.4,82.8,4.6C81.1,4.8,79.6,5.5,78,6
		C77.3,6.2,76.6,6.5,76,5.7z"/>
	<path d="M19.5,7.1c0,0-0.3,0-0.5-0.1c-0.2-0.2-0.5-0.5-0.5-0.6c0.1-0.3,0.4-0.5,0.7-0.7c0.1-0.1,0.4,0.2,0.5,0.1
		c0.6-0.3,1.1-0.2,1.2,0.5C21,6.8,20.4,7.1,19.5,7.1z"/>
	<path d="M25.3,6.8c-0.2,0.1-0.6,0.4-0.9,0.4c-0.3,0-0.5-0.4-0.8-0.6c0.2-0.3,0.4-0.7,0.8-0.9C24.7,5.6,25.3,6.1,25.3,6.8z"/>
	<path d="M23.4,6.5c-0.3,0.3-0.6,0.7-0.7,0.7C22.3,7,22,6.7,21.7,6.5c0.2-0.3,0.4-0.8,0.6-0.7C22.6,5.9,22.9,6.2,23.4,6.5z"/>
	<path d="M9.3,8.3c0,0.6-0.6,1.3-1.2,1.3c-0.6,0.1-1.2-0.4-1.2-1C6.8,7.9,7.4,7.2,8,7.1C8.6,7.1,9.3,7.7,9.3,8.3z"/>
</g>
</svg>
