<?xml version="1.0" encoding="iso-8859-1"?>
<!-- Generator: Adobe Illustrator 25.3.0, SVG Export Plug-In . SVG Version: 6.00 Build 0)  -->
<svg version="1.1" id="Calque_1" xmlns="http://www.w3.org/2000/svg" xmlns:xlink="http://www.w3.org/1999/xlink" x="0px" y="0px"
	 viewBox="0 0 83.3 39" style="enable-background:new 0 0 83.3 39;" xml:space="preserve">
<g>
	<path d="M36.2,5.6c2.1-0.1,4.2-0.2,6.3-0.3c0.4,0,0.8-0.1,1.1,0c1.5,0.6,2.9-0.1,4.3-0.5c1.3-0.3,2.5-0.8,3.8-1.1
		c1.9-0.5,3.2,0.1,4,1.8c0.7,1.4,1.3,2.8,1.8,4.3c0.6,1.6,0.5,1.6-1,2.4c-0.1,0.1-0.2,0.1-0.3,0.1c0.1,0,0.2,0.1,0.3,0.1
		c1,0.2,1.9,0.5,2.9,0c1.4-0.6,1.4-0.5,2.4,0.7c0.1,0.2,0.4,0.3,0.6,0.3c1.1-0.1,2.2,0,3.2-0.3c2.8-0.8,5.6-1.7,8.3-2.7
		c2.2-0.8,4.5-1,6.9-0.9c1.2,0.1,1.5,0.6,0.7,1.6c-0.9,1.1-2,2.2-3.2,3.1c-1.7,1.4-3.4,2.6-5.2,3.8c-0.5,0.4-0.5,0.7-0.2,1
		c1.1,1,2.3,2.1,3.5,3c1.7,1.3,3.6,2.5,5.4,3.8c0.5,0.3,0.9,0.8,1.3,1.2c0.5,0.6,0.2,1.3-0.6,1.4c-0.4,0.1-0.9,0.1-1.3,0
		c-3.4-0.9-6.9-1.3-10.1-2.8c-2.1-1-4.1-2.1-6.2-3.1c-1-0.4-2-0.6-3.1-0.9c-0.2,0-0.4,0-0.5,0c0.1,0.1,0.3,0.3,0.4,0.4
		c0.6,0.7,0.6,1.1-0.3,1.5c-0.2,0.1-0.4,0.2-0.7,0.2c-2.6,1-4.7,2.5-6.5,4.6c-2.4,2.7-4.4,5.6-7.2,7.9c-0.9,0.8-2,1.5-3.1,2.1
		c-1,0.6-2.2,0.6-3.2,0c-1.2-0.7-2.3-1.4-3.5-2.2c-0.7-0.5-0.8-0.4-0.9,0.5c-0.1,0.6-0.3,1-1,1c-0.6,0-1.3,0-1.7-0.2
		c-0.8-0.4-1.5-0.3-2.2-0.1c-2.8,0.6-5.7,0.5-8.5,0.1c-2.9-0.4-5.7-1.1-8.4-2.4c-2.5-1.2-4.4-3-6.1-5.1c-2.3-2.8-3.8-6.1-5.2-9.5
		c-1-2.4-2.2-4.7-2.8-7.3C0.1,12.8,0,12.2,0,11.6c0-0.9,0.1-0.7,1.2-1.2c2.6-1.2,5.5-0.7,8.2-1.2c2.9-0.6,5.8-1,8.8-1.4
		c2-0.3,4-0.5,6-0.7c0.6-0.1,1-0.2,1.4-0.6c0.7-0.6,1.4-1.1,2.2-1.6c2.8-1.7,5.8-3.3,8.9-4.4c0.6-0.2,1.1-0.4,1.7-0.5
		C38.6,0,39,0.1,39,0.2c0,0.2,0,0.6-0.2,0.7c-0.8,0.8-1.7,1.5-2.5,2.2c-0.3,0.3-0.6,0.6-0.8,0.9c-0.3,0.5-0.6,0.9-0.9,1.4
		C35.1,5.6,35.6,5.6,36.2,5.6C36.2,5.6,36.2,5.6,36.2,5.6z"/>
	<path d="M60.3,17.5c-3.5-0.1-7-0.2-10.6-0.4c-0.2,0-0.3-0.1-0.5-0.1c0.1-0.1,0.3-0.2,0.4-0.2c1.1-0.1,2.3-0.5,3.3-0.3
		c1.9,0.4,3.7,0.2,5.5,0.3c1.6,0,3.2,0,4.9,0c0.3,0,0.9,0.2,0.9,0.3c-0.1,0.6-0.6,0.3-1,0.4c-0.2,0-0.5,0-0.7,0
		C61.8,17.5,61.1,17.5,60.3,17.5z"/>
	<path d="M43.1,16.7c-1.2,0-2.4,0-3.6,0c-0.1,0-0.2-0.1-0.3-0.1c0.1-0.1,0.2-0.2,0.3-0.2c0.9,0.2,1.8-0.3,2.8-0.1
		c1.4,0.3,2.9,0.1,4.3,0.1c0.2,0,0.4,0,0.5,0c0.1,0,0.2,0.1,0.3,0.2c-0.1,0-0.2,0.1-0.3,0.1C45.7,16.7,44.4,16.7,43.1,16.7z"/>
	<path d="M8,15.7c0,0.1-0.1,0.1-0.1,0.1c-1.2,0.4-2.6-0.3-3.1-1.4c-0.5-1.2,0-2.5,1-3.1c1.2-0.6,2.8-0.4,3.4,0.5
		c0.3,0.5,0.4,1.2,0.5,1.8c0.1,0.6-0.2,1-0.7,1.3c-0.6-0.3-0.3-1.4-1.3-1.5c-0.1,0-0.2-0.1-0.3-0.1c-0.1,0-0.2,0-0.3,0.1
		c-0.1,0.1-0.2,0.1-0.3,0.2c-0.3,0.5-0.2,0.9,0.4,1.2C7.6,15,7.9,15.2,8,15.7z"/>
	<path d="M8,12.5c0.1,0.1,0.1,0.2,0.2,0.3c0,0.5,0,1,0.1,1.5c-0.6,0-1.2,0.1-1.7-0.1c-0.7-0.2-0.3-0.9-0.4-1.4
		c0.1-0.1,0.3-0.3,0.4-0.4C7,11.8,7.5,11.7,8,12.5L8,12.5z"/>
</g>
</svg>
