<?xml version="1.0" encoding="iso-8859-1"?>
<!-- Generator: Adobe Illustrator 25.3.0, SVG Export Plug-In . SVG Version: 6.00 Build 0)  -->
<svg version="1.1" id="Calque_1" xmlns="http://www.w3.org/2000/svg" xmlns:xlink="http://www.w3.org/1999/xlink" x="0px" y="0px"
	 viewBox="0 0 83.2 6.4" style="enable-background:new 0 0 83.2 6.4;" xml:space="preserve">
<g>
	<path d="M14.6,0.6c1.9,0.2,4.5,0.4,7.2,0.6c0.5,0,1.1,0,1.6,0c7.4,0,14.9,0,22.3,0c0.7,0,1.6-0.2,2.2-0.5c1.6-0.9,3.2-0.9,4.8-0.1
		c1.7,0.8,3.4,0.9,5.2,1c1.5,0.1,2.9-0.3,4.1-1c1.3-0.8,2.5-0.6,3.7,0.1c1.6,1,3.3,1.9,5.2,2.4c2.1,0.5,4.3,0.4,6.4-0.2
		c0.6-0.2,1.2-0.8,1.7-1.2c1.4-1.1,2.2-1.2,3.4,0c0.4,0.5,1.3,1,0.8,1.8c-0.5,0.9-0.9,2-2.3,2c-0.6,0-1.2,0.1-1.8-0.1
		c-1.3-0.3-2.6,0.1-3.9,0.2c-3,0.4-5.9,0.9-8.9,0.2c-0.5-0.1-1.1,0-1.6-0.1c-0.9-0.1-1.9-0.1-2.8-0.4c-2.6-0.7-5.2-0.2-7.9-0.3
		c-2.3,0-4.5,0.1-6.8,0.3c-6.3,0.5-12.7,0.3-19,0.3c-3,0-5.9-0.4-8.9-0.6c-0.4,0-0.9,0-1.2,0.1c-1.2,0.6-2.4,0.5-3.7,0.5
		c-2.4,0-4.8,0-7.2,0C6,5.9,5.1,5.7,3.9,6.2C2.7,6.8,1.4,6,0.3,5.2C-0.3,4.7,0,3.8,0.7,3.4C1.5,3,2.3,2.7,3.1,2.2
		c1.4-0.8,3-1.2,4.6-1.3C9.7,0.7,11.7,0.7,14.6,0.6z"/>
	<path d="M11.8,2.8C12.4,2.8,13,2.9,13.6,3c0.2,0,0.4,0.3,0.4,0.4c0,0.2-0.3,0.5-0.4,0.5c-0.9,0-1.8-0.4-2.8-0.3
		c-0.1,0-0.2-0.4-0.2-0.6c0-0.1,0.2-0.3,0.3-0.3C11.2,2.7,11.5,2.8,11.8,2.8C11.8,2.8,11.8,2.8,11.8,2.8z"/>
	<path d="M15.1,4.6c-0.3-0.4-0.5-0.7-0.7-1c0-0.1,0.2-0.3,0.4-0.4C15,3.4,15.3,3.7,15.4,4C15.5,4.1,15.3,4.3,15.1,4.6z"/>
	<path d="M9.5,2.5C9.7,2.9,9.9,3.1,10,3.3c0,0.1-0.3,0.3-0.4,0.4C9.4,3.5,9.2,3.4,9.1,3.1C9.1,3,9.3,2.8,9.5,2.5z"/>
	<path d="M18,4.1c-0.2,0-0.5,0-0.7-0.1c-0.1,0-0.3-0.3-0.3-0.4c0.1-0.2,0.4-0.4,0.6-0.6c0,0,0.3,0.1,0.4,0.3
		C18.1,3.6,18.1,3.8,18,4.1L18,4.1z"/>
</g>
</svg>
