<?xml version="1.0" encoding="iso-8859-1"?>
<!-- Generator: Adobe Illustrator 25.3.0, SVG Export Plug-In . SVG Version: 6.00 Build 0)  -->
<svg version="1.1" id="Calque_1" xmlns="http://www.w3.org/2000/svg" xmlns:xlink="http://www.w3.org/1999/xlink" x="0px" y="0px"
	 viewBox="0 0 72.5 37.1" style="enable-background:new 0 0 72.5 37.1;" xml:space="preserve">
<g>
	<path d="M50.4,17.2c2.3-0.1,4.3-0.9,6.3-1.8c3.6-1.6,7.3-3.2,11.2-4.3c1.3-0.4,2.7-0.7,4-0.5c0.2,0,0.5,0.1,0.6,0.3
		c0.1,0.2-0.1,0.5-0.2,0.6c-0.7,0.6-1.5,1.2-2.2,1.9c-2.3,2.3-4.8,4.3-7.5,6c-0.1,0.1-0.3,0.2-0.4,0.3c-0.7,0.7-0.8,0.9-0.2,1.6
		c0.9,1,1.8,2,2.7,3.1c1.4,1.7,2.7,3.3,4,5c0.4,0.5,0.6,1,0.8,1.6c0.2,0.4,0,0.7-0.4,0.7c-0.5,0-0.9-0.1-1.4-0.2
		c-2.4-0.7-4.6-1.9-6.7-3.2c-1.7-1.1-3.4-2.4-5.1-3.6c-1-0.7-2-1.2-3.3-1.2c-1.5,0.1-3-0.2-4.4,0.7c-0.7,0.5-0.8,0.5-0.1,1
		c0.6,0.5,0.5,0.9,0,1.3c-2.1,2-4.2,4-6.3,6c-0.6,0.5-1.5,0.9-1,2c0,0-0.4,0.3-0.4,0.2c-0.7-0.8-1.3-1.5-1.9-2.3
		c-0.5-0.6-0.3-1.8-1.6-1.7c0,0-0.1-0.1-0.1-0.1c-0.2-1.6-1.5-1.2-2.4-1.1c-3.1,0.5-6.2,0.2-9.3,0.3c-0.5,0-1,0-1.4,0
		c-0.1,0-0.2,0.1-0.3,0.1c0.1,0.1,0.2,0.2,0.3,0.2c0.5,0.1,1,0.2,1.6,0.3c0.9,0.1,1.2,0.3,1.2,1.2c0,1.5,0,3.1,0,4.6
		c0,0.6-0.4,0.8-1,0.5c-0.3-0.2-0.6-0.4-0.8-0.7c-1.5-1.4-2.8-2.9-3.8-4.7C19.7,30,19.6,30,17.7,30c-2.7,0-5.4,0-7.9-1
		c-2.5-0.9-4.8-2.1-6.3-4.4c-0.4-0.5-1.1-0.8-1.8-1.1c-1.8-0.6-2.3-2.2-0.8-3.5c2-1.7,3.9-3.4,6.3-4.7c2.7-1.5,5.3-2.9,8-4.3
		c0.6-0.3,1.2-0.6,1.8-0.8c0.8-0.2,1.2-0.6,1.4-1.4c0.1-0.3,0.3-0.6,0.4-0.9c0.5,0.5,0.4,0.1,0.5-0.3c0-0.4,0-0.7,0.1-1.1
		c0.1-0.3,0.2-0.7,0.3-1c0.5-1.9,1.2-3.7,2.4-5.3c0.1-0.2,0.4-0.2,0.6-0.3c0,0.2,0.1,0.4,0.1,0.6c-0.3,0.7,0.7,0.4,0.7,0.9
		c0,0.5,0,1.1,0,1.6c0.1,0.4,0.2,0.9,0.8,0.3c0.1-0.1,0.5,0.1,0.5,0.1c0,1.1,0.5,1.7,1.7,1.7c0.2,0,0.3,0.5,0.5,0.7
		C27,6,27.4,6.2,27.4,6.1c0.8-0.9,0.9,0,1.2,0.4c0.2,0.4,0.4,0.2,0.7,0.2c0.3,0,0.6,0,0.8,0.2c0.4,0.3,0.7,0.6,1.3,0.2
		c0.1-0.1,0.4-0.1,0.5,0c1,1,2.2,0.4,3.2,0.2c1.7-0.5,3.2-0.1,4.7,0.3c4,1,6.9,3.5,9.3,6.6c0.8,1,0.7,1.1-0.4,1.7
		c-0.2,0.1-0.3,0.1-0.5,0.2c-0.1,0.1-0.3,0.3-0.3,0.4c0,0.1,0.2,0.3,0.4,0.3C49,17.1,49.7,17.1,50.4,17.2z"/>
	<path d="M6.7,22.1c-0.2-0.2-0.4-0.4-0.6-0.6c-0.8-0.9-0.8-1,0-2.3c0.8-0.5,1.7-0.6,2.4-0.1c0.8,0.5,0.9,1.4,0.6,2.2
		C8.6,22.3,7.7,22.5,6.7,22.1z"/>
</g>
</svg>
