<?xml version="1.0" encoding="iso-8859-1"?>
<!-- Generator: Adobe Illustrator 25.3.0, SVG Export Plug-In . SVG Version: 6.00 Build 0)  -->
<svg version="1.1" id="Calque_1" xmlns="http://www.w3.org/2000/svg" xmlns:xlink="http://www.w3.org/1999/xlink" x="0px" y="0px"
	 viewBox="0 0 79.3 46.2" style="enable-background:new 0 0 79.3 46.2;" xml:space="preserve">
<g>
	<path d="M76,29.1c-0.2,0-0.5,0-0.7,0c-0.8-0.1-1.1,0.1-1.3,1c-0.7,3-2,5.8-3.9,8.3c-2.6,3.5-5.7,6.3-10.1,7.3
		C53.3,47.1,47,46.2,42,41c-2.2-2.3-3.8-5.2-5.1-8.1c-0.6-1.4-1.2-2.8-1.7-4.3c-0.2-0.7-0.6-0.9-1.3-0.9c-1.8-0.1-3.5,0.6-5.3,0.9
		c-1.8,0.3-3.5,0.8-5.3,0.9c-1.3,0.1-2.7-0.2-4-0.5c-1.9-0.5-3.7-1.3-5.6-1.9c-0.3-0.1-0.7-0.3-0.9-0.5c-0.4-0.3-0.6-0.7-0.2-1
		c0.4-0.4,0.3-0.7-0.1-1c-0.6-0.3-1.2-0.5-1.8-0.7c-0.3-0.1-0.6,0-0.9-0.1c-0.9-0.2-1.1-1-0.7-1.8c1.2-2.2,2.3-4.4,3.5-6.6
		c0.5-0.8,1-1.6,1.5-2.4c0.6-0.9,0.6-0.9-0.1-1.6C12.3,9.5,10.3,8.5,8,8C6,7.6,4,7.4,2,7.6c-0.6,0-1.2-0.2-1.7-0.4
		C0.1,7.2,0,7,0,6.9c0-0.1,0.2-0.3,0.4-0.3c0.5,0,1.1-0.1,1.6,0C3.7,6.7,5.4,7,7.1,7.2c3,0.2,5.4,1.4,7.3,3.6c0.8,0.8,0.8,0.8,1.5,0
		c2.8-3,6.1-5.3,9.7-7.3c2.4-1.4,5.1-2.1,7.9-2.7c4-0.8,8-0.9,12-0.6c3.7,0.2,7.3,0.9,10.7,2.5c2,0.9,4,1.9,5.9,2.9
		c3.2,1.7,5.7,4.1,7.8,7c1.1,1.5,2.2,2.9,2.8,4.7c0.2,0.5,0.5,0.7,1.1,0.5c0.4-0.2,0.8-0.1,1.2-0.2c0.6-0.1,1.4-0.7,1.4,0.6
		c0.5,0.1,1,0.1,1.5,0.3c0.1,0,0.3,0.2,0.3,0.3c0,0.1-0.1,0.4-0.2,0.4c-0.4,0.2-0.8,0.2-1.2,0.4c-0.3,0.1-0.7,0.3-0.3,0.8
		c0.5,0.5,0.4,0.8-0.3,1c-0.6,0.1-1,0.2-0.2,0.8c0.7,0.5,0.3,0.7-0.2,1c-0.2,0.1-0.3,0.1-0.5,0.2c0.2,0,0.3,0.1,0.5,0.1
		c0.6,0.1,0.9,0.2,0.3,0.8c-0.5,0.6,0.2,0.7,0.5,0.8c0.6,0.1,1.4-0.2,0.8,0.8c0,0,0.4,0.3,0.6,0.4c0.4,0.1,1.2,0.2,1.2,0.4
		c0.1,0.7-0.6,0.7-1.1,0.9c-0.5,0.2-0.4,0.5-0.1,0.8c0.5,0.5,0,0.8-0.4,0.9C77.1,29.1,76.6,29.1,76,29.1C76,29.1,76,29.1,76,29.1z"
		/>
	<path d="M24.7,26.3c0-1.5,0-1.5,1.4-1.9c0.1-0.1,0.2-0.2,0.4-0.3c-0.1-0.1-0.2-0.3-0.4-0.3c-0.4-0.1-0.8,0-1.2-0.1
		c-0.1,0-0.3-0.2-0.3-0.4c0-0.1,0.1-0.3,0.2-0.4c0.1-0.1,0.2-0.2,0.3-0.2c1.2,0,2.2-0.4,3.3-0.7c0.4-0.1,0.9,0.1,1.3,0.4
		c0.7,0.5,0.7,1.5,0.4,2.5c-0.4,0.9-0.7,1.2-1.8,1.1c-0.6-0.1-1.3-0.3-1.9-0.3c-1-0.1-1.1,0-0.7,0.9c0.1,0.2,0.2,0.3,0.2,0.5
		c0.1,0.3,0.7,0.8,0,1c-0.2,0.1-0.7-0.4-0.9-0.7C24.7,26.9,24.7,26.4,24.7,26.3z"/>
	<path d="M17.7,23.5c-0.4,0.2-0.6,0.5-0.8,0.5c-0.2,0-0.4-0.3-0.4-0.6c0-0.1,0.3-0.4,0.4-0.4C17.2,23,17.4,23.2,17.7,23.5z"/>
</g>
</svg>
