<?xml version="1.0" encoding="iso-8859-1"?>
<!-- Generator: Adobe Illustrator 25.3.0, SVG Export Plug-In . SVG Version: 6.00 Build 0)  -->
<svg version="1.1" id="Calque_1" xmlns="http://www.w3.org/2000/svg" xmlns:xlink="http://www.w3.org/1999/xlink" x="0px" y="0px"
	 viewBox="0 0 84.8 26.3" style="enable-background:new 0 0 84.8 26.3;" xml:space="preserve">
<g>
	<path d="M23.9,5c2.2,0.2,5,0.6,7.8,0.8c1.3,0.1,2.6,0.1,4,0c1.7-0.2,3-1.2,4.3-2.3c1.1-0.9,2.3-1.8,3.5-2.5c0.6-0.4,1.3-0.6,2-0.8
		c1.4-0.4,2.5,0.3,2.5,1.6c0,1.8-0.2,3.7-0.4,5.5c0,0.3-0.3,0.6-0.6,0.9c-0.2,0.2-0.4,0.4-0.6,0.5c0.3,0,0.6,0,0.9,0.1
		c1.9,0.2,3.3-0.5,4.4-2c0.9-1.2,2.1-2,3.5-2.6c1.1-0.5,2-0.2,2.5,0.9c0.2,0.5,0.2,1,0.3,1.5c0.1,0.6,0.1,1.2,0.3,1.7
		c0.3,1.3,0.5,1.4,1.8,1c1.6-0.4,3.2-0.9,4.8-1.3c2.9-0.6,5.8-1.2,8.8-1.5c2.9-0.3,5.8-0.8,8.7-0.6c0.6,0,1.3,0.1,1.9,0.4
		C84.7,6.5,85,7,84.6,7.6C84.3,8,84.1,8.5,83.9,9c-0.4,0.9-1.1,1.3-2.1,1c-0.5-0.1-0.9-0.2-1.3,0.1c-3.6,2.3-7.8,3.1-11.7,4.7
		c-0.8,0.3-1.6,0.4-2.4,0.8c-1,0.5-1.9,0.2-2.7-0.2c-1-0.4-1.9-0.9-2.9-1.3c-0.9-0.3-0.9-0.3-0.7,0.6c0.3,1.2-0.2,1.9-1.4,1.9
		c-0.5,0-0.9-0.1-1.4-0.2c-0.2,0-0.3-0.1-0.5-0.2c-2.2-1-4.5-1.5-6.9-1.4c-1.5,0.1-3,0-4.5,0.1c-0.4,0-0.5,0.2-0.3,0.5
		c0.5,0.8,0.6,1.5,0.2,2.4c-0.5,1.1-1,2.3-2.1,3c-0.7,0.5-2.1,0.3-2.8-0.4c-1-1-1.9-2.1-2.8-3.2c-1.2-1.7-1.2-1.6-3.2-1.3
		c-1.7,0.3-3.4,0.6-5.1,0.5c-0.6-0.1-0.9,0.1-1,0.9c-0.1,0.8-0.5,1.5-0.9,2.3c-0.8,1.6-1.5,3.2-2.3,4.8c-0.2,0.3-0.2,0.7-0.4,1
		c-0.8,1.3-1.8,1.4-3,0.5c-2.1-1.5-3-3.8-3.6-6.2c-0.2-0.9-0.3-1.9-0.4-2.8c-0.1-1.1-0.4-1.4-1.6-1.5c-2.3-0.2-4.6-0.5-6.9-1.1
		c-1.4-0.3-2.9-0.5-4.4-0.7c-0.9-0.1-1.8-0.3-2-1.4c-0.1-0.5-0.3-0.5-0.7,0c-0.3,0.4-0.5,0.2-0.7,0.1c-0.8-0.4-0.9-1.3-1.3-2
		c-0.1-0.2,0.1-0.7,0.4-0.9c0.5-0.4,1-0.7,1.5-0.8c2.7-0.8,5.4-1.5,8.2-1.8c1.7-0.2,3.4-0.6,5.1-0.9c0.2,0,0.5-0.1,0.7-0.2
		C18.3,5.3,20.7,5.2,23.9,5z"/>
	<path d="M19.6,11.7c-0.2,0.3-0.4,0.6-0.6,0.6c-0.2,0-0.6-0.3-0.6-0.4c0-0.7,0.1-1.5,0.1-2.2c0-0.1,0.2-0.1,0.3-0.1
		C19.1,10.2,19.4,10.9,19.6,11.7z"/>
	<path d="M17.7,11.2c0,0.2,0,0.5,0,0.7c0,0.1-0.1,0.2-0.2,0.2c-0.1,0-0.2-0.1-0.3-0.1c-0.1-0.2-0.3-0.4-0.3-0.6c0-0.5,0.2-1,0.2-1.5
		C18,10.1,17.5,10.8,17.7,11.2z"/>
	<path d="M13.6,10.9c0,0,0-0.2,0-0.3c0-0.1,0.2-0.2,0.2-0.2c0.1,0,0.2,0.1,0.3,0.2c0.1,0.3,0.2,0.7,0.2,1c0,0.2-0.2,0.5-0.3,0.7
		c-0.1-0.2-0.3-0.4-0.4-0.6C13.6,11.4,13.6,11.3,13.6,10.9z"/>
	<path d="M7.6,8.3C7.8,8.6,8,8.7,8.2,8.9C7.9,9.1,7.6,9.4,7.3,9.5C7.1,9.5,6.9,9.2,6.6,9C6.9,8.8,7.3,8.6,7.6,8.3z"/>
	<path d="M39.9,7.3c0.4,0,0.7,0,0.9,0.1c0.3,0.1,0.5,0.3,0.8,0.4c-0.3,0-0.6,0-0.9,0c-0.3,0-0.6-0.1-0.9-0.1c-0.2,0-0.4-0.1-0.7-0.2
		C39.4,7.4,39.6,7.4,39.9,7.3z"/>
	<path d="M81.2,7.4c0.6,0,0.9,0,1.3,0c0.1,0,0.1,0.3,0.1,0.4C82.3,7.9,82,8,81.7,8C81.6,8,81.5,7.8,81.2,7.4z"/>
	<path d="M15.9,11.4c0,0.2,0.1,0.5,0.1,0.7c0,0.1-0.2,0.2-0.2,0.2c-0.1,0-0.2-0.1-0.2-0.2c-0.1-0.2-0.1-0.5-0.1-0.7
		c0.1-0.5,0.2-0.9,0.3-1.3C15.8,10.5,15.9,10.9,15.9,11.4C15.9,11.4,15.9,11.4,15.9,11.4z"/>
	<path d="M62.9,13c0,0-0.3,0-0.6,0c0,0-0.1-0.1-0.1-0.1c0.1-0.1,0.1-0.2,0.2-0.2c0.5,0,0.9,0,1.4,0c0.1,0,0.3,0.1,0.4,0.2
		C64,12.9,63.9,13,63.7,13C63.5,13.1,63.4,13,62.9,13z"/>
</g>
</svg>
