<?xml version="1.0" encoding="iso-8859-1"?>
<!-- Generator: Adobe Illustrator 25.3.0, SVG Export Plug-In . SVG Version: 6.00 Build 0)  -->
<svg version="1.1" id="Calque_1" xmlns="http://www.w3.org/2000/svg" xmlns:xlink="http://www.w3.org/1999/xlink" x="0px" y="0px"
	 viewBox="0 0 236.4 115.4" style="enable-background:new 0 0 236.4 115.4;" xml:space="preserve">
<g>
	<path d="M236.3,55.9c0,3.5-0.2,7,0,10.5c0.3,5.5-1.8,10.1-4.6,14.5c-2.3,3.5-5.9,4.7-10,3.9c-2.4-0.5-4.8-1.3-7.2-2
		c-7.3-2.3-14.5-4.7-21.8-6.9c-6.4-1.9-13.1-1.8-19.8-1.6c-0.4,0-1.7-0.2-0.6,0.8c3.6,3.8,1,7.9,0.4,11.8c-0.4,2.6-1.7,5-2.7,7.5
		c-1.8,4.6-6.2,7.1-11.1,6.2c-5.5-1.1-11-2.5-16.5-3.7c-0.9-0.2-2.3-0.6-2.8-0.2c-2.8,2.7-5.8,1.3-8.8,0.9c-1.7-0.2-3.6-1.9-5.4,0.2
		c-0.2,0.2-1.2-0.1-1.7-0.5c-1.5-1-3.2-2-4.3-3.3c-1.9-2.3-4.2-3-7-2.8c-3.2,0.2-6.3,0.1-9.5,0.1c-0.3,0-0.6,0.1-1,0.2
		c0.3,0.2,0.7,0.4,1,0.6c4.1,2.7,5.9,7.8,3.9,12.7c-2.3,5.6-6.1,9.9-12.7,10.7c-2.9,0.4-5.4-0.2-7.7-2.3c-5.4-5-9.8-10.8-14.2-16.7
		c-2.1-2.8-4.4-4.6-7.9-5.4c-5.3-1.2-10.4-3.2-15.7-4.7c-2.7-0.8-5.4-1.5-8.1-2.1c-4.2-1-8.3-2.4-11.9-4.9
		c-6.9-4.7-14.6-7.9-22.6-10.1c-0.6-0.2-1.2-0.5-1.9-0.7c-3.3-1.3-4-3.4-1.7-6c1.3-1.5,1.2-2.2-0.1-3.5c-3.2-3.3-3.1-3.8-0.2-7.5
		C3.9,49,5.3,46.6,7,44.4c1-1.3,2-2.7,3.2-3.8c11.7-10,24.1-18.7,38.9-23.7c3.6-1.2,7.1-2.8,10.8-3.6c2.5-0.5,4.2-1.7,5.8-3.4
		c1.8-2,3.6-3.9,6.4-4.4c0.6-0.1,1.4-0.4,1.8-0.9c2.6-3.1,6.5-2.5,9.8-3.5c2-0.6,4.4-1.3,6.2-0.8c2.1,0.6,3.8,0.6,5.7-0.3
		c2.8,2,6.2-0.6,9,1.3c0.4,0.3,1.2,0.1,1.9,0.1c2.6,0,5.1,0.5,7.4,2c3.3,2.1,6.7,3.8,10.5,4.9c1.3,0.3,2.5,1,3.5,1.8
		c2.8,2,5.8,3.4,9.2,4.1c2.2,0.5,4.3,1.6,6.5,2.2c1.2,0.3,2.6,0.6,3.8,0.4c8.8-1.9,16.8-0.3,24,5c4.8,3.5,7.4,8.3,9.2,13.8
		c0.7,2-0.6,3.1-1.7,4.3c-0.7,0.8-0.4,1.1,0.5,1.1c2.6,0,5.2,0.2,7.8-1c3-1.3,6.3-2,9.4-3.1c5.3-1.9,10.5-3.9,15.9-5.7
		c3.9-1.3,8-2.1,11.9-3.3c1.9-0.6,3.6-0.5,5.1,0.6c1.9,1.4,3.6,2.9,4.3,5.3c1.3,4.6,2.4,9.3,2.1,14.2
		C236.2,50.6,236.3,53.3,236.3,55.9C236.3,55.9,236.3,55.9,236.3,55.9z"/>
	<path d="M27.2,49.1c0.2,0.2,0.7,0.5,0.7,0.6c-1,2.1-2,4.2-3.2,6.1c-0.2,0.3-1.2,0-1.8,0c0.2-0.3,0.4-0.7,0.6-1
		c0.5-0.8,1-1.7,1.4-2.5C25.7,51.2,26.4,50.2,27.2,49.1z"/>
	<path d="M68.1,73c4.6,0.3,9.7-1,14.1-4.9c3.8-3.4,8.7-5.6,11.5-10.1c3-4.8,4.6-9.9,2.5-15.6c-1.6-4.2-5.8-6.2-10-4.6
		c-5.2,2-9.5,5.4-13.8,8.9c-5,4.1-9.8,8.4-14.7,12.7c-0.4,0.3-0.6,0.8-1,1.1c0.4,0.1,0.9,0.2,1.3,0.2c4,0.4,6.3,2.8,6.3,6.8
		c0,1-0.3,1.9-0.4,2.9c-0.3-0.8-0.6-1.6-0.9-2.5c-0.3-0.9-0.6-1.9-1-2.8c-0.9-1.9-2.6-2.6-4.8-2.4c-1.3,0.1-2.5,0-3.8,0
		c-1.6,0-1-1-0.5-1.5c2.3-2.1,4.7-4.2,7.1-6.2c4.2-3.6,8.3-7.2,12.5-10.7c4.4-3.5,8.6-7.3,14.4-8.6c4.6-1,8.5,0.7,10.7,5
		c2.4,4.7,1.9,9.3,0,13.9c-1.7,4-4,7.6-7.8,10.1c-3,2-5.8,4.5-8.7,6.7c-5.5,4.2-11.6,3.9-17.9,2.6c-0.2,0-0.4-0.5-0.6-0.7
		c0.3-0.2,0.7-0.4,1-0.4c0.7,0,1.3,0.1,2,0.2C66,73,66.5,73,68.1,73z"/>
	<path d="M163.4,40.5c-1,0.1-1.6,0.3-2.1,0.1c-5-2.2-10.1-4.2-14.9-6.9c-5.6-3.1-11.1-6.5-17.4-8.2c-0.5-0.1-0.8-0.8-1.3-1.1
		c0.5-0.1,1-0.4,1.4-0.3c2.5,0.7,5.2,1.2,7.5,2.4c5.9,2.9,11.7,6.2,17.6,9.2c2.5,1.3,5.1,2.3,7.7,3.5
		C162.4,39.3,162.7,39.8,163.4,40.5z"/>
	<path d="M132.2,88.1c0.4-0.9,0.5-2.1,1.2-2.5c4.2-2.3,8.5-4.4,12.8-6.4c0.3-0.2,0.9,0.1,1.4,0.2c-0.2,0.5-0.4,1.2-0.8,1.4
		C141.9,83.3,137,85.7,132.2,88.1L132.2,88.1z"/>
	<path d="M70.8,30.7C71,30.8,70.7,30.7,70.8,30.7c-0.1-0.3,0-0.8,0.1-0.8c2-0.6,4-1.2,6-1.6c0.2-0.1,0.7,0.5,0.9,0.9
		c0.1,0.1-0.3,0.6-0.5,0.7C75.2,30.2,73.2,30.4,70.8,30.7z"/>
	<path d="M105.2,35.1c3.4-0.2,6.4,0.7,9,3l0,0C110.8,38.2,107.7,37.4,105.2,35.1L105.2,35.1z"/>
	<path d="M105.2,35.1c-2.6,0.4-4.8-0.8-7-2c-0.2-0.1-0.3-0.4-0.5-0.7c0.3-0.1,0.7-0.4,0.9-0.3C100.8,33.1,103,34.1,105.2,35.1
		L105.2,35.1z"/>
	<path d="M139.6,47.9c1.5,0.8,3.2,1.7,4.9,2.6c-0.2,0.2-0.4,0.6-0.5,0.5c-1.7-0.5-3.4-1.1-5-1.8c-0.1-0.1-0.2-0.5-0.2-0.8
		C138.8,48.4,139.1,48.3,139.6,47.9z"/>
	<path d="M122.2,41.1c-3-0.2-5.8-0.8-8-3l0,0C117.1,38.4,120,38.9,122.2,41.1L122.2,41.1z"/>
	<path d="M83.4,29.2c0.8,0,1.7-0.1,2.5,0c0.4,0.1,0.7,0.5,1.1,0.8c-0.4,0.1-0.7,0.4-1.1,0.4c-0.8,0-1.6-0.2-2.5-0.3
		c-1.1-0.2-2.3-0.4-3.4-0.6c1.1-0.2,2.2-0.3,3.4-0.5C83.3,29,83.4,29.1,83.4,29.2z"/>
	<path d="M17.3,58.9c0.5-0.4,0.9-0.9,1.4-1.3c0.2,0.5,0.6,1.2,0.4,1.6c-0.3,0.7-0.8,1.5-1.4,1.9c-0.5,0.4-1.4,0.2-2.1,0.3
		c0.4-0.6,0.8-1.2,1.3-1.8c0.1-0.1,0.2-0.3,0.2-0.4C17,59.2,17.3,58.9,17.3,58.9z"/>
	<path d="M178.7,56.3c-1.3,0.4-2,0.8-2.4,0.6c-0.6-0.2-1-0.9-1.5-1.4c0.6-0.1,1.2-0.4,1.8-0.3C177.1,55.2,177.6,55.7,178.7,56.3z"/>
	<path d="M183.1,55.9c-1.1,0.5-1.8,1-2.5,1c-0.4,0-0.8-0.7-1.2-1.1c0.7-0.3,1.4-0.6,2.1-0.7C181.9,55.1,182.3,55.5,183.1,55.9z"/>
	<path d="M185.9,54.7c0.7,0.5,1.2,0.8,1.7,1.1c-0.6,0.4-1.2,0.9-1.9,1.2c-0.3,0.1-0.8-0.4-1.2-0.6C184.9,55.9,185.4,55.4,185.9,54.7
		z"/>
	<path d="M156.3,53.1c0.7,0.5,1.5,1,2.3,1.5c-0.3,0.1-0.6,0.5-0.8,0.4c-0.8-0.3-1.6-0.7-2.4-1C155.7,53.8,155.9,53.6,156.3,53.1z"/>
	<path d="M163.4,54.8c-0.7,0.6-1,1.2-1.3,1.1c-0.5-0.1-1.1-0.4-1.6-0.7c0.3-0.3,0.5-0.9,0.8-0.9C161.8,54.3,162.4,54.5,163.4,54.8z"
		/>
	<path d="M173.3,55.7c-0.7,0.6-1,1.2-1.3,1.2c-0.5-0.1-1.1-0.4-1.6-0.7c0.3-0.3,0.5-0.9,0.8-0.9C171.8,55.2,172.4,55.5,173.3,55.7z"
		/>
	<path d="M122.1,41.1c0.9,0.1,1.9,0.2,2.8,0.5c0.3,0.1,0.4,0.7,0.6,1.1c-0.5,0.1-1.1,0.4-1.3,0.2C123.5,42.4,122.9,41.7,122.1,41.1
		L122.1,41.1z"/>
	<path d="M20.2,48.2c-1.3,0-2.7-1.5-2.8-2.9c-0.1-2.2,2-4.4,3.9-4.2c1.3,0.1,2.9,2,2.9,3.5C24.2,46.2,22,48.2,20.2,48.2z"/>
</g>
</svg>
