<?xml version="1.0" encoding="iso-8859-1"?>
<!-- Generator: Adobe Illustrator 25.3.0, SVG Export Plug-In . SVG Version: 6.00 Build 0)  -->
<svg version="1.1" id="Calque_1" xmlns="http://www.w3.org/2000/svg" xmlns:xlink="http://www.w3.org/1999/xlink" x="0px" y="0px"
	 viewBox="0 0 70.3 36.1" style="enable-background:new 0 0 70.3 36.1;" xml:space="preserve">
<g>
	<path d="M70.2,15.8c-0.1,2.8-0.2,6.1-0.4,9.3c0,1.1-0.3,1.4-1.4,1.4c-0.6,0-1.2-0.1-1.7-0.3c-1.7-0.6-3.4-1.2-5.1-1.8
		c-3.4-1.2-6.8-1.8-10.4-1.5c-0.9,0.1-1.7,0.4-2.6,0.6c-0.6,0.2-1.2,0.5-1.7,0.8c0.6,0.6,1.2-0.1,1.7-0.1c0.4,0,0.9,0.1,1.1,0.3
		c0.8,0.8,1.5,1.8,1.3,3c-0.4,2.4-0.9,4.9-3,6.6c-1.1,0.9-2.6,1.3-4.1,0.4c-1.4-0.8-2.7-1.7-4.1-2.5c-0.5-0.3-1.1-0.6-1.6-0.7
		c-0.7-0.1-1.2-0.4-1.6-1c-0.2-0.3-0.7-0.5-1-0.5c-2.1,0-4.2,0-6.3,0c-0.4,0-0.5,0.1-0.3,0.5c0.9,1.6,0.4,3.3,0.1,5
		c-0.1,0.6-0.5,0.7-1.1,0.4c-0.8-0.6-1.6-1.2-2.4-1.9c-1.1-1-2.1-2-3.1-3c-0.7-0.7-1.4-1-2.4-0.9c-1.8,0.1-3.6,0-5.4,0
		c-2.8,0-5.4-0.6-7.9-1.8c-2-1-4-2.1-5.8-3.5c-0.3-0.2-0.6-0.4-0.8-0.6c-0.2-0.3-0.4-0.7-0.3-0.9c0.1-0.3,0.6-0.5,0.9-0.7
		c0.3-0.1,0.6,0,0.9,0c0.1,0,0.3-0.1,0.4-0.1c-0.1-0.1-0.2-0.1-0.3-0.2c0,0-0.1-0.1-0.1-0.1c-1.4-1.2-1.4-1.4-0.5-3
		c1.9-3.1,4.2-5.8,7.1-8.1c2.1-1.7,4.3-3,6.6-4.1c1.6-0.8,3.2-1.3,4.9-1.4c0.7-0.1,1.2-0.3,1.6-0.9c0.3-0.5,0.8-1,1.3-1.5
		c0.3-0.4,2.1-1.2,2.6-1.1c0.4,0.1,0.7,0.2,1-0.1c0.3-0.3,0.7-0.3,1.1-0.1c0.2,0.1,0.6,0,0.8-0.1c0.5-0.4,0.9-0.5,1.5-0.2
		c0.1,0.1,0.3,0.1,0.3,0c0.6-0.6,1.1-0.5,1.7,0c0.7-0.7,1.5-0.1,2.2-0.1c1.6,0.2,2.9-0.5,4.3-1.1C38.9,0,39.5,0,40,0
		c1.1,0.1,2.2,0.3,3.4,0.3c2.5,0.1,4.3,1.2,5.7,3.2c0.4,0.6,0.5,1.3,0.7,2c0.1,0.4,0,0.9,0.1,1.2c0.6,1.4-0.1,2.7-0.3,4
		c-0.1,0.7-0.6,1-1.3,0.6c-0.4-0.2-0.8-0.2-1.2-0.2c-0.1,0-0.2,0.1-0.3,0.1c0.1,0.1,0.2,0.1,0.3,0.2c1.8,0.8,3.7,1.2,5.7,1.4
		c1.6,0.1,3.2-0.1,4.8-0.5c3.1-0.7,6.1-1.3,9.2-1.9c0.8-0.2,1.5-0.2,2.3-0.3c0.7-0.1,1.3,0.5,1.3,1.4C70.3,12.7,70.2,14,70.2,15.8z"
		/>
	<path d="M25.6,24.7c-1.3,0-2.2-0.6-2.6-1.8c-0.1-0.3-0.2-0.6-0.3-0.8c-0.7-1-0.7-1,0.2-1.5c2.8-1.4,5.4-3,8.5-3.5
		c0.9-0.2,1.9-0.3,2.8-0.4c0.5-0.1,0.7,0.4,0.4,0.9c-1.9,3.2-4.4,5.8-8.2,7c-0.2,0.1-0.3,0.1-0.5,0.2C25.9,24.7,25.7,24.7,25.6,24.7
		z"/>
	<path d="M5.7,14.7c0.9-0.9,2-1.5,3.4-1c1.4,0.5,2.5,1.3,3,2.8c0.4,1.4,0,2.7-0.9,3.6c-0.9,1-2.3,1.4-3.6,1
		c-1.9-0.6-3.1-3.1-2.3-5.1C5.4,15.5,5.6,15.1,5.7,14.7L5.7,14.7z"/>
	<path d="M16.6,22.5c0,2.1-1.1,3.4-2.2,4.8c0,0.1-0.3,0-0.4-0.1c-0.1,0-0.1-0.2-0.1-0.3c0.1-0.3,0.3-0.5,0.5-0.7
		c0.7-1.3,1.3-2.5,1.2-4c0-0.3,0-0.6,0.1-0.9c0-0.1,0.2-0.3,0.3-0.4c0.1,0,0.3,0.2,0.3,0.3C16.4,21.7,16.5,22.2,16.6,22.5z"/>
	<path d="M8.6,15.1c0.9,0.2,1.4,0.6,1.7,1.4c0.3,0.8,0.1,1.7-0.5,2.3c-0.6,0.4-1.2,0.8-2,0.4c-0.7-0.3-1.3-0.8-1.2-1.6
		c0.1-0.7,0-1.6,1.2-1.7C8,15.8,8.3,15.3,8.6,15.1z"/>
</g>
</svg>
