<?xml version="1.0" encoding="iso-8859-1"?>
<!-- Generator: Adobe Illustrator 25.3.0, SVG Export Plug-In . SVG Version: 6.00 Build 0)  -->
<svg version="1.1" id="Calque_1" xmlns="http://www.w3.org/2000/svg" xmlns:xlink="http://www.w3.org/1999/xlink" x="0px" y="0px"
	 viewBox="0 0 241 74" style="enable-background:new 0 0 241 74;" xml:space="preserve">
<g>
	<path d="M204,31.2c5.6-0.8,11.7-1.6,17.7-2.6c3.9-0.7,7.7-1.7,11.6-2.4c1.8-0.3,3.7-0.3,5.5,0.1c2.4,0.5,2.9,2.4,1.3,4.3
		c-3.3,3.8-6.6,7.5-10.1,11c-2.9,3-6.2,3.4-10,1.7c-9.2-4.1-18.7-5.2-28.6-3.2c-7.3,1.4-14.7,2.1-22.1,3.2
		c-5.9,0.9-11.7,1.9-17.6,2.8c-4.9,0.8-9.8,1.6-14.7,2.1c-2.9,0.3-4.9,1.6-6.9,3.5c-1.8,1.7-3.7,3.4-5.8,4.7
		c-3.2,2-6.7,2.7-10.4,1.1c-1.7-0.7-3.4-1.3-5-2.1c-1.1-0.5-1.5-0.4-2.3,0.6c-6.2,6.6-13.5,11.7-21.3,16.3c-5.1,3-10.2,1.9-15.4,0.6
		c-6.8-1.7-13.1-4.6-19.4-7.6C37.8,59.4,26.6,51.7,14.7,45c-3.3-1.9-6.8-3.6-10.2-5.3c-2.1-1.1-4.7-2.1-4.6-4.7
		c0.1-2.6,2.9-3.1,5-4.1c6.4-3,12.8-6.3,19.1-9.6c13-6.8,26-13.4,39.7-18.6c2.2-0.8,4.5-1.2,6.7-1.9c5.7-1.7,11-0.4,15.7,2.5
		c5.8,3.6,11.2,7.7,16.7,11.7c1,0.8,1.8,1.2,3.1,0.6c1.2-0.6,2.6-0.8,3.7-1.4c6.2-3.3,11.9-1.6,16.6,2.4c4.1,3.6,8.1,5.8,13.6,6
		c5.1,0.2,10.1,1.5,15.2,2.2c0.9,0.1,1.9-0.4,2.8-0.7c1.4-0.6,2.6-1.5,4-2c2.9-1,3.4-0.7,3.2,2.4c-0.1,2.1,1.3,2.2,2.4,2.4
		c2.9,0.6,5.9,0.9,8.8,1.3c0.8,0.1,1.8-0.1,2.5,0.3c2.8,1.4,5.2,0.3,7.5-1.1c1.1-0.7,2.2-1.5,3.4-2.1c2-1.1,3.5-0.2,2.8,2
		c-0.8,2.4-0.1,2.8,2.1,3C197.6,30.4,200.5,30.8,204,31.2z"/>
	<path d="M54.1,43.9c-0.3,0.2-0.6,0.4-0.8,0.6c-1.6,1.4-3.8,2.5-4.7,4.2c-0.8,1.5-1.1,1.5-2.3,0.9c-0.4-0.2-1-0.2-1.4-0.4
		c-0.9-0.4-1.7-0.9-2.5-1.4c0.9,0,1.8,0.1,2.7,0.1c0.4,0,0.9-0.1,1.3-0.2c-0.4-0.3-0.7-0.7-1.1-1c-0.3-0.2-0.6-0.2-0.9-0.3
		c-1.2-0.4-3.4,0.7-3.1-1.8c0.4-3.5,2.8-5.7,5.5-4.8c2.5,0.8,4.7,2.2,7.1,3.4C53.9,43.3,53.9,43.6,54.1,43.9z"/>
	<path d="M109.8,20.2c5.4,0.4,10.8,0.7,16.2,1.1c0.3,0,0.7,0,1,0.2c0.5,0.4,0.9,0.9,1.3,1.3c-0.4,0.2-0.9,0.5-1.3,0.5
		c-2,0-4,0.1-5.9,0c-4.7-0.3-9.5-0.6-14.2-0.9c-1-0.1-2-0.1-3-0.2c-0.3,0-0.7-0.5-0.7-0.6c0.1-0.4,0.4-1,0.7-1.1c2-0.1,4,0,5.9,0
		C109.8,20.3,109.8,20.2,109.8,20.2z"/>
	<path d="M125.3,47.1c0.6,0.1,2.3,0.3,3.9,0.5c-1.6,0.5-3.2,1.4-4.9,1.6c-5.6,0.5-11.2,0.8-16.8,1c-0.5,0-1-0.6-1.5-0.9
		c0.5-0.3,1-0.9,1.5-1C113.1,47.9,118.7,47.5,125.3,47.1z"/>
	<path d="M91.1,15.6c0.5,0.2,0.9,0.2,1.1,0.4c2.1,1.6,4.1,3.2,6.2,4.8c0.2,0.1,0.2,0.6,0,0.8c-0.1,0.2-0.7,0.5-0.8,0.4
		c-2.2-1.7-4.4-3.4-6.5-5.1C90.9,16.7,91.1,16.1,91.1,15.6z"/>
	<path d="M39.7,29.2c-1.5-1.3-3-2.6-4.6-3.8c-0.9-0.7-1.9-1.2-2.8-1.8c1.7-1,2.9,0.2,4,1C37.9,25.7,39.8,26.8,39.7,29.2L39.7,29.2z"
		/>
	<path d="M153.3,34.2c0.1,0,1.1,0.4,2,0.8c0.1,0,0,0.5,0,0.5c-1.1,0.2-2.1,0.4-3.2,0.4c-0.6,0-1.3-0.3-1.9-0.6
		c-0.3-0.2-0.6-0.5-0.9-0.8c0.3-0.1,0.6-0.3,0.9-0.3C151,34.1,151.6,34.2,153.3,34.2z"/>
	<path d="M49.3,20.7c-0.3,0.4-0.4,0.8-0.7,0.9c-1.2,0.6-2.3,1.2-3.5,1.8c-0.3,0.1-0.8-0.1-1.2-0.2c0.1-0.3,0.2-0.7,0.4-0.8
		c1.2-0.8,2.5-1.5,3.8-2.1C48.4,20.2,48.9,20.6,49.3,20.7z"/>
	<path d="M98.3,34.7c0.5,0.7,0.9,1.2,1.2,1.6c-0.5,0.3-0.9,0.7-1.4,0.8c-0.3,0-0.9-0.6-0.9-0.8C97.3,35.8,97.7,35.4,98.3,34.7z"/>
	<path d="M104.9,36.5c-0.9,0.3-1.5,0.6-2,0.6c-0.3,0-0.6-0.6-0.9-0.9c0.5-0.3,1-0.7,1.5-0.8C103.8,35.3,104.2,35.9,104.9,36.5z"/>
	<path d="M114.2,37.6c-0.5-0.7-0.9-1.2-1.2-1.6c0.5-0.3,1-0.7,1.5-0.7c0.3,0,0.9,0.6,0.9,0.7C115.2,36.5,114.8,36.9,114.2,37.6z"/>
</g>
</svg>
