<?xml version="1.0" encoding="iso-8859-1"?>
<!-- Generator: Adobe Illustrator 25.3.0, SVG Export Plug-In . SVG Version: 6.00 Build 0)  -->
<svg version="1.1" id="Calque_1" xmlns="http://www.w3.org/2000/svg" xmlns:xlink="http://www.w3.org/1999/xlink" x="0px" y="0px"
	 viewBox="0 0 70.7 38" style="enable-background:new 0 0 70.7 38;" xml:space="preserve">
<g>
	<path d="M48.2,33c-1.3-0.3-2.9,0.1-4.4-0.3c-0.4-0.1-0.9-0.1-1.2,0c-0.7,0.3-1.4,0.2-2-0.2c-0.3-0.1-0.6-0.3-0.8-0.2
		c-1,0.5-1.7-0.1-2.3-0.7c-1-1-2.1-1.9-3-3c-0.9-1-0.9-1.1-2.3-0.5c-0.5,0.2-1.2,0.2-1.7,0.3c-0.5,0.1-1.1,0.3-0.7,1.1
		c0.1,0.1-0.2,0.5-0.4,0.6c-0.4,0.2-0.9,0.2-1.4,0.3c-0.6,0.1-0.8,0.6-0.4,1c0.4,0.4,0.8,0.7,1.3,0.9c0.5,0.2,1.3,0.3,0.7,1.2
		c0,0.1,0.2,0.3,0.4,0.5c0.2,0.2,0.5,0.4,0.5,0.5c-0.4,1.1,0.6,1.2,1.1,1.6c0.1,0.1,0.2,0.3,0.3,0.4c-0.2,0.1-0.4,0.2-0.6,0.2
		c-0.4-0.1-0.4,0.1-0.3,0.3c0.4,0.7,0,0.5-0.5,0.7c-1.1,0.4-1.8,0-2.7-0.4c-3.3-1.5-6.3-3.3-9.1-5.5c-0.8-0.7-1.8-1-3-1
		c-4.9,0-9.3-1.4-13.1-4.5c-0.5-0.4-1-0.6-1.5-0.9c-0.5-0.3-0.8-0.8-1-1.4c-0.1-0.6-0.1-1.3,0.4-1.6c0.4-0.2,1-0.1,1.5,0.1
		c0.5,0.2,1,0.5,1.5,0.8c-0.4-0.5-0.7-1-1.1-1.4c-1.3-1.3-1.4-1.4-0.2-2.7c0.9-1.1,2.2-1.8,3.2-2.8c1-0.9,1.9-2,2.8-3
		c0.1-0.1,0.1-0.4,0-0.6C8,11.5,8,10.3,8.3,9.2C8.5,8.6,8.4,8,8.4,7.4C8.5,5,9.3,3.8,11.5,2.9c0.3-0.1,0.7-0.2,1-0.4
		C12.9,2,13.2,1.3,13.7,1c0.5-0.3,1.2-0.1,1.8-0.1c0.4,0,0.7-0.1,1-0.2C17,0.5,17.5,0,18,0c0.3,0,0.6,0.8,0.8,1.2
		c0,0,0.1,0.1,0.1,0.1c0.7,0.3,1.4,0.6,2.1,0.9c-0.3,0.8-0.1,1.5,0.1,2.2c0.2,0.6,0.3,1.5,1.4,1.1c0.1,0.2,0.2,0.5,0.2,0.7
		c-0.3,0.9,0.2,1.5,0.7,2.1c0.1,0.1,0.4,0.2,0.6,0.2c0.6-0.2,0.5,0.1,0.4,0.5c-0.3,1.1-0.2,1.3,0.9,1.6c0.1,0,0.3,0.3,0.3,0.4
		c-0.3,0.7,0.1,1.2,0.6,1.5c0.7,0.3,1.6,1,2.3,0.4c1.2-1,2.7-1.6,3.5-3c0.2-0.4,0.4-0.8,1-0.5c0.1,0.1,0.3,0,0.5-0.1
		c0.7-0.5,1.4-1.2,2.2-1.5c0.8-0.2,1.6-0.4,2.4-0.8c2.5-1.1,4.8-2.6,7.5-3c1.1-0.2,2.2-0.3,3.3,0.3c0.2,0.1,0.4,0.2,0.7,0.2
		c1.6,0.2,2.8,0.9,3.2,2.5c0,0.1,0.1,0.3,0.2,0.3c1.4,0.4,0.7,1.8,1.3,2.6c0.1,0.1,0,0.4-0.1,0.4c-0.8,0.3-0.8,1-0.7,1.6
		c0,0.5-0.2,0.7-0.6,1c-0.4,0.3-0.8,0.7-0.8,1.1c0,0.8-0.5,1.1-1.1,1.2c-1,0.1-1.1,1-1.6,1.5c-0.4,0.4,0.2,0.3,0.3,0.3
		c0.9-0.3,1.7-0.5,2.5-0.8c1.7-0.8,3.4-1.8,5.1-2.7c3.4-1.8,7.1-2.9,11-2.6c0.5,0,0.9,0.1,1,0.7c0.4,1.4,0.9,2.8,1.2,4.2
		c0.2,0.7-0.1,1.4-0.1,2.2c0.1,0.6-0.7,1.4,0,2.1c-0.5,0.7-0.7,1.3-0.3,2.1c0,0.1-0.2,0.4-0.4,0.5c-0.3,0.2-0.5,0.4-0.4,0.8
		c0,0.2-0.2,0.5-0.4,0.6c-0.3,0.1-0.8,0-1,0.2c-1.7,1.2-3.5,0.6-5.3,0.3c-3.7-0.5-7.2-1.5-10.7-2.4C51.5,22,51,22,50.4,22
		c-0.2,0-0.5,0.1-0.7,0.1c0.1,0.2,0.3,0.4,0.4,0.6c0.1,0.2,0.4,0.4,0.3,0.6c-0.3,0.9,0.4,1.1,0.9,1.5c0.2,0.2,0.7,0.4,0.6,0.6
		c-0.2,0.7-0.2,1.2,0.6,1.8c0.3,0.2,0.1,1.2,0.7,1.6c0.1,0,0,0.4-0.1,0.4c-0.5,0.3-0.3,0.5-0.1,0.8c0.4,0.4,0.1,0.6-0.3,0.7
		c-0.1,0-0.2,0.3-0.3,0.5c-0.1,0.1-0.1,0.4-0.1,0.4c-1,0-1.7,0.5-2.2,1.4c-0.1,0.2-0.7,0.1-1,0.1C49,33,48.7,33,48.2,33z"/>
	<path d="M19.3,16.2c0,0.2,0,0.5,0.1,0.7c0,0.1,0.3,0.1,0.4,0.2c-0.1,0.1-0.2,0.1-0.3,0.2c-1,0.2-1.9,0.5-2.9,0.7
		c-0.1,0-0.3-0.1-0.3-0.1c0-0.1,0-0.3,0.1-0.4c0.5-0.4,1-0.8,1.4-1.2C18.3,16.1,18.8,15.5,19.3,16.2z"/>
	<path d="M7.4,21.2c-0.3-0.5-0.7-1-1-1.4c-0.1-0.1-0.2-0.3-0.1-0.5C6.4,18.5,7.6,18,7,17c0.6-0.7,1.1-1.3,1.8-1.9
		c0.2-0.2,0.7-0.2,1-0.2c0.7,0.2,1.4,0.4,2,0.7c0.7,0.3,0.8,0.8,0.4,1.4c-0.3,0.5-0.6,1-1.1,1.4c-0.8,0.8-1.8,0.8-2.8,0.3
		c-1-0.4-1.3-0.1-1.1,0.9C7.3,20.2,7.3,20.7,7.4,21.2C7.4,21.2,7.4,21.2,7.4,21.2z"/>
</g>
</svg>
