<?xml version="1.0" encoding="iso-8859-1"?>
<!-- Generator: Adobe Illustrator 25.3.0, SVG Export Plug-In . SVG Version: 6.00 Build 0)  -->
<svg version="1.1" id="Calque_1" xmlns="http://www.w3.org/2000/svg" xmlns:xlink="http://www.w3.org/1999/xlink" x="0px" y="0px"
	 viewBox="0 0 81.2 31.5" style="enable-background:new 0 0 81.2 31.5;" xml:space="preserve">
<g>
	<path d="M57.2,11.4c2.3,0.2,4.4-0.5,6.5-1c3.2-0.7,6.4-1.5,9.7-1.3c1.4,0.1,2.8,0.3,4.2,0.7c2.2,0.6,3.2,2.3,3.5,4.5
		c0.1,0.8,0,1.5,0,2.3c0.2,2.2-3,5-4.8,5c-2.6,0.1-5.2-0.1-7.8-0.5c-2-0.3-4-0.5-5.9-1.2c-0.4-0.1-0.8,0-1.3,0c-2.4,0-4.8,0-7.2,0
		c-1.4,0-2.8,0.2-4.3,0.4c-0.4,0-0.5,0.4-0.3,0.6c0.6,0.7,1.1,1.5,1.8,2c2.4,1.7,4.7,3.5,7.5,4.4c0.2,0.1,0.6,0.4,0.6,0.5
		c-0.1,0.3-0.3,0.6-0.6,0.7c-1.9,0.6-3.7,1.2-5.6,1.6c-1.7,0.4-3.5,0.6-5.3,0.8c-1.4,0.2-2.8,0.3-4.3,0.3c-0.9,0-1.8,0.3-2.8,0.1
		c-1.2-0.3-2.1-0.8-2.7-1.9c-1-1.9-2-3.8-2.8-5.7c-0.3-0.7-0.6-1.1-1.4-1c-0.6,0-1.2,0-1.8,0.1c-1.1,0.1-2.2,0.2-3.4,0.3
		c-0.8,0.1-1.7,0-2.5,0c-0.1,0-0.2,0.1-0.4,0.2c0.1,0.1,0.2,0.2,0.3,0.2c0.4,0.2,0.7,0.4,1.1,0.5c2.5,0.6,4.6,2.2,6.8,3.4
		c0.1,0,0.1,0.1,0.1,0.1c0.1,0.2,0.2,0.4,0.2,0.6c-0.2,0-0.3,0.1-0.5,0.1c-1.1-0.1-2.2-0.3-3.4-0.5c-2.6-0.5-5.1-0.5-7.6,0
		c-0.7,0.1-1.4,0.2-2.1,0.4c-0.7,0.1-1.1-0.4-1.4-0.9c-0.4-0.6-0.8-1.3-1.2-2c-0.9-1.4-2.1-2.3-4-2.1c-1.7,0.1-3.4,0-5,0
		c-2.6-0.1-5.2-0.6-7.6-1.7C0.6,21-0.1,20.3,0,19.1c0-0.5,0-1.1,0-1.6C0,16.6,0.2,16,0.8,15.4c1.4-1.5,2.9-2.9,4.7-3.8
		c1.2-0.6,2.6-0.8,3.9-0.9c3.2-0.2,6.3-0.3,9.5-0.4c0.4,0,0.7-0.1,1.1-0.2c0.5-0.1,0.8-0.4,1-1c0.5-2.1,1.1-4.1,1.7-6.1
		c0.2-0.8,0.5-1.6,1.6-1.7c0.2,0,0.5-0.3,0.7-0.6c0.5-0.9,1-0.8,1.6-0.1c0.2,0.2,0.6,0.4,0.8,0.3c1-0.6,1.2,0.1,1.5,0.8
		C28.8,1.8,29,2,29.2,2c0.4,0.2,1,0.2,1.3,0.5c0.2,0.2-0.4,0.7-0.2,1.3c0.4,1,0.3,1.1,1.4,1.3c0.1,0,0.4,0.2,0.3,0.2
		c-0.2,0.7-0.6,1.5,0.6,1.8c-0.1,0.2-0.1,0.4-0.2,0.6c-0.4,0.6-0.4,1.1,0,1.6c0.2,0.2,0.5,0.5,0.8,0.5c0.4,0.1,0.8-0.2,0.9-0.7
		c0.3-1.1,0.7-2.2,1.1-3.4c0.2-0.5,0.5-1,0.6-1.5c0.7-2,2.3-2.6,4.2-2.7c2.8-0.1,5.6-0.1,8.5,0c2.1,0,4.2,0.2,6.4,0.3
		c1.6,0.1,3.1,0.5,4.5,1.4c0.6,0.4,0.6,0.8,0,1.2c-1.2,0.8-2.5,1.4-3.6,2.2C54.3,8,53,9.2,51.6,10.5c-0.1,0.1-0.1,0.2-0.2,0.3
		c0.1,0.1,0.3,0.1,0.4,0.2C53.6,11.1,55.4,11.2,57.2,11.4z"/>
	<path d="M32.5,22c-2.6,0.2-5.2-0.2-7.8-0.6c-2-0.3-4-0.3-6.1-0.5c-0.9-0.1-1-0.2-0.5-0.9c1.1-1.8,1.4-3.7,0.6-5.8
		c-0.3-0.8-0.1-1.2,0.7-1.2c2.3,0.1,4.2-1.1,6.4-1.4c2.5-0.3,5.1-0.7,7.5,0.6c0.4,0.2,0.7,0.4,1.1,0.6c1.6,1.2,2.4,2.7,2.1,4.8
		c-0.3,1.9-1.4,3.2-3.2,3.9C33,21.8,32.7,21.9,32.5,22L32.5,22z"/>
	<path d="M1.2,16.3c0.4,0,0.7,0.1,0.7,0.6c0,0.1-0.1,0.3-0.2,0.4c-0.2-0.1-0.4-0.2-0.5-0.3C1.1,16.8,1.1,16.6,1.2,16.3L1.2,16.3z"/>
</g>
</svg>
