<?xml version="1.0" encoding="iso-8859-1"?>
<!-- Generator: Adobe Illustrator 25.3.0, SVG Export Plug-In . SVG Version: 6.00 Build 0)  -->
<svg version="1.1" id="Calque_1" xmlns="http://www.w3.org/2000/svg" xmlns:xlink="http://www.w3.org/1999/xlink" x="0px" y="0px"
	 viewBox="0 0 83.1 32.7" style="enable-background:new 0 0 83.1 32.7;" xml:space="preserve">
<g>
	<path d="M29.8,32.4c-2.9-0.3-5.8-0.6-8.7-0.8c-2.1-0.2-4.3-0.3-6.4-0.4c-1.2-0.1-2.4,0.1-3.6-0.3c-0.5-0.2-1.2,0.1-1.8,0.1
		c-0.9,0-1.9,0-2.8,0c-0.4,0-0.7-0.2-1.1-0.1c-1.6,0.1-3-0.5-4.4-1.3C0.1,29-0.3,28,0.2,27c0.5-1,1.2-1.8,2.3-2.2
		c2.5-0.9,5-2.2,7.7-2.3c2.1-0.1,4.2-0.8,6.4-0.2c0.4,0.1,1,0,1.4,0c5.6,0,11.3,0.2,16.9-0.1c3-0.1,6-0.1,8.9-0.6
		c6-1,12-0.9,18.1-0.7c3.1,0.1,6.3,0.5,9.4,1.1c2.9,0.5,5.8,1.4,8.6,2.1c0.7,0.2,1.5,0.6,2.1,1c1.6,1.1,1.6,2.9-0.1,3.9
		c-0.8,0.5-1.6,0.9-2.4,1.1c-2.1,0.6-4.3,1-6.4,1.5c-2.8,0.6-5.5,0.6-8.3,0.8c-2.1,0.1-4.1-0.1-6.2-0.1c-1.7,0-3.4-0.5-5.1-0.8
		c-0.6-0.1-1.2-0.2-1.8-0.2c-5.7,0.1-11.5,0.2-17.2,0.4C32.9,31.9,31.3,32.2,29.8,32.4z"/>
	<path d="M36.5,13c-1.6,0-3.1,0-4.7,0c-0.2,0-0.4,0.1-0.6,0.1c0.1,0.1,0.3,0.2,0.4,0.3c0.2,0.2,0.4,0.3,0.5,0.5
		c0.2,0.3,0.1,0.5-0.2,0.5c-1.1-0.1-2.2-0.2-3.4-0.3c-0.3,0-0.5,0-0.8-0.1c0.1,0.2,0.3,0.4,0.4,0.6c0.5,0.5,0.4,0.7-0.2,0.9
		c-1.9,0.6-3.8,0.6-5.8,0.5c-2.3-0.1-4.5-0.6-6.7-1.1c-0.3-0.1-0.7-0.1-0.8-0.3c-0.5-1.1-1.4-0.6-2.1-0.4c-1.8,0.5-3.6,0.4-5.5,0
		c-0.8-0.2-1.6-0.3-2.4-0.4c-0.4-0.1-0.9-0.1-1.2-0.3C1,12.1,0.8,10.7,2.9,9.2c1.3-1,2.9-1.7,4.3-2.4c2-1,4-2,6.1-3
		c2.6-1.3,5.4-2,8.4-2c2.8,0,5.6,0.2,8.3,0.7c0.8,0.1,1.6,0.1,2.4-0.4c1.4-1,3-1.3,4.7-1.6c3-0.7,5.8-0.2,8.8,0.3
		c1.8,0.3,3.6,0.5,5.5,0.8c1.8,0.3,3.6,0.6,5.4,0.8c2.1,0.2,4.3,0.5,6.4,0.3c0.3,0,0.6,0.1,1,0.1c0.3,0,0.6,0.2,0.8,0.1
		c1.4-0.7,2.5,0.5,3.7,0.7c0.1,0,0.2,0.5,0.1,0.6c-0.5,0.5-1,1-1.5,1.5c-0.1,0.1-0.2,0.1-0.3,0.2c0.1,0,0.2,0.1,0.3,0.1
		c1.4-0.2,2.8-0.4,4.2-0.5c2.1-0.1,4.1-0.3,5.9,1.2c0.1,0.1,0.3,0.2,0.5,0.3c1.8,0.4,2,2,2.3,3.4c0.1,0.5-0.4,1.4-0.9,1.8
		c-1.9,1.5-4,2.4-6.6,1.7c-1-0.3-2.1-0.3-3.2-0.5c-0.2,0-0.3,0.1-0.5,0.1c0.1,0.1,0.2,0.1,0.3,0.2c0.2,0.1,0.3,0.2,0.5,0.3
		c0.4,0.3,1.1,0.6,1,0.8c-0.1,0.7-0.7,0.4-1.2,0.4c-0.7,0-1.3,1-2.1,0.4c-0.9,0.5-1.8,0.1-2.7,0.1c-1.5,0-3.1-0.1-4.6,0.1
		c-1.4,0.2-3-0.3-4.4-0.5c-2.8-0.3-5.4-1.2-8.1-2.1c-1-0.4-2-0.4-3.1-0.3c-2.7,0.3-5.4,0.4-8,0.6C36.5,13.1,36.5,13,36.5,13z"/>
	<path d="M24.1,14.3c-0.2-0.3-0.3-0.7-0.5-1c0.5,0.2,1.1,0.5,1.6,0.7c0.2,0.2,0.8,0,0.8,0.6C25.3,14.5,24.7,14.4,24.1,14.3z"/>
</g>
</svg>
