<?xml version="1.0" encoding="iso-8859-1"?>
<!-- Generator: Adobe Illustrator 25.3.0, SVG Export Plug-In . SVG Version: 6.00 Build 0)  -->
<svg version="1.1" id="Calque_1" xmlns="http://www.w3.org/2000/svg" xmlns:xlink="http://www.w3.org/1999/xlink" x="0px" y="0px"
	 viewBox="0 0 86.1 17.4" style="enable-background:new 0 0 86.1 17.4;" xml:space="preserve">
<g>
	<path d="M30.5,5.5c2.6-0.2,5.2-0.4,7.9-0.4C43.5,5,48.6,5,53.8,5c0.9,0,1.5-0.1,1.9-1.1c0.5-1.4,1.6-2.5,2.7-3.5
		c0.7-0.6,1.2-0.6,1.8,0.2c0.2,0.2,0.3,0.5,0.5,0.8c0.8,1.4,1.9,2.3,3.6,2.6c0.8,0.1,0.9,0.5,0.4,1c-0.2,0.2-0.5,0.3,0,0.5
		c0.3,0.1,0.6,0.2,0.9,0.2c2.8,0.1,5.6,0.2,8.4,0.4c2.3,0.1,4.2-0.7,6-2c1.4-0.9,2.8-1.7,4.3-2.5c0.8-0.4,1.2-0.2,1.2,0.7
		c0,0.6-0.1,1.2-0.2,1.7c-0.2,0.8-0.5,1.6-0.7,2.4c-0.4,1.5-0.1,2.9,0.5,4.3c0.4,0.9,0.8,1.8,1.1,2.8c0.1,0.3-0.1,0.8-0.3,1.1
		c-0.1,0.1-0.7,0-1-0.2c-1.7-0.9-3.3-1.9-5-2.8c-1-0.5-2-1.1-3-1.5c-1-0.4-2-0.6-3.1-0.1c-0.5,0.2-1.2,0.1-1.8,0.2
		c0.6,0.3,1.1,0.5,1.7,0.8c0.4,0.2,0.6,0.3,0.2,0.7c-0.6,0.6-1.3,1.3-1.9,1.9c-0.7,0.7-1.3,0.7-2,0c-0.6-0.6-1.2-1.2-1.8-1.8
		c-0.7-0.7-1.4-1-2.6-0.7c-1.4,0.4-2.9,0.3-4.4,0.5c-0.4,0-0.8,0.1-0.3,0.6c0.2,0.2,0.3,0.5,0.2,0.7c-0.4,1.2-0.9,2.3-1.4,3.5
		c-0.1,0.3-0.4,0.5-0.7,0.8c-0.4,0.4-0.7,0.3-1,0c-0.5-0.5-0.9-1.1-1.3-1.7c-0.3-0.5-0.6-1-0.8-1.6c-0.3-0.7-0.7-0.9-1.4-0.9
		c-0.7,0.1-1.3,0.1-2,0.2c-0.4,0-0.8,0.2-1.2,0.2c-5.3,0.1-10.5,0.3-15.8,0.4c-2.7,0-5.5-0.2-8.2-0.3c-1-0.1-1.9,0.2-2.8,0.5
		c-1.3,0.5-2.6,1-3.8,1.5c-1.1,0.5-2.1,0.4-2.9-0.6c-0.7-1-1.7-1.2-2.8-1.1c-2,0.1-4,0-6-0.6c-0.4-0.1-0.8,0-1.3-0.1
		c-0.3,0-0.8,0-1-0.2c-1.2-0.9-2.5-1.3-3.9-1.6C2.2,11,1.7,10,1,10.9C0.6,10.6,0.2,10.2,0,9.8c-0.1-0.2,0.2-0.6,0.3-0.9
		c0-0.1,0.2-0.1,0.3-0.2c2.1-0.8,4.3-1.7,6.6-2c3.2-0.5,6.4-0.6,9.6-0.8c2.3-0.1,4.5-0.2,6.8-0.3c2.3-0.1,4.5-0.3,6.8-0.5
		C30.4,5.3,30.5,5.4,30.5,5.5z"/>
	<path d="M28.4,8.3c-1.6,0-3.2,0-4.9,0c-0.2,0-0.4-0.1-0.7-0.2c0.2-0.1,0.4-0.2,0.6-0.2c2,0,4.1,0.1,6.1,0c4.9-0.4,9.8-0.3,14.7-0.3
		c0.6,0,1.2,0.1,1.8,0.2c-0.6,0-1.2,0.1-1.8,0.1c-2.2,0-4.4-0.1-6.7,0c-3.1,0.1-6.2,0.3-9.3,0.5C28.4,8.3,28.4,8.3,28.4,8.3z"/>
	<path d="M78.2,7.1C78.5,8.1,78.5,8,78,8C74.5,8,70.9,8,67.4,7.9c-0.5,0-1.1-0.1-1.6-0.2c0.5,0,1.1-0.1,1.6-0.1c3.1,0,6.1,0,9.2,0
		c0.5,0,1-0.2,1.5-0.3C78.1,7.2,78.1,7.2,78.2,7.1z"/>
	<path d="M61.4,7.6c0.5,0.1,1.2,0.2,1.9,0.3c-0.5,0.9-1.4,0.3-2,0.4c-0.8,0.1-1.7,0-2.5,0c-0.2,0-0.3-0.1-0.5-0.1
		c0.1-0.1,0.3-0.2,0.4-0.2C59.5,7.8,60.3,7.7,61.4,7.6z"/>
	<path d="M19.5,8.2c0.7,0.1,1.4,0.2,2.2,0.3c-0.7,0.1-1.4,0.1-2.1,0.2c-0.4,0-0.8,0-1.2,0c-0.4,0-0.8-0.1-1.2-0.1
		c0.4-0.1,0.9-0.2,1.3-0.2c0.4,0,0.7,0,1.1,0C19.5,8.2,19.5,8.2,19.5,8.2z"/>
	<path d="M52.8,8.3c-0.2-0.1-0.6-0.3-1.1-0.5c0,0,0-0.1,0-0.1c0.5,0,1,0.1,1.5,0.1c0.2,0,0.3,0.1,0.5,0.2C53.9,8,54,8,54.1,8.1
		c-0.1,0.1-0.3,0.1-0.4,0.2C53.5,8.3,53.3,8.3,52.8,8.3z"/>
</g>
</svg>
