<?xml version="1.0" encoding="iso-8859-1"?>
<!-- Generator: Adobe Illustrator 25.3.0, SVG Export Plug-In . SVG Version: 6.00 Build 0)  -->
<svg version="1.1" id="Calque_1" xmlns="http://www.w3.org/2000/svg" xmlns:xlink="http://www.w3.org/1999/xlink" x="0px" y="0px"
	 viewBox="0 0 85.6 17.9" style="enable-background:new 0 0 85.6 17.9;" xml:space="preserve">
<g>
	<path d="M59.2,6.7c1.2-0.1,2.5-0.3,3.7-0.4c1.3,0,2.7,0,4,0.2c2.3,0.2,4.7,0.1,7,0.1c0.2,0,0.5,0,0.7-0.1c2.6-1,5.4-1.4,7.9-2.7
		c0.9-0.5,2.2-0.9,2.8-0.1c0.6,0.8-0.2,2-0.9,2.8c-0.6,0.8-1.3,1.4-2,2c-0.6,0.6-0.6,0.8,0.1,1.2c1.3,0.9,2.4,1.9,2.8,3.5
		c0.3,1.1,0,1.4-1.1,1.2c-1.5-0.3-3-0.7-4.4-1.4c-1.8-0.8-3.5-1.4-5.3-2.1c-0.4-0.2-0.9-0.1-1.4-0.1c-1.3,0-2.5,0-3.8,0
		c-0.6,0-1.3-0.2-1.5,0.8c-0.1,0.3-0.8,0.5-1.2,0.6c-2.7,0.6-5.4,0.9-8.1,1.2c-2.5,0.2-4.9,1.1-7.2,2c-1.1,0.4-2.2,0.8-3.1,1.4
		c-0.8,0.6-1.4,0.5-2.1,0c-1.2-0.8-2.4-1.5-3.6-2.4c-0.7-0.5-1.5-0.8-2.3-0.7c-1.7,0-3.4,0-5,0c-0.7,0-0.8,0.4-0.5,0.9
		c0.3,0.5,0.8,0.9,1,1.4c0.4,0.7,0.3,1.2-0.3,1.5c-0.6,0.4-1,0-1.3-0.4c-0.5-0.7-1-1.3-1.4-2.1c-0.3-0.5-0.7-0.8-1.3-0.7
		c-0.7,0.1-1.4,0.1-2.1,0.2c-0.2,0-0.5,0.1-0.7,0.1c-6.9,0.4-13.8,0.5-20.7,0.3c-2.9-0.1-5.4-1.4-7.8-2.9C0,12.2,0,11.8,0,11.7
		c0.3-0.2,0.6-0.4,0.9-0.4c0.9,0,1.8,0.2,2.6,0.3c0.4,0,0.8,0.1,1.2,0.1c0.2,0,0.3,0,0.5,0c-0.1-0.1-0.2-0.2-0.3-0.3
		c-1.3-0.8-2.6-1.6-4-2.1C0,8.9,0,8,0.7,7.4C0.9,7.3,1,7.2,1.2,7.2c3.3-1.3,6.6-2.4,10.2-2.4c2.3-0.1,4.5-0.5,6.8-0.6
		c1.7-0.1,3.5,0.1,5.2,0.2c0.3,0,0.6,0.1,0.9,0.1c3.1,0.1,6.2,0.1,9.3,0.4c2.4,0.2,4.8,0.3,7.2,0.3c1.4,0,2.5-0.3,3.6-1.3
		c1.2-1.1,2.5-2,3.7-3c0.3-0.3,0.7-0.5,1.1-0.6c0.8-0.3,1.6-0.3,2.3,0.4c1.4,1.4,2.9,2.9,4.3,4.3c0.2,0.2,0.4,0.6,0.3,0.7
		c-0.6,1.1,0.2,0.9,0.8,0.9c0.8,0,1.6,0,2.3,0C59.1,6.6,59.2,6.6,59.2,6.7z"/>
	<path d="M5.7,13.4c0.5,0.1,1.1-0.3,1.4,0.4l0,0C6.7,13.9,6.4,14,6,14.1C5.9,13.9,5.8,13.6,5.7,13.4z"/>
	<path d="M71.6,9.1c-1.4,0-2.9-0.1-4.3,0C55.7,9.9,44,9.3,32.3,9.4c-3.3,0-6.5-0.3-9.7-1C21.3,8.2,20,8,18.8,7.7
		c-0.5-0.1-1-0.5-1.5-0.8c0.6-0.6,1.1,0,1.6,0.1c1.6,0.3,3.2,0.7,4.9,0.9C30.8,9.2,37.9,8.6,45,8.7c6.9,0.1,13.8,0.2,20.7,0
		c3.6-0.1,7.2-0.3,10.7-0.3c0.4,0,0.7,0,1.1,0c0.2,0,0.4,0.2,0.7,0.3c-0.3,0.1-0.5,0.4-0.8,0.4C75.5,9.1,73.6,9.1,71.6,9.1
		C71.6,9.1,71.6,9.1,71.6,9.1z"/>
	<path d="M15.9,13.6c-0.1-0.1-0.2-0.3-0.2-0.4c0.1-2.2-0.8-3.6-3.3-4.8c-0.3-0.2-0.6-0.3-0.9-0.5c-0.1,0-0.1-0.2,0-0.3
		c0-0.1,0.2-0.2,0.3-0.2C12.4,7.6,13,7.7,13.5,8c1.4,0.9,2.7,2,3.1,3.7c0.2,0.7,0,1.1-0.3,1.6C16.2,13.5,16.1,13.5,15.9,13.6z"/>
	<path d="M79.8,7c-0.4,0.2-0.5,0.3-0.6,0.3c-0.2-0.1-0.5-0.3-0.6-0.5c0-0.1,0.1-0.3,0.2-0.4C78.9,6.5,79.2,6.6,79.8,7z"/>
	<path d="M7.1,13.7c0.2,0,0.4,0,0.5,0C8.1,13.8,8.5,13.9,9,14c-0.5,0-1,0.1-1.5,0.1C7.4,14.1,7.2,13.9,7.1,13.7L7.1,13.7z"/>
</g>
</svg>
