<?xml version="1.0" encoding="iso-8859-1"?>
<!-- Generator: Adobe Illustrator 25.3.0, SVG Export Plug-In . SVG Version: 6.00 Build 0)  -->
<svg version="1.1" id="Calque_1" xmlns="http://www.w3.org/2000/svg" xmlns:xlink="http://www.w3.org/1999/xlink" x="0px" y="0px"
	 viewBox="0 0 49.8 62.9" style="enable-background:new 0 0 49.8 62.9;" xml:space="preserve">
<g>
	<path d="M41.8,62.9c-2.1,0.1-4-0.8-5.9-1.4c-3.9-1.1-7.8-2.3-11.7-3.4c-3.2-0.8-6.4-1.4-9.6-2.1c-0.5-0.1-1,0-1.4-0.1
		c-0.6-0.1-1.1-0.3-1.7-0.4c-0.3-0.1-1.3-1.5-0.7,0.3c0.1,0.4-0.3,1-0.7,1.4c-0.5,0.6-1,0.6-1.5,0.1C8,56.8,7.4,56.1,7,55.3
		c-0.7-1.4-1.3-2.8-2-4.2c-0.5-1.1-1-2.1-1.5-3.2c-0.7-1.6-0.8-3.3-1.1-5C2.3,42.6,2.3,42.2,2,42c-1.2-1.1-1.3-2.8-1.9-4.2
		C-0.1,37.3,0,36.6,0.5,36c2.3-2.4,3.9-5.2,5.9-7.9c1.9-2.7,4-5.3,6.1-7.9c0.6-0.9,1.3-1.7,1.9-2.6c2.8-4.3,6-8.3,9.8-11.8
		C27,3.1,30.2,1,34.1,0.2c3.4-0.7,6.3,0,8.7,2.9c1.2,1.5,2.4,3,2.9,4.9c0.9,4.1-1,6.9-4.8,8.1c-0.3,0.1-0.7,0.1-1.1,0
		c-0.1,0-0.3-0.2-0.3-0.3c0-0.1,0.2-0.3,0.3-0.4c0.8-0.3,1.6-0.6,2.3-0.9c1.9-0.7,3.3-3.9,2.7-6.2c-0.8-2.8-2.1-5-4.7-6.4
		c-1.9-1-3.8-1.3-5.8-0.8c-3.1,0.7-5.7,2.1-8.2,4.2c-3,2.5-5.5,5.4-7.9,8.5c-0.1,0.2-0.2,0.4-0.3,0.6c0.2-0.1,0.5-0.2,0.7-0.4
		c1.7-1.3,3.3-2.6,4.9-3.8c0.9-0.7,1.9-0.7,2.9-0.6c0.9,0.1,1.4,0.7,1.7,1.4c0.1,0.3-0.1,0.8-0.3,1.1c-0.3,0.3-0.9,0-1.1-0.5
		c-0.4-1.1-0.4-1.1-1.5-0.9c-0.4,0.1-0.8,0.2-1.2,0.4c-3.2,1.8-5.6,4.6-8.2,7.1c-0.1,0.1-0.1,0.3-0.1,0.5c0.1-0.1,0.3-0.1,0.4-0.2
		c0.5-0.5,1-0.9,1.4-1.4c1.4-1.5,3.3-2.2,5.2-2.7c0.2-0.1,0.4,0.1,0.6,0.2c-0.1,0.2-0.2,0.6-0.3,0.7c-1.2,0.5-2.5,0.9-3.7,1.4
		c-0.1,0.1-0.2,0.2-0.3,0.4c0.2,0,0.3,0,0.5,0c0.2,0,0.3-0.1,0.5-0.1c0.1,0,0.3,0,0.3,0.1c0,0.1,0,0.3-0.1,0.4
		c0,0.1-0.2,0.2-0.3,0.2c-0.1,0.1-0.3,0.2-0.5,0.3c-2.3,0.9-3.7,2.8-5.3,4.5c-0.2,0.2-0.4,0.6-0.6,0.9c0,0,0.2,0.3,0.2,0.3
		c0.3-0.1,0.7-0.2,1-0.4c0.9-0.7,1.8-0.5,2.7-0.1c3,1.4,5.8,3,8,5.6c0.9,1.1,1.4,2.2,1.3,3.6c0,0.9-0.4,1.5-1.2,1.8
		c-0.2,0.1-0.4,0.1-0.5,0.1c-0.3,0.2-0.7,0.4-1,0.5c0.3,0.5,0.7,0.8,1.3,0.7c0.4-0.1,0.8-0.1,1.2-0.3c2-0.9,4.2-1.4,6.3-1.8
		c0.5-0.1,1.1-0.1,1.6,0c1.4,0.1,1.9,1,1.2,2.2c-0.1,0.2-0.2,0.3-0.3,0.4c-0.9,1-1.1,2.2-1.1,3.5c0,1.9-0.4,2.2-2.2,1.6
		c-1.6-0.6-3.2-1.2-4.8-1.9c-0.7-0.3-1.4-0.7-2.1-1c-0.1,0-0.2,0-0.3,0c0,0.1,0.1,0.2,0.1,0.3c0,0,0.1,0.1,0.1,0.1
		c0.8,0.5,1.6,0.9,1.7,1.9c0.1,1.4-0.2,2.7-0.9,3.9c-0.5,0.8-1.1,1.5-1.8,2.2c-1.5,1.8-3,3.5-4.6,5.2c-0.7,0.8-1.7,1.3-2.6,1.9
		c-0.3,0.2-0.7,0.3-1,0.5c0,0,1.3,1.1,1.4,1.2c1,0.2,2.1,0.4,3.1,0.6c3.3,0.8,6.7,1.7,10,2.6c3.4,0.9,6.8,2,10.1,3
		c0.9,0.3,1.7,0.3,2.6,0c1.2-0.4,2.5-0.6,3.5-1.1c2.1-1.1,2.7-3.1,1.6-5.2c-1-2-2.6-3.2-5-3c-0.4,0-0.8,0.2-1.2,0.2
		c-0.1,0-0.4-0.1-0.4-0.3c0-0.1,0-0.4,0.1-0.4c0.5-0.2,1-0.5,1.5-0.6c3.2-0.3,6.4,2.6,6.5,5.8c0,2.5-1.7,4.7-4.2,5.3
		C44.4,62.7,43.1,62.8,41.8,62.9z"/>
	<path d="M10.4,39.5c-0.2-0.1-0.3-0.1-0.4-0.2c0-0.1,0-0.2,0.1-0.3c0.2-0.2,0.4-0.5,0.7-0.6c1.6-0.6,3.1-1.2,4.7-1.7
		c0.3-0.1,0.8,0.2,1,0.4c0.1,0.1-0.1,0.6-0.3,0.9c-0.9,1-1.9,2-2.9,2.9c-0.5,0.4-1.1,0.7-1.7,0.9c-0.4,0.1-0.9-0.2-1.3-0.4
		c-0.1,0-0.1-0.3-0.1-0.5c0-0.1,0.3-0.1,0.4-0.1c0.6,0.6,1.2,0.3,1.6-0.1c0.9-0.8,1.8-1.7,2.7-2.6C15,38.1,15,38,15,37.9
		c-0.1,0-0.2-0.1-0.3,0c-1.2,0.4-2.3,0.9-3.5,1.4C10.9,39.3,10.6,39.4,10.4,39.5z"/>
</g>
</svg>
