<?xml version="1.0" encoding="iso-8859-1"?>
<!-- Generator: Adobe Illustrator 25.3.0, SVG Export Plug-In . SVG Version: 6.00 Build 0)  -->
<svg version="1.1" id="Calque_1" xmlns="http://www.w3.org/2000/svg" xmlns:xlink="http://www.w3.org/1999/xlink" x="0px" y="0px"
	 viewBox="0 0 221.7 164.8" style="enable-background:new 0 0 221.7 164.8;" xml:space="preserve">
<g>
	<path d="M61.4,1c6.3,0,12.7-0.1,19,0C86,1.1,91.6,1.7,97.3,1.7c4.1,0,8.4-0.1,12.3-1.1c7.7-1.9,14.4,0.5,20.9,4.2
		c6.2,3.5,9.9,9.4,12.5,15.7c3.4,8.3,5.1,17.1,6.3,26c0.8,6,0.8,11.9,0.9,17.9c0.2,9.3-2.4,17.7-7.7,25.2c-0.6,0.9-1,1.1,0.3,1.3
		c3.4,0.6,6.8,1.3,10.2,1.9c5.1,0.9,7.3,4.8,8.9,9.2c0.5,1.3-0.7,2.4-2,1.9c-1.5-0.6-3-1.4-4.5-2.2c-3.4-1.9-6.8-2.4-10.4-0.6
		c-1.3,0.6-2.4,0.9-3.7-0.1c-0.6-0.5-1.8-0.2-2.7-0.1c-0.5,0-1.3,0.3-1.4,0.5c-0.2,0.7-0.2,1.7,0.1,2.1c0.9,0.9,1.9,1.9,3.1,2.3
		c4.1,1.5,6.5,4.4,7.7,8.5c0.5,1.9,1.5,3.8,1.4,5.6c-0.4,5.3-3.4,7.7-9.4,8.2c-0.5,0-1,0.2-1.5,0.2c0.3,0.3,0.7,0.7,1,1
		c3.5,3.4,7.7,6,12.1,7.6c5.3,1.9,10.6,4.1,16.5,4.1c6.4,0,12.6-0.4,18.6-2.5c7.7-2.7,13.7-7.3,18.1-14.4c2.3-3.8,4.6-7.5,5.9-11.9
		c1.9-6.6,1.1-13.1-0.6-19.6c-1.3-4.6-2.3-9.3-3.4-14c-1.5-5.9-4-11.3-7.9-15.9c-1.9-2.3-4.6-3.7-6.7-5.8c-2.2-2.1-4.9-4.1-3.9-8
		c0.1-0.3-1.5-1.5-2.1-1.3c-4.9,1.5-8.7-1.2-12.5-3.4c-1.4-0.8-3.4-1.6-2.5-4.2c0.2-0.5-1.8-2-3-2.6c-1.1-0.6-2.6-0.6-3.8-1.1
		c-1.2-0.5-2.7-1.2-1.9-2.9c0.6-1.4,1.7-2.6,3.5-2.2c4.3,1,8.9,0.7,13,2.8c4.6,2.4,9.5,4.1,14,6.6c11.8,6.7,19,17.3,24.1,29.6
		c3,7.3,4.5,15,4.6,22.8c0.1,5.7-1.7,11.4-2.3,17.2c-0.5,5.2-2.4,9.9-4.5,14.7c-2.4,5.5-10.9,14.3-16.6,18
		c-4.8,3.1-9.7,5.6-15.2,6.8c-2.1,0.4-4.3,0.5-6.4,0.7c-7,0.9-13.9,0.1-20.9-0.7c-2.3-2.1-5.8-0.8-8.4-3c-2.2-1.9-5.8-2.2-8.7-3.4
		c-2.9-1.2-5.6-2.5-8.5-3.8c-0.5-0.2-1-0.6-1.5-0.8c0,0.6-0.1,1.2,0,1.8c0.7,4.5-1.8,9.7-5.7,11.8c-1.9,1-3.6,1.1-5.7,0.3
		c-5-2-8.6-5.6-11.9-9.6c-0.5-0.6-0.8-1.6-1.5-1.9c-0.6-0.3-1.5-0.2-2.2,0c-0.9,0.2-1.1,0.7-0.9,1.8c0.6,2.7,0.8,5.5,1.2,8.3
		c0.1,0.5,0.2,1.1-0.1,1.5c-1.5,2.3-0.3,4.5,0.3,6.7c0.3,1.3,0.7,2.6,0.7,3.9c0,0.7-0.5,1.7-1,1.9c-0.5,0.2-1.6-0.3-2-0.9
		c-4.3-5.6-7.4-11.8-8.2-19c0-0.5-0.2-0.9-0.3-1.4c-0.4,0.2-0.9,0.4-1.2,0.7c-5.7,4.5-12.4,6.2-19.4,6.7c-8,0.6-15.8-0.7-23.8-1.5
		c-8.7-0.9-16.8-3.7-25-6.3c-7.8-2.5-14-7.6-19.2-13.8c-2.2-2.7-2.7-6.1-2.9-9.4c-0.3-7.1,0.2-14.2,1.4-21.3C2.2,95,1.9,91,1.8,87.2
		c-0.1-3.5-0.6-6.9-0.7-10.4c-0.1-5.2,0-10.3,0-15.5c-0.1-12.8,2.1-25.4,4.4-38C6.1,19.2,6.9,15,8.8,11C9.6,9.2,10,8.3,12,7.5
		c7.8-3.1,15.7-5.2,24-5.8c4.3-0.3,8.6-0.8,12.9-1c4.2-0.2,8.3,0,12.5,0C61.4,0.8,61.4,0.9,61.4,1z"/>
	<path d="M194.1,142c-1.8,0.6-3.7,1.3-5.5,1.8c-3.6,1-7.2,2-10.8,2.8c-0.4,0.1-1-0.4-1.5-0.6c0.3-0.3,0.6-1,0.9-0.9
		c6.3,0.4,11.1-3.8,16.7-5.2c0.9-0.4,1.1,0.1,1,0.9C194.7,141.1,194.4,141.6,194.1,142z"/>
	<path d="M195,140.7c-0.3-0.3-0.7-0.6-1-0.9c0.4-0.6,0.7-1.3,1.1-1.9c0.7-0.3,1.3-0.6,2-0.9c2.3-1.4,4.6-2.8,6.9-4.2
		c0.2,0.4,0.7,1,0.6,1C201.8,136.7,199.6,140.5,195,140.7z"/>
	<path d="M200,55.1c-1.8-1.3-3.6-2.6-4-5c0.4-0.2,1-0.5,1-0.5C198.1,51.4,199.1,53.2,200,55.1z"/>
	<path d="M38.2,44.9c4,1.6,7.7,6.9,7.7,10.7c0,1.1,0.2,2.2-0.1,3.2c-0.1,0.5-1.1,0.8-1.7,1.2c-0.6-0.5-1.3-0.9-1.7-1.6
		c0.4,0.7,1.1,1.1,1.8,1.6c1.1,2.8,0.9,3.4-1.2,4.1c-2.9,1-5.5,0-7.9-1.7c-0.4-0.3-0.9-0.9-0.9-1.1c1.2-3.4-2.2-4.1-3.4-6.1
		c-1.2-2-2.6-4-1-6.4c1.4-2,3.2-3.5,5.8-2.8c0.9,0.2,1.7,1.3,2.5,2c-0.4,0.5-0.7,0.9-0.9,1.5c0.1-0.6,0.5-1.1,0.8-1.6
		c0.7-0.2,2.3,0.3,1-1.4c-0.4-0.5-0.7-1-1-1.5L38.2,44.9z"/>
	<path d="M46.9,38.8c-0.3-1.3-0.7-2.5-0.8-3.8c-0.3-3.9,3.4-7,7.1-6c3.1,0.9,5.1,3,5.9,6.1c0.9,3.8-1.3,6.6-5.4,7
		c-0.6,0.1-1.3,0.2-1.9,0.3c0.6,0.1,1.2,0.2,1.8,0.4c0.5,0.3,0.9,0.7,1.3,1.1c-0.6,0.3-1.5,1-1.9,0.8c-1.7-0.9-4.1-0.4-4.9-2.8
		c0-0.2,0.1-0.4,0.1-0.6c0.3-0.4,0.6-0.7,1-1.1c-0.4,0-0.8,0.2-1.2,0.1C47.3,40,46.9,39.5,46.9,38.8z"/>
	<path d="M36.9,39c-0.1,0.1-0.1,0.3-0.2,0.4c-0.3,0.1-0.7,0.4-0.8,0.3c-0.8-0.6-1.6-1.2-2.2-1.9c-2.8-3.5-5.1-7.2-8.9-9.9
		c-1.6-1.2-2.5-3.4-3.5-5.3c-0.3-0.5,0.1-1.6,0.5-2.2c0.1-0.2,1.2,0,1.7,0.2c1.1,0.7,2.2,1.5,3.2,2.3c3.6,2.9,7.2,5.8,10.9,8.6
		c0.6,0.5,1.4,0.9,2,1.4c0.3,0.3,0.2,0.9,0.3,1.3c-0.4,0.1-1,0.3-1.2,0.1c-3.9-3-7.8-6.1-11.7-9.1c-0.6-0.5-1.2-1.2-1.9-1.6
		c-0.3-0.2-0.8-0.2-1.3-0.2c0.2,0.4,0.3,0.9,0.5,1.2c0.6,0.8,1.2,1.6,1.9,2.3c3.4,3.8,6.9,7.5,10.3,11.3
		C36.7,38.4,36.7,38.7,36.9,39z"/>
	<path d="M126.1,128c2.2-0.6,3.4,0.8,4.7,2.1c4.4,4.4,9.4,7.8,15.2,10.1c2.4,1,4.9,1.8,7.4,2.8c0.3,0.1,0.4,0.7,0.6,1.1
		c-0.3,0.1-0.6,0.3-0.8,0.2C142.5,141.4,133,136.9,126.1,128L126.1,128z"/>
	<path d="M59,42.5c0-0.2,0.2-1.6,0.6-2.8c0.4-1.1,0.2-3.2,2.1-2.6c1,0.3,2,1.8,2.2,2.9c0.2,1.7-0.1,3.6-0.5,5.3
		c-0.3,1.2-1.2,1.9-2.6,1.7c-1.5-0.2-1.8-1.2-1.8-2.5C59,44.2,59,43.9,59,42.5z"/>
	<path d="M166.9,147.2c-3.6-0.6-6.7-1.2-9.9-1.8c-0.5-0.1-0.9-0.7-1.3-1.1c0.5-0.1,0.9-0.4,1.4-0.3c2.1,0.3,4.2,0.6,6.3,1
		c1.1,0.2,2.2,0.4,3.3,0.6c0.7,0.1,1.4,0.2,2.1,0.3C168.1,146.3,167.5,146.8,166.9,147.2z"/>
	<path d="M72.8,71.8c-0.2,0.3-0.2,0.7-0.5,0.8c-0.2,0.1-0.7,0.1-0.9,0c-1.7-1.7-3.5-3.5-5.1-5.3c-0.1-0.1,0.2-0.9,0.5-1.2
		c0.2-0.2,0.8-0.3,0.9-0.2c1.7,1.8,3.4,3.6,5,5.4C72.8,71.5,72.8,71.7,72.8,71.8z"/>
	<path d="M82.9,49c0,2,0,3.9-0.1,5.9c0,0.2-0.7,0.5-1.1,0.7c-0.1,0-0.6-0.5-0.5-0.7c0.1-1.1,0.5-2.2,0.5-3.3c0-2.2-0.1-4.4-0.1-6.6
		c0-0.6,0.2-1.1,0.3-1.7c0.4,0.4,1,0.9,1,1.3C83.1,46,83,47.5,82.9,49C83,49,83,49,82.9,49z"/>
	<path d="M11.1,18.9c1.3,3.7,2.7,7.3,4,11c0.1,0.4-0.2,0.9-0.3,1.4c-0.3-0.3-0.7-0.6-0.9-0.9C12.5,26.7,10.7,23.1,11.1,18.9
		L11.1,18.9z"/>
	<path d="M46.9,38.8c0.4,0.4,0.9,0.9,1.3,1.3c0.5,0.6,0.5,1.2-0.1,1.8l0,0.1c-3.5-0.7-4.3-3.5-4.9-6.5c-0.1-0.4,0.6-0.9,1-1.4
		c0.3,0.3,0.8,0.6,0.8,1C45.3,36.5,45,38.2,46.9,38.8z"/>
	<path d="M64.9,64.9c-0.2,0.2-0.3,0.6-0.6,0.7c-0.3,0.1-0.8,0-0.9-0.1c-1.4-1.8-2.8-3.6-4.1-5.5c-0.1-0.1,0.6-0.9,0.8-0.9
		C61.4,59.2,64.9,63.7,64.9,64.9z"/>
	<path d="M82.8,40.8c-0.3,0.5-0.4,0.8-0.5,0.8c-0.3,0-0.7,0.1-0.8,0c-1.6-2.5-3.2-4.9-4.8-7.4c-0.1-0.2,0-0.7,0.1-0.8
		c0.2-0.1,0.7-0.1,0.8,0C79.4,35.8,81.2,38.4,82.8,40.8z"/>
	<path d="M106.1,105c0.7,0.5,1.5,0.8,1.9,1.5c1.2,1.6,2.3,3.3,3.5,5c-0.3,0.1-0.7,0.4-0.8,0.4c-1.8-1.8-3.5-3.7-5.2-5.6
		C105.4,106.1,105.9,105.4,106.1,105C106.1,104.9,106.1,105,106.1,105z"/>
	<path d="M119.5,119.9c-0.3,0.1-1,0.6-1.1,0.5c-1.5-1.5-2.9-3-4.2-4.5c-0.2-0.2,0-1,0.3-1.3c0.2-0.2,1.1-0.4,1.2-0.2
		c1.4,1.6,2.7,3.3,4,4.9C119.7,119.4,119.6,119.6,119.5,119.9z"/>
	<path d="M18.8,43.1c-0.1,0.1-0.2,0.3-0.3,0.3c-0.3,0.1-0.8,0.2-0.8,0.1c-0.5-1-1.2-2-1.5-3c-0.4-1.4-0.6-2.8-0.8-4.3
		c0-0.3,0.4-0.7,0.7-1c0.3,0.3,0.8,0.6,0.9,0.9c0.6,2,1.1,4,1.7,6C18.7,42.5,18.8,42.8,18.8,43.1z"/>
	<path d="M25.9,63.2c0.3,0.1,0.7,0.1,0.8,0.4c0.9,1.3,1.9,2.7,2.7,4.1c0.5,0.9,0.8,1.9,1.2,2.9c-0.7-0.6-1.7-1.1-2.2-1.9
		c-1-1.5-1.8-3.1-2.7-4.7C25.6,63.8,25.8,63.4,25.9,63.2z"/>
	<path d="M126.1,127.9c-2,0.3-2.3-1.6-3.1-2.6c-0.8-1.1-3.5-1.3-2-3.7c1.1,1,2.4,1.9,3.4,3C125.2,125.6,125.5,126.8,126.1,127.9
		L126.1,127.9z"/>
	<path d="M78,61.9c0.5,0,1-0.1,1.1,0.1c1.2,1.3,2.4,2.7,3.5,4.1c0,0.1-0.4,0.6-0.4,0.6c-1.4-0.8-2.8-1.7-4.1-2.6
		c-0.4-0.2-0.6-0.8-0.7-1.2C77.3,62.6,77.8,62.2,78,61.9z"/>
	<path d="M101.3,100.1c-0.7,0.3-1.2,0.7-1.5,0.6c-0.6-0.1-1.3-0.4-1.8-0.8c-0.6-0.6-1.1-1.4-1.6-2.2c0-0.1,0.5-0.6,0.6-0.6
		c0.9,0.3,1.8,0.5,2.6,1C100.3,98.5,100.6,99.3,101.3,100.1z"/>
	<path d="M38,45.1c-2-0.1-4-0.1-5.9-0.2c-0.2,0-0.6-0.4-0.6-0.7c-0.1-0.2,0.1-0.7,0.3-0.8c2.2-0.9,4.2,0,6.2,0.6
		c0.1,0,0.1,0.6,0.2,0.9C38.2,44.9,38,45.1,38,45.1z"/>
	<path d="M48.5,54.8c1,1.3,1.7,2.2,2.3,3.2c0.1,0.1-0.5,0.8-0.8,0.9c-1.3,0.3-2.7-0.7-2.7-2C47.3,56.3,47.9,55.8,48.5,54.8z"/>
	<path d="M21.1,51.9c-1.9,0.1-2-1.3-2.1-2.6c-0.1-1.2-0.4-2.5-0.6-3.7c0.7,1.2,1.6,2.2,2.2,3.5C21,49.9,20.9,51,21.1,51.9L21.1,51.9
		z"/>
	<path d="M52.3,83c-0.4-0.1-1-0.2-1.6-0.4c-0.1,0-0.3-0.2-0.3-0.3c0.1-0.3,0.2-0.8,0.3-0.8c1.1-0.1,2.2-0.2,3.3-0.3
		c0.2,0,0.7,0.5,0.6,0.6c-0.1,0.4-0.3,0.9-0.7,1.1C53.6,83,53.1,82.9,52.3,83z"/>
	<path d="M91.7,91.4c-0.1,0-0.3,0-0.4,0c-1-1.1-2.1-2.3-3-3.5c0,0,0.6-0.8,0.9-0.8c1.2,0.1,3.2,2.9,2.9,4
		C91.9,91.2,91.8,91.3,91.7,91.4z"/>
	<path d="M23.1,9.8c1,0.4,2.2,0.9,3.4,1.5c0.2,0.1,0.3,0.5,0.4,0.8c-0.3,0.1-0.6,0.3-0.8,0.2c-1.1-0.4-2.2-0.8-3.2-1.3
		c-0.6-0.3-1.3-0.5-1.9-0.8C21.5,10.1,22.1,10,23.1,9.8z"/>
	<path d="M64.8,81.5c-0.4-0.2-0.8-0.2-1-0.4c-0.6-0.8-1.1-1.6-1.6-2.4c0-0.1,0.6-0.6,0.6-0.6c1,0.8,1.9,1.6,2.8,2.4
		C65.7,80.5,65.1,81.2,64.8,81.5z"/>
	<path d="M56.5,47.2c0.5,0.3,1.1,0.5,1.4,1c0.4,0.6,0.7,1.4,0.9,2.1c0,0.1-0.7,0.5-0.7,0.5c-0.8-0.8-1.6-1.7-2.4-2.7
		C55.6,48.1,56,47.7,56.5,47.2z"/>
	<path d="M32.5,13.9c-0.2-0.1-1.2-0.5-2.1-0.9c1.1-0.2,2.2-0.5,3.3-0.7c0.3,0,0.6,0.2,0.9,0.4c0.3,0.2,0.5,0.4,0.8,0.5
		c-0.3,0.2-0.6,0.5-0.9,0.6C34.1,14,33.8,13.9,32.5,13.9z"/>
	<path d="M106.1,104.9c-0.8,0-1.7,0.1-2.4-0.2c-0.6-0.3-1.1-1.1-1.5-1.7c-0.1-0.1,0.3-0.8,0.4-0.8c0.7,0.2,1.5,0.3,2.1,0.7
		C105.3,103.5,105.6,104.3,106.1,104.9L106.1,104.9z"/>
	<path d="M50.1,18c1.2,0.5,2.4,1,3.6,1.5c0.1,0-0.1,0.5-0.2,0.8c-1.3-0.5-2.6-1-3.9-1.6C49.8,18.6,50,18.3,50.1,18z"/>
	<path d="M41.4,79.9c0.6,0.3,1.4,0.5,2.1,0.9c0.4,0.2,0.6,0.6,0.9,0.8c-0.5,0.1-1,0.4-1.4,0.3c-0.8-0.2-1.5-0.5-2.2-0.8
		c-0.1,0-0.2-0.4-0.2-0.4C40.8,80.4,41,80.2,41.4,79.9z"/>
	<path d="M171.7,147.2c-0.5-0.4-0.9-0.8-1.3-1.2c0.5-0.3,1.3-0.8,1.3-0.8c0.6,0.8,2.2-0.8,2.2,0.9
		C173.8,146.5,172.5,146.8,171.7,147.2z"/>
	<path d="M61,80.5c-0.6,0.4-1.3,0.8-1.9,1.2c-0.2-0.4-0.5-0.7-0.7-1.1c0.7-0.4,1.4-0.8,2.1-1.2C60.6,79.7,60.7,79.9,61,80.5z"/>
	<path d="M49.3,82.3c-1,0.2-1.6,0.5-2.1,0.5c-0.3,0-0.5-0.6-0.8-1c0.5-0.2,1.1-0.6,1.6-0.6C48.3,81.1,48.6,81.7,49.3,82.3z"/>
	<path d="M21.1,52c0.1,0.1,0.4,0.1,0.4,0.2c0.3,1.1,0.6,2.3,0.9,3.5c-0.1,0-0.3,0.1-0.4,0C20.5,54.7,20.3,53.4,21.1,52L21.1,52z"/>
</g>
</svg>
