<?xml version="1.0" encoding="iso-8859-1"?>
<!-- Generator: Adobe Illustrator 25.3.0, SVG Export Plug-In . SVG Version: 6.00 Build 0)  -->
<svg version="1.1" id="Calque_1" xmlns="http://www.w3.org/2000/svg" xmlns:xlink="http://www.w3.org/1999/xlink" x="0px" y="0px"
	 viewBox="0 0 85.8 11.3" style="enable-background:new 0 0 85.8 11.3;" xml:space="preserve">
<g>
	<path d="M24.7,0.1c3.8,0,7.7-0.2,11.5,0C44,0.7,51.8,0.4,59.5,0.3c4.1,0,8.1-0.3,12.2-0.2c2.2,0,4.4,0.5,6.6,0.6
		c2,0.2,4,0.4,5.9,1.1C84.6,2,85,2.1,85.4,2.3c0.2,0.1,0.3,0.3,0.4,0.5C85.6,2.9,85.4,3,85.2,3c-3.8,0-7.4,1-11,1.9
		C68.7,6.2,63.4,8,57.9,8.8c-3.6,0.5-7.1,1.1-10.7,1.8c-2.9,0.5-5.8,0.7-8.7,0.7c-4.7,0-9.5,0-14.2,0c-2.6,0-5.2-0.3-7.7-1.3
		c-2-0.8-4.2-1.3-6.3-1.9C9.2,7.7,8.2,7.3,7.1,7c-0.3-0.1-0.7-0.3-1-0.3C3.6,6.5,2,5,0.2,3.5C-0.2,3.1,0,2.6,0.3,2.4
		C0.8,2.1,1.4,1.9,2,1.8C4.4,1.4,6.8,1,9.1,0.7c1.5-0.2,2.9-0.6,4.4-0.6C17.3,0,21,0,24.7,0.1C24.7,0.1,24.7,0.1,24.7,0.1z"/>
	<path d="M14.3,5.8c-0.5,0.1-1.1-0.6-1.6,0.1c-0.1-0.2-0.2-0.4-0.2-0.5c0.2-0.7,0.8-0.9,1.4-0.6c0.8,0.4,1.2-0.1,1.7-0.6
		c0.5-0.4,0.1-0.5-0.2-0.7c-0.7-0.4-1.2-0.1-1.9,0.1c-0.3,0.1-0.9,0.2-0.9,0.1C12.4,3.2,13,3.2,13.3,3c1.1-0.8,2.2-0.4,3.1,0.3
		c0.2,0.2,0.4,0.7,0.3,0.9C16.1,5,15.4,5.7,14.3,5.8z"/>
</g>
</svg>
