<?xml version="1.0" encoding="iso-8859-1"?>
<!-- Generator: Adobe Illustrator 25.3.0, SVG Export Plug-In . SVG Version: 6.00 Build 0)  -->
<svg version="1.1" id="Calque_1" xmlns="http://www.w3.org/2000/svg" xmlns:xlink="http://www.w3.org/1999/xlink" x="0px" y="0px"
	 viewBox="0 0 86.1 13.1" style="enable-background:new 0 0 86.1 13.1;" xml:space="preserve">
<g>
	<path d="M30.4,13c-1.6,0-3.1,0.1-4.7,0c-1.9-0.1-3.8-0.5-5.7-0.6c-4.3-0.3-8.3-1.7-12.5-2.8C6,9.2,4.4,9.1,2.8,9.1
		c-1.2,0-1.9-0.5-2.5-1.5c-0.6-1.1-0.3-2,0.8-2.4C2,5,2.9,4.7,3.8,4.7c2.6,0,5-0.9,7.6-1.2c0.9-0.1,1.9-0.3,2.8-0.3
		c1.5,0,2.8-0.2,4.1-1c1.6-0.9,3.3-1.6,5.2-1.8c2.4-0.3,4.9-0.7,7.3-0.4c0.9,0.1,1.8-0.1,2.6,0c2.8,0.1,5.6,0.3,8.4,0.4
		c1,0,2-0.2,3,0c4.1,0.4,8.1,0.2,12.2,0.4c1.7,0.1,3.4,0.4,5.1,0.6c0.2,0,0.5,0,0.7,0c1.8,0.1,3.6,0.2,5.3,0.4
		c0.4,0,0.8,0.2,1.2,0.4c1.7,0.6,3.5,1.1,5.2,1.7c0.3,0.1,0.6,0.1,0.9,0.1c3.2,0.1,6.3,0.2,9.5,0.4c0.2,0,0.4,0,0.5,0
		c0.2,0.1,0.4,0.3,0.6,0.5C86,5,85.8,5.2,85.7,5.3c-0.1,0.1-0.3,0.1-0.5,0.1c-2.4,0.2-4.9,0.5-7.3,0.7c-0.8,0.1-1.5,0.2-2.3,0.4
		c-3.8,0.9-7.5,1.6-11.3,2.6c-3.6,1-7.1,1.7-10.8,2c-2.2,0.2-4.4,0.7-6.7,1c-2,0.2-4,0.3-6.1,0.4c-3.5,0.2-6.9,0.3-10.4,0.5
		C30.4,13.1,30.4,13,30.4,13z"/>
	<path d="M5,6.5C4.6,6.7,4.4,6.9,4.2,6.9c-0.2,0-0.3-0.2-0.5-0.4c0.2-0.1,0.3-0.3,0.5-0.4C4.4,6.1,4.6,6.3,5,6.5z"/>
</g>
</svg>
