<?xml version="1.0" encoding="iso-8859-1"?>
<!-- Generator: Adobe Illustrator 25.3.0, SVG Export Plug-In . SVG Version: 6.00 Build 0)  -->
<svg version="1.1" id="Calque_1" xmlns="http://www.w3.org/2000/svg" xmlns:xlink="http://www.w3.org/1999/xlink" x="0px" y="0px"
	 viewBox="0 0 77 50.3" style="enable-background:new 0 0 77 50.3;" xml:space="preserve">
<g>
	<path d="M46.9,38c-0.5,0-1,0-1.5,0c-0.9-0.1-1.6-0.1-2.1,0.9c-0.2,0.3-0.6,0.5-1,0.7c-1.1,0.4-1,0.5-1.3,0.9
		c-0.5,0.7-0.4,1.5-0.1,2.2c0.6,1.2,1.3,2.4,1.9,3.6c0.5,0.9,0.7,1.9,0.6,2.9c0,0.2,0,0.4,0,0.5c-0.1,0.2-0.4,0.4-0.6,0.6
		c-0.1-0.2-0.3-0.5-0.3-0.7c0.4-1.5-0.4-2.7-1-3.9c-0.1-0.2-0.3-0.5-0.5-0.5c-1.4-0.3-1.6-1.5-2-2.5c-0.2-0.7-0.1-1.5-1.3-1.4
		c-0.5,0-0.6-0.8-0.6-1.3c0-0.3-0.1-0.7-0.5-0.5c-1.3,0.6-2.1-0.3-2.6-1.2c-0.4-0.6-0.7-0.6-1.3-0.4c-2.1,0.6-4.2,0.4-6.3-0.1
		c-3.4-0.9-6.8-1.9-10-3.2c-2.3-0.9-4.8-1.6-7.1-2.4c-2.9-1.1-5.6-2.7-7.9-4.8c-1.3-1.2-1.6-2.6-0.8-4.2c1.3-2.5,3-4.9,5.5-6.4
		c2.4-1.5,4.9-2.8,7.3-4.1c2.9-1.6,5.7-3.2,8.6-4.9c2.5-1.5,5.1-2.9,7.6-4.4c1.9-1.1,4-1.8,6.2-2.4c0.2-0.1,0.4,0,0.5-0.1
		c1-0.2,1.9-1.1,3-0.9c1,0.3,2,0.6,3.1,0.9c3.3,0.7,6.2,2.4,9,4.3c3.3,2.1,6.5,4.2,9.9,6.1c3.8,2.1,7.5,4.4,11,7
		c1.9,1.4,3.3,3.3,4.4,5.3c0.8,1.4,0.5,2.8-0.6,3.9c-2.4,2.2-5.2,3.9-8.2,5.1c-3.2,1.3-6.5,2.5-9.8,3.5C54.4,37,50.8,38.2,46.9,38z"
		/>
	<path d="M43.7,7.1c0,0.7-0.1,1.2-0.7,1.7c-0.4,0.3-0.5,1.1-0.8,1.7c-0.1,0.1-0.3,0.3-0.3,0.3c-0.1-0.1-0.4-0.2-0.3-0.4
		c0-0.5,0-1.1,0.2-1.5c0.4-1-0.1-2.2,0.5-3.2c0.1-0.2,0.4-0.6,0.5-0.5c0.2,0.1,0.6,0.3,0.6,0.6C43.6,6.2,43.6,6.7,43.7,7.1z"/>
	<path d="M34.8,7.2C35,8,35.3,8.8,35.5,9.6c0.1,0.3,0.2,0.6,0.1,0.8c-0.1,0.2-0.4,0.4-0.6,0.5c-0.1-0.2-0.3-0.3-0.4-0.5
		c-0.1-0.4-0.1-1-0.3-1.1c-1.2-0.8-0.7-1.9-0.7-2.9c0-0.2,0.4-0.6,0.7-0.6c0.2,0,0.5,0.4,0.7,0.7c0.1,0.2,0,0.5,0,0.7
		C34.9,7.2,34.8,7.2,34.8,7.2z"/>
	<path d="M34,15.6c0.6,0.8,1.3,1.7,2,2.6c0,0,0,0.1,0.1,0.2c0.1,0.5,0.3,1.1,0.4,1.6c-0.8-0.2-0.6-0.9-0.9-1.3
		c-0.6-0.9-1.3-1.7-1.9-2.5c-0.1-0.1,0-0.3,0-0.5C33.7,15.6,33.8,15.6,34,15.6z"/>
	<path d="M39.3,5c0-0.1,0-0.2,0-0.4c0-0.6,0.1-1.3,0.1-1.9c0.2,0.6,0.4,1.3,0.5,1.9c0.1,0.8,0,1.7-0.1,2.5c0,0.1-0.2,0.3-0.2,0.4
		c-0.1-0.2-0.3-0.3-0.3-0.5C39.3,6.4,39.3,5.7,39.3,5C39.3,5,39.3,5,39.3,5z"/>
	<path d="M39.5,10c-0.2,0.4-0.3,0.8-0.6,1.2c-0.1,0.2-0.5,0.3-0.7,0.4c-0.1,0-0.2-0.3-0.3-0.5c-0.1-0.2-0.2-0.3-0.2-0.5
		c-0.1-0.6-0.3-1.2-0.4-1.9c0.9,0.2,0.5,1.2,1,1.7c0.1,0.1,0.1,0.3,0.2,0.4c0.1-0.1,0.3-0.2,0.4-0.3c0.1-0.2,0.1-0.5,0.2-0.7
		c0-0.1,0.2-0.1,0.3-0.2C39.4,9.8,39.4,9.9,39.5,10z"/>
	<path d="M46.1,10.5c-0.4,1.3-0.3,2.7-1.7,3.5c-0.1,0-0.2,0.1-0.3,0.1c0-0.1-0.1-0.3-0.1-0.3c1-0.9,1.1-2.2,1.6-3.3
		c0.1-0.1,0.2-0.2,0.3-0.3C46.1,10.2,46.1,10.4,46.1,10.5z"/>
	<path d="M30.7,11c0.7,1,1.4,2,2.1,3.1c0,0.1,0,0.2-0.1,0.3c0,0-0.2,0-0.3,0C31.4,13.5,30.6,12.5,30.7,11C30.7,11.1,30.7,11,30.7,11
		z"/>
	<path d="M35.3,21.2c-0.2,0.3-0.3,0.8-0.6,1c-0.3,0.2-0.2,1-0.8,0.6c-0.1-0.1,0.1-0.7,0.3-1.1c0.2-0.3,0.5-0.5,0.7-0.8
		c0.1-0.1,0.2-0.1,0.3-0.1C35.2,21,35.2,21.1,35.3,21.2z"/>
	<path d="M46,6.9c-0.1-0.1-0.2-0.1-0.2-0.2c-0.1-0.3-0.3-0.7-0.4-1c-0.2-0.5-0.4-1.1-0.6-1.6c0.7,0.2,0.8,0.9,1.1,1.4
		c0.2,0.3,0.2,0.7,0.3,1C46.2,6.6,46.1,6.8,46,6.9z"/>
	<path d="M30.7,11.1c-0.1-0.2-0.4-0.5-0.4-0.7c0-0.7,0.1-1.3,0.2-1.9c0.1,0,0.1,0,0.2,0.1c0.4,0.7,0.3,1.4,0.1,2.1
		C30.7,10.7,30.7,10.9,30.7,11.1L30.7,11.1z"/>
	<path d="M33.6,25.8c0.1,0.1,0.2,0.1,0.2,0.2c0.1,0.6,0.2,1.1,0.3,1.7c0,0.1-0.1,0.2-0.1,0.3c-0.1,0-0.1,0-0.2-0.1
		c-0.5-0.4-0.9-1.6-0.6-2.1C33.4,25.9,33.5,25.9,33.6,25.8z"/>
	<path d="M37.1,5.3c0.1,0.7,0.2,1.5,0.3,2.2c0,0.2-0.1,0.3-0.1,0.5C37.2,7.9,37,7.9,37,7.7C36.8,6.9,36.5,6.1,37.1,5.3L37.1,5.3z"/>
	<path d="M35.6,31c0,0.1-0.1,0.2-0.1,0.3c-0.1-0.1-0.2-0.1-0.3-0.2c-0.2-0.3-0.4-0.6-0.5-0.9c-0.1-0.3-0.6-0.6-0.1-0.8
		c0.1-0.1,0.5,0.3,0.6,0.5C35.4,30.2,35.5,30.6,35.6,31z"/>
	<path d="M46.2,7.6c0.1,0.1,0.3,0.2,0.3,0.3c-0.1,0.5-0.2,0.9-0.3,1.3c0,0.1-0.1,0.1-0.2,0.1c0,0-0.1-0.1-0.1-0.1
		c0-0.5,0.1-1,0.2-1.5C46,7.6,46,7.6,46.2,7.6z"/>
	<path d="M37.1,5.3c0-0.3,0-0.6,0-0.9c0.1-0.6,0.2-1.2,0.2-1.7c0,0.6,0.1,1.1,0.1,1.7C37.5,4.7,37.3,5,37.1,5.3
		C37.1,5.3,37.1,5.3,37.1,5.3z"/>
	<path d="M41.4,17.8c-0.1-0.2-0.3-0.3-0.2-0.4c0.1-0.3,0.3-0.6,0.5-0.9c0,0,0.2,0,0.3,0C41.8,17,41.6,17.4,41.4,17.8z"/>
	<path d="M36.1,34c-0.2,0.1-0.5,0.2-0.7,0.4c0-0.3,0-0.6,0.1-0.9c0.1-0.2,0.3-0.2,0.5-0.4c0,0.2,0.1,0.3,0.1,0.5
		C36.1,33.7,36.1,33.8,36.1,34z"/>
</g>
</svg>
