<?xml version="1.0" encoding="iso-8859-1"?>
<!-- Generator: Adobe Illustrator 25.3.0, SVG Export Plug-In . SVG Version: 6.00 Build 0)  -->
<svg version="1.1" id="Calque_1" xmlns="http://www.w3.org/2000/svg" xmlns:xlink="http://www.w3.org/1999/xlink" x="0px" y="0px"
	 viewBox="0 0 68 40" style="enable-background:new 0 0 68 40;" xml:space="preserve">
<g>
	<path d="M53.6,16c2.3,0,4.2-1,5.9-2.3c1.3-1,2.7-2,4-2.9c0.5-0.3,1-0.6,1.6-0.8c1.2-0.4,1.6-0.2,1.8,1c0.2,1.2,0.3,2.5,0.4,3.7
		c0.2,2.6,0.5,5.2,0.6,7.7c0.1,1.2-0.2,2.5-0.4,3.7c-0.1,0.4-0.5,0.6-1,0.4c-2.2-0.9-4.4-1.7-6.6-2.6c-1.2-0.5-2.5-0.9-3.8-0.8
		c-1.3,0-2.5,0-3.8,0c-0.5,0-0.9,0.2-1.4,0.3c-0.1,0-0.2,0.1-0.3,0.1c0.1,0.1,0.2,0.2,0.4,0.3c0.2,0.1,0.3,0.2,0.5,0.2
		c1.1,0.5,1.3,0.8,1.1,1.9c-0.1,0.3-0.2,0.7-0.3,1c-0.5,2-1.8,3-3.8,2.9c-0.5,0-0.5,0.1-0.4,0.4c0.4,1,0.3,2.3,1.4,3
		c0.1,0.1,0.1,0.3,0.2,0.4c-0.2,0-0.4,0.1-0.5,0c-0.9-0.5-1.8-1-2.6-1.5c-0.6-0.3-1.1-0.8-1.6-1.2c-0.5-0.4-0.9-0.7-1.3,0
		c-0.1,0.1-0.5,0.1-0.6,0c-0.3-0.3-0.6-0.6-0.8-1c-0.5-1.1-1.3-1.3-2.5-1.3c-1.7,0.1-3.4,0-5,0c-1.8,0.1-3.7,0.2-5.5,0.3
		c-0.1,0-0.3,0.1-0.4,0.1c0.1,0.1,0.2,0.1,0.3,0.2c0.5,0.2,1,0.4,1.5,0.6c1.6,0.6,1.9,1.1,2,2.8c0,1.4,0,2.7,0,4.1
		c0,0.8,0,1.7,0.5,2.4c0.1,0.2,0,0.4,0.1,0.6c-0.2,0-0.5,0-0.6-0.1c-1.7-1.2-3.5-2.5-5.2-3.8c-0.5-0.3-0.8-0.9-1.1-1.4
		c-0.7-1.5-1.4-3-2.1-4.5c-0.3-0.8-0.8-1.3-1.7-1.2c-0.7,0.1-1.4,0-2.2,0c-2.6-0.1-5.2,0-7.7-0.4c-3.8-0.5-7.5-1.4-11.2-2.1
		c-0.1,0-0.1,0-0.2,0c-0.4-0.2-1.1-0.2-1-0.9c0.1-0.5,0.6-0.6,1.1-0.6c0.4,0,0.7-0.1,1.1-0.1c-0.3-0.2-0.6-0.4-0.9-0.5
		C0.2,24,0,23.7,0.5,22.7c1.6-3.6,3.7-6.7,6.9-9.1c3.2-2.4,6.4-4.5,9.9-6.3c1-0.5,1-0.5,0.7-1.8c0-0.2,0-0.3,0-0.5
		c0.2,0,0.4,0,0.6,0.1c0.9,0.5,1.1,0.4,1.4-0.4c0.2-0.6,0.2-1.2,0.5-1.7c0.2-0.5,0.6-0.8,0.9-1.2c0.1,0.4,0.2,0.8,0.3,1.2
		c0.2,0.8,0.7,0.9,1.3,0.2c0.7-0.7,1.3-1.5,2-2.3c0.2-0.2,0.3-0.3,0.6-0.4c0.1,0,0.4,0.1,0.4,0.2c0,0.3-0.2,0.6-0.2,0.8
		c0,0.3,0.2,0.6,0.4,0.7c0.1,0.1,0.4-0.1,0.6-0.3c0.7-0.6,1.3-1.3,2-1.8c0.1-0.1,0.4,0,0.6,0c0,0.2,0.1,0.3,0,0.5
		c-0.1,0.3-0.4,0.5-0.4,0.8c0,0.2,0.1,0.5,0.3,0.8c0,0,0.4-0.1,0.6-0.2c0.2-0.2,0.4-0.4,0.7-0.6c0.4-0.2,0.8-0.3,1.2-0.5
		c-0.2,0.3-0.4,0.7-0.5,1.1c-0.1,0.3,0,0.6,0.1,0.8c0.2,0.4,0.5,0,0.7-0.1c0.4-0.1,0.8-1,1.2-0.1C33.3,3.2,34,2.3,34.2,3
		c0.2,0.6,0.6,0.8,1.2,0.5c0.1-0.1,0.5,0.2,0.6,0.4c0.4,0.8,0.9-0.1,1.1,0c0.3,0.2,0.5,1,0.6,0.9c0.7-0.2,1,0,1.2,0.7
		c0,0.1,0.4,0.1,0.6,0.1c0.2,0,0.6-0.1,0.6,0c0.3,0.7,0.9,0.4,1.4,0.6c1,0.3,1.9,0.1,2.7-0.3c1.1-0.6,2.2-0.3,2.9,0.5
		c1.9,2,3.8,4.1,4.8,6.8c0.5,1.2,0.4,1.3-0.9,1.8c-0.2,0.1-0.3,0.1-0.5,0.2c0.2,0.1,0.4,0.2,0.6,0.2C52,15.7,52.8,15.8,53.6,16z"/>
	<path d="M34.5,13.4c-2.1-0.2-4.2-0.6-6.3-0.7c-2.2-0.1-4.4-0.2-6.6,0.4c-0.4,0.1-0.9,0.2-1.4,0.2c-0.1,0-0.2-0.1-0.3-0.2
		c0.1-0.1,0.1-0.2,0.2-0.2c0.6-0.2,1.2-0.6,1.8-0.6c2-0.2,4.1-0.7,6.2-0.1c1.4,0.4,2.8,0.2,4.2,0.4C33.1,12.8,33.8,13.1,34.5,13.4
		L34.5,13.4z"/>
	<path d="M10.4,26.7c-0.4-0.1-0.6,0-0.7-0.1c-0.1-0.1-0.2-0.2-0.2-0.4c0-0.1,0.1-0.2,0.2-0.2c0.2-0.1,0.5-0.1,0.7-0.1
		c1.8-0.1,2.4-0.8,2.5-2.5c0-0.3,0-0.6,0-0.9c0-0.1,0.1-0.2,0.1-0.3c0.1,0.1,0.2,0.1,0.3,0.2c0.8,1.2,0.3,3.3-1,3.8
		C11.6,26.5,10.9,26.6,10.4,26.7z"/>
	<path d="M8.2,16.2c0.2,0.3,0.5,0.6,0.7,1c0.3,0.8,0,1.6-0.8,1.9c-0.6,0.3-1.5-0.1-1.9-0.8c-0.3-0.6,0-1.4,0.7-1.8
		C7.3,16.4,7.8,16.4,8.2,16.2L8.2,16.2z"/>
</g>
</svg>
