<?xml version="1.0" encoding="iso-8859-1"?>
<!-- Generator: Adobe Illustrator 25.3.0, SVG Export Plug-In . SVG Version: 6.00 Build 0)  -->
<svg version="1.1" id="Calque_1" xmlns="http://www.w3.org/2000/svg" xmlns:xlink="http://www.w3.org/1999/xlink" x="0px" y="0px"
	 viewBox="0 0 87.2 13.3" style="enable-background:new 0 0 87.2 13.3;" xml:space="preserve">
<g>
	<path d="M73,5.4c4.8,0,8.6,0,12.5,0c0.5,0,1,0,1.4,0c0.1,0,0.3,0.1,0.3,0.2c0,0.2,0,0.4-0.1,0.5C86.5,6.4,86,6.8,85.4,7
		c-2.1,0.9-4.3,1.3-6.5,1.7C76.6,9.2,74.3,9.7,72,10c-2,0.3-4.1,0.6-6.2,0.9c-1.8,0.2-3.6,0.5-5.5,0.7c-1.5,0.2-3.1,0.2-4.6,0.4
		c-0.6,0.1-1.3,0.2-1.9,0.3c-1.4,0.3-1.9,0.2-2.5-1c-0.6-1.1-1.5-1.5-2.7-1.4c-4.5,0.2-9.1,0.3-13.6,0.4c-0.3,0-0.6,0-0.9,0
		c-0.4,0-0.6,0-0.6,0.5c-0.2,1.3-1.4,2.5-2.6,2.5c-0.2,0-0.5-0.1-0.6-0.3c-0.4-0.4-0.8-0.8-1-1.3c-0.3-1.2-1.1-1.3-2.1-1.3
		c-3.1,0.1-6.1,0.1-9.2,0c-1.1,0-2.2-0.2-3.4-0.3c-0.5,0-1.1-0.1-1.6,0c-3.1,0.7-6.2,0.3-9.3,0.3c-1.2,0-2.5-0.7-3.7-1.2
		c0,0,0-0.6,0.2-0.6C1.5,8,2.7,7.3,4,6.9C6.7,6,9.5,5.2,12.2,4.5c1.4-0.3,2.8-0.4,4.2-0.5c0.9-0.1,1.9-0.2,2.8-0.3
		c0.5,0,1.1-0.1,1.6,0c1.7,0.1,3.3,0.2,5,0.3c1,0.1,2,0.2,3,0.3c1.2,0.1,2.3,0.1,3-1.3c0.5-0.9,1.3-1.7,2.1-2.4
		c0.8-0.8,1.5-0.8,2.3,0.1c0.6,0.7,0.9,1.5,1.3,2.3c0.1,0.1,0.1,0.2,0,0.3c-0.1,0.3-0.3,0.7-0.4,1c0.4,0.1,0.8,0.1,1.2,0.2
		c0.6,0.1,1.2,0.2,1.8,0.2c2.3,0,4.7-0.1,7,0.1c4,0.4,8,0,12,0.4C64.2,5.6,69.1,5.2,73,5.4z"/>
	<path d="M11.2,8.1c-0.1,0.1-0.2,0.2-0.3,0.2c-0.2,0-0.5-0.1-0.5-0.1c-0.1-0.5-0.1-1-0.2-1.5c0-0.1,0.1-0.2,0.2-0.3
		c0,0,0.1,0.1,0.1,0.1C10.8,7,11,7.6,11.2,8.1z"/>
</g>
</svg>
