<?xml version="1.0" encoding="iso-8859-1"?>
<!-- Generator: Adobe Illustrator 25.3.0, SVG Export Plug-In . SVG Version: 6.00 Build 0)  -->
<svg version="1.1" id="Calque_1" xmlns="http://www.w3.org/2000/svg" xmlns:xlink="http://www.w3.org/1999/xlink" x="0px" y="0px"
	 viewBox="0 0 83.2 24.7" style="enable-background:new 0 0 83.2 24.7;" xml:space="preserve">
<g>
	<path d="M71,9.3c0.3-0.1,0.6-0.4,0.9-0.4c2.7,0,5.4-0.1,8.1,0c1.5,0,2.6,0.9,2.8,2.2c0.3,1.7,0.5,3.4-0.2,5.2
		c-0.4,1-0.9,1.5-1.8,1.8c-0.2,0.1-0.3,0.1-0.5,0.1c-3.6,0.5-7.2,0.9-10.7-0.7c-0.3-0.2-0.7-0.3-1-0.4c-0.9-0.4-0.9-0.3-1.3,0.6
		c-0.2,0.4-0.6,1-1,1.1c-2.2,0.7-4.4,1.6-6.7,1.7c-0.2,0-0.3-0.1-0.5-0.1c0.1-0.2,0.2-0.4,0.4-0.5c2-0.2,3.9-0.9,5.9-1.5
		c0.3-0.1,0.6-0.2,0.8-0.4c0.3-0.3,0.4-0.7,0.6-1c-0.4-0.1-0.7-0.3-1.1-0.3c-1,0.1-2,0.3-3,0.4c-1.9,0.2-3.9,0.5-5.8,0.6
		c-2.6,0.3-5.2,0.5-7.8,0.7c-2.4,0.2-4.8,0.3-7.1,0.4c-0.2,0-0.4,0.1-0.6,0.1c0.1,0.2,0.3,0.4,0.4,0.6c0.1,0.1,0.2,0.2,0.2,0.3
		c0,0.1,0,0.2,0,0.3c-0.2,0-0.3,0-0.5,0c-0.1,0-0.2-0.1-0.3-0.2c-0.5-1.3-1.7-1.1-2.7-1.1c-0.7,0-1.3,0-2,0c-1-0.1-1.8,0.2-2.6,0.9
		c-1,0.9-2.2,1.4-3.6,1.3c-0.5,0-1.1,0-1.6,0c-0.9-0.1-1.5,0.1-1.8,1.1c-0.3,0.9-1,1.5-1.9,1.8c-0.9,0.3-1.7,0.6-2.5-0.1
		c0,0-0.3,0.1-0.4,0.3c-0.1,0.6-0.6,0.6-1,0.5c-0.6-0.2-1.2-0.5-1.8-0.8c-0.6-0.3-1-1.3-2-0.7c-0.1,0.1-0.4-0.2-0.6-0.4
		c-0.3-0.5-0.8-1-0.9-1.5c-0.3-0.9-1-1-1.6-1.2c-3.1-0.5-6.2-0.9-9.2,0c-1.5,0.5-2.8-0.1-4.2-0.3c-0.9-0.2-1.1-1.1-0.4-1.8
		c0.4-0.4,1-0.7,1.6-1c0.8-0.5,0.9-0.7,0.3-1.4c-1.3-1.4-2.1-3-1.9-5c0.1-0.7,0.4-1.1,1-1.3C2.7,8.6,4,8,5.3,7.3
		C5.5,7.2,5.6,7,5.8,6.8C6.6,5.7,7.5,4.9,9,4.9c0.3,0,0.7-0.1,1-0.4c0.6-0.7,1.3-0.7,2.1-0.7c0.8,0,1.5-0.1,2.3-0.3
		c2.1-0.4,4.1-0.2,6.1,0.1c0.6,0.1,1,0.2,1.5-0.3c0.5-0.5,1-1,1.8-0.1c0.4,0.4,1.1,0.3,1.6-0.1c0.6-0.5,1.1-0.6,1.6,0
		c0.6,0.7,0.8,0.1,1.2-0.2c0.6-0.4,0.8-1.6,2-1.1c0.1,0,0.4-0.3,0.5-0.4c0.4-0.3,0.8-0.7,1.3-1c0.4-0.2,0.7-0.9,1.3-0.2
		c0.2,0.2,0.8-0.1,1.2-0.2c0.1,0.9,0.8,0.5,1.3,0.6c0.1,0,0.1,0.2,0.2,0.3c0,0.5,0.1,0.9,0,1.4c0,0.4-0.2,0.7-0.4,1
		c0.3-0.2,0.7-0.5,1-0.7c0.6-0.4,1.3-0.7,1.8-1.1c1.1-0.8,2.3-1.1,3.5-0.9c1.5,0.2,2.9,0.4,4.4,0.8c2.3,0.6,4.5,1.4,6.8,2.1
		c2.3,0.7,4.6,1.5,6.9,2.3c0.2,0.1,0.3,0.2,0.4,0.3c1.1,0.6,2.2,1.2,3.5,1.4c0.7,0.1,1.3,0.7,1.9,1c1.1,0.5,1.6,1.3,1.2,2.4
		c-0.1,0.3,0,0.5,0.3,0.3c0.7-0.4,1.3-0.8,2-1.2C69.8,9.7,70.3,9.2,71,9.3c0.2,1.9-1.3,3.5-3.1,3.5c-4.9,0-9.5-1.7-14.2-3
		c-1.5-0.4-2.9-0.2-4.4-0.3c-2-0.1-3.9-0.4-5.9-0.7c-1-0.1-1.2,0.1-1.2,1.1c-0.1,2.7-0.7,5.2-3,7c-0.2,0.1-0.4,0.3-0.3,0.6
		c0.1,0.3,0.5,0.3,0.8,0.2c4.9-0.6,9.9-0.8,14.8-1.2c3.6-0.3,7.1-0.6,10.7-1.2c1.2-0.2,2.4-0.2,3.5,0.3c0.2,0.1,0.3,0.1,0.5,0.2
		c3.1,1.4,6.4,2,9.8,1.2c1.9-0.5,2.7-1.7,2.5-3.9c-0.2-1.9-1.1-2.8-3-2.9c-1.9-0.1-3.7,0-5.6-0.1C72.3,10.1,71.4,10.1,71,9.3z"/>
	<path d="M54.5,21.1c-2.5,0.2-4.9,0.5-7.3,0.7c-1.4,0.1-2.9,0.4-4.2-0.4c-0.1-0.1-0.2-0.3-0.3-0.5c0.2,0,0.3,0,0.5,0
		c2.2,0.5,4.5,0.2,6.8,0.1c0.6,0,1.2-0.1,1.8-0.2c1.7-0.1,3.4-0.3,5.2-0.4c0.2,0,0.4,0.2,0.5,0.2c-0.2,0.1-0.3,0.1-0.5,0.2
		C56.1,20.9,55.3,21.4,54.5,21.1z"/>
	<path d="M12,10.6c0.2,0.2,0.4,0.3,0.6,0.5c-0.2,0.2-0.4,0.4-0.6,0.6c-0.2-0.2-0.3-0.4-0.5-0.6C11.7,10.9,11.9,10.8,12,10.6z"/>
	<path d="M58.4,13.6c0.5,0,0.9,0,1.4,0c0.1,0,0.2,0.2,0.3,0.3c-0.1,0.1-0.2,0.3-0.3,0.3c-0.9-0.1-1.9-0.2-2.8-0.3
		c-0.1,0-0.1-0.1-0.2-0.2c0.1,0,0.2-0.1,0.3-0.1C57.5,13.5,57.9,13.5,58.4,13.6C58.4,13.5,58.4,13.6,58.4,13.6z"/>
	<path d="M68.9,16.1c0.1-0.8,0.2-1.6,0.4-2.4c0-0.2,0.1-0.4,0.2-0.6c0.1,0.2,0.2,0.4,0.1,0.7C69.5,14.5,70,15.5,68.9,16.1L68.9,16.1
		z"/>
	<path d="M67.3,13.5c0,0,0.2,0,0.4,0c0.1,0,0.3,0.2,0.4,0.3c-0.2,0.1-0.3,0.3-0.5,0.4c-0.2,0.1-0.5,0.1-0.7,0
		c-0.2-0.1-0.3-0.2-0.5-0.4c0.2-0.1,0.4-0.2,0.5-0.3C67,13.5,67.1,13.5,67.3,13.5z"/>
	<path d="M24.9,6.4c0.2-1.1,0.3-1.1,1-0.7c1.1,0.5,1.6,1.8,1.1,3c0,0.1-0.2,0.2-0.3,0.2c-0.1,0-0.3-0.1-0.3-0.2
		c-0.1-0.8-0.7-1.3-1.2-1.8C25.1,6.7,24.9,6.6,24.9,6.4z"/>
	<path d="M24.9,6.4c0.1,0.1,0.3,0.3,0.4,0.4c0,0.1,0,0.2,0,0.4c-0.1,0.6-0.2,1.1-0.3,1.7c-0.7-0.2-0.8-0.9-1.1-1.4
		C23.7,6.7,23.9,6.6,24.9,6.4z"/>
	<path d="M23.9,14.2c-0.1,0-0.2-0.1-0.3-0.1c-0.1-0.1-0.1-0.2,0-0.3c0.2-0.5,0.5-1,0.8-1.5c0,0,0.1,0.1,0.1,0.1
		c-0.1,0.6-0.3,1.2-0.4,1.8C24.1,14.1,24,14.2,23.9,14.2z"/>
	<path d="M16.9,7.5c-0.2-0.3-0.6-0.6-0.5-0.7c0.1-0.3,0.4-0.5,0.6-0.7c0.1,0,0.6,0.4,0.6,0.5C17.4,6.9,17.2,7.1,16.9,7.5z"/>
	<path d="M16.1,6.7c-0.4,0.3-0.6,0.4-0.8,0.6c-0.1-0.2-0.4-0.5-0.4-0.6c0-0.2,0.3-0.5,0.6-0.5C15.6,6.1,15.8,6.4,16.1,6.7z"/>
	<path d="M8.5,14.1C8.3,13.8,8,13.6,8,13.5c0.1-0.3,0.3-0.6,0.5-0.8C8.7,12.8,9,13,9,13.1C9,13.4,8.7,13.6,8.5,14.1z"/>
	<path d="M15,11.6c-0.2-0.3-0.5-0.5-0.5-0.5c0.2-0.2,0.4-0.4,0.6-0.6c0.1,0.2,0.4,0.4,0.3,0.5C15.5,11.1,15.3,11.3,15,11.6z"/>
	<path d="M9.6,12.8c0.4-0.3,0.6-0.5,0.9-0.6c0,0,0.4,0.4,0.4,0.4c-0.1,0.2-0.3,0.4-0.5,0.5C10.2,13.2,10,13,9.6,12.8z"/>
	<path d="M11,9.1c0,0.6-0.5,1.2-1.1,1.2c-0.6,0-1.3-0.8-1.2-1.5c0.1-0.6,0.5-1.1,1.2-1C10.6,7.8,11,8.3,11,9.1z"/>
</g>
</svg>
