<?xml version="1.0" encoding="iso-8859-1"?>
<!-- Generator: Adobe Illustrator 25.3.0, SVG Export Plug-In . SVG Version: 6.00 Build 0)  -->
<svg version="1.1" id="Calque_1" xmlns="http://www.w3.org/2000/svg" xmlns:xlink="http://www.w3.org/1999/xlink" x="0px" y="0px"
	 viewBox="0 0 67.9 40" style="enable-background:new 0 0 67.9 40;" xml:space="preserve">
<g>
	<path d="M64.9,27.7c-0.5,0.1-1.1-0.4-1.8,0C61.7,27,60,27,58.6,26.3c-0.7-0.3-1.3-0.8-2-1.1c-1.3-0.5-2.5-1-3.8-1.5
		c-0.2-0.1-0.5-0.2-0.7-0.2c-0.4,0.1-0.7,0.3-1.1,0.4c0.3,0.1,0.6,0.2,0.9,0.4c0.5,0.2,1.1,0.3,1.4,0.7c0.5,0.6,0.8,1.3,1,2
		c0.6,1.6,1.1,3.3,1.5,5c0.2,0.8,0.3,1.7,0.3,2.6c0,1.4-0.8,2.2-2.1,2.4c-0.3,0-0.6-0.1-0.9,0.1c-1.8,0.9-3.6,0.6-5.5,0.6
		c-1.1,0-2.1-0.2-3-0.8c-0.4-0.3-0.9-0.4-1.3-0.5c0,0-0.1,0.2-0.2,0.2c-0.1,0.9-0.1,0.9-0.6,0.6c-0.4-0.2-0.8-0.5-1.2-0.7
		c-0.1-0.1-0.3,0-0.5,0c0,0.2,0,0.3,0,0.5c0,0.2,0.1,0.5,0.1,0.7c-0.2,0-0.5,0-0.7-0.1c-0.4-0.2-0.7-0.5-1-0.7
		c-0.4-0.2-0.7-0.3-0.8,0.2c-0.2,0.8-0.7,0.7-1.2,0.3c-0.1-0.1-0.3-0.2-0.4-0.3c-0.5-0.4-0.7-0.3-0.9,0.3c-0.3,0.9-0.3,1-0.9,0.5
		c-0.6-0.5-0.9-0.6-1.4,0.2c-0.4,0.7-0.8,0.1-1.1-0.2c-0.5-0.4-0.7-0.3-0.8,0.3c0,0.7-0.5,0.7-0.8,0.3c-0.6-0.7-1.2-0.9-1.9-0.1
		c-0.1,0.1-0.4,0.1-0.7,0c-0.9,0-1,0-0.9,0.8c0.1,0.5-0.1,0.6-0.5,0.7c-1.4,0.5-2.6-0.1-3.7-0.7c-0.9-0.5-1.6-1.4-2.4-2.1
		c-1.1-1-2.1-2.1-2.4-3.6c-0.1-0.3-0.5-0.6-0.9-0.7c-4.1-0.9-9-3.5-11.6-5.4c-1.3-1-2.8-1.9-3.7-3.4c-0.5-0.8-1.3-1.4-2-2.1
		C0.1,21.4-0.1,21,0,20.4c0.1-0.4,0.1-0.8,0-1.2c-0.1-1,0.3-1.5,1.1-2c1.7-1,3.4-2,5-3.1c0.9-0.6,1.6-1.6,2.4-2.3
		c2.3-2.1,4.6-4.1,7.6-5.2c0.3-0.1,0.6-0.5,0.7-0.9c0.3-0.6,0.5-1.2,0.7-1.8c0.1-0.1,0.4-0.3,0.5-0.2c0.4,0.3,0.6,0.3,0.8-0.2
		C18.9,3.2,19,3,19.2,2.8c0.2-0.3,0.5-0.6,0.8-0.2c0.3,0.3,0.5,0.2,0.7-0.1C21.1,2,21.3,0.9,22.2,2c0,0,0.3-0.1,0.4-0.2
		c0.2-0.3,0.3-0.8,0.6-1.1c0.2-0.2,0.5-0.3,0.7-0.4C24,0.5,24,0.8,24.1,1c0,0.1,0.1,0.3,0.1,0.4c0.1-0.1,0.2-0.1,0.3-0.2
		c0.2-0.2,0.3-0.4,0.4-0.6c0.4-0.5,0.8-1.1,1.1,0.1c0.2-0.1,0.4-0.1,0.6-0.2c0.3-0.1,0.7-0.6,0.8,0c0.1,1,0.4,0.8,0.8,0.2
		c0.1-0.2,0.2-0.5,0.4-0.6c0.1-0.1,0.6,0,0.6,0.1c0.2,1.1,0.5,0.7,0.9,0.1c0.1-0.2,0.7-0.2,0.7-0.2c0.2,0.8,0.5,0.9,0.8,0.1
		c0.3-0.6,0.6-0.3,1.1-0.2c0.6,0.1,1.2-0.2,1.7,0.4c0.5-0.5,1.1-0.2,1.7-0.1c0.3,0.1,0.7,0,0.8,0.1c0.3,0.5,0.5,0.3,0.8,0.1
		c0.2-0.1,0.7-0.3,0.8-0.2c0.5,0.6,0.9,0.7,1.4,0.1c0,0,0.3,0,0.3,0.1c0,0.9,1,0.5,1.2,0.9C42,2.1,42.3,2.4,42.9,2
		c0.1-0.1,0.4-0.1,0.5,0c0.5,0.5,0.8,1.1,1.5,0.3c0,0,0.3,0,0.3,0.1c0.4,0.8,0.9,0.9,1.4,0.1c1.5,0.4,2.4-1.1,3.8-1.1
		c1.3,0,2.6,0.3,3.9,0.6c1.1,0.3,1.8,0.8,1.9,2c0.1,1.4,0.4,2.8,0.4,4.2c0,1-0.5,2.1-0.9,3.1c-0.2,0.7-0.6,1.3-0.8,2
		c-0.1,0.1,0,0.3,0,0.5c0.1-0.1,0.3-0.2,0.4-0.2c1.7-0.9,3.3-2,5-2.7c1.1-0.5,2.3-0.8,3.4-1.2c0.9-0.3,2-0.1,3-0.1
		c0.2,0,0.5,0.3,0.6,0.5c0.5,1,0.7,2.1,0.3,3.3c-0.5,1.5-0.8,3-0.6,4.5c0.1,1,0.4,2.1,0.6,3.1c0.2,0.8,0.2,1.6,0.1,2.4
		c-0.1,1.1,0,2.3-0.1,3.4c0,0.8-0.2,0.9-1.1,0.9C66.1,27.6,65.6,27.7,64.9,27.7z"/>
	<path d="M28,18.2c0.8,0,1.4,0,1.9,0.1c1.4,0.3,2.1,1.7,1.6,3c-0.7,2.1-1.6,4.1-3.4,5.5c-0.6,0.5-1.4,1-2.2,1.2
		C24,28.4,22,29.2,20,28.4c-0.1-0.1-0.3,0.1-0.5,0.1c-0.2,0-0.4-0.1-0.6-0.1c0.1-0.2,0.2-0.4,0.2-0.6c0-0.1,0.1-0.1,0.1-0.1
		c0.7-1.1,0.7-1.1-0.1-2.1c-1-1.1-0.9-1.1,0.2-2c1.5-1.2,3-2.5,4.6-3.7c0.7-0.5,1.5-1.1,2.3-1.4C26.7,18.2,27.5,18.3,28,18.2z"/>
	<path d="M48.6,29.1c-0.2,1.1-0.7,1.9-1.7,2.4c-0.6,0.3-1,0.9-1.8,0.8c0.4-0.4,0.9-0.7,1.3-1.1c0.6-0.7,1.2-1.4,1.8-2.1
		c0.1-0.1,0.2-0.1,0.3-0.1C48.5,28.9,48.5,29,48.6,29.1z"/>
	<path d="M51.6,18.4c0.3,0.1,0.7,0.2,1,0.3c0.1,0,0.3,0.3,0.2,0.4c0,0.1-0.2,0.3-0.4,0.3c-0.7,0.1-1.4,0.3-2.1,0.3
		c-0.2,0-0.4-0.3-0.6-0.5c0.1-0.2,0.3-0.4,0.4-0.4C50.7,18.5,51.1,18.5,51.6,18.4z"/>
	<path d="M21.1,14.2c-0.1,0-0.1,0.1-0.1,0.1c-0.9,0.1-1.8,0.3-2.8,0.3c-0.1,0-0.3-0.2-0.3-0.3c0,0,0.1-0.2,0.2-0.3
		c1-0.3,1.9-0.2,2.9-0.1C21,14,21,14.2,21.1,14.2z"/>
	<path d="M45.2,18.6c0.2,0.3,0.3,0.4,0.5,0.6c-0.2,0.1-0.4,0.3-0.6,0.4c-0.1-0.2-0.3-0.4-0.3-0.5C44.7,18.9,45,18.8,45.2,18.6z"/>
	<path d="M47.5,10.2c0.2,0.3,0.5,0.6,0.7,0.9c0,0-0.1,0.1-0.2,0.2c-0.3-0.3-0.5-0.6-0.8-0.9C47.3,10.5,47.4,10.3,47.5,10.2z"/>
	<path d="M47.8,19.7c-0.2-0.2-0.4-0.3-0.4-0.5c0-0.1,0.2-0.3,0.4-0.4c0.2,0.2,0.3,0.3,0.4,0.5C48.2,19.3,47.9,19.5,47.8,19.7z"/>
	<path d="M49.5,19.2c-0.3,0.2-0.4,0.3-0.6,0.4c-0.1-0.2-0.2-0.3-0.3-0.5c0-0.1,0.2-0.3,0.3-0.3C49.1,18.8,49.3,19,49.5,19.2z"/>
	<path d="M53.7,21.4c-0.1,0.2-0.3,0.6-0.4,0.8c0,0-0.2,0-0.2,0c0,0-0.1-0.1-0.1-0.1c0.1-0.3,0.2-0.6,0.3-0.9c0-0.1,0.2-0.1,0.2-0.2
		C53.6,21.1,53.6,21.2,53.7,21.4z"/>
</g>
</svg>
