<svg xmlns="http://www.w3.org/2000/svg" viewBox="0 0 800 310" width="800" height="310">
  <g transform="scale(0.6666666666666666, 0.6666666666666666)">
    <path d="M 712.500 31.658 C 710.300 31.835, 705.350 32.430, 701.500 32.980 C 697.650 33.529, 684.600 34.669, 672.500 35.512 C 630.079 38.467, 599.205 44.620, 579.357 54.074 C 574.581 56.349, 571.800 57.003, 566.857 57.013 C 562.314 57.023, 558.074 57.899, 552 60.083 C 547.325 61.764, 542.124 63.491, 540.441 63.921 C 538.759 64.351, 532.234 66.989, 525.941 69.782 C 519.649 72.576, 509.550 76.942, 503.500 79.485 C 487.662 86.142, 483.064 88.946, 457.477 107.550 C 428.639 128.516, 422.001 134.092, 398.608 157 C 373.497 181.591, 358 201.058, 358 208.014 C 358 212.294, 355.472 215.047, 346.500 220.538 L 340.500 224.210 307 223.604 C 281.665 223.145, 269.600 223.350, 257.500 224.444 C 248.700 225.240, 230.700 226.608, 217.500 227.486 C 192.806 229.127, 167.307 231.692, 165.678 232.699 C 165.171 233.012, 152.227 233.630, 136.913 234.072 C 111.958 234.793, 108.582 235.091, 104.377 236.951 C 101.797 238.093, 97.904 239.311, 95.727 239.660 C 92.994 240.097, 89.717 241.970, 85.135 245.717 C 81.486 248.701, 76.322 252.910, 73.660 255.071 C 70.998 257.232, 67.786 259, 66.522 259 C 58.294 259, 36.291 268.044, 30.830 273.671 L 27.500 277.102 26.822 290.301 C 26.449 297.561, 25.848 305.328, 25.485 307.562 C 24.842 311.527, 24.966 311.753, 30.711 317.062 C 43.223 328.624, 50.013 332.051, 74.500 339.164 C 78.350 340.282, 83.705 342.315, 86.399 343.682 C 89.094 345.048, 94.269 346.993, 97.899 348.004 C 105.019 349.987, 121.322 355.736, 127 358.267 C 138.369 363.335, 159.909 367.920, 172.628 367.980 C 174.898 367.991, 178.371 368.675, 180.346 369.500 C 182.935 370.582, 187.697 371, 197.427 371 C 228.549 371, 231.562 372.356, 260.588 399.430 C 277.255 414.976, 293.130 427.740, 300.838 431.791 C 308.745 435.947, 322.333 437.430, 353 437.483 C 371.155 437.514, 378.749 437.894, 382.324 438.948 C 391.601 441.684, 436.866 436.885, 443.715 432.438 C 446.436 430.671, 473.267 430.442, 479.500 432.132 C 486.200 433.949, 600.388 434.943, 606 433.233 C 608.630 432.432, 619.436 431.467, 632 430.912 C 673.820 429.066, 683.138 428.278, 689.225 426.073 C 693.221 424.626, 697.363 424, 702.940 424 C 707.335 424, 712.858 423.350, 715.215 422.555 C 717.572 421.759, 725.975 420.626, 733.888 420.035 C 749.102 418.899, 765.172 416.724, 771 415.011 C 772.925 414.445, 783.050 413.301, 793.500 412.467 C 805 411.550, 815.066 410.197, 819 409.040 C 822.575 407.988, 827.975 406.824, 831 406.453 C 834.025 406.082, 837.892 405.205, 839.594 404.505 C 841.295 403.805, 845.570 402.909, 849.094 402.514 C 852.617 402.118, 858.425 400.545, 862 399.016 C 865.575 397.488, 870.299 395.918, 872.499 395.527 C 874.698 395.136, 879.052 393.741, 882.175 392.426 C 885.985 390.823, 892.239 389.528, 901.177 388.493 C 923.585 385.898, 944.490 380.268, 966 371.037 C 973.425 367.850, 980.471 364.946, 981.658 364.583 C 984.196 363.807, 992 355.629, 992 353.745 C 992 353.030, 992.900 351.674, 994 350.732 C 995.451 349.489, 996 347.782, 996 344.510 L 996 340 1009.982 340 C 1028.712 340, 1053.246 343.142, 1068.500 347.495 C 1082.605 351.519, 1088.490 352.587, 1104 353.934 C 1110.325 354.483, 1118.650 355.851, 1122.500 356.973 C 1142.887 362.915, 1159.318 364.459, 1162.709 360.750 C 1170.222 352.533, 1175.056 328.151, 1175.346 297 C 1175.496 280.882, 1175.436 280.371, 1172.755 274.910 C 1168.049 265.328, 1168.930 265.494, 1130.397 266.924 C 1112.304 267.596, 1090.975 268.563, 1083 269.074 C 1075.025 269.585, 1058.037 270.296, 1045.250 270.654 L 1022 271.305 1022 261.725 L 1022 252.145 1015.934 248.460 C 1010.441 245.123, 1008.930 244.702, 999.914 243.993 C 994.439 243.563, 989.303 242.666, 988.501 242.001 C 987.699 241.335, 981.296 240.175, 974.272 239.423 C 965.719 238.507, 957.825 236.916, 950.377 234.606 C 938.679 230.979, 925.202 228.993, 899 227.035 C 836.918 222.398, 808.616 220.004, 803 218.918 C 799.975 218.333, 788.828 217.457, 778.230 216.973 C 767.631 216.489, 756.381 215.432, 753.230 214.624 C 750.078 213.817, 741.125 212.669, 733.334 212.073 C 725.542 211.478, 715.867 210.351, 711.834 209.569 C 707.800 208.787, 697.505 207.915, 688.955 207.631 C 678.553 207.286, 671.849 206.585, 668.692 205.514 C 664.715 204.163, 659.549 203.958, 635.738 204.206 L 607.500 204.500 591.500 213.422 C 582.700 218.329, 572.668 224.290, 569.207 226.669 C 558.052 234.334, 559.704 234.003, 532.800 233.973 C 515.493 233.955, 438.021 231.666, 433.250 231.033 C 433.113 231.015, 433 224.571, 433 216.714 L 433 202.427 444.078 196.964 C 457.666 190.262, 458.548 189.466, 459.387 183.143 C 459.934 179.017, 460.919 177.137, 464.804 172.800 C 467.415 169.885, 472.015 164.607, 475.026 161.070 C 481.428 153.550, 487.493 149.429, 505.972 140.041 C 513.412 136.261, 521.104 132.076, 523.064 130.741 C 525.023 129.406, 528.564 128.054, 530.930 127.736 C 535.707 127.096, 551.587 119.756, 558.524 114.983 L 563 111.904 563 101.481 L 563 91.059 568.526 88.445 C 571.565 87.007, 578.427 84.817, 583.776 83.579 C 589.124 82.341, 598.450 79.907, 604.500 78.172 C 610.550 76.436, 618.087 74.325, 621.250 73.480 L 627 71.944 627 62.491 C 627 53.497, 627.109 53.015, 629.250 52.558 C 647.360 48.698, 678.214 45.039, 701.675 43.970 C 750.981 41.723, 753 41.369, 753 34.976 C 753 32.616, 752.510 32.181, 749.250 31.642 C 745.533 31.028, 720.194 31.039, 712.500 31.658" stroke="none" fill="black" fill-rule="evenodd"/>
  </g>
</svg>