<?xml version="1.0" encoding="iso-8859-1"?>
<!-- Generator: Adobe Illustrator 25.3.0, SVG Export Plug-In . SVG Version: 6.00 Build 0)  -->
<svg version="1.1" id="Calque_1" xmlns="http://www.w3.org/2000/svg" xmlns:xlink="http://www.w3.org/1999/xlink" x="0px" y="0px"
	 viewBox="0 0 87.5 42.7" style="enable-background:new 0 0 87.5 42.7;" xml:space="preserve">
<g>
	<path d="M84.2,28.1c-0.9-0.1-1.8-0.3-2.6-0.4c-3.7-0.5-7.3-1-10.8-2.1c-0.2-0.1-0.4-0.1-0.5-0.1c-0.5,0-0.8,0.4-0.4,0.8
		c0.9,1,0.8,2.3,1.2,3.5c0.1,0.2-0.2,0.5-0.3,0.7c-0.1,0.2-0.2,0.5-0.1,0.6c0.6,0.5,0.1,0.9-0.1,1.4c-0.6,1.4-1.7,2.4-2.9,3.3
		c-0.3,0.2-0.5,0.4-0.8,0.6c-0.3,0.2-0.5,0.5-0.8,0.5c-0.5,0.1-1,0-1,0.7c0,0.1-0.2,0.3-0.3,0.4c-0.5,0.1-1.1,0-1.5,0.2
		c-0.4,0.2-0.3,0.9-0.9,0.9c-0.6,0-1.1,0-1.3,0.7c0,0.1-0.4,0.2-0.6,0.2c-0.3,0-0.7-0.2-0.9,0c-0.4,0.3-0.7,0.7-1.1,1.1
		c-0.5-0.5-0.9-0.4-1.6,0c-1,0.5-2.2,0.7-3.4,1c-0.3,0.1-0.7,0.1-0.8,0.2c-0.6,0.7-1.3,0.5-2,0.3c-0.5-0.1-1.2-0.3-1.6-0.1
		c-1.1,0.6-1.8,0-2.6-0.5c-0.7-0.4-1.3-1.1-2.2-0.7c-0.3,0.1-0.8-0.2-1.1-0.5c-1.1-0.8-2.2-1.7-2.9-2.9c-0.4-0.7-0.9-1.3-1.3-1.9
		c-0.2-0.3-0.3-0.8-0.5-0.9c-0.4-0.2-0.9-0.1-1.4-0.1c-0.1,0-0.2,0-0.3,0.1c-1.6,0.7-3.3,0.7-5,0.9c-0.4,0-0.8,0-0.8,0.5
		c0,1-0.5,1.1-1.3,0.7c-0.9-0.4-1.9-0.7-2.8-1.1c-0.2-0.1-0.5-0.3-0.6-0.4c-0.2-1.4-1.3-1.4-2.3-1.7c-1.6-0.5-3.4-0.7-4.9-1.7
		c-0.2-0.1-0.4-0.2-0.7-0.2c-2,0-3.7-0.8-5.5-1.6c-0.6-0.3-1.2-0.4-1.9-0.6c-1-0.3-1.9-0.4-2.9-1c-0.6-0.3-1.4-0.5-2-0.3
		c-0.6,0.1-0.6-0.6-1-0.5c-0.3,0.1-0.7,0.6-0.8,0.5c-0.7-0.3-1.3-0.7-2.1-0.3C2,28,1.8,27.8,1.9,27.6c0.1-0.9-0.3-1.4-1-1.9
		c-0.3-0.2-0.5-0.5-0.7-0.8c-0.3-0.5-0.1-1.1,0.5-1.3c0.6-0.2,1.2-0.4,1.9-0.5c0.6-0.1,0.5-0.4,0.3-0.7c-0.3-0.4-0.7-0.7-0.9-1.1
		c-0.2-0.3-0.5-0.9-0.3-1.1c0.8-1.1,1.1-2.8,2.6-3.2c1.3-0.3,2.2-1.1,3.4-1.6c1.2-0.5,2.3-1.3,3.6-1.4c1,0,1.6-0.8,2.4-1.2
		c1.1-0.5,2.1-1,3.2-1.4c0.5-0.2,0.5-0.3,0.5-0.7c0-0.7,0.2-1.4,0.1-2.1c-0.1-2.5,0.6-4.8,1.7-7c0.3-0.7,1-0.6,1.3-0.9
		c0.6-0.5,0.9-0.3,1.3,0.1C21.8,1,22,1.1,22.2,1.1c0.4-0.1,0.9-0.4,1.2-0.3c0.3,0.1,0.3,0.8,0.6,1C24.3,2,24.8,2.1,25.1,2
		c0.6-0.2,0.9-0.1,1,0.5c0,0.2,0.1,0.4,0.3,0.4c0.5,0.2,1.2,0.2,1.6,0.5c0.4,0.3,0.3,1.1,1.1,1.2c0.2,0,0.5,0.4,0.4,0.4
		c-0.7,1.2,1,1.3,0.9,2.2c0.2,0,0.5,0.1,0.6,0c0.2-0.4,0.4-0.9,0.6-1.3c0.4-0.7,0.8-1.5,1.2-2.2c0.1-0.2,0.6-0.6,0.7-0.5
		c1.3,0.7,1.4-0.6,2-1.1c0.9-0.7,1.9-1.3,2.8-1.9c0.2-0.1,0.7-0.2,0.8-0.1c0.6,0.9,1.3,0.3,1.9,0.1c1-0.3,2-0.5,3-0.1
		c0.1,0,0.1,0.1,0.2,0.1c2.2-0.7,4,0.8,6.1,0.9c0.4,0,0.8,0.1,1.2,0.2c0.2,0,0.4,0.1,0.4,0.1c0.1,0.8,0.7,0.7,1.2,0.6
		c1.6-0.2,2.8,0.7,4.2,1c1.2,0.3,2.3,1.1,3.6,1.2c0.5,0,0.9,0.5,1.4,0.6c2.1,0.7,4,1.8,6,2.6c0.5,0.2,1.1,1.7,0.7,2.3
		c-0.9,1.6-0.5,3.6-1.9,4.9c-0.2,0.2-0.3,0.5-0.4,0.8c-0.2,0.7-0.2,1.3,0.9,1.2c1.1,0,2.1-0.2,3.1-0.6c3.5-1.5,7.2-2.2,10.8-3
		c1-0.2,2.1-0.5,3.1-0.7c0.6-0.1,1.2-0.1,1.7-0.1c0.2,0,0.6,0.3,0.6,0.5c-0.1,1.1,0.5,2.1-0.1,3.2c-0.4,0.7,0.3,1.7-0.4,2.4
		c0,0,0.1,0.3,0.2,0.4c0.4,0.5,0.5,0.8-0.3,1c-0.1,0-0.1,0.3-0.1,0.3c0.7,0.3,0.6,0.7,0.2,1.2c-0.1,0.1,0,0.5,0.2,0.6
		c0.3,0.3,0.3,0.6,0,0.9c-0.1,0.1-0.2,0.3-0.2,0.5c-0.1,0.7,1.6,0.7,0.6,1.6c-0.7,0.7-0.1,1.2,0.2,1.7c0,0.1-0.3,0.5-0.4,0.6
		C86.1,27.8,85.1,28,84.2,28.1z"/>
	<path d="M50.5,21.6c0.1,1.1-0.3,1.8-1.1,2.1c-0.4,0.1-0.6,0.3-0.5,0.7c0,0.2-0.3,0.4-0.5,0.6c-0.5,0.3-0.9,0.5-1.1,1.1
		c-0.1,0.2-0.5,0.4-0.8,0.5c-0.7,0.3-1.5,0.4-1.7,1.3c-0.1,0.3-0.8,0.6-1.3,0.7c-0.8,0.2-1.6,0.2-2,1.2c-0.2,0.4-1.1,0.5-1.7,0.7
		c-0.5,0.1-1,0-1.4,0.1c-0.3,0.1-0.8,0.3-0.8,0.5c-0.2,1-1,0.9-1.7,0.9c-1.3,0-2.5-0.1-3.6,0.8c-0.3,0.3-1,0.2-1.5,0.1
		c-1.1-0.3-2.2-0.2-3.3,0c-2.1,0.4-3.9-0.6-5.6-1.8c0,0-0.1-0.1-0.1-0.1c0-0.1,0-0.2,0-0.2c0.1-0.1,0.2-0.1,0.3-0.1
		c0.5,0.2,1.1,0.5,1.6,0.8c1.3,0.5,2.6,1.2,4.1,0.5c0.5-0.2,1.3,0.1,1.9,0.1c0.9,0.1,1.8,0.3,2.8-0.3c0.7-0.4,1.6-0.3,2.4-0.3
		c1,0,1.8,0,2.4-1.1c0.4-0.8,1.3-0.8,2.1-0.8c0.8,0,1.6,0,2.1-0.9c0.3-0.5,1.2-0.7,1.9-0.9c0.5-0.1,0.8-0.3,1.1-0.7
		c0.4-0.6,1-0.9,1.7-1.2c0.8-0.4,1.4-1.3,2.1-1.9c0.3-0.3,0.5-0.6,0.8-0.8c1.3-0.8,1.5-1.6,0.4-2.4c-1-0.8-2.2-1.5-3.4-1.8
		c-1.2-0.3-2.2-1.3-3.5-0.9c-1.2-1.1-2.7-0.6-4.1-0.7c-0.5,0-0.9-0.3-1.4-0.3c-0.9,0-1.9-0.1-2.8,0.3c-0.6,0.3-1.3,0.4-1.9,0.3
		c-1.6-0.1-3.1,0.4-4.5,1.1c-1.1,0.5-2.3,1.1-3.4,1.6c-0.2,0.1-0.4,0.2-0.7,0.2c-0.2,0-0.3-0.1-0.5-0.1c0.1-0.1,0.2-0.3,0.3-0.3
		c0.6-0.3,1.2-0.6,1.8-0.9c0.1-0.1,0.3-0.2,0.4-0.3c-0.1-0.1-0.3-0.2-0.4-0.3c-0.1-0.1-0.2-0.1-0.3-0.2c-0.5-0.2-1-0.6-1.5-0.6
		c-0.4,0-0.8,0.6-1.2,0.9l0,0c-0.5-0.2-1-0.5-1.6-0.7c-0.6-0.2-1.2-0.4-1.8-0.7c-0.2-0.1-0.3-0.4-0.4-0.6c0.2,0,0.4,0,0.6,0
		c0.7,0.2,1.4,0.4,2.2-0.1c0.3-0.2,0.8-0.1,1.2,0c0.7,0.2,1.3,0.5,2,0.8c1.2,0.7,2.5,1,3.8,0.3c1.3-0.7,2.8-1,4.3-1c1,0,2-0.3,3-0.5
		c0.9-0.2,1.7-0.3,2.6,0c0.6,0.2,1.3,0.1,1.9,0.2c0.9,0.1,1.9-0.3,2.6,0.6c0.1,0.2,0.6,0.1,0.9,0.1c0.8,0.1,1.5,0.1,2.1,0.7
		c0.2,0.2,0.7,0.2,1,0.3c0.4,0.1,0.9,0.3,1,0.6c0.3,0.4,0.6,0.4,1,0.5c0.8,0.2,1.6,0.5,1.9,1.4c0.1,0.1,0.2,0.2,0.1,0.2
		C50.6,21.5,50.5,21.6,50.5,21.6z"/>
	<path d="M50.5,21.6c0-0.1,0-0.2,0-0.4c0.4-0.5,0.9-0.8,1.7-0.7c2,0.2,4,0.2,6.1,0.1c0.1,0,0.3,0.1,0.4,0.2
		c-0.1,0.1-0.3,0.4-0.4,0.4c-2-0.1-4,0.6-6,0.3C51.7,21.3,51.1,21.5,50.5,21.6z"/>
	<path d="M66.3,20.5c1.2,0,2.4,0,3.6,0c0.2,0,0.3,0.1,0.5,0.1c-0.1,0.1-0.3,0.2-0.4,0.2c-2.5,0-4.9,0-7.4,0c-0.1,0-0.3-0.1-0.4-0.2
		c0.2-0.1,0.3-0.1,0.5-0.1C63.9,20.4,65.1,20.5,66.3,20.5C66.3,20.5,66.3,20.5,66.3,20.5z"/>
	<path d="M21.9,25.4c0.2-0.1,0.5-0.2,0.7-0.2c0.1,0,0.4,0.3,0.4,0.4c-0.1,0.5-0.1,0.9-0.3,1.3c-0.1,0.3-0.5,0.4-0.7,0.6
		c0-0.3-0.1-0.5,0-0.8c0.1-0.5-0.3-0.7-0.6-0.9c-0.1-0.1-0.2-0.3-0.3-0.4c0.1-0.1,0.3-0.1,0.4-0.2C21.6,25.2,21.7,25.3,21.9,25.4z"
		/>
	<path d="M15.9,16.2c-0.1,0.1-0.3,0.2-0.4,0.2c-0.8-0.3-1.5-0.9-2.5-0.4c0,0-0.2-0.1-0.2-0.2c0-0.1,0-0.3,0.1-0.3
		c0.4-0.2,0.9-0.5,1.2-0.4c0.6,0.1,1.1,0.5,1.6,0.7C15.7,15.9,15.8,16.1,15.9,16.2z"/>
	<path d="M22,23c-0.2-0.4-0.5-0.7-0.7-1.1c0.3,0.1,0.7,0.1,1,0.2c0.2,0.1,0.3,0.3,0.4,0.5C22.5,22.7,22.3,22.8,22,23z"/>
	<path d="M60,20.9c-0.1,0-0.2-0.1-0.4-0.2c0.2-0.1,0.4-0.3,0.6-0.3c0.2,0,0.5,0.2,0.7,0.3C60.6,20.9,60.4,20.9,60,20.9z"/>
	<path d="M22.5,29.2c-0.2,0.1-0.3,0.2-0.4,0.3c-0.1-0.2-0.3-0.5-0.4-0.7c0-0.1,0.2-0.2,0.3-0.3C22.1,28.8,22.3,29,22.5,29.2z"/>
	<path d="M21,28.2c-0.2-0.4-0.4-0.6-0.4-0.8c0-0.1,0.1-0.3,0.2-0.4c0.2,0.1,0.4,0.2,0.5,0.4C21.3,27.5,21.2,27.7,21,28.2z"/>
</g>
</svg>
