<?xml version="1.0" encoding="iso-8859-1"?>
<!-- Generator: Adobe Illustrator 25.3.0, SVG Export Plug-In . SVG Version: 6.00 Build 0)  -->
<svg version="1.1" id="Calque_1" xmlns="http://www.w3.org/2000/svg" xmlns:xlink="http://www.w3.org/1999/xlink" x="0px" y="0px"
	 viewBox="0 0 85.6 25.8" style="enable-background:new 0 0 85.6 25.8;" xml:space="preserve">
<g>
	<path d="M64.3,10.7c1.4,0.4,2.9-0.2,4.5-0.6c1.9-0.5,3.9-0.7,5.8-0.8c2.1-0.1,4.2-0.1,6.3,0c1.3,0.1,2.6,0.4,3.8,0.7
		c0.3,0.1,0.6,0.5,0.9,0.7c-0.3,0.2-0.5,0.4-0.8,0.5c-1,0.3-1.9,0.5-2.6,1.4c-0.2,0.2-0.8,0.4-1.1,0.3c-0.8-0.4-1.4,0-2.1,0.2
		c-1.5,0.3-3,0.7-4.5,1c-0.2,0-0.5,0-0.7,0.1c-0.5,0.2-1.1,0.5-1.6,0.7c0.4,0.4,0.8,0.8,1.2,1.2c0.1,0.1,0.3,0.2,0.4,0.3
		c0.1,0.2,0.2,0.4,0.2,0.6c0,0.1-0.3,0.3-0.4,0.2c-0.6-0.1-1.3-0.2-1.9-0.3c-2-0.2-3.7-0.8-5.1-2.4c-0.6-0.7-1.4-0.6-2.2-0.5
		c-0.8,0.1-1.7,0.3-2.5,0.3c-0.6,0-1.1,0.1-1.6,0.6c-0.3,0.3-0.7,0.4-1.1,0.6c-0.4,0.2-0.7,0.5-0.3,1c0.3,0.3,0.7,0.7,0.2,1
		c-0.3,0.2-0.9,0.4-1.3,0.3c-1.4-0.5-2.8-1-4.2-1.6c-1.1-0.5-2.2-0.8-3.5-0.8c-0.7,0-1.2,0.1-1.8,0.5c-0.5,0.4-1.2,0.4-1.8,0.6
		c-0.3,0.1-0.6,0-0.9,0c-1.2,0.1-1.5,0.6-1.2,1.7c0.2,0.9,0,1.2-0.8,0.9c-1.3-0.4-2.5-0.8-3.5-1.8c-0.7-0.8-1.5-1.1-2.6-0.7
		c-0.3,0.1-0.7,0.2-1.1,0.1c-1.5-0.3-2.9-0.1-4.4,0.1c-2.6,0.4-5.2,0.3-7.9,0.3c-0.7,0-1.2,0.2-1.3,0.9c-0.1,0.7-0.5,1.4-0.3,2.1
		c0.4,1.6,0.3,3.5,1.8,4.7c0.1,0.1,0.2,0.4,0.2,0.6c-0.3,0.1-0.5,0.2-0.8,0.2c-0.2,0-0.4-0.2-0.6-0.3c-2.4-1.6-4.3-3.6-5.9-5.9
		c-0.4-0.6-0.6-1.3-0.9-1.9c-0.4-0.9-1-1.1-2-1.2c-2.5-0.1-5-0.4-7.5-0.6c-0.1,0-0.3,0-0.4,0c-1.4-0.9-3.1-0.9-4.7-1.4
		c-0.8-0.2-2-0.5-2-1.5c0-1.2,1.3-1.1,2.1-1.3c3.1-0.9,6.2-1.5,9.3-2.4c2.5-0.8,5.2-1.1,7.8-1.6c1.1-0.2,2.2-0.2,3.3-0.5
		c1.7-0.4,3.2-1.2,4.4-2.5c1.6-1.7,3.3-3,5.5-3.9c0.7-0.3,1.3-0.5,2-0.6c0.7-0.1,0.8,0.2,0.6,0.8c-0.3,0.8-0.7,1.5-0.9,2.3
		c-0.2,0.5-0.2,1-0.3,1.6c-0.1,0.8,0.3,1.2,1,1.5c1.4,0.7,2.9,1.2,4.6,1.3c3.4,0.3,6.7,0.5,10,1.3C50.7,9.2,52,9,53.3,8.1
		c1.3-0.9,2.8-1.5,4.3-2.1c0.3-0.1,0.7-0.2,1-0.2c0.4,0.1,1,0.1,1.3,0.4c0.5,0.6-0.4,0.7-0.6,1.1C59.2,7.6,59,7.7,58.8,8
		c-0.4,0.7-0.2,1.2,0.5,1.6C60.6,10.4,62.1,10.7,64.3,10.7z"/>
	<path d="M16.5,13.6c0.3-0.1,0.5-0.2,0.8-0.2c0,0.2,0,0.4,0,0.7c0,0.5-0.2,0.8-0.8,0.7C16.5,14.4,16.5,14,16.5,13.6z"/>
	<path d="M5.8,11.8c0.7,0,1.7,0.6,1.5,0.9c-0.3,0.4-0.9,0.7-1.4,0.9c-0.4,0.2-1.2-0.6-1.3-1C4.6,12.2,5.1,11.8,5.8,11.8z"/>
	<path d="M12.6,15C12.7,14.8,12.7,15,12.6,15c-0.2,0.1-0.4,0.1-0.5,0c-0.6-0.4-0.6-1-0.2-1.5c0.1-0.2,0.3-0.3,0.5-0.4
		c0.1,0.2,0.2,0.3,0.2,0.5C12.6,13.9,12.6,14.3,12.6,15z"/>
	<path d="M13.8,13.9c0,0.1,0,0.2,0,0.3c0,0.3,0.4,0.7-0.2,0.8c-0.2,0-0.5-0.5-0.5-0.8c0-0.3,0.1-0.7,0.3-1c0-0.1,0.3-0.1,0.4-0.1
		c0,0,0.2,0.2,0.1,0.3C13.9,13.5,13.8,13.7,13.8,13.9z"/>
	<path d="M15.1,14.5c0,0-0.2,0.7-0.2,0.7c-0.6-0.1-0.5-0.6-0.5-1.1c0-0.1,0-0.3,0-0.3c0.1-0.2,0.3-0.4,0.5-0.6
		c0.1,0.2,0.2,0.5,0.3,0.7C15.2,13.9,15.1,14,15.1,14.5z"/>
</g>
</svg>
