<?xml version="1.0" encoding="iso-8859-1"?>
<!-- Generator: Adobe Illustrator 25.3.0, SVG Export Plug-In . SVG Version: 6.00 Build 0)  -->
<svg version="1.1" id="Calque_1" xmlns="http://www.w3.org/2000/svg" xmlns:xlink="http://www.w3.org/1999/xlink" x="0px" y="0px"
	 viewBox="0 0 83 16.5" style="enable-background:new 0 0 83 16.5;" xml:space="preserve">
<g>
	<path d="M12.2,3.6c3.2-0.1,6.7,0.4,10.2,1c2.2,0.3,4.4,0.2,6.6,0c0.9-0.1,1.7-0.7,2.5-1.3c0.8-0.6,1.5-1.5,2.3-2.2
		c0.4-0.4,0.8-0.7,1.3-0.9c0.9-0.4,1.6-0.1,2.1,0.7c0.8,1.4,1.6,2.8,3,3.6c0.1,0,0.1,0.3,0,0.4c-0.1,0.2-1.4,0.5,0.1,0.4
		c1.9,0,3.8-0.1,5.8,0c2,0.1,3.4-0.9,4.6-2.3c0.2-0.2,0.3-0.5,0.5-0.7c1-1.2,1.8-1.2,2.7,0.1c0.1,0.1,0.2,0.2,0.2,0.3
		c0.6,2.5,2.4,3.1,4.8,3c3-0.2,6-0.1,8.9-0.4c4.2-0.5,8.3-0.7,12.5-0.7c0.3,0,0.6,0,0.9,0C82.6,4.8,83,5.1,83,6.3c0,1-1,2-2.1,1.6
		c-1.4-0.5-2.4,0.1-3.6,0.5c-1.1,0.4-2.2,0.5-3.3,0.2c-0.9-0.2-1.7-0.4-2.6-0.5c-0.2,0-0.5,0.2-0.7,0.4c-0.6,0.5-1.2,0.7-2,0.6
		c-1.5-0.1-3-0.1-4.4-0.4c-1.5-0.3-2.9-0.3-4.4-0.1c-2.8,0.3-5.7,0.6-8.5,0.9c-2.8,0.4-5.7,0.4-8.5,0.8c-3.8,0.4-7.6,0.1-11.5,0.3
		c-0.5,0-1,0-1.4,0c-0.5,0-0.5,0.2-0.2,0.5c0.1,0.2,0.3,0.4,0.4,0.6c0.5,0.8,0.6,1.7,0.7,2.7c0.1,1.9-1.7,2.3-3,1.7
		c-0.9-0.5-1.7-1.1-2.2-2.1c-0.2-0.4-0.6-0.8-0.7-1.2c-0.4-1.3-1.2-1.5-2.5-1.5c-1.4,0.1-2.8,0-4.1,0c-0.7,0-1.4-0.2-2.1-0.3
		c-0.3,0-0.6,0.1-0.5,0.5c0,0.1,0.1,0.2,0.1,0.3c0.2,0.8,0.7,1.6,0.1,2.4c-0.7,1-1.5,1.9-2.6,2.3c-0.7,0.3-1.1,0-1.4-0.7
		c-0.5-1-0.7-2.1-0.7-3.3c0-2.4,0.2-1.9-2-2C6.5,10.4,3.7,9.9,1,9.4C0,9.2-0.4,7.8,0.4,7.1c2.1-1.8,4.3-3.4,7.2-3.5
		C9,3.6,10.4,3.6,12.2,3.6z"/>
	<path d="M13.8,8.2c0,0-0.1,0.5-0.3,0.7c-0.2,0.2-0.7-0.6-0.7-1.2c0-0.1,0-0.3,0.1-0.3C13,7.2,13.2,7,13.4,7c0.1,0,0.3,0.3,0.4,0.5
		C13.8,7.5,13.8,7.7,13.8,8.2z"/>
	<path d="M12.4,8.1c0,0.2,0.1,0.4,0.1,0.5c0,0.1-0.1,0.3-0.1,0.3c-0.2,0-0.4,0-0.4-0.1c-0.2-0.3-0.4-0.6-0.3-0.9
		c0-0.3,0.3-0.5,0.5-0.8c0.1,0.2,0.2,0.5,0.2,0.7C12.4,7.9,12.4,8,12.4,8.1z"/>
	<path d="M10.9,9.4C10,9.4,9.8,8.7,9.6,8C9.5,7.9,9.8,7.6,9.8,7.4c0.1,0.1,0.3,0.2,0.4,0.3C10.5,8.3,10.7,8.9,10.9,9.4L10.9,9.4z"/>
	<path d="M11.1,7.2c0.1,0.4,0.2,0.6,0.2,1c0,0.1-0.2,0.2-0.3,0.3c-0.1-0.3-0.3-0.6-0.4-1C10.7,7.5,10.9,7.4,11.1,7.2z"/>
</g>
</svg>
