<?xml version="1.0" encoding="iso-8859-1"?>
<!-- Generator: Adobe Illustrator 25.3.0, SVG Export Plug-In . SVG Version: 6.00 Build 0)  -->
<svg version="1.1" id="Calque_1" xmlns="http://www.w3.org/2000/svg" xmlns:xlink="http://www.w3.org/1999/xlink" x="0px" y="0px"
	 viewBox="0 0 87.2 18.2" style="enable-background:new 0 0 87.2 18.2;" xml:space="preserve">
<g>
	<path d="M75.7,5.8c2.4,0.3,4.8-0.9,7.2-2c1-0.5,2.1-0.9,3.2-1.1c0.7-0.1,1.3,0.3,1,0.9c-0.6,1.2-0.9,2.4-2,3.3
		c-1.3,1-1.2,1.7-0.2,3c0.7,0.9,1.3,2,1.9,3c0.2,0.3,0.1,0.9-0.1,1.1c-0.2,0.2-0.8,0.4-1.1,0.3c-0.8-0.2-1.6-0.6-2.3-0.9
		c-1.9-0.9-3.8-1.7-5.7-2.7c-1.1-0.6-2-0.3-3,0c-0.4,0.1-0.5,0.4-0.4,0.8c0.2,0.7-0.1,0.9-0.8,0.9c-1.2,0-3.2,0.9-4.1,1.7
		c-0.6,0.4-1.1,0.9-1.7,1.3c-1.1,0.8-1.7,0.8-2.6-0.2c-0.2-0.3-0.4-0.6-0.6-0.9c-0.6-0.6-1.2-1.1-2.2-1c-1.3,0.1-2.6-0.1-3.9,0.2
		c-0.8,0.2-1.7,0.1-2.6,0.2c-0.4,0-0.7,0.1-0.7,0.6c0.1,1.3-0.7,1.9-1.5,2.7c-0.1,0.1-0.3,0.2-0.4,0.3c-0.3,0.3-0.6,0.5-0.8,0.8
		c-0.3-0.4-0.7-0.8-0.9-1.2c-0.3-0.7-0.4-1.5-0.6-2.2c-0.2-0.7-0.5-1.1-1.4-1c-2,0.1-4,0.1-5.9,0c-3.4-0.1-6.7-0.4-10.1-1
		c-0.9-0.2-1.8-0.1-2.7-0.2c-1-0.2-2.1-0.5-3.1-0.6c-1.8-0.3-3.7-0.5-5.5-0.7c-0.9-0.1-1.7-0.4-2.6-0.6c-0.4-0.1-0.8-0.2-1.2-0.1
		c-0.9,0-1.8,0-2.6-0.5c-0.5-0.3-1.2-0.2-1.7-0.2c-2.5,0-4.9-0.1-7.3-0.7C6.4,9.1,6.2,9.1,6,9.1C4.2,9.3,2.5,8.8,0.8,9
		C0.4,9.1-0.1,8.8,0,8.3c0-0.2,0.5-0.6,0.7-0.6c0.8,0,1.6,0.1,2.4,0.1c1.1,0,2.3-0.2,3.4-0.2c2.7,0,5.3-0.2,8-0.3
		c0.8,0,1.5-0.2,2-0.9c0.1-0.2,0.5-0.4,0.7-0.4c0.7-0.2,1.5-0.4,2.3-0.5c1.1-0.2,2.3-0.1,3.3-0.5c1-0.3,2.2,0,3.2-0.6
		c0.1-0.1,0.3,0.1,0.5,0.1c1.5-0.1,3,0.2,4.4-0.3C31.7,3.8,32.5,4,33.2,4c2.1-0.1,4.2-0.2,6.3-0.2c0.6,0,1.3,0.2,1.9,0.2
		c2.5,0,4.9,0,7.4,0c2.5,0,5-0.1,7.5,0.1c1.4,0.1,2.7,0.3,4.1,0.3c1.2,0,2.2-0.3,2.9-1.3c0.7-0.9,1.5-1.7,2.2-2.6
		c0.5-0.6,1-0.7,1.5-0.1c1,1,2.2,1.8,3.4,2.6c1,0.6,1.7,1.4,3,1.3c0.1,0,0.3,0.4,0.3,0.7c-0.1,0.9-0.2,0.9,0.7,0.9
		C74.8,5.8,75.1,5.8,75.7,5.8z"/>
	<path d="M27.3,9.8c-0.6,0.1-1.1,0.2-1.7,0.3c-0.3,0-0.6-0.2-0.9-0.3c1.4-0.5,1.4-0.5,1.4-1.7c0-0.4,0-0.7,0-1.1
		c0,0,0.1-0.1,0.1-0.1c0.1,0.1,0.2,0.1,0.2,0.2c0,0.2,0.1,0.4,0,0.5C26.4,8.4,26.8,9.1,27.3,9.8z"/>
</g>
</svg>
