<?xml version="1.0" encoding="iso-8859-1"?>
<!-- Generator: Adobe Illustrator 25.3.0, SVG Export Plug-In . SVG Version: 6.00 Build 0)  -->
<svg version="1.1" id="Calque_1" xmlns="http://www.w3.org/2000/svg" xmlns:xlink="http://www.w3.org/1999/xlink" x="0px" y="0px"
	 viewBox="0 0 80.7 29.4" style="enable-background:new 0 0 80.7 29.4;" xml:space="preserve">
<g>
	<path d="M1.1,14.4c-0.9,0-1-0.7-1.1-1.3c0-0.2,0.3-0.5,0.6-0.5c1.6-0.4,3.1-0.8,4.7-1.1c3.2-0.5,6.4-1,9.7-1.4
		c1.7-0.2,3.4-0.3,5.2-0.4c3.1-0.2,6.2-0.5,9.3-0.6C31.6,9,33.8,9.1,36,9c2.1-0.1,4.3-0.2,6.4-0.3c0.6,0,0.8-0.3,1.1-0.7
		c1.2-1.9,2.6-3.7,4.3-5.2c0.8-0.7,1.6-1.4,2.5-2.1c1.4-1.1,2.7-0.9,3.5,0.7c0.6,1.2,1,2.4,1.5,3.6c0.4,1,0.2,2-0.7,2.7
		c-0.9,0.7-1.8,1.3-2.7,2c-0.2,0.1-0.2,0.4-0.3,0.6c0.2,0.1,0.3,0.2,0.5,0.2c1.6,0.1,3.2,0.2,4.8,0.4c1.1,0.1,2.1-0.1,3.1-0.7
		c0.5-0.3,1.1-0.4,1.6,0c0.1,0.1,0.2,0.4,0.2,0.6c-0.1,0.7-0.1,0.9,0.6,0.7c2.1-0.6,4.2-1.4,6-2.6c2.2-1.5,4.3-3.3,7-3.8
		c0.8-0.2,1.6-0.3,2.5-0.3c1.2,0.1,1.7,0.9,1.3,2c-0.9,2.1-2,4-4,5.3c-2.1,1.3-2,1.3,0,2.7c1,0.7,1.9,1.6,2.8,2.5
		c0.8,0.8,1.6,1.6,2.4,2.4c0.5,0.5,0.4,1-0.1,1.4c-1.4,1.1-3,1.8-4.8,1.1c-1.9-0.8-3.7-1.6-5.6-2.4c-1.7-0.7-3.4-1.4-5.2-1.8
		c-1.8-0.4-3.3,0.1-4.8,0.8c-0.5,0.2-0.4,0.5-0.1,0.8c0.3,0.3,0.6,0.6,0.9,0.9c0.8,0.8,1.2,1.7,0.8,2.9c-0.5,1.5,0,3,0.6,4.5
		c0.3,0.8,0.2,0.9-0.6,1c-1.9,0.2-3.5-0.4-4.7-2c-0.9-1.2-2-2.3-3-3.5c-0.6-0.7-1.2-1.1-2.2-0.9c-2.1,0.2-4.1,0.4-6.2,0.7
		c-0.7,0.1-1.4,0.1-2.1,0.3c-0.4,0.1-0.6,0.2-0.2,0.7c0.9,1.2,1.1,2.6,1,4c0,0.2,0,0.5-0.1,0.7c-0.2,0.6-0.6,0.9-1.2,0.5
		c-1.1-0.6-2.2-1.3-3.1-2.1c-0.9-0.7-1.5-1.7-2.3-2.5c-0.3-0.3-0.7-0.5-1-0.5c-0.8,0-1.5,0.3-2.3,0.3c-2.5,0.1-5-0.1-7.5-0.6
		c-3.6-0.7-7.1-1.2-10.7-1.9c-3.3-0.7-6.5-1.3-9.6-2.7c-1.9-0.9-3.6-2.1-5.4-3.2c-0.3-0.2-0.5-0.7-0.5-1C0.4,14.9,0.8,14.7,1.1,14.4
		c0.4-0.3,0.6,0.2,0.9,0.3c0.1,0,0.2,0,0.3,0c-0.2,0-0.3,0-0.5-0.1C1.6,14.5,1.4,14.2,1.1,14.4z"/>
	<path d="M9.4,15.9c-1-0.2-1.9-0.4-2.9-0.7c-0.1-0.1-0.3-0.3-0.4-0.4c-0.4-0.4-0.8-0.7-0.7-1.4c0.1-0.3,0.2-0.5,0.5-0.7
		c0.1-0.1,0.3-0.2,0.5-0.2c0.7,0.1,1.3,0.1,1.9-0.2l0,0c1-0.2,1,0.9,1.5,1.2c0,0,0,0.2-0.1,0.3C9.1,14.4,9.5,15.2,9.4,15.9z"/>
	<path d="M24,22c-1.2-0.1-2.3-0.3-3.5-0.4c-0.7-0.1-0.7-0.6-0.8-1c-0.2-0.7,0.5-0.6,0.8-0.7c0.4-0.1,0.9,0,1.4,0c1.1,0,2.1,0,3.2,0
		c0.4,0,0.8-0.1,1.2-0.1c0.3,0,0.8,0.2,0.9,0.5c0.1,0.3-0.1,0.7-0.3,0.9C26.1,22,25,22.1,24,22z"/>
	<path d="M14.8,18c0.1-1.5,0.2-3.1,0.3-4.6c0.2,0.2,0.6,0.3,0.6,0.6c0.3,1.4,0.2,2.7-0.5,3.9C15.2,18,14.9,18,14.8,18z"/>
	<path d="M5.7,13.4c-0.4-0.1-0.8-0.2-1.2-0.3c0.4-0.2,0.8-0.3,1.2-0.5c0.1,0,0.3,0.2,0.4,0.3C6,13.1,5.8,13.3,5.7,13.4z"/>
</g>
</svg>
