<?xml version="1.0" encoding="iso-8859-1"?>
<!-- Generator: Adobe Illustrator 25.3.0, SVG Export Plug-In . SVG Version: 6.00 Build 0)  -->
<svg version="1.1" id="Calque_1" xmlns="http://www.w3.org/2000/svg" xmlns:xlink="http://www.w3.org/1999/xlink" x="0px" y="0px"
	 viewBox="0 0 88.1 34.9" style="enable-background:new 0 0 88.1 34.9;" xml:space="preserve">
<g>
	<path d="M34.8,33.6c3.8-0.1,7.5-0.3,11.3-0.4c0.8,0,1.5-0.2,2.3-0.3c2.7-0.3,5.3-0.7,8-1c1.4-0.1,2.9-0.1,4.3,0
		c0.2,0,0.3,0.3,0.5,0.4c-0.2,0.1-0.3,0.3-0.5,0.3c-0.2,0.1-0.5,0-0.7,0c-2.5,0-5,0.3-7.5,0.7c-2.5,0.3-5,0.6-7.5,0.8
		c-3.3,0.3-6.6,0.4-9.8,0.7c-7.5,0.8-13.9-1.8-19.7-6.4c-0.9-0.7-1.8-1.5-2.8-2.1c-0.5-0.3-1.2-0.5-1.8-0.6c-1.4-0.1-2.8-0.1-4.1,0
		c-0.4,0-1,0.1-1.1,0.3c-0.2,0.5-0.3,1.3,0.3,1.6c0.9,0.5,1.4,1.3,1.5,2.1c0.2,1.2,0.1,2.5,0.2,3.7c0,0.1-0.1,0.2-0.2,0.2
		c-0.1,0-0.3-0.1-0.3-0.2c-0.2-0.7-0.5-1.5-0.6-2.2c-0.1-0.5,0-1,0-1.4c-0.1-0.9-0.6-1.4-1.4-1.7c-0.4-0.1-0.7,0.2-0.6,0.6
		c0,0.1,0,0.3,0.1,0.3c1.2,1.3,0.9,3.2,1.6,4.7C6.2,34.1,6,34.3,6,34.5c-0.2-0.1-0.5-0.2-0.6-0.4C5.2,33.8,5.1,33.4,5,33
		c-0.1-1.2-0.4-2.2-1.1-3.2c-0.6-0.9-1.3-1.8-1-2.9c0.1-0.4-0.1-0.7-0.5-0.8c-0.1,0-0.3,0-0.4,0c-0.6-0.3-1.6-0.2-1.8-0.9
		c-0.2-0.8-0.2-1.8-0.1-2.7c0-0.3,0.4-0.7,0.8-0.9c2-1.4,4.1-2.7,6-4.2c2.9-2.1,6.1-3.4,9.4-4.5c0.8-0.3,1.6-0.7,2.5-0.5
		c0.4,0.1,0.9-0.2,0.9-0.7c-0.1-0.9,0.8-1.4,0.9-2.2c0.1-0.8,0.4-1.5,0.7-2.2c0.3-0.8,0.8-1.5,0.9-2.3c0.3-1.5,1.3-2.5,2.1-3.7
		c0.9-1.3,2.7-1.6,4-0.8C29.2,1,30,1.7,30.5,2.5c0.8,1.2,1.4,2.6,2,4c0.3,0.6,0.4,1.3-0.2,2c-0.8,1-1.3,2.2-2.4,2.9
		c-0.2,0.1-0.4,0.5-0.3,0.6c0.2,0.2,0.4,0.4,0.7,0.4c1.8-0.1,3.5-0.3,5.3-0.5c0.1,0,0.1,0,0.2-0.1c0.9-0.2,1.9-0.1,2.6-0.5
		c0.8-0.5,1.6-0.5,2.4-0.8c0.8-0.3,1.7-0.4,2.6-0.7c1.5-0.5,3-0.5,4.5-0.3c2.5,0.3,5,0.8,7.4,2c1.4,0.7,2.2,1.6,2.1,3.2
		c0,0.6,0.3,0.8,0.8,0.8c1,0,1.9,0,2.9,0c0.5,0,1.1,0,1.6,0.2c0.8,0.3,1.5,0,2.2-0.4c1.8-1,3.7-2,5.7-2.6c2.6-0.8,5.2-1.7,7.9-2.3
		c2.3-0.5,4.7-1,7.1-0.4c0.6,0.2,1.3,0,2,0.1c0.2,0,0.5,0.3,0.7,0.5c-0.2,0.2-0.3,0.5-0.6,0.6c-1.1,0.5-2.3,0.9-3.4,1.6
		c-1.1,0.7-2.1,1.6-3,2.5c-1.7,1.6-3.6,2.8-5.6,3.9c-1.2,0.6-2.5,1.1-3.7,1.7c-0.7,0.3-0.7,0.7-0.1,1.1c1.7,1.1,3,2.5,4.2,4.1
		c1.2,1.5,2,3.2,2.4,5.1c0.2,0.8,0,1-0.9,1c-1.4,0-2.7-0.5-4-1c-2.4-1-4.9-2-7.2-3.2c-1.7-0.9-3.3-2.1-4.9-3.2
		c-0.8-0.6-1.7-1-2.7-1.2c-1.1-0.2-2.2-0.9-3.3-1.4c-0.7-0.3-1.4-1-2.2-0.6c-1.2,0.6-2.5,1.1-3.1,2.5c-0.2,0.6-0.5,1.2-0.8,1.8
		c-0.6,1.1-1.2,1.2-2.3,0.6c-1.6-0.9-3-2-4.1-3.4c-0.6-0.9-1.3-0.9-2.2-0.8c-0.9,0.2-1.7,0.4-2.6,0.6c-1.6,0.4-3.1,1-4.7,0.8
		c-0.3,0-0.5,0.1-0.2,0.4c0.3,0.3,0.5,0.7,0.9,0.9c0.9,0.6,1,1.8,1.4,2.6c0.2,0.4-0.2,1.2-0.5,1.8c-0.4,0.7-0.9,1.2-1.5,1.8
		c-0.3,0.3-0.7,0.4-1.1,0.1c-1.7-1.3-3.3-2.7-4-4.9c-0.1-0.4-0.4-0.8-0.5-1.1c-0.2-0.5-0.6-0.6-1-0.5c-3.7,0.7-7.5,0.3-11.3,0.3
		c-0.1,0-0.1,0-0.2,0c-0.3,0.1-0.6,0.3-0.9,0.4c0.2,0.2,0.3,0.5,0.5,0.7c1.8,1.3,3.7,2.6,5.6,3.9c2.1,1.4,4.5,2,6.9,2.6
		C29.8,33.6,32.3,33.8,34.8,33.6z"/>
	<path d="M19.7,23.6c-1.4,0-2.6-0.3-3.7-1.1c-0.7-0.5-0.6-1,0.1-1.4c3.1-1.6,6.3-3.1,9.8-3.9c0.8-0.2,1.8-0.1,2.7,0
		c0.2,0,0.4,0.3,0.5,0.5c0,0.1-0.2,0.3-0.3,0.4c-1.4,1.2-2.9,2.5-4.3,3.7C23,22.9,21.6,23.7,19.7,23.6z"/>
	<path d="M17.4,16.6c1-0.1,2-0.1,3.1-0.2c0.1,0,0.3,0.2,0.4,0.2c-0.1,0.2-0.3,0.5-0.4,0.5c-1-0.6-2,0.8-3,0.1
		c-0.5,0.8-1.4,0.2-2,0.5c-0.4,0.3-0.7,0-0.9-0.2c-0.3-0.2-0.2-0.7,0.2-0.7c0.8-0.2,1.7-0.3,2.6-0.4C17.4,16.5,17.4,16.6,17.4,16.6z
		"/>
	<path d="M26.5,16.7c-0.5,0-1.1,0-1.6,0c-0.2,0-0.3-0.2-0.5-0.3c0.1-0.1,0.2-0.4,0.4-0.3c1.2,0.1,2.4,0.1,3.6,0.2
		c0.1,0,0.2,0.1,0.2,0.2c-0.1,0-0.2,0.1-0.3,0.1C27.7,16.7,27.1,16.7,26.5,16.7C26.5,16.7,26.5,16.7,26.5,16.7z"/>
	<path d="M32.9,17.1c-0.5-0.1-1.1-0.3-1.7-0.4c-0.6-0.1-1.2-0.2-1.8-0.2c0.6,0,1.3-0.1,1.9-0.1c0.7,0,1.4-0.1,2.1-0.1
		c0.2,0,0.4,0.2,0.6,0.3c-0.1,0.2-0.2,0.4-0.4,0.5C33.5,17,33.2,17,32.9,17.1z"/>
	<path d="M36.3,16.9c0,0-0.1,0-0.3,0c-0.1,0-0.2-0.2-0.2-0.2c0-0.1,0.1-0.2,0.2-0.3c1.2-0.4,2.4-0.1,3.6-0.1c0,0,0.1,0.1,0.1,0.1
		c-0.1,0.1-0.1,0.2-0.2,0.2C38.5,16.8,37.5,16.8,36.3,16.9z"/>
	<path d="M22.3,17.1c-0.1,0-0.2,0-0.3,0c-0.2-0.2-0.4-0.3-0.6-0.5c0.3-0.1,0.7-0.4,0.7-0.3c0.5,0.7,0.8-0.2,1.1-0.1
		c0.2,0,0.4,0.2,0.4,0.4c0,0.1-0.1,0.4-0.2,0.4C23.2,17,22.8,17,22.3,17.1z"/>
	<path d="M47.8,16.4c0.2,0,0.5-0.1,0.7,0c0.3,0.1,0.5,0.3,0.7,0.4c-0.2,0-0.5,0.1-0.7,0.1c-0.2,0-0.4-0.1-0.7-0.2
		c-0.3-0.1-0.7-0.2-1-0.3C47.1,16.4,47.4,16.4,47.8,16.4C47.8,16.3,47.8,16.3,47.8,16.4z"/>
	<path d="M55.1,18.1c-0.8-0.1-1.6-0.2-2.4-0.4c-0.1,0-0.1-0.1-0.2-0.2c0,0,0.1-0.1,0.1-0.1C53.5,17.6,54.4,17.4,55.1,18.1
		C55.1,18.1,55.1,18.1,55.1,18.1z"/>
	<path d="M55.1,18.1c0.1,0,0.1,0,0.2,0c0.7,0.2,1.4,0.4,2.1,0.5c0,0-0.1,0.1-0.1,0.1C56.5,18.9,55.7,18.9,55.1,18.1L55.1,18.1z"/>
	<path d="M59.8,19.6c-0.6-0.1-1-0.1-1.4-0.2c-0.1,0-0.2-0.2-0.3-0.3c0.1-0.1,0.3-0.2,0.4-0.2c0.4,0.1,0.8,0.2,1.2,0.3
		c0.2,0.1,0.4,0.2,0.6,0.3C60.1,19.5,59.9,19.6,59.8,19.6z"/>
	<path d="M46.1,16.5c-0.1,0.2-0.2,0.4-0.2,0.4c-0.4-0.1-0.7-0.3-1-0.4c0.1-0.1,0.1-0.3,0.2-0.3C45.4,16.3,45.7,16.4,46.1,16.5z"/>
	<path d="M41.9,16.5c-0.1,0.1-0.1,0.2-0.2,0.2c-0.4,0.1-0.8,0.1-1.2,0.2c0,0-0.1-0.2-0.1-0.3c0.4-0.1,0.7-0.1,1.1-0.2
		C41.7,16.4,41.8,16.4,41.9,16.5z"/>
	<path d="M61.4,20.2c-0.1-0.1-0.3-0.3-0.4-0.4c0.2-0.1,0.4-0.2,0.6-0.2c0.2,0,0.4,0.2,0.6,0.3C62,20,61.8,20.1,61.4,20.2z"/>
</g>
</svg>
