<?xml version="1.0" encoding="iso-8859-1"?>
<!-- Generator: Adobe Illustrator 25.3.0, SVG Export Plug-In . SVG Version: 6.00 Build 0)  -->
<svg version="1.1" id="Calque_1" xmlns="http://www.w3.org/2000/svg" xmlns:xlink="http://www.w3.org/1999/xlink" x="0px" y="0px"
	 viewBox="0 0 82.8 29.8" style="enable-background:new 0 0 82.8 29.8;" xml:space="preserve">
<g>
	<path d="M30.3,1.8c1.9,0,3.8,0,5.8,0c2.8,0,5.5-0.6,8.3-0.9c2.6-0.3,5.2-0.6,7.8-0.9c1.1-0.1,2.3,0,3.4,0c1.9,0,3.7,0.2,5.5,0.6
		c0.5,0.1,1.1,0.1,1.6,0.1c1.6-0.1,3.2,0.3,4.7,0.7C69,1.8,70.5,2.1,72,2.7c2.5,0.9,4.6,2.2,6.6,3.8c1.3,1,2.1,2.5,2.8,4
		c1,2.2,1.3,4.4,1.3,6.7c0,3-1,5.7-3.1,7.9c-1.3,1.5-2.8,2.9-4.7,3.5c-1.8,0.6-3.6,1.3-5.7,1.3c-1.6-0.1-3.2,0.1-4.7-0.7
		c-0.2-0.1-0.6,0-0.9,0c-0.9-0.1-1.9-0.2-2.8-0.5c-3.3-0.9-6.6-1.9-9.9-2.7c-3.6-0.8-7.2-1.5-10.8-2.2c-1.3-0.2-2.6-0.3-3.9-0.4
		c-1.2-0.1-2.5-0.2-3.7-0.4c-0.3,0-0.5-0.2-0.8-0.3c-0.3-0.1-0.5-0.3-0.8-0.2c-2.1,0.1-4.3,0.1-6.4,0.2c-0.4,0-0.8-0.1-1.2-0.1
		c-0.3,0-0.7-0.2-0.9-0.1c-1.4,1.1-3.1,0.7-4.7,0.9c-2.7,0.4-5.3,1-7.9,1.9c-2.4,0.8-4.8,1.3-7.4,1.1c-0.7,0-1.4-0.2-2.1-0.5
		C0,25.5-0.2,25,0.2,24.6c0.5-0.5,1-1.1,1.6-1.3c3.8-1.5,7.7-2.7,11.7-3.7c2.9-0.8,5.9-0.8,8.7-1.6c0.4-0.1,0.8,0,1.3,0
		c1.8,0,3.6,0.1,5.4,0c2.5-0.1,5,0.3,7.4,0.6c3.3,0.4,6.6,0.9,9.8,1.5c3.8,0.8,7.6,1.8,11.4,2.8c2.9,0.8,5.8,1.8,8.8,2.4
		c2.5,0.5,5.2,0.5,7.5-0.8c2.6-1.5,4.2-3.6,4.2-6.7c0-1.2,0-2.4-0.3-3.5c-0.6-2.8-2.6-4.6-4.9-6.1c-2.2-1.5-4.9-1.7-7.3-2.6
		c-0.8-0.3-1.7-0.1-2.5-0.1c-2.6-0.2-5.2-0.5-7.8-0.6c-1.6,0-3.2,0.2-4.8,0.4c-1,0.1-2,0.3-3,0.2c-2-0.1-4,0.3-6,0.6
		c-1.3,0.2-2.6,0.2-3.9,0.2c-3.8,0-7.7-0.1-11.5,0c-2.3,0-4.6,0.3-7,0.4c-0.5,0-1,0-1.4,0c-0.1,0-0.3-0.2-0.3-0.3
		c0-0.1,0.1-0.3,0.2-0.4c0.3-0.2,0.6-0.3,1-0.5c0.1-0.1,0.2-0.3,0.3-0.4c-0.2,0-0.3-0.1-0.5-0.1c-0.3-0.1-0.6-0.1-0.8-0.3
		c-0.5-0.4-0.4-1.1,0.1-1.3c1.8-0.4,3.4-1.6,5.5-1.4C25.5,2,27.9,1.8,30.3,1.8z"/>
</g>
</svg>
