<?xml version="1.0" encoding="iso-8859-1"?>
<!-- Generator: Adobe Illustrator 25.3.0, SVG Export Plug-In . SVG Version: 6.00 Build 0)  -->
<svg version="1.1" id="Calque_1" xmlns="http://www.w3.org/2000/svg" xmlns:xlink="http://www.w3.org/1999/xlink" x="0px" y="0px"
	 viewBox="0 0 85.5 28.7" style="enable-background:new 0 0 85.5 28.7;" xml:space="preserve">
<g>
	<path d="M85.5,10.2c0,0.7,0,1.4,0,2.1c0,0.5-0.2,1-0.3,1.5c-0.2,0.6-0.7,0.9-1.4,0.7c-0.9-0.2-1.8-0.6-2.6-0.5
		c-1.1,0.1-0.7,1.5-1.2,2.2c-0.7,1-1.1,2.3-1.5,3.6c-0.5,1.5-0.9,1.8-2.4,1.7c-1.5-0.1-2.7-0.8-3.9-1.6c-1.1-0.7-2.3-1.5-3.6-2
		c-0.8-0.3-1.7-0.2-2.6-0.3c-0.1,0-0.2,0-0.4,0.1c0.1,0.1,0.2,0.2,0.3,0.2c0.8,0.4,1,1.2,1.3,1.9c0.3,0.8-0.1,1.5-0.4,2.2
		c-0.2,0.5-0.9,0.5-1.6,0.1c-0.9-0.5-1.8-1.2-2.8-1.6c-2.4-1-5-1.6-7.6-1.5c-2,0.1-4,0-5.9,0c-1.3,0-2.6-0.2-3.9-0.3
		c-0.2,0-0.4,0.1-0.5,0.1c0.2,0.2,0.3,0.4,0.5,0.5c0.3,0.1,0.6,0.2,0.8,0.3c1.4,0.5,1.8,1.1,1.3,2.3c-0.6,1.7-1.6,3.2-3,4.3
		c-0.4,0.4-0.7,0.2-1-0.2c-1.2-1.9-2.8-3.4-4.8-4.4c-0.3-0.1-0.5-0.3-0.8-0.3c-1.5,0-3.1-0.2-4.6,0.3c-0.6,0.2-0.8,0.2-0.5,0.9
		c0.8,1.7,0.6,3.3-0.3,4.9c-0.9,1.6-1.8,1.8-3.4,0.8c-3.9-2.3-7.7-4.7-11.7-6.9c-1.1-0.6-2.5-0.7-3.8-0.8c-2.8-0.2-5.6-0.3-8.4-0.4
		c-1.4-0.1-2.6-0.9-3.8-1.6c-0.8-0.5-0.9-1.6-0.3-2.3c1.2-1.4,2.5-2.7,3.8-4c1.1-1.1,2.7-1.5,4.2-1.8c1.5-0.3,2.9-0.5,4.4-0.8
		c2-0.3,4-0.7,6-1c2-0.3,3.8-0.9,5.2-2.5c0.7-0.8,1.5-1.7,2.2-2.5c0.2-0.2,0.3-0.5,0.5-0.5c1.1,0,1.4-0.9,2.1-1.4
		c0.8-0.5,1.5-1.2,2.4-1.5c1.2-0.5,2.9,0.2,3.3,1.3c0.2,0.5,0.2,1.1,0.1,1.5c-0.1,0.6-0.4,1.2-0.7,1.8c-0.5,1-0.5,2.1,0,3.1
		c0.2,0.4,0.5,0.9-0.2,1.1c-0.5,0.1-0.3,0.2,0,0.2c4.1,0.8,8.3,1.7,12.4,2.5c0.9,0.2,1.8-0.1,2.6-0.6c1.2-0.8,2.4-1.8,3.5-2.7
		c0.6-0.5,1-1.2,2.1-1c0.6,0.1,1.3-0.5,2-0.7c1.1-0.3,2-0.1,2.5,0.7c0.6,0.8,0.3,1.6-0.1,2.3c-0.1,0.2-0.2,0.4-0.4,0.6
		c-0.5,0.6-0.6,1.3-0.3,2c0.1,0.3,0.2,0.6,0.2,0.8c0,0.3-0.1,0.4,0.3,0.4c2.1,0.1,4.3,0.3,6.4,0.4c2,0.1,3.9-0.3,5.7-1.3
		c3.7-1.9,7.5-3.7,11.2-5.6c0.4-0.2,0.7-0.4,1.1-0.5c1.5-0.4,2.5-0.2,2.4,1.7C85.4,8.9,85.5,9.6,85.5,10.2z"/>
	<path d="M81.9,10.4c0.4,0.1,0.9,0.1,1.4,0.3c0.2,0.1,0.2,0.5,0.3,0.7c-0.2,0.1-0.4,0.1-0.5,0.2c-0.2,0.1-0.4,0.1-0.7,0.1
		c-0.3,0-0.7,0-1,0c0.3-0.1,0.5-0.3,0.8-0.4c0.2-0.1,0.3-0.3,0.5-0.4c-0.2,0-0.5-0.1-0.7-0.1c-1.3,0.2-2.5,0.4-3.8,0.6
		c-0.3,0-0.6-0.1-0.8-0.1c0.2-0.2,0.5-0.4,0.7-0.4C79.2,10.7,80.5,10.6,81.9,10.4z"/>
	<path d="M17.5,17.4c-0.1,0-0.3,0.2-0.4,0.1c-0.3-0.1-0.4-0.1-0.4,0.2c-0.1,0.4-0.4,0.5-0.5,0.1c-0.2-0.5-0.3-1.2-0.2-1.7
		c0.1-0.3,0.7-0.4,1.1-0.6c0.1,0.2,0.3,0.5,0.3,0.7C17.5,16.6,17.5,16.9,17.5,17.4z"/>
	<path d="M12.7,17.2c0.1-0.2,0.1-0.4,0.2-0.6c0.1-0.2,0.3-0.7,0.4-0.7c0.6,0.1,0.1,0.5,0.2,0.8c0.1,0.6,0.2,1.2,0.3,1.9
		c0,0.2,0,0.5-0.1,0.7c-0.2-0.2-0.5-0.3-0.6-0.5C12.9,18.3,12.9,17.8,12.7,17.2z"/>
	<path d="M14.1,17.5c0-0.5,0-0.7,0.1-0.8c0.1-0.2,0.3-0.5,0.5-0.7c0.1,0.2,0.2,0.4,0.3,0.7c0.1,0.6,0.2,1.2,0.3,1.9
		c0,0.1-0.1,0.3-0.1,0.3c-0.1,0-0.3,0-0.3-0.1C14.4,18.2,14.2,17.7,14.1,17.5z"/>
	<path d="M5.8,13.9c-0.3-0.2-0.5-0.4-0.7-0.6c0.2-0.1,0.3-0.4,0.5-0.4c0.4,0,0.8,0,1.1,0.1c0,0,0.1,0.3,0.1,0.3
		C6.5,13.5,6.2,13.6,5.8,13.9z"/>
	<path d="M18.5,16.4c0,0.1-0.1,0.4-0.3,0.7c-0.2-0.3-0.4-0.6-0.5-1c-0.1-0.1,0-0.4,0.1-0.5c0.1-0.1,0.2-0.2,0.4-0.3
		c0.1,0.1,0.2,0.2,0.2,0.4C18.5,15.8,18.5,16,18.5,16.4z"/>
</g>
</svg>
