<?xml version="1.0" encoding="iso-8859-1"?>
<!-- Generator: Adobe Illustrator 25.3.0, SVG Export Plug-In . SVG Version: 6.00 Build 0)  -->
<svg version="1.1" id="Calque_1" xmlns="http://www.w3.org/2000/svg" xmlns:xlink="http://www.w3.org/1999/xlink" x="0px" y="0px"
	 viewBox="0 0 83.8 33.6" style="enable-background:new 0 0 83.8 33.6;" xml:space="preserve">
<g>
	<path d="M29.1,4.8c0-1.2,0.9-1.6,1.8-2c2.1-0.9,2.5-0.7,3.1,1.5c0.4,1.3,0.4,2.6-0.6,3.7c-0.2,0.2-0.5,0.4-0.7,0.7
		c0.4,0,0.7,0,1.1,0c2.2,0,4.3,0,6.5,0c2.3,0,4.6,0.3,6.9,0.7c2.3,0.4,4.7,0.5,7.1,0.8c1.5,0.2,3,0.4,4.6,0.6
		c1.5,0.2,3.1,0.3,4.6,0.4c2.9,0.2,5.7,0.3,8.6,0.4c1.7,0.1,3.4-0.1,5.1-0.6c0.9-0.3,1.9-0.4,2.8-0.5c1.3-0.1,3.6,1.3,3.9,2.4
		c0.4,1.4-0.1,3.7-1.9,4.6c-1.1,0.5-2.2,0.7-3.5,0.4c-1.3-0.3-2.7-0.6-4-0.9c-0.1,0-0.3,0.1-0.5,0.1c0.1,0.1,0.1,0.2,0.2,0.3
		c0.3,0.3,0.7,0.7,1,1c0.8,1,0.5,1.8-0.6,2.1c-0.5,0.1-0.9,0.3-1.4,0.3c-1.9,0.1-3.8,0.2-5.7,0.4c-1.5,0.2-3.1,0.5-4.5,0.9
		c-2.1,0.6-4.3,1-6.5,1.3c-1.9,0.2-3.7,0.6-5.6,0.9c-0.4,0.1-0.8,0.1-1.2,0.1c-2.5,0-4.9,0-7.4,0c-1.4,0-2.6-0.5-3.6-1.4
		c-0.8-0.8-1.6-1.6-2.4-2.4c-0.4-0.4-0.7-0.6-1.3-0.4c-0.5,0.2-0.3,0.7-0.3,1.1c0,1.1-0.9,1.9-2,1.6c-0.9-0.2-1.7-0.6-2.3-1.3
		c-1.1-1.6-2.6-2.1-4.5-1.8c-0.8,0.1-1.6,0-2.3,0c-0.4,0-0.4,0.2-0.2,0.4c0.1,0.1,0.2,0.2,0.2,0.3c0.4,0.4,0.7,0.9,0.3,1.4
		c-0.5,0.6-1.1,0.4-1.6,0.1c-1-0.6-2.2-1.1-3.1-1.8c-0.9-0.8-2-1.1-3.1-1.3c-1.8-0.4-3.7-0.7-5.6-1.1c-0.1,0-0.2,0-0.3,0
		c0.1,0.1,0.1,0.3,0.2,0.4c0.7,0.5,1.5,1,2.2,1.5c0.1,0,0.1,0.2,0.1,0.3c-0.1,0.1-0.2,0.1-0.3,0.1c-1-0.6-2.1-1.2-3.1-1.8
		c-0.2-0.1-0.4-0.1-0.6-0.1c0,0.2-0.1,0.5,0,0.7c0.4,1,0.5,2.1,1.7,2.6c0.1,0,0,0.5,0,0.5c-0.4,0.1-0.6,0.2-0.4,0.7
		c0.4,1.2,0.7,2.4,1.1,3.5c0,0.1,0,0.2-0.1,0.3c-0.1,0-0.2,0-0.3-0.1c-0.1-0.3-0.3-0.5-0.4-0.8c-0.3-1.4-1.1-2.5-1.3-4
		C8.8,20.7,8,19.9,7.5,19c-0.1-0.1-0.2-0.3-0.3-0.4c0,0.2-0.1,0.3-0.1,0.5C7,22,7,24.8,8.4,27.4c0.1,0.2,0.1,0.3,0.2,0.5
		C8.7,28.6,9.3,29.2,9,30c-0.4-0.6-0.8-1.2-1.1-1.8c-0.7-1.7-1.3-3.4-1.3-5.3c0-1.2-0.2-2.5-0.4-3.7C6.3,19.1,6.1,19,6,19
		c-0.2,0-0.4,0.1-0.4,0.2c-0.2,1-0.4,2-0.6,3c-0.1,1-0.3,2-0.3,3c0.1,1.5,0.3,2.9,0.5,4.4c0.1,0.8,0.3,1.6,0.5,2.4
		c0,0.1-0.1,0.3-0.1,0.5c-0.1-0.1-0.2-0.2-0.3-0.3c-0.6-1.8-1.1-3.6-1.1-5.5c0.1-1.8-0.3-3.7,0.3-5.5c0-0.1,0-0.2-0.1-0.3
		c-0.1,0.1-0.2,0.2-0.3,0.3c-1,1.4-1.5,2.9-2.1,4.5c-0.9,2.5-1,5.1-1.5,7.6c0,0.2-0.3,0.3-0.4,0.4c0-0.2-0.1-0.3-0.1-0.5
		c0.2-2.3,0.5-4.6,1.2-6.9C1.8,23.8,3,21.7,4,19.5C4.2,19,4.5,18.4,4.8,18c0.5-0.6,0.5-1.3,0.3-2c-0.4-1-0.5-2,0.5-2.7
		c0.6-0.5,0.1-0.9-0.2-1.2c-1.6-1.7-2.6-3.7-3.6-5.7C1.3,5.3,1,4.2,0.6,3.1c-0.1-0.3,0.1-0.7,0.1-1C0.9,2.4,1,2.6,1.1,2.9
		c0.8,2.2,1.6,4.3,3,6.2c0.3,0.5,0.7,1,1,1.4c0.3,0.4,0.4,1.1,1.1,1.1c-0.1-0.6-0.2-1.1-0.4-1.7C4.8,7.4,4.2,4.6,3.8,1.8
		c-0.1-0.4,0-0.8,0-1.2C3.8,0.4,3.9,0.2,4,0c0.1,0.2,0.2,0.3,0.2,0.5C4.6,2.3,4.9,4.2,5.4,6c0.4,1.7,1,3.3,1.6,4.9
		c0.5,1.3,1.1,1.6,2.5,1.3c2.8-0.7,5.6-1.4,8.5-1.9c2.5-0.4,5-0.6,7.4-0.8c1.4-0.1,1.5-0.2,1.9-1.6C27.5,6.7,27.5,5.3,29.1,4.8
		c0.6,0.5,0.3,1.1,0.2,1.7c-0.2,1.1,0.3,1.6,1.4,1.2c0.7-0.2,1.1-0.6,1.4-1.3c0.2-0.5,0.3-1-0.1-1.5c-0.4-0.4-0.9-0.4-1.3-0.2
		C30.2,4.9,29.6,5.3,29.1,4.8z"/>
	<path d="M9.1,13.4c0.5,0,0.9,0.5,0.8,1.1c-0.1,0.6-0.5,0.9-1,0.8c-0.5,0-0.9-0.3-0.9-0.9C8.2,13.8,8.6,13.4,9.1,13.4z"/>
</g>
</svg>
