<?xml version="1.0" encoding="iso-8859-1"?>
<!-- Generator: Adobe Illustrator 25.3.0, SVG Export Plug-In . SVG Version: 6.00 Build 0)  -->
<svg version="1.1" id="Calque_1" xmlns="http://www.w3.org/2000/svg" xmlns:xlink="http://www.w3.org/1999/xlink" x="0px" y="0px"
	 viewBox="0 0 83.5 20.1" style="enable-background:new 0 0 83.5 20.1;" xml:space="preserve">
<g>
	<path d="M27.8,2.4c3.7,0.2,6.9,0.3,10.1,0.5C39.5,3,41,3.3,42.5,3.5c1.2,0.2,2.3,0.1,3.2-1c0.5-0.7,1.2-1.3,1.9-1.9
		c1.3-1,2.1-0.7,2.7,0.8c0.2,0.6,0.4,1.3,0.8,1.7c0.7,0.8,1.5,1.1,2.6,1.2c1.8,0.1,3.4-0.3,5.1-0.8c2.9-0.9,5.8-1.1,8.8-1.5
		c3.8-0.5,7.7-0.2,11.5-0.3c1.2,0,2.3,0.4,3.5,0.6c0.6,0.1,1,0.4,0.9,0.9c0,0.3-0.5,0.6-0.8,0.7c-0.8,0.4-1.6,0.7-2.4,1.2
		c-0.6,0.4-1.1,0.8-1.8,0.3c-0.1-0.1-0.4,0-0.5,0C74.1,6.8,70.3,8,66.5,9.3c-1.8,0.6-3.3,1.5-4.5,3.1c-0.9,1.2-1.6,1.2-2.6,0.1
		c-0.8-0.9-1.5-1.8-2.3-2.8c-1.1-1.4-2-1.4-3.2-0.2c-0.4,0.4-0.8,0.8-1.1,1.1c-1.2,1.2-1.7,1.2-3.2,0.5c-0.5-0.2-0.9-0.6-1.4-0.8
		c-1.2-0.6-1.8-0.5-2.7,0.4c-0.7,0.7-1.3,1.4-2.1,2c-1.5,1.1-2.1,1.7-4.1,0.3c-0.3-0.2-0.7-0.3-0.9-0.6c-0.5-0.7-1.3-0.7-2-0.5
		c-2.7,0.8-5.4,0.5-8.2,0.9c-1.1,0.2-1.5,0.5-2.1,1.4c-0.8,1.3-1.7,2.4-2.6,3.6c-0.4,0.6-0.8,1.2-1.3,1.7c-0.8,0.8-1.5,0.9-2.3,0
		c-1.1-1.1-1.7-2.6-2.1-4c-0.3-1-0.5-2-0.7-3.1c-0.1-0.6-0.4-0.8-1-0.8c-0.9,0-1.8-0.1-2.7,0c-1.7,0.1-3.3-0.1-5-0.6
		c-0.3-0.1-0.7-0.1-1.1-0.1c-1.1-0.1-2.2-0.1-3-1.2C4.1,9.2,3.3,9.2,2.8,9C2,8.7,1.2,8.4,0.5,8c-0.6-0.4-0.6-0.9,0-1.2
		c1-0.6,2.1-1.1,3.2-1.4c2.2-0.6,4.5-0.9,6.8-1.1c2.1-0.2,4.1-0.6,6.2-0.9C18,3.1,19.3,3,20.6,2.9C23.2,2.7,25.7,2.5,27.8,2.4z"/>
	<path d="M45.7,6.8c-2,0-3.9,0-5.9,0c-0.3,0-0.6-0.1-0.9-0.2c0.3-0.1,0.5-0.2,0.8-0.2c4.1,0,8.2,0,12.4,0c0.3,0,0.5,0.1,0.8,0.2
		c-0.2,0-0.5,0.1-0.7,0.1C50,6.8,47.9,6.8,45.7,6.8C45.7,6.8,45.7,6.8,45.7,6.8z"/>
	<path d="M5.7,5.9c0.5,0.2,0.8,0.2,1,0.4c0.3,0.2,0.5,0.5,0.2,0.9C6.8,7.3,6.7,7.5,6.5,7.6C5.9,8.1,5,8,4.4,7.5
		C4.3,7.3,4.1,6.9,4.2,6.9C4.7,6.5,5.2,6.2,5.7,5.9z"/>
	<path d="M63.2,7.5c0,0-0.1,0-0.2,0c-0.8-0.2-1.6-0.3-2.4-0.5c0.8-0.1,1.5-0.1,2.3-0.2c0.4-0.1,0.8-0.2,1.2-0.4
		c0.6-0.3,1.2-0.4,1.9,0c0.2,0.1,0.4,0.2,0.6,0.3c-0.2,0.1-0.4,0.1-0.6,0.2C65.1,7.1,64.2,7.3,63.2,7.5z"/>
	<path d="M24.8,5.4c1.1,0,2.3,0,3.4,0c0.2,0,0.3,0.1,0.5,0.1c-0.1,0.1-0.3,0.2-0.4,0.2c-2.4,0-4.9,0-7.3,0c-0.1,0-0.3-0.1-0.4-0.2
		c0.2-0.1,0.3-0.2,0.5-0.2C22.3,5.4,23.6,5.4,24.8,5.4C24.8,5.4,24.8,5.4,24.8,5.4z"/>
	<path d="M17.9,5.4c-0.5,0-1.1,0-1.6,0C16,5.3,15.6,5,15.6,5c0.2-0.6,0.5,0,0.8,0c1,0,1.9,0,2.9,0c0.2,0,0.3,0.1,0.5,0.1
		c-0.2,0.1-0.4,0.2-0.6,0.2C18.7,5.4,18.3,5.4,17.9,5.4C17.9,5.4,17.9,5.4,17.9,5.4z"/>
	<path d="M55.9,6.5c-0.6,0-1.2,0-1.8,0c-0.1,0-0.3-0.1-0.4-0.2c0.1,0,0.2-0.1,0.3-0.1c1.3,0,2.6,0,3.9,0c0.1,0,0.2,0.1,0.3,0.1
		c-0.1,0.1-0.2,0.2-0.4,0.2C57.3,6.5,56.6,6.5,55.9,6.5C55.9,6.5,55.9,6.5,55.9,6.5z"/>
	<path d="M34,6.1c-1.3,0-2.6,0-4,0c-0.2,0-0.3-0.1-0.5-0.2c0.1-0.1,0.2-0.2,0.3-0.2c1.4,0.1,2.7,0.1,4.1,0.2C34,6,34,6.1,34,6.1
		L34,6.1z"/>
	<path d="M34,6.1c1.3,0,2.5,0,3.8,0c0.1,0,0.2,0.1,0.3,0.1c-0.1,0.1-0.2,0.2-0.3,0.2C36.6,6.3,35.3,6.9,34,6.1L34,6.1z"/>
	<path d="M42.3,9.6c0.2,0,0.5,0,0.6,0.1c0.2,0.1,0.3,0.4,0.3,0.5c-0.2,0.2-0.4,0.4-0.6,0.5c0-0.7-0.6-0.6-1-0.7
		c0.1-0.1,0.1-0.3,0.2-0.3C41.9,9.6,42.1,9.7,42.3,9.6z"/>
	<path d="M60.3,8.2c-0.3,0-0.6,0-0.9,0c-0.1,0-0.2-0.1-0.3-0.2c0.1-0.1,0.2-0.1,0.3-0.1c0.3,0,0.6,0,0.9,0c0.4,0,0.8,0.1,1.2,0.1
		c-0.4,0.1-0.8,0.2-1.2,0.3C60.3,8.3,60.3,8.3,60.3,8.2z"/>
</g>
</svg>
