<?xml version="1.0" encoding="iso-8859-1"?>
<!-- Generator: Adobe Illustrator 25.3.0, SVG Export Plug-In . SVG Version: 6.00 Build 0)  -->
<svg version="1.1" id="Calque_1" xmlns="http://www.w3.org/2000/svg" xmlns:xlink="http://www.w3.org/1999/xlink" x="0px" y="0px"
	 viewBox="0 0 77.9 34" style="enable-background:new 0 0 77.9 34;" xml:space="preserve">
<g>
	<path d="M46.4,27.7c-0.7-0.1-2.2-0.2-3.6-0.4c-1.5-0.2-2.8-0.9-3.9-2c-0.3-0.3-0.7-0.5-1-0.5c-1.7,0-3.4-0.1-5,0
		c-0.6,0-1.3,0.3-1.9,0.5c-0.2,0.1-0.4,0.2-0.4,0.3c0.2,1.3-1,0.9-1.6,1.4c-0.3,0.3-0.6,0.7-0.9,1c-0.1,0.1-0.1,0.4,0,0.6
		c0.4,1.8-0.3,3.4-0.7,5.1c-0.1,0.5-0.6,0.3-0.8,0.1c-1.1-1.2-2.3-2.4-3.4-3.7c-0.8-1-1.4-2.2-3.1-1.8c-0.2,0-0.5-0.1-0.6-0.3
		c-1.7-1.4-3.8-2.2-5-4.1c-0.3-0.4-0.6-0.5-1-0.5c-1.6-0.2-3.3-0.4-4.9-0.7c-2.4-0.5-4.8-1.3-7-2.5C1.3,20.1,1.2,20,1,19.9
		c-0.3-0.4-0.9-0.9-0.9-1.2C0.3,18,1,18.3,1.5,18.3c0.2,0,0.3-0.1,0.5-0.1c-0.1-0.1-0.2-0.3-0.3-0.4c-0.4-0.3-0.9-0.6-1.3-1
		c-0.6-0.6-0.5-1,0-1.5c0.5-0.5,1-0.9,1.5-1.5c1.2-1.5,2.9-2.3,4.5-3.2C7.4,10,8,9.3,8.3,8.2c0.2-0.7,0.4-0.8,0.9-0.3
		c0.5,0.5,0.9,0.4,1.5,0.2c2.4-0.7,4.8-1.4,7.2-2.1C18.3,6,18.7,5.9,19,5.6c1.3-1.3,2.6-2.6,3.8-4c0.8-0.9,1.8-1.3,2.8-1.4
		C27.3,0,29-0.1,30.7,0.4c2.8,0.8,5.4,1.9,7.7,3.6c1.2,0.9,2.4,0.9,3.6,0c0.7-0.6,1.6-0.8,2.5-0.7c4.3,0.6,8.6,1,12.5,3.2
		c1.6,0.9,3,2,4.2,3.3c0.9,1,0.9,1.2-0.2,2.3c-0.1,0.1-0.1,0.2-0.2,0.3c0.1,0.1,0.3,0.2,0.4,0.2c2,0.3,3.8-0.4,5.6-1
		c1-0.3,2-0.8,3-1.1c1.7-0.7,3.5-1.1,5.4-1.1c1.2,0,1.9,0.6,2.3,1.6c0.2,0.5,0.4,1.1,0.4,1.7c0.2,3.6-0.4,7.2-1.4,10.7
		c-0.4,1.4-1.4,1.9-2.7,1.4c-2.7-1-5.5-2-8.2-3c-0.9-0.3-1.9-0.5-2.9-0.7c-0.3-0.1-0.7,0-0.3,0.4c0.4,0.5,0.3,0.8,0,1.2
		c-1.2,1.7-2.9,2.5-4.7,3.3C54.2,27.2,50.7,27.6,46.4,27.7z"/>
	<path d="M38.6,8.3C39.2,9,40,8.6,40.7,8.7c1.6,0.7,3.3,1,5,1.1c1.1,0.4,2.2,0.7,3.2,1.1c0.3,0.1,0.5,0.2,0.7,0.4l0,0
		c-0.4,0-0.9,0.1-1.3,0c-2.5-0.5-5-1.1-7.5-1.6c-2.5-0.5-5-0.8-7.5-1.2C29.7,7.7,25.9,8.1,22.1,8c-0.2,0-0.4-0.1-0.6-0.2
		c0.2-0.1,0.3-0.2,0.5-0.2c3.2,0,6.3-0.1,9.5,0c1.5,0,3,0.4,4.6,0.6C36.9,8.3,37.7,8.3,38.6,8.3z"/>
	<path d="M43.6,14c-2.6,0.2-5.1-0.4-7.6-0.8c-1.9-0.3-3.8-0.7-5.7-1c-0.1,0-0.3-0.2-0.4-0.3l0,0c2.2-0.3,4.3,0.5,6.5,0.8
		c2.2,0.3,4.4,0.7,6.6,1C43.2,13.7,43.4,13.9,43.6,14L43.6,14z"/>
	<path d="M49.7,11.2c1.4,0.2,2.9,0.4,4.3,0.7c1.7,0.4,3.4,1,5.1,1.5c0.1,0,0.1,0.3,0.1,0.4c0,0-0.2,0.1-0.3,0.1
		c-1.4-0.4-2.7-0.7-4.1-1.1c-1.6-0.5-3.3-0.9-4.9-1.4C49.9,11.4,49.8,11.3,49.7,11.2L49.7,11.2z"/>
	<path d="M12,16.2c-0.2,1.9-1.1,3.1-2.7,3.8c-0.4,0.2-0.8,0.4-1.2,0.6c-0.1-0.7,0.6-0.8,1-1c1.3-0.8,2.3-1.7,2.5-3.2
		c0-0.2,0.1-0.4,0.2-0.6C11.8,15.9,11.9,16.1,12,16.2z"/>
	<path d="M29.9,11.9c-1.5-0.2-3-0.3-4.5-0.5c-0.1,0-0.1-0.2-0.2-0.2l0,0c1.4-0.1,2.8,0,4.1,0.4C29.6,11.6,29.7,11.8,29.9,11.9
		C29.9,11.9,29.9,11.9,29.9,11.9z"/>
	<path d="M25.2,11.2c-1.5,0-3,0-4.4,0c-0.1,0-0.2-0.1-0.3-0.2c0.1,0,0.2-0.1,0.3-0.1c1.4,0,2.7,0,4.1,0C25,10.9,25.1,11.1,25.2,11.2
		L25.2,11.2z"/>
	<path d="M47.9,22.2c-0.3,0.1-0.6,0.3-0.9,0.4c-0.9,0-1.8,0-2.7,0c0,0,0,0,0,0c0.3-0.1,0.6-0.3,0.9-0.4C46.1,22.2,47,22.2,47.9,22.2
		C47.9,22.2,47.9,22.2,47.9,22.2z"/>
	<path d="M44.3,22.6c-0.3,0.1-0.6,0.3-0.9,0.3c-0.8,0-1.6-0.1-2.4-0.1c0.8-0.1,1.5-0.2,2.3-0.2C43.6,22.6,44,22.6,44.3,22.6
		L44.3,22.6z"/>
	<path d="M37.1,21.2c0.6-0.7,1.3-0.3,2-0.3c0.1,0,0.2,0.1,0.3,0.2c-0.1,0.1-0.2,0.1-0.3,0.1C38.4,21.2,37.8,21.2,37.1,21.2
		L37.1,21.2z"/>
	<path d="M45.8,14.4c-0.7-0.1-1.5,0.3-2.2-0.4l0,0C44.3,14.2,45.1,13.7,45.8,14.4L45.8,14.4z"/>
	<path d="M47.9,14.7c-0.7-0.1-1.5,0.4-2.2-0.4l0,0C46.5,14.5,47.3,14,47.9,14.7L47.9,14.7z"/>
	<path d="M35,21.5c0.6-0.7,1.4-0.2,2.2-0.4l0,0C36.5,21.9,35.7,21.4,35,21.5L35,21.5z"/>
</g>
</svg>
