<?xml version="1.0" encoding="iso-8859-1"?>
<!-- Generator: Adobe Illustrator 25.3.0, SVG Export Plug-In . SVG Version: 6.00 Build 0)  -->
<svg version="1.1" id="Calque_1" xmlns="http://www.w3.org/2000/svg" xmlns:xlink="http://www.w3.org/1999/xlink" x="0px" y="0px"
	 viewBox="0 0 73.8 55" style="enable-background:new 0 0 73.8 55;" xml:space="preserve">
<g>
	<path d="M39.7,0c1.5,0.5,3,0.9,4.4,1.4c4.2,1.5,8.2,3.6,12.3,5.5c3.3,1.5,6.1,3.6,8.6,6.3c2,2.2,2.3,4.6,1.3,7.2
		c-0.2,0.5-0.2,0.7,0.4,0.8c1,0.2,1.9,0.7,2.4,1.7c0.1,0.3,0.5,0.4,0.8,0.6c0.6,0.3,1.2,0.5,1.7,0.9c2.5,2,3.4,7.4,0.3,10.4
		c-1.3,1.2-2.6,2.5-4,3.5c-2.4,1.8-4.6,3.8-6.2,6.4c-0.9,1.5-1.5,3.1-2.2,4.6c-0.5,1.1-1.1,2.2-1.6,3.4c-0.5,1.2-1.4,1.9-2.6,2.2
		c-0.2,0.1-0.5-0.1-0.8-0.1c0.1-0.2,0-0.6,0.2-0.6c1-0.6,1.2-1.6,1.5-2.6c0.8-3.2,2.3-6.1,4.5-8.6c0.6-0.7,1.2-1.5,1.8-2.2
		c0.1-0.1,0.1-0.3,0.2-0.5c-0.2,0.1-0.4,0.1-0.5,0.2c-2.1,2.1-4.5,3.9-7,5.5c-2.7,1.8-5.6,3.2-8.5,4.5c-2.7,1.2-5.5,1.6-8.4,1.3
		c-1.8-0.2-3.4-1.1-4.8-2.2c-1.5-1.1-2.6-2.6-3.5-4.2c-1.2-2-2.3-4.1-4.2-5.5c-1.3-1-2.6-1.9-3.9-2.8c-1.3-0.9-2.7-1.6-4.1-2.4
		c-0.5-0.3-1.1-0.6-1.6-0.7c-4.3-1.1-8.3-3-12.3-4.7c-0.8-0.4-1.7-0.6-2.5-1.1c-1.3-0.7-1.4-1.2-0.3-2.1c1.1-0.9,2.4-1.8,3.7-2.5
		c3-1.5,6.1-3,9.3-4.2c3.9-1.6,7.4-3.9,10.5-6.7c0.9-0.8,1.5-1.8,2.2-2.8c1-1.5,1.9-3,2.7-4.6c0.6-1.2,1.8-1.7,2.8-2.5
		C34.1,1.2,36.7,0.2,39.7,0z"/>
	<path d="M7.5,23.3c0.2,0,0.5,0,0.7,0.1c0.1,0.1,0.2,0.4,0.2,0.5c-0.3,0.2-0.7,0.5-1.1,0.6c-0.2,0.1-0.5,0-0.8,0
		c0.1-0.3,0.2-0.5,0.3-0.8C7,23.6,7.3,23.4,7.5,23.3z"/>
	<path d="M29.8,19.1c0.1,0,0.1,0,0.2,0c1,0.7,1.8,1.5,2.3,2.6c0,0.1,0,0.2-0.1,0.3c-0.1,0.1-0.2,0.1-0.3,0.1
		c-0.7-0.2-2.2-2.1-2.2-2.8C29.7,19.3,29.8,19.2,29.8,19.1z"/>
	<path d="M32.7,32.8c-0.1,0.6-1.6,2.2-2.1,2.3c-0.1,0-0.3-0.1-0.3-0.1c-0.1-0.1-0.2-0.4-0.1-0.5c0.6-0.7,1.3-1.4,1.9-2
		c0.1-0.1,0.3-0.1,0.3,0C32.6,32.5,32.7,32.6,32.7,32.8z"/>
	<path d="M57.1,30.7c0,0-0.1-0.1-0.1-0.2c0-0.1,0.1-0.2,0.2-0.3c1.1-0.3,2.1-0.6,3.2-0.9c0.1,0,0.1-0.1,0.2-0.1
		c0.1,0.1,0.2,0.2,0.3,0.3c0,0.1-0.1,0.3-0.1,0.3C59.5,30.2,58.3,30.4,57.1,30.7z"/>
	<path d="M25.9,33.3c-0.1,0.6-0.9,1.1-1.3,0.9c-0.3-0.1-0.5-0.5-0.6-0.8c-0.1-0.5,0.6-1,1.1-0.8C25.5,32.8,25.7,33.2,25.9,33.3z"/>
	<path d="M24.7,21.6c-0.4-0.4-0.8-0.6-0.9-0.9c-0.2-0.3,0.4-0.9,0.9-0.8c0.3,0.1,0.8,0.4,0.8,0.7C25.5,20.9,25,21.2,24.7,21.6z"/>
	<path d="M32.6,17.6c0.1,0,0.7,0.2,0.7,0.3c-0.1,0.7-0.7,0.3-1.1,0.4c-0.2,0-0.4,0-0.5,0c-0.2-0.1-0.3-0.3-0.5-0.4
		c0.2-0.1,0.4-0.2,0.6-0.2C31.9,17.6,32,17.6,32.6,17.6z"/>
	<path d="M7.2,28.8c0.3,0.1,0.7,0.2,0.9,0.5c0.3,0.3,1-0.1,1,0.7c-0.4-0.1-0.9-0.1-1.3-0.2c-0.3-0.1-0.6-0.3-0.9-0.5
		c-0.1,0-0.1-0.2,0-0.3C7,28.8,7.1,28.8,7.2,28.8z"/>
	<path d="M26.6,36.5c-0.3,0-0.5,0-0.7-0.1c-0.1-0.1-0.2-0.3-0.2-0.4c0-0.1,0.2-0.3,0.4-0.3c0.2,0,0.3,0.1,0.5,0.2
		c0.3,0.1,0.6,0.2,0.9,0.3C27.2,36.2,26.9,36.4,26.6,36.5z"/>
	<path d="M13.1,31.3c0,0,0.1-0.1,0.1-0.1c0.4-0.2,1.5,0.2,1.7,0.6c0,0.1-0.1,0.3-0.1,0.3c-0.5-0.2-1.1-0.4-1.6-0.6
		C13.2,31.5,13.1,31.4,13.1,31.3z"/>
	<path d="M10.7,22.6c0,0.1,0,0.3-0.1,0.3c-0.4,0.2-0.7,0.3-1.1,0.4c-0.1,0-0.2-0.1-0.3-0.2c0,0,0.1-0.1,0.1-0.1
		c0.4-0.2,0.7-0.4,1.1-0.5C10.5,22.4,10.6,22.5,10.7,22.6z"/>
	<path d="M11.2,30.4c-0.3,0.2-0.4,0.3-0.5,0.3c-0.3-0.1-0.5-0.2-0.8-0.4c-0.1-0.1-0.1-0.3-0.1-0.4c0,0,0.2-0.1,0.3-0.1
		C10.4,30,10.8,30.2,11.2,30.4z"/>
	<path d="M36.6,36.1c-0.4,0.2-0.6,0.3-0.9,0.4c-0.1,0-0.2-0.2-0.3-0.3c0.2-0.2,0.5-0.4,0.8-0.6C36.2,35.7,36.4,35.9,36.6,36.1z"/>
	<path d="M42.8,18.8c-0.2,0.1-0.4,0.2-0.5,0.1c-0.3-0.1-0.5-0.3-0.7-0.5c0.3,0,0.6-0.1,0.8-0.1C42.5,18.4,42.6,18.6,42.8,18.8z"/>
	<path d="M61.7,29.4C61.9,29.5,61.7,29.4,61.7,29.4c0.1-0.1,0.2-0.3,0.3-0.3c0.2,0,0.4-0.1,0.5,0c0.1,0,0.2,0.2,0.3,0.3
		c-0.1,0-0.2,0.1-0.3,0.1C62.4,29.5,62.2,29.5,61.7,29.4z"/>
	<path d="M16.8,32.4c-0.3,0.1-0.5,0.2-0.6,0.2c-0.2-0.1-0.4-0.2-0.7-0.4c0.1-0.1,0.3-0.3,0.4-0.2C16.2,32.1,16.4,32.2,16.8,32.4z"/>
</g>
</svg>
