<?xml version="1.0" encoding="iso-8859-1"?>
<!-- Generator: Adobe Illustrator 25.3.0, SVG Export Plug-In . SVG Version: 6.00 Build 0)  -->
<svg version="1.1" id="Calque_1" xmlns="http://www.w3.org/2000/svg" xmlns:xlink="http://www.w3.org/1999/xlink" x="0px" y="0px"
	 viewBox="0 0 57.4 45.4" style="enable-background:new 0 0 57.4 45.4;" xml:space="preserve">
<g>
	<path d="M13.4,7.1c-0.1,0.3-0.1,0.6-0.2,0.8c-0.6,0.9-1.3,1.8-2,2.7c-0.2,0.3-0.4,0.7-0.5,1.1c0.4-0.2,0.8-0.4,1.2-0.5
		c1-0.3,2.1-0.4,3.1-0.7c2.3-0.5,4.7-0.5,7-0.3c2.9,0.3,5.9,0.6,8.7,1.8c2,0.8,3.7,1.9,5.2,3.4c1,0.9,0.9,0.9,2,0.1
		c1.1-0.8,2.1-1.7,3.3-2.4c1.4-0.8,3.3-0.2,4.6,0.8c1.3,1,1.4,2.7,2.5,3.8c0.1,0.1-0.1,0.7-0.3,1c-0.3,0.7-0.6,1.5-0.9,2.1
		c-0.1,0.3-0.6,0.4-0.9,0.5c0.4,0,0.8,0,1.1-0.1c0.6-0.2,1.2-0.6,1.7-0.9c0.7-0.3,1.4-0.7,2.1-1c2-0.7,2.9-0.5,4.2,1.1
		c0.4,0.5,0.9,1,1.3,1.6c0.6,0.8,0.9,1.8,0.8,2.8c0,0.8-0.2,1.6-0.3,2.4c-0.2,0.9-0.4,1.7-0.7,2.6c-0.5,1.5-2.5,2.7-4,2.4
		c-0.1,0-0.2-0.1-0.3-0.1c-1.4,0.5-2.3-0.4-3.3-1.2c-0.4-0.4-1-0.6-1.5-0.9c0.3,0.5,0.5,1.1,0.9,1.5c0.7,0.7,0.1,1.2,0,1.9
		c-0.2,0.7-0.5,0.8-1.1,0.8c-0.3,0-0.7,0-0.9,0.1c-0.6,1-1.4,0.3-2.1,0.2c-0.4-0.1-0.8-0.3-1.2-0.4c-1-0.3-1.9,0.2-2.4,1.1
		c-0.2,0.4-0.3,0.8-0.5,1.1c-3.3,3.3-6.8,6.3-11.3,7.8c-3.5,1.2-7.1,1.5-10.7,0.9c-6-0.9-10.6-4.1-14.6-8.3C2.5,36,1.9,35,1.2,34
		c-0.3-0.4-0.3-1-0.4-1.5c-0.2-0.6-0.2-1.3-0.4-1.9c-0.8-2-0.3-3.2,1.7-4c1-0.4,1.9-0.8,2.8-0.1c0.1,0.1,0.5-0.1,0.7-0.2
		c-0.2-0.2-0.3-0.5-0.5-0.6c-0.6-0.4-1.4-0.4-1.7-1.4c-0.2-0.7-0.7-1.4,0.1-2.1c0-1.4,0.9-2.4,1.6-3.5c0.3-0.5,0.4-1.1,0.7-1.6
		c0.3-0.7,0.7-1.4,1.1-2c0.3-0.5,0.5-0.9,0.8-1.4c0.8-1.5,1.6-2.9,2.4-4.4c1-1.8,2.4-3.3,4.1-4.4c1.5-1,2.4-2.4,3.5-3.7
		c0.3-0.4,0.6-0.8,0.9-1.1c0.2-0.2,0.7-0.3,1-0.2c1.7,0.4,3.4,0.7,5.1,0.6c0.5,0,1,0.2,1.5,0.4c0.1,0,0.3,0.3,0.3,0.3
		c-0.5,1.2,0.6,1.2,1.2,1.6c0.3,0.2,0.8,0.2,1.2,0.3c0.2,0.1,0.3,0.3,0.5,0.5c-0.2,0.1-0.5,0.2-0.7,0.2c-0.2,0-0.4-0.2-0.7-0.2
		c-0.4-0.1-0.8-0.2-1.2-0.3c-0.2,0-0.4,0.1-0.6,0.2c0.1,0.2,0.3,0.5,0.4,0.5c1.1-0.1,1.9,0.6,2.7,1.2c0.3,0.2,0.5,0.5,0.8,0.7
		c-0.4,0-0.8,0-1.2,0.1c-0.2-0.2-0.5-0.3-0.7-0.5c0.2,0.2,0.5,0.3,0.7,0.5C29,6.1,29,6.1,29,6.2c0.1,0.2,0.3,0.4,0.4,0.6
		c-0.2,0-0.5,0.2-0.6,0.1c-0.7-0.5-1.5-0.3-2.2,0c-0.2,0.1-1.1,0.7,0.1,0.9c0.1,0,0.2,0.3,0.2,0.4c-0.1,0.3-0.1,0.5,0.3,0.7
		c1.4,0.5,2.8,1,4.2,1.5c0.1,0.1,0.2,0.3,0.3,0.5c-0.2,0.1-0.5,0.3-0.6,0.2c-1-0.4-1.9-0.9-2.9-1.4c-0.5-0.2-1-0.7-1.5,0.1
		c-0.1,0.2-0.6,0.3-0.8,0.2c-1.2-0.6-2.6-0.4-3.6-1.3c-0.8-0.8-1.8-1.2-2.7-1.2c-1,0-1.5-0.4-2.1-1c-0.7-0.8-1.1-0.9-2.1-0.4
		C14.8,6.4,14.2,6.7,13.4,7.1L13.4,7L13.4,7.1z"/>
	<path d="M35.6,25.3c0.2,2-0.2,3.6-1.5,5c-1,1.1-2.3,1.2-3.6,1c-0.3,0-0.6-0.4-0.8-0.6c-0.4-0.7-0.8-1.3-1.5-1.7
		c-0.1-0.1-0.1-0.4-0.2-0.6c0.2,0,0.4,0,0.5,0c0.5,0.3,1,0.7,1.4,1.1c0.4,0.4,0.5,1.1,1.3,1c1-0.1,2-0.1,2.5-1
		c0.4-0.7,0.8-1.5,1-2.2c0.2-1,0-2,0.2-3c0.2-1.4-0.8-2.2-1.7-2.8c-0.8-0.5-2.2-0.1-3.1,0.7c-0.4,0.4-0.8,0.7-1.3,1
		c-0.3,0.1-0.8,0-1.1,0c-0.1,0-0.2-0.1-0.3-0.2c0.1-0.1,0.2-0.2,0.2-0.2c1.1,0,1.6-0.8,2.2-1.4c1.3-1.3,3.5-1.1,4.7,0.3
		c0.3,0.4,0.7,0.8,0.9,1.3c0.2,0.3,0.3,0.7,0.3,1.1C35.7,24.6,35.6,25,35.6,25.3z"/>
	<path d="M35.1,32.5c0.2,0.2,0.5,0.4,0.6,0.7c0.1,0.2,0,0.6-0.2,0.8c-0.2,0.2-0.7,0.3-1,0.3c-0.5-0.1-0.9-0.6-1.3,0.1
		c-0.1,0.1-0.5,0.2-0.6,0.1c-0.3-0.2-0.5-0.4-0.7-0.6c0.2-0.2,0.4-0.5,0.6-0.6C33.3,33,34.1,32.8,35.1,32.5z"/>
	<path d="M26,32.2c0.1-0.2,0.2-0.6,0.4-1c0.2-0.3,0.7-0.8,0.8-0.8c0.7,0.2,0.1,0.7,0,1c-0.1,0.5-0.2,0.9-0.3,1.4
		c-0.1,0.3,0.6,0.8-0.1,1c-0.2,0-0.5-0.6-0.7-0.9C26,32.7,26,32.5,26,32.2z"/>
	<path d="M14.5,33.7c-0.1,0-0.3-0.1-0.6-0.1c0.2-0.4,0.5-0.7,0.7-1.1c0.7,0.9,0.6-0.1,0.8-0.3c0.1-0.1,0.1-0.2,0.2-0.3
		c0.1-0.1,0.1-0.2,0.2-0.3c0.1,0.1,0.2,0.2,0.2,0.2c0,0.5-0.1,0.9-0.2,1.4C15.6,34,15,33.5,14.5,33.7z"/>
	<path d="M45.4,25.9c0,0.5-0.9,1.2-1.3,1.1c-0.2,0-0.4-0.4-0.4-0.7c0-0.7,0.4-1.1,1-1C45,25.4,45.2,25.7,45.4,25.9z"/>
	<path d="M26.1,23.6c0.4,0.5,0.6,0.8,0.9,1.2c-0.3,0.2-0.6,0.5-1,0.5c-0.6,0-1.2-0.5-1-0.9C25.2,24.1,25.6,23.9,26.1,23.6z"/>
	<path d="M25.6,17.7c-0.1,0.7-0.8,1.2-1.3,1c-0.2-0.1-0.3-0.3-0.5-0.5c0.5-0.2,0.3-1.3,1.2-1.1C25.3,17.2,25.5,17.6,25.6,17.7z"/>
	<path d="M24.2,20.4c0,0.5-0.2,1-0.8,0.9c-0.5,0-1.1-0.9-1-1.3c0,0,0.2,0,0.3,0c0.2,0,0.5-0.1,0.7-0.2
		C24.1,19.6,24.3,19.8,24.2,20.4z"/>
	<path d="M41,24.9c0.3,0.4,0.6,0.7,0.6,1.1c0,0.2-0.4,0.6-0.7,0.7c-0.3,0.1-0.9-0.6-0.8-1C40.3,25.5,40.7,25.3,41,24.9z"/>
	<path d="M23.5,24.3c0,0.8-0.3,1.1-0.8,1c-0.3-0.1-0.5-0.3-0.8-0.5c0.5-0.3,0.9-0.7,1.4-1C23.4,24,23.5,24.2,23.5,24.3z"/>
	<path d="M10.3,26.2c0.1,0.1,0.2,0.2,0.3,0.3c0.4,0.8,0.9,1.7,1.3,2.5c0.1,0.1,0,0.3,0,0.5c-0.1-0.1-0.2-0.1-0.3-0.2
		c-0.5-0.9-0.9-1.7-1.3-2.6C10.2,26.6,10.3,26.4,10.3,26.2z"/>
	<path d="M42.2,23.1c0,0.7-0.3,1.1-0.9,1.1c-0.2,0-0.4-0.3-0.4-0.4c0-0.3,0.1-0.6,0.3-0.8c0.2-0.2,0.4-0.3,0.7-0.3
		C42,22.7,42.2,23,42.2,23.1z"/>
	<path d="M37.6,35.5c0,0.6-0.2,1.1-0.8,1.2c-0.2,0-0.5-0.4-0.7-0.6c0.4-0.3,0.7-0.6,1.1-0.8C37.3,35.2,37.5,35.4,37.6,35.5z"/>
	<path d="M9.5,31.8c-0.9-0.3-1.8-0.6-2.7-1c-0.1-0.1-0.3-0.2-0.4-0.3c0.2,0,0.3-0.2,0.5-0.1C7.9,30.6,8.9,30.8,9.5,31.8L9.5,31.8z"
		/>
	<path d="M29.3,16.7c-0.3,0.4-0.4,0.7-0.6,1c-0.2-0.3-0.5-0.6-0.7-0.9c0.2-0.1,0.4-0.3,0.6-0.3C28.7,16.4,28.9,16.5,29.3,16.7z"/>
	<path d="M43.7,24.8c-0.3-0.3-0.6-0.5-0.7-0.7c-0.1-0.6,0.6-0.4,0.9-0.6c0.1,0,0.3,0.2,0.3,0.2C44.2,23.9,44,24.3,43.7,24.8z"/>
	<path d="M11.5,19.8c0.2,0.3,0.5,0.6,0.5,0.7c0,0.2-0.3,0.4-0.5,0.6c-0.2-0.2-0.5-0.4-0.5-0.6C11,20.3,11.3,20.1,11.5,19.8z"/>
	<path d="M29.8,23.9c-0.4,0.3-0.7,0.5-1,0.7c-0.1,0-0.3-0.1-0.4-0.2c0.3-0.3,0.5-0.6,0.8-0.8C29.2,23.5,29.4,23.7,29.8,23.9z"/>
	<path d="M36.5,17.1c0,0.2,0,0.4-0.1,0.5c-0.3,0.1-0.7,0.2-1.1,0.3c0,0-0.2-0.2-0.2-0.3c0.1-0.5,0.5-0.6,0.9-0.6
		C36.2,17.1,36.4,17.1,36.5,17.1L36.5,17.1z"/>
	<path d="M31,41.2c-0.2-0.4-0.3-0.6-0.3-0.8c0.1-0.2,0.3-0.4,0.5-0.7c0.2,0.1,0.5,0.3,0.4,0.4C31.5,40.5,31.3,40.7,31,41.2z"/>
</g>
</svg>
