<?xml version="1.0" encoding="iso-8859-1"?>
<!-- Generator: Adobe Illustrator 25.3.0, SVG Export Plug-In . SVG Version: 6.00 Build 0)  -->
<svg version="1.1" id="Calque_1" xmlns="http://www.w3.org/2000/svg" xmlns:xlink="http://www.w3.org/1999/xlink" x="0px" y="0px"
	 viewBox="0 0 224.1 57.7" style="enable-background:new 0 0 224.1 57.7;" xml:space="preserve">
<g>
	<path d="M176.9,20.9c4.1-0.6,8-0.2,11.8-2.2c1.8-0.9,4.3-0.4,6.3-1c3.5-1.1,6.8-2.5,10.1-4.1c3.9-1.8,7.8-2.7,12.1-2.3
		c1.4,0.1,3,0.6,4.2,1.3c2.9,1.7,3.5,3.7,1.6,6.7c-1.9,2.9-4.2,5.5-6.5,8.1c-1.2,1.3-1.4,2.4-0.5,3.9c1.9,3.3,3.8,6.6,5.5,10
		c1.9,3.9,0.5,6.3-3.7,6c-5.1-0.3-10.3-1.2-14.7-4c-2.7-1.7-5.4-2.8-8.7-3.2c-3.4-0.4-6.7-1.9-10-2.9c-5.9-1.7-11.8-0.7-17.7,0.3
		c-1.6,0.3-2,1.5-2.6,3.1c-3,8.5-12.2,14.3-21.4,10.7c-0.8-0.3-1.6-0.6-2.1-1.2c-2.6-3.2-6.7-2.4-10.1-3.7c-0.6-0.2-2,0-2.3,0.5
		c-2.9,4.4-7.9,4.7-12.2,6.1c-9.3,3.1-18.9,4.2-28.8,4.4c-12.3,0.2-24.4-0.8-36.3-3.7c-5.4-1.3-11.1-1.8-16.6-2.9
		c-7.7-1.6-14.6-5.3-21.8-8.3c-3.2-1.4-6.3-3-9.4-4.5c-0.7-0.4-1.7-0.7-2-1.4c-0.5-0.9-1.2-2.4-0.8-3.1c0.5-1,1.9-1.7,3-2
		c1.3-0.3,2.8,0.1,4.2,0.2c-1.1-0.7-2.3-1.3-3.4-2.1c-2.6-1.9-2.7-3.5-0.4-5.6c1.1-1,2.4-1.9,3.7-2.4c4.9-2.1,9.8-4.1,14.7-6
		C34.1,11.3,46.2,7,58.9,4.5c9.3-1.8,18.6-3.5,28-3.2c6.3,0.2,12.5,1.1,18.8,1.7c1.7,0.1,3.6,0.7,4.9,0.1c2-1,4.2,1.4,5.9-0.7
		c1.6,1.6,4.2-1,5.8,1.2c0.1,0.1,0.8-0.2,1.2-0.3c0.6-0.2,1.2-0.6,1.8-0.8c1.5-0.6,1.8,2.8,3.7,1.2c1.2-1,2.4-1.7,4.1-0.9
		c0.4,0.2,1.4-0.1,1.8-0.5c3.1-2.9,7-2.5,10.4-1.8c3.1,0.6,6.1,2.5,8.7,4.4c2.8,2,5.1,4.7,6.5,8.1c0.7,1.6,0.8,2.8-1,3.7
		c-0.4,0.2-0.6,0.7-0.9,1.1c0.3,0.1,0.5,0.3,0.8,0.4C165.2,19.1,171,20,176.9,20.9z"/>
	<path d="M77.3,26.2c3.5,0,4,0.8,3.1,3.4c-1.5,4.1-4.3,7-8.1,9c-1.2,0.6-2.2,0.2-1.9-1c0.6-2-0.6-2.7-1.7-3.7
		c-1.9-1.6-1.8-1.6,0.2-3.3C71.6,28.4,74.5,26.5,77.3,26.2z"/>
	<path d="M167.1,28.2c-3.8-0.3-7.5-0.5-11.2-0.9c-0.5-0.1-1-0.8-1.5-1.2c0.6-0.4,1.4-1.4,1.8-1.2c4,1.5,8.1,0.7,12.2,1.5
		c0.5,0.1,0.9,0.7,1.3,1.1c-0.5,0.3-1,0.6-1.6,0.9c-0.3,0.1-0.7,0-1,0C167.1,28.3,167.1,28.2,167.1,28.2z"/>
	<path d="M97.3,15.5c-3.1-0.5-5.9-0.9-8.6-1.4c-0.2,0-0.5-0.5-0.5-0.7c0-0.3,0.2-0.7,0.4-0.8c0.4-0.3,0.9-0.6,1.4-0.6
		c2.5,0.4,5,0.8,7.4,1.3c0.5,0.1,0.9,0.7,1.4,1C98.2,14.7,97.7,15.2,97.3,15.5z"/>
	<path d="M182.4,29.5c-1.5-0.1-3,0-4.5-0.3c-0.6-0.1-1.2-1-1.7-1.5c0.7-0.4,1.4-1.2,2-1.1c2.8,0.6,5.7,1.2,8.6,0.7
		c0.3,0,0.9,0.6,0.9,0.9c0,0.3-0.5,1-0.8,1c-1.5,0.1-3,0-4.5,0C182.4,29.4,182.4,29.4,182.4,29.5z"/>
	<path d="M81.6,12c1.7,0.4,3.5,0.5,5,1.3c0.8,0.4-1.5,1.4-5.1,1.2c-1.4-0.1-2.9,0-4.3-0.1c-0.4,0-0.7-0.5-1-0.8
		c0.3-0.3,0.6-0.7,0.9-1c0.1-0.1,0.3-0.1,0.5-0.1c1.3,0,2.7,0,4,0C81.6,12.2,81.6,12.1,81.6,12z"/>
	<path d="M122.9,19.4c-2.9,0.5-5.5-0.3-8-1.5c-0.2-0.1-0.5-0.5-0.4-0.8c0-0.2,0.4-0.6,0.6-0.5c2.4,0.4,4.7,0.7,7.1,1.3
		C122.5,17.8,122.7,18.8,122.9,19.4L122.9,19.4z"/>
	<path d="M192.1,29.6c-0.6-0.2-1.7-0.7-2.8-1.1c0.9-1.9,2.3-1.1,3.7-0.8c1,0.2,2.2-0.3,3.3-0.4c0.4,0,0.8,0.4,1.2,0.6
		c-0.3,0.4-0.5,1.1-0.8,1.1C195.3,29.3,194,29.4,192.1,29.6z"/>
	<path d="M151.8,26.7c-1.5-0.3-2.5-0.3-3.4-0.6c-0.8-0.4-2.2-1.3-2.1-1.7c0.4-1.6,1.5-0.4,2.3-0.3c1,0.1,2,0,2.9,0.4
		c0.6,0.2,0.9,1.1,1.3,1.7C152.4,26.4,151.9,26.7,151.8,26.7z"/>
	<path d="M138.9,24c-2.2-0.4-3.9-0.5-5.4-0.9c-0.5-0.1-0.8-0.9-1.2-1.3c0.7-0.2,1.4-0.8,2-0.7c1.6,0.3,3.1,0.8,4.6,1.3
		c0.3,0.1,0.6,0.6,0.8,1C139.3,23.7,138.9,24,138.9,24z"/>
	<path d="M73.6,12c0.6,0.7,1,1.3,1.4,1.8c-0.4,0.3-0.9,0.9-1.2,0.9c-0.8-0.2-1.5-0.7-2.2-1.1C72.1,13.1,72.7,12.7,73.6,12z"/>
	<path d="M103.9,15.4c-0.1,0.1-0.3,0.1-0.4,0.2c-1,0.8-2,1.1-2.9-0.1c-0.2-0.3-0.1-1,0.1-1.2c1.3-1.3,2.3-0.5,3.1,0.7
		C103.8,15.1,103.9,15.2,103.9,15.4C103.9,15.4,103.9,15.4,103.9,15.4z"/>
	<path d="M55.3,17.8c-0.5-0.8-1.2-1.5-1.1-1.7c0.4-0.6,1-1.1,1.7-1.4c0.1-0.1,1.1,0.9,1,1.2C56.6,16.5,56,17,55.3,17.8z"/>
	<path d="M103.9,15.4c0.6-0.3,1.2-0.8,1.8-0.8c0.7,0,1.4,0.4,2.1,0.7c0.1,0.1,0.1,0.9,0.1,0.9c-0.7,0.2-1.4,0.5-2,0.4
		C105.2,16.3,104.6,15.8,103.9,15.4C103.9,15.4,103.9,15.4,103.9,15.4z"/>
	<path d="M145.9,24.4c-1.7,0.6-2.4,1-3,0.9c-0.5,0-1.1-0.5-1.6-0.8c0.5-0.4,1-1.1,1.6-1.2C143.5,23.3,144.2,23.8,145.9,24.4z"/>
	<path d="M122.9,19.4c0.2-0.1,0.3-0.2,0.5-0.2c1-0.1,2-0.3,3.1-0.3c0,0,0.3,0.7,0.2,0.8C125.3,21,124,20.9,122.9,19.4L122.9,19.4z"
		/>
	<path d="M65.8,14.7c-0.5,0.2-1.1,0.6-1.5,0.5c-0.4-0.1-0.7-0.8-1-1.2c0.6-0.2,1.1-0.5,1.7-0.6c0.4,0,0.9,0.2,1.4,0.3
		C66.1,14,65.9,14.4,65.8,14.7z"/>
	<path d="M113.2,16.7c-0.9,0.3-1.5,0.7-1.9,0.6c-0.4-0.1-0.7-0.8-1.1-1.3c0.6-0.2,1.2-0.5,1.8-0.5C112.3,15.5,112.6,16.1,113.2,16.7
		z"/>
	<path d="M172.4,26.1c0.5,0.4,1,0.8,1.3,1.2c0.1,0.1-0.6,0.9-0.7,0.9c-0.6-0.2-1.2-0.7-1.7-1C171.5,26.9,171.9,26.6,172.4,26.1z"/>
</g>
</svg>
