<?xml version="1.0" encoding="iso-8859-1"?>
<!-- Generator: Adobe Illustrator 25.3.0, SVG Export Plug-In . SVG Version: 6.00 Build 0)  -->
<svg version="1.1" id="Calque_1" xmlns="http://www.w3.org/2000/svg" xmlns:xlink="http://www.w3.org/1999/xlink" x="0px" y="0px"
	 viewBox="0 0 84.9 46.6" style="enable-background:new 0 0 84.9 46.6;" xml:space="preserve">
<g>
	<path d="M29.8,7.4c1-0.6,1.8,0.1,2.6,0.4C33,8,33.2,7.8,33.7,7.6c1.4-0.6,2.7-1.2,4.2-1.5c0.8-0.2,1.7-0.1,2.6,0
		c0.6,0.1,1,0.4,0.9,1.1c-0.3,2.1-0.7,4.1-1.8,5.9c-0.2,0.3-0.6,0.5-1,0.7c-0.3,0.1-0.6,0.2-0.9,0.3c0.4,0,0.7,0.1,1.1,0.1
		c1.5,0.2,2.8-0.3,4-1.2c1.3-0.9,2.7-1.8,4-2.6c0.5-0.3,1.1-0.6,1.6-0.8c1-0.3,1.2,0,1,1c-0.4,2.2-1.5,4-3,5.5
		c-0.7,0.8-0.7,0.7-0.1,1.7c1.1,1.7,1.7,3.6,2.2,5.6c0.2,0.9-0.1,1.1-1.1,0.8c-1.3-0.3-2.2-1.1-3.2-1.9c-0.7-0.6-1.2-1.3-2-1.8
		c-0.7-0.5-1.5-0.9-2.3-1.2c-0.4-0.1-1.2-0.1-1.3,0.1c-0.3,0.5,0.4,0.7,0.7,1c1,1.1,1.4,2.4,1.6,3.7c0.2,1,0.3,2,0.3,3.1
		c0,0.2-0.4,0.5-0.5,0.5c-0.7-0.2-1.4-0.3-2-0.7c-1.1-0.7-2.3-0.5-3.4-0.9c-0.1,0-0.2,0-0.3,0.1c0.1,0.1,0.1,0.2,0.2,0.3
		c0.4,1,1.3,1.3,2.1,1.8c0.5,0.3,1.3,0.3,1.3,1.1c-0.5-0.2-1.1-0.3-1.6-0.5c-2.2-0.8-3.8-2.4-5.5-3.9c-0.9-0.8-1.9-1.2-3.1-1.1
		c-0.5,0-0.9-0.1-1.4-0.2c-0.9-0.1-1.8-0.1-2.7-0.1c-1.1,0-2.2,0.1-3.3,0.2c-0.3,0-0.5,0-0.8,0c0.2,0.1,0.3,0.3,0.5,0.4
		c1.2,0.9,1.4,1.8,0.9,3.3c-0.4,1.2-0.8,2.3-1.2,3.5c-0.3,0.8-0.5,0.9-1.3,0.4c-2.4-1.5-3.6-3.7-4.5-6.2c-0.3-0.9-0.8-1.3-1.7-1.4
		c-1.5-0.3-3-1-4.5-1.1c-2.6-0.3-4.9-1.5-7.4-2c-0.2,0-0.4-0.2-0.6-0.3C0,20,0,19.7,0.6,19.4c0.8-0.4,0.8-0.6,0.1-1
		c-0.1-0.1-0.2-0.1-0.3-0.2c-0.7-0.3-0.5-0.6-0.2-1.1c2.5-3.2,5.3-5.9,8.9-7.8c0.1,0,0.1-0.1,0.2-0.1c0.7-0.3,1.6-0.5,2-1.1
		c0.4-0.5,0.3-1.4,0.4-2.2c0-0.2,0-0.5,0.1-0.5c1.3-0.7,1-2.2,1.6-3.2c0.2-0.3,0.3-0.7,0.4-1c0-0.1,0.2-0.2,0.3-0.2
		c0.1,0.1,0.2,0.2,0.3,0.3c0.1,0.2,0,0.5,0.1,0.7c0.3,0.5,0.8,0.5,1.1,0C15.7,2,15.8,1.7,16,1.5C16.3,1,16.7,0.5,17,0
		c0.2,0.6,0.4,1.1,0.5,1.7c-0.2,0.4-0.4,0.8-0.7,1.1C16.5,3.5,16.3,4.3,16,5c0.3-0.6,0.4-1.3,0.8-1.9c0.3-0.5,0.5-1,1.2-1.2
		c0.8,0,1.1-0.6,1.6-1c0.4-0.3,0.6-0.2,0.6,0.3c0,0.2,0,0.4,0,0.5c0.3,0.9,0.9,1,1.7,0.4c0.7-0.5,0.7-0.5,0.8,0.3
		c0.1,0.5,0.2,0.9,0.3,1.3c-0.9,0.6-1.8,1.4-1.8,1.4c0.3-0.8,1.2-0.9,1.8-1.4c0.5-0.3,0.9-0.6,1.4-0.9c0.1-0.1,0.4-0.1,0.5-0.1
		c0.1,0,0.2,0.3,0.2,0.4c-0.5,0.6,0.2,1.1,0.1,1.6C24.5,5,24,5.2,23.6,5.7C23.9,5.4,24.3,5,24.8,5c0.1,0,0.2-0.1,0.3-0.1
		c0.5-0.3,1-0.5,1.5-0.8C26.8,4,27,4,27.1,4c0,0.2,0.1,0.3,0,0.5c-0.5,1-0.2,0.9,0.8,0.9c0.8-0.1,0.2,0.6,0.1,1
		c-0.1,0.4-0.3,0.7-0.7,1c0.3-0.3,0.5-0.6,0.6-1c0.4,0,0.7,0,1.1,0C30,6.3,30,6.3,29.8,7.4c-0.1,0.1-0.3,0.2-0.4,0.3
		C29.5,7.6,29.7,7.5,29.8,7.4z"/>
	<path d="M53.6,46.6c-0.6-0.3-1.2-0.5-1.6-0.8c-0.6-0.6-1.2-1.3-1.7-2.1c-0.3-0.4-0.5-0.8-1-0.8c-2-0.3-4.1-0.6-6.1-1.2
		c-2.4-0.7-4.7-1.8-6.6-3.5c-0.6-0.5-0.6-1,0-1.4c0.4-0.3,0.7-0.3,0.4-0.9c-0.4-0.7,0-1.2,0.5-1.8c1-1.1,2.1-2.1,3.4-2.8
		c2.4-1.2,4.6-2.7,7.3-3.3c0.6-0.1,0.9-0.4,1-1.1c0.1-1.1,0.3-2.2,1.7-2.6c0.5-0.1,0.6-1.5,1.4-0.3c0.1-0.1,0.2-0.1,0.3-0.2
		c0.4-0.6,0.6-1.4,1.5-0.5c0.6-1.1,1.5,0.4,2.2-0.2c0,0,0.4,0.2,0.5,0.4c0.4,1,0.9-0.2,1.2,0.1c0.4,0.3,0.5,1,0.9,1.2
		c0.6,0.3,2.1,1.3,2.6,1.5c0.8,0.3,0.8,1.3,1.7,1.5c0.3,0,0.6,0.2,0.9-0.1c0.9-0.7,1.8-1.4,2.7-2c1.1-0.8,1.7-0.6,2.1,0.7
		c0.1,0.4,0.3,0.9,0.3,1.4c-0.1,1.1,0.5,1.9,1.1,2.7c0.5,0.6,1.2,1,1.1,1.9c0,0.1,0.2,0.3,0.3,0.4c1.3,0.1,2.6,0.8,4-0.1
		c1.3-0.9,2.7-1.6,4-2.3c0.9-0.5,1.8-0.9,2.7-1.3c0.4-0.2,0.8-0.2,1.2-0.2c0.8,0.1,1.1,0.6,0.8,1.4c-0.7,2-2.1,3.6-3.9,4.8
		c-0.6,0.4-0.5,0.6,0,1c1.8,1.4,2.6,3.5,3.2,5.6c0.2,0.6-0.4,1-1.2,0.8c-1.5-0.4-2.8-1.2-4.1-2.1c-1.1-0.8-2.3-1.5-3.4-2.3
		c-0.8-0.5-1.7-0.5-2.6-0.4c-0.6,0.1-1,0.3-1.3,1c-0.4,1.3-1,2.5-1.5,3.8c-0.2,0.5-0.2,1.2-0.2,1.7c-0.1,1-0.9,1.4-1.8,1.1
		c-0.4-0.1-0.8-0.4-1.1-0.5c-0.2-0.1-0.6-0.3-0.6-0.3c-1.2,1-1.4-0.4-2-0.8c-0.4-0.3-0.7-0.7-1.1-0.9c-0.5-0.3-0.9-0.4-1.6-0.3
		c-1.9,0.3-3.8,0.4-5.7,0.5c-0.5,0-0.8,0.1-0.5,0.7c0.6,0.9,0,1.7-0.4,2.5C54.8,46.2,54.1,46.3,53.6,46.6z"/>
	<path d="M15.1,20.9c0.4-0.2,0.8-0.3,1.1-0.6c0.5-0.4,0.5-0.9,0-1.4c-0.2-0.2-0.4-0.4-0.6-0.6c-0.4-0.4-0.5-0.7,0.1-1.1
		c2.2-1.5,4.5-2.4,7.1-2.8c1.4-0.2,2,0.5,1.8,1.9c-0.1,0.3-0.2,0.7-0.4,1c-0.7,1.4-1.8,2.5-3,3.5c-0.8,0.6-1.7,1.2-2.8,0.7
		c-0.9-0.4-1.8-0.5-2.6,0.2c-0.1,0.1-0.4,0-0.6,0C15,21.5,15,21.2,15.1,20.9L15.1,20.9z"/>
	<path d="M42.8,34.6c0,0.8-0.8,1.5-1.7,1.4c-0.7,0-1.2-0.6-1.3-1.4c0-0.5,1.1-1.5,1.7-1.5C42.1,33.1,42.8,33.9,42.8,34.6z"/>
</g>
</svg>
