<?xml version="1.0" encoding="iso-8859-1"?>
<!-- Generator: Adobe Illustrator 25.3.0, SVG Export Plug-In . SVG Version: 6.00 Build 0)  -->
<svg version="1.1" id="Calque_1" xmlns="http://www.w3.org/2000/svg" xmlns:xlink="http://www.w3.org/1999/xlink" x="0px" y="0px"
	 viewBox="0 0 81.4 37.9" style="enable-background:new 0 0 81.4 37.9;" xml:space="preserve">
<g>
	<path d="M61.1,16.1c2.4,0,4.6-0.3,6.9-1c1.4-0.4,2.9-0.6,4.4-0.9c1.2-0.3,2.4-0.5,3.6-0.9c1-0.3,1.9-0.6,2.9-0.9
		c0.2-0.1,0.5-0.1,0.7-0.1c0.7-0.1,1.5,0,1.7,0.7c0.1,0.4-0.3,1.2-0.7,1.5c-1.3,1.2-2.8,2.2-4.2,3.3c-0.8,0.6-1.7,1-2.3,1.6
		c-1.1,1.1-1.2,2.2,0,3.1c1.3,1.1,2.7,1.9,4.1,2.9c0.5,0.4,1.2,0.6,1.7,1c0.4,0.4,0.9,0.8,1.1,1.4c0.5,1-0.1,1.9-1.1,1.8
		c-1.1-0.1-2.3-0.2-3.3-0.5c-2.6-0.7-5.1-1.5-7.7-2.3c-2.1-0.6-4.1-1.5-6.3-1.9c-1.9-0.3-3.8-0.2-5.7-0.1c-1.2,0-2.3,0.4-3.5,0.6
		c-0.7,0.1-1.3,0.3-2,0.4c-0.1,0-0.3,0.2-0.3,0.3c0,0.1,0,0.4,0.1,0.5c0.6,0.3,1.2,0.5,1.8,0.8c1,0.5,1,0.6,0.4,1.6
		c-0.7,1-1.1,2.1-1.8,3.1c-0.8,1.1-1.7,2.1-2.7,3.1c-1,1-1.8,1-3.1,0.4c-0.2-0.1-0.4-0.2-0.4-0.3c-0.4-1.6-1.5-2.8-2.3-4.1
		c-0.4-0.8-0.9-1.6-1.6-2.1c-0.8-0.5-1.8-0.7-2.7-0.7c-2.3,0-4.7-0.3-7,0.2c-1.1,0.2-2.3,0.1-3.4,0.1c-0.2,0-0.4,0.1-0.6,0.2
		c0.2,0.2,0.3,0.5,0.5,0.7c0.1,0.1,0.3,0.1,0.5,0.1c1.4,0.1,2.2,0.9,2.7,2c0.7,1.3,1.3,3.7,1.4,5.1c0,0.7-1.1,1.4-1.7,1.1
		c-1.3-0.7-2.7-0.9-3.7-2.4c-1-1.4-2.4-2.6-3.6-3.9c-0.2-0.3-0.5-0.5-0.7-0.8c-0.8-1.7-2.3-1.9-3.9-2c-1.4-0.1-2.7-0.2-4.1-0.3
		c-1.8-0.2-3.5-0.7-5.2-1.4c-0.4-0.2-0.8-0.3-1.2-0.4c-1.8-0.2-3.7-0.3-5.5-0.4c-1.1-0.1-2.1-0.2-3-1c-0.5-0.6-0.5-0.8,0.2-1.2
		c1-0.5,1.9-0.9,3-1.2c0.5-0.1,0.6-0.2,0.4-0.6c-0.4-0.6-0.7-1.1-1.1-1.6c-0.6-0.8-1.3-1.6-0.4-2.7c-0.3-2,1.4-2.2,2.6-2.8
		c2.7-1.2,5.5-1.7,8.4-2.3c1.7-0.3,3.4-0.6,5-1.2c1.7-0.6,3.5-0.5,5.3-1c1.3-0.3,1.4-0.3,1.3-1.7c0-0.3,0.1-0.9,0.3-0.9
		c1.6-0.4,1.4-1.8,1.8-3c0.3-1.1,0.7-2.2,1-3.2c0.2-0.5,0.5-0.7,1-0.4c0.7,0.4,0.7,0.5,1,0.1c0.2-0.3,0.4-0.6,0.6-0.9
		c0.4-0.6,0.7-0.9,0.9,0.1c0,0.1,0.6,0.2,0.8,0.1c0.5-0.3,0.8-0.7,1,0.3c0.3,1,0.4,1,1.5,0.5c0.1-0.1,0.3,0,0.5-0.1
		c0,0.2,0.1,0.4,0.1,0.6c-0.1,0.6-0.3,1.2-0.4,1.9c-0.1,0.5,0,1,0.8,0.7c0.1-0.1,0.5,0.1,0.6,0.2c0.1,0.2,0,0.5-0.1,0.6
		c-0.5,0.9-0.5,0.9,0.4,1.1C37.2,6.8,37.4,7,37,7.4c-0.3,0.3-0.6,0.6-0.3,0.9c0.6,0.5,0.4,0.7,0,1.2c-0.9,1.2-0.4,2.1,1.2,2.2
		c0.3,0,0.6,0,0.9,0c0.9-0.1,2,0.1,2.8-0.3c0.8-0.4,1.2-1.4,1.8-2.2c0.5-0.7,0.8-1.5,1.3-2.1c0.3-0.5,0.7-0.9,1.2-1.3
		c1.1-0.8,1.5-0.7,2.1,0.4c1.1,1.9,2.2,3.8,4,5.1c0.2,0.2,0.4,0.4,0.6,0.7c0.7,1,0.3,1.7-0.9,2c-0.2,0.1-0.4,0.3-0.6,0.4
		c0.2,0.1,0.4,0.3,0.6,0.4c0.2,0.1,0.4,0,0.5,0.1c1.3,0.6,2.7,0.8,4.2,0.9C57.9,15.7,59.5,16,61.1,16.1z"/>
	<path d="M21.9,16.6c-0.1,0.7,0,1.1-0.2,1.3c-0.5,0.9-0.7,1.7,0,2.6c0.1,0.1-0.1,0.3-0.2,0.4c-0.1-0.1-0.4-0.1-0.4-0.3
		c-0.2-0.8-0.6-1.5-0.2-2.4c0.5-0.9,0.6-1.9-0.1-2.8c-0.1-0.1,0.1-0.3,0.1-0.4c0.1,0.1,0.2,0.1,0.3,0.2
		C21.5,15.8,21.7,16.3,21.9,16.6z"/>
	<path d="M34.4,15.7c-0.1,0-0.2,0-0.4,0c-0.6-0.2-1.3,0.4-1.7-0.5c0.6-0.1,1.2-0.2,1.8-0.3c0.2,0,0.4,0,0.5,0.1
		c0.5,0.2,1.3-0.6,1.7,0.4c-0.6,0.1-1.2,0.2-1.8,0.3C34.5,15.7,34.4,15.7,34.4,15.7C34.4,15.7,34.4,15.7,34.4,15.7z"/>
	<path d="M27.1,15.4c-0.6-0.1-1.1-0.2-1.5-0.3c0.2-0.7,0.9-0.6,1.3-0.5c0.7,0.1,1.5-0.5,2,0.4C28.2,15.2,27.6,15.3,27.1,15.4z"/>
	<path d="M52.5,19.7c-0.3,0-0.7,0-1,0c-0.1,0-0.2-0.1-0.3-0.2c0.1-0.1,0.2-0.2,0.3-0.2c0.6,0,1.3,0,1.9,0c0.1,0,0.2,0.1,0.3,0.2
		c-0.1,0.1-0.2,0.2-0.3,0.2C53.1,19.7,52.8,19.7,52.5,19.7z"/>
	<path d="M31.9,15.2c-0.2,0.2-0.3,0.5-0.4,0.5c-0.2,0-0.4-0.1-0.6-0.2c0.1-0.1,0.2-0.4,0.3-0.4C31.4,15,31.6,15.1,31.9,15.2z"/>
	<path d="M11.3,19.7c-0.7,0.2-1.1-0.4-1.5-0.9c-0.1-0.1-0.1-0.4,0-0.6c0.1-0.3,0.2-0.5,0.2-0.7c0.1-0.9,0.6-1.4,1.4-1.4
		c0.8,0,1.8,1,1.8,1.9C13.1,18.9,12.4,19.7,11.3,19.7z"/>
</g>
</svg>
