<?xml version="1.0" encoding="iso-8859-1"?>
<!-- Generator: Adobe Illustrator 25.3.0, SVG Export Plug-In . SVG Version: 6.00 Build 0)  -->
<svg version="1.1" id="Calque_1" xmlns="http://www.w3.org/2000/svg" xmlns:xlink="http://www.w3.org/1999/xlink" x="0px" y="0px"
	 viewBox="0 0 80 61" style="enable-background:new 0 0 80 61;" xml:space="preserve">
<g>
	<path d="M25.2,0c4.2,0,7.8,0.6,11.4,1.3c3.5,0.8,6.9,1.6,10,3.3c3.2,1.7,6.2,3.7,9.3,5.7c0.9,0.6,1.5,1.5,2,2.4
		c0.8,1.4,1.5,2.8,1.6,4.5c0.1,1,0.6,1.2,1.5,0.7c0.6-0.3,1.2-0.5,1.8-0.9c2.1-1.3,4.4-1.5,6.7-1.4c1.6,0.1,2.8,1.1,3.9,2
		c1.1,1,2.2,2,2.8,3.5c0.3,0.8,0.9,1.4,1.3,2.1c0.3,0.5,0.5,0.4,1,0.4c1-0.1,1.3,0.2,1.4,1.2c0.2,1.6-0.1,3-1.2,4.1
		c-0.5,0.5-0.7,0.9-0.4,1.6c0.2,0.4,0.1,0.9-0.1,1.4c-0.9,3.6-3.1,6.3-5.8,8.6c-1.1,0.9-2.3,1.3-3.8,0.8c-1.3-0.4-2.7-0.7-4-1
		c-0.4-0.1-0.8-0.2-1.2-0.2c-1.1-0.1-1.2,0-1.5,1.1c-0.5,1.7-1.4,3.1-2.5,4.4c-3.2,3.5-6.5,7-10.6,9.5c-3.5,2.2-7.4,3.8-11.5,4.7
		c-3.4,0.8-6.8,1.1-10.3,1c-5.2-0.2-10.3-1.1-15.1-3.3c-2.9-1.3-5.6-3.2-7.5-5.9c-2.6-3.6-4.1-7.7-3.6-12.2c0.1-0.8,0.2-1.7,0.4-2.5
		c0.5-1.9,0-3.6-0.3-5.4c-0.1-0.6,0.1-1.3,0.1-1.9c0-0.9,0.2-1.9,0.1-2.8c-0.2-1.5-0.6-3-0.9-4.5C0,22.1,0,21.9,0,21.7
		c0.4-2.9,0.4-5.9,1.9-8.6c1.4-2.5,3-4.7,5.4-6.3c3-2.1,6.3-3.9,9.7-5.2C19.8,0.5,22.7-0.1,25.2,0z"/>
	<path d="M70.9,26.6c0.5,0,1,0.1,1.5,0.1c0.1,0,0.2,0.2,0.2,0.3c0,0.1-0.1,0.2-0.2,0.3c-0.7,0.1-1.4,0.4-1.9-0.3
		C70.6,26.8,70.8,26.7,70.9,26.6z"/>
	<path d="M12.9,29.2c-0.3-0.1-0.7-0.1-1-0.3c-0.3-0.2-0.8-0.5,0.1-0.8c0.8-0.2,1.5-0.7,2.3-1c0.4-0.1,0.7,0.6,0.6,1
		C14.5,29.1,13.8,29.2,12.9,29.2z"/>
	<path d="M15,34.1c0,0.1,0,0.2-0.1,0.3c-0.8,0.9-2.4,1-3.2,0.3c-0.1-0.1-0.1-0.4,0-0.4c0.3-0.3,0.7-0.5,1-0.7
		c0.1-0.1,2.2,0.3,2.3,0.4C15,33.9,15,34,15,34.1z"/>
	<path d="M10.8,28.4c-0.3-0.2-0.4-0.4-0.6-0.5c0.2-0.2,0.3-0.4,0.5-0.5c0.1,0.2,0.4,0.3,0.4,0.5C11.2,28,11,28.2,10.8,28.4z"/>
	<path d="M10.9,34.5c-0.3,0.2-0.5,0.4-0.7,0.5c-0.1,0-0.2-0.2-0.3-0.3c0.2-0.2,0.4-0.4,0.6-0.5C10.5,34.1,10.7,34.3,10.9,34.5z"/>
</g>
</svg>
