<?xml version="1.0" encoding="iso-8859-1"?>
<!-- Generator: Adobe Illustrator 25.3.0, SVG Export Plug-In . SVG Version: 6.00 Build 0)  -->
<svg version="1.1" id="Calque_1" xmlns="http://www.w3.org/2000/svg" xmlns:xlink="http://www.w3.org/1999/xlink" x="0px" y="0px"
	 viewBox="0 0 83.3 16.2" style="enable-background:new 0 0 83.3 16.2;" xml:space="preserve">
<g>
	<path d="M23.9,0c7.7,0.1,14.5,0.7,21.3,2.4c3.3,0.8,6.8,1.3,10.2,1.6c3.1,0.3,6.2,0,9.3,0.3c3.6,0.3,7.3,0.1,10.9,0.9
		c1.3,0.3,2.6,0.3,3.9,0.5c1.7,0.3,3.1,1,3.6,2.8c0.4,1.2,0.1,1.8-0.9,2.6c-0.7,0.5-1.4,1.1-2.2,1.6c-0.2,0.1-0.4,0.1-0.6,0.1
		c0-0.3-0.2-0.6,0-0.8c0.5-0.6,1.1-1,1.7-1.6c0.2-0.2,0.5-0.5,0.6-0.8c0.1-0.5,0-1.1-0.7-1.3c-1-0.2-2.1-0.5-3.1-0.7
		c-0.8-0.1-1.7,0-2.5-0.1c-2.1-0.1-4,0.3-6,1.1c-2.9,1.1-6,1.8-9.1,2.4c-3.2,0.7-6.4,1.3-9.6,1.9c-1.6,0.3-3.3,0.5-4.9,0.7
		c-3.6,0.5-7.2,0.9-10.8,1.3c-1.7,0.2-3.4,0.3-5.2,0.5c-1.2,0.1-2.5,0.3-3.7,0.4c-2.2,0.1-4.4,0.2-6.6,0.3c-0.5,0-1.1-0.2-1.6-0.3
		c-2.6-0.9-5.2-2-7.6-3.6c-1-0.7-2.2-1.1-3.4-1.6c-1.7-0.8-3.4-1.5-5-2.3C0.3,7.6,0,6.2,0,4.8c0-0.8,0.6-1.4,1.4-1.7
		C3,2.3,4.8,1.8,6.6,1.5c2.6-0.4,5.2-0.7,7.8-1.1c0.2,0,0.4,0,0.5,0C18.1,0.2,21.4,0.1,23.9,0z"/>
</g>
</svg>
