<?xml version="1.0" encoding="iso-8859-1"?>
<!-- Generator: Adobe Illustrator 25.3.0, SVG Export Plug-In . SVG Version: 6.00 Build 0)  -->
<svg version="1.1" id="Calque_1" xmlns="http://www.w3.org/2000/svg" xmlns:xlink="http://www.w3.org/1999/xlink" x="0px" y="0px"
	 viewBox="0 0 79.9 19.1" style="enable-background:new 0 0 79.9 19.1;" xml:space="preserve">
<g>
	<path d="M38.6,19.1c-3.3-0.2-6.2-0.2-9-0.5c-1.8-0.2-3.6-0.3-5.4-0.3c-2.7,0-5.5-0.4-8.2-0.7c-3.8-0.4-7.5-1.4-11.1-2.5
		c-0.8-0.3-1.7-0.5-2.5-0.9c-0.6-0.3-1.1-0.7-1.6-1.2c-0.3-0.3-0.4-0.8-0.1-1.1c0.3-0.3,0.3-0.4,0.1-0.7c-1.5-2.1-1.2-3.5,1.1-4.6
		c2.2-1.1,4.4-2.2,6.6-3.3C9.2,3,9.8,2.6,10.4,2.2c0.6-0.3,1.2-0.7,1.8-0.8c1.5-0.2,3-0.2,4.4-0.4c3.1-0.4,6.3,0,9.3-0.4
		c3.5-0.5,6.9-0.7,10.3-0.6c2.3,0.1,4.6,0.3,6.9,0.8c3.4,0.8,6.8,1.8,10.1,2.8c0.9,0.3,1.7,0.8,2.6,1.2c0.7,0.4,1,1.2,0.6,2
		c-0.3,0.6-0.1,0.7,0.4,0.8c1.1,0.2,2.2,0.6,3.3,0.7c2.2,0.2,4.1-0.7,5.9-1.8c2.7-1.5,5.3-3.1,8.5-3.7c1.2-0.2,2.5-0.5,3.7-0.5
		c1.2-0.1,1.7,0.5,1.7,1.7c0.1,1.6-0.4,3-1,4.5c-0.6,1.5-0.7,3,0,4.5c0.8,1.6,0.8,3.3,0.2,5c-0.4,1.2-0.8,1.5-2,1.1
		c-2.2-0.6-4.4-1.2-6.5-2c-3-1.1-5.9-2.4-8.9-3.7c-2-0.8-3.9-0.8-6-0.4c-0.4,0.1-0.8,0.1-1.2,0.1c-0.1,0-0.3,0.1-0.4,0.2
		c0.1,0.1,0.1,0.2,0.2,0.3c0.4,0.2,0.9,0.4,1.3,0.7c0.6,0.4,0.5,1-0.2,1.3c-3.6,1.7-7.2,3-11.3,3.2C42.2,18.8,40.2,19,38.6,19.1z"/>
</g>
</svg>
