<?xml version="1.0" encoding="iso-8859-1"?>
<!-- Generator: Adobe Illustrator 25.3.0, SVG Export Plug-In . SVG Version: 6.00 Build 0)  -->
<svg version="1.1" id="Calque_1" xmlns="http://www.w3.org/2000/svg" xmlns:xlink="http://www.w3.org/1999/xlink" x="0px" y="0px"
	 viewBox="0 0 84.6 30.5" style="enable-background:new 0 0 84.6 30.5;" xml:space="preserve">
<g>
	<path d="M51.4,10.6c2.3,0.1,4.6,0.1,6.9-0.6c1-0.3,2.2-0.1,3,0.8c0.4,0.4,0.8,0.8,0.6,1.5c-0.2,0.8-0.1,1,0.7,0.8
		c1-0.2,2.1-0.5,3.1-0.9c3.7-1.5,7.5-2.7,11.4-3.4c1.3-0.2,2.5-0.6,3.8-0.9c0.9-0.2,1.7,0.1,2.3,0.6c0.9,0.7,0.9,1.7,0.6,2.7
		c-0.4,1.1-1.1,1.8-1.9,2.5c-1.9,1.6-1.6,3.2,0,4.4c0.8,0.6,1.5,1.4,2,2.2c0.8,1.2,0.9,2.5,0.1,3.7c-0.7,1-1.9,1.4-3.2,1
		c-2.1-0.6-4.1-1.1-6.2-1.7c-1.7-0.4-3.5-0.8-5.2-1.3c-1.1-0.3-2.2-0.5-3.2-1c-1-0.5-2.1-0.4-3.2-0.4c-0.2,0-0.5-0.1-0.2,0.3
		c1,1.3,1,2.9-0.1,4.2c-1.5,1.6-3.3,2.5-5.5,2.7c-0.7,0.1-1.3,0-2,0c-1.8,0.2-3.4-0.4-5-1.1c-2-1-4.2-1.6-6.5-1.4
		c-0.4,0-0.6,0-0.5,0.6c0.2,0.7,0.1,1.4,0.1,2.1c-0.1,1.8-1.6,2.8-3.3,2.4c-1.7-0.4-2.8-1.7-3.5-3.1c-0.7-1.7-1.9-2.1-3.5-1.9
		c-1.6,0.1-3.1,0.1-4.7,0c-2.1-0.1-4.3-0.4-6.4-0.7c-1.3-0.1-2.6-0.2-3.9-0.4c-0.5-0.1-1-0.2-1.6-0.4c-0.6-0.2-1.2-0.3-1.9-0.2
		c-0.8,0.2-1.6-0.2-2.4-0.3c-1.5-0.2-2.9-0.4-4.4-0.6c-0.1,0-0.4,0.3-0.3,0.4c1,2.2,1.4,4.7,3.8,6c0.1,0.1,0.2,0.1,0.3,0.2
		c0.1,0.1,0.1,0.4,0,0.5c-0.1,0.1-0.4,0.2-0.4,0.1c-0.7-0.5-1.5-0.9-1.9-1.6c-0.9-1.5-1.6-3.2-2.3-4.8c-0.4-0.9-0.9-1.5-1.9-1.7
		c-0.6-0.1-0.8,0.1-0.7,0.7c0.2,1.3,0.7,2.5,1.5,3.6c0.2,0.3,0.4,0.6,0.6,0.9c0.1,0.1,0,0.3,0,0.4c-0.1,0-0.3,0-0.3-0.1
		c-0.3-0.3-0.7-0.7-0.9-1.1c-0.5-0.8-0.9-1.7-1.3-2.5c-0.1-0.2-0.2-0.4-0.3-0.7c-0.1,0.3-0.4,0.5-0.4,0.8c-0.1,1.1-0.3,2.1,0.2,3.2
		c0.1,0.2-0.1,0.4-0.1,0.6c-0.2-0.1-0.4-0.2-0.5-0.4c-0.6-0.9-0.4-1.8-0.4-2.8c0-0.2,0-0.5-0.1-0.7c-0.2,0.1-0.4,0.2-0.6,0.3
		c-0.3,0.1-0.7,0.5-0.9,0.4c-0.3-0.2-0.5-0.6-0.7-1c0-0.1,0.1-0.3,0.2-0.4c0.5-0.4,1-0.8,1.5-1.3c0.7-0.7,0.7-0.9,0.1-1.7
		c-0.2-0.3-0.6-0.6-0.8-0.9c-0.8-1.2-0.7-2.1,0.3-3.1C1.5,16.2,1.8,16,2,15.8c0.3-0.3,0.3-0.6,0-0.9c-0.3-0.4-0.7-0.8-1-1.3
		c-0.2-0.4-0.9-1,0.3-0.6c0-0.2,0.1-0.3,0.1-0.5C1.4,12,1.7,12,1.9,12.3c0.4,0.5,0.7,1.1,1,1.6c0.3,0.4,0.6,0.6,1.2,0.3
		c4.3-2,8.9-3.1,13.4-4.2c1.4-0.3,2.8-0.3,4.3-0.4c1.5-0.1,3.1-0.2,4.6-0.4c1.1-0.1,1.6-1,2.1-1.7c0.9-1.3,1.7-2.7,2.6-4
		c1.1-1.6,2.6-2.7,4.5-3.3c1.1-0.3,1.8,0,2.3,0.7c1.9,2.8,2.3,5.6-1,8C36.9,9,36.7,9,36.7,9.1c-0.1,0.1-0.2,0.3-0.2,0.4
		c0.1,0,0.2,0.1,0.3,0.1c1.7,0.1,3.5,0.2,5.2,0.4c1.7,0.2,3.3,0.5,5,0.6C48.4,10.7,49.9,10.6,51.4,10.6z"/>
	<path d="M40.1,16c3.5,0.1,6.9,0,10.4,0.4c5,0.5,10,0.1,15,0.3c0.8,0,1.7,0,2.5,0c0.1,0,0.2,0.1,0.3,0.1c-0.1,0.1-0.2,0.2-0.3,0.2
		c-0.4,0-0.7,0-1.1,0c-4.5,0-9.1,0.2-13.6,0c-2.9-0.1-5.7-0.3-8.6-0.3c-1.4,0-2.7-0.2-4.1-0.4C40.5,16.4,40.3,16.2,40.1,16L40.1,16z
		"/>
	<path d="M8.9,17.9c-0.8,0-1.3-0.5-1.2-1.4c0-0.8,0.5-1.3,1.4-1.2c0.7,0,1.5,0.7,1.5,1.3C10.5,17.3,9.8,17.9,8.9,17.9z"/>
	<path d="M5.9,20.7c-0.7-0.7-1.4-1.4-2.1-2c-0.1-0.1-0.1-0.3-0.1-0.4c0.1,0,0.2,0,0.3,0c0.9,0.6,1.7,1.2,2,2.3L5.9,20.7z"/>
</g>
</svg>
