<?xml version="1.0" encoding="iso-8859-1"?>
<!-- Generator: Adobe Illustrator 25.3.0, SVG Export Plug-In . SVG Version: 6.00 Build 0)  -->
<svg version="1.1" id="Calque_1" xmlns="http://www.w3.org/2000/svg" xmlns:xlink="http://www.w3.org/1999/xlink" x="0px" y="0px"
	 viewBox="0 0 231.5 73.5" style="enable-background:new 0 0 231.5 73.5;" xml:space="preserve">
<g>
	<path d="M80.3,9.9c5.7,1,10-0.8,14.6-2.8c9.1-3.9,18.6-7,28.7-7.1c2.2,0,3.5,0.7,4.8,2.6c2.2,3.3,3.2,6.9,3.8,10.6
		c0.4,2.4,1.6,3.4,3.8,3.8c6.7,1.2,13.3,2.6,20,3.7c1.9,0.3,4,0.1,5.9,0c2.1-0.1,4.2-0.7,6.4-0.7c3.4,0,3.9,0.5,5.2,4.1
		c0.2,0.7,0.9,1.7,1.3,1.7c3.6-0.3,7.2-0.7,10.8-1.4c4.3-0.8,8-3.2,11.6-5.5c7.5-4.9,15-9.8,22.5-14.7c2.4-1.6,5.1-2.3,8-2.1
		c1.8,0.1,3,1.4,2.5,2.9c-1.8,5.3-3.6,10.7-6,15.7c-1.2,2.5-3.9,4.4-6,6.5c-1.6,1.6-3.5,3.1-5.2,4.7c-2.1,2.2-2,3.8,0.2,5.9
		c2.5,2.4,5.3,4.6,7.6,7.2c3.2,3.6,6.1,7.4,9.1,11.2c0.7,0.9,1.2,2,1.4,3.1c0.1,0.7-0.1,2-0.6,2.2c-3.2,1.4-6.1,3.8-10.2,2.5
		c-7-2.3-13.1-6.5-19.6-9.8c-3.7-1.9-7.4-3.6-11.1-5.5c-4.2-2.1-8.7-1.9-13.2-1.7c-0.9,0-2,0.5-2.6,1.1c-4.4,4.2-8.7,8.5-13.1,12.8
		c-0.5,0.5-1,0.9-1.6,1.1c-3.2,1.4-5.5,3.7-6.9,6.9c-1,2.1-2.6,2.8-5,3.4c-5.9,1.5-11.1-1-16.6-1.7c-1.5-0.2-2.7-0.8-3.9,0.8
		c-0.6,0.7-2.2,0.8-3.2,0.7c-5.1-0.4-10.2-1-15.3-1.6c-1.5-0.1-3.1-0.6-4.4-0.2c-9,2.8-18.3,2.8-27.6,2.8c-1.3,0-2.7-0.1-4,0
		c-10.9,0.8-21.4-1.7-31.8-4.5c-5.3-1.4-10.5-2.8-15.8-4.4c-6.2-1.8-11.4-5.4-16.2-9.5c-1.6-1.4-3.3-2.7-5-4c-2.1-1.6-3-3.5-3.4-6.3
		c-1.3-7.7,3.2-11.7,9-14.7c5.2-2.6,10.5-4.9,15.9-7c6-2.3,12.2-4.3,18.3-6.3c8.9-2.8,17.9-4.7,27.2-5.6
		C74.1,10.7,77.6,10.2,80.3,9.9z"/>
	<path d="M66.4,31.6c8.9,0.8,17.8,1.6,26.7,2.4c0.5,0,1,0,1.5,0.1c6.4,0.4,13,0.3,19.3,1.2c11.1,1.5,22.3,1.1,33.3,0.6
		c8.5-0.4,16.9-0.4,25.4-0.8c3.1-0.1,6.2-0.6,9.4-0.8c0.4,0,0.7,0.5,1.1,0.8c-0.4,0.4-0.9,0.8-1.3,1.1c-0.1,0.1-0.3,0-0.5,0
		c-7.3,0.3-14.6,0.8-21.8,1c-6.8,0.2-13.7-0.1-20.5,0.1c-8.9,0.3-17.8,0-26.7-0.2c-6.6-0.1-13.2-1.1-19.7-1.8c-0.5,0-1-0.1-1.5-0.1
		c-9.8-0.4-19.6-0.7-29.3-1.1c-1,0-2,0.1-3-0.1c-1.2-0.2-2.4-0.7-3.6-1.1c0.7-1.6,2.2-0.8,3.3-0.9c2.7-0.1,5.3,0,8,0
		C66.4,32,66.4,31.8,66.4,31.6z"/>
	<path d="M34.9,46.2c-0.8-4.3-1.5-8.7-2.3-13c-0.1-0.4,0.2-0.9,0.2-1.4c0.4,0.2,1,0.2,1.2,0.5c0.6,0.8,1.3,1.6,1.4,2.5
		c0.5,5.1,0.9,10.1,1.1,15.2c0.2,2.9-1.3,5.4-3.1,7.6c-0.4,0.4-1.5,0.3-2.2,0.4c0.2-0.5,0.2-1.2,0.6-1.5
		C34.9,53.6,34.5,49.8,34.9,46.2z"/>
	<path d="M60.5,46.2c1,0.1,2.3-0.1,2.8,0.4c1.1,1.1,3.6-0.7,3.8,1.9c-1.5-0.1-3.1-0.1-4.6-0.5C61.7,47.8,61.2,46.8,60.5,46.2
		L60.5,46.2z"/>
	<path d="M84.5,48.2c0.2,0,0.7,0,1.1,0.2c0.2,0.1,0.6,0.5,0.5,0.7c-0.1,0.4-0.4,0.9-0.7,1c-0.8,0.2-1.6,0.2-2.4,0.1
		c-0.5-0.1-0.8-0.7-1.3-1c0.5-0.3,0.9-0.7,1.4-0.9C83.5,48.1,83.8,48.2,84.5,48.2z"/>
	<path d="M98.4,50.3c-1-0.1-1.5-0.1-1.9-0.3c-0.3-0.1-0.6-0.5-0.6-0.7c0.2-0.4,0.4-0.8,0.8-1c0.2-0.2,0.7-0.2,1-0.1
		c0.9,0.3,1.7,0.6,2.6,0.9C99.5,49.6,98.8,50,98.4,50.3z"/>
	<path d="M90,50.6c-0.8-0.5-1.3-0.9-1.9-1.3c0.8-0.4,1.6-0.9,2.5-1.1c0.5-0.1,1,0.5,1.5,0.8C91.5,49.5,90.8,50,90,50.6z"/>
	<path d="M72.7,47.8c-0.8,0.7-1.1,1.3-1.4,1.2c-0.9-0.1-1.7-0.5-2.5-0.8c0.3-0.3,0.5-1,0.8-1C70.5,47.3,71.4,47.6,72.7,47.8z"/>
	<path d="M76.5,47.8c0.7,0.6,1.2,1.1,1.7,1.6c-0.5,0.3-1.1,0.8-1.6,0.8C76,50,75.4,49.4,74.8,49C75.3,48.6,75.8,48.3,76.5,47.8z"/>
	<path d="M47.5,41.2c0.4-0.6,0.8-1.2,1.2-1.8c0.8,0.8,1.6,1.5,2.4,2.3c-0.4,0.1-0.9,0.4-1.3,0.3C49,41.7,48.2,41.4,47.5,41.2
		C47.5,41.2,47.5,41.2,47.5,41.2z"/>
	<path d="M105.4,50.6c-0.6-0.5-1-0.9-1.4-1.2c0.7-0.4,1.3-0.9,2-1.1c0.3-0.1,0.7,0.4,1.1,0.7C106.6,49.5,106.1,50,105.4,50.6z"/>
	<path d="M55.5,42.9c-0.4,0.5-0.5,0.8-0.7,1c-0.7-0.5-1.4-1.1-2.1-1.6c0,0,0.4-0.7,0.4-0.7C53.9,42,54.7,42.5,55.5,42.9z"/>
	<path d="M60.5,46.2c-1.3-0.1-3,0.8-3.7-1.1c0-0.1,0.1-0.3,0.2-0.4C58.6,44,59.6,45,60.5,46.2L60.5,46.2z"/>
</g>
</svg>
