<?xml version="1.0" encoding="iso-8859-1"?>
<!-- Generator: Adobe Illustrator 25.3.0, SVG Export Plug-In . SVG Version: 6.00 Build 0)  -->
<svg version="1.1" id="Calque_1" xmlns="http://www.w3.org/2000/svg" xmlns:xlink="http://www.w3.org/1999/xlink" x="0px" y="0px"
	 viewBox="0 0 85.7 37.5" style="enable-background:new 0 0 85.7 37.5;" xml:space="preserve">
<g>
	<path d="M14.8,7.8c1.5-0.2,3.1-0.3,4.6-0.5c1.2-0.1,2.3-0.7,3.1-1.6c1.7-1.8,3.5-3.4,5.7-4.5c0.2-0.1,0.4-0.2,0.6-0.4
		c0.9-0.5,2-1.2,2.8-0.4c0.6,0.6,0.6,1.9,0.6,2.8c-0.1,0.9-0.5,1.8,0.2,2.7c0.1,0.1,0,0.3,0,0.5c-0.1,0.6-0.2,1.2-0.3,1.7
		c0.6,0,1.3,0.1,1.9,0.2c1.2,0.1,2.4,0.3,3.5,0.3c1.1,0.1,2.1,0.2,2.9-0.9c0.3-0.5,1.1-0.5,1.6-0.1c0.1,0.1,0.1,0.4,0.1,0.6
		c-0.1,0.2-0.6,0.3,0.1,0.5c3.8,0.7,7.4,0.1,11.1-1.1c2.4-0.8,4.8-1.4,7.2-2.1c0.7-0.2,1.4,0,2.1,0.1c-0.3,0.6-0.5,1.3-0.9,1.8
		c-1,1.4-2.1,2.7-3.2,4c-0.7,0.9-0.8,1.1-0.2,2c1.1,1.6,2.3,3.2,3.5,4.7c1.1,1.4,2.5,2.5,4.4,2.9c0.1,0,0.2,0.3,0.4,0.4
		c-0.2,0-0.4,0.1-0.5,0.1c-5-1-9.7-2.8-13.6-6.3c-1.3-1.2-2.8-1.8-4.5-1.9c-0.9-0.1-1.8-0.4-2.7-0.3c-2.6,0.2-5.1,0.5-7.6,0.7
		c-0.2,0-0.3,0.1-0.5,0.1c0.1,0.1,0.2,0.3,0.4,0.4c1.5,0.2,1.7,1.2,1.6,2.5c0,0.2,0,0.4,0,0.5c0,1.7,0.4,3.2,2.2,3.9
		c0.1,0.1,0.2,0.3,0.3,0.4c-0.2,0-0.4,0.2-0.6,0.1c-0.7-0.3-1.4-0.7-2.1-1c-0.3-0.2-0.7-0.5-1-0.4c-2.5,0.2-3.9-1.6-5.1-3.2
		c-1.3-1.6-2.7-2.4-4.7-2.3c-0.9,0.1-1.8,0.1-2.8,0.2c0.5,0.7,1,1.3,1.5,2c0.7,1.1,1.3,2.3,2,3.4c0.3,0.4,0.6,0.9,0.9,1.3
		c0.3,0.4,0.7,0.5,0.7,1.2c0,0.2,0.4,0.6,0.6,0.8c1.1,0.7,2.3,1.3,3.5,1.9c0.3,0.2,0.7,0.3,1,0.5c0.2,0.1,0.2,0.4,0.3,0.6
		c-0.2,0-0.4,0-0.5,0c-1.7-0.8-3.3-1.6-5-2.4c-0.2-0.1-0.4-0.1-0.6-0.1c0.1,0.1,0.2,0.3,0.3,0.4c0.7,0.5,1.5,1,2.2,1.6
		c0.1,0.1,0.1,0.3,0.1,0.5c-0.1,0.1-0.3,0.1-0.4,0.1c-0.9-0.6-1.8-1.2-2.6-1.8c-3.1-2.4-5.9-5.2-7.9-8.6c-0.3-0.5-0.6-0.6-1.1-0.8
		c-1.8-0.5-3.6-0.3-5.4-0.3c-4.2,0-8.3-0.9-12.2-2.3c-0.7-0.3-1.3-0.9-1.8-1.4c-1-1-0.9-1.4,0.3-1.8C1.8,9,2.5,8.7,3.3,8.7
		c2,0,3.9-0.4,5.8-0.7c1.9-0.3,3.8-0.3,5.7-0.5C14.8,7.6,14.8,7.7,14.8,7.8z"/>
	<path d="M69.4,30.1c0.8,0,1.6-0.1,2.3,0c1.9,0.2,3.6-0.3,5.4-1.1c2.1-0.9,4.3-1.3,6.6-1.1c0.3,0,0.5,0.2,0.7,0.3
		c-0.1,0.3-0.2,0.5-0.4,0.7c-0.3,0.4-0.8,0.7-1.1,1.2C82.3,31,82.3,31.2,83,32c0.3,0.3,0.7,0.6,1.1,0.9c0.4,0.3,0.8,0.5,1.1,0.9
		c0.2,0.3,0.3,0.7,0.5,1c-0.4,0.1-0.8,0.4-1.1,0.4c-1-0.1-2-0.2-3-0.3c-2.2-0.4-4.4-0.9-6.5-1.8c-0.4-0.2-0.9-0.3-1.4-0.3
		c-1.6,0-3.1,0-4.7,0c-0.2,0-0.3,0.1-0.5,0.1c0.1,0.1,0.2,0.3,0.3,0.4c0.1,0.1,0.2,0.3,0.4,0.4c0.3,0.4,0.2,0.6-0.2,0.8
		c-1.8,0.7-3.5,1.6-5.3,2.1c-2.6,0.8-4.1-0.2-5-2.4c-0.2-0.5-0.4-0.8-1-0.8c-4.8-0.1-9.6-0.2-14.4-0.3c-0.2,0-0.4,0-0.5,0
		c-0.1,0-0.1,0-0.2,0.1c0.1,0.1,0.1,0.2,0.2,0.3c0.6,0.3,1.2,0.5,1.8,0.8c0.9,0.5,1.2,1.2,1.1,2c-0.3,1.4-0.9,1.6-2,0.7
		c-1.2-1-2.3-2.1-3.4-3.1c-0.2-0.2-0.5-0.4-0.7-0.4c-1.7-0.1-3.4-0.3-5.2-0.3c-1.6-0.1-3.2,0.1-4.8-0.4c-0.4-0.1-0.8-0.3-1-0.6
		c-0.1-0.2,0-0.8,0.1-0.9c2.3-0.9,4.6-1.9,7-2.5c1.6-0.4,3.4-0.3,5.2-0.4c1.2-0.1,2.6,0.2,3.5-0.2c1-0.5,1.5-1.8,2.2-2.7
		c0.3-0.4,0.6-0.9,1-1.3c0.6-0.6,1.3-0.7,1.9-0.1c1,1,1.9,2.1,2.8,3.2c0.1,0.1,0,0.4-0.1,0.6c-0.1,0.1-0.3,0.2-0.4,0.3
		c-0.4,0.3-0.8,0.5-1.2,0.8c0.6,0.2,1.1,0.4,1.7,0.5c3.4,0.4,6.9,0.3,10.4,0.4c2.3,0.1,4.5,0.3,6.8,0.5
		C69.4,30.2,69.4,30.1,69.4,30.1z"/>
	<path d="M53.8,4.7C53.3,5,53.2,5.1,53,5.1c-0.5,0-1,0-1.4,0c-0.2,0-0.6,0-0.7,0.1c-0.4,1.2-1.1,0.5-1.8,0.4
		c-2.4-0.3-4.8-1.1-7.2-0.9c-1.7,0.2-3.3,0.4-4.9,0.5c-0.2,0-0.5,0.1-0.7,0.1c-0.2-0.1-0.3-0.3-0.5-0.4c0.1-0.1,0.3-0.2,0.4-0.2
		c2-0.2,4-0.5,6-0.7c0.1,0,0.2,0,0.4,0c2.4,0.2,4.9,0.4,7.3,0.6c0.4,0,0.8,0,1.2-0.1c0.7,0,1.4-0.1,2.1-0.1
		C53.3,4.4,53.5,4.6,53.8,4.7z"/>
	<path d="M34.5,11.2c0.9-0.2,1.7-0.5,2.6-0.1c0.2,0.1,0.6,0.1,0.9,0.1c3.3,0,6.7,0,10,0c0.5,0,0.9-0.2,1.4-0.2c0.3,0,0.7-0.1,1.1,0
		c0.1,0,0.3,0.2,0.4,0.3c-0.1,0.1-0.2,0.2-0.3,0.3c-0.1,0-0.2,0-0.4,0c-4.9,0-9.8,0-14.7,0C35.1,11.5,34.8,11.3,34.5,11.2L34.5,11.2
		z"/>
	<path d="M15,10.8c0-0.4,0.1-0.7,0.6-0.7c1,0.1,2.1,0.2,3.1,0.3c0.1,0,0.2,0.1,0.3,0.2c-0.1,0.1-0.2,0.2-0.3,0.2
		c-0.4,0.1-0.9,0.2-1.4,0.2C16.6,11.1,15.8,10.9,15,10.8C15,10.8,15,10.8,15,10.8z"/>
	<path d="M37,30.5c1.2-1.1,2.8-1.3,4.3-1c0.6,0.1,1.1,0.7,1.5,1.1c0.3,0.3,0.2,0.5-0.2,0.6c-0.9,0.1-1.9,0.2-2.8,0.3
		c-0.1,0-0.2-0.1-0.2-0.2c0-0.1,0-0.3,0.1-0.3c0.3-0.2,0.6-0.3,1-0.5c0.1-0.1,0.3-0.1,0.4-0.2c-0.1,0-0.2-0.1-0.3-0.1
		c-1,0-2.2-0.3-3,0.7l0,0C37.5,30.7,37.2,30.6,37,30.5L37,30.5z"/>
	<path d="M47.3,31.2c-0.9,0-1.8,0-2.7,0c-0.2,0-0.3-0.1-0.5-0.1c0.1-0.1,0.3-0.2,0.4-0.2c1.8,0,3.7,0,5.5,0c0.1,0,0.3,0.1,0.4,0.2
		c-0.2,0-0.3,0.1-0.5,0.1C49,31.2,48.1,31.2,47.3,31.2C47.3,31.2,47.3,31.2,47.3,31.2z"/>
	<path d="M37.7,30.8c0.5,0,1.1-0.1,1.3,0.6c0,0-0.1,0.1-0.1,0.1C38.3,31.7,37.9,31.4,37.7,30.8L37.7,30.8z"/>
</g>
</svg>
