<?xml version="1.0" encoding="iso-8859-1"?>
<!-- Generator: Adobe Illustrator 25.3.0, SVG Export Plug-In . SVG Version: 6.00 Build 0)  -->
<svg version="1.1" id="Calque_1" xmlns="http://www.w3.org/2000/svg" xmlns:xlink="http://www.w3.org/1999/xlink" x="0px" y="0px"
	 viewBox="0 0 87.3 27.3" style="enable-background:new 0 0 87.3 27.3;" xml:space="preserve">
<g>
	<path d="M55.6,21.4c-0.1,0.9-0.2,1.9-0.3,2.8c-0.1,0.5-0.5,0.5-0.8,0.2c-1-0.9-2-1.9-2.9-2.9c-0.5-0.6-1.1-0.8-1.9-0.8
		c-3.3,0.1-6.6,0.1-9.8,0.4c-2.2,0.2-4.3,0.2-6.4,0.3c-0.8,0-0.8,0.1-0.4,0.8c0.8,1.1,1.6,2.2,2.3,3.4c0.2,0.3,0.4,0.6,0.5,0.9
		c0.1,0.2-0.1,0.5-0.2,0.8c-0.2-0.1-0.5-0.2-0.7-0.4c-1.1-1.4-2.2-2.8-3.2-4.3c-0.8-1.2-2-1.6-3.2-1.5c-2.3,0.1-4.4-0.6-6.5-1.3
		c-2.3-0.7-4.6-1.7-7-2.1c-0.1,0-0.2-0.1-0.3-0.2c0.1-0.1,0.2-0.2,0.3-0.2c1.2-0.5,2.5-0.4,3.7-0.4c0.2,0,0.4,0,0.5,0
		c-0.2-0.1-0.3-0.3-0.5-0.4c-1.9-1.1-4-1.4-6.2-1.6c-2.5-0.2-5-0.5-7.5-0.7c-0.9-0.1-1.8,0-2.7-0.1C1.8,14.2,1,14,0.3,13.9
		c-0.1,0-0.2-0.1-0.3-0.2c0.1-0.1,0.2-0.2,0.3-0.2c1.9,0,3.8,0,5.8,0.1c0.1,0,0.2,0.1,0.3,0.1c1.9,0,3.9,0.1,5.8,0
		c0.8,0,1.6-0.2,2.5-0.3c3.5-0.2,6.8-0.8,9.8-2.7c0.6-0.4,1.3-0.6,1.9-1c1.6-1.1,2.8-2.5,3.7-4.2c0.9-1.7,2.1-3.1,3.2-4.7
		c0.1-0.2,0.3-0.4,0.5-0.5C34,0.1,34.3,0,34.5,0c0.1,0,0.3,0.3,0.3,0.5c0.1,0.5,0,1.1,0.1,1.6C34.9,3,35,3.8,35.2,4.6
		c0.2,0.8,0.8,1.2,1.5,1.7c2.7,1.6,5.6,2.2,8.5,2.9c2.8,0.6,5.6,1.2,8.4,1.7c1,0.2,1.9,0.7,2.8,0.8c2.9,0.6,5.8,1.6,8.7-0.1
		c0.5-0.3,0.9-0.3,1.2,0.3c0.3,0.6,0.9,0.9,1.6,0.9c0.6,0,1.3,0.3,1.9,0.5c1.8,0.6,3.1,0.3,4.2-1.2c2.9-3.6,6.6-6.2,10.7-8.2
		c0.7-0.3,1.5-0.3,2.2-0.4c0.1,0,0.4,0.2,0.4,0.2c0,0.2-0.1,0.5-0.2,0.6c-0.4,0.3-0.8,0.6-1.2,0.8c-1.8,0.9-3.1,2.4-4.4,3.9
		c-1.2,1.5-2.5,2.9-3.8,4.3c-0.5,0.5-0.8,1-0.8,1.7c0,0.7-0.3,1.4-0.4,2.1c-0.6,0.6-1.2,0.7-1.8,0.1c-0.1-0.2-0.1-0.4-0.1-0.5
		c0.3-0.6,0.4-1.1-0.6-1.1c-10.2-0.7-20.3-2.7-30.4-4.3c-2.7-0.4-5.3-1.2-7.8-2C33,8.3,30.3,8.7,28,10.4c-2.7,2-5.8,3-9,4
		c-1,0.3-2,0.2-3,0.1c1,0.1,1.9,0.1,2.8,0.6c1.1,0.7,2.3,1,3.4,1.6c0.9,0.4,1.2,0.9,0.7,1.8c-0.2,0.3-0.6,0.4-1,0.3
		c0.4,0.1,0.9-0.1,1.2-0.3c1.1-0.7,2.3-1.5,1.7-3.1c-0.2-0.6-0.1-1.1,0.6-1.3c0.6-0.2,1.1,0.1,1.4,0.6c0.4,0.6,0.6,1.3,0.8,2
		c0.1,0.3,0.1,0.6,0.6,0.6c0.2-0.1,0.4-0.3,0.4-0.5c0.3-0.8,0.2-1.5,0-2.3c-0.2-0.5-0.4-1-0.7-1.5c-0.3-0.6-0.5-1.2,0.1-1.6
		c0.7-0.4,1.3-0.1,1.7,0.4c0.7,1,1.3,2,1.5,3.2c0.2,1.3,0.9,1.6,2.1,1.5c3.1-0.3,6.2-0.3,9.3,0.6c0.5,0.2,1.1,0.3,1.5,0.5
		c0.8,0.4,1.9,0.7,1.6,1.8c-0.2,1.1-1.3,0.6-2,0.7c-2.5,0.1-4.9,0.2-7.4,0.2c-0.2,0-0.4-0.1-0.6,0c0.2,0,0.4,0,0.6,0
		c2.2,0,4.4,0.1,6.7-0.2c7.9-0.9,15.8-1.6,23.5-3.7c3.5-0.9,6.4-0.5,8.8,2.5c1.7,2.1,3.9,3.8,6.1,5.4c0.2,0.1,0.4,0.2,0.5,0.4
		c-0.1-0.2-0.3-0.3-0.5-0.4c-1.9-1.3-3.6-3-4.9-4.9c-0.5-0.7-1-1.4-0.1-2.2c0.3,0.3,0.7,0.6,0.9,1c2.1,2.8,4.6,5.2,7.4,7.2
		c0.6,0.4,1.2,0.8,1.7,1.3c0.1,0.1,0.2,0.3,0.2,0.4c-0.2,0.1-0.4,0.2-0.5,0.2c-1.1-0.3-2.3-0.5-3.4-1c-2.5-1-4.8-2.4-6.6-4.4
		c-1.2-1.3-2.3-2.6-3.5-3.8c-0.4-0.4-1.1-0.7-1.7-0.8c-0.7-0.1-1.4,0.1-2.1,0.3c-0.2,0-0.3,0.1-0.5,0.2c0.2,0,0.3,0.1,0.5,0.1
		c0.2,0,0.4,0,0.5,0c0.1,0,0.2,0.1,0.3,0.1c-0.1,0.1-0.2,0.3-0.3,0.3c-0.3,0.1-0.7,0.3-1,0.3c-0.7,0.1-1.4,0.2-2.1,0.3
		c-0.1-0.1-0.1-0.1-0.2-0.1c0,0.1,0.1,0.1,0.2,0.2c0,0.2,0.1,0.5,0.1,0.7c0,0.9,0,0.9-1,0.5c-1-0.4-2-0.9-3-1
		c-1.1-0.1-2.3,0.2-3.5,0.4c-1.1,0.2-2,0.6-2.7,1.5C56.2,21.1,55.9,21.2,55.6,21.4c-0.2-0.2-0.4-0.3-0.6-0.2
		c-0.3,0.1-0.4,0.4-0.3,0.7c0.2-0.1,0.2-0.4,0.5-0.5C55.3,21.3,55.5,21.3,55.6,21.4z"/>
	<path d="M22.4,15c0,0.7-0.6,1.1-1.4,1.1c-0.6,0-1.1-0.4-1-0.9c0.1-0.6,0.7-1,1.4-1C22.1,14.2,22.4,14.5,22.4,15z"/>
	<path d="M74.7,16.7c-0.3,0.1-0.7,0.2-1,0.1c-0.6-0.1-1.1-0.4-1.6-0.7c0.6-0.1,1.1-0.2,1.7-0.2c0.3,0,0.6,0,0.9,0
		C75.1,16.2,74.8,16.5,74.7,16.7L74.7,16.7z"/>
</g>
</svg>
