<svg xmlns="http://www.w3.org/2000/svg" viewBox="-900 -2 1538 593" width="1538" height="593">
  <path d="M0,0 L32,0 L45,3 L59,4 L74,9 L79,12 L101,15 L111,19 L114,22 L133,26 L141,32 L154,35 L165,43 L168,46 L181,51 L191,60 L204,63 L212,69 L215,72 L215,74 L219,76 L228,82 L244,92 L251,98 L261,104 L265,109 L265,111 L269,113 L277,122 L285,128 L291,137 L297,144 L303,152 L307,157 L312,162 L316,169 L319,177 L326,191 L330,203 L331,208 L331,219 L330,222 L343,219 L379,204 L420,191 L453,180 L482,168 L503,160 L513,157 L525,153 L532,152 L572,152 L588,155 L596,159 L609,169 L617,179 L625,196 L628,208 L630,218 L632,227 L633,238 L634,264 L634,306 L633,322 L626,357 L621,370 L615,380 L603,394 L593,403 L582,410 L570,414 L560,416 L552,418 L542,418 L524,415 L503,409 L489,405 L473,402 L456,396 L439,388 L420,378 L402,368 L387,358 L354,342 L343,338 L335,335 L321,333 L330,347 L334,363 L338,370 L339,374 L339,382 L335,392 L326,400 L322,402 L315,410 L310,413 L306,414 L289,414 L283,413 L274,419 L260,421 L246,419 L236,424 L224,426 L207,425 L198,428 L184,429 L176,434 L173,435 L153,435 L146,439 L142,440 L121,440 L113,444 L102,445 L93,444 L85,449 L81,450 L70,450 L63,449 L57,452 L52,453 L41,453 L35,457 L27,459 L15,458 L10,457 L2,461 L-1,462 L-14,462 L-22,467 L-30,469 L-43,469 L-51,472 L-69,472 L-76,476 L-80,477 L-88,477 L-99,473 L-105,471 L-113,473 L-121,473 L-131,470 L-135,469 L-141,472 L-146,473 L-161,473 L-167,476 L-176,477 L-185,475 L-189,473 L-194,474 L-203,477 L-210,477 L-219,475 L-226,478 L-236,479 L-246,476 L-256,470 L-266,461 L-269,460 L-272,461 L-285,461 L-293,457 L-300,450 L-310,437 L-315,427 L-321,412 L-325,403 L-326,398 L-326,390 L-325,386 L-331,387 L-339,395 L-353,403 L-369,408 L-382,412 L-397,413 L-403,415 L-406,419 L-391,433 L-383,440 L-376,446 L-369,454 L-359,463 L-348,472 L-341,479 L-336,483 L-331,492 L-330,502 L-330,514 L-328,519 L-327,527 L-329,543 L-324,551 L-322,558 L-322,566 L-325,575 L-330,581 L-339,586 L-344,587 L-351,587 L-365,583 L-371,580 L-382,583 L-391,583 L-404,579 L-414,573 L-421,568 L-432,564 L-440,557 L-445,552 L-454,543 L-468,523 L-472,517 L-475,512 L-479,507 L-487,490 L-493,479 L-504,457 L-509,444 L-509,440 L-521,439 L-529,437 L-536,438 L-542,440 L-554,441 L-567,439 L-588,431 L-604,421 L-617,410 L-625,403 L-637,391 L-650,390 L-684,389 L-706,386 L-744,378 L-765,374 L-776,371 L-796,368 L-835,359 L-846,357 L-862,355 L-874,350 L-883,343 L-890,333 L-896,325 L-898,319 L-898,304 L-895,294 L-889,283 L-875,264 L-868,255 L-857,242 L-851,224 L-845,214 L-838,208 L-830,201 L-822,197 L-818,196 L-809,169 L-802,148 L-794,132 L-787,121 L-780,114 L-772,109 L-763,107 L-755,100 L-747,96 L-742,95 L-735,95 L-725,99 L-720,103 L-715,112 L-714,117 L-705,106 L-696,95 L-686,85 L-675,78 L-668,76 L-660,76 L-651,79 L-646,83 L-640,93 L-639,103 L-641,110 L-637,109 L-629,109 L-620,112 L-612,119 L-608,127 L-607,131 L-607,139 L-609,145 L-604,145 L-605,131 L-605,110 L-601,97 L-595,88 L-588,81 L-578,76 L-569,74 L-556,74 L-554,69 L-547,60 L-539,53 L-529,48 L-524,47 L-522,43 L-514,34 L-503,27 L-479,20 L-458,16 L-441,14 L-428,10 L-419,10 L-409,13 L-404,12 L-391,8 L-378,8 L-371,10 L-335,10 L-316,13 L-310,14 L-305,13 L-296,13 L-280,17 L-278,18 L-263,20 L-254,24 L-248,28 L-232,31 L-222,36 L-206,40 L-195,45 L-184,47 L-173,53 L-156,66 L-148,70 L-133,83 L-118,98 L-111,107 L-109,104 L-100,79 L-89,58 L-79,45 L-70,35 L-57,25 L-50,18 L-37,9 L-21,4 L-7,1 Z " fill="#000000" stroke="none" fill-rule="nonzero"/>
</svg>