<?xml version="1.0" encoding="iso-8859-1"?>
<!-- Generator: Adobe Illustrator 25.3.0, SVG Export Plug-In . SVG Version: 6.00 Build 0)  -->
<svg version="1.1" id="Calque_1" xmlns="http://www.w3.org/2000/svg" xmlns:xlink="http://www.w3.org/1999/xlink" x="0px" y="0px"
	 viewBox="0 0 84.1 24.4" style="enable-background:new 0 0 84.1 24.4;" xml:space="preserve">
<g>
	<path d="M2.4,20.1c-0.3,0.1-0.6,0.4-0.9,0.4c-0.4-0.1-0.9-0.3-1.2-0.6c-0.5-0.4-0.3-1,0.4-1.6c2.1-1.7,4.2-3.3,6.7-4.4
		c1.5-0.7,3-1.5,4.4-2.3c0.6-0.3,1.2-0.6,1.8-0.8c2.9-0.9,5.8-1.9,8.7-2.6c1.8-0.5,3.6-0.5,5.4-0.9c2.1-0.5,4.3-0.2,6.4-0.4
		c1.6-0.1,3.2-0.6,4.6-1.5c2.7-1.7,5.6-3.1,8.5-4.6c0.9-0.5,1.9-0.7,2.9-0.6c1,0.1,1.4,0.6,1.2,1.6c0,0.2-0.1,0.3-0.2,0.5
		c-0.8,1.7-1.1,3.6-1.6,5.4c-0.2,0.7,0,0.7,0.6,0.8c2.8,0.3,5.7,0.7,8.5,1c0.2,0,0.5,0,0.7,0c2.3,0.1,4.6-0.1,7,0.3
		c1.2,0.2,2.5-0.1,3.7-0.5c3-1,5.9-2.2,8.9-3.3c1.2-0.4,2.5-0.9,3.7-1.1c1.2-0.3,1.8,0.4,1.3,1.5c-0.6,1.4-1.3,2.8-2.4,3.9
		c-0.9,0.9-1.7,1.8-2.5,2.8c-1,1.2-0.9,1.8,0.2,2.9c1.6,1.6,2.9,3.3,4.1,5.1c1.5,2.3,0.5,3.1-1.8,3.2c-1.8,0.1-3.4-0.4-4.9-1.5
		c-1.9-1.4-3.9-2.4-6.1-3.3c-2.2-0.8-4.2-1.9-6.6-2.2c-0.4,0-0.7-0.1-1.1-0.2c-0.8,0-1.6,0-2.3,0c-0.1,0.7-0.2,1.4-0.2,2.1
		c-0.1,1.1-0.2,2.1-0.4,3.2c-0.1,0.9-0.3,1-1.3,1.2c-1.7,0.2-3.1-0.5-4.3-1.4c-1.2-0.8-2.2-1.9-3.2-2.8c-0.5-0.4-1-0.8-1.6-1.1
		c-0.6-0.4-1.2-0.6-1.8,0.1C47.2,18.7,46.6,18,46,18c-0.3,0-0.5-0.1-0.5,0.4c0,1-0.1,2-0.3,3c-0.1,0.7-0.6,1-1.3,0.9
		c-2.2-0.5-4.4-1-6.3-2.3c-0.7-0.5-1.4-0.9-2.1-1.4c-1.1-1-2.4-1-3.7-0.8c-1.8,0.2-3.6,0.4-5.5,0.7c-0.4,0-0.7,0-1.1,0.1
		c-0.5,0.1-1,0.4-0.9,1.1c0.1,1.1-0.3,2.1-0.9,3c-1.6,2.3-4.3,2.4-6.6,0.7c-0.5-0.3-1-0.8-1.3-1.3c-0.6-1.2-1.6-1.2-2.7-1.2
		c-0.7,0.1-1.4,0-2.2,0C7.9,20.8,5.1,21.1,2.4,20.1c0-1.6,0.6-2.2,2-1.6c2.4,1,4.8,0.9,7.2,0.6c1.1-0.1,2.2-0.2,2.7-1.4
		c0-0.1,0.1-0.2,0.2-0.3c2.8-0.9,5.5-2.5,8.6-2.1c0.4,0,0.7,0.2,1,0.4c1,0.9,2.2,1,3.4,0.8C31.3,16,35,16,38.8,16.2
		c3.6,0.2,7.3,0.1,10.9-0.5c5.8-0.9,11.7-1.4,17.5,0.2c1.4,0.4,2.3-0.2,2.6-1.7c0.4-1.8-0.1-2.9-1.6-3.2C67.8,11,67.5,11,67.1,11
		c-7.2,0.2-14.3-0.9-21.5-1.9c-10.5-1.4-20.8-1-30.8,2.8c-1.9,0.7-3.5,1.8-5.3,2.7C9,14.9,8.9,15.4,9,16c0.1,0.7,0,1.3-0.7,1.7
		c-0.4,0.1-0.6-0.1-0.8-0.3c0,0,0,0,0,0c0.1,0.1,0.2,0.2,0.3,0.3c-0.5,1.6-1.3,1.8-3,0.8c-0.8-0.5-1.5-0.5-2.2,0
		C2,18.9,1.9,19.4,2.4,20.1z"/>
	<path d="M6,15.7c0.1,0,0.2,0,0.4,0c0.6,0,1,0.3,1,0.9c0,0.2-0.2,0.4-0.4,0.5c-0.6,0.2-1,0-1.3-0.5c-0.1-0.1-0.1-0.3-0.1-0.5
		C5.7,16,5.9,15.9,6,15.7z"/>
	<path d="M34.7,11.9c-1.5,0-3,0-4.5,0c-1.1,0-2.1,0.2-3.2,0.3c-0.2,0-0.5-0.1-0.7-0.1c0,0-0.1-0.1-0.1-0.1c0-0.1,0-0.3,0.1-0.3
		c0.2-0.1,0.3-0.1,0.5-0.1c4-0.1,8-0.3,12-0.3c0.5,0,1,0.2,1.5,0.3c-0.3,0.8-1,0.4-1.5,0.4C37.5,11.9,36.1,11.9,34.7,11.9
		C34.7,11.9,34.7,11.9,34.7,11.9z"/>
	<path d="M47,11.5c0.2,0,0.5,0,0.7,0c0.5,0.1,1.1-0.3,1.5,0.3c-0.6,0.1-1.1,0.3-1.7,0.3c-0.8,0.1-1.6,0-2.3,0
		c-0.2,0-0.4-0.2-0.6-0.4c0.2-0.1,0.3-0.3,0.5-0.3C45.8,11.5,46.4,11.5,47,11.5C47,11.5,47,11.5,47,11.5z"/>
	<path d="M14.2,17.7c-0.1,0-0.3,0.2-0.4,0.1c-0.2-0.1-0.4-0.3-0.5-0.5c-0.3-0.4-0.6-0.7-0.9-1.1c-0.3-0.3-0.5-0.7-0.8-1.1
		c0.7-0.3,1,0.2,1.3,0.6c0.4,0.5,0.8,1,1.2,1.5C14.1,17.4,14.1,17.5,14.2,17.7z"/>
	<path d="M54.9,12.2c-1.3,0.4-2.5,0.6-3.8,0c-0.1,0-0.2-0.1-0.3-0.2c0.1,0,0.2-0.1,0.3-0.1C52.4,12,53.7,11.4,54.9,12.2L54.9,12.2z"
		/>
	<path d="M21.1,12.6c0.9-0.6,1.9-0.5,2.8-0.7c0.4-0.1,0.8,0.1,1.2,0.1c-0.4,0.1-0.7,0.2-1.1,0.2C23.1,12.4,22.1,12.5,21.1,12.6
		L21.1,12.6z"/>
	<path d="M16.8,13.3c-0.6,0.7-1.3,0.3-2,0.4c-0.8,0-1.6-0.1-2.4-0.1c0.8-0.1,1.6-0.2,2.5-0.2C15.5,13.3,16.1,13.3,16.8,13.3
		L16.8,13.3z"/>
	<path d="M58.9,12.6c-1,0-2,0-3,0c-0.3,0-0.6-0.2-0.9-0.4l0,0c1,0,2,0,3,0C58.3,12.3,58.6,12.5,58.9,12.6L58.9,12.6z"/>
	<path d="M64.3,13.3c0.3,0,0.6,0,0.9,0c0.7,0.1,1.4,0.2,2.1,0.2c-0.7,0-1.5,0.1-2.2,0.1C64.8,13.6,64.5,13.4,64.3,13.3L64.3,13.3z"
		/>
	<path d="M58.9,12.6c0.2,0,0.4,0,0.5,0c0.6,0.1,1.2,0.1,1.7,0.2c-0.6,0-1.3,0.1-1.9,0.1C59.2,12.9,59,12.7,58.9,12.6
		C58.9,12.6,58.9,12.6,58.9,12.6z"/>
	<path d="M21.1,12.6c-0.6,0.7-1.4,0.3-2.2,0.4l0,0C19.6,12.2,20.4,12.7,21.1,12.6L21.1,12.6z"/>
	<path d="M16.8,13.3c0.6-0.7,1.4-0.2,2.2-0.4l0,0C18.3,13.6,17.5,13.2,16.8,13.3L16.8,13.3z"/>
	<path d="M64.3,13.3c-0.1,0-0.2,0-0.3,0c-0.5,0-1-0.1-1.5-0.1c0-0.1,0.1-0.2,0.1-0.2C63.1,13,63.8,12.7,64.3,13.3L64.3,13.3z"/>
	<path d="M69.1,14c-0.3,0-0.5,0-0.7-0.1c-0.1,0-0.2-0.1-0.3-0.2c0.1,0,0.2-0.1,0.3-0.1c0.2,0,0.4,0,0.5,0c0.3,0,0.6,0.1,0.8,0.1
		C69.5,13.9,69.2,14,69.1,14z"/>
</g>
</svg>
