<?xml version="1.0" encoding="iso-8859-1"?>
<!-- Generator: Adobe Illustrator 25.3.0, SVG Export Plug-In . SVG Version: 6.00 Build 0)  -->
<svg version="1.1" id="Calque_1" xmlns="http://www.w3.org/2000/svg" xmlns:xlink="http://www.w3.org/1999/xlink" x="0px" y="0px"
	 viewBox="0 0 80.4 19.7" style="enable-background:new 0 0 80.4 19.7;" xml:space="preserve">
<g>
	<path d="M19.7,5.3c1,0,1.9,0,2.9,0c0.7,0,1.1-0.3,1.5-0.8c0.3-0.6,0.8-1.1,1-1.7c0.5-1.5,1.6-1.9,3-2c1.6-0.2,3.2-0.2,4.7-0.6
		c0.8-0.2,1.6,0.1,2.2-0.2c0.9-0.3,1.5,0.2,2.3,0.2c1.3,0,2.6-0.1,3.9,0c1.6,0.1,3.2,0.4,4.9,0.6c0.5,0.1,0.9-0.1,1.4,0
		c3.5,0.5,7,0.5,10.4,1.5c0.7,0.2,1.6,0,2.3,0.2c2.2,0.6,4.3,1.4,6.5,2c0.7,0.2,0.7,0.5,0.3,1c-0.2,0.2-0.3,0.5-0.5,0.7
		c-0.7,1-0.5,1.4,0.7,1.5c2,0.1,4,0,6-0.6c0.8-0.2,1.6-0.4,2.4-0.5c2.2-0.2,3.5,1.2,4.7,2.7c0.6,0.8,0.3,1.8-0.4,2.7
		c-1.4,1.8-3.2,2.1-5.3,1.7c-2.3-0.4-4.6-0.9-7-1.3c-0.5-0.1-1.1,0-1.6,0c-0.3,0-0.5,0.1-0.8,0.2c0.1,0.2,0.3,0.5,0.4,0.7
		c1,1.2,1,1.7-0.3,2.6c-0.9,0.6-1.9,1-2.8,1.4c-1.4,0.5-2.9,0.9-4.4,1.2c-1,0.2-1.8,0.8-2.9,0.7c-0.4,0-0.8,0-1.2,0
		c-0.3,0-0.6-0.1-0.9,0c-1.9,0.7-3.7,0.1-5.6,0.1c-1.4,0-2.8-0.3-4.1-0.4c-1.3-0.1-3-0.2-3.9-1.6c-0.2-0.3-0.6-0.6-0.9-0.9
		c-0.8-1-1.7-1.4-3.2-1.3c-3.9,0.2-7.9,0.1-11.8,0.1c-0.1,0-0.1,0-0.2,0c-0.5,0-0.9,0.1-1.4,0.1c0.4,0.3,0.8,0.7,1.1,1
		c0.3,0.3,0.7,0.7,0.8,1.1c0.2,0.6-0.1,0.9-0.8,0.8c-1.1-0.1-2.3-0.1-3.4-0.3c-0.3,0-0.6-0.3-0.9-0.5c-0.3-0.3-0.5-0.7-0.7-1
		c-0.4-0.6-0.8-0.8-1.6-0.9c-3.4-0.3-6.7-0.7-10-1.8c-2.1-0.7-4.1-1.6-5.8-2.9c-0.9-0.7-0.9-1.5-0.1-2.2C2.2,7.8,4.3,7,6.4,6.7
		c1.8-0.3,3.6-0.6,5.4-1c0.2,0,0.4-0.1,0.5-0.1C14.8,5.5,17.3,5.4,19.7,5.3C19.7,5.3,19.7,5.3,19.7,5.3z"/>
	<path d="M33.6,8.8c0.5,0,0.9,0,1.4,0.4c0.5,0.4,1.1-0.1,1.6-0.5c0.4,0.6,1,0.5,1.5,0.4C38.4,9,38.7,8.7,39,8.5c0,0,0.3,0.2,0.3,0.2
		c-0.3,0.7,0.1,0.6,0.6,0.6c0.3-0.1,0.9,0.7,0.7,1c0,0.1-0.3,0.1-0.4,0c-0.4-0.5-0.8-0.7-1.3-0.1c0,0.1-0.4-0.1-0.6-0.1
		c-0.5-0.1-0.9-0.2-1.4-0.3c-0.1,0-0.3,0.3-0.3,0.4c0,0.6-0.2,0.5-0.4,0.2c-0.3-0.2-0.5-0.4-0.8-0.6c-0.6-0.5-0.9,0.9-1.3,0.3
		c-0.4-0.7-0.9-0.3-1.4-0.4c-0.2,0-0.4-0.3-0.7-0.4c0.2-0.1,0.4-0.3,0.6-0.4C33,8.8,33.3,8.8,33.6,8.8z"/>
	<path d="M65.3,9.6c0,0.3,0,0.5,0.1,0.8c-0.6-0.1-1.4-1-1.8,0.3c-0.3-0.1-0.7-0.3-1-0.4c-0.3,0-0.6,0.2-0.9,0.2
		c-0.3,0-0.5-0.4-0.8-0.4c-0.5,0-0.9,0.1-1.4,0.1c-0.5,0-1,0-1.5,0c-0.1,0-0.1-0.3-0.1-0.4c0.5,0,0.8-1.3,1.5-0.3
		c0.1,0.1,0.4,0.2,0.7,0.2C61.8,9.6,63.5,9.6,65.3,9.6z"/>
	<path d="M46.9,9.3c0.5,0.1,0.9,0.6,1.4,0c0.3-0.4,0.5-0.1,0.7,0.1c0.6,0.4,1.1,0.2,1.5-0.4c0.1-0.3,0.3-0.5,0.5-0.7
		c0.3-0.3,0.6-0.6,0.8-0.9c-0.1,0.4-0.3,0.8-0.5,1.3C51.2,9,51,9.3,50.9,9.6c0.2,0.2,0.2,0.3,0,0.5c-0.5,0-1,0.1-1.4,0
		c-0.6-0.1-0.5,0.7-0.8,0.6c-0.4-0.1-0.6-0.4-1-0.6c-0.2-0.1-0.5,0-0.7,0C46.7,9.8,46,9.6,46.9,9.3z"/>
	<path d="M13.2,13.9c-0.2,0-0.5,0-0.7,0c-0.5-0.1-1-0.1-1.5-0.3c-0.1,0,0.9-0.5,1.5-0.3c1.3,0.4,2.4-0.2,3.6-0.5
		c0.1,0,0.3,0.1,0.5,0.1c-0.1,0.1-0.1,0.4-0.3,0.4c-1,0.3-2,0.5-3,0.7C13.2,14.1,13.2,14,13.2,13.9z"/>
	<path d="M11.8,8.6c1.2,0,2.3,0.1,3.5,0.1c0,0,0.1,0.1,0.1,0.1c0,0.1,0,0.3,0,0.3c-0.4,0.2-0.9,0.5-1.3,0.5c-0.9,0-1.9-0.2-2.8-0.4
		c-0.2,0-0.4-0.3-0.5-0.4c0.2-0.1,0.3-0.2,0.5-0.3C11.4,8.5,11.6,8.5,11.8,8.6C11.8,8.6,11.8,8.6,11.8,8.6z"/>
	<path d="M56.8,11c-0.1-0.2-0.2-0.3-0.3-0.4c-0.4-0.5-0.8-0.7-1.3-0.2c-0.6,0.5-0.6-0.3-0.6-0.4c-0.1-0.3,0.1-0.6,0.1-0.9
		c0.1,0,0.2,0,0.3,0.1c1,0.7,1,0.7,1.7,0C56.8,9,57,8.7,57.1,8.6c0.1-0.1,0.3-0.1,0.4-0.2c0,0.2,0,0.4-0.1,0.4
		c-0.8,0.4,0.1,1.1-0.4,1.6C57,10.6,56.9,10.7,56.8,11z"/>
	<path d="M42.4,9.1c0.6,0.1,1.2,0.1,1.7,0.3c0.1,0,0.2,0.4,0.2,0.6c0,0-0.2,0.2-0.2,0.1c-0.9-0.6-1.9-0.2-2.8-0.3
		c-0.1,0-0.2-0.2-0.4-0.3c0.1-0.1,0.1-0.2,0.2-0.2C41.6,9.2,42,9.2,42.4,9.1z"/>
	<path d="M46.9,9.3C46.4,9.6,47,9.8,47,10.1c0.1,0.2,0.2,0.3,0.2,0.5c0,0.1-0.1,0.2-0.2,0.3c-0.6-0.6-1.3-0.9-2.1-1.1
		c0,0,0-0.3,0-0.3c0.6-0.1,1.3-0.3,2-0.4C46.8,9.1,46.9,9.2,46.9,9.3z"/>
	<path d="M65.6,10.4c0.6-0.3,1.3-0.8,1.9-0.8c0.6,0,0.6,0.7,0.3,1.2C67,10.6,66.3,10.5,65.6,10.4z"/>
	<path d="M9.9,7.5c0.2,0,0.5,0,0.7,0c0.2,0,0.3,0.1,0.5,0.1c-0.1,0.1-0.3,0.2-0.4,0.2c-0.2,0-0.3,0.1-0.5,0.1c-0.5,0-1.1,0-1.6,0
		c0,0,0-0.1,0-0.1c0.5-0.1,0.9-0.3,1.4-0.4C9.9,7.4,9.9,7.5,9.9,7.5z"/>
	<path d="M50.9,10c0-0.2,0-0.3,0-0.5c0.6,0.1,1.2,0.1,1.7-0.4c0.1-0.1,0.3,0,0.4,0.1c-0.1,0.2-0.1,0.6-0.2,0.6
		C52.2,10,51.5,10,50.9,10z"/>
	<path d="M28.9,8.7c0.1,0.1,0.2,0.1,0.3,0.2c0.2,0.3,0.3,0.6,0.4,1c0.1,0.2,0.1,0.5,0.2,0.7c-0.2-0.2-0.5-0.3-0.7-0.5
		c-0.2-0.3-0.3-0.8-0.4-1.2C28.7,8.8,28.9,8.7,28.9,8.7z"/>
	<path d="M27.5,9.1c-0.1,0.2-0.2,0.5-0.3,0.7c-0.2-0.2-0.6-0.5-0.6-0.7c0-0.2,0.4-0.5,0.7-0.7C27.3,8.6,27.4,8.9,27.5,9.1z"/>
	<path d="M31.7,9.1c-0.1,0.1-0.3,0.4-0.4,0.3c-0.5-0.1-1-0.2-1.5-0.3c0,0,0-0.1,0-0.1c0.5-0.1,1-0.2,1.5-0.3
		C31.5,8.7,31.6,9,31.7,9.1z"/>
	<path d="M19.5,7.9c0.1-0.2,0-0.5,0.2-0.7c0.2-0.3,0.6-0.5,0.9-0.8c-0.2,0.4-0.4,0.8-0.6,1.2C19.9,7.7,19.7,7.8,19.5,7.9L19.5,7.9z"
		/>
	<path d="M13.6,7.9c-0.4,0-0.6,0-0.8,0c-0.1,0-0.1-0.1-0.2-0.2c0,0,0.1-0.1,0.1-0.1c0.2,0,0.5,0,0.7,0c0.3,0,0.6,0.1,0.8,0.2
		C14,7.7,13.8,7.8,13.6,7.9z"/>
	<path d="M41.4,7.5c0.1,0.2,0.2,0.3,0.2,0.3c-0.2,0.3-0.5,0.6-0.7,0.9c0-0.2-0.1-0.4-0.1-0.5C41,8,41.2,7.7,41.4,7.5z"/>
</g>
</svg>
