<?xml version="1.0" encoding="iso-8859-1"?>
<!-- Generator: Adobe Illustrator 25.3.0, SVG Export Plug-In . SVG Version: 6.00 Build 0)  -->
<svg version="1.1" id="Calque_1" xmlns="http://www.w3.org/2000/svg" xmlns:xlink="http://www.w3.org/1999/xlink" x="0px" y="0px"
	 viewBox="0 0 244.3 68" style="enable-background:new 0 0 244.3 68;" xml:space="preserve">
<g>
	<path d="M37.5,1.9c0.7-0.5,1.3-1,2-1.4c0.4-0.2,0.9-0.2,1.3-0.2c0,0.4,0,0.9-0.1,1.3c-0.7,2.2-1.4,4.4-2.1,6.6
		c-0.1,0.3,0.1,0.6,0.2,0.9c0.2-0.3,0.5-0.6,0.6-0.9c1.6-3.4,4.4-5.4,7.8-6.6c0.3-0.1,0.8,0.2,1.1,0.3c-0.1,0.3-0.1,0.7-0.4,0.9
		c-0.8,0.6-1.6,1.2-2.5,1.6c-2.9,1.3-3.8,4-4.7,6.7c-0.6,1.9,0.1,2.8,2.3,2.6c4.5-0.3,8.9-0.7,13.4-1.1c5.3-0.5,10.5-1.3,15.7-1.8
		c21.1-2.2,42.2-0.8,63.3-0.9c7.1,0,14.2,1.1,21.3,1.7c4.1,0.4,8.2,0.7,12.4,1.1c11.4,1.2,22.5,3.8,33.5,6.9
		c8.3,2.3,16.6,4.6,24.8,7.1c4.2,1.3,8.6,2.5,12.3,5.1c6.2,4.3,6.1,8.6-0.8,11.6c-5.6,2.5-11.4,4.5-17.7,4.5
		c-9.1,0.1-18.2,0.5-27.4,0.9c-2.1,0.1-4.3,0.7-6.2,1.5c-6.1,2.3-12.4,3.5-18.8,4.4c-0.8,0.1-1.7,0.1-2.5,0
		c-4.6-0.3-9.3-0.5-13.9-0.9c-5.3-0.5-10.5-1.5-15.8-1.7c-6.4-0.3-12.9-1-19.3,0.6c-2.9,0.7-5.8,1.5-8.7,1.9
		c-6.1,0.8-11.7-0.2-15.3-5.9c-1.7-2.6-3.5-5.3-4.8-8.1c-0.8-1.8-1.7-2.7-3.5-3.1c-1.9-0.4-3.8-1.3-5.7-1.5
		c-4.4-0.5-8.9-0.8-13.4-1.2c-9.5-0.9-19.2-0.8-28.3-4.5c-2.2-0.9-3.6-0.4-5,1.5c-3.8,5.1-7.8,10.1-11.8,15.1
		c-1.8,2.3-2.6,5-3.2,7.7c-0.9,3.7,0.3,6.5,3.6,8.5c2.8,1.7,5.9,3.1,9.4,2.1c0.4-0.1,1,0.3,1.6,0.5c-0.3,0.5-0.6,1.1-1,1.6
		c-0.2,0.2-0.6,0.3-0.9,0.4c-6.4,1.4-15.5-4.9-15.7-11.4c-0.1-2.9,1.7-6,2.7-8.9c0.4-1.2,1.6-2.2,1.9-3.5c0.4-1.3,2.5-1.9,1.6-3.7
		C20,41.2,18.8,42,18,43c-1.3,1.7-2.5,3.5-3.7,5.3c-2.1,3.3-2.8,6.7-0.4,10.3c0.3,0.4,0.1,1.2,0.2,1.8c-0.5-0.3-1.2-0.5-1.6-0.9
		C8.9,56,8.7,51.8,12.1,47c1.6-2.3,3.5-4.4,5.3-6.6c0.5-0.6,1-1.3,1.5-1.9c-0.8-0.2-1.5-0.3-2.3-0.5c-2.1-0.3-4.3-0.6-6.4-1
		c-0.8-0.2-1.6-0.5-2.2-1c-1.6-1.2-1.7-2.4,0.1-3.3c3.1-1.5,6.4-2.5,9.6-3.8c0.4-0.1,0.7-0.4,1-0.6c-0.3-0.1-0.6-0.3-0.9-0.3
		c-3.8,0.2-7.6,0.3-11.4,0.5c-1.5,0.1-3,0.4-4.4,0.5c-0.7,0-1.3-0.5-2-0.7c0.6-0.5,1.2-1.2,1.9-1.4c3.2-0.7,6.4-1.6,9.7-1.9
		c4.9-0.5,9.9-0.7,14.8-1.1c1.2-0.1,2.5,0.3,3-1.7c0.9-3.7,1.1-3.7-1.2-5.4c-5.8-4.5-11.6-9-15.6-15.2c-0.3-0.4-0.2-1.1-0.3-1.6
		c0.6,0.2,1.5,0.1,1.8,0.5c2.6,3.4,5.4,6.7,8.9,9.3c0.3,0.2,0.6,0.4,0.8,0.6c0-0.4,0.2-0.9,0.1-1.3c-0.7-2.3,0.4-4.1,2.2-5
		c3.2-1.6,6.7-2.7,10.1-3.9C36.5,0.1,37.1,1.3,37.5,1.9c-1.6,1.9-3.6,3.3-5.7,4.5c-1.2,0.7-1.8,1.9-1.2,3.4c0.3,0.6,0.8,1.2,1.5,1
		c1.4-0.3,1.6-1.7,1.7-2.7C34.1,5.4,35.6,3.6,37.5,1.9z"/>
	<path d="M37.5,27.8c0.1-0.3,0.2-0.9,0.2-0.9c2.3,0.3,4.5,0.6,6.8,1c0.2,0,0.2,0.4,0.4,0.7c-0.3,0.1-0.6,0.3-0.9,0.3
		c-1.1,0-2.3,0-3.4,0c-0.4-0.1-0.8-0.2-1.1-0.4C38.7,28.3,38.1,28,37.5,27.8z"/>
	<path d="M72,24.3c4.3,0.6,8.5,1.1,12.8,1.8c0.5,0.1,1.3,0.8,1.4,1.3c0.1,0.5-0.5,1.4-1,1.5c-2.2,0.8-4.3,1.6-6.6,1.9
		c-5.7,0.7-11.3,0.3-16.6-1.8c-0.9-0.4-1.5-1.5-2.2-2.2c0.9-0.6,1.8-1.6,2.8-1.7c3.1-0.2,6.3-0.1,9.5-0.1C72,24.7,72,24.5,72,24.3z"
		/>
	<path d="M50.1,29.9c-0.3,0-0.7,0-1,0c-0.3-0.1-0.6-0.2-0.9-0.3c0.3-0.2,0.6-0.5,1-0.7c1.5-0.6,3.1-1,4.6-1.7c1-0.5,1.8-1.4,2.8-2
		c0.9-0.5,0.5-2.6,2.3-1.8c-0.5,1-0.8,2.1-1.5,3C55.5,28.9,53.2,29.9,50.1,29.9z"/>
	<path d="M44.7,19c0.1,0.5,0.1,1,0.3,1.4c0.2,0.5,1.9,0.7,0.2,1.6c-2.5,1.3-3,1.2-4.3-1.2c-0.3-0.6-0.3-1.3-0.4-1.9
		C42,17.9,43.4,17.6,44.7,19z"/>
	<path d="M44.7,19c-1.4,0-2.8-0.1-4.1-0.1c-0.1-1.1,0.3-1.9,1.5-2c1.4,0,3-0.4,3.9,1.1C46,18.2,45.1,18.7,44.7,19z"/>
</g>
</svg>
