<?xml version="1.0" encoding="iso-8859-1"?>
<!-- Generator: Adobe Illustrator 25.3.0, SVG Export Plug-In . SVG Version: 6.00 Build 0)  -->
<svg version="1.1" id="Calque_1" xmlns="http://www.w3.org/2000/svg" xmlns:xlink="http://www.w3.org/1999/xlink" x="0px" y="0px"
	 viewBox="0 0 72 34.2" style="enable-background:new 0 0 72 34.2;" xml:space="preserve">
<g>
	<path d="M56.9,12c1.9,0.2,3.7-0.5,5.3-1.8c2.4-2,5.1-3.5,8.1-4.4c0.2-0.1,0.3-0.2,0.5-0.1c0.4,0,0.8,0.1,1.2,0.2
		c-0.1,0.4-0.2,0.7-0.5,1c-1.3,1.8-2,3.8-2.5,5.8c-0.3,1.3-0.3,2.9,0,4.2c0.4,1.8,0.4,3.7,1.3,5.5c0.4,0.9,0.8,1.7,1.1,2.6
		c0.1,0.2,0.1,0.6,0,0.8c-0.2,0.2-0.6,0.3-0.8,0.2c-1.6-0.7-3.2-1.4-4.7-2.2c-1.6-0.9-3-2.2-4.6-3c-1.9-0.9-4-1.4-6.2-1
		c-0.6,0.1-1.1,0.3-1.7,0.5c-0.5,0.2-1.2-0.2-1.3,0.6c0,0.2,0.8,0.4,1.1,0.6c0.8,0.5,0.9,0.9,0.6,1.8c-0.6,1.5-1.4,2.9-2.6,4
		c-1.2,1.1-3.3,1.5-4.7,0.5c-1-0.7-2.2,0-3.1-0.8c0,0-0.1,0-0.2,0.1c-0.6,1-1.2,0.5-1.9,0c-0.1-0.1-0.5-0.1-0.6-0.1
		c-0.6,0.3-0.9-0.1-1.2-0.5c-1-1.3-1-1.3-2.4-0.7C36.8,26,36.3,26,35.8,26c-1.5,0-3,0-4.5,0c-2.1,0.1-4.3,0.2-6.4,0.4
		c-0.3,0-0.7,0.2-0.9,0.5c-0.1,0.2,0.2,0.6,0.4,0.9c1,1.2,1.1,1.2,0.3,2.6c-0.6,1.1-1.3,2.1-2.1,3.1c-0.4,0.4-1.1,0.8-1.7,0.8
		c-0.7,0-1.1-0.7-1.1-1.4c0-0.2,0-0.4-0.1-0.5c-1.4-1.9-1.5-4.1-1.7-6.2c0-0.6-0.5-0.8-0.9-1c-2.2-0.9-4.4-1.7-6.6-2.6
		c-3.1-1.2-6-2.7-8.5-4.8c-0.2-0.2-0.4-0.4-0.7-0.6c-1.5-1.1-1.7-2.5-0.5-3.9c0.4-0.5,0.9-1,1.4-1.4c3-2.3,6.2-4.5,9.7-5.9
		c1.5-0.6,3-1,4.6-1.5c0.7-0.2,1.8-0.1,1.6-1.4C18.7,3,18.9,2.5,19.2,2c0-0.1,0.2-0.2,0.3-0.2c0.8,0.4,1.4,0.2,1.9-0.6
		c0.1-0.1,0.8,0.4,1.2,0.3C22.8,1.5,23,1,23.2,0.7c0.5,0.5,0.9,0.1,1.4,0.1c0.4-0.1,0.9,0.6,1.3-0.2c0-0.1,0.4,0,0.6,0.1
		c0.4,0.3,0.7,0.4,1-0.1c0,0,0.1-0.1,0.1-0.1C28.3,0.6,29.1,1,29.6,0c0,0,0.2,0,0.2,0c0.5,1.1,1.4,0,2,0.4c0.4,0.2,0.6,0,0.9-0.2
		c0.2-0.1,0.6-0.2,0.8-0.2c0.9,0.3,1.9,0.7,2.9,0.6c0.1,0,0.3,0,0.3,0.1C37,1.7,38,1.3,38.6,1.6c0.6,0.3,1.2,0.9,1.8,0.9
		c1.5-0.1,2.7,0.5,4.1,0.7c0.8,0.1,1.7,0.3,2.4,0.6c2.2,0.9,4.3,2.1,6.1,3.6c0.3,0.3,0.6,0.6,0.9,0.9c0.9,1.2,0.7,1.8-0.7,2.5
		c-0.1,0.1-0.2,0.2-0.3,0.2c0.1,0.1,0.2,0.2,0.3,0.2C54.2,11.9,54.9,12,56.9,12z"/>
	<path d="M6.7,14.6c-0.2,0-0.5,0-0.7,0c-0.7-0.1-1.1-0.5-1.3-1.1c-0.2-0.6,0.3-1,0.7-1.3c0.7-0.4,1.4-0.7,2.2-0.3
		c0.6,0.3,1.1,1,1,1.5C8.6,14,8,14.5,7.3,14.6C7.1,14.7,6.9,14.6,6.7,14.6z"/>
	<path d="M4.2,12.7c0.1,0.3,0.2,0.5,0.2,0.6c-0.1,0.4-0.7,0.7-1.1,0.6c-0.1,0-0.2-0.2-0.1-0.2C3.5,13.4,3.8,13.1,4.2,12.7z"/>
</g>
</svg>
