<?xml version="1.0" encoding="iso-8859-1"?>
<!-- Generator: Adobe Illustrator 25.3.0, SVG Export Plug-In . SVG Version: 6.00 Build 0)  -->
<svg version="1.1" id="Calque_1" xmlns="http://www.w3.org/2000/svg" xmlns:xlink="http://www.w3.org/1999/xlink" x="0px" y="0px"
	 viewBox="0 0 78.3 36.6" style="enable-background:new 0 0 78.3 36.6;" xml:space="preserve">
<g>
	<path d="M46.6,30.6c-1.3,0.1-2.7,0.1-3.6-1c-0.1-0.1-0.3-0.1-0.4-0.2c0,0.2,0.1,0.3,0.1,0.5c0,0.2-0.1,0.4-0.1,0.6
		c-0.2-0.1-0.4-0.1-0.5-0.2c-0.3-0.3-0.6-0.7-1-1c-0.4-0.4-0.6-1.3-1.5-0.7c-0.1,0-0.4-0.3-0.6-0.6c-0.3-0.5-0.6-1-0.9-1.5
		c-0.1-0.2-0.5-0.3-0.7-0.3c-3.1,0-6.2,0.1-9.3,0.2c-0.4,0-0.7,0-1.1,0c-1,0-1.1,0.1-0.5,0.9c0.5,0.6,0.6,1.2,0.4,2
		c-0.6,2.3-0.1,4.3,1.3,6.2c0.1,0.2,0.3,0.4,0.4,0.6c0.1,0.1,0,0.4-0.1,0.5c-0.1,0.1-0.4,0.1-0.5,0c-1.8-1.3-3.7-2.8-4.9-4.7
		c-0.9-1.4-1.2-3.1-1.7-4.6c-0.3-1.2-0.2-1.3-1.6-1.6c-1-0.2-2.1-0.5-3.1-0.8c-2.7-0.8-5.5-1.6-8.2-2.3c-2.4-0.6-4.5-1.9-6.8-2.8
		c-0.5-0.2-1-0.7-1.4-1.1C0.2,18.4,0,18,0,17.8c0.1-0.5,0.4-1,0.7-1.4C-0.1,16,0.4,15.5,0.6,15c0.1-0.3,0.3-0.5,0.5-0.7
		c1.8-1.2,3.7-2.3,5.5-3.6c3.9-2.8,8.2-4.2,12.8-5.2c0.3-0.1,0.6-0.2,0.9-0.2C21.1,5.3,21.5,5,21.5,4c0-1.7,0.6-2.4,2.3-3
		c0.5-0.2,0.7,0,0.5,0.5c-0.1,0.2-0.1,0.4-0.1,0.6c0.2-0.1,0.4-0.3,0.5-0.4c0.4-0.4,0.7-0.8,1.2-1.1c0.6-0.4,0.9-0.1,0.8,0.6
		c0,0.2,0,0.3,0,0.5c0.2-0.1,0.5-0.1,0.6-0.2c0.5-0.4,0.9-0.9,1.4-1.3c0.4-0.3,0.8,0,0.8,0.3c-0.1,0.9-0.1,1.1,0.6,0.3
		c0.3-0.3,0.6-0.6,0.9-0.9C31.3,0.1,31.7,0,31.7,0c0.6,1,1.3,0.1,1.9,0.1c0.2,0,0.4,0,0.4,0.1c0.1,0.1,0.1,0.4,0,0.5
		c-0.2,0.3-0.5,0.5-0.6,0.8c-0.1,0.2-0.1,0.4-0.1,0.6c0.2,0,0.4,0,0.5-0.2c0.2-0.3,0.4-0.6,0.6-0.9c0.1-0.2,0.3-0.5,0.4-0.5
		c0.5-0.1,1.1-0.3,1.5-0.1c0.5,0.3-0.1,0.7-0.3,1c-0.1,0.1,0,0.3-0.1,0.5c0.1,0,0.3,0,0.4-0.1c0.4-0.3,0.7-0.7,1.1-0.9
		c0.3-0.2,0.7-0.2,1-0.2c0.1,0,0.3,0.3,0.3,0.4c0,0.2-0.3,0.4-0.4,0.6c0,0.3,0.1,0.6,0.2,0.8c0.2-0.1,0.4-0.2,0.6-0.4
		c0.8-1.1,0.8-1.1,2.5-0.6c0.1,0,0.3,0,0.4-0.1c0.5-0.5,0.9-0.3,1.5-0.1c0.5,0.2,0.6,0.5,0.3,0.9c-0.1,0.1-0.2,0.3-0.3,0.4
		c0.2,0,0.5,0.2,0.7,0.1c0.3-0.1,0.6-0.3,0.9-0.5c0.8-0.8,1.5-1.2,2.8-0.4c0.7,0.5,1.9,0.2,2.9,0.2c1.5,0.1,3.1,0.2,4.6,0.4
		c1.4,0.2,2.6,0.9,3.6,1.8c1.1,1.1,1.2,2.6,0.8,4c-0.3,1.3-1,2.5-2.6,2.7c-0.2,0-0.4,0.2-0.6,0.3c0.2,0,0.5,0.1,0.7,0.1
		c2.5,0,4.9-0.6,7.3-1.4c1.1-0.4,2.1-0.8,3.2-1.2c3.1-1.2,6.4-1.4,9.7-1.3c0.1,0,0.1,0,0.2,0c0.2,0.1,0.5,0.2,0.6,0.3
		c0.1,0.1-0.1,0.4-0.2,0.6c-0.2,0.2-0.4,0.2-0.6,0.4c-0.9,0.6-1.5,1.6-1.8,2.6c-0.3,1.1-0.4,2.2-0.4,3.3c-0.1,2.4,0,4.9,0,7.3
		c0,1.5,0.2,2.9,0.9,4.3c0.3,0.6,0.1,0.9-0.6,0.9c-2-0.2-4-0.8-5.8-1.6c-1.3-0.6-2.6-1.3-3.8-1.9c-1.3-0.7-2.7-1-4.1-1.1
		c-0.9-0.1-1.9-0.4-2.8-0.5c-0.5-0.1-0.9-0.1-1.4-0.1c-0.2,0-0.3,0.1-0.5,0.1c0.1,0.1,0.3,0.2,0.4,0.3c0.3,0.2,0.5,0.5,0.8,0.7
		c1,1,1.2,1.9,0.4,3.1c-0.4,0.5-0.9,1-1.4,1.3c-2.7,1.6-5.6,2.6-8.7,3.2C47.9,30.8,47.2,30.6,46.6,30.6z"/>
	<path d="M11.8,13.5c0.1,0.9-0.4,1.4-1.1,1.8c-0.7,0.3-1.4,0.1-2-0.4c-1.6-1.4-1.5-2.7-0.1-3.8c0.7-0.5,1.2-0.5,1.9,0
		C11.4,11.7,11.9,12.5,11.8,13.5z"/>
</g>
</svg>
