<?xml version="1.0" encoding="iso-8859-1"?>
<!-- Generator: Adobe Illustrator 25.3.0, SVG Export Plug-In . SVG Version: 6.00 Build 0)  -->
<svg version="1.1" id="Calque_1" xmlns="http://www.w3.org/2000/svg" xmlns:xlink="http://www.w3.org/1999/xlink" x="0px" y="0px"
	 viewBox="0 0 88.2 22" style="enable-background:new 0 0 88.2 22;" xml:space="preserve">
<g>
	<path d="M44.2,5.1c1.9-0.2,3.8-0.4,5.7-0.6c0.9-0.1,1.8-0.1,2.7-0.3c3.2-0.7,6.4-1.5,9.6-2.1c3.4-0.6,6.8-0.5,9.9,1.2
		c1.4,0.8,2.7,1.1,4.4,0.8c2.1-0.4,4.3-0.4,6.4-0.4c1.7-0.1,3.2,0.5,4.2,1.9c0.9,1.4,1.4,3,1,4.7c-0.4,1.8-1.1,3.5-2.1,5.1
		c-0.3,0.5-0.9,0.9-1.4,1.3C84,17.3,83.4,17,82.8,17c-1.6,0-2.9-0.8-4.2-1.3c-0.9-0.4-1.7-0.8-2.6-1.3c-0.4-0.2-0.9-0.5-1.3-0.5
		c-0.3,0-0.5,0.6-0.8,0.9c-0.5,0.3-1,0.7-1.6,0.9c-2.7,0.7-5.4,1.4-8.2,1.7c-3.5,0.4-7.1,0.2-10.6,0.3c-0.7,0-1.5-0.1-1.4,1
		c0,0.2-0.4,0.6-0.7,0.7c-0.9,0.3-1.8,0.5-2.8,0.3c-2.1-0.6-4.3-1.1-6.4-1.5c-1.2-0.2-2.5-0.3-3.7,0c-1.7,0.3-3.4,0.5-5.1,0.7
		c-4.7,0.6-9.3,0.4-14,0.2c-2.4-0.1-4.8,0-7.1-0.8c-0.1,0-0.1-0.1-0.2-0.1c-0.3,0-2.5,1.9-2.3,2.1c0.2,0.4,0.6,0.6,0.7,1
		c0.1,0.2-0.1,0.5-0.2,0.8c-0.2-0.1-0.4-0.1-0.6-0.2c-0.2-0.2-0.2-0.4-0.4-0.6c-0.7-1-0.6-1.3,0.1-2.2c0.2-0.3,0.5-0.5,0.7-0.8
		c0.1-0.1-0.1-0.5-0.2-0.5c-0.8-0.2-1.5-0.4-2.3-0.3c-2,0.2-3.7-0.9-5.5-1.5c-0.1,0-0.3-0.1-0.3-0.2c-0.6-1.3-1.2-2.7-1.8-4
		c-0.1-0.3,0-0.7-0.1-1c-0.2-0.6,0-1,0.5-1.2C1.7,8.7,3,8,4.2,7.3c0,0,0.1,0,0.2,0C5.7,8.1,6.8,7,7.9,6.6c1.4-0.4,2.7-0.8,4.2-0.9
		c1.1-0.1,2.2-0.1,3.3,0c1.2,0,2.5,0,3.7-0.4c1.8-0.6,3.6-0.6,5.5-0.6c1,0,1.9-0.1,2.9,0c1.5,0.2,2.6-0.5,3.7-1.5
		c0.8-0.8,1.7-1.5,2.6-2.2c2.7-2,7.6-1,9.3,1.9c0.2,0.3,0.2,0.7,0.2,1c0,0.3-0.2,0.8,0,0.9C43.5,5.1,43.9,5.1,44.2,5.1z"/>
	<path d="M15.8,12.7c-0.5,0.4-1.1,0.8-1.6,1.2c-0.2-0.9,0.7-1.3,1.2-1.7c1-1,2.2-1.9,3.3-2.9c0.1,0,0.2,0,0.3,0
		c0,0.2-0.1,0.3-0.1,0.5c0,0.1-0.1,0.2-0.1,0.3C17.7,10.9,16.8,11.8,15.8,12.7z"/>
	<path d="M45.2,10.1c-1.5,0-3,0-4.5,0c-1.9,0-3.8-0.3-5.7-0.6c-2.4-0.4-4.6-1-6.9-1.5c-0.9-0.2-1.9,0-2.9-0.1
		c-0.6,0-1.3-0.2-1.9-0.3c-0.2,0-0.3-0.2-0.4-0.2c0.2-0.1,0.3-0.1,0.5-0.2c1.9-0.1,3.8,0.1,5.7,0.5c2.5,0.6,5.1,1.1,7.7,1.6
		c0.7,0.1,1.4,0.1,2.2,0.1c4.4,0,8.8,0.1,13.1-0.1c2.6-0.1,5.1-0.4,7.6-0.7c1.5-0.1,3.1-0.3,4.6-0.4c3.2-0.2,6.3-0.3,9.5-0.4
		c0.4,0,0.7,0,1.1,0c0.2,0,0.4,0.2,0.6,0.3c-0.2,0.1-0.3,0.4-0.5,0.4c-1.3,0.1-2.5,0-3.8,0.1c-3.1,0.2-6.3,0.4-9.4,0.7
		c-0.4,0-0.7,0-1.1,0c-2.5-0.1-5,0.3-7.5,0.6c-1.8,0.2-3.6,0.1-5.4,0.1C46.9,10.1,46.1,10.1,45.2,10.1
		C45.2,10.1,45.2,10.1,45.2,10.1z"/>
	<path d="M19.1,12.6c1-0.1,2-0.4,3-0.4c2.4-0.1,4.8,0,7.2,0c0.4,0,0.7,0,1.1,0c2.1,0.1,2.7,1.4,1.5,3.1c-0.5,0.8-1.2,1.3-2.2,1.5
		c-2.3,0.6-4.6,0.4-6.8-0.5c-0.9-0.4-1.8-0.7-2.8-0.6c-0.1,0-0.3-0.1-0.4-0.2c0.2-0.1,0.3-0.2,0.5-0.2c1.2,0,2.3,0,3.5,0.4
		c2,0.8,4.2,0.7,6.3,0.1c0.9-0.2,1.4-1.1,1.6-2c0.1-0.5-0.1-0.8-0.6-0.9C30.6,13,30.1,13,29.7,13c-3,0-6,0-9,0
		C20.2,13,19.5,13.2,19.1,12.6L19.1,12.6z"/>
	<path d="M71.6,12.2c0.2,0,0.4,0,0.5,0c0.1,0,0.2,0.2,0.4,0.3c-0.1,0.1-0.2,0.3-0.4,0.3c-1.4,0.3-2.9,0.6-4.4,0.8
		c-3.5,0.6-7,1.5-10.4,2.5c-0.7,0.2-1.4,0.7-2.1,0.1c0.6-0.3,1.3-0.6,1.9-0.8c4.3-1.3,8.7-2.2,13.1-3.1
		C70.8,12.3,71.2,12.2,71.6,12.2C71.6,12.2,71.6,12.2,71.6,12.2z"/>
	<path d="M77.2,8.2c-0.2,0.9-0.3,1.7-0.5,2.5c-0.3,1.3-1.1,1.7-2.4,1.4c-0.1,0-0.2-0.1-0.2-0.2c0.1-0.1,0.2-0.1,0.3-0.2
		c1.6-0.2,2-1.4,2-2.7c0-0.9-0.1-1.8-0.2-2.6c0-0.2-0.1-0.5-0.2-0.7c0.2,0.2,0.6,0.2,0.7,0.5C76.9,7,77,7.6,77.2,8.2z"/>
</g>
</svg>
