<?xml version="1.0" encoding="iso-8859-1"?>
<!-- Generator: Adobe Illustrator 25.3.0, SVG Export Plug-In . SVG Version: 6.00 Build 0)  -->
<svg version="1.1" id="Calque_1" xmlns="http://www.w3.org/2000/svg" xmlns:xlink="http://www.w3.org/1999/xlink" x="0px" y="0px"
	 viewBox="0 0 74.6 36" style="enable-background:new 0 0 74.6 36;" xml:space="preserve">
<g>
	<path d="M72.6,29.9c-0.2,1.1-0.5,1.4-1.5,1.2c-1.3-0.3-2.6-0.7-3.9-1.3c-3.9-1.7-7.4-4-10.9-6.5c-1.1-0.8-1-0.7-2.2,0
		c-1.8,1.1-3.8,2.1-5.6,3.2c-1.6,1.1-3.2,2.2-4.7,3.5C42.2,31.3,41,33.1,40,35c-0.6,1.2-0.9,1.3-2,0.5c-0.3-0.2-0.6-0.5-0.9-0.8
		c-0.8-0.7-1.7-1.2-2.7-1.6c-1.2-0.5-2.2-1.4-3.1-2.3c-1-1.1-2.3-1.1-3.5-1.4c-0.4-0.1-0.6,0.1-0.7,0.6c-0.2,1.2-0.3,2.3,0.2,3.5
		c0.2,0.5,0.5,1.1,0,1.4c-0.3,0.2-1-0.2-1.4-0.5c-1.7-1.3-3.3-2.6-4.5-4.3c-0.5-0.8-1.2-1.1-2.1-1c-1.5,0.1-3,0-4.5,0
		c-2.7,0-5.4-0.4-7.8-1.6c-3-1.5-5.7-3.5-6.8-7c-0.2-0.7-0.2-1.2,0.3-1.8c0.6-0.8,1.2-1.4,2-2c4.9-3.5,10.5-5.5,16.3-7
		c0.9-0.2,1.9-0.4,2.7-0.8c0.5-0.2,0.9-0.6,1.2-1C23.9,6,25,4.1,26.3,2.3c0.5-0.7,1.1-1.4,1.6-2.1C28,0.1,28.4,0,28.5,0
		c0.2,0,0.3,0.4,0.3,0.5c-0.1,1.3,0.3,2.6,0.7,3.8c0.6,1.9,2.1,3.1,3.4,4.4c0.5,0.4,0.9,0.3,1.3-0.2c1-1.1,1.9-2.3,3-3.3
		c0.9-0.9,2-1.7,3-2.5c0.7-0.5,0.7-0.4,1.2,0.3c0.6,1.1,1.3,2.1,2.1,3c2.7,3.1,6.1,5.4,9.6,7.6c0.7,0.4,1.2,0.8,0.4,1.6
		c0,0,0.1,0.4,0.2,0.5c0.7,0.3,1.3,0,1.9-0.3c1.7-0.9,3.4-1.8,5.1-2.6c2-0.9,4.1-1.7,6.1-2.5c1.7-0.7,3.5-0.6,5.3-0.8
		c0.7-0.1,1.8,0.2,2.2,0.7c0.5,0.6-0.2,1.4-0.6,2.1c-1.1,1.8-2.6,3.2-4.3,4.4c-1,0.7-2,1.5-2.9,2.3c-0.7,0.6-1,1.4-0.4,2.2
		c0.5,0.7,1,1.5,1.6,2.1c1.2,1.4,2.5,2.7,3.7,4.1C72,28.2,72.2,29.1,72.6,29.9z"/>
	<path d="M4.7,16c0.2,0.2,0.4,0.4,0.6,0.6c-0.2,0.2-0.4,0.5-0.6,0.5c-0.4,0-0.7-0.2-1.1-0.3C3.9,16.5,4.3,16.3,4.7,16z"/>
	<path d="M19.1,21.3c3.1-1.7,6.6-2.7,10.1-3.5c1.8-0.4,3.6-0.4,5.5,0c0.2,0,0.3,0.2,0.5,0.4c-0.1,0.1-0.2,0.3-0.3,0.3
		c-2.7,0.5-4.4,2.6-6.3,4.2c-1.5,1.2-3.1,1.9-4.9,2.5c-1,0.3-2,0.3-2.9-0.3c-0.2-0.2-0.5-0.6-0.4-0.8c0.5-1.2,0-1.8-1.1-2.1
		c-0.1,0-0.1-0.3-0.2-0.5L19.1,21.3z"/>
	<path d="M7.9,15.6c1.7,0,2.9,1.2,3,2.9c0,1.1-1.3,2.4-2.5,2.4c-1.5,0-3.3-1.4-3.3-2.5C5.1,17.1,6.6,15.6,7.9,15.6z"/>
	<path d="M6.8,18.3c0-1,0.5-1.5,1.6-1.5c0.7,0,1.3,0.6,1.3,1.3c0,0.8-0.8,1.5-1.6,1.5C7.2,19.6,6.8,19.2,6.8,18.3z"/>
</g>
</svg>
