<?xml version="1.0" encoding="iso-8859-1"?>
<!-- Generator: Adobe Illustrator 25.3.0, SVG Export Plug-In . SVG Version: 6.00 Build 0)  -->
<svg version="1.1" id="Calque_1" xmlns="http://www.w3.org/2000/svg" xmlns:xlink="http://www.w3.org/1999/xlink" x="0px" y="0px"
	 viewBox="0 0 86 36" style="enable-background:new 0 0 86 36;" xml:space="preserve">
<g>
	<path d="M41.4,2.8c-0.1,0.7-0.1,1.9-0.4,3c-0.3,0.9,0.1,1.5,0.4,2.2c0.3,0.7,1.3,1,1.4,1.9c0,0.1,0.5,0.2,0.8,0.3
		c3.8,0.2,7.3,1.4,10.9,2.5c1.5,0.4,3.1,0.9,4.6,1.4c1,0.3,2,0,3-0.4c0.9-0.3,1.6-0.3,2.1,0.6c0.4,0.7,1,1,1.8,0.9
		c0.8,0,1.7,0,2.5,0c0.7,0.1,1-0.3,1.4-0.8c1.5-2.1,3-4.2,4.6-6.1c0.9-1,2-1.8,3.1-2.7c1.8-1.5,3.7-3,5.9-3.9
		c0.6-0.2,1.3-0.3,1.9-0.3c0.6,0,0.8,0.7,0.4,1.2c-0.5,0.7-1,1.5-1.5,2.2c-0.2,0.2-0.3,0.6-0.5,0.7c-1.4,0.6-1.7,2-2.2,3.1
		c-1.1,2.5-2.1,5.1-3.2,7.7c-0.3,0.8-0.3,1.5,0.1,2.2c0.8,1.4,1.6,2.8,2.3,4.2c0.4,0.8,0.7,1.8,0.9,2.7c0.2,0.8-0.2,1.2-1,1
		c-1-0.2-2.1-0.5-3.1-0.9c-2.3-1-4.1-2.7-5.6-4.6c-0.1-0.1-0.1-0.2-0.2-0.3c-1.1-1.4-2.2-2.6-4.4-2c-1.5,0.4-3.2,0.5-4.1,2.1
		c-0.3,0.6-0.9,0.6-1.2,0.4c-1.9-1.2-3.8-0.2-5.7,0.1c-0.2,0-0.6,0.1-0.6,0.3c-0.4,1.1-1.4,1.4-2.2,1.9c-0.7,0.4-1.2,0.9-1.5,1.7
		c-0.3,0.9-0.9,1-1.7,0.4c-0.6-0.5-1.2-1-1.8-1.5c-0.7-0.6-1.5-0.7-2.3-0.5c-2.8,0.8-5.7,1.4-8.6,1.3c-1.3,0-2.6,0.2-3.9,0.3
		c-0.5,0-0.8,0.2-1.1,0.7c-1,1.6-0.7,3.3-0.6,5c0.1,1.4,0.2,2.8,0.2,4.3c0,1-0.9,1.5-1.7,1c-1-0.6-2-1.4-2.7-2.3
		c-1.6-2.1-2.7-4.5-2.9-7.2c-0.2-2.6-0.4-2.8-2.9-3.2c-1.5-0.2-3-0.5-4.6-0.8c-1.9-0.3-3.9-0.6-5.8-1.1c-1.3-0.3-2.6-0.7-3.9-1.1
		c-0.7-0.2-1-0.8-1.7-1.1c-2-0.8-3.8-1.9-5.6-3c-0.7-0.4-0.7-0.9,0-1.3c0.6-0.3,1.2-0.5,1.8-0.7c2-0.6,4.1-1.2,6.1-1.8
		c1.8-0.5,3.7-1,5.5-1.4c1.4-0.4,2.9-0.8,4.3-1.1c1.7-0.4,3.4-0.8,5.1-1c2-0.2,4-0.4,6.1-0.4c1,0,1.7-0.3,2.3-1.1
		c1-1.3,2.1-2.5,2.9-3.8c0.8-1.3,2.1-2.1,3.2-3c0.7-0.6,1.6-0.5,2.4-0.3C41.4,0.5,41.5,1.5,41.4,2.8z"/>
	<path d="M7.8,14.7c0.7,0,1.2,0.4,1.2,1c0,0.6-0.6,1.3-1.2,1.2c-0.6-0.1-1.3-0.6-1.3-1.2C6.4,15.1,7,14.7,7.8,14.7z"/>
	<path d="M21.5,19.8c0.1-1.4,0.4-2.7,1.3-3.9c0.1-0.1,0.3-0.1,0.4-0.2c0,0.2,0.1,0.3,0.1,0.5c-0.5,1.2-1,2.4-0.9,3.7
		c0,0.3,0,0.6,0,0.9c0,0.4,0,0.7,0,1.1c-0.7,0-0.7-0.6-0.8-1C21.5,20.6,21.5,20.2,21.5,19.8z"/>
	<path d="M18.1,18.7c0.1-1.1,0.3-2.1,1.1-2.9c0.1-0.1,0.3-0.1,0.4-0.1c0,0,0.1,0.2,0,0.3c-1,1.6-1,3.3-0.4,5.1
		c0,0.1-0.1,0.3-0.2,0.4c-0.1-0.1-0.4-0.1-0.4-0.3C18.5,20.4,18.3,19.6,18.1,18.7z"/>
	<path d="M73.8,17.4c-0.3-0.1-0.4-0.2-0.5-0.2c0.1-0.1,0.1-0.2,0.2-0.2c0,0,0.1,0,0.2,0c0.4-0.1,0.9-0.2,1.3-0.3
		c0,0,0.1,0.1,0.1,0.1C74.6,17,74.1,17.2,73.8,17.4z"/>
</g>
</svg>
