<?xml version="1.0" encoding="iso-8859-1"?>
<!-- Generator: Adobe Illustrator 25.3.0, SVG Export Plug-In . SVG Version: 6.00 Build 0)  -->
<svg version="1.1" id="Calque_1" xmlns="http://www.w3.org/2000/svg" xmlns:xlink="http://www.w3.org/1999/xlink" x="0px" y="0px"
	 viewBox="0 0 85.3 38" style="enable-background:new 0 0 85.3 38;" xml:space="preserve">
<g>
	<path d="M39.8,29.2c-2.3,0-4.6,0-6.8,0c-0.5,0-0.6,0.1-0.3,0.6c1.7,2.4,1.5,4.9,0.6,7.4c-0.4,1-0.9,1.1-1.6,0.4
		c-1.8-1.9-3.7-3.9-5.4-5.9c-2.3-2.8-2.2-2.8-5.8-3.2c-1.6-0.2-3.2-0.6-4.7-0.9c-2.2-0.4-4.4-1-6.7-1.2C6.5,26.1,4.3,25,2,23.9
		c-0.6-0.3-1.1-0.7-1.6-1.1c-0.6-0.4-0.5-0.8-0.1-1.3c0.5-0.6,0.8-1.2,1-2c0.1-0.5,0.6-1,1.1-1.3c1.5-1,2.9-2,4.5-2.9
		c1.4-0.8,2.9-1.4,4.4-2c1.9-0.9,3.9-1.6,5.8-2.6c1.4-0.7,2.8-1.2,4.3-1.6c1.1-0.3,1.5-0.8,1.5-1.8c0-0.2,0.4-0.6,0.4-0.6
		c1.1,0.6,1.1-0.4,1.5-0.9c0.4-0.5,0.8-1.3,1.7-0.8c0.4-0.5,0.8-1,1.3-1.4c0.2-0.2,0.5-0.3,0.7-0.5c0.1,0.2,0.3,0.5,0.4,0.7
		C29,4.5,29.2,4.6,29.6,4c0.7-0.9,1.4-1.9,2.2-2.8c0.3-0.4,0.7-0.7,1-1c0.3-0.2,0.6-0.2,0.6,0.2c0,0.5,0.1,1.1,0.8,0.7
		c0.7-0.4,0.9-0.6,0.7,0.4c0,0.2-0.1,0.4,0,0.5c0,0.6,0.3,0.8,0.8,0.5c0.3-0.1,0.5-0.4,0.7-0.5c0.4-0.1,0.5,0.1,0.5,0.5
		c0,0.2-0.1,0.3-0.2,0.5c-0.2,0.3-0.6,0.6-0.1,0.9c0.3,0.1,0.7,0,1,0c0.1,0,0.2-0.1,0.3-0.2c0.5-0.3,0.8-0.4,0.6,0.4
		c-0.1,0.2,0.2,0.7,0.2,0.7c0.8,0,1.1,0.3,0.8,1c0,0.1,0.4,0.4,0.6,0.4C40.4,6.2,40.7,6,41,6c0.2,0,0.5,0.1,0.5,0.1
		c0,1.2,0.9,0.8,1.5,0.9c0.5,0.1,0.1,0.4,0,0.6c-0.2,0.4-0.3,0.7,0.3,0.7c0.3,0,0.8,0,1,0.2c1.2,0.9,2.5,1.3,3.8,0.2
		c0.2-0.1,0.6-0.2,0.6-0.1c0.9,1,1.7,0.1,2.2-0.3c0.7-0.6,1.5-0.7,2.3-0.6c1.1,0.2,2.3,0.4,3.2,1.1c0.8,0.7,1.6,1.4,2.4,2.1
		c1.6,1.5,2.3,3.2,1.9,5.4c-0.2,1.3-0.1,1.4,1.3,1.4c4.8,0.1,9.5-0.6,13.9-2.8c2.6-1.3,5.3-2,8.3-1.9c1.2,0,1.5,0.3,1.3,1.4
		c-0.2,0.7-0.5,1.3-0.8,2c-0.3,0.6-0.8,1.2-1.2,1.8c-1.2,1.9-1.3,3.8-0.4,5.8c0.4,0.9,0.8,1.8,1.5,2.6c0.5,0.7,1.2,1.6,0.7,2.6
		c-0.1,0.3-0.2,0.6-0.8,0.5c-1.9-0.3-3.9-0.4-5.8-0.7c-0.7-0.1-1.3-0.6-1.9-0.9c-1.7-0.6-3.4-1.3-5.1-1.6c-2.4-0.4-4.9-0.4-7.3-0.5
		c-1,0-2,0.2-3,0.3c-0.5,0-0.8,0.3-0.7,0.8c0.2,1.7-0.6,3.2-0.5,4.9c0.1,0.6-0.4,1.2-0.6,1.8c-0.3,0.6-0.7,1-1.5,0.8
		c-0.8-0.2-1.7-0.2-2.4,0.1c-1,0.4-1.6-0.1-2.2-0.7c-1.6-1.5-3.2-2.9-4.7-4.3c-0.3-0.3-0.6-0.4-1.1-0.4
		C44.9,29.3,42.4,29.2,39.8,29.2C39.8,29.1,39.8,29.1,39.8,29.2z"/>
	<path d="M4.2,18.4c1,0.1,1.7-0.2,2.2-0.9c1.1-1.4,3.1-1.3,4,0.3c0.5,1,0.1,2.3-0.8,2.9c-0.9,0.6-2.2,0.4-2.9-0.4
		c-0.2-0.2-0.3-0.4-0.4-0.6c-0.2-0.5-0.5-0.8-1.2-0.6C4.6,19.3,4.2,19.1,4.2,18.4L4.2,18.4z"/>
	<path d="M14.2,24.5c-0.2,0-0.2,0-0.3-0.1c0-0.1,0-0.2,0-0.3c0,0,0.1-0.1,0.1-0.1c1.7-1.3,1.5-3,1.2-4.8c0-0.2-0.2-0.4-0.2-0.7
		c0-0.1,0-0.2,0.1-0.3c0.1,0,0.3,0,0.3,0c0.1,1,1.4,0.9,1.6,1.7c0.1,0.2-0.1,0.5-0.1,0.8c-0.2-0.1-0.4-0.2-0.5-0.4
		c-0.1-0.1-0.1-0.2-0.1-0.3c-0.1,0.1-0.2,0.1-0.2,0.2c0,0.4,0,0.8,0,1.2c0,1.2-0.6,2-1.4,2.7C14.5,24.4,14.3,24.5,14.2,24.5z"/>
	<path d="M14.6,13c0.9,0,1.8,0.1,2.7-0.1c0.9-0.2,1.6,0.9,2.5,0.5c0,0,0.1,0.1,0.1,0.1c-0.2,0.3-0.4,0.5-0.5,0.8
		c-0.2,0.3-0.4,0.4-0.5,0.1c-1-1.5-2.4-0.6-3.7-0.7c-0.3,0-0.5,0-0.8,0C14.5,13.6,14.6,13.3,14.6,13L14.6,13z"/>
	<path d="M13.6,13.4c0.1,0.2,0.3,0.6,0.2,0.7c-0.5,0.5-0.3,0.8,0.1,1.2c0.3,0.4,0.6,0.9,0.8,1.4c0.1,0.1-0.1,0.3-0.1,0.5
		c-0.1-0.1-0.3-0.1-0.4-0.2c-0.5-0.6-0.9-1.4-1.6-1.9c-0.4-0.3-0.9-0.3-0.1-0.7C12.9,14.1,13.2,13.7,13.6,13.4L13.6,13.4z"/>
	<path d="M8.9,15.5c0.8-0.1,1.5-0.3,2.3-0.4c0.4,0,0.5,0.2,0.3,0.5c-0.2,0.3-0.4,0.6-0.6,0.9c-0.1,0.1-0.3,0.1-0.4,0.1
		c-0.2-1.1-1-0.2-1.5-0.5C8.8,16.1,8.9,15.8,8.9,15.5L8.9,15.5z"/>
	<path d="M38.6,15c-0.2,0.1-0.4,0.2-0.5,0.2c-1.1-0.3-2.2-0.6-3.2-0.9c-0.1,0-0.2-0.3-0.3-0.4c0.1,0,0.2-0.1,0.3-0.1
		c1.1,0.3,2.3,0.7,3.4,1C38.4,14.8,38.5,14.9,38.6,15z"/>
	<path d="M63,20.9c1.2,0.1,1.9,0.2,2.7,0.3c0.1,0,0.3,0.2,0.4,0.3c-0.1,0.1-0.2,0.4-0.3,0.3c-1-0.1-1.9-0.3-2.9-0.4
		c-0.1,0-0.1-0.2-0.1-0.3c0-0.1,0.1-0.2,0.2-0.3C63,20.9,63.2,20.9,63,20.9z"/>
	<path d="M54.9,20.3c1.1,0.1,2,0.2,2.8,0.3c0.1,0,0.2,0.1,0.3,0.2c-0.1,0.1-0.2,0.4-0.3,0.4c-1-0.1-1.9-0.2-2.9-0.4
		c0,0-0.1-0.3-0.1-0.3C54.8,20.3,55,20.3,54.9,20.3z"/>
	<path d="M30.8,12.8c1,0.2,2.1,0.4,3.1,0.7c0.1,0,0.2,0.2,0.2,0.3c-0.1,0.1-0.3,0.3-0.3,0.3c-1-0.3-2-0.5-3-0.8c0,0-0.1-0.1-0.1-0.1
		C30.6,13,30.7,12.9,30.8,12.8z"/>
	<path d="M47.4,18.4c-1,0.2-1.7-0.3-2.5-0.7c-0.1,0-0.1-0.2-0.2-0.2c0.1,0,0.2-0.1,0.3-0.1C46,17.4,46.8,17.7,47.4,18.4L47.4,18.4z"
		/>
	<path d="M42.7,16.6c-0.1,0.1-0.2,0.2-0.3,0.1c-0.2-0.1-0.4-0.2-0.7-0.3c-0.5-0.2-0.9-0.5-1.3-0.7c0.1-0.1,0.2-0.2,0.2-0.2
		c0.7,0.3,1.4,0.6,2.1,0.9C42.7,16.5,42.7,16.6,42.7,16.6z"/>
	<path d="M71,21.4c-0.1,0.1-0.3,0.3-0.4,0.3c-0.6,0.1-1.2,0.2-1.9,0.2c-0.1,0-0.3-0.2-0.4-0.3c0,0,0.1-0.3,0.1-0.3
		c0.8,0,1.5-0.1,2.3-0.1C70.9,21.3,70.9,21.3,71,21.4z"/>
	<path d="M60.7,21.1c0.4-0.1,0.8-0.2,1.1-0.1c0.1,0,0.2,0.3,0.3,0.5c-0.3,0.1-0.6,0.1-1,0.1C61,21.5,60.9,21.3,60.7,21.1z"/>
	<path d="M73,21.1c-0.2,0.3-0.3,0.5-0.4,0.5c-0.3,0-0.6-0.1-1-0.1c0.1-0.2,0.2-0.5,0.3-0.5C72.2,20.9,72.6,21,73,21.1z"/>
	<path d="M74,21.7c-0.2-0.2-0.4-0.3-0.6-0.4c0.2-0.1,0.4-0.3,0.6-0.4c0.2,0,0.4,0.2,0.6,0.3C74.5,21.4,74.3,21.5,74,21.7z"/>
	<path d="M68,21.7c-0.2,0.1-0.3,0.2-0.5,0.2c-0.3,0-0.6-0.2-0.9-0.3c0.1-0.1,0.2-0.3,0.3-0.4c0.3,0,0.6,0.1,1,0.1
		C67.9,21.5,67.9,21.6,68,21.7z"/>
	<path d="M47.4,18.4c0.5,0.1,1,0.2,1.5,0.3c0.1,0,0.1,0.2,0.1,0.3c0,0.1-0.2,0.2-0.3,0.1C48.3,18.9,47.8,18.6,47.4,18.4
		C47.4,18.4,47.4,18.4,47.4,18.4z"/>
	<path d="M51.5,19.4c0.2,0.1,0.5,0.2,0.8,0.3c0.1,0.1,0.2,0.2,0.3,0.3c-0.2,0-0.3,0.2-0.5,0.1c-0.3-0.1-0.5-0.2-0.8-0.3
		c0,0-0.1-0.1-0.1-0.2C51.3,19.6,51.4,19.6,51.5,19.4z"/>
	<path d="M22.4,12.5c0.2,0.3,0.3,0.4,0.4,0.6c-0.2,0.1-0.3,0.2-0.5,0.3c-0.1,0-0.3-0.2-0.3-0.3C22,12.9,22.2,12.8,22.4,12.5z"/>
	<path d="M74.4,18c0.1,0,0.1,0,0.2,0.1c0.2,0.3,0.4,0.7,0.5,1c0,0-0.2,0.1-0.2,0.1c-0.2-0.4-0.3-0.7-0.5-1.1
		C74.4,18.2,74.4,18.1,74.4,18C74.4,18,74.4,18,74.4,18z"/>
</g>
</svg>
