<?xml version="1.0" encoding="iso-8859-1"?>
<!-- Generator: Adobe Illustrator 25.3.0, SVG Export Plug-In . SVG Version: 6.00 Build 0)  -->
<svg version="1.1" id="Calque_1" xmlns="http://www.w3.org/2000/svg" xmlns:xlink="http://www.w3.org/1999/xlink" x="0px" y="0px"
	 viewBox="0 0 88 39.9" style="enable-background:new 0 0 88 39.9;" xml:space="preserve">
<g>
	<path d="M59.8,30c-1,0-1.9,0-2.9,0c-0.7,0-1.4,0-2-0.6c-0.7-0.6-1.7-0.5-2.5-0.5c-4.8,0-9.6,0-14.4,0c-0.5,0-0.9,0.1-1.4,0.3
		c-0.6,0.2-0.7,0.4-0.3,0.8c0.2,0.3,0.5,0.5,0.8,0.7c1.6,1.6,2.3,4.9,1.4,7c-0.1,0.3-0.3,0.6-0.5,0.8c-0.5,0.5-0.9,1-1.5,1.3
		c-0.8,0.3-1.1-0.6-1.6-1c-0.6-0.5-1.2-1.1-1.7-1.8c-1-1.3-1.9-2.7-2.8-4.2c-0.6-1-1-2-1.3-3.1c-0.3-1.1-0.8-1.5-2-1.7
		c-3.3-0.4-6.5-0.7-9.8-0.7c-1,0-2.1-0.5-3.1-0.7c-1.8-0.3-3.7-0.5-5.5-0.7C7,25.8,5.5,24.9,4,23.9c-0.6-0.4-1.2-0.7-1.8-1.1
		c-0.5-0.3-1-0.5-1.4-0.8c-1-0.7-1.1-1.3-0.2-2.2c0.4-0.4,0.6-0.7,0.7-1.3c0.2-0.9,0.8-1.4,1.8-1.7c3.8-1,7.6-2.2,11.4-3.4
		c1.6-0.5,3.1-1.5,4.7-2.2c1.9-0.8,3.8-1.4,5.7-2.2c0.1,0,0.1,0,0.2-0.1c1.5-0.9,3.3-0.9,5-1.4c0.5-0.1,1.1-0.2,1.5-0.5
		c0.6-0.4,1.1-1.2,1.6-1.3c0.8,0,1.1-0.5,1.6-0.8c2.7-1.6,4.9-4,8.1-4.9c0.8-0.2,0.9-0.2,1,0.6c0,0.5,0,1,0.5,1.4
		c0.2,0.2,0.2,0.7,0.2,1c0,0.6-0.2,1.3,0.7,1.4c0,0,0.1,0.3,0.1,0.4c-0.4,0.5-0.5,0.9,0.2,1.3c0.2,0.1,0.2,0.5,0.2,0.7
		c-0.1,0.6,0.2,0.8,0.7,0.7c0.2,0,0.3-0.2,0.5-0.2c0.8,0,1.2,1.4,2.3,0.4C50,7.3,51,8.2,51.9,7.7c0.7-0.4,1.7-0.6,2.6-0.6
		C55.4,7,56.4,7,57.3,7.3c2.2,0.6,4.5,1.1,6.7,2c1.6,0.7,3,1.9,4.4,3c0.9,0.7,0.8,1.1,0.1,2.1c-0.1,0.1-0.2,0.3-0.2,0.4
		c0.2,0,0.4,0.1,0.5,0.1c1.2-0.4,2.6-0.5,3.7-1.2c2.3-1.3,4.9-1.9,7.4-2.4c1.8-0.4,3.6-0.5,5.5-0.1c0.5,0.1,0.7,0.2,1,0.5
		c1.1,1.4,1.3,3,1.6,4.7c0.4,2.5-0.1,5,0,7.4c0,1.1-0.5,1.8-1.4,2.3c-1,0.6-2,0.9-3.2,0.6c-2.6-0.6-5.2-0.7-7.8-0.9
		c-0.3,0-0.6-0.1-0.8-0.2c-2.3-1.1-4.7-1-7.2-0.6c-0.1,0-0.3,0.3-0.3,0.4c0,0.2,0.1,0.3,0.2,0.5c1.5,1.9,0.1,3.2-1.9,3.7
		c-1.8,0.5-3.8,0.4-5.7,0.6C59.8,30.1,59.8,30,59.8,30z"/>
	<path d="M64.9,20.3c-1.3,0-2.6,0-3.9,0c-0.1,0-0.2-0.2-0.3-0.3c0.1-0.1,0.3-0.3,0.4-0.3c2.5,0.5,5.1,0.1,7.6,0.3
		c0.2,0,0.3,0.1,0.5,0.2c-0.2,0.1-0.4,0.2-0.5,0.2C67.4,20.3,66.2,20.3,64.9,20.3C64.9,20.3,64.9,20.3,64.9,20.3z"/>
	<path d="M42.4,14.3c0.5,0.1,1,0.1,1.5,0.3c0.4,0.1,1,0.1,0.9,0.8c-0.4-0.1-0.7-0.2-1.1-0.2c-0.4-0.1-0.9-0.2-1.3-0.4
		c-0.1,0-0.2-0.2-0.2-0.3C42.2,14.5,42.3,14.4,42.4,14.3z"/>
	<path d="M71.9,20.3c-0.5,0-1.1,0-1.6,0c-0.1,0-0.2-0.1-0.3-0.2c0.1-0.1,0.2-0.2,0.3-0.2c1.1-0.1,2.2-0.2,3.3-0.2
		c0.1,0,0.2,0.2,0.3,0.4c-0.1,0.1-0.2,0.2-0.3,0.2C73.1,20.3,72.5,20.3,71.9,20.3C71.9,20.3,71.9,20.3,71.9,20.3z"/>
	<path d="M34.2,13.9c-0.5-0.2-1.3,0.3-1.2-0.4c0-0.5,0.7-0.2,1.1-0.1c0.4,0.1,1-0.6,1.3,0.2C35,13.7,34.5,13.8,34.2,13.9z"/>
	<path d="M31.2,13.8c-0.1,0-0.3,0-0.4,0c-0.2-0.1-0.4-0.2-0.5-0.3c0.2-0.1,0.4-0.2,0.5-0.2c0.3-0.1,0.6-0.1,0.9-0.1
		c0.2,0,0.4,0.2,0.6,0.3c-0.2,0.1-0.3,0.3-0.5,0.4C31.6,13.9,31.4,13.8,31.2,13.8C31.2,13.8,31.2,13.8,31.2,13.8z"/>
	<path d="M38.4,13.8c-0.1,0.1-0.2,0.2-0.2,0.2c-0.7-0.1-1.4-0.3-2.1-0.5c0,0,0-0.1,0-0.2c0.7,0.1,1.4,0.1,2.1,0.2
		C38.3,13.6,38.3,13.7,38.4,13.8z"/>
	<path d="M76.3,19c0,0.1-0.1,0.2-0.1,0.3c-0.1-0.1-0.3-0.1-0.3-0.3c-0.1-0.3-0.2-0.5-0.3-0.8c0-0.1,0.1-0.3,0.2-0.4
		c0.1,0.1,0.2,0.2,0.3,0.3C76.2,18.4,76.2,18.7,76.3,19z"/>
	<path d="M39.7,14.3c-0.3-0.1-0.5-0.3-0.7-0.4c0.1-0.1,0.2-0.3,0.3-0.3c0.3,0.1,0.5,0.2,0.8,0.4C39.9,14.1,39.8,14.1,39.7,14.3z"/>
	<path d="M46.2,16c-0.2-0.2-0.4-0.4-0.7-0.6c0.1,0,0.2-0.2,0.3-0.1c0.3,0.1,0.5,0.3,0.8,0.5C46.5,15.9,46.4,15.9,46.2,16z"/>
	<path d="M75.1,20.4c-0.2-0.2-0.3-0.3-0.5-0.5c0.1-0.1,0.3-0.3,0.4-0.3c0.2,0,0.3,0.2,0.5,0.3C75.4,20.1,75.2,20.2,75.1,20.4z"/>
	<path d="M75.8,22.4c-0.1-0.2-0.2-0.3-0.2-0.4c0.1-0.3,0.2-0.7,0.3-1c0-0.1,0.2-0.1,0.2-0.2c0,0.1,0.1,0.2,0.1,0.3
		C76.1,21.6,76,21.9,75.8,22.4z"/>
	<path d="M59.6,19.5c0.2,0.2,0.3,0.3,0.4,0.5c-0.1,0.1-0.3,0.3-0.4,0.3c-0.2-0.1-0.3-0.2-0.5-0.4C59.2,19.8,59.4,19.7,59.6,19.5z"/>
</g>
</svg>
