<?xml version="1.0" encoding="iso-8859-1"?>
<!-- Generator: Adobe Illustrator 25.3.0, SVG Export Plug-In . SVG Version: 6.00 Build 0)  -->
<svg version="1.1" id="Calque_1" xmlns="http://www.w3.org/2000/svg" xmlns:xlink="http://www.w3.org/1999/xlink" x="0px" y="0px"
	 viewBox="0 0 206.1 91" style="enable-background:new 0 0 206.1 91;" xml:space="preserve">
<g>
	<path d="M102.6,91c-33.3,0-66.6,0-100,0C0.7,91,0,90.9,0,88.6C0.1,60,0.1,31.3,0.1,2.6C0.1,0,0.1,0,2.9,0c63,0,125.9,0,188.9,0
		c4.7,0,9.3,0,14,0c0.1,4.7,0.2,9.5,0.2,14.2c0,24.2,0,48.3,0,72.5c0,4.3,0,4.3-4.5,4.3C168.6,91,135.6,91,102.6,91z"/>
	<path d="M13.1,36.9c1.9-0.2,3,1,4.1,2.2c0.8,0.9,0.9,1.9,0,2.6c-1.4,0.9-1.8,3.4-4.2,2.7c-2.8-0.8-3.2-3-2.8-5.4
		C11.1,38.3,12.1,37.6,13.1,36.9z"/>
	<path d="M7.2,45c0.3-0.4,0.6-0.8,0.9-1.3c2.7,2.2,5.5,4.3,8.1,6.6c3.2,2.8,6.4,5.8,9.5,8.8c0.3,0.3,0.5,0.8,0.8,1.2
		c-0.6-0.1-1.3,0.1-1.7-0.2c-2.1-1.6-4.2-3.2-6.2-5c-3.5-3-7-6.1-10.4-9.2C7.8,45.7,7.5,45.4,7.2,45z"/>
	<path d="M182.5,54c-0.3,0-0.9,0-1.5-0.1c-0.3,0-0.5-0.3-0.8-0.4c0.3-0.1,0.6-0.3,0.9-0.3c1-0.1,1.9-0.1,2.9-0.1
		c0.4,0,0.8,0.3,1.2,0.5c-0.4,0.1-0.9,0.3-1.3,0.4C183.5,54,183.1,54,182.5,54z"/>
	<path d="M137.1,22.9c0.7,0.3,1.6,0.5,2.2,1.1c0.4,0.4,0.4,1.2,0.6,1.8c-0.4-0.3-1-0.4-1.3-0.8c-0.6-0.6-1-1.3-1.5-2
		C137,23.1,137.1,22.9,137.1,22.9z"/>
	<path d="M177.5,38.4c0.4,0.3,0.9,0.7,1.4,1.1c0.2,0.2,0.3,0.5,0.4,0.8c-0.4,0-0.9,0.1-1.2,0c-0.4-0.2-0.8-0.6-1-0.9
		c-0.1-0.2-0.1-0.5-0.1-0.8C177,38.5,177.2,38.5,177.5,38.4z"/>
</g>
</svg>
