<?xml version="1.0" encoding="iso-8859-1"?>
<!-- Generator: Adobe Illustrator 25.3.0, SVG Export Plug-In . SVG Version: 6.00 Build 0)  -->
<svg version="1.1" id="Calque_1" xmlns="http://www.w3.org/2000/svg" xmlns:xlink="http://www.w3.org/1999/xlink" x="0px" y="0px"
	 viewBox="0 0 78.3 36.2" style="enable-background:new 0 0 78.3 36.2;" xml:space="preserve">
<g>
	<path d="M32.2,2.4c0.5-0.1,1-0.5,1.4,0.2c0.1,0.1,0.3,0.2,0.5,0.3c1,0.6,2,1.2,3,1.7c0.3,0.2,0.6,0.4,0.9,0.5
		c1.5,0.7,1.9,0.6,2.6-0.9c0.2-0.4,0.1-0.8,0.8-0.5c0.2,0.1,0.5-0.6,0.8-0.8c0.4-0.4,0.8-1,1.3-1.1c0.6-0.1,1.4,0,2,0.3
		c0.8,0.3,1.5,0.8,2.2,1.1c1.9,0.8,3.5,2.2,5.3,3.3c2.6,1.7,4.7,3.9,6.9,6.1c0.9,0.9,0.9,0.9-0.2,1.6c-0.1,0.1-0.2,0.1-0.3,0.1
		c0.1,0.1,0.3,0.2,0.4,0.2c0.4,0,0.8,0.1,1.2,0c2-0.2,3.6-1.4,5.3-2.4c2.6-1.6,5.3-3.1,8.2-4.3c1.1-0.4,2.1-0.2,3.1-0.3
		c0.6-0.1,0.8,0.6,0.7,1c-0.2,0.6-0.5,1.2-0.9,1.7c-1.2,1.6-2.5,3-3.6,4.7c-2.1,3.3-1.7,4.1,0.2,7.2c0.8,1.3,1.5,2.7,2.2,4
		c0.2,0.5,0.3,1.1,0.3,1.7c0,0.8-0.5,1.1-1.2,0.8c-1-0.4-2.1-0.8-3.1-1.4c-2.3-1.5-4.5-3.1-6.8-4.5c-1.3-0.8-2.9-1.4-4.3-2.1
		c-0.2-0.1-0.6,0-0.7,0.2c-0.5,0.7-0.8,1.4-1.4,2c-1.8,2.3-3.7,4.6-5.3,7.1c-0.9,1.6-1.9,1.6-3.9,1.3c-1.2-0.2-1.9-0.8-2.7-1.5
		c-1.6-1.3-3.3-1.9-5.5-1.2c-2.9,0.9-5.8,1.2-8.8,0.5c-0.1,0-0.1,0-0.2,0c-0.5,0-1.1,0-1.6,0c0.1,0.4,0.4,0.8,0.4,1.3
		c0.1,0.8,0.3,1.7-0.2,2.5c-0.5,0.7-0.5,1.7-1,2.4c-0.6,0.9-1,1-1.6,0c-0.8-1.3-1.4-2.7-2-4.1c-0.3-0.6-0.5-1.2-0.6-1.8
		c-0.1-0.5-0.4-0.6-0.9-0.7c-1.8-0.2-3.7-0.4-5.4-0.9c-3.3-0.8-6.4-2.1-9.3-3.9c-0.6-0.4-1.2-0.7-2-0.6c-0.8,0.1-1.5-0.2-2.1-0.7
		c-1.5-1.3-3.1-2.4-4.8-3.4c-0.4-0.2-0.9-0.6-1.2-1.1c-0.6-0.8-0.5-1.3,0.5-1.6C1.4,16.4,1.3,16.3,1,16c-0.1-0.2-0.3-0.4-0.4-0.6
		c-0.8-1.2-0.5-2.1,0.9-2.5c2.6-0.9,5.2-1.7,7.7-2.7c1.6-0.6,3.2-1.5,4.8-2.3c0.8-0.4,1.6-0.8,2.5-0.9c1-0.1,1-0.6,1.2-1.4
		c0.2-1.1,0.6-2.3,1.8-2.9c0.1-0.1,0.3-0.2,0.4-0.4c0.3-0.5,0.5-1,1.3-0.9c0.4,0,0.5-1.1,1.4-0.6c0,0,0.1,0,0.2,0
		C24,0.2,24,0.2,26.1,0.3c0.2,0,0.4-0.2,0.6-0.2c0.3,0,0.7-0.1,0.8,0c0.6,0.7,1.6,0.2,2.4,0.8c0.6,0.5,1.5,0.5,2.2,0.8
		C32.1,1.7,32.1,2.1,32.2,2.4C32,2.5,32,2.8,31.9,3C32,2.8,32.1,2.6,32.2,2.4z"/>
	<path d="M66.7,21.6c0.3-0.4,0.7-0.7,0.9-1.1c0.3-0.5,0.7-1.1,0.8-1.7c0.2-0.8-0.1-1.2-0.9-1.1c-0.9,0-1.8,0-2.7,0
		c-2.6,0-5.1-0.5-7.5-1.2c-3-0.9-6.1-1.6-9.2-2c-2.4-0.3-4.8-0.5-7.3-0.8c-1.7-0.2-3.3-0.2-5-0.3c-2.7-0.2-5.3-0.5-8-0.7
		c-0.8-0.1-1.6,0-2.3,0c-1.3-0.1-2.6-0.2-3.9-0.3c-0.4,0-0.8-0.1-1.1,0c-0.7,0.3-1.4,0.3-2.1,0c-0.4-0.2-0.8-0.2-1.2-0.3
		c0.4-0.1,0.8-0.2,1.2-0.1c3.3,0.1,6.7,0.1,10,0.4c1.5,0.2,3.1,0.2,4.6,0.3c2.7,0.2,5.4,0.5,8.2,0.7c1.6,0.1,3.2,0.2,4.8,0.4
		c2.1,0.2,4.1,0.5,6.2,0.9c2.6,0.5,5.1,1.2,7.6,1.8c2.6,0.6,5.2,0.5,7.8,0.5c0.1,0,0.3,0,0.4,0c0.3-0.1,0.6-0.3,0.8-0.4
		c0.1,0.4,0.3,0.8,0.3,1.2C69.3,19.7,68.4,21.1,66.7,21.6L66.7,21.6z"/>
	<path d="M27.1,27.4c-1.4,0.1-2.7-0.3-3.9-1.1c-1.1-0.7-2.2-1.4-3.3-2.1c-0.2-0.1-0.2-0.4-0.3-0.5c0.2-0.1,0.3-0.2,0.5-0.2
		c1,0.1,1.9-0.2,2.7-0.8c0,0,0.3,0,0.3,0.1c0,0.1,0,0.2,0,0.3c-0.2,0.2-0.4,0.5-0.6,0.6c-1,0.6-1,0.6,0,1.3c0.5,0.4,1,0.8,1.6,1.1
		c2.2,1.3,4.5,1,6.7-0.1c0.7-0.4,1.3-1.2,1.7-2c1-2.2,0.7-4.4-0.6-6.4c-0.3-0.4-0.6-0.7-1-0.9c-2.3-1.4-4.4-1.3-6.6,0.4
		c-0.8,0.6-1.6,1.3-2.4,1.9c-0.2,0.1-0.4,0.4-0.6,0.4c-0.2,0-0.4-0.1-0.6-0.3c-0.1-0.1,0-0.4,0.1-0.4c1.5-1.1,3.1-2.2,4.7-3.3
		c1.1-0.7,2.2-0.8,3.4-0.3c0.4,0.2,0.9,0.3,1.4,0.4c1.1,0.3,1.9,1,2.4,1.9c1.2,2.2,1.6,4.4,0.6,6.8c-0.9,2.1-2.7,2.8-4.8,3.2
		C27.9,27.4,27.5,27.4,27.1,27.4z"/>
</g>
</svg>
