<?xml version="1.0" encoding="iso-8859-1"?>
<!-- Generator: Adobe Illustrator 25.3.0, SVG Export Plug-In . SVG Version: 6.00 Build 0)  -->
<svg version="1.1" id="Calque_1" xmlns="http://www.w3.org/2000/svg" xmlns:xlink="http://www.w3.org/1999/xlink" x="0px" y="0px"
	 viewBox="0 0 70.6 47.3" style="enable-background:new 0 0 70.6 47.3;" xml:space="preserve">
<g>
	<path d="M69.5,37c-0.2,0.4-0.2,1.2-0.6,1.6c-0.6,0.5-1.1-0.3-1.5-0.6c-3.2-2.2-6.2-4.7-8.8-7.6c-0.8-0.8-1.5-1.7-2.2-2.6
		c-0.5-0.6-1.2-0.9-2.1-0.9c-0.4,0-0.8,0-0.3,0.5c0.4,0.4,0.3,0.7-0.1,1.1c-1.1,1.1-2.2,2.3-3.4,3.4c-3.4,2.9-7,5.3-10.8,7.7
		c-1.5,0.9-3.2,1.7-4.8,2.4c-1.1,0.5-2,1.3-2.8,2.2c-0.7,0.8-1.5,1.5-1.6,2.6c0,0.2-0.3,0.5-0.4,0.5c-0.2,0-0.4-0.2-0.5-0.4
		c-0.6-1.2-1.2-2.3-1.8-3.5c-0.6-1-1.1-2-2.5-2.1c-1.5-0.1-2.9-0.6-4.3-0.9c-0.5-0.1-1-0.2-1.5-0.3c0.3,0.3,0.8,0.4,1,0.8
		c0.2,0.4,0.3,0.9,0.2,1.3c-0.3,1.3-1.4,1.9-2.5,2.3c-0.6,0.2-0.9-0.2-1-0.7c-0.3-1.3-0.6-2.5-0.7-3.8c-0.1-0.8-0.2-1.3-1-1.8
		c-3.1-1.6-6-3.6-8.6-6C5.1,30.6,3.6,28.7,2,27c-0.6-0.7-1.1-1.5-1.7-2.3C0,24.3-0.1,24,0.1,23.4c0.3-1.7,1.3-2.8,2.8-3.5
		c2.8-1.3,5.3-3.3,7.4-5.5c2.7-2.8,5.9-4.6,9.7-5.3c0.3,0,0.7-0.2,0.8-0.4c0.4-0.9,1.4-1.4,1.8-2.4c0.8-2.1,2-4.1,3-6.1
		C25.6,0.2,25.8,0.1,26,0c0.1,0.1,0.2,0.3,0.2,0.4c-0.2,0.9,0.6,1.1,1,1.6c1.2,1.3,2.3,2.6,3.7,3.8c0.6,0.5,1.1,1.5,2.1,1
		c2.4,1,4.9,1.8,7.3,2.9c2.6,1.1,4.9,2.6,7.3,4.1c2.5,1.7,4.5,3.9,6.6,6c0.9,0.9,0.9,1.3,0.3,2c-0.2,0.2-0.4,0.4-0.6,0.6
		c0.3,0,0.6,0,0.9,0.1c1.5,0.1,2.4-0.9,3.4-1.7c2.6-2.2,5.2-4.4,8.1-6.2c1-0.6,2.1-1.2,3.2-1.7c0.9-0.4,1.3,0,1.1,1
		c-0.8,3.5-2.2,6.8-4.9,9.4c-0.2,0.2-0.3,0.4-0.5,0.5c-0.9,0.7-1,1.6-0.4,2.6c0.7,1.1,1.4,2.2,2.1,3.4c1,1.7,2.1,3.3,2.5,5.3
		C69.3,35.7,69.4,36.2,69.5,37z"/>
	<path d="M6.4,19C7.2,19,8,18.5,9,18.9c1.3,0.5,1.9,1.5,2,2.7c0.1,1.2-0.4,2.4-1.4,3.1c-1,0.7-2.6,0.6-3.5-0.1c-1.4-1.1-2-2.7-1-4.1
		c0.2-0.2,0.2-0.5,0.3-0.8C5.6,19.4,6,19.2,6.4,19z"/>
	<path d="M20.7,27.3c-0.3,0-0.6,0-0.9,0c-1-0.1-1.2-0.3-1.3-1.3c0-0.7,0-1.4-0.5-2c-0.4-0.4,0-0.9,0.4-0.9c2.3-0.4,4.6-1.2,7-0.6
		c1.1,0.3,2.3,0.5,3.4,0.8c0.8,0.3,0.9,0.8,0.1,1.2C26.5,26,23.8,27.1,20.7,27.3z"/>
	<path d="M6.3,21.9c0-1.1,0.3-1.5,1.5-1.5c1.1-0.1,1.9,0.6,1.8,1.5c0,0.8-1,1.7-1.8,1.7C7,23.6,6.3,22.8,6.3,21.9z"/>
</g>
</svg>
