<?xml version="1.0" encoding="iso-8859-1"?>
<!-- Generator: Adobe Illustrator 25.3.0, SVG Export Plug-In . SVG Version: 6.00 Build 0)  -->
<svg version="1.1" id="Calque_1" xmlns="http://www.w3.org/2000/svg" xmlns:xlink="http://www.w3.org/1999/xlink" x="0px" y="0px"
	 viewBox="0 0 211.1 95.1" style="enable-background:new 0 0 211.1 95.1;" xml:space="preserve">
<g>
	<path d="M105.6,0.1c34.3,0,68.7,0,103-0.1c2.1,0,2.6,0.4,2.6,2.6c-0.1,30-0.1,60,0,90c0,2.1-0.4,2.6-2.6,2.6
		c-61.3-0.1-122.7-0.1-184-0.1c-7.7,0-15.3,0-23,0c-1.3,0-1.5-0.2-1.5-1.5c0-30.7,0.1-61.3,0-92c0-2,1.1-1.5,2.1-1.5
		c30.2,0,60.3,0,90.5,0C96.9,0.1,101.2,0.1,105.6,0.1z"/>
	<path d="M43.2,51.2c-0.9,0.3-1.4,0.6-1.7,0.5c-4.3-1.5-9.3-1.5-12.7-5.2c-0.3-0.3-1.3-0.5-1.6-0.2c-1,0.6-1.7,0.7-1.3-0.7
		c0.7-2,1.7-3.9-1.4-4.7c0,0,0.2-0.7,0.2-0.7c1.2,0.3,3.1,0.2,3.6,0.9c2.9,4.6,7.6,6.3,12.3,8.1C41.4,49.6,42.1,50.3,43.2,51.2z"/>
	<path d="M151.3,43.9c1.5,0.2,3.2,0.5,4.9,0.7c-1.4,2.4-3.5,0.2-5.3,0.7c-1.4,0.4-3.2-0.6-4.8-1C147.8,44.3,149.4,44.1,151.3,43.9z"
		/>
	<path d="M173.4,46.3c-1.7-0.2-4-0.6-6.3-0.9c2.3-0.1,4.6-0.3,6.9-0.3c2.3,0.1,4.6,0.4,6.9,0.6C178.7,45.9,176.4,46.1,173.4,46.3z"
		/>
	<path d="M112.9,45.7c-0.6-0.1-0.9-0.2-1.2-0.3c-0.9-0.1-1.9-0.3-2.8-0.4c1-0.3,2.1-0.6,3.1-1c0.2,0,0.3-0.1,0.5,0
		c1.6,0.4,3.5-0.8,4.8,0.9C115.7,45.3,114.2,45.5,112.9,45.7z"/>
	<path d="M96.2,45.1c1.1,0,2.3,0,3.4,0c0.5,0,0.9,0.2,1.4,0.4c-0.4,0.2-0.8,0.5-1.2,0.5c-2.6,0-5.2,0-7.8,0c-0.3,0-0.6-0.3-0.9-0.4
		c0.2-0.2,0.5-0.4,0.7-0.4C93.3,45.1,94.8,45.2,96.2,45.1C96.2,45.1,96.2,45.1,96.2,45.1z"/>
	<path d="M44.1,43c-2.4,1.5-4.8-0.5-7.2-0.1c-0.2,0-0.5-0.3-0.8-0.4c0.3-0.1,0.6-0.4,0.9-0.4C39.3,42.4,41.9,41.2,44.1,43L44.1,43z"
		/>
	<path d="M67.3,45.1c0.7,0,1.3-0.1,2,0c0.6,0.1,1.2,0.2,1.9,0.4c-0.6,0.2-1.1,0.5-1.7,0.5c-1.5,0.1-2.9,0-4.4,0
		c-0.6,0-1.2-0.3-1.8-0.4c0.6-0.2,1.1-0.4,1.7-0.5C65.6,45,66.4,45.1,67.3,45.1z"/>
	<path d="M44,43.1c2.2,0.2,4.5,0.3,6.7,0.5c0.2,0,0.4,0.5,0.6,0.7c-0.3,0.1-0.6,0.4-0.8,0.3C48.4,44.1,46.2,43.6,44,43.1
		C44.1,43,44,43.1,44,43.1z"/>
	<path d="M136.2,45c-0.8,0-1.6,0-2.4,0c-0.3,0-0.5-0.3-0.8-0.4c0.3-0.1,0.6-0.4,0.8-0.4c1.3,0,2.6-0.1,3.9,0c0.4,0,0.8,0.3,1.3,0.5
		c-0.5,0.1-0.9,0.3-1.4,0.4C137.2,45,136.7,45,136.2,45C136.2,45,136.2,45,136.2,45z"/>
	<path d="M61.5,44.7c-1.2,0.5-1.6,0.8-1.9,0.7c-0.6,0-1.2-0.2-1.7-0.3c0.2-0.3,0.4-0.9,0.6-0.9C59.2,44.2,59.9,44.4,61.5,44.7z"/>
</g>
</svg>
