<?xml version="1.0" encoding="iso-8859-1"?>
<!-- Generator: Adobe Illustrator 25.3.0, SVG Export Plug-In . SVG Version: 6.00 Build 0)  -->
<svg version="1.1" id="Calque_1" xmlns="http://www.w3.org/2000/svg" xmlns:xlink="http://www.w3.org/1999/xlink" x="0px" y="0px"
	 viewBox="0 0 86.4 15.4" style="enable-background:new 0 0 86.4 15.4;" xml:space="preserve">
<g>
	<path d="M68,14c0.1,0.5-0.2,0.6-0.5,0.8c-1.2,0.5-2.5,0.8-3.8,0.1c-1.1-0.6-2.1-1.3-3.2-2c-0.6-0.4-1.1-0.9-1.7-1.3
		c-0.7-0.5-1.4-0.8-2.3-0.5c-0.7,0.2-1.4,0.2-2.1,0.1c-2.4-0.1-4.8,0.1-7.1,0.7c-0.2,0.1-0.5,0-0.7,0.1c-0.5,0-0.9,0.1-1.4,0.1
		c0.3,0.4,0.6,0.7,0.8,1.1c0.4,0.6,0.8,1.1,1.2,1.7c0.2,0.4-0.1,0.5-0.4,0.5c-0.3,0-0.6-0.1-0.9-0.2c-1.5-0.9-3-1.6-4.4-2.6
		c-0.7-0.5-1.3-0.7-2.1-0.7c-3.6,0-7.2,0.1-10.8-0.1c-2.7-0.1-5.4-0.4-8.1-1.1c-3.4-0.9-6.8-1.6-10.2-2.3C9.2,8.2,8,8.3,6.8,8.3
		c-1.6,0-3.1,0-4.7,0c-0.4,0-0.9,0.1-1.2-0.1C0.5,8.1,0.3,7.8,0,7.5c0.2-0.2,0.5-0.6,0.7-0.7c1.1-0.2,2.1-0.4,3.2-0.4
		c4.2,0.1,8.3-0.9,12.4-1.7c4.1-0.8,8.2-1.4,12.4-1.7C37.2,2.6,45.8,3,54.3,2.9c1.8,0,3.7,0.1,5.5,0.3c1.3,0.1,2.5-0.3,3.5-1
		c1.4-1,3-1.6,4.7-2.1c1-0.3,2-0.2,3,0.2C72,0.7,72.3,1.2,71.6,2c-0.8,1-1.8,1.8-2.7,2.6c-0.2,0.2-0.3,0.3-0.4,0.5
		c0.2,0.1,0.4,0.2,0.6,0.2c1.9-0.2,3.8-0.4,5.6-1C77.5,3.5,80.2,3,83,3.2c1,0.1,2,0.2,2.8,1c0.6,0.6,0.9,1.3,0.3,2.1
		c-0.5,0.8-1,1.6-1.7,2.3c-0.9,0.9-1.8,1.7-2.9,2.4c-1.2,0.8-2.5,0.7-3.8,0.3c-1-0.3-2.1-0.6-3.1-1c-1.1-0.4-2.3-0.7-3.5-0.7
		c-0.3,0-0.6,0-0.9-0.1c-1-0.4-2-0.3-3,0c-0.4,0.1-0.8,0-1.3,0.1c-0.1,0-0.3,0.1-0.4,0.2c0.1,0.1,0.2,0.3,0.4,0.4
		c0.8,0.6,1.6,1,2.3,1.7C69.1,12.7,69,13.1,68,14c-0.5-0.3-0.7-0.8-1-1.2c-1.1-1.5-2.7-1.7-4.5-1.5c-0.8,0.1-0.8,0.5-0.2,0.9
		c1.1,0.9,2.3,1.6,3.9,1.5C66.8,13.6,67.5,13.5,68,14z"/>
	<path d="M56.4,7.2c2.2,0,4.4,0,6.6,0c0.2,0,0.3,0.1,0.5,0.1c-0.1,0.1-0.3,0.2-0.4,0.2c-0.4,0-0.8,0-1.3,0c-4.1,0-8.2,0-12.4,0
		c-0.2,0-0.4-0.1-0.6-0.2c0.2,0,0.3-0.1,0.5-0.1C51.7,7.2,54,7.2,56.4,7.2z"/>
	<path d="M36,7.5c-1.6,0-3.1,0-4.7,0c-0.2,0-0.3-0.1-0.5-0.1c0.1-0.1,0.3-0.2,0.4-0.2c3,0,6.1,0,9.1,0c0.1,0,0.3,0.1,0.4,0.2
		c-0.2,0-0.3,0.1-0.5,0.1C38.8,7.5,37.4,7.5,36,7.5C36,7.5,36,7.5,36,7.5z"/>
	<path d="M27.9,7.3C27.5,7.2,27,7.1,26.5,7c0.5,0,0.9-0.1,1.4-0.1c0.4,0,0.7,0,1.1,0c0.2,0,0.4,0.1,0.7,0.2
		c-0.2,0.1-0.4,0.2-0.6,0.2C28.7,7.2,28.3,7.2,27.9,7.3C28,7.2,28,7.2,27.9,7.3z"/>
</g>
</svg>
