<?xml version="1.0" encoding="iso-8859-1"?>
<!-- Generator: Adobe Illustrator 25.3.0, SVG Export Plug-In . SVG Version: 6.00 Build 0)  -->
<svg version="1.1" id="Calque_1" xmlns="http://www.w3.org/2000/svg" xmlns:xlink="http://www.w3.org/1999/xlink" x="0px" y="0px"
	 viewBox="0 0 84.2 23.8" style="enable-background:new 0 0 84.2 23.8;" xml:space="preserve">
<g>
	<path d="M19,8.2c1.5,0,3,0,4.5,0c0.5,0,1.1-0.1,1.6-0.2c0.5,0,1,0,1.6,0c1.3,0,2.6,0,3.9-0.1c0.1,0,0.2-0.1,0.3-0.1
		c1.7-0.1,3.4-0.3,5.2-0.3c1.5,0,3,0.2,4.5,0.2c1.1,0,2.2-0.3,3.4-0.3c0.7,0,1-0.4,1.3-1c0.5-1,1-2,1.5-3c0.4-0.8,0.8-1.5,1.9-1.4
		c0.3,0,0.6-0.2,0.8-0.3c1.3-0.8,2.9-1,4.3-1.4c0.4-0.1,0.8-0.3,1.2-0.4c0.2-0.1,0.4,0,0.6,0c-0.1,0.2-0.1,0.4-0.2,0.6
		c-0.3,0.5-0.7,0.8-0.5,1.6c0.1,0.3-0.5,0.8-0.9,1.2c-0.5,0.4-0.1,0.5,0.2,0.7c0.4,0.2,0.5,0.5,0,0.7c-1.4,0.7-2.7,1.5-4.1,2.2
		c-0.1,0.1-0.1,0.2-0.2,0.3c0.1,0.1,0.3,0.2,0.4,0.2c3.2,0,6.5,0.3,9.7-0.1c2.4-0.3,4.6,0.3,6.9,0.1c1-0.1,1.9-0.1,2.7-0.7
		c0.4-0.3,0.8-0.4,1.3-0.6c1.2-0.5,2.4-0.9,3.8-0.6c1.2,0.3,2.4,0.2,3.7,0.6c1.2,0.4,2.1,1.1,3,1.8c1,0.8,1.8,1.7,2.6,2.6
		c0.2,0.2,0.1,0.5,0.1,0.8c0,0.2-0.1,0.5,0,0.7c0.8,1,0.1,1.5-0.5,2.1c-0.6,0.6-1.1,1.4-1.8,1.9c-0.9,0.7-1.7,1.4-2.9,1.5
		c-1.5,0.1-2.9,0.5-4.4,0.7c-1.5,0.2-2.9-0.3-4.3-0.9c-0.6-0.3-1.4-0.5-2-0.5c-3.2,0.1-6.3,0.2-9.5,0.4c-0.5,0-1.1,0.2-1.6,0.3
		c-0.1,0-0.2,0.1-0.2,0.2c0,0.1,0.1,0.2,0.2,0.3c1.8,1.1,2.7,3,3.8,4.6c0.1,0.1-0.1,0.5-0.2,0.6c-0.6,0.1-1.2,0.9-1.9,0.3
		c-0.1-0.1-0.4-0.2-0.5-0.2c-1.2,0.3-2.3-0.3-3.4-0.6c-2.3-0.5-4.3-1.7-6-3.3c-0.4-0.4-0.8-0.5-1.3-0.7c-1.7-0.7-3.4-0.6-5.2-0.5
		c-3.1,0.2-6.2,0.1-9.4,0.1c-0.2,0-0.4,0.1-0.7,0.1c0.2,0.2,0.3,0.4,0.5,0.4c1.6,0.4,3.2,0.7,4.9,1.1c0.3,0.1,0.8,0,1,0.2
		c0.4,0.4,0.6,0.9,0.8,1.3c0,0.1,0,0.2-0.1,0.3c-0.4,0.3-0.7,0.6-1.1,0.7c-0.3,0.1-0.7-0.1-1-0.2c-0.6-0.2-1.3-0.3-1.9-0.6
		c-0.5-0.2-0.8-0.3-1.2,0.2c-0.3,0.5-0.8,0.2-1.1,0c-1.2-0.9-2.4-1.7-3.5-2.7c-0.7-0.6-1.3-1-2.2-0.9c-0.1,0-0.2,0-0.4,0
		c-2.4-0.2-4.8,0-7,0.8c-0.9,0.4-1.8,0.2-2.6-0.3c-1.3-0.9-2.8-1-4.3-1c-3.3,0-6.5-0.5-9.7-1.3c-1.7-0.4-2.3-1.7-3-3
		c-0.3-0.5,0-1,0.4-1.5C1.7,11,3.2,10.4,4.9,10C9.5,9,14.1,7.8,19,8.2z"/>
	<path d="M67.8,12.3c-3,0.1-6,0.2-8.9,0.3c-4.4,0.1-8.7,0-13.1,0.4c-5.6,0.5-11.2,0.2-16.9,0.3c-2.3,0-4.6-0.4-6.9-0.7
		c-1.3-0.1-2.6-0.2-3.9-0.4c-0.6-0.1-1.3-0.2-1.9-0.4c-0.2,0-0.3-0.1-0.4-0.2c0.2-0.1,0.3-0.2,0.5-0.2c0.9,0.1,1.8,0.3,2.6,0.4
		c2.3,0.2,4.6,0.4,6.9,0.7c5.5,0.7,11,0.4,16.5,0.3c3.6-0.1,7.3-0.1,10.9-0.3c2.4-0.2,4.9,0,7.3-0.3c2.8-0.3,5.6-0.2,8.4-0.3
		c0.4,0,0.8-0.2,1.2-0.3c0.1,0,0.3-0.1,0.4-0.1c0,0.2,0.1,0.5,0.1,0.7c0,0.1-0.3,0.2-0.5,0.2C69.3,12.3,68.6,12.3,67.8,12.3
		C67.8,12.3,67.8,12.3,67.8,12.3z"/>
	<path d="M8.3,14.2c0-0.2,0-0.5,0.2-0.8c0.1-0.1,0.3-0.2,0.5-0.3c0.1,0,0.2,0.3,0.2,0.4c0,0.4-0.1,0.8-0.2,1.2C9,14.9,8.8,15,8.7,15
		c-0.1,0-0.2-0.1-0.2-0.2C8.4,14.6,8.4,14.5,8.3,14.2z"/>
</g>
</svg>
