<?xml version="1.0" encoding="iso-8859-1"?>
<!-- Generator: Adobe Illustrator 25.3.0, SVG Export Plug-In . SVG Version: 6.00 Build 0)  -->
<svg version="1.1" id="Calque_1" xmlns="http://www.w3.org/2000/svg" xmlns:xlink="http://www.w3.org/1999/xlink" x="0px" y="0px"
	 viewBox="0 0 79.6 20.8" style="enable-background:new 0 0 79.6 20.8;" xml:space="preserve">
<g>
	<path d="M31.5,19c-1.2,0.4-2.8-0.1-4.5-0.2c-0.8,0-1.7,0-2.4-0.3c-0.7-0.2-1.6,0.2-2.1-0.5c-1.1,0.3-1.7-0.6-2.3-1.2
		c-0.4-0.4-0.9-0.6-1.5-0.8c-1-0.3-1.8-0.8-2.8-1.2c-0.2-0.1-0.4,0-0.6,0c0,0.2,0,0.5,0.1,0.7c0.3,0.4,0.7,0.8,1.1,1.1
		c1,0.8,1.3,2,1.6,3.1c0.1,0.3-0.1,0.8-0.3,1.1c-0.1,0.1-0.7,0-1-0.2c-2-0.9-3.5-2.2-4.2-4.2C12,15,11,14.6,9.7,14.5
		c-3.2-0.4-6-1.7-8.6-3.5c-1.4-1-1.3-2,0-3.2C2.4,6.7,4,6.2,5.5,5.6c0.1,0,0.2-0.1,0.3-0.1c2.3,0.6,4.4-0.6,6.6-0.7
		c1.8-0.1,3.7-0.3,5.5-0.5c1.9-0.1,3.8-0.2,5.7-0.3c0.6,0,0.9-0.4,1.2-0.9c1-1.5,1-1.5,3.3-1.8c0.6-0.1,1.2-0.1,1.6-0.4
		c1.1-0.8,2.4-0.4,3.5-0.7c1.3-0.3,2.7-0.2,4-0.2c1.5,0,3.1-0.2,4.6,0c2.7,0.4,5.5,0.2,8.3,0.9c2.3,0.6,4.7,0.7,7,1.2
		c2.9,0.6,5.9,1.3,8.8,2c0.7,0.2,1.4,0.3,2.1,0.3c1.2,0,1.7,0.7,1.6,1.7c-0.1,0.7,0.2,0.6,0.7,0.6c0.3,0,0.6-0.2,0.8-0.3
		C72.6,6,74,5.9,75.4,5.8c1.1-0.1,2.1-0.4,3.1-0.7C79.2,5,79.7,5.3,79.6,6c-0.1,1.1-0.1,2.1-0.3,3.1c-0.2,1.1-0.4,2.2-0.8,3.3
		c-0.3,0.9-1.2,0.7-1.9,0.6c-1.3-0.2-2.5-0.6-3.8-0.8C71.9,12,71,11.8,70,11.6c-0.8-0.1-0.9,0.3-0.6,1c0.5,0.9,0.4,0.9-0.5,1.2
		c-2.5,0.8-5.1,1-7.7,1.5c-1.5,0.3-3.1,0.5-4.7,0.8c-1.9,0.4-3.7,0.7-5.6,1c-3,0.5-6,0.9-9,1.3c-1.9,0.2-3.9,0.4-5.9,0.5
		C34.8,18.9,33.4,18.9,31.5,19z"/>
</g>
</svg>
