<?xml version="1.0" encoding="iso-8859-1"?>
<!-- Generator: Adobe Illustrator 25.3.0, SVG Export Plug-In . SVG Version: 6.00 Build 0)  -->
<svg version="1.1" id="Calque_1" xmlns="http://www.w3.org/2000/svg" xmlns:xlink="http://www.w3.org/1999/xlink" x="0px" y="0px"
	 viewBox="0 0 83.1 24.3" style="enable-background:new 0 0 83.1 24.3;" xml:space="preserve">
<g>
	<path d="M27.7,15.6c-1.3,0-2.6,0-4,0c-0.8,0-1.2,0.3-1.4,1c-0.7,1.9-1.6,3.8-1.5,6c0,0.6-0.4,1.4-0.8,1.6c-0.6,0.3-1.2-0.4-1.6-0.8
		c-1.2-1.2-2-2.6-2.6-4.2c-0.4-1.1-0.8-2.2-1.1-3.4c-0.2-0.6-0.5-0.9-1.3-1c-2.4-0.2-4.7-0.4-7.1-0.7c-1.9-0.3-3.7-0.6-5.5-1.4
		c-0.3-0.1-0.5-0.4-0.8-0.7c0.3-0.3,0.5-0.7,0.8-0.8c0.9-0.3,1.8-0.5,2.7-0.7C5.7,10,7.8,9.4,10,9c3-0.6,6.1-1.2,9.2-1.4
		c1.5-0.1,2.9-0.5,4.4-0.6c1.1-0.1,1.7-0.7,2.2-1.5c1-1.7,2.1-3.3,3.5-4.7c0.2-0.2,0.3-0.4,0.5-0.5c0.5-0.5,1-0.3,1.1,0.4
		c0.2,1,0.2,2.1,0.4,3.2c0.3,1.6,0.4,2.3,2.6,2.4c0.1,0,0.1,0,0.2,0c0.2,0.1,0.3,0.2,0.5,0.3c-0.1,0.1-0.2,0.3-0.3,0.4
		c-0.2,0.1-0.4,0.2-0.7,0.2c0.2,0.1,0.4,0.3,0.6,0.3c0.4,0.1,0.8,0.1,1.2,0.1c2.9,0,5.7,0.3,8.6,0.7c2.5,0.3,5.1,0.3,7.7,0.4
		c0.9,0.1,1.7-0.2,2.5-0.8c1.1-0.8,2.3-1.5,3.4-2.3c0.3-0.2,0.6-0.4,1-0.4c0.4,0,0.8,0,1.1,0.2c0.1,0.1,0,0.6-0.1,0.9
		c0,0.2-0.2,0.3-0.3,0.5c-0.8,1.7-0.7,2.1,1,2.9c1.6,0.7,1.6,0.7,2.7,0.8c0.7,0,1.4,0.1,2.1,0.3c1.3,0.3,2.6-0.1,3.9-0.4
		c1.9-0.4,3.7-0.7,5.7-0.6c2,0,4,0,5.9,0c0.4,0,0.9,0,1.3,0.1c1.1,0.3,1.3,0.9,0.6,1.8c-0.3,0.4-0.7,0.8-1.1,1.2
		c-0.7,0.7-1.4,0.9-2.2,0.4c-0.5-0.3-1-0.2-1.5-0.1c-1.4,0.4-2.8,0.6-4.1,1.1c-0.9,0.3-1.8,0.9-2.6,1.4c-1.1,0.8-1.4,0.9-2.7,0.2
		c-1-0.5-2-1.1-3-1.5c-0.6-0.3-1.3-0.3-1.9-0.5c-1.8-0.5-2.8,0.9-4,1.7c-0.2,0.2-0.3,0.6-0.4,0.9c-0.4,1-0.7,1.1-1.6,0.5
		c-0.5-0.3-0.9-0.7-1.3-1.2c-0.9-1-1.9-1.4-3.2-1.3c-1.8,0.1-3.7,0.3-5.5,0.4c-0.1,0-0.4,0.3-0.3,0.4c0.1,0.5-0.2,0.6-0.6,0.7
		c-0.4,0.1-0.8,0.2-1.2,0.4c-0.9,0.4-1.7,0.7-2.3,1.6c-0.8,1.2-1.5,1.1-2.2-0.2c-0.3-0.6-0.6-1.3-0.8-2c-0.3-0.6-0.6-1-1.3-0.7
		c-0.3,0.1-0.6,0.1-0.9,0.1C34.4,15.4,31.1,15.5,27.7,15.6C27.7,15.7,27.7,15.6,27.7,15.6z"/>
	<path d="M11.5,13.8c-0.1-0.5-0.3-1-0.4-1.5c0-0.2,0.2-0.3,0.3-0.5c0.1,0.2,0.4,0.3,0.4,0.5c0,0.5,0,1,0,1.6
		C11.7,13.8,11.6,13.8,11.5,13.8z"/>
	<path d="M13.7,13c-0.1,0.2-0.3,0.5-0.5,0.5c-0.8,0-1-0.3-1.1-1.1c-0.1-0.8,0.6-0.6,0.9-0.7C14,11.7,13.5,12.5,13.7,13z"/>
</g>
</svg>
