<?xml version="1.0" encoding="iso-8859-1"?>
<!-- Generator: Adobe Illustrator 25.3.0, SVG Export Plug-In . SVG Version: 6.00 Build 0)  -->
<svg version="1.1" id="Calque_1" xmlns="http://www.w3.org/2000/svg" xmlns:xlink="http://www.w3.org/1999/xlink" x="0px" y="0px"
	 viewBox="0 0 80.8 29.7" style="enable-background:new 0 0 80.8 29.7;" xml:space="preserve">
<g>
	<path d="M30.4,4.2c1.4,0,2.9-0.1,4.3,0c2,0.2,3.8-0.5,5.5-1.3c1.6-0.7,3.1-1.5,4.7-2.2c0.7-0.3,1.4-0.5,2.2-0.7
		c0.8-0.2,1.3,0.4,1.1,1.1c-0.1,0.3-0.2,0.7-0.3,1c-0.6,1.9-0.4,2.3,1.4,3.3c1.3,0.7,2.6,1.5,3.8,2.3C53.5,8,54.5,8.2,53.6,9
		c0.1,0.1,0.2,0.3,0.4,0.4c1.9,0.6,3.8,1.4,5.8,1.8c1.6,0.3,3.3,0.1,5,0.1c2.2,0,4.3-0.7,6.4-0.9c2.1-0.1,4.3-0.1,6.5,0
		c0.8,0,1.6,0.3,2.4,0.6c0.9,0.4,1.1,1.2,0.4,1.9c-0.6,0.6-1.4,1.1-2.2,1.5c-1.3,0.8-2.7,1.4-4,2.2c-1.6,1-1.9,1.9-1.3,3.7
		c0.3,0.9,0.7,1.8,0.9,2.7c0.2,0.6,0.3,1.3,0.3,1.9c0,1.1-0.8,1.6-1.8,1.1c-1.6-1-3.1-2-4.6-3.1c-2-1.5-3.9-3-6-4.5
		c-1.5-1.1-3.3-1.4-5.1-1.2c-0.1,0-0.2,0.1-0.3,0.1c0.1,0.1,0.2,0.3,0.3,0.4c0.6,0.7,0.6,0.7-0.2,1c-1.1,0.4-2.3,0.7-3.4,1
		c-2.6,0.7-5.1,1.7-7.5,2.8c-0.7,0.4-1.5,0.8-2,1.4c-0.9,1-1.5,2.1-1.4,3.5c0,0.4,0,0.8,0,1.2c-0.1,1-0.4,1.2-1.2,0.8
		c-3.4-1.6-6.6-3.5-9.4-6.1c-0.6-0.5-1.1-0.8-1.9-0.8c-2.6,0-5.3,0-7.9,0c-1.1,0-1.1,0-1.1,1c-0.1,1.5-0.9,2.8-1.6,4.1
		c-0.3,0.6-0.9,0.5-1.2-0.1c-0.3-0.7-0.6-1.5-0.9-2.3c-0.3-0.8-0.5-1.7-0.9-2.5c-0.3-0.6-0.8-1.1-1.6-1.3c-1.2-0.2-2.5-0.4-3.6-0.7
		c-2.3-0.7-4.6-1.3-6.6-2.5c-0.8-0.5-1.6-0.8-2.3-1.3c-0.6-0.4-1.2-1-1.8-1.5c0.2-1.1-0.3-2.5,0.9-3.4c1.1-0.8,2.1-1.7,3.3-2.4
		c1.6-0.8,3.2-1.5,4.9-2.1c3-1.2,6.2-2.1,9.4-2.6C22.4,4.5,26.4,3.9,30.4,4.2z"/>
	<path d="M14,10c0.5-1.1,1.7-1.1,2.6-1.4c1.1-0.3,2.3-0.6,3.5-0.7c0.9-0.1,1.8-0.1,2.7,0c3.7,0.7,7.3,1.8,10.8,2.9
		c3.2,1,6.4,1.6,9.7,2.1c6.1,0.8,12.2,0.5,18.3,0.6c0.5,0,1.5-0.3,1.5,0.3c0,0.8-0.9,0.4-1.5,0.4c-4.2,0-8.4,0.1-12.6,0
		c-1.8,0-3.6-0.4-5.5-0.7c-0.1,0-0.2-0.1-0.4,0c-2.1,0.3-4-0.5-6-0.8c-1.5-0.2-3-0.9-4.4-1.4c-2.2-0.7-4.4-1.6-6.6-2.1
		c-2.3-0.5-4.6-0.9-7-0.5C17.4,9.1,15.8,9.9,14,10L14,10z"/>
	<path d="M11.1,15c0.2,1.3-0.5,2.1-1.5,2.7c-0.1,0.1-0.3,0-0.5-0.1c-0.1,0-0.1-0.2,0-0.3C9.8,16.6,10.4,15.8,11.1,15
		C11.1,15,11.1,15,11.1,15z"/>
	<path d="M9.7,13.2C9.8,12.5,9.3,12,9,11.4C10.2,11.8,10.3,12.2,9.7,13.2z"/>
	<path d="M66,12.4c0.2,0.5,0.4,0.8,0.5,1.1c0,0.1-0.1,0.3-0.2,0.4c-0.2-0.2-0.5-0.3-0.6-0.5C65.5,13.3,65.7,13.1,66,12.4z"/>
</g>
</svg>
