<?xml version="1.0" encoding="iso-8859-1"?>
<!-- Generator: Adobe Illustrator 25.3.0, SVG Export Plug-In . SVG Version: 6.00 Build 0)  -->
<svg version="1.1" id="Calque_1" xmlns="http://www.w3.org/2000/svg" xmlns:xlink="http://www.w3.org/1999/xlink" x="0px" y="0px"
	 viewBox="0 0 82.4 16.6" style="enable-background:new 0 0 82.4 16.6;" xml:space="preserve">
<g>
	<path d="M21.5,0.2c1.1-0.1,2.1-0.1,3.2-0.2c0.2,0,0.5,0,0.7,0.1c1.2,0.5,2.5,0.4,3.7,0.4c2,0,4,0.3,6,0.7c1.9,0.4,3.8,0.5,5.7,0.8
		c0.9,0.1,1.9,0.3,2.8,0.4c1.3,0.1,2.5-0.1,3.7-0.9c0.9-0.6,2.2-0.7,3.4-0.8c1.3-0.1,2.6-0.1,4,0c0.5,0,0.9,0.2,1.4,0.3
		c0.6,0.2,0.8,0.6,0.8,1.2c0,0.6-0.5,0.7-1,0.8c-0.2,0-0.4,0.1-0.6,0.1c0.2,0.1,0.4,0.3,0.6,0.4c0.8,0.2,1.6,0.4,2.4,0.5
		c2.5,0.2,5,0.8,7.5,0.5c2.4-0.4,4.8-1,7.1-1.5c2.7-0.6,5.4-1,8.1-0.9c1.3,0,1.7,0.7,0.9,1.7c-0.8,0.9-1.8,1.7-2.8,2.5
		c-0.4,0.3-1.1,0.5-1,1.1c0.1,0.6,0.3,1.2,0.7,1.6c0.7,0.9,1.6,1.6,2.4,2.4c0.4,0.4,0.7,0.8,1,1.3c0.4,0.7,0.2,1.2-0.6,1.2
		c-1.1,0.1-2.3,0.2-3.4,0c-2.1-0.4-4.1-1-6.2-1.5c-1.6-0.4-3.1-0.6-4.7-0.9C66.2,11.1,65,11,63.9,11c-0.6,0-0.6,0.1-0.3,0.7
		c0.4,0.9-0.3,2.1-1.4,2.4c-1,0.2-2.1,0.5-3.1,0.7c-0.6,0.1-1.2-0.1-1.7-0.3c-1.1-0.3-2.2-0.7-3.2-1.1c-1.6-0.7-3.2,0-4.7,0.2
		c-0.3,0-0.6,0.2-0.9,0.2c-0.8,0.2-0.8,0.2-0.3,0.9c0.3,0.4,0.5,0.9,0.2,1.3c-0.2,0.2-0.8,0.4-1.1,0.3c-1-0.3-2.1-0.7-3-1.2
		c-1.1-0.6-2.2-0.6-3.4-0.4c-2.5,0.5-5,0.8-7.5,1.3c-2.4,0.5-4.9,0.4-7.3,0.6c-0.7,0.1-1.4-0.1-2.1-0.2c-0.2,0-0.4-0.1-0.5-0.1
		c-1.6,0.6-3.2,0.1-4.8,0c-3-0.3-5.9-0.8-8.7-1.8c-0.4-0.1-0.8-0.3-1.2-0.3c-2.5-0.1-4.6-1.2-6.7-2.4c-0.9-0.5-1.7-1.3-1.5-2.6
		c0.1-0.5-0.1-1.1-0.4-1.5c-0.5-0.9-0.3-1.5,0.4-2C1.5,5,2.2,4.4,3,4c1.5-0.7,3.1-1.2,4.7-1.7c1.4-0.5,2.9-0.7,4.3-1.2
		c1.4-0.4,2.8-0.5,4.2-0.7C18,0.1,19.8,0.2,21.5,0.2z"/>
	<path d="M8.5,4c0.1,0,0.2,0,0.4,0c1.5,0.1,2.5,0.8,2.6,2c0,1-1.1,2.6-2.2,2.7C8.6,8.8,7.9,8.8,7.3,8.6C5.9,8.2,5.1,6.4,5.8,5
		c0.3-0.4,0.9-0.7,1.4-0.9C7.6,4,8.1,4.1,8.5,4C8.5,4.1,8.5,4.1,8.5,4z"/>
</g>
</svg>
