<?xml version="1.0" encoding="iso-8859-1"?>
<!-- Generator: Adobe Illustrator 25.3.0, SVG Export Plug-In . SVG Version: 6.00 Build 0)  -->
<svg version="1.1" id="Calque_1" xmlns="http://www.w3.org/2000/svg" xmlns:xlink="http://www.w3.org/1999/xlink" x="0px" y="0px"
	 viewBox="0 0 74.6 36" style="enable-background:new 0 0 74.6 36;" xml:space="preserve">
<g>
	<path d="M21,3.1c0.2-0.2,0.5-0.4,0.5-0.7c0.2-0.8,0.3-1.4,1.4-0.6c0.5,0.4,1.1-0.2,1.5-0.6c0.2-0.2,0.2-0.6,0.3-0.8
		c0.2-0.4,0.5-0.5,0.8,0C25.7,0.5,25.8,0.8,26,1c0.2,0.1,0.5,0.3,0.6,0.2c0.8-0.8,1.7-0.4,2.6-0.3c0.2,0,0.5-0.1,0.7-0.2
		c0.4-0.2,0.7-0.1,1,0.2c0.5,0.4,1,0.9,1.7,0.5c0.1-0.1,0.4,0.1,0.6,0.1c0.2,0.1,0.4,0.4,0.6,0.4c0.6,0,1.2-0.3,1.7-0.1
		c0.5,0.2,0.9,0.7,1.6,0.4c0.2-0.1,0.5,0,0.6,0.1c0.5,0.5,1,0.8,1.7,0.5c0.1,0,0.3,0,0.3,0c1.5,1,3.1,0.5,4.7,0.6
		c1.2,0.1,2.5,0.1,3.7,0.4c2.1,0.5,3.8,1.8,4.9,3.6c0.7,1.1,0.5,2.3-0.7,3.1c-0.7,0.5-1.6,0.8-2.4,1.2c-0.4,0.2-0.4,0.4,0,0.6
		c0.3,0.1,0.5,0.3,0.8,0.3c3,0.1,6,0.4,8.8-1c2.3-1.2,4.5-2.4,6.8-3.6c1.7-0.9,3.4-1.7,5.1-2.6C72,5.2,72.4,5.1,72.8,5
		c0.8-0.2,1.2,0.2,0.9,0.9c-0.2,0.7-0.5,1.3-0.8,2c-0.8,1.5-1.6,3.1-2.3,4.6C70,14,69.3,15.6,70,17.3c0.2,0.6,0.4,1.2,0.8,1.7
		c0.9,1.2,1.9,2.4,2.9,3.6c0.3,0.4,0.6,0.8,0.8,1.2c0.4,0.6,0.2,1.1-0.5,1.1c-2.8,0.1-5.5,0-8.1-1.1c-2.1-0.9-4.2-1.6-6.4-2.3
		c-2.9-0.9-5.9-0.6-8.8,0.3c-0.3,0.1-0.5,0.3-0.7,0.4c0.2,0.1,0.5,0.3,0.8,0.4c1.2,0.4,2.2,0.8,3.1,1.7c0.9,0.9,0.9,1.2,0,2.1
		c-0.5,0.4-1,0.9-1.6,1.2c-2.2,0.9-4.5,1.7-6.7,2.5c-0.3,0.1-0.7,0-1,0c-0.8,0-1.7-0.1-2.4,0.1c-0.5,0.1-0.9,0.1-1.3-0.3
		c-0.4-0.4-0.8-0.8-1.6-0.5c-0.2,0.1-0.6-0.2-0.7-0.3C38,28,37,28.1,36,28.2c-1.4,0.1-2.8,0.2-4.3,0.3c-0.2,0-0.6-0.1-0.2,0.4
		c0.3,0.4,0.5,1,0.6,1.6c0.3,1.6,0.6,3.1,0.8,4.7c0.1,0.6-0.3,0.9-0.9,0.7c-0.5-0.2-1-0.5-1.4-0.8c-2.8-2.1-5.9-3.8-8.3-6.4
		c-0.8-0.8-1.8-0.8-2.8-0.9c-4.1-0.5-8.1-1.1-12.1-2.2c-1.8-0.5-3.6-1.2-5.3-1.9c-0.7-0.3-1.3-0.9-1.7-1.5c-0.9-1.4-0.6-2.6,0.5-3.9
		c2.9-3.2,6.3-5.7,10-7.8c2.5-1.4,5.1-2.6,7.6-3.9c0.6-0.3,0.8-0.6,0.8-1.2c0.1-0.8,0.2-1.5,0.5-2.2C20.1,2.9,20.5,2.3,21,3.1
		c-0.3,0.3-0.2,0.6-0.2,1C20.8,3.8,20.6,3.4,21,3.1z"/>
	<path d="M18.4,20.9c1.3-0.2,2.6-0.3,3.9-0.5c3.4-0.7,6.9-1.5,10.4-1.6c1-0.1,2-0.2,3-0.3c0.2,0,0.4,0.3,0.5,0.4
		c-0.2,0.1-0.3,0.3-0.5,0.3c-1,0.5-1.8,1.3-2.6,2.1c-1.9,2.1-4.2,3.7-7,4.5c-0.2,0.1-0.5,0.1-0.7,0.1c-1.4-0.1-2.8-0.2-4.3-0.3
		c-0.4,0-0.7-0.2-0.5-0.7c0.4-1.4-0.3-2.1-1.4-2.7C18.7,22,18.3,21.6,18.4,20.9L18.4,20.9z"/>
	<path d="M10.2,16.7c-0.1,0-0.7-0.1-1.1-0.4c-0.9-0.5-1-1.5-0.4-2.3c0.6-0.8,2-1.2,2.9-0.9c0.7,0.2,1.2,1,1.1,1.8
		c-0.1,1-0.6,1.7-1.4,1.8C11.1,16.7,10.8,16.7,10.2,16.7z"/>
	<path d="M10.7,24.6c-0.4-0.1-1.1-0.3-1-0.4c0-0.6,0.6-0.4,1-0.4c1.2,0,2.3-0.3,2.7-1.6c0.2-0.8,0.3-1.6,0.5-2.4
		c0.2-0.9,0.3-1.9,0.4-2.8c0.1-0.3,0.3-0.6,0.5-0.9c0,0,0.2,0,0.3,0c0,0,0.1,0.1,0.1,0.1c0,0.1,0,0.1,0,0.2
		c-0.3,1.8-0.7,3.6-0.9,5.4C14,23.7,12.7,24.5,10.7,24.6z"/>
	<path d="M7.8,14.4C7.9,14.8,8,15.1,8,15.3c-0.1,0.2-0.4,0.3-0.6,0.5C7.2,15.5,7,15.3,7,15.1C7.1,14.9,7.4,14.7,7.8,14.4z"/>
	<path d="M6.8,15.8c-0.3,0.2-0.4,0.3-0.6,0.4c-0.1-0.2-0.3-0.3-0.3-0.5c0-0.2,0.3-0.3,0.4-0.4C6.4,15.5,6.5,15.6,6.8,15.8z"/>
</g>
</svg>
