<?xml version="1.0" encoding="iso-8859-1"?>
<!-- Generator: Adobe Illustrator 25.3.0, SVG Export Plug-In . SVG Version: 6.00 Build 0)  -->
<svg version="1.1" id="Calque_1" xmlns="http://www.w3.org/2000/svg" xmlns:xlink="http://www.w3.org/1999/xlink" x="0px" y="0px"
	 viewBox="0 0 59.6 69.5" style="enable-background:new 0 0 59.6 69.5;" xml:space="preserve">
<g>
	<path d="M16.8,49.7c-0.5,0.4-0.9,0.9-1.4,0c-0.4-0.8-0.9-0.7-1,0.1c-0.2,1.3-1.5,1.6-2.2,2.4c-0.2,0.2-0.6,0.1-0.5-0.4
		c0.1-0.9,0.1-1.8-1-2.2c-0.1,0-0.1-0.3-0.1-0.4c0.6-0.8-0.1-1.4-0.3-2c-0.3-0.7-0.5-1.7-1.5-1.8c-0.9-0.1-0.2-0.7-0.5-1.1
		c-0.4-0.5-1.1-1.2-1-1.7c0.2-0.5,1-0.9,1.6-1.3C9,41.3,9,41.1,9.1,41c-0.2,0-0.3,0-0.5,0c-0.3-0.1-0.7-0.1-1-0.2
		c-0.1-0.1-0.3-0.4-0.3-0.4c0.4-0.5,0.6-0.9,0-1.4c-0.1-0.1,0.1-0.6,0.3-0.6c0.6-0.2,1.3-0.5,1.9-0.5c1.7,0.1,2.8-0.8,3.6-2
		c1.6-2.4,1.4-1.8-0.9-2.7c-1.4-0.5-2.7-1.2-4-2c-0.8-0.5-0.7-0.7-0.1-1.4c0.7-0.7,0.8-1.6,0.9-2.5c0-0.1,0.2-0.2,0.2-0.2
		c0.1,0.1,0.2,0.2,0.3,0.3c0.1,0.3,0.1,0.7,0.2,1c0,0.1,0.3,0.2,0.4,0.3c0.1-0.1,0.2-0.3,0.2-0.4c0.2-1.8,0.4-3.7,0.5-5.5
		c0-0.1-0.1-0.2-0.1-0.3c-0.1,0.1-0.2,0.1-0.3,0.2c-0.2,0.5-0.3,1.3-1,0.3c0,0-0.3,0.2-0.5,0.3c-0.2,0.1-0.5,0.2-0.7,0.3
		c0-0.3-0.1-0.6,0.1-0.8c0.7-1,0.5-2.1,0.7-3.1c0.1-0.3-0.2-0.6-0.3-0.9c-0.6-1.2-1.4-2.2-1.3-3.7c0-0.4-0.4-0.9-0.7-1.1
		C5,12.6,5,10.8,4.9,9c0-0.6,1.3-0.6,0.3-1.4C4.8,7.3,4.5,6.7,4.1,6.3C3.9,6.1,3.7,5.9,3.5,5.6C3.4,5.5,3.4,5.2,3.4,5.2
		C4.8,4.7,3.5,4,3.3,3.9c-0.9-1.1-2-2-3-3.1C0.2,0.6,0.1,0.4,0,0.2C0.2,0.2,0.4,0,0.6,0c0.3,0.1,0.7,0.2,1,0.4c1.4,1,2.8,2,3.8,3.4
		C6.1,4.6,6,3.9,6,3.5c0-0.1,0.2-0.4,0.3-0.4c0.1,0,0.4,0.1,0.4,0.3C6.9,4,7,4.7,7.2,5.3C7.3,5.9,7.3,6.5,7.4,7
		c0.1,0.7,0.4,1,1.1,1.4c1.8,0.9,2.1,3.2,0.9,4.7c-0.5,0.6-0.7,1.2-0.4,1.9c0.4,0.9,0.8,1.7,1.3,2.5c0.2,0.3,0.8,0.4,1.1,0.3
		c1.6-0.3,3.2-0.6,4.4-1.7c0.4-0.4,0.8-0.8,1.3-0.9c0.8-0.3,1.3-0.5,0.8-1.5c-0.1-0.3,0.1-0.5,0.5-0.3c0.9,0.4,1.6,1,2.7,0.8
		c0.8-0.1,1.5-0.3,2.3-0.4c4.3-0.7,8.5-0.5,12.6,1.2c1.4,0.6,2.9,1.2,4.3,1.8c0.8,0.4,1.6,0.4,2.4,0c0.4-0.2,1-0.2,1.3-0.5
		c1.2-1,2.3-0.2,3.4,0.2c0.1,0,0.1,0.3,0.1,0.4c-0.2,0.2-0.9,0.2-0.3,0.8c0.3,0.5-0.4,0.5-0.7,0.8c-0.1,0.1-0.2,0.3-0.3,0.4
		c0.2,0,0.4,0.1,0.5,0.1c0.5-0.1,0.9-0.3,1.4-0.5c2.4-1.1,5-0.9,7.6-1c0.6,0,1.3,0.3,2,0.5c-0.1,1.1,1.1,0.8,1.5,1.3
		c0.1,0.1,0.1,0.4,0.1,0.6c0,0.2-0.2,0.4-0.1,0.4c0.6,0.8,0.7,1.1,0.2,1.6c-0.5,0.4-0.4,0.5,0,0.9c0.1,0.1,0.1,0.6-0.1,0.8
		c-0.4,0.3-1,0.5-0.7,1.2c0,0.1-0.1,0.2-0.1,0.3c-1.5,0.6-2.9,1.4-4.5,1.5c-1.3,0.1-2.6-0.1-3.9-0.2c-1.2-0.1-2.5-0.3-3.7-0.5
		c-0.2,0-0.5,0.1-0.7,0.1c0.1,0.2,0.1,0.5,0.2,0.6c0.6,0.4,0.9,1.1,0.5,1.5c-0.5,0.4-0.8,1.3-1.7,1c-1.1-0.4-2.2-0.7-3.4-1.1
		c-0.6-0.2-1.3-0.7-1.8-0.5c-0.8,0.2-0.4,1.1-0.6,1.7c-0.9,4-3.5,6.5-7.4,7.5c-3.7,0.9-7.3,0.6-10.8-1c-0.9-0.4-1.9-0.8-2.8-1.1
		c-0.4-0.1-0.8-0.1-0.8,0.7c0,3.7,1.2,6.9,3.1,10c0.6,0.9,1.4,1.6,2.4,2.1c0.2,0.1,0.3,0.5,0.4,0.7c-0.2,0.1-0.5,0.2-0.7,0.3
		c-0.1,0.1-0.2,0.1-0.3,0.2c0.6,0.7-0.4,1-0.4,1.5c0,0.3-0.2,0.5-0.3,0.8c-0.2-0.2-0.4-0.4-0.5-0.5c-0.1-0.1-0.1-0.2-0.1-0.3
		c0,0.1-0.1,0.2-0.1,0.3c0.1,1.1,0.1,2.2,0.4,3.3c0.2,0.7,1,1.3,1.6,1.9c0.5,0.4,1,0.6,0.4,1.4c-0.3,0.4,0,1.2,0.1,1.8
		c0,0.2-0.1,0.4-0.2,0.6c-0.2-0.1-0.4-0.2-0.6-0.3c-0.1-0.1-0.3-0.1-0.4-0.2c-0.1,0.2-0.2,0.3-0.2,0.5c0.1,0.3,0.2,0.7,0.3,1
		c0,0.1-0.3,0.3-0.3,0.3c-0.7-0.5-0.5,0.1-0.8,0.4c-0.9,1.1-0.4,1.8,0.3,2.7c0.6,0.9,1,2,1.5,3c0.3,0.7,0.1,1.3-0.5,1.8
		c-0.4,0.3-1,0.3-1.5-0.1c-0.2-0.2-0.3-0.4-0.5,0.1c-0.1,0.2-0.3,0.4-0.5,0.6c-0.1-0.2-0.2-0.4-0.3-0.6c-0.1-0.2-0.1-0.3-0.1-0.5
		c-0.1,0.2-0.1,0.4-0.2,0.6c-0.2,0.3-0.4,0.4-0.8,0.5c-1.1,0.2-1.1,0.3-1-0.7c0-0.5,0.2-0.9,0.2-1.4c0-0.1-0.1-0.3-0.1-0.4
		c-0.6-0.5-0.6-0.5-0.3-0.9c0.5-0.7,1-1.4,1.4-2.1c0.2-0.3,0.2-0.8,0.3-1.2c0-0.2-0.2-0.4-0.2-0.6c-0.2,0.1-0.4,0.2-0.6,0.3
		c-0.3,0.3-0.6,0.6-0.9,0.8c-0.8,0.6-1.5,0.3-1.5-0.7c0-0.7,0.2-1.4,0.3-2.1c0-0.1,0-0.2-0.1-0.3c-0.1,0.1-0.3,0.2-0.3,0.3
		c-0.1,0.4-0.1,0.8-0.3,1.2c-0.1,0.2-0.4,0.4-0.6,0.6c-0.1-0.2-0.2-0.5-0.3-0.7c0-0.1,0.1-0.2,0.1-0.3c-0.1-0.3-0.1-0.8-0.3-0.9
		c-0.5-0.2-0.5,0.2-0.6,0.6c-0.1,0.2-0.2,0.5-0.3,0.6c-0.1,0.2-0.3,0.3-0.5,0.4c0,0-0.2-0.2-0.3-0.4c-0.5-0.9-0.6-1.8,0-2.8
		c0.2-0.4,0.2-0.5-0.3-0.9c-0.3-0.3-0.4-0.6-0.1-0.9c1.2-1.4,2.3-2.9,3.5-4.3C15.9,51.7,16.8,51,16.8,49.7c0.2-0.2,0.1-0.6,0.3-0.8
		C17,49.1,17.1,49.5,16.8,49.7z"/>
	<path d="M17,18c0.1-0.8,0.8-1.5,1.5-1.4c0.6,0,1.3,0.9,1.2,1.5c-0.1,0.8-0.8,1.4-1.6,1.4C17.4,19.4,17,18.8,17,18z"/>
	<path d="M8.8,11.2c0.1,0.7-0.5,1.4-1,1.5c-0.6,0.1-1-0.4-1-1.1c0-1,1.2-0.2,1.3-0.9C8.4,10.8,8.7,11,8.8,11.2z"/>
</g>
</svg>
