<svg xmlns="http://www.w3.org/2000/svg" viewBox="0 0 800 353" width="800" height="353">
  <g transform="scale(0.6666666666666666, 0.6660377358490566)">
    <path d="M 521 43.500 C 519.101 44.585, 514.277 44.938, 500.944 44.965 C 481.014 45.005, 481.272 44.918, 473.144 54.325 C 464.882 63.888, 445.065 92.812, 436.540 107.752 C 430.207 118.849, 427.246 123.123, 425.668 123.443 C 424.476 123.685, 420.698 124.156, 417.273 124.489 C 413.848 124.822, 408.898 125.726, 406.273 126.497 C 403.648 127.269, 396.987 128.358, 391.471 128.917 C 385.955 129.476, 379.430 130.647, 376.971 131.520 C 374.512 132.393, 368.450 133.726, 363.500 134.482 C 358.550 135.238, 352.827 136.564, 350.782 137.429 C 348.737 138.293, 346.207 139, 345.159 139 C 344.112 139, 338.360 140.614, 332.377 142.586 C 323.197 145.612, 310.161 149.312, 285 156.035 C 272.139 159.471, 262.528 162.562, 253.671 166.110 C 248.265 168.275, 238.815 171.816, 232.671 173.978 C 226.527 176.139, 218.575 179.007, 215 180.351 C 205.130 184.060, 158.165 206.788, 153.024 210.343 C 150.536 212.064, 131.175 222.069, 110 232.576 C 69.495 252.676, 61.129 257.822, 50.250 269.328 L 45 274.880 45 282.901 C 45 289.077, 44.629 291.218, 43.389 292.211 C 37.126 297.221, 36 298.879, 36 303.085 C 36 308.642, 39.801 315.088, 45.273 318.812 C 54.044 324.781, 77.321 334.869, 92 339.064 C 95.575 340.085, 100.525 341.597, 103 342.422 C 105.475 343.248, 110.118 344.430, 113.317 345.049 C 117.623 345.881, 121.234 347.611, 127.212 351.705 C 135.213 357.185, 135.379 357.244, 144.894 358.032 C 150.178 358.470, 157.425 359.509, 161 360.341 C 164.575 361.174, 173.350 362.353, 180.500 362.962 C 187.650 363.570, 196.875 364.902, 201 365.921 C 205.125 366.940, 212.775 368.055, 218 368.399 C 223.225 368.743, 229.707 369.693, 232.404 370.511 C 235.101 371.328, 242.976 372.444, 249.904 372.991 C 258.091 373.636, 267.316 375.200, 276.259 377.457 C 291.807 381.380, 308.865 383.501, 336.370 384.928 C 351.968 385.738, 355.574 386.210, 357.162 387.647 C 359.676 389.922, 366.910 399.609, 381.695 420.500 C 403.263 450.976, 406.812 454.634, 429.806 470.083 C 445.929 480.916, 449.400 482.714, 463.500 487.540 C 469.550 489.611, 476.882 492.924, 479.794 494.903 C 489.912 501.778, 492.408 502.967, 496.750 502.984 L 501 503 501 499.203 C 501 496.069, 500.285 494.715, 496.908 491.453 C 491.143 485.885, 487.068 479.704, 484.480 472.607 C 483.256 469.248, 480.899 463.350, 479.243 459.500 C 472.057 442.797, 470.049 431.329, 469.305 402.750 L 468.868 386 483.828 386 C 498.794 386, 515.098 387.203, 524.500 389.001 C 531.399 390.321, 552.372 391.691, 593 393.478 C 611.975 394.312, 635.347 395.495, 644.937 396.107 L 662.375 397.220 677.821 411.658 C 694.374 427.128, 710.506 440.483, 721 447.404 C 724.575 449.761, 730.650 453.756, 734.500 456.282 C 738.350 458.808, 747.092 464.912, 753.927 469.849 C 772.591 483.326, 782.263 487.619, 808.475 494.058 C 822.044 497.392, 834.706 497.985, 840.511 495.560 C 845.092 493.646, 853.542 485.638, 856.742 480.178 C 859.026 476.280, 859.366 474.422, 859.769 463.643 C 860.417 446.283, 858.371 404.767, 856.520 397.701 C 855.523 393.898, 855 387.274, 855 378.451 L 855 365 870.364 365 C 878.813 365, 888.151 365.472, 891.114 366.048 C 894.076 366.624, 901.346 367.501, 907.269 367.996 C 913.193 368.492, 921.068 369.784, 924.769 370.868 C 928.471 371.952, 935.053 373.798, 939.395 374.969 C 943.737 376.140, 951.612 379.056, 956.895 381.449 C 962.178 383.842, 967.625 386.127, 969 386.526 C 970.375 386.925, 982.975 393.014, 997 400.057 C 1011.025 407.100, 1027.183 414.949, 1032.906 417.499 C 1038.630 420.049, 1046.955 423.969, 1051.406 426.211 C 1061.695 431.393, 1076.234 436.701, 1086.500 439.024 C 1090.900 440.019, 1095.767 441.321, 1097.315 441.917 C 1098.863 442.513, 1103.728 443, 1108.125 443 L 1116.120 443 1121.613 437.805 C 1127.354 432.375, 1133.933 423.147, 1138.382 414.283 C 1140.812 409.440, 1141 408.115, 1141.002 395.783 C 1141.011 348.291, 1143.930 298.120, 1147.739 280 C 1151.157 263.734, 1151.717 220.011, 1148.609 212 C 1147.649 209.525, 1146.515 206.150, 1146.090 204.500 C 1144.873 199.776, 1142.134 195.014, 1136.654 188.095 C 1123.950 172.055, 1117.031 171.996, 1074.435 187.568 C 1049.743 196.595, 1048.297 197.088, 1034 201.373 C 1029.325 202.774, 1017.850 206.251, 1008.500 209.099 C 973.395 219.794, 970.544 220.366, 950.518 220.748 C 934.397 221.055, 904.346 219.104, 882.750 216.348 L 878 215.742 878 201.851 C 878 188.541, 878.111 187.784, 880.654 183.755 C 884.184 178.164, 888 169.429, 888 166.941 C 888 165.840, 889.177 162.144, 890.615 158.727 C 893.660 151.492, 893.486 145.110, 890.063 138.539 C 888.928 136.360, 888 134.009, 888 133.314 C 888 131.513, 869.808 112.790, 861.500 106.039 C 836.629 85.831, 822.529 81.335, 787 82.280 C 771.760 82.686, 767.376 83.145, 762.120 84.886 C 758.611 86.049, 755.011 87, 754.120 87.001 C 750.815 87.002, 725.659 100.147, 703.922 113.231 C 666.237 135.914, 662.436 137.352, 642 136.661 C 612.020 135.647, 582.279 134.143, 578.616 133.456 C 573.527 132.501, 567.558 126.372, 565.247 119.730 C 564.232 116.810, 562.767 114.510, 561.750 114.237 C 560.444 113.886, 559.998 112.719, 559.991 109.633 C 559.980 105.047, 555.977 97.141, 551.606 93.076 C 549.416 91.038, 549 89.786, 549 85.223 C 549 80.172, 548.677 79.435, 544.365 74.647 C 537.456 66.974, 536.837 65.697, 535.425 56.196 C 533.464 43.008, 532.916 41.993, 527.775 42.035 C 525.424 42.055, 522.375 42.714, 521 43.500" stroke="none" fill="black" fill-rule="evenodd"/>
  </g>
</svg>