<?xml version="1.0" encoding="iso-8859-1"?>
<!-- Generator: Adobe Illustrator 25.3.0, SVG Export Plug-In . SVG Version: 6.00 Build 0)  -->
<svg version="1.1" id="Calque_1" xmlns="http://www.w3.org/2000/svg" xmlns:xlink="http://www.w3.org/1999/xlink" x="0px" y="0px"
	 viewBox="0 0 228.2 63.6" style="enable-background:new 0 0 228.2 63.6;" xml:space="preserve">
<g>
	<path d="M228.2,39.7c-0.2,5.1-1.7,8.8-3.5,12.4c-1.2,2.3-2.9,2.9-5.5,2.3c-1.9-0.5-3.8-1.1-5.7-1.7c-4.7-1.6-9.4-3.3-14-4.9
		c-1.4-0.5-2.2,0-2.3,1.6c-0.5,7.9-6.7,10.5-12.7,11.9c-10.2,2.5-20.7,2.6-31.2,2.1c-9.4-0.4-18.9-0.9-28.2-2.1
		c-10.6-1.3-21.2-3.4-31.8-4.9c-3.9-0.6-7.9-1-11.9-0.8c-5.6,0.3-11.1,1.2-16.7,1.9c-0.3,0-0.6,0.2-0.9,0.2c0.3,0.3,0.6,0.6,0.9,0.9
		c1.9,2,1.8,1.9-0.8,3c-1.5,0.6-2.7,1.1-4.2,0.2c-0.4-0.2-1-0.4-1.4-0.3c-4.4,0.9-8.7,0.4-12.9-0.6c-1.6-0.4-3.2-0.4-4.8-0.8
		c-2.1-0.5-4.1-1.1-6.2-1.6c-1.1-0.3-2.3-0.6-3.3-1.1c-8.6-4.7-17.7-8.2-26.6-12.3c-4.9-2.3-5.9-7-1.9-10.7c1.1-1,2.4-1.8,3.6-2.6
		c5.4-3.3,10.9-6.3,16.2-9.8c4.8-3.1,9.9-5,15.6-5.9c5.6-0.8,11-2.1,16.7-2c1.2,0,2.5-0.8,3.5-1.6c5.1-4,10.1-8,15.2-12.1
		c0.4-0.4,1.5-0.8,1.6-0.6c0.5,0.6,1.1,1.4,1,2.1c-0.3,1.4-1.1,2.8-1.6,4.2c-0.5,1.5,0.3,2.2,1.8,2c2.8-0.3,5.6-0.8,8.3-0.8
		c9.2-0.1,18.3,0,27.5-0.2c5.1-0.1,10.3-0.9,15.4-0.7c6.1,0.2,12.1,1.3,18.2,1.8c7.6,0.6,15,2.2,22.4,4.1c6.3,1.6,12.4,3.5,18.2,6.5
		c5.6,2.8,9.8,6.6,11.3,13c0.9,3.8,1.2,3.7,5.1,2.5c5.5-1.7,11.1-3.4,16.6-5.1c3.3-1,5.2-0.5,6.5,2.5
		C226.8,34.5,227.5,37.6,228.2,39.7z"/>
</g>
</svg>
