<?xml version="1.0" encoding="iso-8859-1"?>
<!-- Generator: Adobe Illustrator 25.3.0, SVG Export Plug-In . SVG Version: 6.00 Build 0)  -->
<svg version="1.1" id="Calque_1" xmlns="http://www.w3.org/2000/svg" xmlns:xlink="http://www.w3.org/1999/xlink" x="0px" y="0px"
	 viewBox="0 0 86.6 11.4" style="enable-background:new 0 0 86.6 11.4;" xml:space="preserve">
<g>
	<path d="M0.2,3.9c0-1.2,0-2.4,0-3.6c0-0.1,0.3-0.3,0.5-0.4c0,0.1,0.1,0.3,0.1,0.4c0,1.8-0.1,3.7-0.1,5.5c0,0.1,0,0.2,0,0.4
		c0.2,1.2,0.9,1.8,2,1.6C4.4,7.6,6.2,8,7.8,7.1c0,0,0.1,0,0.2,0c1.2,0,2.4,0,3.5-0.2c1.2-0.2,2.3-0.6,3.5-0.6c2,0.1,4,0.2,5.9,0
		c6.7-0.6,13.4,0,20.1-0.4c3.4-0.2,6.8,0,10.2-0.3C58.2,4.9,65.1,5.3,72,5.3c2.4,0,4.9,0.3,7.3,0.7c1.3,0.2,2.9,0.3,3.5,2
		c0.1,0.4,0.3,0.2,0.5,0.2C83.9,8,84.4,7.9,85,7.8c0.9-0.1,1.8,0.8,1.5,1.7C86.4,9.7,86,9.9,85.7,10c-0.8,0.1-1.6,0-2.3,0
		c-3.3-0.1-6.7,0.2-10,0.7c-0.1,0-0.2,0-0.4,0c-3.8,0.1-7.6,0.3-11.5,0.4c-9.2,0.1-18.5,0.2-27.7,0c-4.8-0.1-9.7-0.4-14.5-0.3
		c-1.5,0-3,0.1-4.4,0.4c-1.9,0.5-3.8,0.1-5.7,0.2c-0.5,0-1.2-0.3-1.6-0.7C7,10.1,6.4,10,5.7,10C4.5,9.9,3.3,9.8,2.1,9.6
		C1.1,9.5,0.7,9.3,0.5,8.1C0.3,6.8,0.2,5.4,0,4C0.1,3.9,0.2,3.9,0.2,3.9z"/>
	<path d="M74.4,9.2c-0.6,0.7-1.3,0.4-2,0.4c-5.7,0-11.4,0-17,0c-1.4,0-2.9,0-4.3,0c-0.2,0-0.3-0.1-0.5-0.1c0.2-0.1,0.4-0.2,0.5-0.2
		c1.5,0,3,0,4.5,0C61.9,9.2,68.1,9.2,74.4,9.2L74.4,9.2z"/>
	<path d="M39.6,9.2c-2.4,0-4.9,0-7.3,0c-0.2,0-0.3-0.1-0.5-0.2c0.2,0,0.3-0.1,0.5-0.1c4.1,0,8.2,0,12.4,0c0.8,0,1.7,0,2.5,0
		c0.1,0,0.2,0.1,0.3,0.1c-0.1,0.1-0.2,0.2-0.3,0.2C44.6,9.2,42.1,9.2,39.6,9.2C39.6,9.2,39.6,9.2,39.6,9.2z"/>
	<path d="M21.9,8.9c-1.9,0-3.8,0-5.7,0c-0.2,0-0.3-0.1-0.5-0.1c0.2-0.1,0.4-0.2,0.6-0.2c3.8,0,7.5,0,11.3,0c0.2,0,0.4,0.1,0.6,0.2
		c-0.2,0.1-0.4,0.1-0.7,0.1C25.6,8.9,23.7,8.9,21.9,8.9C21.9,8.9,21.9,8.9,21.9,8.9z"/>
</g>
</svg>
