<?xml version="1.0" encoding="iso-8859-1"?>
<!-- Generator: Adobe Illustrator 25.3.0, SVG Export Plug-In . SVG Version: 6.00 Build 0)  -->
<svg version="1.1" id="Calque_1" xmlns="http://www.w3.org/2000/svg" xmlns:xlink="http://www.w3.org/1999/xlink" x="0px" y="0px"
	 viewBox="0 0 84.2 29.3" style="enable-background:new 0 0 84.2 29.3;" xml:space="preserve">
<g>
	<path d="M34.4,7.4C35,7.3,35.7,6.8,35.7,8c0,0.6,0.7,0.9,1.3,1.1c3.2,1,6.3,2,9.7,2.2c0.5,0,1,0.2,1.6,0.3c2,0.4,3.6-0.6,5.1-1.8
		c1.9-1.5,4.1-2.1,6.4-2.5c0.9-0.2,1.9-0.2,2.8-0.4c0.7-0.1,1.3,0.2,1.7,0.8c0.8,1,1.5,2.1,1.6,3.5c0.2,1.5,0.5,1.6,2,1.5
		c2.9-0.3,5.7-1.2,8.5-1.8c1.7-0.4,3.5-0.7,5.3-1c1.3-0.2,2,0.4,2.1,1.7c0.1,0.8,0,1.7,0.1,2.5c0.1,0.9,0.1,1.8,0.3,2.6
		c0.2,1.4-0.5,2.2-1.9,2c-1.8-0.2-3.5-0.4-5.3-0.6c-1.4-0.2-2.8-0.5-4.2-0.5c-1.5-0.1-3-0.1-4.5,0.1c-1.3,0.2-1.3,0.3-1.2,1.6
		c0.1,1.4-0.2,2-1.6,2.5C65,22,64.5,22.1,64,22.1c-2,0-4,0.3-6,0c-2.2-0.4-4.4-0.6-6.4-1.4c-1.1-0.5-2.2-0.4-3.3-0.2
		c-1.5,0.2-2.9,0.5-4.4,0.6c-2.2,0.3-4.5,0.5-6.7,0.7c-0.3,0-0.4,0.1-0.2,0.4c0.2,0.4,0.5,0.8,0.7,1.2c0.5,1.3-0.2,2.9-1.8,3.7
		c-3,1.4-6,1.3-8.8-0.6c-0.5-0.4-1-0.8-1-1.6c0-0.4-0.2-0.8-0.3-1.2c-0.1-0.3-0.2-0.5-0.6-0.4c-0.8,0.2-1.5,0.3-2.3,0.4
		c0.5,0.6,1,1.2,1.5,1.8c0.5,0.6,0.9,1.2,1.3,1.9c0.4,0.6,0.2,1-0.3,1.3c-1.4,0.8-2.9,0.7-4-0.6c-0.9-1.1-1.7-2.4-2.4-3.7
		c-0.4-0.8-0.8-1.3-1.9-1.3c-1,0-2.1-0.4-3.1-0.8c-1.8-0.8-3.9-0.7-5.6-1.8c-0.9,0.6-1.4-0.4-2-0.6c-0.5-0.2-1.5-0.1-1.7-1
		c-1.2,0.1-1.9-0.8-2.8-1.3c-0.9-0.5-1.5-1.3-1.9-2.3c-0.3-0.6,0.8-2.4,1.5-2.3c0.2,0,0.4,0.2,0.6,0.4c0.9,0.6,1.7,1.5,3,1
		c0.2-0.1,0.5,0.2,0.8,0.3c0.4,0.1,0.8,0.2,1.2,0.3c-0.1-0.5-0.1-1-0.2-1.5c-0.1-0.4-0.4-0.9-0.6-1.3c-0.7-1.4,0-2.5,1.5-2.5
		C9.1,9.5,10,9,11,8.4c0.2-0.1,0.4-0.1,0.6-0.2c-0.1,0.2-0.1,0.4-0.2,0.6c0,0.1-0.1,0.2-0.1,0.3c0.2,0,0.4,0,0.5,0
		c1.2-0.7,2.4-1.4,3.5-2.1c0.3-0.2,0.6-0.4,0.9-0.6c2-1.1,3.9-2.2,5.9-3.3c1.8-1,3.5-2,5.3-3c0.1-0.1,0.3,0,0.5,0
		c-0.1,0.1-0.1,0.4-0.2,0.4C26.9,1,26.1,1.6,25.3,2c-2.9,1.7-5.9,3.3-8.9,4.9c-0.3,0.2-0.6,0.4-0.9,0.6c-0.1,0.1-0.2,0.3-0.3,0.4
		c0.2,0,0.4,0.1,0.5,0c2-0.7,4-1.4,6-2c1.9-0.5,3.3-1.7,4.7-3c0.1-0.1,0.3-0.1,0.5-0.1c0,0.2,0,0.4-0.1,0.6
		c-0.4,0.4-0.8,0.8-1.1,1.1c-0.7,0.7-0.7,1,0.1,1.5c0.7,0.4,1.4,0.7,2.1,0.9c0.8,0.2,1.1-0.5,1.6-1c0.8-0.8,1.5-1.7,2.2-2.5
		c0.1-0.1,0.3-0.2,0.4-0.3c0.1,0,0.2,0.2,0.3,0.3c-1.1,0.8,0.4,1.4,0.2,2.2c-0.2,0.2-0.5,0.3-0.8,0.3c-0.1,0-0.2,0.1-0.3,0.2
		C31.7,6.1,31.8,6,31.9,6c0.3-0.1,0.5-0.2,0.8-0.4c0.4-0.2,0.8-0.3,1.3-0.5c0,0.5-0.1,1-0.1,1.5c0,0.1,0,0.1,0,0.2
		C33.6,7.3,33.8,7.5,34.4,7.4z"/>
	<path d="M17.1,3.5c0.2,0.1,0.3,0.1,0.4,0.2c0.1,0.1,0.1,0.3,0.1,0.3c-0.2,0.3-0.4,0.6-0.7,0.8c-0.1,0.1-0.4,0-0.6,0
		c0-0.2,0-0.5,0.1-0.6C16.6,3.9,16.9,3.7,17.1,3.5z"/>
	<path d="M53.9,18.8c-0.9-0.1-1.8-0.5-2.8-0.1c-0.4,0.1-1-0.2-1.5-0.4c0,0,0-0.4,0.1-0.4c0.4-0.1,0.9-0.4,1.1-0.3
		c0.9,0.6,1.9,0.1,2.8,0.2c0.3,0,0.6,0.2,0.9,0.3C54.3,18.3,54.1,18.6,53.9,18.8L53.9,18.8z"/>
	<path d="M37.4,19.4c-0.1-0.2-0.3-0.4-0.4-0.7c0-0.2,0.1-0.5,0.2-0.6c0.6-0.2,1.3-0.3,1.9-0.4c0.2,0,0.5,0.3,0.6,0.5
		c0,0.1-0.2,0.4-0.4,0.5C38.8,19.1,38.2,19.2,37.4,19.4z"/>
	<path d="M58.9,17.1c-0.6,0-1.2-0.1-1.8-0.1c-0.3,0-0.6,0-0.8-0.1c-0.2,0-0.3-0.2-0.4-0.3c0.1-0.1,0.3-0.3,0.4-0.3
		c0.9-0.1,1.8-0.3,2.6-0.2C59.6,16.2,59.1,16.7,58.9,17.1L58.9,17.1z"/>
	<path d="M25.8,7.7c1,1,2.7,0.5,3.6,1.8c0.1,0.1,0.1,0.2,0.2,0.2c-0.1,0-0.3,0.1-0.3,0.1c-1.1-1-2.7-0.9-3.8-1.8
		c-0.1-0.1-0.1-0.2-0.1-0.3C25.5,7.8,25.6,7.8,25.8,7.7z"/>
	<path d="M47.4,18.3c-0.1,0.1-0.2,0.3-0.4,0.3c-0.1,0-0.3-0.1-0.4-0.2c-0.4-0.6,0.1-1.4-0.5-2c0.1-0.1,0.3-0.3,0.3-0.3
		c0.3,0.1,0.6,0.2,0.7,0.5C47.2,17.1,47.2,17.7,47.4,18.3z"/>
	<path d="M64,16.7c-0.2-0.3-0.4-0.8-0.9-0.4c-0.2,0.2-0.5,0.3-0.8,0.3c-0.2,0-0.4-0.2-0.5-0.4c0-0.1,0.2-0.4,0.4-0.4
		c0.5-0.1,1-0.2,1.5-0.2c0.3,0,0.6,0.2,0.9,0.3C64.4,16.2,64.2,16.5,64,16.7C64,16.7,64,16.7,64,16.7z"/>
	<path d="M48.8,17.3c-0.1-0.2-0.2-0.3-0.2-0.5c-0.1-0.3,0-0.1,0.5-0.4c0.4-0.3,0.7-0.1,1.1-0.2c0.2,0,0.4,0.1,0.5,0.1
		c-0.1,0.2-0.2,0.5-0.4,0.6c-0.4,0.2-0.9,0.3-1.3,0.5C48.9,17.4,48.9,17.4,48.8,17.3z"/>
	<path d="M43.2,18.7c-0.4,0.2-0.7,0.5-1,0.5c-0.2,0-0.5-0.5-0.5-0.7c0-0.2,0.4-0.4,0.6-0.7C42.5,18,42.8,18.3,43.2,18.7z"/>
	<path d="M61.1,17.2c-0.1,0.1-0.1,0.3-0.2,0.5c-0.2-0.1-0.4-0.2-0.5-0.4c-0.1-0.4-0.1-0.8-0.1-1.3c0,0,0.2-0.1,0.3-0.1
		C61.4,16.1,60.7,16.8,61.1,17.2z"/>
	<path d="M44.7,18c0.4-0.3,0.6-0.5,0.9-0.6c0.1,0,0.5,0.4,0.4,0.6c-0.1,0.3-0.4,0.5-0.6,0.8C45.2,18.6,45,18.3,44.7,18z"/>
	<path d="M31.2,13.4c-0.1-0.1-0.2-0.3-0.2-0.3c0.4-0.3,0.7-0.6,1.1-0.9c0,0,0.3,0.2,0.4,0.3c0,0,0,0.2-0.1,0.3
		C32,13,31.6,13.2,31.2,13.4z"/>
	<path d="M17.6,14.8c0.1,0.3,0.3,0.6,0.3,0.7c-0.2,0.2-0.5,0.4-0.8,0.5c-0.1,0-0.3-0.2-0.5-0.4C16.9,15.4,17.2,15.1,17.6,14.8z"/>
	<path d="M21.4,15.7c-0.5,0.2-0.7,0.3-1,0.3c-0.2,0-0.4-0.3-0.6-0.4c0.2-0.2,0.4-0.6,0.6-0.5C20.7,15.1,20.9,15.3,21.4,15.7z"/>
	<path d="M52.6,15.8c0.2,0.3,0.4,0.5,0.3,0.6c-0.2,0.3-0.5,0.4-0.7,0.7c-0.2-0.2-0.3-0.4-0.5-0.6C52,16.3,52.3,16.1,52.6,15.8z"/>
	<path d="M25.1,9.3c-0.3,0.1-0.4,0.2-0.5,0.2c-0.5-0.5-1-1-1.5-1.5c0,0,0.1-0.2,0.1-0.2c0,0,0.1,0,0.2,0C24,8.3,24.5,8.8,25.1,9.3z"
		/>
	<path d="M16.3,17.6c-0.3,0-0.8,0.5-0.7-0.3c0-0.3-0.1-0.7,0.3-0.6c0.4,0.1,1,0.5,1,0.7C17,18.2,16.4,17.3,16.3,17.6z"/>
	<path d="M49,17.5c0.2,0.5,0.5,1-0.2,1.3c-0.1,0-0.4,0-0.4-0.1c-0.3-0.6-0.4-1.1,0.5-1.3C48.9,17.4,48.9,17.4,49,17.5z"/>
	<path d="M41,19.1c-0.3-0.3-0.7-0.5-0.7-0.7c0-0.2,0.2-0.4,0.4-0.6c0.2,0.1,0.5,0.3,0.6,0.5C41.3,18.4,41.1,18.7,41,19.1z"/>
	<path d="M59,17.1c0.8,0.2,0.8,0.2,0.3,1.1l0,0c-0.1,0-0.2-0.1-0.3-0.1c-0.4-0.1-0.7-0.1-1.1-0.2C58.3,17.5,58.6,17.3,59,17.1
		C58.9,17.1,59,17.1,59,17.1z"/>
	<path d="M43.8,17.7c0.3,0.3,0.7,0.5,0.7,0.7c0,0.2-0.2,0.5-0.3,0.7c-0.2-0.1-0.5-0.3-0.6-0.5C43.4,18.4,43.6,18.1,43.8,17.7z"/>
	<path d="M15.7,18.5c-0.4,0.3-0.7,0.5-1.1,0.7c-0.1-0.2-0.3-0.4-0.3-0.5c0-0.6,0.5-0.5,0.9-0.5C15.4,18.1,15.5,18.3,15.7,18.5z"/>
	<path d="M65.4,16.7c-0.4-0.7,0-0.8,0.6-0.7c0.2,0,0.4,0.2,0.7,0.3c-0.2,0.1-0.3,0.3-0.5,0.4C65.9,16.7,65.7,16.7,65.4,16.7
		L65.4,16.7z"/>
	<path d="M10.7,14.4c0.3-0.2,0.4-0.4,0.5-0.4c0.3,0,0.6,0.2,0.9,0.2c-0.1,0.1-0.2,0.3-0.3,0.3C11.4,14.5,11.1,14.4,10.7,14.4z"/>
	<path d="M55.4,16.8C55,16.9,54.7,17,54.4,17c-0.1,0-0.2-0.3-0.3-0.5c0.3-0.1,0.6-0.2,1-0.2C55.1,16.4,55.2,16.6,55.4,16.8z"/>
	<path d="M55.5,18.8C55.2,18.3,55,18.1,55,18c0-0.2,0.2-0.3,0.4-0.5c0.2,0.2,0.5,0.3,0.5,0.5C55.9,18.2,55.7,18.4,55.5,18.8z"/>
</g>
</svg>
