<?xml version="1.0" encoding="iso-8859-1"?>
<!-- Generator: Adobe Illustrator 25.3.0, SVG Export Plug-In . SVG Version: 6.00 Build 0)  -->
<svg version="1.1" id="Calque_1" xmlns="http://www.w3.org/2000/svg" xmlns:xlink="http://www.w3.org/1999/xlink" x="0px" y="0px"
	 viewBox="0 0 74.1 36.8" style="enable-background:new 0 0 74.1 36.8;" xml:space="preserve">
<g>
	<path d="M55.1,12.6c1.4,0.1,2.7-0.4,3.9-1c1.4-0.7,2.8-1.6,4.2-2.3C66,7.9,68.9,6.7,72,6c0.5-0.1,0.9-0.2,1.3,0.2
		c0.4,0.5,0.1,0.8-0.1,1.3c-2,3.8-2.3,7.8-1.4,11.9c0.1,0.6,0.4,1.2,0.7,1.8c0.5,1.1,1.1,2.1,1.6,3.2c0.1,0.3,0.1,0.7,0,1
		c0,0.1-0.5,0.1-0.8,0.1c-3.6-0.6-7.1-1.4-10.5-2.7c-1.3-0.5-2.7-1-4-1.5c-2.3-0.8-4.5-0.5-6.6,0.4c-0.1,0-0.2,0.1-0.3,0.2
		c0.1,0,0.2,0.1,0.3,0.1c0.8,0,1.6,0,2.3-0.2c1.3-0.2,1.2-0.3,1.6,0.9c0.8,2.5-0.3,4.5-1.6,6.5c-0.4,0.6-1,0.9-1.9,0.6
		c-0.8-0.3-1.6-0.4-2.4-0.4c-0.8,0-1.8,0.1-2.2,0.8c-0.5,0.7-0.9,0.6-1.5,0.3c-0.3-0.2-0.6-0.4-0.9-0.6c-0.5-0.3-0.9-0.7-1.4-0.7
		c-1.2-0.1-1.9-0.8-2.7-1.6c-0.4-0.5-0.8-0.9-1.5-0.5C39.4,27.1,39,27,38.6,27c-2.4,0.2-4.8,0.5-7.3,0.7c-0.8,0.1-1.7,0-2.5,0
		c-0.2,0-0.3,0.1-0.5,0.1c0.2,0,0.3,0.1,0.5,0.1c0.6,0.1,1.3,0.3,1.9,0.3c1.3,0.1,1.9,0.9,2.2,2c0.3,1.2,0.6,2.4,1,3.6
		c0.2,0.6,0.5,1.1,0.7,1.6c0.3,1-0.2,1.4-1.3,1.1c-2.1-0.7-4-1.9-5.6-3.4c-1.5-1.4-2.9-2.8-4.3-4.3c-1-1.1-2.2-1.5-3.6-1.6
		c-2.5-0.2-5.1-0.6-7.6-0.9c-1.7-0.2-3.4-0.6-5.1-0.8c-2.2-0.2-4.1-1.3-6-2.1c-1.2-0.5-1.3-0.9-0.8-2.1c0.1-0.2,0.3-0.5,0.2-0.6
		c-0.6-1.6,0.5-2.5,1.3-3.4C3,16.2,4.3,15.1,5.6,14c3.3-2.8,7-4.9,11.2-6.1c1-0.3,2.1-0.6,3.1-0.8c0.8-0.2,1.3-0.6,1.3-1.5
		c-0.1-0.9,0.3-1.5,1-2.1c0.5-0.5,0.7-1.3,1.1-2c0.1-0.2,0.4-0.4,0.4-0.4c0.9,0.7,1.4,0,1.9-0.5c0.3-0.3,0.7-0.5,1.1-0.2
		c0.2,0.1,0.6,0.2,0.7,0.1c0.7-0.8,1.5-0.2,2.3-0.3c0.5,0,0.8,0,1.3,0.2c1.7,0.6,3.6,1,5.3,1.7c1,0.3,1.8,0.9,2.8,1.4
		c0.4,0.2,0.8,0.3,1.2,0.4c0.3,0.1,0.8,0,1,0.2c0.9,0.8,1.9,0.6,2.8,0.2c0.7-0.3,1.3-0.2,2.1,0c2,0.5,4.1,0.9,5.7,2.3
		c1,0.8,1.8,1.7,2.6,2.7c1.1,1.5,0.9,2-0.5,3.1c-0.2,0.1-0.3,0.3-0.5,0.4c0.2,0,0.5,0.1,0.7,0.1C54.5,12.6,54.8,12.6,55.1,12.6z"/>
	<path d="M26.7,25c-1-0.2-1.7-0.3-2.4-0.6c-0.4-0.1-0.7-0.4-0.6-1c0.2-2.1-0.2-2.7-2-3.6c-0.1-0.1-0.2-0.1-0.3-0.1
		c-0.1-0.1-0.2-0.3-0.3-0.4c0.1-0.1,0.3-0.2,0.4-0.2c1.5-0.5,3.1-1,4.6-1.3c2.5-0.5,4.9-0.9,7.4-0.8c1.8,0,3.5,0.5,5.3,0.8
		c0.2,0,0.5,0.1,0.6,0.3c0.2,0.2,0.5,0.5,0.4,0.7c0,0.2-0.4,0.4-0.6,0.5c-2.3,0.1-4.3,0.9-6.2,2c-1.3,0.8-2.4,1.7-3.7,2.5
		C28.5,24.2,27.5,24.6,26.7,25z"/>
</g>
</svg>
