<?xml version="1.0" encoding="iso-8859-1"?>
<!-- Generator: Adobe Illustrator 25.3.0, SVG Export Plug-In . SVG Version: 6.00 Build 0)  -->
<svg version="1.1" id="Calque_1" xmlns="http://www.w3.org/2000/svg" xmlns:xlink="http://www.w3.org/1999/xlink" x="0px" y="0px"
	 viewBox="0 0 81 26.3" style="enable-background:new 0 0 81 26.3;" xml:space="preserve">
<g>
	<path d="M32.2,24.3c-2.9-0.1-5.5,0-8.1-0.4c-2.7-0.4-5.6-0.3-8.2-1.1c-1.5,0.3-3-0.5-4.4-0.8c-1.7-0.3-3.3-1.3-4.9-2.1
		c-1.2-0.6-2.3-1.3-3.4-2c-1-0.7-1.8-1.5-2-2.8c-0.1-0.5-0.5-0.9-0.8-1.3c-0.4-0.5-0.6-1-0.4-1.6c0.3-0.9,0.5-1.8,0.8-2.7
		c0.6-2,2-3.3,3.8-4.3c2.8-1.6,6-2.3,9.1-3c1.8-0.4,3.5-0.9,5.3-1.3c0.7-0.2,1.4-0.3,2.1-0.3c3.5-0.1,6.9-0.5,10.4-0.3
		c2.8,0.2,5.6,0.2,8.3,0.9c1.5,0.4,3.2,0.3,4.8,0.4c0.9,0.1,1.7-0.1,2.3-0.7c0.4-0.3,0.8-0.5,1.2-0.8C48.4,0,48.6-0.1,49,0.3
		c0.8,0.9,1.8,1.5,3.1,1.9c1,0.3,1.9,0.9,2.6,1.7c0.8,0.9,1.8,0.9,2.7,1.4c1.6,0.9,3.4,1.6,5,2.4c0.9,0.4,1.7,1,2.6,1.5
		c0.5,0.3,0.7,0.8,0.2,1.3c-0.4,0.4-0.3,0.7,0.3,0.8c1.4,0,2.8,0.1,4.1,0c1.7-0.1,2.6-1.3,2.9-2.7C73,6.9,74,5.6,75.1,4.4
		c1.3-1.4,2.7-2.7,4.5-3.5c0.2-0.1,0.4-0.2,0.7-0.3c0.4-0.1,0.7,0.3,0.6,0.7c-0.1,0.2-0.2,0.3-0.3,0.4c-0.8,1.4-1.7,2.7-2.4,4.1
		c-0.5,1.1-0.8,2.3-1,3.5c-0.2,1.5-0.3,3.1-0.4,4.6c-0.2,2.4,0.4,4.7,1.2,6.9c0.1,0.2,0.2,0.4,0.4,0.6c0.9,1.3,1.7,2.5,2.6,3.8
		c0.1,0.2,0.3,0.5,0.2,0.6c-0.1,0.2-0.5,0.4-0.7,0.4c-1.3-0.1-2.5-0.6-3.4-1.4c-2.1-1.8-3.8-3.9-4.9-6.5c-0.4-0.8-0.7-1.6-1.2-2.4
		c-0.5-0.8-1.5-1.1-2.3-1.1c-1.2,0-2.5,0.2-3.7,0.4c-0.4,0.1-0.5,0.4-0.2,0.8c0.4,0.8,0.4,0.8-0.5,1.4c-1.1,0.6-2.1,1.4-3.2,1.9
		c-2,0.9-3.7,2.2-5.9,2.7c-0.9,0.2-1.7,0.8-2.4,1.4c-0.7,0.5-1.2,0.3-1.7-0.2c-0.3-0.3-0.7-0.5-1-0.7c-0.5-0.4-1.1-0.3-1.7-0.2
		c-2.1,0.5-4.2,1.2-6.5,1.1c-0.6,0-1.2,0.3-1.8,0.4C37.1,24.1,34.5,24.2,32.2,24.3z"/>
	<path d="M16.9,14.2c0.2-0.6,0.7-0.9,1.3-1.1c4.3-1.6,8.6-3.2,13.1-4.1c0.1,0,0.2-0.1,0.3-0.1c0.6,0,1.5-0.1,1.7,0.2
		c0.3,0.7-0.5,0.9-0.9,1.2c-0.5,0.4-0.9,0.8-1.3,1.2c-0.1,0.1-0.1,0.3-0.2,0.4c0.1,0,0.2,0.1,0.3,0.1c3.9-0.7,7.8-0.2,11.6-0.3
		c0.3,0,0.6,0,0.9,0c3,0,6.1,0.2,9.1,0.7c0.3,0.1,0.7,0,1.1,0c2.5,0.1,5,0.3,7.5,0.4c1.2,0.1,2.3,0,3.5,0c0.3,0,0.6,0,0.9,0.1
		c0.1,0,0.3,0.2,0.4,0.3c-0.1,0.1-0.2,0.2-0.3,0.3c-0.3,0-0.6,0-0.9,0c-3,0.1-6-0.3-9-0.7c-0.2,0-0.4,0-0.5,0
		c-3.6-0.1-7.3-0.3-10.9-0.4c-3.6-0.1-7.2,0-10.8,0c-0.8,0-1.6,0-2.3,0c-1,0-1.7,0.3-2.4,1.2c-1.1,1.3-2.4,2.4-3.7,3.4
		c-1.6,1.2-3.5,1.5-5.4,1.5c-0.3,0-0.6,0-0.9-0.2c-0.3-0.1-0.7-0.5-0.7-0.6c0.1-0.6,0.5-0.4,1-0.3c2.5,0.2,4.9-0.2,6.8-2.1
		c1.6-1.6,3.4-3.2,5.1-4.8C31,10.3,31,10.2,31,10c-0.1,0-0.2,0-0.3,0c-2.8,0.4-5.4,1.4-8.1,2.2c-1.6,0.5-3.1,1.2-4.7,1.7
		C17.6,14.1,17.3,14.1,16.9,14.2L16.9,14.2z"/>
	<path d="M8.5,14.5C7.5,14.6,7,14,7,13c0-0.7,0.8-1.4,1.6-1.4c0.7,0,1.8,1,1.7,1.5C10.3,13.9,9.5,14.5,8.5,14.5z"/>
	<path d="M13.4,16.1c0,0.1,0,0.1,0,0.2c-0.2,2.1-3.1,3.7-5,2.9c-0.2-0.1-0.3-0.4-0.5-0.6c0.2-0.1,0.5-0.3,0.7-0.3
		c2.2,0.3,2.9,0,4.1-2.1c0.1-0.2,0.3-0.2,0.5-0.3C13.3,15.9,13.3,16,13.4,16.1z"/>
</g>
</svg>
