<svg xmlns="http://www.w3.org/2000/svg" viewBox="0 0 800 281" width="800" height="281">
  <g transform="scale(0.6666666666666666, 0.6658767772511849)">
    <path d="M 159.500 36.686 C 148.050 37.272, 133.661 39.033, 127.706 40.576 C 119.971 42.581, 96.134 52.747, 93.366 55.222 C 87.522 60.448, 85.687 80.202, 89.856 93 C 91.396 97.725, 91.981 102.095, 92.001 109 C 92.043 123.959, 91.144 123, 105.117 123 L 117 123 117 126.369 C 117 132.296, 122.181 137.684, 163.820 175.057 C 173.897 184.101, 183.782 192.850, 185.788 194.500 C 194.034 201.281, 212.907 222.088, 229.326 242.500 L 238.980 254.500 238.987 268.500 L 238.993 282.500 230.747 287.167 C 203.707 302.472, 179.228 312.836, 147 322.625 L 121.500 330.370 105.431 330.730 L 89.362 331.090 88.213 328.568 C 87.124 326.177, 85.905 318.178, 84.242 302.500 C 83.543 295.905, 83.348 295.482, 80.867 295.195 C 77.885 294.849, 76 298.501, 76 304.623 L 76 307.948 60.750 308.224 L 45.500 308.500 45.700 315.738 C 45.810 319.719, 46.417 324.669, 47.050 326.738 C 47.682 328.807, 48.522 334.682, 48.915 339.793 C 49.553 348.069, 49.927 349.382, 52.338 351.793 L 55.046 354.500 74.273 354.279 C 123.618 353.710, 148.227 349.465, 208.500 331.127 C 241.654 321.040, 244.690 319.915, 268.958 308.729 C 279.659 303.797, 294.101 297.610, 301.051 294.981 C 324.510 286.106, 329 283.033, 329 275.857 L 329 270.950 345.094 271.225 L 361.188 271.500 368.139 284.398 C 384.347 314.476, 407.116 344, 414.104 344 C 416.747 344, 417 343.694, 417 340.500 C 417 337.019, 417.024 337, 421.500 337 C 425.833 337, 426 336.889, 426 334 C 426 331.333, 426.333 331, 429 331 C 431.753 331, 432 330.716, 432 327.552 C 432 323.366, 427.427 317.670, 411.101 301.517 L 400 290.534 400 276.312 L 400 262.091 403.250 261.548 C 411.482 260.174, 431.652 257.812, 455 255.486 C 469.025 254.089, 514.700 249.367, 556.500 244.993 C 598.300 240.618, 648.025 235.692, 667 234.045 C 685.975 232.399, 705.775 230.598, 711 230.043 C 716.225 229.488, 726.157 229.027, 733.072 229.017 L 745.643 229 749.759 236.250 C 752.022 240.238, 754.425 244.737, 755.098 246.250 C 756.079 248.457, 756.981 249, 759.661 249 L 763 249 763 255.550 C 763 259.670, 763.611 263.286, 764.647 265.300 C 769.184 274.115, 785.442 296.245, 794.363 305.750 L 799.290 311 807.023 311 C 812.676 311, 815.090 311.403, 816 312.500 C 816.960 313.657, 819.615 314, 827.598 314 C 836.185 314, 838.510 314.341, 841.226 315.996 C 844.724 318.129, 849.484 318.644, 850.500 317 C 850.889 316.371, 861.816 316, 879.976 316 C 906.612 316, 909.193 316.154, 913.500 318 C 916.066 319.100, 920.182 320, 922.646 320 C 927.086 320, 927.124 319.971, 926.813 316.799 C 926.427 312.853, 926.215 312.725, 899.813 300.413 C 871.270 287.103, 844.922 272.644, 820.250 256.752 L 811 250.794 811 236.538 L 811 222.282 819.750 221.653 C 853.939 219.194, 906.606 220.088, 929.436 223.515 C 943.189 225.580, 945.846 226.949, 953.176 235.752 C 959.147 242.921, 984.993 266.112, 991.500 270.137 C 993.150 271.157, 995.737 271.994, 997.250 271.996 C 999.839 272, 1000 272.262, 1000 276.465 C 1000 283.074, 1001.083 283.390, 1021.444 282.703 C 1049.898 281.744, 1069 275.776, 1069 267.845 C 1069 264.527, 1066.526 264.037, 1062.154 266.489 C 1056.089 269.892, 1040.090 272.335, 1021.250 272.736 L 1003 273.124 1003 269.647 C 1003 266.764, 1002.207 265.472, 998.359 262.085 C 995.807 259.838, 993.302 258, 992.792 258 C 992.283 258, 990.322 256.822, 988.433 255.381 L 985 252.763 985 238.381 L 985 224 992.818 224 C 997.527 224, 1003.590 223.199, 1008.068 221.986 C 1012.665 220.740, 1020.267 219.757, 1028 219.409 C 1037.009 219.003, 1043.738 218.030, 1052.096 215.923 C 1068.489 211.790, 1090.815 211.543, 1093.385 215.465 C 1094.273 216.820, 1095 219.316, 1095 221.010 C 1095 224.820, 1098.900 229, 1102.455 229 C 1104.902 229, 1105 229.233, 1105 235.066 C 1105 241.078, 1105.025 241.130, 1107.718 240.816 C 1111.715 240.351, 1115 234.954, 1115 228.852 L 1115 224 1129.254 224 L 1143.509 224 1150.504 233.619 C 1159.379 245.821, 1162.128 248.200, 1166.889 247.802 C 1172.023 247.373, 1172.552 242.515, 1168.072 236.940 C 1165.400 233.615, 1165 232.327, 1165 227.046 C 1165 223.707, 1164.041 217.718, 1162.869 213.737 C 1159.554 202.479, 1158.990 167.247, 1161.917 154.261 C 1165.252 139.466, 1164.631 136, 1158.645 136 C 1154.920 136, 1148 142.853, 1148 146.542 C 1148 148.491, 1147.487 149, 1145.523 149 C 1142.900 149, 1138.170 154.359, 1132.788 163.430 L 1130.077 168 1114.538 168 L 1099 168 1099 150.500 L 1099 133 1096.212 133 C 1094.191 133, 1092.072 134.374, 1088.500 138 L 1083.575 143 1065.538 142.956 C 1045.271 142.908, 1039.902 142.196, 1036.633 139.125 C 1034.730 137.337, 1033.146 137, 1026.645 137 C 1020.266 137, 1018.403 136.619, 1015.960 134.812 L 1013 132.624 1013 118.379 C 1013 105.031, 1013.125 104.095, 1014.992 103.502 C 1017.417 102.733, 1026.843 95.520, 1029.228 92.609 C 1030.178 91.449, 1030.966 89.037, 1030.978 87.250 L 1031 84 1046.500 84 C 1056.167 84, 1062 84.376, 1062 85 C 1062 85.550, 1063.816 86, 1066.036 86 C 1069.897 86, 1070.159 86.204, 1072.107 90.749 C 1075.336 98.283, 1078.621 102, 1082.051 102 C 1084.667 102, 1085 101.658, 1085 98.971 C 1085 95.611, 1080.091 85.150, 1077.509 83.007 C 1076.598 82.252, 1075.023 80.005, 1074.007 78.015 C 1068.473 67.166, 1060.364 61.856, 1054.715 65.383 C 1053.497 66.143, 1049.832 67.019, 1046.570 67.329 C 1040.685 67.888, 1032.129 72.556, 1025.292 78.939 C 1023.542 80.572, 1021.766 81, 1016.738 81 C 1011.381 81, 1009.642 81.476, 1005.581 84.051 C 1002.935 85.729, 998.756 87.785, 996.295 88.621 C 985.918 92.144, 962.477 108.253, 961.382 112.613 C 960.298 116.932, 938.934 116.129, 905.886 110.527 C 848.284 100.762, 787.222 94.051, 692 87.021 C 676.875 85.904, 656.625 84.333, 647 83.530 C 637.375 82.727, 622.300 81.586, 613.500 80.993 C 604.700 80.401, 586.250 79.044, 572.500 77.976 C 558.750 76.909, 537.825 75.341, 526 74.494 C 500.132 72.639, 485.012 71.198, 436.500 65.967 C 416.150 63.772, 390.950 61.065, 380.500 59.950 C 352.849 57, 301.619 50.519, 270 45.970 C 229.399 40.129, 176.291 35.091, 167 36.199 C 166.175 36.298, 162.800 36.517, 159.500 36.686" stroke="none" fill="black" fill-rule="evenodd"/>
  </g>
</svg>