<svg xmlns="http://www.w3.org/2000/svg" viewBox="0 0 800 401" width="800" height="401">
  <g transform="scale(0.6666666666666666, 0.6661129568106312)">
    <path d="M 679.082 41.038 C 673.833 43.256, 662.981 52.344, 659.098 57.772 C 652.476 67.031, 639.843 86.291, 638.616 89 C 637.993 90.375, 635.863 93.975, 633.881 97 C 631.900 100.025, 627.854 106.991, 624.890 112.479 C 621.305 119.116, 617.196 124.894, 612.623 129.729 L 605.746 137 592.123 136.964 C 573.628 136.916, 566.131 135.019, 554.341 127.406 C 546.740 122.497, 492.277 94.954, 484.500 92.085 C 481.200 90.868, 475.841 88.551, 472.590 86.936 C 462.119 81.734, 449.265 83.452, 447.104 90.341 C 446.560 92.079, 445.630 99.928, 445.039 107.784 C 443.671 125.969, 442.674 130.594, 437.916 140.844 C 430.873 156.014, 419.821 169.265, 400 186.305 C 394.225 191.270, 386.912 197.831, 383.750 200.885 L 378 206.437 378 214.719 L 378 223 361.105 223 C 347.203 223, 343.085 222.655, 337.855 221.052 C 334.360 219.981, 325.875 218.157, 319 217 C 312.125 215.843, 302.450 213.809, 297.500 212.480 C 292.550 211.151, 284.225 209.572, 279 208.971 C 273.033 208.284, 267.641 207, 264.500 205.517 C 261.750 204.218, 257.475 202.470, 255 201.633 C 247.383 199.058, 230.773 192.023, 227.430 189.957 C 225.686 188.879, 221.860 187.542, 218.927 186.986 C 215.994 186.430, 210.796 184.855, 207.376 183.487 C 203.957 182.119, 200.390 181, 199.451 181 C 198.512 181, 193.469 179.174, 188.244 176.942 C 181.643 174.121, 176.361 172.611, 170.931 171.992 C 166.633 171.502, 159.378 170.004, 154.808 168.664 C 150.239 167.323, 144.025 165.732, 141 165.129 C 137.975 164.525, 131.816 162.922, 127.314 161.567 C 116.924 158.439, 96.780 156.544, 83.508 157.446 C 61.062 158.971, 44 166.663, 44 175.256 C 44 184.833, 75.861 220.547, 104.750 243.353 L 121 256.181 121 270.201 L 121 284.221 113.527 292.165 C 100.355 306.167, 84.427 327.262, 79.121 337.734 C 77.941 340.063, 74.587 345.688, 71.668 350.234 C 58.580 370.618, 54 381.842, 54 393.529 C 54 401.699, 60.315 403.462, 87 402.745 C 102.340 402.333, 105.487 401.954, 112.500 399.677 C 116.900 398.248, 122.975 396.559, 126 395.924 C 129.025 395.288, 134.105 393.682, 137.289 392.355 C 140.473 391.028, 146.588 389.329, 150.877 388.580 C 155.167 387.831, 159.987 386.544, 161.588 385.720 C 163.190 384.896, 167.650 383.257, 171.500 382.077 C 175.350 380.897, 181.875 378.649, 186 377.082 C 190.125 375.515, 196.650 373.714, 200.500 373.078 C 204.350 372.443, 210.200 371.066, 213.500 370.018 C 216.800 368.970, 223.375 367.410, 228.112 366.550 C 232.849 365.690, 239.374 364.074, 242.612 362.959 C 245.850 361.843, 253.900 360.044, 260.500 358.960 C 267.100 357.877, 275.845 356.093, 279.932 354.995 C 289.629 352.392, 342.066 351.983, 350.532 354.444 C 356.636 356.219, 367.238 359.029, 372.183 360.182 L 375.866 361.041 376.309 377.270 C 376.584 387.322, 377.363 395.974, 378.355 400 C 379.509 404.678, 379.964 411.364, 379.979 423.856 C 380.003 443.884, 378.954 449.405, 372.914 461.036 C 366.555 473.279, 368.547 478, 380.072 478 C 382.523 478, 385.071 478.659, 386.053 479.548 C 390.603 483.665, 421.346 484.058, 436.500 480.191 C 440.900 479.069, 448.100 477.621, 452.500 476.975 C 460.573 475.789, 473.458 471.328, 484.500 465.895 C 487.800 464.272, 490.910 462.956, 491.412 462.972 C 491.914 462.987, 495.739 461.001, 499.912 458.558 C 509.262 453.085, 533.469 441.937, 541.282 439.505 C 544.462 438.516, 547.301 437.322, 547.591 436.853 C 548.556 435.291, 577.549 435.837, 581.730 437.496 C 583.803 438.319, 590.225 439.885, 596 440.975 C 601.775 442.065, 608.818 443.605, 611.650 444.396 C 614.483 445.188, 622.133 446.354, 628.650 446.988 C 635.168 447.622, 645.225 448.879, 651 449.782 C 659.187 451.062, 670.806 451.496, 703.750 451.753 L 746 452.082 745.984 468.791 C 745.964 489.418, 744.673 505.462, 742.346 514 C 740.935 519.180, 740.568 524.563, 740.538 540.500 C 740.485 568.418, 742.413 574, 752.109 574 C 761.158 574, 765.119 570.914, 781.625 551.002 C 787.325 544.126, 795.253 534.838, 799.244 530.363 C 806.833 521.853, 808.211 519.950, 815.087 508.500 C 817.399 504.650, 821.726 497.675, 824.703 493 C 829.280 485.812, 833.625 477.363, 846.815 450.004 C 848.033 447.476, 849.549 446.165, 852.291 445.267 C 857.453 443.576, 881.055 441.290, 907 439.969 C 930.587 438.768, 937.602 437.981, 950.735 435.065 C 955.556 433.995, 965.125 432.398, 972 431.517 C 978.875 430.636, 987.875 429.039, 992 427.969 C 996.125 426.898, 1002.313 425.592, 1005.752 425.066 C 1009.190 424.541, 1015.490 422.557, 1019.752 420.658 C 1024.013 418.758, 1031.775 415.545, 1037 413.516 C 1042.225 411.488, 1049.425 408.545, 1053 406.977 C 1056.575 405.408, 1063.550 402.995, 1068.500 401.615 C 1078.283 398.886, 1089.420 394.875, 1094.371 392.297 C 1096.092 391.401, 1101.325 389.672, 1106 388.456 C 1110.675 387.239, 1119.900 383.895, 1126.500 381.023 C 1133.100 378.152, 1141.875 374.724, 1146 373.407 C 1154.688 370.632, 1170.444 360.496, 1176.815 353.585 C 1182.058 347.897, 1184.450 340.199, 1183.737 331.312 C 1183.457 327.830, 1182.698 324.341, 1182.049 323.559 C 1180.163 321.286, 1171.815 320, 1158.951 320 L 1147 320 1147 305.884 L 1147 291.768 1150.377 287.134 C 1156.151 279.210, 1159 272.575, 1159 267.052 C 1159 262.237, 1158.733 261.754, 1152.280 254.913 C 1133.897 235.427, 1111.741 220.825, 1088 212.549 C 1082.775 210.728, 1075.564 207.850, 1071.977 206.154 C 1063.943 202.356, 1041.694 196.127, 1033.250 195.313 C 1027.552 194.764, 1027 194.506, 1027 192.391 C 1027 189.364, 1024.546 188.147, 1016.269 187.067 C 1012.546 186.581, 1007.907 185.501, 1005.960 184.666 C 1004.012 183.831, 998.185 181.958, 993.010 180.503 C 987.835 179.048, 980.945 176.739, 977.699 175.373 C 974.453 174.007, 968.302 172.491, 964.030 172.003 C 957.693 171.281, 953.587 169.903, 941.739 164.524 C 933.751 160.897, 924.804 157.527, 921.858 157.034 C 918.911 156.542, 912.675 155.211, 908 154.076 C 903.325 152.942, 894.256 151.327, 887.848 150.487 C 881.439 149.647, 873.689 148.097, 870.626 147.043 C 867.563 145.990, 860.019 144.386, 853.862 143.480 C 831.389 140.172, 819.556 134.849, 815.005 126 C 812.043 120.240, 805.098 113.093, 795.528 105.954 C 790.562 102.251, 777.050 91.753, 765.500 82.625 C 740.107 62.558, 724.146 51.577, 711.207 45.273 C 701.838 40.708, 701.152 40.535, 691.500 40.280 C 686 40.135, 680.412 40.476, 679.082 41.038" stroke="none" fill="black" fill-rule="evenodd"/>
  </g>
</svg>