<?xml version="1.0" encoding="iso-8859-1"?>
<!-- Generator: Adobe Illustrator 25.3.0, SVG Export Plug-In . SVG Version: 6.00 Build 0)  -->
<svg version="1.1" id="Calque_1" xmlns="http://www.w3.org/2000/svg" xmlns:xlink="http://www.w3.org/1999/xlink" x="0px" y="0px"
	 viewBox="0 0 76.6 33.3" style="enable-background:new 0 0 76.6 33.3;" xml:space="preserve">
<g>
	<path d="M12.4,5.3c0.2,0,0.4,0,0.5,0c0.8,0,1.7,0.2,2.3-0.2c0.5-0.4,0.5-1.4,0.8-2c0.1-0.2,0.3-0.5,0.6-0.6c1.5-0.5,3-1,4.5-1.4
		c1.2-0.3,2.5-0.4,3.7-0.9c0.9-0.4,2-0.1,3.1-0.1c0.8,0,1.5,0.2,2.3,0.3c3.4,0.4,6.9,0.3,10.3,1c3.2,0.7,6.5,1.3,9.8,1.8
		c3,0.5,6,0.8,9,1.1c0.2,0,0.3,0.1,0.5,0.2c-0.1,0.2-0.2,0.5-0.4,0.5c-1.8,0.5-3.3,1.7-4.7,2.9c-0.4,0.4-0.2,0.4,0.1,0.5
		c2,0.8,4.1,0.6,6.2,0.5c0.5,0,1-0.4,1.4-0.7c1.2-0.7,2.4-1.5,3.6-2.3C69,4,72.2,3.5,75.6,3.6c0.7,0,1,0.3,0.9,1
		C76.4,5.3,76.3,6,76,6.7c-0.9,2.1-1.3,4.3-1.3,6.6c0,2.4,0.1,4.7,1,7c0.9,2.4,0.1,3.1-2.5,2.5c-3.4-0.8-6.5-2.4-9.3-4.3
		c-2-1.4-4.2-1.5-6.5-0.9c-1,0.3-2,0.7-3,1.1c-0.1,0.1-0.2,0.3-0.3,0.4c0.1,0.1,0.3,0.2,0.4,0.2c1.4,0.2,2.5,1,3.5,2.1
		c0.7,0.7,0.8,1.4,0.3,2.3c-0.9,1.7-2.1,3-3.9,3.7c-2.9,1.1-5.8,2.2-8.9,2.6c-2.7,0.4-5.4,0.5-7.5-1.7c-0.1-0.1-0.3-0.3-0.4-0.3
		c-0.4-0.1-0.9,0-1.3-0.2c-0.4-0.2-0.7-0.8-1.1-0.8c-1.1,0-1.3-0.8-1.4-1.5c-0.1-0.5-0.3-0.7-0.8-0.7c-0.5,0-1.1-0.1-1.6,0
		c-2.6,0.6-5.3,0.2-7.9,0.3c-0.3,0-0.6-0.1-0.9-0.2c-0.2,0-0.3,0-0.5,0c0.1,0.1,0.2,0.3,0.4,0.4c1.2,0.6,1.9,1.7,2.5,2.9
		c0.5,1,0.6,2,0.5,3.1c-0.2,1.8-1.6,2.6-3,1.6c-2.8-1.9-4.9-4.3-5.7-7.6c-0.3-1.1-0.3-1.1-1.4-1.2c-2.6-0.2-5-0.8-7.4-1.9
		c-2.1-0.9-4.1-1.9-6.1-2.9C0,18.4-0.4,17,0.3,15.3c0.5-1.1,0.8-2.2,1.1-3.3C2.6,8.7,5,6.7,8.3,5.7c1.3-0.4,2.7-0.4,4.1-0.5
		C12.3,5.3,12.4,5.3,12.4,5.3z"/>
	<path d="M10,8.9c-0.3,0.9-0.4,1.7-0.7,2.4c-0.3,0.6-1,1.1-1.6,0.8c-1.2-0.5-2.2-0.1-3.2,0.4c-0.1,0.1-0.3-0.1-0.5-0.1
		c0.1-0.1,0.1-0.2,0.2-0.3c0.2-0.2,0.4-0.4,0.7-0.5c0.9-0.3,1.2-0.9,1.1-1.8c0-0.4-0.2-1.1,0-1.2C6.6,8.4,7.3,8,8,8
		c0.5,0,1.1,0.3,1.6,0.6C9.9,8.7,10,8.9,10,8.9z"/>
	<path d="M3.6,11.5c-0.1-0.1-0.3-0.1-0.3-0.2c0-0.1,0-0.3,0.1-0.3c0.4-0.2,0.7-0.4,1.1-0.6c0.2-0.1,0.4,0.1,0.6,0.2
		C5,10.8,4.9,11,4.7,11.1C4.4,11.3,3.9,11.4,3.6,11.5z"/>
</g>
</svg>
