<?xml version="1.0" encoding="iso-8859-1"?>
<!-- Generator: Adobe Illustrator 25.3.0, SVG Export Plug-In . SVG Version: 6.00 Build 0)  -->
<svg version="1.1" id="Calque_1" xmlns="http://www.w3.org/2000/svg" xmlns:xlink="http://www.w3.org/1999/xlink" x="0px" y="0px"
	 viewBox="0 0 81.1 22.7" style="enable-background:new 0 0 81.1 22.7;" xml:space="preserve">
<g>
	<path d="M81.1,9.8c0,2.2-1.1,4.7-3,6.9c-0.7,0.9-1.7,1.3-2.8,1.3c-1.7,0-3.3-0.2-4.9-0.9c-1.6-0.7-3.2-1.4-4.8-2
		c-0.6-0.2-1.4-0.3-2.1-0.4c-0.2,0-0.5,0.1-0.7,0.1c0.1,0.2,0.3,0.4,0.4,0.6c1.3,1.8,1.1,3.2-1,4.1c-3.1,1.5-6,0.9-8.8-0.8
		c-0.5-0.3-1-0.8-1.4-1.3c-0.5-0.5-1-0.8-1.7-0.9c-2.1-0.2-4.2,0.2-6.2,0.4c-0.3,0-0.5,0.3-0.7,0.4c0.2,0.2,0.3,0.3,0.5,0.5
		c1.1,0.7,1.5,1.6,1.2,2.8c0,0.2,0,0.4,0,0.5c-0.2,1.4-0.8,1.9-2,1.1c-1.2-0.8-2.3-1.7-3.1-2.9c-0.9-1.4-2-1.7-3.5-1.4
		c-1.6,0.3-3.2,0.7-4.9,1C31.1,19,30.6,19,30,19c-1.1,0.1-2.1,0.2-3.2,0.3c-0.5,0-1.1,0.1-1.6,0c-2.9-0.5-5.8-0.7-8.6-1.3
		c-1.7-0.3-3.2-0.9-4.7-1.4c-0.9-0.3-1.9-0.5-2.9-0.9c-1.2-0.4-2.4-0.9-3.7-1.4c-0.1-0.1-0.3-0.1-0.5-0.1c0,0.2,0.1,0.3,0.1,0.5
		c0.1,0.3,0.3,0.6,0.4,1c0,0.1-0.1,0.2-0.1,0.3C5.2,16,5,15.9,5,15.9c-0.2-0.3-0.4-0.6-0.6-0.9c-0.2-0.3-0.4-0.8-0.7-1
		c-0.3-0.3-0.8-0.4-1.2-0.6c0,0.4-0.1,0.9-0.1,1.3c0,0.2,0.2,0.3,0.2,0.5c0,0.2-0.1,0.3-0.2,0.5C2.2,15.6,2,15.5,2,15.4
		c-0.1-0.3-0.2-0.5-0.3-0.8c-0.1-0.7,0.1-1.4-0.2-2c-0.3-0.6-0.9-1.1-0.8-1.9c0-0.3-0.3-0.6-0.4-0.9C0.1,9.5-0.1,9,0,8.9
		c0.7-0.7,0.3-1.5,0.3-2.3c0-0.5,0.2-1.1,0.6-1.4c1-0.9,2.2-1.3,3.5-1.6c0.1,0,0.3,0.1,0.5,0.2C4.8,3.9,4.6,4,4.5,4
		C3.9,4.3,3.2,4.5,2.7,4.8C2.2,5,1.7,5.4,1.4,5.8C1.2,6,1.1,6.6,1.3,6.9c0.3,0.5,0.6-0.1,0.8-0.2c2.1-1.1,4.4-1.8,6.7-2.3
		c4.4-1,8.8-1.9,13.4-1.9c2.5,0,5.1-0.5,7.6-0.6c2.3-0.2,4.5-0.3,6.8-0.4c5.2-0.1,10.4-0.1,15.7,0c2.4,0,4.7-0.2,7.1-0.8
		c2.2-0.6,4.4-1,6.6,0.1c0.4,0.2,0.8,0.4,1.2,0.8c0.9,0.8,0.9,1.2,0.2,2.3c-0.1,0.1-0.1,0.3-0.2,0.4c0.2,0,0.5,0.1,0.7,0
		c0.9-0.6,1.8-1.2,2.6-1.8c1.4-1.1,3-1.5,4.6-1.8c1.2-0.2,2.3,0.3,3,1.2C79.9,3.8,81.1,6.3,81.1,9.8z"/>
	<path d="M15.9,10.7c0-0.1,0-0.2,0-0.2c1.9-0.8,3.8-1.2,5.8-0.6c1.3,0.4,1.5,1.3,0.7,2.3c-0.4,0.5-0.8,0.9-1.3,1.2
		c-1.7,1.4-2.4,1.4-4.2,0.1c-0.4-0.3-0.8-0.6-1.1-0.9C15,12,15,12,15.9,10.7c0.6,0.6,1.2,1.2,2,1.6c0.5,0.3,1,0.4,1.5,0.2
		c0.4-0.1,0.8-0.3,0.8-0.8c-0.1-0.4-0.5-0.4-0.8-0.5c-0.6-0.1-1.2,0-1.8,0.1C16.8,11.6,16.3,11.3,15.9,10.7z"/>
	<path d="M7.5,8.8C7.1,8.5,6.7,8.3,6.5,7.9C6.3,7.4,6.8,7.2,7.2,7c0.2-0.1,0.5-0.2,0.7-0.2c0.4,0.1,0.9,0.2,1,0.5
		c0.1,0.2-0.2,0.7-0.4,1C8.2,8.5,7.9,8.6,7.5,8.8z"/>
	<path d="M11.2,11.1c-0.3,0.3-0.5,0.7-0.8,0.9c-0.1,0.1-0.3,0.1-0.5,0.1c0-0.1,0-0.3,0.1-0.4c0.2-0.3,0.5-0.5,0.8-0.7
		C10.9,10.9,11,11,11.2,11.1z"/>
</g>
</svg>
