<?xml version="1.0" encoding="iso-8859-1"?>
<!-- Generator: Adobe Illustrator 25.3.0, SVG Export Plug-In . SVG Version: 6.00 Build 0)  -->
<svg version="1.1" id="Calque_1" xmlns="http://www.w3.org/2000/svg" xmlns:xlink="http://www.w3.org/1999/xlink" x="0px" y="0px"
	 viewBox="0 0 84 14.2" style="enable-background:new 0 0 84 14.2;" xml:space="preserve">
<g>
	<path d="M42.3,1.2C45,1.3,47.5,1.4,50,1.5c0.5,0,0.9-0.1,1.4-0.2C54,0.5,56.5-0.2,59.3,0c2.6,0.2,5.2,0.5,7.7,1.1
		c2.4,0.6,4.8,1.3,7.2,2.1c1.6,0.5,3.2,1.1,4.5,2.1c1.1,0.7,2,1.3,3.3,1.1c0.9-0.1,1.5,0.4,1.8,1.2c0.3,0.8,0.4,1.6-0.3,2.3
		c-0.8,0.8-1.6,1.5-2.8,1c-0.4-0.1-0.9,0-1.3,0.1c-2.2,0.9-4.5,1.3-6.9,1.5c-2.7,0.3-5.3,0.4-8,0.9c-3.3,0.6-6.7,0.7-10,0.4
		c-1.3-0.1-2.6-0.7-3.9-0.9c-0.9-0.2-1.9-0.1-2.8-0.6c-0.3-0.2-0.8-0.1-1.2-0.1c-1.2,0.1-2.4,0.2-3.5,0.3C37.3,13.2,31.5,13,25.8,13
		c-1.8,0-3.6-0.2-5.3-0.4c-1.1-0.1-2.2-0.3-3.3-0.3c-2.3,0-4.4-0.8-6.7-1.1c-1.2-0.2-2.4-0.4-3.6-0.7c-1.2-0.3-2.3-0.9-3.7-0.7
		c-0.1,0-0.2,0-0.4,0c-1.3-0.4-1.3-0.4-2.3,0.5c-0.1,0.1-0.3,0.1-0.3,0.1C0.2,10.3,0.1,10.1,0,10c-0.2-1.3,0.6-2.5,2-2.8
		c2.4-0.6,4.8-1.1,7.2-1.7c0.5-0.1,0.9-0.1,1.4-0.1c0.9-0.1,1.9-0.3,2.8-0.4c1.4-0.2,2.8-0.5,4.2-0.6c2.7-0.2,5.3-0.3,8-0.5
		c1.6-0.1,3.2-0.4,4.7-0.6c2.3-0.4,4.7-0.7,7-1.2C39.1,1.6,40.9,1.9,42.3,1.2z"/>
</g>
</svg>
