<?xml version="1.0" encoding="iso-8859-1"?>
<!-- Generator: Adobe Illustrator 25.3.0, SVG Export Plug-In . SVG Version: 6.00 Build 0)  -->
<svg version="1.1" id="Calque_1" xmlns="http://www.w3.org/2000/svg" xmlns:xlink="http://www.w3.org/1999/xlink" x="0px" y="0px"
	 viewBox="0 0 82.1 32.9" style="enable-background:new 0 0 82.1 32.9;" xml:space="preserve">
<g>
	<path d="M64.1,12.4c0.5-0.1,1.5-0.3,2.4-0.7c1.9-0.8,3.5-2,5.2-3.1c1.9-1.3,4-2.4,6-3.4c1-0.5,2.2-0.6,3.3-0.9
		c0.3-0.1,0.7,0.2,0.9,0.4c0.1,0.1,0,0.6-0.2,0.8C79.9,7.4,78,9.3,76.1,11c-1.3,1.2-2.3,2.6-3.1,4.1c-0.4,0.7-0.3,1.3,0.5,1.8
		c2.8,2,5.2,4.5,7.7,7c0.4,0.4,1.3,0.9,0.9,1.6c-0.4,0.7-1.3,0.4-2,0.3c-1.7-0.4-3.3-1.1-4.8-1.9c-2.3-1.3-4.6-2.5-6.9-3.8
		c-1-0.6-2-0.8-3.2-0.4c-1.1,0.3-2.3,0.2-3.5,0.7c-2.3,1-4.3,2.4-5.3,4.8c-0.6,1.3-1.1,2.6-0.5,4.1c0.1,0.3,0.1,0.7,0.1,1.1
		c0.1,0.6-0.4,0.6-0.6,0.4c-0.9-0.6-1.8-1.1-2.6-1.8c-0.9-0.8-1.7-1.6-2.6-2.5c-1.4-1.4-2.9-2.2-4.9-2.1c-1.6,0.1-3.2,0-4.9,0.1
		c-0.4,0-0.7,0.1-0.5,0.6c0.4,0.7,0.2,1.3-0.2,1.9c-1.2,1.8-2.4,3.7-3.6,5.5c-0.5,0.8-1,0.7-1.5-0.1c-1.2-1.8-1.9-3.8-2.1-5.9
		c-0.1-1.1-0.2-1.2-1.3-1.2c-1.6,0-3.1,0-4.7,0c-1.1,0-1.2,0.1-1.5,1.1c-0.6,2-1.2,4-1.8,5.9c-0.1,0.2-0.3,0.5-0.4,0.7
		c-0.2-0.2-0.5-0.3-0.7-0.5c-0.8-0.8-1.6-1.6-2.2-2.6c-0.8-1.3-1.5-2.7-2.2-4.1c-0.3-0.7-0.7-0.9-1.5-1c-3.6-0.5-7.2-0.6-10.6-2.1
		c-1.6-0.7-3.1-1.4-4.7-2.2c-0.4-0.2-0.9-0.4-0.7-1c0.2-0.6,0.9-1,1.4-0.8C2,18.7,2.5,19,3,19.1c0.3,0.1,0.4,0,0.3-0.3
		c-0.2-0.5-0.3-1-0.6-1.5c-0.5-0.9-0.5-1.1,0.4-1.6C4.1,15.3,5,15,6,14.6c1.7-0.7,3.3-1.4,5-2c2.1-0.7,4.2-1.3,6.3-1.9
		c3.6-0.9,7.2-1.5,10.9-1.9c1.2-0.1,2.5-0.4,3.7-0.7c1-0.2,1.9-0.7,2.6-1.5c1.7-1.7,3.4-3.4,5.1-5c0.6-0.6,1.4-1.1,2.1-1.6
		C41.8-0.1,42.2,0,42.5,0c0,0.3,0.1,0.5,0,0.8c-0.6,1.5-0.4,3.1-0.2,4.6c0.1,1.2,1.6,2.3,2.9,2.4c4.4,0.3,8.7,1.3,13,2.2
		c0.5,0.1,1,0.4,1.5,0.6c-0.5,0.5-1,0-1.6,0C54.6,10,51.3,8.9,47.8,9c-0.8,0-1.5,0.3-2.3,0.4c-0.1,0-0.2,0.2-0.3,0.4
		c0.2,0.1,0.3,0.1,0.5,0.1c4.6,0.4,9.1,1.1,13.6,2C60.6,12.3,62.2,12.3,64.1,12.4z"/>
	<path d="M7.5,15.7c0.2-0.2,0.3-0.3,0.5-0.5c0.6,0,1.2-0.2,1.7,0.1l0,0c0.5,0.7,0.9,1.4,0.1,2.2c-0.5,0.5-1.1,0.7-1.7,0.3
		C7.3,17.3,7,16.6,7.5,15.7z"/>
	<path d="M43,16.4c-1.7,0-3.5,0-5.2,0c-0.1,0-0.3-0.1-0.4-0.2c0.2-0.1,0.3-0.1,0.5-0.1c1.4,0,2.9,0,4.3,0c0.9,0,1.9-0.2,2.8-0.3
		c0.3,0,0.7,0,1,0.1c0.8,0.3,1.5,0.1,2.3-0.1c0.1,0,0.3,0.2,0.5,0.4c-0.1,0.1-0.3,0.2-0.4,0.2c-1.2,0-2.4,0-3.6,0
		C44.1,16.4,43.5,16.4,43,16.4C43,16.4,43,16.4,43,16.4z"/>
	<path d="M17.3,14.3c-0.7,0-0.8-0.4-0.7-0.9c0-0.1,0.1-0.2,0.1-0.3c0.1,0.1,0.4,0.1,0.4,0.2C17.2,13.6,17.2,14,17.3,14.3L17.3,14.3z
		"/>
	<path d="M68.8,15.1c-0.2-0.3-0.4-0.4-0.4-0.5c0-0.2,0.2-0.4,0.3-0.5c0.1,0.1,0.3,0.2,0.3,0.3C69.1,14.6,68.9,14.8,68.8,15.1z"/>
	<path d="M15.4,21.3c-0.2,0.3-0.4,0.5-0.5,0.7c-0.1-0.2-0.1-0.3-0.2-0.5c-0.1-0.4,0-0.6,0.4-0.5C15.1,21.1,15.2,21.2,15.4,21.3z"/>
</g>
</svg>
