<?xml version="1.0" encoding="iso-8859-1"?>
<!-- Generator: Adobe Illustrator 25.3.0, SVG Export Plug-In . SVG Version: 6.00 Build 0)  -->
<svg version="1.1" id="Calque_1" xmlns="http://www.w3.org/2000/svg" xmlns:xlink="http://www.w3.org/1999/xlink" x="0px" y="0px"
	 viewBox="0 0 85.7 28" style="enable-background:new 0 0 85.7 28;" xml:space="preserve">
<g>
	<path d="M54.9,13.1c0,1-0.9,1-1.6,1.1c-0.8,0.1-1.7,0.1-2.5,0c-1.2-0.2-1.9,0.4-2.4,1.4c-0.6,1.3-1.1,1.5-2.1,0.6
		c-1.7-1.6-3.4-1.6-5.5-1c-1.7,0.5-3.6,0.3-5.4,0.5c-1.9,0.1-3.8,0.2-5.7,0.3c-0.6,0-0.5,0.2-0.4,0.6c1.1,3.1,1.1,6.4,1.8,9.5
		c0.1,0.3,0,0.6,0,0.9c-0.2,1-0.7,1.2-1.5,0.7c-0.7-0.5-1.3-1-1.9-1.6c-1.5-1.7-2.8-3.6-3.8-5.6c-0.6-1.2-1.2-2.3-1.7-3.5
		c-0.3-0.7-0.8-0.9-1.5-0.9c-1.2,0-2.4-0.3-3.6-0.3c-0.9,0-1.9,0-2.8,0.3c-1.8,0.5-3.7,0.4-5.5,0.3c-1.6-0.1-3.3-0.5-4.8-0.9
		c-1.1-0.3-2.1-0.7-3.2-1.2c-0.3-0.1-0.5-0.5-0.7-0.8C0,13.2,0,12.9,0,12.7c0.1-0.1,0.4-0.2,0.6-0.2c0.9,0.2,1.6,0,2.3-0.6
		c0.9-0.7,1-0.7,0-1.2c-0.5-0.3-1.1-0.5-1.6-0.7C-0.3,9.3-0.4,8,0.9,6.9c0.8-0.6,1.6-1,2.6-1.1C6.3,5.5,9.2,5,12,4.6
		c0.8-0.1,1.6,0,2.3-0.1c2.4-0.2,4.9-0.5,7.3-0.7c0.7-0.1,1.3,0,2,0c2.6,0.1,5-0.6,7.1-2.2c0.6-0.5,1.4-0.7,2-1.1
		c1.1-0.6,1.4-0.6,2.3,0.3c0.7,0.7,1.3,1.3,2,2c0.5,0.5,1.4,0.5,1.5,1.4c0,0.1,0.4,0.2,0.6,0.2c2.3,0.1,4.5,0.3,6.8,0.4
		C47,4.9,48,4.8,49,4.2c0.9-0.6,1.8-0.7,2.5,0.3c0.3,0.5,0.9,0.8,1.3,1.1c0.2,0.1,0.4,0.2,0.6,0.3c1,0.1,2,0.3,3,0.4
		c1.1,0.1,2.1,0,3.1-0.5c2.6-1.2,5.2-1.9,8-2.4c1.8-0.3,3.6-0.8,5.4-1.1c2.1-0.4,4.2-0.8,6.3-1.1C79.8,1,80.2,1,80.7,0.9
		c1.1-0.1,2.1-0.3,3.2-0.3c0.5,0,1.1,0.1,1.6,0.2c0.1,0,0.2,0.5,0.2,0.5c-0.6,0.6-0.9,1.4-2.1,1.5C82.4,3,81.1,3.7,80,4.3
		c-2.3,1.2-4.7,2.4-7,3.6c-1.6,0.9-3.2,1.9-4.7,2.9c-1.3,0.8-1.5,2.2-1,4.2c0.3,1,0.5,2,0.5,2.9c0,0.9-0.5,1.2-1.2,0.6
		c-2.1-1.7-4.2-3.4-6.2-5.1c-0.4-0.3-0.8-0.8-1.1-1.1c-0.9-0.8-1.6-0.9-2.6-0.3C56.1,12.4,55.5,12.7,54.9,13.1
		c-0.9-0.4-1.9-0.4-2.8-0.4c-0.2,0-0.4,0-0.5,0c0.2,0,0.5,0,0.7,0C53.1,12.7,54,12.7,54.9,13.1z"/>
	<path d="M35.5,2.8c-1-0.1-1.5-0.8-1.5-1.8C34.4,1.6,34.9,2.2,35.5,2.8z"/>
	<path d="M22.1,13.8C21,14,21,13.1,20.8,12.5c-0.2-0.7,0-1.3,0.5-1.8c0.1-0.1,0.4-0.2,0.5-0.1c0.2,0.1,0.4,0.3,0.4,0.5
		C22.2,12,22.2,12.9,22.1,13.8L22.1,13.8z"/>
	<path d="M17.1,13c0.1-0.8,0.2-1.6,0.3-2.4c0-0.2,0.3-0.3,0.5-0.4c0,0.1,0.1,0.3,0.1,0.4c0,0.8,0,1.6-0.1,2.4c0,0.3-0.2,0.8-0.3,0.8
		c-0.5,0-0.4-0.4-0.3-0.8c0-0.1,0-0.1,0.1-0.2C17.2,13,17.1,13,17.1,13z"/>
	<path d="M19.1,12.4c0.1,0.4,0.1,0.8,0.1,1.2c0,0.2-0.2,0.3-0.3,0.5c-0.1-0.2-0.4-0.3-0.4-0.5c0-0.9,0-1.9,0-2.8
		c0-0.1,0.2-0.2,0.3-0.3c0.1,0.1,0.3,0.3,0.3,0.4C19.2,11.3,19.2,11.9,19.1,12.4C19.1,12.4,19.1,12.4,19.1,12.4z"/>
	<path d="M20.4,10.3c0.1,0.1,0.2,0.2,0.2,0.3c-0.1,1-0.2,2.1-0.3,3.1c0,0.1-0.1,0.2-0.2,0.2c-0.1,0-0.3-0.1-0.3-0.2
		c-0.1-1.1-0.2-2.3,0.2-3.3C20.1,10.4,20.3,10.3,20.4,10.3z"/>
	<path d="M6.8,8.1C6.4,8.4,6.1,8.8,6,8.7C5.7,8.6,5.5,8.2,5.2,7.9C5.5,7.7,5.7,7.4,6,7.4C6.2,7.4,6.5,7.8,6.8,8.1z"/>
	<path d="M26.4,13.8c-0.9,0.1-1.8,0.2-2.7,0.3c-0.1,0-0.2-0.1-0.3-0.1c0.1-0.1,0.2-0.2,0.3-0.2C24.6,13.4,25.5,13.1,26.4,13.8
		L26.4,13.8z"/>
	<path d="M61.4,7c-0.6,0.3-1.2,0.7-1.8,1c-0.1,0.1-0.3-0.1-0.5-0.1c0.1-0.1,0.1-0.4,0.3-0.4C60,7.3,60.7,7.2,61.4,7L61.4,7z"/>
	<path d="M8.5,6.5C9,6.6,9.4,6.6,9.7,6.8c0.3,0.1,0.5,0.3,0.7,0.5c-0.3,0-0.5,0-0.8,0c-0.3,0-0.7-0.1-1-0.2C8.4,6.9,8.3,6.7,8.2,6.6
		C8.3,6.6,8.5,6.5,8.5,6.5z"/>
	<path d="M63.7,6.3c-0.2-0.1-0.3-0.1-0.4-0.2c0,0,0.1-0.1,0.1-0.1c0.4-0.1,0.7-0.3,1.1-0.4c0,0,0.1,0.1,0.1,0.2
		C64.4,6,64,6.2,63.7,6.3z"/>
	<path d="M61.4,7c0-0.1,0-0.1,0.1-0.2c0.3-0.2,0.7-0.4,1-0.5c0,0,0.1,0.2,0.1,0.2c-0.4,0.1-0.7,0.3-1.1,0.4C61.5,7,61.4,7,61.4,7
		L61.4,7z"/>
	<path d="M65.9,9.9c-0.4,0.1-0.7,0.2-1,0.3c0,0-0.1-0.2-0.2-0.2c0.3-0.1,0.6-0.3,0.9-0.4C65.7,9.5,65.8,9.7,65.9,9.9z"/>
</g>
</svg>
