<svg xmlns="http://www.w3.org/2000/svg" viewBox="0 0 800 198" width="800" height="198">
  <g transform="scale(0.6666666666666666, 0.6666666666666666)">
    <path d="M 218.500 27.606 C 216.850 27.863, 202.334 29.642, 186.242 31.560 C 111.715 40.444, 85.355 48.474, 57.889 70.660 C 54.252 73.597, 50.765 76, 50.139 76 C 49.456 76, 49 77.801, 49 80.500 C 49 84.297, 48.695 85, 47.047 85 C 44.017 85, 43.012 90.659, 43.006 107.750 L 43 123 40.444 123 C 34.213 123, 24.449 140.447, 27.765 145.654 C 30.304 149.639, 56.475 164.808, 69.906 170.079 C 77.438 173.035, 78.582 173.837, 80.906 177.788 C 92.822 198.050, 97.022 203.136, 126.940 233.537 C 143.198 250.058, 158.983 266.370, 162.018 269.787 C 167.194 275.615, 167.806 276, 171.907 276 L 176.278 276 175.739 270.250 C 174.408 256.062, 168.354 247.484, 153.023 238.063 C 140.290 230.238, 130.395 222.327, 121.250 212.659 L 114 204.994 114 190.536 L 114 176.077 118.250 174.789 C 121.514 173.799, 133.054 173.567, 168 173.788 L 213.500 174.076 223 183.451 C 228.225 188.607, 236.540 196.260, 241.478 200.457 C 250.331 207.983, 250.526 208.085, 255.478 207.794 C 259.645 207.550, 260.550 207.154, 260.791 205.470 C 260.951 204.353, 262.068 203.003, 263.273 202.470 C 267.284 200.695, 267.970 197.489, 267.985 180.427 L 268 164.353 274.250 163.093 C 277.688 162.399, 282.525 161.440, 285 160.961 C 287.475 160.482, 298.050 159.391, 308.500 158.537 C 318.950 157.682, 332.900 156.461, 339.500 155.822 C 359.138 153.921, 406.892 154.180, 424 156.280 C 436.982 157.873, 467.642 160.443, 504.500 163.027 C 523.725 164.375, 626.842 165.991, 696 166.029 L 756.500 166.062 760.500 168.526 C 763.560 170.411, 765.885 170.991, 770.395 170.995 C 775.937 171, 777.227 171.522, 791.895 179.696 C 817.400 193.908, 817.606 194, 824.037 194 C 828.620 194, 831.392 194.762, 837.646 197.743 C 845.402 201.438, 845.700 201.494, 861.500 202.168 C 870.300 202.543, 878.990 203.164, 880.812 203.548 C 883.639 204.143, 884.203 203.940, 884.669 202.157 C 885.168 200.249, 886.043 200.045, 894.858 199.785 L 904.500 199.500 904.805 196.365 C 905.157 192.746, 903.159 191.237, 891.750 186.502 L 885 183.700 885 169.504 L 885 155.309 897.750 154.645 C 904.762 154.280, 923.212 153.688, 938.750 153.330 C 966.577 152.688, 967 152.708, 967 154.684 C 967 155.787, 967.948 157.547, 969.106 158.595 C 970.265 159.643, 972.069 162.178, 973.116 164.229 C 976.193 170.257, 979.626 171.482, 993 171.324 C 1006.804 171.161, 1020.129 168.613, 1032.600 163.752 C 1037.495 161.843, 1043.554 159.538, 1046.063 158.630 C 1048.573 157.721, 1053.073 155.517, 1056.063 153.733 L 1061.500 150.488 1061.797 143.702 C 1062.196 134.558, 1061.888 134.652, 1089.500 135.251 C 1101.600 135.514, 1123.200 135.422, 1137.500 135.047 C 1162.778 134.384, 1163.701 134.287, 1170.750 131.566 L 1178 128.768 1178.032 116.634 C 1178.056 107.552, 1178.433 104.012, 1179.532 102.559 C 1181.385 100.108, 1181.429 95.601, 1179.613 94.094 C 1175.813 90.940, 1160.326 89.578, 1142.615 90.840 C 1107.363 93.353, 1102.319 93.892, 1095.020 95.921 C 1088.899 97.622, 1084.675 98, 1071.770 98 L 1056 98 1056 91.969 C 1056 86.326, 1055.774 85.741, 1052.491 82.858 C 1050.561 81.164, 1048.708 78.684, 1048.373 77.348 C 1047.342 73.244, 1041.413 71, 1031.597 71 L 1023.115 71 1022.807 66.817 C 1022.416 61.491, 1020.686 60.894, 1005 60.674 C 994.525 60.528, 992.914 60.758, 986.922 63.257 C 983.303 64.766, 979.020 66, 977.404 66 C 975.787 66, 972.700 67.199, 970.543 68.664 C 967.692 70.602, 964.832 71.493, 960.061 71.931 C 956.345 72.272, 952.428 73.285, 951.027 74.267 C 947.870 76.480, 937.964 76.531, 901.403 74.521 C 886.606 73.707, 852.675 72.134, 826 71.026 C 799.325 69.918, 768.275 68.332, 757 67.503 C 745.725 66.674, 723.225 65.315, 707 64.483 C 638.457 60.970, 528.986 50.388, 448.461 39.491 C 422.064 35.919, 402.277 34.035, 364.500 31.497 C 351.850 30.647, 335.875 29.528, 329 29.009 C 315.602 27.998, 223.497 26.829, 218.500 27.606" stroke="none" fill="black" fill-rule="evenodd"/>
  </g>
</svg>