<?xml version="1.0" encoding="iso-8859-1"?>
<!-- Generator: Adobe Illustrator 25.3.0, SVG Export Plug-In . SVG Version: 6.00 Build 0)  -->
<svg version="1.1" id="Calque_1" xmlns="http://www.w3.org/2000/svg" xmlns:xlink="http://www.w3.org/1999/xlink" x="0px" y="0px"
	 viewBox="0 0 84.5 19.4" style="enable-background:new 0 0 84.5 19.4;" xml:space="preserve">
<g>
	<path d="M74.6,16.2c-2.1,0-4.2-0.1-6.3-0.1c-3.3,0.1-6.7,0-10,0.4c-2.2,0.2-4.3,0.1-6.4,0.3c-5.7,0.7-11.5,0.2-17.2,0.3
		c-1.5,0-3.1-0.3-4.6-0.5c-0.3,0-0.6-0.2-0.9-0.2c-1.8,0.2-3.7,0.4-5.5,0.6c-1.5,0.2-3.1,0.3-4.6,0.4c-0.2,0-0.3,0.1-0.5,0.1
		c0.1,0.1,0.2,0.3,0.3,0.4c0.1,0.1,0.2,0.1,0.3,0.2c0.4,0.3,0.8,0.7,1.1,1c-0.6,0.5-1.2,0.1-1.8-0.1c-0.7-0.3-1.4-0.5-1.9-1
		c-1-0.8-2-1-3.2-0.9c-3.1,0.2-6.1-0.3-9-1.1c-1.3-0.4-2.6-0.9-3.8-1.4c-0.6-0.2-0.8-0.6-0.5-1.3c0.3-0.6,0.4-1.4,0.5-2
		c0.3-1.5,1.2-2.5,2.5-3C6.5,7.1,9.8,6,13.3,5.6c1-0.1,2-0.2,3-0.4c0.8-0.1,1.6-0.4,2.2-1.1c1.1-1.1,2.3-2.1,3.5-3.1
		c0.2-0.2,0.5-0.4,0.7-0.5c1.9-0.8,2.1-1,3.6,0.5c1.3,1.3,2.6,2,4.5,2.4c4.3,1,8.7,1.7,13.1,2.5c4.4,0.7,8.7,1.7,13.1,2.6
		c3.5,0.7,7.1,1.6,10.6,2.3c1.2,0.2,2.4,0.3,3.5,0.4c0.3,0,0.6,0,0.9,0.1c0.5,0.2,1.2,0.4,1.3,0.7c0.2,0.6-0.6,0.7-1,1
		c-0.1,0.1-0.3,0.2-0.4,0.3c0.2,0,0.5,0.2,0.7,0.1c0.9-0.3,1.8-0.9,2.9-0.7c1.6,0.3,3.3,0.6,4.9,1c1.3,0.3,2.5,0.7,3.7,1.1
		c0.2,0.1,0.3,0.3,0.5,0.4c-0.2,0.1-0.4,0.4-0.7,0.4c-2.3,0.2-4.5,0.3-6.8,0.4c-0.8,0.1-1.7,0.2-2.5,0.3
		C74.6,16.3,74.6,16.3,74.6,16.2z"/>
	<path d="M26.9,8.8c-0.3,0.3-0.5,0.5-0.7,0.6C25.2,10,24.1,10.6,23,11c-1.6,0.6-3.3,1.1-4.9,1.5c-0.9,0.2-1.8-0.5-1.8-1.4
		c0-0.2,0.2-0.4,0.4-0.5c1.9-1,3.9-2.1,6.2-2.2c1.2-0.1,2.5-0.5,3.7,0C26.6,8.6,26.7,8.7,26.9,8.8z"/>
	<path d="M5.2,12.5c-1.4,0-1.7-0.2-1.7-1.2c0-0.7,0.6-1.3,1.3-1.3c0.7,0,1.2,0.5,1.2,1c0,0.5-0.9,0.7-0.3,1.3
		C5.6,12.4,5.3,12.4,5.2,12.5z"/>
	<path d="M19.2,7.1c-0.8,0-1.6,0-2.3,0c-0.2,0-0.3-0.1-0.5-0.2c0.1-0.1,0.3-0.2,0.4-0.2c1.7,0,3.5,0,5.2,0c0.1,0,0.3,0.1,0.4,0.2
		c-0.2,0.1-0.3,0.1-0.5,0.1C21,7.1,20.1,7.1,19.2,7.1C19.2,7.1,19.2,7.1,19.2,7.1z"/>
	<path d="M30.3,7.5c1,0.1,2.2,0.2,3.4,0.4c0.1,0,0.2,0.1,0.2,0.2c-0.1,0.1-0.2,0.1-0.3,0.1c-0.5,0-1.1,0.1-1.6,0c-1-0.1-2-0.2-3-0.4
		c-0.1,0-0.3-0.1-0.4-0.2c0.2-0.1,0.3-0.1,0.5-0.2C29.4,7.4,29.7,7.5,30.3,7.5z"/>
	<path d="M25.7,7c0.7,0.1,1.4,0.2,2.1,0.3c-0.7,0-1.4,0.1-2.1,0.1c-0.7,0-1.3,0-2,0c-0.2,0-0.3-0.1-0.5-0.2c0.1-0.1,0.3-0.2,0.4-0.2
		c0.7,0,1.3,0,2,0C25.6,7.1,25.7,7,25.7,7z"/>
	<path d="M37.8,8.9c-0.5,0-0.7,0-1-0.1c-0.1,0-0.2-0.1-0.3-0.2c0.1-0.1,0.2-0.1,0.3-0.1c0.2,0,0.5,0,0.7,0c0.3,0,0.7,0.1,1,0.1
		C38.2,8.8,37.9,8.9,37.8,8.9z"/>
	<path d="M55.3,12.1c0,0-0.3,0-0.6,0c0,0-0.1-0.1-0.1-0.1c0.1-0.1,0.1-0.2,0.2-0.2c0.5,0,0.9,0,1.4,0c0.1,0,0.3,0.1,0.4,0.2
		c-0.2,0.1-0.3,0.1-0.5,0.2C56,12.1,55.8,12.1,55.3,12.1z"/>
	<path d="M44.3,10c-0.2,0-0.3,0-0.5,0c-0.5-0.1-0.9-0.2-1.4-0.2c0.5,0,1-0.1,1.5-0.1C44,9.6,44.1,9.9,44.3,10L44.3,10z"/>
	<path d="M44.2,10c0.1,0,0.2,0,0.3,0c0.5,0,1,0.1,1.5,0.1c0,0.1-0.1,0.2-0.1,0.2C45.4,10.2,44.7,10.6,44.2,10L44.2,10z"/>
	<path d="M53,11.4c0,0,0.3,0,0.5,0c0.1,0,0.1,0.1,0.1,0.2c0,0-0.1,0.1-0.1,0.1c-0.3,0-0.6,0-0.9,0c-0.2,0-0.4-0.1-0.7-0.2
		c0.2-0.1,0.4-0.1,0.6-0.2C52.7,11.4,52.8,11.4,53,11.4z"/>
	<path d="M60.8,12.8c-0.1,0-0.2,0-0.3,0c-0.5,0-1-0.1-1.5-0.1c0-0.1,0.1-0.2,0.1-0.2C59.6,12.5,60.3,12.2,60.8,12.8L60.8,12.8z"/>
	<path d="M60.8,12.8c0.2,0,0.3,0,0.5,0c0.5,0.1,0.9,0.2,1.4,0.2c-0.5,0-1,0.1-1.5,0.1C61.1,13.1,60.9,12.9,60.8,12.8L60.8,12.8z"/>
	<path d="M70.9,14.6c-0.2,0-0.4,0-0.5,0c-0.5-0.1-0.9-0.2-1.4-0.2c0.5,0,1-0.1,1.5-0.1C70.6,14.3,70.8,14.5,70.9,14.6
		C70.9,14.6,70.9,14.6,70.9,14.6z"/>
</g>
</svg>
