<?xml version="1.0" encoding="iso-8859-1"?>
<!-- Generator: Adobe Illustrator 25.3.0, SVG Export Plug-In . SVG Version: 6.00 Build 0)  -->
<svg version="1.1" id="Calque_1" xmlns="http://www.w3.org/2000/svg" xmlns:xlink="http://www.w3.org/1999/xlink" x="0px" y="0px"
	 viewBox="0 0 77.8 38.5" style="enable-background:new 0 0 77.8 38.5;" xml:space="preserve">
<g>
	<path d="M20.1,8.6c1.3,0,2.5,0,3.8,0c1.2-0.1,2.5-0.2,3.7-0.4c0.3,0,0.6-0.4,0.7-0.7c0.4-0.9,0.6-1.9,1.2-2.7
		c0.6-1,0.9-2.1,2.2-2.6c0.5-0.2,0.9-0.8,1.2-1.3c0.4-0.8,1.1-1,1.9-0.9c1.2,0.1,2.5,0.2,3.7,0.4c1.9,0.3,3.8,0.5,5.5,1.5
		c2.7,1.5,5.1,3.5,6.9,6.1c1.5,2.2,1.1,3.6-1.8,4.4c-0.6,0.2-1.3,0.3-1.9,0.5c0.6,0.3,1.2,0.8,1.8,0.9c1.2,0.3,2.4,0.5,3.7,0.6
		c1.7,0.2,3.3,0.3,5,0.3c2.1,0,3.9-0.8,5.2-2.5c0.2-0.3,0.5-0.6,0.7-0.8c0.1-0.1,0.4-0.1,0.5,0c0.7,1.6,1.1,0.1,1.4-0.2
		c1.9-1.5,3.8-3.1,5.7-4.5c0.8-0.6,1.9-1,2.9-1.4c0.2-0.1,0.5,0,0.6,0.1C75,5.5,75,5.8,74.9,6c-0.4,0.7-0.9,1.4-1.4,2
		c-1.5,1.9-2.2,4.2-3.2,6.3c-0.7,1.4-0.3,2.7,0.8,3.9c0.8,0.9,1.6,1.9,2.6,2.7c1.3,1,2.4,2.3,3.6,3.5c0.4,0.4,0.6,0.7,0.4,1.3
		c-0.2,0.5-0.7,0.6-1.2,0.5c-0.8-0.2-1.6-0.3-2.4-0.6c-1.5-0.6-3-1.4-4.6-2c-1.1-0.5-2.2-0.9-3.3-1.2c-0.2-0.1-0.6,0-0.8,0.1
		c-0.6,0.5-0.6,0.6-0.9,0.3c-1-0.8-2.2-0.7-3.3-1.1c-0.6-0.3-1.6,0.2-2.4,0.3c-1.8,0.2-3.5,0.5-5.3,0.7c-0.8,0.1-1.5,0.2-2.3,0.4
		c-0.2,0-0.3,0.1-0.5,0.1c0.2,0,0.3,0.1,0.5,0.1c1.2,0.1,2.5,0.2,3.7,0.4c0.3,0,0.7,0.1,1,0.2c1,0.4,1.1,0.6,0.7,1.6
		c-1.2,2.5-2.8,4.5-5.5,5.5c-1.1,0.4-2,0.2-2.8-0.6c-0.5-0.4-0.9-0.9-1.6-1.1c-0.4-0.1-0.7-0.8-1-1.2c-0.4-0.6-0.8-1.3-1.3-1.9
		c-0.2-0.3-0.5-0.4-0.9-0.2c-2.8,1.3-5.8,1.7-8.8,2c-1.2,0.1-2.4,0.2-3.5,0.4c-0.2,0-0.3,0.1-0.4,0.2c0.2,0.1,0.3,0.4,0.5,0.4
		c1,0,2,0,3.1,0c1,0,1.2,0.3,0.9,1.2c-0.2,0.6-0.1,0.9,0.3,1.2c0.4,0.4,0.6,0.7,0.1,1.2c-0.1,0.1-0.1,0.3,0,0.5
		c0.4,0.6,0.6,1.1-0.2,1.6c-0.1,0-0.1,0.4,0,0.5c0.3,0.6,0,0.9-0.6,1c-0.5,0.1-0.9,0.2-0.7,0.9c0,0.1-0.3,0.4-0.4,0.4
		c-1-0.3-1.8-0.3-2.4,0.7c-0.1,0.1-0.4,0.2-0.5,0.1c-0.7-0.4-1.4-0.3-2,0.2c-0.1,0.1-0.5,0-0.6-0.2c-0.4-0.5-0.8-1-1.2-1.6
		c-0.4-0.6-0.6-1.3-1-1.9c-0.5-0.8-0.7-0.7-1.2,0.1c-0.1,0.1-0.3,0.3-0.3,0.3c-0.1-0.1-0.3-0.2-0.4-0.3c-0.2-0.8-0.4-1.6-0.5-2.4
		c-0.1-0.4,0-0.8-0.1-1.2c-0.2-0.7-0.2-1.7-0.6-2.1c-0.4-0.4-1.4-0.1-2.1-0.1c-1.5-0.2-3-0.6-4.6-0.6c-2.1-0.1-4.1-0.7-6.1-1.1
		c-1.4-0.3-2.8-0.7-4.1-1.3c-2.9-1.2-4.5-3.5-5.9-6.1c-0.4-0.7-0.1-1.1,0.5-1.2c0.5-0.1,0.4-0.3,0.4-0.7c-0.1-0.5,0.1-1,0.3-1.5
		c0.8-2.2,1.8-4.4,4.1-5.6c1.3-0.7,2.7-1.3,4.2-1.5C13.1,8.8,16.5,8.3,20.1,8.6z"/>
	<path d="M39.2,14.3c-2,0.6-4,1-6,1.7c-2.4,0.8-4.8,1.9-7.2,2.8c-0.2,0.1-0.3,0.2-0.5,0.2c-0.3,0.1-0.5,0.2-0.8,0.3
		c-0.1-0.5-0.1-0.9,0.5-1.1c1.3-0.5,2.5-1.1,3.8-1.5c2.6-0.9,5.3-1.8,8-2.5c1.1-0.3,2.3-0.3,3.4-0.1c1.3,0.1,1.5,0.9,0.7,1.8
		c-2.7,3.1-5.8,5.5-10.3,5.7c-2.1,0.1-4.2,0.3-6.1,1.1c-0.1,0.1-0.4-0.1-0.6-0.2c0.1-0.1,0.1-0.3,0.3-0.4c1.1-0.4,2.1-0.8,3.2-1
		c2-0.4,4.1-0.7,6.1-1.1c1.5-0.3,2.8-0.9,3.9-2c0.8-0.8,1.7-1.5,2.5-2.2c0.2-0.2,0.4-0.6,0.6-0.9c-0.3-0.2-0.6-0.3-0.9-0.4
		c-0.2-0.1-0.5,0-0.7-0.1C39.2,14.4,39.2,14.3,39.2,14.3z"/>
	<path d="M15.1,15.9c-0.1,0.9-0.4,1.8-0.3,2.6c0.1,1.9,0.3,3.7,0.4,5.6c0,0.5,0,1-0.1,1.5c-0.2,0.5-0.6,0.5-1,0.2
		c-0.3-0.2-0.6-0.6-0.1-0.8c0.6-0.4,0.5-0.9,0.4-1.4c-0.2-1.3-0.4-2.5-0.6-3.8c-0.1-0.3-0.1-0.7,0-1.1c0.4-1.9,0.7-3.8-0.3-5.7
		c0-0.1,0.1-0.4,0.2-0.4c0.1,0,0.4,0,0.5,0.1C14.8,13.7,15,14.8,15.1,15.9z"/>
	<path d="M10.6,20.3c0.2-1.9,0.3-3.8,0.5-5.6c0-0.2,0.1-0.4,0.2-0.7c0-0.1,0.2-0.2,0.3-0.2c0.1,0,0.1,0.1,0.2,0.2c0,0,0,0.1,0,0.2
		c-0.6,3.1-0.3,6.3-0.3,9.4c0,0.2,0,0.4,0,0.5c-0.1,0.4-0.3,0.6-0.8,0.5c-0.2,0-0.3-0.1-0.5-0.2c-0.4-0.1-0.7-0.2-1.1-0.4
		c0.2-0.6,0.7-0.5,1.2-0.4c0.1,0,0.3-0.2,0.4-0.4c0-1,0-2,0-3C10.7,20.3,10.6,20.3,10.6,20.3z"/>
	<path d="M6,18c-0.9,0-1.7-0.7-1.6-1.5c0-0.9,0.8-1.5,1.9-1.5c1,0.1,1.5,0.6,1.5,1.6C7.7,17.5,7,18,6,18z"/>
	<path d="M2.8,16.5c0.2,0.1,0.5,0.1,0.6,0.3c0.1,0.2,0,0.5-0.1,0.7C3.2,17.3,3,17.2,2.8,17C2.7,16.9,2.8,16.7,2.8,16.5
		C2.8,16.5,2.8,16.5,2.8,16.5z"/>
</g>
</svg>
