<?xml version="1.0" encoding="iso-8859-1"?>
<!-- Generator: Adobe Illustrator 25.3.0, SVG Export Plug-In . SVG Version: 6.00 Build 0)  -->
<svg version="1.1" id="Calque_1" xmlns="http://www.w3.org/2000/svg" xmlns:xlink="http://www.w3.org/1999/xlink" x="0px" y="0px"
	 viewBox="0 0 72.4 35.9" style="enable-background:new 0 0 72.4 35.9;" xml:space="preserve">
<g>
	<path d="M60,25.9c-1.2-0.1-3.4-0.3-5.5-0.4c-0.7,0-1.3,0-2,0.1c0,1-0.8,0.5-1.3,0.7c-0.1,0-0.1,0.2-0.1,0.2
		c0.2,0.9-0.6,0.5-0.7,0.6c-0.7,0.8-1.4,0.5-2.1,0.3c-0.6,0.8-1.3,0.4-2,0.3c-2.4-0.4-4.7-0.2-7,0.4c-1,0.3-2,0.2-3-0.1
		c-0.6-0.2-1.2-0.3-1.7-0.3c-1-0.1-1.7,0.2-2.4,1.1c-1.1,1.5-2.5,2.9-3.8,4.3c-0.8,0.8-1.7,1.3-2.8,1.4c-0.5,0-1,0.1-1.2,0.6
		c-0.3,0.8-0.9,0.9-1.6,0.8c-2.1-0.2-4.3-0.4-6.4-0.6c-1.5-0.1-3-0.4-4.4-0.4c-1.4,0-2.7-0.4-3.8-1.2c-1.5-1.1-3-2.1-4.8-2.7
		c-0.6-0.2-1.2-0.4-1.9-0.5C0.2,30.3-0.2,30,0.1,29c0.3-1.4,0.7-2.8,1.1-4.2c0-0.1,0.3-0.2,0.5-0.3c0.1,0.2,0.2,0.3,0.2,0.5
		c0,0.1,0,0.2,0,0.3c0,0.4-0.1,0.8-0.1,1.1c0.6-0.1,0.6-0.6,0.8-1c0.1-0.1,0.2-0.3,0.3-0.4C2.9,25.1,3,25.3,3,25.5
		c0,0.4,0,0.7-0.1,1.1c-0.2,0.5,0,0.6,0.4,0.7c0.1,0,0.2,0.5,0.3,0.7c0.1,0.2,0.2,0.4,0.3,0.5C4,28.3,4.4,28.2,4.4,28
		c0.2-0.7,0.2-1.4,0.4-2.1c0-0.2,0.3-0.3,0.4-0.4c0.1,0.1,0.3,0.4,0.2,0.4c-0.6,0.8,0.3,1.6,0.1,2.4c-0.1,0.7,0.3,0.2,0.6,0.3
		c0.7,0.2,0.9-0.1,1.1-0.6c0.1-0.3,0.3-0.4,0.4,0c0.1,0.3,0.1,0.6,0.5,0.4c0.8-0.4,1.7-0.8,2.5-1.3c0.6-0.4,1.2-0.8,1.7-1.3
		c0.3-0.3,0.7-0.5,1-0.7c-0.4-0.1-0.7-0.2-1.1-0.3c-0.5-0.1-0.4-0.4-0.3-0.8c0.2-1.1,0.2-1.1-1-1c-0.2,0-0.5-0.1-0.7-0.1
		c0.1-0.2,0.2-0.5,0.3-0.7c0.1-0.2,0.3-0.4,0.3-0.6c0.1-0.4-0.3-0.8-0.7-0.9C9.9,20.5,9,21.2,9.2,20c0,0-0.2-0.2-0.2-0.2
		c-0.1,0.1-0.2,0.2-0.2,0.2c-0.3,0.3-0.6,0.6-1,1c-0.4-0.6,0.3-0.9,0.4-1.4c0.1-0.2,0.2-0.3,0.4-0.4C9,18.9,9,18.8,8.4,18.6
		c-0.5-0.2-0.9-0.7-1.2,0.2c0,0.2-0.4,0.2-0.5,0.4c0-0.3-0.1-0.6,0-0.8c0.2-0.3,0.5-0.5,0.7-0.8c0.5-0.5,1.2-0.9,0.1-1.5
		c0,0,0-0.2,0-0.3c0-0.2-0.1-0.4-0.1-0.6c-0.2,0.1-0.4,0.3-0.5,0.4c-0.1,0.1-0.2,0.3-0.3,0.4c-0.3,0.2-0.6,0.4-1,0.7
		c0.1-0.4,0-0.8,0.2-1.1c0.3-0.8,0.8-1.6,1.1-2.4c0.5-1.1,1.4-1.4,2.4-1.7c0.2-0.1,0.5,0,0.7,0c1.5-0.1,2.7-0.7,3.4-2.1
		c1.4-2.7,3.2-5.3,5.3-7.6c0.2-0.2,0.3-0.4,0.4-0.6c0.7-1.3,1.1-1.4,2.5-0.8C22,0.5,21.9,0.8,21.7,1c-0.3,0.3-0.7,0.5-1,0.7
		c-1.4,0.8-2.4,1.9-3.4,3.1c-0.1,0.1-0.1,0.2-0.1,0.3c0.1,0,0.3,0,0.4-0.1c1.4-1.3,2.9-2.4,4.6-3.4c2.4-1.4,4.6-1.2,7-0.3
		c3.1,1.2,5.1,3.4,6.8,6.1c0.5,0.8,0.8,1,1.8,0.8c1.3-0.3,2.8-0.2,4.1,0c0.6,0.1,1.3,0.6,1.8,1c0.3,0.2,0.4,0.7,0,1.1
		c0,0-0.1,0.1-0.1,0.1c-1.5,1.9-1.5,2,0.9,2.6c1.3,0.3,2.7,0.5,4,0.5c1.7,0.1,3.4,0,5,0c0.1,0,0.2,0,0.4,0c0.7,0,1.7,0,1.9,0.7
		c0.2,0.7-0.6,1.2-1.3,1.5c-0.2,0.1-0.3,0.1-0.5,0.2c0.2,0,0.3,0.1,0.5,0.1c1.6-0.1,3.2-0.3,4.8-0.3c1.8,0,3.7-0.4,5.5,0
		c0.5,0.1,1.1,0,1.6,0.1c1,0.2,2.1,0.4,3,1.2c0.7,0.6,1.5,1.1,2.2,1.7c1.1,1,1.2,1.9,0.7,3.1c-0.3,0.9-0.6,1.8-1.8,1.9
		c-0.3,0-0.5,0.4-0.8,0.6c-0.6,0.5-1.3,0.9-2.1,0.7c-0.3,0-0.6-0.1-0.9,0.1C64.8,26.1,62.8,25.8,60,25.9z"/>
	<path d="M15.3,15.4c-0.9,0-1.2-0.5-1.1-1.2c0.1-1.4,1.8-2.8,3.2-2.7c0.2,0,0.4,0,0.5,0.1c0.9,0.3,1.2,1.7,0.8,3
		c-0.4,1.2-1.2,1.5-2.4,1.2c0-0.2,0.2-0.4,0.4-0.5c0.5-0.3,0.9-0.6,1-1.2c-0.2,0.7-0.7,1-1.3,1.2C16.1,15.5,15.6,15,15.3,15.4z"/>
	<path d="M33.2,18.4c0-0.1,0-0.3,0.1-0.4c0.1-0.1,0.3-0.2,0.4-0.3c0,0,0.2,0.2,0.2,0.3c0,0.9,0.3,1.6,0.8,2.3c0.1,0.1,0,0.3-0.1,0.4
		c0,0.1-0.2,0-0.3,0C33.6,20.4,33.1,19.5,33.2,18.4z"/>
	<path d="M34.6,17.2c-0.1,0-0.3,0-0.3-0.1c-0.2-0.4-0.4-0.7-0.6-1.1c0,0,0.1-0.1,0.1-0.1c0.2,0.3,0.5,0.6,0.7,0.9
		C34.6,16.9,34.6,17.1,34.6,17.2L34.6,17.2z"/>
</g>
</svg>
