<?xml version="1.0" encoding="iso-8859-1"?>
<!-- Generator: Adobe Illustrator 25.3.0, SVG Export Plug-In . SVG Version: 6.00 Build 0)  -->
<svg version="1.1" id="Calque_1" xmlns="http://www.w3.org/2000/svg" xmlns:xlink="http://www.w3.org/1999/xlink" x="0px" y="0px"
	 viewBox="0 0 74.4 35.4" style="enable-background:new 0 0 74.4 35.4;" xml:space="preserve">
<g>
	<path d="M54.6,10.4c3,0.1,5.6-1,7.9-3c2.3-2.1,5.1-3.5,8.1-4.4c1.1-0.3,1.8,0.2,1.6,1.4c0,0.3-0.2,0.7-0.3,1C71,7.2,70,9,69.1,10.9
		c-0.6,1.2-0.6,1.4,0.5,2.1c1.8,1.2,3.2,2.7,4.4,4.3c0.2,0.3,0.4,0.6,0.4,1c0,0.2-0.2,0.6-0.4,0.7c-0.7,0.2-1.5,0.4-2.3,0.4
		c-3.3,0.2-6.5-0.4-9.6-1.6c-3-1.1-6.1-0.8-9.1,0.4c-0.2,0.1-0.3,0.3-0.5,0.4c0.2,0,0.4,0.1,0.6,0.1c0.8-0.2,1.5-0.3,2.2,0.3
		c1,0.8,1,1.7,0.1,2.6c-2.7,2.6-5.9,4.3-9.2,6c-2.4,1.2-4.9,2.1-7.4,2.9c-1.3,0.4-2.6,0.2-4-0.2C33,30,31.5,29.2,30.1,28
		c-0.8-0.7-2-0.4-3-0.3c-0.1,0-0.2,0.3-0.2,0.4c1.1,1,0.8,2.4,0.8,3.6c0,1,0.3,1.8,0.7,2.6c0.1,0.2,0.2,0.4,0.2,0.7
		c0,0.1-0.1,0.3-0.3,0.4c0,0-0.2,0-0.3-0.1c-0.6-0.6-1.1-1.2-1.7-1.8c-0.9-0.9-1.7-1.7-2.9-2.3c-1.2-0.6-1.8-1.9-2.4-3.1
		c-0.4-0.9-0.9-1.5-2.1-1.6c-0.8,0-1.6-0.5-2.3-0.9c-4-1.9-8-3.7-11.7-6.1c-1.4-0.9-2.7-2-4-3c-0.5-0.4-0.8-0.7-0.9-1.4
		c-0.2-1.1,0-1.5,1-1.8C1.9,13,2.8,13,3.6,12.8c1.4-0.4,2.7-0.9,4.1-1.3c4.4-1.3,8.8-2.6,13.2-3.8c1.9-0.5,3.9-0.9,5.9-1.1
		c0.8-0.1,1.1-0.5,1.5-1c1.1-1.5,2.2-3.1,3.3-4.6c0.4-0.5,0.8-1.2,1.5-0.3c0,0.1,0.5-0.3,0.8-0.4C34.2,0.1,34.5,0,34.7,0
		c0.4,0.1,0.8,0.2,1.1,0.5c0.3,0.4,0.5,0.9,0.7,1.4c0.9,2.1,0.7,2.5-1.2,3.5c-0.2,0.1-0.3,0.1-0.5,0.2c-0.1,0.1-0.1,0.2-0.2,0.3
		c0.1,0.1,0.1,0.2,0.2,0.2c1.2,0.1,2.2,0,3.1-0.9c0.8-0.8,1.7-1.5,2.6-2.2c1.8-1.2,3.7-1.3,5.8-0.4c2.8,1.2,5.5,2.5,8,4.2
		c0.2,0.2,0.5,0.3,0.7,0.5c0.3,0.3,0.7,0.6,0.7,1c0,0.3-0.5,0.5-0.8,0.9c-0.5,0.7-1.1,1.2-2,0.9c-0.2-0.1-0.5,0.2-0.8,0.3
		c0.3,0,0.6,0.1,0.9,0.1C53.6,10.4,54.1,10.4,54.6,10.4z"/>
	<path d="M21.7,18c-0.9-0.1-1.7-0.4-2.3-1.1c-0.4-0.4-0.8-0.9-1.2-1.3c-0.5-0.5-0.4-1.5,0.4-1.8c0.9-0.3,1.8-0.6,2.7-0.8
		c2-0.3,4-0.6,6-0.8c0.9-0.1,1.9,0.2,2.8,0.3c0.4,0.1,0.5,0.6,0.2,0.9c-0.1,0.1-0.3,0.2-0.4,0.3c-1.5,1-3,2-4.5,2.9
		C24.3,17.4,23.1,17.9,21.7,18z"/>
	<path d="M8.5,12.9c0.8,0,1.4,0.6,1.4,1.2c0,0.7-0.9,1.5-1.7,1.5c-0.7,0-1.5-0.9-1.4-1.5C6.9,13.4,7.6,12.9,8.5,12.9z"/>
</g>
</svg>
