<?xml version="1.0" encoding="iso-8859-1"?>
<!-- Generator: Adobe Illustrator 25.3.0, SVG Export Plug-In . SVG Version: 6.00 Build 0)  -->
<svg version="1.1" id="Calque_1" xmlns="http://www.w3.org/2000/svg" xmlns:xlink="http://www.w3.org/1999/xlink" x="0px" y="0px"
	 viewBox="0 0 65.7 53.6" style="enable-background:new 0 0 65.7 53.6;" xml:space="preserve">
<g>
	<path d="M39.5,53.6c-2.1-0.4-4.2-0.8-6.3-1.2c-2.7-0.5-5.1-1.4-7.6-2.4c-2-0.8-3.7-1.9-4.8-3.8c-1-1.6-2.3-3-4-4
		c-3.2-1.9-5.3-4.9-7.2-8c-2.3-3.8-4.3-7.8-6.4-11.7c-0.4-0.7-0.7-1.5-1-2.3c-0.4-1-0.9-1.9-1.4-2.9c-0.3-0.6-0.6-1.2-0.7-1.8
		c-0.2-1,0-1.3,1.1-1.3c0.7,0,0.6-0.3,0.7-0.7C2,12.8,1,12,1.7,11.4c0.5-0.5,1.3-0.6,1.8-1C4.8,9.4,6.4,9.5,7.8,9
		c0.4-0.2,1-0.2,1.4-0.4c3.3-1.8,6.9-2.4,10.6-2.9c0.8-0.1,1.6-0.1,2.3-0.4c0.6-0.2,1.1-0.8,1.4-1.3c0.8-1.3,1.9-2.5,3-3.5
		c0.7-0.7,1.3-0.7,1.8,0.1c1.4,2.3,3.7,2.8,6,3.3c2.7,0.6,5.4,1.5,7.9,2.6c1.1,0.5,2.2,1.1,3.4,1.6c2,0.9,3.4,2.6,5,4
		c0.3,0.3-0.1,1,0.7,1c0.7,0,1.2-0.2,1.6-0.7c1.4-1.6,2.7-3.3,4.1-4.9c1.3-1.5,2.6-3,3.8-4.4c0.8-1,2-1.5,3.2-2
		c0.3-0.1,0.6-0.1,0.9-0.2c0.7,0,1,0.3,0.9,1c-0.1,0.4-0.3,0.8-0.5,1.1c-1.6,2.8-3.2,5.5-4.9,8.3c-1.2,2-1.3,4-0.2,6.1
		c0.9,1.7,1.8,3.4,2.6,5.1c0.8,2,1.4,4,2.1,6c0.1,0.3-0.1,0.8-0.2,0.9c-0.2,0.1-0.6,0-0.9-0.2c-1.7-1.1-2.9-2.7-4.1-4.2
		c-1.9-2.4-3.8-4.8-5.7-7.3c-0.1-0.1-0.2-0.3-0.4-0.4c-0.2-0.1-0.4-0.1-0.6-0.1c-0.1,0-0.3,0.3-0.2,0.4c0.5,1.5-0.3,2.6-0.8,3.9
		c-1,2.2-2.2,4.4-3.7,6.3c-1.4,1.7-2.8,3.3-4.5,4.8c-2.1,1.8-4.3,3.5-6.7,5.1c-3.4,2.2-7,3.8-10.9,4.9c-1.2,0.4-2.6,0.4-3.9,0.5
		c-0.6,0.1-0.7,0.2-0.4,0.8c1.4,2.5,3.6,4.1,6.2,5.1c2.9,1.1,5.8,2,8.9,2.3c1.3,0.2,2.5,0.6,3.8,1c0.2,0.1,0.3,0.4,0.5,0.6
		c-0.2,0.1-0.4,0.2-0.6,0.2c-0.3,0-0.6,0-0.9,0C39.5,53.5,39.5,53.5,39.5,53.6z"/>
	<path d="M22,11.8c0.7-0.3,1.5-0.8,2.2-0.9c2.8-0.3,5.6-0.5,8.2,0.9l0,0c-1.2-0.1-2.5-0.3-3.7-0.3c-1.2,0-1.2,0-1.3,1.3
		c-0.2,1.7-0.4,3.4-0.7,5.1c-0.6,2.5-2.7,3.9-5.3,3.4c-0.3-0.1-0.6-0.1-0.9-0.1c-0.7-0.1-0.9-0.3-0.7-1.1c0.2-1,0-1.2-0.9-0.9
		c-1,0.2-0.8-0.4-0.9-0.9c0.2-0.3,0.3-0.5,0.5-0.8c0.5-0.6,1.1-1.2,1.6-1.9c1.4-1.6,3-2.9,4.9-3.8c0.1-0.1,0.3-0.2,0.4-0.3
		c-0.2,0-0.4-0.1-0.5-0.1C24,11.7,23,11.8,22,11.8C22.1,11.9,22,11.8,22,11.8z"/>
	<path d="M15.9,13c-0.7,0.4-1.2,0-1.8-0.2c-0.5-0.1-0.6,0-0.5,0.5c0.1,1.9-1,3-2.8,2.9c-1.1-0.1-1.8-0.7-2-1.8
		c0.5-0.3,1.1-0.3,1.7-0.3c0.4,0,0.8,0,1-0.5c0.1-0.3-0.1-0.4-0.3-0.6c-0.4-0.3-0.8,0-1.1,0.2c-0.5,0.3-0.8,0.8-1.3,1.2
		c-0.7-1.4-0.1-2.8,1.4-3.2c0.4-0.1,1-0.2,1.4,0C13.1,11.7,14.5,12.4,15.9,13L15.9,13z"/>
	<path d="M44,14.4c-1.7,0.2-3.3-0.4-4.9-0.7c-2-0.4-4-0.9-6.1-1.4c-0.2,0-0.4-0.2-0.6-0.3c0,0,0,0,0,0c1.1,0.1,2.1,0.2,3.2,0.4
		c2.7,0.6,5.3,1.2,8,1.8C43.8,14.1,43.9,14.3,44,14.4L44,14.4z"/>
	<path d="M52.5,15.5c-0.8,0-1.6,0-2.3,0c-0.2,0-0.3-0.1-0.5-0.2c0.2-0.1,0.4-0.2,0.6-0.2c1.4-0.1,2.9,0.1,4.3-0.3
		c0.3-0.1,0.6,0,0.9,0c0.2,0,0.3,0.2,0.4,0.2c-0.1,0.1-0.3,0.4-0.4,0.4C54.4,15.5,53.4,15.4,52.5,15.5
		C52.5,15.4,52.5,15.5,52.5,15.5z"/>
	<path d="M22.1,11.9c-1.1,0.6-2.2,1.3-3.3,1.9c-0.1,0.1-0.4,0-0.6,0c0.1-0.2,0.2-0.4,0.3-0.5c0.1-0.1,0.2-0.2,0.2-0.2
		c-0.2-0.2-0.2-0.3,0-0.4c0.5-0.1,1-0.3,1.5-0.4C20.9,12.1,21.5,12,22.1,11.9L22.1,11.9z"/>
	<path d="M44,14.4c1.5,0.1,3.1,0.2,4.6,0.4c0.1,0,0.1,0.1,0.2,0.2c-0.1,0.1-0.2,0.2-0.3,0.2c-0.1,0.1-0.2,0.2-0.3,0.1
		C46.8,15,45.3,15.2,44,14.4L44,14.4z"/>
	<path d="M18.8,12.6c0,0.1,0,0.3,0,0.4c-0.4,0.1-0.8,0.1-1.2,0.2c-0.6,0.1-1.2,0.4-1.6-0.3l0,0C16.9,12.8,17.9,12.7,18.8,12.6z"/>
	<path d="M11.1,12.6c0.5,0,1.2,0.5,1.2,1c0,0.7-0.7,1.4-1.3,1.4c-0.7,0-1.5-0.6-1.5-1.3C9.4,13.2,10.1,12.7,11.1,12.6z"/>
</g>
</svg>
