<?xml version="1.0" encoding="iso-8859-1"?>
<!-- Generator: Adobe Illustrator 25.3.0, SVG Export Plug-In . SVG Version: 6.00 Build 0)  -->
<svg version="1.1" id="Calque_1" xmlns="http://www.w3.org/2000/svg" xmlns:xlink="http://www.w3.org/1999/xlink" x="0px" y="0px"
	 viewBox="0 0 82.5 31.4" style="enable-background:new 0 0 82.5 31.4;" xml:space="preserve">
<g>
	<path d="M6.2,5.7c0.5-0.8,1.3-0.7,2.1-0.7c3.2,0,6.5,0.2,9.7-0.1c4.4-0.3,8.9,0,13.3-0.4c4.3-0.4,8.5-0.2,12.7-0.2
		c1.8,0,3.4-0.6,4.9-1.4c1.8-1,3.6-1.9,5.5-2.6c1.6-0.6,3.7,0.5,4.5,2c0.4,0.7,0.1,1.1-0.2,1.7c-0.2,0.4-0.3,0.7,0.3,0.7
		C63,5,67.2,5,71.3,4.8c1.3,0,2.6-0.5,3.8-0.9c1.7-0.6,3.5-1.3,5.2-2c0.2-0.1,0.5-0.2,0.7-0.2c0.4,0,0.8,0.1,1.1,0.3
		c0.1,0.1,0,0.7-0.2,1c-0.5,0.8-1,1.6-1.6,2.3c-1.3,1.3-1.1,1.1,0.1,2.3c0.6,0.6,1.1,1.4,1.5,2.2c0.1,0.2,0.2,0.7,0,0.9
		c-0.1,0.2-0.6,0.2-0.9,0.1c-1.9-0.5-3.8-1-5.6-1.7c-2.8-1-5.6-1.2-8.4-0.6c-0.5,0.1-1.1,0-1.6,0.1C63.9,8.7,62.4,8.8,61,9
		c-0.4,0-0.2,0.3-0.1,0.4c0.3,0.3,0.8,0.6,0.6,1.2c-0.2,0.5-0.4,1.1-0.8,1.5c-0.6,0.6-1.9,0.5-2.6-0.1c-0.3-0.3-0.7-0.5-0.9-0.9
		c-0.8-1.3-2.1-1.2-3.3-1.1c-1.1,0.1-2.2,0.2-3.4,0.3c-0.5,0.1-1,0.2-1.6,0.3c-0.4,0.1-0.5,0.2-0.2,0.5c0.8,1.2,1,2.5,0.2,3.8
		c-0.5,0.8-0.8,0.9-1.4,0.1c-0.6-0.9-1.2-1.9-1.8-2.9c-0.5-0.9-1.1-1.4-2.3-1.3c-1.5,0.1-3.1-0.1-4.7,0.1c-5.7,0.6-11.4,0-17,0.4
		c-3.4,0.2-6.7,0.2-10,0.3c-3.1,0-6-0.6-8.9-1.8c-0.5-0.2-1-0.5-1-1.1c0-0.7-0.1-1.5,0.7-1.8C3.7,6.6,4.9,6.1,6.2,5.7
		C6.5,6.1,6.3,6.6,6.3,7c0,0.7,0.4,1.3,1.2,1.3c0.7,0,1.3-0.6,1.3-1.3c0-0.8-0.6-1.1-1.4-1C6.9,6.2,6.5,6.1,6.2,5.7z"/>
	<path d="M68.2,24.2c1.3,0,2.5-0.1,3.8,0c2.4,0.1,4.7-0.2,7.1-0.8c0.7-0.2,1.5-0.3,2.3-0.4c0.3,0,0.7,0.2,0.9,0.4
		c0.1,0.2,0,0.6-0.1,1c-0.1,0.2-0.3,0.4-0.4,0.6c-0.5,0.4-0.5,0.7,0,1.1c0.4,0.4,1.1,0.8,0.8,1.4c-0.4,0.7-1.2,0.5-1.8,0.3
		c-4.2-0.9-8.5-0.8-12.7-0.6c-2.4,0.1-4.8,0.2-7.2,0.3c-0.8,0,0,0.3,0,0.4c-0.1,0.3-0.2,0.7-0.4,0.8c-1.3,0.7-2.7,0.9-3.9,0.2
		c-1.4-0.8-2.9-1.1-4.4-1.1c-1.8,0-3.6-0.1-5.4,0c-3.2,0.2-6.4,0.5-9.6,0.7c-0.2,0-0.5,0.1-0.7,0.2c-0.9,0.9-2,0.8-3.2,0.5
		c-1.1-0.3-2.3-0.3-3.5-0.4c-1.6-0.1-3.1,0-4.7,0c-2.9,0-5.8,0.4-8.7,0.6C13,29.8,9.9,30.5,6.6,31c-1.5,0.3-3.1,0.3-4.6,0.4
		c-1.6,0.1-2.5-1.3-1.7-2.7c0.5-1,1.3-1.6,2.2-2c2.4-1,4.8-1.7,7.3-2.2c1.7-0.3,3.4-0.4,5.1-0.8c0.9-0.2,1.6-0.7,2.5-1
		c0.7-0.2,1.4-0.7,2.1,0.1c0.1,0.1,0.3,0.2,0.5,0.1c3.4-0.6,6.8-0.2,10.2-0.2c2.1,0,4.3,0.3,6.4,0.3c1.1,0,2.3-0.1,3.4-0.4
		c0.7-0.2,1.3-0.8,1.9-1.3c1.2-0.8,2.4-1.6,3.9-1.5c0.3,0,0.6,0,0.9,0.1c1,0.3,1.2,0.9,0.5,1.7c-0.2,0.2-0.4,0.4-0.6,0.6
		c-0.1,0.2-0.2,0.4-0.3,0.6c0.2,0.1,0.3,0.1,0.5,0.2c2.3,0.1,4.6,0.2,7,0.4c2.1,0.2,4.3,0.4,6.4,0.7c0.5,0,1,0,1.4,0
		C63.8,24.2,66,24.2,68.2,24.2C68.2,24.2,68.2,24.2,68.2,24.2z"/>
	<path d="M77.7,6.2c-0.1,0.2-0.2,0.4-0.3,0.6C77.3,6.9,77.1,7,77,7c0-0.1,0-0.3,0-0.4c0-0.2,0.1-0.4,0.2-0.5
		c0.1-0.1,0.2-0.2,0.4-0.2C77.5,5.9,77.6,6.1,77.7,6.2z"/>
	<path d="M7.8,6.3c0.8,0,1.7,0.6,1.7,1.3c0,0.6-0.8,1.3-1.6,1.3C7,9,6.1,8.3,6.1,7.6C6.1,7,6.9,6.3,7.8,6.3z"/>
</g>
</svg>
