<?xml version="1.0" encoding="iso-8859-1"?>
<!-- Generator: Adobe Illustrator 25.3.0, SVG Export Plug-In . SVG Version: 6.00 Build 0)  -->
<svg version="1.1" id="Calque_1" xmlns="http://www.w3.org/2000/svg" xmlns:xlink="http://www.w3.org/1999/xlink" x="0px" y="0px"
	 viewBox="0 0 230.7 30.2" style="enable-background:new 0 0 230.7 30.2;" xml:space="preserve">
<g>
	<path d="M99.6,1.1c1.8,0.8,2.8,1.9,1.2,3.7c-0.4,0.4-1,0.6-1.6,0.9c0.5,0.1,0.9,0.3,1.4,0.3c6.3,0.4,12.5,0.7,18.8,1
		c3.9,0.2,7.5-0.9,11-2.5c2.7-1.2,5.4-2.5,8.2-3.6c1.2-0.5,2.6-0.8,3.8-0.8c3.8-0.1,5.2,1.6,3.9,5.2c-0.7,2,0.1,2.4,1.6,2.6
		c3.7,0.4,7.2-0.5,10.8-1.4c5.4-1.4,10.9-2.5,16.6-2.6c4.6,0,9.1-1.1,13.7-1.6c1.5-0.2,3-0.3,4.5-0.3c5.7,0,11.3,0.1,17-0.1
		c4.5-0.1,8.9-0.7,13.4-0.9c1.3-0.1,2.7,0,4,0.3c2.2,0.6,3,1.9,2.7,4c-0.3,2-1.6,2.8-3.5,2.8c-0.2,0-0.3,0-0.5,0
		c-7.4-1.7-13.8,2.3-20.6,4c-5.8,1.4-11.4,3.2-17.1,5.1c-2.8,1-5.6,2.2-8,4c-5.3,3.9-10.4,3.4-15.7,0.2c-2.5-1.5-5.3-2.7-8-3.9
		c-0.4-0.2-1.3,0.1-1.6,0.5c-4.6,6.7-7.3,7.7-14.8,5.2c-1.2-0.4-2.3-1.1-3.5-1.6c-1.4-0.6-2.7-1.2-4.1-1.4c-1.4-0.2-3.5-0.7-3.4,2
		c-3.2,3.2-6.3,6.4-11.1,7c-3.5,0.4-6.7-0.6-9-3.3c-2.4-2.8-5-3.1-8.4-2.3c-4,0.9-8.2,1.1-12.3,1.5c-1.7,0.2-3,0-3.7,2.3
		c-1.2,3.5-4.5,2.8-7.3,2.6c-1.1-0.1-2.5-0.5-3.2-1.3c-5-5.5-11.5-3.1-17.4-3.3c-2.4-0.1-4.9,0.8-7.3,0.7c-5.7-0.2-11.2,1-16.7,1.6
		c-0.5,0.1-1,0.4-1.4,0.3c-5.1-1.2-10.3-2.4-15.4-3.8c-0.6-0.2-1.1-0.9-1.6-1.4c0.7-0.3,1.4-0.7,2.2-0.8c1.7-0.1,3.3,0,5-0.1
		c0.6,0,1.3-0.5,1.9-0.7c-0.7-0.3-1.4-0.9-2.1-0.9c-2.5-0.1-5,0.1-7.5,0.1c-0.6,0-1.6-0.1-1.7-0.3c-0.1-0.8-0.2-2,0.3-2.3
		c1.2-0.8,2.6-1.3,4-1.6c1.3-0.3,2.6-0.1,3.9-0.3c0.4-0.1,0.7-0.6,1-1c-0.3-0.2-0.7-0.6-1-0.6c-5.1-0.4-10.2-0.7-15.4-1
		c-2-0.1-4,0-5.6-1.6c1.2-2.5,3.4-1.3,5.2-1.6C11.1,9.3,17,8.6,22.9,7.8c2.5-0.3,4.9-0.5,7.4-0.8c2.6-0.2,5.3-0.5,7.9-0.6
		c0.8-0.1,1.6,0.1,2.4,0.2c3.9,0.6,7.8,0.5,11.8-0.2c4.2-0.8,8.6-0.2,12.9-0.5C71.2,5.5,77.1,5,83,4c2.7-0.4,5.2-1.9,7.7-3.1
		c2.7-1.2,5.5-1.1,8.3-0.6C99.2,0.4,99.4,0.9,99.6,1.1c-1.7,2-4.4,1.7-6.4,2.8c-0.3,0.2-0.6,0.2-0.9,0.4c0.3-0.2,0.8-0.3,1-0.4
		C95.2,2.7,98,3.1,99.6,1.1z"/>
	<path d="M54.6,15.1c-0.3,1.4-0.6,2.8-1,4.1c-0.2,0.6-0.6,1-0.9,1.6c-0.4-0.4-1-0.7-1.2-1.2c-1-2.1-1.2,0-1.7,0.3
		c-0.5,0.3-1,0.6-1.5,0.9c-0.2-0.6-0.6-1.2-0.5-1.7c0.1-1,0.5-1.9,0.7-2.9c0.6-3.2,0.6-2.9,4-3.6C55.4,12,54.3,13.9,54.6,15.1
		L54.6,15.1z"/>
	<path d="M54.6,15.2c0.3-0.4,0.5-0.8,0.8-1.1c0.5-0.5,1-1.1,1.5-1.6c0.2,0.7,0.5,1.4,0.7,2.2c0.1,0.3-0.1,0.6-0.2,1
		c-0.6,1.4-1.1,2.9-1.7,4.3C53.5,18.7,54.9,16.7,54.6,15.2L54.6,15.2z"/>
	<path d="M38.1,10.8c-0.3,0.6-0.5,1.5-0.9,1.7c-1,0.3-2.1,0.4-3.2,0.3c-0.4,0-0.8-0.9-1-1.4c-0.1-0.3,0.5-0.9,0.9-1
		c1.1-0.2,2.2-0.2,3.4-0.2C37.6,10.2,37.9,10.5,38.1,10.8z"/>
</g>
</svg>
