<?xml version="1.0" encoding="iso-8859-1"?>
<!-- Generator: Adobe Illustrator 25.3.0, SVG Export Plug-In . SVG Version: 6.00 Build 0)  -->
<svg version="1.1" id="Calque_1" xmlns="http://www.w3.org/2000/svg" xmlns:xlink="http://www.w3.org/1999/xlink" x="0px" y="0px"
	 viewBox="0 0 236.6 166.2" style="enable-background:new 0 0 236.6 166.2;" xml:space="preserve">
<g>
	<path d="M93.4,156.1c3.5,0,7,0.2,10.5,0c7.2-0.4,12-5.3,12.3-12.5c0-0.2-0.3-0.6-0.6-0.7c-0.1-0.1-0.6,0.2-0.7,0.4
		c-0.3,0.7-0.5,1.6-0.9,2.3c-1.3,2.2-2.9,2.4-4.8,0.6c-0.5-0.5-0.7-1.1-1.1-1.6c-0.7-0.8-1.4-1.5-2.4-0.2c-1.3,1.8-2.6,1-3.7-0.2
		c-2.3-2.6-4.6-5.3-6.8-7.9c-10-12-20.9-22.9-35-29.9c-6.6-3.3-13.8-5.7-21-7.7c-9.2-2.6-18.7-4.4-28-6.5C8.1,91.3,5,90.7,2,89.8
		c-2.4-0.7-2.4-1.4-1.2-3.5c2.1-3.8,5.8-5.9,9.1-8.4c9.2-6.8,19.6-11.2,29.9-15.7c9.9-4.3,19.9-8.3,28.5-15c2.7-2.1,5.9-3.7,8.9-5.4
		c3-1.6,4.5-3.8,4.7-7.4c0.1-3,0.3-6.4,2.7-8.8c1.1-1.1,0.3-1.9-0.1-3.1c-2.2-5.3-4.5-10.7-6.3-16.2c-1.3-4,0.9-6.4,5-6.4
		c6.3,0.1,13.9,7.1,14.2,13.3c0.1,2.2-0.6,4.6-1.3,6.8c-1.3,4.1,0.4,6.7,4.6,8.6c1,0.5,2.2,0.7,3.4,0.7c7.2,0.5,14.3,2.6,21.7,0.9
		c3.4-0.8,7-0.5,10.3-1.2c5.1-1,7.1-4.6,6-9.6c-0.1-0.5-0.4-0.9-0.5-1.4c-1.1-3.6-1.6-7.1,0.8-10.5c2.9-4.1,6.8-6.8,11.8-7.5
		c3.1-0.5,5.1,1.3,5.4,4.4c0.4,3.4-0.6,6.6-2.1,9.6c-1.3,2.7-2.5,5.4-4,8c-1,1.8-1.3,3.5,0.1,5.1c2,2.2,2.3,4.8,1.9,7.5
		c-0.4,3.3,0.9,5.2,3.7,6.8c8.7,5.1,17.2,10.7,26.1,15.6c5.5,3,11.5,5.2,17.2,7.8c10,4.6,19.7,9.5,28.3,16.4
		c1.8,1.4,3.4,3.2,4.7,5.1c1.3,1.9,0.9,2.9-1.3,3.8c-1,0.5-2.2,0.7-3.3,1c-11,2.3-22.1,4.4-33,7c-12,2.9-23.5,7.5-33.1,15.5
		c-5.6,4.6-10.6,10-15.8,15.2c-2.1,2.1-4.2,4.3-6.2,6.5c-1.9,2.2-3.6,4.7-5.5,7c-0.8,1-1.7,2.1-2.8,2.7c-0.7,0.4-2.1,0.5-2.6,0.1
		c-1.7-1.6-2.9-0.6-4.4,0.4c-3.2,2.2-3.9,2.2-5.3-1.7c-0.1-0.3-0.4-0.6-0.6-1c-0.2,0.3-0.4,0.5-0.5,0.8c-0.6,1.7-1.1,3.5-1.8,5.2
		c-2.4,6-6.1,9.7-13,10.6c-6.8,0.9-13.6,0.8-20.4,0.6c-7.4-0.2-14.1,1.8-20.7,4.7c-1.4,0.6-2.6,2.3-4.4,0.9c1.1-1,2-2.1,3.3-2.8
		c4.9-2.8,9.7-5.8,15.5-6.2c4.5-0.4,8.9-0.5,13.4-0.7C93.4,156,93.4,156,93.4,156.1z"/>
	<path d="M156.6,43.1c-0.1,0.5-0.2,1.3-0.3,1.3c-3.3,0.1-5.6,2.2-8,4.1c-0.3,0.2-1.4,0-1.5-0.2c-0.8-2.3-1.5-4.7-2.2-7.1
		c-0.1-0.4,0.2-0.9,0.3-1.4c0.5,0.3,1.3,0.5,1.4,0.9c0.5,1.7,1.5-0.1,2,0.3c0.5,0.5,0.7,1.6,1.2,2c2.1,1.4,4.1,0.2,6-0.8
		C156,42.5,156.3,42.8,156.6,43.1z"/>
</g>
</svg>
