<?xml version="1.0" encoding="iso-8859-1"?>
<!-- Generator: Adobe Illustrator 25.3.0, SVG Export Plug-In . SVG Version: 6.00 Build 0)  -->
<svg version="1.1" id="Calque_1" xmlns="http://www.w3.org/2000/svg" xmlns:xlink="http://www.w3.org/1999/xlink" x="0px" y="0px"
	 viewBox="0 0 71.9 38.6" style="enable-background:new 0 0 71.9 38.6;" xml:space="preserve">
<g>
	<path d="M49.1,18.9c0,0.1,0,0.3-0.1,0.4c-0.2,0.5,0.1,0.5,0.4,0.5c0.6-0.1,1.2-0.2,1.7-0.5c1.4-0.9,2.7-1.9,4.1-2.8
		c1.8-1.3,3.6-2.6,5.3-3.9c2.4-1.8,5.1-2.8,7.9-3.7c1.1-0.3,2.3-0.1,3.3,0.3c0.1,0,0.2,0.2,0.2,0.2c0,0.1-0.1,0.2-0.2,0.3
		c-0.2,0.1-0.4,0.2-0.7,0.2c-1.9,0.2-3.3,1.3-4.4,2.7c-1.6,1.8-3.1,3.6-4.6,5.4c-0.6,0.7-1.2,1.4-1.7,2.1c-0.8,1.2-0.6,2,0.6,2.8
		c2.2,1.4,4.1,3.3,5.9,5.1c1,1,1.9,2.1,2.8,3.2c0.2,0.2,0.3,0.6,0.2,0.8c-0.1,0.2-0.5,0.4-0.7,0.3c-0.9-0.1-1.8-0.2-2.6-0.3
		c-1.7-0.3-3.4-0.7-5-1.4c-1.9-0.9-4-1.6-5.9-2.5c-1.1-0.5-2.1-1.1-3.1-1.7c-0.8-0.5-3.5-0.6-4.1,0c0,0,0.1,0.2,0.1,0.3
		c0.9,1.8,1.8,3.6,2.7,5.4c0.3,0.7,0.6,1.4,0.9,2.1c0.2,0.5,0,0.8-0.6,0.8c-0.5,0-0.9-0.2-1.4-0.3c-2-0.8-4-1.6-6-2.4
		c-0.9-0.4-1.8-1-2.6-1.5c-0.8-0.5-1.6-0.8-2.5-0.7c-1.8,0.2-3.5,0.5-5.3,0.7c-0.1,0-0.2,0-0.3,0.1c0.1,0.1,0.2,0.2,0.3,0.2
		c2.1,0.8,2.2,3.1,3.3,4.7c0.1,0.2,0,0.6-0.1,0.8c-0.2,0.3-0.6,0.3-0.9,0.1c-2-1.2-3.9-2.5-5.6-4.1c-0.7-0.7-1.4-1-2.4-1
		c-2.5,0.1-5,0-7.6,0c-0.4,0-0.8,0.1-1.1-0.1c-1.9-1.1-4-0.2-6-0.9c-2.1,0.5-4.1-0.4-6.1-0.7c-0.8-0.1-0.5,0.1-0.3,0.6
		c0.2,0.5-0.6,1-0.2,1.6c-0.2,0-0.4,0.1-0.6,0.1c-0.2,0-0.4,0-0.6,0c0.1,0.2,0.1,0.4,0.2,0.6c1.2,1.7,2.4,3.4,3.6,5.1
		c0.1,0.1,0.1,0.3,0.1,0.4c-0.2,0-0.4,0-0.5-0.1C8.1,37,7,36.2,6.2,35c-0.5-0.8-1.4-1.5-2.1-2.2c-0.1-0.1-0.2-0.2-0.4-0.3
		c0,0.2-0.1,0.4-0.1,0.5c0.5,1.3,1.1,2.6,1.7,3.9c0.2,0.5,0.5,1,0.7,1.5c-0.9,0.2-1-0.6-1.4-1.1c-0.2-0.3-0.4-0.6-0.5-0.9
		c-0.8-1.8-1.5-3.6-2.3-5.3c-0.3-0.7-0.7-1.4-1.1-2c-1.1-1.5-0.7-2.6,0.2-3.6c1.3-1.5,2.9-2.8,4.6-3.9c1.8-1.1,3.6-2.1,5.5-2.9
		c1.3-0.6,2.4-1.5,3.7-2.2c0.7-0.4,1.4-0.9,2.1-1.3c1.8-0.9,3-2.3,3.8-4.1c1.3-2.8,2.9-5.5,4.8-7.9c0.9-1.2,2.1-2.2,3.1-3.2
		C28.5,0,28.6,0,28.7,0c0.1,0,0.2,0.2,0.1,0.3c-0.6,1.1,0.1,2,0.4,3c1,2.7,2,5.3,2.9,8c0.5,1.6,0.5,1.6-0.9,2.6
		c-0.1,0.1-0.2,0.2-0.4,0.4c0.2,0.1,0.4,0.2,0.6,0.2c0.9-0.1,1.9-0.1,2.8-0.4c2.6-0.7,5.2-0.7,7.8-0.6c2.3,0.1,4.3,0.9,5.9,2.7
		C48.7,16.8,49.1,17.9,49.1,18.9z"/>
	<path d="M6.6,21.9c0.4-0.1,0.8-0.1,1.2-0.2c0.7-0.1,1.1,0.1,1.2,0.7c0.2,0.8-0.1,1.6-0.9,2.2c-0.5,0.4-1.8,0.5-2.2,0.1
		c-0.3-0.2-0.5-0.7-0.4-1.1c0.1-0.4,0.4-0.8,0.6-1.2C6.3,22.2,6.5,22.1,6.6,21.9z"/>
	<path d="M21,12c0.6-0.4,1.2-0.7,1.8-1.1c0,0.7-0.1,1.3-0.7,1.8c-0.1,0-0.2,0-0.3,0C21.5,12.5,21.2,12.2,21,12z"/>
	<path d="M15.9,23.1c0.3-0.8,0.1-1.5-0.3-2.2c-1-1.7-0.2-3.2,1.8-3.5c-2.2,1.8-2.3,2-0.8,4.3c0.2,0.4,0.3,0.7,0.8,0.8
		c0.3,0,0.6,0.2,0.8,0.4c0.5,0.4,1,0.8,1.5,1.2c-0.8,0.4-1.2-0.4-1.7-0.7C17.3,22.9,16.7,22.4,15.9,23.1z"/>
	<path d="M36.4,21.9c0.2,0.1,0.4,0.3,0.7,0.4c-0.1,0.1-0.2,0.3-0.3,0.3c-0.3-0.1-0.6-0.3-0.8-0.4C36.1,22.1,36.2,22,36.4,21.9z"/>
	<path d="M19.3,26.1c0,0.1,0,0.1,0,0.1c-0.4,0.2-0.8,0.5-1.2,0.7c0,0-0.1-0.1-0.2-0.2c0.4-0.3,0.9-0.5,1.3-0.8
		C19.2,26,19.3,26,19.3,26.1z"/>
	<path d="M22.3,19.8c0.2,0.2,0.4,0.4,0.6,0.5c-0.1,0.1-0.3,0.2-0.4,0.2c-0.2-0.1-0.4-0.3-0.7-0.4C22,20,22.1,19.9,22.3,19.8z"/>
</g>
</svg>
