<?xml version="1.0" encoding="iso-8859-1"?>
<!-- Generator: Adobe Illustrator 25.3.0, SVG Export Plug-In . SVG Version: 6.00 Build 0)  -->
<svg version="1.1" id="Calque_1" xmlns="http://www.w3.org/2000/svg" xmlns:xlink="http://www.w3.org/1999/xlink" x="0px" y="0px"
	 viewBox="0 0 43 63" style="enable-background:new 0 0 43 63;" xml:space="preserve">
<g>
	<path d="M43,28.3c0,1.6,0,2.9,0,4.2c0,0.6-0.1,1.1-0.6,1.6c-0.3,0.3-0.5,0.8-0.6,1.2c-0.1,0.3-0.2,0.7-0.3,1
		c-0.7,1.3-2,2.1-2.2,3.7c-1.1,0.9-2.2,1.9-3.4,2.5c-0.7,0.4-0.8,0.7-0.8,1.3c0,1.4-0.1,2.9,0,4.3c0.2,2.3-0.5,4.3-1.3,6.4
		c-1,2.4-2,4.8-3,7.2c0,0.1,0,0.3-0.1,0.3c-0.3,0.3-0.6,0.9-1,0.9c-0.3,0-0.8-0.4-1.1-0.8c-0.3-0.5-0.4-1.1-0.5-1.7
		c-0.5-1.5-0.6-3.1-0.7-4.7c-0.1-2.6-0.4-5.2-0.7-7.8c-0.1-0.8-0.2-1.6-0.3-2.4c-0.1-0.8-0.6-1.2-1.3-1.3c-0.8-0.2-1.6-0.2-2.4-0.2
		c-2.4,0.1-4.9,0.4-7.3,0.4c-3.6,0-6.7-1.1-9.3-3.8c-1.5-1.5-2.8-3.1-3.6-5c-0.3-0.7-0.9-1.4-1.3-2.1c-0.5-0.8-1.3-1.6-0.8-2.7
		c0-0.1,0-0.3,0-0.4c-0.8-1.5,0.1-2.1,1.2-2.8c0.6-0.4,1-1,1.6-1.5c2.2-1.9,4.4-3.8,6.7-5.6c2.1-1.6,4.6-2.4,7.4-2.3
		c1.3,0,2.6,0,4,0c2.1,0,2.7-0.5,3.4-2.5c0.9-2.6,1.4-5.4,1.8-8.1c0.3-2.2,0.7-4.3,1.1-6.4c0.1-0.4,0.4-0.7,0.7-1
		c0.4-0.4,0.8-0.4,1.2,0.2c0.6,1,1.1,2.1,1.4,3.2c0.6,2.4,1.2,4.8,1.7,7.2c0.5,2.4,1.3,4.8,1.3,7.3c0,0.9,0.2,1,1.2,0.9
		c0.5,0,1-0.1,1.4,0.2c1.3,0.9,2.7,1.7,3.5,3.1c0,0,0,0.2,0,0.2c1.7,0.7,1.7,2.5,2.6,3.8C43,27.4,43,27.6,43,28.3z"/>
	<path d="M13,30.5c0.2-0.5,0.5-0.9,0.7-1.4c0.4-0.7,0.8-1.5,1.2-2.2c0.5-0.8,1.4-1,2.2-0.8c0.8,0.2,1.2,0.8,1.3,1.7
		c0.1,1,0.3,2,0.3,3c0,1.3-0.9,2.2-2.2,2.4c-0.1,0-0.2-0.1-0.3-0.1c-0.1-0.1-0.1-0.2,0-0.3c0.1-0.1,0.2-0.3,0.4-0.4
		c1.5-0.6,1.4-1.7,1.3-3c-0.1-0.5-0.2-1-0.3-1.6c-0.2-1-1.1-1.3-1.9-0.6c-0.4,0.4-0.6,0.9-0.9,1.3c-0.4,0.8-0.8,1.6-1.2,2.4
		c-0.1,0.1-0.4,0.2-0.4,0.2C13.1,30.9,13.1,30.7,13,30.5L13,30.5z"/>
	<path d="M5.6,28.9c0.6,0,1.3,0.5,1.4,1.1c0.1,0.6-0.4,1.3-1.1,1.4c-0.6,0.1-1.3-0.5-1.4-1.1C4.4,29.7,5,28.9,5.6,28.9z"/>
	<path d="M13,30.5c-0.2,0.2-0.3,0.5-0.5,0.7c-0.3,0.2-0.8,0.4-1.1,0.3c-0.5-0.1-0.6-0.7-0.5-1.2c0-0.2,0.1-0.3,0.2-0.5
		c0.5-0.8,1.1-0.9,1.7-0.1C12.9,29.9,12.9,30.2,13,30.5L13,30.5z"/>
	<path d="M16.1,32.9c-0.3,0.2-0.5,0.5-0.6,0.4c-0.9-0.2-1.8-0.4-2.7-0.6c-0.1,0-0.2-0.2-0.2-0.2c0.1-0.1,0.2-0.2,0.2-0.2
		c0.9,0,1.8,0,2.6,0C15.6,32.3,15.8,32.6,16.1,32.9z"/>
	<path d="M1.9,29.7c0.3-0.1,0.5-0.2,0.7-0.2c0.1,0.3,0.2,0.5,0.2,0.8c0,0.1-0.1,0.3-0.1,0.4C2.5,30.5,2.3,30.3,1.9,29.7z"/>
</g>
</svg>
