<?xml version="1.0" encoding="iso-8859-1"?>
<!-- Generator: Adobe Illustrator 25.3.0, SVG Export Plug-In . SVG Version: 6.00 Build 0)  -->
<svg version="1.1" id="Calque_1" xmlns="http://www.w3.org/2000/svg" xmlns:xlink="http://www.w3.org/1999/xlink" x="0px" y="0px"
	 viewBox="0 0 72.8 39.6" style="enable-background:new 0 0 72.8 39.6;" xml:space="preserve">
<g>
	<path d="M0,21c0-0.6,0.4-1.4,1.1-2c1.8-1.5,3.9-2.6,6-3.6c2.1-1,4.1-2.2,5.9-3.6c0.4-0.3,0.8-0.9,0.8-1.3c-0.1-0.7,0.2-1.2,0.3-1.9
		c0.3-1.4,0.6-2.8,0.8-4.1c0.3-1.5,1-2.8,1.7-4c0.1-0.2,0.2-0.3,0.4-0.4c0.1-0.1,0.3,0,0.5,0c0.1,0,0.1,0.2,0.1,0.3
		c0,0.1-0.1,0.2-0.1,0.3c-0.9,1.7-1.2,3.6-1.6,5.5C15.7,7,16,8,16.2,8.9c0.2,0.6,1.5,1.1,2.5,0.9c2.3-0.3,4.7-0.6,7-1
		c1.3-0.2,2.5-0.6,3.8-0.9c0.3-0.1,0.6-0.2,0.8-0.2c0.7,0.1,1-0.1,1.3-0.7c1-2.2,2.8-3.6,4.9-4.7c0.7-0.3,1.4-0.5,2.1-0.2
		c1.3,0.6,2.6,1.2,3.8,1.9c1.2,0.7,2.3,1.7,3.6,2.4c1.6,0.9,2.9,2,4.2,3.2c1.2,1,2.3,2.2,3.4,3.4c0.8,0.9,1.3,1.9,0.6,3.1
		c-0.3,0.6,0,0.7,0.5,0.8c0.1,0,0.2,0,0.4,0c1.5-0.3,3.2-0.3,4.5-1.2c1.9-1.3,3.6-2.7,5.5-3.9c1.5-0.9,3.1-1.7,4.6-2.5
		c0.2-0.1,0.6-0.1,0.8,0.1c0.8,0.6,0.6,1.9,1.5,2.4c-0.4,0.3-0.4,0.6-0.3,1.1c0.4,1.4,0.7,2.8,1,4.2c0.1,0.7-0.1,1.4-0.1,2.1
		c0.1,2.9-0.1,5.8-0.9,8.6c-0.1,0.3,0.1,0.6,0,0.9c-0.3,1.5-1.3,2-2.7,1.5c-0.5-0.2-1-0.6-1.6-0.8c-2.8-0.9-5.1-2.6-7.4-4.4
		c-1.5-1.1-3.3-1.1-5-0.9c-0.3,0-0.7,0.3-1,0.4c0.2,0.2,0.4,0.5,0.6,0.7c0.4,0.5,0.5,0.9,0.2,1.5c-0.2,0.5-0.4,1-0.8,1.4
		c-1.4,1.2-2.2,3-3.7,4c-0.2,0.1-0.5,0.2-0.6,0.4c-0.6,1.5-2.3,2.1-3.2,3.3c-0.3,0.4-0.8,0.7-1.3,0.9c-1.4,0.6-2.8,1.2-4.1,1.8
		c-1.1,0.5-2.2,0.5-3.3,0c-1.1-0.5-2.1-1.2-2.8-2.4c-1-1.9-1.9-2.4-4-1.8c-1.6,0.4-3.1,1.2-3.9,2.8c-0.2,0.5-0.5,0.8-0.2,1.3
		c0.3,0.5,0,0.7-0.5,0.9c-1.1,0.5-2.2,0.2-3.1-0.2c-1.6-0.6-3.3-0.9-4.9-1.6c-2.8-1.3-5.3-3.1-7.7-5.1c-0.6-0.5-1.3-0.9-1.9-1.4
		c-1.3-1.1-2.9-1.8-4-3.2c-1.1-1.5-2.5-2.8-3.9-4.2C0.4,22.9,0,22.3,0,21z"/>
	<path d="M51.8,22.4c-3.5,0.1-6.8-0.8-10.1-2.1c-0.4-0.2-0.7-0.4-1-0.7c-2.1-1.6-4.4-3-7-3.8c-2.9-0.8-5.9-1.1-9-0.6
		c-1.3,0.2-2.6,0.2-3.8,0.7c-0.1,0-0.4-0.1-0.4-0.2c0-0.1,0-0.4,0.1-0.5c0.7-0.3,1.4-0.6,2.2-0.7c1.8-0.2,3.7-0.4,5.5-0.4
		c4.3,0,8.2,1.3,11.7,3.9c1.4,1,2.8,1.7,4.4,2.3c3,1,6,1.6,9.1,1.3c1-0.1,2-0.3,3-0.4c0.2,0,0.4,0.1,0.6,0.1
		c-0.2,0.2-0.3,0.6-0.5,0.6c-1.3,0.2-2.6,0.3-3.9,0.4C52.4,22.5,52.1,22.4,51.8,22.4z"/>
	<path d="M15,13.5c1.5,0,2.1,0.6,2.2,1.9c0,1.2-0.9,2-2.2,2c-1.9,0.1-2.9-1.3-2.1-3C13.2,13.7,13.8,13.5,15,13.5z"/>
	<path d="M21.8,22.7c-0.1,0.2-0.2,0.9-0.5,1.4c-0.7,1-1.6,1.9-2.4,2.9c-0.3,0.4-0.7,0.5-1.3,0.2c-0.4-0.2-0.8-0.3-1.2-0.5
		c-0.6-0.2-0.8-0.5-0.5-1c0.3-0.6,0.3-1.2-0.1-1.8c-0.3-0.5-0.2-0.9,0.2-1.3c1.2-1,2.4-1.9,3.7-2.8c0.5-0.3,0.9-0.1,1.3,0.3
		C21.6,20.5,21.8,21.3,21.8,22.7z"/>
	<path d="M13.9,23.9c-0.1-0.3-0.3-0.5-0.3-0.6c0.5-1.2,0.9-2.4,1.5-3.6c0.2-0.3,0.6-0.6,0.9-0.8c0,0,0.2,0,0.3,0.1
		c0.1,0.1,0.1,0.3,0.1,0.3c-1.1,1-1.1,2.6-1.7,3.8C14.5,23.4,14.2,23.6,13.9,23.9z"/>
</g>
</svg>
