<?xml version="1.0" encoding="iso-8859-1"?>
<!-- Generator: Adobe Illustrator 25.3.0, SVG Export Plug-In . SVG Version: 6.00 Build 0)  -->
<svg version="1.1" id="Calque_1" xmlns="http://www.w3.org/2000/svg" xmlns:xlink="http://www.w3.org/1999/xlink" x="0px" y="0px"
	 viewBox="0 0 62.5 45.5" style="enable-background:new 0 0 62.5 45.5;" xml:space="preserve">
<g>
	<path d="M51.8,17.8c1-0.3,2-0.7,3-1c1.2-0.5,2.4-1,3.7-1.4c1.5-0.5,2.2-0.1,2.9,1.3c0.7,1.3,0.9,2.6-0.2,3.8
		c-0.4,0.5-0.4,0.9-0.1,1.5c0.2,0.4,0.5,0.8,0.6,1.3c0.2,0.5,0.5,1.1,0.6,1.7c0.4,1.8-0.3,2.8-2.2,2.6c-1.6-0.2-3.2-0.6-4.7-1
		c-2.2-0.7-4.4-0.8-6.7-0.7c-0.2,0-0.3,0.1-0.5,0.2c0.1,0.1,0.3,0.3,0.5,0.4c1.2,0.3,2.4,0.6,3.5,1.2c2.8,1.5,2.3,4.9,0.4,6.6
		c-0.2,0.2-0.5,0.3-0.7,0.5c-1.7,1.5-1.7,1.4-3.6,0.5c-0.9-0.4-1.9-0.7-2.8-1.2c-0.9-0.4-1.6-0.2-2.3,0.3c-0.8,0.7-1.6,1.4-2.8,1.4
		c-0.2,0-0.4,0.2-0.5,0.4c-0.6,0.9-1.6,1-2.6,1c-1,0-1.9,0-2.7,0.7c-0.4,0.4-1,0.3-1.5,0.2c-0.6-0.1-1.2-0.2-1.7-0.1
		c-1.4,0.4-2.7,0.3-4-0.2c-2.1-0.8-2.6-0.1-2.6,1.9c0.1,1.9,0.5,3.6,1.3,5.3c0.1,0.1,0,0.3,0,0.5c-0.1-0.1-0.4-0.1-0.4-0.2
		c-1.4-2.2-2.7-4.4-3.3-6.9c-0.2-0.9-0.7-1.3-1.5-1.5c-0.2-0.1-0.5-0.1-0.7-0.1c-1.2-0.2-2.5-0.4-3.7-0.7c-1.4-0.3-2.9-0.8-4.3-1
		c-2.3-0.3-4.4-1.3-6.7-1.9c-0.7-0.2-1.5-0.5-2.2-0.6c-1-0.1-1.5-0.7-1.9-1.5c-0.4-0.7-0.7-1.4,0.1-2.1c0.4-0.3,0-0.5-0.2-0.7
		c-0.8-0.6-1.1-1.4-0.6-2.3c0.2-0.4,0.3-0.8,0-1.3c-1.4-2.6-0.4-4.9,1.1-7.1c1-1.5,2.4-2.5,3.7-3.6c1.6-1.3,3.3-2.4,5-3.7
		c0.2-0.1,0.4-0.4,0.6-0.4c1,0.1,1.7-0.8,2.6-1c2-0.3,3.7-1.3,5.7-1.5c0.1,0,0.3,0,0.3-0.1c0.6-0.8,1.6-0.7,2.4-1
		c1.2-0.4,1.1-0.1,1.1-1.4c0.1-1.3,0.3-2.6,0.5-3.9c0-0.1,0.2-0.2,0.4-0.4c0.1,0.2,0.3,0.3,0.4,0.5c0.1,1.1,0.2,2.1,0.3,3.2
		c0,0.2,0.2,0.4,0.2,0.6c0.1-0.1,0.3-0.2,0.4-0.4c1.1-1.6,2.5-2.9,4.1-3.9c0.3-0.2,0.6-0.3,1-0.4c0.1,0,0.2,0,0.3,0.1
		c0.1,0.1,0.1,0.3,0.1,0.3c-0.2,0.3-0.4,0.6-0.7,0.8c-0.7,0.8-1.3,1.5-1.9,2.3c-0.1,0.2,0,0.5-0.1,0.8c0.3-0.1,0.6-0.1,0.7-0.3
		c1.7-1.7,3.9-2.7,5.8-4.2c0.2-0.1,0.4-0.2,0.6-0.3c0.1,0,0.4,0,0.4,0.1c0.1,0.1,0,0.4-0.1,0.4c-0.4,0.3-0.8,0.6-1.2,0.8
		c-1.9,1.3-3.4,2.9-4.7,4.8c-0.1,0.2-0.1,0.4-0.2,0.6c0.2,0,0.4-0.1,0.6-0.2c1-0.3,1.9-0.7,2.9-1c0.2-0.1,0.5,0.1,0.6,0.2
		c0.1,0,0,0.4-0.1,0.5c-0.3,0.4-0.6,0.7-0.9,1.1c0,0.1,0,0.2-0.1,0.2c0.1,0,0.3,0.1,0.3,0c0.3-0.1,0.5-0.4,0.8-0.5
		c0.3-0.1,0.8-0.3,1-0.1c1,0.9,2.3,0.7,3.5,1.1c0.1,0,0.1,0.1,0.2,0.1c2.7,1.2,5.6,1.1,8.4,0.6c2.1-0.4,5.4,1.3,6.4,3.2
		c0.8,1.5,0.5,3.6-0.6,4.8C52.4,17.2,52.1,17.5,51.8,17.8c-0.5,0.3-1,0.3-1.4,0.6c-0.1,0.1-0.3,0.1-0.5,0.2c0.2-0.1,0.5-0.1,0.7-0.3
		C50.9,18,51.4,18.1,51.8,17.8z"/>
	<path d="M19.8,27.4c1.4-0.4,2.7-0.7,4.1-1.1c1.1-0.3,2.2-0.8,3.4-1.1c1.2-0.3,2.4-0.5,3.6-0.7c1.6-0.2,2.4,1.4,1.6,2.8
		c-0.9,1.6-2.4,2.7-4.3,2.9c-2.1,0.2-4.3,0.1-6.4,0c-1.2,0-1.5-0.4-1.8-1.6C20,28.2,19.9,27.8,19.8,27.4L19.8,27.4z"/>
	<path d="M7.1,24.5c-0.9-0.1-1.7-0.3-2.4-0.9c-0.5-0.3-1-0.6-1.5-0.8c-0.8-0.4-0.8-0.6-0.4-1.4c0.3-0.5,0.5-1,0.7-1.6
		c0.4-1.2,1.2-2.1,2.4-2.5c0.4-0.2,0.9-0.3,1.4-0.3c1.2,0,3.2,1.4,3.4,2.5c0.3,1.2,0,3.2-1.3,4C8.7,24,7.9,24.2,7.1,24.5z"/>
	<path d="M24.5,23.8c-0.1,0.6-0.1,1.2-0.2,1.8c0,0.1-0.3,0.2-0.4,0.3c-0.1-0.2-0.2-0.3-0.2-0.5c0.4-1,0.2-1.9,0.1-2.9
		c0-0.5-0.3-1-0.4-1.5c-0.1-0.3,0-0.6,0.1-0.9c0.2,0.2,0.5,0.3,0.6,0.5C24.7,21.7,24.6,22.7,24.5,23.8z"/>
	<path d="M22.7,18.4c-0.2,0.2-0.4,0.3-0.5,0.3c-0.3-0.4-0.6-0.8-0.9-1.1c0.1,0,0.2-0.1,0.3-0.1C22,17.8,22.3,18.1,22.7,18.4z"/>
	<path d="M19,16c0.4,0.1,0.6,0,0.7,0.1c0.1,0.1,0.2,0.3,0.3,0.4c-0.1,0.1-0.3,0.2-0.4,0.2c-0.2,0-0.3-0.1-0.5-0.2
		c-0.1-0.1-0.2-0.2-0.2-0.3C18.9,16.1,19,16,19,16z"/>
	<path d="M9,20.3c0,1.1-0.9,2.2-1.9,2.2c-1.1,0-1.8-0.8-1.8-2.1c0-1.1,0.8-1.9,1.9-1.9C8.3,18.5,9,19.2,9,20.3z"/>
</g>
</svg>
