<?xml version="1.0" encoding="iso-8859-1"?>
<!-- Generator: Adobe Illustrator 25.3.0, SVG Export Plug-In . SVG Version: 6.00 Build 0)  -->
<svg version="1.1" id="Calque_1" xmlns="http://www.w3.org/2000/svg" xmlns:xlink="http://www.w3.org/1999/xlink" x="0px" y="0px"
	 viewBox="0 0 62.2 52.5" style="enable-background:new 0 0 62.2 52.5;" xml:space="preserve">
<g>
	<path d="M29.6,0c1.3-0.1,1.9,0.6,2.3,1.3c0.4,0.7,0.6,1.4,0.8,2.2c0.3,0.9,0.5,1.8,0.8,2.7c0.6,2.1,2.3,3.3,3.9,4.5
		c3.1,2.4,5.9,5.2,8.2,8.4c0.2,0.3,0.5,0.7,0.6,1.1c0.2,0.4,0.2,1.1,0.4,1.1c0.4,0.1,0.9-0.1,1.4-0.3c0.5-0.2,1-0.4,1.4-0.7
		c2.2-1.5,4.4-3,6.7-4.4c1.4-0.8,2.8-1.5,4.3-2.1c1.3-0.5,2,0.2,1.5,1.5c-0.5,1.4-1.2,2.7-1.8,4.1c-1.1,2.3-1.8,4.7-1.5,7.2
		c0.2,2.3,0.8,4.6,1.3,7c0.1,0.6,0.4,1.3,0.6,1.9c0.2,0.5,0.4,1-0.1,1.3c-0.4,0.2-1,0.2-1.3,0c-1.1-0.6-2.2-1.2-3.2-2
		c-2.1-1.7-4.1-3.5-6.1-5.3c-0.8-0.7-1.7-1.3-2.5-2c-0.4-0.3-0.8-0.5-1,0.4c-0.3,1.6-1.3,2.9-2.3,4.2c-1.7,2.2-3.3,4.3-5.1,6.4
		c-1.3,1.5-2.9,2.9-4.2,4.4c-1,1.1-1.9,2.4-2.8,3.7c-0.6,0.8-0.8,1.9-0.7,2.9c0.1,1.3-0.7,2-1.6,2.6c-0.9,0.5-1.6,0.6-2.4-0.3
		c-0.6-0.7-1-1.4-1.5-2.2c-0.4-0.7-0.6-1.5-1.1-2c-0.8-0.9-1.1-1.9-1.4-3c-0.4-1.2-0.8-2.5-1.2-3.7c-0.1-0.2-0.4-0.4-0.7-0.5
		c-1.5-0.7-3-1.4-4.6-2c-0.2-0.1-0.5,0-0.8,0.1c-0.9,0.4-1.2,0.5-1.3-0.2c-0.3-1.2-1.2-1.7-2.2-2.2c-0.2-0.1-0.4-0.2-0.6-0.4
		c-2.8-2.2-5.5-4.3-8.3-6.5c-0.3-0.3-0.7-0.5-1-0.8c-0.8-0.9-1.7-1.7-2.4-2.6c-0.5-0.7-0.5-0.9,0.4-1.3C1.3,24.1,1.2,24,1,23.7
		c-0.1-0.2-0.1-0.6,0-0.7c2.5-2.4,5-4.8,7.6-7c2.4-2,5.2-3.3,8.2-4.4c1-0.4,2-0.8,3-1.1c0.4-0.2,0.9-0.3,1.4-0.4
		c1.3-0.2,2.2-0.7,2.9-2c0.8-1.5,1.6-3,2.3-4.6c0.4-1,1.1-1.8,1.8-2.6C28.6,0.3,29.3,0.1,29.6,0z"/>
	<path d="M14.7,27.9c0.2,0,0.5,0,0.7,0c2.2-1.1,4.6-1.6,7-2c0.6-0.1,1.3-0.1,2-0.1c0.9,0.1,1.2,0.9,1,1.7c-0.9,3-4,4.9-7.5,4.2
		c-0.5-0.1-1.1-0.2-1.5-0.4c-0.4-0.2-0.6-0.4-0.3-0.9c0.6-0.9,0.4-1.5-0.7-1.5C14.5,28.8,14.7,28.4,14.7,27.9L14.7,27.9z"/>
</g>
</svg>
