<?xml version="1.0" encoding="iso-8859-1"?>
<!-- Generator: Adobe Illustrator 25.3.0, SVG Export Plug-In . SVG Version: 6.00 Build 0)  -->
<svg version="1.1" id="Calque_1" xmlns="http://www.w3.org/2000/svg" xmlns:xlink="http://www.w3.org/1999/xlink" x="0px" y="0px"
	 viewBox="0 0 86.2 12.7" style="enable-background:new 0 0 86.2 12.7;" xml:space="preserve">
<g>
	<path d="M11.5,9.2c0.2,0.1,1,0.1,0.5,0.6c-1.7,1.5-3.3,3.1-5.9,2.8c-1.5-0.2-3.1,0.2-4.6-0.4c-0.2-0.1-0.5-0.1-0.7-0.2
		c-0.4-0.3-1-0.6-0.8-1.3c0.2-0.7,0.9-0.5,1.4-0.4C3,11,4.6,11.1,6.2,10.8c0.6-0.1,0.7-0.3,0.3-0.8C5.8,9.1,5.1,8.3,4.1,7.7
		c-0.6-0.4-1-1-1.4-1.5C2.2,5.3,2.5,4.4,3.4,3.9c1.7-1,3.5-0.8,5.2-0.5c1,0.2,1.7,0.1,2.3-0.7c1.1-1.6,2.8-2,4.6-2.3
		C18.2-0.1,21,0,23.7,0.1c2,0.1,4,0.4,6,0.7c1.9,0.3,3.7,0.6,5.6,1c3.7,0.8,7.4,1.6,11.1,2.4c1.3,0.3,2.6,0.2,3.9,0.5
		c2.4,0.4,4.9,0.1,7.3,0.4c2.2,0.3,4.4,0.1,6.6,0.3c3.5,0.4,7.1,0,10.5,0.4c2.9,0.3,5.8,0,8.7,0.9C84.1,7,85,6.8,85.9,6.8
		c0.1,0,0.2,0.2,0.4,0.2c-0.1,0.1-0.2,0.1-0.3,0.2c-0.4,0-0.8,0-1.3,0c-0.8,0.1-1.5,0.2-2.3,0.3c-1.6,0.2-3.2,0.4-4.7,0.7
		c-2.4,0.5-4.9,0.2-7.3,0.6c-1.3,0.3-2.8,0-4.1,0.1c-8.6,0.6-17.1,0.3-25.7,0.3c-2.9,0-5.8-0.6-8.6-1.3c-0.8-0.2-1.6-0.4-2.4-0.7
		c-0.4-0.1-1-0.3-1.3-0.6c-0.6-0.6-1.2-0.9-2.1-0.4c-0.2,0.1-0.5,0.1-0.7,0.2c0.2,0.1,0.4,0.1,0.7,0.2c0.5,0.1,0.9,0.1,1.4,0.3
		c0.2,0.1,0.5,0.4,0.5,0.6c0,0.3-0.2,0.8-0.4,0.8C27.1,8.9,26.5,9,25.8,9c-2.2,0-4.4,0-6.7,0c-0.4,0-0.7,0-1.1-0.1
		c-0.9-0.3-1.8-0.3-2.8,0c-1.4,0.5-1.4,0.5-3.8,0.1c-0.6-0.6-0.4-1.2,0-1.7c0.4-0.6,1-0.5,1.6-0.2c0.5,0.3,0.9,0.3,1.4,0.1
		c0.7,0,1.3,0,1.9-0.3c2.4-0.4,4.6,1.3,7,0.9c0.2,0,0.5,0,0.7,0c-0.2-0.2-0.5-0.2-0.7-0.3c-1.5-0.7-3.2-0.4-4.8-0.6
		C18,6.8,17.2,6.8,17.2,6c0-0.8,0.7-1,1.4-1c0.1,0,0.2,0,0.4,0c0.8,0,1.6,0,2.3,0.3c-0.9-0.2-1.6-0.7-2.5-0.9
		c-2.1-0.5-4.2,0.2-6.2,0.4C10.8,4.8,9,5.2,7.2,4.5c-0.5-0.2-1-0.1-1.5,0.1C5.3,4.7,4.9,4.6,4.5,4.9C4.8,5.1,5.3,5,5.4,5.3
		c0.6,1.7,1.8,3,2.6,4.6c0.6,1.2-0.5,1.7-1.5,1.9c-0.9,0.2-1.9,0.1-2.9,0c-0.1,0-0.2,0-0.3-0.1c0.1,0,0.2,0.1,0.4,0.1
		c0.8,0,1.7,0.1,2.5,0c1.7-0.1,2.1-0.6,2-2.4c0-0.3-0.1-0.6-0.1-0.9c0-0.5,0.2-0.9,0.7-1.1c0.5-0.2,0.9,0,1.3,0.4
		C10.6,8.3,11,8.8,11.5,9.2z"/>
	<path d="M14.8,7.9c0.6-0.8,0.7-0.9,1.4-0.4C16,8.5,15.3,7.9,14.8,7.9z"/>
	<path d="M13.7,6.2c0.8-0.1,1.6-0.2,2.4-0.3c0.2,0,0.4,0.1,0.6,0.1c-0.1,0.1-0.3,0.2-0.4,0.3C15.5,6.6,14.6,6.8,13.7,6.2L13.7,6.2z"
		/>
	<path d="M7.4,5.6C7.1,5.8,6.9,6.1,6.7,6.1c-0.2,0-0.5-0.3-0.5-0.5c0-0.2,0.3-0.5,0.5-0.6C6.8,5.1,7.1,5.3,7.4,5.6z"/>
	<path d="M13.7,6.1c-0.2,0-0.5,0-0.7,0c-0.3,0-0.6-0.2-0.9-0.2c0.3-0.1,0.6-0.3,1-0.3C13.3,5.6,13.5,6,13.7,6.1L13.7,6.1z"/>
</g>
</svg>
