<?xml version="1.0" encoding="iso-8859-1"?>
<!-- Generator: Adobe Illustrator 25.3.0, SVG Export Plug-In . SVG Version: 6.00 Build 0)  -->
<svg version="1.1" id="Calque_1" xmlns="http://www.w3.org/2000/svg" xmlns:xlink="http://www.w3.org/1999/xlink" x="0px" y="0px"
	 viewBox="0 0 83.6 7.4" style="enable-background:new 0 0 83.6 7.4;" xml:space="preserve">
<g>
	<path d="M22.3,1c1.1,0,2.2,0,3.2,0C31.8,1.1,38,1.2,44.2,1.3c1,0,1.9-0.1,2.9-0.6c1.6-0.9,3.4-0.7,5,0c3.1,1.3,6.1,1.4,9.2,0
		c0.2-0.1,0.5-0.1,0.7-0.2c1.6-0.9,3.1-0.6,4.7,0.2c2.4,1.2,5,2,7.7,2c1.1,0,2.1-0.1,3.1-0.6c1.9-1,3.7-0.5,5.4,0.6
		c0.7,0.5,0.8,0.9,0.3,1.5c-0.8,0.8-1.8,1.6-2.7,2.3C79.9,7.1,79,7.1,78.2,7c-1.8-0.2-3.7-0.4-5.5-0.6c-0.9-0.1-1.9-0.2-2.8-0.3
		c-0.6,0-1.2-0.1-1.8,0c-1.7,0.3-3.3,0.4-5,0c-0.1,0-0.2,0-0.4,0c-3.2-0.1-6.3-0.3-9.5-0.3c-1.8,0-3.5,0.4-5.3,0.6
		c-0.9,0.1-1.8,0.1-2.7,0.1c-6.4,0-12.7,0-19.1,0c-1,0-2,0.2-3,0.3c-1,0.1-2,0.3-3,0.4c-2.4,0.1-4.9,0-7.3,0c-0.7,0-1.4-0.2-2.1-0.2
		c-1,0-1.9-0.4-2.9,0.4C7.3,7.5,6.4,7.5,5.7,7.3C3.9,6.7,2.2,5.9,0.5,5.2c-0.6-0.3-0.6-1.4,0.1-1.8C1,3.2,1.6,2.9,2.2,2.8
		c1.3-0.3,2.7-0.6,4-0.8c0.9-0.1,1.5-0.9,2.5-0.8C9.6,1.3,10.5,1,11.4,1C15,0.9,18.7,0.9,22.3,1C22.3,0.9,22.3,0.9,22.3,1z"/>
	<path d="M10.9,3.8c0.3-0.1,0.6-0.1,0.9-0.2c0,0.4,0,0.7,0,1.1c-0.3-0.1-0.6-0.3-0.8-0.5C10.9,4.2,10.9,4,10.9,3.8L10.9,3.8z"/>
	<path d="M15,4.7c-0.3,0.2-0.6,0.5-0.7,0.4c-0.2-0.1-0.5-0.4-0.5-0.6c0-0.2,0.4-0.4,0.6-0.5C14.6,4.1,14.8,4.3,15,4.7z"/>
	<path d="M20.7,4.3c0.4,0.4,0.6,0.7,0.9,0.9c-0.2,0.1-0.4,0.4-0.5,0.4c-0.3-0.1-0.6-0.4-0.8-0.6C20.3,4.9,20.5,4.7,20.7,4.3z"/>
	<path d="M13.6,4.3c-0.4,0.3-0.6,0.6-0.7,0.6c-0.2,0-0.4-0.3-0.5-0.5c0-0.1,0.2-0.4,0.4-0.4C13,3.9,13.2,4.1,13.6,4.3z"/>
	<path d="M16.3,5.4C16,5,15.8,4.8,15.7,4.5c0,0,0.4-0.4,0.5-0.3c0.2,0.1,0.4,0.3,0.5,0.6C16.7,4.9,16.5,5.1,16.3,5.4z"/>
	<path d="M19.3,4.3c0.3,0.4,0.5,0.6,0.6,0.9c0,0.1-0.3,0.3-0.3,0.3c-0.3-0.2-0.5-0.3-0.7-0.6C18.8,4.9,19,4.6,19.3,4.3z"/>
	<path d="M18.5,5c-0.3,0.2-0.6,0.5-0.6,0.4c-0.2-0.2-0.3-0.4-0.5-0.6c0.2-0.1,0.4-0.3,0.6-0.3C18.1,4.6,18.3,4.8,18.5,5z"/>
</g>
</svg>
