<?xml version="1.0" encoding="iso-8859-1"?>
<!-- Generator: Adobe Illustrator 25.3.0, SVG Export Plug-In . SVG Version: 6.00 Build 0)  -->
<svg version="1.1" id="Calque_1" xmlns="http://www.w3.org/2000/svg" xmlns:xlink="http://www.w3.org/1999/xlink" x="0px" y="0px"
	 viewBox="0 0 82.4 24.8" style="enable-background:new 0 0 82.4 24.8;" xml:space="preserve">
<g>
	<path d="M80.6,14.8c-1.8-0.3-3.6-0.6-5.4-1c-1.4-0.4-2.8-0.6-4.2-0.5c-1.1,0.1-1.2,0.1-1.5,1.1c-0.1,0.5-0.2,1.1-0.4,1.5
		c-0.9,2-2,2.8-4.4,2.1c-1.2-0.3-2.4-0.7-3.6-1.1c-1.5-0.4-3.6,0.7-4.2,2.2c-0.1,0.3-0.2,0.5-0.3,0.8c-0.8,2.4-2.7,3.1-5,3.3
		c-1,0.1-2,0-3.1,0c-0.5,0-1.1-0.1-1.5-0.3c-1-0.5-2.1-0.5-3.1-0.2c-2.3,0.6-4.7,0.9-7.1,0.9c-2.9,0-5.9,0.1-8.8-0.4
		c-3-0.6-6.2-0.5-9.1-1.4c-0.2-0.1-0.4,0.1-0.7,0.1c0.1,0.1,0.3,0.2,0.4,0.3c0.7,0.3,1.4,0.7,2.1,1c0.6,0.3,0.6,0.4,0.4,1.2
		c-0.1,0.3-0.1,0.4-0.4,0.2c-1-0.4-2.2-0.3-3.1-1.1c-0.8-0.7-1.9-1.3-2.7-2c-1.1-0.9-2.4-1.4-3.6-1.9c-2.5-1-5-1.8-7.5-2.7
		c-0.5-0.2-1-0.3-1.4,0.3c-0.3,0.4-1,0-0.9-0.5c0-0.3,0.1-0.6,0.3-0.8c0.1-0.3,0.5-0.8,0.4-0.9c-0.2-0.3-0.7-0.4-1-0.6
		c-0.2-0.1-0.4,0-0.5-0.1c-0.2-0.2-0.4-0.4-0.5-0.7c0-0.1,0.2-0.4,0.4-0.5c0.4-0.2,0.9-0.4,1.3-0.6c0.9-0.4,1.9-0.7,2.8-1.1
		c1.6-0.7,3.1-0.9,4.8-0.8c1.5,0.1,3.1,0.2,4.6-0.2c1.3-0.3,2.6-0.4,3.9-0.4c0.9,0,1.4-0.4,1.8-1.2c0.8-1.7,2.2-3.1,3.4-4.6
		c1.6-2,3.9-2.8,6.3-3.1c1.7-0.2,3.4-0.5,5-1.1C34.6,0,34.8,0.1,35,0.1c-0.1,0.2-0.2,0.5-0.4,0.5c-1.5,0.4-2.9,1-4.5,1.2
		c-1.7,0.2-3.3,0.6-4.8,1.3c-1.1,0.6-1.9,1.3-2.3,2.6c-0.2,0.7-0.5,1.5-0.7,2.2c0,0.1,0,0.3,0,0.5c0.1-0.1,0.3-0.2,0.4-0.3
		c1.3-2.3,3.5-2.7,5.8-2.7c7-0.1,14-0.2,21,0c3.1,0.1,6.2,0.3,9.3,0.3c1.9-0.1,3.8-0.4,5.7-0.6c0.5,0,1-0.1,1.4-0.1
		c3-0.1,3.5,1.1,3.7,3.2c0.1,1.3,0.3,1.5,1.7,1.5c1.4,0,2.7-0.5,3.9-1.1c1.6-0.8,3.4-1.2,5.1-1.6c0.9-0.2,1.6,0.5,1.4,1.4
		c-0.4,1.8-0.5,3.6,0.3,5.4c0.4,0.8,0.1,1.1-0.9,1c-0.2,0-0.5,0-0.7-0.1C80.6,14.7,80.6,14.8,80.6,14.8z"/>
	<path d="M62.9,12.8c-0.8,0.2-1.5,0.6-2.3,0.7c-2.7,0.4-5.4,0.9-8.1,1.2c-2.4,0.3-4.8,0.3-7.1,0.2c-1.9-0.1-3.9-0.5-5.8-0.8
		c-1.5-0.2-3-0.5-4.6-0.5c-2-0.1-4.1-0.1-6.1,0c-1.6,0-3.2,0.3-4.8,0.3c-1.5,0-3.1-0.2-4.6-0.4c-0.1,0-0.2-0.2-0.4-0.3
		c0.1-0.1,0.2-0.3,0.3-0.3c0.5,0,1.1-0.1,1.6,0c2.2,0.5,4.5,0.4,6.7,0c1.4-0.2,2.9,0,4.3-0.1c3.1-0.1,6.1,0.3,9.2,1
		c1.8,0.4,3.7,0.4,5.5,0.4c5,0.2,9.8-0.5,14.6-1.6C62,12.5,62.4,12.6,62.9,12.8L62.9,12.8z"/>
	<path d="M25.4,15.9c1.8,0.4,3.6,0.8,5.4,1.2c0.3,0.1,0.6,0.3,0.6,0.5c0,0.2-0.3,0.6-0.5,0.7c-1.4,0.5-2.8,1-4.2,1.3
		c-1.1,0.2-2.3,0.5-3.5,0c-0.6-0.3-1.2-0.7-1.8-1.1c-0.1,0,0-0.2,0-0.3c0.2,0,0.4-0.1,0.5,0c0.8,0.6,1.7,1,2.7,0.9
		c1.3-0.2,2.7-0.4,4-0.7c0.5-0.1,1-0.5,1.5-0.8c-0.5-0.1-0.9-0.1-1.4-0.3c-2.2-0.5-4.3-0.5-6.5-0.2c-0.2,0-0.4,0.2-0.5,0.1
		c-0.2-0.1-0.4-0.2-0.5-0.4c0.1-0.1,0.2-0.3,0.3-0.3C22.7,16.5,24,16.2,25.4,15.9z"/>
</g>
</svg>
