<?xml version="1.0" encoding="iso-8859-1"?>
<!-- Generator: Adobe Illustrator 25.3.0, SVG Export Plug-In . SVG Version: 6.00 Build 0)  -->
<svg version="1.1" id="Calque_1" xmlns="http://www.w3.org/2000/svg" xmlns:xlink="http://www.w3.org/1999/xlink" x="0px" y="0px"
	 viewBox="0 0 85 31.7" style="enable-background:new 0 0 85 31.7;" xml:space="preserve">
<g>
	<path d="M42.4,18.4c-0.9,0-1.8,0-2.7,0c-3.9,0.1-7.9,0.1-11.8,0.4c-5.5,0.4-11,0.9-16.3,2.5c-1.3,0.4-2.6,0.9-3.8,1.4
		c-0.4,0.2-0.8,0.5-1.1,0.8c-0.4,0.3-0.3,0.6,0.1,0.8c1.3,0.4,2.6,0.9,3.9,1.1c2.2,0.3,4.4,0.5,6.6,0.7c0.2,0,0.4,0,0.5,0
		c2.4-0.6,4.8-0.2,7.2-0.3c2.6-0.1,5.3-0.1,7.9-0.4c2-0.3,4.1-0.1,6.1-0.3c3.2-0.5,6.4,0,9.5-0.4c2.6-0.3,5.3,0,7.9-0.4
		c2.6-0.3,5.2,0,7.7-0.4c2.5-0.3,5-0.2,7.5-0.3c0.7,0,1.4-0.4,2.1-0.3c3,0.5,6,0,8.9,0.6c0.5,0.1,0.9,0.2,1.4,0.4
		c0.9,0.3,1.3,0.8,1.3,1.7c0,0.8-0.4,1.3-1.2,1.6c-0.8,0.3-1.6,0.6-2.4,0.7c-2.5,0.3-5.1,0.6-7.6,0.8c-3,0.3-6.1,0.5-9.1,0.7
		c-1.6,0.1-3.1,0-4.7,0.1c-3.1,0.2-6.2,0.2-9.3,0.7c-0.2,0-0.4,0-0.5,0c-4.2,0.1-8.5,0.1-12.7,0.4c-2.8,0.2-5.6,0.1-8.4,0.4
		c-4.6,0.5-9.1,0.4-13.6,0.2c-3-0.1-6.1-0.1-8.9-1.3c-1.4-0.6-2.8-1.3-3.9-2.5c-2.3-2.8-1.4-5.7,0.3-8c1.6-2.2,3.9-3.2,6.4-3.9
		c3.4-0.9,6.8-1.6,10.3-1.9c3.1-0.2,6.3-0.5,9.4-0.7c3.4-0.2,6.8-0.6,10.2-0.7c2.1-0.1,4.3-0.4,6.4-0.6c0.1,0,0.2,0,0.4,0
		c3-0.1,6-0.3,8.9-0.4c3.2-0.1,6.3-0.3,9.4-0.7c2.1-0.3,4.1-0.4,6.2-0.8c1.9-0.4,3.8-0.9,5.7-1.4C76.9,8.4,77,8,76.5,7.5
		c-0.3-0.3-0.6-0.6-1-0.7c-1.3-0.5-2.6-0.8-4-1c-3-0.3-6-0.5-9-0.3c-4.4,0.3-8.7,0-13.1,0.4c-7.1,0.6-14.3,0.1-21.4,0.3
		c-1.2,0-2.5-0.3-3.7-0.3c-2.8-0.1-5.6,0.2-8.3,1.1C14,7.6,11.9,7.7,9.8,7.7c-1.8,0-3.6,0-5.3-0.8C3.8,6.6,3,6.6,2.2,6.6
		c-0.9,0-1.9-0.1-2.2-0.9c-0.3-0.9,0.5-1.5,1.1-2C1.5,3.4,1.9,3.2,2.3,3c2.8-0.9,5.6-1.8,8.6-2c2.6-0.2,5.1,0,7.7-0.3
		c4.8-0.6,9.6,0,14.4-0.3c10.8-0.7,21.7-0.2,32.5-0.3c3.3,0,6.5,0.3,9.7,1.1c2.1,0.5,4,1.4,5.6,3c2.4,2.6,1.8,6-0.6,8.1
		c-2.3,2-5,2.9-7.9,3.5c-2.7,0.5-5.5,1-8.2,1.4c-1.8,0.2-3.7,0.3-5.5,0.4c-3,0.2-5.9,0.5-8.9,0.6C47.2,18.4,44.8,18.3,42.4,18.4
		C42.4,18.4,42.4,18.4,42.4,18.4z"/>
	<path d="M19.4,4.9c-0.4,0.1-0.7,0.2-1,0.2c-0.1,0-0.2-0.3-0.3-0.5c0.3-0.1,0.6-0.2,0.9-0.2C19.1,4.4,19.2,4.7,19.4,4.9z"/>
</g>
</svg>
