<?xml version="1.0" encoding="iso-8859-1"?>
<!-- Generator: Adobe Illustrator 25.3.0, SVG Export Plug-In . SVG Version: 6.00 Build 0)  -->
<svg version="1.1" id="Calque_1" xmlns="http://www.w3.org/2000/svg" xmlns:xlink="http://www.w3.org/1999/xlink" x="0px" y="0px"
	 viewBox="0 0 85.3 31.5" style="enable-background:new 0 0 85.3 31.5;" xml:space="preserve">
<g>
	<path d="M34.7,0c2,0.2,4,0.5,6,0.7c0.9,0.1,1.9,0.2,2.8,0.4c2.8,0.5,5.6,1,8.4,1.5c2.7,0.5,5.3,1.3,7.8,2.4
		c3.8,1.7,7.2,3.9,10.4,6.5c0.5,0.4,1,0.7,1.5,1c0.7,0.5,0.6,0.7-0.2,1.2c-0.1,0.1-0.2,0.2-0.3,0.3c0.2,0,0.3,0.1,0.5,0.1
		c2.3-0.3,4.2-1.3,5.9-2.8c0.8-0.7,1.7-1.4,2.4-2.1c0.8-0.8,1.7-1.1,2.8-1c2,0.1,3.1,1.6,2.6,3.5c-0.5,1.7-1.2,3.3-2.9,4.3
		c-1,0.6-1,0.9-0.2,2c0.6,0.9,1.3,1.9,1.8,2.9c0.3,0.7,0.5,1.5,0.5,2.2c0.1,1.9-1.6,3-3.4,2.1c-0.9-0.4-1.7-1.1-2.5-1.7
		c-1-0.8-1.9-1.6-2.8-2.5c-1.4-1.2-3-1.6-4.8-1.6c-3.8,0-7.5,0.3-11.2,1.1c-0.2,0-0.5,0.1-0.7,0.2c-0.3,0.1-0.5,0.2-0.8,0.3
		c0.2,0.2,0.5,0.4,0.7,0.4c0.6,0.2,0.6,0.6,0.5,1.1c0,0.1-0.1,0.2-0.1,0.3c-1,2.3-2,4.7-3.1,7c-0.6,1.3-1.4,1.5-2.5,0.4
		c-0.8-0.8-1.5-1.7-2.3-2.5c-0.5-0.5-1-1-1.5-1.6c-0.4-0.4-0.8-0.6-1.3-0.4c-2,0.8-4.2,0.5-6.3,1c-0.7,0.2-1.5-0.2-2.3-0.2
		c-0.2,0-0.4,0.1-0.6,0.2c0.1,0.2,0.1,0.3,0.2,0.5c0.7,1,1.4,2.1,2,3.1c0.1,0.3,0,0.6,0.1,1c-0.3,0-0.7,0.1-1,0
		c-1.8-1-3.7-2-5.3-3.2c-1-0.7-1.8-1-3.1-0.9c-3.7,0.3-7.4-0.1-10.9-1.3c-4.4-1.5-9-2.5-13.6-3.5c-1.3-0.3-2.7-0.1-4,0.4
		c-0.7,0.3-1.5,0.5-2.2,0.6c-0.9,0.1-1-0.1-1.1-0.9c0-0.2,0.1-0.4,0-0.5c-0.9-1.7,0.1-2.5,1.4-3.4c2.6-1.9,5-4,7.5-6
		c2-1.6,4.2-2.8,6.5-3.6c3.8-1.4,7.5-3,11.5-3.8c1.1-0.2,1.7-1,2.4-1.8c0.6-0.7,1.2-1.3,1.7-2C32.3,0.2,33.4-0.1,34.7,0z"/>
	<path d="M7.3,15.1c0.3,0.1,0.7,0,1,0.2c0.7,0.4,0.9,1,0.6,1.5c-0.3,0.5-0.6,0.9-1.3,0.8C7,17.5,6.7,17,6.7,16.1
		c0-0.2,0-0.3,0.1-0.5C7,15.4,7.1,15.3,7.3,15.1z"/>
	<path d="M19,19.4c-1.1,0-1.4,0.3-1.6,1.4c0,0.4,0.1,0.8,0.2,1.2c0,0.2-0.1,0.3-0.1,0.5c-0.2-0.1-0.5-0.1-0.6-0.2
		c-0.2-0.2-0.3-0.5-0.3-0.8c0.1-0.8,0.1-1.5,0.4-2.2c0.6-1.5,1.3-3,2-4.5c0.1-0.2,0.3-0.3,0.4-0.5c0.1,0.2,0.2,0.5,0.2,0.7
		c0,1.1-0.4,2.1-1,3c-0.1,0.1,0,0.3-0.1,0.5c0.2,0,0.4,0,0.5-0.1c1.9-1.6,4.3-2.3,6.5-3.3c0.9-0.4,1.8-0.7,2.7-0.8
		c1.3-0.1,2.7,0.5,2.5,2.2c-0.2,2.1-1.2,3.8-2.7,5.3c-0.3,0.3-0.7,0.6-1.1,0.9c-1,0.8-2.1,1-3.3,0.3c-1-0.6-2.1-0.9-3.2-0.4
		c-0.2,0.1-0.3,0.1-0.5,0.1c-0.5,0-1-0.1-1.6-0.2c0.2-0.8,0.8-0.5,1.3-0.6c0.8-0.2,1.3-0.7,1.3-1.2C20.8,19.9,20.1,19.4,19,19.4z"/>
	<path d="M70.2,15.1c1,0.5,2.1,0.5,3.2,0.7c0.3,0.1,0.6,0,0.9,0.1c0.3,0.2,0.6,0.5,0.8,0.7c-0.3,0-0.7,0-1-0.1
		c-4.1-0.7-8.3-1.4-12.4-2.1c-3-0.5-6.1-1-9.1-1.5c-2.1-0.4-4.2-0.8-6.3-1.2c-1.4-0.2-2.8-0.5-4.2-0.6c-2.7-0.2-5.5-0.5-8.2-0.5
		c-2.2,0-4.5,0.4-6.8,0.5c-1.9,0.1-3.8,0.5-5.6,0.9c-0.1,0-0.3-0.1-0.5-0.1c0.1-0.1,0.2-0.4,0.3-0.4c1.2-0.3,2.4-0.6,3.6-0.8
		c1.9-0.3,3.8-0.6,5.7-0.6c2.4-0.1,4.8,0.1,7.2,0.1c0.5,0,0.9,0.1,1.4,0.1c3.5,0.2,7,0.7,10.4,1.3c3.1,0.6,6.2,1.1,9.3,1.6
		c2.3,0.4,4.6,0.9,7,1.3C67.4,14.9,68.8,15,70.2,15.1L70.2,15.1z"/>
</g>
</svg>
