<?xml version="1.0" encoding="iso-8859-1"?>
<!-- Generator: Adobe Illustrator 25.3.0, SVG Export Plug-In . SVG Version: 6.00 Build 0)  -->
<svg version="1.1" id="Calque_1" xmlns="http://www.w3.org/2000/svg" xmlns:xlink="http://www.w3.org/1999/xlink" x="0px" y="0px"
	 viewBox="0 0 71.5 35.8" style="enable-background:new 0 0 71.5 35.8;" xml:space="preserve">
<g>
	<path d="M55.1,17.6c2.1,0,3.8-1,5.7-1.7c2.6-1.1,5.2-2.4,8-2.9c1.4-0.3,2.5,0.5,2.6,1.9c0.1,1.5-0.1,2.8-1.1,4
		c-0.5,0.7-0.9,1.4-1.4,2c-0.5,0.7-0.4,1.5,0.1,2.1c0.3,0.4,0.7,0.8,1.1,1.2c1.3,1.3,1.5,2.9,1.2,4.6c-0.2,1.1-0.7,1.5-1.8,1.5
		c-1.2,0.1-2.4-0.1-3.5-0.7c-1.1-0.5-2.2-0.9-3.3-1.5c-2.1-1.1-4.3-1.7-6.7-1.8c-1.2,0-2.4-0.2-3.5-0.3c-0.4,0-0.7,0.2-0.4,0.6
		c0.3,0.5-0.1,0.8-0.3,1.1c-1.3,1.5-1.6,3.4-2,5.2c-0.1,0.2-0.1,0.5-0.1,0.7c-0.5,1.5-1.2,1.8-2.4,0.7c-0.8-0.7-1.7-0.7-2.5-0.6
		c-0.8,0-1.3-0.2-1.7-0.6c-1.3-1.1-2.5-2.3-3.8-3.5c-0.2-0.2-0.5-0.3-0.7-0.4c-0.3-0.1-0.7-0.1-1.1,0c-2.2,0.2-4.4,0.5-6.6,0.7
		c-0.7,0.1-1.3,0.1-2,0.1c-0.5,0-0.5,0.2-0.4,0.6c0.3,1,0.4,2,0.6,2.9c0.1,0.4,0.2,0.8,0.2,1.2c0,0.5-0.4,0.9-0.9,0.9
		c-0.9,0-1.9,0-2.6-0.3c-1.7-0.9-3.4-2-4.5-3.7c-1.4-2.1-1.5-1.9-3.9-2c-3-0.1-6-0.5-8.8-2c-1.2-0.6-2.7-0.7-4.1-1.2
		c-1.2-0.4-2.3-0.9-3.4-1.5c-1.1-0.6-1.2-1-0.6-2.3c0.1-0.3,0.1-0.3-0.1-0.5c-0.6-1-0.5-1.6,0.4-2.3c0.9-0.7,1.9-1.3,2.8-2
		c2-1.5,4.1-3.1,6.1-4.7c2.5-2,5.2-3.8,8.3-4.9c1.9,0.1,2.4-1.4,3.4-2.5c0.4-0.4,0.8-0.8,1.2-1.3c0.4-0.4,0.7-0.9,1-1.4
		c0.4-0.6,0.8-1.2,1.2-1.7c0.1-0.1,0.5-0.2,0.6-0.2C25.9,2,26.2,1.4,26.5,1c0.2-0.3,0.4-0.6,0.7-0.8c0.3-0.3,0.8-0.2,1,0.3
		c0.1,0.3,0,0.6,0.1,0.9c0.1,0.4,0.3,0.4,0.6,0.2c0.2-0.1,0.3-0.3,0.5-0.5c0.3-0.2,0.5-0.2,0.6,0.2c0.1,0.3,0.1,0.7,0.3,1
		c0.1,0.2,0.4,0.5,0.4,0.4c1.1-0.5,1,0.2,1.1,0.9c0.1,0.6,0.3,1.2,1.2,0.8c0.1,0,0.5,0.3,0.5,0.5c0,0.8,0.1,1.4,1.1,1.5
		c0.1,0,0.3,0.1,0.3,0.2c-0.1,1.2,1,1.8,1.2,2.8c0.2,0.9,0.6,1.1,1.4,0.5c1-0.7,1.8-1.5,2.8-2.2c0.8-0.6,1.6-1.2,2.5-1.7
		c1.2-0.8,2.3-0.5,2.9,0.9c0.9,2,2.3,3.6,3.6,5.3c0.5,0.7,1,1.3,1.4,2.1c0.2,0.5,0.3,1.4,0.1,1.6c-0.9,0.9-0.2,0.8,0.4,0.9
		C52.5,17.1,53.8,17.3,55.1,17.6z"/>
	<path d="M8.9,20.2c0,1.1-0.9,1.9-2.1,1.9c-1.1,0-1.8-0.7-1.7-2c0-1.2,0.9-2.1,2-2C8.1,18.3,9,19.2,8.9,20.2z"/>
	<path d="M17.7,20.6c-0.4,0.3-0.8,0.7-1.2,1c0,0-0.1-0.1-0.1-0.1c0-0.3-0.1-0.8,0.1-1c0.2-0.2,0.6-0.1,1-0.2
		C17.5,20.4,17.5,20.5,17.7,20.6z"/>
	<path d="M3.7,19C3.9,19,4.2,19,4.3,19.2c0.1,0.2,0,0.5-0.1,0.7c-0.2-0.1-0.4-0.3-0.5-0.4C3.6,19.3,3.7,19.1,3.7,19L3.7,19z"/>
</g>
</svg>
