<?xml version="1.0" encoding="iso-8859-1"?>
<!-- Generator: Adobe Illustrator 25.3.0, SVG Export Plug-In . SVG Version: 6.00 Build 0)  -->
<svg version="1.1" id="Calque_1" xmlns="http://www.w3.org/2000/svg" xmlns:xlink="http://www.w3.org/1999/xlink" x="0px" y="0px"
	 viewBox="0 0 83.3 21.2" style="enable-background:new 0 0 83.3 21.2;" xml:space="preserve">
<g>
	<path d="M52.1,18.6c-0.9,0.1-1.8,0.3-2.6,0.3c-0.8,0-1.5-0.2-2.3-0.2c-1.9,0-3.8,0-5.8,0c-0.4,0-0.9,0.1-1.2-0.1
		c-1.1-0.8-2.2-0.4-3.3-0.3c-0.5,0-1,0.1-1.4,0.1c-3.5,0-7.1,0-10.6,0c-1.3,0-2.6-0.3-3.9-0.4c-1.5-0.2-2.9-0.4-4.4-0.6
		c-0.8-0.1-1.6-0.2-2.5-0.4c-0.1,0-0.3,0.1-0.4,0.1c0.1,0.1,0.2,0.2,0.3,0.2c1.8,1.1,3.3,2.7,5.6,2.9c0.5,0,1.1,0.1,1.6,0.2
		c0.2,0,0.5,0.2,0.7,0.3c-0.2,0.2-0.5,0.4-0.7,0.4c-0.4,0-0.8-0.1-1.2-0.1c-0.5,0-1-0.2-1.4-0.1c-1.2,0.5-2.2,0-3-0.5
		c-1.2-0.7-2.2-1.6-3.3-2.4c-0.8-0.5-1.7-1-2.6-1.4c-0.5-0.2-1.1-0.2-1.5-0.4c-1.7-1-3.7-1.2-5.6-1.8c-0.2-0.1-0.4-0.1-0.6-0.1
		c0.1,0.2,0.1,0.4,0.2,0.6c0,0.2,0,0.4,0,0.6c-0.2-0.1-0.4-0.1-0.5-0.2c-0.5-0.7-0.9-1.4-1.3-2.1c-0.2-0.5,0.2-0.8,1.2-0.9
		c0.2,0,0.5-0.1,0.7-0.1c-0.2-0.1-0.4-0.3-0.6-0.4c-1.5-0.7-1.8-1.5-0.7-2.8c0.3-0.4,0.7-0.7,1.1-1C2.4,7.5,3.2,7.1,4,6.7
		c2.3-1.4,4.8-1.6,7.3-2c1.2-0.2,2.4-0.4,3.7-0.6c0.7-0.1,1-0.5,1.3-1c0.4-0.8,1-1.5,1.5-2.2c0.1-0.1,0.3-0.1,0.4-0.1
		c0,0.2,0,0.3,0,0.5c-0.4,0.7-0.8,1.3-1.1,2c0,0.1,0,0.2,0.1,0.3c0.1,0.1,0.2,0.1,0.3,0c0.3-0.2,0.6-0.4,0.8-0.7
		C19,2,19.9,1.7,20.9,1.5c2.8-0.4,5.5-0.6,8.3-1.1c2-0.4,3.9-0.3,5.9-0.3c1.4,0,2.8-0.2,4.3,0c1.2,0.2,2.4,0.3,3.5,0.4
		c2.4,0.2,4.7,0.6,7.1,0.8c1.7,0.1,3.4,0.5,5.1,0.8c3.9,0.7,7.8,1.5,11.6,2.3c3.6,0.7,7.2,1.6,10.5,3.1c1.4,0.6,2.9,1.2,4.3,1.8
		c0.3,0.1,0.7,0.3,1,0.5c1,0.7,1,1.6-0.1,2.2c-1.7,1-3.4,1.7-5.3,2.1c-4,1-7.9,1.9-11.9,2.8c-2.5,0.6-5,1.1-7.5,1.4
		c-1.9,0.3-3.8,0.3-5.7,0.4C52.1,18.7,52.1,18.7,52.1,18.6z"/>
	<path d="M6.9,8.9c0,0.9-0.7,1.5-1.7,1.5C4.7,10.3,4,9.5,4,8.8c0-0.6,0.8-1.2,1.5-1.2C6.3,7.6,6.9,8.2,6.9,8.9z"/>
	<path d="M20.9,5.7c-0.3,0-0.5,0-0.6,0c-0.1,0-0.2-0.2-0.2-0.3c0-0.1,0.1-0.2,0.2-0.2c0.4,0,0.7,0,1.1,0c0.1,0,0.2,0.2,0.2,0.4
		c0,0-0.2,0.2-0.3,0.2C21.1,5.8,20.9,5.7,20.9,5.7z"/>
</g>
</svg>
