<?xml version="1.0" encoding="iso-8859-1"?>
<!-- Generator: Adobe Illustrator 25.3.0, SVG Export Plug-In . SVG Version: 6.00 Build 0)  -->
<svg version="1.1" id="Calque_1" xmlns="http://www.w3.org/2000/svg" xmlns:xlink="http://www.w3.org/1999/xlink" x="0px" y="0px"
	 viewBox="0 0 64.5 38.8" style="enable-background:new 0 0 64.5 38.8;" xml:space="preserve">
<g>
	<path d="M31.7,15.8c4.3,0,8.6,0,13,0c2.6,0,5.1-0.2,7.6-0.7c1.7-0.3,3.3-1,4.7-2c0.6-0.4,0.6-0.6,0-1c-1.5-1.2-3.2-1.9-5-2.1
		c-1.5-0.2-3-0.4-4.4-0.4c-3.1,0-6.2,0-9.3,0.4c-3.4,0.4-6.8,0.5-10.2,0.7c-8.3,0.6-16.7,0-25,0.3c-0.5,0-1.1-0.1-1.6-0.2
		C1.2,10.5,1,10.1,1.4,9.8c0.5-0.4,1.1-1,1.9-0.6c0.4,0.2,0.8,0.2,1.2,0.2c0.1,0,0.3-0.1,0.4-0.2C4.8,9.1,4.7,9,4.6,9
		c-1-0.4-2.1-0.4-2.9-1.2c-0.1-0.1-0.3,0-0.5,0.1C0.9,8.1,0.6,8.6,0.2,8C-0.2,7.5,0,6.5,0.6,6.3c0.9-0.4,1.8-0.6,2.7-0.9
		c0.1,0,0.2,0,0.4,0c4,0,7.8-0.5,11.6-1.6c1.3-0.4,2.7-0.4,4.1-0.6c1.5-0.2,3.1-0.2,4.6-0.4c0.4,0,0.8-0.2,1.2-0.4
		c2.7-1.3,5.6-1.7,8.6-2.1c4.9-0.6,9.8-0.3,14.7-0.3c2.7,0,5.4,0.6,7.8,1.9c0.9,0.5,1.8,1.3,2.4,2.1c1.1,1.5,2,3.2,2.9,4.9
		c0.7,1.2,1,2.5,1,3.9c0,0.4-0.1,0.8,0,1.1c0.6,1.3,0.1,2.5-0.3,3.8c-0.4,1.1-0.6,2.2-1,3.2c-0.5,1.6-1.6,2.8-3,3.7
		c-2.5,1.7-5.2,2.8-8.2,3.4c-3.8,0.7-7.6,0.8-11.4,0.6c-2.1-0.1-4.2-0.1-6.3-0.3c-5.1-0.6-10.2-0.3-15.3-0.2c-2.3,0-4.7,0.2-6.8,1.4
		c-0.1,0.1-0.2,0.2-0.4,0.4c0.1,0.1,0.3,0.2,0.4,0.2c0.9,0.2,1.8,0.5,2.8,0.6c1.5,0.2,3.1,0.4,4.6,0.5c3.5,0.1,7,0.1,10.4,0
		c3.2-0.1,6.3-0.3,9.5-0.3c2.9,0,5.9,0,8.8,0.4c3.5,0.4,7.1,0.8,10.5,2.1c2.7,1,5,2.4,7.2,4.2c0.1,0.1,0.2,0.4,0.2,0.6
		c-0.2,0.1-0.4,0.2-0.6,0.2c-2.7-0.3-5.3-0.5-7.9-1.1c-5-1-10.1-0.6-15.2-0.6c-1.8,0-3.7,0.4-5.5,0.6c-1.4,0.1-2.7,0.3-4.1,0.4
		c-2.9,0.3-5.8,0.3-8.7,0.8c-3.4,0.5-6.8,0.3-10.2,0.3c-2.2,0-4.3-0.8-6.1-2.2c-0.1-0.1-0.3-0.2-0.4-0.3c-1.2-1.9-2.4-3.7-2.8-6.1
		c-0.3-2.2-0.2-4.1,1-5.9c0.2-0.3,0.2-0.7,0.3-1c0.9-3,3.1-4.9,5.9-6c2.5-1,5-1.4,7.7-1.4C22.5,15.8,27.1,15.8,31.7,15.8
		C31.7,15.8,31.7,15.8,31.7,15.8z"/>
</g>
</svg>
