<?xml version="1.0" encoding="iso-8859-1"?>
<!-- Generator: Adobe Illustrator 25.3.0, SVG Export Plug-In . SVG Version: 6.00 Build 0)  -->
<svg version="1.1" id="Calque_1" xmlns="http://www.w3.org/2000/svg" xmlns:xlink="http://www.w3.org/1999/xlink" x="0px" y="0px"
	 viewBox="0 0 83 38.3" style="enable-background:new 0 0 83 38.3;" xml:space="preserve">
<g>
	<path d="M45.4,0c2.8,0,5.5,0,8.3,0c2.1,0,4.1,0.5,6.2,0.6c3.7,0.3,7.2,1.6,10.7,2.7c2.6,0.8,4.9,2.2,6.9,4c0.7,0.6,1.3,1.3,1.7,2
		c1.5,2.9,3.4,5.6,3.7,9c0.4,3.7-0.3,7.2-2.4,10.4c-0.4,0.7-0.9,1.4-1.2,2.2c-1.1,3.1-3.5,4.6-6.3,5.5c-1.9,0.6-3.8,0.8-5.8,0.8
		c-1.7,0-3.5,0.3-5.2,0.3c-5.1,0-10.3,0-15.4,0.2c-3.1,0.1-6.2,0.1-9.3,0.4c-2,0.2-3.9,0.3-5.9,0.2c-0.9,0-1.9-0.2-2.8-0.5
		c-1.8-0.6-2-1.7-0.8-3c1.5-1.6,3.4-2.6,5.4-3.3c4-1.4,8.1-2.3,12.3-2.9c2.8-0.4,5.5-0.6,8.4-0.7c2.5-0.1,5.1-0.4,7.6-0.6
		c0.5,0,1,0,1.4,0c2.7-0.2,5.4-0.4,8-0.8c2.3-0.4,4.3-1.5,6-2.9c0.8-0.7,0.5-1.7,0.3-2.5c-0.4-1.4-1.3-2.6-2.7-3.2
		c-2.1-0.9-4.3-1.8-6.5-2.6c-2.1-0.7-3.8-2-5.6-3.1c-0.1-0.1-0.2-0.1-0.3-0.2c-0.6-1.3-1.8-1.3-3.1-1.5c-2.6-0.4-5.1-0.2-7.7-0.3
		c-4.4,0-8.8-0.2-13.1,0c-3.6,0.2-7.2,0-10.7,0.4C22.2,11,17,10.8,11.7,10.8c-1.9,0-3.9-0.5-5.8-0.9C4.4,9.6,2.8,9.1,1.3,8.6
		C0.4,8.4-0.2,6.9,0.1,6c0.1-0.2,0.3-0.4,0.5-0.5C2.3,4.6,4,3.7,5.9,3c1.1-0.4,2.3-0.4,3.5-0.4c3-0.2,6.1-0.2,9.1-0.4
		C20.3,2,22,1.6,23.8,1.3c1.5-0.2,3.1-0.4,4.6-0.6c2-0.2,4-0.4,6-0.6C35,0,35.5,0,36,0C39.2,0,42.3,0,45.4,0C45.4,0,45.4,0,45.4,0z"
		/>
	<path d="M14.3,7.7C14.2,7.8,14,8,13.9,7.9c-0.5-0.2-1-0.4-1.6-0.6c0,0,0-0.2,0.1-0.3c0.3-0.3,1.3,0,1.7,0.5
		C14.2,7.5,14.3,7.6,14.3,7.7z"/>
</g>
</svg>
