<?xml version="1.0" encoding="iso-8859-1"?>
<!-- Generator: Adobe Illustrator 25.3.0, SVG Export Plug-In . SVG Version: 6.00 Build 0)  -->
<svg version="1.1" id="Calque_1" xmlns="http://www.w3.org/2000/svg" xmlns:xlink="http://www.w3.org/1999/xlink" x="0px" y="0px"
	 viewBox="0 0 81.9 31.4" style="enable-background:new 0 0 81.9 31.4;" xml:space="preserve">
<g>
	<path d="M77.8,21.8c-2.8,0.1-5.5-0.7-8.3-1.2c-3.8-0.7-7.6-1.6-11.5-1.3c-0.2,0-0.4,0.1-0.6,0.2c0.1,0.1,0.2,0.3,0.3,0.4
		c1.1,0.9,1.2,1.3,0.1,2.1c-1.5,1.1-3,2.1-4.6,3c-1.7,1-2.9,2.4-4.2,3.8c-0.5,0.5-0.9,1.1-1.4,1.6c-1.4,1.4-2.8,1.4-4.2,0
		c-1.3-1.3-2.4-2.6-3.5-4c-0.1-0.1-0.2-0.3-0.3-0.5c-0.8-0.9-1.4-2.4-3.1-1.4c-1.2-0.5-2.3-0.3-3.5,0c-0.1,0-0.2,0-0.3,0.1
		c0,0.1,0.1,0.2,0.1,0.2c1,0.3,1.1,1.3,1.5,2c0,0.1,0.1,0.1,0.1,0.1c0.2,0.3,0.5,0.7,0.7,1c-0.5,0-1.1,0.2-1.5,0
		c-1.4-0.5-2.9-1-4-1.9c-1.2-0.9-2.3-0.9-3.5-0.7c-2.4,0.4-4.7,0.4-7.1,0c-0.1,0-0.2-0.1-0.3-0.1c-2-0.1-4-0.3-6.1-0.4
		c-4,0-7.6-0.9-10.7-3.7c-0.1-0.1-0.2-0.2-0.3-0.2c-0.5-0.5-1.5-1-1.6-1.6C-0.1,18.3,0,17,0.6,15.8c0.7-1.2,1.7-2,2.8-2.6
		c2.4-1.2,4.9-2.1,7.6-2.6c3.3-0.7,6.7-0.8,10.1-0.7c1.6,0,3.2,0,4.9,0c1.2,0,2.1-0.4,2.7-1.6c0.5-1,1.3-2,2.2-2.8
		c1.6-1.6,3.3-3.3,5.1-4.7c1.5-1.2,2.2-0.9,3,0.8c0.5,1.1,0.9,2.2,1.3,3.3C40.7,6,41,7.2,41.4,8.4c0.3,1,0.7,1.9-0.5,2.7
		c-0.3,0.2-0.2,0.5,0.2,0.6c0.1,0,0.1,0,0.2,0c2.3,0.1,4.6,0.2,7,0.4c0.4,0,0.8,0,1.2,0.2c1.2,0.3,2.3,0.2,3.5-0.1
		c0.9-0.3,1.9-0.4,2.8-0.4c0.6,0,1.1,0.3,1.7,0.5c0.5,0.3,0.4,0.6-0.1,1c-0.1,0.1-0.3,0.2-0.4,0.3c0.1,0.1,0.2,0.3,0.4,0.3
		c1.5,0.1,3,0.4,4.4,0.3c1.6-0.1,3.2-0.4,4.8-0.7c1.9-0.3,3.8-0.7,5.8-1c2.4-0.5,4.9-0.4,7.3-0.4c0.2,0,0.5,0,0.7,0
		c1,0.2,1.3,0.9,0.7,1.6c-0.6,0.7-1.4,1.3-2.1,2c-0.2,0.2-0.4,0.2-0.6,0.4c-1,0.8-1,0.8,0.1,1.5c1,0.7,1.9,1.4,2.9,2.1
		c0.9,0.7,0.8,1.2-0.2,1.7c-0.5,0.2-1,0.4-1.5,0.4C79,21.8,78.4,21.8,77.8,21.8z"/>
	<path d="M45.2,20.9c0.2-0.2,0.4-0.5,0.5-0.5c0.2,0.1,0.4,0.3,0.6,0.4c-0.2,0.1-0.3,0.4-0.5,0.4C45.7,21.3,45.5,21.1,45.2,20.9z"/>
	<path d="M36.4,20.8c0.3,0.2,0.6,0.4,0.6,0.5c-0.1,0.2-0.3,0.4-0.4,0.6c-0.2-0.2-0.4-0.3-0.4-0.5C36,21.3,36.3,21.1,36.4,20.8z"/>
	<path d="M37.3,19.1c0.2,0.2,0.3,0.3,0.4,0.4c-0.2,0.1-0.4,0.3-0.6,0.4c0,0-0.3-0.3-0.2-0.4C36.9,19.4,37.1,19.3,37.3,19.1z"/>
	<path d="M28.6,20.6c-0.2-0.2-0.3-0.4-0.4-0.5c0.2-0.2,0.4-0.3,0.6-0.4c0,0,0.3,0.3,0.3,0.3C29,20.2,28.8,20.3,28.6,20.6z"/>
	<path d="M47.2,19.7c0.2,0.4,0.3,0.6,0.3,0.8c-0.1,0.2-0.3,0.2-0.5,0.4c-0.1-0.1-0.2-0.3-0.2-0.4C46.8,20.3,47,20.1,47.2,19.7z"/>
	<path d="M44.8,21c-0.3,0.3-0.4,0.4-0.5,0.6c-0.1-0.1-0.3-0.3-0.4-0.4c0-0.1,0.1-0.4,0.2-0.4C44.3,20.7,44.5,20.9,44.8,21z"/>
	<path d="M43.1,22.1c-0.2-0.3-0.5-0.5-0.4-0.6c0-0.2,0.3-0.3,0.5-0.4c0.1,0,0.4,0.2,0.4,0.2C43.4,21.5,43.3,21.7,43.1,22.1z"/>
	<path d="M42.1,22.4c-0.2-0.1-0.5-0.3-0.6-0.5c-0.1-0.1,0.2-0.4,0.3-0.5c0.1,0.1,0.3,0.3,0.4,0.4C42.2,22,42.1,22.2,42.1,22.4
		L42.1,22.4z"/>
	<path d="M7.6,16.9c0,1.1-1.1,2-2.1,2c-1.1-0.1-2-1.2-1.9-2.4c0.1-1,1-2,1.9-2C6.6,14.6,7.6,15.7,7.6,16.9z"/>
</g>
</svg>
