<?xml version="1.0" encoding="iso-8859-1"?>
<!-- Generator: Adobe Illustrator 25.3.0, SVG Export Plug-In . SVG Version: 6.00 Build 0)  -->
<svg version="1.1" id="Calque_1" xmlns="http://www.w3.org/2000/svg" xmlns:xlink="http://www.w3.org/1999/xlink" x="0px" y="0px"
	 viewBox="0 0 223.7 183.5" style="enable-background:new 0 0 223.7 183.5;" xml:space="preserve">
<g>
	<path d="M37.6,111.3c0-1,0-2,0-3c0.1-6.1,0.2-6.4-5.2-8.7c-7.6-3.2-15-7.2-23.2-8.8c-2.1-0.4-4.3-0.3-6.4-0.7
		c-1-0.2-2.2-0.9-2.7-1.7c-0.3-0.4,0.5-1.8,1.2-2.4c2.1-1.9,4.2-3.7,6.5-5.4c8-5.6,16.1-11.2,24.2-16.7c2.1-1.4,3.5-2.7,4-5.7
		c1.4-8.2,4.6-15.9,9.5-22.8c0.4-0.5,0.6-1.2,1.1-1.7c0.7-0.6,1.6-1.1,2.4-1.6c-0.1,0.9-0.1,1.9-0.5,2.6c-0.9,1.8-2,3.5-3,5.2
		c-3.3,5.5-5.5,11.3-6.1,17.7c-0.1,1.5,0.5,1.3,1.3,0.8c6-3.6,11.9-7.3,17.8-11c7.2-4.4,14.6-8.7,22.5-11.8c0.2-0.1,0.3-0.2,0.5-0.2
		c5.4-1.7,8.5-5.3,10.2-10.6c1.8-5.5,3.8-11,6-16.3c4.4-10.1,17.7-11.5,24.6-2.9c3.5,4.3,5,9.3,6.6,14.4c0.4,1.4,0.7,2.9,1.2,4.3
		c1.3,3.5,3.2,6.3,7,7.9c6.1,2.5,12.1,5.5,18,8.5c6.6,3.4,13.2,7,19.6,10.9c7.5,4.6,14.7,9.6,22.2,14.3c5,3.2,10.1,6.4,15.4,9.1
		c5,2.5,8.2,6.6,11,11.2c0.9,1.5,0.4,2.6-1.1,3.2c-1.4,0.6-2.8,1.2-4.2,1.5c-10.6,2.2-20.5,6.5-30.4,10.9c-7.9,3.5-15,8.6-21.6,14.2
		c-7,5.9-14,11.7-21,17.6c-1.8,1.5-2.6,2.9-1,5c1.1,1.4,0.6,2.5-0.8,3.3c-4.7,2.4-9.5,4.8-14.2,7.2c-0.3,0.1-0.7,0.2-1,0.1
		c-0.9-0.1-1.9-0.3-2.8-0.4c-0.1,1.3-0.3,2.6-0.3,3.9c-0.1,1.3,0.1,2.7-0.1,4c-0.2,1.5-1.3,2.6-2.7,2.3c-0.9-0.2-1.7-1.3-2.3-2.2
		c-0.3-0.3-0.1-1-0.2-1.5c-0.1-0.8-0.3-1.7-0.5-2.5c-0.2,1-0.6,1.9-0.6,2.9c0,1.1,0.4,2.2,0.8,3.2c0.9,2.4,0.6,4.3-1.1,6.4
		c-3.3,4.3-7,7.9-11.3,11.2c-2.5,1.9-4.8,4.1-7.2,6.2c-0.4,0.4-1.1,0.5-1.6,0.8c0.1-0.6,0-1.2,0.2-1.7c0.1-0.5,0.5-0.8,0.8-1.2
		c-0.4-0.1-0.9-0.4-1.3-0.3c-13.3,3-23.9-3.3-33.9-10.6c-4-2.9-7.5-6.5-10.9-10.2c-4.3-4.6-6.2-10.6-8.3-16.3
		c-2.3-6.4-4.2-12.9-5.8-19.5c-1-4-1.2-8.2-1.7-12.3C37.2,111.3,37.4,111.3,37.6,111.3z"/>
	<path d="M101.8,19.1c-1.1,1.4-2.2,2.5-0.2,4.4c2.1,2,0.1,8.1-2.6,9.4c-2.4,1.1-5.8-1.3-5.2-4c1-4.4,3-8.3,7.8-9.9L101.8,19.1z"/>
	<path d="M124.7,42.6c0.7-3.1,1.3-5.8,2.1-8.5c0.1-0.3,0.8-0.8,1-0.8c0.8,0.2,1.5,0.6,2.2,1c0.1,0,0,0.6-0.2,0.7
		c-3.4,1.7-1.5,5.4-3,7.8c-0.3,0.5-0.8,1-1.2,1.5C125.3,43.7,125,43,124.7,42.6z"/>
	<path d="M98,43c-0.2,1.2-0.4,2.3-0.7,3.5c-0.6-1.1-1.4-2.1-1.6-3.3c-0.5-2.2-0.8-4.5-1-6.8c-0.1-0.6,0.6-1.3,0.9-2
		c0.4,0.5,1,0.9,1.1,1.4C97.2,38.1,97.6,40.6,98,43z"/>
	<path d="M108.7,5.1c0.5,0.1,1,0.1,1.4,0.3c0.6,0.4,1,2,1.8,0c0.5-1.1,1-2.6,2.8-2.4c-0.3,2.7-2.3,4.3-4,6l0,0
		C107.8,8.9,108.9,6.6,108.7,5.1z"/>
	<path d="M113.6,138.1c-0.3-0.5-0.8-1-0.7-1.5c0.2-1.5,0.5-3.1,0.8-4.6l0,0c0.9-1.1,1.8-2.2,2.8-3.4c-0.2,1.4-0.5,2.8-0.6,4.2
		c-0.1,2,0,4-2.1,5.1L113.6,138.1z"/>
	<path d="M113.8,138c1.4,0.2,4.1-0.6,1.7,2.4c-0.3,0.3,0.2,1.2,0.2,1.8c0,0.5-0.2,0.9-0.3,1.4c-0.3-0.3-0.7-0.6-0.9-1
		c-0.6-1.4-2-2.7-0.8-4.4L113.8,138z"/>
	<path d="M112.3,44.6c-0.1,0,0.6,0.3,1.3,0.7c-0.6,0.5-1.3,1.6-1.7,1.5c-1-0.2-2.7-1-2.7-1.5C109.1,43.4,110.5,44.7,112.3,44.6z"/>
	<path d="M113.5,55.9c-1.1,1.2-1.8,2.1-2.6,2.9c-0.1,0.1-0.7-0.2-0.8-0.4c-0.1-0.9-0.2-1.9,0.1-2.7c0.2-0.4,1.4-0.3,2.1-0.3
		C112.8,55.5,113.2,55.8,113.5,55.9z"/>
	<path d="M108.6,20.6c-1,1-2.1,2.1-3.2,3.2c0,0-0.3-0.3-0.3-0.3c0.7-1.4,1.4-2.7,2.2-4.1c0.1-0.1,0.6-0.1,0.8,0
		C108.3,19.6,108.4,20,108.6,20.6z"/>
	<path d="M113.7,76.1c-0.3-0.4-0.5-0.8-0.8-1.2c-0.6-0.9-2.6,0.8-2.4-1.3c0-0.2,2.5-0.6,3.4-0.2C115.1,73.9,115.1,75.2,113.7,76.1
		L113.7,76.1z"/>
	<path d="M116.4,23.4c-0.1,0.1-0.2,0.3-0.3,0.3c-0.3,0-0.8,0.1-0.8,0c-0.8-1.3-1.5-2.7-2.1-4.1c0,0,0.2-0.2,0.3-0.3
		c0.9,1.2,1.9,2.4,2.8,3.7C116.3,23.1,116.3,23.3,116.4,23.4z"/>
	<path d="M112.7,87c1.9,1,2.5,2.3,1.5,3.5c-0.1,0.2-1.1,0-1.1-0.1C112.9,89.3,112.8,88.2,112.7,87L112.7,87z"/>
	<path d="M118.2,74c-0.5-0.2-1-0.5-1-0.5c0.4-1,0.8-2.1,1.2-3.1c0-0.1,0.4-0.1,0.5,0c0.2,0.2,0.7,0.5,0.6,0.6
		C119.1,72,118.6,73,118.2,74z"/>
	<path d="M108.1,75.2c0.2,1.9,0.5,2.8,0.4,3.6c0,0.3-0.8,0.6-1.2,0.9c0-0.9-0.1-1.7-0.1-2.6C107.3,76.8,107.5,76.5,108.1,75.2z"/>
	<path d="M127.7,97.1c-0.5,0.4-0.7,0.5-1,0.7c-0.5-0.9-1.1-1.9-1.5-2.8c0-0.1,0.5-0.5,0.8-0.7C126.6,95.2,127.2,96.2,127.7,97.1z"/>
	<path d="M101.8,115c-0.5,0.4-0.7,0.6-0.9,0.8c-0.6-0.9-1.1-1.7-1.6-2.6c0-0.1,0.4-0.4,0.6-0.7C100.5,113.4,101.2,114.2,101.8,115z"
		/>
	<path d="M110.7,9.1c0.7,0.5,1.7,0.8,2.2,1.5c0.4,0.5,0.1,1.4,0.2,2.1c-0.5-0.5-0.9-1-1.4-1.5c-0.3-0.3-0.6-0.7-0.9-1.1l-0.1-0.1
		C110.7,9.7,110.7,9.4,110.7,9.1L110.7,9.1z"/>
	<path d="M102,92.1c-0.6-0.4-1.1-0.7-1.1-0.7c0.4-0.9,0.9-1.8,1.4-2.7c0.1,0.3,0.3,0.6,0.3,0.9C102.5,90.4,102.3,91.2,102,92.1z"/>
	<path d="M112.7,87.1c-2.4,0.3-1-1.6-1.5-2.5c0.4-0.1,0.9-0.4,1.2-0.3C113.9,85,113.3,86,112.7,87.1L112.7,87.1z"/>
	<path d="M128.7,45.5c0.5,1.1,0.9,1.6,0.8,1.9c-0.4,0.7-1,1.4-1.5,2.1c-0.1-0.5-0.3-0.9-0.2-1.4C127.9,47.4,128.2,46.7,128.7,45.5z"
		/>
	<path d="M115.1,125.2c0.3-0.9,0.4-1.4,0.6-2c0.3,0.7,0.9,1.3,1,2c0.1,0.4-0.5,0.9-0.8,1.3C115.6,126,115.3,125.5,115.1,125.2z"/>
	<path d="M101.6,19c0.4-0.6,0.7-1.3,1.3-1.7c0.3-0.2,1,0.4,1.5,0.6c-0.4,0.4-0.8,0.9-1.2,1.1c-0.4,0.2-0.9,0.1-1.4,0.1L101.6,19z"/>
	<path d="M113.7,132.1c-1,0-1.9-0.1-1.9-1.4c0-0.4,0.3-0.8,0.5-1.3c0.5,0.3,1.1,0.4,1.3,0.8C113.8,130.7,113.7,131.4,113.7,132.1
		L113.7,132.1z"/>
	<path d="M110.7,10.1c0,0.2,0.1,0.4,0,0.5c-0.7,0.8-1.4,1.5-2.1,2.3c-0.1-0.1-0.3-0.3-0.3-0.4C108.5,11.1,108.9,9.9,110.7,10.1
		C110.7,10,110.7,10.1,110.7,10.1z"/>
	<path d="M113.7,76.1c-0.3,0.6-0.6,1.3-0.9,1.9c-0.6-0.3-1.2-0.6-1.8-0.9c0.4-0.3,0.9-0.8,1.4-0.9C112.7,75.9,113.2,76.1,113.7,76.1
		L113.7,76.1z"/>
</g>
</svg>
