<?xml version="1.0" encoding="iso-8859-1"?>
<!-- Generator: Adobe Illustrator 25.3.0, SVG Export Plug-In . SVG Version: 6.00 Build 0)  -->
<svg version="1.1" id="Calque_1" xmlns="http://www.w3.org/2000/svg" xmlns:xlink="http://www.w3.org/1999/xlink" x="0px" y="0px"
	 viewBox="0 0 83.3 30.2" style="enable-background:new 0 0 83.3 30.2;" xml:space="preserve">
<g>
	<path d="M34.9,16.6c-6.5,0-13,0-19.4,0c-1.4,0-2.8,0-4.1-0.4c-3-0.9-6-1.1-9-1c-0.6,0-1.2,0-1.8-0.2C0.4,14.9,0,14.5,0,14.3
		c0-0.2,0.3-0.6,0.6-0.7c1.4-0.5,2.8-1,4.2-1.3c0.6-0.1,1.1-0.3,1.5-0.8c-0.5-0.3-0.9-0.7-1.5-0.8c-1.1-0.2-2.2-0.3-3.3-0.4
		c-0.5,0-0.9-0.2-1.1-0.7c-0.2-0.6,0.2-1,0.6-1.2c0.8-0.4,1.6-0.9,2.4-1c1.1-0.1,2.1-0.4,3-1c2.3-1.3,4.9-1.6,7.5-2
		c1.3-0.2,2.6-0.4,3.8-0.8c2.3-0.7,4.6-1.5,7-2.1c1.5-0.4,3-0.4,4.6-0.6c3.7-0.5,7.5-0.3,11.3-0.3c0.9,0,1.9-0.3,2.8-0.3
		c0.4,0,0.9,0,1.2,0.2c0.5,0.2,1,0.1,1.5,0c0.8-0.1,1.6,0,2.5,0c0.8,0,1.7,0.3,2.5,0.1c3-0.5,5.9-0.5,8.9,0c1.3,0.2,2.6,0,3.9,0.1
		c1.9,0.1,3.8,0.4,5.7,0.6c1.2,0.1,2.5,0.3,3.7,0.5c2.8,0.4,5.3,1.3,7.4,3.2C80.9,5,81.4,5.6,81.4,6c-0.1,1.4,0.8,2.5,1.1,3.7
		c0.3,1,0.6,2,0.7,3.1c0.4,2.8-0.9,5.1-2.6,7.2c-1,1.2-1.8,2.6-2.8,3.8c-0.6,0.8-1.3,1.4-2.2,1.7c-0.3,0.1-0.6,0.2-0.8,0.3
		c-2,1.1-4.1,1.8-6.4,2.2c-1.7,0.3-3.5,0.8-5.2,1.1c-1.3,0.3-2.7,0.5-4,0.6c-1.9,0.2-3.9,0.3-5.9,0.4c-2,0.1-4,0-5.9,0
		c-1.6,0-3.3,0.1-4.9,0c-2.7-0.3-5.4-0.2-8.2-0.6c-1.9-0.3-3.9-0.4-5.7-1.1c-0.5-0.2-1.1-0.5-1.6-0.8c-1.3-1-1.2-2,0.2-2.8
		c1.1-0.6,2.2-1.2,3.4-1.5c2.3-0.7,4.7-1.2,7-1.8c4.2-1,8.4-2,12.6-3c2-0.5,4-1.1,6-1.6c0.1,0,0.2-0.1,0.3-0.1
		c-0.1,0-0.3-0.1-0.4-0.1c-0.6,0-1.2,0-1.8,0C47.9,16.6,41.4,16.6,34.9,16.6z"/>
	<path d="M21.9,12.9c-0.1,0-0.3-0.1-0.4-0.2c-0.2-0.2-0.3-0.4-0.4-0.6c-0.3-0.5-0.9-1.2-0.3-1.5c0.9-0.5,0.7,0.6,1,1
		c0.1,0.1,0.3,0.3,0.5,0.4c0.1-0.2,0.3-0.4,0.3-0.6c0.1-0.7-0.3-1.1-0.9-1.3c-0.2-0.1-0.3-0.3-0.4-0.5c0.2-0.1,0.3-0.2,0.5-0.2
		c1.1-0.4,2.1-0.8,3.2-1.1c1.2-0.4,1.8,0.3,1.6,1.5c-0.4,1.7-1.1,2.3-2.9,2.6C23,12.3,22.5,12.6,21.9,12.9z"/>
	<path d="M6.2,7.2c0.5,0.1,1.1,0.1,1.5,0.4C8.5,8.1,8.4,9,7.5,9.5C6.7,9.9,6.2,9.6,5.7,9.1C5.1,8.6,5.3,8.1,5.8,7.6
		C5.9,7.5,5.9,7.4,6,7.3C6.1,7.3,6.1,7.2,6.2,7.2z"/>
</g>
</svg>
