<?xml version="1.0" encoding="iso-8859-1"?>
<!-- Generator: Adobe Illustrator 25.3.0, SVG Export Plug-In . SVG Version: 6.00 Build 0)  -->
<svg version="1.1" id="Calque_1" xmlns="http://www.w3.org/2000/svg" xmlns:xlink="http://www.w3.org/1999/xlink" x="0px" y="0px"
	 viewBox="0 0 96.6 26.2" style="enable-background:new 0 0 96.6 26.2;" xml:space="preserve">
<g>
	<path d="M74.8,8.7c-1.7,0-3.5,0.1-5.2,0c-1.8-0.1-3.5-0.4-5.3-0.6C63.4,8,62.5,7.9,61.6,8c-2.6,0.3-5.2,0.7-7.8,1
		c-1.6,0.2-3.3,0.2-5,0.4c-2.7,0.4-5.3,0.3-8,0.3c-2.5,0-5-0.4-7.5-1C30,8.1,26.7,7.2,23.2,7.2c-1.5,0-3.1-0.4-4.6-0.6
		c-0.2,0-0.5-0.1-0.7-0.1C15,6.4,12,6.3,9,6.2c-0.7,0-1.3,0-2,0C6.4,6.1,6.2,6.3,5.9,7C5.7,7.7,5,8.3,4.4,8.9C4.3,9,3.9,9,3.8,8.9
		C3.6,8.7,3.5,8.4,3.5,8.2c0-0.3,0.2-0.6,0.3-0.8c0.1-0.7,0-1.5-0.6-1.7C2.2,5.1,1.6,4,0.4,4C0.2,4,0,3.6,0,3.4
		c0-0.3,0.1-0.6,0.2-0.9c0.2-0.9,0.3-0.9,1.3-0.8c0.9,0.1,1.7,0.1,2.6-0.2C6.6,0.9,9,0.3,11.5,0.4c3.5,0.1,6.9,0,10.4,0
		c1.8,0,3.5,0.3,5.3,0.6c2.3,0.4,4.7,0.5,7,0.9c1.9,0.3,3.8,0.3,5.7,0.3c2.3-0.1,4.6-0.2,6.9-0.4c1.1-0.1,2.2-0.6,3.3-0.8
		c3.1-0.6,6.2-1.1,9.4-0.8c2.5,0.2,5,0.8,7.5,1.3C68.7,1.6,70.3,2,72,2.2c3.3,0.4,6.6,0.7,9.9,1.1c1.8,0.2,2.8,1.9,2.4,3.5
		c-0.2,0.7-0.4,1.1-1,1.3c-0.9,0.3-1.8,0.6-2.7,0.6C78.6,8.8,76.7,8.7,74.8,8.7C74.8,8.7,74.8,8.7,74.8,8.7z"/>
	<path d="M86.9,25.1c-1.7,0-3.5,0.1-5.2,0c-1.9-0.1-3.8-0.4-5.7-0.6c-0.8-0.1-1.7-0.1-2.5,0c-3.3,0.5-6.7,0.7-10,1.2
		c-3.8,0.5-7.6,0.5-11.4,0.6c-1.7,0-3.4-0.2-5.1-0.6c-2.9-0.7-5.8-1.2-8.7-1.8c-0.1,0-0.2,0-0.4,0c-2.1-0.1-4.3-0.2-6.4-0.4
		c-2.8-0.2-5.7-0.4-8.5-0.6c-1.2-0.1-2.3-0.1-3.5-0.1c-0.7,0-1,0.2-1.3,0.9c-0.3,0.7-0.9,1.2-1.4,1.8c-0.2,0.2-0.6,0.2-0.8,0.1
		c-0.1,0-0.3-0.4-0.2-0.6c0.9-2.2-0.4-3-2.1-3.7c-0.2-0.1-0.3-0.2-0.4-0.3c-1.2-0.6-1.1-0.5-0.8-1.6c0.2-0.7,0.6-0.9,1.2-0.8
		c1.5,0.3,2.9-0.3,4.3-0.6c2-0.5,3.9-0.9,6-0.8c3.3,0.1,6.6-0.1,9.9,0.1c2.7,0.1,5.3,0.6,7.9,0.9c1,0.1,2,0.4,3,0.4
		c3,0.2,6.1,0.5,9.1,0.4c1.8-0.1,3.7-0.2,5.5-0.4c0.5,0,0.9-0.2,1.4-0.4c2.6-0.9,5.3-1.2,8-1.1c0.8,0,1.5,0.1,2.3,0
		c3.3-0.3,6.5,0.7,9.7,1.4c2.3,0.5,4.6,0.6,6.9,0.8c2.1,0.2,4.2,0.5,6.4,0.7c0.3,0,0.7,0.2,1,0.3c1.5,0.6,2.2,2.2,1.5,3.7
		c-0.1,0.2-0.3,0.4-0.5,0.5c-1.1,0.3-2,1-3.2,0.9C90.7,25.1,88.8,25.2,86.9,25.1C86.9,25.2,86.9,25.1,86.9,25.1z"/>
</g>
</svg>
