<?xml version="1.0" encoding="iso-8859-1"?>
<!-- Generator: Adobe Illustrator 25.3.0, SVG Export Plug-In . SVG Version: 6.00 Build 0)  -->
<svg version="1.1" id="Calque_1" xmlns="http://www.w3.org/2000/svg" xmlns:xlink="http://www.w3.org/1999/xlink" x="0px" y="0px"
	 viewBox="0 0 72.2 39" style="enable-background:new 0 0 72.2 39;" xml:space="preserve">
<g>
	<path d="M72.1,20.2c0,1.4,0,2.9,0,4.3c0,2-1.1,3-3.1,3.1c-1.2,0-2.3-0.1-3.3-0.5c-2.6-0.9-5.1-1.9-7.7-2.8
		c-1.8-0.6-3.6-0.3-5.4,0.3c-0.1,0-0.2,0.2-0.3,0.3c0.1,0,0.2,0.1,0.4,0.1c0.4,0,0.7,0,1.1,0c2.5,0.3,4.3,2.5,4.1,5
		c-0.1,0.7-0.3,1.2-0.9,1.6c-1.2,0.9-2.6,1.2-4.1,0.9c-0.6-0.1-1.3-0.2-1.9-0.2c-0.6,0-1,0.4-1.3,0.8c-0.3,0.5,0.1,0.9,0.5,1.2
		c0.2,0.2,0.4,0.3,0.5,0.5c0.1,0.1,0.1,0.3,0.2,0.5c-0.2,0.1-0.4,0.2-0.5,0.2c-1-0.4-2-0.7-2.9-1.2c-0.7-0.4-1.3-1-2-1.5
		c-0.2-0.1-0.5-0.1-0.6,0c-0.1,0.1-0.2,0.4-0.2,0.6c0,0.2,0.2,0.4,0.2,0.7c0,0.2-0.1,0.3-0.1,0.5c-0.2,0-0.4,0-0.4-0.1
		c-0.3-0.3-0.7-0.7-0.9-1.1c-0.6-0.9-1.2-1.7-1.7-2.7c-0.4-0.8-1-1-1.8-0.8c-2.8,0.8-5.5-0.1-8.3-0.3c-0.2,0-0.4-0.1-0.5,0
		c-0.1,0-0.3,0.1-0.4,0.2c0.1,0.1,0.1,0.2,0.2,0.3c0.7,0.3,1.4,0.6,2.1,0.9c0.8,0.3,1.3,1,1.3,1.8c0.1,1.7,0,3.4-0.2,5.1
		c-0.2,1.5-1.1,1.8-2.4,1.1c-0.9-0.5-1.8-1.2-2.6-1.9c-2.4-2-4.2-4.4-5.2-7.3c-0.2-0.5-0.4-0.9-1-0.8c-3.2,0.3-6.1-1.1-9-1.8
		C10.1,25.9,7,24,4,21.7c-0.9-0.7-1.9-1.4-2.9-2.1c-0.3-0.2-0.6-0.6-0.8-0.9c-0.5-0.8-0.4-1.3,0.2-1.9c0.3-0.3,0.6-0.5,1-0.8
		c3.2-2,6.5-4,9.7-6.1c2.6-1.7,5.4-3.1,8.4-3.9c1.5-0.4,2.1-1.3,2.1-2.8c0-0.3,0-0.7,0.2-1c0.2-0.4,0.4-1.1,0.7,0
		c0.2,0.5,0.8,0.4,1.1,0.1c0.5-0.7,0.9-1.5,2-1c0.2,0.1,0.8-0.6,1.2-0.9c0.2-0.2,0.5-0.5,0.6,0.1C27.6,1,27.8,1,28.3,0.7
		c0.5-0.4,1-1.4,1.5,0.1c0.2,0.5,0.7,0.2,1-0.1C31.3,0.1,31.7,0,32,0.9c0.2,0.6,0.8,0.6,1.3,0.2c0.6-0.4,1.2-0.9,1.1,0.4
		c0,0.1,0.2,0.2,0.2,0.2c0.7-0.2,1.5-0.4,1.8,0.7c0,0.1,0.8-0.1,1.2-0.1c0.2,0,0.4,0.1,0.6,0.1c-0.3,1,0.5,0.8,1,0.8
		c0.5,0,0.6,0.1,0.7,0.7c0.1,0.6,0.8,0.5,1.2,0.3C41.7,4,42,3.7,42.1,4.5c0,0.1,0.3,0.3,0.6,0.4c0.6,0.1,1.1,0,1.6,0.5
		c0.2,0.2,0.9-0.1,1.3,0c0.4,0.1,0.2,0.9,0.9,0.9c0.5,0,1.2-0.1,0.9,0.8c0,0.1,0.2,0.2,0.2,0.2c1.3-0.5,2.4,0.9,3.8,0.1
		c1-0.6,2.4-0.7,3.6-0.7c1.4,0,2.9,0.2,4.1,1c0.9,0.5,1.4,1.7,1.1,2.6c-0.7,1.7-1.6,3.3-3.4,3.9c-0.8,0.3-1.7,0.2-2.6,0.3
		c-0.2,0-0.4,0.1-0.6,0.1c0.2,0.1,0.3,0.1,0.5,0.2c0.9,0.4,1.8,0.3,2.8,0.1c2.9-0.4,5.6-1.7,8.3-2.5c1-0.3,2-0.6,3.2-0.5
		c2.3,0.1,3.6,1.2,3.7,3.5C72.2,17.1,72.1,18.6,72.1,20.2z"/>
</g>
</svg>
