<?xml version="1.0" encoding="iso-8859-1"?>
<!-- Generator: Adobe Illustrator 25.3.0, SVG Export Plug-In . SVG Version: 6.00 Build 0)  -->
<svg version="1.1" id="Calque_1" xmlns="http://www.w3.org/2000/svg" xmlns:xlink="http://www.w3.org/1999/xlink" x="0px" y="0px"
	 viewBox="0 0 75.5 36.6" style="enable-background:new 0 0 75.5 36.6;" xml:space="preserve">
<g>
	<path d="M20.7,0.1c3.7-0.5,7.1,0.9,10.4,2.2c2.2,0.9,3.8,2.4,4.8,4.6c0.3,0.6,0.5,0.9,1.1,0.3c0.9-1,2.1-0.8,3.2-0.3
		c2.2,0.9,4.1,2.1,5.9,3.7c0.8,0.7,1.6,1.5,2.3,2.3c0.7,0.7,1.4,1.5,1.5,2.6c0,0.6,0.4,0.7,1,0.8c2.4,0.3,4.7,0.6,7,1.1
		c1,0.2,1.8,0.2,2.7-0.2c0.8-0.3,1.6-0.5,2.4-0.5c1.1-0.1,1.4,0.2,1.1,1.2c-0.2,0.7-0.1,0.8,0.5,0.9c0.8,0,1.5,0.2,2.3,0.3
		c1,0.2,1.8-0.2,2.6-0.6c1.4-0.7,2.8-0.9,4.4-0.8c1.3,0.1,1.9,0.6,1.5,1.8c-0.5,1.6-1.3,3-2.2,4.5c-0.4,0.7-1.2,0.7-2.1,0.3
		c-0.8-0.4-1.5-0.7-2.2-1.1c-1.4-0.7-2.9-0.9-4.5-0.5c-0.6,0.2-1.3,0.1-2,0.1c-1.3,0-2.6,0-4,0.1c-2.5,0.1-5,0.3-7.5,0.4
		c-0.5,0-0.8,0.3-1.1,0.7c-1.8,2.4-4,4.5-6.5,6.3c-0.6,0.4-1.2,0.8-1.8,1.1c-2.5,1.2-4.3,1-6.3-0.9c-0.4-0.3-0.5-0.2-0.6,0.1
		c-0.9,1.3-1.7,2.5-3,3.5c-1.9,1.4-4,2-6.2,2.5c-5.1,1-9.7-0.5-14-2.9c-1.7-1-3.4-2.1-5-3.4c-1.9-1.5-3-3.6-4.3-5.7
		c-1.1-1.8-1.5-3.9-1.8-5.9c-0.3-2.2,0.4-4.2,1.4-6.1C2.5,10,4,8.1,5.8,6.3C7,5.1,8.3,4,9.7,3.1c2.8-1.9,5.9-3,9.4-3
		C19.7,0.1,20.2,0.1,20.7,0.1z"/>
	<path d="M10,15.6c-0.5-0.1-0.8-0.1-1.1-0.2c-0.6-0.3-1-1-0.7-1.4c0.2-0.5,1.1-0.9,1.6-0.7c0.6,0.2,1.1,0.8,2,0.5
		c0.4-0.1,0.7,0.5,0.6,1c-0.1,0.4-0.5,0.6-0.8,0.4C10.7,14.7,10.4,15.8,10,15.6z"/>
	<path d="M10.1,21.6c-0.7,0.4-1.2,0.2-1.6-0.1c-0.3-0.3-0.7-0.7-0.7-1.1c-0.1-0.4,1.1-1,1.6-0.8c0.7,0.3,1.3,0.6,2.1,0.4
		c0.1,0,0.5,0.6,0.4,0.8C11.5,21.6,11.1,22.4,10.1,21.6z"/>
	<path d="M72,21.2c0.1,0,0.3,0,0.5,0.1c0.1,0.1,0.2,0.2,0.3,0.3c-0.1,0-0.3,0.1-0.4,0.1c-0.2,0-0.5,0-0.7-0.1
		c-0.1,0-0.2-0.1-0.4-0.2c0.1,0,0.2-0.1,0.3-0.1C71.7,21.2,71.8,21.2,72,21.2z"/>
</g>
</svg>
