<?xml version="1.0" encoding="iso-8859-1"?>
<!-- Generator: Adobe Illustrator 25.3.0, SVG Export Plug-In . SVG Version: 6.00 Build 0)  -->
<svg version="1.1" id="Calque_1" xmlns="http://www.w3.org/2000/svg" xmlns:xlink="http://www.w3.org/1999/xlink" x="0px" y="0px"
	 viewBox="0 0 79 54.5" style="enable-background:new 0 0 79 54.5;" xml:space="preserve">
<g>
	<path d="M24,54.5c-2.1,0.3-3.9-0.7-5.8-1.3c-2.6-0.8-4.7-2.1-6.9-3.7c-1.2-0.9-2.4-2-3.9-2.7c-0.2-0.1-0.4-0.3-0.5-0.5
		c-2.8-3.2-4.7-7-6-11c-0.6-1.8-1.1-3.8-0.9-5.8C0.2,28,0,26.6,0,25.1c0-2.6,0.8-4.9,1.6-7.3c1.2-3.4,3.1-6.4,5.5-9.1
		c1.7-1.8,3.8-3.3,6-4.4c1.4-0.7,2.8-1.5,4.2-2.1C20.1,0.9,23-0.1,26.1,0c1.4,0.1,2.8,0.6,4.2,0.9c2.9,0.6,5.2,2.2,7.6,3.9
		c1.5,1.1,3.1,2,4.5,3.2c1.2,1,2.4,2.2,3.5,3.3c0.3,0.3,0.8,0.7,1.3,0.7c0.6,0,1.2,0.1,1.8,0.1c1.4,0.1,2.6,0.7,3.4,1.7
		c1.9,2.3,3.7,4.6,5.6,6.9c0.9,1,1.3,2.1,1.3,3.4c0,0.5-0.1,1.1,0.7,0.5c0.4-0.3,0.9-0.4,1.3-0.5c1.5-0.3,2.6,0.3,2.7,1.7
		c0.1,0.8,0.4,1.1,1,1.5c1.9,1.3,4,2,6.4,1.8c1.6-0.2,3,0.5,4.5,1.1c1.6,0.6,2.3,1.9,2.7,3.6c0.3,1.5,0.6,2.9,0.6,4.4
		c-0.1,1.9-0.9,3.2-2.6,3.9c-1.4,0.7-2.8,0.5-3.9-0.6c-0.6-0.6-1.2-1.4-1.7-2.1c-1.3-1.9-2.4-3.9-3.7-5.9c-0.4-0.6-1-1.2-1.5-1.7
		c-0.4-0.3-0.9-0.7-1.4-0.7c-1.4-0.1-2.9-0.1-4.3-0.1c-0.5,0-0.6,0.3-0.6,0.7c-0.3,2.4-1.5,4.1-3.5,5.5c-1.6,1.1-3,2.5-4.4,3.9
		c-1.5,1.6-3.1,2.8-5.3,3c-0.5,0.1-0.8,0.2-1,0.6c-0.8,1.9-2.6,2.9-4.3,3.9c-3.3,2-6.8,3.7-10.5,4.8C28.2,54,26.2,54.6,24,54.5z"/>
	<path d="M9.8,23.4c-0.7-0.2-1.5-0.3-2.1-0.6c-0.3-0.1-0.5-0.7-0.5-1c0-0.2,0.5-0.4,0.8-0.6c0.1-0.1,0.3-0.1,0.5-0.1
		c0.9-0.1,1.9-0.2,2.8-0.3c0.8-0.1,1.4,0.2,1.5,0.7c0.1,0.6-0.2,1.2-0.7,1.5C11.3,23.2,10.6,23.3,9.8,23.4z"/>
	<path d="M8,30.5c-0.4-0.1-0.8-0.2-0.6-0.7c0.1-0.3,0.4-0.7,0.6-0.8c1.1-0.2,2.2-0.4,3.3-0.3c0.5,0,1.2,0.6,1.3,1
		c0.1,0.4-0.3,1.1-0.6,1.5c-0.4,0.5-0.7-0.2-1-0.3c-0.2-0.1-0.4-0.3-0.6-0.4c0.2-0.1,0.4-0.3,0.6-0.4c0.2-0.1,0.4,0,0.5-0.1
		c0.1,0,0.2-0.1,0.3-0.2c-0.1-0.1-0.2-0.3-0.3-0.4c-0.3-0.1-0.6-0.1-0.9,0c-0.6,0.2-1.1,0.3-1.7,0c-0.6-0.2-0.8,0.3-0.8,0.9L8,30.5z
		"/>
	<path d="M45.6,21.8c-0.4,0.9-0.8,1.7-1.2,2.6c0,0.1-0.2,0.1-0.3,0.1c0-0.1-0.1-0.2-0.1-0.3c0.1-0.4,0.2-0.8,0.3-1.2
		c0.1-0.5,0.2-0.9,0.4-1.4c0.1-0.2,0.2-0.4,0.4-0.6C45.3,21.2,45.4,21.5,45.6,21.8z"/>
	<path d="M43.9,29.9c0.2,0.1,0.3,0.2,0.3,0.2c0.3,0.5,0.5,0.9,0.7,1.4c0.2,0.4,0.4,0.8-0.1,1.2c-0.2-0.3-0.4-0.7-0.6-1
		c-0.2-0.5-0.4-1-0.6-1.5C43.7,30.2,43.8,30,43.9,29.9z"/>
	<path d="M24.1,29.3c-0.1,0.5-0.1,1-0.4,1.3c-0.2,0.3-0.9,0.6-1,0.4c-0.5-0.4,0.3-0.5,0.3-0.7c-0.1-0.6,0.3-0.8,0.7-1.1
		c0.1-0.1,0.2-0.1,0.3,0C24.1,29.2,24.1,29.3,24.1,29.3z"/>
	<path d="M8.1,30.4c0.2,0,0.4,0,0.5,0c0.4,0.1,0.8,0.2,1.1,0.3c0,0.1,0,0.3-0.1,0.3c-0.5,0.1-0.9,0.1-1.4,0.1
		c-0.1,0-0.2-0.4-0.3-0.6L8.1,30.4z"/>
	<path d="M27,24.2c-0.3-0.1-0.7-0.2-1-0.3c0,0-0.1-0.2-0.1-0.3c0,0,0.1-0.1,0.1-0.1c0.4,0.1,0.8,0.1,1.2,0.2c0,0,0.1,0.2,0.1,0.3
		C27.2,24.1,27.1,24.1,27,24.2z"/>
	<path d="M24.6,24.4c-0.2-0.6-0.1-1,0.4-1c0.1,0,0.3,0.3,0.2,0.3C25,24,24.8,24.1,24.6,24.4L24.6,24.4z"/>
	<path d="M24.6,24.3c0.2,0.2,0.5,0.5,0.7,0.7c0.1,0.2,0.1,0.4,0.1,0.6c-0.2-0.1-0.4-0.2-0.5-0.4C24.8,25,24.7,24.7,24.6,24.3
		C24.6,24.4,24.6,24.3,24.6,24.3z"/>
	<path d="M23,33c0,0.2,0.2,0.4,0.1,0.6c-0.1,0.2-0.3,0.4-0.5,0.6c0-0.2,0-0.5,0-0.7c0-0.2,0.1-0.3,0.1-0.5C22.8,33,22.9,33,23,33z"
		/>
	<path d="M49.2,34.6c-0.2-0.1-0.3-0.1-0.4-0.1c0.2-0.2,0.4-0.5,0.6-0.7c0,0,0.2,0.1,0.3,0.1C49.5,34.1,49.4,34.4,49.2,34.6z"/>
</g>
</svg>
