<?xml version="1.0" encoding="iso-8859-1"?>
<!-- Generator: Adobe Illustrator 25.3.0, SVG Export Plug-In . SVG Version: 6.00 Build 0)  -->
<svg version="1.1" id="Calque_1" xmlns="http://www.w3.org/2000/svg" xmlns:xlink="http://www.w3.org/1999/xlink" x="0px" y="0px"
	 viewBox="0 0 68.3 48" style="enable-background:new 0 0 68.3 48;" xml:space="preserve">
<g>
	<path d="M32.5,6.7c-3.1,3.2-6.1,6.4-8.6,10.1c-1,1.5-1.9,3.2-2.8,4.8c-0.1,0.2-0.2,0.5-0.1,0.7c0,0.2,0.2,0.4,0.4,0.5
		c0,0,0.3-0.1,0.4-0.3c1-1.3,1.9-2.7,3-4c1-1.3,2-2.5,3.1-3.7c1.7-1.8,3.5-3.6,5.3-5.2c1.2-1.1,2.5-2,3.8-3c0.2-0.1,0.5-0.1,0.8-0.2
		c-0.1,0.3-0.2,0.6-0.5,0.8c-0.9,0.7-1.8,1.4-2.7,2.1c-3.2,2.5-5.9,5.5-8.3,8.8c-0.9,1.2-1.8,2.3-2.7,3.6c-0.4,0.6-0.8,1.2-1,1.8
		c-0.1,0.3,0.1,0.8,0.2,1.1c0.1,0.3,0.3,0.4,0.5,0.1c0.5-0.6,1-1.2,1.5-1.8c1.3-1.6,2.5-3.3,3.9-4.8c2.2-2.4,4.4-4.7,7.1-6.5
		c0.1-0.1,0.3,0,0.5,0c0,0.2,0,0.5-0.1,0.6c-0.6,0.5-1.3,1-1.9,1.6c-1.8,1.7-3.6,3.5-5.3,5.3c-1.3,1.5-2.4,3.1-3.6,4.6
		c-0.2,0.2-0.3,0.6-0.2,0.8c0.1,0.3,0.3,0.7,0.5,0.8c0.2,0.1,0.7,0,0.8-0.1c0.9-1.1,2.2-1.4,3.4-1.9c1.3-0.5,2.5-0.3,3.7,0.3
		c1.1,0.5,2.1,1,3.2,1.5c0.4,0.2,0.9,0.4,1.3,0.6c3.1,1.9,6.3,3.8,9.4,5.7c1.2,0.7,2.3,1.4,3.5,2.2c0.1,0.1,0.2,0.2,0.3,0.4
		c-0.2,0.1-0.3,0.3-0.5,0.4c-0.2,0.1-0.4,0.1-0.6,0.2c0.2,0,0.3,0.1,0.5,0.1c2.3-0.2,4.2-1.2,6-2.6c1.9-1.6,4-3.1,6.3-4
		c1.5-0.6,3.1-1.2,4.8-1.2c0.3,0,0.6,0.1,0.8,0.2c-0.1,0.2-0.3,0.5-0.4,0.7c-1.1,1.2-2.1,2.4-3.3,3.5c-1.2,1.1-2.4,2.1-3.6,3.2
		c-0.5,0.4-1,0.8-1.4,1.3c-0.7,0.9-0.7,1.7,0,2.6c1.7,1.9,3.3,3.9,5.1,5.7c0.6,0.6,1.5,1,2.2,1.6c0.2,0.2,0.3,0.5,0.4,0.7
		c-0.2,0.1-0.5,0.3-0.7,0.3c-0.6,0-1.3-0.2-1.9-0.3c-2.6-0.6-4.8-1.8-6.6-3.7c-1.1-1.1-2.2-2.2-3.3-3.3c-0.5-0.5-1.1-0.8-1.8-1
		c-0.8-0.2-1.3,0.1-2,0.3c-2.3,0.9-4.4,2.1-6.2,3.8c-0.9,0.8-1.5,1.8-2.1,2.8c-0.4,0.6-0.8,0.7-1.3,0.3c-1.2-0.8-2.4-1.5-3.5-2.4
		c-0.5-0.3-0.8-0.4-1.4-0.3c-2.3,0.4-4.6,0.7-6.9,0.8c-1.9,0.1-3.8,0.1-5.8,0.1c-0.7,0-1.1,0.3-0.9,0.9c0.2,0.8,0.4,1.6,0.7,2.3
		c0.1,0.3,0.2,0.5,0.2,0.8c-0.3,0-0.7,0.1-1,0.1c-2-0.4-4-1.1-5.4-2.6c-1.3-1.4-3-1.6-4.7-1.9c-3.5-0.5-6.8-1.4-10-3
		c-1.6-0.8-2.5-2-2.6-3.7c0-0.6,0.3-1.4,0.7-1.9c1.8-1.9,3.7-3.7,5.8-5.2c1.5-1.1,3-2.1,4.7-2.9c0.6-0.3,0.8-0.6,0.5-1.4
		c-0.6-1.7-0.9-3.5-0.5-5.4c0.4-1.8,0.6-3.6,0.8-5.4c0-0.3,0.1-0.6,0.2-0.9c1.1-3.1,2.4-6.3,4.4-8.9c1.4-1.8,3.3-3.1,4.9-4.7
		c0.1-0.1,0.3,0,0.5,0c0,0.1,0,0.3-0.1,0.4c-0.6,0.6-1.2,1.1-1.8,1.7c-3,2.4-4.8,5.5-5.8,9.2c-0.4,1.4-0.9,2.7-1.3,4.1
		c-0.3,1.1-0.5,2.2-0.1,3.3c0.1,0.3,0.4,0.6,0.7,0.9c0.2-0.3,0.6-0.6,0.6-0.9c-0.1-4.5,2.5-8,4.6-11.7c1.5-2.7,3.7-4.9,6.2-6.8
		c0.2-0.2,0.5-0.3,0.8-0.4c0.1,0,0.3,0,0.3,0c0,0.2,0.1,0.4,0,0.5c-0.7,0.6-1.4,1.3-2.2,1.8c-1.2,0.9-2.2,2-3,3.2
		c-1.1,1.6-2.1,3.2-2.9,4.9c-1.2,2.2-2,4.5-2.6,7c-0.2,0.9,0,2,0.1,3c0,0.1,0.2,0.2,0.3,0.3c0.1-0.1,0.1-0.2,0.2-0.3
		c0.2-0.6,0.2-1.3,0.5-1.9c0.7-1.9,1.5-3.7,2.3-5.6c0.5-1,1.1-1.9,1.7-2.9c2-3.2,4.6-5.8,7.6-8.2c0.6-0.5,1.1-1.1,1.7-1.5
		c0.1-0.1,0.4,0,0.7,0c-0.1,0.2-0.1,0.5-0.2,0.5c-2.3,1.7-4.3,3.6-6.2,5.6c-0.9,1-1.8,2.1-2.5,3.2c-1.7,2.9-3.3,5.8-4,9.1
		c-0.2,0.7,0,1.5,0,2.3c0,0.1,0.2,0.3,0.3,0.4c0.1-0.1,0.2-0.2,0.3-0.3c0.3-0.9,0.6-1.8,1-2.6c1.1-3,2.9-5.7,5.1-8.1
		c1.3-1.4,2.6-2.9,4-4.3c1.4-1.3,3-2.5,4.5-3.8c0.1-0.1,0.3,0,0.4-0.1c0,0.2,0,0.4-0.1,0.5c-0.5,0.5-1,1.1-1.5,1.5
		c-3.7,3-6.9,6.4-9.6,10.3c-1.2,1.8-1.9,3.9-2.7,6c-0.1,0.2-0.1,0.5,0,0.7c0,0.1,0.1,0.3,0.1,0.3c0.2,0,0.3,0,0.5-0.1
		c0.1-0.1,0.2-0.3,0.3-0.4c1.1-2.3,2.7-4.3,4.3-6.3c2-2.5,4.2-4.9,6.5-7.1c0.4-0.4,0.9-0.7,1.4-1c0.1,0,0.2,0,0.3-0.1
		C32.5,6.5,32.5,6.6,32.5,6.7z"/>
	<path d="M32.3,6.5C33.2,5.7,34,5,35,4.2c0.1-0.1,0.3,0,0.5,0c0,0.1,0,0.4-0.1,0.4c-0.9,0.7-1.9,1.4-2.8,2.1
		C32.4,6.7,32.3,6.6,32.3,6.5z"/>
	<path d="M23.1,35c2,0.3,4,0.6,5.9,0.8c1.5,0.2,3,0.3,4.4,0.5c0.6,0.1,1.2,0.4,1.8,0.6c0.1,0,0.1,0.2,0.1,0.3c0,0.1-0.2,0.2-0.2,0.2
		c-0.9,0-1.8,0.2-2.7,0c-3.2-0.7-6.4-0.2-9.5,0.7c-1.7,0.5-3.5,0.8-5.3,0.8c-0.7,0-1.2-0.1-1.3-0.9c0-0.1-0.1-0.2-0.2-0.3
		c-0.2-0.4-0.5-0.7-0.7-1.1c0.5-0.2,0.9-0.5,1.4-0.6C19,35.6,21.1,35.3,23.1,35z"/>
	<path d="M53.6,34.9c1.3,0.5,1.5,0.8,1.4,1.8c0,0.7-0.4,1.1-1.1,1.1C55,36.6,54.2,35.8,53.6,34.9z"/>
	<path d="M2.7,36c-0.4,0.2-0.6,0.3-0.8,0.3c-0.2,0-0.3-0.2-0.4-0.4c0.2-0.1,0.3-0.3,0.5-0.3C2.2,35.6,2.3,35.8,2.7,36z"/>
</g>
</svg>
