<?xml version="1.0" encoding="iso-8859-1"?>
<!-- Generator: Adobe Illustrator 25.3.0, SVG Export Plug-In . SVG Version: 6.00 Build 0)  -->
<svg version="1.1" id="Calque_1" xmlns="http://www.w3.org/2000/svg" xmlns:xlink="http://www.w3.org/1999/xlink" x="0px" y="0px"
	 viewBox="0 0 87.8 13.1" style="enable-background:new 0 0 87.8 13.1;" xml:space="preserve">
<g>
	<path d="M49.7,6.2c7.7,0,15.5,0,23.2,0c2,0,3.9,0.3,5.9,0.3c1.5,0,3-0.2,4.4-0.4c0.3,0,0.6-0.2,0.8-0.3c0.4-0.2,0.3-0.5,0-0.7
		c-0.1-0.1-0.3-0.2-0.5-0.2c-1.6-0.3-3.2-0.8-4.9-0.8c-4.2,0.2-8.5,0-12.7,0.5c-2.5,0.2-5-0.3-7.5-0.1c-2.5,0.1-5.1,0.2-7.6,0
		c-4.2-0.4-8.3-0.7-12.5-0.7c-1.4,0-2.7,0-4.1-0.1c-2.6-0.1-5.1-0.3-7.7-0.3c-2.1,0-4.2,0.2-6.3,0.3c-0.3,0-0.6,0.1-0.8,0.2
		c-1.3,0.8-2.7,0.9-4.2,0.8c-2.5-0.1-4.9,0.6-7.4,1C6.6,6.2,5.2,6.4,3.8,6.6c-0.1,0-0.3-0.1-0.5-0.2c0.1-0.1,0.2-0.2,0.4-0.3
		c1.3-0.4,2.5-0.7,3.8-1c0.1,0,0.2-0.1,0.4-0.2c-0.1,0-0.2-0.1-0.3-0.1c-0.5,0-1-0.1-1.4,0C4.3,5.5,2.7,4.8,1,4.8
		c-0.2,0-0.5,0-0.7-0.1C0.2,4.6,0.1,4.5,0,4.3c0.1-0.1,0.2-0.3,0.4-0.3c0.5,0,1.1,0,1.6,0.1c1.5,0.3,3.1,0.3,4.6,0
		C7.8,3.9,9,3.9,10.1,3.7c1.1-0.2,2-0.6,2.9-1.2c0.9-0.7,2-1,3.2-0.9c0.9,0,1.8,0,2.6-0.5c0.3-0.2,0.7-0.2,1-0.2c0.5,0,1.1,0,1.6,0
		c4.7-0.1,9.3,0,14-0.4C42.6-0.2,49.8,0,56.9,0.2c6.4,0.2,12.8,0.1,19.2,0.2c2.4,0,4.6,0.7,6.8,1.3c0.8,0.2,1.5,0.8,2.1,1.3
		c1.2,1,1.2,2.8,0.2,4c-0.8,1-1.9,1.7-3.2,1.9c-2.2,0.3-4.3,0.9-6.5,0.9c-3.5-0.1-7.1,0-10.6,0c-2.9,0-5.8,0-8.6-0.4
		c-5.1-0.6-10.2-0.1-15.2-0.3c-2.3-0.1-4.5-0.4-6.8-0.3c-2.4,0.1-4.8,0.1-7.1-0.1c-2.1-0.2-4.3-0.3-6.4-0.3c-1.3,0-2.6,0.4-3.9,0.6
		c-0.5,0.1-1.1,0.2-1.2,0.9c0,0.7,0.6,0.8,1.1,1c1.5,0.7,3.1,0.5,4.7,0.6c1.7,0.1,3.4-0.1,5,0c13.5,0.7,27,0.1,40.5,0.3
		c1.4,0,2.7-0.3,4.1-0.3c5.3,0.1,10.7,0.2,16,0.3c0.2,0,0.4,0,0.5,0.1c0.1,0,0.2,0.1,0.2,0.2c0,0.1-0.1,0.3-0.1,0.3
		c-0.4,0.1-0.8,0.2-1.2,0.2c-1.7,0-3.4,0-5,0c-3.6,0-7.2,0-10.8,0C64,12.8,57.5,13,51,13.1c-9.5,0.1-19,0-28.4,0
		c-1.6,0-3.2-0.2-4.8-0.4c-1.2-0.2-2.1-0.7-2.6-1.9C14.7,9.6,14.9,8.6,16,8c1-0.5,2.2-0.8,3.4-1.1c0.6-0.2,1.2-0.2,1.8-0.3
		c2-0.2,4-0.4,6.1-0.4C34.7,6.2,42.2,6.2,49.7,6.2z"/>
</g>
</svg>
