<?xml version="1.0" encoding="iso-8859-1"?>
<!-- Generator: Adobe Illustrator 25.3.0, SVG Export Plug-In . SVG Version: 6.00 Build 0)  -->
<svg version="1.1" id="Calque_1" xmlns="http://www.w3.org/2000/svg" xmlns:xlink="http://www.w3.org/1999/xlink" x="0px" y="0px"
	 viewBox="0 0 80.3 32.8" style="enable-background:new 0 0 80.3 32.8;" xml:space="preserve">
<g>
	<path d="M78.9,4.9C77.1,4.7,75,4.5,73,4.3c-3.7-0.3-6.9,1.1-9.6,3.5c-1,0.9-2,2-2.3,3.5c-0.3,1.3-0.3,2.5,0.3,3.8
		c1,1.9,2.3,3.4,3.7,5c0.1,0.1,0.2,0.4,0.2,0.6c-0.2,0-0.3,0.2-0.5,0.1c-1.6-0.3-3.3-0.5-4.9-1c-2.2-0.7-4.4-1.6-6.5-2.5
		c-1.7-0.7-3.3-1-5-0.4c-1.2,0.4-2.4,0.8-3.5,1.3c-0.7,0.3-0.7,0.5-0.1,0.9c1.7,1.1,3.4,2,5.3,2.4c0.1,0,0.3,0.2,0.4,0.2
		c-0.1,0.1-0.2,0.4-0.3,0.4c-1.4,0.5-2.8,1.1-4.2,1.6c-1.1,0.4-2.2,0.7-3.4,1.1c-0.9,0.3-1.7,1-2.7,0.4c-0.1-0.1-0.4,0.1-0.6,0.2
		c-0.4,0.2-0.8,0.2-1.3,0c-1.2-0.3-2.5-0.3-3.3-1.5c-1,0.4-1.1-0.5-1.5-1c-0.5-0.9-0.8-1.1-1.7-0.9c-2.2,0.5-4.3,0.8-6.5,0.7
		c-1.2,0-2.3,0.5-3.5,0c-0.1,0-0.4,0.1-0.4,0.2c0,0.2,0,0.5,0.1,0.6c0.4,0.4,0.9,0.7,1.4,1.1c1.3,1,1.6,1.7,1.1,3.2
		c-0.5,1.5-0.8,2.9-0.2,4.5c0.1,0.2-0.1,0.4-0.1,0.6c-0.2-0.1-0.5-0.1-0.6-0.3c-1-1.4-2-3-3-4.4c-1.1-1.5-1.8-3.2-2.2-4.9
		c-0.2-0.7-0.5-0.9-1.2-1c-3.1-0.6-6.3-1-9.4-2.1c-2-0.7-3.8-1.8-5.6-2.8c-0.4-0.2-0.6-0.5-0.9-0.8c-0.3-0.3-0.6-0.6-0.2-1
		c0.1-0.1,0.2-0.2,0.2-0.3c-0.7-1.6,0.5-2.4,1.4-3.3C5.7,7.5,10.7,5.4,16.4,5c0.6,0,1-0.2,1.3-0.8c0.2-0.4,0.4-0.7,0.6-1.1
		c1-1.8,2.5-2.7,4.7-2.7c1.3,0,2.6-0.4,4-0.4c1.2-0.1,2.4-0.1,3.6,0.2c0.8,0.2,1.6-0.2,2.6,0c1.4,0.3,2.9,0.1,4.4,0.1
		c0.5,0,0.9,0.1,1.4,0.2c3.8,0.8,7.4,2.3,10.6,4.4c0.4,0.2,0.7,0.4,1.1,0.6c0.3,0.2,1,0.1,0.9,0.7c-0.1,0.3-0.6,0.5-1,0.6
		c-1.8,0.3-3.4,1-5,1.8c-0.1,0.1-0.3,0.1-0.4,0.2C45.3,8.8,45.4,9,45.6,9c1.7,0.4,3.3,0.9,5,1.2c0.6,0.1,1.3-0.2,1.8-0.5
		c2.2-1.1,4.3-2.4,6.4-3.5c2.8-1.6,5.8-2.6,9.1-2.7c3.9-0.2,7.7,0.3,11.5,1.1c0.2,0.1,0.5,0.1,0.7,0.2c0.1,0.1,0.2,0.3,0.2,0.4
		c-0.1,0-0.2,0.1-0.3,0.1C79.7,5.2,79.4,5.1,78.9,4.9z"/>
	<path d="M18.9,19.7c-0.4-0.2-0.9-0.4-1.4-0.8c-0.1-0.1-0.2-0.4-0.1-0.5c0.6-0.9,0.5-1.8,0.2-2.7c-0.1-0.4,0-0.7,0.4-0.8
		c1.5-0.7,2.9-1.5,4.4-1.9c2.4-0.7,4.9-1.3,7.4-1.9c0.3-0.1,0.7-0.1,1.1,0c0.3,0,0.6,0.2,0.9,0.3c-0.2,0.3-0.4,0.6-0.6,0.8
		c-1.8,1.1-3.3,2.5-4.8,3.9c-1.8,1.8-4.1,2.9-6.5,3.5C19.6,19.6,19.4,19.6,18.9,19.7z"/>
	<path d="M7.6,13.4c-1.2,0-2.3-0.9-2.4-1.9c-0.1-1,1.2-2.2,2.3-2.3c1-0.1,2.1,0.9,2.1,1.9C9.7,12.4,8.8,13.4,7.6,13.4z"/>
	<path d="M3.5,12.2c0.1-0.5,0.7-1.1,1.2-1c0.1,0,0.3,0.3,0.3,0.4c0,0.4-0.6,0.9-1.1,0.9C3.6,12.4,3.5,12.2,3.5,12.2z"/>
</g>
</svg>
