<?xml version="1.0" encoding="iso-8859-1"?>
<!-- Generator: Adobe Illustrator 25.3.0, SVG Export Plug-In . SVG Version: 6.00 Build 0)  -->
<svg version="1.1" id="Calque_1" xmlns="http://www.w3.org/2000/svg" xmlns:xlink="http://www.w3.org/1999/xlink" x="0px" y="0px"
	 viewBox="0 0 82.1 24.6" style="enable-background:new 0 0 82.1 24.6;" xml:space="preserve">
<g>
	<path d="M75.3,22.1c-0.9,0.2-1.5-0.2-2-0.8c-1.6-1.9-3.5-3.4-5.5-4.7c-1.8-1.2-3.8-1.9-6-2.1c-1.8-0.1-2.6,0.5-2.7,2.1
		c0,1.3-1.2,2.1-1.8,3.2c-0.6,0.9-1.4,1.7-2.2,2.4c-0.5,0.4-1.1,0.7-1.7,1c-1.5,0.6-3,1.3-4.7,1.3c-0.5,0-1.1,0.2-1.6,0.2
		c-0.6,0-1.2,0.1-1.8,0c-0.3,0-0.8-0.3-1-0.2c-1,0.5-1.7,0-2.5-0.3c-0.6-0.2-1.2-0.3-1.8-0.5c-1.5-0.6-2.2-1.6-2.6-3.1
		c-0.4-1.6-0.9-1.8-2.6-1.8c-3.5,0-6.9,0.6-10.3,1.2c-1.7,0.3-3.3,1-4.7,2c-1.4,1-3.1,1.3-4.7,1.4c-2.2,0.2-4.4,0.2-6.6-0.5
		c-1.1-0.3-2-0.8-2.9-1.4c-1-0.7-2.1-1.4-3.1-2.1c-0.3-0.2-0.8-0.5-0.9-0.8c-0.2-1.1-0.9-1.8-1.5-2.6c-0.1-0.1,0.1-0.3,0.1-0.5
		c1.5,0.4,0.4-0.7,0.4-0.9C0.5,13.7,0.2,12.9,0,12c0-0.1,0.1-0.3,0.2-0.4c0.1,0.1,0.1,0.2,0.2,0.3c0.1,0.4,0.3,0.8,0.4,1.1
		c0.1,0.3,0.3,0.6,0.5,1c0.1-0.3,0.1-0.7,0.2-1c0.1-0.1,0.2-0.2,0.4-0.4C2,12.9,2.1,13,2.2,13.2c0.1,0.2,0,0.4,0.1,0.5
		c0,0.1,0.1,0.2,0.1,0.3c0.1-0.2,0.1-0.3,0.1-0.5c0-0.2,0-0.4,0.1-0.5c0.2-0.1,0.4,0,0.6,0.1c0.1,0.1,0.1,0.3,0.1,0.5
		c0.1,0.3,0.3,0.5,0.4,0.7c0.1-0.2,0.1-0.5,0.2-0.7c0.2-0.6,0.4-0.2,0.6,0c0-0.2,0.1-0.5,0.1-0.5c-0.7-0.5-1.4-1-2.2-1.5
		c-0.2-0.1-0.5,0.2-0.8,0.4c-0.1,0.1-0.2,0.1-0.4,0.2c0-0.2-0.1-0.3-0.1-0.5c0-0.1,0-0.3,0.1-0.3c0.2-0.3,0.5-0.7,0.8-1
		c-0.4,0.2-0.8,0.3-1.1,0.5c-0.1,0-0.2,0-0.3-0.1c0-0.2,0-0.4,0.1-0.4C1.1,10,1.7,9.7,2.3,9.3c0.2-0.2,0.4-0.4,0.5-0.6
		c0.3-0.9,1.1-1.2,1.9-1.5C5.3,6.9,5.9,7,6.4,6.5c0.2-0.2,0.8-0.1,1.2,0.1c2.1,1,4.2,0.7,6.2-0.2c1.4-0.6,2.7-0.6,4.1-0.4
		c1.8,0.3,3.6,0.6,5.5,0.7c2.8,0.1,5.5,0.1,8.3,0c0.8,0,1.6-0.2,2.5-0.3c0.7,0,1.1-0.4,1.4-1c1-1.9,2.7-3.1,4.3-4.4
		c0.9-0.8,2.1-1.1,3.5-1c1.6,0.1,3.1,0.4,4.5,1.1c0.8,0.4,1.6,0.8,2.3,1.3c0.8,0.5,2,0.3,2.7,1.2c0.6,0.7,1.4,1.2,2.2,1.8
		c0.7,0.6,1.4,1,1.9,1.8c0.8,1.2,2,1.6,3.4,1.6c1.4,0,2.8,0,4.1,0c1.6,0,3-0.5,4.1-1.5C69.8,6.3,70.9,5,72,3.7
		c0.5-0.7,1-1.2,1.9-1.4c0.8-0.1,1.5-0.7,2.2-0.7c0.7,0,1.4,0.6,2.1,0.9C78.9,2.8,79.7,3.1,80,4c0.1,0.2,0.2,0.5,0.4,0.5
		C81.5,5,81.7,6.1,81.7,7c0.2,2.4,0.8,4.9-0.1,7.4c-0.3,0.8,0.3,1.6-0.3,2.3c-0.4,0.6-0.3,1.5-0.7,2.1c-0.6,0.9-0.9,2.1-2.2,2.3
		C77.4,21.5,76.4,21.8,75.3,22.1z"/>
	<path d="M74.6,13c0.2,1.8-0.6,3.4-1.6,5c-0.1,0.1-0.3,0.1-0.4,0.2c0-0.2-0.1-0.3-0.1-0.4c0.2-0.5,0.5-0.9,0.8-1.4
		c1-1.7,1-3.5,0.7-5.3c-0.2-0.9-0.5-1.8-0.7-2.7c-0.1-0.3,0-0.6,0-1c0.2,0.3,0.5,0.5,0.6,0.9C74.3,9.7,74.7,11.2,74.6,13z"/>
	<path d="M9.1,10.7c-0.3-0.5-0.8-0.8-0.7-1.1C8.5,9.4,9,9,9.3,9C9.5,9,10,9.5,10,9.7C10,10,9.5,10.3,9.1,10.7z"/>
</g>
</svg>
