<?xml version="1.0" encoding="iso-8859-1"?>
<!-- Generator: Adobe Illustrator 25.3.0, SVG Export Plug-In . SVG Version: 6.00 Build 0)  -->
<svg version="1.1" id="Calque_1" xmlns="http://www.w3.org/2000/svg" xmlns:xlink="http://www.w3.org/1999/xlink" x="0px" y="0px"
	 viewBox="0 0 211.1 97.1" style="enable-background:new 0 0 211.1 97.1;" xml:space="preserve">
<g>
	<path d="M105.6,97.1c-34.3,0-68.7,0-103,0.1c-2.1,0-2.6-0.4-2.6-2.6c0.1-30.7,0.1-61.3,0-92C0,0.4,0.4,0,2.6,0
		c61.3,0.1,122.7,0.1,184,0.1c7.7,0,15.3,0,23,0c1.3,0,1.5,0.2,1.5,1.5c0,31.3-0.1,62.7,0,94c0,2-1.1,1.5-2.1,1.5
		c-30.2,0-60.3,0-90.5,0C114.2,97.1,109.9,97.1,105.6,97.1z"/>
</g>
</svg>
