<?xml version="1.0" encoding="iso-8859-1"?>
<!-- Generator: Adobe Illustrator 25.3.0, SVG Export Plug-In . SVG Version: 6.00 Build 0)  -->
<svg version="1.1" id="Calque_1" xmlns="http://www.w3.org/2000/svg" xmlns:xlink="http://www.w3.org/1999/xlink" x="0px" y="0px"
	 viewBox="0 0 87.9 45.1" style="enable-background:new 0 0 87.9 45.1;" xml:space="preserve">
<g>
	<path d="M40.5,41.8c-1.6-0.2-3.2-0.3-4.8-0.5c-0.8-0.1-0.9,0-0.7,0.9c0,0.2,0.1,0.4,0.1,0.5c0,0.3-0.1,0.6-0.5,0.4
		c-2-1-4.2-1.6-5.9-3c-0.9-0.7-1.9-1.3-3.1-0.6c-0.2,0.1-0.3,0.1-0.5,0.1c-2.1,0.1-4.2,0.2-6.2,0.2c-1.7,0-3.2-0.8-4.8-1.3
		c-0.6-0.2-1.1-0.4-1.7-0.4c-1.1-0.1-2.2,0.2-3.1-0.7c-2.3-0.4-4.6-0.8-6.8-1.2c-0.6-0.1-1.3-0.1-1.5-0.8c-0.1-0.5,0-1.1,0.3-1.5
		c0.2-0.4,0.7-0.6,1.2-0.8c0.9-0.5,0.9-0.8,0-1.3c-0.5-0.3-1.1-0.5-1.6-0.8c-0.8-0.5-0.8-0.8-0.1-1.5c0.2-0.2,0.4-0.4,0.7-0.6
		c1.7-1.4,3.4-2.8,5.1-4.3c0.4-0.3,0.7-0.8,0.9-1.3c0.5-2.1,2-3.2,3.9-3.9c1.2-0.4,2.5-0.6,3.8-0.9c1.3-0.3,2.7-0.5,4-0.8
		c0.6-0.1,0.7-0.6,0.2-1c-0.8-0.8-1.7-1.5-2.5-2.3c-0.1-0.1-0.1-0.4-0.2-0.6c0.3,0,0.6-0.1,0.8,0c1,0.6,1.9,1.2,2.9,1.7
		c0.2,0.1,0.3,0.2,0.5,0.2c0.3,0.1,0.6,0.1,0.8,0.1c0-0.3,0-0.6-0.2-0.8c-0.5-0.9-1.1-1.8-1.6-2.8c-0.8-1.6-1.5-3.2-2.2-4.8
		c-0.1-0.2,0.1-0.4,0.1-0.7c0.2,0.1,0.5,0.2,0.6,0.4C19,9,20,10.6,20.9,12.2c0.4,0.7,1,1.2,1.7,1.4c0.4,0.1,0.7,0,0.8-0.4
		c0-0.8,0.1-1.6,0-2.3c-0.4-2.2-0.3-4.3,0-6.5c0.2-1.3,0.3-2.7,0.8-4c0-0.1,0.2-0.3,0.3-0.4c0.1,0.2,0.4,0.4,0.4,0.5
		c0,0.5-0.2,0.9-0.2,1.4c0.1,2,0.2,3.9,0.4,5.8c0,0.5,0.3,1,0.6,1.5c0.7,0.9,1.9,0.7,2.3-0.3c0.2-0.4,0.3-0.9,0.4-1.4
		c0.3-1.3,0.5-2.7,0.9-4c0.2-0.8,0.7-1.6,1.1-2.4C30.3,1.1,30.6,1,30.7,1C30.8,1,31,1.2,31,1.4c-0.1,0.5-0.2,0.9-0.3,1.4
		c-0.2,1.2-0.4,2.3-0.4,3.5c-0.1,1.2,0.9,2.1,2.1,2.1c0.6,0,0.9-0.4,1.1-0.9c0.6-1.4,1.1-2.9,2.1-4.1c0.2-0.3,0.4-0.6,0.7-0.8
		c0.2-0.2,0.6-0.3,0.9-0.5c-0.1,0.3-0.1,0.7-0.2,1c-0.4,1-0.9,1.9-1.4,2.8c-0.4,0.8-0.1,1.6,0.2,2.2c0.7,1.3,2,1.4,3,0.1
		c0.7-0.9,1.5-1.9,2.2-2.8c0.2-0.2,0.4-0.5,0.6-0.6c0.1-0.1,0.5-0.1,0.6,0c0.1,0.1,0.1,0.5,0,0.6c-0.5,0.6-1.1,1.2-1.6,1.9
		c-0.4,0.5-0.8,1.1-1,1.6c-0.4,0.8-0.3,0.9,0.5,1.3c1.2,0.5,1.9,0.3,2.8-0.6c1.1-1,2.3-1.9,3.4-2.8c0.1-0.1,0.2-0.1,0.3,0
		c0.1,0.1,0.1,0.2,0.1,0.3c-0.2,0.4-0.5,0.8-0.8,1.2c-0.6,0.7-1.3,1.4-1.9,2.1c-0.2,0.2-0.3,0.7-0.2,0.9c0.1,0.3,0.5,0.5,0.8,0.6
		c1.6,0.3,2.9-0.2,4.1-1.3c0.3-0.3,1.1-0.6,1.1-0.6c0.5,0.7-0.3,0.9-0.6,1.2c-0.5,0.5-1,0.8-1.5,1.2c-0.3,0.2-0.6,0.5-0.7,0.8
		c-0.1,0.2,0,0.5,0.1,0.8c0,0.1,0.5,0,0.6-0.1c1-0.5,1.9-1.1,2.9-1.6c0.2-0.1,0.4,0,0.6,0c-0.1,0.2,0,0.5-0.2,0.6
		c-0.5,0.4-1,0.8-1.5,1.3c-0.2,0.2-0.2,0.7-0.1,1c0.1,0.2,0.5,0.3,0.7,0.3c0.6-0.1,1.2-0.4,1.8-0.6c0.2-0.1,0.4,0.1,0.7,0.2
		c-0.1,0.2-0.1,0.4-0.2,0.5c-0.5,0.5-1.1,0.9-1.7,1.3c-0.2,0.1-0.3,0.4-0.3,0.6c0,0.1,0.4,0.3,0.5,0.3c0.7,0,1.4-0.1,2.1-0.1
		c0.2,0,0.6,0.2,0.6,0.2c-0.4,1.1,0.7,0.8,1,1.1c0.6,0.6,1.1,0.6,1.7,0.2c0.9-0.4,1.7-0.6,2.8-0.6c1.1,0.1,2.2-0.7,3.3-1.2
		c0.2-0.1,0.6-0.2,0.8-0.1c1.6,1,3.4,1.8,4,3.8c0.2,0.8,0.7,1.5,0,2.3c-0.3,0.4,0.1,0.9,0.6,0.6c0.9-0.4,1.7-0.8,2.6-1.3
		c1.4-0.8,2.7-1.7,4.1-2.5c1.9-1.1,3.8-2.2,5.7-3.2c1.2-0.7,2.4-1.3,3.6-1.9c0.7-0.3,1-0.2,1.2,0.5c0.4,1.8,0.8,3.7,1.1,5.6
		c0.2,1.5,0.2,3.1,0.4,4.6c0,0.5,0.2,1,0.3,1.6c0.3,2.1,0.6,4.2,0.8,6.3c0.2,1.8-0.4,2.3-2.2,1.9c-1.5-0.3-3.1-0.8-4.6-1.1
		c-3.1-0.8-6.2-1.5-9.4-2.3c-0.7-0.2-1.5-0.3-2.3-0.4c-0.3,0-0.7,0-1,0.1c-0.5,0.2-0.8,0.4-0.4,1c0.3,0.6,0.6,1.3,0.7,1.9
		c0.3,1.6-0.4,3.2-2.1,3.6c-0.9,0.2-1.9,0.3-2.8,0.4c-1,0.1-2,0.1-3.1,0c-0.9,0-0.9,0.6-1.1,1.2c-0.2,0.5,0.2,0.8,0.6,1
		c0.9,0.4,1.8,0.8,2.6,1.2c0.2,0.1,0.3,0.3,0.5,0.5c-0.2,0.2-0.4,0.5-0.7,0.5c-0.3,0-0.7-0.1-1-0.2c-1.7-0.7-3.3-1.4-5-2.1
		c-0.8-0.3-1.5-0.6-2.3-0.9c-0.7-0.2-1.1,0.2-0.8,0.9c0.2,0.7,0.6,1.3,0.9,2c0.2,0.4,0.5,0.8,0.6,1.3c0.1,0.3,0,0.6,0,1
		c-0.3-0.1-0.7-0.2-0.8-0.4c-1.1-1.3-2-2.8-2.5-4.5c0-0.1-0.1-0.1-0.1-0.2c-0.2-0.6-0.3-1.6-0.7-1.7c-0.7-0.3-1.6-0.1-2.5,0
		c-0.9,0.1-1.9,0.4-2.8,0.6c-0.5,0.1-0.6,0.4-0.4,0.8c0,0.1,0.1,0.1,0.1,0.2c0.7,1.4,0.4,1.8-1.2,1.9c-1.2,0.1-2.4,0-3.6,0
		C40.5,41.7,40.5,41.8,40.5,41.8z"/>
	<path d="M26.7,32.7c-0.5,0.6-1.1,1.2-1.6,1.8c-0.5,0.5-0.8,0.3-0.9-0.4c0.6-0.7,1.2-1.3,1.7-2c0.5-0.6,0.8-1.4,1.3-2.1
		c0.2-0.1,0.5-0.2,0.7-0.3l0,0c-0.2,0.7-0.4,1.4-0.6,2.1C27,32.2,26.8,32.5,26.7,32.7z"/>
	<path d="M27.8,29.9c0.3-0.8,1-0.9,1.7-1.1c1.5-0.4,3-0.8,4.4-1.3c2.4-0.7,4.8-1.4,7.2-2.1c0.9-0.3,1.7-0.3,2.5,0.3
		c0.5,0.4,1.2,0.4,1.9,0.6c0.5,0.1,0.9,0.2,1.4,0.3c1.8,0.5,2.4,2.1,1.5,3.7c-0.7,1.2-1.7,2-2.9,2.6c-2.1,1.1-4.4,1.8-6.9,1.7
		c-2.6-0.1-5.1,0-7.7,0c-0.3,0-0.6,0-0.9,0c-0.6,0-0.9-0.3-0.7-0.9c0.1-0.3,0-0.6,0-0.8c0-0.1,0.2-0.2,0.3-0.3c0,0,0.2,0.1,0.2,0.2
		c0,0.3,0.1,0.6,0,0.9c-0.1,0.4-0.1,0.5,0.4,0.4c2.2-0.5,4.5-0.3,6.8-0.1c1.3,0.1,2.6,0.3,3.9-0.1c1.6-0.6,3.2-1,4.7-1.7
		c1.2-0.6,2.1-1.5,2.6-2.8c0.3-0.8,0-1.3-0.6-1.7c-0.5-0.3-1.1-0.4-1.7-0.5c-0.7-0.2-1.6-0.2-2.2-0.6c-0.9-0.6-1.7-0.5-2.6-0.3
		c-2.1,0.6-4.2,1.3-6.3,1.9c-1.5,0.4-3.1,0.8-4.7,1.2c-0.5,0.1-1,0.2-1.3,0.5C28.1,30.1,28.1,30.1,27.8,29.9L27.8,29.9z"/>
	<path d="M67.2,28.3c-1.7-0.3-3.4-0.5-5.1-0.8c-5-0.8-9.7-2.7-14.5-4.2c-2.1-0.7-4.3-1.3-6.5-1.9c-0.6-0.2-1.1-0.3-1.7-0.5
		c-1.6-0.6-3.1-1.1-4.9-1c-0.4,0-0.8,0-1.3,0c-0.1,0-0.2-0.2-0.3-0.3c0.1-0.1,0.2-0.3,0.4-0.3c1.6-0.2,3.2,0.1,4.7,0.6
		c2.7,0.9,5.4,1.7,8.2,2.6c2.6,0.8,5.1,1.7,7.6,2.4c2.3,0.7,4.6,1.2,6.8,1.9c2.1,0.6,4.2,0.6,6.3,1c0.5,0.1,0.9,0,1.4-0.1
		c0.3,0,0.6-0.1,0.9-0.1c0.1,0,0.3,0.2,0.4,0.3c-0.1,0.1-0.2,0.3-0.3,0.3c-0.7,0-1.4,0-2.2,0C67.2,28.1,67.2,28.2,67.2,28.3z"/>
	<path d="M27.4,18c-1,0.3-2.2,0.7-3.4,1.1c-0.3,0.1-0.5,0.3-0.8,0.4c-0.4,0.1-0.8,0-1.2,0c0.3-0.1,0.6-0.2,0.9-0.4
		c0.3-0.2,0.6-0.3,0.9-0.5c2.2-1.2,4.4-1.5,6.7-0.1c0.2,0.2,0.4,0.5,0.5,0.8c0.1,0.2-0.1,0.5-0.1,0.7c-0.1-0.2-0.2-0.3-0.3-0.5
		c-0.6-0.9-1.3-0.9-2.1,0.1c-0.3,0.3-0.6,0.5-1,0.7c-0.1,0-0.4-0.1-0.4-0.2c-0.1-0.5-0.4-0.3-0.6-0.2c-0.7,0.3-1.4,0.6-2.2,0.8
		c-0.1,0-0.2-0.1-0.4-0.2c0.1-0.1,0.1-0.2,0.2-0.3c1-0.4,2-0.8,3-1.2c0.3-0.1,0.5-0.3,0.7-0.4c0.2-0.1,0.3-0.3,0.4-0.5
		C28,18.1,27.8,18.1,27.4,18z"/>
	<path d="M25.6,28.7c-0.4,0.3-1,0.8-1,0.7c-1.1-1.1-2.4-0.3-3.5-0.3c-0.2,0-0.4,0-0.5,0c-0.2,0-0.3-0.1-0.5-0.2
		c0.1-0.1,0.3-0.2,0.4-0.2c0.8-0.2,1.6-0.4,2.4-0.5c0.7-0.1,1.5-0.1,2.2-0.1C25.2,28.3,25.3,28.5,25.6,28.7z"/>
	<path d="M70.7,28c-0.1,0.7-0.3,1.4-0.4,2.1c0,0.1-0.2,0.2-0.4,0.3c-0.1-0.1-0.2-0.3-0.2-0.4c1-1.7,0.7-3.2-0.5-4.6
		c-0.1-0.1-0.1-0.3-0.1-0.5c0.2,0.1,0.3,0.1,0.5,0.3C70.5,25.9,70.7,26.9,70.7,28z"/>
	<path d="M9,27.7c1,0.4,2.1,0.5,3.2,0.1c0.2-0.1,0.5,0.2,0.8,0.3c0.1,0,0.1,0.2,0.1,0.3c0,0-0.1,0.1-0.1,0.1c-1.5,0-3.1,0.2-4.6-0.4
		c-0.1,0-0.1-0.1-0.2-0.2c0,0,0.1-0.1,0.1-0.1C8.5,27.7,8.7,27.7,9,27.7z"/>
	<path d="M11.4,35.4c-0.2-0.2-0.4-0.4-0.5-0.6c0.1,0,0.3-0.1,0.4-0.1c1.1-0.4,2.1-0.7,3.2-1.1c0.1,0,0.3,0,0.5,0
		c-0.1,0.1-0.1,0.3-0.3,0.4C13.6,34.5,12.5,34.9,11.4,35.4z"/>
	<path d="M23.2,29.6c-0.1,0.1-0.1,0.2-0.2,0.3c-0.7,0.4-1.4,0.8-2.1,1.2c-0.2,0.1-0.5,0.1-0.8,0.1c0.2-0.2,0.3-0.4,0.5-0.5
		c0.6-0.6,1.2-1.1,2.1-1.2C22.9,29.5,23,29.5,23.2,29.6z"/>
	<path d="M4,28.1c0.9-0.1,1.8-0.2,2.6-0.3c0.1,0,0.3,0.1,0.5,0.2c-0.1,0.2-0.2,0.4-0.4,0.4c-0.8,0.1-1.5,0.2-2.3,0.3
		C4.3,28.7,4.1,28.3,4,28.1C4,28.1,4,28.1,4,28.1z"/>
	<path d="M29.9,26.4c-0.3,0.6-0.7,1.2-1,1.7c0,0-0.2,0.1-0.3,0c-0.1-0.1-0.1-0.2-0.1-0.3c0.3-0.6,0.6-1.2,1-1.8c0,0,0.2,0,0.3,0
		C29.8,26.1,29.8,26.2,29.9,26.4z"/>
	<path d="M30,23.5c0,0.1,0,0.3,0.1,0.4c0.1,0.3,0.1,0.6,0.2,0.9c0,0.1,0,0.2,0,0.4c-0.1,0-0.2,0-0.3,0c-0.8-0.3-1-1-0.3-1.6
		C29.7,23.5,29.8,23.5,30,23.5z"/>
	<path d="M24.4,21.5c0.2,0.2,0.4,0.4,0.4,0.5c0,0.3-0.2,0.6-0.3,1c0,0.1-0.3,0.1-0.3,0c-0.1-0.4-0.2-0.8-0.2-1.2
		C24,21.8,24.2,21.7,24.4,21.5z"/>
	<path d="M20.2,20.2c0.5,0,1.1-0.1,1.3,0.6c0,0.1,0,0.2-0.1,0.3c-0.1,0.1-0.2,0.1-0.3,0.1C20.8,20.8,20.5,20.5,20.2,20.2L20.2,20.2z
		"/>
	<path d="M10.2,29.9C9.9,30,9.8,30,9.6,30c0,0-0.1-0.1-0.1-0.1c0-0.1,0-0.3,0.1-0.3c0.5-0.1,0.9-0.1,1.4-0.1c0.1,0,0.2,0.1,0.3,0.2
		c-0.1,0-0.2,0.1-0.3,0.1C10.7,29.9,10.4,29.9,10.2,29.9z"/>
	<path d="M21.1,34.2c-0.2-0.2-0.4-0.4-0.4-0.6c0-0.1,0.2-0.3,0.3-0.5c0.2,0.1,0.4,0.3,0.6,0.4C21.4,33.7,21.3,33.9,21.1,34.2z"/>
	<path d="M55.8,36c0.1,0.1,0.3,0.1,0.3,0.2c0,0.1,0,0.3-0.1,0.3c-0.1,0.1-0.3,0.1-0.5,0.1c-0.2,0-0.3-0.1-0.5-0.1
		c0.1-0.1,0.2-0.2,0.3-0.3C55.5,36.1,55.6,36.1,55.8,36z"/>
	<path d="M30.5,21.2c0.2,0.2,0.4,0.3,0.5,0.5c0,0.1-0.1,0.3-0.1,0.4c-0.2-0.2-0.5-0.5-0.7-0.7C30.2,21.4,30.3,21.4,30.5,21.2z"/>
	<path d="M15.5,23c0,0.1-0.1,0.1-0.1,0.2c-0.1,0-0.2-0.1-0.2-0.1c-0.1-0.3-0.2-0.7-0.3-1c0,0,0.1-0.1,0.2-0.1
		c0.2,0.3,0.3,0.6,0.4,0.9C15.5,22.9,15.5,22.9,15.5,23z"/>
</g>
</svg>
