<?xml version="1.0" encoding="iso-8859-1"?>
<!-- Generator: Adobe Illustrator 25.3.0, SVG Export Plug-In . SVG Version: 6.00 Build 0)  -->
<svg version="1.1" id="Calque_1" xmlns="http://www.w3.org/2000/svg" xmlns:xlink="http://www.w3.org/1999/xlink" x="0px" y="0px"
	 viewBox="0 0 79.2 33.7" style="enable-background:new 0 0 79.2 33.7;" xml:space="preserve">
<g>
	<path d="M51.7,12.2c0.9-0.2,2-0.5,3.1-0.7c1.2-0.3,2.5,0.1,2.6,0.9c0,0.9,0.4,0.7,0.9,0.7c0.5,0,1,0,1.4,0
		c3.7,0.3,7.1-0.9,10.5-2.4c1.7-0.7,3.4-1.4,5.2-2c0.7-0.2,1.4-0.4,2.1-0.5c0.6-0.1,1.3,0.1,1.5,0.7c0.1,0.3-0.1,0.9-0.4,1.3
		c-0.4,0.6-1,1.1-1.6,1.7c-0.2,0.2-0.3,0.3-0.5,0.5c-1.2,1.1-2.5,2.2-3.7,3.3c-1.2,1-1.2,1.6,0,2.5c2.4,1.8,4.5,3.7,5.8,6.4
		c0.1,0.2,0.2,0.3,0.3,0.4c0.4,0.9,0.1,1.4-0.9,1.4c-0.5,0-1.1-0.1-1.5-0.3c-1.6-0.7-3.3-1.4-4.9-2.2c-2.8-1.4-5.9-2-8.7-3.1
		c-0.4-0.1-0.8-0.1-1.2-0.1c-0.7,0-0.1,0.2,0,0.4c0.1,0.3,0.2,0.6,0.1,0.8c-0.6,1.5-1.3,2.9-2,4.4c-0.2,0.4-0.4,0.7-0.7,1
		c-2,1.5-2.1,1.7-3.9,0.2c-1.4-1.2-2.7-2.4-4-3.6c-0.6-0.6-1.2-0.7-2-0.6c-0.6,0.1-1.1,0.3-1.7,0.5c-2.3,0.7-4.5,1.3-6.8,2
		c-0.4,0.1-0.8,0-0.3,0.5c1,1,1.4,2.3,1.4,3.7c0,1,0,1.9,0,2.9c0,0.5-0.3,0.7-0.8,0.8c-1.8,0.1-3.3-0.5-4.6-1.6
		c-1.6-1.3-3-2.7-4.5-4.1c-0.5-0.5-1-0.8-1.7-0.8c-4.6,0.4-8.8-0.9-13.1-2.4c-2-0.7-4.1-1-6.2-1.6c-2.1-0.5-4.1-1.1-6.1-1.8
		c-1-0.3-1.9-0.7-2.8-1.1c-0.9-0.3-1.5-1-1.8-1.9c-0.3-0.7,0.1-1.1,0.9-1c1.6,0.3,3.1,0.7,4.7,1.1c0.2,0,0.3,0.1,0.5,0.1
		C6,18.6,6,18.4,5.9,18.2c-0.8-1-1.6-1.9-2.3-2.9c-1.4-1.9-1.2-2.5,1.1-3c2.3-0.5,4.6-1.3,7-1.3c1.5,0,3-0.6,4.5-0.8
		c3.4-0.6,6.8-1.5,10.2-1.2c2,0.1,3.5-0.7,5-1.9C34.2,5,36.9,3,39.7,1c2.4-1.7,3.4-1.3,4.6,1.4c0.1,0.3,0.2,0.6,0.3,0.8
		c0.6,2,1.3,3.9,1.9,5.9c0.3,0.9,0.1,1.2-0.8,1.3c-1,0.1-2,0.2-3,0.4c-0.1,0-0.2,0.1-0.4,0.2c0.1,0,0.2,0.1,0.3,0.1
		c1.9,0.2,3.8,0.5,5.6,0.7C49.4,11.9,50.4,12.1,51.7,12.2z"/>
	<path d="M53.7,17.2c-2.4,0-4.8,0-7.2,0c-3-0.1-6.1-0.1-9.1-0.4c-2.5-0.2-5-0.8-7.6-1c-3.7-0.4-7.2-1.2-10.7-2.4
		c-0.3-0.1-0.6-0.2-0.8-0.3c-0.1,0-0.1-0.2-0.2-0.3c0.1,0,0.3-0.2,0.4-0.1c0.6,0.2,1.1,0.4,1.7,0.6c2.1,0.5,4.1,1.1,6.2,1.4
		c2.9,0.5,5.7,0.9,8.6,1.2c1.7,0.2,3.5,0.1,5.2,0.3c4.1,0.6,8.2,0.1,12.4,0.3c0.6,0,1.3,0.2,1.9,0.2c0.4,0,0.7,0.1,1.1,0.1
		c2.2-0.5,4.4-0.4,6.6,0c0.5,0.1,1.2-0.2,1.7-0.2c0.1,0,0.3,0.2,0.4,0.3c-0.1,0.1-0.2,0.3-0.3,0.4c-0.5,0.1-1,0.1-1.4,0.1
		C59.6,17.2,56.6,17.2,53.7,17.2C53.7,17.2,53.7,17.2,53.7,17.2z"/>
	<path d="M34,24c-1.3-0.2-3-0.6-4.8-0.9c-1-0.2-2.1-0.5-3.1-0.8c-0.7-0.2-1.3-0.3-1.4-1.2c0-0.2-0.1-0.3-0.2-0.5
		c-0.2-0.2-0.5-0.4-0.7-0.7c0.3-0.2,0.7-0.5,1-0.6c2.7-0.5,5.3-1.2,8.1-1.3c1.4-0.1,2.7-0.1,4.1,0c1.7,0.2,3.4,0.7,4.9,1.4
		c0.2,0.1,0.3,0.1,0.5,0.3c0.6,0.5,0.6,1.1,0,1.5c-0.8,0.5-1.6,0.9-2.4,1.2C38.2,23.2,36.4,24,34,24z"/>
	<path d="M9.6,13.2c0.6,0,1.1,0.4,1.2,1c0,0.7-0.7,1.5-1.2,1.4c-0.5,0-1-0.6-1-1.2C8.5,13.7,8.9,13.2,9.6,13.2z"/>
</g>
</svg>
