<?xml version="1.0" encoding="iso-8859-1"?>
<!-- Generator: Adobe Illustrator 25.3.0, SVG Export Plug-In . SVG Version: 6.00 Build 0)  -->
<svg version="1.1" id="Calque_1" xmlns="http://www.w3.org/2000/svg" xmlns:xlink="http://www.w3.org/1999/xlink" x="0px" y="0px"
	 viewBox="0 0 85.7 15.2" style="enable-background:new 0 0 85.7 15.2;" xml:space="preserve">
<g>
	<path d="M63.8,0.1c3.8,0,7.6,0,11.3,0c1.9,0,3.8,0.4,5.6,0.9c3.2,0.9,5.2,4,4.9,6.8c-0.1,0.9,0.1,1.9-0.2,2.8
		c-0.9,3.6-4,4.9-7.3,4.4c-3.9-0.5-7.5-1.8-11.2-2.9c-2.9-0.9-6-0.9-8.8-0.1c-3.1,0.9-6,0.6-9-0.2c-1.4-0.4-2.8-0.4-4.2,0
		c-2.6,0.6-5.2,0.6-7.8,0.5c-0.1,0-0.2-0.2-0.4-0.3c0.1-0.1,0.2-0.3,0.4-0.3c1.5-0.2,3-0.3,4.4-0.6c3.7-0.8,7.4-0.8,11-0.6
		c2.6,0.1,4.9-0.6,7.4-1.3c2.3-0.6,4.5-1.1,6.9-0.9c2,0.2,4,0.7,6,1c1.8,0.3,3.6,0.8,5.4,1c0.8,0.1,1.6-0.2,2.5-0.3
		c0.8-0.1,1.6,0,2.3-0.7c-0.6-0.5-1.2-1.2-1.9-1.6c-1.9-1.2-4.2-1.4-6.4-1.5C71.3,6.2,67.9,6.7,64.4,7c-2,0.2-4.1,0-6.1,0.1
		c-2.4,0.1-4.8-0.3-7.1-0.5c-0.6,0-1.3-0.1-1.9-0.1c-4.4,0-8.7,0.3-13.1,0.1c-2.7-0.1-5.4-0.2-8.1-0.2c-1,0-2,0.2-3,0.3
		c-0.2,0-0.4,0.1-0.5,0c-2.4-0.6-4.8,0-7.2,0c-3.5-0.1-7-0.4-10.5-0.6C5.2,5.9,3.6,5.8,2,5.6c-0.5-0.1-1-0.2-1.5-0.3
		C0.2,5.2,0,4.9,0,4.8c0.1-0.2,0.3-0.5,0.5-0.6c0.1-0.1,0.3-0.1,0.5-0.1c2.2,0.1,4.2-0.7,6.3-0.9C8.6,3,9.8,3,11,3
		c1.3,0,2.6-0.2,3.9-0.6c1-0.3,2.1-0.4,3.2-0.5c3.5-0.2,6.9-0.1,10.4-0.4c2.3-0.2,4.5-0.2,6.8-0.3c3-0.2,6.1-0.4,9.1-0.7
		c0.2,0,0.4,0,0.5,0c6.3-0.2,12.7-0.3,19-0.5C63.8,0,63.8,0.1,63.8,0.1z"/>
</g>
</svg>
