<?xml version="1.0" encoding="iso-8859-1"?>
<!-- Generator: Adobe Illustrator 25.3.0, SVG Export Plug-In . SVG Version: 6.00 Build 0)  -->
<svg version="1.1" id="Calque_1" xmlns="http://www.w3.org/2000/svg" xmlns:xlink="http://www.w3.org/1999/xlink" x="0px" y="0px"
	 viewBox="0 0 77.4 34.9" style="enable-background:new 0 0 77.4 34.9;" xml:space="preserve">
<g>
	<path d="M74.1,29.8c-1-0.3-1.9-0.6-2.9-0.9c-2.2-0.9-4.2-2.3-6.2-3.5c-1.8-1-3.6-1.9-5.7-1.8c-0.4,0-0.7,0.1-0.9,0.6
		c-0.1,0.4-0.6,0.8-1,1.1c-2.3,1.8-5,3-7.6,4.3c-1.5,0.7-3,1.4-4.5,2.1c-1.7,0.8-3.2,0.3-4.6-0.9c-0.9-0.8-1.8-1.6-2.7-2.3
		c-0.6-0.5-1.2-0.7-2-0.6c-1.4,0.1-2.7,0.2-4.1,0.3c-0.5,0-1.1-0.1-1.6-0.2c-0.7-0.1-1.3-0.1-2-0.1c-0.4,0-0.6,0.2-0.4,0.5
		c1.1,1.8,0.4,3.8,0.5,5.8c0,0.7-0.4,0.9-1.1,0.6c-2.5-1-4.1-2.7-4.9-5.3c-0.3-1-0.7-1.9-2-1.8c-0.6,0-1.2-0.2-1.8-0.2
		c-1.5-0.2-3-0.3-4.4-0.5c-1.4-0.2-2.8-0.2-4.2-0.5c-1.2-0.3-2.4-0.7-3.5-1.3c-1.8-0.9-3.5-2-5.3-3c-0.4-0.2-0.7-0.4-1-0.7
		c-0.6-0.6-0.6-1.2,0.1-1.8c0.5-0.4,0.4-0.6,0-0.9C-0.2,18.3,0,17.5,0.5,17c0.6-0.8,1.4-1.5,2.2-2.1c1.8-1.4,3.8-2.4,6-3.1
		c3.7-1.3,7.4-2.4,11.3-3c0.2,0,0.5-0.1,0.7-0.1c1.2-0.1,1.8-0.8,2.5-1.6c1.3-1.3,2.2-3,3.6-4.1c1.2-0.8,2.2-1.7,3.3-2.6
		c0.6-0.5,3.2-0.4,3.8,0.2c0.8,0.8,1.7,1.4,1.9,2.7c0.1,0.7,0.9,1.5,0.7,2.1c-0.2,0.8,0.3,1.5-0.2,2.2c-0.2,0.2,0,0.7,0,1
		c-0.1,1,0.3,1.3,1.2,0.9c0.9-0.4,1.8-0.9,2.7-1.4c2.9-1.5,5.9-1.4,8.8,0.1c3.4,1.8,6.5,4.1,9.8,6.2c0.3,0.2,1,0.4,0.4,1
		c0,0-0.1,0.1-0.1,0.1c0.1,0.1,0.3,0.1,0.4,0.2c1,0.3,2,0.1,3-0.2c1.8-0.5,3.6-1.2,5.4-1.8c1.7-0.6,3.4-1.2,5.1-1.6
		c1-0.3,2-0.3,3-0.3c1.1,0,1.9,1.4,1.2,2.3c-1.4,1.8-2.3,4-4.2,5.5c-0.3,0.2-0.5,0.7-0.8,1c-0.4,0.4-0.3,0.7,0,1.2
		c1,1.4,2.1,2.9,3,4.4c0.4,0.6,0.6,1.3,0.8,2c0.3,1.2-0.1,1.6-1.3,1.7c-0.2,0-0.4,0-0.5,0C74.1,29.7,74.1,29.7,74.1,29.8z"/>
	<path d="M7.4,20.3c-1.8,0-3.1-1.2-3.1-2.7c0-1.5,1.7-3.1,3.2-3c2.2,0.2,3,1.4,3,2.8C10.5,19.1,9.2,20.4,7.4,20.3z"/>
	<path d="M9.1,17.4c0,0.7-0.7,1.5-1.4,1.5c-0.7,0-1.5-0.7-1.5-1.4c0-0.7,0.6-1.5,1.4-1.5C8.3,15.9,9.1,16.6,9.1,17.4z"/>
</g>
</svg>
