<?xml version="1.0" encoding="iso-8859-1"?>
<!-- Generator: Adobe Illustrator 25.3.0, SVG Export Plug-In . SVG Version: 6.00 Build 0)  -->
<svg version="1.1" id="Calque_1" xmlns="http://www.w3.org/2000/svg" xmlns:xlink="http://www.w3.org/1999/xlink" x="0px" y="0px"
	 viewBox="0 0 83.1 28.9" style="enable-background:new 0 0 83.1 28.9;" xml:space="preserve">
<g>
	<path d="M64.7,13.4c2.2,0.1,4.2-0.4,6.2-1.3c1.9-0.8,3.8-1.6,5.7-2.5c1.4-0.6,2.9-1,4.4-1.3c1.1-0.2,2.1,0.7,1.8,1.8
		c-0.1,0.7-0.6,1.3-1,1.8c-0.6,0.7-1.3,1.3-1.9,1.9c-1.1,1.1-1,1.7,0.2,2.7c0.9,0.8,1.6,1.7,2.4,2.6c0,0,0.1,0.1,0.1,0.1
		c0.2,0.6,0.6,1.3,0.1,1.8c-0.5,0.4-1.3,0.7-1.9,0.6c-1.6-0.3-3.2-0.8-4.7-1.4c-1.5-0.6-3.2-1-4.7-1.6c-0.2-0.1-0.4-0.1-0.5-0.2
		c-2.2-1.6-4.8-1.4-7.3-1.2c-1.7,0.1-3.4,0.5-5.1,0.8c-0.1,0-0.3,0.2-0.4,0.3c0.1,0.1,0.2,0.2,0.3,0.3c1.3,0.9,1.3,0.8,0.2,1.9
		c-1.6,1.6-3.4,3-5.4,4.1c-1.6,0.8-3.3,1.2-5.1,0.2c-1.5-0.9-3.1-1.5-4.1-3.1c-0.5-0.9-1.2-0.9-2.3-0.5c-2.5,0.9-4.9,1.7-7.6,2
		c-1.1,0.1-2.3,0-3.4,0c-0.2,0-0.3,0.1-0.5,0.1c0.1,0.1,0.3,0.2,0.4,0.3c2,0.8,1.9,2.7,2.2,4.3c0.1,0.8-0.4,0.9-1.3,0.7
		c-1.6-0.4-2.7-1.3-3.8-2.4c-1-1-2.1-2-3-3.1c-0.4-0.5-0.8-0.6-1.3-0.7c-1.7-0.2-3.4-0.5-5.1-0.7c-1.3-0.2-2.6-0.3-3.9-0.4
		c-0.8-0.1-1.6,0.2-2.3-0.1c-2.2-0.7-4.6-0.7-6.8-1.4c-1.3-0.4-2.7-0.5-3.8-1.4c-0.5-0.4-1-0.8-1.5-1.3C0,17-0.1,16.5,0.2,15.9
		c0.3-0.6,0.9-0.6,1.4-0.5c0.5,0.1,1,0.1,1.5,0.2c-0.5-0.3-0.9-0.6-1.4-0.9c-1-0.5-1.2-1.1-0.2-1.6C3,12.5,4.3,11,6.3,11.1
		c0.3,0,0.6-0.1,0.8-0.3c3-1.4,6.3-1,9.5-1.5c2.6-0.4,5.3-0.7,8-0.7c0.6,0,0.9-0.2,1.2-0.8c0.9-1.7,1.8-3.3,2.8-4.9
		c0.3-0.5,1-0.9,1.5-1.2c0.7-0.5,1.4-0.9,2.1-1.3c1.2-0.8,2.4-0.5,3.4,0.2c1.6,1.1,3,2.4,3.2,4.5c0,0.4,0.4,0.7,0.5,1.1
		c0.5,1.4,0.1,2.3-1.1,3c-0.5,0.2-0.9,0.6-1.3,0.9c0.5,0.1,1,0.2,1.5,0.3c2.2,0.2,4.4,0.5,6.5,0.6c0.4,0,0.8-0.2,1.1-0.5
		c0.3-0.3,0.5-0.8,0.8-1.2c0.7-1,1.5-2,2.8-2.3c0.5-0.2,1-0.6,1.4-1c0.7-0.6,1.4-1.3,2-2c0.4-0.4,0.8-1.1,1.1,0.1
		c0,0.1,0.5,0.3,0.6,0.2c0.8-0.5,1.4,0.3,1.6,0.6c1.2,1.7,2.5,3.4,3.2,5.5c0.2,0.8,0.5,1.5-0.5,2c-0.1,0.1-0.1,0.3-0.2,0.4
		c0.1,0,0.2,0.1,0.3,0.1C61.1,13.1,62.9,13.2,64.7,13.4z"/>
	<path d="M67.7,15c0.4,0.1,0.8,0.2,1.3,0.3c-0.4,0.8-0.9,0.5-1.5,0.2c0,0-0.1,0-0.2,0c-0.4,0.1-1.2,0.5-1.2,0
		C66.1,14.6,67,15.3,67.7,15z"/>
	<path d="M65.7,15c-0.3,0.3-0.4,0.5-0.5,0.4c-0.3,0-0.6-0.2-0.9-0.2c0.1-0.1,0.2-0.3,0.3-0.3C64.9,14.8,65.2,14.9,65.7,15z"/>
	<path d="M58,15.3c-0.3-0.2-0.4-0.3-0.6-0.5c0.2-0.1,0.4-0.4,0.6-0.4c0.2,0,0.4,0.2,0.5,0.3C58.5,14.9,58.3,15,58,15.3z"/>
	<path d="M49.5,14.5c-0.2,0.1-0.3,0.2-0.5,0.2c-0.3,0-0.6-0.2-0.9-0.3c0.1-0.1,0.2-0.4,0.3-0.4c0.3,0,0.6,0.1,0.9,0.1
		C49.4,14.3,49.4,14.4,49.5,14.5z"/>
	<path d="M50.5,13.9c0.2,0.1,0.4,0.2,0.5,0.3c-0.2,0.2-0.4,0.4-0.6,0.5c-0.1,0-0.3-0.2-0.5-0.3C50.1,14.2,50.3,14.1,50.5,13.9z"/>
	<path d="M24.9,13.1c-0.2,0.1-0.4,0.2-0.6,0.2c-0.2,0-0.2-0.3-0.4-0.4c0.2-0.1,0.4-0.2,0.6-0.2c0.2,0,0.3,0.1,0.5,0.1
		C25,12.9,24.9,13,24.9,13.1z"/>
	<path d="M54.4,14.2c0.1,0.2,0.3,0.5,0.3,0.5c-0.2,0.2-0.4,0.3-0.6,0.4c0,0-0.3-0.3-0.3-0.3C53.9,14.5,54.1,14.4,54.4,14.2z"/>
	<path d="M56.7,14.9c-0.3,0.1-0.5,0.2-0.7,0.2c-0.2,0-0.2-0.3-0.4-0.4c0.2-0.1,0.4-0.2,0.6-0.2C56.4,14.4,56.5,14.6,56.7,14.9z"/>
	<path d="M30.1,12.6c-0.4,0.2-0.6,0.4-0.8,0.4c-0.1,0-0.3-0.1-0.4-0.2c0.1-0.2,0.2-0.4,0.4-0.4C29.5,12.3,29.7,12.4,30.1,12.6z"/>
	<path d="M28.3,12.8c-0.2,0.1-0.3,0.2-0.5,0.1c-0.2,0-0.4-0.1-0.6-0.2c0.1-0.2,0.2-0.4,0.3-0.4c0.2,0,0.4,0.1,0.5,0.2
		C28.2,12.6,28.2,12.7,28.3,12.8z"/>
	<path d="M61.9,15.2c-0.2,0.1-0.4,0.2-0.6,0.2c-0.2,0-0.2-0.3-0.4-0.5c0.2-0.1,0.4-0.2,0.6-0.2c0.2,0,0.3,0.1,0.5,0.1
		C62.1,15,62,15.1,61.9,15.2z"/>
	<path d="M63.5,15.3c-0.3,0.1-0.5,0.1-0.7,0.1c-0.1,0-0.2-0.2-0.3-0.4c0.2-0.1,0.4-0.2,0.6-0.2C63.2,14.8,63.3,15,63.5,15.3z"/>
	<path d="M43.3,13.7c-0.5,0.2-0.6,0.3-0.8,0.3c-0.2,0-0.4-0.1-0.6-0.2c0.1-0.2,0.2-0.4,0.4-0.4C42.5,13.3,42.7,13.5,43.3,13.7z"/>
	<path d="M45.8,14.6c-0.4-0.3-0.5-0.4-0.7-0.5c0.1-0.1,0.3-0.4,0.4-0.4c0.1,0,0.3,0.2,0.4,0.4C46.1,14.2,45.9,14.4,45.8,14.6z"/>
	<path d="M26.9,13c-0.4,0.1-0.6,0.3-0.8,0.2c-0.1,0-0.2-0.3-0.4-0.4c0.1-0.1,0.3-0.2,0.4-0.2C26.4,12.6,26.5,12.8,26.9,13z"/>
	<path d="M43.2,13.7c0.7-0.2,0.9-0.4,1-0.3c0.2,0,0.2,0.3,0.4,0.4C44.4,13.9,44.2,14,44,14C43.9,14,43.7,13.9,43.2,13.7z"/>
	<path d="M52,14.3c0.2-0.1,0.4-0.2,0.6-0.2c0.2,0,0.2,0.3,0.4,0.4c-0.2,0.1-0.4,0.2-0.6,0.2c-0.2,0-0.3-0.1-0.5-0.1
		C51.8,14.5,51.9,14.4,52,14.3z"/>
	<path d="M59.7,14.2c0.2,0.3,0.3,0.4,0.4,0.6c0,0.1-0.2,0.3-0.3,0.3c-0.2,0-0.4-0.2-0.5-0.3C59.3,14.6,59.5,14.5,59.7,14.2z"/>
</g>
</svg>
