<?xml version="1.0" encoding="iso-8859-1"?>
<!-- Generator: Adobe Illustrator 25.3.0, SVG Export Plug-In . SVG Version: 6.00 Build 0)  -->
<svg version="1.1" id="Calque_1" xmlns="http://www.w3.org/2000/svg" xmlns:xlink="http://www.w3.org/1999/xlink" x="0px" y="0px"
	 viewBox="0 0 86.1 16.2" style="enable-background:new 0 0 86.1 16.2;" xml:space="preserve">
<g>
	<path d="M25.7,0c2.5,0.2,5,0.5,7.4,0.4c1.1,0,2.4,0.7,3.4-0.4c0-0.1,0.3,0.1,0.5,0.1c0.2,0.1,0.3,0.3,0.4,0.3
		C38,0.3,38.6,0,39.1,0.1C40,0.3,40,0.5,40.5,0.2c0.4-0.3,0.6-0.2,0.8,0.1c0.1,0.1,0.2,0.2,0.3,0.1c1-0.4,2.1,0.4,3-0.4
		c0.5-0.4,0.6,0.5,0.8,0.4c1-0.5,2,0.8,3.1-0.1c0.2-0.2,1,0.5,1.5,0.5c0.5,0,1-0.4,1.4-0.6c0,0,0.1,0,0.2,0c0.9,1.1,2.2,0.5,3.4,0.6
		c1.6,0.2,3.3,0.4,5,0.6c0.3,0,0.6,0.1,0.9,0.1c2.5,0.1,5,0.2,7.5,0.4c2,0.2,4,0.5,6,0.7c1.1,0.1,2.3,0,3.4,0.1
		c0.9,0,1.8,0.2,2.7,0.2c0.4,0,0.8,0,1.2-0.1c0.6-0.2,1.1-0.4,1.7-0.6c1.6-0.6,2.9,0.3,2.9,2c0,0.5-0.1,0.9-0.3,1.4
		c-0.4,0.9-1.1,1.2-2.2,0.9C82.5,6,81.4,6,80.2,6.3c-2.5,0.7-5,0.9-7.6,1.1c-1.2,0.1-2.5,0.4-3.7,0.6c-1.4,0.2-2.7,0.3-4.1,0.5
		c-2.4,0.2-4.8,0.4-7.3,0.7c-3.3,0.4-6.6,1-9.8,1.5c-1.7,0.3-3.5,0.4-5.2,0.6c-0.7,0.1-1.3,0.1-1.9-0.2C40.4,11,40,11,39.6,11
		c-0.8,0.1-1.5,0.4-2.3,0.5c-1.3,0.1-2.3,0.4-2,2c-1.2,2.6-1.8,4-4.4,1.1c-0.1-0.1-0.2-0.2-0.2-0.3c-0.8-1.7-2.3-1.7-3.9-1.7
		c-4.1,0.2-8.2,0.3-12.4,0.4c-2.6,0.1-5.2-0.5-7.8-1c-1.1-0.2-2.2-0.3-3.4-0.4c-0.6,0-1-0.1-1.4-0.6c-0.4-0.6-0.8-1.3-1.3-1.8
		c-0.8-0.9-0.8-1.4,0-2.3c0.5-0.5,1-1,1.6-1.4c3-2,6.3-3.3,9.9-3.9c2.7-0.5,5.4-1,8.1-1.4c1.8-0.2,3.7,0,5.6,0
		C25.7,0.1,25.7,0.1,25.7,0z"/>
	<path d="M19,5c0.3,0,0.6,0.1,0.9,0.1c1.4,0.2,1.8,0.9,1,2c-0.6,0.9-1.4,1.6-2.2,2.3c-0.7,0.5-1.5,0.7-2.3,0.2
		c-0.6-0.3-1.2-0.6-1.8-0.9c-0.7-0.3-1.1-0.6-0.3-1.2c0.1-0.1,0-0.5,0-0.8c0-0.1,0-0.4,0.1-0.4c1.5-0.5,3-1,4.5-1.5
		C19,4.9,19,5,19,5z"/>
	<path d="M34.6,2.7c6.9,0,13.7,0,20.6,0c2.3,0,4.6,0.2,6.9,0.4c0.2,0,0.4,0.2,0.6,0.3c0,0,0,0,0,0c-1.5,0-3,0.1-4.5,0
		C51,2.7,43.7,3.3,36.5,3.1C35.9,3.1,35.1,3.4,34.6,2.7L34.6,2.7z"/>
	<path d="M4.7,5.6c0.6,0,1.2,0.5,1.1,1.1c0,0.7-0.9,1.4-1.6,1.4C3.7,8,3.3,7.6,3.3,6.9C3.4,6.2,4.1,5.5,4.7,5.6z"/>
	<path d="M34.6,2.7c-2.8,0-5.5,0-8.3,0c0,0,0,0,0,0c0.2-0.1,0.4-0.3,0.6-0.3c2.4,0,4.8,0,7.1,0C34.3,2.4,34.4,2.6,34.6,2.7L34.6,2.7
		z"/>
	<path d="M14,5.3c-0.4,0-0.6,0-0.9-0.1C13,5.2,13,5.1,12.9,5C13,5,13.1,4.9,13.2,4.9c1.7-0.2,3.5-0.5,5.2-0.7c0.2,0,0.3,0.1,0.5,0.1
		c-0.2,0.1-0.3,0.2-0.5,0.2c-1.1,0.2-2.2,0.4-3.3,0.6C14.7,5.2,14.3,5.2,14,5.3z"/>
	<path d="M26.4,2.7C26.3,2.8,26.2,3,26.1,3c-0.6,0-1.1,0-1.7,0c0,0,0-0.1,0-0.1c0.5,0,1-0.1,1.5-0.1C26.1,2.7,26.2,2.7,26.4,2.7
		L26.4,2.7z"/>
</g>
</svg>
