<?xml version="1.0" encoding="iso-8859-1"?>
<!-- Generator: Adobe Illustrator 25.3.0, SVG Export Plug-In . SVG Version: 6.00 Build 0)  -->
<svg version="1.1" id="Calque_1" xmlns="http://www.w3.org/2000/svg" xmlns:xlink="http://www.w3.org/1999/xlink" x="0px" y="0px"
	 viewBox="0 0 87.5 37.7" style="enable-background:new 0 0 87.5 37.7;" xml:space="preserve">
<g>
	<path d="M87.5,21.5c0.1,3.1-1,5.9-2,8.8c-0.9,2.6-2.8,4.4-5,5.8c-1.2,0.8-2.6,0.6-4,0.4c-1.2-0.2-2.3-0.8-3.3-1.6
		c-2.4-1.8-4.4-3.8-6.2-6.1c-0.2-0.2-0.4-0.3-0.7-0.4c-0.1,0-0.3,0.3-0.3,0.5c0,4.2-2.5,6.3-6.2,7.5c-2.4,0.7-4.8,1.4-7.4,1.3
		c-1,0-2-0.1-3-0.3c-0.5-0.1-0.9-0.6-1.4-0.8c-1.8-0.7-3.4-1.6-4.8-3c-0.2-0.2-0.4-0.4-0.7-0.5c-0.4-0.1-0.8-0.2-1.1,0.3
		c-0.4,0.7-1,1.3-1.5,2c-0.6,0.8-1.4,1-2.3,0.6c-1-0.4-1.9-0.9-2.8-1.5c-1-0.7-2.1-0.2-3.1-0.4c-0.1,0-0.3,0.3-0.4,0.5
		c-0.9,1.8-2.4,2.1-4.3,2c-2.6-0.1-4.2-1.6-5.5-3.5c-0.8-1.1-0.8-1.1-2.2-1.3c-2-0.2-4-0.5-6-0.8c-0.2,0-0.5-0.1-0.7-0.2
		c-3.2-1.3-6.5-2.6-9-5c-1.3-1.3-2.3-3-3.4-4.5C0,21.3-0.1,20.9,0,20.8c1-1.3,1-3.3,3.3-3.8c2.2-0.5,4.3-1.6,6.5-2.4
		c3.9-1.4,7.8-2.8,11.7-4.2c3.2-1.2,6.6-1.9,9.9-2.7c1.4-0.3,2.9-0.4,4.4-0.5c1,0,2-0.3,2.9-0.8c2.4-1.4,4.9-2.7,7.4-4
		c0.1-0.1,0.2-0.1,0.3-0.2c2.6-0.7,5.2-1.6,8-1.9C55.7,0.2,57,0,58.3,0c3.1-0.1,6.1,0.4,8.9,1.5c2,0.7,3.2,2.4,4,4.3
		c0.2,0.4,0.3,0.9,0.4,1.4c0.8,2.6,0.2,3.4-1.7,5.3c-0.6,0.6-1.4,1-2.1,1.6c-0.2,0.2-0.3,0.5-0.4,0.7c0.3,0.1,0.7,0.3,1,0.2
		c0.9-0.5,1.8-1,2.6-1.6c2.3-1.9,4.9-3.4,7.8-4.2c1.8-0.5,3.4-0.1,4.8,1.1c1.4,1.1,2.3,2.6,2.8,4.3C87.2,16.7,87.5,19.1,87.5,21.5z"
		/>
	<path d="M7.4,23.3C5.9,23.3,5,22.4,5,21c0-1.3,1-2.4,2.4-2.4c1.4,0,2.4,1,2.4,2.5C9.8,22.6,8.9,23.4,7.4,23.3z"/>
	<path d="M69.1,16.1c0.9,0.1,0.9,0.9,1.2,1.5c0,0-0.1,0.1-0.2,0.2c-0.3-0.5-0.7-0.9-1-1.4C69.1,16.4,69.1,16.3,69.1,16.1L69.1,16.1z
		"/>
	<path d="M70.7,20c-0.1-0.5-0.2-1-0.3-1.5c0,0,0.1-0.1,0.1-0.1c0.1,0.1,0.3,0.2,0.4,0.3c0.1,0.4,0.1,0.8,0.2,1.3
		C71.1,19.9,71,19.9,70.7,20z"/>
	<path d="M69.7,24.9c-0.1-0.1-0.1-0.2-0.1-0.3c0-0.1,0.1-0.2,0.1-0.3c0.3-0.3,0.6-0.7,0.9-1c0,0,0.1,0.1,0.1,0.1
		c-0.3,0.5-0.6,0.9-0.8,1.4C69.8,24.9,69.7,24.9,69.7,24.9z"/>
	<path d="M8.3,19.7c0.1,0.3,0.2,0.6,0.3,0.8c0.2,0.8-0.2,1.3-0.9,1.5c-0.6,0.1-1.1-0.2-1.2-0.7c-0.2-0.8,0.1-1.4,0.8-1.6
		C7.5,19.6,7.9,19.7,8.3,19.7C8.3,19.7,8.3,19.7,8.3,19.7z"/>
</g>
</svg>
