<?xml version="1.0" encoding="iso-8859-1"?>
<!-- Generator: Adobe Illustrator 25.3.0, SVG Export Plug-In . SVG Version: 6.00 Build 0)  -->
<svg version="1.1" id="Calque_1" xmlns="http://www.w3.org/2000/svg" xmlns:xlink="http://www.w3.org/1999/xlink" x="0px" y="0px"
	 viewBox="0 0 82.9 53.6" style="enable-background:new 0 0 82.9 53.6;" xml:space="preserve">
<g>
	<path d="M34.9,26.7c3.3-0.2,7,0.3,10.7,1c1.4,0.2,2.9,0.1,4.3,0.1c1.1,0,2.1-0.2,3.2-0.3c0.3,0,0.6,0.1,0.9-0.1
		c1.6-0.8,2.5,0,3.5,1.1c1.2,1.5,2.6,2.8,3.9,4.2c0.2,0.3,0.7,0.5,0.7,0.8c0.1,1.1,0.8,1.1,1.6,1.1c0.6,0,1.2,0.2,1.7,0.4
		c0.7,0.2,1.2,0.2,1.9-0.1c0.3-0.2,0.8-0.2,1.2-0.3c3.5-0.1,6.9-0.3,10.4-0.3c0.9,0,1.8,0.2,2.6,0.4c0.7,0.1,1.2,0.6,1.3,1.3
		c0.1,0.8,0.1,1.6-0.7,2.1c-1.6,1.1-3.2,2-5,2.7c-0.6,0.2-0.7,0.3-0.2,0.8c1.1,1.3,2.2,2.6,3.3,4c0.3,0.3,0.5,0.8,0.5,1.3
		c0.2,1.5-0.4,2.2-2,2.3c-1.1,0.1-2-0.1-3.1-0.7c-3-1.7-6-3.1-9-4.7c-0.6-0.3-1.1-0.6-1.7-0.9c-1.5-0.7-2.9-1-4.3,0.2
		c-0.9,0.7-2,1.2-3.1,1.7c-2.9,1.5-5.4,3.4-8.1,5.2c-0.8,0.6-1.8,1-2.6,1.5C46,52,45.3,52,44.5,51.8c-1.4-0.3-2.7-0.8-4.1-1.2
		c-1-0.3-1.9-0.8-2.9-0.3c-0.3,0.2-0.5,0.1-0.5,0.7c0.2,1.6-0.5,2.5-2.1,2.6c-1,0-2-0.2-3-0.4c-0.6-0.2-1.1-0.2-1.7,0
		c-0.6,0.2-1.2,0.1-1.8,0.2c-1.6,0.1-3.2,0-4.8,0.3c-1.1,0.2-2.4-0.1-3.5-0.4c-1.9-0.5-3.8-1-5.6-1.7c-0.9-0.3-1.7-1-2.6-1.6
		c-1-0.8-2-1.6-3.2-2.2c-0.9-0.4-1.8-1-2.5-1.7C4.7,44.4,3.3,42.7,2,41c-0.3-0.4-0.4-0.9-0.6-1.3c-0.4-1.1-0.6-2.4-1.2-3.5
		c-0.6-1.2-0.1-2.2,0.7-3.1c1.5-1.8,3.5-2.6,5.7-3.1c2.4-0.6,4.7-1.1,7.1-1.7c0.3-0.1,0.6-0.1,0.9-0.2c2.9-0.3,5.8-0.4,8.7-0.8
		C27,26.9,30.7,26.7,34.9,26.7z"/>
	<path d="M18,1.3c3.7,0.1,7.4,0.3,11.1,0.4C30.9,1.8,32.6,2,34.3,2c0.6,0,1.1-0.3,1.7-0.4c1.2-0.3,2.4-0.7,3.6-1
		c0.7-0.2,1.1,0.1,1.1,0.9c0.1,1.2,0.1,1.2,1.2,1.2c0.8,0,1.7,0.1,2.5,0c0.5,0,1-0.1,1.4-0.3c1.8-0.7,3.5-1.5,5.3-2.3
		c0.9-0.4,1.2-0.4,1.7,0.4c1.3,2,3.1,3,5.3,3.8c0.6,0.2,1.2,0.3,1.5,0.9c0.1,0.2,0.5,0.3,0.8,0.3c1.9,0,3.8,0.2,5.5-0.5
		c2-0.8,4.1-0.9,6.1-1.3c1.6-0.3,3.3-0.6,4.9-0.8c1.2-0.2,2.4-0.2,3.5-0.3c0.7-0.1,1.3,0.3,1.7,0.8c0.6,0.7,0.6,1.3,0,1.9
		c-0.7,0.7-1.4,1.3-2.2,1.8c-0.5,0.4-1.2,0.6-1.7,0.9c-0.1,0.1-0.2,0.2-0.2,0.2c0.1,0.1,0.2,0.3,0.3,0.4c0.8,0.4,1.6,0.7,2.4,1.1
		c0.9,0.5,1.5,1.3,1.9,2.3c0.3,0.8,0,1.7-0.8,2c-1,0.4-2.1,0.5-3.2,0.3c-3.4-0.4-6.8-1.2-10.3-1.1c-0.6,0-1.2-0.1-1.7-0.3
		c-2.2-0.9-4.5-0.7-6.7-0.7c-0.2,0-0.4,0-0.5,0.1c-0.7,1.7-2.6,1.7-3.9,2.4c-2,1-3.5,2.4-4.9,4.1c-1.3,1.5-1.6,1.6-3.3,0.7
		c-1.3-0.7-2.7-1.3-3.9-2.2c-0.9-0.6-1.8-0.7-2.6-0.1c-1.8,1.4-3.8,1.5-5.9,1.7c-1.5,0.2-3.1,0.4-4.6,0.6c-0.5,0.1-0.9,0.1-0.6,0.9
		c0.3,0.6-0.1,1.1-0.7,1.4c-0.6,0.3-1,0.2-1.4-0.2c-0.3-0.3-0.9-0.5-1.1-0.9c-0.4-0.8-1-0.9-1.8-0.8c-3.6,0.4-7.1-0.6-10.6-1.5
		c-0.3-0.1-0.7-0.3-1-0.5c-1-0.7-2-1.1-3.2-1.3c-1.2-0.2-2.2-1.1-3.2-1.9c-1.2-0.9-2.4-1.6-3.8-1.8C1.3,13,1,11.9,0.4,11.1
		c-0.1-0.2,0-0.6,0.2-0.8c0.2-0.3,0.5-0.5,0.1-0.9c-0.5-0.5-0.4-1,0-1.4C1.6,7,2.5,6,3.5,5.2c3.6-2.8,7.8-3.9,12.4-3.9
		C16.6,1.3,17.3,1.3,18,1.3C18,1.3,18,1.3,18,1.3z"/>
	<path d="M47.5,38.7c-1.5-0.2-3-0.3-4.4-0.5c-0.7-0.1-1.4-0.2-2.1-0.3c-2-0.2-4-0.5-6-0.7c-0.2,0-0.5,0-0.7,0
		c-3.4-0.1-6.8-0.2-10.2-0.3c-0.4,0-0.7,0-1.1-0.1c-0.5-0.2-1.1-0.5-1.6-0.7c0.6-0.4,1,0.2,1.6,0.2c0.4,0,0.8,0.3,1.2,0.3
		c3.1,0.1,6.2-0.1,9.3,0.4c2.2,0.3,4.4,0.5,6.6,0.7c1.5,0.1,3,0.2,4.4,0.4c2.4,0.2,4.8,0.5,7.3,0.7c2.9,0.2,5.8,0.2,8.8,0.4
		c1.1,0.1,2.2,0.2,3.4,0.4c1,0.2,2.1,0.4,3.1,0.7c0.2,0,0.3,0.1,0.5,0.2c-0.2,0.1-0.4,0.2-0.6,0.2c-0.3,0-0.6-0.1-0.9-0.1
		c-2.5-0.5-5-1-7.6-1c-2.5,0-5-0.2-7.5-0.3c-1.1-0.1-2.2-0.3-3.3-0.5C47.5,38.5,47.5,38.6,47.5,38.7z"/>
	<path d="M29,33.5c2.8,0.3,5.7,0.5,8.5,0.8c1.7,0.1,3.3,0.2,5,0.4c2.5,0.3,5.1,0.7,7.6,1.1c2,0.3,4,0.7,6,1c0.3,0,0.6,0.2,0.8,0.3
		c0.1,0,0.1,0.2,0.1,0.3c0,0-0.1,0.1-0.1,0.1c-0.1,0-0.2,0.1-0.3,0.1c-1.4-0.2-2.7-0.3-4.1-0.6c-2.5-0.4-4.9-1-7.4-1.3
		c-3.4-0.3-6.8-0.9-10.2-1.3c-1.4-0.2-2.8-0.1-4.1-0.1c-1.3,0-2.5,0-3.8,0c-0.3,0-0.9-0.2-0.9-0.3c0.1-0.6,0.6-0.4,1-0.4
		c0.7,0,1.3,0,2,0C29,33.5,29,33.5,29,33.5z"/>
	<path d="M6.6,31.8c2.3-0.1,3.8,1.4,3.7,3.6c0,1.7-1.7,3.5-3.4,3.5c-1.8,0-3.3-1.7-3.4-3.7C3.6,33.7,5.3,31.8,6.6,31.8z"/>
	<path d="M11.2,43.2c1.4-0.6,1.5-0.8,1.4-2.1c-0.1-0.8-0.3-1.5-0.5-2.2c-0.1-0.3-0.2-0.7-0.2-1c0-0.3,0.1-0.6,0.1-0.9
		c0.1,0.2,0.3,0.5,0.4,0.7c0.8,1.6,1,3.4,1,5.2c0,1.3-2.4,3-3.5,2.4c-0.5-0.3-1-0.6-1.5-0.8c-0.2-0.1-0.4-0.3-0.7-0.5
		c0.3,0,0.5-0.1,0.8-0.1c0.6,0,1.2,0.1,1.8,0C10.6,43.8,10.9,43.5,11.2,43.2L11.2,43.2z"/>
	<path d="M11.2,43.2c-0.2-0.1-0.7-0.2-0.7-0.4c-0.1-0.5,0-1.1-0.1-1.6c0-0.2-0.1-0.5-0.1-0.7c-0.1,0.2-0.3,0.4-0.4,0.6
		c-0.1,0.2-0.2,0.4-0.4,0.6c0,0-0.1,0-0.2,0c-0.1-0.1-0.2-0.2-0.2-0.2c0-0.1,0.1-0.2,0.1-0.3c0.9-2.1,1.4-4.3,1.5-6.5
		c0-0.2,0.2-0.3,0.3-0.5c0.1,0.2,0.4,0.4,0.4,0.5c-0.1,1-0.2,2-0.4,3c-0.2,0.8-0.2,1.4,0,2.2C11.3,41,11.1,42.1,11.2,43.2
		C11.2,43.2,11.2,43.2,11.2,43.2z"/>
	<path d="M5.4,43.2c-0.2-0.4-0.3-0.8-0.6-1c-1.3-1.3-2.1-2.9-2.7-4.7c0.1,0,0.3,0,0.3,0.1c1,1.1,2.2,1.9,2.9,3.3
		C5.6,41.4,5.7,42,6,42.5c0.2,0.4,0.5,0.7,0.8,1.1C6.3,43.5,5.9,43.4,5.4,43.2z"/>
	<path d="M62.7,37.1c1.3,0.3,2.7,0.5,4,0.8c0.2,0,0.3,0.3,0.5,0.4c-0.2,0.1-0.4,0.2-0.6,0.2c-1-0.2-2-0.4-2.9-0.7
		C63.3,37.7,63,37.4,62.7,37.1L62.7,37.1z"/>
	<path d="M20.1,2.7c1.7-0.3,3.6,0.4,5.4,0.8c0.3,0.1,0.7,0.2,1,0.4c1.1,0.7,1.3,1.7,0.5,2.7c-1.1,1.4-2.6,2.1-4.2,2.6
		c-0.6,0.2-1.3,0.3-1.9,0.4c-1.2,0.1-2.1-0.2-2.6-1.4c-0.6-1.3-1.5-2.4-2.6-3.4c-0.2-0.2-0.4-0.4-0.6-0.7c-0.3-0.5-0.1-0.8,0.4-1
		c0.8-0.2,1.6-0.3,2.4-0.4C18.6,2.7,19.2,2.7,20.1,2.7z"/>
	<path d="M8.6,35.6c0,0.6-1.1,1.6-1.6,1.5c-1.2-0.2-2.3-1-2.3-1.7c0-0.6,1.5-1.9,2.2-1.9C7.7,33.6,8.7,34.8,8.6,35.6z"/>
</g>
</svg>
