<?xml version="1.0" encoding="iso-8859-1"?>
<!-- Generator: Adobe Illustrator 25.3.0, SVG Export Plug-In . SVG Version: 6.00 Build 0)  -->
<svg version="1.1" id="Calque_1" xmlns="http://www.w3.org/2000/svg" xmlns:xlink="http://www.w3.org/1999/xlink" x="0px" y="0px"
	 viewBox="0 0 76.1 31.8" style="enable-background:new 0 0 76.1 31.8;" xml:space="preserve">
<g>
	<path d="M39.7,27.7c-1.2,0.1-2.1-0.3-2.8-1.2c-0.7-0.9-1.5-1.7-2.2-2.6c-0.3-0.4-0.7-0.6-1.2-0.6c-1.5,0.1-3.1,0.2-4.6,0.3
		c-0.5,0-1,0.1-1.4,0.1c-2.7,0-5.4,0-8.1,0c-0.5,0-0.9,0.1-1.4,0.1c0.3,0.3,0.5,0.6,0.8,0.9c1.1,1.4,2.4,2.7,2.8,4.5
		c0.1,0.3,0.2,0.7,0.2,1c0,0.6-0.2,1.3-0.8,1.5c-0.4,0.1-1-0.1-1.3-0.3c-2-1.8-3.9-3.7-3.8-6.7c0-1.2-0.1-1.2-1.3-1.4
		c-3-0.4-6-0.6-8.9-1.7C4,21,2.6,20.2,1.2,19.2C1,19.1,0.8,19,0.7,18.8c-0.2-0.5-0.6-1-0.5-1.4c0.2-0.7,0.9-0.9,1.6-0.7
		c0.8,0.1,1.6,0.3,2.4,0.5c0.2,0,0.4-0.1,0.7-0.1c-0.1-0.1-0.2-0.3-0.4-0.4C3.7,16.3,2.8,16,2,15.7c-0.4-0.1-0.8-0.2-1.2-0.4
		c-0.9-0.5-1.1-1.3-0.4-2.2C2,10.8,4.4,9.7,7,9c3.8-1,7.7-1.8,11.7-2.2c0.6-0.1,1-0.2,1.1-0.9c0.1-0.6,0.5-1.2,0.6-1.8
		c0.2-1.2,1.1-1.5,2.1-1.6c2.2-0.2,3.5,0.7,4.3,2.8C26.9,5.6,27.1,6,27.3,6c0.3,0,0.7-0.2,0.8-0.5c0.7-1,1.3-2.1,1.9-3.2
		c0.9-1.6,2.5-2.5,4.3-2.2c2.4,0.3,4.7,1,6.9,1.8c3.4,1.3,6.7,2.7,10.2,3.9c2,0.7,4.1,1.3,6.3,1.7c1.4,0.3,1.8,1.2,2.2,2.3
		c0.2,0.7-0.3,1.2-0.7,1.7c-0.3,0.3-0.1,0.5,0.2,0.6c2,0.7,4,0.4,6-0.1c2.3-0.6,4.6-1.2,6.9-1.8c2-0.6,3.9,0.9,3.9,2.9
		c0,2.1,0.1,4.1,0,6.2c-0.2,3-2.4,4.5-5.2,3.4c-2.4-1-4.8-2.1-7.2-3c-0.6-0.3-1.4-0.4-2.1-0.5c-1.3-0.1-1.3-0.1-0.7,1.1
		c0.6,1.2-0.1,2.8-1.4,3.1c-3.1,0.8-6.2,1.5-9.4,2.2c-2.2,0.5-4.4,1.1-6.6,1.6C42.3,27.3,41,27.5,39.7,27.7z"/>
	<path d="M10.5,20.1c-0.4,0-1-0.1-1.7-0.2c-0.1,0-0.3-0.2-0.4-0.3c0.1-0.1,0.2-0.3,0.3-0.3c0.4-0.1,0.8-0.2,1.2-0.3
		c0.3-0.1,0.7-0.1,1-0.2c2.5-0.7,3.1-1.8,3.3-4.2c0.1-1.2-0.1-2.3-0.2-3.5c0-0.2,0.1-0.3,0.1-0.5c0.2,0.1,0.4,0.2,0.5,0.4
		c0.3,1,0.6,2,0.7,3.1c0,1.2-0.1,2.4-0.4,3.5c-0.4,1.8-1.6,2.6-3.5,2.7C11.3,20.1,11.1,20.1,10.5,20.1z"/>
	<path d="M5.4,12.2c0.2-0.4,0.4-0.8,0.7-1.2c0.6-0.8,1.7-0.9,2.5-0.2c1,0.9,1,1.6,0.1,2.6c-0.7,0.8-1.8,0.9-2.5,0.2
		C5.9,13.2,5.7,12.7,5.4,12.2L5.4,12.2z"/>
	<path d="M5.4,12.2c-0.4-0.1-0.7-0.2-1.1-0.3c0.2-0.2,0.3-0.6,0.5-0.6C5.4,11.4,5.5,11.8,5.4,12.2L5.4,12.2z"/>
</g>
</svg>
