<?xml version="1.0" encoding="iso-8859-1"?>
<!-- Generator: Adobe Illustrator 25.3.0, SVG Export Plug-In . SVG Version: 6.00 Build 0)  -->
<svg version="1.1" id="Calque_1" xmlns="http://www.w3.org/2000/svg" xmlns:xlink="http://www.w3.org/1999/xlink" x="0px" y="0px"
	 viewBox="0 0 83.4 27.6" style="enable-background:new 0 0 83.4 27.6;" xml:space="preserve">
<g>
	<path d="M65.9,8.1c2.2,0,4.3,0.1,6.5,0c1.5-0.1,3.1-0.3,4.6-0.5c1.1-0.2,2.2-0.1,3.3-0.8c0.6-0.4,1.5,0,2.2,0.4
		c1.1,0.6,1.3,1.6,0.3,2.5c-2.6,2.6-5.4,5-9.3,5.8c-2.6,0.5-5,1.5-7.6,2c-3.3,0.6-6.5,1.4-9.6,2.6c-2.8,1.1-5.7,2.2-8.3,3.7
		c-2,1.1-4,2.1-6.1,2.9c-1.4,0.6-2.9,0.7-4.4,0.8c-1.4,0.1-2.8,0.1-4.1,0c-3.2-0.2-6.3-0.8-8.7-3.2c-0.1-0.1-0.3-0.1-0.4-0.1
		c0,0.1,0,0.2,0.1,0.3c0.2,0.4,0.4,0.9,0.5,1.3c0.1,0.2-0.1,0.5-0.2,0.8c-0.3-0.1-0.6-0.1-0.8-0.2c-0.6-0.6-1.1-1.2-1.5-1.9
		c-0.5-0.9-1.2-1.2-2.2-1.2c-2,0-3.9-0.4-5.8-0.9C10.3,21,6,19.7,1.7,18.2c-1.8-0.6-1.5-0.7-1.7-2.5c0-0.3,0.1-0.6,0.1-0.9
		c-0.1-0.9,0.1-1.1,1-1.2c0.3,0,0.7,0,1-0.2c3.6-1.7,7.2-3.3,10.6-5.2c3.4-1.9,7.1-2.9,10.9-3.7c0.5-0.1,1,0,1.4-0.1
		c0.8-0.1,1.7-0.2,2.5-0.2c0.5,0,1.1-0.1,1.6,0c2,0.1,4,0,5.9,0.3c2.3,0.4,3.7-0.3,4.9-2.1c0.9-1.3,2.3-2,3.9-2.4
		c1.4-0.4,2.1,0.4,1.7,1.7c-0.3,0.9-0.9,1.7-1.8,2.1c-0.8,0.4-1.5,0.7-2.3,1c-0.1,0.1-0.2,0.2-0.4,0.3c0.1,0.1,0.3,0.3,0.4,0.3
		c1.9,0.4,3.8,0.8,5.8,1.1c2.5,0.4,5,0.8,7.6,1.1c2.3,0.2,4.5,0.3,6.8,0.4C63.1,8.2,64.5,8.1,65.9,8.1C65.9,8.1,65.9,8.1,65.9,8.1z"
		/>
	<path d="M44.8,11.8c-4.4-0.1-8.7-0.2-13.1-0.4c-0.3,0-0.6,0-0.9-0.1c-0.2-0.1-0.4-0.2-0.6-0.4c0.2-0.1,0.4-0.2,0.6-0.2
		c2.4,0,4.8-0.2,7.1,0.1c2.5,0.3,5,0,7.5,0.3c4,0.5,8,0.4,12,0.2c2.8-0.1,5.6-0.1,8.3-0.6c0.9-0.2,1.9-0.2,2.8-0.3
		c1.7-0.1,3.4-0.6,5.1-0.9c0.2,0,0.5-0.1,0.7,0c0.2,0,0.3,0.2,0.4,0.3c-0.1,0.1-0.2,0.2-0.3,0.2c-2,0.4-4.1,0.7-6.1,1.1
		c-1.5,0.2-3,0.4-4.6,0.7c-0.2,0-0.5,0.1-0.7,0.1c-3.9,0.1-7.9,0.3-11.8,0.3c-2.2,0-4.4-0.3-6.6-0.4C44.8,11.7,44.8,11.7,44.8,11.8z
		"/>
</g>
</svg>
