<?xml version="1.0" encoding="iso-8859-1"?>
<!-- Generator: Adobe Illustrator 25.3.0, SVG Export Plug-In . SVG Version: 6.00 Build 0)  -->
<svg version="1.1" id="Calque_1" xmlns="http://www.w3.org/2000/svg" xmlns:xlink="http://www.w3.org/1999/xlink" x="0px" y="0px"
	 viewBox="0 0 75.4 27.3" style="enable-background:new 0 0 75.4 27.3;" xml:space="preserve">
<g>
	<path d="M33.4,0c2.2,0,4.4,0.4,6.6,0.8c2,0.4,4.1,0.5,6.2,0.8C48,1.8,49.9,2,51.8,2.4c2,0.4,4.1,0.8,6.1,1.4c1,0.3,1.9,0.6,2.8,1.2
		c1.2,0.7,2,1.8,1.6,3.3c-0.2,0.8,0.3,0.6,0.7,0.5c1.6-0.4,3.2-0.8,4.8-1.2c1.4-0.4,2.8-1,4.3-0.9c1.1,0.1,2,0.5,2.5,1.5
		c0.3,0.6,0.7,1.3,0.7,2c0,2.3,0.4,4.6-0.3,6.9c-0.3,1.2-0.7,1.6-2,1.5c-0.9,0-1.8-0.2-2.6-0.4c-2.7-0.5-5.3-1.1-8-1.7
		c-0.5-0.1-1.1,0-1.6-0.1c-0.7-0.1-0.6,0-0.3,0.6c0.6,1.1,0.1,2-1,2.6c-2.9,1.4-5.8,2.7-9,3.2c-2.2,0.3-4.2-0.2-5.9-1.8
		c-0.3-0.3-0.6-0.6-0.9-0.9c-0.5-0.6-1.1-0.6-1.8-0.5c-3.4,0.6-6.8,1.1-10.3,1c-0.2,0-0.4,0.1-0.7,0.1c0.1,0.2,0.3,0.4,0.4,0.6
		c0.2,0.4,0.5,0.7,0.5,1.1c-0.1,1.8-0.6,3.4-2,4.6c-0.4,0.4-0.8,0.4-1.2,0c-1.6-1.5-2.8-3.3-3.3-5.4c-0.1-0.5-0.3-0.8-0.9-1
		c-2.3-0.5-4.6-1-7-1.4c-2.9-0.6-5.8-1.2-8.7-1.8c-1.9-0.4-3.8-0.9-5.8-1c-1.9-0.2-2.3-1.6-2.8-2.9c-0.1-0.2,0.1-0.6,0.2-0.8
		c0.2-0.3,0.5-0.5,0.8-0.7c2.4-1.2,4.8-2.4,7.3-3.4c3.2-1.3,6.6-2.5,10-3.2c1.1-0.2,2.2-0.4,3.3-0.6c0.5-0.1,0.9-0.2,1.1-0.7
		c0-0.1,0.1-0.2,0.2-0.3c1.1-2.4,3-3.3,5.6-3.3C30.2,0.5,31.8,0.2,33.4,0z"/>
	<path d="M10.3,12.4c-0.9-0.1-1.7-0.9-1.6-1.7c0.1-0.7,1.3-1.6,2.1-1.6c1,0,1.6,0.8,1.5,1.8C12.2,11.9,11.4,12.5,10.3,12.4z"/>
</g>
</svg>
