<?xml version="1.0" encoding="iso-8859-1"?>
<!-- Generator: Adobe Illustrator 25.3.0, SVG Export Plug-In . SVG Version: 6.00 Build 0)  -->
<svg version="1.1" id="Calque_1" xmlns="http://www.w3.org/2000/svg" xmlns:xlink="http://www.w3.org/1999/xlink" x="0px" y="0px"
	 viewBox="0 0 80.1 28.3" style="enable-background:new 0 0 80.1 28.3;" xml:space="preserve">
<g>
	<path d="M25.2,6.3c1,0,1.9,0,2.9,0c0.7,0,1.1-0.1,1.3-0.9c0.3-0.9,0.8-1.9,1.3-2.7c0.5-0.8,1.3-1.3,1.9-2c1.5,0.4,2.5-1.3,4.1-0.6
		c0.7,0.3,1.5-0.2,2.4,0.3c0.4,0.3,1,0.2,1.3,0.8c0.1,0.2,0.6,0.3,0.9,0.4c0.4,0.1,0.6,0.2,0.3,0.6c-0.5,0.7-0.8,1.4-0.6,2.3
		c0.1,0.4-0.3,0.8-0.4,1.3c-0.2,0.6-0.3,1.1-0.3,1.7c0,0.2,0.4,0.6,0.6,0.7c0.1,0.1,0.4-0.2,0.6-0.4c0.7-0.9,1.4-1.9,2.2-2.8
		c2.6-2.9,5.9-3.6,9.5-2.6c1.7,0.5,3.4,1,4.9,2.1c1.4,1,1.6,1.9,0.4,3.2c-0.7,0.7-1.6,1.1-2.5,1.6c-0.4,0.2-0.9,0.2-1.4,0.4
		C54.3,9.7,54.2,9.9,54,10c0.2,0.1,0.4,0.1,0.6,0.2c1.7,0.5,3.4,0.3,5.2,0.4c2.1,0.1,3.8-0.6,5.5-1.5c2.1-1.2,4.3-2,6.6-2.6
		c2.8-0.7,6.8,1.4,7.8,4c0.2,0.5,0.3,1.1,0.3,1.7c0,1.2,0,2.5,0,3.7c0,0.8-0.2,1.5-0.5,2.2c-0.6,1.7-2.1,2.5-3.6,2.9
		c-2,0.5-4.1,0.6-6.1-0.2c-0.5-0.2-1-0.3-1.5-0.5c-2.1-0.8-4.5-1-6.5-2.1c-0.8-0.5-1.8-0.2-2.8-0.1c-0.7,0.1-1.4,0.2-2.1,0.2
		c0.7,0.2,1.3,0.5,2,0.8c0.4,0.2,0.8,0.4,1.1,0.6c0.9,0.6,1,1.7,0.3,2.5c-0.5,0.5-1.2,0.9-1.9,1.2c-1.2,0.6-2.4,0.9-3.7,1.2
		c-1.9,0.4-3.6,0.2-5.4-0.4c-1.9-0.6-3.4-1.4-4.4-3.1c-0.4-0.7-0.8-1-1.6-0.8c-0.9,0.1-1.9,0.3-2.8,0.5c-1.2,0.2-2.3,0.5-3.5,0.5
		c-3.7,0.1-7.4,0-11.2,0.1c-0.2,0-0.4,0.1-0.6,0.1c0.2,0.1,0.4,0.3,0.6,0.4c0.5,0.3,1,0.6,1.5,0.9c1.7,1.2,2.7,2.8,2.7,4.9
		c0,0.4-0.1,0.6-0.6,0.5c-2-0.3-3.8-0.8-5.5-2c-0.4-0.3-0.6-0.7-0.9-1.1c-0.4-0.6-0.8-1.2-1.1-1.8c-0.8-1.8-2.3-2.3-4.2-2.3
		c-2.2,0-4.4-0.1-6.7,0c-1.7,0.1-3.3-0.2-4.7-0.9c-2.3-1.1-4.6-2.2-6.1-4.4c-0.2-0.3-0.4-0.5-0.3-0.9c0.2-1.2,0.7-2.1,1.9-2.7
		c1.7-0.8,3.2-2,5-2.6c0.3-0.1,0.6-0.4,1-0.4c2.9-0.2,5.4-1.6,8.3-1.9c1.5-0.2,3-0.5,4.5-0.7c1.5-0.1,3-0.3,4.4-0.4
		C25.2,6.3,25.2,6.3,25.2,6.3z"/>
	<path d="M24.6,10.7c-0.2-0.1-0.7,0-0.4-0.5c0.1-0.2,0.4-0.5,0.6-0.6c2.8-1.2,5.6-2.3,8.7-0.9c1.9,0.9,3.6,2,4.9,3.7
		c0.8,1.1,0.8,1.8,0,2.9c-0.2,0.2-0.4,0.4-0.6,0.7c-2.8,2.8-8,3.9-11.7,2.4c-0.5-0.2-1.1-0.3-1.7-0.6c-0.4-0.1-1-0.2-0.7-0.8
		c0.2-0.4,0.6-0.2,0.9,0c0.2,0.1,0.3,0.2,0.5,0.2c2.7,1.1,5.5,1.3,8.2,0.4c1.4-0.4,2.7-1.2,3.9-2c1.2-0.8,1.1-2,0.2-3.2
		c-1.5-2-3.6-3-6-3.4c-0.6-0.1-1.3-0.2-1.9,0C27.9,9.6,26.1,9.5,24.6,10.7L24.6,10.7z"/>
	<path d="M25.7,11.7c0.1,0.1,0.2,0.2,0.2,0.3c0,0.8,0,1.6-0.1,2.4c-0.1,0-0.1,0-0.2-0.1c-0.2-0.8-0.5-1.6-0.1-2.5
		C25.6,11.8,25.7,11.7,25.7,11.7z"/>
	<path d="M64.6,11.7c0.2,0.2,0.6,0.5,0.7,0.7c0.1,0.5,0.1,1.1,0.2,1.6c-0.9-0.1-0.3-1-0.7-1.4C64.5,12.5,64.6,12,64.6,11.7
		L64.6,11.7z"/>
	<path d="M65.4,15c-0.1,0.4-0.1,0.6-0.2,0.8c0,0.1-0.3,0.1-0.4,0.1c0-0.2-0.1-0.4,0-0.6c0.1-0.2,0.3-0.4,0.5-0.6
		C65.3,14.8,65.4,14.9,65.4,15z"/>
	<path d="M24.6,10.6c0.7,0,1,0.4,1.1,1.1l-0.1,0.1C24.9,11.7,24.9,11.1,24.6,10.6L24.6,10.6z"/>
</g>
</svg>
