<?xml version="1.0" encoding="iso-8859-1"?>
<!-- Generator: Adobe Illustrator 25.3.0, SVG Export Plug-In . SVG Version: 6.00 Build 0)  -->
<svg version="1.1" id="Calque_1" xmlns="http://www.w3.org/2000/svg" xmlns:xlink="http://www.w3.org/1999/xlink" x="0px" y="0px"
	 viewBox="0 0 84.3 23.6" style="enable-background:new 0 0 84.3 23.6;" xml:space="preserve">
<g>
	<path d="M25.1,3.3c2.4,0.2,4.8,0.3,7.1,0.5c1.1,0.1,2.1-0.2,3-0.9c1.6-1.1,3.2-2.3,5.2-2.8c1.5-0.4,2.1,0.1,1.8,1.6
		c-0.4,2.1,0.5,3.6,2.6,4.1c1.3,0.3,2.7,0.5,4,0.9c0.8,0.3,1.2,0,1.7-0.5c1-0.8,2-1.6,3.1-2.4c0.5-0.3,1.1-0.6,1.6-0.7
		c1.2-0.3,1.9,0.4,1.7,1.6c-0.4,2.4,0.5,3.2,2,3.6c0.9,0.2,1.9,0.1,2.8-0.2c2.4-0.8,4.7-1.6,7.2-1.9c1.6-0.2,3.2-0.5,4.8-0.6
		c2.5-0.1,5-0.1,7.6,0c0.8,0,1.6,0.2,2.3,0.4c0.9,0.4,0.9,1.3,0.1,1.9c-0.6,0.4-1.1,0.9-1.6,1.4c-0.7,0.8-1.2,0.9-2,0.3
		c-0.3-0.2-0.5-0.5-0.8-0.7c-0.4-0.2-0.7-0.3-1,0.2c-0.4,0.8-1.4,0.8-2.2,1.1c-2.1,0.8-4.3,1.5-6.4,2.3c-0.6,0.2-1.1,0.7-1.6,1.1
		c-0.4,0.4-0.8,1-0.4,1.6c0.3,0.6,0,1-0.4,1.4c-0.5,0.4-1,0.4-1.5,0.1c-0.7-0.5-1.5-1-2.2-1.5c-0.7-0.6-1.3-1.3-1.9-1.9
		c-0.7-0.6-1.4-0.4-1.8,0.4c-0.2,0.5-0.3,1.1-0.4,1.7c-0.1,1.6-0.9,2.2-2.5,1.8c-1.2-0.3-2.3-1-3.3-1.7c-1.1-0.8-2.3-1.2-3.7-1
		c-0.2,0-0.5,0.3-0.6,0.5c-0.5,1.6-1.7,2.8-2.7,4.1c-0.5,0.6-1.2,0.6-1.8,0.2c-0.8-0.6-1.5-1.3-2.3-2c-0.3-0.3-0.6-0.7-0.9-1.1
		c-0.5-0.7-1.2-1-2.2-0.9c-2.5,0.2-5,0.3-7.5,0.3c-1.3,0-2.6-0.2-3.9-0.3c-0.4,0-0.8,0-0.4,0.5c0.5,0.7,0.3,1.3,0,2
		c-0.7,1.5-1.4,3.1-2.2,4.7c-0.5,1.1-1.4,1.3-2.3,0.5c-0.8-0.7-1.6-1.6-2.1-2.6c-0.7-1.5-1.3-3.2-1.7-4.8c-0.3-1.2-0.5-1.6-1.7-1.6
		c-2.2-0.1-4.2-0.9-6.3-1.4c-0.5-0.1-1.1-0.1-1.6-0.1c-1.3-0.1-2.6-0.2-3.9-0.4c-0.3,0-0.9-0.2-0.9-0.4c-0.3-1-1.1-0.7-1.8-0.9
		c-1-0.4-2-0.7-3-1.2C0.3,9.5,0,9,0,8.8c0-0.3,0.4-0.6,0.7-0.6c1.9-0.6,3.7-1.2,5.6-1.7c2.8-0.7,5.5-1.3,8.3-1.9
		C18.1,3.8,21.6,3.3,25.1,3.3z"/>
	<path d="M68.7,10.9c-0.5,0.2-0.9,0.3-1.4,0.4c0,0-0.1-0.1-0.1-0.1c0-0.1,0.1-0.2,0.1-0.2c0.3-0.1,0.6-0.2,1-0.3
		C68.3,10.7,68.4,10.8,68.7,10.9z"/>
</g>
</svg>
