<?xml version="1.0" encoding="iso-8859-1"?>
<!-- Generator: Adobe Illustrator 25.3.0, SVG Export Plug-In . SVG Version: 6.00 Build 0)  -->
<svg version="1.1" id="Calque_1" xmlns="http://www.w3.org/2000/svg" xmlns:xlink="http://www.w3.org/1999/xlink" x="0px" y="0px"
	 viewBox="0 0 76.9 46.4" style="enable-background:new 0 0 76.9 46.4;" xml:space="preserve">
<g>
	<path d="M70.6,24.2c-0.9,0-1.8,0.1-2.7,0c-1.7-0.2-3.1,0.5-4.4,1.4c-0.3,0.2-0.7,0.4-0.9,0.3c-0.6-0.3-0.9,0-1.4,0.2
		c-0.6,0.3-1.5,0.2-2.2,0.1c-0.7,0-1.4,0.1-2,0.1c-1.3,0-2.6-0.6-3.8,0.3c-0.1,0.1-0.5,0.1-0.7,0c-0.6-0.3-1.2-0.5-1.7,0.3
		c-0.1,0.1-0.3,0.2-0.3,0.1c-0.9-0.7-1.8,0.2-2.7,0.2c-1.3,0-2.7-0.1-3.9,0.7C43.7,28,43.5,28,43.5,28c-0.9-1-1.9,0.4-2.8-0.1
		c-0.1-0.1-0.4,0.1-0.7,0.2c-0.4,0.2-0.8,0.4-1.3,0.2c-0.4-0.1-1,0.1-1.5,0.3c-0.4,0.1-0.7,0.4-1,0.7c0.4,0.2,0.7,0.4,1.1,0.5
		c1.8,0.7,2,0.9,2,2.8c0,1.3,0,2.6,0,3.9c0,2.3-0.5,4.6-1,6.8c-0.1,0.5-0.1,1-0.1,1.5c0,0.6-0.1,1-0.7,1.3c-0.6,0.2-1.2,0.3-1.7-0.2
		c-0.7-0.7-1-1.5-1-2.4c0-2.2,0.1-4.4,0.1-6.6c0-0.7-0.2-1.4-0.3-2c-1-0.2-1.1,0.9-1.8,1.3c-0.4,0.2-0.5,0.7-0.8,1.1
		c-0.5,0.8-0.4,1.2,0.4,1.4c0.2,0,0.4,0,0.5,0c0.4-0.1,0.7-0.2,0.9,0.4c0.1,0.5,0.4,0.9-0.1,1.4c-0.6,0.5-1.2,0.6-1.8,0.3
		c-0.8-0.3-1.2-0.1-1.7,0.5c-0.7,0.8-0.7,0.8-1.7,0c-1-0.8-2.3-0.4-2.6,0.8c-0.1,0.5-0.2,0.9-0.8,0.9c-0.5,0-0.9-0.3-1-0.8
		c-0.1-0.2,0-0.5-0.1-0.7c-0.2-0.6-0.6-0.7-1-0.3c-0.4,0.4-0.6,0.8-1,1.2c-0.2,0.2-0.5,0.6-0.7,0.5c-0.4-0.1-0.9-0.4-1.1-0.7
		c-0.3-0.4-0.3-1-0.5-1.5c-0.3-0.6-0.6-0.6-1,0c-0.2,0.2-0.2,0.5-0.3,0.8c-0.1,0.3-0.2,0.7-0.4,0.9c-0.2,0.2-0.6,0.5-0.7,0.4
		c-0.3-0.1-0.5-0.5-0.7-0.8c-0.1-0.3,0-0.6-0.1-0.9c-0.1-0.3-0.2-0.7-0.3-1c-0.2-0.5-0.5-0.5-0.8-0.1c-0.2,0.2-0.4,0.4-0.6,0.7
		c-0.2,0.4-0.5,0.5-0.9,0.4c-0.3-0.2-0.5-0.5-0.6-0.8c-0.1-0.3,0-0.6,0-0.9c-0.1-0.5,0-1.1-0.7-0.3c-0.2,0.2-0.8,0.3-1.1,0.1
		c-0.5-0.2-0.2-0.7-0.1-1.1c0.1-0.2,0.1-0.3,0.1-0.5c0-0.1-0.1-0.2-0.2-0.3c-0.1,0-0.3,0-0.3,0.1c-0.2,0.2-0.3,0.5-0.6,0.7
		c-0.2,0.1-0.6,0.2-0.8,0.1c-0.2-0.2-0.4-0.5-0.5-0.8c0-0.3,0.2-0.6,0.2-0.8c0-0.2-0.1-0.4-0.2-0.6c-0.2,0.1-0.3,0.1-0.5,0.2
		c-0.1,0-0.1,0.1-0.1,0.1c-0.4,0.3-0.6,0.9-1.2,0.5c-0.6-0.4-0.1-0.9-0.1-1.3c0-0.1,0.1-0.2,0.1-0.3c0-0.2,0-0.4-0.1-0.6
		c0-0.1-0.3,0-0.5,0c-1.3,0.4-1.6,0.2-1.5-1c0.1-0.8,0-1.2-1-1.1c-0.8,0-1.1-0.4-0.9-1.3c0.2-0.6,0-1-0.4-1.4
		c-0.6-0.5-0.7-1.1-0.9-1.8c-0.4-1.4-0.7-2.9-1.8-3.9c-0.5-0.4-0.4-0.9,0.1-1.2C1,22.6,1,22.1,1.2,21.6c0.3-1.2,0.7-2.4,1.1-3.5
		c0.1-0.3,0.4-0.7,0.7-0.8C3.8,17,4,16.4,4,15.5c0-0.5,0.2-1,0.8-1c0.7-0.1,1.2-0.2,0.8-1c-0.1-0.1,0.3-0.6,0.6-0.7
		c0.3-0.1,0.7-0.1,1.1-0.1c0.5,0,0.7-0.2,0.8-0.7c0.2-1.4,0.2-1.4,1.8-1.1c0.9,0.2,1.3-0.1,1.4-1.1c0-0.3,0-0.6,0.2-0.8
		c0.2-0.2,0.5-0.4,0.8-0.4c0.3,0,0.7,0.2,1,0.2c0.6,0.1,1-0.1,1.2-0.8c0.1-0.3,0.2-0.7,0.4-1c0.5-1,0.7-1,1.7-0.3
		c0.7,0.5,1,0.4,1.4-0.4C17.9,6,17.9,5.8,18,5.6c0.2-0.4,0.3-0.8,0.6-1c0.5-0.2,0.7,0.3,0.9,0.6c0.8,0.9,1.2,0.9,1.9,0
		C21.6,5,21.8,4.7,22,4.5c0.4-0.5,0.7-0.5,1.1,0c0.2,0.2,0.3,0.5,0.5,0.7c0.3,0.3,0.7,0.4,1.1,0C24.8,5,25,4.8,25.1,4.6
		c0.7-0.8,1.1-0.8,1.6,0.3c0.3,0.5,0.5,0.6,0.8,0c0.1-0.3,0.4-0.5,0.6-0.6c0.5-0.3,0.9-0.2,1.1,0.4c0.1,0.2,0,0.5,0.1,0.7
		c0.1,0.3,0.3,0.5,0.7,0.2c0,0,0.1-0.1,0.1-0.1c1.4-1.1,1.3-1.1,2,0.5c0.1,0.3,0.6,0.5,0.9,0.7c0.7,0.3,1.5-0.5,2.2,0.1
		c0.1-0.1,0.3-0.2,0.3-0.4C35.8,5.1,35.9,4,36,2.8c0.1-1.2,0.8-1.9,1.7-2.6c0.4-0.3,0.8-0.1,0.9,0.2c0.3,1,0.5,1.9,0.7,2.9
		c0.1,0.3-0.1,0.6,0,0.8c0.6,1.8,0.4,3.6,0.6,5.4c0.3,1.8-0.3,3.4-0.1,5.1c0.1,1.5-0.6,2.2-2,2.4c-0.3,0.1-0.7,0-1.1,0.1
		c-0.1,0-0.2,0.2-0.3,0.4c0.1,0,0.2,0.1,0.3,0.1c0.9,0.3,1.7,0.8,2.6,0.9c0.9,0.1,1.7,0.2,2.5,0.7c0.4,0.2,1,0.2,1.5,0.2
		c2.1,0,4.2,1,6.4,0.6c0.9,0.8,1.7,0.2,2.6,0c0.2-0.1,0.6-0.1,0.7,0c0.5,0.6,1.1,0.6,1.8,0.3c0.1-0.1,0.4,0,0.5,0.1
		c0.6,0.7,1.4,0.5,2.2,0.5c2.9-0.1,5.7,0.2,8.4,1.4c0.5,0.2,1,0.3,1.6,0.4c2.8,0.1,5.6,0.3,8.4,0.4c0.4,0,0.7,0,1.1,0.1
		c0.1,0,0.3,0.2,0.3,0.4c0,0.1-0.2,0.3-0.3,0.3c-1.6,0.5-3.3,0.4-5,0.4C71.3,24.2,70.9,24.2,70.6,24.2
		C70.6,24.2,70.6,24.2,70.6,24.2z"/>
	<path d="M23.4,6.3c0,0.5,0.3,1.2-0.5,1.4c-0.8,0.2-1.2-0.1-1.7-1c0.2-0.2,0.3-0.3,0.5-0.5C22.3,5.9,22.9,5.9,23.4,6.3L23.4,6.3z"/>
	<path d="M8.3,16.6C8.6,16.5,9,16.3,9,16.4c0.3,0.3,0.5,0.7,0.7,1c-0.1,0-0.3,0.1-0.4,0c-0.2-0.1-0.4-0.2-0.6-0.4
		C8.6,16.9,8.4,16.8,8.3,16.6z"/>
	<path d="M50.4,25.6c-1.9,0.2-3.7-0.1-5.5-0.6c-0.8-0.2-1.6-0.3-2.4-0.4l0,0c-0.8-0.6-1.7-0.3-2.6-0.3c-0.6,0-0.5,0.2-0.3,0.6
		c0.1,0.2,0.1,0.7,0,0.7c-0.4,0.2-0.9,0.3-1.3,0.3c-0.2,0-0.3-0.4-0.5-0.5c-0.4-0.2-0.3-0.5,0-0.6c0.6-0.3,1.2-0.6,0.7-1.5
		c0-0.1,0.3-0.4,0.4-0.4c0.3,0,0.6,0.1,0.9,0.1c0.5,0.1,1.1,0.2,1.6,0.1c0.5-0.1,0.9-0.4,1.4-0.6c0.1,0.5,0.5,0.7,0.9,0.7
		c0.3,0,0.5-0.2,0.8-0.3c0.2-0.1,0.5-0.1,0.6-0.1c1.3,0.5,2.6,1,4,1.6C49.8,24.7,50.4,24.8,50.4,25.6L50.4,25.6z"/>
	<path d="M9.8,29.9c-0.4,0.2-0.8,0.5-1.2,0.7c-1.7,0.7-3.8-0.5-4-2.3c0-0.1,0.1-0.3,0.2-0.3c0.1,0,0.4,0,0.4,0.1
		c0.2,0.5,0.4,0.6,1.1,0.3c1-0.6,2.2-0.6,3.1,0.4c0.1,0.1,0.3,0.1,0.4,0.1c0-0.1,0-0.2,0-0.3c-0.1-0.2-0.2-0.4-0.2-0.7
		c0-0.1,0.1-0.2,0.1-0.3c0.1,0.1,0.4,0.1,0.4,0.2c0.1,0.6,0.1,1.2,0.2,1.7C10.1,29.7,10,29.8,9.8,29.9z"/>
	<path d="M8.3,21.8c0,0-0.3-0.1-0.3-0.2c0-0.2,0.1-0.5,0.2-0.6c0.5-0.3,1.1-0.5,1.6-0.7c1.2-0.5,1.6-1.5,1.5-2.5
		c-0.1-0.9,0.6-1.2,0.8-1.8c0-0.1,0.4-0.1,0.5,0c0.1,0.1,0.3,0.4,0.2,0.5c-0.3,0.7-0.7,1.3-0.7,2.2C12.2,20,9.8,21.7,8.3,21.8z"/>
	<path d="M12.3,28.7C12.2,28.8,12.1,29,12,29c-0.1,0-0.3-0.1-0.4-0.2c-0.1-0.1-0.1-0.2-0.1-0.3c-0.1-1.4-1-2.3-2.3-2.8
		c-0.2-0.1-0.5-0.4-0.4-0.6c0.1-0.4,0.4-0.4,0.8-0.3C11,25.3,12.3,27.2,12.3,28.7z"/>
	<path d="M53.9,25c-0.3-0.2-0.7-0.3-0.7-0.4c0-0.2,0.1-0.5,0.3-0.6c0.1-0.1,0.3-0.2,0.5-0.2c1.3-0.1,0.3-0.4,0.1-0.6
		c0,0-0.1-0.1-0.1-0.1c-0.2-0.3-0.8-0.6-0.2-1c0.3-0.2,0.9-0.6,1.4,0c0.6,0.7,0.3,1.5,0,2.1C54.9,24.6,54.3,24.8,53.9,25z"/>
	<path d="M31.6,16.2c0.2,0.1,0.4,0.1,0.6,0.3c0.7,0.6,1.4,1.2,2.1,1.9c0.1,0.1,0.1,0.4,0,0.4c-0.1,0.1-0.4,0.1-0.4,0.1
		c-0.3-0.2-0.6-0.6-0.9-0.8c-0.3-0.3-0.6-0.7-1.2-0.6c-0.3,0.1-0.6-0.8-0.5-1.1C31.3,16.3,31.4,16.3,31.6,16.2z"/>
	<path d="M19.8,39.5c-0.1-0.9,0.6-1.1,1.2-1.2c0.4,0,0.8,0.3,1.2,0.6c0.3,0.3,0.1,0.9-0.3,0.9C21.2,39.8,20.5,39.6,19.8,39.5
		L19.8,39.5z"/>
	<path d="M34.8,27.3c-0.2,0.7-2.2,2.2-2.9,2.2c-0.1,0-0.3-0.1-0.4-0.2c0,0,0-0.3,0.1-0.3c0.9-0.6,1.8-1.3,2.8-1.9
		c0.1-0.1,0.2,0,0.3,0C34.7,27.1,34.7,27.2,34.8,27.3z"/>
	<path d="M21,7.5c-0.4,0.4-0.7,0.8-1.1,1c-0.3,0.2-0.7,0.1-1,0.1c-0.1,0-0.2-0.4-0.2-0.6c0.1-0.7,1-1.1,1.7-0.9
		C20.6,7.2,20.7,7.3,21,7.5z"/>
	<path d="M24.9,6.3c0.2,0,0.4,0,0.5,0c0.5,0,1,0.1,1.2,0.6c0,0.1-0.1,0.4-0.2,0.4c-0.5,0.1-1.1,0.5-1.5,0.3
		C24.1,7.3,24.7,6.7,24.9,6.3L24.9,6.3z"/>
	<path d="M25.7,15.2c0.3-0.3,0.6-0.8,1-0.9c0.3-0.1,0.9,0.5,1,0.8c0.2,0.5-0.3,0.6-0.8,0.6C26.4,15.8,26,16,25.7,15.2z"/>
	<path d="M34.1,25.1c0.2-0.3,0.3-0.5,0.4-0.6c0.6-0.4,1.1-0.1,1.7,0.1c0.1,0,0.1,0.3,0.1,0.3c-0.5,0.3-0.9,0.7-1.5,0.9
		C34.8,25.9,34.4,25.4,34.1,25.1z"/>
	<path d="M11.6,36.7c-0.3-0.5-0.5-1.1,0.3-1.4c0.3-0.1,0.8,0,0.9,0.2c0.2,0.3,0.2,0.8,0.2,1.1c0,0.1-0.3,0.2-0.4,0.2
		C12.2,36.8,11.9,36.7,11.6,36.7L11.6,36.7z"/>
	<path d="M32.3,23.5c0.2,0,0.5-0.1,0.7-0.1c0.2,0,0.5-0.1,0.7-0.1c-0.2-0.1-0.4-0.1-0.6-0.2c-0.2-0.1-0.3-0.3-0.5-0.4
		c0.2-0.1,0.4-0.4,0.7-0.4c0.5,0,1,0.2,1,0.8c0,0.2-0.2,0.7-0.3,0.7c-0.5,0-1-0.1-1.5-0.1C32.4,23.7,32.3,23.6,32.3,23.5z"/>
	<path d="M40,21.2c-0.1,0.5-1.1,1-1.5,0.7c-0.2-0.1-0.6-0.6-0.5-0.7c0.1-0.5,0.6-0.8,1.1-0.6C39.4,20.7,39.7,21,40,21.2z"/>
	<path d="M27.8,39.9c-0.6,0-1.2-0.1-1.7-0.2c-0.1,0-0.3-0.2-0.3-0.4c0-0.1,0.2-0.3,0.3-0.4c0.1-0.1,0.2-0.1,0.3-0.1
		C27.5,38.4,27.6,38.5,27.8,39.9L27.8,39.9z"/>
	<path d="M35.8,20.7c0.4,0.3,0.6,0.5,0.9,0.8c-0.3,0.3-0.6,0.7-1,0.8c-0.3,0.1-0.7-0.3-1-0.5C35,21.4,35.4,21.1,35.8,20.7z"/>
	<path d="M51.5,23.6c0.3,0.3,0.8,0.5,0.7,0.6c-0.1,0.3-0.4,0.6-0.7,0.9c-0.3-0.3-0.6-0.6-1-0.9C50.8,24.1,51.1,23.9,51.5,23.6z"/>
	<path d="M29,10.8c-0.4,0.3-0.7,0.7-0.7,0.7c-0.4-0.2-0.7-0.5-1-0.8c0.2-0.2,0.5-0.5,0.7-0.5C28.2,10.3,28.5,10.6,29,10.8z"/>
	<path d="M42.5,24.5c0.3,0.5,0.5,0.9-0.3,1.3c-0.6,0.3-1,0-1.4-0.4c0,0,0.2-0.5,0.3-0.4C41.7,25,42.2,25,42.5,24.5L42.5,24.5z"/>
	<path d="M29.9,32.8c0.3,0.4,0.7,0.6,0.7,0.8c0.1,0.4-0.3,0.8-0.7,0.8c-0.2,0-0.5-0.4-0.6-0.7C29.3,33.5,29.6,33.2,29.9,32.8z"/>
	<path d="M24.6,16.4c-0.5,0.3-0.8,0.4-1.2,0.6c-0.1-0.3-0.4-0.6-0.3-0.9c0-0.4,0.4-0.5,0.8-0.4C24.1,15.7,24.3,16,24.6,16.4z"/>
	<path d="M25.6,18.7c0.3,0.3,0.6,0.4,0.6,0.6c0.2,0.4-0.3,1-0.8,0.8c-0.3-0.1-0.6-0.5-0.8-0.7C24.9,19.3,25.6,19.6,25.6,18.7z"/>
	<path d="M56.8,23.3c-0.4-0.4-0.6-0.6-0.8-0.8c0.3-0.2,0.5-0.4,0.8-0.5c0.2,0,0.5,0.2,0.7,0.3C57.4,22.6,57.1,22.9,56.8,23.3z"/>
	<path d="M31.1,8c-0.4-0.1-0.7-0.2-0.9-0.3c-0.2-0.1-0.3-0.3-0.4-0.4c0.2,0,0.4-0.1,0.6-0.1c0.5-0.3,1-0.5,1.1,0.4
		C31.4,7.7,31.1,7.9,31.1,8z"/>
	<path d="M9.5,33.7c-0.3,0.1-0.5,0.2-0.7,0.2c-0.1-0.6-0.4-0.7-0.9-0.6c0,0-0.1-0.3-0.2-0.4c0-0.1,0.1-0.3,0.2-0.3
		c0.4,0.1,0.8,0.1,1.1,0.3C9.2,33,9.3,33.3,9.5,33.7z"/>
	<path d="M60.9,23.9c-0.3-0.3-0.6-0.5-0.6-0.6c0.2-0.3,0.4-0.6,0.6-0.9c0.2,0.2,0.6,0.4,0.6,0.5C61.4,23.2,61.2,23.5,60.9,23.9z"/>
	<path d="M9.8,29.9c0.1-0.1,0.2-0.2,0.4-0.4c0.2,0.2,0.6,0.3,0.7,0.6c0.1,0.2-0.1,0.5-0.2,0.8c-0.2-0.1-0.5-0.2-0.7-0.3
		C9.8,30.4,9.8,30.1,9.8,29.9z"/>
	<path d="M14.9,19.1c0,0,0.2,0.3,0.1,0.4c-0.2,0.3-0.5,0.5-0.8,0.7c-0.1,0-0.4-0.2-0.4-0.4C13.7,19.2,14.2,19.2,14.9,19.1z"/>
	<path d="M49.1,21c0.3,0.4,0.4,0.6,0.6,0.8c-0.3,0.2-0.5,0.4-0.8,0.5c-0.1,0-0.4-0.2-0.6-0.3C48.6,21.8,48.8,21.5,49.1,21z"/>
	<path d="M19.5,32.6c0,0.5-0.1,0.9-0.7,0.8c-0.3-0.1-0.5-0.4-0.8-0.6c0.4-0.2,0.8-0.4,1.2-0.6C19.3,32.2,19.5,32.5,19.5,32.6z"/>
	<path d="M22.4,9.6c0.4,0.4,0.6,0.6,0.9,0.8c-0.3,0.2-0.6,0.5-1,0.7c0,0-0.3-0.2-0.3-0.3C22.1,10.5,22.2,10.1,22.4,9.6z"/>
	<path d="M30.3,18.2c-0.1,0.6-0.5,0.7-0.9,0.6c-0.1,0-0.3-0.2-0.4-0.3c0.3-0.2,0.7-0.5,1-0.7C30,17.8,30.2,18.1,30.3,18.2z"/>
	<path d="M42.6,21.5c-0.5,0.2-0.8,0.4-1.1,0.4c-0.1,0-0.4-0.2-0.4-0.4c-0.1-0.4,0.2-0.7,0.6-0.6C42,21,42.2,21.2,42.6,21.5z"/>
	<path d="M27.6,22.7c0.1,0.1,0.3,0.2,0.5,0.4c-0.4,0.3-0.7,0.6-1.1,0.9c0-0.1,0-0.2-0.1-0.3C27.6,23.6,26.4,22.7,27.6,22.7z"/>
	<path d="M56.5,24.7c-0.1-0.1-0.2-0.1-0.2-0.2c0-0.2,0-0.4,0.1-0.5c0.2-0.2,0.5-0.3,0.8-0.4c0.1,0,0.4,0.1,0.4,0.1
		c0,0.2,0,0.5-0.1,0.6C57.2,24.5,56.8,24.6,56.5,24.7z"/>
	<path d="M21,22.6c0.2,0.4,0.5,0.7,0.5,1c0,0.1-0.4,0.3-0.6,0.5c-0.1-0.3-0.3-0.5-0.3-0.8C20.6,23.1,20.8,22.9,21,22.6z"/>
	<path d="M13.5,29.9c-0.6,0.3-0.9,0.5-1.2,0.6c-0.1,0-0.2-0.3-0.4-0.5c0.3-0.2,0.5-0.4,0.8-0.5C12.9,29.5,13.1,29.7,13.5,29.9z"/>
	<path d="M16.3,27.8c-0.3,0.2-0.6,0.4-0.9,0.6c0,0-0.3-0.3-0.3-0.4c0.1-0.3,0.3-0.5,0.5-0.7c0.1-0.1,0.3-0.1,0.4-0.1
		C16.1,27.3,16.1,27.5,16.3,27.8z"/>
	<path d="M19.4,16.1c0.2,0.4,0.4,0.6,0.4,0.8c-0.1,0.2-0.4,0.3-0.6,0.4c-0.1,0-0.4-0.3-0.4-0.4C18.9,16.6,19.1,16.4,19.4,16.1z"/>
	<path d="M29.9,23.3c-0.4,0.3-0.7,0.5-1.1,0.8c0,0-0.2-0.1-0.2-0.2c0.1-0.3,0.2-0.7,0.3-1c0-0.1,0.3-0.1,0.4-0.1
		C29.6,22.9,29.7,23,29.9,23.3z"/>
	<path d="M6.3,20c0,0.1,0,0.1,0,0.1c-0.1,0-0.3,0.1-0.3,0.1c-0.5-0.3-0.9-0.7-1.4-1c0,0,0-0.2,0-0.3c0,0,0.1-0.1,0.1,0
		C5.3,19.2,5.8,19.6,6.3,20z"/>
	<path d="M23.6,23.6c-0.6,0.3-0.9,0.4-1.2,0.5c-0.1,0-0.3-0.2-0.3-0.3c0.1-0.3,0.3-0.7,0.4-1C22.9,23.1,23.2,23.3,23.6,23.6z"/>
	<path d="M13.4,10.9c-0.3,0.5-0.8,0.5-1,0c-0.2-0.5,0.2-0.7,0.7-0.7C13.7,10.2,13.6,10.5,13.4,10.9z"/>
	<path d="M51.8,21.7c0.2,0.1,0.4,0.3,0.6,0.4c-0.2,0.1-0.5,0.4-0.7,0.4c-0.3,0-0.5-0.3-0.7-0.5C51.2,22,51.5,21.9,51.8,21.7z"/>
	<path d="M27.2,33.1c-0.5,0.3-0.7,0.5-1.1,0.7c-0.1,0-0.2-0.1-0.3-0.1c0.2-0.3,0.5-0.6,0.7-0.9C26.6,32.8,26.8,32.9,27.2,33.1z"/>
	<path d="M47,21.4c0.3,0.1,0.3,0.2,0.4,0.2c-0.2,0.3-0.5,0.7-0.7,1c-0.1-0.1-0.3-0.3-0.3-0.4C46.6,22,46.9,21.7,47,21.4z"/>
	<path d="M22.3,30.3c-0.2-0.3-0.3-0.6-0.3-0.6c0.2-0.2,0.5-0.5,0.7-0.7c0,0,0.3,0.3,0.3,0.3C22.8,29.6,22.6,29.9,22.3,30.3z"/>
	<path d="M45,21.2c0.2,0.2,0.4,0.3,0.5,0.5C45.3,21.8,45,22,44.8,22c-0.2,0-0.4-0.3-0.6-0.5C44.4,21.4,44.7,21.3,45,21.2z"/>
	<path d="M18.6,25.9c-0.2-0.1-0.4-0.2-0.4-0.2c0.2-0.4,0.4-0.7,0.6-1.1c0.1,0.1,0.3,0.3,0.3,0.3C19,25.3,18.8,25.6,18.6,25.9z"/>
	<path d="M22.1,31.8c-0.4,0.2-0.6,0.3-0.9,0.5c-0.1-0.1-0.2-0.3-0.2-0.4c0.2-0.3,0.4-0.5,0.6-0.7C21.8,31.3,21.9,31.5,22.1,31.8z"/>
	<path d="M24,24.3c-0.1-0.6-0.2-0.8-0.2-1c0-0.2,0.3-0.3,0.4-0.4c0.1,0.2,0.3,0.4,0.3,0.5C24.5,23.6,24.3,23.8,24,24.3z"/>
	<path d="M26.5,23.5c-0.2,0.2-0.3,0.3-0.4,0.5c-0.2-0.2-0.5-0.5-0.7-0.7c0,0,0.3-0.4,0.3-0.3C25.9,23.1,26.2,23.3,26.5,23.5z"/>
	<path d="M16.6,22c-0.2,0.2-0.3,0.3-0.5,0.4c-0.4,0.1-0.6-0.2-0.6-0.6c0-0.1,0.2-0.3,0.3-0.2C16.1,21.6,16.3,21.8,16.6,22z"/>
	<path d="M6.5,26.6c-0.1,0.1-0.2,0.3-0.3,0.4c-0.2,0.1-0.5,0.2-0.8,0.3c0-0.1-0.1-0.2,0-0.3c0.3-0.2,0.5-0.4,0.8-0.6
		C6.2,26.4,6.3,26.5,6.5,26.6z"/>
	<path d="M20.4,27.5c-0.3,0.2-0.5,0.3-0.7,0.3c-0.1,0-0.3-0.3-0.4-0.4c0.2-0.2,0.4-0.4,0.7-0.6C20.1,27,20.2,27.2,20.4,27.5z"/>
	<path d="M22.8,18.4c0,0.1-0.1,0.3-0.1,0.5c0,0.1-0.2,0.1-0.3,0.1c0,0-0.1-0.1-0.1-0.1c0-0.3-0.1-0.7-0.1-1c0-0.1,0.2-0.2,0.4-0.3
		c0,0,0.2,0.1,0.2,0.2C22.8,18,22.8,18.2,22.8,18.4z"/>
	<path d="M26.8,27.8c-0.3,0.1-0.5,0.3-0.6,0.2c-0.2-0.2-0.4-0.4-0.5-0.6c0,0,0.3-0.3,0.3-0.3C26.2,27.3,26.5,27.5,26.8,27.8z"/>
	<path d="M19.9,29.6c0,0.3,0,0.5-0.1,0.6c-0.1,0.1-0.2,0.2-0.4,0.3c-0.1-0.1-0.2-0.3-0.3-0.4c0-0.2,0.1-0.3,0.2-0.5
		c0.1-0.2,0.2-0.4,0.3-0.6C19.8,29.2,19.8,29.4,19.9,29.6z"/>
	<path d="M14.4,11.5c0.3,0.3,0.5,0.5,0.6,0.8c0,0-0.3,0.3-0.3,0.3c-0.2-0.1-0.4-0.3-0.6-0.5C14.1,12,14.3,11.8,14.4,11.5z"/>
	<path d="M26,35.6c-0.2,0.1-0.4,0.2-0.6,0.2c-0.3,0-0.7,0-1-0.1c0.2-0.2,0.4-0.4,0.6-0.5c0.2-0.1,0.5-0.1,0.8-0.1
		C25.8,35.4,25.9,35.5,26,35.6z"/>
	<path d="M29.8,26.8c0.1,0.1,0.2,0.1,0.3,0.2c0.1,0.3,0.2,0.7,0.2,1c0,0.1-0.1,0.2-0.2,0.2c-0.1,0-0.3-0.1-0.3-0.1
		c-0.1-0.3-0.1-0.6-0.2-1C29.6,27,29.7,26.9,29.8,26.8z"/>
	<path d="M16.5,19.4c-0.1-0.2-0.3-0.4-0.2-0.5c0.2-0.3,0.4-0.5,0.6-0.7c0.1,0.1,0.3,0.3,0.3,0.3C17,18.8,16.8,19.1,16.5,19.4z"/>
	<path d="M16.5,22.6c0.3,0.7,0.4,0.9,0.4,1.1c0,0.1-0.3,0.2-0.4,0.3c-0.1-0.2-0.2-0.4-0.2-0.6C16.3,23.3,16.4,23.1,16.5,22.6z"/>
	<path d="M7.2,25.1c0.3-0.1,0.5-0.3,0.7-0.2c0.1,0,0.2,0.3,0.3,0.4c-0.2,0.1-0.4,0.2-0.6,0.2C7.5,25.5,7.4,25.3,7.2,25.1z"/>
	<path d="M22,20.6c-0.2,0.2-0.4,0.4-0.6,0.6c0,0-0.3-0.2-0.3-0.2c0.1-0.2,0.3-0.5,0.4-0.7C21.6,20.3,21.8,20.5,22,20.6z"/>
	<path d="M23.4,34c-0.1-0.5-0.3-0.7-0.2-0.8c0.1-0.2,0.3-0.2,0.4-0.4c0.1,0.1,0.2,0.3,0.2,0.4C23.7,33.4,23.6,33.6,23.4,34z"/>
	<path d="M13.4,10.9c-0.1-0.2-0.2-0.5-0.3-0.7c0.3-0.5,0.7-0.5,0.9-0.1C14.2,10.6,13.7,10.7,13.4,10.9z"/>
	<path d="M20.9,35c-0.1-0.3-0.3-0.5-0.2-0.6c0.1-0.3,0.3-0.5,0.5-0.7c0,0.2,0.2,0.4,0.1,0.7C21.3,34.5,21.1,34.7,20.9,35z"/>
	<path d="M18.9,11.4c-0.2,0.2-0.4,0.4-0.5,0.5c-0.1-0.1-0.4-0.3-0.4-0.4c0-0.2,0.2-0.4,0.3-0.4C18.5,11,18.7,11.2,18.9,11.4z"/>
	<path d="M26.8,8.4c0.2,0.1,0.3,0.2,0.4,0.2C27,8.8,26.7,9,26.4,9.1c-0.1,0-0.2-0.1-0.3-0.2C26.4,8.7,26.6,8.5,26.8,8.4z"/>
	<path d="M20.3,19.1c-0.2,0.1-0.4,0.3-0.5,0.3c-0.1-0.1-0.3-0.3-0.3-0.5c0-0.1,0.3-0.2,0.4-0.3C20.1,18.7,20.2,18.9,20.3,19.1z"/>
</g>
</svg>
