<?xml version="1.0" encoding="iso-8859-1"?>
<!-- Generator: Adobe Illustrator 25.3.0, SVG Export Plug-In . SVG Version: 6.00 Build 0)  -->
<svg version="1.1" id="Calque_1" xmlns="http://www.w3.org/2000/svg" xmlns:xlink="http://www.w3.org/1999/xlink" x="0px" y="0px"
	 viewBox="0 0 86 19.2" style="enable-background:new 0 0 86 19.2;" xml:space="preserve">
<g>
	<path d="M8.3,16.2c-0.9-0.3-1.9-0.7-2.9-1c-0.1,0-0.3,0-0.5,0c0.1,0.1,0.2,0.3,0.3,0.4c0.1,0.1,0.1,0.2,0.1,0.3
		c-0.2,0-0.4,0.1-0.5,0.1c-1.2-0.7-2.4-1.3-3.6-2c-0.3-0.2-0.5-0.5-0.8-0.7c-0.9-1-0.8-1.9,0.5-2.5c1.3-0.6,2.4-1.3,3.4-2.3
		c0.1-0.1,0.4,0,0.6-0.1C5,8.6,4.9,8.7,4.8,8.9C4.8,9,4.7,9.1,4.7,9.2c0.2,0,0.3,0,0.5,0C6.7,8.6,8.3,8,9.9,7.7
		c2.1-0.4,4.3-0.6,6.5-0.9c1.9-0.2,3.8-0.4,5.7-0.6c0.7-0.1,1.4-0.1,2.2-0.1c0.7,0,1.1-0.2,1.5-0.8c0.9-1.3,1.9-2.6,3-3.8
		c0.4-0.5,1-0.8,1.6-1.1c1.3-0.8,2.2-0.5,3,1.1c0.9,1.8,0.5,3.2-1.1,4.7C32.1,6.3,32,6.5,32,6.6c0.1,0,0.2,0.1,0.3,0.1
		c0.5,0,1,0,1.4,0c0.7-0.1,1.4-0.3,2.1-0.3c2.5,0.1,4.8-0.5,7.2-0.9C44.4,5.3,45.7,5.2,47,5c1.1-0.2,2.2-0.3,3.3-0.6
		c1.6-0.3,2.4,0.3,2,1.8C52,7.2,52.4,7.2,53,7.1c1.9,0,3.7-0.4,5.4-1c1.5-0.6,3-0.9,4.6-1.2c3.6-0.7,6.9,0.5,10.3,1.3
		C76.9,7,80.5,7.9,84,8.8c0.3,0.1,0.6,0.1,0.9,0.1C85.4,9,86,8.8,86,9.4c0,0.2-0.7,0.5-1.2,0.6c-2,0.4-4.1,0.8-6.1,1.2
		C74.3,12,70,13,65.6,14.2c-2.6,0.7-5.3,1-7.8-0.3c-0.2-0.1-0.6-0.2-0.9-0.1c-1.2,0.2-2.4,0.4-3.7,0.7c-0.1,0-0.2,0.1-0.3,0.1
		c0.1,0.1,0.2,0.2,0.3,0.2c0.4,0.2,0.9,0.4,1.3,0.7c0.3,0.2,0.7,0.6,0.7,0.7c-0.1,0.3-0.4,0.7-0.8,0.8c-0.4,0.2-0.9,0.3-1.3,0.5
		c-1.2,0.4-2.3,0.8-3.5,1.2c-0.9,0.3-1.8,0.5-2.8,0.6c-1,0.1-1.9-0.3-2.6-0.9c-0.6-0.5-1.3-0.9-1.8-1.5c-1-1.1-2.3-1-3.7-1
		c-1.3,0.1-2.6,0.3-3.9,0.3c-1.9,0.1-3.8,0-5.8,0c-0.2,0-0.4,0-0.5,0.1c0.1,0.2,0.2,0.4,0.3,0.5c0.3,0.3,0.6,0.6,0.8,1
		c0.2,0.3,0.2,0.6,0.3,1c-0.4,0.1-0.8,0.3-1.1,0.3c-0.4,0-0.8-0.1-1.2-0.3c-1-0.6-2.1-1.2-2.7-2.3c-0.4-0.8-1.1-1-2-1
		c-1.9,0-3.8,0-5.8,0c-2.4-0.1-4.8-0.2-7.1-0.3c-1.2-0.1-2.3-0.4-3.5-0.6c-0.1,0-0.3,0.1-0.4,0.1c0.1,0.1,0.1,0.2,0.2,0.3
		C7,15.3,7.8,15.6,8.5,16c0.1,0.1,0.1,0.2,0.2,0.3C8.5,16.3,8.4,16.3,8.3,16.2z"/>
	<path d="M8.5,16c0.8,0.2,1.5,0.5,2.3,0.8c0.1,0,0.2,0.2,0.3,0.3c-0.2,0.1-0.3,0.2-0.5,0.2c-0.8-0.3-1.6-0.7-2.4-1
		C8.4,16.2,8.4,16.1,8.5,16z"/>
	<path d="M4.1,10.4c0.2,0,0.4,0,0.5,0c0.5,0.1,0.9,0.3,0.9,0.9c0,0.6-0.8,1.3-1.3,1.2c-0.6,0-1-0.7-0.8-1.3
		C3.6,11,3.9,10.7,4.1,10.4L4.1,10.4z"/>
</g>
</svg>
