<?xml version="1.0" encoding="iso-8859-1"?>
<!-- Generator: Adobe Illustrator 25.3.0, SVG Export Plug-In . SVG Version: 6.00 Build 0)  -->
<svg version="1.1" id="Calque_1" xmlns="http://www.w3.org/2000/svg" xmlns:xlink="http://www.w3.org/1999/xlink" x="0px" y="0px"
	 viewBox="0 0 84.2 17.9" style="enable-background:new 0 0 84.2 17.9;" xml:space="preserve">
<g>
	<path d="M20.2,3.5c2,0,4-0.1,5.9,0c2.7,0.2,5.5,0.2,8.2,0.6c2,0.3,4,0.3,6.1,0.4c1.6,0.1,3-0.5,4.2-1.6c1.6-1.5,3.4-2.3,5.5-2.9
		C50.5,0.1,50.9,0,51.3,0c1.2,0,1.8,0.7,1.6,1.8c-0.1,0.9-0.3,1.7-0.7,2.5c-0.2,0.5-0.2,0.6,0.3,0.6c1.6,0.1,3.2,0.2,4.8,0.4
		c2.4,0.3,4.8,0.8,7.2,1.1c0.6,0.1,1.3,0.2,1.9,0.3c1,0.1,2,0.3,3,0.3c0.6,0,1.3,0,1.9-0.2c2.2-0.7,4.3-1.4,6.4-2.1
		c1.1-0.3,2.2-0.6,3.3-0.8c0.5-0.1,1.1-0.1,1.6,0c0.8,0.1,1.1,0.9,0.6,1.5c-0.7,0.7-1.4,1.2-2.2,1.8c-0.6,0.5-1.3,0.8-1.9,1.3
		c-0.5,0.5-0.4,0.9,0.3,1.1c1.6,0.5,3,1.2,4.1,2.4c0.8,0.8,0.8,1.2-0.3,1.7c-1,0.5-2,0.4-3,0.1c-1.4-0.4-2.7-0.8-4.1-1.2
		c-1.3-0.3-2.6-0.5-3.8-0.9c-0.6-0.2-1-0.1-1.5,0.2c-0.8,0.6-1.6,1.2-2.3,1.9c-0.7,0.6-1.3,1.3-1.9,1.9c-0.6,0.7-1.3,0.8-2.1,0.4
		c-1.4-0.7-2.9-1.3-4.4-2c-1.6-0.8-3.3-0.6-4.9-0.5c-1.8,0.1-3.5,0.4-5.3,0.6c-0.2,0-0.3,0.1-0.5,0.1c0.1,0.1,0.2,0.3,0.3,0.4
		c0.3,0.4,0.7,0.8,1,1.3c0.5,0.8,0.1,1.4-0.8,1.4c-0.6,0-1.3-0.2-1.9-0.5c-0.8-0.3-1.4-0.8-2.2-1.2C44.4,15,42.9,14.5,41,15
		c-1.9,0.5-4,0.6-6,0.8c-1.3,0.2-2.7,0.5-4,0.6c-0.6,0.1-1.3,0-2,0.1c-1.1,0.1-2.2,0.2-3.2,0.9c-0.7,0.5-1.5,0.7-2.4,0.2
		c-0.6-0.3-1.3-0.4-1.9-0.4c-2.9,0-5.9-0.1-8.8,0c-1.8,0-3.7,0.4-5.5,0.3C5.1,17.4,3,17.4,1,16.3c-1.1-0.6-1.2-0.7-0.7-1.9
		c0.3-0.7,0.7-1.4,1.1-2c0.2-0.3,0.6-0.3,0.8,0.1c0.1,0.1,0.3,0.2,0.4,0.3c0-0.2,0-0.3,0-0.5c-0.2-0.9,0.1-1.9-1-2.5
		C1.1,9.7,1.3,8.7,1.7,8.4C3.8,7.2,5.8,5.8,8,4.8c2-0.9,4.1-1.4,6.4-1.3C16.3,3.6,18.3,3.5,20.2,3.5C20.2,3.5,20.2,3.5,20.2,3.5z"/>
	<path d="M12.6,7.5C12.6,8.3,11.9,9,11,9c-0.8,0-1.4-0.6-1.4-1.5c0-0.8,0.7-1.4,1.5-1.5C11.9,6,12.6,6.7,12.6,7.5z"/>
	<path d="M58.7,9c3.1,0,6.2,0,9.4,0c0.2,0,0.3,0.1,0.5,0.1c-0.2,0.1-0.3,0.2-0.5,0.2c-2.9,0-5.9,0-8.8,0C59.1,9.3,58.9,9.1,58.7,9
		L58.7,9z"/>
	<path d="M27.3,7.5c2.7,0,5.3,0,8,0c0.1,0,0.2,0.1,0.4,0.2c-0.1,0-0.2,0.1-0.3,0.1c-2.6,0-5.2-0.1-7.8-0.1
		C27.5,7.8,27.4,7.6,27.3,7.5L27.3,7.5z"/>
	<path d="M58.7,8.9c-2.3,0-4.5,0-6.8,0c-0.4,0-0.7-0.2-1.1-0.3l0,0c2.2,0,4.4,0,6.6,0C57.8,8.6,58.2,8.8,58.7,8.9L58.7,8.9z"/>
	<path d="M9.4,6.1C9.3,6.4,9.2,6.7,9.1,7c-0.4,1.8,0.2,2.7,2.1,3c0.2,0,0.3,0.1,0.5,0.2c-0.2,0.1-0.3,0.2-0.5,0.2
		c-1.8,0.2-2.6-0.6-2.6-2.5C8.6,7.2,8.5,6.5,9.4,6.1L9.4,6.1z"/>
	<path d="M43.9,8.2c-2.2,0-4.3,0-6.5,0c-0.2,0-0.3-0.1-0.5-0.2c0.1-0.1,0.3-0.2,0.4-0.2c2,0,4,0,5.9,0C43.5,7.9,43.7,8.1,43.9,8.2
		L43.9,8.2z"/>
	<path d="M50.8,8.6c-1.9,0-3.8,0-5.7,0c-0.4,0-0.7-0.2-1.1-0.4l0,0c1.9,0,3.8,0,5.7,0C50,8.3,50.4,8.5,50.8,8.6L50.8,8.6z"/>
	<path d="M27.4,7.5c-1.8,0-3.7,0-5.5,0c-0.1,0-0.2-0.1-0.4-0.2c0.1,0,0.2-0.1,0.3-0.1c1.8,0,3.5,0.1,5.3,0.1
		C27.2,7.3,27.3,7.4,27.4,7.5L27.4,7.5z"/>
	<path d="M71.9,9.7c-0.7,0-1.3,0-2,0c-0.2,0-0.4-0.1-0.6-0.2c0.2,0,0.3-0.1,0.5-0.1c1.4,0,2.9,0,4.3,0c0.2,0,0.3,0.1,0.5,0.2
		c-0.2,0.1-0.4,0.2-0.6,0.2C73.3,9.7,72.6,9.7,71.9,9.7C71.9,9.7,71.9,9.7,71.9,9.7z"/>
	<path d="M76.4,8.7c-0.1,0.3-0.2,0.5-0.3,0.6c-0.1,0.1-0.2,0.1-0.3,0.2c-0.1-0.1-0.2-0.2-0.2-0.3c0-0.2,0.1-0.5,0.1-0.7
		c0-0.3-0.2-0.6-0.3-0.9c0.1,0,0.1,0,0.2,0C75.9,8,76.1,8.4,76.4,8.7z"/>
	<path d="M12.9,6.5c-0.1-0.1-0.2-0.1-0.3-0.2c-0.3-0.4-0.6-0.8-0.9-1.1c0,0,0.1-0.1,0.1-0.1c0.6,0.2,1,0.5,1.1,1.2
		C13,6.3,13,6.4,12.9,6.5L12.9,6.5z"/>
	<path d="M13,6.4c0.7,0.6,0.3,1.4,0.3,2.1c0,0-0.1,0.1-0.2,0.1c0-0.1-0.1-0.2-0.1-0.3C12.9,7.8,12.9,7.1,13,6.4L13,6.4z"/>
</g>
</svg>
