<?xml version="1.0" encoding="iso-8859-1"?>
<!-- Generator: Adobe Illustrator 25.3.0, SVG Export Plug-In . SVG Version: 6.00 Build 0)  -->
<svg version="1.1" id="Calque_1" xmlns="http://www.w3.org/2000/svg" xmlns:xlink="http://www.w3.org/1999/xlink" x="0px" y="0px"
	 viewBox="0 0 79.3 33.6" style="enable-background:new 0 0 79.3 33.6;" xml:space="preserve">
<g>
	<path d="M55.4,29.3c-0.3,0-0.6,0-0.9,0c-0.2,0-0.3,0.1-0.4,0.2c0.1,0.1,0.2,0.3,0.3,0.4c0.6,0.6,0.4,1-0.2,1.3c-1,0.5-2,0.3-3,0.4
		c-3.2,0.1-6.4-0.3-9.6-1c-1.1-0.2-2.3,0.2-3.5,0.4c-0.5,0.1-1,0.2-1.5,0.4c-0.9,0.3-1.8,0.3-2.6-0.2c-0.6-0.3-1-0.3-1.7-0.1
		c-3.5,1.4-7.1,2.4-10.9,2.2c-0.4,0-0.9,0-1.2,0.1c-1.8,0.6-3.4,0.1-5.1-0.4c-2.9-1-5.9-2-8.8-2.8c-1.5-0.5-3-0.8-4.1-2.1
		c-0.2-0.2-0.6-0.3-0.9-0.5c-0.9-0.4-1.1-1.1-0.6-1.9c0-0.1,0.1-0.1,0.1-0.1c0.4-0.6,1.3-1.3,1.2-1.9c-0.1-1.2-0.6-2.4-1.3-3.4
		c-0.5-0.8-0.7-1.5-0.7-2.3c0-0.6-0.1-1.2-0.1-1.8c0-0.2,0.1-0.7,0.2-0.7c0.5-0.1,1.1-0.1,1.7-0.1c0.6-0.1,1,0,1.3,0.6
		c0.3,0.5,0.6,0.2,0.7-0.2C4.1,15.2,4,14.6,4.1,14c0-0.1,0.2-0.3,0.3-0.3c0.1,0,0.4,0.1,0.4,0.2C4.9,14.3,5.1,14.7,5,15
		c-0.4,1.9-1.3,3.5-2.3,5.1c-0.1,0.1-0.1,0.3-0.1,0.4c0.2,0,0.4,0,0.5-0.1c0.9-1,1.9-1.8,2.5-3c0.9-1.6,2-3.1,3.4-4.3
		c1.9-1.7,3.7-3.5,5.6-5.2c2.5-2.2,5.4-3.4,8.8-3.4c1.9,0,3.7-0.3,5.5-1.2c2.9-1.4,6-2.3,9.1-3C39,0.1,39.9,0.1,40.9,0
		c0.2,0,0.4,0.2,0.6,0.4c-0.1,0.1-0.3,0.4-0.4,0.4c-1.7,0.6-3.5,1.1-5.2,1.7c-1.5,0.6-2.9,1.3-4.4,2c-0.2,0.1-0.4,0.3-0.5,0.4
		c0.2,0.2,0.4,0.5,0.6,0.5c1.1,0.2,2.3,0.2,3.3,0.5c1.3,0.4,2.7,0.9,3.9,1.7c1.3,0.8,2.5,1.8,3.6,2.9c1.8,1.7,4,2.6,6.3,3.3
		c1.9,0.6,3.9,1,5.9,1.5c0.4,0.1,0.8,0.3,1,0.6c0.5,0.5,1,1.1,1.2,1.7c0.5,1.2,1.4,1.5,2.5,1.6c2.1,0.1,4.3,0.2,6.4,0.4
		c0.6,0,1.3,0.2,1.9,0.4c2.7,0.7,5.5,0.9,8,2.3c0.1,0.1,0.2,0.2,0.3,0.2c2.1-0.2,2.1,1.9,3.2,2.8c0,0,0.1,0.1,0.1,0.1
		c-1,0.6-0.1,1.4-0.1,2.1c-0.1,1.6-1.3,2.3-2.3,3.2c-0.1,0.1-0.3,0.1-0.3,0.1c-1.4-0.8-2.8,0.7-4.2-0.2c-0.1-0.1-0.4,0-0.5,0.1
		c-0.7,0.8-1.6,0.6-2.5,0.3c-0.4-0.1-1,0-1.4-0.1c-1.8-0.2-3.5-0.4-5.3-0.6C60.2,29.8,57.8,29.5,55.4,29.3
		C55.4,29.2,55.4,29.3,55.4,29.3z"/>
	<path d="M4.4,25.4c-0.5-0.4-1-0.7-1.4-1.1C3.9,24,4.2,24.3,4.4,25.4z"/>
	<path d="M8.7,19.3c-0.2-2,1.5-3.1,3.7-2.3c1.6,0.6,2.2,2,2.4,3.5c0.2,1.2-1.6,2.7-2.8,2.3c-0.7-0.2-1.5-0.5-2.1-0.9
		C8.9,21.4,8.7,20.7,8.7,19.3z"/>
	<path d="M38.6,17.6c-0.6-0.2-1.3-0.4-2-0.6c-1-0.3-2.1-0.6-3,0.3c-0.1,0.1-0.3,0-0.5,0c0-0.2,0-0.4,0.1-0.5
		c0.5-0.7,0.5-1.4,0.4-2.2c-0.1-1-0.3-1.2-1.4-1.4c-0.2-0.1-0.4-0.3-0.6-0.4c0.2-0.1,0.4-0.3,0.5-0.3c2,0,4-0.3,5.9,0.3
		c0.9,0.3,1.8,0.7,2.5,1.3c1.2,1.1,0.8,2.6-0.7,3.2C39.4,17.4,39.1,17.5,38.6,17.6z"/>
	<path d="M34.1,17.5c0.2,0.1,0.3,0.2,0.3,0.3c0.4,0.7,0.9,1.4,1.2,2.1c0.1,0.2,0,0.5-0.1,0.6c-0.1,0.1-0.4,0.2-0.6,0.1
		c-0.9-0.3-1.6-1.8-1.3-2.6C33.8,17.8,34,17.7,34.1,17.5z"/>
	<path d="M53.8,21.6c0-0.1,0-0.1,0-0.2c0.1-0.3,0.3-0.6,0.5-0.9c0.5,0.3,0,0.6-0.1,0.9c0,0.2,0,0.4,0,0.5c0,0.1-0.2,0.2-0.2,0.4
		c0-0.1-0.1-0.2-0.1-0.3C53.8,21.8,53.8,21.7,53.8,21.6C53.8,21.6,53.8,21.6,53.8,21.6z"/>
	<path d="M50.7,29.4c0,0-0.1,0.1-0.1,0.1c-0.4-0.1-0.8-0.2-1.2-0.3c0,0-0.1-0.1-0.1-0.1c0.1-0.1,0.2-0.2,0.2-0.2
		c0.3,0,0.7,0.1,1,0.2C50.6,29.1,50.7,29.3,50.7,29.4z"/>
</g>
</svg>
