<?xml version="1.0" encoding="iso-8859-1"?>
<!-- Generator: Adobe Illustrator 25.3.0, SVG Export Plug-In . SVG Version: 6.00 Build 0)  -->
<svg version="1.1" id="Calque_1" xmlns="http://www.w3.org/2000/svg" xmlns:xlink="http://www.w3.org/1999/xlink" x="0px" y="0px"
	 viewBox="0 0 84.3 26.6" style="enable-background:new 0 0 84.3 26.6;" xml:space="preserve">
<g>
	<path d="M43.4,0.5C45.6,0.3,47.8,0.1,50,0c4-0.2,8,0.2,12,0.6c3.8,0.4,7.5,1.1,11.1,2.2c3.2,0.9,6,2.6,8.4,4.9
		c1.8,1.7,2.8,3.9,2.8,6.3c0,2.7-1.2,5-3.5,6.7c-2.8,2-5.9,3-9.2,3.6c-2.2,0.4-4.5,0.6-6.7,0.8c-3.4,0.3-6.8,0.4-10.2,0.7
		c-3.2,0.3-6.5,0.1-9.7,0.3C31.8,26.9,18.4,26.3,5,26.5c-1.3,0-2.5-0.2-3.7-0.7c-1.1-0.5-1.2-1.3-0.3-2c0.3-0.3,0.7-0.5,1.1-0.6
		C3.6,23,5,22.7,6.4,22.5c2.1-0.3,4.1-0.5,6.2-0.7c0.1,0,0.2,0,0.4,0c2.6-0.1,5.2-0.3,7.9-0.4c3.6-0.1,7.3-0.1,10.9-0.4
		c2.5-0.3,4.9,0,7.3-0.3c2.9-0.3,5.8-0.1,8.6-0.4c2.3-0.3,4.5-0.2,6.8-0.3c3.7-0.1,7.4-0.1,11.1-0.4c3.2-0.3,6.5-0.4,9.7-1.4
		c1.3-0.4,2.6-1,3.7-1.6c1.7-1,2-2.7,0.6-4.2c-0.7-0.8-1.6-1.4-2.5-1.9c-2.8-1.5-5.8-2.3-9-2.9c-1.8-0.3-3.7-0.4-5.5-0.3
		c-1.4,0-2.9,0.1-4.3,0.5c-3.9,0.9-7.7,1.4-11.7,1.3c-2.9-0.1-5.9,0.1-8.8,0c-3-0.1-5.9-0.4-8.9-0.7c-2-0.2-4-0.5-6-0.7
		c-1.1-0.1-2.3,0.1-3.3,0.6c-1.9,0.9-3.9,1.3-6.1,1.2c-1.9-0.1-3.7,0.1-5.6,0C5.7,9.3,3.6,9,1.5,8.3C0.9,8.1,0.1,7.8,0,7.4
		c-0.2-0.7,0.7-0.7,1.2-1c3.5-2.4,7.5-3.1,11.5-4c3.3-0.7,6.5-0.6,9.8-0.7c2.1-0.1,4.1-0.4,6.2-0.6C30.2,1,31.6,0.8,33,0.7
		c3.5-0.2,6.9-0.3,10.4-0.4C43.4,0.3,43.4,0.4,43.4,0.5z"/>
	<path d="M26.7,2.8c0.5,0,1,0,1.4,0.1c1.1,0.2,1.3,1.1,0.6,1.9c-0.8,1-2.1,1.1-3.2,1.3c-0.3,0.1-0.6,0-0.9,0c-0.6,0-1.5,0.1-1.9-0.2
		c-0.5-0.4-0.6-1.2-0.9-1.8c0-0.1,0.1-0.5,0.3-0.5c1-0.3,1.9-0.5,2.9-0.7C25.6,2.8,26.2,2.8,26.7,2.8z"/>
	<path d="M21.3,4.8c0,0.1-0.1,0.2-0.1,0.3c-0.1,0.3-0.1,0.6-0.2,0.9c-0.1,0-0.3-0.1-0.3-0.1c0-0.4,0-0.8,0.1-1.2
		c0-0.1,0.3-0.2,0.4-0.3C21.3,4.6,21.3,4.7,21.3,4.8z"/>
</g>
</svg>
