<?xml version="1.0" encoding="iso-8859-1"?>
<!-- Generator: Adobe Illustrator 25.3.0, SVG Export Plug-In . SVG Version: 6.00 Build 0)  -->
<svg version="1.1" id="Calque_1" xmlns="http://www.w3.org/2000/svg" xmlns:xlink="http://www.w3.org/1999/xlink" x="0px" y="0px"
	 viewBox="0 0 85.4 15.5" style="enable-background:new 0 0 85.4 15.5;" xml:space="preserve">
<g>
	<path d="M50,14.1c-2.5-0.2-5,0-7.5,0.5c-0.9,0.2-1.8,0-2.5-0.6c-0.5-0.5-1-0.5-1.6,0c-0.3,0.2-0.8,0.3-1.2,0.3
		c-0.9,0-1.8-0.1-2.7,0c-2,0.2-4,0.5-6,0.6c-2.4,0.1-4.8,1-7.3,0.1c-4.1,0-7.7-1.7-11.6-2.6c-1.6-0.4-3.1-0.9-4.6-1.3
		c-0.3-0.1-0.9-0.2-0.6,0.6c0.1,0.4-0.3,0.4-0.4,0.2c-0.5-1.2-1.7-1.4-2.7-1.9C1,9.8,0.6,9.5,0.2,9.2C0.1,9.1,0,8.8,0,8.6
		c0.1-0.2,0.3-0.4,0.5-0.4c0.6,0,1.2,0.2,1.7,0.3c0.2,0,0.3,0,0.5,0C2.7,8.3,2.7,8.1,2.6,8c-0.5-0.4-1-0.8-1.5-1.2
		C0.7,6.4,0,6.2,0.2,5.6c0.2-0.4,0.8-0.8,1.4-1c1.1-0.3,2.2-0.5,3.3-0.7c2.2-0.4,4.3-0.8,6.5-1.1c2-0.3,4-0.5,6-0.7
		c1.1-0.1,2-0.3,2.7-1.1c0.3-0.3,0.8-0.7,1.2-0.7c3.3-0.1,6.5-0.6,9.8-0.2c1.3,0.2,2.8,0.1,4.2,0.1c5.6,0,11.2,0,16.7,0
		c1.6,0,3.2,0.2,4.8,0.4c1,0.1,2,0.2,3,0.3c1.8,0.2,3.5,0.4,5.3,0.6c1.2,0.1,2.5,0.3,3.7,0.4c1.8,0.2,3.7,0.4,5.5,0.8
		c3,0.6,6.1,1,9,2.1c0.9,0.3,2,0.6,2,1.7c0.1,1.1-0.7,1.8-1.7,2.3c-2.3,1.1-4.7,1.7-7.1,2.3c-2.5,0.6-5.1,1.1-7.7,1.1
		c-1,0-2,0.2-3,0.4c-3.4,0.5-6.8,1-10.3,1.1C53.7,13.7,51.8,14,50,14.1z"/>
	<path d="M7.7,14.4c-0.1,0.1-0.3,0.2-0.4,0.2c-0.3-0.2-0.6-0.5-0.9-0.7c0,0,0-0.2,0.1-0.3C6.8,13.4,7.7,14,7.7,14.4z"/>
	<path d="M19.8,10.9c-0.6-0.1-1.3-0.1-1.9-0.3c-0.5-0.1-0.9-0.1-1.3,0.2c-0.1,0.1-0.3,0-0.4,0c0-0.1,0-0.3,0-0.3
		c0.7-0.7,0.4-1.7,0.6-2.5c0.1-0.3,0.3-0.8,0.5-0.8c1.1-0.2,2.2-0.3,3.3-0.5c0.8-0.1,1.3,0.3,1.4,1c0.1,0.5,0.2,0.9,0.3,1.4
		c0,1.3-0.3,1.6-1.5,1.7C20.4,10.8,20.1,10.8,19.8,10.9C19.8,10.8,19.8,10.8,19.8,10.9z"/>
</g>
</svg>
