<?xml version="1.0" encoding="iso-8859-1"?>
<!-- Generator: Adobe Illustrator 25.3.0, SVG Export Plug-In . SVG Version: 6.00 Build 0)  -->
<svg version="1.1" id="Calque_1" xmlns="http://www.w3.org/2000/svg" xmlns:xlink="http://www.w3.org/1999/xlink" x="0px" y="0px"
	 viewBox="0 0 80.6 23.7" style="enable-background:new 0 0 80.6 23.7;" xml:space="preserve">
<g>
	<path d="M6.4,8.9c0.5-1.1,1.7-1.6,2.7-2.2c1.7-1.1,3.5-1.8,5.5-2c0.8-0.1,1.5-0.5,2.1-0.9c0.8-0.5,1.6-1,2.4-1.5
		c2-1.2,4.2-2,6.5-2.2c2.5-0.2,5,0,7.5,0.2c1.4,0.1,2.7,0.3,4.1,0.5C39,1,40.9,1.3,42.8,1.6C45,2,47.3,2.3,49.6,2.7
		c1.8,0.3,3.5,0.6,5.3,0.8c0.4,0.1,0.8,0.1,1.2,0C59,2.9,61.7,3.8,64.3,5c0.3,0.2,0.6,0.5,0.8,0.9c0.4,1,0,1.9-1.2,2.4
		c-0.8,0.3-1.6,0.5-2.4,0.7c-0.2,0-0.3,0.1-0.5,0.1c0.2,0,0.4,0.1,0.6,0.1c1.5-0.2,2.9-0.3,4.4-0.6c2.6-0.5,5.1-1.3,7.7-1.2
		c3.1,0.2,5.7,2.2,6.6,5c0.5,1.6-0.1,2.8-1,3.9C78,18.2,76,18.9,73.7,19c-2.6,0.1-5.1-0.4-7.6-0.9c-1.2-0.2-2.5-0.4-3.7-0.5
		c-0.1,0-0.2,0-0.4,0.1c0.1,0.1,0.2,0.2,0.3,0.3c0.8,0.6,1.7,1.1,2.5,1.7c0.7,0.5,0.6,0.8,0,1.5c-1.1,1.2-2.5,2-4.2,2.2
		c-4.6,0.5-9.2,0.4-13.8,0.3c-1.7,0-3.3-0.4-5-0.6c-1.6-0.2-3.2-0.3-4.7-0.8c-2.5-0.8-5-1.6-7.2-3.1c-0.6-0.4-1.2-0.6-2-0.3
		c-0.7,0.3-1.6,0-2.5,0c-1.2-0.1-2.4-0.1-3.6-0.2c-0.1,0-0.2,0-0.3,0.1c0.1,0.1,0.2,0.1,0.3,0.2c1.4,1.2,2.8,2.3,4.6,2.9
		c1.9,0.7,3.8,1.1,5.8,1c0.1,0,0.2,0.1,0.4,0.2c-0.1,0-0.2,0.1-0.3,0.1c-3.5,0.1-6.9,0.4-10.3-0.7c-1.4-0.4-2.6-1.1-3.7-2.1
		c-1.3-1.2-2.7-1.3-4.3-0.7c-1.7,0.7-3.6,0.5-5.4,0.2c-0.3,0-0.7-0.3-1-0.2c-2,0.2-3.9-0.5-5.8-0.7c-1.3-0.2-2.3-1.6-1.7-3.1
		C1,14,2,12.1,3.8,10.8c0.5-0.4,0.9-0.9,1.4-1.3C5.6,9.3,6,9.1,6.4,8.9c0.2,0.3,0.3,0.8,0.1,1c-1.2,1.2-1,2.5-0.7,3.9
		c0.1,0.5,0,1.1-0.3,1.5c-0.2,0.3-0.5,0.6-0.9,0.7c0.4,0,0.8-0.2,1.2-0.2c0.8-0.1,1.6-0.4,2.5-0.3C9.2,15.8,10,16,10.4,17
		c0.2,0.5,0.1,1.1-0.3,1.5c-0.8,0.8-1.7,0.2-2.6,0.3c-0.1,0-0.1,0-0.2,0c0.2,0.2,0-0.1,0.2,0c0.9,0.4,4.5-0.4,5.1-1.1
		c0.7-0.8,0.7-1.6,0.2-2.5c-0.5-1-0.6-1.8,0.8-2.1c0.3,0,0.5,0.1,0.7,0.2c0.9,0.5,1.2,1.4,1.4,2.4c0.1,0.2,0.1,0.5,0,0.7
		c0.1-0.2,0.2-0.5,0.3-0.8c0.3-1,0.2-2-0.3-2.9c-0.8-1.2-1.3-2.5-2-3.8c-0.3-0.5-0.6-1.1-0.2-1.6c0.4-0.5,1.1-0.8,1.8-0.6
		c0.5,0.1,1.1,0.1,1.5,0.4c1.4,0.9,2.8,1.5,4.5,1.3c0.2,0,0.4,0.2,0.6,0.4c0.3,0.5,0.2,0.9-0.2,1.3c-0.9,0.7-1.5,1.6-2.6,2.1
		c-0.1,0.3-1-0.6-0.7,0.4c0.5,1.3,0.2,2.6,0,3.8c-0.4,2.1-0.2,2.5,1.7,3.6c0.9,0.5,1.8,0.8,2.6,1.3c-0.8-0.4-1.6-0.7-2.3-1.2
		c-0.7-0.5-2.1-0.4-1.9-1.7c0.3-1.2,1.5-1,2.4-1.1c1.6-0.2,3.3-0.4,5-0.1c0.9,0.2,1.8,0,2.6-0.3c3-1.1,6.1-1.1,9.2-0.8
		c5.8,0.5,11.7,0.9,17.6,0.2c1.7-0.2,3.5,0,5.2-0.1c2.3-0.1,3.7-2.7,2.6-4.7c-0.4-0.7-1.1-0.8-1.9-0.8c-7.2,0.5-14.2-0.9-21.2-2
		c-0.9-0.1-1.7-0.4-2.6-0.7c-0.2,0-0.4-0.1-0.6-0.2c-4.6-1.3-9.2-2-14-2.1c-1.7,0-3.3-0.1-5-0.1c-3.5,0.1-6.4,1.3-9.3,2.9
		C7.9,9.1,7.2,9.8,6.4,8.9z"/>
	<path d="M13.5,13.6c-0.3-0.4-0.6-0.8-0.9-1.2c0,0,0.1-0.1,0.1-0.1c0.5,0.3,0.9,0.6,1.4,1c0.1,0.1-0.1,0.5-0.1,0.7
		C13.8,13.8,13.7,13.7,13.5,13.6z"/>
	<path d="M37.3,7.5c0.1,0.1,0.2,0.2,0.4,0.3C37.9,7.9,38,8,38.2,8c-0.1,0.1-0.3,0.2-0.4,0.2c-0.5-0.1-1-0.2-1.6-0.3
		c-3.3-0.5-6.6-1-9.9-1.4c-0.4-0.1-0.8,0-1.3,0c-1.4-0.1-2.7-0.3-4.1-0.3c-0.8,0-1.7,0.1-2.5,0.1c-1.4,0.1-2.7,0.1-4.1,0.1
		c-0.1,0-0.2-0.1-0.3-0.2c0.1-0.1,0.1-0.3,0.3-0.4c0.1-0.1,0.3-0.1,0.5-0.2c2.4-0.1,4.9-0.4,7.3-0.3c3.3,0.2,6.6,0.5,9.9,1.2
		C33.8,7,35.6,7.2,37.3,7.5L37.3,7.5z"/>
	<path d="M19.3,11.8c0.6,0.2,0.8,0.7,0.8,1.3c0,0.5-0.1,1.1,0,1.6c0,0.4-0.6,0.8,0.1,1.1c0.4,0.2,0.9,0.3,1.4,0.2
		c0.3,0,0.7-0.2,1-0.5c1.8-1.7,3.7-3.4,5.5-5.1c0.3-0.3,0.5-0.7,0.7-1.1c0.4-0.7,0.2-0.9-0.5-1.1c-1.5-0.5-2.9-0.1-4.4,0.3
		c-0.6,0.2-1.3,0.3-1.9,0.4c1.8-1.4,3.9-1.9,6.1-1.4c1.5,0.3,1.9,1.2,1.1,2.4c-1.6,2.4-3.6,4.5-6.1,6.1c-1,0.7-2.1,0.5-3.1,0.4
		c-0.5-0.1-0.6-0.6-0.4-1C20,14.2,19.6,13,19.3,11.8z"/>
</g>
</svg>
