<?xml version="1.0" encoding="iso-8859-1"?>
<!-- Generator: Adobe Illustrator 25.3.0, SVG Export Plug-In . SVG Version: 6.00 Build 0)  -->
<svg version="1.1" id="Calque_1" xmlns="http://www.w3.org/2000/svg" xmlns:xlink="http://www.w3.org/1999/xlink" x="0px" y="0px"
	 viewBox="0 0 77.9 35.7" style="enable-background:new 0 0 77.9 35.7;" xml:space="preserve">
<g>
	<path d="M75.2,28c-1.5-0.3-3.2-0.5-4.7-1.7c-1.5-1.2-3.2-2.1-4.8-3.1c-1.3-0.8-2.5-1.5-3.8-2.3c-1.2-0.7-2.4-0.6-3.6-0.1
		c-0.7,0.2-0.1,0.3,0,0.5c0.2,0.5,0.5,1-0.1,1.6c-0.3,0.3-0.3,0.9-0.5,1.3c-0.7,1.4-0.8,2.8,0.1,4.2c0.2,0.4,0.5,0.8,0.6,1.3
		c0.4,1.3-0.5,2.1-1.8,1.7c-1.6-0.5-3.2-1.2-4.8-1.8c-1.2-0.5-2.4-1-3.6-1.4c-1-0.3-2.1-0.4-3.1-0.5c-0.3-0.1-0.7-0.1-1-0.2
		c-0.7-0.2-1.1-1-2-0.4c-0.5,0.3-1.4,0.1-2.1,0.1c-0.9,0-1.8,0.1-2.7,0.1c-1.8,0-3.6,0-5.4,0c-0.5,0-0.6,0.2-0.6,0.7
		c0.2,1.8,0.3,3.6,0.3,5.5c0,0.5-0.4,1.1-0.7,1.6c-0.4,0.7-1.2,0.7-1.8,0.2c-0.4-0.4-0.9-0.8-1.2-1.3c-0.9-1-1.5-2-2.6-2.9
		c-0.6-0.5-1-1.5-1.3-2.3c-0.5-1.3-1.4-1.9-2.7-1.9c-2.4-0.1-4.7-0.4-7-1c-0.6-0.2-1.3-0.2-1.9-0.3c-1.2-0.2-2.2-0.7-3.3-1.2
		C7.8,24,6.5,23.6,5.3,23c-1.2-0.5-2.3-1.2-3.4-2c-0.6-0.4-1.1-0.9-1.5-1.5c-0.6-0.8-0.6-1.6,0.1-2.2c1.4-1.3,2.4-2.9,4.1-3.9
		c0.7-0.4,1.2-1.2,1.9-1.6c2.3-1.4,4.6-2.8,7-3.9c1.6-0.8,3.3-1.2,5.1-1.7C19.4,6,19.8,5.8,19.9,5c0.1-0.4,0.6-0.8,0.9-1.2
		c1,0.8,1-0.1,1.3-0.7c0.3-0.5,0.6-0.5,0.9,0c0.1,0.2,0.2,0.6,0.5,0.1c0.1-0.3,0.2-0.6,0.4-0.8C24.1,2.2,24.4,2,24.5,2
		c1,0.8,1.2,0.1,1.5-0.6c0.2-0.6,0.5-0.5,0.7-0.1c0.3,0.6,0.6,0.6,1,0.1c0.2-0.2,0.3-0.5,0.4-0.8c0.3-0.7,0.6-0.6,1,0
		c0.3,0.6,0.7,0.6,1.1,0.1c0.5-0.5,0.8-0.4,0.9,0.3c0.2,0.9,0.6,1,1.4,0.5c0.2-0.1,0.3-0.3,0.5-0.5c0.3-0.2,0.4-0.3,0.6,0.1
		c0.5,1.1,0.6,1.1,1.6,0.5c0.6-0.3,0.8-0.4,0.8,0.5c0,0.7,0.7,1,1.3,0.6c0.2-0.1,0.3-0.3,0.5-0.5c0.1-0.1,0.3-0.1,0.5-0.1
		c0.1,0.2,0.2,0.5,0.1,0.6c-0.3,0.6-0.1,0.8,0.5,0.7c0.4-0.1,0.9-0.3,1.3-0.5C40.7,3,41,2.7,41.4,2.5c0.1-0.1,0.3,0,0.5,0.1
		c0,0.1,0,0.2-0.1,0.3c-0.1,0.3-0.7,0.5-0.2,0.8c0.2,0.2,0.7,0.2,1,0.1c0.5-0.2,1-0.5,1.4-0.7c0.5-0.2,0.9-0.5,1.5-0.3
		c0.3,0.1,0.8-0.2,1.2-0.3c1.8-0.7,3.6-1.5,5.5-2c1.3-0.4,2.7-0.4,4-0.5c0.8-0.1,1.1,0.3,0.8,1.1c-0.4,1.1-0.8,2.2-1.3,3.3
		c-0.3,0.6-0.4,1.2-0.1,1.8c0.3,0.7,0.5,1.5,0.8,2.2c0.1,0.4,0.3,0.8,0.6,1c0.9,0.6,1,1.3,0.6,2.2c-0.2,0.5-0.1,0.6,0.3,0.7
		c1.1,0.3,2.2,0.6,3.3,0.8c0.5,0.1,1.2-0.1,1.7-0.4c1.5-0.7,2.9-1.5,4.4-2.4c2.2-1.3,4.5-2.4,6.9-3.2c0.9-0.3,2-0.2,3-0.2
		c0.6,0,0.9,0.4,0.7,0.9c-0.1,0.4-0.3,0.8-0.5,1.1c-0.8,1.6-1.6,3.3-2.5,4.9c-1.1,2-1.2,4.1-0.5,6.2c0.4,1.4,0.9,2.8,1.4,4.2
		c0.3,0.7,0.8,1.3,1,2C77.3,27.8,77.1,28,75.2,28z"/>
	<path d="M19.6,18.7c-0.4-0.1-0.8-0.2-1.2-0.4c-0.1,0-0.1-0.4,0-0.4c1.9-0.9,3.3-2.6,5.5-3.3c1.4-0.4,2.8-0.3,4.2-0.3
		c0.9,0,1.4,0.6,1.2,1.4c-0.6,1.7-0.8,3.5-2.2,5c-1.1,1.2-2.4,1.4-3.8,1.5c-0.8,0-1.6-0.2-2.5-0.4c-0.2,0-0.5-0.3-0.5-0.4
		C20.7,20.3,19.9,19.6,19.6,18.7c0.9-0.8,1.4-0.1,1.9,0.5c0.9,1.1,2,1.2,3.2,0.9c1.2-0.3,1.9-1.2,2.2-2.4c0.3-1.2-0.2-1.8-1.5-1.6
		c-1.1,0.1-2.1,0.4-3,1.1C21.5,17.9,20.5,18.3,19.6,18.7z"/>
	<path d="M10.5,14.8c-0.2,0.4-0.3,0.9-0.6,1.1c-0.5,0.4-1.2,0.8-1.8,1c-0.9,0.2-2.2-1.3-2.2-2.2c0-0.9,1.3-2.1,2.3-2.1
		C9.6,12.6,10.3,13.3,10.5,14.8z"/>
	<path d="M8,23.3c-0.4-1-0.4-1,0.5-0.9c0.6,0.1,1.2,0.1,1.8,0.1c1.7-0.2,2-0.5,2-2.2c0.1-1.5,0.2-3,0.4-4.6c0-0.2,0.1-0.5,0.3-0.6
		c0.1-0.1,0.4-0.2,0.6-0.2c0.1,0,0.2,0.3,0.2,0.4c-0.1,0.7-0.2,1.4-0.3,2.1c-0.1,1-0.4,2-0.3,3c0.2,2.1-0.6,2.9-3.3,3.1
		C9.2,23.5,8.6,23.4,8,23.3L8,23.3z"/>
	<path d="M61.5,17.4c-2-0.2-4-0.3-6-0.5c-0.3,0-0.6-0.2-0.8-0.3c-0.1-0.1-0.2-0.2-0.3-0.3c0.1,0,0.2-0.1,0.3-0.1
		c2.7,0.1,5.4,0.2,8.1,0.4c0.6,0,1.3,0,1.9,0c0.2,0,0.4,0.2,0.5,0.3c-0.2,0.1-0.3,0.4-0.5,0.4C63.6,17.3,62.6,17.3,61.5,17.4
		C61.5,17.3,61.5,17.3,61.5,17.4z"/>
	<path d="M40.6,10.6c0.6,0.2,1.1,0.4,1.6,0.6c0.1,0.1,0.2,0.3,0.2,0.4c-0.1,0-0.3,0.1-0.4,0c-0.6-0.1-1.1-0.3-1.7-0.5
		c-0.1,0-0.2-0.2-0.1-0.2C40.4,10.8,40.5,10.7,40.6,10.6z"/>
	<path d="M52.3,15.4c0.3,0.1,0.7,0.3,1.1,0.5c0.1,0.1,0.1,0.3,0.2,0.4c-0.2,0-0.3,0.2-0.4,0.1c-0.4-0.1-0.7-0.3-1.1-0.5
		c-0.1-0.1-0.2-0.2-0.3-0.3C52,15.6,52.1,15.5,52.3,15.4z"/>
	<path d="M27.9,9.8c0,0-0.2,0-0.4,0c-0.1-0.1-0.2-0.2-0.3-0.4c0,0,0.1-0.2,0.2-0.2c0.2,0,0.5,0,0.7,0.1c0.2,0,0.5,0.1,0.7,0.2
		c-0.2,0.1-0.4,0.2-0.7,0.4C28.1,9.8,28.1,9.8,27.9,9.8z"/>
	<path d="M30.5,9.8c-0.4,0-0.6,0-0.8,0c-0.1,0-0.2-0.2-0.4-0.3c0.1-0.1,0.2-0.3,0.3-0.3c0.3,0,0.7,0,1,0c0.1,0,0.2,0.2,0.3,0.3
		c0,0-0.1,0.2-0.2,0.2C30.6,9.8,30.4,9.8,30.5,9.8z"/>
	<path d="M32.8,9.4c0.2,0,0.5,0,0.7,0c0.1,0,0.2,0.1,0.3,0.2c-0.1,0.1-0.2,0.2-0.3,0.2C33.3,9.9,33,10,32.9,9.9
		c-0.4-0.2-1,0.4-1.3-0.3c0.4-0.1,0.9-0.2,1.3-0.4C32.8,9.3,32.8,9.4,32.8,9.4z"/>
	<path d="M39,10.5c-0.2,0.2-0.3,0.3-0.3,0.3c-0.2,0-0.4-0.1-0.6-0.2c-0.2-0.1-0.8,0.1-0.6-0.5c0.1-0.1,0.6-0.1,0.9-0.1
		C38.6,10.1,38.8,10.3,39,10.5z"/>
	<path d="M35.6,9.6c0.2,0.1,0.4,0.1,0.5,0.2c0.2,0.1,0.4,0.2,0.5,0.3c-0.2,0-0.3,0.1-0.5,0.1c-0.3,0-0.7,0-1.1,0
		c-0.2,0-0.4-0.1-0.6-0.2c0.2-0.1,0.4-0.2,0.6-0.2C35.3,9.7,35.5,9.6,35.6,9.6z"/>
</g>
</svg>
