<?xml version="1.0" encoding="iso-8859-1"?>
<!-- Generator: Adobe Illustrator 25.3.0, SVG Export Plug-In . SVG Version: 6.00 Build 0)  -->
<svg version="1.1" id="Calque_1" xmlns="http://www.w3.org/2000/svg" xmlns:xlink="http://www.w3.org/1999/xlink" x="0px" y="0px"
	 viewBox="0 0 59.8 45.5" style="enable-background:new 0 0 59.8 45.5;" xml:space="preserve">
<g>
	<path d="M32.1,42.1c0.5,0.8,1,1.6,1.5,2.4c0.1,0.3,0.1,0.6,0.1,0.9c-0.2-0.1-0.5-0.2-0.7-0.4c-0.9-0.8-1.6-1.7-2.7-2.3
		c-0.4-0.2-0.6-0.8-0.9-1.3c-0.4-0.6-0.7-1.2-1.1-1.8c-0.1-0.2-0.4-0.2-0.6-0.4c0,0.2,0,0.4,0,0.6c0.1,0.5,0.2,1,0.3,1.6
		c0.1,0.5,0.1,1.1,0.1,1.6c-0.1,0.6-0.5,0.8-1.2,0.6c-1.9-0.6-3.2-2-4.1-3.5c-1.6-3-4.3-4.1-7.1-5.1c-1-0.4-2-0.7-3-1.1
		c-0.1,0-0.1,0-0.2-0.1c-0.6-0.5-1.1-1.2-1.7-1.5c-0.7-0.3-1.5,0.1-2.2-0.2c-2-0.7-4-1.5-5.7-2.9c-0.5-0.4-1-0.8-1.7-0.8
		c-0.7,0-1-0.5-1.1-1.2c0-0.7,0-1.4,1-1.3c0.1,0,0.4-0.3,0.3-0.4c-0.2-0.4-0.4-0.9-0.6-1.3c-0.2-0.6-0.2-1.1,0.4-1.6
		C1.5,22.7,1.7,22.3,2,22c0.6-0.8,1.2-1.6,1.8-2.4C3.8,19.5,4,19.4,4,19.3c0.6-1.9,2.4-2,3.9-2.6c0.6-0.2,1.2-0.5,1.8-0.7
		c2.4-0.7,4.7-1.8,6.8-3.1c1-0.6,2-1.5,2.8-2.5c1.1-1.4,2.3-2.8,3-4.4c0.5-1,1.4-1.6,1.9-2.6c0.5-1,1.2-1.8,1.8-2.7
		c0.2-0.3,0.4-0.6,0.7-0.8c0.1-0.1,0.4,0.1,0.6,0.2c-0.5,1.2,0.3,2.1,0.7,3c0.4,0.8,0.5,1.9,1.4,2.5c-0.4,1,1.3,1.2,0.8,2.2
		c0.7,0.6,1.5,0.8,2.4,1c3.1,0.5,6.2,1,8.9,2.8c1.6,1.1,3.1,2.5,4,4.3c0.7,1.4,1.1,2.9,0.5,4.5c0,0.1,0.2,0.3,0.3,0.3
		c1.5-0.1,2.9,0,4.3-0.7c1.6-0.8,3.4-1,5.2-1.2c2.3-0.3,3.3,0.5,3.9,2.9c0.4,1.6,0.3,3.2-0.4,4.7c-0.3,0.7-0.7,1-1.5,1
		c-2.3,0.2-4.5-0.4-6.7-0.9c-0.4-0.1-0.7-0.4-1.1-0.5c-0.5-0.2-1.1-0.3-1.6-0.3c-1.2-0.1-0.2,0.8-0.5,1.3c-0.9,1.8-2,3.4-3.2,4.9
		c-0.5,0.7-1,1.3-1.6,1.9c-1.5,1.8-3.4,2.9-5.8,3.3c-0.8,0.1-1.5,0.4-2.2,0.6c-0.7,0.2-1.2,0.5-1.3,1.4c0,0.2-0.3,0.4-0.5,0.5
		c-0.8,0.3-0.9,0.6-0.4,1.3c0.5,0.6,0.1,0.8-0.5,0.9C32.2,41.9,32.1,42,32.1,42.1z"/>
	<path d="M27.4,24.1c0,2.4-0.5,2.9-2.5,3c-0.7,0-1.4,0.3-2.1,0.4c-0.4,0.1-0.8,0-0.6-0.5c0.2-0.6,0-1-0.3-1.5c-0.1-0.1,0-0.4,0-0.6
		c0.2,0.1,0.4,0.2,0.5,0.4c0.2,0.2,0.2,0.5,0.4,0.8c0.1,0.1,0.2,0.3,0.3,0.3c0.8,0,1.6-0.1,2.3-0.2c0.7-0.1,1.1-0.5,1.2-1.1
		c0.2-0.9,0-1.8-0.5-2.6c-0.5-0.8-2.2-0.7-3,0.2c-0.6,0.6-1.1,1.3-1.7,1.9c-0.2,0.2-0.4,0.4-0.7,0.5c-0.1,0.1-0.3-0.1-0.4-0.1
		c0,0,0-0.3,0-0.3c1-1,1.9-2.2,3-3c1.4-1.1,3.3-0.3,3.8,1.4C27.3,23.6,27.4,24,27.4,24.1z"/>
	<path d="M4.7,22.1c-0.1-0.1-0.3-0.3-0.3-0.3c0.3-0.3,0.5-0.7,0.8-1c0.2,0.2,0.5,0.3,0.5,0.5C5.7,21.8,5.3,22.1,4.7,22.1z"/>
</g>
</svg>
