<?xml version="1.0" encoding="iso-8859-1"?>
<!-- Generator: Adobe Illustrator 25.3.0, SVG Export Plug-In . SVG Version: 6.00 Build 0)  -->
<svg version="1.1" id="Calque_1" xmlns="http://www.w3.org/2000/svg" xmlns:xlink="http://www.w3.org/1999/xlink" x="0px" y="0px"
	 viewBox="0 0 82.7 29.3" style="enable-background:new 0 0 82.7 29.3;" xml:space="preserve">
<g>
	<path d="M1.2,15c-0.2-0.1-0.5-0.2-0.7-0.3c0.1-0.2,0.2-0.6,0.4-0.7c1.7-0.8,3.3-1.6,5-2.3c3.2-1.4,6.6-2.1,9.9-2.8
		c6.3-1.3,12.7-1.1,19.1-1c1.5,0,2.4-0.4,3-1.7c1-1.9,2.3-3.6,4-5c0.2-0.2,0.4-0.4,0.7-0.6c1.1-0.8,1.6-0.8,2.3,0.3
		c0.9,1.5,1.8,3.1,2.6,4.7c0.6,1.3,0.4,1.8-0.8,2.7c-0.2,0.2-0.4,0.4-0.6,0.6c0.2,0.1,0.5,0.3,0.7,0.4c3.9,0.4,7.7,1.3,11.5,2.3
		c1.2,0.3,2.3,0.3,3.5,0c0.4-0.1,0.8-0.1,1.2-0.1c0.6,0,1.1,0.2,1.2,0.8c0.1,0.9,0.8,0.9,1.4,0.9c3.2,0.4,6.1-0.6,9-1.9
		c1.8-0.9,3.7-1.6,5.6-2.4c0.5-0.2,1-0.3,1.6-0.3c0.8,0,1.1,0.5,0.6,1.1c-1.3,1.7-2.6,3.4-4,5c-0.2,0.3-0.5,0.5-0.8,0.8
		c-0.4,0.4-0.5,0.8,0,1.2c0,0,0.1,0.1,0.1,0.1c1.2,1.1,2.3,2.2,2.9,3.8c0.4,1,1.2,1.8,1.9,2.6c0.4,0.5,0.1,0.6-0.2,0.8
		c-0.4,0.3-0.8,0.4-1.3,0.2c-1.2-0.5-2.5-0.8-3.6-1.5c-2.4-1.5-5.1-2.6-7.7-3.8c-1.1-0.5-2.3-0.6-3.5-0.8c-0.1,0-0.4,0.1-0.5,0.2
		c-0.7,1.3-2.2,1.7-3.2,2.7c-1,1-2.1,2-3.1,3c-0.6,0.6-1.1,0.6-1.7,0.1c-0.9-0.8-1.8-1.5-2.7-2.4c-0.9-0.9-1.8-1.4-3.2-0.9
		c-1.4,0.4-2.9,0.4-4.4,0.5c-1.5,0.1-3,0.3-4.4,0.4c-0.1,0-0.2,0.1-0.3,0.2c0.1,0.1,0.2,0.3,0.3,0.4c0.5,0.2,1.2,0.3,1.7,0.6
		c0.9,0.5,1.2,1.6,0.6,2.4c-0.8,1.2-1.7,2.3-2.7,3.3c-1.1,1.2-2.1,1.1-3-0.4c-0.8-1.4-1.5-2.8-2.2-4.3c-0.4-0.8-0.8-1.3-1.9-1.3
		c-1.9,0.1-3.8,0-5.8,0c-3.3,0-6.5-0.4-9.8-1c-2.1-0.4-4.3-0.5-6.4-0.8c-2.8-0.5-5.6-0.2-8.3-1.1c-1.2-0.4-2.4-0.8-3.5-1.3
		c-0.5-0.2-0.9-0.6-1.3-0.9c-0.9-0.8-0.9-0.8,0.1-1.6C1,15.7,1.1,15.3,1.2,15c0.8-0.7,1.7-0.2,2.5-0.2C5.4,15,7,15.8,8.7,16.1
		c0.7,0.1,0.9,1,0.6,1.7c-0.2,0.7-0.7,1-1.5,0.9c-1.2-0.1-2.2-0.8-3.4-1c-0.1,0-0.3,0-0.4,0c0,0,0.1-0.1,0.2,0
		c0.2,0.1-0.1-0.1,0.2,0c0.9,0.2,1.7,0.7,2.6,0.9c2.2,0.5,3.7-0.5,4-2.7c0.1-0.6,0.2-1.2,0.9-1.4c0.8-0.2,1.1,0.4,1.4,1
		c0.2,0.5,0.4,1.4,1.2,1c0.8-0.5,0.3-1.3-0.2-1.8c-0.3-0.4-0.7-0.7-1.1-0.9c-0.8-0.4-1.3-0.9-1-1.8c0.2-0.8,0.8-1.1,1.6-1.1
		c2.3-0.1,4.6-0.6,7-0.6c7.2,0,14.3,0.6,21.5,0.9c7.5,0.4,14.8,1.7,22.2,3c2,0.4,4.1,0.2,6.2,0.5c0.1,0,0.3-0.1,0.3-0.1
		c0.1,0.2,0.1-0.2,0,0c-0.2-0.1-0.3,0.1-0.5,0.1c-9-0.6-17.8-3.1-26.7-4.4c-9.1-1.3-18.2-1.5-27.4,0c-2,0.3-4,0.8-5.9,1.4
		c-0.9,0.3-1.4,0.5-1,1.7c0.5,1.5-0.5,2.4-2.2,2.2c-1.6-0.2-2.9-1.2-4.6-1C2.1,14.8,1.6,14.7,1.2,15z"/>
</g>
</svg>
