<?xml version="1.0" encoding="iso-8859-1"?>
<!-- Generator: Adobe Illustrator 25.3.0, SVG Export Plug-In . SVG Version: 6.00 Build 0)  -->
<svg version="1.1" id="Calque_1" xmlns="http://www.w3.org/2000/svg" xmlns:xlink="http://www.w3.org/1999/xlink" x="0px" y="0px"
	 viewBox="0 0 61.4 50.7" style="enable-background:new 0 0 61.4 50.7;" xml:space="preserve">
<g>
	<path d="M49.4,14.3c0-0.5,0-1.1,0-1.6c-0.1-1.3-0.7-1.9-2-1.9c-1.4,0-2.9,0.1-4.3-0.4C42.4,10,41.7,9.5,41,9
		C40.9,9,40.9,8.7,41,8.6c0.1-0.1,0.3-0.2,0.4-0.2c2.3,0,4.6-0.2,6.7-1.2c1.5-0.8,2.6-1.9,3.4-3.3C52.1,3,51.9,2.4,51,1.9
		c-0.6-0.3-1.2-0.5-1.9-0.5c-1.4,0-2.9,0.3-4.3,0.3c-1.7-0.1-2.9,0.9-4.2,1.7c-0.4,0.3-0.3,1.1-1,0.9c0,0.1-0.1,0.3,0,0.4
		c0.2,0.3,0.5,0.6,0.8,0.9l-0.1,0.1c-0.3-0.1-0.7-0.2-1-0.4C37.3,4,35,3.6,32.6,3.6c-2.9,0-5.8,0-8.6,0c-0.3,0-0.7-0.1-1-0.2
		c0.2-0.3,0.4-0.6,0.6-0.9C24,2.1,24.3,1.5,25.2,2c0.4,0.3,0.7-0.8,1.2-0.3c0.6,0.6,0.6-0.2,0.9-0.3c0.4-0.3,0.6-0.3,1,0
		c0.4,0.3,1.1,0,1.7-0.1c0.3,0,2-0.3,2.2-0.1c0.3,0.4,0.5,0.5,0.8,0.1c0.4-0.4,0.8-1,1.4-0.2c0.4-0.3,0.7-0.5,1.1-0.8
		c0.5-0.3,0.9-0.8,1.1,0.2c0,0.1,0.3,0.2,0.3,0.1c0.2-0.1,0.4-0.3,0.6-0.4c0.5-0.4,0.9-0.3,0.9,0.4c0,0.5,0.1,0.7,0.6,0.3
		c0.2-0.2,0.4-0.3,0.6-0.4c0.1-0.1,0.5-0.1,0.5-0.1c0.2,1.1,0.8,0.7,1.3,0.3c0.1-0.1,0.3-0.1,0.3-0.1C42.3,2.1,43.4,1,44.3,1
		c0.9,0,1.9-0.1,2.8-0.3c1.5-0.2,3-0.1,4.4,0.6C52,1.6,52.3,2,52.3,2.6c0,1-0.2,2-0.9,2.8c-1.6,1.9-3.7,2.9-6,3.6
		c-0.7,0.2-1.6,0.1-2.4,0.1c-0.1,0-0.2,0.1-0.3,0.1c0.1,0.1,0.1,0.2,0.2,0.3c0.3,0.2,0.5,0.4,0.8,0.4c2.1,0.2,4.1,0.6,6.2,0.2
		c2.1-0.4,4.2-1,6.4-0.9c1.9,0.1,3.8,1.5,4,3.4c0.3,2.5,0.3,5.1-1.2,7.4c-1.5,2.4-2.1,2.4-4.8,2c-0.7-0.1-1.4-0.3-2-0.5
		c0.6,0.5,1.1,1,1.7,1.4c0.4,0.4,1,0.7,1.3,1.2c0.9,1.5,1.3,2.7-0.4,4.7c-1.5,1.7-3.5,2.5-5.7,3c-1.8,0.4-3.6,0.3-5.3,0.3
		c-0.9,0-1.8-0.4-2.6-0.3c-1.2,0.1-2.3,0-3.3-0.7c-1.1-0.8-2.4-0.5-3.6-0.3c-0.5,0.1-0.9,0.2-1.3-0.2c-0.1-0.1-0.3-0.2-0.5-0.2
		c-1.2,0.3-2.4-0.3-3.5-0.2c-2,0-3.8-0.5-5.6-1c-0.3-0.1-0.6-0.2-0.8-0.2c-1.3-0.2-2.4-0.7-3.1-1.8c-0.2-0.3-0.5-0.5-0.8-0.7
		c-0.1-0.1-0.3-0.1-0.3,0C18,26.6,18,26.8,18,26.9c0.2,0.6,0.3,1.3,0.6,1.9c0.8,1.4,1.7,2.7,3,3.7c2.6,2.1,5.5,3.7,8.2,5.7
		C33,40.5,36.5,42,40,43.3c3.7,1.4,7.4,2.6,11.2,3.8c2.9,0.9,5.9,1.7,8.9,2.6c0.5,0.1,0.9,0.4,1.3,0.7c-0.5,0.7-1.1,0.1-1.5,0
		c-6.2-1.7-12.4-3.5-18.4-5.7c-2.2-0.8-4.5-1.5-6.7-2.5c-1.7-0.8-3.4-1.8-4.9-2.8c-2.3-1.5-4.6-3-6.8-4.6c-1.4-1-2.7-2.3-4.1-3.4
		c-0.6-0.5-1.4-1-1.9-1.6c-0.9-1-1.7-2.1-2.5-3.2c-0.4-0.6-0.7-1.1-1.4-1.3c-3.4-1.4-6.1-3.9-8.9-6.2c-1.2-1-2.4-2.2-3.5-3.3
		c-1-1-1.2-3.2-0.4-4.3c0.1-0.2,0.5-0.4,0.7-0.4c2.2-0.2,3.9-1.2,5.6-2.5C9.5,6.5,12.6,5,16,4.3c1.7-0.4,3.4-0.7,5-1.1
		c0.2,0,0.5-0.1,0.7,0c0.2,0,0.3,0.1,0.5,0.2c-0.1,0.1-0.2,0.4-0.3,0.4c-0.7,0.2-1.5,0.4-2.3,0.5c-2.7,0.4-5.3,0.9-7.7,2.2
		c-1.7,0.9-3.5,1.8-5,3c-1,0.8-2.2,1.2-3.3,1.7c-0.7,0.3-1,1.2-0.4,1.8c0.4,0.4,0.9,0.6,1.3,0.9c0.1,0.1,0.3,0.2,0.4,0.2
		c0-0.2,0-0.3,0-0.5c-0.1-1.3,0.4-2.2,1.5-2.4c0.9-0.2,2,0.6,2.3,1.6c0.3,1-0.4,2.2-1.4,2.5c-0.3,0.1-0.6,0-0.9,0.1
		c-1,0.5-1.5-1.2-2.6-0.6c-1,0.5-1.8-0.2-2.5-0.9c-0.1-0.1-0.3-0.1-0.4-0.1c0,0.1-0.1,0.2,0,0.3c0.4,1.4,2.3,3,3.9,3.4
		c0.8,0.2,1.6,0.5,2.4,0.7c0.5,0.1,1.1,0.2,1.6,0.2c1.7,0,2.4-0.7,2.5-2.4c0-1.1,0-2.3,0.1-3.4c0-0.2,0.2-0.3,0.4-0.5
		c0.1,0.2,0.3,0.4,0.3,0.5c-0.1,1.6,0.3,3.2-0.3,4.8c0,0.1,0.1,0.3,0.1,0.4c0.1-0.1,0.2-0.2,0.2-0.3c0.4-0.5,0.8-1.5,1.2-1.5
		c0.8,0,0.8-0.5,1.1-0.9c0.9-1.2,0.5-2.4,0-3.6c-0.1-0.2-0.3-0.3-0.3-0.4c0-0.2,0-0.4,0-0.6c0.2,0.1,0.5,0.1,0.6,0.2
		c0.3,0.3,0.4,0.7,0.6,1c0.2,0.4,0.4,0.9,0.7,1.3c0.5,0.7,0.4,1.2-0.1,1.7c-0.1,0.1-0.2,0.4-0.3,0.6c0.2,0,0.5,0.1,0.7,0.1
		c2-0.3,4.1-0.6,6.1-0.9c1-0.1,2-0.3,3,0.3c0.3,0.2,0.7,0.5,0.7,0.7c0.2,1.4,0.3,2.9-0.9,4c-0.7,0.6-1.5,1.1-2.4,1.6
		c-0.9,0.5-1.9,0.5-2.9,0.1c-1.2-0.5-2.4-1.1-3.6-1.6c-0.5-0.2-0.7-0.6-0.6-1.1c0.1-0.3,0.2-0.6,0.1-0.9c-0.2-0.5-0.5-1-0.8-1.5
		c-0.3,0.4-0.8,0.7-1,1.1c-0.8,1.8-2.4,2.2-4.1,2.3c-0.8,0-1.7,0-2.5,0c-0.2,0-0.3,0.1-0.5,0.1C6.8,20,6.9,20.2,7,20.3
		c1.2,1,2.4,2,3.7,2.8c1.4,0.9,2.9,1.7,4.3,2.5c0.1,0.1,0.4,0.1,0.5,0c0.9-0.7,1.7-0.2,2.5,0c2.7,0.6,5.3,1.5,8,1.8
		c3.3,0.4,6.6,0.3,9.7-0.8c1.3-0.5,2.4-1.2,3.3-2.4c0.4-0.5,1-0.8,1.5-1.2c0.1-0.1,0.4,0,0.4,0.1c0.1,0.1,0,0.4-0.1,0.5
		c-1.8,1.5-3.2,3.6-5.7,4c-0.6,0.1-0.7,0.5-0.2,0.8c1.3,1,2.7,2,4.1,2.9c0.3,0.2,0.8,0.2,1.2,0.2c2.5,0,5,0.1,7.6,0
		c2.8-0.1,5-1.6,6.7-3.6c0.9-1.1,0.8-2.5-0.4-3.5c-1.2-1-2.4-1.9-3.7-2.8c-1-0.7-2-1.2-3-1.9c-0.2-0.1-0.2-0.4-0.3-0.5
		c0.2,0,0.4-0.1,0.5-0.1c1.4,0.5,2.7,0.9,4,1.4c1,0.4,2,0.8,3,1.2c1,0.4,1.8,0.2,2.6-0.6c2.1-2.2,2.7-4.8,2.5-7.7
		c-0.2-2.1-1.9-3.2-4-3.3c-1.9,0-3.7,0.4-5.5,0.7c-0.6,0.1-0.8,0.2-0.6,0.9C49.8,12.5,50,13.4,49.4,14.3
		C49.4,14.3,49.4,14.3,49.4,14.3z"/>
	<path d="M47.5,16.5c-0.1,0.3,0,0.5-0.1,0.6c-0.4,0.5-0.9,1-1.4,1.4c-0.3,0.3-0.7,0.5-1.1,0.7c-0.3-0.7,0.5-0.6,0.7-0.9
		c0.4-0.5,0.9-0.9,1.4-1.4C47.1,16.8,47.2,16.7,47.5,16.5z"/>
	<path d="M48.4,12.6c-0.2,0.2-0.3,0.4-0.4,0.5c-0.1-0.2-0.1-0.4-0.2-0.6c-0.1-0.3-0.3-0.6-0.4-1c0-0.1,0.1-0.3,0.2-0.4
		c0.1,0.1,0.3,0.1,0.4,0.3C48.1,11.8,48.2,12.2,48.4,12.6z"/>
	<path d="M47.6,14.5c0-0.1,0-0.3,0.1-0.5c0-0.1,0.2-0.2,0.4-0.2c0,0,0.2,0.2,0.2,0.3c-0.1,0.4-0.2,0.9-0.3,1.3
		c0,0.1-0.1,0.1-0.2,0.2c0-0.1-0.1-0.2-0.1-0.3C47.6,15,47.6,14.8,47.6,14.5z"/>
	<path d="M41.6,25.6c0-0.1-0.1-0.3-0.1-0.3c0.3-0.4,0.6-0.7,0.9-1.1c0,0,0.3,0,0.3,0c0,0.1,0.1,0.2,0,0.3c-0.3,0.3-0.5,0.6-0.8,0.9
		C41.9,25.5,41.7,25.5,41.6,25.6z"/>
	<path d="M42.5,5c-0.1,0-0.3,0-0.4,0c-0.5-0.2-0.9-0.5-1.4-0.7c0,0,0.1-0.1,0.1-0.1C41.5,4.3,42.3,4.2,42.5,5L42.5,5z"/>
	<path d="M40.4,5.7c0.4,0.4,0.8,0.7,1.2,1.1c0,0,0,0.3,0,0.3c-0.1,0-0.3,0-0.3,0C40.9,6.6,40.6,6.2,40.4,5.7
		C40.3,5.8,40.4,5.7,40.4,5.7z"/>
	<path d="M49.4,14.3c-0.1,0.4-0.1,0.9-0.2,1.3c0,0.1-0.2,0.2-0.4,0.3c0-0.2-0.2-0.4-0.1-0.5C48.9,15,49.1,14.7,49.4,14.3
		C49.4,14.3,49.4,14.3,49.4,14.3z"/>
	<path d="M42.5,5c0.8,0,0.7,0.7,0.9,1.1c0,0-0.1,0.2-0.2,0.2C43.2,6.3,43,6.2,43,6.1C42.8,5.8,42.7,5.4,42.5,5L42.5,5z"/>
</g>
</svg>
