<?xml version="1.0" encoding="iso-8859-1"?>
<!-- Generator: Adobe Illustrator 25.3.0, SVG Export Plug-In . SVG Version: 6.00 Build 0)  -->
<svg version="1.1" id="Calque_1" xmlns="http://www.w3.org/2000/svg" xmlns:xlink="http://www.w3.org/1999/xlink" x="0px" y="0px"
	 viewBox="0 0 74.1 39.4" style="enable-background:new 0 0 74.1 39.4;" xml:space="preserve">
<g>
	<path d="M55.4,14.9c3-0.1,5.9-0.7,8.8-1.3c2.4-0.5,4.9-0.9,7.3-1.3c0.1,0,0.2,0,0.4,0c0.6-0.1,1.3-0.7,1.8,0.1
		c0.3,0.4,0.3,1.1,0.3,1.7c-0.1,1.3-0.3,2.7-0.6,4c-0.1,0.5-0.3,1,0.1,1.5c0.8,1.1,0.4,2.3,0.4,3.5c0,0.6-0.6,0.8-1.2,0.8
		c-1.8,0-3.6,0.1-5.3-0.4c-3-0.8-6-1.2-9.1-1.8c-0.4-0.1-0.9,0-1.4,0.1c-1.8,0.3-3.6,0.6-5.4,0.9c-0.3,0-0.5,0.2-0.8,0.3
		c0.2,0,0.5,0.1,0.7,0.1c1,0,1.9,0,2.9,0c0.4,0,0.7,0,1.1,0.1c0.7,0.3,1,1,0.6,1.6c-0.9,1.1-1.9,2.3-3.1,3.2
		c-0.4,0.4-1.5,0.4-2.1,0.1c-1.2-0.5-2.3-0.1-3.5-0.3c-0.7-0.1-0.7,1.1-1.5,0.7c-0.6-0.3-1.1-0.2-1.6,0.4c-0.1,0.1-0.6,0-0.7-0.2
		c-0.6-0.6-1.2-0.5-2-0.3c-3.2,1.1-6.5,2-9.9,2.3c-0.5,0-1,0.3-1.6,0.3c-0.5,0.1-1,0.1-1.4,0.1c0.3,0.5,0.5,1.1,0.9,1.4
		c2.1,1.6,1.4,3.8,1.3,5.9c0,1-1.1,1.4-1.8,0.8c-0.6-0.5-1.3-1.1-1.6-1.8c-0.8-1.7-1.6-3.4-2.2-5.2c-0.3-0.8-0.6-1.2-1.5-1.1
		c-0.7,0.1-1.4,0-2.2,0c-2,0.1-4-0.4-6-0.6c-1.6-0.2-3.2-0.4-4.7-1.1c-2.7-1.2-5-2.9-7-5.1c-0.6-0.6-1.2-1.1-1.8-1.7
		c-0.6-0.6-1.2-1.3-1.8-2c-0.5-0.6-0.7-1.2-0.5-2.1c0.2-0.9,0.6-1.2,1.3-1.5c0.5-0.3,1-0.7,1.5-0.9c1.2-0.5,2.1-1.2,2.8-2.4
		c0.7-1.3,2.2-1.8,3.5-2.4c2.3-0.9,4.7-1.5,6.8-2.6c2.1-1.1,4.2-1.6,6.4-2c1-0.2,2-0.5,2.9-0.8c0.9-0.3,1.1-1,1.2-1.8
		c0-0.5,0.3-0.8,0.8-0.3c0.1,0.1,0.4,0,0.5-0.1c0.1-0.2,0.1-0.5,0.2-0.7c0.2-0.4,0.3-1.1,0.9-0.9c0.5,0.2,0.2,0.7,0,1.1
		c0,0.1,0.1,0.3,0.1,0.3c0.1,0,0.4,0,0.5-0.1c0.5-0.5,0.9-1.1,1.3-1.6c0.5-0.6,1.1-1.1,1.7-1.6C32.5,0,32.7,0,32.9,0
		c0,0.2,0.1,0.3,0.1,0.5c0,0.2-0.1,0.3-0.2,0.5c-0.2,0.6,0.2,0.7,0.5,0.5c0.7-0.4,1.4-0.8,2.1-1.3c0.2-0.1,0.4-0.2,0.6-0.3
		C36,0.3,36,0.5,35.9,0.8c-0.1,0.2-0.2,0.3-0.4,0.4c-0.4,0.4-0.5,1-0.2,1.5c0.3,0.5,0.8,0.4,1.3,0.2c0.1-0.1,0.3-0.1,0.5-0.1
		c0.1,0,0.3,0.1,0.3,0.2c0,0.1,0,0.3-0.1,0.3C37,3.5,36.6,3.7,36.3,4c-0.1,0.1-0.1,0.3-0.2,0.4c0.2,0,0.3,0.2,0.5,0.1
		c0.9-0.4,1,0,0.8,0.8C37.3,6,37.4,6.3,38.2,6c0.5-0.2,0.7,0.3,0.5,0.6c-0.6,1,0.3,1.3,0.7,1.7C40,8.8,40.6,9.2,41.5,9
		c1.6-0.5,3.4-0.7,5-1.1c0.1,0,0.3-0.1,0.3-0.1c1.2,0.9,2.5,0.3,3.7,0.5c1.8,0.2,3.7,2.4,4.1,4.3c0.1,0.6-0.2,0.9-0.6,1.1
		c-0.7,0.3-1.4,0.3-2.1,0.5c-0.2,0-0.3,0.1-0.4,0.1c0.2,0.1,0.3,0.1,0.5,0.2C53.2,14.6,54.3,14.8,55.4,14.9z"/>
	<path d="M42.7,14.1c-0.5-0.1-1.1,0-1.5-0.3c-1.5-0.8-3.1-1.4-4.7-1.9c-1.9-0.6-3.9-0.9-5.8-1.4c-0.2,0-0.3-0.3-0.5-0.4
		c0.2-0.1,0.4-0.3,0.5-0.3c0.4,0,0.7-0.1,1.1,0c3.4,1.1,7,1.8,10.2,3.5C42.3,13.5,42.5,13.9,42.7,14.1L42.7,14.1z"/>
	<path d="M54,18.2c-1.3-0.2-2.4-0.4-3.5-0.6c-0.3-0.1-0.5-0.3-0.8-0.4c-0.1,0-0.1-0.2-0.1-0.3c0-0.1,0.1-0.2,0.2-0.2
		c0.3,0,0.6,0,0.9,0c1.1,0.2,2.2,0.4,3.2,0.7c0.2,0,0.3,0.3,0.5,0.5C54.3,18,54.1,18.2,54,18.2z"/>
	<path d="M47.7,16.3c-0.1,0.1-0.3,0.3-0.4,0.2c-0.9-0.3-1.7-0.7-2.5-1.1c-0.1,0-0.1-0.3-0.1-0.4c0-0.1,0.2-0.2,0.3-0.2
		c0.9,0.4,1.8,0.8,2.7,1.2C47.6,16.1,47.6,16.2,47.7,16.3z"/>
	<path d="M60.6,17.3c0,0.1-0.1,0.3-0.1,0.3c-0.7,0.2-1.3,0.3-2,0.4c-0.1,0-0.3-0.2-0.3-0.4c0-0.1,0.1-0.4,0.2-0.4
		c0.7-0.1,1.4-0.1,2.1-0.1C60.5,17,60.5,17.2,60.6,17.3z"/>
	<path d="M56.3,18.2c-0.5-0.2-0.9-0.3-1.3-0.4c0.3-0.5,0.9-0.3,1.3-0.3c0.5,0,1,0.1,1.5,0.1C57.5,18.6,56.7,17.7,56.3,18.2z"/>
	<path d="M30,10.3c-0.6,0.1-0.9,0.3-1.2,0.2c-0.1,0-0.2-0.3-0.4-0.5c0.3-0.1,0.5-0.2,0.8-0.2C29.4,9.8,29.5,10,30,10.3z"/>
	<path d="M42.7,14.1c0.1,0,0.2,0,0.4,0c0.4,0,0.9-0.1,1,0.4c0,0.1-0.1,0.2-0.2,0.3C43.2,14.9,42.7,14.9,42.7,14.1L42.7,14.1z"/>
	<path d="M48.8,15.9c0.1,0.3,0.3,0.6,0.3,0.7c0,0.1-0.3,0.3-0.4,0.3c-0.2,0-0.3-0.2-0.5-0.3C48.3,16.5,48.4,16.3,48.8,15.9z"/>
	<path d="M9.8,13c0.7,0.2,1.6,0.2,2.2,1.1c0.6,0.9,0.7,1.4,0.1,2.3c-0.5,0.8-1.9,1.2-2.9,1c-1-0.2-1.5-0.9-1.5-1.9
		c0-0.4,0-0.8,0.6-1c0.1,0,0.3-0.3,0.3-0.4C8.9,13.1,8.9,13,9.8,13z"/>
</g>
</svg>
