<?xml version="1.0" encoding="iso-8859-1"?>
<!-- Generator: Adobe Illustrator 25.3.0, SVG Export Plug-In . SVG Version: 6.00 Build 0)  -->
<svg version="1.1" id="Calque_1" xmlns="http://www.w3.org/2000/svg" xmlns:xlink="http://www.w3.org/1999/xlink" x="0px" y="0px"
	 viewBox="0 0 87.6 33.6" style="enable-background:new 0 0 87.6 33.6;" xml:space="preserve">
<g>
	<path d="M78.3,26.5c-0.6-0.2-1.3-0.2-1.9-0.5c-2-1-4.2-1.8-6-3.1c-1-0.7-2.2-0.4-3.3-0.3c-0.1,0-0.4,0.5-0.3,0.7
		c0,0.7-0.3,0.9-0.9,1c-1.3,0.1-2.1,0.7-2.4,2.1c-0.4,1.4-1.6,2.5-2.8,3.3c-0.2,0.1-0.5,0.2-0.6,0.1c-0.9-0.4-1.8-0.8-2.7-1.4
		c-0.8-0.5-1.6-1.1-2.3-1.7c-0.7-0.7-1.5-0.7-2.3-0.6c-3.5,0.6-7,0.9-10.5,1.1c-4.1,0.3-8.3,0.3-12.4,0.2c-1.1,0-2.1-0.2-3.2-0.3
		c-1-0.1-1.1,0-1.3,0.9c-0.2,1-0.2,2-0.4,3c-0.1,0.6-0.2,1.2-0.4,1.7c-0.3,0.9-1.2,1.1-1.9,0.5c-1.8-1.5-3.1-3.5-4.1-5.6
		c-0.5-1.2-1.5-1.5-2.5-1.6c-2.6-0.1-5.1-0.6-7.6-1c-1.2-0.2-2.3-0.6-3.5-0.8c-1.7-0.3-2.8-1.5-4.3-2.1c-0.3-0.1-0.3-0.6-0.5-0.9
		c-0.2-0.2-0.2-0.3,0-0.5c1.3-1.5,3-2.3,4.8-2.9c2.1-0.6,4.1-1.4,5.8-2.9c1.2-1,2.5-1.9,3.9-2.6c2.4-1.1,4.5-2.6,6.4-4.4
		c1.4-1.3,3-2.5,4.2-4c0.3-0.4,0.7-0.7,0.8-1.1c0.2-0.5,0.3-0.7,0.9-0.5c0.2,0.1,0.6-0.1,0.8-0.2c0.9-0.6,1.8-1.3,2.7-2
		c0.3-0.2,0.6-0.6,0.9-0.2c0.2,0.3,0.6,0.8,0.5,1c-0.5,1.5,0.4,2.7,1,3.8c0.5,1,1.3,1.8,2.2,2.5c1.2,0.9,1.9,2.1,2.6,3.4
		c0.3,0.5,0.5,0.7,1,0.7c3,0.4,6,0.9,9,1.3c0.8,0.1,1.6,0.3,2.5,0.4c0.5,0,1.1-0.1,1.5-0.3c1.7-0.8,3.2-1.9,4.6-3.3
		c0.9-0.9,1.9-1.8,3.3-1.8c0.3,0,0.6-0.3,0.9-0.5c0.9-0.3,1.8-0.7,2.7-0.9c0.9-0.1,1.3,0.5,0.8,1.3c-1.5,2.4-1.3,4.7,0,7.1
		c0.1,0.2,0.3,0.7,0.2,0.8c-0.8,0.7-0.3,0.8,0.3,1c1.4,0.4,2.8,0.9,4.3,1.2c0.6,0.1,1.4,0,2.1-0.2c2.1-0.9,4.2-1.9,6.3-3
		c2.1-1,4.1-2.2,6.2-3.1c0.8-0.4,1.8-0.3,2.8-0.4c0.9,0,1.6,0.8,1.2,1.5c-0.8,1.7-0.9,3.7-2.6,5c-0.8,0.7-1.3,1.8-1.9,2.8
		c-1,1.6-2,3.2-2.9,4.9C79.7,26.1,79.2,26.6,78.3,26.5z"/>
	<path d="M6.3,19.4C7,19.6,7.6,19.8,8.2,20C8.5,20.1,9,20.5,9,20.6c-0.1,0.4-0.4,0.7-0.7,0.9c-0.9,0.5-3,0.1-3.6-0.8
		c-0.1-0.2,0-0.6,0.1-0.7C5.3,19.7,5.8,19.6,6.3,19.4z"/>
	<path d="M57.3,11.7c0.1,1.1,0.2,2.2,0.4,3.2C56.8,13.9,56.6,12.8,57.3,11.7z"/>
	<path d="M57.8,16c-0.2,0-0.3,0.1-0.5,0.1c-0.5-0.1-1-0.3-1.5-0.5c-0.2-0.1-0.3-0.1-0.5-0.2c0.2,0,0.3-0.2,0.5-0.1
		c0.6,0.1,1.3,0.3,1.9,0.4C57.8,15.7,57.8,15.9,57.8,16z"/>
	<path d="M78.8,18.9c-0.1,0.1-0.1,0.1-0.1,0.2c-0.1,0.1-0.2,0.1-0.3,0.2c-0.6,0.2-1.2,0.5-1.7,0.7c0,0-0.1-0.1-0.1-0.1
		c0.6-0.3,1.2-0.7,1.8-1C78.4,18.8,78.6,18.9,78.8,18.9z"/>
	<path d="M27.4,6.5c0,0.6,0,0.9,0,1.2c0,0.1-0.1,0.1-0.2,0.2c0,0-0.1-0.1-0.1-0.1c0-0.3-0.1-0.6-0.1-0.8c0-0.3,0.2-0.7,0.3-1
		C27.4,6.1,27.4,6.4,27.4,6.5z"/>
	<path d="M58.4,15.2c0.7,0.2,1.3,0.7,1.5,1.4C59,16.6,58.5,16.1,58.4,15.2z"/>
	<path d="M58.4,9.9c-0.4,0.6-0.7,1.2-1.1,1.8C57.2,10.8,57.6,10.2,58.4,9.9z"/>
	<path d="M20.9,12.7c-0.2,0-0.3,0-0.5,0c-0.1,0-0.2-0.1-0.3-0.1c0.1-0.1,0.2-0.2,0.2-0.2c0.3,0,0.7-0.1,1-0.1c0.2,0,0.4,0,0.6,0
		c-0.2,0.1-0.3,0.3-0.5,0.3C21.3,12.8,21.1,12.7,20.9,12.7z"/>
	<path d="M78.5,16.8c0,0,0.2,0.1,0.3,0.2c-0.1,0.1-0.2,0.3-0.3,0.4c-0.2,0.1-0.5,0-0.7,0c-0.1,0-0.2-0.1-0.2-0.2
		c0.1-0.1,0.2-0.2,0.3-0.2C78,16.8,78.2,16.8,78.5,16.8z"/>
	<path d="M30.9,12.1c0.4-0.3,0.6-0.6,0.7-0.6c0.2,0.1,0.4,0.3,0.5,0.5c-0.2,0.1-0.3,0.1-0.5,0.1C31.4,12.2,31.2,12.1,30.9,12.1z"/>
</g>
</svg>
