<?xml version="1.0" encoding="iso-8859-1"?>
<!-- Generator: Adobe Illustrator 25.3.0, SVG Export Plug-In . SVG Version: 6.00 Build 0)  -->
<svg version="1.1" id="Calque_1" xmlns="http://www.w3.org/2000/svg" xmlns:xlink="http://www.w3.org/1999/xlink" x="0px" y="0px"
	 viewBox="0 0 83.8 34.3" style="enable-background:new 0 0 83.8 34.3;" xml:space="preserve">
<g>
	<path d="M30.4,11.1c3.6,0.1,7.1,0.2,10.6,0.4c2.8,0.2,5.5,0.7,8.3,1c1.2,0.1,2.4,0.2,3.4-0.8c0,0,0.1-0.1,0.1-0.1
		c0.5-0.2,1.1-0.8,1.6-0.1c0.6,0.8-0.3,0.9-0.8,1.2c-0.1,0.1-0.2,0.3-0.3,0.4c0.2,0,0.3,0.1,0.5,0.1c1.5,0.2,2.9,0.5,4.4,0.7
		c1.4,0.2,2.7,0.3,4.1,0.4c1,0.1,2-0.2,2.9-0.7c4.5-2.4,9-4.7,13.5-7c1.1-0.6,2.3-0.9,3.5-1.4c0.5-0.2,0.9-0.3,1.3,0.2
		c0.4,0.4,0.2,0.9,0,1.3c-1.1,2.4-2.5,4.6-4,6.7c-0.7,1.1-1.5,2.1-2.3,3.2c-0.9,1.2-0.7,2.4,0.1,3.6c1.5,2.3,2.9,4.6,4.4,6.9
		c0.3,0.4,0.5,0.9,0.6,1.4c0.1,0.6-0.3,0.9-0.8,0.8c-0.3-0.1-0.7-0.2-1-0.3c-4.2-1.5-8-3.7-12-5.6c-1.7-0.8-3.5-1.7-5.3-2
		c-1.8-0.4-3.8-0.1-5.7-0.1c-0.2,0-0.4,0.2-0.5,0.4c0.1,0.1,0.2,0.3,0.4,0.4c0.7,0.4,1.3,0.8,2,1.2c0.1,0.1,0.2,0.3,0.2,0.4
		c0,0.1-0.2,0.3-0.4,0.3c-1.7,0.5-3.4,1-5.1,1.4c-2.1,0.5-3.9,1.6-5.7,2.9c-1.1,0.8-1.9,1.9-2.7,3c-0.6,0.9-1.2,1-2,0.3
		c-1.2-1-2.3-2-3.5-3.1c-1-0.9-2.2-1.4-3.6-1.3c-0.5,0-1.1,0-1.6,0c-0.9,0-0.9,0-0.5,0.8c0.2,0.5,0.4,1.2,0.3,1.7
		c-0.4,1.6-1.3,3-2.6,4.2c-0.3,0.3-0.6,0.4-0.9,0c-0.5-0.6-1.2-1.2-1.6-1.9c-0.7-1.2-1.4-2.5-2-3.8c-0.3-0.7-0.8-1-1.6-1.1
		c-2.6-0.4-5.3-0.1-7.9-0.4c-2.8-0.3-5.5-0.2-8.2-0.3c-1.2-0.1-2.4-0.4-3.7-0.6c-0.2,0-0.3,0.1-0.5,0.1c0.1,0.1,0.2,0.3,0.3,0.4
		c0.1,0.2,0.1,0.4,0.1,0.6C6.2,27,6,27,5.9,26.9c-0.1,0-0.3-0.1-0.4-0.1c0,0.1,0,0.2,0.1,0.3c0,0.1,0.1,0.1,0.1,0.1
		c0.1,0.2,0.2,0.4,0.2,0.6c-0.2-0.1-0.6-0.1-0.7-0.2c-0.5-0.5-1-1-1.5-1.5c-0.1-0.1-0.2-0.2-0.3-0.3c0,0.2-0.1,0.4,0,0.5
		c0.3,0.7,0.1,0.7-0.5,0.5c-0.6-0.3-1.1-0.5-1-1.3c0-0.2-0.1-0.4-0.2-0.5c-1-0.6-1.1-1.1,0.2-1.4c0,0,0-0.3,0-0.4
		c-0.3-0.3-0.7-0.5-1-0.7c-1-0.9-1-1.9,0.1-2.7c4-2.6,8-5.2,12.5-6.9c1.1-0.4,2.2-0.7,3.2-1.1c1.4-0.6,2-1.9,2.6-3.2
		C19.8,7.3,20.3,6,21,4.7c1-1.9,2.3-3.4,4.2-4.5c0.7-0.4,1.2-0.3,1.7,0.3c1.8,2,2.1,4.3,1.8,6.8c-0.2,1.4-0.7,2.5-2.1,3.1
		c-0.1,0.1-0.2,0.3-0.3,0.4c0.2,0.1,0.4,0.3,0.5,0.3C28.1,11.1,29.3,11.1,30.4,11.1z"/>
	<path d="M8.1,22.1c0,0.8-1.2,1.6-2.1,1.6c-0.8-0.1-1.4-0.9-1.4-1.6c0.1-0.8,0.9-1.6,1.7-1.6C7.1,20.5,8.1,21.4,8.1,22.1z"/>
	<path d="M46.6,24.1c-0.2-0.1-0.3-0.1-0.4-0.2c0.1-0.1,0.1-0.2,0.2-0.3c0.1-0.1,0.2-0.2,0.3-0.2c1.3-0.4,2.6-0.8,3.9-1.2
		c0,0,0.1,0.1,0,0.1C49.2,22.9,47.9,23.5,46.6,24.1z"/>
	<path d="M8.5,24c0.3-0.9,0.5-1.8,0.8-2.6c0-0.1,0.1-0.2,0.2-0.3c0.1,0.1,0.2,0.3,0.2,0.4c0.1,1-0.2,2-1,2.6C8.6,24.1,8.5,24,8.5,24
		z"/>
	<path d="M42.6,25.6c-0.2-0.1-0.3-0.2-0.4-0.3c0.3-0.2,0.7-0.4,1.1-0.5c0.1,0,0.2,0.1,0.3,0.1C43.3,25.1,42.9,25.3,42.6,25.6z"/>
</g>
</svg>
