<?xml version="1.0" encoding="iso-8859-1"?>
<!-- Generator: Adobe Illustrator 25.3.0, SVG Export Plug-In . SVG Version: 6.00 Build 0)  -->
<svg version="1.1" id="Calque_1" xmlns="http://www.w3.org/2000/svg" xmlns:xlink="http://www.w3.org/1999/xlink" x="0px" y="0px"
	 viewBox="0 0 68.1 39.3" style="enable-background:new 0 0 68.1 39.3;" xml:space="preserve">
<g>
	<path d="M19.2,29.7c-0.1,2.6,0.4,5.2,1.4,7.6c0.1,0.3,0.2,0.5,0.3,0.8c0.1,0.4,0.1,0.8,0.1,1.1c-0.7,0-0.5-0.6-0.6-0.9
		c-1.5-3.3-2.4-6.8-3-10.3c-0.4-2.3-0.3-4.6-0.5-6.9c0-0.6-0.1-0.9-0.8-1.1c-1.7-0.5-3.3-1.2-4.9-1.6c-1-0.3-2.1-0.2-3.1-0.4
		c-2.8-0.6-5.2-2-7.1-4.2c-1.6-1.8-1.1-3.3,0.8-4.6c0.8-0.6,2-0.8,3-0.9C6.4,8.1,8,8.1,9.6,7.9c2-0.2,4-0.5,6-0.8
		C16.2,7,16.7,6.7,17,6c1-2.3,3-3.8,4.7-5.5c0.7-0.6,1.1-0.7,1.7,0.1c0.9,1.1,1.8,2.4,2.5,3.7c0.5,0.8,0.9,1.3,1.9,1.2
		c2.6-0.2,5.1-0.5,7.7-0.3c1.8,0.1,3-0.3,4.2-1.6c1.5-1.6,3.5-2,5.6-1.7c1.2,0.2,1.5,0.8,1,1.9c-0.4,0.8-0.8,1.6-1.3,2.3
		c-0.3,0.6-0.9,1-1.5,1.2c-0.1,0-0.3,0.2-0.4,0.2c0.1,0.1,0.2,0.3,0.4,0.4c0.5,0.3,1,0.5,1.7,0.2c0.8-0.4,1.7-0.8,2.6-1.2
		c2.3-1,4.6-1,7-0.4c0.4,0.1,0.7,0.1,0.5,0.7c0,0.1,0.3,0.4,0.6,0.5c1.7,0.5,3.4,1,5.2,1.4c0.7,0.2,1.4,0.3,2.1,0.5
		c0.1,0,0.2,0.4,0.1,0.5c-0.3,0.4-0.3,0.4-0.1,0.5c1.2,0.3,2.4,0.7,3.6,1c0.6,0.2,1,0.4,0.4,0.9c-0.5,0.5-0.3,0.8,0.1,1.2
		c0.4,0.3,1.1,0.9,1,1.1c-0.4,0.7-0.9-0.1-1.3-0.1c-0.3,0-0.6,0.2-0.7,0.4c-0.1,0.1,0.1,0.4,0.2,0.6c0,0.1,0.1,0.1,0.1,0.1
		c0.2,0.3,0.5,0.6,0.7,1c-0.5,0.1-1,0.2-1.5,0.2c-1.2-0.2-2.4-0.5-3.6-0.8c-0.2-0.1-0.5-0.1-0.7-0.2c-0.6-0.2-0.8,0.8-1.6,0.5
		c-0.4-0.2-1,0-1.5,0.1c-0.3,0.1-0.8,0.3-0.8,0.5c0,1-0.7,0.9-1.4,1c-0.8,0-1.6,0.3-2.4,0.3c-3.7,0-7.1-0.8-10-3.3
		c-0.3-0.3-0.7-0.5-1-0.7c-0.2-0.1-0.5-0.2-0.8-0.3c0.2,0.2,0.4,0.4,0.5,0.6c0.3,0.5,0.6,1,0.2,1.5c-1,1.5-0.7,3.1-0.3,4.6
		c0.1,0.2,0.3,0.5,0.2,0.6c-0.6,0.8-0.4,1.4,0.4,2c-0.1,0.1-0.2,0.3-0.3,0.4c-0.1,0.1-0.3,0-0.5,0c0.1,0.1,0.2,0.3,0.3,0.4
		c0.2,0.2,0.5,0.3,0.7,0.5c0.1,0.1,0.1,0.3,0.2,0.5c-0.2,0-0.3,0.1-0.5,0.1c-0.4-0.1-0.8-0.2-0.7,0.5c-0.4,0-0.8,0.2-1.2,0.1
		c-0.7-0.2-1.4-0.4-2-0.8c-2-1.4-3.7-3-4.6-5.3c-0.1-0.2-0.2-0.4-0.2-0.7c-0.2-0.7-0.6-0.7-1.2-0.4c-0.9,0.5-1.9,1.1-2.9,1.4
		c-1.9,0.5-3.8,0.9-5.8,0.5c-0.6-0.1-1.2-0.1-1.8,0c-0.5,0-1,0.1-1.5,0.2c0.4,0.4,0.7,0.8,1.1,1.2c0.5,0.4,1,0.8,1.6,1.1
		c3.1,1.5,6.3,2.4,9.6,3.2c0.7,0.2,1.4,0.3,2.1,0.5c0.1,0,0.2,0.3,0.3,0.4c-0.1,0.1-0.3,0.2-0.4,0.2c-0.5-0.1-1.1-0.2-1.6-0.3
		c-2.2-0.7-4.4-1.4-6.6-2c-1.3-0.4-2.5-0.6-3.8-0.9c-0.3-0.1-0.7-0.1-0.8,0.1c-0.1,0.3-0.2,0.7,0,1c0.5,0.9,1.2,1.7,1.7,2.5
		c1.8,3.2,4.7,5.6,7.2,8.1c0.1,0.1,0.3,0.2,0.4,0.3c0.1,0.1,0,0.3,0,0.4c0,0-0.2,0.1-0.3,0c-0.3-0.3-0.7-0.5-1-0.8
		c-2.9-2.8-5.8-5.6-7.9-9.1c-0.2-0.4-0.6-0.8-0.9-1.1c-0.2-0.2-0.5-0.2-0.8-0.2c0,0.3,0,0.5,0.1,0.8c1.4,2.7,3,5.2,5,7.5
		c1,1.2,2.2,2.4,3.2,3.6c0.1,0.1,0,0.3,0.1,0.4c-0.2,0-0.4,0-0.5-0.1c-0.9-0.9-1.9-1.8-2.7-2.8c-2.1-2.4-3.9-5.1-5.5-7.9
		c-0.1-0.2-0.3-0.3-0.5-0.5c-0.2,0.2-0.5,0.4-0.5,0.6C19.1,27.8,19.2,28.8,19.2,29.7z"/>
	<path d="M5.4,9.4c1.1,0,1.2,0.1,1.3,1.3c0,0.2,0.2,0.4,0.2,0.6c0,0.2,0.1,0.5,0,0.6c-0.6,0.7-2.5,0.4-3-0.4C3.4,10.3,4,9.4,5.4,9.4
		z"/>
</g>
</svg>
