<?xml version="1.0" encoding="iso-8859-1"?>
<!-- Generator: Adobe Illustrator 25.3.0, SVG Export Plug-In . SVG Version: 6.00 Build 0)  -->
<svg version="1.1" id="Calque_1" xmlns="http://www.w3.org/2000/svg" xmlns:xlink="http://www.w3.org/1999/xlink" x="0px" y="0px"
	 viewBox="0 0 235.1 99.8" style="enable-background:new 0 0 235.1 99.8;" xml:space="preserve">
<g>
	<path d="M169.1,96.5c-0.7,0.5-1.3,1-2,1.4c-1.7,1-2,0-2-1.4c1.8-1.2,3.3-2.8,4.8-4.3c-1.5,1.5-2.9,3.2-4.8,4.3c-2,0.7-4,1.9-6,2
		c-3.6,0.2-7.1,0.3-10.6,0.9c-4.3,0.7-8.9,0.7-13.3-0.6c-3.3-1-6.8-1.3-10.2-1.8c-6.8-1.1-13.7-2-20.5-3.5C97,91.9,89.6,90,82.3,88
		C75.1,86,68,83.7,61,81.4c-2.3-0.8-4.4-2.2-6.7-3.2c-2.3-1-4.7-1.7-6.9-2.7c-4.4-2-8.5-4.5-11.8-8c-0.8-0.9-1.2-2.3-1.4-3.5
		c-0.2-2.5-0.1-2.6-2.5-2c-4.4,1.1-8.7,1.8-13.3,1.8c-3.2,0-6-1-8.3-2.8C6.4,58,3.3,54.4,1,50.3c-1.5-2.7-1.4-3.5,0.6-5.8
		c2.9-3.5,6.5-6.2,10.5-8.3c2.8-1.5,5.9-1.2,8.7-0.4c3.8,1.1,7.5,2.6,11.2,4.1c1.3,0.5,1.6,0.5,1.4-1.1c-0.1-0.8,1-2,1.8-2.7
		c7.3-6,15.6-10.2,24.3-13.5c14.7-5.5,29.7-10.3,44.7-15.2c8.5-2.8,17.2-4.5,26.2-5c5.4-0.3,10.8-1.2,16.2-2
		c5.3-0.8,10.5,0.3,15.8,0.4c3.1,0.1,6.3,0.5,9.3,1.1c12.2,2.5,24,6.4,35,12.4c3.7,2,8,3.5,10,7.7c3.6,1.2,5.5,4.4,7.9,7
		c0.7,0.8,1.2,1.8,1.6,2.8c0.3,0.6,0.2,1.3,0.3,1.9c0.2-0.7,0.3-1.4,0.7-2c0.2-0.3,0.8-0.7,1-0.6c0.7,0.5,1.2,1.1,1.9,1.6
		c5,3.9,5.9,4.1,2.6,10.9c-0.4,0.9-0.9,1.8-1.6,2.5c-0.8,1-0.6,1.7,0.1,2.6c1.2,1.6,2.2,3.3,3.2,5c1,1.6,1,3.1-0.5,4.5
		c-3.1,2.8-6.1,5.6-9.1,8.4c-0.7,0.7-1.7,1.2-2.2,2c-3.4,4.8-8.6,6.4-14,7.8c-1.3,0.3-2.6,0.7-3.7,1.3c-1.5,0.8-2.4,1.7-1.9,3.9
		c1,4.2-0.6,7.7-4.2,10.3c-1.3,1-1.9,1.2-2.6-0.2c-1.1-2.6-2.1-5.2-3-7.8c-0.2-0.7,0.1-1.5,0.1-2.3c-0.8,0.5-1.7,0.9-2.4,1.6
		c-0.4,0.4-0.7,1.2-0.7,1.8c-0.1,4.8-3.9,6.7-7.2,8.9c-1.4,1-3.7,2.3-4.8,1.8c-1.9-1-3.1,3.1-4.6,0.3c-0.7,0.4-1.3,0.9-2.1,1.2
		C170.5,97.8,169.7,97.5,169.1,96.5c0.5-0.4-0.2,0.1,0.4-0.3c1.1-0.7,2-1.6,2.9-2.6C171.5,94.7,170.4,95.7,169.1,96.5z"/>
	<path d="M220.2,52.5c0-1.3-0.3-2.8,1.6-3c0.7-0.1,1.4,0.5,2.2,0.7c-0.5,0.5-0.9,1.1-1.5,1.4C221.7,52,220.9,52.2,220.2,52.5
		C220.1,52.5,220.2,52.5,220.2,52.5z"/>
</g>
</svg>
