<?xml version="1.0" encoding="iso-8859-1"?>
<!-- Generator: Adobe Illustrator 25.3.0, SVG Export Plug-In . SVG Version: 6.00 Build 0)  -->
<svg version="1.1" id="Calque_1" xmlns="http://www.w3.org/2000/svg" xmlns:xlink="http://www.w3.org/1999/xlink" x="0px" y="0px"
	 viewBox="0 0 83.9 10.8" style="enable-background:new 0 0 83.9 10.8;" xml:space="preserve">
<g>
	<path d="M59.5,8.4c-0.4,0-1.1,0.1-1.8,0.2c-2.3,0.3-4.7,0.9-7,1c-2.6,0.1-5.1,0.5-7.6,0.7c-2,0.2-4,0-5.9,0.1
		c-0.8,0-1.7,0.2-2.5,0.2c-0.2,0-0.4,0.1-0.5,0c-3-0.1-5.9,0.1-8.9,0.1c-2.9,0-5.9,0-8.8,0c-1.1,0-2.1-0.2-3.2-0.4
		c-2.1-0.3-4.2-0.2-6.3,0c-2,0.1-3.8-0.5-5.6-0.8C0.6,9.5,0.1,9.1,0,8.4c-0.1-0.8,0.4-1.1,1-1.3C1.5,7,1.8,7.1,1.3,6.5
		C0.6,5.7,0.8,4.8,1.8,4.7C4.1,4.6,6,3,8.2,2.7c2.8-0.4,5.5-1,8.3-0.3c0.5,0.1,1,0.1,1.4,0.1c2.3,0,4.6,0.2,6.8,0
		c3.2-0.3,6.5-0.1,9.7-0.4c1.9-0.2,3.7-0.1,5.5-0.3c1.5-0.1,3-0.3,4.4-0.8c2.1-0.8,4.1-0.9,6.3-0.9c1.9,0,3.7,0,5.6,0
		c0.8,0,1.6,0.4,2.3,0.3c1.9-0.4,3.8,0.2,5.7,0.1c1.9-0.1,3.7-0.2,5.6,0c2.6,0.3,5.1,0.3,7.7,0.3c1.4,0,2.8-0.2,4.3-0.3
		c0.8,0,1.9-0.2,2.2,0.8c0.2,0.8-0.4,1.4-1,1.9c-1.8,1.7-4.1,2.7-6.5,3.3c-2.5,0.6-5,1.1-7.6,1.2c-1.4,0-2.8,0.4-4.2,0.6
		c-0.1,0-0.2,0.1-0.4,0.1C62.8,8.3,61.3,8.3,59.5,8.4z"/>
	<path d="M17.2,8.7c1-0.2,2.1-0.4,3.1-0.6c0.2,0,0.5-0.4,0.5-0.6c0-0.2-0.3-0.5-0.6-0.6c-0.3-0.1-0.7-0.1-1.1,0
		c-1,0.2-2,0.5-2.9,0.7c-0.2,0.1-0.4,0.1-0.6,0.2c0.1-0.3,0.1-0.9,0.3-0.9c1.4-0.3,2.8-0.6,4.2-0.8c0.4,0,0.9,0.3,1.3,0.6
		c0.6,0.5,0.6,1.4-0.1,1.8c-0.7,0.4-1.5,0.7-2.3,0.8c-1.3,0.2-2.6,0.3-3.9,0.4c-0.1,0-0.4-0.1-0.4-0.3c0-0.1,0.1-0.4,0.2-0.4
		c0.8-0.2,1.6-0.4,2.4-0.6C17.1,8.5,17.1,8.6,17.2,8.7z"/>
</g>
</svg>
