<?xml version="1.0" encoding="iso-8859-1"?>
<!-- Generator: Adobe Illustrator 25.3.0, SVG Export Plug-In . SVG Version: 6.00 Build 0)  -->
<svg version="1.1" id="Calque_1" xmlns="http://www.w3.org/2000/svg" xmlns:xlink="http://www.w3.org/1999/xlink" x="0px" y="0px"
	 viewBox="0 0 89.1 32.4" style="enable-background:new 0 0 89.1 32.4;" xml:space="preserve">
<g>
	<path d="M68.5,12.3c2.3,0.3,4.7-0.4,7.1-1.5c3.2-1.4,6.6-2.2,10.1-2.7c1.6-0.2,2.8,0.8,3,2.7c0.2,2.5,0.3,5,0.4,7.5
		c0.1,1.3-0.6,2.3-1.3,3.2c-0.2,0.3-0.7,0.5-1,0.5c-1.6,0-3.2,0.1-4.8-0.3c-2-0.5-4-0.5-5.9-1.2c-2.2-0.7-4.5-0.7-6.7-0.6
		c-0.8,0-1.6,0.2-2.5,0.3c-1.4,0.1-2.7,0.2-4.1,0.4c-0.2,0-0.4,0.3-0.6,0.5c0.2,0.2,0.4,0.4,0.6,0.5c0.1,0.1,0.4,0,0.5,0.1
		c0.3,0.1,0.5,0.3,0.7,0.4c-0.2,0.1-0.4,0.3-0.6,0.4c-0.2,0.1-0.6,0.2-0.2,0.6c0.4,0.3,1.1,0.3,0.8,1.3c-0.3,0.9-0.8,1.3-1.7,1.3
		c-1.6,0-3.2,0.1-4.8-0.4c-1-0.3-2-0.5-2.9-0.7c-0.2,0-0.4,0.1-0.6,0.2c0.1,0.1,0.2,0.3,0.3,0.4c0.1,0.1,0.3,0.2,0.4,0.4
		c0.1,0.2,0,0.4,0,0.6c-0.2,0-0.4,0-0.5-0.1c-0.6-0.4-1.2-0.8-1.7-1.2c-0.3-0.2-0.6-0.6-0.9-0.5c-0.9,0.1-1.2-0.4-1.4-1
		c-0.3-0.9-0.8-1.2-1.8-1.2c-2.9,0.2-5.8,0-8.7,0.3c-2.3,0.2-4.7,0.2-7,0.2c-1.2,0-1.5,0.4-0.7,1.4c0.6,0.8,1.5,1.3,2.2,2
		c0.3,0.3,1.1,0.3,0.6,0.9c0,0.1-0.7-0.2-1-0.3c-0.5-0.2-1.3-0.8-1.6-0.6c-0.6,0.4-0.2,1.2,0,1.8c0.2,0.7,0.4,1.5,0.6,2.2
		c0.1,0.3,0,0.7,0,1c-0.3-0.2-0.8-0.2-1-0.5c-0.4-0.4-0.7-1-1-1.5c-0.1-0.2-0.5-0.4-0.5-0.3c-0.2,0.1-0.4,0.4-0.5,0.6
		c-0.2,0.7-0.2,1.5-0.3,2.3c0,0.2-0.2,0.5-0.3,0.7c-0.2-0.2-0.4-0.3-0.5-0.5c-1.7-2.8-3.3-5.7-2.3-9.2c0.2-0.6-0.1-0.8-0.6-0.7
		c-2.7,0.2-5.3-0.4-8-0.8c-1-0.1-2-0.5-2.9-0.8c-2.7-1-5.6-1.1-8.4-1.6c-1.8-0.3-3.6-0.3-5.3-0.4c-1.1-0.1-1.2-0.4-0.8-1.3
		c0.2-0.4,0.4-0.8,0.6-1.1c0.1-0.1,0.4-0.2,0.6-0.2c0.2,0,0.3,0.2,0.5,0.2c0.5,0,0.9,0,1.4,0C3,15.7,2.8,15.3,2.5,15
		c-0.2-0.2-0.5-0.3-0.7-0.5c-0.9-0.8-0.9-1,0.2-1.5c0.9-0.5,1.9-0.7,3-0.7c1.5,0,3.1-0.4,4.4-1.3c2.2-1.5,4.7-1.6,7.2-1.8
		c1.4-0.1,2.9,0,4.3-0.1c2.3-0.2,4.5-0.4,6.7-0.7c0.3,0,0.7-0.1,0.9-0.3c0.4-0.5,0.7-1,0.9-1.6c0.1-0.3,0-0.6,0.1-0.9
		C29.4,5.4,29.6,5,29.7,5c1.2,0.2,1.2-0.7,1.4-1.5c0.2-0.8,0.4-0.9,1.1-0.2c0.6,0.6,0.7,0.5,1.1-0.3c0.4-0.9,0.7-1.8,1.1-2.6
		c0.1-0.2,0.3-0.3,0.5-0.5c0.1,0.3,0.2,0.5,0.2,0.8c-0.1,0.3-0.3,0.7-0.4,1c-0.1,0.5-0.2,1-0.3,1.6c0,0.2,0.2,0.5,0.4,0.7
		c0.2-0.1,0.5-0.2,0.7-0.4c0.5-0.7,1-1.5,1.5-2.2c0.2-0.2,0.3-0.6,0.5-0.7c0.2-0.2,0.5-0.2,0.8-0.3c0,0.3,0.1,0.6,0,0.8
		c-0.1,0.3-0.3,0.5-0.5,0.7c-0.1,0.2-0.4,0.4-0.4,0.6c-0.1,0.3,0,0.7,0.1,1c0.3,0,0.7,0,1-0.1C39,3,39.6,2.5,40.2,2
		c0.1-0.1,0.3-0.2,0.5-0.2c0,0.2,0.1,0.3,0.1,0.5c0,0.3-0.2,0.7-0.2,1c0,0.3,0,0.7,0.1,1c0.4-0.1,0.9-0.1,1.3-0.2
		c0.3-0.1,0.7-0.5,0.8-0.5c0.4,0.3,0.8,0.7,1.1,1.1c0.1,0.1-0.1,0.4-0.2,0.7c-0.5,1.2-0.5,1.2,0.9,1.5c0.1,0,0.1,0,0.2,0
		c0.9,0.2,0.9,0.2,0.5,1.1c-0.2,0.6-0.1,0.9,0.6,1c0.8,0.1,1.4,0.1,2.1,0.7c0.8,0.6,1.5,0,2-1c0.4-0.9,1.1-1.8,1.5-2.8
		c0.3-0.7,0.6-1.4,1.1-1.9c0.4-0.4,0.5-1,1.3-1.1c0.3,0,0.5-0.4,0.8-0.7C54.9,2,55,1.6,55.2,1.5c0.5-0.2,1.3-0.5,1.6-0.3
		c0.5,0.3-0.1,0.8-0.3,1.2c-0.1,0.2-0.2,0.4-0.2,0.5c0.1,0.2,0.3,0.3,0.4,0.4c0,0,0.1,0,0.2-0.1c0.6-0.2,1.2-0.5,1.8-0.7
		c0.1,1,1.5,0.8,1.7,1.8c0.1,0.3,0.5,0.5,0.8,0.8c0.1,0.1,0.3,0.3,0.3,0.3c-0.8,0.8,0.2,0.7,0.5,0.9c0.4,0.3,0.8,0.7,1,1.2
		c0.3,0.5,0,1.2,0.9,1.3c0,0,0.1,0.4,0.1,0.6c-0.1,0.5-0.3,1-0.3,1.5c-0.1,0.9,0.3,1.3,1.2,1.3C66,12.3,67.1,12.3,68.5,12.3z"/>
	<path d="M18.6,15.1c1.5,0.1,2.9,0.3,4.4,0.4c0.1,0,0.2,0.3,0.4,0.4c-0.2,0.1-0.3,0.2-0.5,0.2c-1.4-0.1-2.7-0.3-4.1-0.5
		c-0.4,0-0.9-0.2-0.8,0.5c-0.5,0-1,0-1.5-0.1c-0.1,0-0.2-0.4-0.3-0.6c0,0,0.3-0.2,0.4-0.2C17.3,15.2,17.9,15.2,18.6,15.1
		C18.6,15.2,18.6,15.1,18.6,15.1z"/>
	<path d="M30.8,17.7c0.7,0.6,0.4,1.3,0.2,1.9c0,0.1-0.2,0.1-0.3,0.1c-0.1,0-0.2-0.2-0.2-0.2C30.6,18.9,30.7,18.3,30.8,17.7
		L30.8,17.7z"/>
	<path d="M27.8,10.4c-0.3,0.1-0.6,0.1-1,0.1c-0.1,0-0.2-0.2-0.3-0.4c0.3-0.1,0.6-0.2,0.9-0.3c0.2,0,0.3,0.1,0.5,0.1
		C27.9,10.1,27.8,10.2,27.8,10.4z"/>
	<path d="M20,11.3c-0.2,0-0.4,0-0.5,0c-0.1,0-0.3-0.2-0.4-0.2c0.2-0.1,0.3-0.4,0.5-0.4c0.2,0,0.4,0.1,0.6,0.2
		c0.2,0.1,0.4,0.2,0.6,0.3c-0.2,0.1-0.4,0.1-0.7,0.1C20.1,11.3,20.1,11.3,20,11.3C20,11.3,20,11.3,20,11.3z"/>
	<path d="M38.4,11.5c-0.3,0.3-0.4,0.5-0.5,0.4c-0.3-0.1-0.6-0.2-0.9-0.3c0.1-0.1,0.2-0.3,0.3-0.3C37.6,11.3,37.9,11.4,38.4,11.5z"/>
	<path d="M57.6,14.6c0.3,0.1,0.6,0.2,0.9,0.4c0.1,0.1,0.1,0.3,0.1,0.4c0,0-0.2,0.1-0.3,0.1c-0.3-0.1-0.6-0.2-1-0.4
		c-0.1,0-0.1-0.2-0.1-0.3C57.3,14.8,57.4,14.7,57.6,14.6z"/>
	<path d="M28.5,10.3c0.3-0.2,0.4-0.4,0.5-0.4c0.3,0,0.5,0.2,0.8,0.3c-0.1,0.1-0.1,0.4-0.2,0.4C29.3,10.5,29,10.4,28.5,10.3z"/>
	<path d="M25.7,10.8c-0.4,0-0.8,0-1.1,0c0-0.1,0-0.3,0-0.3c0.3-0.1,0.6-0.1,1-0.2C25.5,10.3,25.6,10.5,25.7,10.8z"/>
	<path d="M49.1,13.1c-0.3,0.2-0.4,0.3-0.6,0.3c-0.3-0.1-0.5-0.2-0.8-0.3c0.1-0.1,0.3-0.4,0.4-0.4C48.5,12.7,48.7,12.9,49.1,13.1z"/>
	<path d="M51.8,13.3c0.2,0.2,0.5,0.3,0.7,0.5c-0.2,0.1-0.3,0.3-0.5,0.3c-0.2-0.1-0.4-0.3-0.6-0.4C51.5,13.6,51.6,13.5,51.8,13.3z"/>
	<path d="M54.7,14.2c-0.5,0.1-0.7,0.3-0.9,0.2c-0.2-0.1-0.4-0.3-0.6-0.5c0.2,0,0.4-0.1,0.7-0.1C54.1,13.8,54.3,14,54.7,14.2z"/>
	<path d="M55.6,14.8c0,0-0.2,0-0.3-0.1c-0.1-0.1-0.2-0.3-0.2-0.4c0,0,0.2-0.2,0.3-0.2c0.3,0.1,0.6,0.1,0.8,0.2
		c0.1,0,0.2,0.2,0.3,0.3c-0.1,0-0.2,0.1-0.3,0.1C56,14.8,55.9,14.8,55.6,14.8z"/>
	<path d="M77.3,14.9c-0.1,0.3-0.2,0.7-0.3,1c0,0.1-0.2,0.1-0.3,0.2c0-0.1-0.1-0.2-0.1-0.3c0.1-0.3,0.2-0.7,0.3-1
		c0-0.2,0.1-0.3,0.2-0.5C77.1,14.5,77.2,14.7,77.3,14.9z"/>
	<path d="M63.1,15.4c0.2,0.1,0.5,0.3,0.7,0.4c-0.1,0.1-0.2,0.4-0.3,0.3c-0.3-0.1-0.6-0.3-0.8-0.4C62.8,15.7,62.9,15.6,63.1,15.4z"/>
	<path d="M32.2,10.7c-0.3,0.1-0.5,0.2-0.6,0.2c-0.2-0.1-0.5-0.3-0.7-0.4c0.1-0.1,0.3-0.3,0.4-0.2C31.5,10.3,31.8,10.5,32.2,10.7z"/>
	<path d="M22.1,14.3c0-0.4-0.1-0.5-0.1-0.6c0.1-0.2,0.4-0.4,0.5-0.5c0.1,0.1,0.2,0.3,0.2,0.4C22.6,13.8,22.4,13.9,22.1,14.3z"/>
</g>
</svg>
