<?xml version="1.0" encoding="iso-8859-1"?>
<!-- Generator: Adobe Illustrator 25.3.0, SVG Export Plug-In . SVG Version: 6.00 Build 0)  -->
<svg version="1.1" id="Calque_1" xmlns="http://www.w3.org/2000/svg" xmlns:xlink="http://www.w3.org/1999/xlink" x="0px" y="0px"
	 viewBox="0 0 83.5 17.7" style="enable-background:new 0 0 83.5 17.7;" xml:space="preserve">
<g>
	<path d="M42.3,3.7c0.5,0,1.1,0,1.6,0c1.7,0.1,2.9-0.7,4-2c0.5-0.6,1.2-1.1,1.9-1.6c0.8-0.5,1.6-0.1,1.9,0.9
		c0.3,1.1,0.3,2.2-0.5,3.1c-0.4,0.5-0.3,0.6,0.3,0.7c1.7,0.3,3.4,0.7,5,1c2.9,0.5,5.8,1,8.7,1.6c1.1,0.2,2.1,0.4,3.2,0
		c0.9-0.3,1.8-0.2,2.3,0.4c1.1,1.3,2.5,0.9,3.8,0.8c1.8-0.2,3.5-0.6,5.2-0.9c1-0.2,1.9,0.1,2.8,0.5c0.4,0.2,0.8,0.7,0.8,1.1
		c0,0.3-0.5,0.7-0.8,1c-0.2,0.2-0.4,0.2-0.6,0.3c-0.2,0.1-0.3,0.1-0.5,0.2c0.2,0.2,0.3,0.3,0.5,0.5c0.3,0.2,0.7,0.3,1,0.5
		c0.7,0.5,0.7,1.1,0.1,1.6c-0.7,0.7-1.6,0.8-2.5,0.6c-2.3-0.4-4.5-0.9-6.8-1.4c-0.6-0.1-1-0.2-1.1,0.6c-0.1,0.5-0.6,0.6-1.1,0.7
		c-1.2,0.2-2.3,0.4-3.5,0.6c-1.1,0.2-1.8,0.9-2.2,1.9c-0.1,0.2-0.1,0.5-0.3,0.7c-0.5,0.7-1,0.9-1.8,0.4c-0.7-0.4-1.4-0.9-2.1-1.4
		c-1.6-1.3-3.4-1.7-5.5-1.3c-1.3,0.3-2.7,0.1-4.1,0.2c-1,0-1,0.1-0.6,0.9c0.4,0.7,0.2,1.1-0.3,1.6c-0.5,0.5-0.9,0.5-1.4,0.1
		c-0.3-0.2-0.8-0.4-1-0.7c-1.3-1.3-2.8-1.5-4.6-1.5c-5.3,0.1-10.6,0.1-15.8,0c-5.1-0.1-10.3-0.1-15.4-0.4c-2.2-0.1-4.4-0.1-6.6-0.3
		c-1.8-0.2-3.7-0.2-5.4-1c-1.1-0.5-1.2-0.6-0.7-1.8c0.6-1.4,0.6-1.6,2.4-1.8C6.2,9.5,9.6,8.1,13,7.4c2.9-0.6,5.8-1.4,8.7-2
		c1.7-0.3,3.4-0.5,5.1-0.7c2.3-0.2,4.6-0.5,6.9-0.7c0.1,0,0.1,0,0.2,0C36.7,3.9,39.5,3.8,42.3,3.7C42.3,3.7,42.3,3.7,42.3,3.7z"/>
	<path d="M23.8,13.1c-0.2,0-0.5-0.1-0.7,0c-1.7,0.4-2.3-0.8-3.1-1.8c-0.1-0.1,0.1-0.6,0.3-0.7c0.9-0.3,1.8-0.6,2.7-0.8
		c1-0.2,2-0.4,3-0.5c0.6-0.1,1.2,0,1.7,0.1c0.9,0.2,1.1,0.8,0.5,1.6c-0.5,0.6-0.9,1.2-1.5,1.8c-0.2,0.2-0.6,0.3-0.9,0.4
		C25.1,13.1,24.4,13.1,23.8,13.1C23.8,13.1,23.8,13.1,23.8,13.1z"/>
	<path d="M25.1,7.7c0.3-0.1,0.6-0.3,0.9-0.4c4.2-0.1,8.5-0.5,12.7-0.3c2.8,0.1,5.6,0.2,8.4,0.3c0.2,0,0.3,0.1,0.4,0.2
		c-0.2,0.1-0.3,0.2-0.5,0.2c-2.3-0.1-4.6,0-7-0.2c-2.6-0.2-5.2-0.4-7.8,0.2c-0.7,0.2-1.4,0.1-2.1,0.1C28.5,7.7,26.8,7.7,25.1,7.7
		L25.1,7.7z"/>
	<path d="M52.5,8c2.4-0.1,4.8,0.2,7.2,0.6c0.5,0.1,1.1,0,1.6,0.1c0.3,0,0.6,0.2,0.9,0.4c0,0,0,0,0,0c-2.3,0.1-4.5-0.3-6.7-0.6
		c-0.6-0.1-1.3,0-1.9-0.1C53.2,8.3,52.9,8.2,52.5,8L52.5,8z"/>
	<path d="M69.4,10.2c2-0.2,3.8,0.4,5.6,1c0.1,0,0.2,0.2,0.3,0.3c-0.1,0-0.2,0.1-0.3,0.1c-1.8-0.4-3.7-0.8-5.5-1.3
		C69.5,10.3,69.4,10.2,69.4,10.2L69.4,10.2z"/>
	<path d="M21.5,8c-0.1,0.1-0.1,0.2-0.2,0.3c-1.5,0.2-2.9,0.3-4.4,0.5l-0.1-0.1C18.3,8,19.9,8,21.5,8C21.5,8,21.5,8,21.5,8z"/>
	<path d="M64.7,9.5c1.5,0.1,3,0.3,4.5,0.5c0.1,0,0.1,0.2,0.2,0.2l0,0c-1.5-0.2-3-0.3-4.5-0.5C64.9,9.7,64.8,9.5,64.7,9.5L64.7,9.5z"
		/>
	<path d="M52.5,8c-1.2,0-2.5,0-3.7,0c-0.1,0-0.2-0.1-0.3-0.1c0-0.1,0.1-0.2,0.1-0.2C49.9,7.8,51.2,7.2,52.5,8L52.5,8z"/>
	<path d="M25.1,7.7C24.8,7.8,24.5,8,24.2,8c-0.9,0-1.8,0-2.7,0c0,0,0,0,0,0c0.3-0.1,0.6-0.3,0.9-0.4C23.4,7.6,24.2,7.7,25.1,7.7
		L25.1,7.7z"/>
	<path d="M64.7,9.5c-0.8-0.1-1.8,0.4-2.5-0.4l0,0c0.6,0,1.2-0.1,1.8,0C64.3,9.1,64.5,9.3,64.7,9.5C64.7,9.5,64.7,9.5,64.7,9.5z"/>
	<path d="M13.6,9.8c0,0.3,0,0.4,0,0.5c0,0.1-0.1,0.2-0.1,0.3c-0.1-0.1-0.2-0.1-0.2-0.2c0-0.2-0.1-0.3-0.1-0.5c0-0.2,0-0.5,0-0.7
		c0.1,0,0.2,0,0.2,0C13.5,9.4,13.6,9.7,13.6,9.8z"/>
</g>
</svg>
