<?xml version="1.0" encoding="iso-8859-1"?>
<!-- Generator: Adobe Illustrator 25.3.0, SVG Export Plug-In . SVG Version: 6.00 Build 0)  -->
<svg version="1.1" id="Calque_1" xmlns="http://www.w3.org/2000/svg" xmlns:xlink="http://www.w3.org/1999/xlink" x="0px" y="0px"
	 viewBox="0 0 85.8 16.5" style="enable-background:new 0 0 85.8 16.5;" xml:space="preserve">
<g>
	<path d="M21.1,4c1.8,0,3,0,4.2,0c3.8,0.1,7.6,0.2,11.5,0.4c1.1,0,2.1,0.2,3.2,0.3c1.4,0.1,2.6-0.4,3.4-1.7c0.8-1.2,1.9-2,3.1-2.6
		c1.4-0.7,2-0.5,2.4,1c0.3,1,0.3,2,0.4,3c0,0.5,0.2,0.7,0.7,0.8c2.5,0.4,5,0.4,7.5,0.3c1.9,0,3.4-0.8,4.5-2.2c1-1.3,2.3-2.1,3.8-2.5
		c0.9-0.3,1-0.3,1.2,0.7c0.2,1,0.3,2,0.3,3c0.1,1.1,0,1.1,1.1,1.1c2.8,0,5.5,0.1,8.3,0c2.6-0.1,5.2-0.5,7.8-0.8c0.3,0,0.6-0.1,0.8,0
		C85.9,5,86,5.8,85.4,7.5c-0.3,0.8-0.5,1-1.5,0.9c-0.4-0.1-0.6-0.1-1,0.1c-1.2,0.9-2.8,1-4.2,1.4c-2.3,0.5-4.6,0.5-6.9,0
		c-0.6-0.1-1.3-0.3-1.8-0.7c-1.3-1-2.7-0.7-4.1-0.7c-0.1,0-0.2,0.1-0.3,0.1c-1.2,0.2-2.4,0.1-3.5,0.5c-1,0.4-1.8,1.2-2.7,1.8
		c-1.6,1-3.2,1.1-4.6-0.3c-1.2-1.2-2.7-0.9-4.1-0.8c-1.4,0-2.8,0.3-4.3,0.3c-1.9,0.1-3.7,0-5.6,0c-0.6,0-0.9,0.1-1.3,0.6
		c-0.9,1-2,1.7-3,2.5c-0.8,0.6-1.7,0.5-2.5,0c-0.7-0.5-1.4-1.1-2.1-1.6c-0.6-0.5-1.1-0.8-1.9-0.5c-0.5,0.2-1.1,0.1-1.6,0.1
		c-1.9,0-3.7,0-5.6,0c-0.7,0-1-0.1-0.6,0.9c0.5,1.2,0.2,2.6-0.7,3.7c-0.6,0.8-1.6,1-2.6,0.6c-1.5-0.6-2.5-1.6-3.2-3
		c-0.4-0.9-0.7-1.9-1.3-2.4c-0.6-0.5-1.7-0.4-2.5-0.6c-0.4-0.1-0.8-0.1-1.2-0.2C7.9,10,5,9.8,2.2,8.6C1.6,8.3,0.9,8.5,0.4,7.8
		c-0.7-0.9-0.5-1.7,0.6-2c1.2-0.3,2.4-0.6,3.7-0.7c2.6-0.3,5.2-0.6,7.8-0.8C15.5,4,18.6,4.1,21.1,4z"/>
	<path d="M36.7,9.8c-0.6,0-1,0.4-1.7,0.2c-0.9-0.3-0.9-0.2-0.4-1.3l0,0c1.1,0.7,1.1,0.7,2.2-0.2c0.5-0.4,1-0.8,1.6-1.1
		c0.2-0.1,0.6,0.2,0.8,0.3c-0.1,0.2-0.3,0.6-0.4,0.6c-0.8,0-1.2,0.7-1.7,1.1C37,9.5,36.9,9.7,36.7,9.8z"/>
	<path d="M31.4,7.3c0,0.9-0.2,1.2-0.6,0.9c-0.7-0.4-1.5-0.5-2.3-0.6c-0.2,0-0.5-0.2-0.7-0.4c0.2-0.2,0.5-0.5,0.7-0.7c0,0,0,0,0,0
		c0,0.1,0,0.1,0.1,0.1C29.5,6.9,30.4,7,31.4,7.3L31.4,7.3z"/>
	<path d="M14.1,9c-0.4-1-0.5-1.9,0.4-2.7c0.1-0.1,0.4,0,0.6,0.1C14.7,7.3,15.3,8.5,14.1,9L14.1,9z"/>
	<path d="M39.7,5.8C40,5.9,40.6,6,40.6,6.2c0,0.6-0.4,0.8-1,0.6c-0.2-0.1-0.6,0.1-0.8,0.1c-0.2-0.1-0.4-0.3-0.6-0.5
		c0.2-0.2,0.3-0.5,0.6-0.5C39,5.8,39.3,5.9,39.6,6C39.7,5.9,39.7,5.8,39.7,5.8z"/>
	<path d="M56.9,8.2c-0.2,0-0.4,0.2-0.6,0.1c-0.4-0.2-0.9-0.5-1.3-0.8c-0.1-0.1-0.2-0.3-0.1-0.4c0.1-0.2,0.3-0.4,0.5-0.5
		C55.7,6.5,56.9,7.7,56.9,8.2z"/>
	<path d="M26.3,8c-0.2,0-0.4,0-0.5-0.1c-0.2-0.2-0.3-0.4-0.5-0.6c0.2-0.1,0.4-0.3,0.7-0.4c0.1,0,0.3,0.1,0.5,0.1
		c0.4,0,1-0.1,0.9,0.5C27.4,8.2,26.7,7.9,26.3,8z"/>
	<path d="M47.8,7.4C48,7.9,48,8.4,47.3,8.3c-0.2,0-0.6-0.2-0.6-0.4c-0.1-0.4,0.4-1.4,0.8-1.4C48.1,6.6,47.9,7,47.8,7.4z"/>
	<path d="M22.9,8c-0.1,0-0.3-0.1-0.4-0.2c-0.1-0.2,0-0.4,0.1-0.6c0-0.1,0.1-0.2,0.2-0.3c0.3-0.2,0.2-0.9,0.9-0.6
		c0.1,0.1,0.2,0.4,0.2,0.5C23.7,7.9,23.6,8,22.9,8z"/>
	<path d="M11.8,6.5c-0.4,0.3-0.6,0.7-0.9,0.7c-0.2,0-0.5-0.4-0.6-0.6c0-0.1,0.3-0.6,0.5-0.6C11.1,5.9,11.3,6.2,11.8,6.5z"/>
	<path d="M32.8,9.9c-0.3-0.3-0.5-0.6-0.6-0.8c0.2-0.1,0.3-0.3,0.5-0.4c0.3-0.1,0.8,0,0.8,0.5C33.4,9.3,33.1,9.5,32.8,9.9z"/>
	<path d="M28.5,6.5c-0.1-0.3-0.1-0.6-0.2-0.9c0.4,0,0.7,0,1.1,0c-0.1,0.3-0.3,0.6-0.5,0.8C28.9,6.6,28.7,6.5,28.5,6.5L28.5,6.5z"/>
	<path d="M37,5.4c0.5,0.5,0.8,0.7,0.8,0.9c0,0.2-0.4,0.6-0.5,0.6c-0.3-0.1-0.6-0.3-0.7-0.5C36.6,6.1,36.9,5.8,37,5.4z"/>
	<path d="M41.7,7.9c-0.4,0.2-0.7,0.5-0.9,0.4c-0.2,0-0.5-0.2-0.7-0.4c0.2-0.2,0.3-0.6,0.5-0.6C40.9,7.4,41.2,7.6,41.7,7.9z"/>
	<path d="M43.2,8.5c-0.3-0.3-0.6-0.5-0.6-0.7c0-0.2,0.4-0.6,0.5-0.5c0.3,0.1,0.5,0.4,0.7,0.5C43.6,8,43.4,8.2,43.2,8.5z"/>
	<path d="M24.2,9.4c0-0.2-0.1-0.5,0-0.7c0.2-0.2,0.5-0.3,0.8-0.4c0.1,0,0.3,0.3,0.5,0.5c-0.2,0.2-0.4,0.4-0.6,0.5
		C24.7,9.4,24.4,9.4,24.2,9.4C24.2,9.4,24.2,9.4,24.2,9.4z"/>
	<path d="M26.8,10.1c-0.3-0.3-0.5-0.5-0.7-0.6c0.3-0.2,0.5-0.5,0.8-0.6c0.1,0,0.5,0.4,0.5,0.6C27.4,9.6,27,9.8,26.8,10.1z"/>
	<path d="M29.8,9.3c-0.4,0.2-0.7,0.5-0.9,0.4c-0.2,0-0.5-0.2-0.7-0.4c0.2-0.2,0.3-0.6,0.5-0.6C29,8.8,29.3,9,29.8,9.3z"/>
	<path d="M19.7,7.6c0.2,0.4,0.5,0.7,0.4,0.9C20,8.7,19.6,8.9,19.3,9c-0.1,0-0.5-0.4-0.4-0.6C18.9,8.2,19.2,8.1,19.7,7.6z"/>
	<path d="M32,9.5c-0.3,0.3-0.6,0.7-0.7,0.6C31,10,30.7,9.8,30.4,9.6c0.2-0.2,0.4-0.5,0.7-0.5C31.3,9,31.6,9.3,32,9.5z"/>
	<path d="M24.7,4.8c0.1,0.3,0.4,0.6,0.4,0.8c0,0.2-0.4,0.4-0.6,0.5c-0.2-0.2-0.4-0.5-0.6-0.7C24.1,5.3,24.2,5.2,24.7,4.8z"/>
	<path d="M35.3,7.9c0.4-0.3,0.5-0.6,0.8-0.6c0.2,0,0.4,0.2,0.7,0.3c-0.2,0.2-0.3,0.5-0.5,0.6C36,8.3,35.7,8.1,35.3,7.9z"/>
	<path d="M54.6,7.4c-0.3,0.2-0.5,0.5-0.7,0.5c-0.2,0-0.4-0.3-0.6-0.5c0.2-0.2,0.4-0.5,0.6-0.5C54.1,6.9,54.3,7.2,54.6,7.4z"/>
	<path d="M62,6.9c0,0.4,0.2,1-0.5,1c-0.2,0-0.5-0.3-0.5-0.5C61,6.8,61.5,6.9,62,6.9L62,6.9z"/>
	<path d="M45.8,7.7c-0.3,0.3-0.5,0.6-0.6,0.5c-0.3-0.1-0.5-0.3-0.8-0.5c0.1-0.2,0.3-0.5,0.4-0.5C45.1,7.3,45.4,7.5,45.8,7.7z"/>
	<path d="M41.8,5.5c0.1,0.1,0.1,0.2,0.2,0.3c0.3,0.4,0.2,0.7-0.2,0.9c-0.1,0.1-0.5,0-0.6-0.2c-0.3-0.4-0.1-0.6,0.3-0.9
		C41.6,5.6,41.7,5.5,41.8,5.5L41.8,5.5z"/>
	<path d="M34.6,5.5c0.4,0,0.8,0.1,0.7,0.6c0,0.2-0.4,0.3-0.6,0.5c-0.1-0.2-0.3-0.4-0.3-0.6C34.4,5.8,34.6,5.6,34.6,5.5L34.6,5.5z"/>
	<path d="M34,7.6c1.1,0.1,1.1,0.1,0.7,1.1l0,0C34.1,8.5,33.9,8.2,34,7.6L34,7.6z"/>
	<path d="M33.9,7.7c-0.1,0-0.2,0.1-0.3,0.1c-0.2-0.1-0.5-0.2-0.7-0.4c0,0,0.1-0.4,0.2-0.4c0.3,0,0.6,0,0.8,0.1
		C33.9,7.1,33.9,7.4,33.9,7.7C34,7.6,33.9,7.7,33.9,7.7z"/>
	<path d="M21.5,6.8c0.2,0.4,0.4,0.6,0.4,0.8C22,7.7,21.6,8,21.5,8C21.3,8,21,7.7,21,7.6C21.1,7.4,21.3,7.2,21.5,6.8z"/>
	<path d="M34.1,5.9c-0.4,0.2-0.6,0.4-0.8,0.4c-0.1,0-0.3-0.3-0.4-0.5c0.2-0.1,0.4-0.4,0.6-0.4C33.6,5.5,33.8,5.7,34.1,5.9z"/>
	<path d="M11.8,8.1c-0.2,0.2-0.4,0.4-0.5,0.5c-0.1-0.1-0.4-0.3-0.4-0.4c0-0.2,0.2-0.3,0.3-0.5C11.4,7.8,11.5,7.9,11.8,8.1z"/>
	<path d="M10,8.1C9.8,8.3,9.6,8.5,9.5,8.6C9.4,8.5,9.1,8.3,9.1,8.2c0-0.2,0.2-0.3,0.3-0.5C9.6,7.8,9.7,7.9,10,8.1z"/>
	<path d="M48,3c0,0.1,0,0.1,0,0.2c0,0.4,0,0.9-0.6,0.8c-0.2,0-0.4-0.3-0.5-0.4C46.8,3,47.3,3,47.7,2.9C47.8,2.9,47.9,2.9,48,3
		C47.9,2.9,48,3,48,3z"/>
	<path d="M46.6,3c-0.3,0.1-0.5,0.3-0.7,0.3c-0.2,0-0.3-0.3-0.5-0.4c0.2-0.2,0.4-0.4,0.6-0.4C46.2,2.4,46.4,2.8,46.6,3z"/>
</g>
</svg>
