<?xml version="1.0" encoding="iso-8859-1"?>
<!-- Generator: Adobe Illustrator 25.3.0, SVG Export Plug-In . SVG Version: 6.00 Build 0)  -->
<svg version="1.1" id="Calque_1" xmlns="http://www.w3.org/2000/svg" xmlns:xlink="http://www.w3.org/1999/xlink" x="0px" y="0px"
	 viewBox="0 0 73.7 38.2" style="enable-background:new 0 0 73.7 38.2;" xml:space="preserve">
<g>
	<path d="M1.5,20.5c1.6,0.4,3.2,0.8,4.8,1.2c0.2,0,0.5,0,0.7-0.1c-0.1-0.2-0.2-0.6-0.4-0.7c-1.1-0.7-2.2-1.4-3.2-2.2
		c-0.8-0.6-0.8-1,0.1-1.6c0.6-0.4,1.4-0.7,2-1.1c2-1.2,4-2.4,5.9-3.7c1.6-1.2,3.1-2.5,4.7-3.8c1.8-1.4,3.6-2.7,5.7-3.6
		c0.5-0.2,0.9-0.6,1.2-1c0.4-0.6,1.4-0.6,1.5-1.5c0,0,0.4-0.1,0.4,0c0.3,0.3,0.6,0.4,0.8-0.1C25.8,2,26,1.8,26.2,1.6
		c0.5-0.5,0.6-0.4,0.8,0.3c0.1,0.4,0.2,0.5,0.5,0.2c0.2-0.2,0.3-0.4,0.4-0.6c0.3-0.6,0.6-1.1,1.3-0.4c0.1,0.1,0.6-0.4,0.9-0.6
		c0.5-0.4,0.9-1,1.2,0.1c0.2,0.5,0.4,0,0.6-0.2c0.5-0.5,0.9-0.6,1,0.3c0,0.6,0.4,0.7,0.9,0.4c0.1-0.1,0.2-0.3,0.4-0.4
		c0.2-0.1,0.4-0.1,0.6-0.2c0,0.2,0,0.3,0,0.5c0,0.5,0,1.2,0.8,0.5c0.3-0.3,0.8-0.2,0.6,0.3c-0.1,0.5-0.1,0.8,0.6,0.7
		c0.2,0,0.4,0.2,0.6,0.3c0.1,0.1,0.3,0.4,0.4,0.3c0.5-0.4,0.7-0.2,0.8,0.4c0,0.2,0.3,0.5,0.3,0.5c1.1-0.5,1.2,0.8,2,1
		C41.6,5.4,42.2,6,43,6.3c4.1,1.7,6.8,4.9,9.5,8.1c0.4,0.5,0.8,0.9,1.1,1.4c0.1,0.2,0.3,0.5,0.3,0.6c-0.9,0.9,0.2,1,0.6,1.2
		c0.8,0.3,1.7,0.5,2.5-0.1c1.2-0.8,2.4-1.5,3.6-2.2c1.9-1,3.8-2,5.7-2.9c1.6-0.7,3.2-1.3,4.8-1.8c0.4-0.1,0.8-0.3,1.2-0.3
		c0.5,0,0.9,0.2,1.4,0.2c-0.2,0.4-0.4,0.8-0.7,1.2c-0.9,1.3-1.8,2.5-2.7,3.8c-1.4,2-2.7,4-4.8,5.5c-0.6,0.4-0.5,0.9,0.1,1.5
		c2.7,2.9,4.7,6.2,7,9.4c0.2,0.2,0.2,0.5,0.3,0.8c-0.3,0.1-0.7,0.3-1,0.3c-2-0.4-4-0.9-5.7-1.9c-2.9-1.6-5.9-3.1-8.4-5.4
		c-1.2-1.1-2.6-1.6-4.3-1.3c-0.2,0-0.3,0.2-0.4,0.3c0.1,0.1,0.3,0.2,0.4,0.3c0.1,0.2,0.3,0.6,0.2,0.7c-0.6,0.7-1.1,1.6-1.9,2.1
		c-2.3,1.4-4.7,2.6-7.1,3.8c-0.7,0.3-1.5,0.5-2.2,0.7c-0.5,0.2-1,0.4-1.5,0.6c-0.7,0.3-1.5,0.7-2.2,1.1c0,0-0.1,0-0.2,0
		c-0.7,0-0.9-1.3-1.8-0.8c-1,0.5-1.2-0.5-1.6-0.9c-0.5-0.7-1-1-2-0.7c-1.1,0.3-2.4,0.3-3.5,0.4c-0.2,0-0.3,0.1-0.5,0.1
		c0.1,0.1,0.1,0.3,0.2,0.4c0.7,0.6,1.1,1.4,1.1,2.3c0,0.6,0.4,1.2,0.6,1.8c0.1,0.3,0.3,0.6,0.4,1c0,0.2,0,0.6-0.2,0.6
		c-0.2,0.1-0.6,0.2-0.8,0.1c-1.3-0.9-2.5-1.8-3.7-2.8c-0.8-0.6-1.4-1.4-2.1-2.2c-0.5-0.6-1.1-0.9-2-1.1c-1.6-0.4-3.2-1-4.7-1.6
		c-2.5-0.9-4.9-1.8-7.4-2.7C9.9,27.5,9,27,8.1,26.6c-2.2-1.1-4.4-2.2-6.6-3.3c-0.3-0.2-0.7-0.3-0.9-0.5c-0.5-0.5-0.8-1-0.5-1.7
		C0.4,20.2,1,20.7,1.5,20.5z"/>
	<path d="M9.4,14.6c0.5,0,1.1,0,1.6,0.1c1,0.1,1.6,0.9,1.6,1.8c0,1-0.9,2-1.8,2.1c-0.1,0-0.1,0-0.2,0C9.8,18.5,8.8,19,8.4,18
		c-0.3-0.9-0.4-1.9,0.4-2.7c0.1-0.1,0.1-0.2,0.2-0.3C9.1,14.9,9.2,14.8,9.4,14.6z"/>
	<path d="M52.3,20.8c-1.6,0-3.4-0.4-5.2-1.2c-0.1-0.1-0.2-0.3-0.3-0.4c0.1-0.1,0.3-0.2,0.4-0.2c1.7,0.4,3.3,0.8,5,1.2
		c0.7,0.1,1.4,0.1,2.1,0.2c0.1,0,0.2,0.3,0.2,0.4c0,0-0.2,0.2-0.3,0.2C53.7,21,53.2,20.9,52.3,20.8z"/>
	<path d="M34.6,12.9c-0.2,0.1-0.3,0.3-0.4,0.3c-1.7-0.3-3.5-0.6-5.2-0.5c-0.1,0-0.2-0.2-0.3-0.3c0.1-0.1,0.3-0.2,0.4-0.2
		c1.3,0.1,2.7-0.3,4,0.3c0.3,0.1,0.7,0,1.1,0.1C34.2,12.6,34.4,12.7,34.6,12.9z"/>
	<path d="M42.4,16.4c-0.2,0.1-0.5,0.2-0.6,0.2c-0.4-0.2-0.8-0.4-1.2-0.7c-0.6-0.4-1.1-0.8-1.7-1.2c0.8-0.5,1.2,0.4,1.8,0.7
		C41.3,15.6,41.9,16.1,42.4,16.4C42.5,16.4,42.4,16.4,42.4,16.4z"/>
	<path d="M42.5,16.4c0.9,0.6,1.8,1.1,2.7,1.7c0.1,0.1,0.2,0.2,0.3,0.3c-0.2,0-0.4,0.2-0.5,0.1C43.9,18.1,42.7,17.9,42.5,16.4
		L42.5,16.4z"/>
	<path d="M25.7,12.7c-0.1,0.1-0.2,0.2-0.3,0.2c-0.6,0.3-1.3,0.6-1.9,0.9c-0.1,0-0.3-0.1-0.4-0.1c0,0,0-0.3,0.1-0.3
		c0.8-0.3,1.5-0.6,2.3-0.9C25.5,12.5,25.6,12.6,25.7,12.7z"/>
	<path d="M59.1,21.1c-0.5,0-0.7,0-1-0.1c-0.1,0-0.2-0.1-0.4-0.2c0.1-0.1,0.2-0.1,0.3-0.2c0.2-0.1,0.5-0.2,0.7-0.2
		c0.4,0.1,1-0.4,1.1,0.3C59.9,20.9,59.2,21.1,59.1,21.1z"/>
	<path d="M56.1,21.1c-0.2,0-0.4,0-0.7-0.1c-0.1,0-0.1-0.3-0.2-0.4c0,0,0.2-0.1,0.3-0.1c0.4,0.1,0.8,0.2,1.2,0.3
		c0.1,0,0.3,0.1,0.4,0.2c-0.2,0.1-0.3,0.1-0.5,0.1C56.5,21.1,56.3,21.1,56.1,21.1z"/>
	<path d="M37.4,13.7c-0.3,0.1-0.5,0.2-0.6,0.2c-0.4,0-0.7,0.1-0.8-0.5c0-0.1,0.2-0.2,0.3-0.2C36.6,13.4,36.9,13.5,37.4,13.7z"/>
	<path d="M57.6,18.2c0.1,0,0.1,0,0.2,0c0.3,0.1,0.6,0.3,0.8,0.4c-0.1,0.1-0.2,0.3-0.3,0.3C57.7,19,57.5,18.7,57.6,18.2L57.6,18.2z"
		/>
</g>
</svg>
