<?xml version="1.0" encoding="iso-8859-1"?>
<!-- Generator: Adobe Illustrator 25.3.0, SVG Export Plug-In . SVG Version: 6.00 Build 0)  -->
<svg version="1.1" id="Calque_1" xmlns="http://www.w3.org/2000/svg" xmlns:xlink="http://www.w3.org/1999/xlink" x="0px" y="0px"
	 viewBox="0 0 53.5 21.7" style="enable-background:new 0 0 53.5 21.7;" xml:space="preserve">
<g>
	<path d="M53.2,14.8c0.3,0.7,0.3,0.8-0.3,1c-1.5,0.3-2.9,0.1-4.3-0.3c-0.5-0.1-0.9-0.2-1.4-0.3c-1.2-0.3-2.4-0.7-3.6-0.9
		c-1.4-0.2-2.8-0.1-4.2-0.1c-0.3,0-0.4,0.3-0.1,0.6c0.3,0.3,0.5,0.6,0.5,1c0,0.6,0,1.2,0.3,1.7c0.2,0.3-0.1,0.5-0.3,0.4
		c-0.4,0-0.8-0.1-1.1-0.2c-1.5-0.7-2.9-1.4-4.4-2.1c-0.5-0.3-1.1-0.3-1.6-0.2c-1.7,0.3-3.4,0.6-5,0.9c-0.3,0-0.3,0.2-0.2,0.4
		c0,0,0,0.1,0.1,0.1c0.8,1.2,0.6,2.3-0.3,3.2c-0.4,0.4-0.7,0.8-0.9,1.3c-0.1,0.4-0.5,0.5-0.8,0.3c-1.1-0.8-1.8-1.8-1.9-3.2
		c0.6-0.3,0.8,0.2,1.1,0.6c0.3,0.5,0.6,1.1,1.4,0.6c0.8-0.5,1-1.6,0.5-2.2c-0.4-0.4-1-0.5-1.5-0.6c-0.7-0.1-0.8,0.4-0.9,1
		c0,0.3-0.3,0.4-0.6,0.6c0,0-0.1,0-0.1,0c-0.7-1.7-0.4-1.3-2.1-1.4c-2.4-0.1-4.8-0.1-7.2-0.2c-0.8,0-1.6-0.3-2.3-0.5
		c-2.6-0.7-5.2-1.4-7.8-2C3.3,14,2.7,14,2,13.9c-0.4-0.1-0.9,0.1-1-0.6c0-0.1-0.4-0.2-0.6-0.3c-0.5-0.3-0.6-0.8-0.1-1.1
		c0.4-0.3,0.8-0.7,1.3-0.9c2.7-1.4,5.5-2.4,8.5-3c1.2-0.3,2.4-0.4,3.6-0.6c1.1-0.2,2.2-0.4,3.3-0.5c0.9-0.1,1.2-0.8,1.8-1.3
		c0.1-0.1,0.2-0.1,0.4-0.1c0,0.1,0,0.2,0,0.3C19,5.9,18.9,6,18.8,6.1c-0.2,0.3-0.1,0.5,0.3,0.5c1.5,0,3,0.1,4.4,0
		c1.8-0.1,2.6-1.7,1.6-3.2c-0.5-0.8-1-1.6-1-2.6c0-0.6-0.5-0.3-0.8-0.2c-0.1,0-0.2,0-0.3-0.1c0-0.1,0.1-0.1,0.1-0.2
		c0.3-0.3,0.6-0.5,1.1-0.4c0.4,0.1,0.5,0.5,0.5,0.9C24.8,1.7,25,2.3,25.5,3c0.4,0.5,0.5,1.1,0.8,1.7c0.2,0.4,0.1,0.7-0.2,1
		c-0.3,0.3-0.7,0.6-1,0.8c-0.1,0.1-0.2,0.3-0.3,0.4C25,7,25.2,7.1,25.3,7.1c1.9,0.2,3.8,0.3,5.7,0.5c1.5,0.2,3.1,0.5,4.6,0.6
		c0.4,0,0.8-0.1,1.3-0.2c0.5-0.1,1-0.2,1.5-0.2c0.2,0,0.4,0.1,0.5,0.2c0.2,0.5,0.7,0.5,1.1,0.5c2.1,0.1,4.1-0.1,6.1-0.9
		c1-0.4,2.1-0.7,3.2-1.1c1.1-0.4,2.3-0.4,3.5-0.2c0.4,0.1,0.5,0.2,0.3,0.6c-0.1,0.2-0.3,0.5-0.5,0.7c-0.3,0.4-0.6,0.8-0.8,1.2
		c-0.4,0.7-1,1.1-1.7,1.4c-0.6-0.4-0.4-0.9,0-1.3c0.2-0.2,0.4-0.3,0.6-0.6C50.9,8.2,51.2,8,51,7.7c-0.2-0.4-0.5-0.3-0.8-0.2
		c-1,0.2-1.9,0.5-2.8,0.9c-0.4,0.2-0.5,0.4-0.2,0.7c1.1,1.4,1.2,2.8,0.2,4.2c-0.3,0.4-0.3,0.7,0.2,0.8
		C49.5,14.7,51.3,15.2,53.2,14.8z"/>
	<path d="M19.3,5c0-0.1-0.1-0.2-0.1-0.3c0.1-0.2,0.3-0.5,0.5-0.7c0.8-0.9,1.6-1.7,2.4-2.6c0.1-0.1,0.2-0.1,0.3-0.1
		c0,0.1,0.1,0.3,0,0.4c0,0.1-0.1,0.2-0.2,0.3C21.3,3,20.4,4,19.5,4.9C19.5,4.9,19.4,5,19.3,5z"/>
	<path d="M53.2,14.8c-0.5,0.1-0.7-0.3-0.9-0.6c-0.5-0.6-1.1-1.2-1.6-1.7c-0.1-0.1-0.1-0.2-0.1-0.3C51.6,12.6,52.9,13.9,53.2,14.8z"
		/>
	<path d="M50.1,11.7c-0.7-0.6-0.7-0.8,0-1.4C50.1,10.7,50.1,11.2,50.1,11.7z"/>
</g>
</svg>
