<?xml version="1.0" encoding="iso-8859-1"?>
<!-- Generator: Adobe Illustrator 25.3.0, SVG Export Plug-In . SVG Version: 6.00 Build 0)  -->
<svg version="1.1" id="Calque_1" xmlns="http://www.w3.org/2000/svg" xmlns:xlink="http://www.w3.org/1999/xlink" x="0px" y="0px"
	 viewBox="0 0 79.8 34.1" style="enable-background:new 0 0 79.8 34.1;" xml:space="preserve">
<g>
	<path d="M9.2,26.1c-0.4-0.2-0.7-0.5-1.1-0.7c-1.6-0.9-1.9-1.3-2.8-2.6c-0.4-0.6-0.7-1.4-1.3-1.6c-1.1-0.5-0.9-1.3-0.8-2.1
		c0.3-2,0.8-3.9,1-5.9c0.1-1.3,0-2.5-1.1-3.6C1,7.3-0.1,4.6,0,1.5c0-0.1,0.1-0.3,0.2-0.4c0.1,0.1,0.2,0.2,0.2,0.2
		c1,0.8,2.5,0.8,3.6,0C4.4,1,4.7,0.6,5,0.2c0.3-0.4,0.3-0.2,0.6,0c0.9,0.7,1.8,1.1,3,0.9c0.2,0,0.6,0,0.7-0.1
		c1.1-1.2,1.9-0.6,2.8,0.3c0.2,0.2,0.7,0.4,1,0.3c0.6-0.1,1.3-0.5,1.9-0.4c0.5,0.1,0.9,0.7,1.3,1.1c0.5,0.3,1,0.3,1.5-0.1
		c0.4-0.4,0.7-0.5,1.1,0.1c0.3,0.6,0.9,0.6,1.6,0.7c0.8,0.1,1.7,0.4,2.5,0.7c1.4,0.6,2.7,1.1,4.1,1.4c2.6,0.6,5.4,1,8,1.7
		c1.5,0.4,3,0.5,4.4,0.9c1.9,0.4,3.9,0.7,5.9,0.9C47.6,9,49.8,9.1,52,9.1c2.7,0,4.2,1.6,5.2,3.8c0.1,0.3,0.1,0.7,0.1,1
		c0.1,1.3,0.9,1.9,2.1,1.3c0.8-0.4,1.5-1,2.2-1.5c0.9-0.7,1.8-1.4,2.7-2c0.5-0.3,1-0.5,1.8-0.4c1,0.1,2-0.5,3.1-0.8
		c0.2-0.1,0.4-0.2,0.7-0.3c0.3-0.1,0.6-0.1,0.8-0.1c-0.2,0.2-0.3,0.4-0.5,0.6c-0.2,0.3-0.6,0.8-0.6,0.9c0.4,0.5,1,1.2,1.4,1.2
		c1.1-0.1,2,0.7,3,0.8c1.1,0.1,2.2,0,3.2,0c0.6,0,1,0.1,0.7,0.8c-0.3,0.5,0.2,0.6,0.5,0.7c0.3,0.1,0.7,0.2,1,0.3
		c0.1,0,0.2,0.2,0.3,0.3c0,0.1-0.1,0.2-0.2,0.3c-0.4,0.1-0.8,0.1-1.2,0.2c-1,0.3-2,0.6-2.1,2c0,0.2-0.4,0.5-0.6,0.5
		c-1.4,0.2-2.8,0.3-4.3,0.4c-0.7,0.1-1.5-0.2-2.1,0.7c-0.1,0.2-0.8,0.2-1.2,0.2c-0.1,0-0.2-0.1-0.3-0.1c-2.8,0.2-5.3-0.7-7.9-1.7
		c-1.8-0.7-3.8-0.3-5.5,0.7c-0.3,0.2-0.6,0.5,0,0.7c0.2,0.1,0.4,0.1,0.5,0.2c1.7,1,1.7,1,3.5,1.3c0.4,0.1,0.5,0.2,0.4,0.6
		c0,0.2,0.1,0.6,0.3,0.8c0.4,0.5,0,0.6-0.3,0.8c-0.3,0.1-0.6,0.1-0.9,0.1c-0.8,0-1.7,0-2.2,0.8c-0.1,0.2-0.4,0.2-0.6,0.2
		c-1.8-0.1-3.6,0.8-5.4,0.4c-0.8-0.2-1.8,0.1-2.6,0.3c-1.5,0.3-2.8-0.1-4.1-0.7c-0.7-0.4-1.4-0.4-2.2-0.2c-0.6,0.2-1.3,0.2-1.9,0.2
		c-0.9,0-1.6,0.3-2.3,0.8c-0.6,0.4-1.3,0.7-2,1c-1.7,0.6-3.4,1.1-5.1,1.7c-0.1,0-0.2,0.1-0.3,0.2c0.1,0,0.2,0.1,0.3,0.1
		c0.7,0.1,1.4,0.3,2.1,0.3c0.8,0,1.3,0.1,1.6,1c0.1,0.4,1,0.5,1.5,0.8c0.1,0.1,0.2,0.1,0.3,0.2c-0.1,0.1-0.2,0.2-0.4,0.2
		c-0.6,0-1.2-0.1-1,0.8c0,0-0.5,0.2-0.8,0.2c-0.6,0.1-1.3,0.2-1.9,0.3c-0.4,0-0.5,0.1-0.6,0.6c-0.1,0.5-0.6,0.6-1.2,0.4
		c-0.8-0.2-1.7-0.6-2.4,0.3c-0.2,0.2-0.9,0.2-1.4,0.1c-0.6-0.1-1.1-0.3-1.7-0.5c-0.8-0.3-0.3,0.2-0.4,0.5c0,0.1-0.4,0.4-0.5,0.3
		c-0.4-0.2-0.9-0.4-1.3-0.6c-0.6-0.3-1.3-0.4-1.7-0.8c-0.7-0.5-1.4-1.1-1.9-1.8c-0.6-1.1-1.2-1.8-2.6-1.8c-1.9,0-3.1-1.3-4.3-2.6
		C10.4,26,10,25.4,9.2,26.1z"/>
	<path d="M8.4,15.4c0.2-0.5,0.2-0.9,0.4-1.2c0.5-0.8,1.1-1.1,1.7-0.9c1,0.3,1.7,1.1,1.7,2c0,0.1-0.2,0.2-0.2,0.2
		c-0.1-0.1-0.3-0.1-0.4-0.3c-0.1-0.1-0.1-0.3-0.2-0.5c-0.1,0.1-0.1,0.2-0.1,0.3c-0.1,0.7-0.6,1-1.3,1c-0.1,0-0.3,0.1-0.4,0.2
		c-0.6,0.5-0.7,0.5-0.9,0.1C8.5,16,8.5,15.6,8.4,15.4z"/>
	<path d="M14.6,19.3c0.1,0.2,0.2,0.3,0.2,0.4c-0.1,0.3-0.2,0.6-0.4,0.9c-0.1,0.1-0.3,0.1-0.4,0.1c0-0.1-0.1-0.3-0.1-0.4
		C14.1,20,14.3,19.7,14.6,19.3z"/>
</g>
</svg>
