<?xml version="1.0" encoding="iso-8859-1"?>
<!-- Generator: Adobe Illustrator 25.3.0, SVG Export Plug-In . SVG Version: 6.00 Build 0)  -->
<svg version="1.1" id="Calque_1" xmlns="http://www.w3.org/2000/svg" xmlns:xlink="http://www.w3.org/1999/xlink" x="0px" y="0px"
	 viewBox="0 0 56.9 46.9" style="enable-background:new 0 0 56.9 46.9;" xml:space="preserve">
<g>
	<path d="M31.4,3.7c0.5,0,1.1,0,1.6,0c0.1,0,0.4,0.1,0.4,0.3c0,0.1-0.1,0.3-0.2,0.4c-0.4,0.4-0.8,0.7-1.1,1.1
		c-0.5,0.7-0.4,1.3,0.3,1.7c0.6,0.3,1.3,0.5,2,0.8c0.3,0.1,0.7,0.2,1,0.3c0.1,0.1,0,0.5,0,0.7c0,0-0.1,0-0.2,0.1
		c-1.6,1.2-1.6,1.2-0.1,2.4c0.1,0.1,0.2,0.3,0.2,0.4c-0.1,0.1-0.3,0.2-0.4,0.2c-4.3-0.4-8.3,1-12.3,2.4c-0.2,0.1-0.4,0.2-0.6,0.4
		c-0.1,0.1-0.2,0.3-0.3,0.4c0.1,0,0.2,0.1,0.3,0.1c0.7,0.2,1.5,0.4,2.2,0.6c0.4,0.1,0.8,0.4,1.2,0.4c2.1-0.1,3.7,1.1,5.4,2
		c0.3,0.1,0.7,0.2,1,0.1c0.7-0.3,1.2-0.2,1.6,0.3c0.5,0.6,1.1,0.6,1.8,0.3c0.6-0.3,1.1-0.1,1.7,0.2c1.5,0.7,3.1,1.2,4.8,0.2
		c0.6-0.4,1.3-0.6,1.8,0.1c0.4,0.5,0.6,0.2,0.9,0.1c0.5-0.3,0.9-0.4,1.3,0.1c0.5,0.7,1.2,0.6,1.9,0.7c0.9,0.1,1.9-0.1,2.2,1
		c0,0.1,0.5,0.1,0.7,0c1.4-0.8,2.9-1,4.5-1c0.5,0,0.9,0.1,1.4,0.3c0.5,0.1,0.6,0.5,0.5,1c-0.4,2.1-0.4,2.1-2.6,2
		c-1.1,0-2.2-0.2-3.4-0.4c-0.5,0-1.2-0.5-1.3,0.5c0,0.1-0.5,0.2-0.8,0.2c-1.2,0-2.4,0.2-3.4,0.9c-0.2,0.1-0.5,0.2-0.7,0.1
		c-0.7-0.3-1-0.2-1.3,0.5c-0.1,0.1-0.9,0.2-1.3,0c-1.7-1-3.5-0.3-5.2-0.4c-0.1,0-0.3,0.2-0.4,0.3c-0.6,0.8-1.3,0.8-2,0.2
		c-0.5-0.4-0.8-0.2-1.1,0.3c-0.4,0.7-0.9,1-1.8,0.6c-0.2-0.1-0.7,0.1-0.9,0.2c-1.9,1.4-3.8,2.8-6.4,2.9c-0.4,0-0.8,0.2-1.2,0.3
		c-0.4,0.1-0.5,0.4-0.1,0.6c1.2,0.6,2.3,1.5,3.8,1.3c0.5-0.1,1.1,0.4,1.7,0.5c1.9,0.3,3.8,0.5,5.6,0.7c0.6,0.1,0.9,0.2,0.6,0.9
		c-0.3,0.6-0.2,1.1,0.5,1.5c0.5,0.2,0.2,0.5,0,0.8c-0.4,0.5-0.7,1-1,1.6c-0.1,0.2-0.1,0.5,0,0.6c0.1,0.3,0.3,0.7,0.5,1
		c-0.4,0-0.7,0-1,0.2c-1.2,0.5-2.5,1-3.1,2.3c-0.4,0.9-0.9,0.9-1.7,0.9c-1.1,0.1-2.3,0.2-3.4,0.4c-1.2,0.2-1.5,0.8-1.5,2.2
		c0,0.5-0.2,0.6-0.6,0.4c-0.7-0.4-1.3-0.9-2-1.2c-1-0.5-2.1-0.6-3,0.1c-0.5,0.4-1,0.8-0.5,1.5c0,0.1-0.1,0.4-0.2,0.4
		c-0.1,0-0.4,0-0.5-0.1c-0.2-0.3-0.3-0.6-0.4-1c-0.3-0.5-0.5-1-0.8-1.4c-0.6-0.7-1-0.8-1.9-0.3c-0.3,0.1-0.5,0.4-0.7,0.5
		c-0.3,0.2-0.6,0.4-0.6-0.3c0-0.6-0.2-1.1-0.2-1.7c0-1.1-0.7-1.8-1.3-2.7c-0.3-0.5-0.8-0.6-1.3-0.3c-0.5,0.3-1,0.7-1.4,1
		c-0.1,0.1-0.3,0.1-0.5,0.1c0-0.2-0.1-0.4-0.1-0.6c0.2-0.8,0.4-1.6,0.7-2.4c0.4-1,0.2-1.8-0.5-2.5c-0.6-0.6-0.3-0.9,0.2-1.3
		c1.4-1.2,3-1.8,4.8-2.2c0.8-0.2,0.9-0.2,0.3-0.8c-0.4-0.5-0.8-0.9-0.5-1.7c0.2-0.7-0.6-1.3-1.1-1.5c-0.7-0.3-0.9-0.7-0.8-1.3
		c0.1-0.7-0.2-1-0.9-1c-0.3,0-0.7,0-0.8-0.2c-1-1.2-2.2-0.4-3.3-0.3c-0.5,0.1-0.9,0.3-1.3,0.5c-1.3,0.7-2.6,0.3-3.7-0.4
		c-1.2-0.7-1.6-1.8-0.2-2.8c1.4-1.1,3.1-1.1,4.6-0.5c1.4,0.6,2.3-0.4,3.4-0.7c0.3-0.1,0.5-0.6,0.8-0.7c1.7-0.5,2.1-2.1,3.1-3.2
		c0.1-0.1,0.2-0.2,0.2-0.3c-0.6-1,0-1.7,0.5-2.4c0.2-0.3-0.1-0.3-0.3-0.4c-1.7-0.3-3.4-0.6-4.8-1.8c-0.8-0.7-0.9-0.7-0.2-1.5
		c0.8-1,1.3-2.1,1.3-3.4c0-0.5,0.2-1,0.2-1.6c0-0.7-0.1-1.5,1.1-0.9c0.5-0.4,1.2-0.7,1.5-1.2c0.7-1,1.2-2,1.8-3.1
		c0.1-0.1,0.2-0.3,0.3-0.4c0.1,0.2,0.2,0.4,0.3,0.5c0,0.1,0,0.1,0,0.2c0.4,1.4,1.6,1.7,2.7,0.7c0.5-0.4,0.9-1,1.3-1.5
		c0.1-0.1,0.3-0.1,0.3-0.1c0.1,0.1,0.3,0.3,0.3,0.4c-0.1,0.4-0.4,0.9,0.1,1.1c0.3,0.1,0.8,0,1.2,0c1.4-0.1,2.4-0.9,3.5-1.6
		C24,0,24.2,0,24.4,0c0,0.2,0.1,0.3,0,0.5c-0.3,0.7-0.5,1.6,0.1,2c0.4,0.3,1.4,0,2-0.2c1.2-0.4,2.4-1,3.6-1.5c0.1-0.1,0.3,0,0.5,0
		c0,0.2,0,0.4-0.1,0.5c-0.4,0.5-1,0.9-1.3,1.4c-0.3,0.5-0.1,0.9,0.5,1C30.2,3.7,30.8,3.7,31.4,3.7C31.4,3.7,31.4,3.7,31.4,3.7z"/>
	<path d="M30.6,19.8c-0.8,0-0.8,0.8-1.3,1.1c-0.2,0.1-0.4,0.1-0.6,0.2c0.1-0.1,0.1-0.3,0.2-0.4c0.4-0.6,0.9-1.1,1.4-1.6
		c0.2,0.2,0.3,0.3,0.5,0.5C30.7,19.6,30.6,19.7,30.6,19.8z"/>
	<path d="M12.6,21.3c-0.2,0.1-0.3,0.2-0.5,0.2c-0.1,0-0.2,0-0.3,0c0,0-0.1-0.2,0-0.3c0.4-0.4,0.8-0.7,1.2-1
		C13.4,20.7,13.2,21.1,12.6,21.3z"/>
	<path d="M29.6,23.8c-0.2-0.2-0.6-0.4-0.7-0.8c-0.1-0.3,0-0.9,0.2-1.1c0.3-0.2,0.8-0.2,1.3-0.2c0.1,0,0.3,0.3,0.2,0.4
		c-0.2,0.5-0.5,0.9-0.6,1.5C30.1,23.7,29.9,23.7,29.6,23.8z"/>
	<path d="M23.8,23c-0.4,0-0.7-0.1-0.7-0.6c0-0.2,0.1-0.4,0.1-0.6c0.3,0.1,0.7,0.2,1,0.3c-0.1,0.2-0.3,0.3-0.3,0.5
		C23.8,22.7,23.8,22.9,23.8,23L23.8,23z"/>
	<path d="M29.8,25.6c-0.1,0.1-0.1,0.2-0.2,0.2c-0.1,0-0.3,0-0.3,0c-0.4-0.4-0.7-0.7-1.1-1.1c0-0.1,0-0.2,0-0.3c0,0,0.1-0.1,0.1,0
		C28.9,24.7,29.3,25.2,29.8,25.6z"/>
	<path d="M23.8,23c0.2,0.1,0.4,0.2,0.6,0.2c-0.1,0.1-0.1,0.4-0.2,0.4c-0.3,0.1-0.6,0.2-1,0.3c-0.1,0-0.2,0-0.3-0.1
		c0.1-0.1,0.1-0.3,0.2-0.4C23.3,23.4,23.6,23.2,23.8,23L23.8,23z"/>
	<path d="M16.3,27.2c-0.1,0-0.3-0.1-0.3-0.1c0-0.1,0.1-0.4,0.2-0.4c0.3,0,0.6,0,0.8,0c0,0,0,0.1,0,0.1C16.8,27,16.6,27.1,16.3,27.2z
		"/>
</g>
</svg>
