<?xml version="1.0" encoding="iso-8859-1"?>
<!-- Generator: Adobe Illustrator 25.3.0, SVG Export Plug-In . SVG Version: 6.00 Build 0)  -->
<svg version="1.1" id="Calque_1" xmlns="http://www.w3.org/2000/svg" xmlns:xlink="http://www.w3.org/1999/xlink" x="0px" y="0px"
	 viewBox="0 0 74 37.1" style="enable-background:new 0 0 74 37.1;" xml:space="preserve">
<g>
	<path d="M56.4,15.4c1.1,0,2.1-0.3,3.1-0.7c4.1-1.4,8.3-2.6,12.4-3.9c0.2-0.1,0.3-0.2,0.5-0.1c0.5,0,1,0.1,1.5,0.2
		c-0.2,0.5-0.3,1-0.6,1.4c-1.4,1.7-2.7,3.6-4.6,5c-1.5,1.2-1.6,2.2-0.4,3.7c1.3,1.6,2.6,3.1,3.9,4.6c0.2,0.3,0.6,0.5,0.7,0.8
		c0.1,0.3,0.1,0.6,0.2,1c-0.3,0-0.6,0.1-0.8,0.1c-2.2-0.7-4.4-1.4-6.6-2.1c-2-0.7-3.9-1.4-5.9-2c-1.1-0.4-2.2-0.7-3.3-0.9
		c-0.5-0.1-1.2,0.1-1.7,0.2c-0.1,0-0.3,0.1-0.4,0.2c0.1,0,0.2,0.1,0.3,0.1c0.4,0.2,0.8,0.3,1.1,0.5c1,0.5,1,0.8,0.1,1.5
		c-1.7,1.3-3.4,2.6-5.2,3.8c-1.8,1.2-3.1,2.9-4.4,4.7c-1.4,2-1.6,2.1-3.7,0.7c-0.5-0.3-0.8-1.1-1.7-0.7c-0.2,0.1-0.5-0.3-0.7-0.5
		c-1-0.9-1.9-1.7-3-2.6c-0.3-0.2-0.8-0.4-1.1-0.3c-1.6,0.3-3.2,0.7-4.9,0.9c-1.2,0.2-2.5,0.1-3.8,0.1c-0.2,0-0.4,0.1-0.6,0.1
		c0.2,0.1,0.3,0.1,0.5,0.2c1.1,0.7,1.2,0.9,0.7,2.1c-0.4,1.1-0.8,2.2-1.3,3.3c-0.4,0.8-0.6,0.8-1.2,0.2c-1.5-1.6-2.9-3.3-3.7-5.4
		c-0.3-0.9-0.8-1.4-1.8-1.7c-2.8-0.9-5.7-1.8-8.4-2.9c-1.8-0.7-3.6-1.6-5.4-2.4c-0.5-0.2-1-0.5-1.5-0.6c-2-0.2-3.4-1.4-4.8-2.5
		c-0.2-0.1-0.4-0.6-0.3-0.7c0.2-0.2,0.6-0.4,0.8-0.4c0.6,0.1,1.1,0.3,1.7,0.4c0.3,0.1,0.7,0,1,0c-0.2-0.3-0.5-0.6-0.8-0.9
		c-0.4-0.3-0.9-0.5-1.4-0.9c-0.7-0.5-0.8-1.2-0.2-1.8c0.4-0.4,0.9-0.8,1.4-1.1c1.5-0.8,3-1.4,4.6-1.8c1.7-0.5,3.4-1.2,5-1.9
		c2.9-1.4,6-2,9.1-2.6c1.2-0.2,2.5-0.3,3.7-0.4c0.6,0,1-0.1,1.3-0.7c0.7-1.1,1.7-1.9,2.5-2.8c1.3-1.3,3-2.1,3.9-3.8
		c0.4-0.7,1.2-1.1,1.8-1.7c0.6-0.5,1.1-0.4,1.5,0.2c0.4,0.5,0.8,1.1,1,1.7c0.7,1.8,1.3,3.5,1.9,5.3c0.4,1.2-0.4,2.1-0.9,3
		c-0.2,0.4-0.4,0.5,0.2,0.6c1.9,0.4,3.8,0.9,5.7,1.4c3.4,0.9,6.8,1.8,10.2,2.7C55,15.3,55.7,15.3,56.4,15.4z"/>
	<path d="M22.7,28.6c-0.5,0-0.7,0-0.9,0c-0.2-0.1-0.4-0.2-0.6-0.3c0.2,0,0.3-0.1,0.5-0.1c0.6-0.1,1.2-0.2,1.7-0.3
		c0.2,0,0.4,0.1,0.7,0.2c-0.2,0.1-0.4,0.3-0.6,0.4C23.2,28.5,22.8,28.6,22.7,28.6z"/>
	<path d="M10.1,19.4c-1.2,0-2-0.9-2-2.1c0-0.9,1-1.9,1.8-1.9c0.8,0,2.2,1.3,2.2,2.1C12.1,18.4,11.1,19.4,10.1,19.4z"/>
</g>
</svg>
