<?xml version="1.0" encoding="iso-8859-1"?>
<!-- Generator: Adobe Illustrator 25.3.0, SVG Export Plug-In . SVG Version: 6.00 Build 0)  -->
<svg version="1.1" id="Calque_1" xmlns="http://www.w3.org/2000/svg" xmlns:xlink="http://www.w3.org/1999/xlink" x="0px" y="0px"
	 viewBox="0 0 239.6 95.2" style="enable-background:new 0 0 239.6 95.2;" xml:space="preserve">
<g>
	<path d="M77.5,54.1c4.1,0.3,9,0.4,14,1c1.8,0.2,3.2,0,4.7-0.8c2.4-1.2,4.8-2.4,7.1-3.6c4-2.1,8.3-2.1,12.7-1.8c0.9,0.1,2,0.4,2.8,1
		c1.2,1,2.8,2.2,3.1,3.6c0.4,1.8-1.5,2.7-3,3.5c-0.4,0.2-0.9,0.4-1.3,0.6c0.4,0.2,0.8,0.4,1.3,0.5c4.6,0.6,9.2,1.4,13.8,1.6
		c1.6,0.1,3.5-1.1,4.9-2.2c3.7-2.7,7.9-4.2,12.4-5c5.5-0.9,10.2,1,13.9,4.9c3.3,3.4,3.1,3.7,7.4,3.5c10.1-0.4,20.1-1.4,30-3.5
		c8.3-1.8,16.6-3.2,25.1-2.6c6.2,0.4,10.2,3.3,12,8.7c0.6,1.8,0,2.4-1.4,3c-3.6,1.6-7.5,2.4-11.2,1.2c-3.4-1.1-6.2-0.2-9.1,1
		c-5.8,2.4-11.6,4.9-17.4,7.2c-5.4,2.2-10.8,2.7-16.5,1.3c-7.7-1.9-15.5-3.5-23.5-3.3c-1.8,0.1-4-1.1-5.3-0.5
		c-1.2,0.6-1.4,3.1-2,4.7c-0.3,0.8-0.7,1.5-1.1,2.2c-2.2,3.5-4.5,4.7-8.4,3.2c-5.3-2-10.4-4.3-15.4-6.9c-3.1-1.7-5.9-2.5-9.3-1.7
		c-1.7,0.4-0.4,0.8-0.2,1.4c0.3,0.9,0.6,2,0.4,2.8c-1.2,3.7-8.2,6.6-11.7,4.9c-1.8-0.8-3.5-1.9-4.9-3.3c-2.5-2.5-5.4-3.2-8.7-2.6
		C84,80,75.6,80.4,67.1,80.2c-0.5,0-1,0.1-1.5,0.1c0.4,0.4,0.7,0.8,1.1,1.2c0.6,0.6,1.2,1.1,1.8,1.7c3.4,3.4,3.4,6.2-0.7,9
		c-2,1.4-4.4,2.4-6.8,2.8c-3,0.5-5.4-1.1-7.2-3.6c-2.3-3.3-4.7-6.4-6.8-9.8c-1.2-1.9-2.6-2.5-4.9-2.7c-7.9-0.5-15.8-1.2-23.7-1.9
		c-1.1-0.1-2.4-0.4-3.2-1.1c-2.1-2-4.6-2.4-7.2-3c-1.9-0.4-3.8-1.2-5.5-2.1c-2.2-1.2-2.3-2.9,0-4.1c2-1.1,4.2-2,6.4-2.7
		c10.6-3.2,21.5-5.5,32.4-7c4.6-0.6,9.2-0.8,13.9-1.2c5.6-0.5,11.2-1.2,16.8-1.7C73.6,54,75.1,54.1,77.5,54.1z"/>
	<path d="M65.4,4.4C70.7,4.6,76,4.9,81.3,4.9c13.6-0.2,27.3-0.4,40.9-0.9c3.4-0.1,6.8-1.5,10.1-2.3c1.1-0.3,2.2-0.6,3.4-0.7
		c0.6-0.1,1.3,0.3,1.9,0.4c1.3,0.4,0,2.8,2.2,2.6c4.3-0.4,8.6-0.3,12.8-0.9c3.6-0.5,7-1.8,10.6-2.7c1.3-0.3,2.6-0.4,3.9-0.4
		c2.5,0,3.1,0.5,2.6,3c-0.4,1.7,0.1,1.9,1.5,2c6,0.3,11.9,0.6,17.9,1.1c10.4,0.9,20.8,1.8,31.1,2.8c4,0.4,7.9,0.6,11.9,1.1
		c1.8,0.2,3.5,1,5.1,1.7c1.2,0.5,2.6,1.1,2.4,2.8c-0.2,1.5-3,3.6-4.4,3.6c-0.2,0-0.4,0-0.5-0.1c-5.7-3-11.3-0.8-16.9,0
		c-1,0.1-2,0.2-3,0.1c-8.8-0.3-17.5,1.4-26.2,2.2c-1.4,0.1-2.9,0.9-4,1.8c-1.9,1.5-3.6,1.3-5.5,0.3c-2.9-1.6-5.9-3.1-8.9-4.5
		c-1.7-0.8-3.6-2-5.4-0.1c-9.1,1.5-17.8,5.2-27.2,5.7c-2.7,0.1-5.2-0.2-7.7-1.2c-1.2-0.5-2.5-1-3.7-1.4c-1.5-0.6-2.9-1-3.3,1.4
		c-0.1,0.6-0.6,1.3-1.1,1.6c-4.4,2.9-8.2,6.7-13.6,7.9c-3.6,0.8-6.7,0.2-9.2-2.1c-1.9-1.7-3.5-2.9-6.1-1.6c-0.8,0.4-2,0.2-3,0.2
		c-1.4-0.1-2.3,0.4-3.3,1.6c-3.2,4.2-7.8,6.6-12.2,9.3c-1.6,0.9-3,0.7-3.8-0.8c-1.5-2.7-3.2-5.5-4.2-8.4c-0.9-2.8-2.4-4.2-5.1-4.6
		c-3.7-0.6-7.5-1.4-11.2-2.1c-1.1-0.2-2.2-0.7-3.3-1c-2.4-0.6-4.8-1.5-7.2-1.8c-3.1-0.3-6.1-0.4-8.9-2.5c-1.5-1.2-4.1-1.2-6.2-1.5
		c-5.7-0.8-11.5-1.4-17.2-2.2c-2-0.3-3.9-0.8-5.8-1.4c-0.6-0.2-1.4-1.2-1.3-1.8c0.1-0.6,0.9-1.2,1.6-1.7C2,9,2.5,9,3,9
		C8.2,8.7,13.3,8.5,18.4,8c6.1-0.5,12.2-1.2,18.3-1.8c0.5-0.1,1-0.1,1.5-0.1C45,5.7,51.7,5.3,58.5,4.9c2.3-0.2,4.6-0.6,6.9-0.9
		C65.4,4.1,65.4,4.3,65.4,4.4z"/>
	<path d="M19.8,64.1c2.9-0.1,5.9-0.8,8.7,0.8c1.4,0.8,1.4,1.5,0.4,2.7c-2.3,2.6-5.5,2.5-8.5,2.2c-1.2-0.1-2.3-1.7-3.4-2.6
		C18,66.1,18.9,65.1,19.8,64.1L19.8,64.1z"/>
	<path d="M146.9,71.9c-0.5,0.6-0.7,1-0.9,1.1c-2.1,0.6-4.1,1.1-6.2,1.6c-0.2,0-0.5-0.3-0.6-0.5c-0.1-0.1,0-0.4,0.1-0.4
		c1.9-0.9,3.7-1.8,5.6-2.5C145.3,70.9,146.1,71.5,146.9,71.9z"/>
	<path d="M99.8,55c2.3,0.7,4.7,1.4,7,2c-2.2,0.9-4.2-0.1-6.3-0.4C100.2,56.6,100,55.6,99.8,55z"/>
	<path d="M156.2,10.1c-24.7,1.8-49.5,0.8-74.3,1c-1.5,0-3,0.2-4.5-0.1c-2-0.3-3.9-1-5.8-1.6c1.8-0.1,3.6-0.5,5.4-0.3
		c14.2,1.5,28.6,1.6,42.8,0.7c14.5-0.9,28.9-0.3,43.3-0.7c1.6,0,3.3,0.4,4.9,0.6c-1.6,0.1-3.3,0.3-4.9,0.4
		C160.8,10.1,158.5,10.1,156.2,10.1z"/>
	<path d="M55.5,16.6c-1.8-0.2-3.6-0.2-5.3-0.6c-0.7-0.2-1.2-1.1-1.8-1.8c0.7-0.3,1.4-0.8,2-0.8c2.4,0,4.8,1.2,7.2,0
		c0.1-0.1,1,0.8,1.1,1.3c0.1,0.8,0.5,2.2-1.3,1.7c-0.6-0.2-1.3-0.1-1.9-0.2C55.5,16.3,55.5,16.4,55.5,16.6z"/>
	<path d="M188.9,13.1c1.7,0,2.3-0.1,3,0c0.5,0.1,0.9,0.3,1.3,0.4c-0.4,0.2-0.8,0.4-1.2,0.5c-0.6,0.1-1.3,0.1-1.9,0
		c-1.1-0.1-2.3-0.4-3.4-0.6C187.7,13.3,188.8,13.1,188.9,13.1z"/>
	<path d="M197.3,14c0,0-0.7,0-1.3-0.1c-0.1,0-0.3-0.2-0.4-0.3c0.2-0.2,0.3-0.5,0.5-0.5c1-0.1,1.9-0.1,2.9-0.1c0.4,0,0.8,0.3,1.3,0.5
		c-0.4,0.1-0.9,0.3-1.3,0.4C198.5,14.1,198.2,14,197.3,14z"/>
	<path d="M150.7,16.1c0.3,0.1,0.9,0.3,1.5,0.5c-0.6,0.2-1.2,0.3-1.8,0.5c-0.5,0.1-1,0.3-1.4,0.4c-0.3,0-0.5-0.1-0.8-0.2
		c0.3-0.3,0.5-0.8,0.8-1C149.3,16,149.9,16.1,150.7,16.1z"/>
</g>
</svg>
