<?xml version="1.0" encoding="iso-8859-1"?>
<!-- Generator: Adobe Illustrator 25.3.0, SVG Export Plug-In . SVG Version: 6.00 Build 0)  -->
<svg version="1.1" id="Calque_1" xmlns="http://www.w3.org/2000/svg" xmlns:xlink="http://www.w3.org/1999/xlink" x="0px" y="0px"
	 viewBox="0 0 83 41.3" style="enable-background:new 0 0 83 41.3;" xml:space="preserve">
<g>
	<path d="M81.9,16c-0.3,2.2,0.5,4.6,0.9,7.1c0.1,0.8,0.2,1.5,0.2,2.3c-0.1,1.6-1,2.4-2.6,2.3c-0.9,0-1.9-0.2-2.8-0.4
		c-2.6-0.7-5.3-1.5-7.9-2.2c-0.3-0.1-0.6-0.2-0.9-0.2c-4-0.1-7.9,0.3-11.6,1.8c-0.1,0-0.2,0.2-0.3,0.3c0.1,0.1,0.2,0.2,0.2,0.2
		c0.1,0.1,0.2,0.1,0.3,0.1c0.8,0.2,1.9,0.1,2.2,0.9c0.3,1,0.3,2.1,0.1,3.1c-0.4,2-2.1,2.9-3.8,3.8c-0.3,0.2-0.8,0-1.2-0.1
		c-1.1-0.4-2.1-0.8-3.2-1.2c-0.8-0.3-1.6-0.2-2.2,0.4c-0.1,0.1,0,0.4,0.1,0.5c0.4,0.4,0.9,0.8,1.3,1.2c0.1,0.1,0.1,0.4,0.2,0.6
		c-0.2,0-0.5,0.2-0.6,0.1c-0.9-0.6-1.9-1.1-2.7-1.8c-1.1-0.9-2.4-1.3-3.3-2.5c-0.2-0.3-1-0.3-1.5-0.2c-3.4,0.8-6.8,1-10.3,1
		c-1,0-2-0.2-3-0.3c-0.2,0-0.3,0.1-0.5,0.1c0.1,0.1,0.3,0.2,0.4,0.3c0.4,0.2,0.7,0.4,1.1,0.6c1,0.5,1.5,1.4,1.5,2.5
		c0.1,1.6-0.1,3.1-1.1,4.4c-0.7,0.8-1,1-2,0.4c-0.5-0.3-1-0.7-1.4-1.1c-0.6-0.5-1.1-1.4-1.7-1.6c-1.1-0.3-1.1-1.1-1.4-1.8
		c-0.4-0.7-0.6-1.5-0.9-2.3c-0.2-0.5-0.4-1-0.5-1.5c-0.1-0.5-0.4-0.7-0.9-0.7c-2.6-0.2-5.1-1.1-7.6-1.8c-0.5-0.2-1-0.3-1.6-0.3
		c-2.2-0.2-4.3-0.8-6.3-2c-0.6-0.4-1.4-0.6-2.2-0.9c-1.8-0.5-3.1-1.7-4.3-3.1c-0.7-0.9-0.6-1.9,0-2.8c1.1-1.9,2.9-3.3,4.8-4.1
		c2.3-1,4.5-2.2,6.6-3.5c2.5-1.5,5.2-2.4,7.9-3.4c1.1-0.4,2.2-0.5,3.3-0.9c1.3-0.4,2.7-0.6,4.1-0.6c0.7,0,1.2-0.2,1.5-0.9
		c0.5-1.1,1.2-2,2.5-2.6c1-0.5,1.6-1.7,2.3-2.6c0.3-0.4,0.8-0.7,1.2-1.1c0.1-0.1,0.3-0.1,0.5-0.1c0,0.1,0,0.3-0.1,0.4
		c-0.4,0.5-0.8,1-1.2,1.6c0,0.1-0.1,0.2,0,0.3c0.1,0.1,0.3,0.1,0.3,0.1c0.4-0.3,0.8-0.5,1.1-0.8c0.9-0.8,1.8-1.7,2.8-2.5
		c0.2-0.2,0.5-0.2,0.7-0.4c-0.1,0.3-0.1,0.5-0.3,0.7c-0.1,0.2-0.4,0.3-0.5,0.5c-0.1,0.4-0.2,0.9,0,1.2c0.3,0.4,0.7,0.1,1.1-0.1
		c0.2-0.1,0.5-0.1,0.8-0.1c-0.1,0.3-0.2,0.5-0.3,0.8c-0.2,0.3-0.6,0.5-0.7,0.8c-0.1,0.3-0.2,0.8,0,0.9c0.2,0.2,0.6,0.2,0.9,0.2
		c0.3-0.1,0.6-0.4,0.9-0.5c0.1-0.1,0.3-0.1,0.5-0.1c0,0.2,0,0.3-0.1,0.4c0,0.1-0.2,0.2-0.2,0.3c-0.2,0.7,0,1,0.6,0.9
		c0.3,0,0.6-0.2,0.9-0.2c0.1,0,0.3,0.1,0.4,0.2c0,0,0,0.2-0.1,0.3c-0.1,0.1-0.3,0.2-0.4,0.4c-0.1,0.1-0.1,0.5,0,0.5
		C42.5,7,42.8,7.1,43,7c0.2,0,0.3-0.2,0.4-0.3c0.1,0,0.4-0.1,0.5,0c0.1,0.1,0.1,0.3,0,0.5c-0.3,0.4-0.8,1,0.3,0.7
		c0.8-0.2,1.1-0.3,0.7,0.7c-0.1,0.4,0.1,0.5,0.5,0.4c0.4-0.2,0.9-0.7,1.4,0c0.4-0.3,0.9-0.5,1.3-0.8c2.3-1.7,4.8-2.6,7.6-2.6
		c2.7,0,4.8,1.3,6.8,2.9c1,0.8,1.2,2,1.3,3.2c0.1,0.5-0.2,0.9-0.7,1.1c-0.7,0.3-1.3,0.5-2,0.7c-0.7,0.2-1.4,0.4-2,0.6
		c-0.1,0-0.2,0.2-0.3,0.3c0.1,0,0.2,0.1,0.3,0.1c1.5,0.1,3,0.3,4.5,0.4c3.1,0.3,6-0.7,8.9-1.8c1.8-0.7,3.6-1.5,5.4-2.3
		c0.3-0.1,0.6-0.2,0.8-0.3c2-0.6,3.1,0.2,3.2,2.3C81.9,13.6,81.9,14.6,81.9,16z"/>
	<path d="M29.4,22.7c-2.3-0.2-4.3,0.8-6.2,1.8c-1.1,0.5-1,0.6-0.8,1.8c0.2,0.9-0.1,2.1-0.3,1.9c-0.4-0.4-0.7-0.9-1-1.4
		c-0.6-1.3-0.6-1.5,0.6-2.3c2.8-1.9,5.9-3,9.4-2.7c1.4,0.1,2.1,0.8,2.6,2.1c0.3,0.7,0,1.3-0.3,1.8c-1.4,2.4-3.5,3.6-6.1,4.4
		c-1.9,0.6-3.5-0.1-5.1-0.8c-0.1-0.1-0.2-0.3-0.3-0.5c0.2,0,0.4-0.1,0.5-0.1c0.3,0.1,0.6,0.2,0.8,0.3c2.8,1.1,6.6,0.1,8.5-2.3
		c0.3-0.4,0.7-0.8,1-1.3c0.9-1.4,0.1-2.8-1.5-2.9C30.7,22.6,30.1,22.7,29.4,22.7z"/>
	<path d="M42.2,17c-0.1,0.1-0.3,0.2-0.4,0.2c-0.8-0.3-1.6-0.5-2.4-0.8c-0.1,0-0.2-0.2-0.2-0.3c0.1-0.1,0.2-0.3,0.3-0.3
		c0.9,0.3,1.7,0.6,2.6,1C42.1,16.8,42.1,16.9,42.2,17z"/>
	<path d="M14.5,17.3c-0.7-0.1-1.5-0.3-2.2-0.4c-0.1,0-0.2-0.2-0.2-0.3c0-0.1,0.1-0.3,0.2-0.3c0.5,0,1,0,1.5,0.1
		C14.3,16.5,14.6,16.8,14.5,17.3L14.5,17.3z"/>
	<path d="M50.2,19.7c0.1,0,0.2-0.1,0.3-0.1c0.2,0.1,0.4,0.2,0.6,0.2c-0.2,0.1-0.3,0.3-0.5,0.3c-0.3,0-0.6,0-0.9,0
		c-0.3,0-0.8,0.2-0.7-0.4c0.1-0.4,0.5-0.4,0.9-0.2C49.9,19.7,50.1,19.7,50.2,19.7z"/>
	<path d="M66.4,20.5c-0.1-0.2-0.2-0.2-0.3-0.3c0,0,0-0.1,0-0.2c0,0,0.1-0.1,0.1-0.1c0.5-0.1,1-0.1,1.5-0.2c0,0,0,0.1,0,0.2
		C67.3,20.1,66.8,20.3,66.4,20.5z"/>
	<path d="M52.2,20.5c0.1,0-0.1,0-0.2,0c-0.1-0.1-0.2-0.3-0.3-0.4c0,0,0.2-0.2,0.2-0.2c0.3,0,0.6,0,0.8,0c0.2,0,0.4,0.1,0.5,0.2
		c-0.2,0.1-0.3,0.3-0.5,0.4C52.7,20.5,52.6,20.5,52.2,20.5z"/>
	<path d="M54.7,20.5c0,0-0.2,0-0.4-0.1c-0.1,0-0.1-0.2-0.1-0.3c0,0,0.1-0.1,0.1-0.1c0.3,0,0.7-0.1,1,0c0.2,0,0.4,0.1,0.5,0.2
		c-0.2,0.1-0.3,0.3-0.5,0.3C55.3,20.6,55.1,20.5,54.7,20.5z"/>
	<path d="M29.7,15.6c-0.3,0.1-0.5,0.2-0.7,0.2c-0.1,0-0.2-0.3-0.4-0.4c0.2-0.1,0.4-0.2,0.6-0.2C29.4,15.2,29.5,15.4,29.7,15.6z"/>
	<path d="M24.9,16c-0.2,0.1-0.4,0.2-0.6,0.2c-0.2,0-0.2-0.3-0.4-0.4c0.2-0.1,0.4-0.2,0.6-0.2c0.2,0,0.3,0.1,0.5,0.1
		C25,15.8,25,15.9,24.9,16z"/>
	<path d="M44.5,18.6c-0.3,0.2-0.4,0.4-0.5,0.4c-0.2,0-0.4-0.2-0.5-0.3c0.1-0.1,0.2-0.3,0.3-0.3C43.9,18.4,44.1,18.5,44.5,18.6z"/>
	<path d="M65.2,19.7c0.1,0.2,0.2,0.4,0.3,0.5c-0.1,0.1-0.3,0.3-0.4,0.2c-0.2-0.1-0.3-0.3-0.4-0.4C64.8,20,65,19.9,65.2,19.7z"/>
	<path d="M14.6,26.8c0.3-0.2,0.4-0.3,0.6-0.4c0.6-0.4,1.2-0.7,1.8-1.1c1-0.6,1.7-1.4,2.3-2.4c0.1-0.1,0.3-0.1,0.4-0.2
		c0,0.2,0.2,0.3,0.1,0.5c-1,1.9-2.4,3.2-4.5,3.8C15.1,27,14.9,26.9,14.6,26.8z"/>
</g>
</svg>
