<?xml version="1.0" encoding="iso-8859-1"?>
<!-- Generator: Adobe Illustrator 25.3.0, SVG Export Plug-In . SVG Version: 6.00 Build 0)  -->
<svg version="1.1" id="Calque_1" xmlns="http://www.w3.org/2000/svg" xmlns:xlink="http://www.w3.org/1999/xlink" x="0px" y="0px"
	 viewBox="0 0 76.2 34.6" style="enable-background:new 0 0 76.2 34.6;" xml:space="preserve">
<g>
	<path d="M54.5,28.6c-1.8-0.4-4-0.6-6-1.6c-0.4-0.2-0.9-0.4-1.3-0.6c-0.9-0.6-1.6-0.4-2.6-0.1c-1.6,0.6-3.3,1-5,1.1
		c-3,0.3-6.1,0.3-9.1,0.4c-0.2,0-0.3,0.1-0.5,0.1c0.1,0.1,0.2,0.3,0.3,0.4c1.2,1.5,1.7,3.1,1,4.9c-0.4,1.2-0.9,1.4-2.2,1
		c-0.4-0.1-0.8-0.3-1.1-0.5c-2-1.3-3.8-2.8-5.1-4.9c-0.7-1.1-1.6-1.7-3.1-1.8c-1.3-0.1-2.5-0.6-3.8-1c-1.3-0.4-2.6-0.6-4-0.8
		c-1.7-0.3-3.4-0.9-5.1-1.5c-2.2-0.7-4.2-1.7-5.9-3.2c-1.2-1-1.1-1-0.5-2.3c0.7-1.6,1.9-2.5,3.5-3.1c3.3-1.3,6.5-2.6,9.8-3.9
		c2-0.8,4.1-1.7,6.1-2.5c0.7-0.3,1.2-0.7,1.4-1.5c0.2-0.7,0.6-1.3,0.9-1.9c0.1-0.2,0.4-0.7,0.5-0.6c1,0.2,1.1-0.7,1.5-1.2
		c0.2-0.4,0.4-0.8,0.7-1.3c1.1-2.2,3-2.7,5.7-2c1.7,0.4,3,1.4,4.4,2.1c1.3,0.7,2.5,1.5,3.8,2.2c0.1,0.1,0.3,0.1,0.3,0.2
		c0.5,1.6,2.4,2.1,2.8,3.8C41.9,9.3,42.4,9.3,43,9c0.9-0.6,1.9-1.3,2.8-1.9c1.1-0.7,2.2-1.5,3.2-2.2c1-0.7,2.1-0.8,3.2-0.3
		c2.5,1.2,4.7,2.7,5.7,5.5c0.5,1.5,0.6,2.9-0.9,3.9c-0.1,0.1-0.1,0.2-0.1,0.3c0,0.1,0.2,0.2,0.3,0.2c0.3,0,0.6,0.1,0.9,0
		c2.1-0.4,4.2-0.7,6.3-1.2c2.8-0.7,5.2-2,7.8-3.1c0.6-0.2,1.1-0.5,1.7-0.6c0.9-0.3,1.5,0,2,0.8c0.5,0.8,0.6,1.7,0.3,2.6
		c-0.3,1-0.5,1.9-0.9,2.9c-0.4,1.1-0.4,2,0.2,3c0.7,1.3,1,2.7,0.9,4.1c-0.1,1.5-0.5,1.9-1.9,2c-0.9,0.1-1.7-0.3-2.6-0.6
		c-2.1-0.9-4.3-1.9-6.4-2.7c-2.4-0.9-5-1.1-7.6-1c-0.2,0-0.5,0-0.7,0.1c-0.5,0.1-1,0.3-1.4,0.4c0.4,0.2,0.8,0.3,1.1,0.5
		c0.3,0.2,0.7,0.5,0.7,0.7c0.2,1.2,0.4,2.5,0.4,3.7C57.7,27.7,56.5,28.7,54.5,28.6z"/>
	<path d="M7.7,18.6c-1.1-0.1-2-0.9-2-1.7c0.1-0.9,1.5-2,2.4-1.8c0.9,0.1,1.8,1,1.7,1.8C9.8,17.8,8.7,18.7,7.7,18.6z"/>
</g>
</svg>
