<?xml version="1.0" encoding="iso-8859-1"?>
<!-- Generator: Adobe Illustrator 25.3.0, SVG Export Plug-In . SVG Version: 6.00 Build 0)  -->
<svg version="1.1" id="Calque_1" xmlns="http://www.w3.org/2000/svg" xmlns:xlink="http://www.w3.org/1999/xlink" x="0px" y="0px"
	 viewBox="0 0 82.2 25.7" style="enable-background:new 0 0 82.2 25.7;" xml:space="preserve">
<g>
	<path d="M42.6,23.1c-2,0-4.1,0.1-6.1,0c-2.7-0.2-5.3-0.4-8-0.8c-1.6-0.3-3.1-1-3.9-2.6c-0.3-0.7-1.2-1.1-1.1-2c0,0-0.4-0.2-0.6-0.2
		c-0.9-0.1-1.8-0.1-2.6-0.1c-0.4,0-0.8-0.2-1.1-0.1c-0.8,0.3-1.6,0.2-2.4,0.1c-0.2,0-0.3,0-0.5,0.1c0.1,0.2,0.1,0.4,0.2,0.6
		c0.1,0.1,0.2,0.3,0.4,0.4c1.5,0.7,2.2,2,2.8,3.3c0.5,1,0.9,2,1.4,3.1c0.1,0.2-0.1,0.5-0.2,0.8c0,0.1-0.4,0-0.6-0.1
		c-1.5-0.8-3.1-1.6-4.6-2.6c-0.5-0.3-0.8-1-1-1.6c-0.3-1-0.5-2.1-0.8-3.1c-0.1-0.4-0.4-0.9-0.7-1.2c-0.2-0.2-0.5-0.4-0.7-0.3
		c-1.9,0.3-3.8,0.2-5.7-0.1c-2.1-0.3-4.1-1-6.2-1.6c-0.2-0.1-0.3-0.3-0.5-0.5c0.2-0.2,0.4-0.4,0.6-0.5c0.3-0.1,0.7-0.2,1-0.3
		c0.4-0.1,0.8-0.2,1.2-0.3c-0.4,0-0.8-0.1-1.2-0.1c-0.3,0-0.6-0.1-0.8,0C0.4,13.4,0,13.4,0,12.8c0-0.3,0.5-0.9,0.6-0.9
		c1.3,0.4,2.4-0.5,3.6-0.5c0.9,0,1.8-0.1,2.6-0.4c1-0.4,1.8-0.8,2.9-0.3c0.5,0.2,1.1-0.2,1.7-0.3c1.3-0.2,2.6-0.5,3.9-0.6
		c0.7-0.1,1.4-0.1,2.1,0c0.8,0.2,1.1-0.2,1.2-0.8c0.2-1.8,1-3.4,1.8-5c0.8-1.6,1.9-2.8,3.9-3c1.5-0.1,3-0.7,4.4-1.1
		c0.2,0,0.3,0,0.5,0c3.6,0,7.2-0.1,10.8,0.1c3.1,0.2,6.3,0.3,9.4,0.9c1.9,0.4,3.8,0.5,5.6,0.8c1.7,0.3,3.5,0.8,5.2,1.2
		c0.7,0.2,1.4,0.4,2.1,0.6c1.9,0.5,2.9,1.9,2.9,3.9c0,1.6-0.5,2.8-1.7,3.7c-0.2,0.2-0.4,0.4-0.6,0.6c-0.1,0.1-0.2,0.3-0.2,0.5
		c0,0.1,0.3,0.2,0.4,0.2c1.1,0.1,2.1-0.1,3.1-0.6c0.9-0.5,1.8-0.9,2.7-1.3c3.8-1.9,7.7-3.4,11.9-4.3c0.2,0,0.5-0.2,0.7-0.1
		c0.2,0,0.4,0.2,0.6,0.4C82.1,6.7,82,6.9,81.8,7c-1.7,0.9-3.2,1.9-4.6,3.3c-1.6,1.6-1.5,5.9,0.3,7.5c1.2,1.1,2.4,2.1,3.8,2.9
		c0.1,0.1,0.2,0.2,0.3,0.3c-0.2,0.1-0.4,0.3-0.6,0.3c-0.5,0-1-0.1-1.4-0.2c-2.2-0.6-4.4-1.2-6.5-1.7c-1.7-0.4-3.4-1-4.9-1.9
		c-0.7-0.4-1.5-0.6-2.3-0.8c-0.4-0.1-0.9-0.1-1.4-0.1c0.2,0.4,0.3,0.8,0.5,1.2c0.8,1.3,0.5,2.2-1,2.7c-1.5,0.5-2.9,1-4.4,1.4
		c-1,0.3-2.1,0.3-3.2,0.4c-1.1,0.1-2.1,0.2-3.2,0.4c-2.7,0.5-5.4,0.3-8,0.3C44.3,23.1,43.5,23.1,42.6,23.1
		C42.6,23.1,42.6,23.1,42.6,23.1z"/>
</g>
</svg>
