<?xml version="1.0" encoding="iso-8859-1"?>
<!-- Generator: Adobe Illustrator 25.3.0, SVG Export Plug-In . SVG Version: 6.00 Build 0)  -->
<svg version="1.1" id="Calque_1" xmlns="http://www.w3.org/2000/svg" xmlns:xlink="http://www.w3.org/1999/xlink" x="0px" y="0px"
	 viewBox="0 0 78.8 35.3" style="enable-background:new 0 0 78.8 35.3;" xml:space="preserve">
<g>
	<path d="M59.5,13.7c1.1-0.2,2.2-0.4,3.3-0.7c2.7-1,5.3-2,8-3c1.4-0.5,2.9-1,4.4-1.4C76.1,8.3,77,8.6,77.8,9c1,0.5,1.3,2,0.7,3.2
		c-0.5,1-1.1,2-1.5,3c-0.8,2.2-0.8,4.5,0.1,6.7c0.3,0.8,0.5,1.8,0.5,2.7c0,1.4-0.9,1.9-2.3,1.7c-2.2-0.3-4.1-1.2-6-2
		c-2.5-1-4.9-2-7.5-2.9c-1.9-0.6-3.8-0.9-5.8-0.3c-0.3,0.1-0.7,0-1.1-0.1c-0.2,0-0.4,0-0.7,0c0.2,0.2,0.4,0.3,0.5,0.5
		c0.8,0.7,0.5,1.6,0.4,2.3c-0.2,1-0.6,2-1,3c-0.2,0.4-0.4,0.9-0.7,1.3c-1,1.5-1.9,1.7-3.5,1c-0.5-0.2-1.1-0.4-1.7-0.6
		c-0.5-0.2-1.1-0.5-1.6-0.8c-0.4-0.2-0.8-0.1-0.8,0.3c0,0.2,0,0.5,0.1,0.7c0.1,0.4,0.2,0.7,0.4,1.1c-0.4-0.1-0.9-0.2-1.2-0.4
		c-0.3-0.2-0.6-0.5-0.9-0.8c-0.5-0.6-0.9-1.2-1.8-1.4c-0.5-0.1-0.8-0.8-1.2-1.3c-0.9-1.2-1.1-1.3-2.5-0.9c-2.3,0.7-4.7,1.4-7.2,1.2
		c-0.2,0-0.3,0.1-0.5,0.1c0.1,0.1,0.2,0.3,0.3,0.4c1.1,1.4,1.7,3,1.7,4.7c0,1,0,1.9,0,2.9c-0.1,1-0.7,1.3-1.6,0.8
		c-0.5-0.2-0.9-0.6-1.3-0.9c-2.2-1.9-3.7-4.3-5.3-6.7c-0.9-1.4-2.2-2.3-3.8-2.7c-1.3-0.3-2.7-0.6-4-0.9c-2.1-0.4-4.3-0.5-6.3-1.1
		C8.5,22,5.7,21.7,3.4,20c-1-0.7-1.9-1.4-2.8-2.2c-0.2-0.2-0.5-0.4-0.5-0.7C0,16.8,0,16.4,0.1,16c0-0.1,0.6-0.1,0.9,0
		c0.3,0.1,0.5,0.3,0.8,0.4c0.1,0,0.3,0,0.5,0c-0.1-0.1-0.1-0.2-0.2-0.3c-0.4-0.4-0.8-0.8-1.2-1.2c0.5-0.4,1-0.8,1.5-1.2
		c1.3-1,3-1,4.5-1.5c3.2-1.2,6.5-2.2,9.9-3.1c2.3-0.6,4.6-1.5,7-1.7c0.6,0,0.8-0.5,1-0.9c0.4-0.9,0.7-1.9,1.2-2.8
		c0.2-0.4,0.5-0.7,0.9-0.2c0.4,0.5,0.4-0.2,0.5-0.3c0.8-0.9,1.6-1.8,2.4-2.7c0.3-0.3,0.8-0.2,0.7,0.2c-0.2,0.8,0.3,0.7,0.6,0.5
		c0.5-0.2,0.9-0.6,1.3-0.9c0.6-0.5,1-0.5,1.4,0.2C33.9,0.7,34,0.9,34,1.2c0.1,0.5,0.3,0.3,0.6,0.2c1-0.5,1.1-0.4,1.3,0.6
		c0.1,0.5,0,1,0.8,0.6c0.1-0.1,0.5,0.2,0.7,0.4c0.3,0.5,0.5,1.1,1.3,0.8c0,0,0.1,0,0.2,0.1c0.4,1.3,2,1.3,2.6,2.5
		c0.5,1,1.6,1.9,3,1.8c0.4,0,0.8-0.1,1.2-0.2c1.8-0.8,3.6-1.7,5.4-2.6c2.6-1.3,5-0.3,5.7,2.5c0.3,1,0.6,1.9,0.9,2.9
		c0.1,0.4,0.2,0.9,0.2,1.4c-0.1,1.4-0.1,1.4,1.3,1.5c0.1,0,0.2,0,0.4,0C59.5,13.6,59.5,13.6,59.5,13.7z"/>
	<path d="M23.6,12.4c0.1-0.1,0.1-0.2,0.2-0.3c1.3-0.3,2.5-0.6,3.8-0.8c1.5-0.2,3.1-0.4,4.6-0.4c2.2-0.1,4.4,0.4,6.5,0.9
		c2.4,0.5,4.8,1,7,1.9c1.8,0.7,3.7,1.3,5.5,2c1.4,0.6,2.8,0.8,4.3,0.8c2,0,4,0,5.9,0c0.4,0,0.8,0,1.3,0.1c0.1,0,0.2,0.2,0.2,0.2
		c0,0.1-0.1,0.4-0.2,0.4c-0.4,0.1-0.8,0.1-1.2,0.1c-1.9,0-3.7,0-5.6,0c-2.3,0.1-4.5-0.4-6.6-1.4c-3.7-1.6-7.4-2.8-11.4-3.7
		c-1.9-0.4-3.9-0.8-5.8-0.7c-1.4,0.1-2.8,0.3-4.2,0.5C26.5,12.5,25.1,13,23.6,12.4C23.6,12.5,23.6,12.4,23.6,12.4z"/>
	<path d="M15,20.2c0,0-0.2-0.2-0.3-0.3c0.1-0.1,0.2-0.3,0.4-0.3c1.2-0.3,1.6-1,1.7-2.2c0.1-1.2,0.2-2.4,0.4-3.6
		c0-0.2,0.3-0.4,0.5-0.6c0.1,0.2,0.4,0.4,0.4,0.7c0,0.8-0.2,1.5-0.1,2.3c0.1,1.2-0.5,2.2-0.9,3.2C16.7,20.1,16,20.5,15,20.2z"/>
</g>
</svg>
