<?xml version="1.0" encoding="iso-8859-1"?>
<!-- Generator: Adobe Illustrator 25.3.0, SVG Export Plug-In . SVG Version: 6.00 Build 0)  -->
<svg version="1.1" id="Calque_1" xmlns="http://www.w3.org/2000/svg" xmlns:xlink="http://www.w3.org/1999/xlink" x="0px" y="0px"
	 viewBox="0 0 89.1 23.8" style="enable-background:new 0 0 89.1 23.8;" xml:space="preserve">
<g>
	<path d="M2.8,14.9c-0.8,0-1.6,0-2.3,0c-0.2,0-0.3-0.3-0.5-0.4c0.1-0.1,0.3-0.2,0.4-0.2c1.2-0.1,2.4-0.3,3.5-0.3c1,0,2-0.1,3-0.6
		c2.2-1,4.4-2.1,6.6-3.2c0.4-0.2,0.8-0.3,1.2-0.4c0.5-0.3,1.2-0.5,1.5-0.9c1.4-1.8,3.5-2.2,5.6-2.5c0.7-0.1,1.5,0,2.3,0
		c1.5,0.1,3-0.4,4.6,0c0.6,0.1,1.1-0.2,1.6-0.7c0.8-0.9,1.7-1.7,2.5-2.5c0.5-0.5,0.9-1.3,1.9-0.9c0.1,0,0.3-0.1,0.5-0.2
		c0.8-0.4,1.3-1.1,2.2-1.2c0.8-0.1,1.6-0.5,2.3-0.7c0.2,0,0.5-0.2,0.5-0.1c0.6,0.9,1.3,0.3,1.9,0.1C42.9,0,42.6,1.3,43.4,1
		c0,0.3,0,0.5,0,0.7c-0.1,0.4-0.6,0.7,0.1,1c0.1,0,0,0.4-0.1,0.6c-0.4,0.6-0.7,1.2-0.8,2c0,0.4-0.3,0.8-0.5,1.2
		c0.7,0.2,0.9-0.4,1.2-0.8c0.7-0.6,1.3-1.3,2.4-1.3c0.5,0,1.2-0.7,1.6-0.6c1.4,0.3,2.6-0.3,4-0.1C54,4.2,56.5,4.3,59,5.3
		c0.5,0.2,1.1,0.4,1.6,0.7c2.3,1.1,4.7,1.9,6.8,3.4c0.3,0.2,0.6,0.3,1,0.4c1.3,0.2,2.1,1.3,3.2,1.7c0.1,0,0.3,0.3,0.2,0.4
		c-0.5,0.9,0.1,0.6,0.6,0.7c2.2,0.4,4.4,0.2,6.5-0.5c2.3-0.8,4.5-1.4,6.8-2.2c0.2-0.1,0.5-0.2,0.7-0.2c0.7-0.1,1.6-0.4,2-0.1
		c0.7,0.5-0.1,1.3-0.3,1.9c-0.4,1.6-0.6,3.1,0.4,4.6c0.2,0.3,0.3,0.7,0.4,1c0.3,0.6,0,0.8-0.5,0.8c-1.2-0.1-2.4-0.2-3.5-0.4
		c-2.4-0.5-4.7-1.3-7-2.2C77.4,15,76.8,15,76.2,15c-0.5,0-1.1,0-1.6,0c-0.3,0-0.5,0.2-0.8,0.3c0.1,0.2,0.2,0.5,0.4,0.7
		c0.5,0.5,0.6,0.7-0.2,1.1c-1.2,0.7-2.5,1.1-3.6,1.7c-1.2,0.7-2.6,0.9-3.9,1.6c-0.6,0.3-1.3,0.5-2,0.5c-1.8,0.2-3.4,1-5.1,1.3
		c-2.5,0.5-4.9,1.2-7.5,1.2c-1.5,0-2.9-0.4-4.3-0.9c-0.4-0.1-0.6-0.5-1-0.8c-0.2-0.2-0.6-0.5-0.7-0.4c-1.1,0.4-1.4-0.5-1.8-1
		c-0.4-0.5-0.7-1-1-1.5c-0.3-0.5-0.6-0.5-1.1-0.4c-0.5,0.1-0.7,0.4-0.7,0.9c0,2.1-1.5,3.1-2.9,4.2c-0.3,0.2-0.9,0.3-1.3,0.1
		c-3.3-1.2-6.7-2.2-9.4-4.6c-1-0.9-2.4-0.9-3.7-0.8c-2,0.1-4,0.4-6-0.3c-0.9-0.3-1.8-0.4-2.6,0.1c-0.1,0.1-0.2,0.3-0.3,0.4
		c0.2,0.1,0.3,0.2,0.4,0.1c0.6-0.3,1.1-0.3,1.3,0.5c0.1,0.2,1.1,0,1.5-0.2c0.2-0.1,0.6-0.1,0.8,0.1c0.5,0.6,0.8,0.9,1.5,0.8
		c0.1,0,0.3-0.2,0.3-0.1c1.3,0.6,2.8,0.7,3.9,1.7c0.1,0.1,0.1,0.2,0.1,0.3c-0.1,0-0.2,0.1-0.3,0.1c-1-0.6-2.1-0.6-3.2-0.9
		c-0.5-0.1-0.7,0.2-1.1,0.1c-0.4,0-0.7-0.3-1.1-0.3c-1.1-0.1-2.1-0.2-3.1-0.8c-0.8-0.5-0.6,0.1-0.5,0.5c0,0.1,0,0.3-0.1,0.4
		c-0.1-0.1-0.3-0.2-0.4-0.3c-0.2-0.3-0.3-0.8-0.5-0.9c-1.1-0.3-2-1-3-1.5c-0.1-0.1-0.3-0.1-0.3,0c-0.8,1-1.5,0.1-2.2-0.1
		c-0.9-0.2-1-0.4-0.8-1.2c0.1-0.3,0.3-0.5,0.3-0.8c0-0.1-0.2-0.4-0.3-0.4c-0.4-0.1-0.8,0-1.3,0c-0.4,0-0.7,0-1.1-0.1
		C5.8,15.4,5.4,15,5,15C4.3,14.9,3.6,14.9,2.8,14.9C2.8,14.9,2.8,14.9,2.8,14.9z"/>
	<path d="M26.8,8.5c-0.2,1.4,0.2,2.7,1.1,3.8c0.2,0.2,0.6,0.5-0.1,0.7c-0.3,0.1-0.6,0.6-0.9,0c-0.1-0.3-0.3-0.5-0.4-0.8
		c-0.6-1-1-2.1-0.4-3.3C26.3,8.7,26.6,8.6,26.8,8.5z"/>
	<path d="M55.2,13.2c-0.4,0.2-0.6,0.3-0.7,0.3c-0.2,0-0.4-0.1-0.6-0.2c0.1-0.1,0.2-0.4,0.4-0.4C54.4,12.8,54.6,13,55.2,13.2z"/>
	<path d="M71.4,13.5c-0.1,0.2-0.1,0.6-0.2,0.6c-0.2,0-0.5-0.1-0.7-0.2c0.1-0.1,0.3-0.3,0.5-0.4C71.1,13.4,71.3,13.5,71.4,13.5
		L71.4,13.5z"/>
	<path d="M33.3,11.2c-0.2-0.2-0.4-0.3-0.5-0.4c0.3-0.1,0.5-0.3,0.8-0.4c0.1,0,0.2,0.2,0.4,0.3C33.7,10.8,33.5,11,33.3,11.2z"/>
	<path d="M29.9,15.9c0-0.1,0-0.3,0.1-0.4c0.2-0.4,0.5-0.8,0.7-1.2c0.2-0.2,0.4-0.4,0.6-0.6c0,0.3,0.2,0.7,0.1,0.9
		c-0.3,0.5-0.8,0.9-1.2,1.3C30.2,16,30.1,15.9,29.9,15.9z"/>
	<path d="M20.7,11.7c0.2,0.1,0.4,0.2,0.5,0.2c-0.2,0.1-0.3,0.2-0.5,0.2c-0.5,0.1-1,0.3-1.5,0.4c-0.3,0-0.5,0-0.8,0
		c0.2-0.1,0.4-0.3,0.6-0.4C19.6,11.9,20.1,11.8,20.7,11.7z"/>
</g>
</svg>
