<?xml version="1.0" encoding="iso-8859-1"?>
<!-- Generator: Adobe Illustrator 25.3.0, SVG Export Plug-In . SVG Version: 6.00 Build 0)  -->
<svg version="1.1" id="Calque_1" xmlns="http://www.w3.org/2000/svg" xmlns:xlink="http://www.w3.org/1999/xlink" x="0px" y="0px"
	 viewBox="0 0 234.1 116.4" style="enable-background:new 0 0 234.1 116.4;" xml:space="preserve">
<g>
	<path d="M218.7,90.6c-6.6-1.5-13.2-1.5-19.1-4.4c-3.9-1.9-7.9-3.5-11.8-5.4c-4.7-2.3-9.4-1.2-14.1-0.3c-0.3,0.1-0.6,0.2-0.9,0.3
		c0.4,0.2,0.8,0.5,1.2,0.4c4.7-1.2,6.9,3.1,10.3,4.8c0.9,0.4,0.8,2.4,1.4,3.6c0.9,1.8,0,2.3-1.4,2.9c-1.6,0.7-1.2,2.1-0.7,3.4
		c0.3,0.7,1,1.5,0.9,2.1c-0.4,2-4.3,0.6-3.8,3c0.6,2.8-1.5,2.6-2.7,3.2c-1.2,0.5-2.8,0.6-2.8,2.3c-0.1,2.6-1,2.6-3.5,2.3
		c-4-0.5-8-2.4-12.2-0.5c-0.8,0.3-2,0.1-2.9-0.3c-3.8-1.5-6.5,0-8.4,3.2c-1,1.8-2.1,1.8-3.6,1c-2.7-1.6-5.5-3.1-8.2-4.6
		c-1.5-0.9-2.8-1.4-4.4,0.3c-2.2,2.2-3.2,2.1-5.2-0.2c-1.8-2.1-3.2-4.6-5-6.8c-2.1-2.6-3.3-2.9-6-1.7c-0.7,0.3-1.5,0.5-1,1.8
		c0.5,1.2,0.6,2.5,1,3.8c0.4,1.2,1.5,2.7,1.1,3.6c-0.7,1.5-2.1,3-3.6,3.9c-1.4,0.8-3.4,0.7-2.5,3.2c0,0.1-1.3,1.1-1.9,1
		c-3.1-0.3-6.3-0.7-9.3-1.3c-4.9-1-9.3-3.1-13.3-6.2c-2.6-2-6.1-3.3-9.3-4.3c-10.2-2.9-20.4-5.6-30.7-8.3c-2.1-0.5-4.2-0.6-6.3-0.9
		c-1.8-0.3-3.8-0.3-5.2-1.2c-4-2.7-8.6-3.1-13.2-3.8c-2-0.3-3.9-0.8-5.8-1.2c-0.8-0.2-1.7-0.6-2.4-0.4c-4.9,1.4-8.3-1.6-11.6-4.3
		c-2.8-2.2-2.2-4.4,1-6.2c1.2-0.7,2.4-1.3,3.6-1.9c-0.9-1-1.8-1.9-2.7-2.9c-2.6-2.9-2.2-4.8,0.3-7.7c3.4-3.9,7.7-6.3,12.3-8.1
		c6.1-2.4,10.6-6.8,15.4-10.8c4.5-3.7,8.9-7.5,13.3-11.3c0.7-0.6,1.6-1.4,1.9-2.2c1.6-4.2,4-8.1,4.1-12.7c0-0.7,0-1.4,0.3-1.9
		c1.7-3.9,3.4-7.9,5.3-11.7c1.4-2.9,1.8-3.1,5.1-2.2c2.1,0.6,3.6,0,5.1-1c0.8-0.5,1.5-1.4,2.3-1.9c2-1.4,3.9-2,6.7-1.8
		C81.7,0.5,87,1.5,92.3,3.8c3,1.3,6.4,1.4,9.7,2.1c3.9,0.8,7.7,2,10.8,4.6c0.4,0.3,0.8,0.7,1.3,0.7c7.4,0.8,13.8,4.1,20.3,7.3
		c0.7,0.4,1.5,0.7,2.3,0.8c6.4,1.1,12.5,3.3,18.3,6.1c2.7,1.3,5.4,1.3,8.2,0.5c5.9-1.6,11.8,0.3,16.3,5.1c0.4,0.4,1,0.8,1.6,0.9
		c1.8,0.2,2.6,0.6,2.7,3c0.1,1.7,2.5,3.6,4.2,4.9c1.7,1.2,0.9,3.1,1.8,4.2c1.1,1.4,1.7,2.4,0.6,3.9c-0.1,0.2,0,0.6,0,0.9
		c0.4-0.1,0.9-0.1,1.2-0.4c6.1-5.7,13.8-8.5,21-12.1c0.3-0.1,0.6-0.3,0.9-0.4c0.3-0.1,0.9-0.1,0.9,0.1c1.4,3.2,5.3,0.1,6.9,2.9
		c0.4,0.7,1.5,1.1,2.3,1.7c0.5,0.4,1.4,1,1.3,1.2c-1.2,3,0.8,4.1,2.8,5.5c0.4,0.3,0.5,1.2,0.4,1.8c-0.2,2,0.4,3.5,1.9,4.9
		c0.5,0.5,0.5,1.7,0.7,2.6c0.2,0.9,0.2,2.2,0.8,2.5c1.9,1.2,1.9,2.4,0.9,4.1c-0.3,0.5-0.2,1.4,0.1,1.9c1,1.5,2.5,2.9,0.3,4.6
		c1.9,2.7,1.1,4.9-1.3,6.8c0,0,1,1.5,1.7,2.1c1.1,1,1.5,2.4,0.1,2.7c-2.8,0.6-3.2,2.8-3.7,4.8c-0.4,1.7-1.3,2.6-2.9,2.9
		C223.9,89.4,221.2,90.1,218.7,90.6z"/>
	<path d="M186.1,41.4c0.2,1.5-0.8,1.8-2,2.2c-5.8,1.9-11.5,3.8-17.2,5.8c-1.3,0.5-2.5,1.3-3.8,2c-1.7,0.8-3.3,1.6-5,2.4
		c-0.2,0.1-0.7-0.3-1.1-0.5c0.1-0.5,0.2-1,0.5-1.4c0.1-0.3,0.5-0.4,0.8-0.6C167.2,47.2,176.4,43.6,186.1,41.4z"/>
	<path d="M190.1,57.3c-0.3-0.5-0.9-1.3-0.7-1.4c1.1-1.3,2.1-2.7,3.4-3.6c6.5-4,13.1-7.8,19.7-11.6c0.3-0.2,0.6-0.3,0.9-0.3
		c0.3,0,0.9,0.2,0.9,0.3c0,0.4,0,1-0.3,1.1c-4.2,2.4-8.4,4.6-12.6,7c-1.2,0.7-2.3,1.8-3.4,2.7c-1.8,1.2-3.7,2.4-5.4,3.7
		C191.7,55.8,190.9,56.6,190.1,57.3z"/>
	<path d="M37.3,50.4c1.3,0.1,2.3-0.3,2.1,1.8c-0.1,1.7,1.2,3.6,1.9,5.4c0.1,0.1,0.6,0.3,0.7,0.2c0.3-0.1,0.6-0.5,0.6-0.7
		c-0.1-0.9-0.4-1.9-0.5-2.8c0-0.4,0.3-0.9,0.4-1.3c0.4,0.3,0.9,0.5,1.1,0.9c1.2,3-0.1,5.9-3.2,7.3c-3.6,1.6-7.7,0.2-9.2-3.5
		c-0.8-1.8,0.6-0.9,1.5-1.1c0.9-0.2,1.4-2,2.1-3c0.5-0.6,2.2,0.1,1.6-1.5c0-0.1-1.7,0.3-2.5,0.6c-0.6,0.2-1.1,0.8-1.6,1.1
		c-0.2,0.1-0.5,0.1-0.8,0.1c0.1-0.4-0.1-1,0.2-1.3C33.3,50.9,35.2,50.1,37.3,50.4z"/>
	<path d="M84,3.4c-1.4,3.2-2.3,6.6-4.2,9.4c-3.2,4.7-4.3,10-5.7,15.2c-0.4,1.8-0.8,3.6-1.3,5.3c-0.1,0.3-0.7,0.5-1.1,0.7
		c-0.2-0.4-0.8-0.9-0.7-1.2c1.3-5,2.2-10.1,4.1-14.8C77.1,13.4,80,9,82.5,4.5C82.8,4,83.5,3.8,84,3.4L84,3.4z"/>
	<path d="M104.3,37.2c-0.3,0-0.5,0-0.5-0.1c-0.1-0.2-0.3-0.6-0.2-0.8c0.5-1.2,1.1-2.4,1.8-3.5c3.7-5.9,8.5-10.9,13.6-15.7
		c0.4-0.3,1.1-0.3,1.7-0.4c-0.2,0.5-0.4,1.1-0.7,1.6c-0.8,1.1-1.5,2.2-2.4,3.1c-4.7,4.5-9,9.2-12.3,14.8
		C105,36.6,104.6,36.9,104.3,37.2z"/>
	<path d="M148.4,26.2c0.1,0.3,0.2,0.6,0.2,0.6c-0.2,0.2-0.5,0.5-0.7,0.6c-6.6,3.4-11.9,8.3-17,13.6c-0.9,0.9-2.1,1.6-3.1,2.3
		c-0.2,0.1-0.7-0.1-0.9-0.3c-0.1-0.2-0.2-0.7,0-0.8c6.3-6.1,12.5-12.3,20.4-16.3C147.5,25.8,148.1,26.1,148.4,26.2z"/>
	<path d="M114.1,13.4c0.4,0.9,0.8,1.7-0.2,2.6c-5.6,5.7-10.5,12-14.2,19.1c-0.2,0.3-0.4,0.6-0.6,0.7c-0.2,0.2-0.6,0.2-0.9,0.4
		c-0.1-0.4-0.5-0.9-0.4-1.1c1.7-2.9,3.2-5.9,5.2-8.5C106.5,22.1,110.3,17.8,114.1,13.4L114.1,13.4z"/>
	<path d="M122.1,41.4c-0.3-0.6-0.8-1.1-0.7-1.3c0.9-1.4,1.7-3,2.9-4c5.3-4.2,10.7-8.3,16.2-12.3c0.3-0.2,0.8,0,1.3,0.1
		c-0.1,0.4,0,1-0.3,1.2c-3.1,2.3-6.1,4.5-9.3,6.6c-3.3,2.3-6.3,4.8-8.5,8.3C123.4,40.5,122.7,40.9,122.1,41.4z"/>
	<path d="M129.1,18.4c-0.2,0.4-0.4,1-0.8,1.3c-5.1,4.8-10.1,9.5-15.3,14.2c-0.3,0.3-0.9,0.2-1.3,0.3c0-0.3-0.2-0.7-0.1-0.8
		c4.7-6,10.3-11,16.9-14.9C128.7,18.3,128.9,18.4,129.1,18.4C129.1,18.4,129.1,18.4,129.1,18.4z"/>
	<path d="M89.4,28.6c0.2,0.4,0.6,0.9,0.5,1.2c-0.6,1.8-1.3,3.6-2.1,5.4c-0.1,0.3-0.8,0.4-1.2,0.6c-0.1-0.3-0.3-0.6-0.2-0.9
		c0.7-2,1.4-3.9,2.1-5.9C88.5,28.9,88.9,28.8,89.4,28.6z"/>
	<path d="M96.1,29.6c-0.7,1.7-1.5,3.5-2.3,5.2c-0.1,0.2-0.6,0.3-0.8,0.3c-0.2,0-0.4-0.6-0.3-0.8c0.7-1.8,1.5-3.6,2.3-5.4
		c0-0.1,0.5,0,0.8,0C95.8,29,95.9,29.3,96.1,29.6z"/>
	<path d="M120,96.3c1-1.5,2-2.9,3-4.4c0.1-0.1,0.7-0.1,0.8,0c0.2,0.2,0.3,0.7,0.1,0.9c-1.2,1.2-1.5,3.5-3.7,3.7L120,96.3z"/>
	<path d="M110,35.6c0.5,0.5,0.9,0.7,0.9,0.8c-0.5,1-1,1.9-1.6,2.8c0,0.1-0.5-0.1-0.8-0.2C109,37.9,109.5,36.8,110,35.6z"/>
	<path d="M168.6,85.5c2.3-0.2,4.5-0.5,6.8-0.7c0.3,0,0.8,0.5,1.1,0.8c0,0-0.2,0.6-0.4,0.7c-4.3,1.1-8.7,1.4-13.2,0.8
		c-0.5-0.1-0.9-0.8-1.4-1.2c0.5-0.2,1.1-0.6,1.6-0.6c1.8-0.1,3.6,0,5.4,0C168.6,85.4,168.6,85.5,168.6,85.5z"/>
	<path d="M176.4,31.6c-0.6,1-0.8,1.5-1.2,1.7c-3,1.7-6,3.5-9.1,5.1c-6.3,3.2-12.7,6.4-19,9.5c-0.5,0.2-1.2,0-1.7,0
		c0.3-0.4,0.5-0.9,0.8-1.2c0.8-0.6,1.6-1.2,2.5-1.6c8.3-4.4,16.7-8.7,25.1-13C174.3,31.8,175.1,31.8,176.4,31.6z"/>
	<path d="M154.1,52.4c0-0.7-0.2-1.8,0.1-2c1.7-1.2,3.6-2.2,5.4-3.3c1.5-0.9,3-1.8,4.5-2.7c3.6-1.1,7.2-2.2,10.7-3.4
		c2.2-0.7,4.3-1.7,6.4-2.5c0.4-0.1,0.9,0.2,1.3,0.4c-0.2,0.4-0.4,1-0.7,1.1c-2.5,1.2-5.1,2.3-7.7,3.4c-3.5,1.4-7.2,2.4-10.6,4
		C160.3,48.7,157.2,50.7,154.1,52.4z"/>
</g>
</svg>
