<?xml version="1.0" encoding="iso-8859-1"?>
<!-- Generator: Adobe Illustrator 25.3.0, SVG Export Plug-In . SVG Version: 6.00 Build 0)  -->
<svg version="1.1" id="Calque_1" xmlns="http://www.w3.org/2000/svg" xmlns:xlink="http://www.w3.org/1999/xlink" x="0px" y="0px"
	 viewBox="0 0 79.9 10.4" style="enable-background:new 0 0 79.9 10.4;" xml:space="preserve">
<g>
	<path d="M18.6,0.3c2.5,0.3,5.1,0.7,7.6,0.8c2.3,0.1,4.7-0.1,7-0.1c1.5,0,3-0.1,4.5-0.1c1.1,0,2.3,0,3.4,0c1.1,0,2.2-0.1,3.4-0.4
		C46.4-0.1,48.3-0.3,50,1c2.4,1.8,5.1,2,7.9,1.4c1.5-0.3,3.1-0.5,4.4-1.3c0.9-0.5,1.6,0,2.3,0.5c1.6,1.1,3,2.5,4.9,3.2
		c0.9,0.3,1.9,0.6,2.9,1c0.9,0.3,1.8,0.5,2.8,0.5c1-0.1,2.1,0.3,3.2,0.5C78.7,6.8,79,7,79.3,7.2C80,7.7,80,8.4,79.9,9.1
		c-0.1,0.7-0.8,1-1.3,1c-1.2,0-2.4,0.1-3.6-0.2c-2.7-0.5-5.4-0.9-8.2-0.9c-3-0.1-6.1-0.5-9.1-0.6c-2.3-0.1-4.7,0-7-0.1
		c-2.5-0.1-5-0.3-7.5-0.3c-1.6,0-3.2,0.1-4.8,0.4c-2.8,0.5-5.6,0.3-8.4,0.2C28.5,8.6,27,8.2,25.5,8c-2.2-0.3-4.4-0.7-6.6-0.7
		c-2,0-4,0.4-6,0.8C11,8.5,9.1,9,7.5,10.3c0,0-0.1,0.1-0.2,0.1c-2,0-4.1,0.2-6.1,0C-0.2,10.1-0.4,8,0.7,7c0.9-0.7,1.9-1.4,2.9-2
		c0.2-0.2,0.6-0.2,0.8-0.4C5.4,3.4,6.8,3.2,8,2.7c1.7-0.6,3.4-1,5.1-1.6C14.9,0.4,16.7,0.4,18.6,0.3z"/>
	<path d="M8.3,6C8.1,6.2,7.9,6.4,7.7,6.7c-0.3-0.3-0.7-0.6-0.8-1C6.8,5.5,7.2,4.9,7.5,4.8C8,4.8,8.2,5.3,8.3,6z"/>
	<path d="M14,5.4c0,0-0.1-0.1-0.3-0.2C13.9,5,14,4.8,14.2,4.7c0.3-0.1,0.7-0.2,1-0.2c0.2,0,0.4,0.2,0.6,0.4
		c-0.1,0.2-0.2,0.4-0.4,0.5C15,5.4,14.6,5.4,14,5.4z"/>
	<path d="M17.3,5.2c0,0-0.4,0-0.8,0c-0.1,0-0.2-0.4-0.3-0.6c0-0.1,0.3-0.3,0.4-0.3c0.5,0.1,0.9,0.2,1.4,0.3c0.2,0.1,0.3,0.3,0.4,0.4
		c-0.2,0.1-0.4,0.2-0.6,0.3C17.8,5.4,17.7,5.4,17.3,5.2z"/>
	<path d="M12.6,4.7c-0.1,0,0.1,0,0.3,0.1c0.1,0,0.2,0.2,0.2,0.3c0,0.1-0.1,0.3-0.1,0.3c-0.5,0.1-0.9,0.3-1.4,0.3
		c-0.2,0-0.4-0.2-0.5-0.4c0-0.1,0.2-0.4,0.4-0.4C11.8,4.7,12,4.7,12.6,4.7z"/>
	<path d="M10.9,5.2c-0.3,0.3-0.5,0.5-0.7,0.6c-0.1,0-0.3-0.2-0.5-0.3C9.9,5.2,10,5,10.3,4.8C10.3,4.8,10.6,5,10.9,5.2z"/>
</g>
</svg>
