<?xml version="1.0" encoding="iso-8859-1"?>
<!-- Generator: Adobe Illustrator 25.3.0, SVG Export Plug-In . SVG Version: 6.00 Build 0)  -->
<svg version="1.1" id="Calque_1" xmlns="http://www.w3.org/2000/svg" xmlns:xlink="http://www.w3.org/1999/xlink" x="0px" y="0px"
	 viewBox="0 0 85.5 12.5" style="enable-background:new 0 0 85.5 12.5;" xml:space="preserve">
<g>
	<path d="M55.4,12.1c-2.2,0.1-4.4,0.4-6.6,0.4c-3,0-5.9-0.1-8.9-0.2c-2,0-4.1-0.2-6.1-0.1c-1.8,0-3.6-0.2-5.3-0.7
		c-0.6-0.2-1.1-0.2-1.7,0c-3,1-6,0.9-9,0.4c-1-0.1-2-0.3-3-0.4c-0.2,0-0.5,0-0.5,0.1c-0.5,1-1.1,0.4-1.6,0.1c-1-0.7-2.2-0.8-3.3-0.5
		c-2.3,0.7-4.6,0.1-6.9-0.2C1.5,10.9,0.3,10.3,0,9c-0.2-1.3,0.8-2,1.7-2.5c1.8-1.2,3.9-1.9,6-2.6C8.3,3.7,8.9,3.4,9.4,3
		c0.8-0.8,1.7-1.1,2.7-1.4c3.1-0.9,6.1-1.3,9.3-1.3C25.2,0.3,29,0,32.8,0c3.1,0,6.3,0.5,9.4,0.6c2.2,0.1,4.4,0,6.7,0.1
		c1.9,0.1,3.8,0.4,5.7,0.6c0.5,0,1,0.1,1.4,0.1c2.1,0.2,4.3,0.4,6.4,0.6C63,2.1,63.5,2.2,64,2.1c2.3-0.1,4.6,0.3,6.9,0.6
		c1.8,0.3,3.6,0.3,5.3,0.4c2.2,0.1,4.4,0.1,6.6,0.7c0.5,0.1,1,0.4,1.5,0.6c0.7,0.3,1.2,0.8,1.1,1.6c-0.1,0.9-0.5,1.4-1.4,1.7
		c-0.3,0.1-0.6,0.1-0.9,0.2c-2.1,0.6-4.2,1.2-6.4,1.7c-3.5,0.8-7.1,1.7-10.7,1.9c-3.6,0.2-7.1,0.6-10.7,0.9
		C55.5,12.3,55.4,12.2,55.4,12.1z"/>
	<path d="M27.1,8.9C28.2,8.7,28.6,8,28.7,7c0.1-0.7,0.2-1.3,0.3-2c0-0.3-0.4-0.7,0.2-0.8c0.1,0,0.4,0.6,0.4,0.8
		c-0.1,1.1-0.2,2.2-0.4,3.3C28.9,9.2,28.2,9.4,27.1,8.9L27.1,8.9z"/>
	<path d="M16,8.2c0.5,0.1,1.1,0.2,1.6,0.3c0.2,0.1,0.4,0.3,0.6,0.4c-0.3,0.1-0.5,0.3-0.8,0.3c-0.7,0.1-1.3-0.6-2.1-0.1
		c0,0-0.3-0.3-0.4-0.5c0.2-0.1,0.3-0.2,0.5-0.2C15.6,8.4,15.8,8.3,16,8.2z"/>
	<path d="M46.5,4c0.1,0.1,0.4,0.1,0.4,0.2c0.2,0.7,0.4,1.4,0.6,2.1c0,0.1-0.1,0.3-0.2,0.2c-0.1,0-0.2-0.1-0.3-0.2
		c-0.4-0.7-0.1-1.6-0.9-2.2C46.3,4.2,46.4,4.1,46.5,4z"/>
	<path d="M43.6,7.8c-0.3,0.5-0.4,1,0.3,1.3c0,0,0,0.2-0.1,0.3c-0.1,0.1-0.2,0.1-0.3,0c-0.9-0.4-1.1-1.3-0.5-2.1
		c0-0.1,0.2-0.1,0.3-0.1c0,0,0.1,0.1,0.1,0.1C43.6,7.5,43.6,7.7,43.6,7.8z"/>
	<path d="M32.7,8.3c-0.4-0.2-0.7-0.3-1.1-0.5c-0.2-0.1-0.3-0.3-0.4-0.5c0.2,0,0.4,0,0.6,0c0.3,0.1,0.7,0.2,1,0.3
		c0.2,0.1,0.4,0.2,0.6,0.3C33.2,8.1,33,8.2,32.7,8.3z"/>
	<path d="M39.7,8.2c-0.2,0.2-0.3,0.6-0.5,0.6c-0.4-0.1-0.8-0.3-1.1-0.5c-0.2-0.1-0.4-0.4-0.5-0.6c0.3,0,0.5-0.1,0.8,0
		C38.8,7.9,39.2,8.1,39.7,8.2C39.6,8.2,39.7,8.2,39.7,8.2z"/>
	<path d="M26,7.9c-0.2-0.1-0.6-0.2-0.7-0.4c-0.1-0.5-0.1-0.9,0-1.4c0-0.4,0.1-0.8,0.1-1.2c0.1,0.4,0.1,0.7,0.2,1.1
		C25.7,6.6,25.9,7.2,26,7.9C26,7.9,26,7.9,26,7.9z"/>
	<path d="M39.6,8.2c0.5-0.5,0.9-1,1.4-1.6c0.1-0.1,0.2-0.2,0.3-0.4c0.1,0.2,0.2,0.5,0.2,0.7C41.3,7.9,40.6,8.3,39.6,8.2
		C39.7,8.2,39.6,8.2,39.6,8.2z"/>
	<path d="M21.4,10.6c-0.2-0.1-0.3-0.1-0.4-0.2c0.1-0.1,0.1-0.3,0.2-0.4c0.3-0.1,0.7-0.2,1-0.3c0.1,0,0.3,0.1,0.4,0.2
		c-0.1,0.1-0.1,0.3-0.3,0.4C22.1,10.4,21.8,10.5,21.4,10.6z"/>
	<path d="M35.1,3.2c0.2,0.5,0.4,1,0.6,1.4c0,0.1-0.1,0.2-0.2,0.2C35.2,4.4,35,4,34.7,3.5C34.7,3.5,34.9,3.4,35.1,3.2z"/>
	<path d="M31.8,3.4c-0.2,0.3-0.4,0.6-0.7,0.8c0,0-0.2-0.1-0.3-0.1c0.2-0.4,0.4-0.7,0.7-1.1C31.6,3.1,31.7,3.2,31.8,3.4z"/>
	<path d="M19.1,5.6C19,5.7,19,5.9,18.9,5.9c-0.1,0-0.3-0.1-0.3-0.1C18.4,5.4,18,5,18.4,4.6c0,0,0.1-0.1,0.1-0.1
		C18.7,4.9,18.9,5.2,19.1,5.6z"/>
	<path d="M26,7.9c0.7,0,1.1,0.4,1.1,1L27,9C26.3,8.9,26,8.6,26,7.9L26,7.9z"/>
	<path d="M16.7,3.6c-0.3,0.1-0.6,0.2-1,0.3c0-0.1-0.1-0.3-0.1-0.4c0.3,0,0.6-0.1,1-0.1C16.7,3.3,16.7,3.4,16.7,3.6z"/>
	<path d="M40.7,3.9c0.5,0.4,0.7,0.9,0.7,1.5c0,0-0.1,0.1-0.1,0.1C41.1,5,40.9,4.5,40.7,3.9L40.7,3.9z"/>
	<path d="M67.7,8.1c-0.1,0.1-0.2,0.2-0.3,0.4C67.3,8.4,67,8.2,67,8.1c0-0.2,0.2-0.4,0.2-0.7C67.4,7.6,67.6,7.9,67.7,8.1z"/>
	<path d="M7,6.8c0.2-0.2,0.5-0.4,0.7-0.6c0.1,0.1,0.2,0.2,0.2,0.3C7.7,6.7,7.5,6.9,7.3,7.1C7.2,7,7.1,7,7,6.8z"/>
</g>
</svg>
