<?xml version="1.0" encoding="iso-8859-1"?>
<!-- Generator: Adobe Illustrator 25.3.0, SVG Export Plug-In . SVG Version: 6.00 Build 0)  -->
<svg version="1.1" id="Calque_1" xmlns="http://www.w3.org/2000/svg" xmlns:xlink="http://www.w3.org/1999/xlink" x="0px" y="0px"
	 viewBox="0 0 85.1 19.8" style="enable-background:new 0 0 85.1 19.8;" xml:space="preserve">
<g>
	<path d="M22.9,1.9c1.7,0,3.1,0,4.4,0c2.6,0,5.2,0.5,7.8,1C35.6,3,36.1,3,36.7,3c0.8,0.1,1.6,0.2,2.5,0.3c1,0.1,2,0,2.9-0.6
		c1.6-1,3.2-2,5-2.6c1-0.3,1.9-0.1,2.7,0.6c1.7,1.5,3.4,3,5,4.5c0.4,0.3,0.7,0.6,1.1,0.9C56,6.3,56.1,6.7,56,6.8
		c-0.5,0.4-0.3,0.6,0.1,0.7c1.2,0.2,2.4,0.4,3.5-0.2c0.8-0.5,1.6-0.3,2.4-0.3c0.2,0,0.5,0.1,0.6,0.3c1,0.9,1.3,1.1,2.4,1.1
		c1.4,0,2.9,0.1,4.3,0c1-0.1,2.1-0.4,3.1-0.7c1.6-0.4,3.2-0.9,4.8-1.2c2.2-0.4,4.3-0.7,6.5-0.6c0.2,0,0.4,0.1,0.7,0.2
		c-0.1,0.3-0.1,0.6-0.3,0.8c-1.2,0.9-2.3,1.8-3.5,2.7c-0.4,0.3-1,0.5-1.4,0.7c-0.1,0.1-0.2,0.2-0.3,0.3c0.1,0,0.3,0.1,0.4,0.1
		c2,0.7,3.9,1.7,5.5,3.1c0.1,0.1,0.2,0.3,0.3,0.4c-0.2,0.1-0.4,0.3-0.6,0.3c-3.4,0-6.9,0.1-10.3-0.9c-2.6-0.8-5.3-1.3-8.1-1.2
		c-2,0.1-3.9,0.2-5.9,0.3c-0.4,0-0.5,0.1-0.3,0.5c0.2,0.5-0.3,0.7-0.7,0.9c-2.2,0.6-3.9,2-5.6,3.3c-0.3,0.2-0.6,0.5-0.9,0.6
		c-1.1,0.6-1.7,0.5-2.6-0.3c-0.9-0.8-1.6-1.9-2.6-2.4c-1-0.5-2.4-0.3-3.5-0.6c-1.2-0.4-2.4-0.2-3.6-0.3c-0.1,0-0.3,0.1-0.4,0.1
		c0.1,0.1,0.2,0.3,0.3,0.4c0.4,0.4,0.8,0.7,1.1,1.2c0.5,0.7,0.7,1.5,0.5,2.3c-0.4,1.3-1.2,1.6-2.2,0.6c-1-1-2-2.1-2.9-3.1
		c-0.5-0.6-1-0.9-1.8-0.8c-1.4,0.1-2.8-0.1-4.1,0.1c-2,0.3-3.9,0.3-5.9,0.3c-0.2,0-0.4,0.1-0.4,0.2c0,0.1,0.1,0.3,0.2,0.5
		c0.3,0.3,0.6,0.6,0.9,0.9c0.3,0.4,0.6,0.9,0.7,1.4c0.2,0.9-0.5,1.4-1.3,1c-1-0.6-2-1.3-3-1.9c-0.2-0.2-0.5-0.4-0.6-0.6
		c-0.8-1.2-2-1.4-3.4-1.5c-3.5-0.2-7.2-0.3-10.5-1.5c-2.2-0.8-4.6-1.4-6.3-3.1c-0.6-0.6-1.4-1-1-2.2C0.3,8.4,0,7.7,0.5,7.3
		c0.5-0.4,1.2-1,1.8-1.1c2.2-0.4,4.1-1.4,6.2-2.2c2.3-0.8,4.8-1.4,7.2-1.9C18.2,1.7,20.8,2.1,22.9,1.9z"/>
	<path d="M15,8.4c-0.1-0.2-0.3-0.4-0.3-0.6c-0.1-0.5,0.1-1,0.6-1c0.3,0,0.8,0.4,1,0.8c0.2,0.5-0.2,0.7-0.6,0.9
		C15.5,8.4,15.3,8.4,15,8.4L15,8.4z"/>
	<path d="M62.2,11.3c-0.3,0.3-0.5,0.6-0.8,0.6c-0.2,0-0.6-0.2-0.6-0.4c-0.2-0.5,0.3-0.7,0.7-0.8C61.7,10.7,61.9,11.1,62.2,11.3z"/>
	<path d="M17.2,12c-0.2,0.2-0.4,0.5-0.7,0.7c-0.1,0.1-0.5-0.1-0.6-0.2c-0.1-0.1-0.1-0.5,0-0.6c0.1-0.2,0.4-0.3,0.6-0.2
		C16.7,11.6,17,11.8,17.2,12L17.2,12z"/>
	<path d="M28.1,13.3c0.4-1.2,0.8-1.6,2.2-1.6c0.7,0,1.5,0.2,2.2,0.3c0.7,0.1,1.3-0.6,2.1-0.3c0.3,0.1,0.6,0.1,0.7,0.5
		c0,0.2,0.1,0.4,0.2,0.6c0-0.2,0-0.5,0.1-0.7c0.1-0.2,0.5-0.4,0.6-0.3c0.2,0.1,0.5,0.5,0.4,0.7c-0.2,0.5-0.5,1.1-0.8,1.5
		c-0.1,0.1-0.4,0.2-0.6,0.2c-1.7-0.1-3.4-0.1-5.1,0.2c-0.5,0.1-1-0.2-1.7,0.1c-0.5,0.2-0.4-0.6-0.5-0.9C28,13.4,28,13.3,28.1,13.3z"
		/>
	<path d="M9.3,9.5c-0.7,0-1.4,0-2.2,0C6.7,8.9,6.8,8.3,6.9,7.7C7,7,7.5,6.6,8.3,6.5c0.7,0,1.2,0.2,1.3,0.9C9.8,8.1,9.8,8.8,9.3,9.5z
		"/>
</g>
</svg>
