<?xml version="1.0" encoding="iso-8859-1"?>
<!-- Generator: Adobe Illustrator 25.3.0, SVG Export Plug-In . SVG Version: 6.00 Build 0)  -->
<svg version="1.1" id="Calque_1" xmlns="http://www.w3.org/2000/svg" xmlns:xlink="http://www.w3.org/1999/xlink" x="0px" y="0px"
	 viewBox="0 0 84.8 29" style="enable-background:new 0 0 84.8 29;" xml:space="preserve">
<g>
	<path d="M35.5,9.4c1.2,0.2,2.3,0.3,3.4,0.4c1,0.1,1.3-0.1,1.5-1.2c0.4-2.8,1.2-5.3,3.4-7.2C43.9,1.2,44,1.1,44.1,1
		c2.2-1.4,2.7-1.5,3.2,1c0.3,1.6,0.8,3.2,1.2,4.8c0.3,1.1,0.3,2.2-0.5,3.2c-0.4,0.5-0.2,0.5,0.3,0.6c1.9,0.3,3.8,0.7,5.8,1
		c1.5,0.3,3,0.5,4.6,0.8c2,0.3,4,0.7,6,1c0.7,0.1,1.4,0.3,2.1,0.3c1.6,0.1,3.2,0,4.7-0.6c1.5-0.6,3.2-1.1,4.8-1.3
		c2.6-0.4,5.1-0.2,7.5,1.1c1.1,0.6,1.4,1.7,0.7,2.9c-0.4,0.7-0.9,1.4-1.4,2.1c-0.7,1.1-0.7,1.2,0.1,2.2c1.4,1.7,1.1,2.9-0.8,4
		c-3.8,2.2-7.4,1.6-11.1-0.3c-0.5-0.3-1-0.5-1.4-0.8c-1.7-1.3-3.6-1-5.5-1c-0.1,0-0.2,0-0.3,0.1c0.1,0.1,0.3,0.1,0.4,0.2
		c1.4,0.3,1.9,1.2,1.9,2.5c0,0.5,0.3,1,0.5,1.5c0.2,0.5,0,0.7-0.4,0.7c-1.8,0.1-3.4-0.5-4.9-1.4c-1.2-0.7-2.3-1.5-3.2-2.5
		c-1-1.1-2.2-1.3-3.5-1.4c-2.1-0.2-4.1-0.5-6.2-0.7c-0.1,0-0.1,0-0.2,0c-1.7-0.1-3.4-0.3-5.2-0.4c-0.7,0-1.3,0-2,0.1
		c-0.2,0-0.4,0.2-0.6,0.3c0.2,0.1,0.4,0.1,0.6,0.2c0.9,0.5,1.5,1.3,1.7,2.4c0.1,0.9,0.3,1.7,0.3,2.6c0.1,0.9,0,1.8,0.8,2.4
		c0.1,0.1,0,0.4,0,0.4C44,29,43.7,29.1,43.6,29c-1.5-0.9-3-1.7-4.3-2.8c-1.5-1.3-2.7-2.8-4-4.3c-0.5-0.5-0.9-0.9-1.7-0.9
		c-2.9,0-5.8,0.3-8.7,0.7c-1.4,0.2-2.7,0.3-4.1,0.4c-1.6,0.2-3.2,0.4-4.8,0.6c-1.5,0.2-3.1,0.3-4.6,0.4c-1.6,0.1-3.2,0.1-4.8,0.2
		c-2.2,0.1-4.3-0.8-6-2.4c-0.2-0.2-0.4-0.6-0.5-0.9c-0.4-1-0.1-1.6,0.9-2.2c3.8-2.3,8.1-3.5,12.2-4.9c3.1-1,6.3-1.6,9.5-2.2
		c3-0.5,6-0.9,9-1.1C33.1,9.7,34.3,9.5,35.5,9.4z"/>
	<path d="M28.2,15.6c0.1-0.1,0.1-0.2,0.2-0.2c1.6-0.2,3.2-0.4,4.8-0.5c3.1-0.1,6.2-0.1,9.3,0c2.2,0.1,4.4,0.4,6.6,0.3
		c0.1,0,0.3,0.1,0.4,0.2c-0.2,0.1-0.3,0.2-0.5,0.2c-1.8-0.1-3.7,0.3-5.5-0.3c-0.4-0.1-0.8,0-1.2,0c-2.4,0-4.8,0-7.2,0
		C32.8,15.3,30.5,15.5,28.2,15.6C28.2,15.6,28.2,15.6,28.2,15.6z"/>
	<path d="M5.7,19.4c0,0.5-0.9,1.2-1.4,1.2c-0.5-0.1-1.3-0.9-1.2-1.3c0-0.4,0.8-1,1.3-1C4.9,18.2,5.7,18.9,5.7,19.4z"/>
	<path d="M53.3,15.9c-0.5,0-1.1,0-1.6,0c-0.1,0-0.2-0.1-0.3-0.2c0.1,0,0.2-0.1,0.3-0.1c0.5,0,1.1,0,1.6,0c0.6,0,1.3,0.1,1.9,0.1
		c-0.6,0.1-1.3,0.2-1.9,0.3C53.3,16,53.3,16,53.3,15.9z"/>
	<path d="M57.2,16.3c-0.2,0-0.5,0-0.7,0c-0.1,0-0.2-0.1-0.3-0.2c0.1,0,0.2-0.1,0.3-0.1c0.5,0,1.1,0,1.6,0c0.2,0,0.3,0.1,0.5,0.2
		c-0.2,0.1-0.3,0.2-0.5,0.2C57.8,16.3,57.5,16.3,57.2,16.3z"/>
	<path d="M60.4,16.7c-0.3,0-0.6,0-0.9,0c0,0-0.1-0.1-0.1-0.1c0.1-0.1,0.1-0.2,0.2-0.2c0.6,0,1.3,0,1.9,0c0.1,0,0.2,0.1,0.3,0.2
		c-0.1,0.1-0.2,0.1-0.3,0.2C61.1,16.7,60.8,16.7,60.4,16.7C60.4,16.7,60.4,16.7,60.4,16.7z"/>
	<path d="M28.2,15.6c-0.1,0.1-0.2,0.3-0.4,0.3c-0.6,0-1.3-0.1-1.9-0.1c0.6-0.1,1.2-0.2,1.7-0.2C27.8,15.6,28,15.6,28.2,15.6
		L28.2,15.6z"/>
	<path d="M24.2,16c0.2,0,0.4,0,0.7,0.1c0,0,0,0.1,0,0.2c-0.5,0-1,0-1.5,0c0-0.1,0.1-0.2,0.1-0.2C23.8,16,24,16,24.2,16z"/>
	<path d="M20.6,16.7c0.1-0.1,0.1-0.2,0.2-0.2c0.6,0,1.1,0,1.7,0c0,0,0,0.1,0,0.1c-0.5,0-1,0.1-1.5,0.1
		C20.8,16.7,20.7,16.7,20.6,16.7L20.6,16.7z"/>
	<path d="M20.6,16.7c-0.1,0.1-0.1,0.2-0.2,0.2c-0.6,0-1.1,0-1.7,0c0,0,0-0.1,0-0.1c0.5,0,1-0.1,1.5-0.1
		C20.4,16.7,20.5,16.7,20.6,16.7L20.6,16.7z"/>
	<path d="M63.8,16.7c0,0,0.1,0,0.2,0c0.1,0,0.2,0.1,0.2,0.2C64.2,16.9,64.1,17,64,17c-0.3,0-0.7,0-1,0c-0.1,0-0.2-0.1-0.3-0.1
		c0.1-0.1,0.2-0.2,0.4-0.2C63.2,16.7,63.5,16.7,63.8,16.7z"/>
	<path d="M66.1,17.4c-0.4,0-0.5,0-0.7,0c-0.1,0-0.2-0.1-0.3-0.2c0.1-0.1,0.2-0.1,0.3-0.1c0.2,0,0.4,0,0.5,0c0.3,0,0.6,0.1,0.8,0.1
		C66.5,17.3,66.2,17.4,66.1,17.4z"/>
</g>
</svg>
