<?xml version="1.0" encoding="iso-8859-1"?>
<!-- Generator: Adobe Illustrator 25.3.0, SVG Export Plug-In . SVG Version: 6.00 Build 0)  -->
<svg version="1.1" id="Calque_1" xmlns="http://www.w3.org/2000/svg" xmlns:xlink="http://www.w3.org/1999/xlink" x="0px" y="0px"
	 viewBox="0 0 247.7 40" style="enable-background:new 0 0 247.7 40;" xml:space="preserve">
<g>
	<path d="M11,20c3.6-0.4,7.2-0.8,10.8-1.4c0.6-0.1,1.2-0.9,1.5-1.6c0.1-0.3-0.6-1.1-1.1-1.4c-3.2-1.7-6.7-3.1-9.8-5
		C9.9,9,7.5,6.8,5.1,4.8C4.8,4.5,4.8,3.9,4.7,3.5c0.5,0.1,1.2,0,1.6,0.3c5.1,2.8,10.1,5.6,15.2,8.4c0.4,0.2,0.9,0.1,1.4,0.2
		c-0.1-0.4-0.2-0.9-0.5-1.2c-2.5-3.3-5.1-6.5-7.6-9.9C14.7,1,15,0.4,15.1,0c0.4,0.1,1,0.1,1.3,0.3c2.4,2.7,4.9,5.4,7.2,8.2
		c2.4,2.9,5.5,3.9,8.9,2.9c10.5-3.1,21.2-2.2,31.7-1.5c13.4,0.8,26.8,1.8,40.3,1.7c3,0,5.6-0.7,7.6-3c2.1-2.5,5-3.9,8-5
		c0.5-0.2,1.1-0.2,1.4-0.5c4.5-3.7,9.8-2.4,14.8-2.5c3.5-0.1,5.6,2.6,7.7,5c0.2,0.3-0.2,1.1-0.3,1.7c-0.1,0.4-0.1,1.1,0,1.1
		c3.1,0.5,1.4,2.4,0.9,3.7c-0.5,1.2-0.1,1.4,1,1.4c3-0.3,5.9-0.7,8.9-0.8c3.9-0.2,7.6-0.9,10.7-3.3c4.4-3.5,9.6-4.4,14.9-4.6
		c10.7-0.5,21.4,0.2,32,2c3.1,0.5,6.2,1.2,9.1,2.2c4.9,1.8,10,2.2,15.1,2.7c6.6,0.6,12.3,7.3,11.5,13.8c-0.1,0.8-0.3,1.7-0.7,2.4
		c-0.9,1.7-1.9,3.5-3.1,5c-1.6,2.2-3.4,3.4-6.6,3.3c-8.6-0.5-17.3-0.2-26-0.1c-1.8,0-3.7,0.5-5.3,1.2c-4.3,2-8.8,2.6-13.5,2.6
		c-8.3,0-16.7-0.2-25,0.2c-7.7,0.3-15.4-0.1-23.2-0.2c-3.9,0-7.9-0.3-11.8-1c-3.4-0.6-6-2.8-7.8-5.7c-1.2-1.9-2.6-2.4-4.6-2.1
		c-2.6,0.3-3,1.1-1.5,3.3c1.5,2.2,0.6,4.8-2,5.3c-1.2,0.3-2.8,0.2-3.9-0.3c-1.7-0.9-3.8-2-4.7-3.6c-2.2-4.1-5.6-4-9.3-3.9
		c-6.7,0.1-13.3,0-20,0.2c-5.3,0.1-10.5-1.1-15.8-1.7c-6.1-0.6-12.3-0.3-18.5-0.2c-6.2,0.1-12.3,0-17.7-3.4
		c-1.7-1.1-2.9-0.2-4.1,0.7c-2.4,1.8-4.6,3.8-6.9,5.7c-2.2,1.8-4.3,3.6-6.5,5.4c-0.3,0.2-0.9,0-1.3-0.1c0.1-0.4,0-1,0.2-1.3
		c2.6-2.5,5.3-5,8-7.5c0.7-0.7,1.2-1.5,1.8-2.2c-1,0.3-2.2,0.3-3.1,0.9c-2.3,1.4-4.3,3-6.6,4.5c-0.4,0.3-1.3,0.5-1.6,0.3
		c-1.9-1.2-1.9-1.2-2.7-0.9C3,32.5,2,33,0.9,33.5c-0.2,0.1-0.8-0.1-0.8-0.3c-0.1-0.4-0.2-1,0.1-1.2C1,31.2,1.9,30.4,3,30
		c5.2-2.2,10.4-4.3,15.6-6.4c0.4-0.2,0.8-0.4,1.3-0.6c-0.5-0.1-0.9-0.4-1.4-0.4c-5.1-0.3-10.3-0.6-15.4-0.9c-0.4,0-0.7-0.5-1.1-0.7
		c0.3-0.4,0.6-1,0.9-1c2.6-0.3,5.3-0.4,7.9-0.6C11,19.6,11,19.8,11,20z"/>
	<path d="M62.5,20.7c-1.6-0.3-3.2-0.6-4.8-1.1c-0.7-0.2-1.8-0.8-1.7-1.2c0.2-1.3,0.6-2.9,2.2-2.7c1.6,0.2,3,1,4.5,1.7
		c0.1,0-0.3,0.9-0.4,1.4c0,0.6,0.2,1.1,0.3,1.7L62.5,20.7z"/>
</g>
</svg>
