<?xml version="1.0" encoding="iso-8859-1"?>
<!-- Generator: Adobe Illustrator 25.3.0, SVG Export Plug-In . SVG Version: 6.00 Build 0)  -->
<svg version="1.1" id="Calque_1" xmlns="http://www.w3.org/2000/svg" xmlns:xlink="http://www.w3.org/1999/xlink" x="0px" y="0px"
	 viewBox="0 0 81 29.1" style="enable-background:new 0 0 81 29.1;" xml:space="preserve">
<g>
	<path d="M16.8,22.4c-1.1-0.1-2.2-0.3-3.3-0.4c-0.6-0.1-1.2-0.2-1.8-0.2c-2.4-0.1-4.7-0.6-7-1.1c-0.8-0.1-1.5-0.3-2.3-0.4
		c-0.6-0.1-0.6,0.2-0.4,0.6c0.1,0.2,0.2,0.3,0.2,0.5c0,0.1-0.1,0.4-0.2,0.4c-0.1,0-0.3-0.1-0.4-0.2c-0.4-0.5-0.7-1.1-1-1.7
		c-0.6-1-0.3-1.4,0.9-1.6c0.9-0.1,1.8-0.3,2.6-0.5c0.2-0.1,0.6-0.3,0.6-0.5c0-0.2-0.3-0.5-0.5-0.6c-1.1-0.8-2.2-1.6-3.3-2.4
		c-1.3-1-1.2-2.3,0.3-3C2.1,10.9,3,10.6,4,10.6c2.7,0,5.3-0.8,7.9-1.3c2.5-0.5,5-0.8,7.5-1.3c0.8-0.1,1.6-0.2,2.5-0.4
		c0.3-0.1,0.6-0.3,0.8-0.6c1.3-2.4,3.3-4.4,5.3-6.2c0.3-0.3,0.8-0.5,1.2-0.8c0.1,0,0.2,0.1,0.3,0.1c0,0,0,0.1,0,0.2
		c-0.1,0.2-0.2,0.4-0.4,0.6c-0.9,0.7-1,1.6-0.9,2.5c0,0.3,0,0.6,0.1,0.9c0.1,0.7,0.2,1.4,0.3,2.1c0.5-0.5,1-1,1.5-1.4
		C30.3,4.6,30.7,4.4,31,4c1.7-1.8,3.9-1.5,6-1.3C37.7,2.8,38.2,3,38.8,3c3.1,0,6,0.6,9,1c2,0.3,4,0.6,6,0.5c3.3-0.1,6.7,0.2,9.9,1.1
		c1.4,0.4,2.8,1,4.1,1.6c1.2,0.5,1.7,1.6,1.8,2.8c0.1,0.9,0.1,1.7,0.2,2.6c0.8-0.2,1.6-0.4,2.4-0.6c0.7-0.2,1.3-0.6,2,0
		c0,0.1,0.1,0.2,0.1,0.3c-1,1.7-2.9,1.4-4.4,1.9c-1.6,0.6-3.3,0.3-5.1-0.2c-9.1-2.4-18.1-4.8-27.6-5.2C29.2,8.5,21.1,9,13.1,10.4
		c-1.3,0.2-2.5,0.5-2.9,2.1c-0.6,2.2-3.1,2.7-4.8,1.2c-0.2-0.2-0.3-0.4-0.5-0.5c-0.2-0.3-0.5-0.7-1-0.6c-0.1,0-0.1,0.1-0.1,0.1
		c0,0.5,0.5,0.6,0.8,0.9c1.7,1.2,3.9,2,4.6,4.3c0.2,0.6,0.8,0.4,1.2,0.3c2.7-1.2,5.6-2.1,6.2-5.6c0.2-1.3,1.1-1.8,2.2-2
		c3.9-0.6,7.8-0.9,11.8-0.7c3.3,0.2,6.6,0.7,9.6,2.1c0.7,0.4,1.6,0.5,1.9,1.5c0,0.2,0,0.4-0.1,0.5c-0.5,0.7-1.3,0.7-1.9,0.4
		c-3-1.3-6.1-1.9-9.3-2.4c-3.4-0.6-6.8,0-10.1,0.7c-0.9,0.2-1.3,1-1.2,1.8c0.6,2.9-0.9,4.8-3,6.4C16.6,21.4,17.2,21.8,16.8,22.4z"/>
	<path d="M16.8,22.4c-0.3-0.5-0.5-1-0.8-1.5c0.2-0.7,0.8-0.7,1.1-0.4c2.7,1.7,5.7,1.2,8.6,1.4c9.3,0.5,18.4-0.6,27.5-2.6
		c2.9-0.7,5.9-1.2,8.8-1.9c1.4-0.3,2.8-0.7,4.1-1.4c1.4-0.9,2.9-1,4.3-0.6c2.1,0.6,4.3,0.6,6.3,1.1c2.1,0.5,2.9-0.2,2.9-2.4
		c0-1-0.2-1.9-0.2-2.8c0-0.2-0.1-0.4-0.1-0.6c0.5-0.5,1-0.4,1.2,0.2c0.1,0.4,0.2,0.8,0.2,1.2c0.2,1.8,0.4,3.7-0.2,5.5
		c-0.3,1-0.4,1.1-1.5,1.1c-0.6,0-1.3-0.2-1.9-0.3c-2.6-0.6-5.2-1.2-7.8-1.7c-0.4-0.1-0.8,0-0.6,0.5c0,0.1,0.1,0.1,0.1,0.2
		c0.1,0.7,0.6,1.2,0.2,2c-0.5,0.9-1.2,1.5-2.1,1.8c-1.4,0.4-2.8,0.5-4.2,0.8c-2.5,0.5-5,1-7.5,1.4c-2.8,0.5-5.5,1.4-8.2,2.2
		c-1.7,0.5-3.5,0.7-5.3,0.5c-0.5,0-1-0.3-1.5-0.5c-0.7-0.4-1.4-0.8-1.9-1.3c-1.4-1.3-3-1.1-4.7-0.8c-0.5,0.1-1.1,0.2-1.6,0.2
		c-2.4-0.1-4.9,0.2-7.3-0.3c-1.1-0.3-2.4-0.1-3.6-0.2c-0.6,0-1.3-0.1-1.9-0.2c-0.1,0-0.3,0.1-0.4,0.2c0.1,0.1,0.2,0.3,0.3,0.4
		c1.6,1,3.3,1.9,4.9,2.9c0,0.1,0.2,0.2,0.1,0.3c0,0-0.2,0-0.3-0.1c-2.4-0.6-4.4-1.9-6.4-3.2C17.2,23,17,22.6,16.8,22.4z"/>
	<path d="M24.1,26.1c2.3,0.9,4.7,1.5,7.2,1.6c0.1,0,0.1,0.2,0.2,0.3c-0.4,0.4-0.9,0.7-1.5,0.4c-2.2-0.2-4.3-0.9-6.2-2.1
		C24,26.3,24,26.2,24.1,26.1z"/>
	<path d="M30.1,28.4c0.5-0.1,1-0.2,1.5-0.4c1,0,1.9,0,2.9,0c0,0,0,0,0,0c-0.1,0.1-0.2,0.3-0.4,0.3c-0.9,0.2-1.8,0.3-2.7,0.4
		C30.9,28.8,30.5,28.5,30.1,28.4z"/>
	<path d="M74.4,12c0.8-0.6,1.8-1,2.8-0.8c0,0.1,0.1,0.2,0.1,0.3C76.2,13,75.8,13,74.4,12L74.4,12z"/>
	<path d="M77.2,11.2c0.6-0.6,1.4-0.7,2.1-0.8c0,0.1,0.1,0.1,0.1,0.2c-0.4,1.3-1.1,1.5-2.2,0.7L77.2,11.2z"/>
	<path d="M34,29.1c-0.1,0-0.3,0-0.6,0c-0.1,0-0.1-0.1-0.2-0.2c0,0,0.1-0.1,0.1-0.1c0.4,0,0.8-0.1,1.2,0c0.2,0,0.4,0.1,0.6,0.2
		c-0.2,0.1-0.4,0.2-0.6,0.2C34.5,29.2,34.3,29.1,34,29.1z"/>
	<path d="M34.4,28c0.1-0.1,0.1-0.3,0.2-0.3c0.6,0,1.1,0,1.7,0c0,0,0,0.1,0,0.1c-0.5,0-1,0.1-1.5,0.1C34.6,28.1,34.5,28,34.4,28
		C34.4,28,34.4,28,34.4,28z"/>
	<path d="M28.5,12.3c0.4,0,0.8,0,1.3,0c0.9,0.1,1.4,0.9,0.9,1.7c-0.2,0.4-0.5,0.8-0.9,1.1c-2,1.4-4,2.7-6.6,2.7
		c-0.2,0-0.5,0.1-0.7,0c-0.4-0.2-0.9-0.5-1.3-0.8c0.5-0.7,0.9-0.1,1.4,0c2.8,0.2,5.1-0.8,7.1-2.7c0.2-0.2,0.3-0.6,0.3-0.9
		c0-0.1-0.5-0.2-0.8-0.3c-2-0.2-3.9,0.4-5.8,1c-1.1,0.3-2.1,0.7-3.2,1.1c-0.1,0-0.3-0.1-0.5-0.2c0.1-0.1,0.1-0.4,0.2-0.4
		C22.8,13.7,25.5,12.3,28.5,12.3z"/>
	<path d="M48.8,15.5c2.5,0,4.9,0,7.4,0c1,0,1-0.1,1-1.2c0-0.1,0.1-0.3,0.2-0.4c0.1,0.1,0.3,0.2,0.3,0.3c0,1,0.6,1,1.3,1
		c1.4,0,2.8,0,4.1,0c0.2,0,0.3,0.1,0.5,0.1c-0.1,0.1-0.3,0.2-0.4,0.2c-0.8,0-1.6,0-2.3,0.1c-0.9,0.1-1.8,0.2-2.6,0.3
		c-0.2,0-0.5,0.2-0.7,0.2c-2.7-0.1-5.4-0.1-8.1-0.2C49.3,15.9,49.1,15.7,48.8,15.5L48.8,15.5z"/>
	<path d="M42,13.7c1.4,0.5,2.9,1,4.3,1.4l0,0C44.7,15.1,43.2,14.7,42,13.7L42,13.7z"/>
	<path d="M48.8,15.5c-0.8-0.1-1.8,0.4-2.5-0.4l0,0C47.1,15.3,48.1,14.8,48.8,15.5L48.8,15.5z"/>
	<path d="M71.8,15.4c-0.1-0.3-0.3-0.5-0.2-0.5c0.2-0.2,0.4-0.4,0.6-0.5c0,0,0.2,0.1,0.3,0.2C72.4,14.7,72.2,14.9,71.8,15.4z"/>
</g>
</svg>
