<?xml version="1.0" encoding="iso-8859-1"?>
<!-- Generator: Adobe Illustrator 25.3.0, SVG Export Plug-In . SVG Version: 6.00 Build 0)  -->
<svg version="1.1" id="Calque_1" xmlns="http://www.w3.org/2000/svg" xmlns:xlink="http://www.w3.org/1999/xlink" x="0px" y="0px"
	 viewBox="0 0 83.8 37.6" style="enable-background:new 0 0 83.8 37.6;" xml:space="preserve">
<g>
	<path d="M19.2,22.2c-2.3,0.3-4.6,0.6-6.9,0.7c-0.9,0.1-1.8-0.3-2.6-0.4C8.3,22.4,7,22.2,5.6,22c-0.1,0-0.3,0.1-0.4,0.2
		c0.1,0.1,0.1,0.2,0.2,0.3c0.4,0.2,0.9,0.4,1.3,0.7c0.2,0.1,0.4,0.3,0.6,0.5c-0.2,0-0.5,0.1-0.7,0.1c-0.5,0.1-0.2,0.2-0.1,0.4
		c0.5,0.6,1,1.1,1.5,1.7c0.1,0.2,0.2,0.5,0.2,0.7c-0.3-0.1-0.6-0.2-0.7-0.4c-0.7-1.1-1.7-1.7-2.8-2.5c-0.3-0.2-0.7-0.5-0.9-0.9
		c-0.4-0.7-0.7-1.3-1.7-1.2c-0.2,0-0.5-0.3-0.5-0.4c0.3-1.2-0.8-1.5-1.3-2.1c-0.7-0.7-0.7-1,0.2-1.5c2.4-1.1,4.8-2.1,7.2-3.2
		c1.3-0.6,2.6-1.2,3.8-1.9c1.9-1,3.7-2.1,5.9-2.5c1.2-0.2,1.7-1.2,2.1-2.2c0.7-2,1.8-3.7,3-5.4c1-1.4,2.3-2.2,4-2.4
		c1.1-0.1,1.6,0.1,1.7,1.1c0.2,1.2,0.2,2.4,0.4,3.5c0.2,1.1,0.5,2.2,0.8,3.2c0.3,0.9,0.3,1-0.5,1.6c-0.7,0.5-1.4,0.9-2,1.4
		c0.7,0.7,1.6,0.1,2.3,0.5c0.6,0.3,1.1,0.2,1.7-0.1c1-0.4,2.2-0.7,3.2-1.2c1-0.4,1.9-0.3,2.8,0.1c1.5,0.7,3,1.4,4.5,2.2
		c0.4,0.2,1.2,0.6,0.5,1.3c0,0,0.1,0.3,0.3,0.4c1.2,0.6,2.5,0.3,3.6-0.3c2.6-1.3,5.3-2.3,8.3-2.6c1.3-0.1,2.7,0.2,4.1,0.3
		c0.4,0,0.5,0.6,0.1,0.8c-0.7,0.4-1.4,0.7-2.1,1c-1.7,0.9-3.4,1.7-5.1,2.6c-0.1,0.1-0.2,0.3-0.3,0.4c0.1,0,0.2,0.1,0.3,0.1
		c0.7,0.1,1.4,0.2,2.1,0.3c0.3,0.1,0.7,0.2,1,0.2c0.7,0.2,1.2,0.8,1.2,1.4c0,0.4-0.6,0.9-1,1.1c-0.8,0.3-1.6,0.5-2.4,0.5
		c-1.9,0-3.8,0.1-5.7-0.3c-1.2-0.3-2.5-0.1-3.8-0.1c-0.6,0-0.4,0.3-0.2,0.5c0.4,0.5,0.4,1,0.2,1.5c-0.4,1-0.6,2-0.6,3.1
		c0,1-0.3,1.2-1.2,0.7c-1.2-0.7-2.3-1.5-3.4-2.3c-0.5-0.4-0.9-0.8-1.3-1.2c-0.8-1-1.6-1.3-2.9-0.9c-1.3,0.4-2.8,0.3-4.2,0.5
		c-0.4,0-0.8,0.2-1.2,0.3c-0.3,0.1-0.4,0.2-0.1,0.4c0.9,0.5,1.2,1.2,0.7,2.2c-0.2,0.4-0.1,1,0.6,1c1.8,0,3.6-0.1,5.3,0.6
		c1.5-0.5,2.9,0.4,4.4,0.1c0.3-0.1,0.7,0,1.1,0c0.1,0,0.2,0.2,0.3,0.4c0,0-0.1,0.2-0.2,0.2c-0.2,0-0.4,0.1-0.5,0
		c-1.3-0.5-2.6-0.2-3.9-0.3c-1.8-0.1-3.6-0.2-5.3-0.3c-0.9-0.1-1.7-0.1-2,1.1c-0.2,0.8-1.2,1.2-2,0.9c-0.4-0.2-1.1-0.4-1.2-0.7
		c-0.6-1.7-2.2-1.7-3.6-2c-0.1,0-0.1,0-0.2,0c-0.2-0.1-0.3-0.1-0.5-0.2c0.1-0.1,0.3-0.2,0.4-0.2c0.6,0,1.2,0,1.8,0.1
		c0.6,0.1,0.8-0.2,0.7-0.7c-0.7-2.3,0-2.3-2.7-2.2c-0.5,0-1.1,0-1.6,0C19.2,22.3,19.2,22.2,19.2,22.2z"/>
	<path d="M59.4,34.1c0.4,0.8,0.4,1-0.2,1.1c-0.6,0.1-1.2,0.1-1.6-0.5c-0.3-0.4-0.6-0.8-0.9-1.1c-0.6-0.8-1.3-1.4-2.4-1.2
		c-0.8,0.1-1.6,0-2.3,0c-0.1,0-0.2,0.1-0.3,0.1c0.1,0.1,0.1,0.2,0.2,0.3c0.2,0.2,0.5,0.4,0.7,0.5c0.1,0.1,0.1,0.2,0.2,0.3
		c-0.1,0.1-0.2,0.2-0.3,0.2c-0.5,0-1.1,0-1.6-0.1c-1.1-0.3-2.2-0.6-3.2-0.9c-1.4-0.4-2.7-0.7-4.2-0.4c-0.2,0-0.4,0-0.5,0
		c-0.6-0.1-1.1-0.1-1.7-0.2c0.5,0.3,0.9,0.5,1.4,0.8c0.9,0.5,1.9,1,2.8,1.5c2.2,1,4.6,1,7,1.1c0.2,0,0.3,0.1,0.5,0.1
		c-0.2,0.1-0.4,0.2-0.5,0.2c-1.8-0.1-3.6,0.3-5.4-0.3c-0.1,0-0.3,0.1-0.4,0.2c0.8,0-0.5,0.7,0.2,0.7c1.1,0.1,2.2,0.3,3.3,0.4
		c0.4,0,0.7,0,1.1,0c0.1,0,0.2,0.1,0.3,0.2c-0.1,0.1-0.2,0.1-0.3,0.2c-0.8,0-1.6,0.1-2.5,0.1c-0.4,0-0.9-0.1-1.2,0
		c-1.1,0.5-2,0-2.7-0.7c-1-1-2.2-1.3-3.5-1.4c-1.9-0.3-3.5-1-4.7-2.3c-1-0.9-1.9-1.7-3.2-2.1c-0.1,0-0.3-0.3-0.3-0.4
		c0-0.1,0.2-0.3,0.3-0.4c0.7-0.2,1.5-0.5,2.2-0.7c2.5-0.5,5.1-1.1,7.7-1.6c0.6-0.1,1.3-0.2,1.9-0.3c2.1-0.2,4.3-0.4,6.4-0.8
		c0.4-0.1,0.7-0.5,1-0.9c1-1.3,1.9-2.6,2.8-3.9c0.3-0.4,0.6-0.6,0.8,0.2c0.3,1.1,0.7,2.2,1.1,3.4c0.1,0.3,0.2,0.6,0.2,0.8
		c-0.1,0.8-0.2,0.9,0.6,0.9c1.4,0.1,2.9,0.3,4.3,0.2c0.6,0,1.2-0.6,1.9-1c1.3-0.6,1.7-0.5,2.3,0.7c0.3,0.6,0.5,0.7,1,0.7
		c1,0,2,0,3.1,0c1.5-0.1,2.7-0.8,3.9-1.6c2.3-1.5,4.8-2.6,7.5-3.2c0.2,0,0.5-0.2,0.7-0.2c0.3,0,0.7,0.1,1,0.2
		c-0.2,0.3-0.4,0.6-0.6,0.8c-0.6,0.4-1.2,0.8-1.7,1.2c-0.8,0.7-1.5,1.3-2.1,2.1c-1,1.3-0.9,1.3,0.2,2.4c0.3,0.3,0.7,0.7,0.9,1.1
		c0.2,0.5,0.5,1.2,0.2,1.6c-0.4,0.7-1.1,1.1-2,0.9c-1.4-0.4-2.8-1-4.2-1.5c-0.6-0.2-1.2-0.6-1.8-0.9c-0.5-0.2-1.1-0.3-1.7-0.4
		c-0.6-0.1-1,0.2-0.4,0.8c0.3,0.4,0.2,0.6-0.1,0.9c-1.2,1.1-2.6,1.7-4.1,2.2c-0.4,0.1-1-0.2-1.5-0.3c-0.1,0-0.2-0.1-0.3-0.2
		c-1.5-1.7-3.4-1.7-5.4-1.5c-0.3,0-0.4,0.1-0.2,0.4C59.2,33.2,59.3,33.6,59.4,34.1c-0.2,0.1-0.4,0.1-0.6,0.1
		C59,34.3,59.2,34.2,59.4,34.1z"/>
	<path d="M14,25.5c-1.9,0.3-3.7-0.1-5.3-1c-0.1-0.1-0.2-0.2-0.2-0.3c0.1,0,0.2-0.1,0.3-0.1C10.5,24.8,12.4,24.7,14,25.5L14,25.5z"/>
	<path d="M18.3,24.9c-0.6-0.1-1.2-0.2-1.8-0.4c-0.2,0-0.3-0.1-0.4-0.2c0.2-0.1,0.3-0.2,0.5-0.2c0.6,0.1,1.3,0.2,1.9,0.3
		c0.2,0,0.3,0.2,0.5,0.3C18.7,24.7,18.5,24.8,18.3,24.9z"/>
	<path d="M14,25.5c0.4,0,0.8,0,1.2,0c0.2,0,0.3,0.1,0.4,0.2c-0.2,0-0.3,0.2-0.5,0.1C14.8,25.8,14.4,25.6,14,25.5L14,25.5z"/>
	<path d="M21.6,6.3c0,0.7-0.1,1.3-0.7,1.7c-0.2-0.7-0.3-1.4,0.4-1.9C21.3,6.1,21.5,6.2,21.6,6.3z"/>
	<path d="M8.9,15.6c0.3,0.1,0.8,0.2,0.9,0.5c0.1,0.4,0.1,0.9,0,1.3C9.5,18,8,18.2,7.4,17.6C7.2,17.4,6.9,17,7,16.8
		c0.2-0.4,0.5-0.8,0.9-1c0.2-0.2,0.7,0,1,0C8.9,15.7,8.9,15.6,8.9,15.6z"/>
	<path d="M16.6,19.5c0.4-0.3,0.8-0.6,1.3-0.9c-0.5-0.5-1-1-1.5-1.4C16.2,17,16,17,15.9,16.9c0.2-0.1,0.4-0.3,0.5-0.3
		c0.5,0,2.1,1.1,2.2,1.6c0,0.2-0.1,0.5-0.3,0.6C17.8,19.1,17.2,19.2,16.6,19.5L16.6,19.5z"/>
	<path d="M37.4,17.3c-1,0-1.9,0-2.9,0c-0.2,0-0.3-0.1-0.5-0.1c0.1-0.1,0.3-0.2,0.4-0.2c2,0,3.9,0,5.9,0c0.1,0,0.3,0.1,0.4,0.2
		c-0.2,0-0.3,0.1-0.5,0.1C39.3,17.3,38.4,17.3,37.4,17.3C37.4,17.3,37.4,17.3,37.4,17.3z"/>
	<path d="M26.5,17c-0.6-0.1-1.2-0.1-1.7-0.2c0.6-0.1,1.2-0.2,1.8-0.2c0.5,0,0.9,0,1.4,0c0.1,0,0.2,0.1,0.3,0.2
		c-0.1,0-0.2,0.1-0.3,0.1C27.4,16.9,26.9,16.9,26.5,17C26.5,16.9,26.5,17,26.5,17z"/>
	<path d="M20.7,16.2c-0.6,0-0.9,0-1.1,0c-0.1,0-0.2-0.2-0.3-0.3c0.1-0.1,0.2-0.2,0.3-0.2c0.2,0,0.5,0.1,0.7,0.2
		c0.4,0.1,0.7,0.2,1.1,0.2C21,16.2,20.6,16.2,20.7,16.2z"/>
	<path d="M31.6,16.9c-0.2,0-0.5,0-0.7,0c-0.1,0-0.2-0.1-0.4-0.2c0.1,0,0.2-0.1,0.3-0.1c0.4,0,0.8,0,1.2,0c0.3,0,0.6,0.1,0.8,0.2
		c-0.3,0.1-0.5,0.1-0.8,0.2C31.9,17,31.7,16.9,31.6,16.9C31.6,16.9,31.6,16.9,31.6,16.9z"/>
</g>
</svg>
