<?xml version="1.0" encoding="iso-8859-1"?>
<!-- Generator: Adobe Illustrator 25.3.0, SVG Export Plug-In . SVG Version: 6.00 Build 0)  -->
<svg version="1.1" id="Calque_1" xmlns="http://www.w3.org/2000/svg" xmlns:xlink="http://www.w3.org/1999/xlink" x="0px" y="0px"
	 viewBox="0 0 82.6 25.6" style="enable-background:new 0 0 82.6 25.6;" xml:space="preserve">
<g>
	<path d="M82.6,5.3c-0.2,0.4-0.4,0.8-0.7,1.1c-1.1,1.4-1.4,3-0.9,4.7c0.3,1,0,2-0.4,2.8c-0.6,1.4-0.6,2.7-0.2,4.1
		c0.4,1.4-0.2,1.9-1.6,1.7c-2-0.3-4-0.5-5.9-1c-1.5-0.4-3.1-0.9-4.5-1.7c-1.8-1-3.6-1-5.6-0.9c-0.9,0-1.9,0.2-2.8,0.4
		c-0.3,0-0.7,0.2-0.7,0.4c0,0.3,0.1,0.7,0.3,0.9c0.5,0.6,1.2,1,1.7,1.6c0.3,0.3,0.2,0.9-0.3,0.9c-0.9,0-1.7,0.6-2.5,0.8
		c-0.9,0.2-1.7,0.6-2.6,0.9c-0.3,0.1-0.8,0.3-1,0.2c-0.5-0.3-0.9-0.6-1.1,0.3c0,0-0.1,0.1-0.1,0.1c-1.4-0.4-2.8,1-4.2,0
		c-0.1-0.1-0.4,0.1-0.5,0.1c-0.2,0.1-0.4,0.3-0.6,0.3c-1.2,0-2.3,0.3-3.4,0.4c-1.2,0.1-2.3-0.3-3.5,0c-0.6,0.1-1.2-0.4-1.9-0.1
		c-0.2,0.1-0.8-0.5-1-0.9c-0.4-0.7-0.8-1.4-1.6-1.8c-0.4-0.2-0.7-0.8-0.9-1.3c-0.3-0.6-0.6-0.9-1.3-0.9c-3.4,0-6.8,0-10.3,0
		c-0.2,0-0.3,0.1-0.5,0.1c0.1,0.1,0.2,0.3,0.3,0.4c1.8,1.3,2.7,3.3,3.8,5.1c0.1,0.2,0.3,0.4,0.3,0.6c0.2,0.8-0.2,1.3-1,1.1
		c-0.8-0.2-1.5-0.5-2.2-0.7c-0.6-0.2-1.1-0.5-1.7-0.6c-1.6-0.1-2.3-1.2-2.7-2.5c-0.4-1.2-0.6-2.4-1.4-3.4C19.4,18.1,19.4,18,19,18
		c-2.6,0.2-5.2-0.1-7.8-0.6c-2.3-0.4-4.6-0.7-6.8-1.2C3.1,16,2,15.4,0.9,14.8c-1.1-0.7-1.1-1.2-0.3-2.3c1.1-1.3,2.6-1.8,4-2.6
		c1.2-0.7,2.5-1,3.8-1.6c2.5-1.1,5.2-1.8,7.9-1.9c1.4,0,2.7-0.2,4.1-0.3c0.5,0,1.2-0.4,2-1.2c0.4-0.4,0.6-0.5,0.9,0
		c0.2-0.1,0.4-0.2,0.4-0.3c0.3-0.6,0.6-1.3,1-1.9c0.1-0.1,0.3-0.2,0.4-0.3c0.1,0.2,0.2,0.3,0.2,0.5c0.1,0.2,0.1,0.4,0.2,0.6
		c0.1-0.1,0.3-0.2,0.4-0.4C26,3.1,26,3,26,2.9c0.3-0.4,0.6-0.7,0.9-1.1c0.5,0.5-0.1,0.9-0.1,1.3c-0.1,0.5,0.1,0.6,0.6,0.5
		c0.1,0,0.3,0.1,0.4,0.2c0.1,0.3,0.1,0.9,0.5,0.2c0.3-0.5,0.5-1.2,0.8-1.8c0.3-0.5,0.5-1.1,0.9-1.5c0.2-0.3,0.6-0.4,0.9-0.5
		c0.5-0.1,0.7,0.2,0.4,0.9c-0.1,0.2-0.1,0.4-0.2,0.6c0.2-0.1,0.5-0.2,0.6-0.4c0.4-0.4,0.7-0.8,1.1-1.1c0.2-0.1,0.6,0,0.8,0.1
		c0.1,0,0,0.4,0,0.6c0,0.3,0,0.6,0,0.8c0.2-0.2,0.3-0.5,0.5-0.7c0.2-0.3,0.4-0.6,0.7-0.8c0.4-0.3,0.8-0.2,0.9,0.4
		c0.1,0.3,0.1,0.6,0.5,0.3c0.3-0.3,0.6-0.6,1-0.7c0.2-0.1,0.6,0.1,0.8,0.1C38,0.5,37.9,0.7,37.8,1c-0.1,0.1-0.1,0.3-0.1,0.5
		c0.1-0.1,0.3-0.1,0.4-0.2c0.3-0.3,0.6-0.7,0.9-0.8c0.3-0.2,0.8-0.2,1-0.1c0.5,0.3-0.2,0.5-0.3,0.8c-0.1,0.2-0.2,0.4-0.3,0.6
		c0,0.1,0,0.2,0,0.3c0.1-0.1,0.2-0.1,0.3-0.2c0.5-0.5,1-1,1.6-1.4c0.3-0.2,0.6-0.8,1-0.2c0.1,0.2-0.1,0.6-0.2,0.9
		c0,0.1-0.2,0.2-0.2,0.3c0,0.1,0,0.2,0,0.3c0.1,0,0.2-0.1,0.3-0.1c0.5-0.5,1-1,1.5-1.4c0.1-0.1,0.4-0.1,0.4-0.1
		c0.1,0.2,0.3,0.5,0.2,0.6c-0.2,0.4-0.5,0.8-0.7,1.2c-0.1,0.1,0,0.3,0,0.5c0.1-0.1,0.3-0.1,0.4-0.2c0.2-0.3,0.4-0.6,0.6-0.9
		c0.2-0.2,0.4-0.5,0.6-0.6c0.3-0.1,0.6,0,1-0.1c0,0.3,0,0.5,0,0.8c0,0.1-0.2,0.2-0.2,0.3C46.1,2,46.1,2.2,46,2.5
		c0.2-0.1,0.4-0.2,0.5-0.3c0.3-0.3,0.6-0.7,1-1c0.2-0.2,0.5-0.4,0.8-0.6c0.2-0.1,0.5-0.1,0.6,0C49.1,0.6,49,1,49,1.2
		c-0.1,0.2-0.3,0.4-0.4,0.6c-0.1,0.1,0,0.3,0,0.5c0.1-0.1,0.2-0.1,0.3-0.2c0.3-0.3,0.5-0.5,0.8-0.8c0.2-0.2,0.7-0.4,0.8-0.3
		c0.8,1,1.9-0.6,2.4,0.1c0.4,0.5,0.4,0.5,0.8,0.2c0.4-0.4,0.9-0.5,1,0.3c0.1,0.4,0.3,0.3,0.5,0.1c0.5-0.4,1-0.5,1.4,0
		c0.3,0.4,0.6,0.1,1,0.1c0.5-0.1,0.8,0.1,0.6,0.7c-0.1,0.1-0.1,0.3-0.1,0.5c0.1-0.1,0.3-0.2,0.4-0.2c0.2-0.2,0.5-0.5,0.7-0.5
		c0.3,0,0.6,0.1,0.9,0.3c0.2,0.1,0,0.5,0.5,0.4c1-0.2,2-0.2,2.8,0.6c0.1,0.1,0.4,0,0.6,0c0.5,0,0.9,0.1,0.7,0.7
		c-0.2,0.5-0.2,0.6,0.4,0.3c0.6-0.4,1.3-0.8,1.6,0.4c0,0.1,0.4,0.1,0.6,0c0.5-0.1,0.8,0,0.9,0.6C67.9,6.1,68.3,6.3,69,6
		c0.5-0.2,0.7,0.1,0.5,0.5c-0.1,0.2-0.3,0.4-0.4,0.6C69,7.2,69,7.4,69,7.4c0.2,0.1,0.3,0.1,0.5,0.1c0.1,0,0.2-0.1,0.3-0.1
		c2.7-0.8,5.4-1.6,8-2.3c1-0.3,2.1-0.5,3.1-0.6c0.4,0,0.9,0.2,1.3,0.4C82.4,4.9,82.5,5.2,82.6,5.3z"/>
	<path d="M14.4,12.3c0-0.1,0-0.2,0-0.3c0.2-0.5,0.4-1,0.6-1.5c0.1,0.5,0.2,1,0.3,1.5c-0.2,0.2-0.4,0.4-0.5,0.5c-0.1,0-0.1,0-0.2,0
		C14.5,12.4,14.5,12.3,14.4,12.3z"/>
	<path d="M11.9,12.2c0,0.1,0,0.2-0.1,0.2c-0.8,0.6-1.4,1.3-2.5,1.3c-0.1,0-0.3-0.1-0.4-0.2C9,13.5,9,13.3,9.1,13.3
		c0.8-0.4,1.6-0.8,2.4-1.2C11.6,12,11.8,12.2,11.9,12.2z"/>
</g>
</svg>
