<?xml version="1.0" encoding="iso-8859-1"?>
<!-- Generator: Adobe Illustrator 25.3.0, SVG Export Plug-In . SVG Version: 6.00 Build 0)  -->
<svg version="1.1" id="Calque_1" xmlns="http://www.w3.org/2000/svg" xmlns:xlink="http://www.w3.org/1999/xlink" x="0px" y="0px"
	 viewBox="0 0 242.3 133.7" style="enable-background:new 0 0 242.3 133.7;" xml:space="preserve">
<g>
	<path d="M215.5,61.4c6.4-0.5,11.8-1.1,17.3-1.1c2.6,0,5.2,1,7.7,1.7c1.8,0.5,2.1,2,1.6,3.6c-1.1,3.6-4.3,5.9-8.2,5.9
		c-4.6,0-8.9-1.4-12.9-3.4c-3.7-1.9-7.1-0.3-10.7-0.5c-0.2,0-0.7,0.9-0.7,1.4c0.2,5.2-1.8,6.6-6.5,4.3c-1.8-0.9-3.5-1.9-5.1-3.1
		c-1.7-1.2-3.2-1.7-5.4-1.1c-2.2,0.6-3.5,0.4-2.6,3.5c0.7,2.5-2.7,4.2-5.1,2.9c-0.1-0.1-0.3-0.2-0.4-0.3c-4.2-4.1-9.3-3.3-14.3-2.7
		c-5.6,0.6-11.2,1.2-16.8,1.8c-3.8,0.4-7.6,0.6-11.4,1.1c-1.2,0.2-2.4,1.1-3.2,2c-0.9,0.9-1.4,2.3-1.9,3.5c-2.5,6-7.4,9.7-12.8,12.8
		c-1.3,0.8-3.2,0.6-4.8,0.8c-1.1,0.1-2,0.4-1.9,1.7c0.6,4.9-1.9,9-4.5,12.4c-5.4,7.1-11.6,13.7-19.8,17.8c-3.1,1.6-6,3.6-9.3,4.8
		c-10.9,4.2-21.7,3.2-31.5-3c-10.5-6.6-20.8-13.7-29.6-22.6c-6.8-7-12-15-16.6-23.5c-2-3.6-3.5-7.5-5.1-11.3
		c-1.9-4.5-0.8-8.7,1.2-13c3.4-7.5,7.8-14.3,13.3-20.3C24.6,27.5,34,17.8,45.8,11C54,6.3,62.5,2.1,72,0.4c5.9-1.1,11.6,0.2,17,2.7
		c10.8,5,19.7,12.2,26.6,22c2.9,4.2,4.7,8.9,3.5,14.1c-0.4,1.9,0.2,1.8,1.5,1.9c7.3,0.8,12.2,4.8,14.9,11.6c0.4,1.1,0.6,2.4,1.3,3.2
		c0.8,0.9,2,1.5,3.1,2.1c0.4,0.2,1,0,1.5,0.1c13.3,0.4,26.6,0.7,39.9,1.1c8.1,0.3,16.3,0.6,24.4,1C209.2,60.4,212.8,61.1,215.5,61.4
		z"/>
	<path d="M117.2,70.1c3.7,0,7.4-0.4,11,0.1c2.2,0.3,3.9-2.4,6-0.4c0.3-0.4,0.6-0.7,0.8-1.1c1.4-2,1.4-1.9,2.7,0.5
		c0.2,0.4,0.9,0.7,1.4,0.7c0.6,0,1.1-0.4,1.7-0.6c-1.5-1.4,1.6-2.3,0.3-3.8c-1.2-1.3-0.2-2.1,1.1-2.3c1.1-0.2,1.9,0.2,1.7,1.7
		c-0.1,0.7,0.3,1.4,0.6,2.1c0.8,2.1-0.2,3.9-2.5,4.2c-6.6,0.8-13.1,1.7-19.7,0.2c-2.3-0.5-4.9,0.2-7.4,0.3
		c-4.8,0.2-9.6,0.3-14.4,0.4c-0.3,0-0.6-0.3-0.8-0.4c0.2-0.2,0.5-0.5,0.7-0.6c1.8-0.4,3.5-0.9,5.3-1
		C109.6,70.1,113.4,70.2,117.2,70.1C117.2,70.2,117.2,70.1,117.2,70.1z"/>
	<path d="M48.2,41.2c-5.3-0.1-10,1.8-14.6,4.1c-1.3,0.7-2.6,1.5-3.9,2.1c-0.3,0.2-0.8,0-1.3-0.1c0.3-0.4,0.4-0.9,0.8-1.1
		c1.3-1,2.6-2.2,4.1-2.8c4.1-1.6,8.3-3.3,12.6-4.2c5.6-1.2,10.7,1.6,15.8,3.4c0.9,0.3,1.6,1.2,2.3,1.9c0.3,0.3,0.4,0.8,0.5,1.2
		c-0.4,0-1,0.1-1.3-0.1C58.5,43.2,53.8,40.8,48.2,41.2z"/>
	<path d="M50.9,93.3c-10.2-0.4-17.7-4.9-24-11.7c-0.2-0.2-0.2-0.6-0.3-0.9c0.4,0,1-0.3,1.3-0.1c2.2,1.7,4.3,3.7,6.6,5.3
		c4.5,3.2,9.4,5.5,15.2,5.3c3.8-0.1,7.2-1.1,10.2-3.2c0.4-0.3,1.1-0.2,1.7-0.3c-0.3,0.5-0.5,1.2-0.9,1.6
		C57.6,91.8,54.1,93.1,50.9,93.3z"/>
	<path d="M46,56.3c-1.1,0.5-3.8-1.5-3.1,1.9c0,0.1-0.6,0.5-1,0.4c-2.1-0.2-4.2-0.3-6.2-0.7c-0.5-0.1-1.2-0.8-1.3-1.4
		c-0.1-0.4,0.6-1,1-1.4c0.8-0.6,1.6-1.2,2.5-1.4c1.2-0.3,3-0.7,3.6-0.1c2,2,1.5-0.4,2-1c0.2-0.2-0.3-0.9-0.3-1.4
		c0-1.1,0.7-1.5,1.6-0.9c1.6,1.1,2.6,2.5,2.3,4.6C47.4,56.2,47,56.5,46,56.3z"/>
	<path d="M37.6,71.8c1.6-1,2.7,0,3.8,1c0.4,0.4,1.2,0.9,1.6,0.7c1.4-0.6,2.7-0.1,2.7,1.1c0,1.3-0.9,2.7-1.6,3.8
		c-0.3,0.5-1.5,0.4-2.2,0.6c-0.1-0.7-0.3-1.5-0.1-2.1c0.3-1.5-0.3-1.8-1.5-1.3c-1.4,0.6-2.9,1.1-4-0.4c-0.7-1-2-2.2-1.8-3
		C34.8,70.5,36.3,71.2,37.6,71.8z"/>
	<path d="M103.9,45.6c-2.3-0.5-4.1-0.8-5.8-1.3c-2.8-0.8-5.4-1.4-8.3-0.2c-0.3,0.1-0.9-0.5-1.4-0.8c0.3-0.3,0.6-0.8,1-0.9
		c2.7-0.4,5.5-1.1,8.3-0.1c4.3,1.5,8.4,1.6,12.5-0.5c0.4-0.2,1.1,0.3,1.6,0.4c-0.3,0.4-0.5,0.9-0.8,1.1
		C108.6,44,106.1,44.9,103.9,45.6z"/>
	<path d="M108.6,89.7c-0.2,0.2-0.5,0.5-0.7,0.5c-0.8-0.2-1.6-0.4-2.3-0.7c-2.9-1.3-5.7-1.2-8.6-0.1c-2,0.8-4.1,1.2-6.2,1.7
		c-0.4,0.1-1-0.2-1.2-0.5c-0.1-0.2,0.2-1.1,0.5-1.2c4.8-1.4,9.5-2.8,14.6-2.2c1.2,0.2,2.4,1,3.6,1.6C108.3,89,108.4,89.4,108.6,89.7
		z"/>
	<path d="M62.3,65.6c-2.5-0.3-4.9,1.7-7.5,0.6c-0.6-0.3-1-0.9-1.5-1.4c0.6-0.3,1.2-1,1.9-1c2.8-0.2,5.7-0.3,8.5-0.2
		c0.8,0,2.1,0.9,2.1,1.4c0.1,1.3-1.1,1.4-2.1,1.1C63.2,66,62.8,65.8,62.3,65.6z"/>
	<path d="M122.5,53.3c0,0.1,0,0.4,0,0.4c-0.3,0.1-0.6,0.4-0.8,0.3c-1.1-0.5-2.1-1-3.1-1.5c-2.8-1.4-5.6-2.8-8.5-4.1
		c-0.9-0.4-2.4-0.2-2.4-1.8c0.9,0.1,2-0.1,2.7,0.3c3.9,1.8,7.7,3.8,11.5,5.7C122.2,52.7,122.3,53.1,122.5,53.3z"/>
	<path d="M72.4,51.8c0.8-0.2,1.8-0.7,2.3-0.4c0.7,0.4,1.3,1.4,1.4,2.2c0.1,1.2-0.8,1.9-2,1.5c-1.5-0.6-2.7-1.7-4.5-1.2
		c-0.2,0.1-1-0.7-1-0.9c0.1-0.5,0.5-1.4,0.9-1.5c0.9-0.2,1.9-0.1,2.8-0.1C72.4,51.5,72.4,51.6,72.4,51.8z"/>
	<path d="M11.2,68.4c-2-0.2-3.9-0.4-5.8-0.7c-0.3,0-0.5-0.7-0.8-1.1c0.3-0.1,0.6-0.4,0.9-0.4c3.1,0.1,6.2,0.2,9.3,0.5
		c0.3,0,0.5,0.7,0.8,1.1c-0.3,0.1-0.6,0.4-0.9,0.4c-1.2,0-2.3,0-3.5,0C11.2,68.3,11.2,68.4,11.2,68.4z"/>
	<path d="M70.2,65.8c-0.3,0.1-0.8,0.4-1.3,0.4c-0.6-0.1-1.1-0.5-1.6-0.7c0.4-0.6,0.7-1.7,1.2-1.8c1.7-0.2,3.4-0.1,5.1,0
		c0.3,0,1,0.7,0.9,1c-0.1,0.5-0.6,1.4-1,1.4C72.5,66.1,71.4,65.8,70.2,65.8z"/>
	<path d="M22.5,96.3c0.4,0.4,1,0.7,1.4,1.2c1.1,1.4,2.2,2.8,3.3,4.2c0.2,0.3,0.2,0.8,0.2,1.2c-0.4-0.1-1,0-1.3-0.2
		c-1.6-1.6-3.1-3.3-4.7-5c-0.1-0.2-0.1-0.7,0-0.9C21.7,96.6,22,96.5,22.5,96.3z"/>
	<path d="M153.7,64.4c-1.5,0.8-2.3,1.7-3.2,1.7c-0.7,0-1.4-1.1-2.1-1.7c0.9-0.6,1.6-1.6,2.6-1.8C151.5,62.4,152.4,63.5,153.7,64.4z"
		/>
	<path d="M149.8,67.1c0.7,0.1,1.1,0,1.4,0.1c1.2,0.2,2.4,0.5,3.6,0.8c-0.1,0.3-0.2,0.8-0.3,0.8c-1.5,0.3-2.9,1.8-4.6,0.7
		c-0.6-0.4-1-1.1-1.4-1.7C149,67.5,149.6,67.2,149.8,67.1z"/>
	<path d="M70.5,76c1.4-0.8,2.3-1.6,3.2-1.6c0.7,0,1.4,1,2.1,1.6c-0.9,0.7-1.8,1.7-2.9,2C72.5,78.1,71.7,76.9,70.5,76z"/>
	<path d="M117.1,60c-0.2-0.2-0.6-0.4-0.6-0.7c0-0.3,0.1-0.8,0.3-0.8c1.9-0.6,3.9-1.2,5.9-1.8c0,0,0.3,0.3,0.2,0.4
		c-0.8,2.3-3.3,1.8-4.9,2.7C117.7,59.9,117.3,59.9,117.1,60z"/>
	<path d="M126.9,63.1c1,0.1,1.8-0.1,2.3,0.3c0.7,0.5,1.2,1.3,1.7,2c-0.8,0.2-1.6,0.4-2.5,0.4c-0.4,0-0.9-0.3-1.3-0.5
		c-0.6-0.4-1.2-0.8-1.8-1.2C126,63.7,126.6,63.3,126.9,63.1z"/>
	<path d="M78.6,45.2c-1.1,0.5-1.6,1-2.1,0.9c-1.4-0.1-2.4-1-2.3-2.5c0-0.5,1.4-1.3,1.6-1.2C76.7,43.1,77.4,44,78.6,45.2z"/>
	<path d="M116.8,62.8c0.5-0.1,1-0.3,1.4-0.3c0.2,0,0.6,0.3,0.7,0.6c0.1,0.2-0.1,0.7-0.4,0.8c-0.4,0.2-0.9,0.4-1.4,0.5
		c-1,0.1-2.1,0.2-3.1,0.2c-0.1,0-0.3-1.1-0.2-1.2c0.9-0.4,1.9-0.7,2.9-1C116.7,62.5,116.7,62.6,116.8,62.8z"/>
	<path d="M76.5,64.4c1.1-0.5,1.9-1.2,2.4-1.1c0.8,0.3,1.3,1.2,1.9,1.8c-0.8,0.3-1.6,0.9-2.4,1C78,66.1,77.4,65.3,76.5,64.4z"/>
	<path d="M74,87.7c-0.7-0.7-1.2-1.2-1.7-1.7c0.6-0.5,1.2-1.6,1.6-1.5c0.8,0.2,1.3,1,2,1.6C75.4,86.6,74.8,87,74,87.7z"/>
	<path d="M161,66.1c-0.3-0.3-0.7-0.6-1-1c-0.3-0.3-0.6-0.8-0.5-1.2c0.1-0.3,0.9-0.8,1-0.7c0.9,0.5,1.7,1.2,2.5,1.8
		c-0.6,0.4-1.1,0.9-1.7,1.3L161,66.1z"/>
	<path d="M161.3,66.3c0.1,0.9,2.2,0.9,0.9,2.2c-0.9,1-2.3,1.2-2.9-0.1c-0.7-1.4,0.3-2.1,1.7-2.3L161.3,66.3z"/>
	<path d="M101.5,65.2c-1,0.8-1.5,1.4-2.2,1.7c-0.2,0.1-0.8-0.7-1.3-1.1c0.5-0.5,0.9-1.2,1.5-1.5C99.9,64.1,100.6,64.7,101.5,65.2z"
		/>
	<path d="M113.1,67.2c-0.2,0-0.3,0-0.5,0c-1.3,0-2.7,0.2-3-1.7c0-0.2,0.3-0.7,0.6-0.7C112,64.7,113,65.4,113.1,67.2L113.1,67.2z"/>
	<path d="M155.8,65.7c-0.6-0.7-1-1.1-1.4-1.5c0.7-0.5,1.4-1.1,2.2-1.5c0.2-0.1,0.7,0.5,1,0.8C157.1,64.1,156.5,64.8,155.8,65.7z"/>
	<path d="M94.7,65c-1.1,0.7-1.6,1.2-2.1,1.2c-0.7,0-1.4-0.4-2.2-0.7c0.5-0.5,0.9-1.2,1.5-1.3C92.6,64.1,93.3,64.6,94.7,65z"/>
	<path d="M131.2,67.8c-0.6,0.7-0.9,1.3-1.1,1.3c-0.9,0-1.7-0.3-2.6-0.5c0.3-0.5,0.5-1.3,0.9-1.3C129.2,67.3,130,67.6,131.2,67.8z"/>
	<path d="M67.9,86.5c-0.9-0.4-1.5-0.7-2.2-1c0.6-0.5,1.2-1.2,1.8-1.3c0.6,0,1.3,0.7,2,1C68.9,85.7,68.4,86.1,67.9,86.5z"/>
	<path d="M46,56.3c0.4-0.4,0.8-0.7,1.1-1.1c0.3,0.2,0.6,0.3,0.8,0.5c0.8,0.6,1.6,1.3,0.5,2.3c-0.9,0.7-1.8,0.4-2.3-0.7
		C46.1,56.9,46.1,56.6,46,56.3z"/>
	<path d="M135.4,63.2c0.7,0.9,1.2,1.4,1.5,2c0.1,0.1-0.6,1-0.8,0.9c-0.7-0.2-1.3-0.7-1.9-1C134.6,64.6,134.9,64.1,135.4,63.2z"/>
	<path d="M172,68.1c-1.2,0.4-1.8,0.8-2.4,0.8c-0.5,0-1-0.5-1.4-0.8c0.4-0.6,0.6-1.3,1.1-1.6C169.5,66.4,170.2,67.1,172,68.1z"/>
	<path d="M71.4,44.4c-1,0.6-1.7,1.1-2.4,1.5c-0.2-0.4-0.7-1-0.6-1.1c0.5-0.6,1.1-1.1,1.8-1.4C70.3,43.4,70.8,43.9,71.4,44.4z"/>
	<path d="M85.8,66.7c-0.7-0.6-1.1-1-1.5-1.4c0.4-0.4,0.8-1,1.3-1c0.5,0,0.9,0.6,1.4,0.9C86.6,65.6,86.3,66,85.8,66.7z"/>
	<path d="M122.8,65.7c-0.7-0.6-1.1-1-1.5-1.3c0.4-0.4,0.8-1.1,1.2-1.1c0.4,0,0.9,0.6,1.4,0.9C123.6,64.6,123.3,65.1,122.8,65.7z"/>
	<path d="M123.2,69.8c-1-0.9-1.4-1.2-1.9-1.6c0.4-0.4,0.8-1,1.2-1c0.4,0,1,0.6,1.2,1.1C123.9,68.6,123.5,69.1,123.2,69.8z"/>
	<path d="M117.1,67.2c-1.3,1.7-2.6,1.8-4,0l0,0C114.4,66.2,115.8,66.1,117.1,67.2L117.1,67.2z"/>
	<path d="M51.3,65.5c-0.9,0.3-1.5,0.6-2,0.6c-0.3,0-0.6-0.6-0.9-0.9c0.5-0.3,0.9-0.7,1.5-0.8C50.2,64.3,50.6,64.9,51.3,65.5z"/>
	<path d="M109.3,63.8c-0.7,0.4-1.2,0.8-1.7,0.9c-0.3,0-0.6-0.6-1-0.9c0.6-0.4,1.2-0.9,1.8-1.2C108.4,62.5,108.8,63.2,109.3,63.8z"/>
	<path d="M117.1,67.2c0.2-0.6,0.2-1.3,0.6-1.7c0.4-0.3,1.1-0.2,1.7-0.1c0.2,0,0.4,0.7,0.4,0.7c-0.4,0.4-0.8,0.8-1.3,1
		C118.1,67.4,117.6,67.2,117.1,67.2L117.1,67.2z"/>
</g>
</svg>
