<?xml version="1.0" encoding="iso-8859-1"?>
<!-- Generator: Adobe Illustrator 25.3.0, SVG Export Plug-In . SVG Version: 6.00 Build 0)  -->
<svg version="1.1" id="Calque_1" xmlns="http://www.w3.org/2000/svg" xmlns:xlink="http://www.w3.org/1999/xlink" x="0px" y="0px"
	 viewBox="0 0 83.4 22.6" style="enable-background:new 0 0 83.4 22.6;" xml:space="preserve">
<g>
	<path d="M63.8,8.6c3.2,0.1,6.1-0.8,9-1.9c2.6-0.9,5.1-1.9,7.7-2.9c0.2-0.1,0.3-0.2,0.5-0.2c0.8,0,1.8-0.2,2.2,0.3
		c0.6,0.7-0.4,1.2-0.8,1.7c-0.4,0.6-0.8,1.2-1.2,1.8c-0.7,1.3-1.6,2.3-2.9,3.1c-1.1,0.6-1,1.1,0,2c1.1,1,2.3,1.9,3.4,2.9
		c0.6,0.5,1,1.2,1.4,1.8c0.4,0.7,0.1,1.3-0.7,1.4c-0.5,0.1-1.1,0-1.6-0.1c-1.9-0.5-3.7-1.1-5.6-1.7c-1.7-0.5-3.4-1-5.1-1.6
		c-2.1-0.7-4.3-0.4-6.4-0.4c-0.1,0-0.3,0.3-0.3,0.4c0.2,0.7-0.1,1-0.6,1.3c-1.5,0.8-2.6,2.1-3.8,3.3c-0.3,0.3-0.5,0.5-0.8,0.7
		c-1.9,1.5-3.7,1.4-5.5-0.1c-0.3-0.2-0.5-0.5-0.8-0.8c-0.5-0.5-1-0.8-1.7-0.4c-0.3,0.1-0.6,0.2-0.9,0.2c-1.5-0.2-3.1-0.4-4.6-0.5
		c-0.5-0.1-0.9-0.1-1.4-0.1c-0.2,0-0.4,0.1-0.6,0.2c0.1,0.2,0.2,0.4,0.3,0.6c0.5,0.7,1,1.3,1.4,2.1c0.3,0.6-0.1,1-0.8,1
		c-0.5,0-1.1-0.1-1.6-0.3c-1.2-0.6-2.3-1.2-3.4-2c-0.9-0.7-1.7-1-2.8-0.9c-2.7,0.1-5.4,0.3-8.1,0.4c-2.5,0.1-5,0.3-7.5,0.7
		c-1.2,0.2-2.4,0.3-3.5,0.4c-0.1,0-0.2,0-0.4,0c-1.3,0.4-2.3,1.4-3.9,0.7c-1.2-0.5-2.7-0.6-4-0.6c-2.5-0.1-4.7-1.2-7-2
		c-0.7-0.2-1.5-0.5-1-1.5c0-0.1-0.1-0.3-0.2-0.4c-0.6-1.1-0.7-1.2,0.1-1.9c0.9-0.9,2-1.7,3-2.5c0.5-0.4,1-0.7,1.4-1.1
		c1.2-1.3,2.6-2,4.3-2.3c3.4-0.5,6.6-1.6,9.8-2.8C21.5,5.5,24.2,5,26.9,5c2,0,3.9,0,5.9-0.2c1.4-0.2,3,0.1,4.4,0.2c0.5,0,1,0,1.4,0
		c1.5,0.1,3,0.2,4.5,0.3c1.7,0.2,3.2-0.1,4.1-1.8C48,2.2,49,1,50.5,0.4c1.3-0.6,2.6-0.6,3.7,0.3c1,0.7,2,1.3,2.8,2.2
		c1.5,1.4,3,2.8,4.8,3.6c0.6,0.3,0.6,0.6,0.1,1c-0.2,0.1-0.4,0.2-0.6,0.4c-0.1,0.1-0.2,0.4-0.3,0.6c0.2,0.1,0.3,0.2,0.5,0.2
		C62.3,8.6,63.1,8.6,63.8,8.6z"/>
	<path d="M14.9,20.8c-0.2,0-0.5,0-0.7-0.1c0.1-0.2,0.1-0.4,0.2-0.5c1.1-0.9,1.6-1.9,1.6-3.4c0-1,0.3-1.9,0.6-2.9
		c0-0.1,0.2-0.3,0.3-0.3c0.2,0.1,0.4,0.2,0.5,0.4c0,0,0,0.1,0,0.2c-0.6,1.4-0.7,2.9-0.7,4.3c0,0.3-0.3,0.6-0.5,0.9
		C15.8,19.9,15.3,20.3,14.9,20.8L14.9,20.8z"/>
	<path d="M9.7,15.5c-1.1,0-2-0.6-2-1.3c0-1.4,0.7-2.3,1.8-2.3c1.3,0,2.2,0.8,2.2,1.9C11.7,14.8,10.9,15.5,9.7,15.5z"/>
</g>
</svg>
