<?xml version="1.0" encoding="iso-8859-1"?>
<!-- Generator: Adobe Illustrator 25.3.0, SVG Export Plug-In . SVG Version: 6.00 Build 0)  -->
<svg version="1.1" id="Calque_1" xmlns="http://www.w3.org/2000/svg" xmlns:xlink="http://www.w3.org/1999/xlink" x="0px" y="0px"
	 viewBox="0 0 82.9 27.5" style="enable-background:new 0 0 82.9 27.5;" xml:space="preserve">
<g>
	<path d="M60.4,7.7c1.9,0.6,3.5,1.6,4.7,3.1c0.9,1.1,1,2.1,0.1,2.8c-0.5,0.4-1.2,0.5-1.8,0.7c-0.2,0.1-0.3,0.1-0.5,0.1
		c0.2,0.1,0.3,0.3,0.5,0.4c0.3,0.1,0.6,0.1,0.9,0.1c2.2,0,4.2-0.3,6.3-1.2c2.2-1,4.5-1.9,7-2c0.8,0,1.5-0.3,2.3-0.3
		c1.8,0,2.5,0.7,2.7,2.4c0.1,0.5,0.1,0.9,0.2,1.4c0.4,2,0,3.9-0.8,5.7c-0.6,1.5-2,2.1-3.7,1.7c-2.4-0.5-4.9-1.1-7.3-1.6
		c-1.6-0.3-3.1-0.6-4.7-0.9c-0.2,0-0.3,0.1-0.5,0.1c0.1,0.1,0.3,0.2,0.4,0.3c1.5,0.7,1.5,2.1-0.2,2.9c-1.1,0.5-2.3,0.9-3.5,1.2
		c-3.4,1-6.8,2-10.3,2.7c-1.6,0.3-3.4,0.2-5.1,0c-2.1-0.3-3.4-2-4.5-3.6c-1.1-1.5-2.2-1.7-3.8-1.4c-1.3,0.2-2.6,0.1-3.9,0.2
		c-0.1,0-0.2,0.1-0.4,0.2c0.1,0,0.2,0.1,0.3,0.1c0.9,0.2,1.7,0.5,2.6,0.7c0.9,0.3,1.9,0.6,2.4,1.4c0.2,0.4,0.5,0.9,0.5,1.2
		c-0.1,0.6-0.7,1-1.4,1c-1.9,0.1-3.7,0-5.4-0.8c-2.1-1.1-4.3-2-6-3.8c-0.5-0.5-1.2-0.7-2-0.7c-0.8,0-1.7,0-2.5,0
		c-1.7-0.1-3.3-0.2-5-0.4c-1.8-0.2-3.5-0.5-5.3-0.6c-2.6-0.2-5.1-1.1-7.6-1.7c-1.5-0.4-3-0.8-4.5-1.2c-0.7-0.2-0.8-0.5-0.3-1
		c0,0,0.1-0.1,0.1-0.1c0.7-0.5,0.8-1.7,1.9-1.9c0.9-0.1,1.7-0.5,2.6-0.7c2.7-0.7,5.4-1.5,8.1-2c3-0.5,5.9-1.5,8.9-1.6
		c1,0,1.8-0.4,2.1-1.6c0-0.2,0.1-0.3,0.2-0.5c0.2-0.3,0.5-0.6,0.7-1C25,8,25.1,8.3,25.2,8.7c0,0.1,0.1,0.2,0.1,0.3
		c0.1-0.1,0.2-0.3,0.2-0.4c0.9-2.2,1.8-4.4,2.7-6.6c0.5-1.3,2.1-1.3,3-2c0.8,0.4,1.8,0.6,2.5,1.2c2,1.7,3.5,3.8,4.7,6.1
		c0.3,0.5,0.7,0.8,1,1.3c0.2,0.3,0.4,0.6,0.6,0.9c0.2,0.3-0.6,0.8,0.3,0.8c0.5,0,1,0.4,1.5-0.4c1.6-2.5,3.8-4.5,6.2-6.4
		c0.9-0.7,1.7-1,2.8-0.6c1.4,0.5,2.9,0.6,4,1.7c-0.6,1.1-1.4,0.6-2.2,0.4c-3-0.8-6.7,0.9-8.1,3.7c-0.6,1.1,0.2,1.3,1,1.5
		c2.9,0.6,5.9,1.1,8.8,1.7c1.4,0.3,2.8,0.5,4.2,0.9c0.9,0.2,1.8,0.3,2.7,0.3c0.8,0,1.8,0.1,2.1-0.9c0.3-0.9-0.6-1.3-1.2-1.8
		c-0.5-0.4-1-0.7-1.4-1.1C60.3,8.8,60,8.4,60.4,7.7z"/>
	<path d="M59.5,7.1c-0.8,0-1.5-0.3-2-1.1C58.3,6.1,59,6.4,59.5,7.1z"/>
	<path d="M18.7,14c1.6,0.1,3.2,0.1,4.8,0.2c0.1,0,0.3,0.1,0.4,0.2c-0.1,0.1-0.2,0.2-0.3,0.2c-0.5,0-0.9,0.3-1.5,0.2
		c-1.2-0.3-2.5-0.3-3.7-0.5c-0.2,0-0.4-0.2-0.6-0.2c0.2-0.1,0.4-0.1,0.7-0.2c0.1,0,0.1,0,0.2,0C18.7,13.9,18.7,14,18.7,14z"/>
</g>
</svg>
