<?xml version="1.0" encoding="iso-8859-1"?>
<!-- Generator: Adobe Illustrator 25.3.0, SVG Export Plug-In . SVG Version: 6.00 Build 0)  -->
<svg version="1.1" id="Calque_1" xmlns="http://www.w3.org/2000/svg" xmlns:xlink="http://www.w3.org/1999/xlink" x="0px" y="0px"
	 viewBox="0 0 86.7 39.5" style="enable-background:new 0 0 86.7 39.5;" xml:space="preserve">
<g>
	<path d="M86.5,23.8c0,0.6,0,1.2,0,1.8c-0.1,2.1-1.2,3.3-3.3,3.6c-1.2,0.2-2.5,0.4-3.7,0.6c-1.6,0.3-3-0.3-4.4-0.8
		c-1.9-0.7-4-1.2-5.7-2.4c-0.3-0.2-0.8-0.3-1.2-0.3c-2.1,0.1-4.3,0.2-6.4,0.4c-0.4,0-0.4,0.2-0.3,0.6c0.4,1.2,0.8,2.5,1.1,3.7
		c0.3,1-0.1,1.9-0.7,2.7c-0.4,0.6-1,0.9-1.9,0.9c-2.2,0-4.3-0.3-6.4-0.6c-0.4-0.1-0.9,0.1-1.3,0.1c0.1,0.5,0,1.1,0.3,1.5
		c0.7,0.9,1.5,1.7,2.2,2.5c0.2,0.2,0.4,0.3,0.5,0.5c0.1,0.2,0.2,0.5,0.2,0.7c-0.2,0-0.5,0.1-0.6,0c-1.8-1-3.5-2-5.2-3.1
		c-1-0.6-1.9-1.4-2.8-2.1c-0.2-0.1-0.4-0.2-0.6-0.2c0,0.3-0.1,0.6-0.1,0.8c0.3,1,0.7,1.9,1,2.9c0.1,0.2-0.1,0.4-0.1,0.6
		c-0.2-0.1-0.6-0.1-0.7-0.3c-0.8-1.3-1.5-2.7-2.3-4c-0.1-0.1-0.1-0.2-0.1-0.3c-0.8-1.9-0.8-1.9-2.9-1.9c-2.3,0-4.7,0-7,0
		c-0.2,0-0.4,0.2-0.6,0.3c0.1,0.1,0.2,0.3,0.3,0.4c0.3,0.3,0.5,0.7,0.8,1c0.7,0.7,1,1.6,1,2.6c0,0.5,0,1.1,0.1,1.6
		c0.1,0.5,0.2,1.1,0.3,1.6c-0.5-0.2-1-0.4-1.5-0.6c-0.7-0.3-1.5-0.5-2.2-0.8c-0.7-0.3-1.5-0.5-2.2-0.9c-1.1-0.5-2.2-1.2-2.5-2.6
		c-0.1-0.5-0.3-0.9-1-0.5c-0.5,0.2-0.8-0.1-0.8-0.6c0-0.5,0-1.1,0-1.6c0-0.6-0.3-0.9-0.9-0.9c-0.1,0-0.2,0-0.4,0
		C21,31.1,17.5,30,14,29c-1-0.3-2.1-0.3-3.2-0.5c-0.5-0.1-1-0.3-1.5-0.4c-0.9-0.3-1.8-0.7-2.7-0.9c-1.7-0.4-3.4-0.7-5-1.2
		c-0.6-0.2-1.1-0.8-1.4-1.3c-0.3-0.5-0.1-1,0.4-1.4c0.6-0.5,1.1-1.1,1.6-1.6c0.2-0.2,0.4-0.5,0.7-0.6c1.9-0.9,3.2-2.5,4.6-3.9
		c0.2-0.2,0.6-0.3,0.9-0.5c0.3-0.1,0.7-0.2,1-0.4c0.7-0.5,1.2-1.4,2.3-0.8c1.4-0.5,2.8-1,4.1-1.7c1.4-0.7,2.9-1.1,4.4-1.6
		c1.3-0.5,1.3-0.5,1.1-1.8c-0.1-0.8,0.1-1.6,0.2-2.5c0-0.1,0.4-0.4,0.5-0.3c0.8,0.8,0.8,0.1,0.9-0.4c0.2-1,0.5-2,0.7-2.9
		c0-0.1,0.2-0.3,0.3-0.3c0.1,0,0.3,0.1,0.4,0.2c0,0,0,0.1,0.1,0.2C24.5,4.6,24.7,5,25,5.4c0.4-0.4,0.8-0.8,1.1-1.3
		c0.6-1,1.1-2,1.6-3c0.1-0.2,0.4-0.3,0.7-0.5c0.1,0.3,0.3,0.7,0.3,0.9c-0.1,0.6-0.4,1.2-0.6,1.9C28,3.9,27.9,4.8,28,4.9
		c0.7,0.3,0.8-0.5,1-0.9c0.9-1.3,1.7-2.7,3-3.7c0.2-0.1,0.5-0.2,0.7-0.2c0,0.3,0.1,0.7,0,1c-0.3,0.6-0.7,1.1-1,1.7
		c-0.1,0.2-0.2,0.5-0.2,0.8c0.3,0,0.7,0,1-0.1c0.4-0.2,0.7-0.5,1-0.9c0.5-0.6,1-1.2,1.5-1.7c0.2-0.2,0.5-0.1,0.8-0.2
		c0,0.3,0.1,0.7,0,0.9c-0.4,0.7-1.1,1.3-1.5,2c-0.2,0.4-0.3,0.9-0.3,1.3c0,0.2,0.3,0.4,0.4,0.5c0.1,0,0.4-0.1,0.5-0.3
		c1.3-1.4,2.7-2.7,4-4.1c0.1-0.1,0.2-0.1,0.3-0.1c0,0.1,0.1,0.3,0.1,0.4c-0.7,1-1.5,2-2.2,3.1c-0.3,0.4-0.6,0.9,0,1.4
		c0.4,0.4,0.7,0.5,1.2,0C39.3,5,40.1,4.3,41,3.6c0.1-0.1,0.4-0.1,0.6-0.1c0,0.3,0,0.6-0.2,0.8c-0.4,0.5-0.8,1-1.2,1.6
		c-0.4,0.5-0.2,1,0.2,1.4c0.3,0.3,0.6,0.5,1.1,0.1c0.5-0.5,1.1-0.9,1.7-1.3c0.1-0.1,0.4,0,0.6,0.1c0.1,0.1,0.1,0.4,0,0.5
		c-0.3,0.4-0.7,0.7-1,1c-0.3,0.4-0.5,1-0.1,1.5c0.4,0.4,0.8,0,1.1-0.1c0.2-0.1,0.3-0.2,0.5-0.2c0.1,0,0.4,0,0.5,0.1
		C45,9,45,9.3,44.9,9.4c-0.4,0.6-1,1-0.9,1.9c0.1,0.4,0.2,0.6,0.7,0.7c0.6,0,1.1,0,1.7-0.4c2.2-1.6,4.4-3,6.3-4.9
		c0.4-0.4,0.9-1.1,1.5-0.2c0.1,0.1,0.5,0,0.6-0.1c0.6-0.6,1-0.2,1.5,0.2c2.2,1.7,3.5,4,4.3,6.6c0.3,0.9,0.2,2,0.2,3
		c0,1.1,0,1.1,1.2,1.3c1.7,0.3,3.4,0.7,5.1,0.6c1,0,1.8-0.3,2.6-0.9c1.3-0.9,2.5-1.8,3.8-2.6c2.1-1.2,4.3-2.3,6.7-2.9
		c1.7-0.4,3.7,0.6,4.5,2.2c0.4,0.8,0.7,1.7,0.8,2.5c0.4,2.5,0.6,5,0.9,7.4C86.6,23.8,86.6,23.8,86.5,23.8z"/>
	<path d="M29,13.6c2.5,0.1,4.9,0.5,7.2,1.2c2.5,0.7,5.1,1.2,7.6,1.9c2.1,0.5,4.2,1.2,6.4,1.7c4,1,7.9,2,12,2.8
		c1.7,0.4,3.6,0.3,5.3,0.4c0.5,0,1.1,0.1,1.6,0.2c0.1,0,0.2,0.2,0.3,0.4c-0.1,0.1-0.3,0.2-0.4,0.2c-0.2,0-0.5,0-0.7,0
		c-3.5-0.4-7-0.5-10.4-1.5c-2.4-0.7-4.9-1.1-7.3-1.7c-2.3-0.6-4.6-1.2-6.9-1.8c-3-0.8-6-1.8-9.1-2.4c-3.1-0.6-6.3-0.9-9.4-0.1
		c-0.1,0-0.3-0.1-0.5-0.2c0.1-0.2,0.2-0.4,0.4-0.5C26.4,13.9,27.7,13.8,29,13.6z"/>
	<path d="M20,21.6c-0.6,1.6-1.1,3.3-2.8,4.3c-0.1,0-0.2,0-0.3-0.1c0,0,0-0.2,0-0.3c0.2-0.2,0.4-0.5,0.6-0.6c1.2-0.7,1.2-2.1,1.7-3.2
		c0.1-0.2-0.2-0.5-0.2-0.8c0-0.2,0-0.4,0-0.6c0.2,0.1,0.5,0.2,0.7,0.4C19.9,20.9,19.9,21.3,20,21.6z"/>
	<path d="M8.9,23.8c-0.4,0-0.7,0-1.1,0c-0.1,0-0.2-0.1-0.3-0.2c0.1-0.1,0.2-0.2,0.3-0.2c1.5,0.2,2.7-0.7,4.1-0.9
		c0.2,0,0.4-0.2,0.5-0.1c0.2,0.1,0.4,0.4,0.6,0.6c-0.2,0.1-0.3,0.4-0.5,0.4C11.3,23.6,10.1,23.7,8.9,23.8
		C8.9,23.9,8.9,23.8,8.9,23.8z"/>
	<path d="M14.7,23.1c-0.2,0-0.5,0-0.7,0c-0.1,0-0.3-0.1-0.4-0.2c0.1-0.1,0.2-0.2,0.3-0.2c1-0.2,2.1-0.5,3.1-0.7
		c0.2,0,0.4,0.2,0.6,0.2c-0.1,0.1-0.3,0.4-0.4,0.4c-0.8,0.2-1.6,0.4-2.4,0.5C14.7,23.2,14.7,23.2,14.7,23.1z"/>
	<path d="M21,22.7c0.1,0,0.3,0.1,0.4,0.1c-0.1,0.1-0.3,0.3-0.4,0.4c-0.1,0.1-0.3,0.2-0.5,0.2c-0.3,0-0.5-0.1-0.8-0.2
		c0.2-0.2,0.4-0.4,0.7-0.5C20.5,22.7,20.7,22.7,21,22.7z"/>
</g>
</svg>
