<?xml version="1.0" encoding="iso-8859-1"?>
<!-- Generator: Adobe Illustrator 25.3.0, SVG Export Plug-In . SVG Version: 6.00 Build 0)  -->
<svg version="1.1" id="Calque_1" xmlns="http://www.w3.org/2000/svg" xmlns:xlink="http://www.w3.org/1999/xlink" x="0px" y="0px"
	 viewBox="0 0 65.2 37.8" style="enable-background:new 0 0 65.2 37.8;" xml:space="preserve">
<g>
	<path d="M43.2,30.7c-0.7,0-1.8,0.1-2.8-0.6c-0.2-0.1-0.5-0.2-0.7-0.1c-1.2,0.8-1.5-0.3-2.1-0.9c-0.3-0.3-0.4-1.1-1.2-0.5
		c-0.1,0.1-0.6-0.2-0.8-0.5c-0.4-0.6-0.7-1-1.5-1.1c-0.7,0-0.7-0.7-0.9-1.2c-0.3-0.7-0.7-1.1-1.5-0.9c-2.4,0.6-4.9,0.2-7.3,0.3
		c-0.2,0-0.4,0.1-0.6,0.2c0.1,0.1,0.2,0.3,0.4,0.4c1.4,0.9,2.4,2.1,2.9,3.7c0.4,1.2,1,2.3,1.6,3.3c0.3,0.5,0.8,0.9,1.3,1.2
		c0.3,0.2,0.7,0.3,0.9,0.5c0.3,0.2,0.8,0.7,0.8,0.8c-0.3,0.5-0.7,0.2-1.1,0c-0.2-0.1-0.3-0.2-0.5-0.2c-0.4-0.1-0.8-0.1-1.2-0.2
		c0.2,0.3,0.5,0.5,0.7,0.8c0.6,0.5,1.2,1,1.8,1.4c0.1,0.1,0.1,0.3,0.1,0.4c-0.2,0-0.4,0.2-0.5,0.1c-0.4-0.2-0.9-0.4-1.3-0.7
		c-1.2-0.8-2.3-1.6-3.5-2.4c-0.2-0.2-0.5-0.4-0.8-0.4c-1.2,0.2-1.9-0.7-2.5-1.5c-1.9-2.1-3.7-4.3-4.9-7c-0.5-1.2-1.2-1.8-2.5-2.2
		c-2.7-0.8-5.4-1.7-8-2.9c-2.2-1-4.2-2.3-6.1-3.6c-2-1.4-2-2.7-0.5-4.8c0.5-0.7,1.1-1.2,1.9-1.5c0.3-0.1,0.6-0.2,0.8-0.4
		c2.2-1.8,4.8-2.3,7.4-2.8c2-0.3,4-0.9,6.1-1.4c0.6-0.2,1.1-0.5,1-1.3c0-0.1,0-0.1,0-0.2c0.1-0.8,0-1.8,0.4-2.4
		c0.5-0.6,1.5-0.8,2.3-1.1c1.8-0.6,3.6-1.3,5.4-1.2c1.1,0,2.3-0.3,3.4,0c0.7,0.2,1.6,0,2.4,0.1c1.4,0.3,2.7,0.4,4.1,0.6
		C37.8,1,39.4,1.3,41,1.3c3.8,0,7.1,1.5,10.2,3.4c1.7,1,1.7,2.7,0.1,3.9c-0.6,0.4-1.2,0.8-1.9,0.9c-1,0.3-2,0.3-3,0.5
		c-0.2,0-0.4,0.1-0.5,0.1c0.1,0.1,0.2,0.2,0.4,0.3c1.7,0.6,3.4,0.9,5.2,0.3c1.3-0.5,2.6-1,3.8-1.4c1.1-0.4,2.1-0.8,3.2-1
		c2.5-0.4,4.1,0.3,5.5,2.5c1.3,2.1,1.2,4.5,1,6.9c0,0.3-0.2,0.7-0.2,1c-0.1,3-3.7,5.5-7,4.4c-1.5-0.5-3-1.2-4.5-1.8
		c-1.7-0.7-3.4-1.1-5.2-0.7c-0.7,0.2-1.4,0.5-2.1,0.9c-0.3,0.1-0.2,0.4,0.1,0.5c0.6,0.2,1.2,0.4,1.8,0.7c1.1,0.4,2,0.9,2.8,1.9
		c0.2,0.3,0.6,0.5,0.9,0.8c1.1,0.9,1.3,2.7-0.2,3.6C49.4,29.8,46.3,30.7,43.2,30.7z"/>
</g>
</svg>
