<?xml version="1.0" encoding="iso-8859-1"?>
<!-- Generator: Adobe Illustrator 25.3.0, SVG Export Plug-In . SVG Version: 6.00 Build 0)  -->
<svg version="1.1" id="Calque_1" xmlns="http://www.w3.org/2000/svg" xmlns:xlink="http://www.w3.org/1999/xlink" x="0px" y="0px"
	 viewBox="0 0 58.4 38.4" style="enable-background:new 0 0 58.4 38.4;" xml:space="preserve">
<g>
	<path d="M46.2,16.4c1.3,0,2.5,0,3.8,0c1.4,0,2.7-0.3,4-0.7c1.1-0.3,1.8-1.1,2.1-2c0.6-2.4,0.6-4.9,0.4-7.4
		c-0.1-1.3-0.2-2.6-0.2-3.9c0-0.2,0.2-0.5,0.3-0.5c0.2,0,0.5,0.1,0.6,0.2c0.3,0.6,0.8,1.1,0.9,1.7c0.5,3.1,0.8,6.2-0.1,9.3
		c-0.2,0.8-0.7,1.5-1,2.2c-0.1,0.1-0.1,0.3-0.1,0.5c0.2,0,0.3-0.1,0.5-0.1c0.2,0,0.4,0.1,0.7,0.1c-0.2,0.2-0.4,0.5-0.6,0.6
		c-1.6,0-3,0.9-4.4,1.5c-1.5,0.7-3.1,1.1-4.8,1.1c-2.4,0-4.8,0.2-7.1,0.3c-0.3,0-0.5,0.1-0.2,0.4c0.2,0.2,0.4,0.5,0.4,0.8
		c-0.1,0.9-0.3,1.9-0.6,2.7c-0.3,1.1-0.6,1.1-1.7,0.7c-0.7-0.3-0.7-0.3-0.6,0.5c0.1,1.4-0.2,2.6-1.1,3.8c-2.2,3.1-4.7,5.8-8,7.7
		c-3.7,2.1-7.7,3-11.8,1.8c-2.3-0.6-4.3-2-6.1-3.6c-2.4-2.2-4.6-4.7-6.4-7.4c-1.6-2.4-3.1-4.9-4.6-7.4c-0.3-0.5-0.3-0.8,0-1.3
		c2.6-3.9,5.1-8,8.3-11.5c1.4-1.5,2.6-3.1,4.2-4.4c2.8-2.2,6.1-2.8,9.6-2c5.2,1.1,9.6,3.5,13.3,7.1c1.3,1.3,2.2,2.8,2.1,4.7
		c0,0.2-0.1,0.5,0.4,0.5c1.2,0,2.3,1.2,2.4,2.5c0,0.2,0.1,0.5,0,0.7c-0.2,0.5-0.1,0.6,0.4,0.6C42.8,16.4,44.5,16.4,46.2,16.4
		C46.2,16.4,46.2,16.4,46.2,16.4z"/>
	<path d="M0.8,18.6c0.8,0.3,1.6,0.6,2.3,0.9c0.1,0.1,0.2,0.3,0.3,0.4c-0.2,0-0.3,0.1-0.5,0.1c-0.6-0.2-1.2-0.4-1.9-0.6
		C0.8,19.2,0.3,19.1,0.8,18.6z"/>
	<path d="M14.1,21.7c0,0.6-1.1,1.1-1.7,0.9c-0.4-0.2-0.7-0.4-1-0.6c-0.7-0.5-0.8-1-0.3-1.5c0.4-0.4,1.2-0.5,1.6-0.1
		c0.4,0.4,0.5,1.1,1.3,1C14,21.4,14,21.5,14.1,21.7z"/>
	<path d="M12.8,15.4c0.3,0.1,0.6,0.2,0.8,0.3c0.2,0.1,0.4,0.3,0.7,0.4c-0.2,0.1-0.4,0.4-0.7,0.4c-0.6,0-0.9,0.5-1.2,0.9
		c-0.1,0.2-0.6,0.4-0.7,0.4c-0.4-0.2-0.7-0.6-0.9-1c-0.1-0.2,0.1-0.7,0.3-0.9C11.7,15.7,12.3,15.6,12.8,15.4z"/>
	<path d="M24.1,24.7c0.9,0,1.8,0,2.7,0c0.1,0,0.2,0.2,0.3,0.3c-0.1,0.1-0.3,0.3-0.4,0.3c-0.6,0-1.3-0.1-1.9-0.1
		c-0.8,0-1.6,0.1-2.3,0c-0.5,0-1-0.2-1.4-0.3c0.4,0,0.8-0.1,1.2-0.1C22.9,24.7,23.6,24.7,24.1,24.7z"/>
	<path d="M31.5,14c0,0.1,0,0.2,0,0.2c-0.1,0-0.2,0.1-0.3,0.1c-0.4-0.2-0.7-0.4-1.1-0.5c-0.4-0.2-1,0-1.1-0.7
		c0.4,0.1,0.9,0.1,1.3,0.3C30.8,13.5,31.1,13.8,31.5,14z"/>
	<path d="M34.3,15.9c0.1,0,0.1,0,0.2,0.1c0.6,0.3,1.1,0.5,1.7,0.8c0,0-0.1,0.1-0.1,0.1c-0.6-0.2-1.2-0.3-1.8-0.5
		c-0.1,0-0.1-0.2-0.2-0.3C34.1,16,34.2,15.9,34.3,15.9z"/>
	<path d="M21.4,13.5c-0.4,0.2-0.7,0.3-1,0.4c-0.4,0.1-0.7,0.2-1.1,0.3c0.3-0.3,0.7-0.6,1-0.8c0.2-0.1,0.6-0.1,0.9-0.1
		C21.2,13.3,21.3,13.4,21.4,13.5z"/>
	<path d="M28.8,18.7c0.7-0.7,1.6-0.2,2.3-0.3c0.1,0,0.2,0.2,0.3,0.3c-0.1,0.1-0.3,0.3-0.4,0.3C30.3,18.8,29.6,18.7,28.8,18.7
		L28.8,18.7z"/>
	<path d="M20.5,18.3c0.4,0,0.6,0,0.8,0c0.2,0,0.3,0.1,0.5,0.2c-0.2,0.1-0.3,0.1-0.5,0.2c-0.2,0-0.4,0-0.5,0c-0.3-0.1-0.7-0.1-1-0.2
		C20.1,18.4,20.4,18.3,20.5,18.3z"/>
	<path d="M10.1,21.2c0.2,0.4,0.5,0.7,0.7,1c0,0,0,0.1-0.1,0.1c-0.1,0-0.3,0.1-0.3,0.1c-0.2-0.3-0.4-0.6-0.5-0.9
		C9.8,21.5,9.9,21.4,10.1,21.2z"/>
	<path d="M15.7,13.3c-0.1,0.2-0.1,0.2-0.1,0.2c-0.2,0-0.5,0.1-0.7,0c-0.3-0.1-0.5-0.3-0.7-0.5c0,0,0.1-0.1,0.1-0.1
		C14.8,13.1,15.2,13.2,15.7,13.3z"/>
	<path d="M17.9,14.4c-0.2,0.1-0.3,0.2-0.4,0.2c-0.3-0.2-0.5-0.4-0.8-0.7c0,0,0.1-0.2,0.1-0.2C17.2,13.9,17.6,14.2,17.9,14.4z"/>
	<path d="M5.2,17.3c0.5-0.1,0.9-0.3,1.3-0.4c0,0.1,0.1,0.3,0,0.3c-0.4,0.1-0.7,0.2-1.1,0.3C5.4,17.6,5.4,17.4,5.2,17.3z"/>
	<path d="M28.8,18.6c-0.1,0.1-0.1,0.2-0.2,0.2c-0.6,0-1.1,0-1.7,0c0,0,0-0.1,0-0.1c0.5,0,1-0.1,1.5-0.1
		C28.6,18.6,28.7,18.6,28.8,18.6C28.8,18.7,28.8,18.6,28.8,18.6z"/>
</g>
</svg>
