<?xml version="1.0" encoding="iso-8859-1"?>
<!-- Generator: Adobe Illustrator 25.3.0, SVG Export Plug-In . SVG Version: 6.00 Build 0)  -->
<svg version="1.1" id="Calque_1" xmlns="http://www.w3.org/2000/svg" xmlns:xlink="http://www.w3.org/1999/xlink" x="0px" y="0px"
	 viewBox="0 0 72.3 39.6" style="enable-background:new 0 0 72.3 39.6;" xml:space="preserve">
<g>
	<path d="M40.3,0c2.4,0,4.6,0.7,6.9,1.3C48.6,1.6,50,2,51.5,2.4c2.9,0.6,5.4,2.1,8,3.4c3.1,1.7,5.8,4,8.6,6.1c1.3,1,2.1,2.4,3,3.7
		c0.5,0.7,0,1.3-0.4,1.9c-0.3,0.4-0.5,0.8,0.2,1.1c0.3,0.1,0.6,0.5,0.8,0.7c0.9,1.2,0.9,2.2-0.2,3.3c-1.8,2.1-4,3.7-6.7,4.5
		c-0.2,0-0.3,0.1-0.5,0.2c-2.1,0.8-2.3,1.1-2.3,3.3c0,1-0.1,1.9-1,2.5c-0.6,0.4-0.9,0.4-1.3-0.2c-0.4-0.7-0.7-1.4-1-2.1
		c-0.1-0.2-0.2-0.3-0.4-0.4c-0.1,0-0.3,0.1-0.4,0.2c-0.1,0.1-0.2,0.3-0.2,0.5c-0.1,1.6-1.1,2.5-2.4,3.3c-3.3,2.2-6.9,3.6-10.8,4.3
		c-3.6,0.6-7.3,0.9-10.9,0.6c-3.7-0.3-7-1.5-9.8-4.3c-1.9-1.9-3.5-4.1-4.8-6.4c-0.3-0.6-0.6-1.2-0.2-1.8c0.2-0.3,0.5-0.5,0.7-0.8
		c-0.4-0.2-0.8-0.5-1.2-0.7c-1.3-0.6-2.7-0.8-4.2-0.2c-1.5,0.6-3,1.2-4.5,1.6C7.8,27.3,6,27.7,4.2,27c-2.2-0.8-3.6-2.2-4-4.5
		c-0.4-2.4,0-4.8,0.4-7.2C1.1,12.9,4,11.6,6.1,12c1.5,0.4,3,1,4.5,1.7c2.4,1.1,4.7,2.1,7.4,1.8c0.5-0.1,1-0.2,1.6-0.3
		c0.8-0.2,1-0.5,0.6-1.3c-0.3-0.7-0.1-1.4,0.4-2c1.6-1.9,3.1-3.9,4.8-5.7c3.1-3.3,7-5.2,11.6-5.7C38.1,0.4,39.2,0.2,40.3,0z"/>
	<path d="M67.5,24.9c-0.6,0.1-1.2,0.2-1.8,0.2c-1.5,0.1-3-0.1-4.1-1.3c-0.7-0.7-1-1.6-0.9-2.6c0-0.2,0.1-0.3,0.2-0.5
		c0.1,0.1,0.2,0.3,0.2,0.4c0.1,0.3,0.2,0.6,0.2,0.8c0.4,1.5,1.5,2.2,3.1,2.1c1-0.1,2-0.1,3-0.1c0.3,0,0.6,0.2,0.9,0.4
		C68.1,24.5,67.8,24.7,67.5,24.9z"/>
	<path d="M61.1,16.9c-0.1-0.1-0.2-0.1-0.2-0.2c0-0.1-0.1-0.3-0.1-0.3c0.4-0.3,0.8-0.6,1.3-0.9c0.1-0.1,0.4,0.1,0.6,0.1
		c-0.1,0.2-0.1,0.4-0.3,0.5C62,16.5,61.6,16.7,61.1,16.9z"/>
	<path d="M25.6,20.5c-0.4,0-0.4,0-0.5,0c-0.3,0-0.6-0.1-0.8-0.2c0.3-0.1,0.5-0.2,0.8-0.2c0.5-0.1,1-0.2,1.5-0.2
		c0.1,0,0.2,0.1,0.2,0.2c0,0.1-0.1,0.3-0.1,0.3C26.2,20.5,25.7,20.5,25.6,20.5z"/>
	<path d="M60.5,17.3c-0.3,0.3-0.5,0.5-0.8,0.6c0,0-0.3-0.3-0.3-0.3c0.1-0.2,0.3-0.4,0.5-0.6C60,17,60.2,17.2,60.5,17.3z"/>
</g>
</svg>
