<?xml version="1.0" encoding="iso-8859-1"?>
<!-- Generator: Adobe Illustrator 25.3.0, SVG Export Plug-In . SVG Version: 6.00 Build 0)  -->
<svg version="1.1" id="Calque_1" xmlns="http://www.w3.org/2000/svg" xmlns:xlink="http://www.w3.org/1999/xlink" x="0px" y="0px"
	 viewBox="0 0 80.5 23.8" style="enable-background:new 0 0 80.5 23.8;" xml:space="preserve">
<g>
	<path d="M79,11.9c0.8-0.1,1.2,0.4,1.4,1.1c0.2,0.7-0.4,1.2-0.9,1.4c-1.2,0.5-2.5,0.8-3.7,1.1c-1.6,0.4-3.3,0.7-4.9,1
		c-2.8,0.5-5.6,1.1-8.4,1.6c-1.3,0.2-2.6,0.5-3.8,0.7c-1.3,0.2-2.7,0.5-4,0.7c-3.3,0.3-6.7,0.5-10,0.8c-1.8,0.1-3.5-0.3-5-1.1
		c-1.2-0.6-2.4-0.9-3.8-0.4c-0.7,0.2-1.5,0.1-2.3,0.1c-0.4,0-0.8,0.2-0.4,0.6c1,1,0.4,2.1-0.2,2.9c-0.6,1-1.6,1.4-2.7,0.5
		c-0.8-0.6-1.8-1.2-1.5-2.6c0.2-0.6-0.4-0.9-0.9-0.7c-1.9,0.5-3.8,0.3-5.7,0.3c-0.5,0-0.8,0.1-0.8,0.7c-0.1,0.6-0.3,1.2-0.5,1.7
		c-0.5,1.3-1.1,1.6-2.5,1.6c-0.8,0-1.2-0.3-1.6-0.9c-0.4-0.8-0.9-1.5-1.3-2.3c-0.4-0.7-1-0.9-1.8-1.1c-2.3-0.3-4.7-0.7-7-1
		c-0.1,0-0.2,0-0.3,0.1c0,0.1,0,0.3,0.1,0.4c0.9,0.8,1.8,1.6,2.6,2.4c0.1,0.1,0.1,0.3,0.1,0.4c-0.2,0-0.4,0.1-0.5,0
		c-0.5-0.4-1-0.9-1.5-1.3c-0.1-0.1-0.4-0.1-0.6-0.1c0,0.2,0,0.3,0.1,0.5c0.1,0.3,0.3,0.6,0.4,0.9c-0.3-0.1-0.6-0.2-0.8-0.4
		c-0.5-0.4-0.9-1-1.4-1.4c-0.3-0.2-0.8-0.4-1.1-0.3c-0.5,0.2-0.7,0-1.1-0.2C2,18.8,1.3,18.3,1.5,17c0.1-0.4-0.3-0.9-0.6-1.2
		c-1.3-1.5-1.3-2.9,0.3-4.1c0.5-0.4,0.6-0.9,0.9-1.4c0.2-0.4,0.4-0.9,0.7-1.2c0.4-0.3,1.2-0.7,1.3-0.6c0.5,0.6-0.3,0.8-0.5,1.3
		c0,0.1-0.1,0.1-0.1,0.1c0,0.2,0,0.5-0.1,0.7c0.2,0,0.4,0.1,0.6,0C6.1,10,8,9.4,10,9c2.6-0.6,5.1-1.5,7.9-1.4c0.8,0,1.5-0.2,2.3-0.4
		c0.3-0.1,0.8-0.5,0.8-0.8c0.2-1.9,1.1-3.6,1.9-5.3c0.5-1.1,1.9-1.4,2.9-0.7c1.4,0.9,2,2.3,2.1,3.9c0,0.4-0.3,0.8-0.6,1.2
		c-0.5,0.6-1.1,1-1.7,1.6c-0.1,0.1,0.1,0.5,0.2,0.5c0.3,0.1,0.7,0,1.1,0c0.5,0,1-0.1,1.4,0c1.6,0.7,3,0,4.4-0.6
		c1.3-0.6,2.8-0.8,4.3-1.2c2.4-0.6,4.9-0.4,7.3-0.3c2.3,0.1,4.6,0.6,6.9,0.9c1.4,0.2,2.8,0.2,4.3,0.4C57.7,7.2,60,7.7,62.3,8
		c1.4,0.2,2.8,0.4,4.2,0.6c1.9,0.3,3.7,0.6,5.6,1c1.7,0.3,3.5,0.7,5.2,1.1C77.9,11,78.8,11,79,11.9c-0.8,0.9-1.8,0.5-2.7,0.3
		C70.5,10.9,64.5,10,58.6,9c-5-0.9-10.1-1.2-15.1-1.8c-2.6-0.3-5.1,0.2-7.6,0.5c-0.1,0-0.2,0.1-0.4,0c0.2,0.1,0.3,0,0.5,0
		c3.5-0.2,6.9-0.1,10.4,0.2c6.7,0.6,13.4,1.7,20.1,2.5c0.8,0.1,1.7,0.2,2.5,0.4c1.4,0.3,2.6,0.8,2.8,2.4c0.1,1.1-0.9,2-2.7,2.4
		c-2.6,0.6-5.3,0.6-7.9,0.9c-5.7,0.6-11.3,0.9-17,1.6c-0.3,0-0.6,0-0.8,0.2c0.2,0.2,0.5,0.2,0.8,0.2c3.9,0.2,7.6-0.5,11.4-1
		c4.5-0.6,8.9-1.2,13.4-2.1c2.5-0.5,5.1-1.2,7.6-1.8C77.5,13.3,78.4,12.8,79,11.9z"/>
	<path d="M6.6,10.8c0.9,0.2,1.9-0.2,2.5,0.9c0.3,0.4,0.2,0.7-0.1,0.9c-0.5,0.6-2,0.9-2.6,0.6c-0.9-0.4-1.1-1.1-0.5-1.8
		C6.2,11.2,6.4,11,6.6,10.8C6.6,10.8,6.6,10.8,6.6,10.8z"/>
</g>
</svg>
