<?xml version="1.0" encoding="iso-8859-1"?>
<!-- Generator: Adobe Illustrator 25.3.0, SVG Export Plug-In . SVG Version: 6.00 Build 0)  -->
<svg version="1.1" id="Calque_1" xmlns="http://www.w3.org/2000/svg" xmlns:xlink="http://www.w3.org/1999/xlink" x="0px" y="0px"
	 viewBox="0 0 82.5 37.2" style="enable-background:new 0 0 82.5 37.2;" xml:space="preserve">
<g>
	<path d="M38.9,1.5c1.8,1.3,2.1,2.9,1.1,4.9c-0.5,0.9-0.4,1.1,0.7,1.1c2,0,4,0.1,5.9,0c1.2-0.1,2.5-0.5,3.6-1
		c2.7-1.1,5.5-1.4,8.3-1.1c3.7,0.4,5.1,3.8,4.5,6.8c0,0.2-0.2,0.3-0.2,0.5c-0.1,0.6-0.2,1.1-0.3,1.7c0.6,0.1,1.2,0.1,1.8,0.2
		c0.8,0,1.6,0.3,2,1c0.4,0.7,0.4,1.5-0.2,2.1c-0.7,0.8-1.5,1.4-2.4,1.8c-0.6,0.2-1.1,0.5-1.6,0.8c-0.3,0.2-0.6,0.4-0.8,0.6
		c0.3,0.1,0.6,0.1,1,0.2c3,0.7,5.9-0.1,8.8-0.5c2.3-0.4,4.6-0.3,6.9,0.4c0.8,0.2,1.6,0.5,2.3,0.9c1.4,0.7,2.4,1.7,2.4,3.4
		c0,0.8,0,1.6-0.2,2.3c-0.3,1.1-1.2,1.9-2.3,2.1c-2,0.5-4.1,0.8-6.2,0.3c-0.2,0-0.3-0.1-0.5-0.1c-4-0.1-8-0.3-12-0.4
		c-0.1,0-0.3,0-0.4,0c-0.1,0.1-0.2,0.2-0.4,0.3c0.1,0.1,0.1,0.2,0.2,0.2c0.7,0.3,1.4,0.6,2.1,0.9c0.5,0.3,1,0.6,1.4,1
		c0.6,0.6,0.6,1.5,0.1,2.3c-0.1,0.1-0.2,0.2-0.2,0.3c-1.7,1.8-6.7,2.7-8.9,1.6c-1.5-0.7-2.9-1.4-4-2.7c-0.6-0.7-1.1-1-2-0.6
		c-0.5,0.2-1.1,0.2-1.6,0.2c-0.1,0-0.2,0.1-0.3,0.1c0.1,0.1,0.2,0.2,0.3,0.2c0.6,0.3,1.2,0.6,1.8,0.9c0.2,0.1,0.5,0.1,0.7,0.2
		c0.4,0.4,1.1,0.8,1.2,1.2c0.1,0.7-0.6,1-1.3,1.3c-0.9,0.3-1.8,0.4-2.8,0c-1.4-0.6-2.7-1.3-3.7-2.4c-0.6-0.7-1.3-0.8-2.2-0.9
		c-3.5-0.4-7-0.4-10.3-1.7c-1.5-0.6-3-1.4-4.5-2.2c-1-0.5-1.9-1-2.8-1.6c-1.4-0.9-1.4-1.9,0-2.7c0.8-0.5,1.7-0.9,2.5-1.2
		c2.1-0.8,4.2-1.4,6.2-2.2c2.9-1.1,5.8-1.8,8.8-2.2c2.6-0.4,5.2-0.3,7.9-0.4c0.2,0,0.4,0,0.5,0c2.1,1,3.2-0.4,4.4-1.7
		c0.2-0.2,0.2-0.4-0.1-0.5c-0.7-0.2-1.5-0.4-2.2-0.6c-1.2-0.4-2.5-0.8-3.7-1.3c-0.8-0.3-1.6-0.6-2.4-0.5c-1.3,0.1-2.5,0-3.8,0
		c-2.6,0.1-5.2,0.2-7.9,0.3c-0.2,0-0.3,0.1-0.5,0.1c0.2,0.1,0.4,0.1,0.6,0.2c1.5,0.1,3-0.2,4.4,0.4c0.3,0.1,0.7,0.2,1,0.4
		c0.3,0.2,0.5,0.6,0.8,0.9c-0.4,0.2-0.7,0.5-1.1,0.6c-2,0.5-4.1,0.5-6.2,0.2c-1.9-0.3-3.8-0.1-5.7,0c-0.6,0-1.3,0.1-1.9,0.3
		c-0.7,0.1-1.5,0.1-2,0.5c-1.3,0.9-2.6,0.8-3.8,0c-1-0.7-2-0.9-3.2-0.8c-2.3,0.1-4.4-0.4-6.7-1c-3.5-0.9-6.3-2.7-8.8-5.2
		C0.4,11-0.1,10.2,0,10.1c0.5-0.5,0.7-1.4,1.6-1.6c1.7-0.4,3.5-0.8,5.2-1.2c2.1-0.6,4.1-1.2,6.2-1.7c1.2-0.3,2.5-0.4,3.7-0.6
		c3.2-0.5,6.4-0.2,9.7-0.3c1.4,0,2.6-0.4,3.7-1.4c1.5-1.3,3.1-2.6,5.2-3.1C36.9-0.3,37.7,0,38.9,1.5c-0.4,0.4-0.8,0.5-1.3,0.3
		c-1.9-0.7-3.3,0.4-4.8,1.3c-1,0.7-0.9,1.4,0.2,1.8c1.6,0.5,3.3,0.4,5,0.2c0.9-0.1,0.9-1,0.7-1.7C38.5,2.8,38.1,2.1,38.9,1.5z"/>
	<path d="M29,25c0.1,0.1,0.2,0.3,0.3,0.4c0.7,1,0.7,1-0.3,1.9c-1,0.2-2,0.1-2-1.2C27,24.9,28,24.7,29,25z"/>
	<path d="M7.9,9.3c0.4,0.5,0.4,1,0,1.6c-0.6,0.3-1.1,0.7-1.8,0.3C5.4,10.7,5.2,10,5.7,9.3C6.3,8.5,7.1,8.4,7.9,9.3z"/>
	<path d="M40.4,29c-0.5,0-1.1,0-1.6,0c-0.2,0-0.4-0.2-0.5-0.4c0.2-0.1,0.4-0.4,0.6-0.4c0.6,0,1.2,0,1.8,0c2.1,0.1,3.6-1.1,5-2.4
		c0.6-0.6,0.4-1.2-0.5-1.4c-1.6-0.3-3.2-0.2-4.7,0.5c-1.1,0.5-2.2,1-3.3,1.4c-0.2,0.1-0.4-0.1-0.6-0.2c0.1-0.1,0.2-0.4,0.3-0.4
		c2.3-1.1,4.5-2.7,7.2-2.3c0.6,0.1,1.2,0.2,1.7,0.3c1.1,0.4,1.4,1.1,0.7,2c-1.5,1.8-3.1,3.3-5.7,3.1C40.6,29,40.5,29,40.4,29
		C40.4,29,40.4,29,40.4,29z"/>
	<path d="M71.9,27.1c-0.2,0-0.3,0-0.3,0c0-0.1-0.1-0.2-0.1-0.3c0.2-0.3,0.5-0.6,0.7-1c0,0,0.1-0.1,0.2,0c0.1,0.1,0.2,0.2,0.1,0.2
		C72.3,26.5,72.1,26.8,71.9,27.1z"/>
	<path d="M19.7,10c2-0.2,3.7,0.2,5.4,0.8c0.3,0.1,0.7,0.2,1,0.4c0.6,0.4,0.7,0.8,0.2,1.3c-2.3,2.6-6.3,4.6-9.9,2.3
		c-0.3-0.2-0.7-0.6-0.6-0.7c0.6-1-0.3-1.5-0.8-2.1C15,11.9,15,11.7,15,11.6c0.2,0,0.4-0.1,0.5-0.1c0.8,0.4,1.3,1.1,1.4,2
		c0.1,0.7,0.5,0.9,1,1.1c1.8,0.7,3.5,0.5,5.2-0.4c0.9-0.5,1.7-1.1,2.5-1.7c0.4-0.3,0.3-0.7-0.2-0.8c-1.9-0.4-3.7-0.9-5.6-1.1
		c-0.9-0.1-1.9,0.3-2.8,0.4c-0.2,0-0.5,0.2-0.7,0.2c-0.2,0-0.4-0.2-0.6-0.2c0.1-0.2,0.2-0.4,0.4-0.5c0.6-0.2,1.2-0.3,1.7-0.4
		C18.4,10,19.1,10,19.7,10z"/>
</g>
</svg>
