<?xml version="1.0" encoding="iso-8859-1"?>
<!-- Generator: Adobe Illustrator 25.3.0, SVG Export Plug-In . SVG Version: 6.00 Build 0)  -->
<svg version="1.1" id="Calque_1" xmlns="http://www.w3.org/2000/svg" xmlns:xlink="http://www.w3.org/1999/xlink" x="0px" y="0px"
	 viewBox="0 0 240.4 122.5" style="enable-background:new 0 0 240.4 122.5;" xml:space="preserve">
<g>
	<path d="M46.7,57.8c3.8,0,7.7,0,11.5,0c0.5,0,0.9-0.2,1.4-0.4c-0.3-0.4-0.5-0.9-0.9-1.1c-1.9-1.3-3.8-2.7-5.8-3.8
		c-4.8-2.6-5-7.8-1.5-11.3c2.6-2.6,5.5-4.8,8.3-7.1c5.8-4.7,11.7-9.2,17.5-13.9c7.2-5.8,15-10.1,24.4-11.6c4-0.6,7.8-2.7,11.9-3.6
		c6.1-1.3,12.4-2.2,18.6-3.2c4.6-0.7,9.2-1.8,13.7-1.8c5.9,0,11.9,0.6,17.6,2.7c3.9,1.4,7.9,2.6,11.9,3.6
		c12.2,3.1,22.2,10.3,32.3,17.3c4.8,3.3,7.6,7.9,9.5,13c1.7,4.7,4.5,8.4,8.2,11.7c1.2,1.1,2.7,2.1,3.4,3.5c1.7,3.7,4.1,6.8,6.5,9.9
		c2.8,3.6,2.7,3.7-0.5,7.4c-0.3,0.4-0.4,1-0.6,1.5c0.4-0.2,0.9-0.3,1.3-0.5c0.7-0.4,1.3-1,2.1-1.3c0.7-0.3,2.1-0.7,2.2-0.5
		c0.5,0.9,1.2,2.2,0.8,3c-0.8,1.8-1.8,3.6-3.2,5c-4.7,4.9-9.4,9.7-15.5,13.2c-4.3,2.4-8.8,4.8-12.8,7.5c-4.5,3.1-9.1,5.9-13.6,9
		c-0.9,0.6-1.4,1.8-1.9,2.8c-0.4,0.7-0.5,1.6-1,2.3c-2.4,3.5-4.5,4-7.9,1.4c-1.1-0.9-1.5-0.9-2.2,0c-3,3.8-7.4,4.9-11.7,6.2
		c-8,2.5-16.2,4-24.4,3.9c-14.4-0.1-28.6-2.3-42.6-6.2c-10.8-2.9-20.9-7.5-30.9-12.2c-4-1.9-7.9-4.3-11.5-6.9
		c-1.9-1.4-3.3-3.7-4.8-5.6c-2-2.6-1.3-5,0.6-7.2c0.5-0.6,1.2-1.2,1.7-1.8c0.8-0.8,1.7-1.7,2.5-2.5c-1.3,0.3-2.6,0.5-3.8,0.9
		c-2.2,0.8-4.5,1.4-6.5,2.5c-7.4,4.1-15.3,6.2-23.6,7.1c-2.4,0.2-4.9-0.3-7.4-0.7c-6.3-1.1-12.1-3.6-17.4-7c-3.2-2.1-3.3-4-0.8-7.1
		c3.3-4,7.1-7.5,11.6-10.1c5.9-3.4,12.1-6.5,18.9-7.4c4.8-0.6,9.6-0.6,14.4-0.8C46.6,57.6,46.7,57.7,46.7,57.8z"/>
	<path d="M184.1,107.9c-4.8,1.1-9.6,2.5-14.5,3.2c-6,0.9-11.9,2.1-18.2,1.1c-5.7-0.9-11.5-0.7-17.2-2.1c-6.1-1.5-12.2-3.1-18.2-4.8
		c-5.4-1.5-10.9-2.7-16.2-4.7C89.9,97,80.7,92.2,72,86.2c-0.9-0.6-1.8-1.6-2.4-2.5c-0.6-0.9-0.9-2-1.3-3.1c0.9,0.5,1.9,0.9,2.6,1.6
		c2.3,2.5,4.9,4.3,7.8,6.1c9.9,6,20.3,10.5,31.5,13.4c7.8,2,15.6,4.4,23.5,6.4c2.7,0.7,5.5,1.4,8.3,1.4c6.9,0,13.7,1.9,20.8,0.6
		c6.3-1.2,12.8-1.7,18.9-4C183.2,105.5,184.2,106,184.1,107.9L184.1,107.9z"/>
	<path d="M86.6,65.8c-0.3,0-0.7,0-1,0c-0.3-0.1-0.6-0.2-0.9-0.3c0.2-0.2,0.3-0.6,0.6-0.7c0.7-0.3,1.5-0.8,2.3-0.9
		c4.6-0.4,9.2-0.8,13.8-1.2c4.8-0.4,9.6-0.7,14.3-1c0.7,0,1.3,0,2,0.1c0.3,0,0.5,0.3,0.7,0.5c-0.3,0.1-0.6,0.4-0.9,0.4
		c-2.6,0.4-5.2,0.8-7.8,1.1c-7.1,0.7-14.1,1.3-21.2,1.9C87.9,65.9,87.2,65.8,86.6,65.8C86.6,65.8,86.6,65.8,86.6,65.8z"/>
	<path d="M113.8,48.6c-0.7,0.5-1,0.9-1.4,1c-3.5,0.8-7.1,1.5-10.6,2.1c-0.3,0.1-0.8-0.4-1.1-0.6c0.2-0.3,0.3-0.7,0.5-0.8
		c3.8-0.9,7.7-1.7,11.5-2.5C113,47.9,113.3,48.3,113.8,48.6z"/>
	<path d="M89.6,53.8c-0.3,0-0.7,0-1,0c-0.3-0.1-0.6-0.2-0.9-0.4c0.2-0.2,0.4-0.4,0.7-0.5c0.6-0.1,1.3-0.2,2-0.3
		c2.7-0.5,5.4-0.9,8-1.4c0,0.1,0.1,0.4,0,0.4c-2.5,1.8-5.5,1.5-8.3,2.2C90,53.9,89.8,53.9,89.6,53.8C89.6,53.9,89.6,53.8,89.6,53.8z
		"/>
	<path d="M119.6,47.7c-1,0.3-1.9,0.6-2.8,0.8c-0.1,0-0.2-0.5-0.4-0.8c0.8-0.3,1.7-0.6,2.6-0.8C119.1,46.9,119.3,47.3,119.6,47.7z"/>
</g>
</svg>
