<?xml version="1.0" encoding="iso-8859-1"?>
<!-- Generator: Adobe Illustrator 25.3.0, SVG Export Plug-In . SVG Version: 6.00 Build 0)  -->
<svg version="1.1" id="Calque_1" xmlns="http://www.w3.org/2000/svg" xmlns:xlink="http://www.w3.org/1999/xlink" x="0px" y="0px"
	 viewBox="0 0 87.2 16" style="enable-background:new 0 0 87.2 16;" xml:space="preserve">
<g>
	<path d="M81.2,9.3c0.3,0.1,0.6,0.1,0.8,0.2c1.3,0.6,2.5,1.3,3.8,1.9c0.1,0.1,0.3,0.2,0.3,0.4c0,0.1-0.2,0.3-0.3,0.4
		c-0.5,0.2-1,0.3-1.5,0.4c-3.2,0.1-6.3-0.5-9.2-1.9c-0.9-0.4-1.7-0.9-2.6-1.3c-0.7-0.3-1.4-0.6-2.2-0.7c-0.7-0.1-1.4,0.1-2,0.2
		c0.4,0.4,0.8,0.9,1.1,1.4c0.4,0.7,0.7,1.5,1,2.2c0.2,0.5,0.7,1.3,0.5,1.6c-0.5,0.7-1.2,0-1.8-0.1c-2.1-0.5-4.2-1.2-5.8-2.7
		c-1.1-1.1-2.3-0.5-3.5-0.7c-0.1,0-0.2,0.1-0.2,0.2c-1.3,2.1-2.3,2.6-4.8,2.2c-0.6-0.1-1.2-0.2-1.7-0.4c-0.7-0.3-1.4-0.2-2.1,0
		c-0.7,0.2-1.4,0.1-2.1,0.2c-0.2,0-0.3,0.1-0.4,0.2c0.1,0.1,0.2,0.3,0.3,0.4c0.6,0.3,1.2,0.5,1.5,1.2c0.1,0.4,0.5,0.8,0.1,1.3
		c-0.4,0.5-0.9,0.2-1.3,0c-1.2-0.7-2.4-1.3-3.5-2.2c-0.6-0.5-1.2-0.7-2-0.6c-2.5,0-4.9,0-7.4,0c-1.4,0-2.9-0.2-4.2-0.7
		c-0.7-0.3-1.4,0-2.1-0.2c-0.6-0.1-1-1-1.6-1.2c-0.7-0.3-1.5-0.4-2.3-0.4c-8.1,0-16.2,0-24.3,0c-0.6,0-1.4,0.3-1.9-0.3
		c0.6-0.1,1.3-0.2,1.9-0.2C4.6,9.8,7.3,9.7,10,9.6c2.4-0.2,4.9-0.4,7.3-0.7c3.1-0.3,6.3-0.6,9.4-1.1c1.3-0.2,2.6-0.9,3.9-1.2
		c2.2-0.6,4.3-1.3,6.5-1.7c1.6-0.3,3.2-0.4,4.8-0.5c3.2-0.1,6.4-0.1,9.5,0c1.7,0,3.5,0.2,5.2,0.3c0.8,0.1,1.4-0.2,2.1-0.7
		c2.1-1.6,4.4-3,7.1-3.7c1.3-0.4,1.7-0.1,1.8,1.3c0,0.5,0,1,0,1.4c0.1,0.9-0.1,1.6-1.1,2c-0.2,0.1-0.4,0.3,0.1,0.4
		c1.7,0.4,3.4,0.6,5.1,0.1c1.8-0.6,3.6-1.3,5.4-1.9c2.3-0.8,4.6-1.6,6.9-2.3c0.9-0.3,1.9-0.1,2.9-0.1c0.1,0,0.4,0.2,0.4,0.3
		c-0.1,0.2-0.2,0.5-0.3,0.5c-1.7,0.7-3.4,1.5-4.8,2.7c-0.7,0.6-1.5,1.2-2.1,1.9c-0.8,0.8-0.7,1,0.1,1.7C80.4,8.5,80.8,8.9,81.2,9.3
		c-1.1,0.9-1.8,0.3-2.5-0.5c-0.7-0.8-1.1-1.7-0.4-2.7c0.4-0.7,1.3-1,1.5-1.8c-0.3-0.1-0.7,0-1,0c-1.1,0.1-2.1,0.6-3,1.1
		C72.5,7.3,69,7,65.4,6.5c-2.8-0.4-5.7-0.7-8.6-0.7c-4,0-8.1-0.4-12.1-0.3c-0.1,0-0.2,0-0.4,0c0,0,0,0,0.1,0c0.1,0,0.2,0.1,0.3,0.1
		c1.7-0.1,3.3,0,5,0c0.6,0,1.5-0.2,1.5,0.7c0,0.9-0.9,0.8-1.6,0.8c-0.6,0-1.1-0.2-1.7-0.2c0.6,0.1,1.1,0.2,1.7,0.3
		c0.7,0,1.1,0.4,1.2,1c0.1,0.7-0.4,1.1-1,1.2c-0.7,0.2-1.4,0.3-2.1,0.6C47.4,10,47,10.2,47,10.6c0,0.5,0.5,0.5,0.9,0.6
		c0.4,0.1,0.7,0,1.1,0c2.6-0.4,5.2-0.8,7.8-1.4c3.8-0.9,7.6-1.9,11.5-2.3c2.2-0.2,4.4,0.3,6.4,1.3c2.1,1.1,4.3,1.8,6.6,2.2
		c0.1,0,0.2,0.1,0.4,0c-0.1-0.1-0.2-0.1-0.3-0.2C81,10.3,80.8,9.9,81.2,9.3z"/>
	<path d="M71.3,7.5c-1,0-2,0-3.1,0c-0.2,0-0.3-0.1-0.5-0.2c0.1-0.1,0.3-0.2,0.4-0.2c2,0,4,0,5.9,0c0.1,0,0.2,0.1,0.4,0.2
		c-0.1,0-0.2,0.1-0.3,0.1C73.2,7.5,72.2,7.5,71.3,7.5C71.3,7.5,71.3,7.5,71.3,7.5z"/>
	<path d="M56.5,6.9c-0.9-0.1-1.9-0.2-2.8-0.3c0.9,0,1.9-0.1,2.8-0.1c0.9,0,1.8,0,2.7,0c0.2,0,0.3,0.1,0.5,0.2
		c-0.2,0.1-0.3,0.2-0.5,0.2c-0.9,0-1.8,0-2.7,0C56.5,6.8,56.5,6.9,56.5,6.9z"/>
	<path d="M63.8,7.1c-0.8,0-1.7,0-2.5,0c-0.2,0-0.3-0.1-0.5-0.2c0.2-0.1,0.3-0.1,0.5-0.1c1.7,0,3.4,0,5.2,0c0.1,0,0.2,0.1,0.3,0.1
		c-0.1,0.1-0.2,0.2-0.3,0.2C65.6,7.1,64.7,7.1,63.8,7.1z"/>
	<path d="M78.1,4.6C78,4.7,78,4.8,77.9,4.8c-0.5,0.3-1,0.6-1.6,0.8c-0.2,0.1-0.4,0-0.7,0c0.1-0.1,0.3-0.3,0.4-0.4
		c0.6-0.3,1.2-0.6,1.7-0.8c0.1,0,0.2,0,0.3,0.1C78.1,4.5,78.1,4.5,78.1,4.6z"/>
	<path d="M35.8,10.4c-0.8-0.1-1.5-0.2-2.3-0.2c0.8-0.1,1.6-0.2,2.4-0.2c0.5,0,1,0,1.4,0c0.3,0,0.6,0.2,0.9,0.3
		c-0.2,0.6-0.6,0-0.8,0.1C36.9,10.4,36.3,10.4,35.8,10.4C35.8,10.4,35.8,10.4,35.8,10.4z"/>
	<path d="M40.1,8.9c0.2,0.2,0.4,0.5,0.7,0.7c-0.2,0.4-0.5,0.8-0.7,1.2c-0.1,0.1-0.2,0.3-0.2,0.4c-0.1-0.2-0.1-0.3-0.2-0.5
		c0-0.2,0.1-0.6,0-0.7C38.9,9.3,39.6,9.1,40.1,8.9z"/>
	<path d="M42.3,7.1c-0.4,0.7-0.9,1.4-1.8,1.5C40.7,7.6,41.4,7.3,42.3,7.1z"/>
</g>
</svg>
