<?xml version="1.0" encoding="iso-8859-1"?>
<!-- Generator: Adobe Illustrator 25.3.0, SVG Export Plug-In . SVG Version: 6.00 Build 0)  -->
<svg version="1.1" id="Calque_1" xmlns="http://www.w3.org/2000/svg" xmlns:xlink="http://www.w3.org/1999/xlink" x="0px" y="0px"
	 viewBox="0 0 77.8 29" style="enable-background:new 0 0 77.8 29;" xml:space="preserve">
<g>
	<path d="M35.3,26.5c0.5,0.4,1.1,0.8,1.6,1.4c0.5,0.6,0.2,1.2-0.6,1.2c-1.1-0.1-2.1-0.2-3.1-0.5c-2-0.7-4-1.5-5.8-2.6
		c-0.4-0.3-1-0.3-1.5-0.4c-3.6-0.1-7.3-0.2-10.9-0.4c-2.5-0.2-4.9-0.7-7.3-1.4c-2.3-0.7-4.2-2.2-6.3-3.2c-0.6-0.3-1.5-0.8-1.3-1.6
		c0.3-1,0-2.3,1.4-2.8c1.5-0.5,2.4-1.9,3.5-2.9c1.4-1.2,2.6-2.6,4.4-3.3C9.5,9.7,9.8,9.7,10,9.7c0.6,1-0.1,1.7-0.8,1.9
		c-0.9,0.3-1.4,1-1.9,1.6c-0.3,0.4-0.9,0.5-1.2,1c-0.8,0.7-2,1.2-1.6,2.5c0.4,1.2,1.1,1.9,2.6,2.2c1.7,0.3,3.4,0.9,5,1.7
		c0.6,0.3,1,0.7,1.2,1.2c0.7,1.5,1.5,2,3.1,1.6c1.3-0.3,2.3-0.9,3-2c1-1.7,2.1-3.3,2.4-5.3c0.1-0.7,0.4-1.2,0.8-1.8
		c0.9-1.5,0.3-2.6-1.5-2.9c-0.7-0.1-1.2-0.3-1.3-1c-0.1-0.8,0.5-1.2,1.3-1.2c1.8-0.1,3.3,0.7,4.4,2c1,1.2,0.4,2.4-0.4,3.6
		c-0.5,0.8-1.3,1.5-1.2,2.6c0,0.2-0.1,0.3-0.2,0.5c-0.3,1.5-0.8,2.8-1.6,4.1c-0.6,0.8-0.3,1.5,0.7,1.7c0.9,0.2,1.8,0.4,2.7,0
		c2.5-1.2,5-0.9,7.6-0.5c5.6,0.9,11,0.6,16.1-1.8c2.6-1.2,5.2-2.2,8.2-2.1c2.1,0.1,2.7-0.7,2.8-2.8c0-0.6,0-1.2,0-1.8
		c-0.1-1.9-0.9-2.6-2.8-2.4c-2,0.2-3.8-0.3-5.5-1.2c-2.9-1.7-6-2.3-9.3-2.6C36.5,8,30.2,7.3,23.9,7c-4.1-0.1-8,0.9-11.6,2.6
		c-0.7,0.4-1.5,0.9-2.3,0c0-0.2,0-0.4,0.1-0.5c3.3-2,6.8-3.5,10.8-3.5c0.8,0,1.4-0.1,1.7-0.9c0.3-0.6,0.7-1.1,1.1-1.6
		c0.3-0.3,0.6-0.6,1-0.7c1.6-0.6,3.2-1.2,4.8-1.6c1.5-0.3,3.1-0.3,4.5-0.9c0.2-0.1,0.5,0,0.7,0c2.2,0.2,4.3,0.4,6.5,0.6
		c0.7,0.1,1.4,0.2,2.1,0c1.2-0.3,2.3,0.2,3.5,0.1c0.1,0,0.1,0,0.2,0c1.2,0.8,2.6,0.5,3.9,0.3c1.7-0.2,3.3,0.1,4.9,0.6
		c1.5,0.5,1.4,0.5,1.6,2.1c0.2,1.8-0.8,2.9-2.2,3.7c-0.1,0.1-0.2,0-0.3,0c-0.7-0.7-0.3-1.2,0.2-1.8C56.4,4.1,56,3.1,54,2.8
		c-2.7-0.4-5.3-0.3-7.2,2c-1,1.1-0.9,1.7,0.5,2.2c1.2,0.4,2.4,0.7,3.6,1.1c0.8,0.3,1.5,0.2,2.2-0.3c0.6-0.4,1.2-0.8,2-0.2
		C55.2,8.4,54.5,8.6,54,9c-0.3,0.2-0.7,0.7-0.6,0.9c0.1,0.3,0.6,0.6,0.9,0.7c1.1,0.4,2.2,0.4,3.5,0.2c2.7-0.5,5.2-1.5,7.7-2.5
		c2.2-0.8,4.4-0.8,6.6-0.1c0.3,0.1,0.4,0.4,0.7,0.6c0,0.2-0.1,0.3-0.2,0.5c-0.4,0.3-0.8,0.3-1.2,0.2c-2.8-0.7-5.2,0.4-7.6,1.4
		c-0.7,0.3-1,0.7-1,1.5c0.1,2.3,0.1,4.5,0,6.8c0,1,0.4,1.6,1.3,1.9c3.2,1.5,6.3,2.4,9.5,0c0.4-0.3,1-0.5,1.5-0.3
		c0.2,0.1,0.3,0.2,0.3,0.4c-0.8,1.2-2.1,1.9-3.3,2.5c-2.3,1.1-4.6,0.6-6.8-0.4c-1.3-0.6-2.6-1-4-1.6c-1.9-0.8-3.9-0.7-5.9-0.6
		c-0.1,0-0.3,0.2-0.4,0.2c0.1,0.1,0.2,0.3,0.3,0.3c0.6,0.2,1.1,0.4,1.7,0.6c0.2,0.1,0.6,0.4,0.6,0.5c-0.2,0.5-0.6,0.3-0.9,0.1
		c-0.3-0.1-0.7-0.2-1-0.4c-1.8-0.7-3.5-0.9-5.2,0.3c-0.7,0.5-1.5,0.7-2.3,1c-0.5,0.2-0.6,0.6-0.1,0.9c0.8,0.6,1.6,1.2,2.5,1.8
		c1.3,0.9,2.8,0.6,4.2,0.5c0.7-0.1,1.4-0.3,2.1-0.6c1.7-0.6,1.9-1,1.1-2.7c-0.1-0.1,0-0.3,0-0.5c0.1,0,0.3,0,0.4,0.1
		c0.3,0.4,0.8,0.8,0.9,1.3c0.2,0.6,0,1.2-0.7,1.7c-1.4,0.9-2.9,1.3-4.5,1.5c-0.6,0.1-1.1,0.2-1.7,0.4c-0.8,0.3-1.9,0.3-2.8,0.2
		c-1-0.2-2.1-0.4-3.1-0.6c-1.3-0.3-2.8-0.4-3.8-1.6c-0.9-1.1-2.2-1.3-3.6-1.1c-0.9,0.1-1.8,0.3-2.6,0.3
		C35.4,25.4,35.2,25.8,35.3,26.5c-0.8,0.6-1.5,0-2.1-0.3c-0.9-0.5-1.8-0.7-2.9-0.5c0.8,0.5,1.6,0.7,2.5,1
		C33.6,27.1,34.5,27.1,35.3,26.5z"/>
	<path d="M75.3,10.3c0.4,0.4,0.9,0.8,1.3,1.2c0.7,0.9,1.3,1.9,1.2,3.2c0,0.4-0.1,0.8,0,1.2c0.4,2.3-0.7,3.9-2.4,5.3
		c-0.1-0.1-0.2-0.1-0.2-0.2c-0.6-0.7-0.3-1.3,0.1-1.9c1.8-2.3,1.6-4.7,0-7c-0.3-0.5-0.6-0.9-0.3-1.5C75,10.5,75.1,10.4,75.3,10.3z"
		/>
	<path d="M72.8,8.9c1,0.2,2,0.4,2.5,1.4c-0.1,0.1-0.1,0.1-0.2,0.2c-1.4,0.4-2.3,0.1-2.5-1.4C72.7,9,72.7,9,72.8,8.9z"/>
	<path d="M6.8,12.9c0.1,0,0.1,0,0.2,0c2.4-0.8,4.2,0,5.1,2.3c0.1,0.3,0.1,0.6,0.1,0.9c-0.2,1.2-1.6,2.7-2.8,2.9
		c-1.4,0.2-3-0.5-3.6-1.7c-0.5-0.9-0.5-1.9-0.1-2.9c0.1-0.2,0.1-0.5,0.2-0.7C6.1,13.4,6.4,13.2,6.8,12.9z"/>
	<path d="M23.4,17.6c2-1.5,4.3-2.5,6.7-3.3c2-0.8,4-1,6.1-0.6c1.8,0.3,2.4,1.8,1.1,3.2c-1.4,1.5-2.7,3.1-4.5,4
		c-1.1,0.6-2.3,0.8-3.6,1.1c-0.7,0.2-1.6,0.1-2.3,0c-1-0.1-1.2-0.2-1.4-1.2c0-0.2,0-0.4,0-0.5c-0.3-0.9-0.4-1.9-1.6-2
		C23.6,18.1,23.5,17.7,23.4,17.6L23.4,17.6z"/>
	<path d="M17.5,20.4c0.1-0.8,0-1.5,0.2-2.3c0.5-2.3-0.1-3.7-2.2-4.8c-0.2-0.1-0.3-0.3-0.4-0.5c0.2-0.1,0.4-0.2,0.6-0.2
		c0.8,0.1,1.4,0.6,1.8,1.2c0.1,0.2,0.1,0.5,0.3,0.6c1.5,2.1,1,4.1-0.2,6C17.7,20.5,17.5,20.4,17.5,20.4z"/>
	<path d="M24,12.5c-0.5,0.3-0.7,0.5-1,0.6c-0.4,0.1-0.8,0-1.1-0.1c-0.2-0.1-0.3-0.6-0.2-0.7c0.2-0.2,0.6-0.4,0.9-0.3
		C22.9,11.9,23.2,12.2,24,12.5z"/>
	<path d="M17.7,20.5c0.1,1.2-0.9,1.7-1.7,2.3c-0.1,0.1-0.4,0-0.4-0.1c-0.1-0.1,0-0.4,0.1-0.5c0.6-0.6,1.3-1.2,1.9-1.8L17.7,20.5z"/>
	<path d="M6.8,16.8c0-0.2,0-0.4,0-0.5c-0.1-1.7,0.4-2.2,2-2.4c0.8-0.1,1.2,0.3,1.3,1.1c0,0.4,0,0.7,0,1.1C10,17.3,9,17.9,7.9,17.4
		C7.5,17.2,7.2,17,6.8,16.8L6.8,16.8z"/>
</g>
</svg>
