<?xml version="1.0" encoding="iso-8859-1"?>
<!-- Generator: Adobe Illustrator 25.3.0, SVG Export Plug-In . SVG Version: 6.00 Build 0)  -->
<svg version="1.1" id="Calque_1" xmlns="http://www.w3.org/2000/svg" xmlns:xlink="http://www.w3.org/1999/xlink" x="0px" y="0px"
	 viewBox="0 0 72.3 35.2" style="enable-background:new 0 0 72.3 35.2;" xml:space="preserve">
<g>
	<path d="M23.2,5.3c0.6,0.1,1.5,0.2,2.4,0.3c1.8,0.2,3.5,0.2,5-1.3c1.5-1.4,3.2-2.7,5.1-3.7c0.4-0.2,0.7-0.5,1.1-0.6
		C37.5-0.1,38,0,38.4,0.7c0.4,0.7,0.8,1.5,1,2.3c0.7,2.6,2.4,4.4,4.7,5.5c2.4,1.1,4.8,2,7.3,3c1.6,0.7,3.2,1.5,4.1,3.2
		c0.1,0.2,0.5,0.4,0.7,0.4c0.8,0.1,1.5-0.1,2.2-0.4c3.3-1.7,6.6-3.4,9.9-5c0.8-0.4,1.8-0.7,2.7-1c0.4-0.1,0.6,0.2,0.5,0.5
		c-0.2,0.6-0.4,1.3-0.7,1.8c-1.2,1.8-2,3.7-3.6,5.2c-0.7,0.7-0.5,2.1,0.2,2.9c0.6,0.7,1.2,1.3,1.9,1.9c1.2,1.2,2,2.6,2.7,4.1
		c0.1,0.2,0.2,0.4,0.2,0.7c0.1,0.7-0.3,1-1,0.7c-0.4-0.2-0.9-0.4-1.3-0.6c-3.4-1.1-6.8-2.3-10.2-3.3c-1.1-0.3-2.4-0.2-3.5-0.3
		c-0.1,0-0.2,0-0.3,0.1c-1.3,1.1-2.8,2.2-4,3.5c-0.8,0.9-1.2,2-0.6,3.3c0.3,0.6,0.4,1.4,0.3,2.1c0,0.9-0.8,1.3-1.6,1
		c-1.5-0.6-3-1.3-4.3-2.4c-2.1-1.7-4.4-2.2-7-1.5c-0.8,0.2-1.7,0.1-2.5,0.1c-2.2,0-4.4,0-6.7,0c-0.2,0-0.4,0.1-0.6,0.1
		c0.1,0.1,0.3,0.2,0.4,0.3c1.1,0.7,0.5,1.7,0.5,2.5c-0.1,1.5-1.2,2.6-2.2,3.5c-0.8,0.8-2.3,0.3-2.6-0.9c-0.5-1.7-1-3.4-1.4-5.1
		c-0.2-0.8-0.5-1.2-1.4-1.3c-4.3-0.5-8.4-1.7-12.5-2.9c-0.3-0.1-0.6-0.2-0.9-0.2c-0.2,0-0.4,0.1-0.6,0.2c0.1,0.2,0.1,0.4,0.2,0.5
		c0.6,0.6,1.3,1.2,2.2,1.4c1.7,0.3,3.4,0.6,5,1.1c0.9,0.3,1.7,0.8,2.5,1.3c0.1,0.1,0.1,0.3,0.2,0.4c-0.2,0-0.4,0.1-0.5,0
		c-1.3-0.9-2.9-1.1-4.4-1.5c-0.2,0-0.3-0.1-0.5-0.1c-0.4,0-0.8,0.1-1.2,0.2c0.3,0.3,0.5,0.6,0.8,0.9c0.7,0.6,1.4,1.2,2.2,1.8
		c1.3,1,2.8,1.6,4.3,2.1c0.2,0.1,0.3,0.3,0.4,0.5c-0.2,0-0.5,0.2-0.7,0.1c-2.6-0.7-4.9-2.1-6.8-4.1c-0.8-0.9-1.7-1.6-2.8-2.1
		c-1-0.4-1.8-1.4-2.4-2.3c-0.5-0.9-1.1-1.3-2-1.5c-0.9-0.2-1.7-0.5-2.5-0.8c-0.5-0.2-1.1-0.4-0.9-1.1c0.2-0.6,0.8-0.9,1.5-0.8
		c1,0.1,2,0.1,3,0.1c0.1,0,0.2-0.1,0.2-0.2c0-0.1-0.1-0.3-0.2-0.3c-0.7-0.1-1.4-0.2-2.1-0.4c-0.5-0.1-0.9-0.2-1.4-0.4
		c-2.8-1-2.9-3.1-1.6-5.1c1-1.7,2.6-3.1,4.1-4.4C5.6,9.3,6.6,9,7.6,8.7c2-0.8,4.1-1.7,6.2-2.3c1.4-0.4,2.9-0.5,4.4-0.7
		C19.7,5.5,21.3,5.4,23.2,5.3z"/>
	<path d="M3.5,12.5c0.1,0,0.2,0,0.3,0c0.7,0.4,0.4,0.9,0.3,1.5c-0.3,1.3,0.6,2.5,1.9,2.6c1.4,0.1,2.3-0.8,2.3-2.2
		c0-1.3-1.1-2.2-2.5-2c-0.6,0.1-1.2,0.5-1.7-0.2c0.8-1.1,1.9-1.4,3.1-1c1.3,0.5,2.2,1.4,2.3,2.8c0.2,1.8-0.6,3.2-2,3.7
		C5.7,18.4,4.1,17.7,3,16c-0.1-0.1-0.3-0.4-0.4-0.4c-0.4,0-0.6,0.1-0.3-0.4C2.6,14.5,2.8,13.7,3,13C3.2,12.8,3.4,12.7,3.5,12.5z"/>
	<path d="M20.1,20.7c0.2,0.2,0.5,0.4,0.6,0.7c0.1,0.4-0.3,0.5-0.7,0.5C19.9,21.4,19.4,21,20.1,20.7z"/>
	<path d="M52.1,17.9c-1.2-0.1-2.5-0.2-3.7-0.4c-2.8-0.5-5.7-1.2-8.5-1.8c-0.6-0.1-1.1-0.3-1.7-0.5c-0.4-0.1-0.9-0.3-1.3-0.5
		c0.5,0,1.1-0.2,1.6-0.1c0.8,0.1,1.6,0.5,2.4,0.7c1.9,0.4,3.9,0.7,5.8,1.1c1.7,0.4,3.4,0.8,5.2,1.2C51.9,17.7,52,17.8,52.1,17.9
		C52.1,17.9,52.1,17.9,52.1,17.9z"/>
	<path d="M28,12.1c1.6,0.4,3.1,0.8,4.6,1.2c0.1,0,0.1,0.2,0.1,0.3c0,0.1-0.2,0.2-0.2,0.2c-0.6-0.1-1.1-0.2-1.7-0.4
		c-1-0.3-1.9-0.6-2.9-0.9c-0.2,0-0.3-0.1-0.5-0.2C27.6,12.3,27.8,12.2,28,12.1z"/>
	<path d="M18.5,11.8c1.4-1,3.1-0.6,4.6-0.6c0.1,0,0.1,0.1,0.2,0.2c-0.1,0.1-0.2,0.2-0.3,0.2c-0.2,0.1-0.4,0.2-0.5,0.2
		C21.3,11.1,20,12.1,18.5,11.8L18.5,11.8z"/>
	<path d="M12.8,22.9c0.2-0.5,0.4-1,0.6-1.5c0.1-0.3,0.3-0.5,0.4-0.7c0,0.3,0.1,0.7-0.1,1C13.5,22.1,13.1,22.5,12.8,22.9L12.8,22.9z"
		/>
	<path d="M6,16.1c-0.8-0.1-1.6-1-1.5-1.7c0.1-0.7,1-1.6,1.7-1.5c0.7,0.1,1.6,1,1.5,1.7C7.7,15.4,6.8,16.2,6,16.1z"/>
</g>
</svg>
