<?xml version="1.0" encoding="iso-8859-1"?>
<!-- Generator: Adobe Illustrator 25.3.0, SVG Export Plug-In . SVG Version: 6.00 Build 0)  -->
<svg version="1.1" id="Calque_1" xmlns="http://www.w3.org/2000/svg" xmlns:xlink="http://www.w3.org/1999/xlink" x="0px" y="0px"
	 viewBox="0 0 75.5 35.5" style="enable-background:new 0 0 75.5 35.5;" xml:space="preserve">
<g>
	<path d="M75.3,17.9c0.3,2.1-0.2,4-1,6c-0.6,1.6-1.7,2.7-3.2,3.4c-1.1,0.5-2.1,0-3.1-0.4c-2.5-1.1-4.9-2.4-7.4-3.6
		c-1.4-0.7-2.9-1.1-4.5-0.4C56,22.9,55.9,23,55.7,23c0.1,0.1,0.3,0.2,0.4,0.3c0.4,0.2,0.9,0.3,1.3,0.5c1.6,0.5,2.2,1.4,2.3,3
		c0.1,1.5-0.2,2.9-1.5,3.7c-0.7,0.5-1.6,0.8-2.5,0.9c-1.1,0.1-2.2,0.1-3.4-0.3c-1-0.4-2.2-0.2-3.2-0.9c-0.1-0.1-0.4-0.1-0.5-0.1
		c-0.6,1-1.1,0.3-1.5-0.1c-0.1-0.1-0.3-0.3-0.4-0.3c-1.6,0.5-2.5-0.7-3.5-1.5c-0.6-0.6-1.1-0.6-1.9-0.3c-1.2,0.5-2.5,0.7-3.8,1
		c-1.7,0.3-3.4,0.5-5.1,0.8c-0.1,0-0.2,0-0.4,0.1c0.1,0.1,0.2,0.2,0.3,0.3c0.8,0.8,1.2,2.2,0.8,3.2c-0.3,0.9-2.1,2.1-3,2
		c-0.3,0-0.6-0.3-1-0.4c-0.1-0.1-0.4-0.1-0.5-0.1c-0.8,1.7-1.3,0.1-1.5-0.2c-1.2-1.4-2.3-2.9-3.3-4.4c-0.6-0.9-1.1-1.2-2.1-1.2
		c-2.5-0.2-5-0.4-7.4-0.7c-0.8-0.1-1.6-0.4-2.4-0.7c-2.5-1-5.2-1.5-7.8-2.3c-1.2-0.4-2.3-1-3.4-1.5c-0.9-0.4-1.1-0.9-1-1.5
		c0.2-0.5,0.9-0.9,1.7-0.8c0.6,0.1,1.2,0.2,1.7,0.4C3.7,21.9,4,22,4.3,22c0.6,0,1.3-0.1,1.9-0.2c-0.2-0.7-0.9-0.7-1.4-1
		c-0.5-0.3-1.1-0.5-1.6-0.8c-0.8-0.5-1-1.3-0.3-1.9c1.4-1.4,2.7-2.9,4.4-3.9c2-1.2,3.5-2.8,5.1-4.4c1-1,2.1-1.9,3.6-2.2
		c1.7-0.3,3.3-1,5.1-0.9c0.4,0,0.8-0.3,1.2-0.3C22.9,6.4,23,6,23,5.5c0-0.6,0.1-1.2,1-1c0.2,0,0.6-0.5,0.7-0.8
		c0.2-0.4,0.3-0.8,1-0.7c0.7,0.1,0.5-0.7,0.7-1c0.3-0.4,0.4-0.9,1-0.2c0,0.1,0.4,0,0.5-0.1c0.3-0.3,0.5-0.6,0.8-1
		c0.2-0.3,0.4-0.2,0.4,0.1c0,0.2,0.1,0.4,0.2,0.5c0.5,0.8,0.8,0.8,1.2,0c0.2-0.3,0.3-0.7,0.5-1c0.1-0.1,0.3-0.2,0.4-0.3
		c0.1,0.1,0.2,0.3,0.2,0.4C31.9,0.8,32,1,32.1,1.3c0.3-0.1,0.6-0.2,0.9-0.4c0.2-0.1,0.2-0.4,0.4-0.6c0.4-0.4,0.7-0.4,0.9,0.2
		c0.2,0.7,0.5,0.7,1,0.2c0.2-0.2,0.3-0.4,0.4-0.5c0.1-0.1,0.3-0.1,0.5-0.1c0,0,0.1,0.2,0.1,0.3c0,0.2-0.1,0.5-0.1,0.7
		c0,0.3,0.2,0.5,0.3,0.8c0.2-0.1,0.5-0.2,0.7-0.4c0.2-0.1,0.3-0.3,0.4-0.3c0.1,0,0.4,0.1,0.4,0.2c0.1,0.3-0.1,0.6,0,0.9
		c0.1,0.5,0.6,0.5,0.9,0.2c0.2-0.2,0.3-0.4,0.4-0.6c0.1-0.1,0.3-0.2,0.5-0.2C39.9,1.6,40,1.9,40,2c0,0.2,0,0.5,0,0.7
		c0.1,0.4,0.4,0.4,0.6,0.1c0.4-0.5,0.7-0.3,0.8,0.2c0.2,0.7,0.7,0.6,1.1,0.2c0.4-0.4,0.7-1,1.5-0.6c0.1,0.1,0.4-0.2,0.5-0.3
		c1.8-2,4.2-1.9,6.5-1.4c1.8,0.4,3.6,1.2,5.3,2c1.5,0.8,2.9,1.9,3.8,3.4c0.8,1.4,0.4,4.4-0.9,5.3c-0.7,0.5-1.8,0.6-2.7,1
		c-0.3,0.1-0.6,0.3-0.9,0.4c0.3,0.1,0.6,0.4,0.9,0.4c1.5,0.2,3,0.4,4.4-0.4c1.3-0.7,2.6-1.5,3.9-2.1c1.4-0.6,2.8-1.3,4.3-1.6
		c1.9-0.4,3.5,0.3,4.5,2.1c0.2,0.3,0.4,0.6,0.5,0.9c0.4,0.9,1,1.8,1.2,2.7C75.6,15.9,75.3,16.9,75.3,17.9z"/>
	<path d="M25.6,20c1.2-0.6,2.4-1.3,3.7-1.8c0.9-0.4,1.9-0.6,2.9-1c1.1-0.5,2.3-0.5,3.5-0.5c1,0,1.4,0.4,1.5,1.4
		c0.1,1.3-0.3,2.5-1.1,3.5c-1.9,2.6-4.5,3.4-7.6,3c-0.1,0-0.1,0-0.2,0c-0.4-0.2-1.1-0.6-1.1-0.7c0.2-0.7,0.7-0.2,1.1-0.1
		c2.1,0.3,4.1,0.1,5.9-1.3c1.2-0.9,1.7-2.1,2.1-3.4c0.3-1.1-0.2-1.5-1.3-1.5c-0.3,0-0.6-0.1-0.9,0c-2.3,0.8-4.8,1.1-6.9,2.4
		c-0.3,0.2-0.4,0.5-0.6,0.8l0,0C26.2,20.7,25.8,20.5,25.6,20L25.6,20z"/>
	<path d="M11.8,18.6c-1.6,0-2.4-0.8-2.5-2.3c0-1.3,1.2-2.7,2.3-2.7c1.3,0.1,2.8,1.6,2.8,2.8C14.4,17.8,13.4,18.6,11.8,18.6z"/>
	<path d="M26.7,20.7c0.3-0.1,0.6-0.4,0.9,0c0.4,0.6,0.7,1.2,0.5,2c0,0.1-0.2,0.3-0.3,0.4c-0.1-0.1-0.2-0.3-0.2-0.4
		C28,21.7,27.2,21.3,26.7,20.7L26.7,20.7z"/>
	<path d="M58.7,17.4c0.5,0.2,0.9,0.5,1.4,0.8c0,0-0.1,0.1-0.1,0.1c-0.5-0.1-1.1-0.2-1.6-0.4c0,0,0-0.1,0-0.2
		C58.5,17.7,58.5,17.6,58.7,17.4z"/>
	<path d="M30.5,12.2c-0.3-0.1-0.5-0.1-0.8-0.2c0,0,0-0.2,0-0.3c0.5,0.1,0.9,0.1,1.4,0.2c0,0.1,0,0.3-0.1,0.3
		C30.9,12.1,30.7,12.1,30.5,12.2z"/>
	<path d="M62.3,18.7c-0.3-0.2-0.5-0.3-0.6-0.5c0,0,0.2-0.3,0.3-0.3c0.2,0,0.4,0.1,0.6,0.2C62.5,18.2,62.4,18.4,62.3,18.7z"/>
</g>
</svg>
