<?xml version="1.0" encoding="iso-8859-1"?>
<!-- Generator: Adobe Illustrator 25.3.0, SVG Export Plug-In . SVG Version: 6.00 Build 0)  -->
<svg version="1.1" id="Calque_1" xmlns="http://www.w3.org/2000/svg" xmlns:xlink="http://www.w3.org/1999/xlink" x="0px" y="0px"
	 viewBox="0 0 64.3 37.6" style="enable-background:new 0 0 64.3 37.6;" xml:space="preserve">
<g>
	<path d="M47.5,11.6c2,0,3.8-0.5,5.5-1.4c2.7-1.3,5.2-2.8,8.1-3.8c0.5-0.2,1.4-0.6,1.6-0.3c0.5,0.5-0.2,1-0.4,1.5
		c-0.8,1.7-1.7,3.4-2.5,5.1c-0.6,1.2-0.5,2.1,0.5,3.2c1.5,1.8,2.7,3.8,3.9,5.7c0.5,0.7,0.2,1.1-0.7,1.1c-0.5,0-1.1-0.2-1.6-0.3
		c-3.6-1-7.2-2-10.8-3c-2-0.6-3.7,0.3-5.5,1.1c-0.1,0.1-0.3,0.3-0.2,0.4c0,0.1,0.2,0.3,0.4,0.3c0.6,0.1,1.3,0.3,1.9,0.4
		c1,0.1,1.8,0.6,2.3,1.5c0.4,0.6,0.8,1.2,1.2,1.8c0.7,1,0.5,1.9-0.6,2.4c-1,0.4-2,0.8-3,1.2c-1.5,0.6-3.1,1.3-4.6,1.9
		c-0.3,0.1-0.6,0.3-1,0.5c-2,0.9-4,1.1-5.6-0.8c-0.1-0.2-0.7-0.3-0.7-0.2c-0.7,0.8-1.1,0.2-1.6-0.3c-0.2-0.2-0.4-0.3-0.5-0.5
		c-0.6-1.3-1.8-1.2-2.9-1.1c-2.3,0.2-4.5,0.5-6.7,0.7c-0.1,0-0.3,0.1-0.4,0.2c0.1,0.1,0.2,0.3,0.4,0.4c0.6,0.3,1.2,0.6,1.8,0.7
		c1.7,0.4,2.2,1.7,2.3,3.2c0.1,0.8,0,1.5,0,2.3c0,0.6,0.1,1.2,0.2,1.8c0,0.2-0.1,0.4-0.1,0.6c-0.2-0.1-0.5-0.1-0.7-0.2
		c-0.4-0.3-0.9-0.6-1.3-1c-1-0.9-1.9-1.9-3.1-2.6c-1-0.6-1.6-1.9-2.3-2.9c-1.6-2.5-1.6-2.5-4.5-2.9c-1.5-0.2-2.9-0.5-4.4-0.7
		c-0.3-0.1-0.7-0.2-1-0.3c-3.1-1.6-6.3-3.1-9.2-5.1C1,21.6,0.5,21,0.1,20.4c-0.3-0.5-0.1-0.9,0.6-0.9c0.2,0,0.4,0.1,0.7,0.1
		c-0.1-0.2-0.2-0.4-0.4-0.5c-0.6-0.3-0.4-0.6-0.2-1c0.9-1.9,1.9-3.7,3.4-5.2c2.5-2.5,5.2-4.7,8.4-6.2c0.7-0.3,1.1-0.8,1.2-1.6
		c0-0.5,0.3-0.9,0.5-1.3c0.1-0.2,0.6-0.5,0.7-0.4c1,0.6,1.2-0.2,1.6-0.8C17,2.2,17.3,1.8,18,2.1c0.2,0.1,0.6-0.1,0.7-0.3
		c0.4-0.6,0.8-1,1.7-0.9c0.8,0.1,1.5-0.4,2.1-1c0.7,0.6,1.4,0.6,2.1,0c0.5-0.3,0.8,0.7,1.4,0.2c0.5-0.5,1-0.2,1.4,0.2
		c0.1,0.1,0.3,0.1,0.3,0.1c0.7-0.3,1.3-0.6,2,0c0.5,0.4,1.4-0.2,2,0.4c0.2,0.2,0.6,0.1,1,0c0.4-0.1,0.9-0.3,0.8,0.5
		c0,0,0.2,0.1,0.3,0.1c0.6-0.3,1.1,0,1.7,0.3C36,2,36.8,1.9,37.3,2.2c0.7,0.4,1.7,0,2.3,0.7c0.1,0.1,0.5-0.1,0.8-0.2
		c0.7-0.4,1.4-0.3,2.2-0.1c1.9,0.6,3.8,1,5.7,1.5c0.6,0.2,1.1,0.3,1.7,0.6c1.3,0.7,1.4,1.7,0.4,2.7c-0.8,0.7-1.7,1.3-2.6,1.9
		c-0.8,0.5-1.8,1-2.6,1.5c-0.2,0.1-0.3,0.2-0.4,0.3c0.2,0.1,0.4,0.3,0.6,0.4C46,11.5,46.7,11.5,47.5,11.6z"/>
	<path d="M22.3,24.2c-0.9-0.1-2-0.3-3-0.5c-0.6-0.1-0.9-0.7-0.7-1.2c0.5-1.3,0.1-2.4-0.8-3.4c-0.4-0.5-0.3-0.9,0.1-1.4
		c1.8-1.9,3.8-3.5,6.4-4.4c0.7-0.2,1.4-0.7,2-1.1c0.5-0.3,1-0.4,1.5,0c0.5,0.4,0.3,0.9,0.2,1.4c-0.9,2.7-1.7,5.5-2.6,8.3
		C24.9,23.5,24,24.2,22.3,24.2z"/>
	<path d="M20.3,9.6c1.7-0.1,3.4-0.2,5.1-0.3c1.2,0,2.5,0.2,3.7,0.1c3.8-0.1,7.4,0.9,10.9,2.5c1.6,0.7,3.3,1.4,5,1.8
		c0.1,0,0.2,0.2,0.3,0.3c-0.2,0.1-0.4,0.4-0.5,0.3c-1.5-0.5-2.9-1-4.4-1.6c-2-0.7-4-1.5-6.1-2.1c-1.2-0.3-2.5-0.4-3.7-0.5
		c-1.7-0.2-3.4-0.4-5.2-0.3c-1.8,0-3.5,0.3-5.3,0.4c-1.6,0.1-3.3,0.2-4.8,0.7c-0.1,0-0.3-0.1-0.3-0.1c0-0.1,0-0.2,0.1-0.3
		c0.1-0.1,0.3-0.3,0.4-0.3c1.6-0.3,3.1-0.6,4.7-0.9C20.2,9.5,20.3,9.5,20.3,9.6z"/>
	<path d="M6.9,16.8c0,0.6-0.7,1.2-1.3,1.2c-0.7,0-1.5-0.7-1.5-1.3c0-0.6,0.8-1.3,1.5-1.2C6.3,15.6,6.9,16.2,6.9,16.8z"/>
</g>
</svg>
