<?xml version="1.0" encoding="iso-8859-1"?>
<!-- Generator: Adobe Illustrator 25.3.0, SVG Export Plug-In . SVG Version: 6.00 Build 0)  -->
<svg version="1.1" id="Calque_1" xmlns="http://www.w3.org/2000/svg" xmlns:xlink="http://www.w3.org/1999/xlink" x="0px" y="0px"
	 viewBox="0 0 60.4 36.2" style="enable-background:new 0 0 60.4 36.2;" xml:space="preserve">
<g>
	<path d="M35.7,28.2c0.5-0.9,1-1.7,1.3-2.6c0.2-0.6,0.6-1.6,0.3-2c-0.6-0.8-1.4-1.6-2.4-2c-0.3-0.1-0.5-0.1-0.8-0.2
		c-0.1,0-0.2-0.2-0.1-0.3c0.1-0.1,0.3-0.3,0.3-0.3c1.5,0.5,2.9-0.3,4.3-0.3c2,0,3.9-0.4,5.9-0.5c0.8-0.1,0.7-0.3,0.5-0.9
		c-0.1-0.1,0.1-0.4,0.1-0.5c0.2,0.1,0.3,0.2,0.5,0.3c0.2,0.2,0.3,0.6,0.4,0.6c0.4,0.1,0.8,0,1.2,0c0.1,0,0.2-0.2,0.2-0.2
		c-0.1-0.3-0.2-0.6-0.4-0.9c-0.1-0.1-0.4-0.2-0.6-0.2c-0.7,0-1.3-0.1-2,0c-0.2,0-0.3,0.4-0.5,0.6c-0.2-0.2-0.3-0.5-0.6-0.6
		c-0.4-0.2-0.9-0.3-1.4-0.4c-0.8-0.1-1.5-0.2-2.3-0.3c-2.1-0.3-4.2-0.5-6.3-0.7c-2-0.2-3.9-0.5-5.9-0.8c-0.1,0-0.2-0.2-0.3-0.3
		c0.1-0.1,0.3-0.3,0.4-0.3c2.1,0.3,4.1,0.6,6.1,0.9c0.4,0.1,0.8,0,1.3,0c0.2,0,0.3-0.1,0.5-0.1c-0.2-0.1-0.5-0.2-0.5-0.3
		c-0.1-0.2-0.1-0.5,0-0.7c0-0.1,0.3-0.3,0.4-0.3c1.7-0.1,2-1.2,2.1-2.5c0-0.1,0-0.2,0.1-0.3c0.2,0.1,0.4,0.2,0.6,0.2
		c-0.5,1.1,0.6,1.5,0.9,2.3c0.1,0.3,0.2,0.5,0.2,0.8c-0.3,0.1-0.6,0.2-0.8,0.2c-0.4-0.1-0.8-0.4-1.2-0.5c-0.2,0-0.4,0.2-0.6,0.3
		c0.1,0.1,0.2,0.3,0.4,0.4c0.4,0.1,0.8,0.1,1.2,0.1c2,0.2,4,0.4,6,0.7c2.2,0.3,4.3,0.6,6.5,0.7c1.9,0.1,3.7,0.5,5.6,0.7
		c0.8,0.1,1.6,0,2.3,0c0.7,0,1.5,0,1.8,0.8c0.2,0.3-0.8,0.8-1.8,0.8c-1,0-1.9,0-2.9,0c-2.5,0.1-5,0.2-7.5,0.4
		c-2.4,0.2-4.8,0.6-7.3,0.7c-0.8,0-1.9,0.1-1.8,1.4c-1.5,1.3-1.3,3.2-2.1,4.8c-0.4,0.7-0.9,1.4-1.4,2c-0.2,0-0.4,0-0.5-0.2
		C35.2,28.5,35.4,28.3,35.7,28.2z"/>
	<path d="M35.6,10.4c-0.1-0.2-0.3-0.5-0.3-0.5c0.8-0.5,0.5-0.9,0-1.4c-1-0.9-1.6-2.1-2.6-3c-1.2-1.2-2.8-2.2-4.4-3
		c-1.5-0.8-3.2-1.4-4.9-1.7c-2.5-0.4-5-0.8-7.6-0.3c-2.6,0.5-5,1.5-7.3,2.7c-0.3,0.2-0.7,0.2-1,0.3c0.8-1.2,2.2-1.5,3.3-2.1
		c1-0.5,2.1-0.9,3.2-1.1c3.7-0.6,7.4-0.6,11.1,0.4c2.8,0.8,5.1,2.1,7.4,3.7C34,5.5,35,6.9,36,8.2c0.5,0.7,0.8,1.4,1.2,2.1
		c0,0.1-0.1,0.1-0.1,0.2C36.6,10.8,36.1,10.7,35.6,10.4z"/>
	<path d="M4.4,6.5C3.8,7.6,3.1,8.7,2.5,9.8c-1,1.6-1.6,3.3-1.6,5.1c-0.1,2.7-0.2,5.5,0.5,8.2C2,26,3.4,28.3,5.5,30.4
		c0.5,0.5,1.3,0.9,1.3,1.8C3.1,29.5,1,26,0.3,21.6C0.1,20,0.1,18.4,0,16.8c-0.1-3.8,1.4-7,3.7-9.9C3.8,6.7,4.1,6.6,4.4,6.5z"/>
	<path d="M6.9,32.2c0.5,0.2,1.1,0.3,1.6,0.7c2.1,1.5,4.4,2.2,6.9,2.6c1.6,0.2,3.2,0.4,4.8,0.3c3.2-0.3,6.4-0.5,9.3-2.1
		c0.4-0.2,1-0.2,1.5-0.4c-1.8,1.5-4,2.1-6.3,2.5c-2.4,0.4-4.9,0.4-7.3,0.3c-2.8,0-5.5-0.6-8-2C8.4,33.6,7.5,33,6.9,32.2z"/>
	<path d="M35.7,28.2c-0.1,0.3-0.5,0.6,0.1,0.9c-0.9,1-1.9,2-2.8,3c-0.1,0.1-0.3,0.1-0.5,0.1c0-0.2,0-0.3,0.1-0.5
		c0-0.5,1.3-0.7,0.4-1.5c0.4-0.3,0.8-0.6,1.3-0.8c0.4-0.2,0.4-0.1,0.3-0.6C34.3,28.1,34.7,27.9,35.7,28.2z"/>
	<path d="M37.4,12.2c-0.5,0.3-0.7,0.3-0.7-0.4c0-0.2,0-0.5,0-0.7c-0.1-0.3,0-0.5,0.3-0.6c0.1-0.1,0.2-0.1,0.2-0.2
		C37.6,10.9,38.1,11.4,37.4,12.2z"/>
	<path d="M7.5,3.6c-0.1,1.1-1,1.2-1.8,1.5C6,4.2,6.9,4.1,7.5,3.6z"/>
	<path d="M31,33.2c0-0.9,0.7-0.9,1.4-1C32.2,32.9,31.5,33,31,33.2z"/>
	<path d="M16.3,21.8c-0.1,0.7-0.3,1.4-0.5,2c-0.1,0.3-0.2,0.3-0.4,0c-0.2-0.4-0.7-0.6-1-0.9c-0.1-0.1-0.2-0.3-0.3-0.5
		c0,0.2-0.1,0.3-0.1,0.5c-0.1,0.1-0.2,0.3-0.3,0.4c0-0.2-0.1-0.3-0.1-0.5c0,0-0.1-0.1-0.1-0.1c-0.3,0.2-0.5,0.7-0.8,0.2
		c-0.1-0.2,0.2-0.6,0.4-0.9c0.4-0.6,0-1-0.3-1.4c-0.1-0.1,0-0.3,0-0.5c0.1,0,0.2,0,0.3,0c0.9,0.1,1.8,0.7,2.8,0.1
		c0,0,0.3,0.1,0.3,0.2c0,0.4,0,0.8,0,1.2C16.2,21.8,16.3,21.8,16.3,21.8z"/>
	<path d="M11.2,14c0,0.1,0,0.2,0,0.3c-0.8,0.4-1.2,1.2-1.8,1.8c-0.1-0.2-0.2-0.5-0.3-0.5c-0.5-0.1-1.1-0.1-1.6,0
		c-0.3,0-0.6,0.3-0.7-0.2c-0.1-0.4,0-0.8,0.5-1C8.2,14.1,9,14,9.9,13.8c0.1,0,0.3-0.1,0.3-0.2c0.3-0.5,0.5-0.5,0.7-0.2
		C11,13.7,11.1,13.9,11.2,14z"/>
	<path d="M8.6,20c0.7,0,1.4,0,1.6,1c0.1,0.3,0.5,0.4,0.7,0.7c0.3,0.3,0.4,0.6,0.1,0.9c-0.3,0.3-0.7,0.6-0.7-0.2c0,0-0.2-0.1-0.3-0.1
		c-0.8,0.5-1.3-0.2-2-0.4c-0.6-0.2-0.9-0.6-0.8-1.2C7.4,20.1,7.9,20,8.6,20z"/>
	<path d="M14.1,14.5c0,0.3,0,0.6-0.1,0.9c0,0.1-0.3,0.3-0.3,0.3c-0.3-0.1-0.6-0.3-0.9-0.5c0,0,0-0.3,0.1-0.4
		c0.9-1.1,0.9-1.1,0.2-2.2c-0.1-0.2-0.3-0.4-0.4-0.6c0-0.1,0.1-0.3,0.1-0.4c0.1,0,0.3,0.1,0.3,0.1c0.3,0.6,0.6,1.3,0.8,1.9
		C14.1,13.8,14,14.2,14.1,14.5C14,14.5,14,14.5,14.1,14.5z"/>
	<path d="M14.6,12.4c0.1,0.2,0.1,0.3,0.2,0.4c0.2,0.5,0.5,1,0.7,1.5c0.2,0.4,0.1,1-0.4,1.2c-0.1,0-0.3-0.1-0.4-0.2
		c-0.1-0.9-0.3-1.7-0.4-2.6C14.4,12.7,14.5,12.5,14.6,12.4z"/>
	<path d="M15.8,11.8c0.2,0.1,0.4,0.2,0.5,0.3c0.1,0.5,0.3,1-0.3,1.3c-0.1,0.1-0.2,0.2-0.4,0.3c0-0.2-0.1-0.3-0.1-0.5
		c0-0.3,0-0.7,0.1-1C15.6,12.1,15.7,12,15.8,11.8z"/>
	<path d="M35.5,20.1c0,0-0.3,0-0.6,0c-0.1,0-0.2-0.2-0.3-0.3c0.1-0.1,0.3-0.1,0.4-0.2c0.5,0,0.9-0.1,1.4,0c0.2,0,0.4,0.2,0.5,0.3
		c-0.2,0.1-0.4,0.2-0.6,0.3C36.2,20.1,36,20.1,35.5,20.1z"/>
	<path d="M17.3,14.5c0,0.3,0,0.5-0.1,0.6c0,0.1-0.1,0.2-0.2,0.3c0-0.1-0.1-0.2-0.1-0.3c-0.1-0.2-0.2-0.4-0.4-0.6
		c-0.1-0.2-0.2-0.4-0.3-0.6c0.2,0,0.4-0.1,0.6-0.1c0.5-0.1,0.4,0.2,0.5,0.5C17.3,14.4,17.3,14.5,17.3,14.5z"/>
	<path d="M33.3,20.1c-0.5,0-0.6,0-0.8-0.1c-0.1,0-0.1-0.1-0.2-0.1c0.1-0.1,0.1-0.2,0.2-0.2c0.2-0.1,0.3-0.1,0.5-0.2
		c0.4-0.2,0.8-0.4,1.1,0c0,0,0,0.2,0,0.2C33.8,19.9,33.4,20,33.3,20.1z"/>
	<path d="M35.6,18.1c0.2,0.1,0.4,0.3,0.6,0.4c-0.1,0.1-0.3,0.3-0.3,0.3c-0.3-0.1-0.6-0.3-0.8-0.5C35.2,18.3,35.4,18.3,35.6,18.1z"/>
	<path d="M29,20c0.1,0-0.2,0-0.5,0c-0.1,0-0.1-0.1-0.1-0.1c0.1-0.1,0.1-0.2,0.2-0.2c0.5,0,0.9,0,1.4,0c0.1,0,0.3,0.1,0.4,0.2
		C30.2,19.9,30,20,29.9,20C29.7,20.1,29.5,20,29,20z"/>
	<path d="M26.2,19.7c0.4,0,0.5,0,0.7,0.1c0.1,0,0.1,0.1,0.1,0.1C27,19.9,27,20,26.9,20c-0.4,0-0.7,0.1-1.1,0c-0.2,0-0.3-0.1-0.5-0.2
		c0.2-0.1,0.3-0.2,0.5-0.2C26,19.6,26.2,19.7,26.2,19.7z"/>
	<path d="M15.2,24.2c-0.2,0.1-0.3,0.3-0.6,0.5c-0.1,0-0.2-0.1-0.4-0.2c0.2-0.2,0.5-0.4,0.7-0.7C15,23.9,15.1,24,15.2,24.2z"/>
</g>
</svg>
