<?xml version="1.0" encoding="iso-8859-1"?>
<!-- Generator: Adobe Illustrator 25.3.0, SVG Export Plug-In . SVG Version: 6.00 Build 0)  -->
<svg version="1.1" id="Calque_1" xmlns="http://www.w3.org/2000/svg" xmlns:xlink="http://www.w3.org/1999/xlink" x="0px" y="0px"
	 viewBox="0 0 73.6 37.4" style="enable-background:new 0 0 73.6 37.4;" xml:space="preserve">
<g>
	<path d="M17.8,33c-1.2-2.1-1.9-4.4-2.5-6.8c0-0.2,0-0.4-0.1-0.5c-0.4-1.8-0.5-1.7-2.4-2.1c-2.5-0.5-5-1.4-7-2.9
		c-2.1-1.6-4.1-3.2-5.6-5.4c-0.5-0.8,0.1-2.2,1-2.3c0.4,0,0.8,0.3,1.1,0.4c0.2,0.1,0.3,0.1,0.5,0.1c0-0.2,0-0.3-0.1-0.5
		c-0.5-0.8,0-1.2,0.6-1.5c2.4-1.2,4.8-2.3,7.5-2.9c2.4-0.5,4.8-1,7.1-1.5c0.3-0.1,0.6-0.4,0.7-0.6c0.3-0.5,0.4-1.1,0.6-1.7
		c0.1-0.3,0.2-0.9,0.4-0.9c1.1-0.3,1.2-1.4,1.6-2.1c0.2-0.4,0.3-0.6,0.8-0.3c0.7,0.6,1.3,0.5,1.8-0.3c0.1-0.2,0.5-0.3,0.6-0.3
		c1.1,0.7,2.1-0.3,3.1-0.1c0.2,0,0.5-0.3,0.7-0.4c0.2-0.1,0.5-0.2,0.8-0.1c1.2,0.1,2.4,0.9,3.6,0.2C34.3,0.9,36,0,37.5,0.1
		c1.7,0.1,3.4-0.5,5.1,0.2c1.5,0.6,3.1,1.1,4.6,2c1.9,1.1,3,2.8,3.8,4.8c0.5,1.2,0.1,1.9-1,2.5c-0.3,0.2-0.6,0.4-0.9,0.6
		c0,0,0,0.3,0.1,0.4c0,0,0.1,0,0.2,0c2.2,0,4.4,0.3,6.6-0.4c0.8-0.3,1.5-0.7,2.2-1.1C61,7.4,63.8,5.6,67,4.6
		c1.7-0.6,3.5-0.8,5.3-0.7c0.3,0,0.6,0.1,0.9,0.1c0.4,0.1,0.5,0.6,0.1,0.8c-0.5,0.2-1,0.5-1.5,0.5c-1.5,0-2.5,0.9-2.8,2.9
		c-0.3,2.5-0.3,5.1-0.4,7.6c0,1.4,0.2,2.8,0.4,4.2c0.1,0.4,0.5,0.8,0.8,1.1c0.4,0.4,0.9,0.6,1.3,1c0.1,0.1,0.2,0.5,0.1,0.6
		c-0.2,0.2-0.5,0.3-0.7,0.3c-0.6-0.1-1.1-0.4-1.7-0.5c-3.4-1.1-6.8-2.1-9.9-3.9c-0.5-0.3-0.9-0.5-1.4-0.8c-1-0.6-2.1-1-3.4-1
		c-1.7,0-3.3-0.2-5,0.4c-0.1,0-0.3,0.1-0.4,0.1c0.1,0.1,0.2,0.1,0.3,0.2c2.5,1.5,3.6,3.9,3.7,6.5c0.1,2-0.7,4.3-3.8,4.7
		c-3,0.4-5.9,0.4-8.8-0.5c-0.3-0.1-0.6-0.3-0.8-0.2c-1,0.5-2.1,0.3-3.2,0.5c-0.5,0-0.9,0.1-1.3-0.2C34.6,28,34.2,27.9,34,28
		c-0.8,0.5-1.2,0-1.5-0.6c-0.4-0.9-0.9-1.8-1.4-2.7c-0.3-0.6-0.7-0.8-1.3-0.5c-1.4,0.5-2,1.8-1.6,3.3c0.1,0.4,0.3,0.9,0.3,1.4
		c0,0.3-0.4,0.6-0.6,0.8c-0.2-0.1-0.3-0.3-0.5-0.4c-0.2-0.2-0.4-0.4-0.7-0.5c-2.6-1.3-5.2-2.6-7.8-3.9c-0.1,0-0.1-0.1-0.2-0.1
		c-0.7-0.1-1.4-0.2-2.1-0.3c-0.1,0.6-0.4,1.3-0.2,1.9c0.4,2,0.9,3.9,1.4,5.9c0.1,0.2,0.1,0.5,0.1,0.7C17.9,32.9,17.8,32.9,17.8,33z"
		/>
	<path d="M18,32.8c1,1,2.1,2.1,2.5,3.6c0,0.2,0.3,0.3,0.5,0.4c0.1,0.1,0.2,0.3,0.3,0.4c-0.3,0.1-0.7,0.2-0.7,0.2
		c-0.7-1.6-2.2-2.7-2.7-4.4C17.8,32.9,17.9,32.9,18,32.8z"/>
	<path d="M26.2,33.9c0.1-0.5,0.1-1.1,0.4-1.5c0.4-0.6,0.8-1.1,0.7-1.9c0-0.1,0.3-0.3,0.4-0.5c0.1,0.2,0.3,0.4,0.3,0.6
		c0.1,0.7,0,1.3-0.7,1.8C26.8,32.8,26.5,33.4,26.2,33.9C26.2,33.9,26.2,33.9,26.2,33.9z"/>
	<path d="M26.2,33.9c0.1,0.6-0.3,1-0.8,1.2c-0.7,0.2-0.9,1.4-1.9,0.9c0.5-0.4,1-0.9,1.5-1.3C25.4,34.4,25.8,34.2,26.2,33.9
		L26.2,33.9z"/>
	<path d="M11.7,14.4c-1.3,0-2.5-1-2.4-2.1c0-1.2,1.2-2.3,2.4-2.3c1.2,0,2.3,0.9,2.3,2C14,13.3,13,14.4,11.7,14.4z"/>
</g>
</svg>
