<?xml version="1.0" encoding="iso-8859-1"?>
<!-- Generator: Adobe Illustrator 25.3.0, SVG Export Plug-In . SVG Version: 6.00 Build 0)  -->
<svg version="1.1" id="Calque_1" xmlns="http://www.w3.org/2000/svg" xmlns:xlink="http://www.w3.org/1999/xlink" x="0px" y="0px"
	 viewBox="0 0 85.2 20.1" style="enable-background:new 0 0 85.2 20.1;" xml:space="preserve">
<g>
	<path d="M24.1,13.3c-2-0.2-4.1-0.4-6.1-0.8c-0.8-0.1-0.7,0.1-0.5,0.6c0.4,0.7,0.8,1.5,1.1,2.2c0,0.1,0,0.2,0,0.3
		c-0.1,0-0.4,0-0.4-0.1c-0.5-0.9-1-1.8-1.4-2.7c-0.3-0.7-0.8-1.1-1.6-1c-1.3,0.1-2.6-0.5-3.9-0.1c-0.9-1-2-0.2-3.1-0.4
		c-0.9-0.2-1.9-0.3-2.9-0.4c-1.4-0.1-2.8-0.3-4.2-0.4c-0.5,0-0.7-0.2-1-0.6C-0.2,9.4,0,9.1,0.5,8.9C1,8.7,1.5,8.6,1.9,8.6
		c1.8,0,3.5-0.2,5.3-0.1c1,0,1.9,0,2.9-0.2c1.4-0.2,2.8-0.7,4.2-0.7c1.6,0,2.3-0.7,2.8-2c0.1-0.1,0.3-0.2,0.4-0.3
		c0,0.2,0.1,0.4,0,0.6c0,0.2-0.2,0.3-0.2,0.5c0,0.2,0,0.4,0,0.6c0.2,0,0.4-0.1,0.6-0.1C19.9,6,22,6.1,24.2,6.3
		c0.8,0.1,1.5,0.2,2.3,0.2c0.6,0.1,0.8-0.3,0.8-0.9c0-1.1-0.1-2.1,0.3-3.2c0.2-0.3,0.2-0.7,0.4-1C28.6,1,29.2,0.1,29.9,0
		c0.8-0.1,1.3,0.9,1.7,1.6c0.5,0.9,1.1,1.8,1.7,2.7c0.5,0.7,0.9,1.4,0.6,2.3C33.8,7,34,7.2,34.5,7.3c1.9,0.3,3.8,0.7,5.8,1
		c0.6,0.1,1.2-0.5,1.8-0.7c0.5-0.2,1.1-0.5,1.6-0.6c1-0.2,1.9,0.1,2.5,1c0.3,0.3,0.6,0.6,0.9,0.9c0.4,0.4,0.8,0.7,1.4,0.6
		c0.1,0,0.1,0,0.2,0c3.8,0.1,7.7,0.2,11.5,0.4c2.2,0.1,4.4,0.4,6.6,0.6c2.3,0.2,4.5-0.2,6.7-0.8c3.9-1.2,7.5-0.2,11,1.7
		c0.2,0.1,0.4,0.3,0.6,0.4c0.3,0.3,0.4,0.7-0.1,0.8c-1,0.2-1.9,0.6-2.7,1.2c-0.5,0.4-1.5,0.4-2-0.2c-1.1-1.1-2.4-1-3.6-0.5
		c-2.2,1-4.4,1.1-6.6,0.3c-2.3-0.8-4.7-0.6-7.1-0.6c-0.4,0-0.9,0.2-1,0.5c-0.5,1.2-1.5,0.9-2.5,0.8c-0.2,0-0.5-0.1-0.7-0.3
		c-2-1.2-4.1-0.8-6.3-0.5c-1.3,0.2-2.6,0.4-3.9,0.4c-1,0-1.7,0.6-2.4,1.1c-1.5,1-2.8,1.2-4.3,0.2c-0.5-0.3-0.9-0.6-1.6-0.3
		c-0.6,0.4-1.2-0.1-1.6-0.5c-0.8-0.9-1.8-0.9-2.8-0.8c-0.2,0-0.5,0-0.7,0c-0.4,0-0.8,0-1.2,0.1c0.1,0.4,0.2,0.8,0.3,1.1
		c0.3,0.9-0.2,1.6-0.6,2.3c-0.6,0.9-1.2,1.7-2,2.5c-0.7,0.8-1.4,0.7-2.2,0.1c-1.1-0.9-1.9-2-1.7-3.5c0.1-0.8,0.1-1.5,0.2-2.3
		c0.1-0.5-0.1-0.6-0.5-0.6c-1.1,0-2.2,0-3.2,0C24.1,13.2,24.1,13.3,24.1,13.3z"/>
</g>
</svg>
