<?xml version="1.0" encoding="iso-8859-1"?>
<!-- Generator: Adobe Illustrator 25.3.0, SVG Export Plug-In . SVG Version: 6.00 Build 0)  -->
<svg version="1.1" id="Calque_1" xmlns="http://www.w3.org/2000/svg" xmlns:xlink="http://www.w3.org/1999/xlink" x="0px" y="0px"
	 viewBox="0 0 79 31.1" style="enable-background:new 0 0 79 31.1;" xml:space="preserve">
<g>
	<path d="M72.9,21.6c-1.1-0.5-2.3-0.9-3.3-1.6c-1.8-1.2-3.8-1.9-5.7-2.7c-0.7-0.3-1.4-0.3-2,0.2c-0.4,0.4-0.8,0.7-1.4,0.4
		c-1.5,0.3-3,0.7-4.2,1.6c-0.9,0.6-1.6,0.7-2.1-0.5c0-0.8,0.6-1.1,1.2-1.4c2-1,4-1.8,6.3-2.1c0.4,0,0.7-0.1,1-0.2
		c0.8-0.3,1.4-0.8,1.4-1.7c0-0.9-0.7-1.4-1.5-1.5c-1.1-0.2-2.2-0.3-3.4-0.5c-8.8-1.2-17.7-1.7-26.6-2.4c-6.3-0.5-12.8-0.2-19.1,1.5
		c-1.1,0.3-1.5,0.6-1.2,1.9c0.3,1.2,0.2,2.6-0.2,3.9c0,0.6-0.9,1.1-0.1,1.7c1.4-0.1,2.4-1,3.7-1.4c0.5-0.2,0.7-0.7,0.5-1.2
		c-0.1-0.4-0.4-0.6-0.7-0.7c-0.6-0.1-0.9,0.3-1.1,0.7c-0.3,0.6-0.4,1.2-0.8,1.8c-0.4,0.6-0.9,1.2-1.7,0.7c-0.2-0.3-0.1-0.7,0.1-1
		c0.7-1.2,0.4-2.6,0.6-4c0.2-1.5,0.7-1.9,2-1.5c1.2,0.4,2.3,0.9,3.5,1.3c0.7,0.2,0.9,0.9,1,1.6c0.3,1.6,0.8,1.9,2.3,1.5
		c0.7-0.2,1.4-0.4,2-0.7c1.9-0.8,4-0.8,6-0.5c0.9,0.1,2.1,0.3,2.1,1.6c0,1.1-0.3,2.1-1.6,2.4c-0.2,0-0.4,0-0.5-0.1
		c-1.4-2.2-1.6-2.3-4.2-1.5c-4.6,1.5-9.3,2.6-13.6,5c-1.2,0.7-1.3,1.2-0.1,1.9c3.7,2.2,7.7,4,12,4.4c3.5,0.3,7.1,0.1,10.7-0.6
		c2.9-0.5,5.5-1.4,7.9-3.2c0.7-0.5,1.6-1.2,2.6-0.3c0.4,0.8-0.1,1.3-0.7,1.7c-1.3,1.1-2.9,1.7-4.4,2.6c-0.7-0.2-1.3-0.3-2.1,0
		c-1.1,0.5-2.3,0.7-3.4,1c-0.6,0.2-1.3,0.4-1.9,0.3c-1.2-0.3-2.4-0.1-3.5,0.2c-1.1,0.3-2.1-0.1-3.2,0C21,30.8,17,29.2,13,27.3
		c-2.5-1.2-4.6-3-6.6-4.9c-1-0.9-2.1-1.7-3.1-2.6c-0.7-0.6-1.5-1.2-1.4-2.3c0-0.4-0.3-0.9-0.5-1.3c-0.4-0.7-0.8-1.3-1.2-2
		c-0.5-1-0.3-1.9,0.8-2.3c1.3-0.5,2.6-1.1,4.1-1.1c3.1-0.2,6.1-0.5,9.1-1.4c1.9-0.6,4-0.8,6-1C24,8,27.9,8,31.8,7.9
		c0.7,0,1.1-0.3,1.5-0.8c0.4-0.5,0.7-0.9,1.1-1.4c0.2,0,0.3,0.1,0.5,0.2c0.4,0.3,0.5,0.8,0.9,1.1c1.2,0.9,2.6,0.5,3-1
		c0.1-0.5,0.2-1,0.2-1.6c0.1-1.9,0.1-1.9-1.7-1.6c-0.2-0.1-0.3-0.2-0.4-0.3c0.3-1.3,1.6-1.7,2.5-2.4c0.5-0.3,0.9,0.1,1.1,0.6
		c0.1,0.3,0.1,0.7,0.1,1c-0.2,1.9-0.4,3.7-0.6,5.6c-0.1,1.1-0.2,1.1,0.8,1.4c0.5,0.1,1,0.2,1.6,0.2c3-0.1,6.1,0.1,9.1,0.7
		c0.5,0.1,1,0,1.4,0c1.9,0.2,3.9,0.5,5.8,0.6c2.2,0.1,4.4,1,6.5,0.1c1.4-0.6,2.7-1.2,4-1.8c0.1,0,0.2,0,0.3-0.1
		c0,0.1-0.1,0.2-0.1,0.3c-0.3,0.3-0.6,0.7-1,0.9c-0.8,0.4-1.7,0.8-2.6,1.2c-0.4,0.2-0.4,0.3-0.2,0.6c0.6,0.6,0.5,1.2,0.3,2
		c-0.1,0.4-0.1,0.8-0.1,1.2c0,0.9,0,1.7-1.1,1.9c0,0,0,0.4,0,0.4c2.1,1,4.1,2,6.2,3c0.7,0.4,1.4,0.9,2.1,1.3c0,0.1,0.1,0.2,0.1,0.3
		C73.1,21.6,73,21.6,72.9,21.6z"/>
	<path d="M73.1,21.4c1.4,0.8,2.8,1.6,4.1,2.4c0.1,0.1,0.3,0.1,0.5,0.2c-0.1-0.2-0.1-0.4-0.2-0.6c-0.1-0.2-0.3-0.4-0.4-0.6
		c-0.1-0.1,0-0.3,0-0.5c0.1,0,0.2,0,0.3,0.1c0.5,0.7,1.1,1.4,1.6,2.1c0,0.1-0.2,0.5-0.4,0.6c-0.2,0.1-0.5-0.1-0.6-0.2
		c-1.7-1.1-3.4-2.2-5-3.3C73,21.5,73,21.4,73.1,21.4z"/>
	<path d="M74.5,9.4c-0.4,0.8-0.7,1.6-1.2,2.3c-1.4,1.9-1.4,2.8-0.1,4.7c0.1,0.2,0.2,0.4,0.3,0.6c0,0.1,0.1,0.2,0.1,0.3
		c-0.1,0-0.2-0.1-0.3-0.1c-1.9-2.1-1.9-3.8-0.3-6c0.5-0.7,1-1.3,1.4-2L74.5,9.4z"/>
	<path d="M39.5,29c0.8,0.3,1.7,0.5,2.5,0.9c1.3,0.7,1.5,0.7,2.7-0.2c0.3-0.2,0.6-0.3,0.9-0.5c-0.5,0.6-0.9,1.1-1.4,1.7
		c-0.1,0.1-0.5,0.2-0.6,0.2C42.1,30.7,40.7,30.1,39.5,29z"/>
	<path d="M71.8,7.1c0-0.1,0.1-0.3,0.1-0.3c1.6-0.7,3.3-1.4,4.9-2.2c0.1,0,0.2,0,0.3-0.1c0,0.1-0.1,0.2-0.1,0.3
		c-1.7,0.8-3.4,1.6-5,2.5c-0.1,0-0.2,0.1-0.3,0.1C71.7,7.3,71.8,7.2,71.8,7.1z"/>
	<path d="M34.4,5.7c0.3-1.5,1.5-2.3,2.5-3.2C37,2.5,37,2.6,37.1,2.7c0.3,1.7-0.8,3.1-2.6,3.2C34.5,5.8,34.4,5.8,34.4,5.7z"/>
	<path d="M76.9,6.1c0.2-0.3,0.4-0.7,0.5-1c0,0-0.2-0.1-0.4-0.2c-0.1-0.1-0.1-0.2-0.2-0.2c0.2-0.2,0.4-0.5,0.6-0.6
		c0.4-0.1,0.8,0.1,1.2,0.1c-0.2,0.3-0.2,0.7-0.5,1c-0.3,0.4-0.8,0.7-1.2,1.1C77,6.2,76.9,6.1,76.9,6.1z"/>
	<path d="M74.4,9.3c0.5-1.4,1.5-2.3,2.5-3.2L77,6.2c-0.3,0.8-1.6,2.3-2.5,3.2L74.4,9.3z"/>
	<path d="M74.5,18.6c0.7,0.8,1.5,1.7,2.2,2.5c0.1,0.1,0.1,0.4,0.1,0.6c-0.1-0.1-0.3-0.1-0.4-0.2c-0.7-0.9-1.8-1.6-2-2.8
		C74.4,18.7,74.4,18.6,74.5,18.6z"/>
	<path d="M49.2,26.2c0.6-0.9,1.5-1.5,2.6-1.9C51.3,25.4,50.3,25.9,49.2,26.2z"/>
	<path d="M72,7.3c-0.8,0.5-1.7,1-2.5,1.5c-0.1-0.1-0.1-0.2-0.2-0.2c0.8-0.5,1.7-1,2.5-1.4C71.9,7.2,71.9,7.2,72,7.3z"/>
	<path d="M54.6,22c0.4-1,1.2-1.3,2.1-1.5C56.4,21.4,55.5,21.7,54.6,22z"/>
	<path d="M56.8,20.4c0.1-1.1,0.9-1.3,1.7-1.4C58.2,19.8,57.5,20,56.8,20.4z"/>
	<path d="M52.4,23.6c0.5-0.8,1.1-1.2,2-1.4C54,23.1,53.4,23.6,52.4,23.6z"/>
	<path d="M46.7,28.3c0-1.2,1-1.3,1.8-1.6C48.3,27.7,47.3,27.8,46.7,28.3z"/>
	<path d="M58.6,19c0.4-0.7,0.8-1.2,1.7-1C59.8,18.4,59.5,19.1,58.6,19z"/>
	<path d="M73.4,17.1c0.5,0.4,1,0.7,1.1,1.5c0,0-0.1,0.1-0.1,0.1c-0.4-0.5-0.8-0.9-1.1-1.4C73.3,17.2,73.4,17.2,73.4,17.1z"/>
	<path d="M44.6,24.7c1.6-1.6,3.6-2.6,5.6-3.6c0.6-0.3,1.2-0.7,1.9-1c0.7-0.3,1.3-0.9,2.2-0.7c-0.2,0.2-0.4,0.6-0.7,0.7
		c-2.8,1.3-5.5,2.6-8,4.4C45.3,24.7,44.9,24.6,44.6,24.7z"/>
	<path d="M27,20.5c-2,1.9-4.4,2.7-7.1,2.3c-0.3,0-0.8-0.3-0.8-0.5c-0.2-1-0.8-1.7-1.6-2.2c-0.1,0-0.1-0.2-0.1-0.3
		c0.1-0.1,0.2-0.1,0.3-0.1c0.9,0.2,1.5,0.8,1.7,1.7c0.2,0.7,0.5,0.8,1.1,0.8c1.8,0.2,3.5-0.3,5.1-1.2c0.4-0.2,0.8-0.5,1.2-0.7
		c0.1,0,0.2,0,0.3-0.1C27.1,20.3,27,20.4,27,20.5z"/>
	<path d="M29.5,18.7c-0.8,0.6-1.7,1.2-2.5,1.8c-0.1-0.1-0.1-0.2-0.2-0.2c0.8-0.6,1.7-1.2,2.5-1.8C29.4,18.6,29.4,18.6,29.5,18.7z"/>
	<path d="M29.2,14.7c-0.2,0-0.6-0.1-1-0.2c0.5-0.1,0.9-0.2,1.4-0.2c0.3,0,0.7,0,1.1,0c0.1,0,0.3,0.1,0.4,0.2
		c-0.2,0.1-0.3,0.2-0.5,0.2C30.2,14.8,29.8,14.7,29.2,14.7z"/>
</g>
</svg>
