<?xml version="1.0" encoding="iso-8859-1"?>
<!-- Generator: Adobe Illustrator 25.3.0, SVG Export Plug-In . SVG Version: 6.00 Build 0)  -->
<svg version="1.1" id="Calque_1" xmlns="http://www.w3.org/2000/svg" xmlns:xlink="http://www.w3.org/1999/xlink" x="0px" y="0px"
	 viewBox="0 0 81.3 42.4" style="enable-background:new 0 0 81.3 42.4;" xml:space="preserve">
<g>
	<path d="M80.2,22.8c0.2,0.1,0.4,0.2,0.6,0.4c0.8,0.9,0.7,1.2-0.4,1.7c-1.8,0.8-3.8,0.8-5.7,0.4c-2.4-0.5-4.7-1.3-7-2.2
		c-2.3-0.9-4.6-1.2-7-1.6c-0.2,0-0.5,0.3-0.5,0.5c0.2,3,0.5,6.1,2.1,8.8c0.4,0.7,0.3,0.9-0.5,1.1c-3.4,0.8-6.7,0.1-9.6-1.6
		c-0.9-0.5-1.5-0.6-2.4,0c-2.4,1.5-5,2.7-7.8,3.5c-0.8,0.2-0.9,0.3-0.4,1.1c1,1.9,1.6,3.8,1.6,5.9c0,1.4-0.6,2-1.9,1.5
		c-0.9-0.3-1.9-0.7-2.7-1.3c-1.7-1-3.3-2.2-4.9-3.3c-0.1-0.1-0.4-0.2-0.4-0.3c-0.6-1.3-1.7-1.3-2.9-1.2c-1.9,0.1-3.7,0-5.6,0
		c-2.9,0-5.7-0.9-8.3-2c-2.1-0.9-4.1-2-6.1-3c-0.8-0.4-1.6-1-2.5-1.5c-1.5-0.9-3.1-1.8-4.7-2.7c-0.8-0.5-1.6-0.9-2.2-1.5
		c-1.5-1.3-1.3-3.3,0.3-4.6c2.1-1.6,4.5-2.4,6.8-3.5c2.1-1,4-2,5.7-3.5c1.7-1.5,3.8-2.7,5.9-3.6c1.6-0.7,3.1-1.8,4.9-2.2
		c0.9-0.2,1.7-1.1,2.5-1.6c2-1.2,3.9-2.6,5.9-3.7c1.9-1,3.8-1.9,5.9-2.6c1.1-0.4,2.5-0.3,3.7-0.2c1.6,0.2,2.3,1.4,1.9,2.9
		c-0.5,1.9-1.1,3.9-1.8,5.8c-0.2,0.6-0.6,1.2-1,1.7c-0.2,0.3-0.6,0.4-0.9,0.6c0.4,0,0.8,0.1,1.2,0.1c1.3,0.1,2.6,0.2,3.9,0.4
		c1.3,0.2,2.6,0.4,3.9,0.6c0.8,0.1,1.5-0.2,2.1-0.7c0.6-0.4,1.3-0.9,2-1c1.6-0.3,2.6,0.4,2.8,2c0.1,0.8,0.5,1,1,0.7
		c0.8-0.3,1.7-0.7,2.3-1.3c1.5-1.4,2.8-2.9,4.2-4.4c0.2-0.2,0.4-0.4,0.6-0.6c1.6-1.4,3.1-2.7,4.7-4.1c1.2-1.1,2.5-1.9,4-2.2
		c1-0.2,1.6,0.1,1.8,1.1c0.3,1.3,0.2,2.6-0.1,3.9c-0.6,2.5-1.4,4.9-2.2,7.4c-0.3,0.9-0.2,1.5,0.4,2.3c1.1,1.8,3,2.7,4.4,4.2
		c0.6,0.7,1.3,1.2,1.9,1.9C80.1,21.8,80.1,22.3,80.2,22.8c-0.5,0.4-1.1,0.3-1.4-0.2c-1.8-2.1-4-3.8-6.1-5.6c-1.8-1.5-2-3.1-1.1-5.1
		c1-2.3,1.8-4.7,2.1-7.2c0.1-0.6,0.4-1.4-0.3-1.8c-0.7-0.4-1.3,0.1-1.8,0.5c-2.3,2-4.8,3.8-6.7,6.2c-0.8,0.9-0.8,1.7,0,2.7
		c1.5,1.8,1.8,4,1.5,6.3c-0.2,1.6,0.4,2.2,1.8,2.7c2.4,0.8,4.8,1.8,7.4,2.3C77.2,23.9,78.8,24,80.2,22.8z"/>
</g>
</svg>
