<?xml version="1.0" encoding="iso-8859-1"?>
<!-- Generator: Adobe Illustrator 25.3.0, SVG Export Plug-In . SVG Version: 6.00 Build 0)  -->
<svg version="1.1" id="Calque_1" xmlns="http://www.w3.org/2000/svg" xmlns:xlink="http://www.w3.org/1999/xlink" x="0px" y="0px"
	 viewBox="0 0 78.9 30.2" style="enable-background:new 0 0 78.9 30.2;" xml:space="preserve">
<g>
	<path d="M31.3,3.2c1.8,0.2,3.7-0.3,5.5,0c1.7,0.3,3.4,0.4,5.1,0.8c1,0.3,1.7,0.1,2.5-0.5c1.1-0.8,2.2-1.7,3.3-2.4
		c2.4-1.7,6.1-1.5,8.4,0.3c1.1,0.9,1.3,2,0.5,3.1c-0.5,0.7-1.1,1.2-1.7,1.8c-0.2,0.2-0.4,0.5-0.4,0.7c0,0.2,0.4,0.4,0.6,0.4
		c3.4,0,6.8,0.3,10.1-1c2.8-1,5.7-1.7,8.6-2.3c1.1-0.3,2.4-0.2,3.6-0.3c0.6,0,0.8,0.3,0.8,0.9c0,1.7,0,3.3,0.1,5
		c0.1,1.4,0.3,2.7,0.4,4c0.1,1.1,0.3,2.2,0.2,3.3c-0.1,1.9-1.1,2.8-3.1,2.4c-2.2-0.3-4.4-0.9-6.7-1.2c-3.2-0.4-6.2-1.6-9.5-1.2
		c-1.2,0.1-2.4,0.3-3.5,0.4c-0.3,0-0.5,0.3-0.8,0.4c0.1,0.2,0.3,0.4,0.4,0.5c0.3,0.2,0.5,0.5,0.9,0.6c1,0.5,1.2,1.4,1.1,2.4
		c-0.2,1.7-0.8,3.2-2.2,4.3c-1,0.7-1.7,1.6-3,1.8c-1.3,0.2-2.2-0.1-3-1.1c-1.1-1.5-2.3-3-3.2-4.7c-0.7-1.4-0.8-1.3-2.4-0.9
		c-1.5,0.4-3.1,0.7-4.7,1.1c-0.3,0.1-0.7,0.2-1,0.3c-1.2,0.4-1.2,0.5-0.7,1.6c0.7,1.5,1.2,3.1,0.8,4.8c-0.3,1.2-1.4,1.6-2.3,0.8
		c-0.5-0.5-0.8-1.1-1.1-1.8c-0.5-1.1-1-2.3-1.4-3.4c-0.3-0.8-0.7-1.3-1.7-1.2c-3.5,0.2-7-0.4-10.5-1.1c-1.5-0.3-2.9-0.7-4.3-1.1
		c-3.7-1-7.3-2-11-2.9c-1.3-0.3-2.6-0.4-3.9-0.6c-0.2,0-0.4,0-0.5,0c-1.5-0.2-1.9-0.8-1.2-2.2c0.1-0.3,0.3-0.5,0.5-0.7
		c0.5-0.5,0.4-1,0.1-1.6c-0.4-1-0.4-1,0.6-1.3c0.3-0.1,0.7-0.2,1-0.4c2.6-1.7,5.3-2.9,8.3-3.6c0.2-0.1,0.4-0.2,0.7-0.3
		c2.3-1.3,4.8-2.2,7.3-2.7c1.3-0.3,2.5-0.6,3.8-0.8C25.6,3.7,28.4,2.9,31.3,3.2z"/>
	<path d="M10.5,13.3c0,1.6-0.9,2.6-2.5,2.6c-1.5,0-3-1.3-2.8-2.6c0.2-1.6,1.2-2.8,2.7-2.8C9.4,10.4,10.5,11.5,10.5,13.3z"/>
	<path d="M67.4,11.1c0,0.4,0,0.6-0.1,0.7c-0.6,0.7,0.3,1.9-0.7,2.5c0-0.8,0.1-1.6,0-2.4c-0.2-0.9-0.6-1.8-0.8-2.6
		c-0.1-0.2,0-0.4,0.1-0.6c0.2,0.1,0.4,0.1,0.5,0.2C66.7,9.7,67.1,10.5,67.4,11.1z"/>
	<path d="M7.5,11.8c0.7,0.4,1.4,0.7,1.8,1.2c0.3,0.5-0.6,1.6-1.2,1.6c-0.9,0.1-1.4-0.5-1.3-1.7C6.8,12.6,7.2,12.3,7.5,11.8z"/>
</g>
</svg>
