<?xml version="1.0" encoding="iso-8859-1"?>
<!-- Generator: Adobe Illustrator 25.3.0, SVG Export Plug-In . SVG Version: 6.00 Build 0)  -->
<svg version="1.1" id="Calque_1" xmlns="http://www.w3.org/2000/svg" xmlns:xlink="http://www.w3.org/1999/xlink" x="0px" y="0px"
	 viewBox="0 0 87.3 17.9" style="enable-background:new 0 0 87.3 17.9;" xml:space="preserve">
<g>
	<path d="M69.3,7.3C72.2,7,75.1,6.7,78,6.5c0.6-0.1,1.2,0,1.8,0c1.7,0.1,3.3-0.1,4.9-0.6c0.5-0.2,1.1-0.2,1.6-0.1
		c0.8,0.1,1.1,0.7,0.8,1.5c-0.2,0.5-0.2,1-0.4,1.5c-0.2,0.9-1,1.5-1.8,1.2c-2.7-0.9-5.1-0.1-7.3,1.5c-1.1,0.8-2.1,1-3.3,0.5
		c-0.4-0.2-0.8-0.2-1.2-0.5c-3-2-6.3-1.4-9.6-1.4c-0.9,0-1.5,0.5-2,1.3c-0.9,1.3-1,1.3-2.4,0.5c-0.3-0.2-0.6-0.4-0.9-0.6
		c-1-0.6-2.1-1.1-3.4-0.9c-0.7,0.1-1.3,0.1-2,0c-1.1-0.1-2.1,0.2-3,0.8c-1.6,1-3.4,1-5.1,0c-0.4-0.2-0.9-0.4-1.3-0.3
		c-2.1,0.2-4.3,0.3-6.4,0.7c-3.5,0.5-6.9,0.3-10.4,0.3c-0.8,0-1.3,0.2-1.7,1c-0.5,1-1,2-0.9,3.2c0,0.2,0,0.4,0,0.5
		c-0.2,1.1-1.1,1.6-2.1,1c-1.2-0.6-1.8-1.9-2.5-2.9c-0.5-0.7-0.9-1.6-1.2-2.4c-0.3-0.6-0.6-0.8-1.2-0.8c-0.4,0-0.8,0-1.3,0
		c-2.4,0-4.9-0.3-7.3-0.7c-1.6-0.2-3.3-0.3-5-0.4c-1.1-0.1-2.1-0.2-3.2-0.4C0.3,10,0,9.8,0,9.6C0,9.4,0.1,9.1,0.3,9
		c1-0.3,1.9-0.5,2.9-0.8C3.9,8.1,4.7,8,5.4,7.7c2.3-1,4.8-1.4,7.2-1.9c2-0.4,4-0.5,6-0.8c0.8-0.1,1.7-0.2,2.5-0.4
		c1.5-0.4,3.1-0.3,4.6-0.3c0.9,0,1.6-0.3,2.3-0.9c1.4-1.1,2.8-2,4.1-3.1c0.9-0.7,1.6-0.6,2.1,0.6c0.4,1.1,0.9,2.1,1.8,2.8
		c0.8,0.6,1.9,0.8,2.4,1.8c0.1,0.2,0.8,0.2,1.2,0.2c3.1,0,6.1,0,9.2,0c1.5,0,3.1,0.3,4.6,0.3c2.4,0,4.5-0.9,6.5-2.1
		c0.8-0.5,1.4-1.1,2.1-1.7c0.4-0.3,0.8-0.6,1.2-0.7c0.7-0.3,1.3,0.2,1.1,1c-0.1,0.5-0.2,0.9-0.2,1.4c0,2,0.9,3.1,3,3.2
		c0.7,0,1.4,0,2.2,0C69.3,7.2,69.3,7.2,69.3,7.3z"/>
	<path d="M10.4,8.2c0.1-0.2,0.2-0.5,0.3-0.6c0.2,0,0.5,0.1,0.7,0.2C11.3,8,11.2,8.2,11,8.3C10.9,8.4,10.7,8.3,10.4,8.2L10.4,8.2z"/>
</g>
</svg>
