<?xml version="1.0" encoding="iso-8859-1"?>
<!-- Generator: Adobe Illustrator 25.3.0, SVG Export Plug-In . SVG Version: 6.00 Build 0)  -->
<svg version="1.1" id="Calque_1" xmlns="http://www.w3.org/2000/svg" xmlns:xlink="http://www.w3.org/1999/xlink" x="0px" y="0px"
	 viewBox="0 0 211.1 122.1" style="enable-background:new 0 0 211.1 122.1;" xml:space="preserve">
<g>
	<path d="M105.1,122.1c-34.2,0-68.3,0-102.5,0.1c-2.1,0-2.6-0.4-2.6-2.6c0.1-39,0.1-78,0-117C0,0.4,0.4,0,2.6,0
		c61.3,0.1,122.7,0.1,184,0.1c7.5,0,15,0.1,22.5-0.1c1.7,0,2.1,0.3,2.1,2.1c-0.1,26.3-0.1,52.7-0.1,79c0,13,0,26,0.1,39
		c0,1.7-0.3,2.1-2.1,2.1c-30-0.1-60-0.1-90-0.1C114.4,122.1,109.7,122.1,105.1,122.1z"/>
	<path d="M30.2,55.3c-1.9,2.2-4.3,3.1-7.1,2.6c-0.5-0.1-0.9-0.8-1.3-1.2c0.4-0.2,0.8-0.5,1.3-0.6c2.3-0.4,4.5-0.8,6.8-1.2
		C30,55,30.1,55.1,30.2,55.3z"/>
</g>
</svg>
