<?xml version="1.0" encoding="iso-8859-1"?>
<!-- Generator: Adobe Illustrator 25.3.0, SVG Export Plug-In . SVG Version: 6.00 Build 0)  -->
<svg version="1.1" id="Calque_1" xmlns="http://www.w3.org/2000/svg" xmlns:xlink="http://www.w3.org/1999/xlink" x="0px" y="0px"
	 viewBox="0 0 83.8 16.9" style="enable-background:new 0 0 83.8 16.9;" xml:space="preserve">
<g>
	<path d="M40.3,0c3,0.1,6,0.2,8.9,0.5c2.8,0.3,5.6,0.7,8.4,0.7c0.4,0,0.7,0.1,1.1,0.2c1.7,0.3,3.4,0.5,5.1,0.9
		c2.9,0.6,5.9,0.2,8.8,1.1c2.4,0.7,4.7,1.5,6.6,3.4c1.3,1.3,2.9,2.4,4.3,3.7c0.3,0.3,0.5,0.6,0.1,0.9c-0.4,0.4-0.8,0.9-1.2,1
		c-2.9,0.8-5.8,1.7-8.8,2.4c-2,0.4-4,0.6-6,0.6c-1.4,0-2.7-0.4-4.1-0.3c-2.1,0.1-4.1,0.4-6.2,0.7c-1.1,0.1-2.1,0.3-3.2,0.3
		c-1.8,0.1-3.6,0-5.4,0c-1.1,0-2.1,0.2-3.2,0.3c-3.7,0.4-7.5,0.9-11.2,0.8c-1.4,0-2.7-0.3-3.9-1c-0.4-0.3-1-0.4-1.5-0.4
		c-1.6-0.1-3.1,0-4.7,0c-1.7-0.1-3.4-0.2-5.2-0.3c-1.1,0-2.2-0.2-3.1,0.4c-0.2,0.1-0.5,0.1-0.7,0.1c-1.8-0.1-3.7-0.1-5.5-0.2
		c-1.7-0.1-3.5-0.1-5.2-0.4C3.2,14.8,2,14.2,1,13.4c-1.4-1.1-1.3-2.2,0.4-2.9c1.1-0.5,2.2-0.9,3.4-1C7.2,9.1,9.4,8,11.7,7.1
		c0.4-0.2,0.7-0.4,1.1-0.5c3.5-1.1,7.1-2.2,10.6-3.1c2.1-0.5,4.2-0.8,6.3-1.2c0.3-0.1,0.7-0.2,1-0.3c2.8-1.4,5.7-2.1,8.8-1.8
		C39.8,0.1,40,0.1,40.3,0C40.3,0,40.3,0,40.3,0z"/>
	<path d="M19.4,11.1c1.5-0.1,2.8,0.3,4,1.2c0.4,0.3,0.3,0.6,0,0.8c-0.8,0.6-1.8,0.8-2.8,0.8c-0.5,0-0.9-0.1-1.4-0.2
		c-0.5-0.1-1.1,0-1-0.9c0-0.3-0.5-0.5-0.8-0.8c-0.3-0.3-0.3-0.7,0.2-0.8C18,11.1,18.7,11.1,19.4,11.1z"/>
	<path d="M68.3,9c-2.4-0.1-5.1-0.2-7.9-0.4c-0.2,0-0.4-0.2-0.7-0.4c0.3-0.1,0.5-0.3,0.8-0.3c2.1,0.1,4.2-0.2,6.3,0.3
		c1.6,0.3,3.2,0.3,4.8,0.4c0.2,0,0.3,0.1,0.5,0.2C71.9,8.9,71.7,9,71.6,9C70.6,9,69.6,9,68.3,9z"/>
	<path d="M36.8,13c1-0.2,2-0.3,3-0.5c0.2,0,0.4,0.1,0.6,0.2c-0.2,0.1-0.4,0.3-0.6,0.4c-0.1,0.1-0.2,0.1-0.3,0.1
		c-1.3,0.1-2.7,0.3-4,0.4c-0.1,0-0.3-0.2-0.5-0.4c0.1-0.1,0.3-0.3,0.4-0.3C35.8,12.9,36.3,13,36.8,13C36.8,13,36.8,13,36.8,13z"/>
	<path d="M35.4,7.3c0.4,0.1,1,0.2,1.7,0.4c-0.6,0.7-1.4,0.2-2.1,0.2c-0.2,0-0.5,0-0.7,0c-0.2-0.1-0.3-0.3-0.5-0.4
		c0.1-0.1,0.3-0.2,0.4-0.2C34.6,7.3,34.9,7.3,35.4,7.3z"/>
	<path d="M42.3,7.6C42.6,7.8,42.8,7.9,43,8c-0.3,0.1-0.6,0.2-0.9,0.3c-0.1,0-0.3-0.3-0.4-0.4C42,7.8,42.2,7.7,42.3,7.6z"/>
	<path d="M26.3,7.1c0.2,0.2,0.4,0.2,0.5,0.3c-0.1,0.1-0.3,0.3-0.4,0.4c-0.1,0-0.3-0.1-0.4-0.2C26.1,7.5,26.2,7.3,26.3,7.1z"/>
	<path d="M43.9,7.8c0.4,0.1,0.7,0.1,0.9,0.1c-0.2,0.1-0.5,0.3-0.7,0.3c-0.2,0-0.4-0.2-0.6-0.3C43.7,7.9,43.9,7.8,43.9,7.8z"/>
	<path d="M50.5,8.5c-0.1-0.1-0.2-0.4-0.2-0.4c0.1-0.1,0.3-0.3,0.4-0.3c0.3,0,0.5,0.2,0.8,0.3C51.2,8.2,50.9,8.3,50.5,8.5z"/>
	<path d="M46.4,2.6c-0.8-0.7-1.7-0.2-2.5-0.4c-0.2,0-0.4,0-0.5,0c-0.1,0-0.2-0.1-0.3-0.2c0.1,0,0.2-0.1,0.3-0.1c1.9,0,3.8,0,5.7,0.1
		c0.2,0,0.5,0.3,0.7,0.5c-0.2,0-0.5,0.1-0.7,0.1C48.2,2.6,47.3,2.6,46.4,2.6L46.4,2.6z"/>
</g>
</svg>
