<?xml version="1.0" encoding="iso-8859-1"?>
<!-- Generator: Adobe Illustrator 25.3.0, SVG Export Plug-In . SVG Version: 6.00 Build 0)  -->
<svg version="1.1" id="Calque_1" xmlns="http://www.w3.org/2000/svg" xmlns:xlink="http://www.w3.org/1999/xlink" x="0px" y="0px"
	 viewBox="0 0 79.4 38.3" style="enable-background:new 0 0 79.4 38.3;" xml:space="preserve">
<g>
	<path d="M36.1,0C42.8,0,48.4,1.4,53.8,3.6c3,1.3,5.9,2.9,8.1,5.5c0.6,0.7,1.2,1.5,1.6,2.3c0.6,1.1,0.4,1.9-0.6,2.6
		c-0.5,0.3-0.9,0.7-1.4,1c0.6,0.6,1.3,0.1,1.9,0.1c1.4-0.2,2.7-0.3,4-0.8c3-1,6.1-1.4,9.2-2c0.3-0.1,0.7-0.1,1.1,0
		c1,0.1,1.7,0.5,1.6,1.5c-0.2,2.2,0.1,4.3-0.1,6.5c-0.1,1-0.2,1.8,0,2.8c0.2,1,0.1,2,0.1,3c0,0.8-0.3,1.3-1.1,1.4
		c-0.9,0.1-1.9,0.4-2.8,0.2c-2.4-0.3-4.8-0.9-7.2-1.3c-1.2-0.2-2.4-0.6-3.6-0.8c-0.5-0.1-0.9-0.2-1.4-0.2c-0.4,0-0.9,0.1-1.3,0.1
		c0.2,0.2,0.6,0.5,0.7,0.8c0.4,0.8,0.6,1.6,0.2,2.5c-0.6,1.6-1.7,2.7-3.1,3.5c-4.1,2.7-8.6,4.3-13.4,5.1c-2.3,0.4-4.6,0.4-6.9,0.8
		c-4.3,0.7-8.4-0.4-12.4-1.5c-1.4-0.4-2.7-1.3-3.9-2.1c-0.6-0.4-0.9-1.1-1.3-1.6c-0.3-0.4-0.7-0.9-1.1-1.1c-1.3-0.6-1.7-0.3-1.7,1.1
		c0,0.9-0.1,1.6-1.1,2.1c-0.5,0.2-0.9,0.2-1.3-0.1c-0.7-0.6-1.6-1.3-1.6-2.2c-0.1-1.7-1.3-2-2.5-2c-2.7-0.2-5-1.2-7.2-2.8
		c-0.9-0.7-2.1-1.2-3-1.9c-0.7-0.6-1.4-1.3-1.9-2c-0.3-0.4-0.4-1.2-0.1-1.7C1.3,20,2.5,17.8,5,16.8c1.3-0.5,2.4-1.5,3.6-2.3
		C8.9,14.3,9,13.6,9,13.2c-0.3-1.7,0.6-2.6,1.9-3.5c2-1.4,3.9-3,5.9-4.2c2.9-1.8,6-3.5,9.4-4.2C29.7,0.5,33.2-0.2,36.1,0z"/>
</g>
</svg>
