<?xml version="1.0" encoding="iso-8859-1"?>
<!-- Generator: Adobe Illustrator 25.3.0, SVG Export Plug-In . SVG Version: 6.00 Build 0)  -->
<svg version="1.1" id="Calque_1" xmlns="http://www.w3.org/2000/svg" xmlns:xlink="http://www.w3.org/1999/xlink" x="0px" y="0px"
	 viewBox="0 0 235.7 52.3" style="enable-background:new 0 0 235.7 52.3;" xml:space="preserve">
<g>
	<path d="M109.8,1.2c1.1,0.6,2.3,1.1,3.3,1.9c2.6,1.8,5.1,3.6,7.5,5.6c4.2,3.5,9.2,4,14.3,4.5c5.9,0.6,11.8,1.1,17.7,2.1
		c3.2,0.6,5.9-0.2,8.3-2c2.1-1.5,4-1.3,6,0c1.7,1,3.6,1.8,5.1,3.1c2.1,1.8,4.5,1.7,7,1.9c3.5,0.2,6.4-0.7,9.3-2.7
		c8.5-5.8,17.8-10.1,28-12.3c3.5-0.8,7.1-1.7,10.6-2.5c0.8-0.2,1.6-0.5,2.4-0.4c1.9,0.2,4.4-0.1,5.6,1c1.7,1.4-0.7,3.2-1,4.8
		c-0.1,0.6-0.3,1.3-0.5,1.9c-1.4,4.2-1.5,4.3-5.5,2c-1.7-0.9-3.1-0.9-4.6,0.2c-5.1,3.7-10.3,7.3-15.3,11.1c-1.4,1.1-2.5,2.6-3.8,3.9
		c-0.3,0.3-0.8,0.3-1.2,0.5c-0.1-0.5-0.3-1-0.2-1.4c0.3-0.7,0.9-1.4,1.2-2.1c0.1-0.1-0.4-0.6-0.7-0.8c-0.3-0.1-0.7,0-1,0.2
		c-4,2.8-8.8,3.7-13.4,4.9c-1.1,0.3-1.4,1-0.7,1.8c3.5,4.1,7.9,7,13,8.8c1.6,0.6,2.5-0.4,2.2-2.2c-0.3-2-0.6-3.9-0.9-5.9
		c0-0.3,0.4-0.7,0.6-1.1c0.2,0.2,0.5,0.5,0.6,0.7c0.6,2.7,1.3,5.4,1.7,8.2c0.2,1.6-1.6,2.7-3.6,2.1c-4.2-1.5-8.5-3-11.7-6.4
		c-0.9-1-1.9-1.9-2.8-2.8c-2.9-2.9-5.9-3.2-9.3-1.1c-0.3,0.2-0.6,0.3-0.8,0.6c-2.1,2.5-4.5,2.7-7.1,0.8c-3.2-2.3-6.5-1.8-10-0.8
		c-1.2,0.3-1.1,0.8-0.8,1.7c0.1,0.3-0.3,0.9-0.6,1.2c-2.1,1.9-4.3,3.7-6.2,5.7c-1.6,1.6-3.2,1.7-4.9,0.4c-1.6-1.2-3.2-2.5-4.5-3.9
		c-1.6-1.8-3.3-2.1-5.7-1.7c-6.5,1.2-13.1,1.7-19.6,2.7C107,37,95.8,35.9,84.7,36.2c-0.5,0-1,0-1.5,0c-1.8-0.2-2.5,0.8-2.2,2.4
		c0.5,3.5-1.1,6.5-2.2,9.6c-1.8,4.7-6.5,5.5-9.5,1.5c-2.8-3.7-5.1-7.7-7.3-11.8c-0.7-1.3-1.2-1.8-2.6-1.5c-0.6,0.1-1.3,0.2-1.9,0.1
		c-1.3-0.3-2.6-0.7-3.9-1c1.1-0.1,2.3-0.2,3.4-0.4c0.6-0.1,1.5-0.5,1.5-0.8c0.1-0.5-0.4-1.5-0.8-1.6c-2.2-0.4-2.3-1.7-1.8-3.4
		c0.9-3.3,0.7-6.5-0.6-9.6c-0.1-0.2,0.4-0.8,0.7-1.1c0.1-0.1,0.6,0.2,0.8,0.4c1.5,1.8,1.4,4,1.4,6.2c0,0.5,0.2,1,0.3,1.4
		c0.2-0.4,0.3-0.9,0.5-1.3c0.3-1.1,0.5-2.3,0.9-3.3c0.4-1.2-1.7-2.5,0.2-3.4c0.6-0.3,3.2,3.6,3,4.5c-0.6,2.7-1.3,5.4-1.9,8.2
		c-0.2,0.7-0.5,1.7-0.2,2.2c2.8,4.7,5.7,9.3,8.7,13.8c0.8,1.2,2,2.2,3.3,2.8c2.2,0.9,3.5,0.1,4.4-2.3c0.7-1.9,1.3-3.8,1.8-5.7
		c1.1-3.8,0.1-5.9-3.5-7.4c-1.5-0.6-3.1-1.2-4.6-1.9c-0.2-0.1-0.3-0.5-0.5-0.8c0.4-0.2,0.8-0.7,1.1-0.6c1.9,0.6,4.2,0.8,5.6,2
		c2.3,2,4.9,2,7.5,1.9c10.6-0.3,21.3-0.5,31.9-1.2c6.6-0.4,13.1-1.5,19.6-2.5c1.9-0.3,3.7-0.9,5.4-2.1c1.7-1.2,4.2-1.5,6.4-1.7
		c4.3-0.3,8.6-0.1,12.8-0.4c3.1-0.2,6.2-0.8,9.3-1.1c0.4,0,1.8-0.5,1,1.2c-0.4,1,3,2.3,4,1.5c-0.2-0.2-0.5-0.4-0.7-0.7
		c-0.4-0.4-0.7-0.9-1.1-1.3c0.6-0.3,1.1-0.7,1.7-0.8c6.7-0.7,13.5-1.3,20.1-2.8c2.6-0.6,4.6-2,6.6-3.2c7.6-4.4,15-9,22.5-13.6
		c0.4-0.3,0.8-0.6,1.1-0.9c-0.6-0.2-1.2-0.5-1.7-0.4c-2.6,0.6-5.1,1.3-7.7,2c-4.4,1.3-8.9,2.4-13.2,4c-3.5,1.4-7,3.1-10.1,5.2
		c-5.8,3.9-12,4.2-18.6,3.3c-7-1-14.1-1.7-21.1-2.6c-6.6-0.8-13.1-1.8-19.6-2.6c-4.4-0.5-8.9-0.8-13.4-1.2
		c-5.3-0.6-10.5-1.3-15.7-1.8c-1.5-0.2-3-0.2-4.5-0.2c-6.3,0-12.7-0.2-19,0.1c-7.1,0.3-14.2,1-21.2,1.6c-0.5,0-1,0.3-1.5,0.2
		c-6.8-0.3-13.5,0.8-20.2,2c-5.7,1.1-11.4,2-17,3.1c-0.4,0.1-0.8,0.3-1.2,0.5c0.3,0.3,0.6,0.8,1,1c0.7,0.5,1.5,0.8,2,1.4
		c1.9,1.8,1.8,3.6,0,5.7c-1.3,1.5-4.8,1.9-6.4,0.8c-1.6-1.1-2.2-3.6-1.4-5.3c0.1-0.1,0.1-0.3,0.2-0.5c0.7-0.9,1.3-1.7,2-2.6
		c-1.2,0.4-2.5,0.8-3.7,1.2c-3.1,1.1-6.3,2-9.3,3.3C2,24.5,2,25.5,3.7,26.4c0.8,0.4,1.9,0.6,2.7,0.3c3-1.1,3.6-1.3,5.1,1
		c1,1.6,1.8,2.8,3.8,1.9c4.1,2,8,0.5,12-0.4c0.8-0.2,1.7-0.6,2.4-0.4c1,0.2,2.5,0.7,2.7,1.4c0.4,1.3-0.9,1.9-2.2,2.1
		c-0.5,0.1-1,0-1.5,0.1c-0.5,0.1-0.9,0.3-1.4,0.4c0.5,0.1,0.9,0.3,1.4,0.4c7,0.7,14.1,1.4,21.1,2.1c0.5,0,0.9,0.3,1.3,0.5
		c-0.4,0.2-0.9,0.5-1.3,0.5c-3.6-0.2-7.2-0.5-10.9-0.8c-3.6-0.3-7.2-0.6-10.8-1.2c-2.9-0.4-5.8-1.1-8.7-1.7
		c-2.1-0.4-4.3-0.7-6.3-1.3C9.3,30,5.4,28.6,1.6,27C0.8,26.7,0,25.5,0,24.7c0-0.7,1-1.7,1.8-2c7.3-2.4,14.4-5.9,22.2-6.7
		c3.3-0.3,6.4-1.4,9.7-2c5.8-1.2,11.7-1.7,17.7-1.9c6.1-0.2,12.1-1.1,18.2-1.7c1-0.1,2-0.1,3-0.2c5.6-0.3,11.2-0.6,16.9-1.1
		C91,8.9,92.6,8.2,94,7.3c3.1-1.9,6.1-4,9.1-6C105.3-0.1,107.6-0.7,109.8,1.2c-1.3,2.6-4.3,2.9-6.3,4.6c-0.5,0.4-1.4,0.7-1.2,1.4
		c0.2,0.7,1.1,0.5,1.7,0.6c0.3,0,0.7,0,1,0c5.8,0.5,5.7,0.5,4.2-4.2C109,2.7,109.4,1.9,109.8,1.2z"/>
	<path d="M179.1,22.1c2.5,0,4.9,0,7.4,0c0.3,0,0.6,0.3,0.8,0.5c-0.2,0.2-0.5,0.5-0.7,0.6c-5,0.6-10,2-15.1,0.3
		c-0.4-0.1-0.7-0.6-1.1-0.9c0.4-0.2,0.8-0.5,1.2-0.5C174.1,22.1,176.6,22.1,179.1,22.1C179.1,22.1,179.1,22.1,179.1,22.1z"/>
	<path d="M53.4,26.6c-0.6,1.7-1.3,3.7-2.1,5.6c-0.1,0.2-0.5,0.3-0.8,0.5c-0.1-0.4-0.4-0.8-0.3-1.2c1.1-3.3,1.9-6.6,0.3-10
		c-0.1-0.3,0.2-0.8,0.3-1.2c0.4,0.2,1.1,0.3,1.2,0.7C52.6,22.7,52.9,24.4,53.4,26.6z"/>
	<path d="M48.9,28.2c0,0.7,0.2,1.4,0,2c-0.3,0.9-1.1,2.4-1.3,2.3c-1.5-0.4-0.7-1.5-0.3-2.3c1.3-3-0.9-5.4-1-8.2c0-0.5,0.3-1,0.5-1.6
		c0.3,0.3,0.9,0.6,0.9,0.9c0.6,2.2,1,4.5,1.5,6.7C49.1,28.2,49,28.2,48.9,28.2z"/>
</g>
</svg>
