<?xml version="1.0" encoding="iso-8859-1"?>
<!-- Generator: Adobe Illustrator 25.3.0, SVG Export Plug-In . SVG Version: 6.00 Build 0)  -->
<svg version="1.1" id="Calque_1" xmlns="http://www.w3.org/2000/svg" xmlns:xlink="http://www.w3.org/1999/xlink" x="0px" y="0px"
	 viewBox="0 0 80.7 35.1" style="enable-background:new 0 0 80.7 35.1;" xml:space="preserve">
<g>
	<path d="M34.2,26.1c-2.6-0.1-5.3-0.2-7.9-0.3c-0.2,0-0.5,0-0.7,0c-0.2,0-0.3,0.1-0.5,0.1c0.1,0.1,0.1,0.2,0.2,0.3
		c1.6,1.1,1.4,2.9,1.8,4.5c0.3,1.3,0.5,2.7,0.7,4c0,0.2,0,0.4-0.1,0.5c-0.1,0.1-0.3,0-0.5,0c-0.4-0.2-0.7-0.4-1-0.7
		c-1.1-1.2-2.2-2.3-3.3-3.5c-0.1-0.1-0.1-0.2-0.2-0.3c-1.5-1.1-1.9-1.6-2.5-3.1c-0.2-0.5-0.3-1-0.5-1.5c-0.2-0.6-0.6-0.9-1.3-1
		c-2.5-0.2-5-0.3-7.5-0.7C8,23.8,5,23.8,2.2,22.9c-0.6-0.2-1.3-0.6-1.8-1c-0.5-0.4-0.6-1,0.1-1.5C0.6,20.3,0.7,20,0.7,20
		c-1.1-0.9,0.1-1.5,0.4-2.1c0.5-0.9,1.3-1.7,2-2.5c1.6-1.9,3.9-2.8,6.1-3.9c2.2-1.1,4.6-2,7.1-2.4c0.9-0.1,1.3-0.5,1.6-1.4
		c0.1-0.4,0.2-1.2,0.9-1C19.6,7,19.3,6,19.9,6.1c0.2,0,0.6,0.1,0.6,0c0.4-0.5,0.8-1.1,0.9-1.7c0.2-0.8,1.1,0,1.3-0.8
		c0.9-2.4,2.9-3.1,5.3-3.3C29.9,0.2,31.8,0,33.7,0c2.6,0.1,5.2,0.4,7.8,0.6c4.3,0.3,8.4,1.3,12.5,2.6c2.8,0.9,5.6,2,8.3,3.1
		C63.9,6.9,64,8.1,63,9.5c-0.5,0.7-1.4,1.1-2.1,1.6c-0.6,0.4-1.4,0.7-2,1.1c-0.4,0.3-0.4,0.5,0.1,0.7c0.6,0.2,1.2,0.5,1.9,0.5
		c1.8,0.1,3.6,0.3,5.3-0.2c3-0.9,6-0.9,9.1-0.8c3,0.1,5.4,2.8,5.5,5.7c0,1.9-0.1,3.6-1.3,5.2c-1.6,2.1-4,3-6.6,2.6
		c-3.1-0.5-6-1.3-9.1-1.9c-2.1-0.5-4.3-0.1-6.4,0.6c-0.1,0-0.2,0.1-0.3,0.1c0.1,0.1,0.2,0.3,0.4,0.4c0.7,0.5,1.4,1,2.2,1.5
		c1.3,0.9,1.4,3-0.4,4c-1.6,0.9-3.4,1.5-5.3,1.5c-1.8,0-3.7,0.1-5.5,0c-1.8-0.1-3.5-0.3-5.1-1.4c-0.3-0.2-0.6-0.3-1-0.4
		c-1.1-0.4-2.2-0.8-2.9-1.9c-0.4-0.7-1.5-1-1.6-2c0-0.2-0.6-0.4-0.9-0.4C36.1,26,35.2,26.1,34.2,26.1z"/>
	<path d="M15.7,14c-0.2-0.3-0.5-0.5-0.6-0.8c0-0.1,0.2-0.5,0.3-0.5c0.8,0.2,1.2-0.3,1.8-0.6c2.3-1.1,4.6-1.8,7.1-2.1
		c4.5-0.7,9.1-0.4,13.6-0.3c2.3,0.1,4.7,0.6,7,1.1c2.7,0.5,5.3,1.1,8,1.7c0.7,0.2,1.5,0.5,2.2,0.7c0.1,0,0.2,0.3,0.2,0.4
		c-0.2,0-0.3,0.1-0.5,0.1c-1.7-0.4-3.3-0.8-5-1.1c-3.4-0.7-6.8-1.5-10.3-1.8c-3.2-0.4-6.4-0.8-9.6-0.6c-4.6,0.3-9.1,0.8-13.2,3.1
		c-0.3,0.2-0.5,0.4-0.8,0.7C15.9,13.9,15.8,13.9,15.7,14z"/>
	<path d="M25.5,20.9c-1.9-0.3-3.7-0.6-5.6-1c-0.1,0-0.3-0.4-0.3-0.6c0.3-1.2,0.4-2.4-0.5-3.6c-0.1-0.1,0.1-0.6,0.3-0.7
		c3.8-1.4,7.5-2.8,11.6-1.2c0.7,0.3,1.4,0.6,2,1.2c1.5,1.5,0.9,2.7-0.2,3.7c-0.5,0.4-1.1,0.8-1.7,1C29.3,20.3,27.5,20.9,25.5,20.9z"
		/>
	<path d="M67.3,16.4c1.4,1.4,1.2,3.2-0.4,4.6c0.1-0.5,0.2-1,0.2-1.6c-0.6-0.1-1.2-0.1-1.7-0.2c-2-0.2-4-0.4-6-0.7
		c-1.6-0.2-3.3-0.5-4.9-0.8c-0.1,0-0.2-0.1-0.3-0.2c0.1-0.1,0.3-0.2,0.4-0.2c0.7,0.1,1.4,0.2,2.1,0.3c1.3,0.2,2.6,0.5,3.9,0.6
		c1.9,0.2,3.9,0.3,5.8,0.3c1.3,0,1.3-0.1,1-1.3C67.3,17,67.3,16.7,67.3,16.4z"/>
	<path d="M66.9,21c-0.5,0.8-1.1,1.7-2.2,1.8C65.2,21.9,65.9,21.4,66.9,21z"/>
	<path d="M6.3,14.9c1,0,1.7,0.7,1.7,1.7c0,0.9-0.7,1.6-1.5,1.6c-0.9,0-1.8-0.9-1.8-1.9C4.6,15.5,5.4,14.9,6.3,14.9z"/>
</g>
</svg>
