<?xml version="1.0" encoding="iso-8859-1"?>
<!-- Generator: Adobe Illustrator 25.3.0, SVG Export Plug-In . SVG Version: 6.00 Build 0)  -->
<svg version="1.1" id="Calque_1" xmlns="http://www.w3.org/2000/svg" xmlns:xlink="http://www.w3.org/1999/xlink" x="0px" y="0px"
	 viewBox="0 0 88.6 31.3" style="enable-background:new 0 0 88.6 31.3;" xml:space="preserve">
<g>
	<path d="M84.4,22.2c-1.3-0.2-2.5-0.3-3.7-0.5c-3.1-0.4-6.1-1.2-9-2.2c-0.5-0.2-0.9-0.3-1.4-0.5c-1.3-0.4-1.1-0.3-1.3,1
		c-0.1,1.2-0.3,2.6-1.4,3.5c-0.7,0.6-1.3,1.2-2,1.7c-2.3,1.6-4.9,1.3-7.4,0.7c-0.5-0.1-0.9-0.5-1.2-0.9c-0.8-1.2-1.6-2.3-2.3-3.6
		c-0.4-0.7-0.9-0.9-1.6-0.8c-1.1,0.1-2.2,0.3-3.4,0.3c-0.8,0-1.1,0.3-1,1c0.1,0.6-0.3,1.1-0.7,1.6c-1.3,1.8-3.4,2.4-5.2,3.2
		c-1.1-0.2-2.2,0-3.1-1c-0.9-1-1.8-2.1-2.1-3.4c-0.1-0.6-0.4-0.8-1-0.7c-1.8,0.5-3.7,0.3-5.5,0.3c-0.6,0-0.8,0.2-0.5,0.8
		c1.1,2.2,0.6,4.3-0.6,6.2c-0.5,0.9-1.5,1.6-2.4,2c-0.7,0.3-1.6,0.2-2.3-0.4c-0.8-0.7-1.8-1.2-2.6-1.9c-0.4-0.3-0.5-0.8-0.8-1.2
		c-0.6-0.8-1-1.9-1.8-2.4c-0.7-0.4-1.8-0.2-2.7-0.3c-1.3-0.2-2.6-0.2-3.8-0.7c-1.7-0.7-3.2-1.6-4.6-2.8c-0.3-0.2-0.5-0.5-0.8-0.7
		c-0.3-0.2-0.6-0.3-0.9-0.4c0,0.3,0,0.6,0.1,0.8c0.5,1.1,0.8,2.3,0.9,3.6c0.1,0.6,0.7,1.1,1.1,1.6c0.8,0.9,1.6,1.8,2.4,2.6
		c0.1,0.1,0.1,0.3,0.1,0.5c-0.2,0-0.4,0-0.5,0c-1-0.7-2.3-1.3-2.8-2.6c-0.2-0.6-0.6-1.5-1.7-0.9c-0.2,0.1-0.6-0.2-0.9-0.4
		c-1.3-1.1-1.9-2.6-2.1-4.2c-0.2-1.1-0.6-2-1.5-2.7c-0.5-0.4-1-0.9-1.4-1.4c-1-1.2-1-2.5,0.1-3.6c1.1-1,2.1-2.2,3.4-2.8
		c1.7-0.7,3.5-1.3,5.3-1.6c0.2,0,0.4,0,0.5,0c2-0.9,4.2-0.8,6.2-1.2c2.7-0.5,5.4-0.7,8.2-0.8C25.9,7,27,6.6,28,5.6
		c1.4-1.3,2.8-2.5,4.3-3.7c0.6-0.5,1.2-0.9,1.8-1.2c1.3-0.8,2.8-1,4-0.2C39,1.1,40,1,40.8,1.8c0.7,0.7,1.7,1.1,2.5,1.7
		c1.2,1.1,2.6,2.2,2,4.2c0,0.1,0.4,0.4,0.6,0.4c1.4-0.1,2.9-0.2,4.2-0.5c1.4-0.3,2.8-0.7,4.2-1.2c1.3-0.5,2.7-0.7,4.1-1
		c1.8-0.4,3.6-0.3,5,1.1C63.7,6.9,64.1,7.6,64,8c-0.3,0.9,0.2,1,0.8,0.8c1.6-0.5,3.3-0.2,4.9-1c2.1-1,4.3-1.6,6.5-2.3
		c0.5-0.2,0.9-0.6,1.4-0.7c2.1-0.6,4.2-1.1,6.3-1.5c0.6-0.1,1.4,0.1,2.1,0.3c0.6,0.2,0.9,0.8,0.7,1.5c-0.5,1.3-0.5,2.6-1.2,3.8
		c-1.1,2.2-1.1,4.4,0.6,6.5c1,1.2,1.9,2.5,2.4,4.1c0.4,1.3,0.1,1.9-1.2,2.3C86.3,22,85.3,22.1,84.4,22.2z"/>
	<path d="M60,13.4c0.7,0.1,1.3,0.2,1.8,0.3c-0.4,0.8-1.2,0.2-1.8,0.4c-0.6,0.2-1.4,0-2.2,0C58.4,13,59.4,13.9,60,13.4z"/>
	<path d="M11,10.8c0.4,0.3,0.7,0.5,0.9,0.8c0.1,0.1-0.4,0.6-0.4,0.6c-0.4-0.2-0.8-0.5-1.1-0.7C10.5,11.4,10.7,11.1,11,10.8z"/>
	<path d="M68.7,13.5c0.3,0,0.6,0,0.9,0.1c0,0,0.1,0.1,0.1,0.1c0,0.1-0.1,0.2-0.2,0.2c-0.6,0.1-1.2,0.2-1.9,0.2c0,0-0.2-0.2-0.2-0.3
		c0-0.1,0.1-0.2,0.2-0.2C68,13.6,68.4,13.5,68.7,13.5z"/>
	<path d="M41.8,14.4c-0.3,0-0.6,0.1-0.9,0.1c-0.1,0-0.2-0.2-0.3-0.4c0.3-0.1,0.6-0.2,0.9-0.2c0.1,0,0.3,0.1,0.5,0.2
		C41.9,14.2,41.8,14.3,41.8,14.4z"/>
	<path d="M36.2,14c-0.5,0.1-0.7,0.3-0.9,0.2c-0.2-0.1-0.4-0.3-0.6-0.5c0.2-0.1,0.3-0.2,0.5-0.2C35.5,13.6,35.7,13.8,36.2,14z"/>
	<path d="M67.1,13.7c-0.4,0.3-0.6,0.5-0.8,0.5c-0.2,0-0.4-0.1-0.6-0.2c0.1-0.2,0.2-0.4,0.3-0.5C66.3,13.5,66.6,13.6,67.1,13.7z"/>
	<path d="M43.7,14.1c-0.2,0.3-0.3,0.5-0.4,0.5c-0.3,0-0.6,0-0.8-0.1c0.1-0.2,0.2-0.4,0.3-0.5C43,13.9,43.3,14,43.7,14.1z"/>
	<path d="M52.6,14.4c0.2-0.3,0.3-0.5,0.4-0.5c0.3,0,0.6,0,0.8,0.1c-0.1,0.2-0.2,0.4-0.3,0.5C53.3,14.6,53,14.5,52.6,14.4z"/>
	<path d="M27.4,13.5c-0.1-0.3-0.2-0.5-0.2-0.7c0-0.1,0.2-0.3,0.3-0.3c0.2,0,0.3,0.2,0.5,0.3C28,13,27.9,13.1,27.4,13.5z"/>
	<path d="M31.3,13.1c0.2,0.2,0.3,0.4,0.4,0.5c-0.1,0.1-0.3,0.3-0.4,0.2c-0.2-0.1-0.3-0.2-0.5-0.4C30.9,13.4,31.1,13.3,31.3,13.1z"/>
	<path d="M39.2,13.8c0.2,0.2,0.3,0.3,0.4,0.4c-0.2,0.1-0.3,0.3-0.5,0.3c-0.1,0-0.2-0.2-0.4-0.3C38.9,14.1,39,14,39.2,13.8z"/>
	<path d="M50.5,14.1c-0.2,0.2-0.3,0.4-0.4,0.4c-0.2,0-0.4-0.1-0.6-0.2c0.1-0.1,0.2-0.4,0.3-0.4C50,13.9,50.2,14,50.5,14.1z"/>
</g>
</svg>
