<?xml version="1.0" encoding="iso-8859-1"?>
<!-- Generator: Adobe Illustrator 25.3.0, SVG Export Plug-In . SVG Version: 6.00 Build 0)  -->
<svg version="1.1" id="Calque_1" xmlns="http://www.w3.org/2000/svg" xmlns:xlink="http://www.w3.org/1999/xlink" x="0px" y="0px"
	 viewBox="0 0 83.4 13.6" style="enable-background:new 0 0 83.4 13.6;" xml:space="preserve">
<g>
	<path d="M37.9,1c2.4-0.1,4.8,0.4,6.8,1.8C44.8,2.9,45,3,45.1,3.1c0.9,2,2.9,1.6,4.5,1.8c1.3,0.2,2.6,0.2,3.9,0c1-0.1,2.1-0.5,3-0.9
		c1.5-0.6,2.9-1.2,4.6-1.2c0.9,0,1.4,0.3,1.9,1c1.4,2.1,1.5,2.1,4.1,1.5c1.8-0.4,3.4-1.2,5-1.9c2.6-1.1,5.1-2.2,7.7-3.2
		C80.6,0,81.4,0,82.2,0c1,0.1,1.5,1.1,1,2c-0.5,0.9-1.1,1.8-2.3,1.6c-0.5-0.1-0.8,0.2-1.2,0.6c-2.2,2-4.4,3.9-6.9,5.6
		c-0.7,0.5-1.2,0.6-2,0.2c-1.9-1.2-4.1-1-6.2-1.4c-0.8-0.2-1.4,0.2-1.9,0.7c-1.4,1.3-2.8,1.5-4.5,0.4C57.2,9,55.9,8.9,54.5,9
		c-0.9,0.1-1.8,0-2.7,0c-0.7,0-1.2,0-1.5,0.8c-0.3,0.8-1,0.9-1.9,0.7c-0.3-0.1-0.6-0.1-0.8-0.3c-1.2-0.9-2.5-0.9-3.9-0.9
		c-1.5,0-3-0.4-4.5-0.3c-2.5,0.2-5.1-0.5-7.6,0.2c-0.6,0.2-1.3,0-2,0.1c-2.3,0.1-4.5,0.3-6.8,0.4c-0.6,0-0.6,0.3-0.7,0.8
		c-0.1,0.8-0.2,1.5-0.5,2.2c-0.4,1-1.2,1.1-2,0.4c-0.8-0.7-1.5-1.5-2.1-2.4C16.8,9.5,15.8,9,14.5,9c-0.8,0-1.6,0-2.3,0
		c-4-0.2-7.9-1.1-11.6-2.5C0.2,6.4-0.1,6.1,0.1,5.7c0.1-0.2,0.4-0.4,0.7-0.4c2.8-0.3,5.7-0.4,8.5-0.8c3.5-0.5,7.1-0.7,10.7-0.7
		c1.7,0,3.5-0.1,5.2-0.4c1.8-0.3,3.6-0.9,5.4-1.3C32.9,1.6,35.3,0.9,37.9,1z"/>
	<path d="M59.2,5.4c0.3,0,0.6,0,0.9,0c0.2,0,0.3,0.2,0.5,0.3C60.5,5.8,60.3,6,60.2,6c-0.7-0.1-1.5-0.2-2.2-0.3
		c-0.1,0-0.1-0.1-0.2-0.2c0.1,0,0.2-0.1,0.3-0.1C58.5,5.4,58.9,5.4,59.2,5.4C59.2,5.4,59.2,5.4,59.2,5.4z"/>
	<path d="M9.3,5.8c0.4,0.3,0.7,0.7,1.1,1c0,0-0.2,0.2-0.3,0.3c-0.4-0.3-0.7-0.6-1.1-1C9,6.1,9.2,6,9.3,5.8z"/>
	<path d="M43,7.2c0.1,0,0.3,0.1,0.4,0.1c0.1,0,0.2,0.2,0.2,0.3c0,0.1-0.1,0.3-0.1,0.2c-0.4-0.2-0.8-0.3-1.2-0.5
		c0.1,0,0.2-0.1,0.3-0.1C42.7,7.2,42.9,7.2,43,7.2z"/>
</g>
</svg>
