<?xml version="1.0" encoding="iso-8859-1"?>
<!-- Generator: Adobe Illustrator 25.3.0, SVG Export Plug-In . SVG Version: 6.00 Build 0)  -->
<svg version="1.1" id="Calque_1" xmlns="http://www.w3.org/2000/svg" xmlns:xlink="http://www.w3.org/1999/xlink" x="0px" y="0px"
	 viewBox="0 0 219.9 54.9" style="enable-background:new 0 0 219.9 54.9;" xml:space="preserve">
<g>
	<path d="M66.4,50.2c-2.8-0.4-5.6-0.6-8.3-1.4c-1.8-0.6-4-1.7-4.8-3.2C51.3,42,48,41.3,44.5,41c-6.9-0.5-13.9-0.6-20.9-1.2
		c-3.6-0.3-7.2-1.1-10.7-2.1c-3.6-1-7.2-2.5-10.7-3.9c-2.8-1.1-2.5-1.7-1.7-4.4c1.5-4.9,5.5-6.1,9.5-7.6c1.1-0.4,2.3-0.5,3.2-1.1
		c2.5-1.7,5-2.4,8.2-2.3c5.1,0,10.1-1.3,15.2-2.1c1-0.1,1.9-0.4,2.9-0.5c8.9-0.7,17.8-1.4,26.7-2c1.7-0.1,2.7-0.7,3.5-2.2
		c1.8-3,3.9-5.8,5.7-8.7c1.3-2.1,2.8-2.4,5.1-1.7c2.7,0.9,5.3,2,7.2,4.2c1.6,1.7,3.3,3.3,5,4.9c1.3,1.1,1.8,2.3,0.8,3.9
		c-1,1.5,0.1,1.6,1.2,1.5c2.6-0.2,4.7-1.2,6.1-3.6c1.8-3,3.9-5.8,5.9-8.6c1.9-2.6,4-4.3,7.6-3c3.9,1.4,8,2.2,11.8,3.6
		c7.7,2.8,15.4,4.9,23.5,5.8c7.2,0.8,14.3,2.5,21.4,4c2.9,0.6,3.3,2.6,1.2,4.6c-0.4,0.3-0.9,0.4-1.3,0.8c-0.3,0.3-0.5,0.8-0.8,1.2
		c0.3,0.1,0.6,0.2,1,0.2c5.5,0.3,10.9,0,16.2-1.7c7.4-2.4,14.8-4.8,22.2-7c8.3-2.5,10.5-2.3,8.5,7.7c-1,4.7,0.1,9.9,0.4,14.8
		c0.1,1.5,0.8,2.9,1,4.3c0.7,3.3,0,4.3-3.4,4.2c-2.8-0.1-5.6-0.5-8.3-1.2c-7.1-1.7-14-3.9-21.2-5.3c-5-1-10.2-1-15.3-1.5
		c-0.3,0-0.6,0.1-1,0.2c0.1,0.4,0.1,0.9,0.4,1.2c0.5,0.6,1.1,1.2,1.7,1.8c1.3,1.3,0.5,2.1-0.7,2.6c-1.2,0.5-2.5,0.9-3.8,1.1
		c-6.7,1.1-13.4,2.2-20.1,3.1c-9.8,1.4-19.5,3.7-29.1,6c-2.2,0.5-4.5,1.3-6.6,2.2c-3.1,1.4-6.3,1.9-9.7,1.8
		c-2.5-0.1-4.5-0.9-5.9-3.1c-1.3-1.9-2.7-3.8-3.9-5.8c-1.6-2.8-3.6-4.5-7.2-4.2c-4.1,0.3-8.3,0.1-12.5,0.1c-0.3,0-0.6,0.2-0.9,0.3
		c0.2,0.3,0.3,0.6,0.5,0.8c0.4,0.3,1,0.4,1.2,0.8c0.8,1.2,2.2,2.7,1.9,3.6c-0.4,1-2.2,1.9-3.6,2.2c-1.9,0.4-4,0.1-6,0.1
		C66.5,49.9,66.4,50.1,66.4,50.2z"/>
</g>
</svg>
