<?xml version="1.0" encoding="iso-8859-1"?>
<!-- Generator: Adobe Illustrator 25.3.0, SVG Export Plug-In . SVG Version: 6.00 Build 0)  -->
<svg version="1.1" id="Calque_1" xmlns="http://www.w3.org/2000/svg" xmlns:xlink="http://www.w3.org/1999/xlink" x="0px" y="0px"
	 viewBox="0 0 78.1 33.5" style="enable-background:new 0 0 78.1 33.5;" xml:space="preserve">
<g>
	<path d="M65.9,14.7c2.2,0.3,4-0.7,5.7-2c1.3-1,2.7-1.9,4.2-2.6c0.4-0.2,0.8-0.3,1.2-0.4c0.8-0.1,1,0.2,0.7,0.9
		c-1.2,2.6-1.2,5.2-0.8,8c0.2,1.3,0.5,2.4,1.1,3.5c0.3,0.6,0.1,0.8-0.6,0.9c-1.8,0.3-3.4-0.3-4.8-1.4c-1.1-0.7-2.2-1.5-3.3-2.1
		c-0.7-0.4-1.5-0.6-2.3-0.8c-0.4-0.1-0.8,0.1-1.2,0.1c0.2,0.3,0.5,0.5,0.7,0.8c0.9,1.1,0.8,1.8-0.5,2.4c-2.2,1-4.5,1.6-6.8,2
		c-1,0.2-2.1,0.3-3.2,0.5c-0.3,0.1-1,0.2-1,0.3c0.1,1.7-1,0.6-1.6,0.6c-2.5,0.2-4.1-1.3-5.6-3C47,21.6,46,21.4,45,21.6
		c-4.8,1.1-9.7,1.2-14.6,1c-1.6-0.1-3.2-0.4-4.7-0.7c-0.4-0.1-0.8-0.1-1.3-0.1c-0.4,0-0.7,0.1-1.1,0.2c0.3,0.2,0.6,0.6,1,0.7
		c1.5,0.3,3,0.7,4.5,0.8c2,0.1,3.5,1,5,2.1c0.4,0.3,0.7,1,0.9,1.5c0.2,0.7,0.7,1.1,1.4,1.5c2,0.9,4,2,5.9,2.9
		c0.3,0.1,0.6,0.2,0.8,0.4c0.2,0.2,0.2,0.5,0.3,0.7c-0.2,0-0.5,0.1-0.6,0c-0.8-0.3-1.5-0.8-2.2-1.1c-2.1-0.8-4.2-1.5-6.4-2.2
		c-0.1,0-0.3,0-0.5,0.1c0.1,0.1,0.2,0.3,0.3,0.4c1.4,0.8,2.8,1.5,4.2,2.3c0.3,0.2,0.6,0.4,0.8,0.7c0.1,0.1,0,0.3-0.1,0.4
		c-0.1,0.1-0.3,0.2-0.4,0.1c-0.6-0.4-1.2-0.8-1.8-1.1c-0.1-0.1-0.3,0-0.5,0c0.1,0.1,0.2,0.3,0.2,0.4c0.1,0.2,0.1,0.4,0.2,0.6
		c-0.2,0-0.5,0-0.6-0.1c-0.9-0.6-1.8-1.2-2.7-1.7c-0.3-0.2-0.7-0.5-1.1-0.6c-0.5-0.2-1.1-0.3-1.7-0.4c-0.1,0.8,0.6,0.9,1,1.3
		c0.3,0.4,0.6,0.8,0.8,1.2c-0.8,0.5-1.1-0.3-1.5-0.6c-1.2-0.9-2.4-1.8-3.3-3c-1.4-1.6-3.1-2.9-4.8-4.2c-0.8-0.7-1.6-1.5-2.2-2.3
		c-0.5-0.6-0.9-1-1.7-1.1c-2-0.4-4-1-6-1.7c-2.8-0.9-5.5-2.2-7.9-4c-1.3-1-2.7-2-4-3C0.3,13-0.1,12.6,0,12.4
		c0.1-0.3,0.5-0.7,0.8-0.8c2.3-0.5,4.5-1.2,7-0.6c2.6,0.6,5.3,0.8,7.9,1.2c1.5,0.2,3.1,0.4,4.6,0.6c0.6,0.1,0.9-0.3,0.7-1
		c-0.6-1.9-1-3.8-0.9-5.7c0.1-1.5,0.7-2.7,1.4-4c0.2-0.3,0.5-0.7,0.9-0.8c1.8-0.6,3.5-1.7,5.6-1.1c0.5,0.1,1,0,1.5-0.1
		c0.8-0.1,1,0,1,0.8c0.1,1.6,0.7,3.1,1.3,4.6c0.2,0.6,0.3,1.3,0.5,1.8c0.1,0.3,0.4,0.8,0.7,0.9c0.7,0.2,1.4,0.4,2.1,0.4
		c1.4,0.1,2.9,0.2,4.3,0.3c1.3,0.1,2.9,0.1,4.1-0.8c0.1-0.1,0.4,0,0.6,0.1c0,0.2,0,0.4-0.1,0.5c-0.2,0.2-0.4,0.4-0.6,0.7
		c-0.1,0.2-0.1,0.4-0.1,0.6c0.2,0,0.5,0.1,0.7,0c0.8-0.5,1.5-1,2.2-1.4C46.7,8.3,47,8,47.4,7.9c0.2-0.1,0.6,0.1,0.6,0.2
		c-0.2,1.5,1,0.8,1.5,0.9c2,0.1,3.9-0.2,5.8,0.7c0.5,0.2,1.2,0.1,1.8,0.1c1.9,0,3.8-0.1,5.8,0c1.3,0.1,2.6,0.3,3.4,1.6
		c0.6,1,0.4,1.8-0.7,2.3c-0.7,0.3-1.5,0.2-2,0.9c0.1,0,0.1,0.1,0.2,0.1C64.5,14.7,65.2,14.7,65.9,14.7z"/>
</g>
</svg>
