<?xml version="1.0" encoding="iso-8859-1"?>
<!-- Generator: Adobe Illustrator 25.3.0, SVG Export Plug-In . SVG Version: 6.00 Build 0)  -->
<svg version="1.1" id="Calque_1" xmlns="http://www.w3.org/2000/svg" xmlns:xlink="http://www.w3.org/1999/xlink" x="0px" y="0px"
	 viewBox="0 0 83 29.4" style="enable-background:new 0 0 83 29.4;" xml:space="preserve">
<g>
	<path d="M15.9,26.4c-0.8-1-1.6-1.9-2.2-3c-0.6-1-1.4-1.3-2.3-1.4c-2.5-0.1-4.8-0.8-7.1-1.4c-1-0.2-2-0.4-2.9-0.8
		c-1.4-0.6-1.7-1.8-0.6-2.9c2-2,4.2-3.6,7-4.4c1.2-0.3,2.3-0.9,3.5-1.3c2.6-0.9,5.3-1.8,7.9-2.7c0.9-0.3,2-0.4,2.9-0.6
		c0.6-0.1,1.2-0.3,1.7-0.3c1.4-0.2,4.2-1.3,5.3-2.1c0.1-0.1,0.3,0,0.5,0c0.1,0.1,0.2,0.3,0.3,0.4c1.5,1.8,7.6,3.3,9.8,2.4
		c1-0.4,1.4-0.9,0.5-1.8c-1.1-1.1-2.2-2.2-3.1-3.5c-0.8-1-1.6-0.9-2.4-0.1c-1,1-2,1.8-3.3,2.5c-0.6,0.3-1.2,0.6-1.7,0
		c0.7-0.7,1.4-1.4,2.2-2c1.3-1.1,2.6-2.1,3.9-3.1c0.9-0.7,1.2-0.7,1.8,0.3C38,1.6,38.4,2.5,39,3.2c1.1,1.3,2.3,2.6,3.5,3.7
		c0.7,0.6,1.5,1,2.3,1.6c0.1,0.1,0.1,0.2,0.2,0.2c-0.1,0.1-0.2,0.1-0.3,0.1c-2,0.2-3.8,0.7-5.7,1.4c-0.2,0.1-0.3,0.1-0.5,0.2
		c0.2,0.2,0.3,0.4,0.5,0.5c0.3,0.2,0.6,0.3,1,0.4c2.3,0.6,4.6,1.2,6.9,1.7c0.9,0.2,1.7,0.5,2.6,0.7c1.6,0.3,3.1,0.5,4.7,0.8
		c2,0.3,4,0.7,5.9,1c0.8,0.1,1.7,0.1,2.5,0.1c3.4,0.3,6.6-0.4,9.9-1.2c1.9-0.4,3.8-0.7,5.8-1c1.2-0.2,2.5-0.3,3.7-0.3
		c1.1,0,1.3,0.4,0.6,1.2c-0.7,0.8-1.4,1.6-2.3,2.3c-0.6,0.5-1.4,0.9-2.1,1.3c-0.2,0.1-0.4,0.3-0.6,0.4c-0.4,0.3-0.4,0.7,0,1
		c1,0.9,1.9,1.7,2.9,2.6c0,0.2-0.1,0.3-0.3,0.4c-1.5,0-4.1-1.9-4.3-3.2c-0.2-1.1,0.6-1.7,1.3-2.3c0.7-0.6,2.3-1.1,2-1.7
		c-0.5-0.9-1.8,0-2.8,0.1c-1.8,0.2-3.7,0.1-5.3,1c-2.1,1.2-4.2,0.7-6.4,0.7c-6.5,0-12.7-1.2-19-2.7c-4.2-1-8.3-2.2-12.3-3.9
		c-5-2.1-10-1.4-15,0.1c-3.3,1-6.6,2.3-9.9,3.1c-2.2,0.5-4.1,1.8-5.7,3.5c-0.8,0.9-0.7,1.6,0.5,2c1.4,0.5,2.8,0.5,4.2,0.4
		c0.7-0.1,1.2-0.2,1.7,0.5c0.4,0.7,1,0.5,1.6,0.2c0.7-0.3,0.7-0.9,0.5-1.5c-0.2-0.7-0.6-1.4,0.3-1.8c0.9-0.4,1.5,0.3,1.9,0.9
		c0.6,0.8,1.1,1.6,0.9,2.8c-0.2,1.3,0.4,2.4,1.2,3.4c0.5,0.6,1.1,1.3,0.7,2.2C16.2,26.3,16.1,26.4,15.9,26.4z"/>
	<path d="M56.2,25c-0.5-0.5-1.1-1-1.6-1.6c-0.5-0.5-1-0.8-1.8-0.5c-0.4,0.2-0.9,0.2-1.4,0.2c-3.6,0.1-7.3,0.2-10.9,0.4
		c-0.2,0-0.4,0-0.5,0.1c0.1,0.2,0.2,0.4,0.4,0.5c1.7,0.8,1.9,2.4,2.3,4c0.1,0.4,0,0.8-0.7,0.7c-0.6-0.1-1.3-0.2-1.9-0.2
		c-1.5,0.1-2.8-0.5-3.8-1.6c-0.8-0.9-1.6-1.8-2.3-2.7c-0.4-0.5-0.7-0.8-1.4-0.8c-3.2,0-6.3,0-9.5,0c-0.2,0-0.4,0.1-0.6,0.2
		c0.1,0.1,0.2,0.3,0.3,0.4c0.3,0.4,0.8,0.8,0.9,1.3c0.5,1.2,0.8,2.5,1.2,3.8c-1.7,0-3.3,0.1-5,0c-1.7-0.2-2.8-1.4-3.8-2.7
		c0.1-0.1,0.1-0.1,0.2-0.2c0.8-0.6,1.3-0.1,1.9,0.4c0.9,0.8,2,1,3.1,1.2c0.5,0.1,1,0.1,1.3-0.4c0.3-0.5,0.1-0.9-0.2-1.3
		c-0.6-1-1.5-1.4-2.6-1.8c-0.9-0.3-1.9-0.6-1.6-1.9c0.1-0.2,0.2-0.3,0.4-0.4c1.5-0.4,2.9,0.3,4.4,0.3c3.3-0.1,6.6,0.1,9.9-0.1
		c1.1-0.1,1.8,0.4,2.4,1.2c0.9,1.3,1.9,2.5,3.3,3.2c0.6,0.3,1.3,0.7,1.7-0.1c0.3-0.6-0.4-1-0.8-1.4c-0.8-0.6-1.7-0.8-2.6-1.3
		c-0.5-0.3-0.8-0.8-0.6-1.4c0.2-0.6,0.7-0.8,1.3-0.8c5.2,0.3,10.4,0,15.6-0.2c2.2-0.1,3,0.7,3.7,3C56.5,24.8,56.4,24.9,56.2,25z"/>
	<path d="M80.5,22c0.1,0,0.1,0,0.2,0.1c0.3,0.4,0.7,0.9,1,1.3c-0.4,0.1-0.9,0.3-1.3,0.4c-0.4,0.1-0.8,0.2-1.2,0.2
		c-2.1-0.1-4.2-0.3-6.3-0.9c-2.2-0.6-4.3-1.1-6.5-1.6c-0.5-0.1-1-0.1-1.4,0c-1.6,0.2-3.3,0.5-4.9,0.7c-0.1,0-0.3,0.1-0.3,0.2
		c0,0.2,0.1,0.3,0.2,0.4c0.2,0.3,0.5,0.5,0.8,0.7c-0.1,0.2-0.2,0.4-0.4,0.5c-1.2,0.4-2.5-0.1-3.7-0.1c-0.5,0-0.9-0.4-0.9-0.9
		c0-0.6,0.4-1,0.9-1.1c3.9-1.1,7.7-2.2,11.9-1.1c3.5,0.9,7.1,1.5,10.7,1.8c0.4,0,0.7,0.1,1-0.2C80.4,22.1,80.5,22,80.5,22z"/>
	<path d="M60.7,23.4c0.4,0.2,0.9,0.3,1.3,0.6c0.2,0.2,0.5,0.6,0.4,0.9c-0.3,1.4-0.7,2.8-1,4.2c-0.1,0.4-0.3,0.4-0.6,0.3
		c-0.7-0.4-1.4-0.6-1.7-1.4c0-0.2,0.1-0.3,0.2-0.5c1.1-0.6,1.6-1.5,1.2-2.7c-0.1-0.4-0.2-0.8,0.1-1.2C60.6,23.5,60.7,23.5,60.7,23.4
		z"/>
	<path d="M59.1,27.9c-1.3-0.6-2.3-1.6-2.9-2.9c0.1-0.1,0.1-0.1,0.2-0.2c1.7,0,2.8,1.2,2.9,2.8C59.2,27.7,59.2,27.8,59.1,27.9z"/>
	<path d="M56.3,18.5c-1.1,0-2.3,0-3.4,0c-3.7-0.1-7.4,0-11.1-0.4c-2.5-0.3-5-0.1-7.5-0.3c-1.9-0.1-3.8-0.4-5.7-0.7
		c-2.3-0.4-4.6-0.9-7-1.4c-0.1,0-0.3-0.3-0.4-0.4c0.1-0.1,0.3-0.2,0.5-0.3c0.1,0,0.2,0,0.3,0.1c2.4,0.4,4.8,0.9,7.2,1.3
		c1.5,0.3,3.1,0.4,4.6,0.7c4.3,0.7,8.6,0.1,12.9,0.4c4.9,0.4,9.8,0.3,14.7,0.3c0.1,0,0.3,0,0.4,0c0.2,0.1,0.4,0.2,0.6,0.3
		c-0.2,0.1-0.3,0.4-0.5,0.4c-0.3,0.1-0.7,0-1.1,0C59.3,18.5,57.8,18.5,56.3,18.5z"/>
	<path d="M7.7,18.9c-1.2,0-2.1-0.5-2.6-1.4c-0.3-0.4-0.3-1.2-0.1-1.7c0.7-1.7,4.2-2.6,5.4-1c0.8,1,0.9,1.8,0,2.7
		C9.7,18.3,8.9,19,7.7,18.9z"/>
	<path d="M18.1,22.4c-0.3,0-0.5,0.1-0.8,0.1c-0.1,0-0.2-0.1-0.3-0.2c-0.6-0.6-1.3-1.3-1.9-1.9c1.2-0.3,1.5,0.9,2.2,1.4
		C17.6,21.9,17.9,22.2,18.1,22.4L18.1,22.4z"/>
	<path d="M70.2,19c0,0,0.1,0.1,0.1,0.1c0,0.1,0,0.3-0.1,0.3c-0.4,0.4-0.9,0.7-1.3,1.1c0,0-0.1-0.1-0.1-0.1c0.4-0.5,0.8-0.9,1.3-1.4
		C70,19,70.1,19,70.2,19z"/>
</g>
</svg>
