<?xml version="1.0" encoding="iso-8859-1"?>
<!-- Generator: Adobe Illustrator 25.3.0, SVG Export Plug-In . SVG Version: 6.00 Build 0)  -->
<svg version="1.1" id="Calque_1" xmlns="http://www.w3.org/2000/svg" xmlns:xlink="http://www.w3.org/1999/xlink" x="0px" y="0px"
	 viewBox="0 0 85.9 41.6" style="enable-background:new 0 0 85.9 41.6;" xml:space="preserve">
<g>
	<path d="M42.3,41.6c-1.9,0.1-3.3-0.9-4.4-2.3c-0.3-0.4-0.6-0.8-1-1.3c-0.2-0.3-0.5-0.3-0.7,0c-0.2,0.5-0.5,0.5-1,0.3
		c-0.6-0.2-1.2-0.2-1.8-0.4c-0.9-0.3-1.8-0.6-2.7-1.2C30,36.2,28.9,36.1,28,36c-3-0.3-5.9-1.3-8.9-1.8c-1.8-0.3-3-1.6-4.3-2.7
		c-0.5-0.4-0.6-2.2-0.2-2.9c0.1-0.2,0.3-0.3,0.3-0.4c1.1-4.2,4.4-6,8-7.5c1.8-0.8,3.7-1.5,5.8-1.7c0.5,0,1.1-0.2,1.6-0.2
		c2.2-0.1,4.4-0.2,6.5-0.4c0.3,0,0.7-0.1,1-0.2c1.3-0.3,2.6-0.5,3.9-0.5c2.1-0.1,4,0.4,5.9,1.1c1.8,0.6,3.5,0.5,5.1-0.5
		c2.2-1.2,4.4-2.2,6.9-2.8c1.1-0.3,2.1,0.1,3.1,0.3c0.6,0.1,1.2,0.4,1.8,0.6c1.5,0.3,2.7,1.2,3.2,2.7c0.2,0.7,0.9,1.2,0.9,2.2
		c-0.1,1-0.2,1.8-1,2.4c-0.2,0.1-0.3,0.3-0.5,0.4c0.2,0,0.5,0.1,0.7,0.1c0.8-0.1,1.7-0.1,2.4-0.5c2.8-1.4,5.9-2.1,8.9-2.9
		c0.9-0.2,1.9-0.4,2.8-0.5c1.9-0.3,3,0.4,3.5,2.2c0.8,2.7,0.2,7.3-1.3,9.6c-0.2,0.3-0.5,0.7-0.8,1c-0.6,0.6-1.2,0.7-2.1,0.6
		c-3.6-0.6-7.1-1.7-10.5-3c-0.7-0.3-1.5-0.4-2.2-0.5c-0.4-0.1-0.8,0.2-0.4,0.6c0.6,0.8,1.1,1.6,0.8,2.6c-0.5,1.5-1.5,2.7-2.8,3.5
		c-1.3,0.8-2.7,0.9-4.2,1.2c-2.3,0.4-4.4-0.1-6.3-1.1c-1.3-0.6-2.5-1.4-3.6-2.2c-1.6-1.1-1.9-1.1-3.2,0.4c-1,1.1-2.1,1.5-3.4,1.4
		c-0.6,0-1.4-0.2-1.5,0.7c0,0.1-0.2,0.2-0.2,0.2c-1.2-0.1-1.9,1.1-3.2,0.8c-0.2-0.1-0.5,0.2-0.7,0.3c0.2,0.2,0.3,0.5,0.5,0.6
		c1.1,0.7,1.8,1.9,3.3,1.9c0.1,0,0.2,0.2,0.2,0.3c-0.1,0.1-0.2,0.4-0.3,0.4C43.1,41.6,42.7,41.6,42.3,41.6z"/>
	<path d="M68.5,8.6c-0.2,1.6-0.3,3-0.5,4.4c-0.1,0.9-0.6,1.2-1.5,1c-4-0.8-8-1.7-12-2.5c-0.4-0.1-0.8-0.2-1.2-0.2
		c-0.2,0-0.6,0.2-0.7,0.4c-0.3,1.7-1.8,2.1-3,2.3c-1.9,0.4-3.8,0.6-5.8,0.2c-2.3-0.5-4.7-0.4-7.1-0.9c-1.6-0.3-3.1-0.1-4.6,0.1
		c-1.3,0.2-2.6,0.6-3.7,1.3c-1.6,1-3.5,1.4-5.2,2.2C23,17,22.8,17,22.5,17.1c0.2,0,0.5,0.1,0.7,0.1c0.1,0,0.3,0,0.4,0
		c0.1,0.1,0.2,0.2,0.3,0.3c-0.1,0.1-0.2,0.2-0.3,0.2c-1.3,0.6-2.6,0.3-3.9,0.2c-0.6,0-1.2-0.3-1.8-0.2c-1.9,0.1-3.8-0.3-5.6-0.9
		c-1-0.3-1.9-0.7-2.7,0.3c-0.2,0.2-0.9,0.1-1.1-0.1c-1.3-1.1-2.8-1.7-4.5-1.9c-1.9-0.2-2.8-1.6-3.6-3.1c-0.1-0.2,0-0.5,0-0.7
		c0.1-0.2,0.7-0.4,0-0.7c-0.5-0.3-0.5-0.7-0.2-1.2c0.5-0.8,1-1.6,1.9-2.1c0.2-0.1,0.4-0.2,0.6-0.3C4,6.8,4,6.8,4.6,5.9
		c0.6-0.8,1.6-1.2,1.8-2.4C7.2,3.4,8.1,2.8,8.6,3c0.9,0.3,1.6-0.1,2.4-0.3c0.3-0.1,0.6-0.1,0.8-0.3c2.4-1.6,5.1-1.6,7.9-1.7
		c0.2,0,0.5,0,0.7-0.1c2.8-1.1,5.6-0.6,8.4,0.1c1.4,0.3,2.9,0.4,4.4,0.8c3,0.7,6.1,0.8,9.2,1.1c2.2,0.2,4.5,0.6,6.7,0.7
		c1.5,0.1,3,0.5,4.4,1.4c0.4,0.3,0.7,0.5,0.6,1.1c-0.2,0.5,0.2,0.8,0.7,0.7c0.6-0.1,1.2-0.2,1.7-0.4c3.1-1.2,6.4-1.8,9.7-2.4
		c1.4-0.2,1.7,0.1,1.9,1.5C68.2,6.4,68.4,7.6,68.5,8.6z"/>
	<path d="M15.4,12.7c-0.7-0.1-0.7-0.2-0.5-0.6c0.1-0.3,0.2-0.4-0.2-0.4c-0.2,0-0.5,0.1-0.7,0.1c-0.1,0-0.2-0.1-0.2-0.2
		c0-0.1,0-0.2,0.1-0.3c0.6-0.5,1.8-0.4,2.1,0.3c0.1,0.1-0.1,0.4-0.2,0.6C15.7,12.4,15.5,12.6,15.4,12.7z"/>
	<path d="M36.7,22.8c-0.5,0-0.8,0.1-1,0c-0.2-0.1-0.3-0.3-0.4-0.5c0.2-0.1,0.3-0.3,0.5-0.3c0.4-0.1,0.8-0.1,1.1,0
		c0.2,0,0.4,0.3,0.7,0.4c-0.2,0.2-0.4,0.4-0.6,0.5C36.9,23,36.7,22.8,36.7,22.8z"/>
	<path d="M31,27.2c-0.1,0-0.1,0-0.2,0c0-0.1-0.1-0.2,0-0.3c0.6-0.5,1.2-1,1.8-1.5c0,0.1,0.1,0.1,0.1,0.2
		C32.7,25.8,31.5,27.1,31,27.2z"/>
	<path d="M29.4,30.3c-0.2,0.3-0.5,0.7-0.8,1.1c-0.1,0.1-0.4,0.1-0.4,0c-0.1-0.1-0.1-0.4,0-0.4c0.3-0.3,0.6-0.6,0.9-0.9
		c0.1,0,0.2,0,0.3,0C29.4,30,29.4,30.1,29.4,30.3z"/>
	<path d="M29.3,21.9c0.2,0.3,0.4,0.5,0.5,0.7c0,0.1-0.2,0.3-0.3,0.3c-0.2-0.1-0.5-0.2-0.6-0.4C28.8,22.5,29.1,22.2,29.3,21.9z"/>
	<path d="M29,21.4c-0.2-0.3-0.3-0.4-0.4-0.6c0.2-0.1,0.3-0.2,0.5-0.3c0.1,0,0.3,0.2,0.3,0.3C29.3,21,29.2,21.1,29,21.4z"/>
	<path d="M27.1,23.5c0.2,0.3,0.3,0.4,0.5,0.6c-0.2,0.1-0.3,0.3-0.5,0.3c-0.1,0-0.4-0.2-0.3-0.3C26.8,23.9,26.9,23.8,27.1,23.5z"/>
	<path d="M29.3,23.5c0.2,0.3,0.3,0.4,0.4,0.6c-0.2,0.1-0.3,0.3-0.5,0.3c-0.1,0-0.3-0.2-0.3-0.3C28.9,23.9,29.1,23.8,29.3,23.5z"/>
	<path d="M39.2,21.1c-0.3,0.2-0.5,0.4-0.5,0.3c-0.2-0.2-0.3-0.4-0.5-0.6c0.1-0.1,0.3-0.3,0.4-0.3C38.7,20.7,38.9,20.9,39.2,21.1z"/>
	<path d="M35.6,20.7c-0.3,0.1-0.5,0.3-0.8,0.3c0,0-0.3-0.3-0.2-0.4c0.2-0.2,0.4-0.3,0.6-0.4C35.2,20.3,35.4,20.5,35.6,20.7z"/>
	<path d="M25.3,25c-0.2,0.2-0.4,0.3-0.5,0.4c-0.1-0.1-0.3-0.3-0.3-0.4c0.1-0.2,0.3-0.3,0.4-0.5C25,24.6,25.1,24.8,25.3,25z"/>
	<path d="M62.4,26.7c0,0.1,0.1,0.3,0.1,0.5c0,0.1-0.1,0.4-0.2,0.4c-0.2,0-0.5,0-0.6-0.1c-0.3-0.3-0.5-0.6-0.7-0.9
		c-0.2-0.3,0-0.5,0.4-0.5c0.2,0,0.4,0.1,0.5,0c0.7-0.7,0.7-0.1,0.8,0.4C62.5,26.4,62.4,26.6,62.4,26.7z"/>
	<path d="M59.5,24.8c-0.3,0.3-0.5,0.5-0.7,0.6c-0.1,0-0.4-0.3-0.4-0.4c0.1-0.2,0.3-0.5,0.5-0.6C58.9,24.4,59.2,24.6,59.5,24.8z"/>
	<path d="M54,24.2c-0.3-0.3-0.5-0.5-0.5-0.6c0-0.2,0.3-0.3,0.4-0.5c0.2,0.1,0.4,0.3,0.4,0.4C54.3,23.6,54.1,23.8,54,24.2z"/>
	<path d="M56.2,23.6c0.2,0.2,0.5,0.4,0.6,0.6c0,0.1-0.1,0.3-0.2,0.4c-0.3-0.2-0.5-0.4-0.8-0.6C56,23.9,56.1,23.8,56.2,23.6z"/>
	<path d="M58.7,26.4c-0.3,0.2-0.5,0.4-0.5,0.3c-0.2-0.1-0.4-0.3-0.5-0.5c0,0,0.2-0.3,0.3-0.3C58.1,26,58.3,26.2,58.7,26.4z"/>
	<path d="M13.3,4.4c-0.2-0.1-0.4-0.2-0.5-0.3C12.9,4,13,3.8,13.1,3.8c0.7-0.2,1.5-0.3,2.2-0.4c0.1,0,0.2,0.1,0.3,0.1
		c-0.1,0.1-0.1,0.2-0.2,0.2C14.7,3.9,14,4.2,13.3,4.4z"/>
	<path d="M16.1,7.6c-0.2,0-0.3,0-0.4,0c-0.4-0.1-0.9-0.1-1.3-0.4c-0.3-0.2,0.4-0.6,0.8-0.4c0.2,0.1,0.3,0.2,0.4,0.3
		c0.1,0.1,0.2,0,0.3,0.1c0.2,0.1,0.4,0.1,0.6,0.2C16.4,7.5,16.2,7.6,16.1,7.6z"/>
	<path d="M16.1,9.3c0.2,0.2,0.3,0.4,0.4,0.7c0,0.1-0.2,0.2-0.3,0.3c-0.2-0.2-0.4-0.4-0.7-0.6C15.7,9.6,15.8,9.5,16.1,9.3z"/>
	<path d="M9.6,10.2c-0.2,0.1-0.5,0.3-0.7,0.4c0,0-0.2-0.3-0.2-0.3c0.2-0.2,0.5-0.3,0.7-0.4C9.5,10,9.5,10,9.6,10.2z"/>
	<path d="M12.9,6.4c-0.3,0.2-0.4,0.4-0.5,0.3c-0.3-0.1-0.5-0.3-0.7-0.4C11.8,6.2,12,6,12.1,6C12.4,6,12.6,6.2,12.9,6.4z"/>
</g>
</svg>
