<?xml version="1.0" encoding="iso-8859-1"?>
<!-- Generator: Adobe Illustrator 25.3.0, SVG Export Plug-In . SVG Version: 6.00 Build 0)  -->
<svg version="1.1" id="Calque_1" xmlns="http://www.w3.org/2000/svg" xmlns:xlink="http://www.w3.org/1999/xlink" x="0px" y="0px"
	 viewBox="0 0 85.8 5.6" style="enable-background:new 0 0 85.8 5.6;" xml:space="preserve">
<g>
	<path d="M19.2,1.2c3.9,0,7,0.1,10.1,0c2.1-0.1,4.1-0.4,6.2-0.6c0.2,0,0.5,0,0.7,0c4-0.4,8.1-0.4,12.2-0.4c1.7,0,3.4-0.3,5,0
		c3.9,0.7,7.8,0,11.7,0.4c2.1,0.2,4.3,0.2,6.4,0.3C73.4,1,75.2,1.3,77,1.5c1.5,0.2,3.1,0.2,4.6,0.4c1.3,0.2,2.6,0.5,3.8,0.7
		c0.3,0,0.5,0.2,0.1,0.4c-0.7,0.3-1.3,1-2.2,0.8c-0.5-0.1-1.1,0-1.6,0c-2.7-0.1-5.4,0.3-8.2,0.7c-1.8,0.2-3.6,0.1-5.3,0.4
		c-2.3,0.4-4.6,0-6.9,0.6c-0.4,0.1-0.8,0-1.3,0c-7.2,0-14.4,0-21.6,0c-2.1,0-4.1-0.4-6.2-0.6c-1.2-0.1-2.5-0.3-3.7-0.4
		c-0.1,0-0.1,0-0.2,0c-1.1-0.1-1.9-1.1-3.2-0.5c-0.9,0.4-2.1,0.3-3.1,0.6c-1.7,0.5-3.5,0.7-5.3,0.6c-2.3,0-4.7,0-7,0
		C8.3,5.2,6.7,5,5.2,4.9c-0.4,0-0.8-0.1-1.1,0C2.8,5.6,1.6,4.8,0.3,4.9C0.2,4.9,0,4.8,0,4.7c0-0.1,0-0.2,0.1-0.3
		c0.1-0.1,0.3-0.2,0.4-0.3C1,3.9,1.3,3.7,0.8,3.2c0,0,0.2-0.5,0.3-0.5C3.1,2.3,5,1.9,6.9,1.6C11.3,0.8,15.7,1.4,19.2,1.2z"/>
</g>
</svg>
