<?xml version="1.0" encoding="iso-8859-1"?>
<!-- Generator: Adobe Illustrator 25.3.0, SVG Export Plug-In . SVG Version: 6.00 Build 0)  -->
<svg version="1.1" id="Calque_1" xmlns="http://www.w3.org/2000/svg" xmlns:xlink="http://www.w3.org/1999/xlink" x="0px" y="0px"
	 viewBox="0 0 83.3 21.5" style="enable-background:new 0 0 83.3 21.5;" xml:space="preserve">
<g>
	<path d="M78.3,19.7c-2.3,0.2-4.3-0.6-6.4-1.4c-2.1-0.8-4.1-1.6-6.2-2.3c-0.4-0.2-1.2-0.6-1,0.6c0,0.1-0.2,0.3-0.4,0.3
		c-0.2,0.1-0.5,0-0.7,0.1c-1.7,0.4-3.4,0.7-5.1,0.7c-2.6,0-5.2,0.5-7.8,1c-1.4,0.3-2.4,1-3.2,2.1c-0.8,1-0.9,1.1-2,0.4
		c-1.4-0.9-2.7-1.9-4-3c-0.6-0.5-1.2-0.9-2.1-0.8c-2.4,0.2-4.8,0.5-7.3,0.6c-1.3,0.1-2.5,0.1-3.8,0.1c-1,0-1.9,0-2.9,0
		c-0.2,0-0.4,0.1-0.6,0.2c0.1,0.2,0.2,0.5,0.3,0.6c0.4,0.5,0.9,0.9,1.3,1.4c0.3,0.4,0.1,0.9-0.4,0.9c-0.3,0-0.6-0.1-0.9-0.2
		c-1.6-0.8-3.2-1.5-4.8-2.4c-0.5-0.3-1-0.5-1.6-0.6c-2.6-0.3-5.2-0.7-7.8-1c-1.5-0.2-3.1-0.3-4.6-0.4c-1.8-0.1-3.6-0.2-5.4-0.4
		c-0.2,0-0.4,0-0.5-0.1c-0.3-0.3-0.6-0.5-0.7-0.9c0-0.1,0.4-0.5,0.7-0.7c0.2-0.1,0.5-0.1,0.7-0.2c0.3-0.1,0.6-0.3,0.9-0.5
		C2,13.5,1.8,13.3,1.5,13c-0.4-0.4-0.8-0.7-1.1-1c0.5-0.3,0.9-0.8,1.4-0.9c2.8-0.9,5.7-1.7,8.5-2.5c2.6-0.7,5.1-1.6,7.7-2.1
		c1.3-0.3,2.5-0.9,4-0.9c1.2,0,2.3-0.6,3.5-0.7c0.9-0.1,1.8,0,2.7,0c2.3,0.1,4.4-0.2,6.4-1.6c1.7-1.2,3.5-2.5,5.6-3.1
		c1.2-0.3,2,0,2.2,1.1c0.2,1.2,1,1.8,1.8,2.3c1.4,0.8,2.8,1.4,4.4,1.8c2.5,0.7,5,1.6,7.5,2.3c2.4,0.6,4.9,1.1,7.3,1.6
		c0.2,0.1,0.5,0.1,0.7,0.2c1,0.3,1,0.3,0.3,1.1c-0.1,0.1-0.1,0.2-0.2,0.3c0.1,0,0.2,0.1,0.3,0.1c0.9-0.2,1.9-0.4,2.7-0.7
		c2.8-1.1,5.5-2.3,8.3-3.3c2.1-0.8,4.3-1.3,6.6-1.3c0.3,0,0.6,0,0.9,0.1c0.1,0,0.3,0.1,0.3,0.2c0,0.2-0.1,0.4-0.2,0.5
		c-0.2,0.2-0.5,0.3-0.8,0.4C80.6,7.5,79.3,8.7,78,10c-1,1-1.6,2.4-1.5,3.7c0.1,1.4,0.8,2.8,2.2,3.7c0.7,0.4,1.3,0.8,2,1.2
		c0.2,0.1,0.3,0.4,0.2,0.6c0,0.2-0.3,0.4-0.5,0.4C79.7,19.7,79,19.7,78.3,19.7z"/>
	<path d="M12.6,13.8c0,1.4-0.7,1.9-1.9,1.8c-0.1,0-0.2-0.1-0.3-0.1c-0.6-0.2-1.2-0.3-1.7-0.5c0.4-0.3,0.8-0.7,1.2-1
		c0.6-0.6,1.2-1.2,1.2-2.1c0-0.3,0.2-0.6,0.3-0.8c0-0.1,0.4-0.1,0.4-0.1C12.1,12,12.4,13,12.6,13.8z"/>
</g>
</svg>
