<?xml version="1.0" encoding="iso-8859-1"?>
<!-- Generator: Adobe Illustrator 25.3.0, SVG Export Plug-In . SVG Version: 6.00 Build 0)  -->
<svg version="1.1" id="Calque_1" xmlns="http://www.w3.org/2000/svg" xmlns:xlink="http://www.w3.org/1999/xlink" x="0px" y="0px"
	 viewBox="0 0 72.5 36.7" style="enable-background:new 0 0 72.5 36.7;" xml:space="preserve">
<g>
	<path d="M21,0c3.6-0.1,6,1.5,8.3,3.3c2.2,1.7,3.7,4,4.5,6.7c0.1,0.3,0,0.7-0.1,1c-0.1,0.4-0.4,0.9-0.6,1.3c-0.2,0.5-0.2,0.8,0.5,1
		c0.9,0.3,1.7,0.9,2.5,1.4c0.2,0.1,0.4,0.2,0.4,0.3c0.4,1.4,1.6,1.1,2.6,1.2c2.5,0.2,5,0.4,7.5,0.6c0.4,0,0.7,0.1,1.1,0.1
		c2.4,0.1,4.9,0.1,7.3,0.4c2,0.3,4.1,0.1,6.1,0.4c2.5,0.3,5,0.2,7.5,0.4c1,0.1,2,0.5,2.9,0.9c0.4,0.2,0.7,0.6,0.9,1
		c0.1,0.2,0,0.6-0.2,0.8c-0.1,0.1-0.4,0.2-0.6,0.1c-0.3-0.1-0.7-0.3-1-0.4C70,20,70.1,20,70,20.7c0,0.3-0.5,0.8-0.8,0.8
		c-1,0-2-0.1-3-0.2c-0.6-0.1-1.1-0.5-1.9,0.2c-0.6,0.5-1.8,0.3-2.5-0.2c-1.1-0.7-2.2-0.7-3.4-0.7c-6.6,0.1-13.2,0.2-19.9,0.4
		c-0.5,0-0.9,0-1.2,0.7c-0.7,1.7-2.4,2.5-4.3,2.3c-0.5-0.1-0.7,0-0.5,0.5c0,0.1,0.1,0.1,0.1,0.2c1.1,2.1,0.2,3.9-1.1,5.5
		c-2.2,2.6-5,4.7-8.1,6.1c-3,1.3-5.9,0.6-8.2-1.7c-1.1-1.1-2.2-2.2-3.3-3.3c-1.8-1.7-3.6-3.3-5.4-5c-1-1-2-2-2.8-3.2
		c-1.2-1.7-2.3-3.5-3.4-5.2c-0.4-0.5-0.4-1,0.1-1.6c1.7-2.1,3.4-4.3,5.1-6.4C6.1,9,7,8.6,7.7,8c1.9-1.4,3.9-2.8,5.8-4.2
		c0.8-0.6,1.5-1.4,2.4-2C17.6,0.6,19.4-0.1,21,0z"/>
	<path d="M10,16.9c-0.1,0-0.4,0-0.5-0.1c-0.4-0.3-1.3,0-1.2-0.7c0.1-0.6,0-1.5,1-1.7c0.4-0.1,0.7-0.4,1.1-0.6
		c0.5-0.2,1.1-0.1,1.4,0.4c0.3,0.5,0.6,0.9,0,1.6C10.7,16.9,10.8,17,10,16.9z"/>
	<path d="M9,18.9c-0.1,0,0.2-0.1,0.5-0.1c0.5,0,1.3-0.1,1.5,0.1c0.3,0.7,0.4,1.4,0.4,2.2c0,0.1-0.5,0.5-0.8,0.5
		c-1.1,0.1-2.1-0.7-2.4-1.9C7.9,18.9,7.9,18.9,9,18.9z"/>
	<path d="M15.8,18.1c-0.4-0.1-0.7-0.2-1-0.3c0,0,0-0.3,0-0.3c0.3-0.1,0.7-0.2,1-0.2c0.2,0,0.3,0.3,0.5,0.4
		C16.1,17.8,16,18,15.8,18.1z"/>
	<path d="M54,18.8c-0.1,0-0.3,0.1-0.5,0.1c-0.1,0-0.2-0.2-0.3-0.2c0.1-0.1,0.1-0.2,0.2-0.2c0.3,0,0.6-0.1,0.9,0
		c0.2,0,0.3,0.2,0.5,0.3c-0.2,0.1-0.4,0.1-0.6,0.2C54.2,18.8,54.1,18.8,54,18.8z"/>
	<path d="M26,20.5c0,0,0.3,0.1,0.7,0.1c-0.4,0.1-0.7,0.1-1.1,0.2c-0.2,0-0.4,0-0.5,0c-0.1,0-0.3-0.1-0.4-0.2c0.1,0,0.2-0.1,0.3-0.1
		C25.2,20.5,25.4,20.5,26,20.5z"/>
	<path d="M17.5,14.6c0.1,0.2,0.3,0.4,0.3,0.5c-0.2,0.1-0.4,0.3-0.6,0.4c0,0-0.3-0.3-0.2-0.3C17.1,14.9,17.2,14.8,17.5,14.6z"/>
	<path d="M18.6,17.9C18.3,18,18,18.2,18,18.1c-0.1-0.2-0.2-0.4-0.3-0.7c0.2,0,0.3-0.1,0.4-0.1C18.3,17.5,18.4,17.7,18.6,17.9z"/>
	<path d="M24.6,17.4c0.2,0.3,0.3,0.4,0.4,0.6c0,0.1-0.2,0.3-0.3,0.3c-0.2,0-0.3-0.2-0.5-0.3C24.3,17.8,24.4,17.7,24.6,17.4z"/>
	<path d="M33.6,18c-0.3,0.3-0.4,0.4-0.5,0.6c-0.1-0.1-0.3-0.3-0.4-0.5c0-0.1,0.2-0.4,0.2-0.4C33.1,17.8,33.3,17.9,33.6,18z"/>
	<path d="M38.3,18.4c-0.4,0.1-0.7,0.3-0.8,0.3c-0.2,0-0.3-0.3-0.4-0.5c0.1-0.1,0.3-0.2,0.4-0.2C37.7,18,37.9,18.1,38.3,18.4z"/>
	<path d="M17.4,21.3c-0.2-0.2-0.4-0.3-0.5-0.4c0,0,0.2-0.4,0.2-0.3c0.2,0.1,0.4,0.2,0.6,0.4C17.7,21,17.6,21.1,17.4,21.3z"/>
</g>
</svg>
