<?xml version="1.0" encoding="iso-8859-1"?>
<!-- Generator: Adobe Illustrator 25.3.0, SVG Export Plug-In . SVG Version: 6.00 Build 0)  -->
<svg version="1.1" id="Calque_1" xmlns="http://www.w3.org/2000/svg" xmlns:xlink="http://www.w3.org/1999/xlink" x="0px" y="0px"
	 viewBox="0 0 85.7 15.7" style="enable-background:new 0 0 85.7 15.7;" xml:space="preserve">
<g>
	<path d="M22,15c1.4-0.1,2.9-0.1,4.3-0.2c0.1,0,0.3,0.1,0.4,0.2c-0.1,0.1-0.2,0.3-0.3,0.4c-0.5,0.1-1,0-1.4,0.1
		c-0.6,0-1.3,0.1-1.9,0.2c-0.2,0-0.5,0.1-0.7,0.1c-4.7-0.4-9.4-0.5-13.8-2.5c-1-0.4-2.2-0.5-3.3-0.6c-0.5-0.1-1,0-1.4,0
		c-0.7,0-1.3-0.3-1.4-0.9c-0.1-0.4,0.2-1,0.5-1.4C3.7,9.1,3.7,9,3,7.9C2.3,6.6,1.4,5.4,0.8,4C0.3,3,0.2,1.8,0,0.6
		C0,0.4,0.2,0.2,0.3,0c0.2,0.2,0.4,0.4,0.5,0.6c0.1,0.1,0,0.3,0,0.3C0.9,1,1,1.1,1.2,1.2C1.2,1.1,1.4,1.1,1.4,1
		c0.1-0.2,0-0.5,0.1-0.7c0-0.1,0.3-0.2,0.4-0.3C1.9,0.1,2,0.3,2,0.4c0,0.2,0,0.5,0,0.7c0.2-0.2,0.3-0.4,0.5-0.6
		c0.1-0.1,0.2-0.1,0.3-0.1c0.1,0.1,0.1,0.2,0.1,0.3c0,0.1-0.1,0.2-0.1,0.3c-0.3,0.4,0,0.7,0.3,0.8c0.4,0.2,0.4-0.2,0.5-0.5
		C3.7,1.3,4,1.2,4.1,1.1c0,0.2,0.1,0.4,0.1,0.6c0,0.4,0.2,0.4,0.4,0.1c0.2-0.2,0.5-0.6,0.5,0c0,1.5,0.4,0.1,0.7,0.1
		c0.1,0,0.4,0.2,0.4,0.3C5.8,3,5.7,3.5,6.7,2.7c0.5-0.3,0.7-0.2,0.5,0.4C7,3.4,6.9,3.6,7.3,3.8c0.8,0.4,1.2,1,0.8,2
		C7.8,6.4,8.1,7,8.9,7.1c0.5,0.1,1,0.2,1.6,0.3c0.4,0,0.7,0,1.1,0C17,7.5,22.3,7.6,27.7,7.8c3,0.1,6,0.2,9,0.3
		c3,0.1,5.9,0.4,8.9,0.7c1.8,0.1,3.7,0.2,5.5,0.4c1.6,0.2,3.2,0.4,4.8,0.6c0.2,0,0.4,0.1,0.5,0.1c2.6,0.1,5.1,0.3,7.7,0.3
		c2.5,0,5,0.2,7.5,0.7c0.3,0.1,0.7,0,1.1,0c2.2,0,4.4,0.3,6.6,0.7c1.9,0.3,3.9,0.5,5.8,0.8c0.2,0,0.4,0.2,0.6,0.3
		c-0.2,0.1-0.4,0.4-0.6,0.4c-0.3,0-0.7-0.1-1.1-0.1c-0.5-0.1-1.1-0.2-1.6-0.1c-1.8,0.1-3.6,0.2-5.4,0.3c-3.1,0.1-6.2,0-9.3,0.4
		c-7,0.9-14,0.6-21,0.6c-0.9,0-1.8-0.4-2.6-0.2c-1.6,0.4-3.2,0.4-4.8,0.2c-4.8-0.4-9.7,0-14.5-0.4c-2.9-0.2-5.9-0.2-8.8-0.3
		c-1.4-0.1-2.8-0.2-4.3-0.3c-0.2,0-0.4,0.1-0.6,0.1c0.2,0.1,0.4,0.3,0.6,0.4c1.1,0.3,2.3,0.7,3.5,0.8C17.4,14.8,19.7,14.9,22,15
		C21.9,15,22,15,22,15z"/>
	<path d="M38.8,12.8c-1.2,0-2.4,0-3.6,0c-0.3,0-0.5-0.1-0.8-0.2c0.2-0.1,0.4-0.2,0.7-0.2c2.6,0,5.1,0,7.7,0c0.2,0,0.3,0.1,0.5,0.1
		c-0.2,0.1-0.4,0.2-0.6,0.2C41.5,12.8,40.1,12.8,38.8,12.8C38.8,12.8,38.8,12.8,38.8,12.8z"/>
	<path d="M14.4,10.7c2.5,0.1,4.9,0.2,7.4,0.4c0.2,0,0.4,0.2,0.5,0.3l0,0c-2.5-0.1-4.9-0.2-7.4-0.4C14.8,11,14.6,10.8,14.4,10.7
		L14.4,10.7z"/>
	<path d="M28.8,12.1c1.5,0,3,0,4.4,0c0.1,0,0.2,0.1,0.3,0.2c-0.1,0-0.2,0.1-0.3,0.1c-1.4,0-2.7,0-4.1,0C29.1,12.4,29,12.2,28.8,12.1
		C28.8,12.1,28.8,12.1,28.8,12.1z"/>
	<path d="M26,11.7c-0.9,0-1.8,0-2.7,0c-0.3,0-0.6-0.2-0.9-0.4c0,0,0,0,0,0c1,0,1.9,0,2.9,0C25.5,11.4,25.7,11.6,26,11.7L26,11.7z"/>
	<path d="M26,11.7c0.7,0,1.4,0,2.1,0c0.3,0,0.5,0.2,0.7,0.4l0,0c-0.7,0-1.4,0-2.1,0C26.4,12.1,26.2,11.9,26,11.7L26,11.7z"/>
</g>
</svg>
