<?xml version="1.0" encoding="iso-8859-1"?>
<!-- Generator: Adobe Illustrator 25.3.0, SVG Export Plug-In . SVG Version: 6.00 Build 0)  -->
<svg version="1.1" id="Calque_1" xmlns="http://www.w3.org/2000/svg" xmlns:xlink="http://www.w3.org/1999/xlink" x="0px" y="0px"
	 viewBox="0 0 85.7 9.6" style="enable-background:new 0 0 85.7 9.6;" xml:space="preserve">
<g>
	<path d="M25.1,0c2.1,0.2,3.8,0.3,5.6,0.5c0.2,0,0.4,0,0.5,0c2.9-0.7,5.9-0.3,8.8-0.3c2.7,0,5.3,0.4,8,0.6c0.1,0,0.1,0,0.2,0
		c2.3,0.1,4.6,0.3,7,0.4c2.8,0.1,5.6,0.2,8.4,0.4C66,1.8,68.6,2,71.1,2.3c1.9,0.2,3.8,0.7,5.8,1c1.2,0.2,2.5,0.3,3.7,0.4
		c1.4,0.1,2.7,0.2,4.1,0.4c0.2,0,0.4,0.1,0.5,0.2c0.2,0.1,0.3,0.3,0.5,0.5c-0.2,0.2-0.4,0.5-0.6,0.5c-1.8,0.2-3.7,0.3-5.5,0.4
		c-3,0.1-6,0.1-8.9,0.4c-2.5,0.3-5,0.2-7.5,0.3c-1.8,0.1-3.7,0.4-5.5,0.6c-2.4,0.2-4.8,0.4-7.1,0.4c-2.4,0.1-4.8,0-7.1,0.7
		c-0.5,0.2-1.2,0-1.8,0.1C40,8.2,38.5,8.4,37,8.5c-0.7,0.1-1.4,0.3-2.1,0.3c-1.8,0-3.6,0-5.3,0.6c-0.4,0.2-0.9,0.1-1.4,0.1
		c-3.3,0-6.6,0.1-9.9,0C14.9,9.4,11.6,9,8.5,7.7C7.4,7.3,6.3,7.1,5.2,7C3.7,7,2.3,6.8,0.9,6.7C0.3,6.6-0.1,6.3,0,5.8
		c0-0.2,0.4-0.5,0.7-0.6C1.1,5,1.5,4.9,1.9,4.8c2-0.5,4-1,5.9-2c2.3-1.2,4.9-1.8,7.5-1.9C18.7,0.6,22,0.3,25.1,0z"/>
</g>
</svg>
