<?xml version="1.0" encoding="iso-8859-1"?>
<!-- Generator: Adobe Illustrator 25.3.0, SVG Export Plug-In . SVG Version: 6.00 Build 0)  -->
<svg version="1.1" id="Calque_1" xmlns="http://www.w3.org/2000/svg" xmlns:xlink="http://www.w3.org/1999/xlink" x="0px" y="0px"
	 viewBox="0 0 88.2 46.3" style="enable-background:new 0 0 88.2 46.3;" xml:space="preserve">
<g>
	<path d="M71.1,16.4c0.2,0.6,0.4,1.2,0.5,1.8c0.1,0.8-0.1,1.7-0.7,2.4c-0.2,0.2-0.5,0.3-0.6,0.6c-0.1,0.2,0,0.6,0,0.8
		c0.3,0,0.6,0,0.8-0.1c1.5-0.8,3.1-1.4,4.7-1.9c0.8-0.3,1.6-0.5,2.4-0.9c1.2-0.6,2.5-0.4,3.7-0.4c0.2,0,0.5,0,0.5,0.1
		c0.5,0.9,1.4,0.4,2.1,0.6c0.4,0.1,1.2-0.2,0.9,0.8c0,0.1,0.1,0.2,0.2,0.3c0.7,0.2,1.3,0.4,1,1.3c0.8,0.3,0.8,0.9,0.6,1.6
		C88,24,87.3,25.2,88,26c0.1,0.1-0.1,0.5-0.1,0.8c0,0.4,0.1,0.8,0.1,1.2c0,0.2,0.2,0.5,0.1,0.5c-1,0.8-0.9,2.1-0.9,3.1
		c0,0.9-0.6,1.4-0.9,2c-0.4,0.8-1.1,0.6-1.8,0.6c-0.6,0-1.3,0.1-1.7,0.5c-0.7,0.6-1.4,0.4-2.2,0.2c-2.8-0.9-5.6-1.7-8.3-2.7
		c-1.7-0.6-3.4-0.5-5.1-0.5c-0.2,0-0.4,0.2-0.6,0.3c0.1,0.2,0.2,0.4,0.4,0.6c0.1,0.1,0.3,0.1,0.5,0.1c0.2,0.1,0.6,0,0.7,0.2
		c0.6,0.8,1,1.7,1.8,2.3c-0.3,0.5,0,0.7,0.4,0.9c0.3,0.1,0.6,0.7,0.5,1c-0.2,0.6,0,1,0.4,1.4c0.3,0.4,0.1,0.6-0.3,0.8
		c-0.6,0.1-1.3,0.1-1.5,0.9c0,0.2-0.6,0.4-0.8,0.3c-1-0.3-1.9-0.2-2.8,0.3c-0.1,0-0.1,0.1-0.2,0.1c-0.6-0.1-1.1-0.4-1.6-0.3
		c-0.6,0.1-1.1,0.4-1.7,0.1c-0.2-0.1-0.5-0.1-0.6-0.2c-1.6-1.2-3.2-2.4-4.9-3.5c-0.7-0.4-1.5-0.6-2.3-0.7c-2.2-0.3-4.2,0.4-6.3,0.8
		c-0.7,0.1-1.4,0.2-2.1,0.3c-0.2,0-0.3,0.1-0.5,0.2c0.6,0.7,0.1,1.4,0.1,2.1c0,0.1,0.3,0.3,0.6,0.4c1,0.3,2.1,0.6,3.1,0.6
		c1,0,1.6,0.4,1.8,1.1c0.6,1.6,1.7,2.5,3.3,3c0.2,0.1,0.5,0.2,0.7,0.3c0.2,0.1,0.2,0.3,0.4,0.5c-0.2,0.1-0.4,0.2-0.6,0.3
		c-1,0-1.9,0-2.9,0c-0.4,0-1-0.1-1.2,0.1c-1.5,1.3-2.8,0.2-4.1-0.3c-2.5-1-4.9-2.2-7.4-3.3c-0.9-0.4-1.6-0.8-2.7-0.6
		c-0.5,0.1-1.2-0.3-1.9-0.5c-0.3-0.1-0.6-0.2-0.7,0.2c-0.2,0.8-0.6,0.7-1.2,0.5c-0.6-0.3-1.4-0.2-1.9-0.7c-0.4-0.3-0.8-0.2-0.7,0.4
		c0,0.1-0.5,0.3-0.7,0.2c-2.6-1.2-5.1-2.6-6.9-5c-0.8-1.1-1.9-1.9-3.5-1.3c-1,0.4-2.1,0-3.1,0.6c-0.2,0.1-0.8,0-1-0.3
		C14,34.4,12.4,35,11,35c-0.5,0-1.1,0.2-1.6,0.2c-1.8,0-3.5-0.1-5.3,0c-0.8,0-1.7-0.2-2.4-0.5c-0.6-0.2-0.9-0.8-0.4-1.3
		c0.7-0.8,0.4-1.3-0.3-1.9c-0.8-0.6-1.2-1.4-0.7-2.5c0.3-0.6,0.3-1.3,1.2-0.6c0.1,0.1,0.5,0,0.6-0.1c2.1-1.4,4.2-2.7,5.4-5
		c0.3-0.5,0.5-0.7,1.1-0.4c0.6,0.2,0.9-0.1,1.1-0.8c0.6-1.9,1.2-3.7,2.8-5.1c0.3-0.2,0.3-0.7,0.6-1c0.4-0.4,0.8-0.8,1.2-1.1
		c0.4-0.3,1.1-0.4,1.3-0.8c0.9-1.5,2.4-2.3,3.6-3.2c0.7-0.5,1.7-0.6,2.6-0.9c1.8-0.7,3.5-1.5,5.3-2.2c0.7-0.3,1.5-0.3,2.2-0.6
		C31,6.6,32.6,6,34.3,5.3C36.5,5.7,38,3.9,40,3.6c0.3,0,0.5-0.3,0.7-0.5c0.7-0.6,1.2-1.5,2.3-1.7c0.2,0,0.4-0.3,0.5-0.5
		c0.4-0.7,0.8-1,1.6-0.6c0.2,0.1,0.5,0.1,0.7,0c0.5-0.3,1-0.6,1.6-0.1c0.1,0.1,0.2,0.1,0.3,0c0.6-0.1,1.4-0.9,1.8,0.3
		c0.7,0.1,1.2,0.6,1.7,1.1c1.1,1.2,2,2.9,2.2,4.4c0,0.3,0.1,0.7,0.3,1c0.3,0.8,0.3,0.8,1.1,0.5c1.7-0.7,3.4-1.3,5.1-2
		c0.4-0.2,0.6-0.1,1,0.1c0.3,0.3,0.7,0.5,1.1,0.6c2.2,0.1,3.9,1.1,5.1,3c0.1,0.1,0.1,0.2,0.2,0.3c2,1.3,2.9,3.4,4,5.3
		c0.2,0.3,0.2,0.8,0.2,1.3C71.3,16.4,71.2,16.4,71.1,16.4z"/>
	<path d="M14.3,23.8c-0.5,0.3-1.5,0.3-1.1,1.4c-0.1,0-0.4,0.1-0.4,0.1c-0.4-0.5-0.8-0.9-1.2-1.4c0,0,0-0.2,0.1-0.3
		c0.1-0.1,0.3-0.1,0.3,0c0.4,0.6,0.8,0.5,1.3,0c0.3-0.3,0.7-0.4,1-0.6C14.3,23.2,14.3,23.5,14.3,23.8z"/>
	<path d="M24.8,33.3c0.2,0.1,0.5,0.3,0.5,0.4c-0.1,0.4-0.2,0.8-0.4,1.1c-0.1,0.2-0.4,0.4-0.7,0.5c0-0.3,0-0.5,0.1-0.8
		c0-0.3,0.1-0.6,0.1-0.9C24.6,33.6,24.7,33.5,24.8,33.3z"/>
	<path d="M38.5,25.5c-0.8-0.4-1-0.6-0.4-1c0.9-0.6,1.8-1.2,2.7-1.7c0.1-0.1,0.3-0.2,0.4-0.3c-0.2,0-0.4,0-0.5-0.1
		c-0.6-0.2-1.1-0.4-1.6-0.6c-0.1,0-0.1-0.4,0-0.6c0-0.1,0.4-0.1,0.4-0.1c1,0.8,2,0.5,3,0c0.2-0.1,0.4,0,0.6,0.1c0,0.2,0,0.3-0.1,0.5
		c-0.5,1.3-1.9,1.8-2.9,2.6C39.5,24.6,39,25.1,38.5,25.5L38.5,25.5z"/>
	<path d="M63.7,24.8c-1.3-0.1-2.3-0.6-2.9-1.7c-1.2-2.1-2.9-3.6-4.6-5.2c-0.5-0.5-1.1-0.9-1.6-1.4c-0.1-0.1-0.1-0.3-0.1-0.5
		c0.2,0,0.4-0.1,0.5,0c2,1.6,4.1,3.3,5.6,5.4c0.3,0.4,0.5,0.8,0.8,1.2c0.5,0.9,1.3,1.4,2.4,1.3c0.2,0,0.5,0.2,0.7,0.3
		C64,24.6,63.8,24.7,63.7,24.8z"/>
	<path d="M44.6,12.9c-0.1-0.1-0.2-0.1-0.3-0.2c0-0.1,0-0.3,0-0.3c0.5-0.4,0.9-0.7,1.4-1c0.5-0.3,0.8-0.5,0.2-1.1
		c-0.1-0.1-0.1-0.3-0.1-0.4c0.1,0,0.3,0,0.3,0c0.5,0.5,1.1,0.7,1.6-0.1c0.1-0.1,0.4,0,0.5,0c0.1,0,0.1,0.3,0,0.4
		c-0.5,0.5-1,1-1.5,1.4C46.1,12.2,45.3,12.6,44.6,12.9z"/>
	<path d="M53.6,15.4c0,0.1-0.1,0.2-0.1,0.2c-0.1,0-0.2,0.1-0.3,0c-1.7-1.2-3.5-2.5-5.2-3.7c-0.1-0.1-0.1-0.3-0.1-0.5
		c0.1,0,0.2-0.1,0.3,0c1.6,1.1,3.1,2.1,4.7,3.2C53.2,14.9,53.4,15.2,53.6,15.4z"/>
	<path d="M29.8,22.3c-0.1,0.1-0.1,0.2-0.2,0.3c-0.1,0-0.2,0-0.3-0.1c-1.2-1.2-2.3-2.4-3.4-3.6c-0.2-0.2-0.3-0.4-0.3-0.6
		c0-0.1,0-0.2,0.1-0.3c0,0,0.2,0,0.3,0c1.3,1.3,2.5,2.7,3.8,4C29.7,22.1,29.7,22.2,29.8,22.3z"/>
	<path d="M40.8,4.9c0,1,0.1,1.7,0,2.3c0,0.3-0.3,0.7-0.5,0.9c-0.2,0.2-0.6,0.3-0.9,0.4c0-0.3,0-0.7,0.2-0.9C40.2,6.9,40,6,40.3,5.2
		c0-0.1,0.2-0.3,0.4-0.3C40.8,4.9,41,5,40.8,4.9z"/>
	<path d="M29.2,29.8c0.6,0.4,1.3,0.8,1.9,1.2c0.2,0.2,0.5,0.6,0.5,0.6c-0.3,0.4-0.6,0.7-0.9,1c0,0-0.2-0.2-0.2-0.2
		c0.6-1.1-0.6-1.2-1-1.8C29.3,30.4,29.2,30.1,29.2,29.8L29.2,29.8z"/>
	<path d="M19.4,30.5c0.1-0.1,0.2-0.2,0.2-0.2c1.1,0,2.1-0.3,2.9-1c0.1-0.1,0.3,0.1,0.4,0.1c0,0.1,0,0.2-0.1,0.3
		C22.1,30.8,20.8,31.1,19.4,30.5L19.4,30.5z"/>
	<path d="M42.8,11.5c-0.1-0.1-0.2-0.2-0.2-0.3c0-0.2,0.1-0.4,0.2-0.5c0.8-0.7,1.6-1.3,2.5-1.9c0.1,0,0.2,0,0.3,0.1
		c0,0,0,0.2-0.1,0.3c-0.8,0.8-1.6,1.5-2.4,2.3C42.9,11.4,42.9,11.5,42.8,11.5z"/>
	<path d="M31.7,9.2c-0.1,0.2-0.2,0.4-0.3,0.4c-1-0.5-1.5,0.3-2.1,0.8c-0.1,0-0.2,0-0.3-0.1c-0.1-0.1,0-0.2,0-0.3
		c0.4-0.7,1.1-1.2,2-1.3C31.2,8.7,31.5,9,31.7,9.2z"/>
	<path d="M32.4,22.6c-0.1,0.3-0.2,0.4-0.2,0.5c-0.1,0-0.2-0.1-0.2-0.1c-0.4-1.1-0.7-0.6-1.1,0c-0.1,0.1-0.3,0.2-0.4,0.3
		c0-0.2-0.1-0.4-0.1-0.6c0-0.2,0.2-0.5,0.3-0.6c0.3-0.2,0.8-0.4,1.1-0.3C32.1,21.9,32.3,22.4,32.4,22.6z"/>
	<path d="M28.4,14.8c0.1,0.5,0.3,1,0.4,1.5c0,0.1-0.1,0.3-0.1,0.5c-0.1-0.1-0.4-0.1-0.4-0.2c-0.2-0.6-0.4-1.2-0.4-1.8
		c0-0.2,0.3-0.4,0.5-0.6c0.1,0.2,0.2,0.4,0.3,0.6C28.5,14.7,28.4,14.8,28.4,14.8z"/>
	<path d="M26.2,16.9C26.3,16.7,26.3,16.9,26.2,16.9c-0.1,0-0.3,0-0.3-0.1c-0.2-0.6-0.5-1.2-0.6-1.9c-0.1-0.3,0.2-0.6,0.4-0.9
		c0.1,0.3,0.2,0.6,0.2,0.9C26,15.5,26.1,16.1,26.2,16.9z"/>
	<path d="M24.3,22.2c0-0.1-0.2-0.3-0.1-0.4c0.1-0.4,1.5-1.2,2-1.2c0.1,0,0.2,0.1,0.2,0.2c0,0,0.1,0.2,0,0.2
		c-0.6,0.4-1.3,0.8-1.9,1.2C24.5,22.3,24.4,22.2,24.3,22.2z"/>
	<path d="M43.1,13.8c-0.6,0.7-1,1.2-1.4,1.7c-0.1-0.1-0.3-0.3-0.2-0.4c0.3-0.5,0.6-1,1-1.4C42.4,13.6,42.7,13.7,43.1,13.8z"/>
	<path d="M28.7,11.3c0,0.6-0.5,1.4-1.1,1.6c-0.1,0.1-0.3,0-0.5-0.1c0-0.1,0-0.3,0.1-0.4c0.4-0.5,0.7-0.9,1.1-1.3c0,0,0.2,0,0.3,0
		C28.7,11.2,28.7,11.3,28.7,11.3z"/>
	<path d="M28.4,22.5c0,0.3,0,0.5,0,0.5c-0.2,0.3-0.5,0.9-0.6,0.9c-0.7-0.1,0-0.6-0.1-0.9c0-0.1,0-0.3,0-0.3c0.2-0.2,0.4-0.4,0.5-0.6
		C28.3,22.3,28.4,22.5,28.4,22.5z"/>
	<path d="M27.1,27.1c-0.1,0.1-0.1,0.2-0.2,0.3c-0.2,0.1-0.4,0.3-0.6,0.4c-0.3,0.2-0.7,0.3-1,0.5c0.2-0.3,0.4-0.7,0.7-1
		c0.2-0.2,0.5-0.2,0.8-0.3C26.9,27,27,27.1,27.1,27.1z"/>
	<path d="M21.1,22.7c-0.2-0.1-0.3-0.1-0.4-0.2c0,0,0-0.2,0.1-0.2c0.5-0.3,0.9-0.8,1.5-0.4c0.1,0.1,0.3,0.2,0.4,0.2
		c-0.1,0.1-0.3,0.2-0.4,0.2C22,22.5,21.5,22.6,21.1,22.7z"/>
	<path d="M16.8,16.5c0.1,0.2,0.2,0.3,0.2,0.3c-0.3,0.4-0.5,0.7-0.8,1.1c0,0-0.3-0.1-0.3-0.1c0-0.2,0-0.4,0.2-0.6
		C16.3,17,16.6,16.8,16.8,16.5z"/>
	<path d="M20.8,16.6c-0.4,0.2-0.7,0.4-1,0.5c-0.1,0-0.2-0.3-0.4-0.5c0.3-0.1,0.6-0.3,0.9-0.3C20.4,16.2,20.6,16.4,20.8,16.6z"/>
	<path d="M13.1,21.8c0-0.2-0.2-0.3-0.1-0.4c0.2-0.3,0.4-0.7,0.7-1c0.1-0.1,0.3-0.1,0.5-0.1c0,0.1,0,0.3-0.1,0.4
		C13.7,21,13.4,21.4,13.1,21.8z"/>
	<path d="M17.9,18.4c-0.3-0.1-0.4-0.1-0.5-0.2c0-0.1,0-0.2,0-0.3c0,0,0.1-0.1,0.1-0.1c0.4-0.2,0.7-0.3,1.1-0.5c0,0,0.1,0.2,0.1,0.2
		C18.5,17.9,18.2,18.2,17.9,18.4z"/>
	<path d="M23.2,29.1c0.4-0.3,0.7-0.5,1-0.6c0.1,0,0.3,0.2,0.4,0.3c-0.3,0.2-0.5,0.4-0.8,0.6C23.7,29.4,23.5,29.3,23.2,29.1z"/>
	<path d="M21.8,25.1c0.3,0.1,0.5,0.2,0.8,0.3c0.1,0,0.1,0.3,0.1,0.4c-0.3-0.1-0.6-0.1-0.9-0.2c-0.1,0-0.3-0.2-0.4-0.3
		C21.5,25.3,21.7,25.2,21.8,25.1z"/>
	<path d="M27,24.6c-0.5,0.2-0.9,0.3-1.3,0.5c0,0-0.1-0.1-0.1-0.1c0-0.1,0-0.3,0.1-0.3c0.3-0.1,0.6-0.3,1-0.4
		C26.7,24.3,26.8,24.4,27,24.6z"/>
	<path d="M19.4,30.6c-0.2,0.6-0.6,0.7-1,0.4c-0.1-0.1-0.2-0.3-0.3-0.5c0.2,0,0.3-0.1,0.5-0.1C18.8,30.4,19.1,30.4,19.4,30.6
		L19.4,30.6z"/>
	<path d="M40.3,13c-0.1,0-0.3-0.1-0.5-0.2c0.2-0.1,0.4-0.2,0.6-0.3c0.2-0.1,0.3-0.2,0.5-0.1c0.1,0,0.2,0.2,0.3,0.3
		C41.1,12.9,41,13,40.9,13C40.8,13,40.6,13,40.3,13z"/>
	<path d="M24.9,25.3c0,0.1-0.1,0.2-0.1,0.2c-0.3,0.1-0.6,0.3-1,0.4c-0.1,0-0.2-0.1-0.3-0.2c0,0,0.1-0.1,0.1-0.1
		c0.4-0.1,0.8-0.3,1.2-0.4C24.8,25.2,24.9,25.3,24.9,25.3z"/>
	<path d="M28.7,25.7c-0.2,0.2-0.4,0.3-0.6,0.5c-0.1-0.1-0.2-0.3-0.2-0.3c0.2-0.2,0.4-0.4,0.7-0.6C28.6,25.4,28.6,25.5,28.7,25.7z"/>
</g>
</svg>
