<?xml version="1.0" encoding="iso-8859-1"?>
<!-- Generator: Adobe Illustrator 25.3.0, SVG Export Plug-In . SVG Version: 6.00 Build 0)  -->
<svg version="1.1" id="Calque_1" xmlns="http://www.w3.org/2000/svg" xmlns:xlink="http://www.w3.org/1999/xlink" x="0px" y="0px"
	 viewBox="0 0 82.4 19.8" style="enable-background:new 0 0 82.4 19.8;" xml:space="preserve">
<g>
	<path d="M24,7.6c0.8-1.2,1.4-2.5,2.3-3.5c1.2-1.4,2.6-2.6,3.9-3.9C30.3,0,30.6,0,30.8,0c0,0.2,0,0.4-0.1,0.5c-0.3,0.4-0.7,0.7-1,1
		c-0.1,0.1-0.1,0.3-0.1,0.4c0.1-0.1,0.3-0.1,0.4-0.2c0.1-0.1,0.3-0.3,0.4-0.3c0.3-0.1,0.7-0.2,1-0.2c0,0.3,0.1,0.7,0.1,1
		c0,1.4-0.1,2.7-0.1,4.1c0,0.3,0.4,0.7,0.7,0.9c0.7,0.5,1.6,0.4,2.4,0.2c1-0.3,2.1-0.5,3-1c1.9-0.9,3.7-0.4,5.6,0
		c4.5,1,8.7,2.7,13,4.4c0.3,0.1,0.7,0.4,1,0.3c2.1-0.1,4.2,0.1,6.3-0.2c1.8-0.3,3.7-0.2,5.6,0c2.9,0.3,5.7,1.2,8.4,2.2
		c1,0.4,2.1,0.5,3.1,0.8c0.4,0.1,0.9,0.3,1.3,0.6c1.1,0.9,1.1,1.9-0.1,2.8c-1.8,1.3-3.8,1.6-5.9,1.4c-0.9-0.1-1.8-0.1-2.6-0.2
		c-0.2,0-0.3-0.2-0.5-0.3c0.1-0.1,0.3-0.2,0.4-0.2c1.4,0,2.8,0,4.1-0.1c0.9-0.1,1.9-0.3,2.8-0.5c0.5-0.1,0.9-0.4,1.3-0.7
		c0.6-0.4,0.6-1,0-1.4c-0.5-0.3-1.2-0.6-1.8-0.8c-0.6-0.2-1.3-0.3-1.9-0.4c-2.4-0.4-4.8,0-7.2,0.5c-1.9,0.4-3.7,1-5.6,1.2
		c-2.1,0.2-4.3,0.4-6.4-0.3c-2.4-0.8-4.8-0.8-7.2-0.4c-0.8,0.1-1.6,0.1-2.3,0.1c-1.2,0.1-2.4,0.2-3.6,0.4c-0.1,0-0.2,0.1-0.3,0.1
		c0.1,0.1,0.2,0.1,0.3,0.2c0.4,0.2,0.8,0.3,1.1,0.6c0.4,0.4,0.9,0.8,1.1,1.3c0.4,1-0.2,1.9-1.3,2c-1.6,0.1-3.2-0.3-4.2-1.5
		c-1.1-1.3-2.2-1.6-3.7-0.8c-0.3,0.2-0.7,0.3-1,0.3c-2,0.1-3.8,0.8-5.6,1.5c-1.6,0.6-3.2,0.1-4.6-0.8c-1.3-0.9-2.7-0.9-4.2-0.8
		c-1.6,0.1-3.3,0.3-4.8,0c-1.2-0.2-2.5-0.7-3.4-1.8c-1.1-1.4-2.6-1.7-4.3-1.7c-2.7-0.1-5.3-0.4-8-0.6c-0.6,0-1.2,0-1.8-0.1
		c-0.1,0-0.2-0.1-0.2-0.2c0-0.1,0.1-0.2,0.2-0.3c0.2-0.1,0.4-0.2,0.7-0.2c2.4-0.3,4.7-0.5,7.1-0.8c1.3-0.1,2.6-0.2,3.9-0.4
		c0.6-0.1,1.3-0.4,1.8-0.7c2.5-1.5,5.2-2.6,8.2-2.9C22.5,7.6,23.2,7.6,24,7.6c0.3,1.3-0.6,1.4-1.4,1.6c-1.3,0.3-2.6,0.4-3.6,1.4
		c-0.3,0.4-0.7,0.6-1,0.9c-0.3,0.5-0.2,1.1-0.8,1.4c-0.1,0-0.1,0.1-0.2,0c-1.5-1.1-3-0.5-4.6-0.4c-1.6,0.1-3.3,0.5-4.9,0.4
		c-0.2,0,0-0.1-0.2,0c0.1,0,0.1,0,0.2,0c1.4,0,2.8-0.1,4.2-0.3c1.1-0.2,1.9,0.6,2.7,1.2c0.9,0.8,1.8,1.4,3,1.1
		c0.5-0.1,0.9,0.2,1.4,0.4c1.3,0.6,2.7,0.9,4.2,0.4c0.2,0,0.3-0.1,0.5-0.1c1.3,0.2,2.4,0.7,3.5,1.2c3,1.5,4.9,1.2,7.3-1.1
		c1.5-1.5,2.9-3.2,4.1-5c0.3-0.4,0.7-0.9,0.3-1.5c-0.4-0.6-1.1-0.5-1.6-0.4c-2.7,0.7-5.4,1.5-7.8,3c-1.1,0.7-2.2,1.4-3.3,2.2
		c-0.5,0.4-1.1,0.7-1.6,0.1C24,13.7,24,13,24.5,12.6c1.7-1.4,3.2-3,5.4-3.7c0.2-0.1,0.4-0.1,0.6-0.1c-0.2,0-0.4,0-0.5,0
		c-1,0-1.9,0.1-2.9,0c-0.7-0.1-1.4-0.2-1.3-1.1c0.7-0.7,1.4-1.2,2.5-1c0.5,0.1,1.1,0,1.3-0.7c0.1-0.4,0.2-0.9,0-1.2
		c-0.5-0.5-0.7,0.2-1,0.4c-0.8,0.9-1.7,1.6-2.7,2.4C25.2,8,24.6,8.1,24,7.6z"/>
	<path d="M18.9,12.6c-0.6,0.6-1.2,0.5-1.8,0.1c0.1-0.6-0.6-1.3,0.1-2C19,10.8,19.1,10.8,18.9,12.6z"/>
	<path d="M18.9,12.6c0-0.1,0-0.3,0-0.3c0.5-0.7,0.3-1.3-0.4-1.8c0.5-0.1,1-0.1,1,0.5C19.6,11.6,20.1,12.4,18.9,12.6z"/>
	<path d="M23.2,16.2c-0.6-0.7-0.4-1.4,0.1-2c0.1-0.2,0.4-0.2,0.6-0.4c0,0.2,0,0.4,0,0.6c-0.1,0.6-0.3,1.1-0.5,1.7
		C23.3,16.1,23.2,16.2,23.2,16.2z"/>
	<path d="M63.9,12.9c-2.5-0.1-5.1-0.2-7.6-0.4c-0.1,0-0.2-0.1-0.4-0.2c0.1,0,0.2-0.1,0.3-0.1c2.5,0,5-0.2,7.4,0.4
		C63.8,12.7,63.8,12.8,63.9,12.9L63.9,12.9z"/>
	<path d="M51.5,12.2c-0.7,0-1.3,0-2,0c-0.2,0-0.3-0.1-0.5-0.1c0.1-0.1,0.3-0.2,0.4-0.2c1.4,0,2.7,0,4.1,0c0.1,0,0.3,0.1,0.4,0.2
		c-0.2,0-0.3,0.1-0.5,0.1C52.8,12.2,52.1,12.2,51.5,12.2z"/>
	<path d="M46.9,11.8c-0.4,0-0.8,0-1.2,0c-0.1,0-0.2-0.1-0.3-0.2c0.1-0.1,0.2-0.1,0.3-0.1c0.4,0,0.8,0,1.2,0c0.4,0,0.8,0.1,1.2,0.1
		c-0.4,0.1-0.8,0.2-1.2,0.3C46.9,11.9,46.9,11.9,46.9,11.8z"/>
	<path d="M43.5,11.5c-0.5,0-0.7,0-0.8,0c-0.2,0-0.3-0.1-0.5-0.2c0.2-0.1,0.3-0.1,0.5-0.2c0.2,0,0.4,0,0.5,0c0.4,0.1,0.7,0.2,1,0.2
		C43.9,11.4,43.5,11.5,43.5,11.5z"/>
</g>
</svg>
