<?xml version="1.0" encoding="iso-8859-1"?>
<!-- Generator: Adobe Illustrator 25.3.0, SVG Export Plug-In . SVG Version: 6.00 Build 0)  -->
<svg version="1.1" id="Calque_1" xmlns="http://www.w3.org/2000/svg" xmlns:xlink="http://www.w3.org/1999/xlink" x="0px" y="0px"
	 viewBox="0 0 229.4 165.5" style="enable-background:new 0 0 229.4 165.5;" xml:space="preserve">
<g>
	<path d="M151.5,161.1c11.4,1,21-2.7,29.7-8.9c2.8-2,5.3-4.6,7.6-7.2c3.7-4,7.3-8.2,10.7-12.5c3.7-4.7,7.2-9.5,10.8-14.3
		c2.6-3.4,5.1-6.9,7.7-10.4c0.3-0.4,0.5-1,0.9-1.2c0.5-0.3,1.2-0.2,1.8-0.3c0,0.4,0.2,1,0,1.3c-1.6,2.9-3.1,5.9-5,8.6
		c-3.9,5.6-7.9,11.1-12,16.5c-6.4,8.5-13.6,16.3-21.6,23.2c-5.4,4.6-12.1,6.7-18.9,8.3c-5.4,1.2-10.9,1.4-16.3,0.8
		c-7.6-0.8-15.1-2.6-21.2-7.5c-2.2-1.7-3.8-4.2-5.5-6.4c-0.8-1-0.9-1.2-2.3-0.5c-1.4,0.7-1.9-1.5-2.1-2.6c-0.5-3.1-0.6-6.2-1.2-9.3
		c-0.9-5.4-2-10.7-3.1-16c-0.1-0.3-0.3-0.5-0.4-0.8c-0.1,0.3-0.3,0.6-0.3,0.9c-0.1,1.8-0.3,3.6-0.2,5.3c0.1,4.2-1.8,5.7-5.9,4.3
		c-3.4-1.2-6.7-2.7-10.1-4.1c-1.7-0.7-2.7-2.2-2.4-3.9c0.3-1.5-0.3-2.1-1.3-2.9c-5.3-4.3-10.4-8.7-15.8-12.9c-2.5-1.9-5.3-3.4-8-5
		C54.5,96.4,40.9,92,27.2,87.8c-6.8-2.1-13.9-3.1-21.1-2.5c-2.1,0.2-4.7,0.5-5.8-1.8c-1.1-2.3,0.9-4,2.1-5.7
		C8,69.5,16.1,64,24.7,59.1C37.9,51.5,51.2,44,64.6,36.6c6.8-3.8,13.8-7.2,20.7-10.8c1.2-0.6,2.4-1.2,3.5-1.9
		c2.4-1.5,3.6-3.5,3.7-6.6c0.1-4.5,1-8.9,4.1-12.5c3.6-4.2,7.9-6.3,13.7-3.7c3.7,1.6,7.5,1.8,11.1,0c4.3-2.2,8.1-0.9,11,1.9
		c3,2.8,5.2,6.5,5.2,11c0,1,0,2,0.1,3c0.3,3.7,1.8,6.3,5.4,8.1c11.9,6,23.6,12.2,34.8,19.5c7.1,4.6,14.8,8.3,22,12.7
		c6.2,3.8,12.3,7.9,18.2,12.2c4.6,3.4,8,7.9,10.7,13c1.6,3.2,0.7,4.7-2.8,4.9c-0.7,0-1.3,0-2,0c-8.4-0.8-16.5,0.6-24.5,3
		c-11.6,3.4-23.2,6.9-34,12.5c-7.8,4-14.3,9.6-21.3,14.6c-1.6,1.2-3.2,2.4-4.7,3.6c-1.3,1.1-3.3,1.7-2.3,4.3c0.2,0.6-1,2-1.8,2.6
		c-4.4,2.7-8.8,5.2-14.2,5c-0.4,0-1.1,0.5-1.2,0.9c-0.1,1.3-0.3,2.7,0,4c1.2,5,1.9,10.2,5.5,14.2c1.3,1.5,2.9,2.8,4.6,3.7
		C136.6,159.7,143.8,162.4,151.5,161.1z"/>
</g>
</svg>
