<?xml version="1.0" encoding="iso-8859-1"?>
<!-- Generator: Adobe Illustrator 25.3.0, SVG Export Plug-In . SVG Version: 6.00 Build 0)  -->
<svg version="1.1" id="Calque_1" xmlns="http://www.w3.org/2000/svg" xmlns:xlink="http://www.w3.org/1999/xlink" x="0px" y="0px"
	 viewBox="0 0 234.8 99.1" style="enable-background:new 0 0 234.8 99.1;" xml:space="preserve">
<g>
	<path d="M204.2,45.1c1.2,0,2.3,0,3.5,0c5.6,0,5.6,0,7.6-5.4c1.5-4,2.6-8.3,4.4-12.1c1.5-3.1,3.7-5.9,5.7-8.7
		c0.6-0.9,1.8-1.4,2.9-1.8c2.8-1,4.3,0.4,3.7,3.4c-0.4,1.8-0.9,3.5-1.3,5.3c-0.4,2.3-0.8,4.5-1.1,6.8c-0.4,2.9,0.3,5.1,3.4,6.3
		c2.3,0.9,2.2,1.7,0.2,3.5c-4.7,4.4-9.5,8.2-16.2,9c-1.8,0.2-3.4,2.1-5.3,2.6c-6.9,1.9-13.7,3.8-20.7,5.1c-7,1.3-14.1,2-21.1,3
		c-0.5,0.1-1,0-1.5,0.1c-7.8,0.4-15.6,0.7-23.4,1.1c-0.6,0-1.1,0.3-1.7,0.4c0.6,0.1,1.3,0.3,1.9,0.3c0.7,0.1,1.4-0.1,2,0.1
		c0.7,0.3,1.5,0.7,1.9,1.3c0.2,0.2-0.4,1.2-0.9,1.6c-1.9,1.4-3.8,2.7-5.8,3.9c-2.7,1.6-5.4,3.1-8.3,4.5c-3.6,1.7-6.7,0.8-9.7-1.7
		c-1.9-1.6-3.9-3.1-5.9-4.6c-2.6-1.8-2.1-1.5-3,1.3c-1.6,4.5-3.4,9-5.9,13.1c-3.2,5.3-8,9.3-12.9,13c-4.7,3.6-9.3,3.1-13.8,0.1
		c-4.3-2.8-8.5-5.9-12.4-9.2c-10.4-9-22.2-15.7-34.8-21.1C30.5,64.1,25.2,61.5,20,59c-5.7-2.8-11.4-5.5-16.9-8.5
		c-4.3-2.4-4.2-3.6,0.3-5.6c7.5-3.4,15.2-6.5,22.9-9.8c9.2-3.9,18.4-7.5,27.5-11.7c6.8-3.1,12.8-7.7,18.6-12.4
		c3.8-3.2,8-5.9,12.1-8.7c1.2-0.8,2.6-1.6,4.1-1.9c3.5-0.7,6.7-0.4,9.6,2.5c6.7,6.7,11.7,14.4,16.2,22.6c0.8,1.4,1,3.1,1.4,4.7
		c0.4,1.9,1.1,2.4,2.6,1.5c1.7-1,3.3-2.2,4.9-3.4c0.8-0.6,1.7-1.1,2.5-1.7c3.8-2.9,7.6-3,11.4-0.1c1.2,0.9,2.5,1.7,3.7,2.5
		c3.9,2.5,3.9,2.5,7.6-0.5c1-0.8,1.9-2,3-2.6c1.1-0.5,2.6-0.7,3.7-0.3c1.5,0.4,1.6,2.1,1.4,3.4c-0.5,2.6-1.3,5.1-2,7.7
		c-0.6,2.3-0.3,2.9,1.9,3.3c2.9,0.5,5.9,0.8,8.9,1.1c3.9,0.5,7.9,0.7,11.8,1.5c1.7,0.3,2.3-0.2,3.2-1.3c2.4-3.1,4.9-6.3,7.7-9.1
		c1.3-1.4,3.2-2.4,5-3.2c2.2-1,3.9,0.4,3.5,2.8c-0.1,0.8-0.6,1.6-0.8,2.3c-0.4,1.1-0.8,2.2-1.1,3.3c-1.3,6.8-0.6,7.8,6.3,7.8
		C202.2,45.2,203.2,45.2,204.2,45.1C204.2,45.2,204.2,45.1,204.2,45.1z"/>
	<path d="M79.1,55.5c0.5-1.2,0.7-2.6,1.5-3.1c2.6-1.7,2.4-3.5,1.2-6c-0.9-2-0.2-3.9,1.1-5.6c0.8-1.1,2.7-0.6,2.5,0.6
		c-0.4,2,1.5,2.3,2,3.5c0.2,0.6,1.1,1.3,1,1.5c-0.7,1.1-2.1,1.9-2.2,2.9c-0.1,1,1.5,2.2,1.4,3.3c-0.1,2.3-4.8,5.2-7.4,4.5
		C79.8,57,79.5,56.1,79.1,55.5z"/>
	<path d="M49.3,55.1c-0.1,0,0.6-0.1,1.2,0.1c0.4,0.1,0.6,0.6,0.9,1c-0.4,0.2-0.7,0.6-1.1,0.7c-0.9,0.2-1.9,0.1-2.9,0.3
		c-0.4,0.1-0.7,0.4-1.1,0.6c0.3,0.1,0.6,0.2,0.9,0.2c1,0.1,2,0.1,3,0.2c1.3,0.2,1.7,1.2,1.4,2.2c-0.2,0.7-1.1,1.7-1.8,1.7
		c-1.4,0.1-3.1,0-4.3-0.7c-1.3-0.7-3.1-1.9-2.5-3.8c0.6-1.6,2-2.6,3.9-2.5C47.5,55.1,48,55.1,49.3,55.1z"/>
	<path d="M48.6,42.2c-0.3,0-0.7,0-1,0c-2.4-0.1-4.5-1.4-4.7-2.8c-0.2-1.4,1.6-2.8,4.2-3.4c0.6-0.1,1.3-0.5,1.9-0.4
		c0.9,0.1,1.7,0.4,2.6,0.6c-0.3,1-0.5,2.1-1,3c-0.2,0.4-0.8,0.5-1.3,0.7c-0.4,0.3-0.7,0.6-1.1,0.9c0.5,0.1,0.9,0.2,1.4,0.3
		c0.4,0.1,0.9,0.3,1.3,0.5c-0.5,0.2-0.9,0.5-1.4,0.7C49.3,42.4,48.9,42.3,48.6,42.2C48.6,42.3,48.6,42.3,48.6,42.2z"/>
	<path d="M56.5,56.1c0.5,0.4,1.5,0.9,1.7,1.7c0.4,1.5-1.5,4.5-2.5,4.2c-0.9-0.3-1.8-1.3-2.1-2.2C53.2,58,54.5,56.3,56.5,56.1z"/>
	<path d="M57.8,39.8c-0.4,0.3-1.1,1.4-1.7,1.3c-1.7-0.1-2.7-1.3-2.4-3c0.1-0.7,1-1.7,1.7-1.8C56.7,35.9,57.7,37.4,57.8,39.8z"/>
	<path d="M34.7,51.2c0.8,0,1.6-0.1,2.5,0c1,0.1,2,0.4,3,0.6c-0.7,1.8-1.9,0.4-2.9,0.4c-2.6,0-5.2,0-7.9-0.1c-0.3,0-0.7-0.4-1-0.6
		c0.3-0.1,0.6-0.3,0.9-0.4C31,51.2,32.8,51.2,34.7,51.2C34.7,51.2,34.7,51.2,34.7,51.2z"/>
	<path d="M77.5,56.1c-0.3,0.4-0.4,0.7-0.7,0.8c-0.3,0.1-0.7,0-0.9-0.1c-1.7-1.6-4.6,0.9-5.9-1.8c2.2,0.1,4.3,0.2,6.5,0.4
		C76.9,55.3,77.2,55.8,77.5,56.1z"/>
	<path d="M170.8,49c1,0.1,1.5,0.1,1.9,0.3c0.3,0.1,0.6,0.5,0.6,0.7c-0.1,0.4-0.4,0.9-0.8,1c-0.4,0.2-1,0.3-1.4,0.1
		c-0.7-0.2-1.4-0.6-2-0.9C169.7,49.8,170.4,49.3,170.8,49z"/>
	<path d="M164.8,48.8c0.7,0.5,1.1,0.9,1.6,1.3c-0.6,0.4-1.2,1-1.8,1c-0.5,0.1-1-0.5-1.5-0.8C163.6,49.8,164.1,49.4,164.8,48.8z"/>
	<path d="M70.8,42.4c-0.8,0.4-1.4,0.9-2,1.1c-0.5,0.2-1.1,0-1.7,0c0-0.3,0-0.8,0.1-0.8c0.9-0.4,1.7-0.7,2.6-1
		C70,41.7,70.3,42,70.8,42.4z"/>
	<path d="M64.5,53.1c0.1,0.9-2.4,2.8-3.3,2.4c-0.1,0-0.2-0.2-0.3-0.4c1.1-0.8,2.2-1.6,3.3-2.5C64.3,52.9,64.4,53,64.5,53.1z"/>
</g>
</svg>
