<?xml version="1.0" encoding="iso-8859-1"?>
<!-- Generator: Adobe Illustrator 25.3.0, SVG Export Plug-In . SVG Version: 6.00 Build 0)  -->
<svg version="1.1" id="Calque_1" xmlns="http://www.w3.org/2000/svg" xmlns:xlink="http://www.w3.org/1999/xlink" x="0px" y="0px"
	 viewBox="0 0 84.9 27.6" style="enable-background:new 0 0 84.9 27.6;" xml:space="preserve">
<g>
	<path d="M74.4,18.2c-3.5,0.3-6.4,0.5-9.3,0.7c-2,0.1-4.1,0-6.1,0.1c-4.2,0.1-8.4,0.2-12.5,0.4c-1,0-1.9,0.3-2.7,1.3
		c-0.9,1.1-2.3,1.7-3.7,1.9c-1,0.2-1.8-0.4-2.7-0.7c-0.9-0.4-1-0.4-1.3,0.5c-1.1,2.7-3,4.3-5.8,4.9c-3.3,0.7-6.5,0.5-9.6-1
		c-3.1-1.6-6.2-3.3-9.3-4.9c-2.7-1.4-5.5-2.6-8.5-3.3c-0.6-0.2-1.3-0.4-1.8-0.7c-1.3-0.8-1.4-2.1-0.1-2.9c0.7-0.4,1.4-0.8,2.2-1.1
		c2.5-1.1,4.7-2.6,6.7-4.3c3.1-2.6,6.3-5.1,9.9-6.9c0.7-0.4,1.5-0.6,2.3-1c4-1.7,7.6-0.7,10.8,1.8c1.2,0.9,2.2,2.2,1.8,4
		C34.7,6.9,34.7,7,35.1,7c0.7,0,1.4,0.1,2-0.1c1.6-0.5,3.2-0.2,4.8-0.3c1,0,1.9,0.4,2.6,1c0.9,0.8,1.6,1.7,2.5,2.6
		c0,0,0.1,0.1,0.1,0.1c0.5,0.3-0.7,1.3,0.5,1.3c0.5,0,1,0.2,1.6,0.3c2.2,0.4,4.3,0.7,6.5,1.1c3.1,0.5,6.2,1,9.3,1.5
		c1.3,0.2,2.7,0.4,4,0.8c2.2,0.7,4.5,0.4,6.7,0.2c0.7-0.1,1.4-0.2,2.1,0c0.6,0.2,1.2,0,1.8,0.1c0.7,0.1,1.4,0.3,2,0.7
		c0.9,0.5,1.6,1.2,2.4,1.8c0,0,0.1,0.1,0.2,0.1c0.5,0.4,0.9,0.9,0.8,1.6c-0.1,0.5-1,0.8-1.9,0.6c-1.4-0.3-2.7-0.8-4.1-1.1
		C77.2,18.9,75.6,18.5,74.4,18.2z"/>
	<path d="M46.6,15.1c2.7,0.1,5.4,0.1,8.2,0.2c0.9,0,0.7,0.1,0.5,0.9c-0.4,1.2-1.2,1.5-2.3,1.4c-0.8-0.1-1.7-0.1-2.4-0.4
		c-1.6-0.5-3.3-1.1-4.9-1.6c-0.2-0.1-0.4-0.3-0.6-0.4c0.2-0.1,0.4-0.2,0.6-0.2c0.3,0,0.6,0,0.9,0C46.6,15,46.6,15,46.6,15.1z"/>
	<path d="M14.3,16.4c0.2,0,0.5,0.1,0.7,0.1c0.4,0,0.7,0.1,1.1,0.1c-0.1,0.5-0.1,0.9-0.2,1.4c0,0.1-0.2,0.2-0.3,0.2
		c-0.8,0-1.7,0.1-2.5-0.1c-0.4-0.1-0.9-0.5-1-0.9c-0.1-0.6,0.4-0.9,1.1-0.9C13.6,16.7,14,16.5,14.3,16.4z"/>
	<path d="M12.2,12.5c-0.3-0.3-0.6-0.6-0.9-1c0.4-0.3,0.8-0.7,1.3-0.8c0.7-0.1,1.4-0.1,2.1,0c0.6,0.1,1.2,1.1,1,1.8
		c0,0.1-0.2,0.2-0.3,0.2c-0.1,0-0.2,0-0.3-0.1c-0.1-0.3-0.2-0.6-0.3-0.8c-0.2-0.3-0.4-0.2-0.4,0.1c0,0.5-0.3,0.6-0.7,0.6
		C13.1,12,12.7,12.4,12.2,12.5z"/>
</g>
</svg>
