<?xml version="1.0" encoding="iso-8859-1"?>
<!-- Generator: Adobe Illustrator 25.3.0, SVG Export Plug-In . SVG Version: 6.00 Build 0)  -->
<svg version="1.1" id="Calque_1" xmlns="http://www.w3.org/2000/svg" xmlns:xlink="http://www.w3.org/1999/xlink" x="0px" y="0px"
	 viewBox="0 0 86.5 29.5" style="enable-background:new 0 0 86.5 29.5;" xml:space="preserve">
<g>
	<path d="M27.5,24.6c0.1,1.2,0.2,2,0.2,2.8c0,0.4-0.1,0.9-0.3,1.3c-0.2,0.4-0.6,0.6-1.1,0.3c-0.8-0.5-1.7-1-2.3-1.7
		c-1.9-2-3.3-4.4-4.2-6.9c-0.4-1-1.1-1.4-2.1-1.5c-3.9-0.4-7.7-1.4-11.4-2.7c-1.1-0.4-2.2-0.8-3.4-1.2c-0.7-0.3-1.4-0.5-1.9-0.9
		c-1.4-0.9-1.4-2.5-0.1-3.4C2.1,10.1,3.4,9.6,4.7,9c2.5-1.1,5-2.2,7.5-3.4c3-1.4,6-2.2,9.3-2.1c1.1,0,2.1,0.1,3.2,0.4
		c3.7,0.8,7.4,1.6,11.1,2.5c1.8,0.5,3.4,0.5,4.9-0.7c1-0.8,2-1.5,3-2.3c0.2-0.2,0.5-0.4,0.7-0.5c1.6-1,2.9-0.4,3.4,1.4
		c0.3,1.2,0.7,2.5,1.1,3.7c0.7,2,1.9,3.5,4.2,3.9c1.4,0.3,2.8,0.7,4.1,1.3c1.3,0.6,2.3,0.2,3.3-0.7c0.3-0.2,0.4-0.6,0.7-0.8
		c1-0.7,1.8-0.5,2.3,0.6c0.1,0.3,0.2,0.6,0.3,0.8c0.6,1.3,1.4,2.3,3,2.6c1.2,0.2,2.4,0.7,3.6,0.8c0.4,0.1,1-0.3,1.4-0.6
		c1.2-1.2,2.3-2.5,3.4-3.9c2.5-3.2,5-6.5,7.6-9.7c0.8-1,2-1.6,3.1-2.3c0.2-0.1,0.5,0,0.8,0.2c0.1,0,0,0.5-0.1,0.6
		c-1.1,1.4-1.9,3-2.6,4.6c-0.4,1-0.8,2.1-1.2,3.1c-0.6,1.7-1.3,3.3-2,4.9c-0.6,1.5-1.3,2.9-1.9,4.4c-0.5,1.1-0.5,2.3-0.3,3.5
		c0.2,1.7,0.6,3.4,0.9,5c0.1,0.6,0.2,1.2,0.3,1.7c0.1,0.6-0.1,1.1-0.7,1.3c-0.3,0.1-0.8-0.2-1-0.5c-1.1-1.2-2.1-2.4-3.2-3.6
		c-1.2-1.3-2.3-2.7-3.5-4c-0.8-1-1.9-1.3-3.2-1.3c-1,0-1.9,0-2.9,0c-0.4,0-0.4,0-0.5,0.7c0,0.1,0,0.2-0.1,0.3
		c-0.6,0.6-1.1,1.2-1.8,1.7c-0.2,0.1-0.7,0.1-1-0.1c-0.3-0.2-0.5-0.5-0.7-0.8c-0.8-0.9-1.7-1.3-3.1-1.2c-2.6,0.2-5.3,0.1-7.9,0.1
		c-0.5,0-1,0-1.4,0c-0.1,0-0.4,0.3-0.3,0.3c0.5,0.9-0.4,1.1-0.8,1.6c-0.3,0.4-0.6,0.9-0.8,1.3c-0.4,0.8-0.7,0.9-1.3,0.3
		c-0.5-0.5-1-1.1-1.3-1.7c-0.5-1-1.4-1.4-2.5-1.4c-2.7-0.1-5.5-0.2-8.2-0.4c-1.1-0.1-2.1-0.2-3.2-0.3c-1.4-0.2-1.7,0-2.1,1.2
		C27.7,22.7,27.6,23.9,27.5,24.6z"/>
	<path d="M12.9,14.9c-0.2-0.2-0.3-0.3-0.4-0.5c-0.1-0.8-0.4-1.5-1.4-1.3c-0.1,0-0.2-0.1-0.2-0.2c0.1-0.1,0.2-0.1,0.3-0.1
		c0.8,0,0.8-0.4,0.8-1c0-1.3-0.2-2.6,0.4-3.8c0.1-0.3,0.3-0.7,0.4-1c0.1-0.1,0.3-0.1,0.4-0.1c0,0.2,0.2,0.4,0.1,0.5
		c-0.8,1.1-0.5,2.4-0.8,3.6c-0.2,0.8,0.2,1.7,0.4,2.6c0.1,0.3,0.2,0.7,0.2,1C13.2,14.6,13,14.8,12.9,14.9z"/>
	<path d="M17.9,11c0.3-1.5,0.6-3.1,0.9-4.6c0-0.2,0.4-0.3,0.5-0.5c0.1,0.2,0.2,0.5,0.2,0.6c-0.7,1.9-0.7,3.9-0.7,5.9
		c0,0.2,0,0.5,0,0.7c0,0.1-0.2,0.3-0.3,0.3c-0.1,0-0.3-0.2-0.3-0.3c0-0.7,0-1.4,0-2.1C18.1,11,18,11,17.9,11z"/>
	<path d="M57.4,17.8c1.7,0,3.5-0.2,5.2,0c3,0.4,6,0.3,8.9,0.3c0.1,0,0.2,0.1,0.4,0.2c-0.1,0-0.2,0.1-0.3,0.1c-2.7-0.1-5.4,0.2-8-0.3
		c-1.5-0.3-3.1,0-4.7-0.1C58.4,18.2,57.8,18.4,57.4,17.8L57.4,17.8z"/>
	<path d="M15.3,5.7c0.2,0.2,0.4,0.3,0.4,0.3c0,0.2,0.1,0.5,0,0.7c-0.8,2.3-0.7,4.7-0.6,7c0,0.2-0.1,0.3-0.1,0.5
		c-0.2-0.1-0.4-0.2-0.4-0.4c-0.7-2-0.3-4.1,0.1-6.1c0.1-0.5,0.3-1,0.4-1.5C15.1,6,15.2,5.8,15.3,5.7z"/>
	<path d="M16.3,11.4c-0.2-1.9,0.1-3.6,0.7-5.2c0.1-0.2,0.3-0.3,0.5-0.4c0.1,0.2,0.2,0.4,0.2,0.6c-0.2,1.1-0.3,2.2-0.6,3.3
		c-0.3,1.3-0.5,2.5-0.1,3.8c0,0.1-0.2,0.2-0.3,0.4c-0.1-0.1-0.3-0.2-0.3-0.3C16.3,12.8,16.3,12,16.3,11.4z"/>
	<path d="M19.8,10.7c0.2-1.2,0.3-2.4,0.5-3.5c0-0.1,0.1-0.2,0.1-0.3c0.1-0.1,0.3-0.2,0.4-0.3c0.1,0.2,0.3,0.4,0.3,0.5
		c-0.2,1.9-0.5,3.7-0.7,5.6c0,0.1-0.1,0.2-0.2,0.3c-0.1-0.1-0.3-0.2-0.3-0.3C19.9,12,19.8,11.4,19.8,10.7z"/>
	<path d="M37.2,11.9c-0.2,0-0.4,0.1-0.5,0.1c-1-0.5-2-1-3.1-1.5c-0.3-0.1-0.5-0.3-0.8-0.4c-0.1,0-0.1-0.2-0.1-0.3
		c0.1,0,0.2-0.1,0.3-0.1c1.3,0.6,2.6,1.3,3.8,1.9C37,11.7,37,11.8,37.2,11.9z"/>
	<path d="M22.8,5.7C21.9,5.6,21,5.5,20,5.4c-0.3,0-0.6-0.2-0.9-0.3c0.3,0,0.6-0.2,0.9-0.1C21,5.2,22,5.1,22.8,5.7L22.8,5.7z"/>
	<path d="M48.5,16c0.7,0.2,1.3,0.4,1.9,0.6c0,0-0.1,0.1-0.1,0.1c-0.6-0.1-1.2-0.2-1.9-0.3c-0.2,0-0.3-0.1-0.5-0.2
		C48.1,16.1,48.3,16.1,48.5,16z"/>
	<path d="M30.2,8.1c0.4,0.3,0.9,0.5,1.4,0.8c0,0,0,0.2-0.1,0.3c-0.6-0.3-1.1-0.5-1.7-0.8C30,8.3,30.1,8.3,30.2,8.1z"/>
	<path d="M49.8,13.5c0.4,0.1,0.8,0.2,1.3,0.4c0.1,0,0.3,0.2,0.4,0.2c-0.2,0-0.3,0.2-0.5,0.1c-0.5-0.1-0.9-0.2-1.3-0.4
		c-0.1,0-0.2-0.1-0.2-0.2C49.5,13.6,49.6,13.6,49.8,13.5z"/>
	<path d="M57.4,17.8c-0.3,0-0.6,0-0.9,0c-0.6-0.1-1.2-0.1-1.8-0.2c0.6,0,1.3-0.1,1.9-0.1C56.9,17.5,57.2,17.7,57.4,17.8L57.4,17.8z"
		/>
	<path d="M36.7,8.9C37,9,37.3,9.1,37.6,9.3c0.1,0,0.1,0.2,0.1,0.3c-0.2,0-0.5,0.1-0.7,0c-0.3-0.1-0.5-0.3-0.7-0.5
		C36.4,9,36.5,9,36.7,8.9z"/>
	<path d="M42.1,13.9c0,0.2,0,0.2,0,0.2c-0.2,0-0.4,0.1-0.5,0.1c-0.3-0.1-0.6-0.3-0.9-0.5c0,0,0.1-0.1,0.1-0.1
		C41.2,13.7,41.7,13.8,42.1,13.9z"/>
</g>
</svg>
