<?xml version="1.0" encoding="iso-8859-1"?>
<!-- Generator: Adobe Illustrator 25.3.0, SVG Export Plug-In . SVG Version: 6.00 Build 0)  -->
<svg version="1.1" id="Calque_1" xmlns="http://www.w3.org/2000/svg" xmlns:xlink="http://www.w3.org/1999/xlink" x="0px" y="0px"
	 viewBox="0 0 231.9 137.5" style="enable-background:new 0 0 231.9 137.5;" xml:space="preserve">
<g>
	<path d="M0,61.7C-0.3,54,3.6,47.5,7.1,41c1.2-2.2,3.2-2.7,6.1-1.7c6.3,2,12.6,4.1,18.8,6.4c6.8,2.5,13.6,5.2,20.4,8
		c2.3,0.9,4.1,0.9,5.6-1.2c0.5-0.7,1.1-1.2,1.8-1.8c1.5-1.2,1.4-2.5,0.3-3.9c-0.4-0.5-0.8-1.1-1.2-1.6c-1.2-1.4-2.9-2.9,0.5-3.7
		c1.2-5,5-8.6,7.5-12.9c0.8-1.4,2.1-1.5,2.7-2.5c0.6-0.9-0.3-2.7,1.8-2.7c0.5-2.3,2.8-3.4,3.5-5.3c0.8-1.9,2.4-0.3,3.1-1.5
		c1.1-1.8,5.8-6.4,7.2-6.7c1.6-0.3,2.7-0.7,3.6-2.1c0.3-0.4,1.9,0.2,2.6-0.2c1.1-0.6,2-2.2,3.1-2.4c1.1-0.2,2.3,1.2,3.5-0.3
		c0.4-0.5,1.5-0.9,1.9-0.7c1.2,0.6,1.8,0.2,2.4-0.9c0.1-0.3,0.4-0.8,0.6-0.7c1.9,0.3,4.1,1.4,5.1-1.4c0.4,0.2,0.9,0.4,1.2,0.8
		c0.8,0.9,1.7,1.2,2.5,0.2c0.9-1.2,1.6-1.6,2.6-0.1c0.2,0.3,1.1,0.4,1.2,0.3c1.4-2.5,3.8-0.2,5.7-1.2c0.7-0.4,2.4,0.9,3.3-0.7
		c0.1-0.1,0.3-0.3,0.4-0.3c1.2,0.5,2.5,1.5,3.5,1.3c1-0.2,1.6-1.5,2.8-0.3c0.3,0.3,1.4,0.3,1.6,0c0.9-1.3,1.7-0.8,2.2,0.2
		c0.9,1.5,1.8,1.9,3,0.5c0.2-0.2,0.6-0.5,0.8-0.4c1,0.6,1.8,1.7,2.8,1.8c0.7,0,1.4-2,2.7-0.3c0.3,0.4,1.6,0.5,2,0.2
		c1-0.9,1.7-0.7,2.4,0.3c0.2,0.3,1,0.5,1.3,0.4c1.5-0.8,2.6-0.7,3.8,0.7c0.8,0.9,2.9-1.4,3.7,0.9c2-0.5,3.8,1.6,5.4,1
		c1.9-0.7,2.2,1.5,3.3,1.2c1.3-0.3,2.5-0.9,3.3,0.8c3.1-0.6,5.1,2.1,7.9,2.4c1.5,0.1,2.6,1.7,3.3,1.6c1.8-0.3,2.4,0.3,2.7,1.8
		c1.8-0.4,2.7,1.3,4.1,1.6c1.3,0.4,2.7,0.2,2.8,2.1c0,0.2,0.6,0.6,0.6,0.5c2-1.9,3,2.5,5.1,0.9c0.2-0.1,1.5,1,2.2,1.7
		c1.1,1,1.4,3.1,3.8,2.1c1.4-0.5,0.8,3.5,3.4,2.1c1.5,3.2,5,4.1,7.4,6.3c2.4,2.2,5.7,3.4,7.5,6.4c0.6,0.9,3.2-0.6,2.6,2.2
		c-0.1,0.6,1.7,1.5,2.5,2.3c0.9,1.1,1.5,2.6,2.6,3.3c1.5,0.9,0.1,3.5,2.6,3.9c0.7,0.1-1,3.1,1.2,4c0.1,0,0,0.9-0.2,1.3
		c-0.2,0.4-0.7,0.7-1,1.1c-1,1-3,2-3,3c0,1.8,0.8,3.8,1.8,5.5c1.6,2.8,1.8,4.7-0.3,7c-4,4.4-8.3,8.6-12.5,12.8
		c-0.9,0.9-0.9,1.3-0.2,2.4c1.4,2,2.7,4.2,3.7,6.5c0.7,1.5,1.7,3.4-1,4.5c-0.5,0.2-0.7,1.7-0.7,2.6c0,1,0.6,1.9,0.8,2.8
		c0.8,4.5,0.8,4.5-3.5,3.3c-0.6-0.2-1.6,0.2-2.1,0.7c-1.7,1.5-2.3,3.5-2.4,5.8c-0.1,3.1-0.3,3.1-3.1,2.1c-2.6-0.9-3.5-0.7-4.7,1.7
		c-0.6,1.1-0.8,2.5-1.2,3.7c-0.6,1.8-1.7,2.2-2.8,0.8c-1-1.3-1.9-2.2-3.6-2.2c-1.7,0-2.9,0.5-3.7,2.1c-0.2,0.3-0.8,0.5-1.2,0.7
		c-0.2-0.4-0.5-0.8-0.5-1.2c-0.6-3.9-0.9-4.1-4.4-2.3c-0.6,0.3-1.5,0.1-2.2,0.3c-0.5,0.1-1.4,0.3-1.5,0.6c-0.3,2.2-3.9,0.8-3.6,3.5
		c-2.4-1.1-2.3,3.5-4.8,2.1c-1.7,3.7-7,2.2-8.7,6c-5.4,1-10.1,4.8-15.8,4.1c-2-0.3-3.1,2.3-5.3,0.8c-1-0.6-3.2,0.7-4.8,1.1
		c-0.7,0.2-1.6-0.2-2.3,0c-2,0.8-4.1-0.1-6.3,0.7c-2.8,1-6.5,0.4-9.5-0.8c-3.1-1.2-6.3-1.7-9.3-3c-0.9-0.4-2-0.1-2.7-1.3
		c-0.2-0.4-1-0.4-1.5-0.6l-6.4-1.7c-0.5-1.9-2.1-0.9-3.2-1.2c-1-0.2-0.2-2.4-2.6-2.1c-1.5,0.2-3.8-1.9-4.7-3.5
		c-1.1-1.8-4.1-0.9-4-3.5c-2.5,1.6-2.7-3.6-5.3-1.8c-0.3-2.3-4.5-1.9-3.4-5.2c0.1-0.3-0.1-1.1-0.4-1.2c-2.7-1.1-3.7-3.6-4.9-6
		c-1.2-2.3-2.2-4.6-3.5-6.8c-0.7-1.3-1.4-2.6-2.5-3.6c-1.9-1.8-1.8-3.4,0.1-5.1c1.4-1.2,1.2-2.2-0.3-3.1c-0.3-0.2-0.5-0.4-0.8-0.6
		c-6.2-4.4-6.9-4.3-13.6-0.4c-7.6,4.4-15.3,8.7-23.1,12.8c-2.6,1.4-5.5,2.4-8.4,3.2c-5.4,1.5-11.2-1.2-14.3-6.7
		C4,90.8,2.4,86.4,2,81.7c-0.5-5.8-1.3-11.5-2-17.3C0,63.6,0,62.8,0,61.7z"/>
	<path d="M217,81c-3.5-0.1-7,0-10.4-0.3c-2.8-0.2-5.7-0.3-8.3-1.2c-3-1.1-5.2-3.5-6.5-6.5c-1.3-3.2-2.1-6.7-1.6-10.2
		c0.2-1.3,1.4-2.5,2.2-3.6c0.2-0.2,1-0.2,1.2,0c0.2,0.2,0.2,0.9,0,1.2c-3.2,4.9-1.4,9.6,1,14c1.7,3.1,5,4.1,8.5,4.2
		c4,0.1,8,0,11.9,0.1c1.1,0,2.1,0.5,3.2,0.8C217.9,80.1,217.5,80.5,217,81z"/>
	<path d="M60.5,69.7c-4.8,0-9.7,0-14.5,0c-0.5,0-1-0.6-1.5-0.9c0.5-0.3,0.9-0.9,1.5-0.9c1.1-0.1,2.3-0.1,3.5-0.1
		c10.7,0,21.3-0.1,32,0c8.1,0,16.1-1.1,24.2-1.8c12-1.2,23.7-4,35.6-6c6.5-1.1,13.2-1.1,19.7-2.3c8.3-1.5,16.6-0.5,24.9-0.9
		c0.7,0,1.3,0,2,0.1c0.3,0,0.5,0.3,0.7,0.5c-0.3,0.1-0.6,0.4-0.9,0.4c-3.2,0-6.3,0.1-9.5,0.1c-6.8,0-13.5,0.8-20.2,1.9
		c-3.3,0.5-6.6,0.6-9.8,1.1c-7,1.1-14,2.4-21,3.5c-8,1.2-16,2.2-23.9,3.6c-7.6,1.4-15.2,0.6-22.9,1c-6.6,0.3-13.2,0.8-19.8,1.3
		C60.5,70,60.5,69.8,60.5,69.7z"/>
	<path d="M215.9,69.8c-2.3,0-4.3-1.6-4.5-3.7c-0.2-1.4,2.6-4.1,4.2-4.3c1.9-0.1,4.4,1.9,4.6,3.7C220.4,67.8,218.5,69.7,215.9,69.8z"
		/>
	<path d="M218.1,59.8c-1.3,0-2.8,0.4-3.9-0.2c-1.2-0.6-2.7-1.9-2.8-3c-0.1-1.1,1.1-2.6,2.2-3.4c1.3-1,2.8-0.5,4.1,0.5
		c1.6,1.3,1.7,3.1,1.5,5C219.5,59.7,219.1,60.1,218.1,59.8z"/>
	<path d="M218.1,59.8c0.4-0.4,0.7-0.7,1.1-1.1c0.9,0.6,1.8,0.7,2.5-0.4c0.1-0.2,1-0.1,1.2,0.2c0.3,0.3,0.4,1.2,0.2,1.3
		c-0.9,0.7-1.8,1.6-2.8,1.7C219.6,61.5,218.8,60.4,218.1,59.8z"/>
</g>
</svg>
