<?xml version="1.0" encoding="iso-8859-1"?>
<!-- Generator: Adobe Illustrator 25.3.0, SVG Export Plug-In . SVG Version: 6.00 Build 0)  -->
<svg version="1.1" id="Calque_1" xmlns="http://www.w3.org/2000/svg" xmlns:xlink="http://www.w3.org/1999/xlink" x="0px" y="0px"
	 viewBox="0 0 82.8 27.2" style="enable-background:new 0 0 82.8 27.2;" xml:space="preserve">
<g>
	<path d="M76.6,21.4c-2.9,0.3-5.7-0.4-8.4-1.4c-1.9-0.6-3.9-1.1-5.8-1.6c-2.4-0.6-4.8-0.3-7.2-0.2c-1.7,0.1-3.3,0.5-4.9,0.8
		c-0.2,0-0.4,0.2-0.6,0.3c0.2,0.1,0.4,0.2,0.6,0.2c1.3,0.2,1.8,1.1,2.1,2.3c0.3,1.1,0.3,2.2-0.1,3.3c-0.5,1.1-1.4,1.8-2.6,1.9
		c-2,0.1-4,0.2-5.7-1.1c-0.4-0.3-0.8-0.5-1.1-0.9c-1-1-1.9-2.1-2.9-3.1c-0.2-0.2-0.5-0.3-0.8-0.3c-1.6,0.1-3.2,0.2-4.8,0.4
		c-0.4,0.1-0.8,0.5-1.1,0.8c-2.9,2.6-6.2,3.9-10.1,3.2c-0.5-0.1-1.1-0.1-1.6-0.2c-2.6-0.5-4.7-1.8-6.3-3.8c-0.5-0.6-0.9-0.8-1.6-0.8
		c-1.6,0-3.1,0.1-4.7,0c-2.3-0.1-4.7-0.2-7-0.4C1.2,21,0.4,20.8,0.1,20c-0.3-0.8,0.1-1.5,0.7-2.1c1.1-1.1,2.3-2,3.8-2.7
		c2.7-1.2,5.3-2.4,8-3.7c2.3-1.2,4.9-1.6,7.4-2.4c0.7-0.2,1.5-0.4,2.2-0.6c0.9-0.2,1.4-0.7,1.7-1.6c0.4-1.2,0.9-2.3,1.3-3.5
		c0.6-2,2.3-2.7,4.1-3.2c0.2-0.1,0.5,0,0.7-0.1c0.5-0.3,0.8-0.1,1,0.4c0.5,1.4,1.5,2.6,1.1,4.4c-0.2,0.8,0.4,1.8,0.3,2.7
		c0,0.4,0.3,0.8,0.9,0.9c0.7,0,1.4,0.2,2.1,0.3c1.2,0.2,1.6,0,2.2-1.1c0.9-1.5,1.8-3,2.6-4.6c0.5-1,1.5-1.5,2.4-1.6
		c1.2-0.2,2.4-0.2,3.5,0.1c2,0.5,3.8,1.4,5.5,2.6c1.1,0.8,1.9,1.9,2.6,3.1c0.4,0.6,0.2,1-0.3,1.4c-0.8,0.6-1.7,1.1-2.6,1.6
		c-0.1,0.1-0.2,0.2-0.2,0.3c0.1,0.1,0.2,0.2,0.4,0.2c1.4-0.1,2.8-0.2,4.2-0.4c4-0.6,7.5-2.4,11.1-4.3c4-2.1,8.1-3.7,12.8-3.5
		c1.2,0.1,1.5,0.4,1.1,1.5c-0.3,0.8-0.7,1.5-1,2.3c-0.7,1.4-1.4,2.7-2.1,4.1C77,11.5,77,11.7,78,12.6c1.3,1.3,2.6,2.7,3.5,4.3
		c0.4,0.6,0.7,1.2,1,1.9c0.6,1.4,0.4,1.7-1.1,2.3C79.8,21.7,78.2,21.4,76.6,21.4z"/>
	<path d="M37.4,15.3c2.3,0,4.6,0,6.9,0c1.2,0,2.5-0.2,3.7-0.3c0.4,0,0.8,0,1.2,0.1c0.1,0,0.2,0.2,0.3,0.4c-0.1,0.1-0.3,0.2-0.4,0.2
		C45,16,40.9,16.1,36.8,16c-0.2,0-0.5,0-0.7,0c-0.1,0-0.2-0.2-0.3-0.4c0.1-0.1,0.3-0.3,0.4-0.3c0.4,0,0.8,0.1,1.2,0.1
		C37.4,15.4,37.4,15.4,37.4,15.3z"/>
	<path d="M60.9,14.2c-0.1,0.1-0.2,0.3-0.4,0.3c-1.5,0.1-2.9,0.3-4.4,0.4c-1.3,0.1-2.6,0.2-3.9,0.3c-0.1,0-0.3-0.1-0.5-0.2
		c0.1-0.1,0.2-0.1,0.3-0.2C55,14.7,58,14.5,60.9,14.2L60.9,14.2z"/>
	<path d="M63.4,13.9c0-0.1,0.1-0.1,0.1-0.1c0.7-0.1,1.3-0.2,2-0.3c0,0.1,0,0.2,0,0.2c-0.6,0.1-1.2,0.2-1.9,0.2
		C63.6,13.9,63.5,13.9,63.4,13.9L63.4,13.9z"/>
	<path d="M63.4,13.9c-0.7,0.8-1.7,0.2-2.5,0.4l0,0C61.7,13.5,62.6,14,63.4,13.9L63.4,13.9z"/>
</g>
</svg>
