<svg xmlns="http://www.w3.org/2000/svg" viewBox="-251 -2 1492 1019" width="1492" height="1019">
  <path d="M0,0 L25,0 L37,6 L45,13 L51,23 L54,33 L54,45 L50,59 L43,70 L34,81 L27,95 L10,123 L-6,152 L-10,159 L-10,165 L0,159 L11,156 L22,156 L33,159 L42,164 L58,176 L64,183 L68,190 L81,192 L91,197 L99,204 L104,212 L108,228 L108,233 L112,233 L113,228 L119,216 L128,205 L131,200 L128,186 L128,176 L133,151 L138,136 L144,125 L153,116 L165,110 L173,108 L183,108 L195,111 L204,117 L212,126 L216,134 L216,136 L220,135 L226,124 L236,113 L245,102 L256,89 L259,71 L266,48 L272,38 L279,31 L287,26 L297,23 L312,23 L322,26 L333,33 L341,43 L343,47 L362,50 L374,56 L382,63 L391,76 L395,92 L395,105 L392,119 L388,129 L386,132 L387,135 L398,127 L410,116 L421,109 L430,105 L438,104 L439,95 L443,85 L449,77 L457,70 L465,66 L474,64 L481,56 L491,49 L504,45 L517,46 L527,50 L533,54 L540,61 L546,71 L555,77 L558,80 L572,81 L584,85 L594,93 L597,97 L602,96 L616,89 L625,87 L636,86 L650,88 L660,92 L669,99 L675,107 L678,110 L692,109 L706,109 L716,112 L725,117 L730,122 L748,123 L759,127 L768,134 L775,143 L775,145 L797,145 L810,149 L821,157 L822,158 L836,160 L846,165 L855,173 L862,183 L864,186 L880,189 L892,195 L901,203 L901,205 L910,205 L920,208 L930,214 L938,223 L941,229 L941,231 L945,232 L953,237 L958,242 L964,250 L968,261 L976,267 L983,275 L987,283 L989,294 L989,301 L994,309 L996,316 L996,331 L992,342 L988,348 L985,352 L986,359 L987,364 L987,377 L986,383 L995,380 L1008,379 L1021,382 L1029,381 L1045,377 L1062,374 L1102,374 L1126,377 L1143,381 L1157,388 L1164,394 L1167,398 L1167,400 L1180,402 L1192,407 L1200,413 L1209,423 L1214,434 L1215,438 L1216,451 L1223,461 L1227,474 L1227,491 L1233,500 L1236,508 L1237,518 L1235,530 L1233,535 L1233,555 L1230,565 L1231,570 L1233,578 L1233,589 L1230,601 L1224,611 L1213,622 L1196,632 L1185,642 L1168,654 L1145,666 L1131,673 L1115,679 L1105,681 L1078,682 L1015,681 L1000,680 L1002,688 L1002,706 L1001,712 L1007,724 L1008,729 L1008,740 L1004,753 L997,762 L990,768 L985,773 L981,780 L979,790 L973,802 L967,809 L956,816 L944,820 L937,828 L929,834 L920,838 L911,840 L894,841 L886,849 L874,855 L858,859 L849,862 L842,863 L833,863 L819,861 L812,863 L789,863 L772,860 L749,853 L732,846 L708,835 L693,830 L686,825 L668,817 L661,814 L657,815 L646,823 L633,827 L618,828 L606,833 L591,835 L588,838 L582,848 L574,855 L564,860 L550,863 L536,862 L527,861 L515,867 L511,868 L486,868 L483,871 L477,879 L469,886 L459,890 L455,891 L440,890 L431,887 L423,895 L411,901 L403,903 L389,903 L379,900 L369,894 L352,896 L342,894 L333,890 L335,896 L335,914 L331,924 L332,928 L337,940 L338,947 L338,956 L335,968 L330,977 L324,984 L313,991 L308,993 L302,1002 L294,1009 L285,1013 L259,1013 L247,1008 L243,1009 L233,1009 L221,1006 L210,999 L198,988 L192,989 L185,991 L173,991 L163,988 L152,981 L140,969 L127,952 L118,937 L111,926 L106,917 L99,906 L94,897 L94,895 L86,894 L76,889 L66,880 L60,870 L56,855 L56,853 L50,851 L41,845 L31,835 L19,828 L7,817 L4,816 L-6,821 L-15,823 L-25,823 L-38,819 L-49,811 L-56,801 L-60,790 L-60,774 L-57,764 L-73,762 L-85,756 L-93,749 L-103,743 L-108,739 L-115,728 L-118,720 L-119,707 L-119,703 L-131,708 L-144,709 L-156,706 L-164,702 L-173,694 L-180,683 L-183,674 L-184,668 L-184,659 L-181,646 L-175,636 L-173,633 L-171,633 L-170,630 L-160,622 L-153,615 L-144,609 L-142,606 L-143,601 L-148,588 L-148,586 L-153,587 L-161,587 L-171,585 L-183,579 L-190,573 L-197,563 L-201,550 L-212,542 L-224,538 L-234,532 L-241,525 L-246,517 L-249,506 L-249,494 L-246,484 L-240,475 L-233,468 L-221,462 L-213,459 L-205,454 L-207,445 L-207,432 L-204,421 L-198,412 L-193,406 L-182,399 L-166,393 L-154,391 L-146,391 L-134,394 L-126,390 L-116,388 L-112,388 L-117,378 L-119,368 L-118,355 L-114,345 L-105,335 L-95,328 L-98,295 L-101,245 L-101,219 L-99,186 L-97,159 L-97,152 L-104,139 L-116,122 L-127,107 L-133,95 L-137,81 L-141,71 L-142,67 L-142,48 L-138,37 L-130,26 L-119,19 L-110,16 L-99,15 L-88,17 L-76,23 L-66,31 L-58,37 L-51,30 L-38,20 L-24,12 L-6,2 Z " fill="#000000" stroke="none" fill-rule="nonzero"/>
</svg>