<?xml version="1.0" encoding="iso-8859-1"?>
<!-- Generator: Adobe Illustrator 25.3.0, SVG Export Plug-In . SVG Version: 6.00 Build 0)  -->
<svg version="1.1" id="Calque_1" xmlns="http://www.w3.org/2000/svg" xmlns:xlink="http://www.w3.org/1999/xlink" x="0px" y="0px"
	 viewBox="0 0 216.2 99.2" style="enable-background:new 0 0 216.2 99.2;" xml:space="preserve">
<g>
	<path d="M85.7,10.5c4.5,0.5,9,0.8,13.4,1.4c4.1,0.6,7.4-1.5,10.9-2.9c4.5-1.8,8.7-4.1,13.1-6c1.3-0.6,2.8-0.8,4.3-1.1
		c1-0.2,2.1-0.1,2.9-0.6c3.7-2.1,7.3-1.4,11.1-0.3c3,0.9,6.2,1.1,9.2,2c6.1,1.8,11.1,5.2,14.4,10.8c2.8,4.8,1.7,8.3-2.6,11.7
		c-2.8,2.2-5.8,4.3-9.9,3.8c-2-0.2-4.2,0.8-6.3,1.3c-0.5,0.1-0.8,0.5-1.3,0.8c0.4,0.2,0.8,0.4,1.2,0.5c2.8,0.9,5.6,2,8.6,2.5
		c8.3,1.4,16.6,2.4,25.1-0.1c6.5-1.9,13.2-3.2,20.1-2.6c2.6,0.2,5.3,0.6,7.8,1.3c1.4,0.4,2.7,1.3,3.8,2.3c6.1,5.7,6.6,19.2,0.7,25.1
		c-4.8,4.9-10.7,7-17.7,5.1c-7.5-2-15.1-3.9-22.6-5.7c-1.3-0.3-2.6-0.7-3.9-0.7c-5.9-0.1-11.9-0.1-17.8-0.1c-0.3,0-0.7,0.3-1,0.5
		c0.3,0.1,0.6,0.3,0.9,0.3c3.6,0.1,6.2,2.3,8.9,4.1c3,2,3.4,4.6,1.6,7.8c-5.1,9-12.8,15.3-22.9,17c-9.9,1.6-19.9,0.8-28.7-5.4
		c-2.9-2.1-6.3-3.5-9.6-5.1c-0.7-0.3-1.6-0.2-2.5-0.2c-1.7,0-3.3,0.1-5,0.2c0.8,1.4,1.8,2.7,2.5,4.1c1.3,2.8,2.8,5.7,3.7,8.6
		c0.8,2.3,0.3,4.6-1.2,6.6c-1.3,1.7-2.8,2-4.2,0.4c-1.8-2.1-3.5-4.4-4.6-6.9c-1.5-3.3-2.4-6.8-3.5-10.3c-1.2-3.6-1.2-3.4-4.7-3.8
		c-9.9-1-19.6-2.4-29.4-4.4c-8.3-1.7-16.4-3.7-24.4-6.5C18,63.4,10.9,58.8,4.6,53.1c-2.3-2-3.8-4.7-4.4-7.7C-0.2,43.7,0,42,2.4,41.9
		c0.3,0,1-0.7,0.9-1c-0.7-2.8,1.2-4,3.1-5c2.5-1.3,5-2.8,7.6-3.7c11.2-3.8,21.8-9,32.5-13.9c8.1-3.7,16.4-6,25.3-6.5
		C76.4,11.6,81,11,85.7,10.5z"/>
	<path d="M52.2,57.1c3.7-2.7,2.9-7.1,3.8-10.8c0.3-1.2,0.5-2.4,0.7-3.7c1.9,0.7,1.6,2.3,1.5,3.8c-0.5,9.5-5.9,15.8-13.6,20.5
		c-0.6,0.3-1.2,0.5-1.9,0.7c-0.2,0.1-0.7-0.2-0.8-0.4c-0.1-0.3-0.1-1,0.1-1.1c0.9-0.7,1.9-1.3,2.8-1.9c0.4-0.7,0.8-1.5,1.2-2.2
		l0.1,0c0.6-0.4,1.1-0.8,1.6-1.1c1.5-1,2.4-2.5,3.8-3.6C51.8,57.2,52,57.1,52.2,57.1z"/>
	<path d="M72.6,57.2c-4,0-8,0-12,0c-0.8,0-1.7,0-2.5-0.2c-0.3-0.1-0.6-0.7-0.7-1.2c0-0.2,0.4-0.6,0.6-0.6c1-0.1,2-0.2,3-0.2
		c7.5,0,15,0.1,22.5,0c3.6-0.1,6.9,1,9.9,2.8c1.2,0.7,2.4,1.8,3.1,3c2.2,3.5,1.6,6.1-1.9,8.3c-1,0.6-2,1.2-3.2,1.5
		c-6.6,1.7-13.1,3.6-20,1.9c-4-1-8-1.9-12.1-2.7c-1.2-0.2-2.5,0.2-3.8,0.2c-0.4,0-0.8-0.3-1.3-0.5c0.2-0.4,0.3-1,0.6-1.2
		c1.6-1,3.3-1.7,5.1-0.6c5.3,2.9,11.3,2.8,16.9,3.1c4.8,0.2,9.7-1.6,14.5-2.6c2.1-0.4,4-1.8,4.1-3.8c0.1-2.2-1.4-4.2-3.6-4.9
		c-2.5-0.9-5-1.8-7.6-2C80.6,56.9,76.6,57.2,72.6,57.2z"/>
	<path d="M48.3,61.9c-0.6,1.6-1.4,0.2-2.2,0.1c0.4-0.9,0.6-1.9,1.2-2.6c3.6-3.8,4.9-8.4,4.7-13.5c-0.1-1.5-0.1-3,0-4.4
		c0.1-0.7,0.5-1.4,0.8-2.1c0.4,0.6,1.2,1.2,1.2,1.8c0.1,4.6,0.6,9.2-1.3,13.6c-0.3,0.7-0.5,1.6-0.7,2.4l0,0
		C51.2,58.9,49.4,60.1,48.3,61.9z"/>
	<path d="M108,76c-0.2-0.3-0.5-0.5-0.6-0.8c-0.1-0.1,0-0.4,0.1-0.5c0.2-0.3,0.4-0.5,0.7-0.7c5.2-2.1,10.4-4.2,15.6-6.3
		c0.3-0.1,0.8,0.1,1.3,0.2c-0.2,0.4-0.3,1.1-0.6,1.3c-2.1,1-4.1,2.1-6.3,2.9c-2.9,1.2-5.9,2.3-8.8,3.4C109,75.7,108.5,75.8,108,76z"
		/>
	<path d="M51.8,32.7c1,0.4,2.2,0.6,2.7,1.3c1.1,1.8,1.9,3.7,2.7,5.7c0.1,0.3-0.3,1-0.7,1.1c-0.3,0.1-1-0.2-1.2-0.5
		c-0.4-0.9-0.6-1.8-1-2.7c-0.5-1.3-1.3-2.2-2.8-2.4c-0.6-0.1-1.1-0.7-1.7-1C50.5,33.7,51.1,33.2,51.8,32.7z"/>
	<path d="M109.8,14.8c2.2,1.1,4.7,2.3,7.1,3.5c0.2,0.1,0.2,0.6,0.1,0.9c-0.1,0.2-0.6,0.4-0.8,0.3c-2.5-0.9-4.9-1.8-7.3-2.8
		c-0.2-0.1-0.3-0.8-0.3-1.2C108.6,15.4,109.1,15.2,109.8,14.8z"/>
	<path d="M131.7,65.3c-0.6-0.3-1-0.5-1.1-0.7c0-0.4,0-1.1,0.3-1.2c1.6-0.8,3.2-1.4,4.9-2c0.3-0.1,1,0.2,1.2,0.5
		c0.2,0.3,0,1.1-0.3,1.3C135,63.9,133.2,64.6,131.7,65.3z"/>
	<path d="M122.1,23c-1-0.5-2.1-1.1-3.2-1.8c-0.1-0.1,0.1-1,0.3-1.1c1.5-0.4,2.9,0,3.8,1.3c0.2,0.2,0.2,0.7,0.1,0.9
		C122.9,22.6,122.5,22.7,122.1,23z"/>
	<path d="M179.4,42.9c-0.7,0.5-1.2,1-1.4,0.9c-0.6-0.4-1.2-1-1.6-1.6c-0.1-0.1,0.4-0.7,0.7-1C177.8,41.7,178.5,42.2,179.4,42.9z"/>
	<path d="M177.2,52.4c-0.4-0.8-0.8-1.3-0.7-1.5c0.4-0.5,1-0.9,1.6-1.4c0.3,0.4,0.9,0.9,0.8,1C178.4,51.2,177.9,51.7,177.2,52.4z"/>
</g>
</svg>
