<?xml version="1.0" encoding="iso-8859-1"?>
<!-- Generator: Adobe Illustrator 25.3.0, SVG Export Plug-In . SVG Version: 6.00 Build 0)  -->
<svg version="1.1" id="Calque_1" xmlns="http://www.w3.org/2000/svg" xmlns:xlink="http://www.w3.org/1999/xlink" x="0px" y="0px"
	 viewBox="0 0 88.5 48.2" style="enable-background:new 0 0 88.5 48.2;" xml:space="preserve">
<g>
	<path d="M88.5,48.2c-0.1-0.2-0.3-0.4-0.3-0.6c-0.1-0.3,0-0.7,0-1.1c0-15.5,0-31.1,0-46.6c0.1,0,0.3,0,0.3,0c0,0.5,0,1.1,0,1.6
		C88.5,17.2,88.5,32.7,88.5,48.2z"/>
	<path d="M26,9.3c1.2-0.2,2.5-0.3,3.7-0.5c1.7-0.3,3.3-0.3,5,0c1.2,0.2,2.5,0.3,3.7,0.5c0.5,0.1,0.9,0.2,1.4,0.3
		c1,0.1,1.9,0.7,3,0.4c0.4-0.1,1,0.3,1.5,0.4c1.4,0.2,2.7,0.3,4.1,0.4c1.2,0.1,2.4,0,3.6,0c1.4,0,2.6-0.6,3.8-1.4
		c1.9-1.3,4.1-2.2,6.5-2.1c1.9,0.1,3.7,0.4,5.6,0.5c2.4,0.1,4.3,1.2,6,2.7c1.4,1.2,1.5,2.5,0.2,3.9c-0.7,0.8-1.5,1.6-2.7,1.9
		c-0.3,0.1-0.8,0.2-0.5,0.7c0.2,0.3,0.4,0.6,1,0.3c1.1-0.5,2.3-0.9,3.3-1.6c1.2-0.9,2.6-1.8,4-2.4c1.7-0.7,3.5-1.2,5.2-1.7
		c0.2-0.1,0.7,0.2,0.9,0.4c0.1,0.2,0.1,0.7-0.1,0.9c-0.9,1.4-1.8,2.8-2.7,4.3c-0.9,1.5-1.3,3.1-0.6,4.7c0.6,1.2,1,2.5,2.3,3.4
		c0.7,0.5,1.2,1.3,1.7,2c0.4,0.5,0,0.9-0.4,0.9c-0.6,0-1.3,0-1.9-0.2c-2.3-0.9-4.8-1.2-6.9-2.4c-0.2-0.1-0.6-0.1-0.8-0.2
		c-0.3-0.1-0.6,0-0.4,0.3c0.9,1.3,0.3,2.7,0.2,4c-0.3,2.8-2.1,4.1-4.7,4.6c-1.2,0.3-2.4,0.4-3.7,0.2c-2.3-0.4-4.5-0.6-6.6-1.8
		c-0.9-0.5-1.9-0.9-3.1-0.3c-1.3,0.6-2.8,0.8-4.1,1.3c-2.2,0.8-4.4,1.8-6.6,2.7c-0.9,0.3-1.9,0.4-2.7,0.7c-1.4,0.6-2.7,0.7-4.2,0.3
		c-1.1-0.3-2.2,0-3.3,0.3c-1.8,0.5-3.7,0.7-5.5,0c-0.5-0.2-1.1-0.2-1.6-0.2c-2.2,0-4.4,0.1-6.6,0.1c-0.3,0-0.6,0-0.9-0.1
		c-2.2-0.8-4.6-0.9-6.6-2c-1.7,0.3-2.7-1.3-4.3-1.4c-0.3,0-0.6-0.3-0.9-0.6c-0.4-0.4-0.8-0.8-1.5-0.8c-0.3,0-0.7-0.4-1-0.7
		c-1.2-1.3-2.6-2.4-4-3.4c-1.1-0.8-2.1-1.9-3.1-2.9C0.2,25.4,0,25,0,24.7c-0.1-0.8,0.5-1.3,1.3-1c0.6,0.3,1.2,0.7,1.8,1.1
		c0.8,0.4,1.5,0.9,2.4,1.2c0.1,0,0.2,0,0.3,0c0-0.2,0.1-0.4,0-0.4c-0.8-0.8-1.7-1.6-2.5-2.5c-0.5-0.6-1-1.2-1.4-1.8
		c-0.4-0.6-0.3-1.2,0.1-1.6c2.2-2.1,4.3-4.3,7.3-5.5c2.4-1,5-1.7,7.4-2.5c1.9-0.7,3.9-1.6,6.1-1.7c0.4,0,0.8-0.2,1.2-0.4
		C24.7,9.2,25.3,9,26,9.3z"/>
	<path d="M29.8,36.4c0.1-0.7,0.8-0.8,1.3-1.1c1.6-0.8,2.7-2.1,3.1-3.8c0.5-1.9,0.8-3.8,1.5-5.6c0.4-1.2,0.9-2.3,0.3-3.6
		c-0.1-0.3,0-0.8,0.2-1.2c0.1-0.4,0.4-0.7,0.6-1c0.6,0.4,0.1,0.7-0.1,1c-0.2,0.5-0.2,0.9,0,1.3c0.4,1.1,0.1,2.1-0.3,3.2
		c-0.5,1.3-1.1,2.6-1.1,4.1c0,0.4,0.2,0.7,0.7,0.4c0.6-0.5,1.3-1,1.8-1.6c1.8-1.9,4-2.1,6.4-2c0.6,0,0.9,0.5,0.6,1
		c-0.7,1.2-1.3,2.5-2.6,3.3c-0.4,0.3-0.8,0.6-1.3,0.6c-1,0-2,0.4-2.9,0.7c-0.5,0.2-0.6,0-0.5-0.7c0-0.1,0-0.4-0.1-0.4
		c-0.8-0.6-2.5-0.2-2.8,0.7c-0.2,0.5-0.3,1-0.5,1.5c-0.8,1.9-2.5,2.6-4.1,3.4C29.9,36.5,29.8,36.4,29.8,36.4z"/>
	<path d="M22.3,19.8c0,1.4-0.9,2.3-2.3,2.3c-1.1,0-2.3-1.2-2.4-2.3c0-1.1,1.3-2.4,2.4-2.4C21.4,17.5,22.3,18.4,22.3,19.8z"/>
	<path d="M17.5,30.8c-2.5-2-5.1-4.1-7.6-6.1c-0.6-0.4-1-1-1.5-1.5c-0.1-0.1-0.1-0.4-0.2-0.6c0.2,0,0.5-0.1,0.7,0
		c2.2,1.5,4.3,3,6.5,4.4c1.3,0.9,2,2.2,2.4,3.6C17.7,30.7,17.6,30.8,17.5,30.8z"/>
	<path d="M51.8,31.1c-0.5,0-1,0-1.4,0c-0.3,0-0.6-0.1-0.9-0.2c0.2-0.2,0.3-0.5,0.6-0.6c1.6-0.7,3.2-1.7,5-0.9
		c0.2,0.1,0.5,0.2,0.6,0.3c0.2,0.2,0.4,0.6,0.4,0.9c0,0.2-0.3,0.5-0.5,0.6c-0.3,0.2-0.7,0.3-1,0.3c-0.8,0-1.5,0.2-2,0.9
		c-0.1,0.1-0.3,0.1-0.5,0.1c0-0.2,0-0.4,0-0.6c0-0.1,0-0.2,0-0.4c0.1-0.2,0,0,0-0.2c0.2-0.4,0.5-0.7,0.9-0.9
		C52.6,30.6,52.3,31,51.8,31.1z"/>
	<path d="M64.4,9.3c1.6,0,3,0.5,4.3,1.4c0.2,0.2,0.3,0.5,0.4,0.7C67.5,10.7,66,10,64.4,9.3z"/>
	<path d="M69.1,11.4c1.5,0.4,2,1.5,2.2,2.9C70.5,13.3,69.8,12.4,69.1,11.4z"/>
	<path d="M71.2,29.6c0.4-1,0.8-2.1,1.1-3.1c0-0.1,0.1-0.1,0.2-0.2c0,0.1,0.1,0.2,0.1,0.3C72.7,27.9,72.2,28.9,71.2,29.6L71.2,29.6z"
		/>
	<path d="M18.9,14.2c-0.2-0.4-0.5-0.6-0.5-0.8c0-0.2,0.3-0.4,0.5-0.7c0.2,0.2,0.4,0.4,0.5,0.7C19.4,13.5,19.1,13.8,18.9,14.2z"/>
	<path d="M30.3,17.3C30.2,17.1,30,17,30,16.8c-0.1-0.4,0.4-0.8,0.8-0.7c0.2,0.1,0.3,0.3,0.4,0.5C30.9,16.9,30.6,17,30.3,17.3z"/>
	<path d="M8.1,18c-0.2-0.2-0.5-0.4-0.5-0.5c0.1-0.2,0.3-0.6,0.5-0.6c0.2,0,0.4,0.3,0.6,0.4C8.6,17.5,8.4,17.7,8.1,18z"/>
	<path d="M17.9,26.7c0.3,0.3,0.4,0.5,0.6,0.7c-0.2,0.2-0.4,0.4-0.7,0.4c-0.1,0-0.4-0.2-0.5-0.3C17.5,27.3,17.7,27.1,17.9,26.7z"/>
	<path d="M29.6,21.5c-0.2-0.4-0.4-0.6-0.4-0.9c0-0.2,0.3-0.3,0.5-0.5c0.1,0.2,0.4,0.4,0.4,0.7C30.1,21,29.9,21.2,29.6,21.5z"/>
	<path d="M54.6,11.8c0.2,0.1,0.5,0.1,0.7,0.2c0.1,0.1,0.2,0.3,0.3,0.4c-0.2,0-0.3,0.1-0.5,0.1c-0.2,0-0.4-0.2-0.6-0.3
		c-0.1,0-0.2-0.1-0.3-0.2C54.3,11.9,54.5,11.8,54.6,11.8z"/>
	<path d="M29.3,27.9c0.2,0.2,0.5,0.5,0.4,0.6c-0.1,0.2-0.3,0.3-0.5,0.5c-0.1-0.2-0.4-0.3-0.4-0.5C28.9,28.3,29.1,28.1,29.3,27.9z"/>
	<path d="M71.3,29.7c-0.2,0.4-0.4,0.7-0.6,1c-0.1,0.2-0.4,0.2-0.6,0.3c0.1-0.2,0.1-0.4,0.2-0.5C70.6,30.2,70.9,29.9,71.3,29.7
		C71.2,29.6,71.3,29.7,71.3,29.7z"/>
	<path d="M12.4,15.5c-0.2,0.2-0.5,0.3-0.7,0.5c-0.1-0.1-0.2-0.2-0.2-0.3c0.2-0.2,0.5-0.4,0.7-0.6C12.3,15.2,12.3,15.3,12.4,15.5z"/>
	<path d="M14.2,25.8c-0.1-0.2-0.2-0.3-0.1-0.5c0-0.2,0.1-0.4,0.2-0.6c0.2,0.1,0.4,0.2,0.4,0.4c0,0.1-0.1,0.4-0.2,0.5
		C14.4,25.7,14.3,25.8,14.2,25.8z"/>
	<path d="M67.3,32.2c0.2-0.1,0.4-0.3,0.6-0.4c0.3-0.1,0.6-0.2,1-0.2c0,0,0,0.1,0.1,0.1c-0.4,0.2-0.7,0.3-1.1,0.5
		C67.7,32.2,67.5,32.2,67.3,32.2L67.3,32.2z"/>
	<path d="M11.3,22.5c0.2,0.2,0.4,0.4,0.4,0.4c-0.1,0.2-0.3,0.4-0.5,0.6c0,0-0.3-0.2-0.3-0.3C10.9,23,11.1,22.8,11.3,22.5z"/>
</g>
</svg>
