<?xml version="1.0" encoding="iso-8859-1"?>
<!-- Generator: Adobe Illustrator 25.3.0, SVG Export Plug-In . SVG Version: 6.00 Build 0)  -->
<svg version="1.1" id="Calque_1" xmlns="http://www.w3.org/2000/svg" xmlns:xlink="http://www.w3.org/1999/xlink" x="0px" y="0px"
	 viewBox="0 0 86 24.8" style="enable-background:new 0 0 86 24.8;" xml:space="preserve">
<g>
	<path d="M1.1,0.8c0.2-0.2,0.4-0.6,0.7-0.7C3.1-0.1,4.3,0,5.5,0.5c2,0.8,4.1,1.6,6.1,2.4c2.5,0.9,5.2,1.1,7.8,0.8
		c3.4-0.3,6.8-0.2,10.2-0.3c3.8-0.1,7.5,0,11.3-0.4c3.7-0.4,7.3-0.2,10.9-0.3c3.3-0.1,6.7-0.2,10-0.4c0.2,0,0.4,0,0.5,0
		C66.5,1,70.8,1.5,75,1.8c1,0.1,1.9-0.1,2.9,0.1c1.5,0.2,3,0.4,4.4,0.7c1.7,0.4,2.7,1.6,3.2,3.3c0.8,2.4,0.7,4.6-0.9,6.7
		c-0.3,0.4-0.6,0.8-1,1c-1.8,1-3.3,2.3-5.3,2.8c-1,0.3-2,0.4-3,0.6c-1.6,0.3-3.2,0.5-4.7,0.8c-0.5,0.1-1,0.4-1.5,0.6
		c-2.3,1.1-4.6,2.3-7,3.3c-2.6,1.1-5.2,1.6-8,0.8c-0.4-0.1-0.8,0-1.3-0.1c-4.2-0.1-8.3-0.5-12.4-1.5c-1.2-0.3-2.3-0.9-3.5-1.3
		c-0.6-0.3-1.1-0.4-1.9-0.2c-1.9,0.4-3.9,0.6-5.8,0.9c-0.5,0.1-1,0.2-1.6,0.3c-2.4,0.5-4.8,0.4-7.1,0.3c-1.8-0.1-3.5-0.4-5.3-0.8
		c-2.5-0.6-5.1-0.6-7.6-0.5c-0.7,0-1.5,0.4-2.2,0.7c-0.7,0.3-1.1,0.9-1,1.5c0.1,0.5,0.6,0.9,1.1,1.2c0.7,0.5,1.6,0.3,2.4,0.2
		c1.7-0.4,3.4-0.5,5,0.5c0.9,0.5,1.8,0.4,2.7,0c1.8-0.7,3.7-0.6,5.6-0.1c0.2,0,0.3,0.2,0.4,0.2c-0.2,0.1-0.4,0.2-0.6,0.2
		c-0.5-0.1-1-0.3-1.6-0.3c-1.1-0.1-2.3,0-3.3,0.5c-1.5,0.7-3,0.8-4.3-0.4c-0.3-0.3-0.9-0.4-1.3-0.4c-1,0.1-2,0.1-3,0.4
		c-1.1,0.4-2,0-2.9-0.5c-1.5-0.7-1.6-2-0.5-3.2c1.2-1.2,2.8-1.5,4.4-1.6c2.8-0.2,5.5,0.3,8.1,0.9c1.9,0.4,3.7,0.8,5.6,0.9
		c1.5,0.1,3-0.2,4.4-0.4c3.1-0.5,6.2-1,9.3-1.7c1.6-0.3,3.2-0.8,4.9-0.7c1.2,0.1,2.4,0.2,3.5,0.4c2.3,0.3,4.7,0.8,7,1
		c3,0.3,6.1,0.2,8.9-1.3c1.2-0.6,2.5-1.2,3.6-2c1.4-1,2.9-1.5,4.6-1.8c2.9-0.4,5.9-0.9,8.8-1.4c1.7-0.3,3.3-0.9,4.9-1.5
		c0.8-0.3,1.6-0.8,1.4-1.9C83.8,8,83.5,7,82.3,6.7C80.9,6.3,79.5,6,78.1,6c-3.7-0.1-7.3,0-11-0.1c-2.3,0-4.6-0.2-7-0.4
		c-1.3-0.1-2.4,0-3.5,1c-0.5,0.5-1.4,0.4-2.2,0.6c-2.4,0.6-4.8,0.7-7.2,1C43.8,8.5,40.3,8.4,37,9.2c-0.5,0.1-1,0.3-1.5,0.5
		c-3.3,1.4-6.8,2-10.3,2.6c-2.2,0.4-4.4,0.2-6.6-0.4c-1.7-0.5-3.5-0.8-5.2-1.2c-0.2,0-0.4,0-0.5,0c-2-0.1-4.1-0.2-6.1-0.4
		C4.4,10,2.4,9,0.8,7.3C0.6,7,0.5,6.8,0.4,6.5c0-0.1,0.1-0.3,0.1-0.5c0,0,0.2,0,0.3,0.1C1,6.2,1.1,6.3,1.2,6.4
		c1.2,1.4,2.9,1.8,4.7,1.8c0.9,0,1.8,0,2.7,0c0.2,0,0.4,0,0.5-0.1C9,8.1,8.9,8,8.8,7.9C8.1,7.4,7.3,7.1,6.5,6.8
		C6.3,6.7,6.1,6.6,6,6.4C5.2,5.8,4.4,5.3,3.6,4.6C3.3,4.4,3.1,4,2.8,3.8C2.2,3.3,2,2.2,0.9,2.3C0.5,2.3,0,2.4,0,1.8
		c0-0.5,0.3-0.9,0.9-0.9C1,0.9,1,0.9,1.1,0.8C2.8,0.7,3.7,1.5,4.6,3c1.2,2,3.7,2.6,5.7,3.9c0.6,0.4,1.7,0.6,1.3,1.8
		c-0.1,0.2-0.3,0.2-0.6,0.3c0.4,0,0.6-0.3,0.8-0.5c0.7-0.4,1.3,0.1,1.9,0.3c2.6,1.1,5.1,1.9,8,2.1c4.2,0.2,8-1,11.9-2.2
		c3.6-1.2,7.2-1.7,10.9-1.8c3-0.1,6-0.5,8.9-0.9c0.7-0.1,1.4-0.1,1.9-0.5c2.3-1.5,4.9-1.4,7.5-1.4c4.2-0.1,8.3-0.3,12.5-0.1
		c2.6,0.1,5.2,0.1,7.7,1c0.1,0,0.2,0.1,0.3,0.2c-0.1-0.1-0.3-0.2-0.4-0.3c-0.6-0.3-1.3-0.6-2-0.6c-5.1-0.5-10.2-0.6-15.3-0.3
		c-0.4,0-0.8,0.1-1.3,0c-7.6-0.2-15.2,0.3-22.8,0.5c-7.7,0.2-15.4,0.5-23.2,0.8c-2.8,0.1-5.6-0.1-8.2-1.4c-1-0.5-2-0.9-3.1-1.1
		c-0.4-0.1-0.7,0-1.1,0C5.1,2.3,4.1,2.1,3.5,1.4C2.8,0.5,1.9,1.3,1.1,0.8z"/>
	<path d="M7.6,3C6.7,2.9,6.3,2.4,6,1.7c0.3,0.1,0.6,0.2,0.9,0.3C7.1,2.3,7.3,2.7,7.6,3z"/>
	<path d="M26.4,9c0,0.7-0.1,1.2-0.8,1.1c-0.5-0.1-1-0.4-1.3-0.7c-0.2-0.2,1.2-1.2,1.6-1C26.1,8.5,26.3,8.9,26.4,9z"/>
	<path d="M20.4,9.9c-0.3,0.2-0.6,0.4-0.9,0.6c-0.1-0.1-0.2-0.3-0.2-0.3c0.3-0.2,0.6-0.5,0.9-0.7C20.3,9.6,20.3,9.7,20.4,9.9z"/>
	<path d="M9,4.1C8.3,4.1,7.9,3.6,7.6,3C8.3,3,8.8,3.4,9,4.1z"/>
	<path d="M10.5,5.2C9.7,5.2,9.3,4.8,9,4.1C9.8,4.1,10.2,4.6,10.5,5.2z"/>
</g>
</svg>
