<?xml version="1.0" encoding="iso-8859-1"?>
<!-- Generator: Adobe Illustrator 25.3.0, SVG Export Plug-In . SVG Version: 6.00 Build 0)  -->
<svg version="1.1" id="Calque_1" xmlns="http://www.w3.org/2000/svg" xmlns:xlink="http://www.w3.org/1999/xlink" x="0px" y="0px"
	 viewBox="0 0 64.5 40.7" style="enable-background:new 0 0 64.5 40.7;" xml:space="preserve">
<g>
	<path d="M9.4,23.7c0.4-0.2,0.9-0.6,1.3-0.7c1.2-0.2,2.4-0.2,3.5-0.5c3.3-0.6,6.6-0.3,9.8-0.3c0.7,0,1.3-0.2,1.7-0.8
		c0.3-0.3,0.5-0.7,0.7-1c0.4-0.5,0.9-1.1,1.3-1.6c-0.7-0.1-1.4-0.3-2.1-0.4c-0.7-0.1-1.3-0.1-2-0.1c-2.5,0.1-4.8-0.6-7.3-0.9
		c-0.6-0.1-1.1-0.4-1.7-0.6c-1.4-0.4-2.9-0.8-4.3-1.1c-2.1-0.4-4-1.3-5.8-2.3c-0.5-0.3-0.9-0.7-0.8-1.5c0.2-0.6-0.2-1.3,0.8-1.7
		c1.2-0.5,2.2-1.2,3.4-1.6c2.5-0.9,5-1.6,7.5-2.3c2-0.6,4-1,6.1-1.1c2.3-0.1,4.6-0.3,7-0.3c0.6,0,1-0.3,1.3-0.8
		c0.5-0.8,1-1.6,1.6-2.4C32,1.5,32.4,1,32.8,0.6c0.6-0.7,1.4-0.8,2.1-0.4c1.6,0.9,3.2,1.8,4.7,2.9c1.3,0.9,1.1,1.7-0.5,2.4
		c-0.1,0.1-0.2,0.2-0.4,0.2C38.9,5.9,39,6,39.1,6.1c1.5,0.2,3,0.3,4.4,0.4c0.9,0.1,1.8,0.2,2.7,0.3c0.3,0,0.7,0,1-0.1
		C48,6.3,48.8,6,49.6,5.7C51.1,5,52,5.5,52.2,7.1c0.1,0.8,0.4,0.8,1,0.7C56,7.4,58.5,6.2,61,5.1c0.4-0.2,0.8-0.3,1.2-0.4
		c1.5-0.5,2.5,0.3,2.3,1.8c-0.1,0.6-0.2,1.3-0.4,1.9c-0.6,2.1-0.3,4.1,0.1,6.1c0,0.1,0.1,0.2,0.1,0.3c0.1,1.6-0.8,2.4-2.3,1.9
		c-2.2-0.7-4.4-1.6-6.6-2.3c-0.4-0.1-0.8-0.3-1.2-0.4c-0.8-0.1-0.9,0-1,0.8c-0.1,0.9-0.2,1.9-0.4,2.8c-0.1,0.9-0.7,1.3-1.6,1.3
		c-0.6,0-1.2-0.1-1.8-0.3c-1.4-0.4-2.7-0.9-4.1-1.3c-0.4-0.1-1-0.3-1.4-0.1c-1.1,0.4-2.2,0.6-3.3,0.6c-0.5,0-1,0.1-1.3,0.4
		c-0.2,0.2,0.3,0.8,0.3,1.2c0,0.6,0.1,1.3-0.1,1.9c-0.4,1.1-0.7,1.2-1.6,0.5c-0.8-0.6-1.6-1.4-2.3-2.2c-0.6-0.7-1.1-1.2-2.2-1.2
		c-2.1,0.1-2.1,0-1.3,2c0.2,0.4,0.4,0.9,0.3,1.3c-0.3,0.8-0.3,0.8,0.6,0.9c1.3,0.2,2.7,0.6,4,0.6c2.5,0,4.8,0.5,7.3,0.8
		c0.7,0.1,1.4,0,2.2,0.1c0.4,0,0.9,0.2,1.1,0.5c0.3,0.6,0.8,0.5,1.4,0.6c4.2,0.5,7.7-1.2,11.2-3c0.1-0.1,0.2-0.2,0.3-0.2
		c0.6-0.2,1.2-0.4,1.8-0.6c0,0.9-0.4,1.4-1.2,1.7c-1.6,0.1-2.4,1.4-3.5,2.2c-1,0.8-0.1,4.6,1.1,5.3c0.1,0,0.1,0.1,0.2,0.2
		c-0.1-0.1-0.2-0.3-0.3-0.4c-1.9-2.8-1.1-5.7,2-7.2c0.2-0.1,0.3-0.1,0.5,0c-0.1,0.3-0.1,0.6-0.2,0.8c-0.4,0.7-0.8,1.3-1.3,1.9
		c-0.7,1.1-0.8,2.2,0,3.3c0.8,1.2,1.6,2.5,2.3,3.8c0.1,0.1,0.1,0.4,0.1,0.4c-0.1,0.1-0.4,0.2-0.5,0.1c-0.8-0.3-1.5-0.6-2.3-1
		c-1.2-0.6-2.3-1.3-3.4-2c-1.6-0.9-3.3-1-5.1-0.8c-1.5,0.2-2.4,0.7-3,1.9c-0.3,0.6-0.6,1.1-0.9,1.7c-0.2,0.5-0.3,1-0.5,1.5
		c-0.3,0.8-0.6,0.9-1.4,0.5c-1.1-0.6-2.2-1.2-3.3-1.8c-0.4-0.3-0.7-0.4-1.3-0.3c-2,0.5-3.9,0.9-5.9,1.2c-1.2,0.2-2.4,0.1-3.6,0.1
		c-0.6,0-1.1,0.1-0.4,0.9c0.2,0.2,0.2,0.7,0.1,1c-0.4,1.1-0.8,2.1-1.2,3.1c-0.5,1.1-0.8,1.2-1.5,0.3c-0.7-0.9-1.2-2-1.8-3
		c-0.2-0.3-0.3-0.6-0.4-1c-0.4-1-1.1-1.5-2.2-1.4c-0.2,0-0.4,0-0.5,0c-4.6,0.3-8.8-1-13-2.5c-2.1-0.8-4.2-1.6-6.3-2.4
		c-1-0.4-2-1-2.9-1.7c-1-0.7-0.9-1.5,0.2-2c1-0.5,2-1,3.1-1.3c0.9-0.3,1.8-0.6,2.7-0.8C7.6,23.8,8.5,23.8,9.4,23.7
		c0.1,0.9-0.9,0.3-1.1,0.7c-0.9,0.9-2.2,1.6-2.6,3c-0.3,0.8-1.1,1.1-1.9,0.7c-0.2-0.1-0.3-0.2-0.4-0.3c0.1,0.1,0.3,0.2,0.4,0.3
		c0.7,0.4,1.4,0.6,2.2,0.7c0.6,0.1,1.1,0,1.4-0.6c0.4-0.8,0.5-2,2-1.2c0.1,0.1,0.3,0.1,0.2,0c0-0.2-0.2-0.4-0.4-0.6
		c-0.6-0.6-1.7-1-0.7-2.1c1.7,0,3.5-0.2,4.5,1.6c0,0.2,0,0.4-0.1,0.6c-0.7,2.3-0.5,2.7,1.8,3.2c0.8,0.2,1.5,0.3,2.2,0.7
		c0.6,0.3,1,0.7,0.9,1.4c0,0.7-0.4,1.1-1.1,1.2c-0.2,0-0.3,0-0.5,0c0.1,0,0.2,0,0.4,0c3.3-0.1,6.6,1.3,9.9,0c0.3-0.1,0.7-0.1,1.1,0
		c5.4,0.9,10.5-0.1,15.4-2.2c3.3-1.5,6.7-2.5,10.4-2.1c0.8,0.1,1.8,0.2,1.7-1c-0.1-1.2-0.9-1.1-1.8-1c-3.9,0.3-7.7-0.6-11.5-1.1
		c-8.6-1.2-17.2-2-25.9-1.6c-1.3,0.1-2.6,0.4-3.9,0.5C10.9,24.5,10,24.6,9.4,23.7z"/>
	<path d="M38.9,27.6c1.8,0,3.7,0,5.5,0c0.2,0,0.5,0.1,0.7,0.1c-0.2,0.1-0.4,0.2-0.6,0.2c-3.8,0-7.5,0-11.3,0c-0.2,0-0.4-0.1-0.6-0.2
		c0.2,0,0.4-0.1,0.7-0.1C35.2,27.6,37,27.6,38.9,27.6C38.9,27.6,38.9,27.6,38.9,27.6z"/>
	<path d="M52.1,27.3c1.1,0,2.1,0,3.2,0c0.1,0,0.3,0.2,0.4,0.3c-0.1,0.1-0.2,0.3-0.3,0.3c-1.1,0-2.3,0.1-3.4,0c-1,0-2-0.2-3-0.3
		c-0.2,0-0.3-0.1-0.5-0.1c0.2-0.1,0.4-0.2,0.6-0.2C50.1,27.3,51.1,27.3,52.1,27.3C52.1,27.3,52.1,27.3,52.1,27.3z"/>
	<path d="M21,27.6c-0.1,0.1-0.2,0.2-0.2,0.2c-0.9-0.1-1.9-0.2-2.8-0.3c-0.1,0-0.1-0.2-0.1-0.2c0-0.1,0.2-0.2,0.2-0.2
		c0.9,0.1,1.9,0.2,2.8,0.3C20.9,27.3,21,27.5,21,27.6z"/>
	<path d="M12.6,26.2c0.9,0.1,1.7,0.2,2.6,0.3c0.2,0,0.3,0.1,0.5,0.2c-0.1,0.1-0.3,0.2-0.4,0.2C14.3,26.9,13.3,26.9,12.6,26.2
		L12.6,26.2z"/>
	<path d="M23.8,28c-0.5-0.1-1-0.1-1.5-0.2c0.5-0.1,1.1-0.2,1.6-0.2c0.5,0,0.9,0,1.4,0c0.1,0,0.3,0.1,0.4,0.2
		c-0.2,0.1-0.3,0.1-0.5,0.1C24.7,28,24.2,28,23.8,28C23.8,28,23.8,28,23.8,28z"/>
	<path d="M29.5,28.3c-0.4,0-0.7,0-1.1,0c-0.2,0-0.3-0.1-0.5-0.2c0.2-0.1,0.3-0.2,0.5-0.2c0.4,0,0.7,0,1.1,0c0.5,0,1.1,0.1,1.6,0.2
		C30.5,28.3,30,28.3,29.5,28.3C29.5,28.4,29.5,28.3,29.5,28.3z"/>
</g>
</svg>
