<?xml version="1.0" encoding="iso-8859-1"?>
<!-- Generator: Adobe Illustrator 25.3.0, SVG Export Plug-In . SVG Version: 6.00 Build 0)  -->
<svg version="1.1" id="Calque_1" xmlns="http://www.w3.org/2000/svg" xmlns:xlink="http://www.w3.org/1999/xlink" x="0px" y="0px"
	 viewBox="0 0 70.7 49.3" style="enable-background:new 0 0 70.7 49.3;" xml:space="preserve">
<g>
	<path d="M59.5,20.7c0.7-1.7,1.5-3.4,2.1-5.2c0.7-2.2,1.2-4.6,1.6-6.9c0.3-1.6,0.4-3.2,0.6-4.7c0-0.2,0.3-0.4,0.4-0.7
		c0,0.2,0.1,0.4,0.1,0.6c0.1,2.9-0.6,5.7-1.3,8.5c-0.4,1.6-0.9,3.2-1.3,4.8c0,0.2,0,0.3,0.1,0.5c0.1-0.1,0.3-0.2,0.3-0.4
		c0.4-1,0.7-2,1-3c0.4-1.3,0.9-2.7,1.3-4c0.1,0.1,0.1,0.1,0.2,0.2c-0.2,1.1-0.3,2.2-0.7,3.3c-1.3,4.4-3.1,8.7-5.1,12.9
		c-0.1,0.2-0.2,0.4-0.3,0.6c0,0.1,0,0.3,0,0.5c0.1-0.1,0.3-0.2,0.4-0.4c0.9-1.8,1.8-3.6,2.7-5.5c0.4-0.9,0.9-1.8,1.3-2.7
		c0.1-0.1,0.2-0.1,0.3-0.2c0,0.1-0.1,0.2-0.1,0.3c-0.4,1.1-0.7,2.2-1.2,3.3c-0.4,0.9-0.8,1.8-1.2,2.7c-0.1,0.1,0,0.3,0,0.5
		c0.1-0.1,0.3-0.2,0.4-0.3c0.7-1.2,1.4-2.3,2-3.6c0.8-1.5,1.4-3.1,2.2-4.6c0.2-0.4,0.4-0.7,0.6-1.1c0.1,0,0.2-0.2,0.3-0.1
		c0,0,0,0.2-0.1,0.3c-0.2,0.8-0.4,1.6-0.8,2.3c-1.3,2.7-2.8,5.3-4.1,7.9c-0.1,0.1-0.1,0.3-0.1,0.5c0.2-0.1,0.4-0.1,0.5-0.3
		c1.6-2.6,3.2-5.2,4.8-7.7c0.3-0.6,0.7-1.1,1-1.7c0.1-0.1,0.2-0.1,0.3-0.2c0,0.2,0.1,0.4,0.1,0.5c-0.3,0.7-0.7,1.3-1.1,2
		c-1.8,3.6-4.2,6.9-6.5,10.2c-0.6,0.8-0.8,1.5-0.3,2.5c0.6,1.1,0.3,2.2-0.7,3c-0.9,0.8-1.8,1.6-2.8,2.1c-1.3,0.7-2.3,1.6-3.2,2.7
		c-1.8,2.1-3.8,4.2-6.1,5.7c-1.5,1-3.1,1.9-4.7,2.9c-0.3,0.2-0.7,0.3-1,0.4c-0.3,0-0.6-0.2-0.4-0.6c0.4-0.7,0.9-1.3,1.4-1.9
		c0.6-0.7,1.2-1.3,1.8-2c0.1-0.1,0.1-0.3,0.1-0.4c-0.2,0-0.4-0.1-0.5,0c-1.7,0.4-3.3,0.8-5,1.2c-0.5,0.1-1.1,0.2-1.6,0.2
		c-3.2,0-6.5,0.1-9.7,0c-1.8-0.1-3.5-0.4-5.3-0.6c-1.4-0.2-2.7-0.3-4.1-0.4c-2.5-0.3-4.8-1-6.9-2.2c-2.6-1.4-2.9-2.3-0.7-4.3
		c0.7-0.6,1.4-1.3,2-2c0.1-0.1,0.1-0.2,0.2-0.3c-0.1,0-0.2-0.1-0.3-0.1c-0.5,0.1-1,0.2-1.5,0.3c-0.8,0.2-1.6,0.5-2.4,0.8
		c-2.8,0.8-5-0.1-7-1.9c-1.6-1.4-1.7-4.7,0.4-6.3c1.9-1.5,4-1.9,6.4-1.4c1.2,0.3,2.4,0.6,3.5,1.2c0.2,0.1,0.4,0.3,0.7,0.3
		c0.5,0,0.9,0,1.4,0c-0.2-0.4-0.3-0.8-0.6-1.1c-0.4-0.5-1-0.9-1.4-1.4c-0.8-0.9-0.8-1.6-0.1-2.5c1.1-1.2,2.3-2.3,3.9-2.8
		c0.7-0.2,1.5-0.5,2.2-0.8c2-0.8,4-1.1,6.1-1.3c2.1-0.3,4.2-0.7,6.3-0.9c1.5-0.2,3-0.2,4.5,0c2.8,0.3,5.6,0.5,8.2,1.4
		c2.7,0.8,5.3,1.7,8,2.6c0.6,0.2,1.1,0.7,1.6,1.1c0.1,0.1,0.2,0.2,0.3,0.4c0-0.2,0.1-0.4,0.1-0.5c0-2.4,0.1-4.8,0-7.1
		c-0.1-2.1-0.5-4.2-0.8-6.3c-0.1-0.7-0.2-1.4-0.3-2.1c0.1-0.1,0.1-0.1,0.2-0.2c0.8,2.2,1.2,4.5,1.4,6.9c0,0.2,0.2,0.4,0.2,0.6
		c0.1-0.2,0.3-0.3,0.3-0.5c-0.1-1.8-0.3-3.5-0.4-5.3C53.1,7.8,53,6.9,53,6.1L53.1,6c0.2,0.9,0.5,1.8,0.6,2.7c0.2,1.6,0.4,3.3,0.4,5
		c0.1,2.7,0,5.4,0,8c0,0.2,0,0.3,0.1,0.5c0.1-0.2,0.1-0.4,0.2-0.5c0.6-4.4,0.3-8.8,0.3-13.2c0-1.6-0.4-3.2-0.6-4.7
		c-0.1-1.1-0.3-2.1-0.4-3.1c0-0.2,0.2-0.4,0.3-0.6c0.2,0.1,0.4,0.3,0.4,0.4c0.2,1.4,0.3,2.8,0.4,4.2c0.2,2.1,0.6,4.1,0.6,6.2
		c0.1,2.5,0.4,5.1-0.2,7.6c-0.1,0.5-0.1,0.9-0.1,1.4c0,0.3,0.1,0.6,0.1,0.9c0.1-0.3,0.1-0.5,0.2-0.8c1.1-5.5,0.6-11,0.7-16.5
		c0-0.9-0.3-1.7-0.3-2.6c0-0.2,0.2-0.5,0.2-0.8c0.1,0.2,0.2,0.4,0.2,0.6c0.1,1.2,0.3,2.5,0.4,3.7c0.1,1.8,0.2,3.7,0.3,5.5
		c0,0.6-0.1,1.2-0.1,1.8c-0.1,1.6-0.1,3.2-0.1,4.8c0,0.1,0.1,0.2,0.1,0.3c0.1-0.1,0.1-0.3,0.1-0.4c0.2-2.1,0.3-4.3,0.8-6.3
		C58,8.4,58,6.7,58,5c0-0.9-0.2-1.8-0.3-2.6c0-0.6-0.1-1.2,0-1.8c0-0.1,0.2-0.2,0.3-0.4c0.1,0.1,0.2,0.2,0.2,0.3
		c0.4,3.2,0.8,6.4,0.1,9.6c-0.1,0.3,0,0.6,0,0.9c0.1,3.5-0.6,6.8-1.3,10.2c-0.1,0.5-0.1,0.9-0.1,1.4c0.2-0.4,0.4-0.8,0.5-1.3
		c0.6-2.6,1.2-5.3,1.8-7.9c0.3-1,0-2.1,0.7-3l0.1,0.1c0.1,2.7-0.6,5.4-1.1,8c-0.1,0.3-0.2,0.6-0.2,0.8c0,0.3,0,0.6,0,0.9
		c0.1-0.2,0.2-0.5,0.3-0.7c1-3.1,1.7-6.4,2.4-9.6c0.4-1.7,0.3-3.4,0.3-5.1c0-0.4-0.1-0.7,0-1.1c0.1-0.4,0.3-0.9,0.5-1.3
		c0.1,0.4,0.3,0.8,0.3,1.2c0.2,2.6-0.4,5.2-0.8,7.7c-0.4,2.7-1.1,5.3-2,7.9C59.5,19.6,59.5,20.2,59.5,20.7c-0.2,0.2-0.1,0.6-0.3,0.8
		C59.3,21.2,59.3,20.9,59.5,20.7z"/>
	<path d="M59.8,10.3c0.1-1.2,0.3-2.3,0.3-3.5c0-1.8,0-3.5-0.1-5.3c0-0.2-0.1-0.4-0.1-0.5c0-0.1,0.2-0.3,0.3-0.4c0,0,0.3,0.1,0.3,0.2
		c0.1,0.2,0.1,0.5,0.1,0.7c0,1.7,0.1,3.3,0,5c-0.1,1.2-0.3,2.4-0.5,3.7C60.1,10.2,60,10.3,59.8,10.3L59.8,10.3z"/>
	<path d="M53,6.1c-0.2-0.6-0.4-1.3-0.6-1.9c-0.2-1.2-0.3-2.4-0.5-3.6c0-0.1,0.2-0.2,0.2-0.3c0.1,0.1,0.1,0.2,0.2,0.3
		c0.4,1.8,0.9,3.6,0.8,5.5L53,6.1z"/>
	<path d="M51.5,7.2C51,5.4,50.5,3.7,50.1,2c0-0.1,0.1-0.3,0.2-0.5c0.1,0.1,0.2,0.2,0.3,0.4c0.6,1.7,1.1,3.3,1.1,5.1
		C51.6,7.1,51.5,7.1,51.5,7.2z"/>
	<path d="M64.4,10.2c0.2-1.6,0.3-3.3,0.5-4.9c0-0.2,0.3-0.3,0.4-0.5c0.1,0.2,0.3,0.3,0.3,0.5c-0.2,1.7-0.3,3.5-1,5.1
		C64.6,10.3,64.5,10.3,64.4,10.2z"/>
	<path d="M67.9,10.7c-0.1,2.1-0.8,4-1.8,5.7c-0.1-0.1-0.1-0.1-0.2-0.2c0.6-1.9,1.2-3.8,1.8-5.7C67.7,10.6,67.8,10.7,67.9,10.7z"/>
	<path d="M63,19.2c0.6-1.5,1.2-3.1,1.8-4.6c0.1-0.1,0.2-0.1,0.3-0.2c0,0.1-0.1,0.2-0.1,0.3c-0.4,1.6-0.8,3.3-1.8,4.7
		C63.1,19.3,63.1,19.2,63,19.2z"/>
	<path d="M64.8,14.5c0.2-0.9,0.3-1.7,0.5-2.6c0.1-0.4,0.4-0.7,0.6-1.1c0,0.4,0.2,0.8,0.1,1.2c-0.3,0.9-0.6,1.7-1,2.6
		C64.9,14.6,64.9,14.6,64.8,14.5z"/>
	<path d="M66.1,8c0.2-0.6,0.4-1.2,0.7-1.7c0,0,0.1,0,0.1,0c0.3,0.6,0.1,1.2-0.1,1.8c-0.1,0.2,0,0.5-0.1,0.7c0,0.1-0.2,0.2-0.3,0.3
		c0-0.1-0.1-0.2-0.1-0.3c0-0.2,0-0.5,0-0.7C66.2,8,66.2,8,66.1,8z"/>
	<path d="M70.7,10.4c-0.1,0.4-0.2,0.8-0.4,1.3c-0.1,0.4-0.4,0.7-0.6,1c0-0.4,0-0.8,0.1-1.1c0.1-0.4,0.3-0.9,0.4-1.3
		c0-0.1,0.2-0.1,0.2-0.2C70.6,10.2,70.6,10.3,70.7,10.4z"/>
	<path d="M67.7,10.6C67.8,9.8,68,9,68.1,8.2c0-0.1,0.1-0.1,0.2-0.2c0.1,0.1,0.2,0.2,0.2,0.3c-0.2,0.8-0.4,1.6-0.7,2.4
		C67.8,10.7,67.7,10.6,67.7,10.6z"/>
	<path d="M68.3,16.3c-0.1-0.1-0.2-0.2-0.2-0.3c0.2-0.6,0.5-1.3,0.8-1.9c0,0,0.1-0.1,0.1-0.1c0.1,0.1,0.2,0.2,0.2,0.3
		c-0.2,0.6-0.5,1.3-0.8,1.9C68.4,16.2,68.3,16.2,68.3,16.3z"/>
</g>
</svg>
