<?xml version="1.0" encoding="iso-8859-1"?>
<!-- Generator: Adobe Illustrator 25.3.0, SVG Export Plug-In . SVG Version: 6.00 Build 0)  -->
<svg version="1.1" id="Calque_1" xmlns="http://www.w3.org/2000/svg" xmlns:xlink="http://www.w3.org/1999/xlink" x="0px" y="0px"
	 viewBox="0 0 66.8 56.2" style="enable-background:new 0 0 66.8 56.2;" xml:space="preserve">
<g>
	<path d="M47.3,50.3c-1.4-0.1-2.5-0.2-3.7-0.4c-0.5-0.1-1-0.2-1.1,0.6c-0.1,0.5-0.4,0.5-0.8,0.3c-0.7-0.4-1.4-0.7-2.1-1
		c-0.4-0.2-0.7-0.2-0.5,0.4c0.1,0.2,0,0.4,0,0.6c-0.3-0.1-0.5-0.1-0.8-0.2c-0.2-0.1-0.3-0.2-0.4-0.4c-0.4-0.4-0.7-0.4-0.8,0.2
		c-0.3,0.9-0.3,0.8-1,0.5c-1.2-0.7-1.6-1.9-2.3-2.9c-0.3-0.4-0.4-0.5-1-0.4c-2,0.1-3.9,0.4-5.9-0.2c-0.5-0.2-1.1,0-1.6,0
		c-0.1,0-0.2,0.1-0.3,0.1c0.1,0.1,0.2,0.1,0.3,0.2c1.6,0.5,2.4,1.9,3.2,3.2c0.9,1.5,1.7,3.1,2.5,4.6c0.1,0.2,0,0.4,0,0.6
		c-0.2,0-0.5,0.1-0.6,0c-0.8-0.3-1.5-0.8-2.2-1.1c-0.6-0.2-1.1-0.9-2-0.6c-0.2,0.1-0.5-0.2-0.7-0.4c-1.2-1.1-2.4-2.1-3.6-3.3
		c-1.1-1.1-2.2-2.2-3.1-3.4c-0.6-0.8-1.3-1.4-2.2-1.8c-3.2-1.5-5.9-3.7-8.8-5.8c-1.6-1.2-3.3-2.4-5-3.4c-1.3-0.8-2.2-1.9-2.8-3.1
		c-0.4-0.8-0.3-2.1,0-3.1c0.4-1.6,1.5-3.2,2.8-4c2.7-1.7,4-4.3,5.5-6.9c1.7-2.9,3.9-5.3,6.6-7.4c0.6-0.5,1.4-0.7,2.1-0.9
		c0.9-0.3,1.4-0.7,1.6-1.7C18.9,8.7,19,7.8,20,7.8c0.1,0,0.2-0.5,0.3-0.7c0.4-0.8,0.8-1.6,1.3-2.3c0.1-0.1,0.4-0.1,0.6-0.1
		c0,0,0.1,0.3,0.1,0.5c0,0.3-0.2,0.6-0.2,0.9c0,0.2,0.1,0.3,0.1,0.5c0.1-0.1,0.3-0.2,0.4-0.3c1.1-1.5,2.1-3,3.2-4.5
		c0.3-0.5,0.8-0.9,1.3-1.3c0.2-0.2,0.5-0.2,0.8-0.3c0,0.3,0.1,0.6,0,0.7c-0.5,0.6,0,0.9,0.3,1.2c0.4,0.5,0.7,0.1,1-0.2
		c0,0,0.1-0.1,0.1-0.1c0.2-0.1,0.4-0.1,0.6-0.2c0,0.2,0.2,0.5,0.1,0.6c-0.4,0.6,0,1,0.3,1.4c0.5,0.6,0.9,0.7,1.5,0.3
		c0.2-0.1,0.4-0.1,0.6-0.1c0,0.2-0.1,0.4-0.1,0.6c0,0.5,0.1,1,0.2,1.5c0.2,0.7,0.7,0.9,1.4,0.6c0.2-0.1,0.3-0.2,0.5-0.2
		c0.2,0,0.4,0.1,0.5,0.2c0.1,0.1,0,0.3-0.1,0.5c-0.2,0.3-1,0.4-0.4,1.1c0.4,0.5,0.8,1.1,1.6,0.7c0.2-0.1,0.4,0,0.6,0
		c-0.1,0.2-0.1,0.5-0.3,0.7c-0.4,0.5-0.2,0.9,0.3,1.2c0.6,0.2,0.9,0.6,0.7,1.2c0,0.1,0.4,0.5,0.6,0.4c0.5-0.1,1.3-0.8,1.3,0.5
		c0,0,0.2,0.1,0.3,0c1-0.4,2.1,0,3.1,0.1c0.3,0,0.8,0,1-0.2c1.6-1.1,3.6-1.3,5.3-1.9c2-0.7,4.1-1.2,6.1-2c1.4-0.5,2.6,0.1,3,1.9
		c0.1,0.6,0.1,1.2-0.1,1.8c-0.5,1.6-0.9,3.3-1.8,4.8c-0.4,0.7-0.6,1.5-0.9,2.3c-0.3,1.1-0.5,2.3-0.9,3.4c-0.3,0.7-0.8,1.3-1.3,1.9
		c-0.6,0.6-1.3,0.4-2,0.1c-0.1,0-0.2,0-0.3,0c0.1,0.1,0.1,0.3,0.2,0.4c0.1,0.2,0.3,0.3,0.5,0.5c0.6,0.6,1.2,0.7,1.9,0.2
		c1.9-1.3,3.8-2.7,5.7-3.9c2-1.3,4-2.3,6.5-2c1.1,0.1,1.3,0.3,1.2,1.4c-0.1,0.6-0.2,1.3-0.3,1.9c-0.1,0.6-0.2,1.3-0.1,1.9
		c0.7,3.4,0.4,6.6-0.8,9.8c-0.7,1.8-1.1,3.6-1,5.5c0.1,1.3-0.7,1.8-2,1.3c-2.5-1.1-4.9-2.4-7.1-4.1c-1-0.7-1.9-1.5-2.9-2.1
		c-0.4-0.3-1-0.4-1.5-0.5c-0.3-0.1-0.6,0.1-0.8,0.2c0.2,0.2,0.3,0.4,0.5,0.6c0.5,0.7,1.1,1.3,1.4,2c0.6,1.4,1.1,2.9,1.3,4.4
		c0.2,1.3,0.1,2.8-0.2,4c-0.5,2-1.9,3.4-4.1,3.8C48.5,50.1,47.8,50.2,47.3,50.3z"/>
	<path d="M1.5,29.5c0.1,0,0.1,0,0.2,0c0.5,0.1,1.1-0.3,1.2,0.5c0,0.2-0.2,0.5-0.3,0.5c-0.6,0.2-1.3,0.3-1.5-0.6
		C1.2,29.8,1.4,29.7,1.5,29.5z"/>
	<path d="M6,32.4c-1.7,0-2.7-0.9-2.7-2.4c0.1-1.5,1.3-2.6,2.9-2.6c1.3,0,2.5,1.3,2.5,2.5C8.7,31.2,7.4,32.4,6,32.4z"/>
	<path d="M47.9,29.3c-0.2,0.2-0.4,0.4-0.5,0.4c-1.4-0.5-2.9-1-4-2.1c-0.1-0.1-0.1-0.2,0-0.3c0-0.1,0.2-0.1,0.3-0.1
		c0.3,0.1,0.5,0.3,0.8,0.4c1,0.4,1.9,0.8,2.9,1.3C47.6,29,47.7,29.2,47.9,29.3z"/>
	<path d="M23.3,19c0.6,0.2,1.2,0.3,1.8,0.6c0.3,0.1,0.7,0.5,0.7,0.6c-0.2,0.5-0.6,0.1-0.9,0c-0.6-0.1-1.2-0.3-1.7-0.4
		c-0.2-0.1-0.3-0.3-0.4-0.4C23,19.3,23.1,19.2,23.3,19z"/>
	<path d="M28.7,19.9c0.4,0.2,1.1-0.4,1.5,0.4c-0.5,0.1-1.1,0.2-1.6,0.2c-0.5,0-1,0-1.5,0c-0.1,0-0.2-0.2-0.3-0.3
		c0.1-0.1,0.2-0.3,0.4-0.3C27.6,19.8,28.1,19.9,28.7,19.9z"/>
	<path d="M40.7,25.6c-0.5-0.2-1.1-0.4-1.6-0.7c-0.3-0.2-0.5-0.6-0.7-0.9c0.6-0.4,0.8,0.2,1.1,0.5C40,24.7,40.8,24.7,40.7,25.6
		L40.7,25.6z"/>
	<path d="M19.8,20.2c0.3-0.2,0.6-0.6,0.9-0.7c0.5-0.1,1.2-0.8,1.4-0.1c0.3,0.8-0.7,0.4-1.1,0.6C20.7,20.1,20.3,20.1,19.8,20.2
		C19.9,20.2,19.8,20.2,19.8,20.2z"/>
	<path d="M35.7,21.3c-0.9,0.5-1.3-0.5-2-0.6c0,0,0-0.2,0-0.3c0.1-0.1,0.2-0.2,0.3-0.1C34.6,20.6,35.4,20.4,35.7,21.3L35.7,21.3z"/>
	<path d="M19.9,20.2c-0.1,0.1-0.1,0.2-0.2,0.3c-0.5,0.3-0.5,1.1-1.3,1.1c-0.1,0-0.1-0.1-0.2-0.2c0.5-0.4,0.9-0.8,1.4-1.2
		C19.7,20.1,19.8,20.2,19.9,20.2C19.8,20.2,19.9,20.2,19.9,20.2z"/>
	<path d="M16.2,24c-0.4,0.4-0.8,0.7-1.1,1c0,0-0.2-0.1-0.2-0.2c0-0.4,0.5-1.1,0.9-1.1C15.9,23.8,16,23.9,16.2,24z"/>
	<path d="M37.2,22.3c-0.7,0-1.3-0.2-1.5-1l0,0C36.5,21.2,36.9,21.7,37.2,22.3L37.2,22.3z"/>
	<path d="M37.1,22.3c0.5,0,0.9,0.2,1,0.8c0,0.1-0.2,0.2-0.2,0.2C37.3,23.3,37.1,22.9,37.1,22.3L37.1,22.3z"/>
	<path d="M31.2,19.7c0.2,0.2,0.3,0.3,0.4,0.5c-0.1,0.1-0.3,0.3-0.4,0.3c-0.2-0.1-0.3-0.2-0.5-0.4C30.9,20,31,19.9,31.2,19.7z"/>
	<path d="M32.7,19.7c0.2,0.2,0.3,0.3,0.4,0.4c-0.2,0.1-0.3,0.3-0.5,0.3c-0.1,0-0.2-0.2-0.3-0.3C32.4,20.1,32.5,19.9,32.7,19.7z"/>
	<path d="M40.7,25.6c0.2,0,0.4-0.1,0.5,0c0.2,0.1,0.3,0.3,0.5,0.4c-0.2,0.1-0.5,0.2-0.7,0.2C40.9,26.1,40.8,25.8,40.7,25.6
		L40.7,25.6z"/>
	<path d="M6,28.8c0.5,0,1,0.7,0.9,1.3C6.8,30.6,6.5,31,5.9,31c-0.5,0-1.1-0.6-1.1-1.1C4.9,29.3,5.6,28.7,6,28.8z"/>
</g>
</svg>
