<?xml version="1.0" encoding="iso-8859-1"?>
<!-- Generator: Adobe Illustrator 25.3.0, SVG Export Plug-In . SVG Version: 6.00 Build 0)  -->
<svg version="1.1" id="Calque_1" xmlns="http://www.w3.org/2000/svg" xmlns:xlink="http://www.w3.org/1999/xlink" x="0px" y="0px"
	 viewBox="0 0 82.4 28" style="enable-background:new 0 0 82.4 28;" xml:space="preserve">
<g>
	<path d="M25.7,1.5c0.4-1,1.4-1,2.1-1.4c0.6-0.3,1.1,0.3,1.1,1c-0.2,1.5-0.3,3.1-0.7,4.5C28,6.4,27.3,7,26.9,7.7
		c-0.1,0.2-0.2,0.4-0.4,0.6c0.3,0.1,0.5,0.3,0.8,0.3c0.7,0,1.4-0.1,2.1-0.2c0.6-0.1,1.2-0.1,1.8-0.1c3.4,0,6.7-0.2,10.1,0
		c3.8,0.3,7.5,0.1,11.3,0.4c2.3,0.2,4.6,0,6.8,0.3c2.6,0.4,5.1,0.3,7.7,0.3c1.7,0,3.5-0.4,5.2-0.3c2.8,0.1,5.6,0.5,8.2,1.4
		c0.6,0.2,1.1,0.4,1.6,0.8c0.5,0.3,0.5,0.8,0,1.1c-1.3,0.7-2.7,1.3-4.1,1.8c-1,0.3-2.1,0.3-3.2,0.4c-0.2,0-0.4,0.1-0.7,0.2
		c0.1,0.3,0.1,0.6,0.3,0.8c0.3,0.3,0.7,0.5,1,0.7c1.4,0.8,2.3,2,2.9,3.5c0.2,0.7,0.1,1.3-0.9,1.2c-2.1-0.1-4-0.7-5.8-1.6
		c-1.6-0.8-3.2-1.6-4.8-2.4c-0.5-0.2-0.8-0.4-1.1,0.2c-0.3,0.5-0.9,0.8-1.4,1.1c-2.6,1.4-5.2,2.5-8,3.4c-3.1,1-6.2,2.2-9.3,3.2
		c-2.9,0.9-5.8,1.6-8.7,2.4c-1.2,0.3-2.1-0.5-2.9-1c-0.8-0.5-1.5-1-2.2-1.6C32.3,24,31.4,24,30.6,24c-0.1,0-0.2,0-0.3,0.1
		c0.1,0.1,0.1,0.1,0.2,0.2c1.1,0.3,1.5,1.2,1.8,2.3c0,0.1,0.1,0.1,0.1,0.2c0.2,0.4,0.4,0.8,0.5,1.3c-0.5,0-1,0.1-1.5-0.1
		c-1.4-0.3-2.5-1-3.6-1.9c0,0-0.1-0.1-0.1-0.1c-1.3-1.4-3-2-4.9-2.2c-1.5-0.2-3-0.4-4.6-0.7c-1.1-0.2-2.2-0.3-3.4-0.4
		c-1.5-0.1-3-0.5-4.5-1C8.6,21,6.8,20.6,5,20c-0.7-0.2-0.6,0.2-0.5,0.5c0.1,0.5,0.4,1,0.5,1.5c0,0.1-0.1,0.3-0.1,0.5
		c-0.1-0.1-0.4-0.2-0.4-0.3c-0.2-0.5-0.4-1-0.5-1.5c-0.1-0.3-0.2-0.7-0.4-1c-0.4-0.4-0.9-0.9-1.2-0.8c-0.6,0.2-0.4,0.9-0.3,1.4
		c0.2,0.7,0.5,1.4,0,2.1c-0.2-0.7-0.4-1.3-0.6-2c-0.1-0.5,0-1.1,0-1.6c0-0.2-0.2-0.5-0.3-0.7c-0.2,0.2-0.5,0.5-0.5,0.7
		c0,0.6,0.1,1.3,0.2,1.9c0,0.1-0.1,0.2-0.1,0.3c-0.1,0-0.2-0.1-0.3-0.1c-0.5-0.7-0.6-1.5-0.3-2.2c0.3-0.7,0.3-1.4,0-2.1
		c-0.1-0.2-0.1-0.7,0-0.8c0.6-0.5,0.7-0.8,0.1-1.4c-0.3-0.3,0-0.6,0.3-0.8c0.5-0.4,1.5-0.1,1.5-1c0-0.5-0.4-1.1-0.7-1.6
		c-0.1-0.2-0.2-0.4-0.2-0.7c0-0.1,0.1-0.3,0.2-0.4C1.4,9.9,1.5,9.9,1.6,10c0.3,0.6,0.6,1.2,0.9,1.8c0.3,0.6,0.6,0.7,1.3,0.6
		c3.9-1.1,7.9-2.2,11.8-3.2c1.4-0.4,2.9-0.7,4.3-0.9c0.5-0.1,0.8-0.3,1.1-0.8c0.9-1.5,1.8-2.9,2.9-4.3C24.3,2.5,25,2.1,25.7,1.5
		c0.6,0.6,0.4,1.2,0,1.8c-0.6,0.9-1.2,1.8-1.8,2.6c-0.3,0.4-0.5,0.9-0.1,1.3c0.5,0.5,1,0.2,1.5,0C26.9,6.1,27.2,3,25.7,1.5z"/>
	<path d="M6.3,23.8c0.1-0.1,0.2-0.2,0.3-0.2C7,23.8,7.4,24,7.8,24.3c0.1,0,0.1,0.2,0.1,0.3c-0.1,0.1-0.2,0.1-0.3,0.1
		c-0.4-0.2-0.7-0.4-1.1-0.6C6.4,24,6.4,23.9,6.3,23.8z"/>
	<path d="M3.2,24c0.3,0.3,0.6,0.5,0.9,0.8c0.1,0.1,0.1,0.3,0.2,0.4c-0.2,0-0.5,0-0.6-0.1C3.4,25,3.2,24.7,3,24.4
		C3,24.3,3.1,24.2,3.2,24z"/>
	<path d="M5,13.9c0.7,0,1.3,0.4,1.2,1c0,0.8-0.8,1.7-1.6,1.6c-0.7,0-1.3-0.7-1.3-1.4C3.3,14.4,4,13.9,5,13.9z"/>
</g>
</svg>
