<?xml version="1.0" encoding="iso-8859-1"?>
<!-- Generator: Adobe Illustrator 25.3.0, SVG Export Plug-In . SVG Version: 6.00 Build 0)  -->
<svg version="1.1" id="Calque_1" xmlns="http://www.w3.org/2000/svg" xmlns:xlink="http://www.w3.org/1999/xlink" x="0px" y="0px"
	 viewBox="0 0 79.7 14.5" style="enable-background:new 0 0 79.7 14.5;" xml:space="preserve">
<g>
	<path d="M31.5,0.1c1.7,0,3.1-0.1,4.5,0c1.5,0.2,3.1,0.1,4.7,0.6c0.6,0.2,1.3-0.1,1.9,0c0.8,0.1,1.7-0.5,2.4,0.2
		c0.1,0.1,0.4,0.2,0.7,0.2c3.3,0.4,6.5,1.3,9.8,1.6c2.5,0.2,4.8,1.1,7.2,1.4c0.9,0.1,1.9,0.6,2.6,1.1c1.5,1,3.2,1.1,4.9,1.6
		c0.2,0.1,0.6-0.1,0.8-0.3c0.8-1,1.9-1.3,3.1-1.7c1.1-0.3,2-1,3.1-1.4c0.7-0.3,1.4-0.2,1.6,0.4c1,2.3,1.3,4.7,0.3,7
		c-0.5,1.1-1.1,1.5-2.1,1c-1.8-0.9-3.9-1.4-5.6-2.8c-0.6-0.5-1.2-0.7-2-0.7c-0.9,0-1.8,0-2.7,0c-0.2,0-0.6-0.1-0.7,0
		c-0.7,0.8-1.7,0.7-2.6,0.8c-1.5,0.3-2.9,0.4-4.4,0.5c-1.7,0.1-3.4,0.2-5.1,0.3c-0.5,0-0.9,0.3-1.2-0.3c-0.6-1.2-1.9-0.6-2.8-1
		c-2.8,0.8-5.5,0-8.2-0.8c-1.4-0.4-2.9-0.7-4.3-1.1c-0.1,0-0.3-0.1-0.4,0c-1.3,0.6-2.7,0-4,0c-1.5-0.1-3.1-0.2-4.6-0.4
		c-0.5-0.1-0.9-0.1-1.4,0c-1.9,0.3-3.9,0.5-5.8,0.8c-1.5,0.3-3,0.7-4.5,1.1C15.5,8.8,14.1,9,13,9.9c0,0-0.1,0.1-0.2,0.1
		C11,9.5,10,10.8,8.7,11.6c-1.5,0.8-2.9,1.8-4.4,2.6c-1.1,0.5-2.6,0.2-3.9,0.2C0.3,14.4,0,14,0,13.8c0-0.4,0-0.9,0.2-1.2
		C1.7,10.1,3.5,8,6.5,7.2c1.9-0.5,3.7-1.7,5.5-2.5c4.2-2.1,8.7-3.4,13.3-4.3C27.5-0.1,29.7,0.2,31.5,0.1z"/>
	<path d="M59.4,5.5c0,0.5,0,1,0,1.5c-0.5-0.1-1-0.2-1.5-0.4c-0.1-0.1-0.3-0.4-0.3-0.5c0-0.2,0.2-0.5,0.4-0.5
		C58.5,5.4,59,5.5,59.4,5.5z"/>
</g>
</svg>
