<?xml version="1.0" encoding="iso-8859-1"?>
<!-- Generator: Adobe Illustrator 25.3.0, SVG Export Plug-In . SVG Version: 6.00 Build 0)  -->
<svg version="1.1" id="Calque_1" xmlns="http://www.w3.org/2000/svg" xmlns:xlink="http://www.w3.org/1999/xlink" x="0px" y="0px"
	 viewBox="0 0 79.6 35.8" style="enable-background:new 0 0 79.6 35.8;" xml:space="preserve">
<g>
	<path d="M24.5,34.1c-1-0.6-1.9-1.3-2.7-2.3c-1.4-1.7-3-3.4-4.5-5c-0.5-0.5-1.1-0.8-1.9-0.9c-2-0.3-3.9-0.8-5.9-1.3
		c-1.6-0.4-3.2-0.7-4.6-1.2c-1.6-0.6-3.5-1-4.4-2.8C0.2,20.2,0,19.8,0,19.4c0-1.7,0.7-3.2,2.1-4.1c1.6-1.2,3.5-2,5.4-2.6
		c3.1-1,6.2-2.1,9.2-3.2c0.9-0.3,1.3-1.1,1.6-2c0.6-1.6,1.1-3.2,1.8-4.8c0.3-0.8,0.9-1.5,1.4-2.2C22-0.2,22.8-0.1,23,0.5
		c0.2,0.6,0,1.6,1.2,1.2c0,0.1,0.1,0.3,0.1,0.4C24,3.7,24,3.7,25.5,3.6c0.5,0,0.6,0.1,0.4,0.4c-0.4,0.6-1,1.1,0.4,1.1
		c0.5,0,0.3,0.3,0.2,0.6c-0.1,0.2-0.3,0.7-0.2,0.7c0.3,0.2,0.9,0.3,1,0.6c0.2,0.3,0,0.7,0.6,0.9c0.7,0.3,1.3,1,2,1
		c0.6,0,1.2-0.6,1.9-0.9c0.6-0.3,1.3-0.6,2-0.8C34.3,7.1,35,7,35.7,7c0.8,0,1.5,0.2,2.3,0.3c1.9,0.3,3.9,0.6,5.8,0.9
		c3.6,0.5,7,1.8,10.4,2.9c1.4,0.4,2.7,0.8,4.1,1.2c1.4,0.5,1.5,0.9,0.5,2c-0.2,0.2-0.5,0.4-0.6,0.6c-0.2,0.4-0.4,0.8-0.6,1.2
		c0.5,0,1,0.1,1.4,0c3.3-0.9,6.7-1.6,9.9-2.9c0.5-0.2,1.1-0.4,1.7-0.5c1.9-0.2,3.5,0,4.8,1.6c1.1,1.4,2.4,2.6,3.6,4
		c0.9,1.1,0.9,1.3-0.1,2.2c-1.6,1.6-3.6,2.8-5.8,3.5c-1,0.3-2.2,0.2-3.4,0.2c-0.9-0.1-1.7-0.4-2.6-0.6c-2.6-0.6-5.2-1.4-7.8-1.7
		c-1.7-0.2-3.4,0.1-5.1,0.3c-1.8,0.3-3.6,0.7-5.4,1.1c-0.5,0.1-1,0.4-1.5,0.6c-0.1,0.1-0.2,0.2-0.3,0.4c0.1,0.1,0.3,0.2,0.4,0.2
		c1,0.2,2,0.5,2.9,0.7c2.2,0.4,3.2,2,3.7,3.9c0.6,2.3-1.6,4-3.9,3.2c-0.9-0.3-1.7-0.9-2.6-1.2c-0.5-0.2-1-1-1.7-0.2
		c-0.1,0.1-0.8-0.3-1-0.5c-1.1-1-2.2-2.1-3.6-2.9c-0.8-0.4-1.3-0.7-2.3-0.4c-1.4,0.4-2.9,0.5-4.4,0.4c-2.9,0-5.7-0.2-8.6-0.3
		c-0.8,0-1.5-0.2-2.3-0.3c-0.1,0-0.2,0.1-0.3,0.1c0.1,0.1,0.2,0.1,0.3,0.2c0.6,0.4,1.2,0.8,1.7,1.2c1.1,0.8,1.2,2,0.9,3.2
		c-0.1,0.6-0.3,1.2-0.5,1.7c-0.5,0.8-0.4,1.6,0.3,2.2c0.1,0.1,0.1,0.3,0.1,0.4c-0.2,0-0.4,0-0.5-0.1C25.2,35.2,24.9,34.7,24.5,34.1
		c0.2-1.1,0-2.2,0.1-3.3c0-1.2-1.7-2.6-3.1-2.8c-0.2,0-0.4-0.1-0.4,0.1c0,0.2,0.1,0.3,0.2,0.5c0.8,1,1.6,2.1,2.5,3
		C24.4,32.3,24.9,33.1,24.5,34.1z"/>
	<path d="M20.7,23.8c-0.4,0-0.7,0-1.1,0c-1.4-0.1-1.8-0.5-2-1.9c0-0.2,0-0.4,0-0.5c-0.3-1.3-0.4-1.4,0.7-1.9
		c1.4-0.7,2.9-1.3,4.5-1.8c2-0.6,4.1-1,6.3-1.1c1.2,0,1.5,0.6,1.1,1.7c-0.1,0.3-0.3,0.7-0.6,0.9c-1.7,1.7-3.5,3.3-5.7,4.1
		c-1,0.4-2.1,0.4-3.1,0.6C20.8,23.9,20.8,23.8,20.7,23.8z"/>
	<path d="M14.1,14.9c0.3-0.2,0.6-0.6,0.9-0.7c3-0.6,6-0.9,9.1-0.7c1.2,0.1,2.4,0.2,3.5,0.4c0.1,0,0.2,0.1,0.3,0.2
		c-0.1,0-0.2,0.1-0.3,0.1c-0.4,0-0.8,0-1.3,0c-2.1,0-4.2-0.1-6.2,0C18.1,14.3,16.1,14.6,14.1,14.9C14.1,14.8,14.1,14.9,14.1,14.9z"
		/>
	<path d="M55.5,18.4c2.6,0,5.1,0,7.7,0c0.2,0,0.4,0.1,0.7,0.1c-0.2,0.1-0.4,0.2-0.6,0.2c-5.3,0-10.6,0-16,0c-0.2,0-0.4-0.1-0.6-0.2
		c0.2,0,0.4-0.1,0.7-0.1C50.1,18.4,52.8,18.4,55.5,18.4C55.5,18.4,55.5,18.4,55.5,18.4z"/>
	<path d="M41.4,17.7c0.1,0,0.4,0,0.8,0.1c0.1,0,0.2,0.2,0.3,0.4c-0.1,0.1-0.3,0.3-0.4,0.2c-0.6-0.1-1.3-0.2-1.9-0.3
		c-0.1,0-0.2-0.1-0.2-0.2c0.1,0,0.2-0.1,0.3-0.1C40.5,17.7,40.8,17.7,41.4,17.7z"/>
	<path d="M44.6,18.6c-0.4,0-0.8,0.1-1.2,0c-0.1,0-0.2-0.2-0.3-0.3c0.1-0.1,0.3-0.2,0.4-0.2c0.4,0,0.8,0,1.2,0c0.3,0,0.5,0.1,0.8,0.2
		c-0.3,0.2-0.6,0.4-0.9,0.5C44.6,18.7,44.6,18.6,44.6,18.6z"/>
</g>
</svg>
