<?xml version="1.0" encoding="iso-8859-1"?>
<!-- Generator: Adobe Illustrator 25.3.0, SVG Export Plug-In . SVG Version: 6.00 Build 0)  -->
<svg version="1.1" id="Calque_1" xmlns="http://www.w3.org/2000/svg" xmlns:xlink="http://www.w3.org/1999/xlink" x="0px" y="0px"
	 viewBox="0 0 82.3 28" style="enable-background:new 0 0 82.3 28;" xml:space="preserve">
<g>
	<path d="M42.9,27.9c-1.6,0.3-3.2-0.5-4.9-1.3c-1.5-0.7-3-1.4-4.6-2.1c-0.5-0.2-1.2-0.3-1.7-0.2c-1.6,0.2-3.3,0.5-4.9,0.6
		c-0.7,0.1-1.4,0-2.2,0c-0.7-0.1-1.4-0.3-2.1-0.3c-4.1,0-8.2-0.5-12.2-1.6C10.2,23,9.9,23,9.6,23c0.1,0.3,0.1,0.7,0.3,0.9
		c0.4,0.5,0.8,1,1.2,1.5c0.5,0.6,1.1,1.1,1.6,1.7c0.1,0.1,0.1,0.2,0,0.3c-0.1,0.1-0.2,0.1-0.3,0.1c-0.6-0.4-1.3-0.8-1.9-1.4
		c-1-1-1.9-2.1-2.8-3.2c-0.2-0.2-0.3-0.5-0.6-0.7c-0.2-0.2-0.5-0.2-0.8-0.3c0,0.2,0,0.5,0,0.7c0,0.7-0.9,1.3-1.5,1
		c-1-0.5-1.9-1-1.8-2.3c0-0.5-0.4-0.7-0.7-0.5c-0.8,0.4-1.1-0.1-1.5-0.7c-1.2-1.4-0.9-2.8-0.6-4.3c0-0.2,0.1-0.4,0.2-0.5
		C1.3,14.7,2.1,14,3,13.5c0.8-0.5,1.7-0.6,2.5-1.2c0.7-0.5,1.7-0.2,2.4,0.6c0.3,0.3,0.5,0.3,0.7,0c0.9-1.3,2.2-1.3,3.5-0.8
		c2.4,0.9,4.9,0.8,7.4,0.4c2.1-0.3,4.2-0.4,6.2-0.4c1.1,0,1.9-0.3,2.5-1.1c0.7-0.9,1.4-1.9,2.1-2.9c0.7-0.9,1.4-1.8,2-2.7
		c1.1-1.8,2.9-2.8,4.5-4c1.2-0.8,2.6-1.1,4-1.4c0.6-0.1,0.9,0.2,0.8,0.8c-0.1,0.9-0.3,1.8-0.3,2.6c0.1,0.9-0.2,1.7-0.2,2.6
		c-0.1,2.4-0.7,4.6-2.7,6.3c-0.2,0.1-0.3,0.3-0.5,0.5c0,0,0.1,0.2,0.2,0.3c0,0,0.1,0,0.2,0c1.4-0.4,2.8-0.1,4.2,0
		c3.8,0.3,7.6,0.4,11.5,0.4c2.2,0,4.4,0.2,6.5,0.3c2.9,0.1,5.6-0.5,8.1-1.7c3.8-1.7,7.7-2.6,11.7-3.6c0.2,0,0.4,0,0.5,0
		c0.5,0,0.8,0.4,0.6,0.8c-0.2,0.3-0.4,0.6-0.7,0.8c-0.8,0.9-1.6,1.9-2.5,2.8c-0.5,0.6-0.4,1.1,0.1,1.5c1.1,1,2.3,1.9,3.4,2.9
		c0.5,0.4,0.5,0.7-0.1,0.9c-1.2,0.4-2.5,0.7-3.8,0.5c-0.5-0.1-0.9-0.2-1.4-0.1c-2.4,0-4.7-0.4-7.1-0.9c-2.8-0.5-5.6-0.8-8.5-0.2
		c-0.6,0.1-0.7,0.3-0.4,0.8c0.3,0.6,0.7,1.1,1,1.7c0.3,0.5,0.2,1-0.3,1.2c-1.5,0.7-3.1,1.3-4.6,1.9c-0.4,0.1-0.9-0.1-1.4-0.3
		c-1.7-0.5-3.4-0.8-5-1.4c-1.7-0.6-3.3-0.7-5-0.2c-0.4,0.1-0.8,0.2-1.2,0.2c-0.2,0-0.3,0.1-0.5,0.1c0.2,0.1,0.3,0.1,0.5,0.2
		c1.9,1,3.1,2.7,4.2,4.4c0.3,0.5,0.1,0.9-0.5,1.1c-1.1,0.2-2.2,0.4-3.3,0.6C44.2,28,43.7,27.9,42.9,27.9z"/>
</g>
</svg>
