<?xml version="1.0" encoding="iso-8859-1"?>
<!-- Generator: Adobe Illustrator 25.3.0, SVG Export Plug-In . SVG Version: 6.00 Build 0)  -->
<svg version="1.1" id="Calque_1" xmlns="http://www.w3.org/2000/svg" xmlns:xlink="http://www.w3.org/1999/xlink" x="0px" y="0px"
	 viewBox="0 0 79.4 24.5" style="enable-background:new 0 0 79.4 24.5;" xml:space="preserve">
<g>
	<path d="M15.7,20.3c-3.1-0.4-6.1-0.8-9.2-1.1c-1.6-1.1-3.8-0.9-5.3-2.2c-0.3-0.3-0.7-0.5-0.9-0.8c-0.5-0.8,0-1,0.7-1.2
		c-0.3-0.4-1.2-0.6-0.7-1.4c0.1-0.2,0.2-0.3,0.3-0.4c1-0.7,2-1.6,3.1-2.1c1.4-0.5,2.7-1.3,4-1.9c2.3-1.1,4.6-1.9,7.1-2.3
		c1.7-0.3,3.3-0.8,5-1c1.3-0.2,2.6-0.1,3.9-0.1c1.1,0.1,1.7-0.3,2.2-1.3c0.5-1.1,1.3-2.1,2-3.1C28,1.1,28.4,1,28.7,0.9
		c0.2-0.1,0.5-0.2,0.7-0.3c0.2-0.2,0.3-0.4,0.5-0.6c0.1,0.2,0.3,0.5,0.4,0.7c0.1,0.3,0.2,0.8,0.4,0.9C32,2.6,33,3.8,34.5,4.4
		c1.3,0.5,2.5,1.2,3.9,0.8c0.8,1.1,2.1-0.3,2.9,0.5c1-0.2,1.9,0.5,3,0.1c0.2-0.1,0.6,0.3,0.8,0.5c0.8,0.7,1.6,0.9,2.6,0.5
		c1.2-0.6,2.4-1.2,3.7-1.8c0.3-0.1,0.7-0.2,1-0.1c1.7,0.9,3.4,1.8,5,2.8c0.7,0.4,1.6,0.7,1.6,1.7c0,0.1,0.3,0.2,0.5,0.2
		c1.9,0.1,3.8,0,5.7-0.4c1.8-0.4,3.6-0.7,5.4-1c0.9-0.2,1.8-0.3,2.6-0.5c1.6-0.3,3.1-0.7,4.7-1c0.3-0.1,0.7,0.1,1,0.2
		c0.5,0.2,0.6,0.5,0.2,0.9c-0.8,0.7-1.6,1.4-2.5,2c-0.7,0.6-1.4,1.1-2,1.7c-0.5,0.5-0.3,0.9,0.1,1.2c0.7,0.5,1.5,0.9,2.3,1.4
		c0.7,0.5,1.5,1,2.1,1.6c0.2,0.2,0.4,0.7,0.3,0.9c-0.1,0.2-0.5,0.4-0.9,0.5c-0.5,0.1-1.1,0.1-1.6,0c-3.2-0.4-6.4-0.9-9.6-1.6
		c-1.4-0.3-2.8-0.8-4.2-0.8c-1.3,0-2.7,0.4-4,0.8c-0.4,0.1-0.5,0.7-0.8,1.1c-0.7,0.9-1.5,1.8-2,2.9c-0.3,0.8-1,1.4-2.2,1.3
		c-1.4-0.1-2.8-0.3-4.2-0.8c-3.1-1.1-6.3-1.2-9.5-1.1c-0.2,0-0.5,0.1-0.7,0.1c-3.9,0.7-7.8,1.1-11.7,1c-0.8,0-1.6-0.2-2.5-0.3
		c-0.2,0-0.3,0.1-0.5,0.1c0.1,0.2,0.2,0.4,0.4,0.5c0.5,0.4,1.1,0.8,1.6,1.1c0.9,0.5,0.7,1.3,0.7,2.1c-0.1,0.5-0.5,0.7-1,0.9
		c-0.8,0.2-1.4,0.1-1.9-0.6c-0.7-1.1-1.5-2.2-2.2-3.4c-0.3-0.5-0.6-0.7-1.1-0.7c-1,0.1-2,0.2-3,0.3c-1,0.1-1.9,0.1-2.9,0.1
		C15.7,20.2,15.7,20.3,15.7,20.3z"/>
	<path d="M11.9,12.2c0,1.2-1,2.3-2.1,2.2c-0.7,0-1.6-1.1-1.6-1.9c0-1.1,0.9-2.3,1.8-2.3C11,10.2,11.9,11.1,11.9,12.2z"/>
	<path d="M4,11.9c0.2,0.2,0.5,0.5,0.6,0.7c0,0.1-0.2,0.3-0.4,0.5C4.1,13,4,12.9,4,12.8C3.9,12.5,4,12.2,4,11.9C4,11.9,4,11.9,4,11.9
		z"/>
</g>
</svg>
