<?xml version="1.0" encoding="iso-8859-1"?>
<!-- Generator: Adobe Illustrator 25.3.0, SVG Export Plug-In . SVG Version: 6.00 Build 0)  -->
<svg version="1.1" id="Calque_1" xmlns="http://www.w3.org/2000/svg" xmlns:xlink="http://www.w3.org/1999/xlink" x="0px" y="0px"
	 viewBox="0 0 83.7 13.8" style="enable-background:new 0 0 83.7 13.8;" xml:space="preserve">
<g>
	<path d="M36.5,1.7c3.2,0,6.5-0.2,9.7,0.1c2.9,0.2,5.8,0,8.6,0.4c1.9,0.3,3.2,0,4.3-1.6c0.5-0.8,1-0.7,1.9-0.3
		c1.2,0.6,2.3,1.2,3.5,1.7c0.7,0.3,0.7,0.3,0.1,0.8c-0.1,0.1-0.2,0.2-0.4,0.3c0.2,0.1,0.4,0.3,0.6,0.3c0.3,0,0.7-0.1,1.1-0.1
		c0.2,0,0.4-0.2,0.5-0.1c0.9,0.7,2,0.3,2.9,0.6c1.8,0.6,3.7,0.7,5.6,0.9c0.4,0,0.8-0.2,1.1-0.4c1.8-0.9,3.6-1.9,5.4-2.8
		C81.8,1.2,82.4,1.1,83,1c0.2,0,0.5,0.2,0.7,0.3c0.1,0.1-0.1,0.4-0.2,0.6c-0.8,0.8-1.6,1.6-2.4,2.4c-0.3,0.3-0.5,0.5-0.7,0.8
		c-0.3,0.7-0.5,1.3,0.1,2c0.7,0.8,1.5,1.7,2.2,2.6c0.2,0.3,0.5,0.5,0.7,0.8c0.3,0.5,0,1-0.6,0.9c-0.4,0-0.8-0.1-1.2-0.3
		c-1.3-0.8-2.7-1.5-4-2.4c-1.5-1.1-3.2-1.5-5-1.2c-1.2,0.2-2.5,0.5-3.7,0.4c-0.2,0-0.4,0.2-0.7,0.2c-0.5,0.2-1,0.3-1.5,0.4
		c-0.8,0.2-1.5,0.3-2.3,0.4c-0.4,0-0.2,0.4-0.2,0.4c-0.5,0.3-1.1,0.7-1.7,0.9c-1.2,0.5-2.5,0.9-3.7,1.3c-1,0.4-1.5,0.4-2.2-0.4
		c-0.1-0.1-0.2-0.3-0.3-0.4c-0.4-0.8-0.9-0.9-1.9-0.8c-2,0.3-4,0.3-6.1,0.4c-0.6,0-0.9,0-1.1,0.8c-0.2,0.8-0.9,1.5-1.4,2.2
		c-0.1,0.2-0.5,0.3-0.7,0.4c-0.2-0.3-0.4-0.6-0.5-0.9c-0.2-0.6-0.3-1.1-0.4-1.7c0-0.6-0.3-0.9-0.9-0.8c-0.5,0-1,0-1.4,0
		c-4.7-0.1-9.4-0.2-14.2-0.4c-1.5-0.1-3.1-0.4-4.6-0.6C22.1,9.2,20.7,9,19.4,9c-2.3,0-4.6-0.6-6.8-1.1C9.3,7,6,6.6,2.6,6.8
		c-0.8,0-1.6,0-2.3-0.1C0.2,6.7,0,6.5,0,6.4C0,6.3,0.2,6.1,0.3,6c0.8-0.2,1.6-0.4,2.4-0.4C5.4,5.7,7.9,5,10.5,4.5
		c3.6-0.8,7.2-1.7,10.8-2.3c1.7-0.3,3.6-0.4,5.3-0.4C29.9,1.6,33.2,1.7,36.5,1.7C36.5,1.7,36.5,1.7,36.5,1.7z"/>
</g>
</svg>
