<?xml version="1.0" encoding="iso-8859-1"?>
<!-- Generator: Adobe Illustrator 25.3.0, SVG Export Plug-In . SVG Version: 6.00 Build 0)  -->
<svg version="1.1" id="Calque_1" xmlns="http://www.w3.org/2000/svg" xmlns:xlink="http://www.w3.org/1999/xlink" x="0px" y="0px"
	 viewBox="0 0 78.1 27.7" style="enable-background:new 0 0 78.1 27.7;" xml:space="preserve">
<g>
	<path d="M48.4,7.5c0.3,0.3,0.7,0.5,1,0.8c0.1,0.1,0,0.3,0,0.4C49,9.3,49,9.3,49.5,9.4c1.8,0.4,3.6,0.8,5.5,0.7c0.9,0,1.8-0.1,2.7,0
		c2,0.2,3.6-0.3,5.2-1.5c0.8-0.6,1.7-1.1,2.6-1.5c2.6-1.3,5.2-2.5,7.9-3.7c1.3-0.6,2.7-1,4-1.4c0.2-0.1,0.5,0,0.6,0.1
		c0.1,0.1,0.1,0.4,0,0.6c-0.8,1.2-1.5,2.4-2.4,3.5c-0.5,0.6-1.2,0.9-1.7,1.4c-0.9,0.8-1.8,1.7-2.7,2.6c-0.4,0.4-0.9,0.8-1.4,1.1
		c-1.4,1.1-1.6,2.1-0.3,3.4c0.6,0.6,1.2,1.2,1.8,1.8c1.8,1.8,3.3,3.7,4.7,5.8c0.1,0.2,0.3,0.4,0.3,0.6c0.2,0.6,0.9,1.1,0.3,1.7
		c-0.2,0.2-0.9-0.3-1.4-0.4c-3.4-1.1-6.6-2.8-9.5-4.8c-0.4-0.3-0.7-0.7-1.1-1.1c0.9-1,1.7-0.2,2.4,0.2c1.9,1.2,3.9,2.3,6,3.2
		c0.3,0.1,0.6,0.4,0.8,0.1c0.2-0.2-0.1-0.5-0.3-0.7c-1.4-1.7-2.9-3.5-4.5-5.1c-2.4-2.3-2.2-4.1,0.4-6.2c1.8-1.4,3.2-3.2,5-4.6
		c0.2-0.2,0.5-0.4,0.4-0.7c0-0.1-0.4,0.1-0.6,0.2c-2.6,1.1-5.2,2.5-7.8,3.6c-0.7,0.3-0.8,0.7-0.3,1.4c1.5,2.1,1.4,4.2-0.1,6.3
		c-0.5,0.7-0.4,1.8-1.3,2.3C64,18,63.4,17.8,63,17.4c-0.9-0.8-1.9-1.2-3.1-1.2c-1.5,0-3-0.1-4.5,0c-1.2,0.1-2.3,0.5-3.5,0.7
		c-0.1,0-0.2,0.4-0.1,0.5c0.5,0.4,0.5,0.6-0.1,0.9c-2.8,1.2-3.7,3.5-3.8,6.3c0,0.2,0,0.5,0,0.7c-0.1,0.9-0.3,1-1.1,0.4
		c-0.8-0.5-1.5-1.1-2.3-1.6c-0.6-0.4-1.1-1-2-1c-0.4,0-0.7-0.4-1.1-0.6c-1.2-0.9-2.3-1.4-3.9-1C34.8,22.2,31.9,22,29,22
		c-0.3,0-0.6,0-0.9,0c-0.2,0-0.4,0.2-0.6,0.3c0.1,0.1,0.2,0.3,0.3,0.4c1.2,0.9,2.4,1.8,3,3.2c0.2,0.4,0.4,0.7,0.5,1.1
		c0.1,0.5-0.2,0.8-0.7,0.7c-0.4-0.1-0.9-0.4-1.3-0.6c-0.4-0.2-0.9-0.5-0.9,0.4c0,0-0.5,0.1-0.7,0c-1.1-0.7-2.1-1.3-3.1-2
		c-1.3-0.9-2.5-1.9-3.8-2.6c-1-0.6-2.2-0.9-3.3-1.1c-1.6-0.3-3.2-0.4-4.7-0.8C8.9,19.8,5,19,1.4,17.1c-0.9-0.5-1.5-1-1.4-2
		c0.1-0.7,0.3-0.9,1.1-0.7c1.1,0.3,2.3,0.7,3.4,1.1c0.1,0,0.2,0,0.3,0c0-0.1,0-0.3-0.1-0.4c-0.8-0.6-1.5-1.3-2.3-1.9
		c-1.2-0.8-1.3-1.3,0.1-1.9c1.4-0.6,2.9-1.1,4.3-1.5C9,9,11.2,8.3,13.4,7.8c1.9-0.4,3.8-0.6,5.8-0.9c1.1-0.1,2.1-0.2,3.2-0.4
		c0.2,0,0.5-0.2,0.7-0.4c0.3-0.3,0.4-0.7,0.7-1.1c0.5-0.7,0.8-1.4,1.7-1.8c0.8-0.4,1.3-1.5,2-2.2c0.2-0.2,0.6-0.3,0.9-0.4
		c-0.2,1,1.1,0.2,1.1,0.9c0,0.6-0.1,0.8,0.6,0.5c0.3-0.2,0.6-0.1,0.5,0.4c-0.1,0.4,0,0.6,0.4,0.5c0.1,0,0.3-0.1,0.3,0
		c0.4,0.3-0.4,1.4,0.7,1.1c0.9-0.2,0.4,1.2,1.2,0.9c0,0,0.1,0.2,0.2,0.3c0.4,1.9,2,2.5,3.6,1.4c0.3-0.2,0.6-0.5,0.9-0.8
		c1.9-1.8,3.8-3.7,5.8-5.5c0.1-0.1,0.5,0,0.7,0c-0.1,0.2-0.1,0.5-0.3,0.7c-2.1,2-4.1,4-6.2,6c-0.1,0.1-0.2,0.3-0.3,0.4
		c0.2,0,0.3,0.1,0.5,0.1c2.5,0.4,5,0.9,7.6,1.3c0.6,0.1,1.2,0.2,1.8,0.1c0.5,0,0.7-0.4,0.6-0.9c0-0.1-0.1-0.2-0.1-0.3
		C48.2,7.5,48.3,7.5,48.4,7.5z"/>
	<path d="M48.2,7.7c-1.8-1.4-2.9-3.3-3.8-5.3c-0.1-0.2,0-0.4,0-0.7c0.1,0.1,0.4,0.2,0.4,0.3c0.8,2.1,2.4,3.6,3.6,5.4
		C48.4,7.6,48.3,7.7,48.2,7.7z"/>
	<path d="M20.7,16.2c2.4-0.8,4.7-1.6,7.1-2.2c1.4-0.3,2.8-0.2,4.3-0.2c0.1,0,0.2,0.1,0.3,0.1c0.9,0.3,1,0.6,0.3,1.2
		c-0.4,0.4-0.9,0.8-1.4,1.1c-2.2,1.6-4.5,3-7.1,3.8c-0.9,0.3-1.8,0.3-2.6,0c-0.3-0.1-0.7-0.3-1-0.4c0.1-0.3,0.3-0.6,0.4-0.9
		c0.2-0.5,0.2-0.9-0.3-1.2c-0.3-0.2-0.4-0.5-0.6-0.8C20.3,16.5,20.5,16.3,20.7,16.2z"/>
</g>
</svg>
