<?xml version="1.0" encoding="iso-8859-1"?>
<!-- Generator: Adobe Illustrator 25.3.0, SVG Export Plug-In . SVG Version: 6.00 Build 0)  -->
<svg version="1.1" id="Calque_1" xmlns="http://www.w3.org/2000/svg" xmlns:xlink="http://www.w3.org/1999/xlink" x="0px" y="0px"
	 viewBox="0 0 79.8 29.1" style="enable-background:new 0 0 79.8 29.1;" xml:space="preserve">
<g>
	<path d="M1.2,15.5c0.2,0,0.4,0,0.5,0c0.1,0,0.2-0.1,0.3-0.1c0,0-0.1-0.1-0.1-0.1c-0.1-0.1-0.2-0.1-0.3-0.2c-1.5-0.9-1.6-1.4,0-2.3
		c0.7-0.4,1.5-0.7,2.3-0.9c3-1.1,6-2.3,9.1-3.2c2.2-0.7,4.5-0.9,6.8-1.4c0.5-0.1,0.9-0.2,1.4-0.3c0.7-0.1,1.1-0.6,1.3-1.3
		c0.1-0.6,0.3-1.1,0.4-1.7c0.3-1.6,1.4-2.8,2.6-3.9C25.5,0,25.9,0,26,0.1c1.5,2.7,4.5,4,6.3,6.4c0.2,0.2,0.6,0.4,0.9,0.4
		c3.5,0,6.8,0.7,10.2,1.4c1.3,0.3,2.6,0.1,3.5-1.1c0.5-0.7,1.2-1.6,2-1.7c0.9-0.1,1,1.3,1.6,1.9c0.8,0.7,1.6,1.4,2.4,2.1
		c0.4,0.4,1.2,0.3,1.1,1.2c0,0,0.5,0.2,0.7,0.2c1.1-0.2,2.2-0.4,3.1,0.5c1.4-0.5,2.4,1,3.7,0.6c0.2-0.1,0.4,0,0.5,0.1
		c0.8,1,2.2,0.3,3.1,1.1c0.1,0.1,0.4-0.1,0.6-0.1c0.7,0,1.4,0,1.8,0.7c0.1,0.1,0.4,0.1,0.5,0.1c1.6-0.3,2.7-1.5,3.8-2.5
		c1.7-1.5,3.7-2.3,5.7-3.3c0.2-0.1,0.5-0.2,0.7-0.2c0.3,0,0.7,0,0.8,0.2c0.1,0.3,0.2,0.8,0,1c-1.6,1.6-2.3,3.9-4.2,5.3
		c0,0-0.1,0.1-0.1,0.1c-0.5,0.4-0.5,0.8,0,1.3c1.6,1.9,3.2,3.8,4.8,5.8c0.1,0.2,0.2,0.4,0.2,0.6c-0.2,0.1-0.5,0.2-0.7,0.2
		c-1.7-0.1-3.1-0.8-4.5-1.6c-1.5-0.9-3-2-4.4-3c-0.7-0.5-1.4-1.1-2.4-0.5c-0.1,0.1-0.4,0.1-0.5,0.1c-0.6,0-1.4-0.3-1.8-0.1
		c-0.6,0.5-1.4,0.2-1.8,0.5c-1.2,0.9-2.9,0.2-4,1.2c-1.8-0.1-3.5,1.3-5.4,0.5c-0.2-0.1-0.4,0.1-0.6,0.1c0.2,0.1,0.5,0.1,0.7,0.2
		c0.4,0.2,0.6,0.5,0,0.8c-0.3,0.2-0.6,0.3-1,0.5c-1.4,0.7-2.5,1.8-3.4,3.1c-1.4,1.8-1.9,1.8-3.4,0c-0.3-0.3-0.5-0.7-0.7-1
		c-0.8-1.3-0.8-1.4-2.3-1.1c-2.3,0.4-4.5,1.1-6.8,1.3c-2.5,0.2-5,0-7.5-0.1c-1.3,0-2.6-0.2-3.9-0.3c-0.5,0-0.3,0.2-0.2,0.4
		c0.8,2.5-0.2,4.4-2.4,5.6c-0.5,0.3-0.9,0.2-1.2-0.4c-0.3-0.6-0.6-1.2-0.6-1.8c-0.2-1.2-0.3-2.5-0.3-3.7c0-0.8-0.5-1-1.2-1
		C14,21.4,8.6,20.3,3.5,18.2C3,18,2.5,17.9,2,17.7c-0.5-0.2-1.1-0.5-1.6-0.9C0,16.5-0.2,16,0.1,15.6c0.2-0.2,0.7-0.2,1-0.3
		C1.2,15.4,1.2,15.4,1.2,15.5z"/>
	<path d="M23.4,11.8c1.2,0.2,2.3,0.3,3.5,0.6c1,0.3,1.2,0.8,0.5,1.5c-0.8,0.9-1.7,1.8-2.7,2.6c-0.7,0.7-1.7,0.8-2.7,0.7
		c-0.7,0-1.3-0.4-1.3-1c-0.2-1.3-0.9-1.8-2-2.3c-0.7-0.3-0.7-0.6,0-1.1C20.2,12.2,21.8,11.9,23.4,11.8z"/>
	<path d="M9.7,13.5c-0.1,0.8-1.2,1.8-2.2,1.7c-1,0-1.8-0.9-1.7-1.8c0.1-1,0.9-1.6,2-1.5C8.7,12,9.8,12.9,9.7,13.5z"/>
</g>
</svg>
