<svg xmlns="http://www.w3.org/2000/svg" viewBox="0 0 800 184" width="800" height="184">
  <g transform="scale(0.6666666666666666, 0.6666666666666666)">
    <path d="M 646.352 14.750 C 638.824 22.848, 636.851 25.072, 631.656 31.315 C 628.538 35.063, 624.245 40.688, 622.117 43.815 C 619.989 46.942, 615.604 51.839, 612.374 54.698 C 601.072 64.699, 599.299 66.851, 584.565 88.455 C 572.511 106.130, 569.084 110.485, 566.318 111.641 C 559.543 114.471, 524.652 115.114, 440.500 113.959 C 364.389 112.914, 358.823 112.960, 326 114.906 C 307.025 116.031, 287.225 117.194, 282 117.491 C 246.887 119.485, 207.688 122.304, 197.500 123.569 C 177.831 126.010, 171.078 126.784, 159.251 127.950 C 151.126 128.752, 145.988 129.865, 140.751 131.958 C 136.763 133.552, 124.500 137.347, 113.500 140.392 C 40.152 160.695, 25.376 167.253, 22.879 180.616 C 22.429 183.027, 21.117 186.275, 19.965 187.834 C 16.361 192.708, 17.491 198.883, 22.500 201.694 C 27.474 204.485, 43.695 208.346, 59.500 210.501 C 66.100 211.400, 77.575 213.008, 85 214.072 C 92.425 215.137, 104.575 216.440, 112 216.967 C 124.369 217.846, 162.816 220.467, 176 221.331 C 192.782 222.430, 257.493 219.225, 283.986 215.983 C 292.519 214.939, 313 213.611, 329.500 213.033 C 346 212.454, 370.975 211.254, 385 210.366 C 404.509 209.131, 419.594 208.882, 449.209 209.304 L 487.918 209.856 494.209 213.369 C 503.526 218.570, 516.433 222.523, 535.500 226.013 C 555.035 229.590, 571.039 233.363, 575.784 235.513 C 577.682 236.373, 582.007 237, 586.034 237 L 593 237 593 221.609 L 593 206.219 612.750 205.406 C 638.910 204.329, 765.640 204.271, 774.277 205.333 L 781.055 206.165 784.024 212.714 C 785.657 216.316, 787.487 221.116, 788.089 223.381 C 789.827 229.915, 794.708 235.798, 800.528 238.373 C 804.457 240.111, 811.153 247.614, 818.414 258.415 C 821.605 263.162, 825.038 267.485, 826.042 268.023 C 831.355 270.866, 839.709 267.339, 851 257.487 C 861.132 248.647, 875.292 239.017, 880.438 237.469 C 888.417 235.067, 907.909 224.359, 916.220 217.811 L 919.939 214.880 920.220 202.690 L 920.500 190.500 928.500 189.718 C 943.703 188.232, 963.505 189.333, 973 192.192 C 977.675 193.599, 984.643 195.079, 988.484 195.480 C 992.325 195.881, 997.050 197.034, 998.984 198.041 C 1004.294 200.808, 1020.357 203.831, 1041.270 206 C 1051.594 207.071, 1063.519 208.625, 1067.770 209.453 C 1072.022 210.281, 1087.883 212.096, 1103.018 213.486 C 1118.154 214.876, 1138.179 217.197, 1147.518 218.643 C 1171.625 222.375, 1187.093 222.907, 1189.898 220.102 C 1193.439 216.561, 1192.763 211.128, 1188.250 206.855 C 1182.801 201.695, 1177.552 198, 1175.671 198 C 1174.768 198, 1171.827 196.644, 1169.133 194.987 C 1163.028 191.230, 1147.755 184.124, 1138.500 180.733 C 1134.650 179.323, 1128.013 176.902, 1123.750 175.353 L 1116 172.538 1116 157.876 C 1116 145.766, 1116.261 143.114, 1117.500 142.638 C 1118.325 142.322, 1119 140.978, 1119 139.652 C 1119 137.434, 1119.462 137.205, 1124.750 136.799 C 1131.401 136.289, 1141 131.112, 1141 128.034 C 1141 126.568, 1142.049 126.161, 1146.750 125.805 C 1156.291 125.082, 1174.520 113.544, 1178.693 105.586 C 1181.188 100.827, 1180.017 92.271, 1176.449 89.203 C 1172.810 86.073, 1167.625 86.409, 1143.500 91.342 C 1134.150 93.254, 1122.225 95.330, 1117 95.956 C 1095.231 98.563, 1061.055 107.010, 1028 117.954 C 1019.853 120.651, 1004.518 124.580, 993 126.921 C 981.725 129.213, 969.350 132.029, 965.500 133.179 C 959.003 135.119, 956.981 135.223, 937.341 134.628 C 908.879 133.765, 910 134.060, 910 127.420 C 910 122.102, 909.992 122.089, 906.435 121.422 C 900.645 120.336, 887.054 121.960, 879.090 124.691 C 869.714 127.905, 857.225 127.646, 805 123.153 C 772.745 120.378, 732.252 118.175, 680.250 116.366 L 661 115.697 661 106.509 C 661 82.055, 662.318 58, 663.658 58 C 665.776 58, 666.093 31.881, 663.984 31.167 C 663.443 30.983, 663 27.700, 663 23.871 C 663 17.813, 662.681 16.591, 660.545 14.455 C 656.919 10.828, 649.862 10.975, 646.352 14.750" stroke="none" fill="black" fill-rule="evenodd"/>
  </g>
</svg>