<?xml version="1.0" encoding="iso-8859-1"?>
<!-- Generator: Adobe Illustrator 25.3.0, SVG Export Plug-In . SVG Version: 6.00 Build 0)  -->
<svg version="1.1" id="Calque_1" xmlns="http://www.w3.org/2000/svg" xmlns:xlink="http://www.w3.org/1999/xlink" x="0px" y="0px"
	 viewBox="0 0 73.3 50.2" style="enable-background:new 0 0 73.3 50.2;" xml:space="preserve">
<g>
	<path d="M31.2,0c3.3,0.3,6.2,0.3,9.1,1.1c2.8,0.8,5.4,2,7.7,3.7c5.1,3.8,8.3,9,10.3,15c0.2,0.7,0.2,1.4,0.3,2.1
		c0,0.3,0,0.5-0.1,0.8c0.3-0.1,0.6-0.2,0.8-0.3c2-1.3,4.4-1.6,6.6-2.1c1.8-0.4,3.5,0.3,4.9,1.7c0.5,0.5,1.1,1,1.5,1.5
		c1.4,2.2,1.5,4.4,0.4,6.8c-0.9,2.2-2.4,3.4-4.6,4.1c-1.1,0.3-2-0.1-3-0.3c-2-0.5-3.9-1-5.7-2.1c-0.8-0.5-0.8-0.3-1.2,0.7
		c-0.5,1.4-1.2,2.7-1.9,4c-1,2.1-2.7,3.7-4.4,5.1c-1.7,1.4-3.5,3-5.8,3.7c-0.4,0.1-0.8,0.5-1.2,0.7c-2.4,1.3-4.9,2.4-7.6,2.8
		c-1.3,0.2-2.7,0.4-4,0.7c-2.4,0.7-4.7,0.2-7.1-0.4c-3.5-0.9-6.6-2.6-9.4-4.9C15.3,43.6,14,42.5,13,41c-0.1-0.2-0.3-0.4-0.4-0.6
		c-0.5-0.9-0.4-0.7-1.3-0.5c-0.8,0.2-1.8,0.3-2.4,0c-1-0.5-1.9-1.4-2.7-2.3c-0.7-0.7-0.9-1.7-0.4-2.7c0.3-0.6,0.2-1-0.2-1.5
		c-1.3-1.8-3-3.4-4.2-5.4c-0.6-1-0.6-1.8-0.2-2.9c0.2-0.6,0.7-1.3,0.5-1.8c-0.1-0.5-0.8-0.8-1.3-1.2c-0.5-0.4-0.5-0.9-0.2-1.4
		c0.6-1,1-2.1,1.7-2.9c1.7-2.1,3-4.6,5.1-6.5c1.7-1.6,3.3-3.3,5-4.7c1.1-0.9,2.5-1.6,3.8-2.3c2.8-1.7,5.9-2.8,9.1-3.5
		C27.1,0.3,29.3,0.2,31.2,0z"/>
	<path d="M27.5,22.8c2.2,0.3,4.4,0.8,6.6,1c1.2,0.1,2.5,0.2,3.6,0.8c0.1,0.1,0.2,0.1,0.3,0.1c-0.1,0.1-0.2,0.2-0.4,0.2
		c-1,0.4-1.9-0.3-2.9-0.2c-0.3,0-0.8-0.4-1-0.3c-0.8,0.3-1.4,0-2.1-0.2c-0.9-0.2-1.8-0.3-2.7-0.4C28.3,23.8,27.8,23.5,27.5,22.8
		L27.5,22.8z"/>
	<path d="M43.7,24.8c1.7,0.3,3.3,0.6,5,0.9c0.1,0,0.2,0.3,0.4,0.5c-0.2,0.1-0.3,0.2-0.5,0.2c-0.4,0-0.8-0.1-1.2-0.2
		c-1.3-0.3-2.5-0.6-3.8-0.5c-0.3,0-0.6,0-0.9-0.1c-0.2-0.1-0.3-0.4-0.3-0.5c0-0.1,0.3-0.3,0.5-0.3c0.3,0,0.6,0.2,0.8,0.3
		C43.7,24.9,43.7,24.8,43.7,24.8z"/>
	<path d="M51.7,26.7c-0.4,0.1-0.5,0.1-0.5,0.1c-0.6,0.1-1.2-0.1-1.7-0.5c0.5-0.7,1.1-0.5,1.7-0.3c0.3,0.1,0.7-0.2,1-0.2
		c0.2,0,0.4,0.2,0.5,0.4c0,0.2-0.2,0.5-0.3,0.5C52.1,26.7,51.7,26.7,51.7,26.7z"/>
	<path d="M56.1,26.1c0.2,0,0.4,0,0.5,0c0.3,0.2,0.5,0.4,0.8,0.6c-0.3,0.1-0.6,0.3-0.9,0.3c-0.3,0-0.7,0-1-0.1
		c-0.2,0-0.3-0.2-0.5-0.3c0.1-0.2,0.3-0.4,0.4-0.5c0.2-0.1,0.4,0,0.7,0.1C56.1,26.2,56.1,26.2,56.1,26.1z"/>
	<path d="M42.2,25.4c-0.5,0.1-0.8,0.2-1,0.1c-0.3-0.1-0.4-0.4-0.7-0.6c0.3-0.1,0.6-0.2,0.9-0.2C41.7,24.7,41.8,25,42.2,25.4z"/>
	<path d="M38.7,24.7c0.1-0.1,0.2-0.3,0.2-0.3c0.4,0.1,0.8,0.2,1.2,0.4c0.1,0,0.1,0.2,0.1,0.3c0,0.1-0.1,0.2-0.1,0.3
		c-0.4-0.2-0.9-0.4-1.3-0.6C38.7,24.9,38.7,24.8,38.7,24.7z"/>
	<path d="M5.9,24.3c-0.1,0.1-0.1,0.3-0.2,0.3c-0.6-0.1-1.2-0.1-1.8-0.2c-0.1,0-0.1-0.3-0.1-0.5c0-0.1,0.3-0.3,0.3-0.3
		c0.5,0.2,1,0.5,1.6,0.4C5.8,24,5.8,24.2,5.9,24.3z"/>
</g>
</svg>
