<?xml version="1.0" encoding="iso-8859-1"?>
<!-- Generator: Adobe Illustrator 25.3.0, SVG Export Plug-In . SVG Version: 6.00 Build 0)  -->
<svg version="1.1" id="Calque_1" xmlns="http://www.w3.org/2000/svg" xmlns:xlink="http://www.w3.org/1999/xlink" x="0px" y="0px"
	 viewBox="0 0 84 28.8" style="enable-background:new 0 0 84 28.8;" xml:space="preserve">
<g>
	<path d="M35.9,7.5c2.4,0.3,4.7,0.6,7.1,0.8c1.9,0.2,3.9,0.5,5.8,0.7c1.8,0.3,3.6,0.6,5.4,0.8c0.4,0.1,0.8,0,1.2-0.1
		c0.8-0.2,1.5-0.4,2.2-0.6c1.8-0.5,3.3-0.1,4.2,1.4c0.5,0.8,1,0.9,1.8,0.9c0.9-0.1,1.9-0.2,2.8-0.3c2.1-0.3,4.2-0.5,6.4-0.7
		c1.9-0.2,3.8-0.5,5.7-0.6c1.3-0.1,2.5-0.1,3.8-0.1c0.6,0,0.8,0.5,0.5,1c-0.3,0.5-0.6,1-1.1,1.4c-0.9,0.6-1.8,1.1-2.8,1.6
		c-0.7,0.4-0.7,0.7,0,1.1c0.5,0.3,1.1,0.4,1.7,0.6c1.2,0.4,2.3,1,3.1,2c0.6,0.7,0.3,1.5-0.6,1.6c-0.7,0.1-1.4,0-2.1-0.1
		c-2.3-0.4-4.6-0.9-7-1.2c-1.3-0.2-2.6,0-4-0.1c-1.9-0.1-3.8-0.2-5.7-0.3c-0.4,0-0.7,0-1.1,0c-0.2,0-0.4,0.3-0.4,0.4
		c0.6,1.1-0.5,1.5-1,2c-1.3,1-2.7,2-4.1,2.9c-1.5,0.9-3.1,1.8-4.8,2.3c-1,0.3-1.8,0.2-2.5-0.4c-0.8-0.6-1.6-1.3-2.3-1.9
		c-1-0.9-2-1.8-3.1-2.7c-0.7-0.5-1.5-1-2.5-0.6c-0.3,0.1-0.7,0-1,0c-1,0-2-0.1-3-0.1c-0.7,0-1.4,0.2-2.1,0.4
		c0.6,0.4,1.1,0.8,1.7,1.2c0.3,0.3,0.6,0.6,0.9,0.8c1.5,1.2,1.9,2.8,1.3,4.6C40,27,40,27.7,39.7,28.2c-0.3,0.5-0.8,0.8-1.3,0.3
		c-0.4-0.3-0.9-0.6-1.2-1.1c-1.3-1.9-2.5-3.9-3.7-5.9c-0.2-0.3-0.3-0.5-0.4-0.8c-0.3-0.6-0.8-0.7-1.4-0.3c-0.4,0.2-0.7,0.4-1,0.7
		c-1.5,1.3-3.2,1.5-5,1.1c-0.6-0.1-1.2-0.2-1.8-0.1c-3.2,0.5-6.4,0.5-9.6,0c-0.4-0.1-0.7,0-1.1,0c-2.8,0.1-5.6-0.4-8.3-0.8
		c-1.3-0.2-2.6-0.9-3.7-1.6c-0.5-0.3-0.8-1-1.1-1.6c-0.2-0.3-0.1-0.6,0.5-0.5c1,0.1,1.6-0.8,1.2-1.6c-0.8-1.8-0.7-2,1-3
		c1-0.5,2-1,3-1.5c0.1-0.1,0.5-0.1,0.5,0c0.3,1.2,1,0.4,1.5,0.3c0.3-0.1,0.7-0.1,1.1-0.1c0.3,0,0.7,0.1,1,0.2
		c-0.1-0.3-0.2-0.6-0.3-0.9c0-0.1,0.2-0.4,0.4-0.4c3.3-0.5,6.7-1,10-1.5c2.4-0.4,4.8-0.7,7.2-1.1c0.9-0.1,1.6-0.6,1.9-1.4
		c0.8-1.9,2.1-3.4,3.3-5.1c1.1-1.5,2.2-1.9,3.2-1.2c1.8,1.1,1.8,3.1,1.1,4.3c-0.2,0.3-0.5,0.6-0.8,0.9c-0.2,0.2-0.5,0.3-0.7,0.5
		c-0.6,0.5-1.2,1-1.8,1.5c0.8,0,1.5,0.1,2.3,0.1c0.1,0,0.1,0,0.2,0C35.9,7.6,35.9,7.6,35.9,7.5z"/>
	<path d="M51.5,13.8c2,0,4-0.1,6.1,0.3c1.7,0.3,3.6,0.1,5.4,0.1c1.4,0,2.9,0,4.3,0c0.5,0,1-0.1,1.5-0.3c0.4-0.2,0.4,0,0.4,0.2
		c0,0.5,0,0.9,0,1.4c0,0.1-0.1,0.2-0.2,0.3c-0.1-0.1-0.2-0.2-0.2-0.3c0.1-0.9-0.5-0.9-1.2-0.9c-2.9,0-5.9,0-8.8,0
		c-2.3-0.1-4.5-0.2-6.8-0.4C51.9,14.1,51.7,13.9,51.5,13.8L51.5,13.8z"/>
	<path d="M21.7,12c0.2-0.1,0.5-0.3,0.7-0.4c3.5,0,6.9,0,10.4,0c0.2,0,0.3,0.1,0.5,0.1c-0.2,0.1-0.4,0.2-0.5,0.2
		C29,12,25.3,12,21.7,12C21.7,12,21.7,12,21.7,12z"/>
	<path d="M36.3,12c1.8,0.1,3.5,0.3,5.3,0.4c0.1,0,0.2,0.1,0.3,0.1c-0.1,0.1-0.3,0.2-0.4,0.2c-0.7,0-1.5,0.1-2.1,0
		c-1.5-0.4-3.1-0.3-4.6-0.3c-0.2,0-0.4-0.1-0.7-0.1c0.3-0.1,0.5-0.2,0.8-0.2C35.4,12,35.9,12,36.3,12C36.3,12,36.3,12,36.3,12z"/>
	<path d="M21.7,12c-0.2,0.1-0.5,0.3-0.7,0.3c-0.8,0-1.5-0.1-2.3-0.1c0.7-0.1,1.4-0.2,2.1-0.2C21.1,12,21.4,12,21.7,12
		C21.7,12,21.7,12,21.7,12z"/>
	<path d="M51.5,13.8c-0.8,0-1.7,0-2.5,0c-0.3,0-0.5-0.2-0.7-0.4l0,0c0.8,0,1.7,0,2.5,0C51,13.5,51.3,13.7,51.5,13.8
		C51.5,13.8,51.5,13.8,51.5,13.8z"/>
	<path d="M45.4,13.1c-0.2,0-0.4,0-0.5,0c-0.7-0.1-1.4-0.2-2.1-0.2c0.7,0,1.5-0.1,2.2-0.1C45.2,12.8,45.3,13,45.4,13.1L45.4,13.1z"/>
	<path d="M45.4,13.1c0.7,0,1.4,0,2.1,0c0.3,0,0.5,0.2,0.7,0.4l0,0c-0.7,0-1.4,0-2.1,0C45.9,13.4,45.7,13.2,45.4,13.1L45.4,13.1z"/>
</g>
</svg>
