<?xml version="1.0" encoding="iso-8859-1"?>
<!-- Generator: Adobe Illustrator 25.3.0, SVG Export Plug-In . SVG Version: 6.00 Build 0)  -->
<svg version="1.1" id="Calque_1" xmlns="http://www.w3.org/2000/svg" xmlns:xlink="http://www.w3.org/1999/xlink" x="0px" y="0px"
	 viewBox="0 0 67.5 38.1" style="enable-background:new 0 0 67.5 38.1;" xml:space="preserve">
<g>
	<path d="M67.4,19.9c0.4,1.8-0.2,3.6-0.7,5.4c-0.5,1.9-2.1,2.7-4.1,2.4C60.1,27.3,58,26.3,56,25c-1.3-0.8-2.9-1.2-4.4-1.8
		c-0.3-0.1-0.7,0-1,0.1c-0.8,0.2-1.6,0.3-2.4,0.5c-0.6,0.2-1.2,0.4-1.8,0.6c0.6,0.2,1.1,0.5,1.7,0.7c0.6,0.3,1.2,0.5,1.7,0.9
		c2.2,1.6,1.2,3.7-0.8,4.6c-1.3,0.6-2.7,0.6-4,0.2c-0.9-0.2-1.3,0-1.9,0.5c-0.7,0.7-0.9,0.7-1.3,0c-0.5-0.7-1-1.3-1.9-1.5
		c-0.3-0.1-0.6-0.5-0.8-0.9c-0.2-0.4-0.3-0.9-0.5-1.3c-0.2-0.5-0.6-0.7-1.1-0.7c-2.1,0.2-4.2-0.1-6.3,0.3c-1.4,0.3-3,0.1-4.5,0.1
		c-0.7,0-1.5-0.1-1.9,0.6c-0.4,0.8,0.3,1.3,0.7,1.9c0.6,1,1.3,2,1.9,3c0.6,1.1,0.7,2.4,0.6,3.6c-0.1,1.3-0.9,1.7-2.1,1.2
		c-1-0.4-1.6-1-2.1-1.8c-0.9-1.5-2.3-2.8-2.6-4.6c-0.2-1-0.4-2-0.5-3c-0.1-0.6-0.3-1-1-1c-2.2-0.2-4.4-0.7-6.7-0.8
		c-1.8-0.1-3.5-0.4-5.2-1C5.4,25,3.4,24,1.5,22.8c-0.4-0.2-0.8-0.6-1.1-0.9c-0.6-0.7-0.5-1.2,0.4-1.6c0.4-0.2,0.4-0.2,0.4-0.7
		c0-0.7,0.2-1.4,0.3-2.1c0-0.1,0.2-0.3,0.3-0.3C2.8,17,3.3,16,4,15.3c0.4-0.3,0.4-1.1,1.2-0.6c0.3-0.4,0.6-1,1-1.3
		c0.5-0.3,1.1-0.3,1.3-1c0.2-0.6,0.5-0.5,0.8,0.1c0.1,0.1,0.2,0.4,0.3,0.4c0.8-0.2,1.8-0.1,2.3-0.6c0.8-0.7,1.7-1,2.6-1.5
		c0.7-0.3,1.3-0.8,2-1.1c0.9-0.4,1.1-1,1-1.8c-0.1-0.9,0-1.8,0-2.7c0-0.2,0.1-0.3,0.2-0.5c0.2,0.1,0.4,0.2,0.6,0.3
		c0.1,0.1,0.2,0.3,0.3,0.4c0.1-0.2,0.3-0.4,0.4-0.6c0.2-0.8,0.4-1.7,0.7-2.6C18.7,2.1,19,2,19.2,1.8c0.2,0.2,0.3,0.3,0.4,0.5
		c0.3,0.5,0.5,1.1,0.8,1.6c0.2,0.3,0.5,0.5,0.8-0.1c0.5-1.1,1.1-2.3,1.6-3.4C22.9,0.2,23.3,0,23.4,0c0.2,0.1,0.5,0.3,0.6,0.6
		c0.1,0.9,0.2,1.8,0.3,2.6c0,0.2,0.1,0.3,0.1,0.5c0.1-0.1,0.3-0.2,0.4-0.3c0.6-0.9,1.1-1.8,1.7-2.7c0.3-0.4,0.6-0.3,0.8,0.1
		c0.1,0.1,0.1,0.3,0.1,0.5c0.4,1.2,1.1,1.5,2.2,0.8c1-0.7,1-0.7,1.6,0.4c0.3,0.5,0.5,0.8,1,0.3c0.4-0.4,0.7,0,0.8,0.3
		c0.3,0.6,0.6,1,1.4,0.7c0.2-0.1,0.6,0.2,0.8,0.4c0.3,0.4,0.4,0.7,0.9,0.5c0.1,0,0.3,0,0.3,0c0.1,1.1,1.2,1.2,1.7,1.8
		c0.3,0.3,0.7,0.6,1.1,0.9C39.6,7.6,39.9,7.7,40,8c0.8,1.5,1.7,1.9,3.3,1.3c0.7-0.3,1.3-0.5,2-0.8C46.7,8,48.2,8,49.7,8.1
		c1.7,0.2,2.9,1.4,3.2,2.9c0.3,1.5-0.6,2.7-1.7,3.7c-0.2,0.2-0.4,0.2-0.6,0.4c-0.6,0.4-1.1,0.8-1.7,1.1c0.8,0.1,1.6,0.4,2.4,0.3
		c0.8-0.1,1.6-0.4,2.3-0.8c1.6-0.8,3.1-1.7,4.7-2.5c1.4-0.7,2.8-1.3,4.4-1.2c2,0,3.1,0.8,3.8,2.6C67.3,16.3,67.6,18,67.4,19.9z"/>
	<path d="M47.9,19.2c-0.6-0.1-1.3-0.1-1.9-0.4c-3.2-1.3-6.5-2.7-9.7-4.1c-0.3-0.1-0.5-0.3-0.7-0.5c0.4,0.1,0.8,0.1,1.2,0.3
		c3.4,1.4,6.8,2.8,10.2,4.2C47.4,18.8,47.7,19,47.9,19.2z"/>
	<path d="M10.1,24.1c0.7-0.5,1.4-1,2.2-1.5c1.3-0.8,1.5-1.9,1.2-3.3c-0.1-0.2-0.1-0.5-0.1-0.7c0-0.1,0.1-0.2,0.1-0.3
		c0.1,0.1,0.2,0.1,0.3,0.2c1,1.3,0.5,3.7-1,4.6c-0.8,0.5-1.4,1.4-2.6,1.2C10.2,24.3,10.1,24.2,10.1,24.1z"/>
	<path d="M28.1,11.4c-0.9,0-1.9,0-2.8,0c-1.5,0.1-2.9,0.2-4.4,0.3c0.5-0.2,1-0.7,1.5-0.7c1.7-0.1,3.4,0,5.1,0
		C27.8,11,28,11.3,28.1,11.4z"/>
	<path d="M32.8,12.8c-1.6-0.3-3.2-0.8-4.7-1.4C29.8,11.4,31.5,11.7,32.8,12.8z"/>
	<path d="M18.6,12.2c0,0.7-1.1,1.7-1.6,1.6c-0.1,0-0.2-0.2-0.1-0.2c0.4-0.5,0.8-1,1.2-1.4C18.1,12,18.4,12.2,18.6,12.2z"/>
	<path d="M19.5,13.5c0.1,0.2,0.3,0.4,0.3,0.5c-0.3,0.3-0.6,0.6-0.9,0.9c-0.1,0-0.3,0-0.3-0.1c-0.1-0.1-0.1-0.4-0.1-0.4
		C18.8,14.1,19.2,13.8,19.5,13.5z"/>
	<path d="M35,13.9c-0.9-0.1-1.7-0.3-2.2-1.1C33.5,13.2,34.3,13.5,35,13.9z"/>
	<path d="M16.2,14.6c-0.4,0.1-0.7,0.3-1,0.4c0,0-0.1-0.1-0.2-0.2c0.3-0.2,0.6-0.3,0.9-0.4C15.9,14.2,16,14.4,16.2,14.6z"/>
</g>
</svg>
