<svg xmlns="http://www.w3.org/2000/svg" viewBox="0 0 800 457" width="800" height="457">
  <g transform="scale(0.6666666666666666, 0.6661807580174927)">
    <path d="M 567.500 19.193 C 566.400 19.816, 562.384 22.998, 558.576 26.264 C 543.328 39.341, 541.190 39.972, 512.064 39.988 C 492.350 39.999, 490.463 40.154, 488.564 41.913 C 486.667 43.670, 484.083 43.884, 456.704 44.551 L 426.908 45.277 425.444 48.109 L 423.979 50.940 411.257 51.220 L 398.535 51.500 396.193 55.750 L 393.850 60 381.498 60 C 368.212 60, 366.495 60.714, 364.474 67.082 C 363.926 68.807, 362.840 69, 353.683 69.002 L 343.500 69.004 340.859 73.252 C 339.407 75.588, 337.260 79.413, 336.089 81.750 L 333.959 86 322.096 86 C 307.987 86, 309.034 84.660, 309.014 102.750 C 309 114.778, 308.959 115, 306.750 115.015 C 303.063 115.040, 301.811 116.497, 301.257 121.409 C 300.616 127.096, 298.672 128.823, 288.705 132.561 C 284.742 134.047, 274.630 138.380, 266.233 142.191 C 257.836 146.002, 248.549 149.951, 245.596 150.967 C 233.954 154.972, 184.798 181.899, 162.027 196.744 C 143.243 208.990, 114.346 231.096, 86.500 254.522 C 79.900 260.075, 70.225 267.475, 65 270.967 C 49.643 281.230, 35.383 293.590, 32.424 299.200 C 31.466 301.018, 31 305.186, 31 311.950 L 31 322 27.196 322 C 23.266 322, 18.762 325.531, 16.120 330.684 C 12.949 336.869, 17.029 352.326, 25.209 365.113 C 32.713 376.843, 79.981 424.821, 96.062 437.030 C 100.703 440.554, 108.550 447.074, 113.500 451.520 C 123.416 460.425, 149.688 480.118, 159.950 486.337 C 163.553 488.520, 170.325 492.863, 175 495.988 C 200.245 512.863, 258.874 541.444, 280.681 547.507 C 291.364 550.476, 291.296 550.304, 292.158 576.787 C 293.096 605.631, 294.430 617.364, 297.981 628 C 299.542 632.675, 301.068 638.300, 301.372 640.500 C 302.206 646.531, 311.338 664.212, 315.514 667.878 C 323.041 674.487, 329.258 672.109, 344.258 656.886 C 371.922 628.810, 384.616 605.017, 385.760 579.093 L 386.264 567.686 411.382 568.340 C 425.197 568.699, 441.749 569.287, 448.163 569.645 L 459.827 570.297 460.286 574.898 C 460.827 580.331, 469.136 605.077, 471.987 609.750 L 473.971 613 482.408 613 L 490.845 613 491.976 616.428 C 492.599 618.314, 494.874 622.589, 497.032 625.928 L 500.956 632 515.856 632 C 528.187 632, 530.980 632.271, 532.061 633.573 C 532.779 634.438, 535.196 636.075, 537.433 637.210 C 539.670 638.344, 545.325 642.947, 550 647.439 C 571.904 668.482, 580.590 675.015, 586.622 674.986 C 590.023 674.969, 602.619 668.327, 609 663.185 C 634.304 642.796, 719.153 570.919, 732 558.992 C 768.500 525.103, 815.176 480.569, 826.500 468.830 C 855.434 438.835, 877.635 409.747, 884.565 392.754 L 886.500 388.007 900.227 388.004 C 912.244 388, 914.740 388.296, 920.263 390.374 C 927.282 393.017, 936.064 397.311, 939.951 400.002 C 941.353 400.973, 953.525 408.649, 967 417.061 C 980.475 425.472, 1003.200 439.846, 1017.500 449.002 C 1057.683 474.730, 1072.131 482.615, 1104.577 496.528 C 1135.505 509.790, 1173.673 518.456, 1181.859 514.075 C 1189.581 509.943, 1190.270 497.698, 1183.531 484.352 C 1167.447 452.498, 1136.924 412.748, 1084.275 355.088 C 1078.042 348.262, 1069.805 338.982, 1065.971 334.466 L 1059 326.255 1059 311.250 C 1059 298.806, 1059.269 296.021, 1060.577 294.936 C 1066.591 289.945, 1128.194 201.017, 1144.006 174.500 C 1145.318 172.300, 1150.882 163.525, 1156.370 155 C 1181.974 115.227, 1188 103.959, 1188 95.854 C 1188 73.550, 1154.524 78.091, 1108.127 106.689 C 1089.383 118.242, 1047.509 148.279, 1025.610 165.879 C 990.507 194.091, 931.074 239.372, 925.114 242.446 C 923.252 243.406, 916.998 246.174, 911.217 248.596 L 900.705 253 886.852 253 L 873 253 873 249.471 C 873 234.961, 845.144 203.525, 801 168.218 C 790.275 159.641, 777.675 149.407, 773 145.477 C 722.439 102.971, 624.263 33.378, 596.500 20.363 C 590.872 17.725, 571.476 16.942, 567.500 19.193" stroke="none" fill="black" fill-rule="evenodd"/>
  </g>
</svg>