<?xml version="1.0" encoding="iso-8859-1"?>
<!-- Generator: Adobe Illustrator 25.3.0, SVG Export Plug-In . SVG Version: 6.00 Build 0)  -->
<svg version="1.1" id="Calque_1" xmlns="http://www.w3.org/2000/svg" xmlns:xlink="http://www.w3.org/1999/xlink" x="0px" y="0px"
	 viewBox="0 0 85.1 8.3" style="enable-background:new 0 0 85.1 8.3;" xml:space="preserve">
<g>
	<path d="M67.1,8c-1.9,0-3.7,0-5.6,0c-1.5,0-3.1,0.4-4.6,0.3c-2.5-0.1-5-0.5-7.4-0.8c-0.4,0-0.7-0.2-1-0.2c-3.3-0.1-6.6-0.1-9.8-0.4
		c-4.4-0.5-8.7,0-13.1-0.4C20.3,6.1,15.2,6.4,10,6.2C9.3,6.2,8.5,6,7.7,6C7.4,6,7,6,6.7,6.1C4.3,6.6,2.4,5.7,0.6,4.3
		C0.2,4.1-0.1,3.5,0,3.1c0.1-0.6,0.5-1.2,1.3-1.3c1.1-0.1,2.2-0.2,3.4-0.3c9.8-0.8,19.5-0.2,29.3-0.4c1.8,0,3.7-0.3,5.5-0.4
		c1.5-0.1,2.9-0.2,4.4-0.3c3.2-0.1,6.4,0,9.5-0.1c1.4,0,2.7-0.2,4.1-0.3c1,0,2-0.2,3,0.2c0.4,0.2,0.9,0.1,1.4,0.1c1.4,0,2.9,0,4.3,0
		c3.1,0,6.1,0.3,9.1,0.7c1.5,0.2,3,0.2,4.4,0.4c1.4,0.2,2.8,0.5,4.2,0.8c0.3,0.1,0.6,0.4,0.8,0.7c1,1.5,0.2,3.7-1.6,4
		c-1.7,0.3-3.4,0.6-5.1,0.7C74.4,7.9,70.7,8,67.1,8C67.1,8.1,67.1,8.1,67.1,8z"/>
</g>
</svg>
