<?xml version="1.0" encoding="iso-8859-1"?>
<!-- Generator: Adobe Illustrator 25.3.0, SVG Export Plug-In . SVG Version: 6.00 Build 0)  -->
<svg version="1.1" id="Calque_1" xmlns="http://www.w3.org/2000/svg" xmlns:xlink="http://www.w3.org/1999/xlink" x="0px" y="0px"
	 viewBox="0 0 87.5 43.1" style="enable-background:new 0 0 87.5 43.1;" xml:space="preserve">
<g>
	<path d="M84.8,32c-0.7-0.2-1.9-0.4-3-0.7c-1.3-0.4-2.6-0.8-3.9-1.3c-0.8-0.3-1.7-0.4-2.6-0.5c-1.1-0.1-2.2-0.7-3.4-1.1
		c-0.4-0.1-0.8-0.4-1.1-0.4c-1.5-0.1-3,0-4.5,0c-0.2,0-0.4,0.1-0.6,0.2c0.1,0.2,0.1,0.5,0.2,0.6c1.3,1.1,1.2,2.6,1,4
		c-0.1,0.8-2,2.6-2.7,2.5c-0.8-0.1-1.6-0.5-2.4-0.7c-0.3-0.1-0.7-0.1-1,0c-0.6,0.1-0.6,0.4-0.2,0.8c0.5,0.5,1,1,1.4,1.6
		c0.3,0.4,0,0.9-0.4,0.9c-0.6-0.1-1.2-0.2-1.7-0.4c-1.6-0.6-3.1-1.3-4.6-1.9c-0.4-0.1-0.7-0.5-1.1,0.1c-0.1,0.1-0.6,0-0.8-0.1
		c-2.1-1.4-4.4-2-6.9-2.2c-0.8-0.1-1.5-0.4-2.2,0c-0.2,0.1-0.5,0.2-0.7,0.1c-1.8-0.5-3.6,0.4-5.3,0.2c-0.3,0-0.7,0.1-0.8,0.3
		c-0.1,0.2,0,0.6,0.2,0.8c1.5,1.5,2,3.4,2.4,5.3c0.2,0.9-0.2,1.6-0.3,2.4c0,0.2-0.4,0.4-0.7,0.4c-0.6-0.1-1.2-0.2-1.7-0.4
		c-0.8-0.4-1.5-1.1-2.6-0.8c-0.2,0.1-0.6,0-0.8-0.2c-0.8-0.8-1.6-1.5-2.4-2.4c-1.2-1.3-2.6-2.4-3.5-3.9c-0.6-1-1.7-1.1-2.7-1.2
		c-2-0.2-4-0.4-6.1-0.3c-2.3,0.1-4.5-0.5-6.6-1.5c-0.6-0.3-1.2-0.6-1.8-0.7c-1.7-0.2-3.1-1.1-4.5-1.9c-1.2-0.7-2.4-1.5-3.7-2.2
		c-0.3-0.2-0.7-0.3-1-0.3c-1.1,0-1.5-0.8-1.9-1.7c-0.1-0.2,0-0.6,0.1-0.8c0.5-1,1.1-1.9,1.6-3c0.5-1,1.6-1.7,2.5-2.5
		c0.4-0.4,1-0.7,1.3-1.2c0.8-1.2,2.2-1.6,3.1-2.6c0.3-0.3,0.8-0.4,1.3-0.5c2.5-0.7,4.6-2,6.7-3.5c1.1-0.9,2.4-1.6,3.8-1.8
		c0.9-0.1,1.3-0.5,1.5-1.5c0.2-1.2,0.6-2.3,1-3.4c0.2-0.5,0.4-0.9,1-0.4c0.7,0.6,1.1,0.2,1.4-0.5c0.2-0.4,0.3-0.8,0.5-1.1
		c0.2-0.3,0.4-0.7,0.6-0.8c0.2-0.1,0.5,0.4,0.8,0.5c0.7,0.5,1,0.4,1.4-0.4c0.3-0.6,0.6-1.3,0.9-1.9c0.2-0.4,0.4-0.5,0.8-0.1
		c0.1,0.1,0.3,0.2,0.4,0.4c1,1.1,1,1.1,1.8-0.1c0.5-0.8,1.7-0.6,2.2,0.5c0.3,0.8,0.6,0.6,1,0.2C35.9,1.1,36,1,36.1,0.9
		c0.3-0.4,0.7-1.1,1.2-0.8c0.4,0.3,1.3,0.3,1.3,1.3c0,0.8,0.5,0.7,0.9,0.3c0.3-0.3,0.6-0.5,0.8,0c0.3,0.6,1.3,0.8,1.1,1.7
		c0,0,0.3,0.1,0.4,0.1c0.2,0,0.3-0.1,0.5-0.2c1.1-0.6,1.1-0.6,1.8,0.3c0.4,0.5,0.6,0.6,1.2,0.3c0.3-0.2,0.8-0.4,0.9-0.3
		C46.5,4,47,4.6,47,5c-0.2,0.9,0.1,0.9,0.8,0.7c0.2-0.1,0.5-0.2,0.7-0.1c0.8,0.6,1.8,1.1,2.1,1.9c0.3,0.7,1.3,0.6,1.2,1.3
		c-0.1,0.9,0.9,0.7,1,1.2c0.2,0.9,0.7,0.7,1.3,0.5c0.1-0.1,0.2-0.1,0.3-0.1c0.8-0.1,1.4-1,2.5-0.5c0.8,0.4,1.8,0.3,2.8,0.3
		c1.7,0,3.2,0.7,4.8,1.3c2.1,0.8,3.9,2,4.9,4.2c0.3,0.7,0.5,1.3,0.1,2c-0.1,0.3-0.3,0.6-0.3,0.8c0,0.4,0,1,0.2,1.3
		c0.4,0.5,0.9,0,1.3-0.2c1.2-0.4,2.3-0.9,3.5-1.3c3.2-1,6.5-2.1,9.7-3.1c0.8-0.2,1.6-0.4,2.4-0.5c1-0.1,1.3,0.3,1.1,1.3
		c-0.3,1.3-0.7,2.6-1,3.9c-0.2,0.7-0.3,1.5-0.3,2.3c0,2.1-0.1,4.2,0,6.3c0,0.6,0.2,1.3,0.4,1.9C86.8,31.6,86.5,32,84.8,32z"/>
	<path d="M73.1,24.2c-0.3,0.1-0.5,0.3-0.6,0.3c-1.5-0.5-3.1-0.1-4.6-0.3c-2.2-0.3-4.5-0.2-6.5-1.3c-0.2-0.1-0.4-0.2-0.6-0.4
		c-0.1,0-0.1-0.2-0.1-0.3c0.1,0,0.2-0.1,0.3,0c0.6,0.2,1.1,0.4,1.6,0.7c1.2,0.5,2.5,0.7,3.8,0.7c2,0,4,0.2,6,0.4
		C72.6,23.8,72.8,24,73.1,24.2z"/>
	<path d="M35.6,13c-1.4,0-2.9,0-4.3,0c-0.4,0-0.8-0.1-1.1,0c-1.7,0.7-3.3,0.1-4.9-0.3c-0.6-0.1-1.2,0.1-1.7,0.1
		c-0.2,0-0.3-0.1-0.5-0.1c0.1-0.1,0.3-0.4,0.5-0.4c0.5-0.1,1.1-0.2,1.6,0c1.9,0.6,3.8,0.3,5.7,0.3c1.3,0,2.5,0,3.8,0
		C35,12.7,35.3,12.9,35.6,13L35.6,13z"/>
	<path d="M51.4,18.8c1.6,0.5,3.3,1,4.9,1.6c0.8,0.3,1.5,0.6,2.3,0.9c0.2,0.1,0.3,0.1,0.5,0.2c-0.2,0.1-0.5,0.2-0.6,0.1
		c-0.7-0.2-1.4-0.4-2-0.7c-1.5-0.6-3-1.1-4.5-1.7C51.8,19.1,51.6,18.9,51.4,18.8L51.4,18.8z"/>
	<path d="M20.7,24.8c0-0.9-0.9-1.5-0.4-2.5c0.1-0.1-0.4-0.5-0.5-0.9c0-0.1,0.1-0.2,0.1-0.3c0,0,0.1,0,0.1,0c0.3,0.2,0.8,0.4,1,0.7
		c0.1,0.2,0,0.7-0.1,1c-0.2,0.6,0.1,1,0.4,1.4c0.3,0.5-0.1,0.6-0.5,0.7C20.9,24.9,20.8,24.8,20.7,24.8z"/>
	<path d="M51.4,18.8c-1.8-0.3-3.5-1-5-2.1l0,0C48.2,17,49.9,17.7,51.4,18.8L51.4,18.8z"/>
	<path d="M35.6,13.1c1.7,0.1,3.2,0.6,4.7,1.4l0,0C38.6,14.4,37,13.9,35.6,13.1L35.6,13.1z"/>
	<path d="M40.3,14.5c1.5,0.3,3.1,0.4,4.3,1.4l0,0C43.1,15.5,41.5,15.5,40.3,14.5L40.3,14.5z"/>
	<path d="M75.2,23.4c-0.1,0.3-0.1,0.6-0.2,0.9c0,0.1-0.2,0.1-0.3,0.1c0,0-0.1-0.1-0.1-0.1c0.1-0.3,0.1-0.6,0.2-0.8
		c0.1-0.3,0.1-0.6,0.1-0.8C75.1,22.9,75.2,23.2,75.2,23.4z"/>
	<path d="M56,30.4c-0.1,0-0.1-0.1-0.2-0.1c0-0.1,0-0.3,0-0.3c0.4-0.2,0.7-0.4,1.1-0.5c0.1,0,0.2,0.1,0.3,0.1c0,0,0,0.1-0.1,0.1
		C56.9,30,56.4,30.2,56,30.4z"/>
	<path d="M46.4,16.6c-0.7,0-1.4-0.1-1.8-0.7l0,0C45.3,15.9,45.9,16,46.4,16.6L46.4,16.6z"/>
	<path d="M9.5,21.5c-0.2-0.1-0.9-0.1-1.2-0.4c-0.9-0.8-0.6-2.3,0.4-3c0.4-0.3,0.6-0.2,0.7,0.3c0,0.1,0.2,0.2,0.3,0.3
		c0.1-0.1,0.2-0.3,0.2-0.4c-0.2-0.6,0.3-0.7,0.5-0.5c0.4,0.3,0.9,0.7,1,1.2c0.1,0.8,0.7-0.4,0.7,0.3c0,0.5-0.2,0.9-0.6,1.2
		c-0.3,0.3-0.3,0.8-0.6,1C10.7,21.6,10.2,21.5,9.5,21.5z"/>
</g>
</svg>
