<?xml version="1.0" encoding="iso-8859-1"?>
<!-- Generator: Adobe Illustrator 25.3.0, SVG Export Plug-In . SVG Version: 6.00 Build 0)  -->
<svg version="1.1" id="Calque_1" xmlns="http://www.w3.org/2000/svg" xmlns:xlink="http://www.w3.org/1999/xlink" x="0px" y="0px"
	 viewBox="0 0 246.1 78.5" style="enable-background:new 0 0 246.1 78.5;" xml:space="preserve">
<g>
	<path d="M227.3,61.3c-6.8,0.7-12.4-2.7-18.3-4.7c-6.9-2.4-13.8-4.6-20.7-6.9c-1.3-0.4-2.8-1.1-1.9,1.6c0.7,2.1-0.4,3.4-2.5,4.1
		c-2.8,0.9-5.4,1.3-8.3,0.4c-5.7-1.6-11.5-3.2-17.2-4.7c-1.4-0.4-3-1-4.3-0.7c-6.4,1.3-12.9,0.7-19.4,0.9c-1.2,0-2.1,0.2-0.9,1.6
		c0.2,0.3,0.4,0.5,0.6,0.8c3.3,6.1,2.1,9.5-4.2,12.7c-5.1,2.6-10.2,2.1-15.4,0.4c-5.3-1.7-9.4-4.9-11.8-10c-0.8-1.7-1.8-2.6-3.8-2.5
		c-4,0.1-8,0-12,0c-1.7,0-2.3,0.6-2.4,2.3c-0.2,4.8-0.7,9.6-0.9,14.4c-0.1,3.1-1.6,5.1-4.2,6.2c-3.4,1.5-7.1,1.9-10.7,0.7
		c-2.7-0.9-5.3-2-7.7-3.5c-3.9-2.5-7.6-5.3-11.3-8.1c-3-2.3-5.1-5.3-6.6-8.6c-1.5-3.3-3.5-5.1-7.4-5.5c-5.6-0.5-11.1-1.8-16.6-2.8
		c-0.7-0.1-1.7-0.7-1.9-0.5c-2.7,3-4.3,0.4-6-1.2c-1.1-1.1-1.9-1.5-3.2,0.1c-1,1.2-1.1,0.8-3.1-0.7c-0.8-0.7-2.3-0.5-3.3-1
		c-1.2-0.5-2.6-1.2-0.7-2.8c0.5-0.4,1.2-1,1.2-1.5c0.2-4.3,2.9-6.8,6.2-9c1.3-0.9,2-2.6,2.9-4c0.8-1.4,1.6-1.1,2.1,0
		c0.7,1.5,1.6,0.9,2.3,0.4c6.6-4.7,14.1-4.1,21.4-3.5c6.3,0.6,12.6,0.7,18.9,0c1.5-0.2,3-0.3,4.5-0.3c6.8-0.1,13.7-0.1,20.5-0.1
		c5.1,0,8.9-1.6,12.5-5.8c4.8-5.7,10.5-10.6,16.3-15.4c3-2.5,6.7-4.1,11.1-3.9c2.8,0.1,4.8,1,6.4,3.2c3.8,5.3,8.5,9.8,13.6,13.8
		c1.9,1.5,3.5,3.5,5,5.5c0.9,1.2,1.9,1.7,3.3,1.7c11.2-0.1,22.4,0.6,33.5-0.3c10-0.9,20-2.4,29.9-4.4c10.3-2.1,20.8-2.1,31.2-0.3
		c0.6,0.1,1.4,0.2,1.9,0.6c0.4,0.3,0.7,1.1,0.8,1.6c0,0.2-0.7,0.7-1.1,0.7c-3.4,0.4-6.9,0.9-10.4,1.1c-3.3,0.2-5.6,1.8-7.2,4.5
		c-0.9,1.6-1.8,3.2-2.5,4.9c-1.4,3.7-0.8,7.1,1.8,10.2c3.7,4.3,8.5,6.9,13.5,9.2c0.8,0.3,1.7,0.4,2.3,0.8c0.8,0.5,1.5,1.2,1.8,2.1
		c0.1,0.3-0.9,1.3-1.5,1.7C238.2,59.8,233.1,62.2,227.3,61.3z"/>
	<path d="M119.8,42.3c-0.6-0.1-1.1-0.2-1.5-0.4c-0.2-0.1-0.4-0.5-0.4-0.8c0-0.3,0.3-0.6,0.5-0.7c0.3-0.2,0.6-0.2,0.9-0.2
		c4.4-0.3,8.9-0.8,13.3-0.9c8.9-0.2,17.8-1,26.6-2c5.9-0.7,11.9-0.8,17.8-1.1c1.8-0.1,3.7-0.2,5.5,0c1.1,0.1,2.5-1.6,3.4,0.5
		c-1.2,0.2-2.4,0.6-3.6,0.7c-6.7,0.6-13.4,1.3-20.2,1.8c-4.8,0.4-9.5,0.8-14.3,1.1c-7.8,0.4-15.5,0.7-23.3,1.1
		C123,41.4,121.4,42,119.8,42.3z"/>
	<path d="M24.8,41.8c-1.3-0.4-2.8-0.5-3.9-1.2c-0.8-0.6-1.3-2-1.3-3c-0.1-4,2.5-6.5,6.5-6.4c3.3,0.1,6.5,2.6,6,5.2
		c-0.3,1.6-1.8,3.1-2.7,4.5C28.1,42.7,26.5,41.6,24.8,41.8z"/>
	<path d="M125.8,27.4c-10.3-0.4-20.6-0.8-30.8-1.2c-0.5,0-1,0-1.5-0.2c-0.2-0.1-0.5-0.4-0.6-0.7c0-0.2,0.2-0.6,0.4-0.8
		c0.2-0.2,0.6-0.3,0.9-0.3c4.7,0,9.3-0.1,14,0.1c3.3,0.1,6.6,0.8,9.9,0.8c6.8,0.1,13.7,0,20.5,0.1c0.8,0,1.5,0.6,2.3,0.9
		c-0.9,0.4-1.7,1-2.6,1.1c-2.3,0.2-4.7,0.1-7,0.1C129.4,27.3,127.6,27.3,125.8,27.4C125.8,27.3,125.8,27.3,125.8,27.4z"/>
	<path d="M90,41.1c4,0,8,0,12,0c1,0,1.9,0.3,2.9,0.4c-0.8,0.3-1.6,0.7-2.5,0.9c-1.6,0.3-3.2,0.7-4.9,0.7c-6.3,0.1-12.7,0-19,0
		c-1,0-2,0-3-0.2c-0.3-0.1-0.6-0.7-0.7-1.1c0-0.1,0.4-0.6,0.7-0.6c1-0.1,2-0.1,3-0.1C82.3,41.1,86.2,41.1,90,41.1
		C90,41.1,90,41.1,90,41.1z"/>
	<path d="M59.1,42.1c-4.1-0.3-8.2-0.6-12.2-1c-0.4,0-0.7-0.6-1-0.8c0.3-0.3,0.6-0.8,0.9-0.9c0.8-0.2,1.6-0.2,2.5-0.1
		c3.7,0.3,7.5,0.5,11.2,0.9c0.6,0.1,1.1,0.8,1.7,1.2c-0.5,0.3-1.1,0.6-1.6,0.8c-0.5,0.1-1,0-1.5,0C59.1,42.1,59.1,42.1,59.1,42.1z"
		/>
	<path d="M30.7,47.3c0.1-0.3,0.2-0.7,0.4-0.8c2-1.1,4.1-2.2,5.1-4.5c0.1-0.2,0.5-0.1,0.8-0.2c0.1,0.5,0.4,1,0.2,1.4
		c-1.2,2.6-3.7,3.6-6,4.8c-0.1,0-0.3-0.1-0.4-0.2C30.8,47.6,30.8,47.5,30.7,47.3z"/>
	<path d="M45.4,49.7c1.9,0.8,2.6-0.6,3.5-1.4c0.3-0.3,0.8-0.3,1.2-0.5c0.1,0.6,0.4,1.3,0.1,1.8c-1,1.8-4.9,2.4-6.4,1.1
		c-0.1-0.1-0.1-0.3-0.1-0.5c0.1-0.3,0.3-0.7,0.5-0.7C44.7,49.5,45.2,49.6,45.4,49.7z"/>
	<path d="M14.5,32.2c1,0.1,2.1,0,1.6,1.6c0,0.2-0.1,0.3-0.2,0.4c-0.9,0.6-1.8,1.2-2.7,1.7c-0.1,0-0.5-0.4-0.6-0.7
		c-0.6-1.6,1-1.8,1.7-2.5C14.3,32.5,14.4,32.4,14.5,32.2C14.5,32.2,14.5,32.2,14.5,32.2z"/>
	<path d="M109,49.6c-0.2,0.2-0.4,0.5-0.6,0.7c-0.3,0.2-0.6,0.4-0.9,0.4c-1.5,0.4-2.6,2.1-4.4,1.1c-0.1,0,0-0.3,0-0.4
		c0.4-1.1,3.2-2.4,5.1-2.2C108.4,49.2,108.7,49.5,109,49.6z"/>
</g>
</svg>
