<?xml version="1.0" encoding="iso-8859-1"?>
<!-- Generator: Adobe Illustrator 25.3.0, SVG Export Plug-In . SVG Version: 6.00 Build 0)  -->
<svg version="1.1" id="Calque_1" xmlns="http://www.w3.org/2000/svg" xmlns:xlink="http://www.w3.org/1999/xlink" x="0px" y="0px"
	 viewBox="0 0 84.4 45.9" style="enable-background:new 0 0 84.4 45.9;" xml:space="preserve">
<g>
	<path d="M34.6,1.4c1.4,0,2.9,0,4.3,0c0.4,0,0.9-0.1,1.2,0.1c1.7,0.8,3.2,0.1,4.9-0.2c2.6-0.6,5.2-1.4,7.9-1.3c1.8,0.1,2.4,0.5,3,2
		c0.1,0.2,0.2,0.5,0.1,0.7c-0.4,0.7,0.1,1.3,0.3,1.9c0.3,0.9,0.7,1.7,1.1,2.6c0.5,1.1,0,1.8-0.8,2.5c-0.2,0.2-0.5,0.3-0.7,0.5
		c-0.5,0.4-0.3,0.7,0.2,0.9c0.3,0.1,0.7,0.2,1,0.4c1.8,0.7,3.5,1.4,5.3,2.2c0.9,0.4,1.7,0.7,2.7,0.7c1.8-0.1,2.2,0.4,2.1,2.2
		c0,0.2,0,0.5,0.1,0.6c0.8,0.4,1.7,1,2.7,0.5c0.8-0.4,1.7-0.7,2.4-1.1c1.4-0.8,2.7-1.7,4-2.6c2.1-1.5,4.3-1.9,6.8-1.7
		c0.4,0,0.8,0.2,1,0.5c0.2,0.2,0.2,0.8,0.1,0.9c-1.1,1.2-1,2.7-1.2,4.2c-0.1,0.7-0.1,1.4-0.4,2.1c-0.5,1.3-0.5,2.6-0.1,4
		c0.4,1.3,0.6,2.6,0.4,3.9c-0.2,0.9-0.6,1.7-0.8,2.5c-0.1,1-0.1,2-0.1,3c0,0.3,0.1,0.7,0.2,1c0.1,1.7-0.5,2.1-2.1,1.8
		c-2.6-0.5-4.9-1.6-6.7-3.6c-1-1.1-1.6-2.5-2.5-3.7c-0.5-0.8-1.2-1.5-1.8-2.2c0-0.1-0.5,0.1-0.5,0.2c-0.1,2.2-1.6,3.6-2.7,5.3
		c-1.3,1.9-2.6,3.8-3.7,5.9c-1.1,2.1-1.8,4.3-2.6,6.6c-0.3,0.9-0.8,1.2-1.7,1.2c-2.6,0.1-4.7-1.1-6.8-2.5c-0.1-0.1-0.2-0.1-0.3-0.2
		c-0.9-1-2.1-1.1-3.4-0.8c-1.8,0.4-3.6,0.7-5.5,0.6c-2.9-0.2-5.7-0.5-8.6-0.6c-3.3-0.1-6.5-0.9-9.6-1.9c-4-1.3-8.1-2.7-10.8-6.4
		c-0.4-0.6-1.2-1-1.8-1.4c-1-0.7-1.9-1.3-2.9-2c-0.6-0.4-1.2-1-1.8-1.4c-1-0.7-2.2-1.3-3.1-2c-1-0.7-1.9-1.6-2.8-2.5
		c-1.4-1.5-1-4,0.8-5.1c0.5-0.4,0.7,0.2,1.1,0.3c0.2,0,0.3,0,0.5,0c0-0.1,0-0.3-0.1-0.4c-0.8-1.2-0.3-2.2,0.6-3
		c1.1-1.1,2.3-2.1,3.5-3.1c2.5-1.9,5.1-3.7,7.6-5.6c3-2.3,6.1-4.2,9.7-5.4c1.7-0.6,3.6-0.8,5.4-1C31.4,1.3,33,1.5,34.6,1.4
		C34.6,1.5,34.6,1.4,34.6,1.4z"/>
	<path d="M12.6,29.7c0.5-0.6,1.3-0.5,1.8-0.3c1,0.3,1.8-0.1,2.1-0.8c0.7-1.5,1.2-3.1,1.8-4.6c0.1-0.1-0.1-0.3-0.1-0.5
		c-0.1,0.2-0.2,0.3-0.3,0.5c-0.5,0.7-0.9,1.4-1.6,1.9c-1.5,1.2-3.2,1.1-4.9,0.8c-0.1,0-0.2-0.2-0.1-0.3c0-0.1,0.1-0.2,0.2-0.2
		c0.2,0,0.5-0.1,0.7,0c1.2,0.6,2.3,0.2,3.2-0.4c1.1-0.6,1.9-1.7,2.3-3.1c0.6-2.2,1-4.3,0.2-6.4c-0.3-0.9-0.9-1.6-1.4-2.5
		c-0.1-0.1-0.1-0.3-0.2-0.4c0.2,0,0.4,0,0.5,0c0.3,0.2,0.6,0.6,1,0.6c0.2,0,0.6-0.3,0.9-0.5c0,0,0,0,0,0c0.1,0.3,0.1,0.7,0.2,1
		c0.9,2.2,1.2,4.5,0.6,6.9c-0.5,1.9-0.6,3.8-1.5,5.6c-0.2,0.4-0.4,0.9-0.6,1.3c-0.6,1.2-1.4,1.8-2.8,1.7c-0.4,0-0.8,0-1.2,0
		C13,30,12.8,29.9,12.6,29.7z"/>
	<path d="M18.6,13.6c0.1-0.2,0.2-0.4,0.4-0.7c0.3,0.2,0.6,0.5,1,0.7c0.2,0.1,0.7-0.2,0.8-0.1c0.5,0.4,0.9,0.9,1.2,1.5
		c0.7,1.2,1.3,2.4,2,3.6c0.1,0.1,0.1,0.2,0.2,0.3c0,0.2-0.1,0.5-0.1,0.7c0-0.2,0.1-0.3,0.1-0.5c0-0.2,0-0.3-0.2-0.5
		c0-0.1,0-0.2,0-0.4c0-0.2,0.1-0.3,0.1-0.5c0.1,0.1,0.4,0.1,0.4,0.2c0.3,0.8,0.8,1.7,0.4,2.6c-0.3,0.8-0.1,1.5,0.2,2.2
		c0.2,0.6,0.2,1.4,0.2,2.1c0,0.6-0.2,1.2-0.3,1.7c-0.2,1.6-1,2.9-2.3,3.8c-0.1,0.1-0.2,0.2-0.3,0.3c0.1,0,0.2,0.1,0.3,0.1
		c1.8,0.1,3.7,0.3,5.5,0.3c1.7,0.1,3.1,0.7,4.6,1.3c0.3,0.1,0.4,0.5,0.1,0.7c-1.2,0.6-2.5,1.4-3.8,1.6c-2.1,0.3-4.2,0.7-6.4,0.1
		c-1.9-0.5-3.1-1.5-3.6-3.3c-0.1-0.5-0.3-0.6-0.7-0.4c0-0.2-0.1-0.4-0.1-0.5c0.4-0.3,0.9-0.7,1.4-0.9c1.9-0.8,3.3-3.7,2.8-5.8
		c0-0.2-0.1-0.4-0.1-0.5c0.1-0.2,0.3-0.5,0.5-0.7c0.1,0.2,0.2,0.4,0.2,0.6c0.1,2.4,0.1,4.8-2.2,6.4c-0.1,0-0.1,0.2-0.1,0.2
		c0.1,0,0.2,0.1,0.3,0c1.5-0.3,2.6-1.5,2.9-3.2c0.1-0.8,0.3-1.6,0.4-2.5c0.1-1.2-0.4-2.2-1-3.2c-0.3-0.4-0.2,0.1-0.3,0.2
		c-0.1,0.2-0.2,0.4-0.2,0.6c-0.2-0.2-0.5-0.5-0.5-0.7c0.2-1.2-0.6-2.4,0-3.5c0-0.1,0.1-0.2,0-0.3c-0.8-1-1-2.5-2.4-3
		C19.8,14.2,19.2,13.9,18.6,13.6L18.6,13.6z"/>
	<path d="M29.4,18.4c2.8,0.4,5.3,0.9,7.9,1.3c1.1,0.2,2.2,0.3,3.4,0.4c3.2,0.2,6.4,0.3,9.7,0.4c3,0.1,6.1,0.3,9.1,0.7
		c0.8,0.1,1.7,0.1,2.5,0c2.7-0.1,5.3,0.4,8,0.8c0.8,0.1,1.7,0.2,2.5,0.3c0.2,0,0.3,0.3,0.4,0.4c-0.2,0.1-0.3,0.2-0.5,0.2
		c-1.1-0.1-2.1-0.3-3.2-0.4c-1.4-0.2-2.8-0.3-4.2-0.6c-2.7-0.5-5.5-0.2-8.2-0.4c-1.6-0.1-3.2-0.4-4.8-0.6c-1.2-0.1-2.5-0.2-3.8,0
		c-0.9,0.1-1.7,0.2-2.6,0c-0.7-0.2-1.6,0-2.3-0.1c-1.8-0.2-3.5-0.4-5.3-0.6c-2.2-0.3-4.4-0.5-6.5-0.8c-0.6-0.1-1.3-0.2-1.9-0.3
		c-0.2,0-0.7,0.1-0.5-0.4C29.1,18.5,29.4,18.4,29.4,18.4z"/>
	<path d="M8.7,20.1c-1.1,0-2.2-1-2.3-2.1c-0.1-0.8,0.9-1.9,1.8-1.9c0.7,0,1.4,0.1,1.9,0.4c0.4,0.3,0.8,0.9,0.9,1.5
		C11.2,18.9,9.8,20.1,8.7,20.1z"/>
	<path d="M5.7,23.3c-0.3,0.2-0.6,0.6-0.9,0.7c-0.4,0.1-0.8,0.2-1.2,0c-0.5-0.2-0.9,0.7-1.4,0c0.4-0.2,0.8-0.4,1.2-0.5
		C4.2,23.4,4.9,23.4,5.7,23.3L5.7,23.3z"/>
</g>
</svg>
