<?xml version="1.0" encoding="iso-8859-1"?>
<!-- Generator: Adobe Illustrator 25.3.0, SVG Export Plug-In . SVG Version: 6.00 Build 0)  -->
<svg version="1.1" id="Calque_1" xmlns="http://www.w3.org/2000/svg" xmlns:xlink="http://www.w3.org/1999/xlink" x="0px" y="0px"
	 viewBox="0 0 85.5 25.9" style="enable-background:new 0 0 85.5 25.9;" xml:space="preserve">
<g>
	<path d="M37.3,14.3c3,0,6-0.2,9,0.1c3.1,0.3,6.2,0.1,9.3,0.3c2.9,0.2,5.8,0.6,8.7,1c0.4,0,0.7,0,1.1,0c2.6,0.1,5.1-0.2,7.7,0.3
		c1,0.2,2.1-0.1,3.2-0.3c1.7-0.4,3.5-0.9,5.1-1.5c1.5-0.6,1.9-1.8,1.4-3.3c-0.5-1.5-0.8-1.7-2.5-1.7c-2.6,0-5.2-0.1-7.7,0
		c-2.5,0.1-5,0.4-7.5,0.6c-0.8,0.1-1.7,0-2.5,0.1C58.4,9.9,54.2,10,50,10.2c-0.3,0-0.6,0.1-0.9,0.1c-1.8,0.5-3.6,0.2-5.1-0.8
		c-1.6-1.1-3.4-1.7-5.3-1.5c-0.3,0-0.6,0-0.9,0c-2.4,0.1-4.9,0.1-7.3,0.2c-3.1,0.1-6.3-0.1-9.5-0.5c-1.3-0.2-2.7,0.1-4.1,0.1
		c-1.1,0-2.2,0.3-3.2,0.1c-2.2-0.4-4.4-0.2-6.6-0.3C5,7.5,2.9,7.4,0.8,7.3c-0.2,0-0.4-0.1-0.5-0.2C0.2,7,0.1,6.9,0,6.7
		c0.1-0.1,0.3-0.2,0.4-0.2c1.1,0,2.2,0,3.2,0c0.4,0,0.8,0,1.3-0.1c0.1,0,0.2-0.2,0.2-0.2c0-0.1-0.1-0.2-0.2-0.2
		C3.8,5.8,2.8,5.7,1.7,5.5c-0.2,0-0.5,0-0.7-0.2C0.8,5.2,0.7,4.9,0.6,4.6c0-0.1,0.3-0.3,0.5-0.3c0.7,0,1.4,0,2.2,0
		C6,4.5,8.5,4.2,11.1,3.4c1.3-0.4,2.7-0.5,4.1-0.5c1.7-0.1,3.5,0,5.2,0c7.7-0.1,15.3-0.1,23-0.4c3.2-0.1,6.3-0.2,9.5-0.2
		c0.8,0,1.4-0.1,1.9-0.8c1-1.1,2.2-1.5,3.7-1.5c2.9,0.1,5.9-0.1,8.8,0.1c2.1,0.1,4.3,0.4,6.4,0.7c1.6,0.2,3.2,0.4,4.7,0.8
		c0.9,0.2,1.8,0.6,2.7,1c2.3,1,3.5,3,4.2,5.3c0.5,1.8,0.1,3.6-0.2,5.4c-0.9,5.6-4.8,8.4-9.8,9.8c-2.9,0.8-5.8,1.3-8.8,1.1
		c-2.9-0.2-5.9-0.2-8.8-0.4c-2.2-0.2-4.5-0.7-6.7-1c-1.2-0.2-2.4-0.3-3.5-0.4c-2.5-0.3-5.1-0.4-7.6-0.8c-5.8-0.9-11.6-0.7-17.4-0.7
		c-0.5,0-1,0-1.4,0.1c-1.4,0.3-1.7,1.2-0.8,2.3c1,1.3,2.4,1.7,3.9,1.8c1.3,0.1,2.6-0.2,3.9-0.3c1.4-0.1,2.7-0.3,4.1-0.4
		c0.3,0,0.6,0.1,0.9,0.2c0.3,0.1,0.6,0.3,0.9,0.4c-0.3,0.1-0.7,0.2-1,0.2c-1.7-0.1-3.3,0.4-5,0.6c-1.9,0.2-3.9,0.3-5.7,0
		c-1.7-0.2-3.1-1.2-3.8-2.9c-0.4-1.1-0.4-2,0-3.1c1.2-3,3.7-4.4,6.7-5.1c1.1-0.3,2.4-0.4,3.5-0.4C31.6,14.3,34.5,14.3,37.3,14.3
		C37.3,14.3,37.3,14.3,37.3,14.3z"/>
	<path d="M30.3,4.4c0.4,0.3,0.6,0.6,0.8,0.8c-0.3,0.2-0.5,0.5-0.8,0.6c-0.3,0-0.6-0.3-0.8-0.5C29.7,5,29.9,4.8,30.3,4.4z"/>
</g>
</svg>
