<?xml version="1.0" encoding="iso-8859-1"?>
<!-- Generator: Adobe Illustrator 25.3.0, SVG Export Plug-In . SVG Version: 6.00 Build 0)  -->
<svg version="1.1" id="Calque_1" xmlns="http://www.w3.org/2000/svg" xmlns:xlink="http://www.w3.org/1999/xlink" x="0px" y="0px"
	 viewBox="0 0 80.9 36.2" style="enable-background:new 0 0 80.9 36.2;" xml:space="preserve">
<g>
	<path d="M49.9,7.4c1.4-0.4,2.9-0.6,4.3-1.1c0.9-0.3,1.5-0.1,2.3,0.4c2.1,1.4,4.2,2.7,5.9,4.6c0.2,0.3,0.5,0.5,0.7,0.8
		c0.6,0.7,0.2,1.3-0.4,1.8c-0.1,0.1-0.1,0.3-0.1,0.3c0.1,0.1,0.3,0.2,0.4,0.2c1.8-0.3,3.5-1.1,5.1-2.1c3.4-2.2,7-4.1,10.9-5.4
		c0.6-0.2,1.2-0.8,1.8-0.1c0.5,0.6-0.1,1.1-0.4,1.6c-0.8,1.5-1.7,3-2.5,4.5c0,0.1-0.1,0.1-0.1,0.1c-2.1,2.8-1.7,5.5,0,8.2
		c0.6,0.9,1,1.9,1.4,2.8c0.1,0.2,0.2,0.4,0.2,0.7c0.1,1.1-0.4,1.5-1.4,1c-1.8-0.9-3.6-1.8-5.4-2.8c-2.1-1.2-4.2-2.5-6.3-3.7
		c-0.5-0.3-1-0.4-1.5-0.5c-0.7-0.1-1.1-0.1-1.3,0.9c-0.4,1.7-1.8,2.8-3.2,3.7c-1.4,0.9-2.8,2-4.7,1.9c-0.2,0-0.5,0.1-0.7,0.3
		c-1,0.7-1,0.7-1.8,0.8c-0.3,0-0.9,0.4-0.8,0.4c0.3,1.1-0.4,1-1.1,1c-0.3,0-1,0-1,0.1c-0.3,1.3-1.3,0.9-2.2,1c-0.6,0.1-1,0.3-0.8,1
		c0.1,0.7,0,0.7-0.7,0.5c-0.5-0.2-1.1-0.4-1.7-0.4c-0.9,0-1.2,0.5-1.1,1.5c0,0.3-0.1,0.5-0.1,0.8c-0.2-0.2-0.5-0.3-0.7-0.5
		c-0.5-0.6-1.1-0.9-1.9-0.8c-0.9,0.1-0.9,0.1-0.9,1.2c0,0.2,0,0.4-0.1,0.4c-0.1,0.1-0.4,0.1-0.5,0c-0.4-0.3-0.8-0.8-1.2-1.1
		c-1.1-0.8-1.5-0.7-2.4,0.4c-0.1,0.1-0.2,0.1-0.2,0.2c-0.1-0.1-0.2-0.2-0.2-0.3c-0.2-0.8-0.3-1.6-0.5-2.4c-0.2-0.7-0.6-1.1-1.3-0.9
		c-1.9,0.6-3.8,0.2-5.7,0.3c-0.4,0-0.8,0-1.3,0c-0.6,0.1-1,0.6-0.8,1.1c0.1,0.3,0.3,0.7,0.4,1c0.3,0.6,0.2,1-0.4,1.5
		c-0.7,0.6-1.2,1.4-1.9,2.1c-0.4,0.4-0.7,0.8-1.2,1.1c-1.3,0.8-2,0.7-2.5-0.7c-0.7-1.9-1.3-3.8-1.8-5.7c-0.2-0.8-0.4-1-1.2-1.2
		c-3.2-0.7-6.4-1.4-9.3-3.1c-1.8-1-3.5-2.3-5.2-3.4c-0.7-0.4-1.5-0.7-1.9-1.5c-0.3-0.7-0.7-1.3-0.9-2c-0.1-0.3,0.1-0.9,0.3-1.2
		c1.2-1.4,2.4-2.9,4.2-3.8c2.5-1.4,5-2.7,7.1-4.7c0.4-0.4,1.2-0.6,1.2-0.9c0-0.5-0.4-1.1-0.7-1.6c-0.2-0.4-0.4-0.9-0.6-1.3
		c-0.1-0.1,0-0.3,0-0.5c0.1,0.1,0.3,0.1,0.4,0.2c0.3,0.4,0.5,0.8,0.8,1.2c0.1,0.1,0.5,0.2,0.6,0.2c0.2,0,0.3-0.3,0.3-0.5
		C13.9,4.2,14,3.1,14.2,2c0-0.1,0.2-0.3,0.2-0.4c0.1,0.2,0.2,0.3,0.2,0.5c0,0.8,0.2,1.6,1,1.6c0.8,0.1,1.4-0.5,1.8-1.3
		c0.1-0.3,0.2-0.6,0.4-0.8c0.1-0.2,0.4-0.3,0.6-0.4c0,0.2,0,0.4,0,0.6c0,1,0.7,1.5,1.6,1.2c0.9-0.4,1.3-1.1,1.8-1.9
		c0.1-0.2,0.4-0.3,0.6-0.5c0,0.2,0,0.4-0.1,0.6c-0.2,1.1,0.1,1.4,1.2,1.2c1-0.2,1.8-0.6,2.2-1.6c0.1-0.2,0.4-0.3,0.6-0.4
		c0,0.2,0,0.4,0,0.6c0,0.2-0.1,0.5-0.1,0.7c0,0.5,0.5,0.8,0.9,0.5c0.7-0.5,1.3-1,1.9-1.6c0.3-0.3,0.5-0.4,0.8,0.1
		c0.5,1,0.9,1.2,1.8,0.9c0.9-0.2,1.7-0.5,2.3-1.3C33.8,0.1,34,0.1,34.2,0c0,0.2,0.1,0.4,0,0.6c-0.1,0.4,0,0.6,0.4,0.6
		c0.3,0,0.6,0.1,0.9,0c0.5-0.2,1-0.4,1.4-0.6c0.2,0.5,0.3,1,0.6,1.4c0.1,0.2,0.5,0.3,0.8,0.3c0.4,0,0.9,0.1,1.3,0
		c0.4-0.1,0.9-0.4,1.3-0.5c0,0.4,0,0.9,0.1,1.3c0,0.2,0.3,0.4,0.5,0.3c0.8,0,1.5-0.1,2.3-0.2c0.6-0.1,0.6,0.1,0.5,0.5
		c0,0.1,0.3,0.4,0.4,0.4c0.3,0,0.7-0.1,1-0.2c0.1,0,0.2,0,0.3,0C46,4,46,4.2,46,4.3c-0.1,0.2-0.3,0.4-0.3,0.6c0,0.2,0.2,0.5,0.4,0.6
		c0.3,0.1,0.6,0.1,0.9,0c0.7-0.3,1.1-0.5,0.9,0.6c-0.1,0.3,0.4,0.6,0.8,0.4c0.4-0.1,0.7-0.2,1.1-0.3C49.8,6.5,49.8,7,49.9,7.4
		c-0.2,0.7,0.4,0.8,0.8,0.8c3.1-0.1,5.5,1.6,8,2.9c0.5,0.3,1,0.9,1.7,0.8c-0.2-0.6-0.8-1-1.3-1.5c-0.7-0.6-1.5-1.2-2.3-1.7
		c-1-0.8-2.1-1.1-3.4-0.7c-1,0.3-2,0.3-3.1,0.1C50,8,49.7,7.9,49.9,7.4z"/>
	<path d="M24,19.7c-0.4,2.3-1,4.2-2.5,5.7c-0.8,0.7-1.8,0.9-2.6,0.8c-1.3-0.2-2.5-0.7-3.7-1.1c-0.4-0.1-0.7-0.4-0.2-0.9
		c1.2-1.2,1-2.1-0.5-2.8c-0.6-0.3-0.6-0.5-0.2-0.9c1.9-2.2,3.8-4.4,5.7-6.6c0.2-0.3,0.6-0.4,0.9-0.6c0.4-0.2,0.8-0.2,1.1,0.2
		c0.4,0.6,0.9,1.3,1.2,2C23.4,16.8,23.7,18.3,24,19.7z"/>
	<path d="M7.3,17.4c-1.7,0-2.8-1-2.7-2.3c0-0.1,0.1-0.2,0.1-0.3c0.7-1,2.7-1.3,3.7-0.5c0.2,0.2,0.5,0.4,0.7,0.6
		c0.1,0.1,0.3,0.3,0.3,0.4c-0.3,0.6-0.6,1.3-1.1,1.8C8.1,17.3,7.5,17.4,7.3,17.4z"/>
</g>
</svg>
