<?xml version="1.0" encoding="iso-8859-1"?>
<!-- Generator: Adobe Illustrator 25.3.0, SVG Export Plug-In . SVG Version: 6.00 Build 0)  -->
<svg version="1.1" id="Calque_1" xmlns="http://www.w3.org/2000/svg" xmlns:xlink="http://www.w3.org/1999/xlink" x="0px" y="0px"
	 viewBox="0 0 82 24.5" style="enable-background:new 0 0 82 24.5;" xml:space="preserve">
<g>
	<path d="M5.3,5.7c-0.3,0.2-0.7,0.4-1,0.8C3.7,7,3.2,7.7,2.7,8.4C2.6,8.6,2.6,9,2.6,9.3c0.3-0.1,0.7-0.1,1-0.2
		c3.6-1.2,7.2-2.3,11-3.1c1.1-0.2,2.2-0.4,3.3-0.6c0.9-0.2,1.7-0.5,2.3-1.4C20.9,2.9,21.9,2,22.8,1c0.2-0.2,0.3-0.4,0.5-0.5
		c0.5-0.2,1.1-0.6,1.4-0.5c0.6,0.3,0.8,1,0.5,1.7c-0.3,0.9-0.5,1.7-1.5,2.1c-0.4,0.2-0.7,0.4-1,0.7c-0.1,0.1-0.1,0.3-0.1,0.4
		c0.1,0,0.2,0.1,0.3,0.1c0.9-0.1,1.9-0.3,2.8-0.3c5.4,0,10.8-0.1,16.2,0c2.2,0,4.5,0.4,6.7,0.6c1.2,0.1,2.5,0.2,3.7,0.4
		c2.7,0.3,5.4,0.7,8.1,1c1.5,0.2,3.1,0.3,4.6,0.4c0.7,0.1,1.4,0.3,2.1,0.3c2,0.1,4.1,0.1,6-0.6c2.4-0.8,4.9-0.9,7.4-0.8
		c1.1,0,1.6,0.7,1,1.6c-0.6,1-1.5,1.8-2.3,2.7c-0.3,0.3-0.7,0.5-1,0.7c-1.5,1.2-1.5,1.3-0.7,2.9c0.6,1.2,1.1,2.5,1.5,3.8
		c0.3,0.9,0,1.2-0.9,1.2c-0.6,0-1.2-0.1-1.7-0.3c-1.8-0.7-3.6-1.6-4.9-3.1c-0.6-0.7-1.5-1.2-2.2-1.8c-0.1,0-0.5,0.2-0.4,0.2
		c0.2,1.9-1.3,2.6-2.6,3.1c-1.7,0.6-3.4,1.1-5.1,1.5C56,19.9,50.8,21,45.6,22.1c-2.3,0.5-4.6,0.9-7,1.1c-1.8,0.1-3.5,0.7-5.2,0.9
		c-1.4,0.2-2.8,0.4-4.1-0.6c-1.1-0.8-2.2-1.3-3.2-2.3c-0.3-0.3-0.8-0.5-1.2-0.6c-0.3-0.1-0.6,0.1-0.4,0.5c0.2,0.3,0.5,0.8,0.3,1.1
		c-0.3,0.7-0.8,1.4-1.3,2.1c-0.3,0.4-0.7,0.1-0.9-0.2c-0.5-0.8-1-1.5-1.3-2.3c-0.3-0.7-0.6-1.1-1.5-1.2c-3-0.3-6-0.9-8.8-2.2
		c-1.8-0.8-3.7-1.7-5.5-2.6c-0.2-0.1-0.4,0-0.6,0C5,16,5.1,16.2,5.2,16.4c1.5,1.1,3.1,2.2,4.7,3.3c0.1,0.1,0.1,0.3,0.2,0.4
		c-0.2,0-0.4,0.1-0.5,0.1C8,19,6.3,17.9,4.7,16.8c-0.4-0.3-0.7-0.7-1-1C3.4,15.5,3,15.2,2.6,15c-0.1,0.6-0.3,1.1-0.2,1.6
		C2.6,18,3.5,19,4.7,19.6c1,0.5,2,0.9,2.9,1.3c0.1,0,0.2,0.2,0.2,0.2c-0.1,0.1-0.3,0.2-0.4,0.2c-1.6-0.7-3.2-1.3-4.7-2.2
		c-1.2-0.7-1.3-2-1.3-3.3c0-0.3-0.1-0.7-0.1-1c-0.1,0.3-0.3,0.6-0.4,1c-0.3,1.5,0,3,0.9,4.2c0.6,0.9,1.5,1.3,2.6,1.4
		c0.9,0,1.7,0.3,2.6,0.5c0.1,0,0.2,0.2,0.1,0.3c0,0.1-0.1,0.2-0.2,0.2c-1.1-0.1-2.1-0.1-3.2-0.4c-2.5-0.6-3.3-1.7-3.8-4.7
		c-0.1-0.5-0.1-1,0-1.4c0.3-1.3,0.4-2.5,0-3.8c-0.2-0.6-0.1-1.4,0.7-1.8c0.3-0.2,0.5-0.7,0.7-1.2C2.2,7.2,3.3,6,5.1,5.5
		c0.1,0,0.2-0.1,0.3,0C5.4,5.5,5.3,5.6,5.3,5.7z"/>
	<path d="M5.1,5.5C5.4,5.3,5.7,5,6.1,4.9c0.7-0.2,1.4-0.2,2-0.3C7.8,5.4,6.9,5.1,6.3,5.4c-0.3,0.1-0.7,0.2-1,0.3
		C5.2,5.6,5.1,5.5,5.1,5.5z"/>
	<path d="M17.6,18.9c-0.6-0.2-1.3-0.2-1.9-0.5c-1.2-0.5-2.4-1-3.6-1.5c-0.7-0.3-1.2-1.6-0.7-2.2c0.1-0.2,0.4-0.3,0.6-0.3
		c2,0.1,3.9,0.1,5.9,0.2c0.6,0,1.2,0.1,1.8,0.1c1,0.1,1.6,0.5,1.7,1.3c0.2,0.8-0.1,1.5-0.9,1.9C19.6,18.5,18.7,19,17.6,18.9z"/>
	<path d="M5.1,10.5c0.3,0.1,0.5,0.2,0.7,0.2c0.7,0.3,0.9,0.6,0.7,1.1c-0.4,0.7-1,1-1.6,0.7c-0.7-0.4-1.1-1.3-0.7-1.7
		C4.4,10.6,4.8,10.6,5.1,10.5z"/>
</g>
</svg>
