<?xml version="1.0" encoding="iso-8859-1"?>
<!-- Generator: Adobe Illustrator 25.3.0, SVG Export Plug-In . SVG Version: 6.00 Build 0)  -->
<svg version="1.1" id="Calque_1" xmlns="http://www.w3.org/2000/svg" xmlns:xlink="http://www.w3.org/1999/xlink" x="0px" y="0px"
	 viewBox="0 0 78.2 39.2" style="enable-background:new 0 0 78.2 39.2;" xml:space="preserve">
<g>
	<path d="M44.1,0.2c1.2,0,2.4,0,3.6,0c4,0,7.8,0.6,11.6,1.6c2.6,0.7,5.3,1.5,7.8,2.3C69.7,5,72.2,6.3,74,8.4
		c1.7,1.9,3.3,3.9,3.9,6.5c0.4,1.6,0.1,3-0.4,4.5c-0.8,2.1-2.2,3.9-3.6,5.7c-1,1.3-2.1,2.6-3,3.9c-0.3,0.4-0.3,0.9-0.4,1.3
		c-0.4,1.4-0.7,1.7-2,1.3c-0.8-0.3-1.1,0.1-1.4,0.6c-1.2,2-3.1,3-5.2,3.8c-1.3,0.5-2.8,0.7-4.1,1c-1.9,0.4-3.8,0.9-5.7,1.2
		c-1.3,0.3-2.7,0.4-4,0.6c-1.2,0.1-2.4,0.3-3.5,0.3c-2.3,0.1-4.6-0.4-6.9-0.6c-3.8-0.4-7.6-1.3-11.3-2.2c-1.6-0.4-3-1-4.5-1.6
		c-0.9-0.4-1.8-0.9-2.8-1.2c-3-0.8-5.3-2.6-7.7-4.3c-1.3-1-1.5-2.5-1.7-4c0-0.2,0-0.5,0.2-0.7c0.2-0.3,0.5-0.6,0.8-0.9
		c-0.4,0.1-0.9,0.2-1.3,0.3c-1.2,0.3-2.4,0.7-3.6,0.9c-3.1,0.5-5.5-1.5-5.4-4.4c0-0.7,0-1.3,0-2c0-2,1-3.4,2.6-4.4
		c1-0.7,2.3-0.4,3.5-0.2c0.3,0.1,0.7,0.2,1,0.3c0.4,0.2,0.9,0.4,1.3,0.5c0-0.4-0.2-0.9,0-1.3c0.2-0.7,0.5-1.4,0.9-1.9
		c3.4-3.9,7.7-6.3,12.5-7.9c2.4-0.8,4.7-1.6,7.1-2.2c2.3-0.5,4.6-0.8,6.9-1C38.6,0.3,41.3,0.2,44,0C44,0.1,44.1,0.1,44.1,0.2z"/>
	<path d="M19.9,19.1c2.1,0,4.2,0,6.3,0c2.9-0.1,5.7-0.2,8.6-0.3c2.2-0.1,4.4-0.3,6.6-0.4c2.9-0.1,5.8-0.2,8.8-0.4
		c2.4-0.1,4.8-0.1,7.1-0.4c2.6-0.4,5.1-0.2,7.7-0.3c0.4,0,0.8,0,1.3,0c0.1,0,0.3,0.2,0.3,0.2c-0.1,0.2-0.1,0.4-0.3,0.4
		c-0.2,0.1-0.5,0.1-0.7,0.1c-1.2,0-2.4,0.1-3.6,0c-1.1-0.1-2.2,0.2-3.4,0.1c-1.6-0.1-3.3,0.2-5,0.3c-2.2,0.1-4.4,0.2-6.6,0.3
		c-3.7,0.2-7.4,0.1-11.1,0.5c-7.8,0.9-15.6,0.5-23.5,0.7c-0.8,0-1.5,0.2-2.3,0.2c-0.2,0-0.4-0.2-0.5-0.4c0.1-0.2,0.2-0.5,0.4-0.5
		c0.5-0.1,0.9-0.1,1.4-0.1C14.2,19.1,17,19.1,19.9,19.1C19.9,19.1,19.9,19.1,19.9,19.1z"/>
</g>
</svg>
