<?xml version="1.0" encoding="iso-8859-1"?>
<!-- Generator: Adobe Illustrator 25.3.0, SVG Export Plug-In . SVG Version: 6.00 Build 0)  -->
<svg version="1.1" id="Calque_1" xmlns="http://www.w3.org/2000/svg" xmlns:xlink="http://www.w3.org/1999/xlink" x="0px" y="0px"
	 viewBox="0 0 85.3 28.6" style="enable-background:new 0 0 85.3 28.6;" xml:space="preserve">
<g>
	<path d="M70.6,25.5c-4.7,0.1-8.9-1.5-12.4-4.5c-1-0.8-2-1.7-3.5-1.5c-0.1,0-0.4,0.2-0.4,0.4c-0.1,1.7-1.6,1.8-2.7,2.1
		c-1.2,0.3-2.5,0.4-3.7,0.3c-0.8-0.1-1.5-0.6-2.3-0.9c-0.1-0.1-0.3-0.1-0.4-0.2c0,0.2,0,0.3,0.1,0.5c0.3,0.7,0.6,1.4,0.9,2.1
		c0.2,0.4,0.2,0.8-0.2,1.1c-2.1,1.4-4.2,2.7-6.6,3.6c-1.1,0.4-2.1,0.3-3.1-0.1c-1.2-0.5-2.4-1.1-3.6-1.6c-1.7-0.8-2.9-2.2-4.1-3.7
		c-0.8-1-1.7-1.8-3.1-2.2c-1.4-0.5-2.8-1.3-4.1-2.1c-0.9-0.5-1.8-0.5-2.7-0.7c-2.5-0.4-4.9,0.4-7.4,0.4c-2.5,0-4.9,0-7.4,0
		c-0.7,0-1.4,0-2.2,0c-1,0-1.6-0.4-1.8-1.1c-0.1-0.5,0.3-1.7,0.9-2c0.1-0.1,0.5-0.1,0.6,0.1c0.9,1.1,2.1,0.9,3.3,0.6
		c1.7-0.4,3.5-0.7,5.3-0.8c1.6-0.1,3.1-0.6,4.7-1.1c2.3-0.7,4.6-1.2,6.9-1.6c2.5-0.4,5.1-0.5,7.6-0.8c0.1,0,0.2,0,0.4,0
		c1.8,0,1.8,0,2.2-1.5c0.6-2.3,1.3-4.5,1.9-6.8c0.2-0.6,0.5-1.1,0.7-1.6c0.1-0.3,0.3-0.4,0.7-0.3c0.3,0.1,0.7,0,1-0.2
		c0.8-0.5,1.6-1.1,2.6-1c0.3,0,0.6-0.3,0.9-0.3c0.6,0.1,1.2,0.1,1.7,0.4c0.4,0.3,0,2.4-0.3,2.9c-0.9,1-1.8,1.9-2.6,2.9
		c-1.2,1.5-2.3,3.1-3.5,4.7c-0.6,0.9-0.6,0.9,0.4,1.1c0.4,0.1,0.8,0.1,1.2,0.1c2.6,0,5.2,0.5,7.8,1c1.7,0.3,3.2,0.1,4.5-1.1
		c1.7-1.4,4-1.3,5.8,0.1c1,0.8,1,1.2,0.1,2.1c0,0-0.1,0.1-0.1,0.1c-0.3,0.3-0.6,0.5-0.9,0.8c0.4,0.2,0.8,0.5,1.3,0.5
		c1,0.1,2,0,2.9-0.5c3.1-1.6,6.6-2.3,10.1-2.7c2.3-0.3,4.5-0.1,6.7,0.4c2.7,0.7,5.2,1.7,7.5,3.3c1.2,0.9,2,2.1,3,3.3
		c0.1,0.1-0.1,0.7-0.3,0.8c-0.9,0.6-1.8,1.1-2.7,1.7c-2.7,1.9-5.8,2.7-8.9,3.4C72.4,25.7,71.5,25.5,70.6,25.5z"/>
	<path d="M24.5,14c1.3,0,2.3,0.8,2.5,1.9c0.2,1-0.6,2.2-1.7,2.6c-0.7,0.2-1,0-1.1-0.6c-0.2-0.9-0.3-1.7-0.5-2.6
		C23.4,14.2,23.5,14,24.5,14z"/>
	<path d="M39.6,2.3c0,0.7-0.4,1.1-1,1.4C38.6,3,38.9,2.5,39.6,2.3z"/>
</g>
</svg>
