<?xml version="1.0" encoding="iso-8859-1"?>
<!-- Generator: Adobe Illustrator 25.3.0, SVG Export Plug-In . SVG Version: 6.00 Build 0)  -->
<svg version="1.1" id="Calque_1" xmlns="http://www.w3.org/2000/svg" xmlns:xlink="http://www.w3.org/1999/xlink" x="0px" y="0px"
	 viewBox="0 0 88.3 22.5" style="enable-background:new 0 0 88.3 22.5;" xml:space="preserve">
<g>
	<path d="M40.2,0c1.5,0.1,2.2,0.9,3,1.7c0.6,0.6,1.2,1.3,1.9,1.8c0.2,0.2,0.6,0.4,0.9,0.4c2.5,0.3,5.1,0.4,7.6,0.8
		c2.4,0.3,4.7,0.8,7,1.2c1.8,0.3,3.5,0.9,5.5,0.3c1-0.3,2.2-0.2,3.2,0.6c0.7,0.6,1.5,1.1,2.2,1.7c0.9,0.8,2.3,0.6,3.4,0.2
		c0.3-0.1,0.5-0.3,0.8-0.5C78.3,6.5,81,5,83.9,3.9c0.9-0.4,1.8-0.5,2.8-0.6c0.4,0,0.9,0.2,1.3,0.5c0.3,0.2,0.6,0.5,0.1,1
		c-0.5,0.6-0.8,1.4-1.2,2.1c-0.5,0.9-1,1.6-2.1,1.8c-0.7,0.1-1,0.7-1.4,1.2c-1.3,1.7-1.5,3.4-0.5,5.2C83,15.6,83,16,83,16.4
		c0.2,1.5-0.7,2.2-2.1,1.7c-0.6-0.2-1.1-0.5-1.6-0.8c-1.4-1.1-2.9-2-4.2-3.3c-1-0.9-2.2-1.7-3.7-1.4c-0.4,0.1-0.8,0.1-1.2,0.1
		c-0.8,0.1-1.5,0.2-2.3,0.3c-0.2,0.9-1.1,0.7-1.6,1.1c-0.6,0.5-1.3,0.8-2,1.2c-0.9,0.6-1.7,0.9-2.8,0.5c-0.9-0.3-1.8-0.1-2.8,0.2
		c-2.5,0.9-5,1.6-7.6,1.9c-2.5,0.3-5.1,0.7-7.6,1c-1.1,0.1-2.3,0.1-3.4,0.1c-2.8,0-5.6,0-8.5,0c-1.1,0-2.2-0.3-3.4-0.3
		c-0.9,0-0.9,0-0.7,0.9c0.1,0.5,0.3,0.9,0.4,1.4c0.1,0.6-0.2,1-0.6,1.4c-0.5,0.4-1,0.1-1.3-0.2c-0.7-0.6-1.4-1.3-2-2
		c-0.5-0.6-1-1.2-1.5-1.7c-0.4-0.3-0.9-0.7-1.4-0.8c-1.2-0.2-2.5-0.3-3.7-0.5c-0.4,0-0.7,0-1.1-0.1c-2.5-0.8-5-0.8-7.5-1.3
		c-0.4-0.1-0.8-0.2-1.2-0.3c-1.9-0.8-3.9-1.5-5.8-2.3c-0.2-0.1-0.4-0.2-0.6-0.3c-0.6-0.3-1.1-0.6-1.1-1.3c-0.1-0.7,0.7-0.9,1.2-1.1
		C3.3,9.4,5.6,8.6,8,8.2c1.4-0.3,2.7-0.9,4-1.3c2.4-0.7,4.7-1.5,7.1-2c3.5-0.7,7-1.3,10.6-1.4c2.9,0,5.6-0.9,8-2.5
		C38.5,0.5,39.5,0.3,40.2,0z"/>
	<path d="M29.6,8.3c-0.8,0-1.7,0-2.5,0c-0.3,0-0.5-0.1-0.7-0.2c0.3-0.1,0.5-0.3,0.8-0.3c0.8-0.1,1.6-0.1,2.4-0.1c2,0,4-0.1,6-0.1
		c0.2,0,0.3,0.1,0.5,0.1c-0.1,0.1-0.2,0.2-0.4,0.2C33.7,8.1,31.7,8.2,29.6,8.3C29.7,8.4,29.6,8.3,29.6,8.3z"/>
	<path d="M62.9,10.9c-1.6-0.2-3.2-0.3-4.8-0.5c-0.2,0-0.3-0.2-0.5-0.4c0.2,0,0.4,0,0.6,0c2.9,0.1,5.8,0.3,8.7,0.4c0.2,0,0.4,0,0.5,0
		c0.1,0,0.2,0.2,0.2,0.3c0,0.1-0.2,0.2-0.3,0.2c-0.6,0-1.1-0.1-1.7-0.1c-1-0.1-1.9-0.1-2.9-0.2C62.9,10.8,62.9,10.9,62.9,10.9z"/>
	<path d="M54.9,10.2C54,10,53.1,9.9,52.2,9.7c-0.1,0-0.2-0.2-0.3-0.4c0.1-0.1,0.3-0.2,0.4-0.2c1.5,0.2,2.9,0.4,4.4,0.6
		c0.1,0,0.2,0.2,0.3,0.3c-0.1,0.1-0.3,0.2-0.4,0.2c-0.5,0-1-0.2-1.6-0.2C55,10.1,54.9,10.1,54.9,10.2z"/>
	<path d="M6.1,12.5c-0.4-0.4-1-0.6-1-0.9c-0.1-0.6,0.5-0.7,1-0.7c0.6,0,1.2,0.5,1,0.9C7,12,6.5,12.2,6.1,12.5z"/>
	<path d="M79.5,10.1c-0.2-1.1,0-1.4,1-1.3c0.4,0,0.9,0.1,1.3,0.2c-0.4,0.3-0.7,0.7-1.1,1c-0.1,0.1-0.3,0.1-0.5,0.1
		C80,10.3,79.7,10.3,79.5,10.1z"/>
	<path d="M40.6,7.8c1,0.2,2.1,0.3,3.1,0.5c0.1,0,0.2,0.1,0.2,0.2c-0.1,0-0.2,0.1-0.3,0.1c-0.8,0-1.5-0.1-2.3-0.1
		c-0.3,0-0.6-0.1-0.9-0.2c-0.4-0.1-0.9-0.2-1.3-0.3C39.1,8,39.3,7.9,40.6,7.8z"/>
	<path d="M22.9,7.9c0.2,0,0.5,0,0.7,0c0.2,0.1,0.7,0.2,0.7,0.3c0,0.5-0.3,0.3-0.6,0.2c-0.2,0-0.4,0.1-0.7,0.1
		c-0.6,0-1.3,0.4-1.7-0.4c0.5-0.2,1-0.3,1.6-0.5C22.9,7.8,22.9,7.9,22.9,7.9z"/>
	<path d="M45,8.4c0.8,0.1,1.6,0.2,2.4,0.3c0.1,0,0.2,0.2,0.3,0.4c-0.1,0.1-0.3,0.3-0.4,0.2c-0.8-0.1-1.5-0.2-2.3-0.4
		c-0.1,0-0.2-0.2-0.3-0.4C44.8,8.4,44.9,8.4,45,8.4z"/>
	<path d="M49.8,9.5c-0.4-0.1-1-0.2-1.5-0.5c-0.2-0.1,0.3-0.3,1.7-0.1c0.4,0.1,0.8,0.1,1.2,0.2C50.7,9.2,50.3,9.4,49.8,9.5z"/>
	<path d="M15.9,9.2c0.3,0,0.7,0,1,0c0.1,0,0.2,0.1,0.2,0.2c0,0.1-0.1,0.2-0.2,0.2c-0.8,0-1.5,0.1-2.3,0.1c-0.1,0-0.2-0.2-0.1-0.2
		c0-0.1,0.1-0.2,0.2-0.2C15.1,9.2,15.5,9.2,15.9,9.2C15.9,9.2,15.9,9.2,15.9,9.2z"/>
	<path d="M74.5,10.8c0.1-0.1,0.1-0.2,0.2-0.3c0.4-0.1,0.8-0.2,1.2-0.1c0.5,0.1,1.1-0.8,1.2,0c0.1,0.6-0.9,0.2-1.3,0.3
		c-0.3,0.1-0.7,0.1-1,0.1C74.7,10.9,74.6,10.8,74.5,10.8z"/>
	<path d="M7.7,10.9c0.3-0.3,0.5-0.6,0.8-0.7c0.1,0,0.4,0.3,0.6,0.5c-0.3,0.2-0.5,0.5-0.8,0.7C8.3,11.4,8,11.1,7.7,10.9z"/>
	<path d="M18.1,9.4c-0.2-0.1-0.3-0.2-0.4-0.3c0,0,0-0.1,0.1-0.2c0.4-0.2,0.8-0.4,1.3-0.6c0,0,0.2,0.1,0.2,0.2c0,0,0,0.2,0,0.2
		C18.9,9,18.5,9.2,18.1,9.4z"/>
	<path d="M38.4,7.8c-0.1,0.2-0.1,0.4-0.2,0.4c-0.3,0-0.7,0-1,0c-0.1,0-0.2-0.2-0.4-0.3c0.1-0.1,0.3-0.2,0.4-0.2
		C37.6,7.6,38,7.7,38.4,7.8z"/>
	<path d="M13.4,8.8c0,0.1,0,0.1,0,0.2c-0.1,0.1-0.2,0.2-0.3,0.2c-0.4-0.2-0.8-0.4-1.2-0.6c0,0,0.1-0.1,0.1-0.1
		c0.4,0,0.8,0.1,1.2,0.2C13.3,8.7,13.3,8.8,13.4,8.8z"/>
	<path d="M79.5,10.1c0.2,0,0.5,0,0.7,0c-0.1,0.2-0.2,0.4-0.4,0.5c-0.5,0.2-1,0.3-1.4,0.5c0.3-0.3,0.7-0.6,1-0.9
		C79.4,10.2,79.5,10.1,79.5,10.1z"/>
	<path d="M16.6,15.2c-0.2,0.2-0.3,0.4-0.4,0.5c-0.1-0.3-0.3-0.5-0.4-0.8c0-0.1,0.3-0.3,0.4-0.4C16.3,14.7,16.4,14.9,16.6,15.2z"/>
	<path d="M73,10.4c0.1,0,0.2,0,0.3,0c0.2,0.1,0.3,0.2,0.5,0.3c-0.2,0.1-0.4,0.2-0.5,0.2c-0.3,0-0.6-0.1-0.8-0.1
		c-0.1,0-0.2-0.1-0.3-0.1c0.1-0.1,0.2-0.2,0.3-0.2C72.7,10.4,72.9,10.4,73,10.4C73,10.4,73,10.4,73,10.4z"/>
	<path d="M14.6,15.3c-0.2-0.1-0.4-0.2-0.4-0.2c0.1-0.3,0.2-0.7,0.4-1c0.1,0,0.3,0.1,0.3,0.1C14.8,14.6,14.7,15,14.6,15.3z"/>
	<path d="M19.5,16.3c-0.3-0.3-0.5-0.4-0.5-0.5c0-0.3,0.2-0.5,0.3-0.8c0.1,0.1,0.4,0.1,0.4,0.2C19.7,15.5,19.6,15.8,19.5,16.3z"/>
	<path d="M18.1,15.3c-0.3,0.2-0.4,0.3-0.6,0.4c-0.1-0.2-0.3-0.3-0.3-0.5c0-0.1,0.2-0.3,0.3-0.3C17.7,14.9,17.8,15.1,18.1,15.3z"/>
</g>
</svg>
