<?xml version="1.0" encoding="iso-8859-1"?>
<!-- Generator: Adobe Illustrator 25.3.0, SVG Export Plug-In . SVG Version: 6.00 Build 0)  -->
<svg version="1.1" id="Calque_1" xmlns="http://www.w3.org/2000/svg" xmlns:xlink="http://www.w3.org/1999/xlink" x="0px" y="0px"
	 viewBox="0 0 69.1 42" style="enable-background:new 0 0 69.1 42;" xml:space="preserve">
<g>
	<path d="M50.8,21c1.6-0.3,3.1-0.6,4.7-1c2.9-0.7,5.9-1.4,8.8-2c1.3-0.2,2.6-0.1,3.9-0.1c0.7,0,1,0.4,0.6,1.1
		c-1,1.6-2.1,3.2-3.7,4.3c-0.3,0.2-0.7,0.5-1,0.8c-0.4,0.4-1.1,0.8-1.1,1.3c0,0.4,0.8,0.8,1.1,1.2c0.7,0.9,1.4,1.8,2,2.7
		c0.8,1.3,1.6,2.7,2.3,4c0.4,0.7,0.2,1.2-0.7,1.1c-1.2-0.2-2.5-0.5-3.6-1c-2.5-1-5-2.2-7.5-3.3c-2.4-1.1-5-1.7-7.6-1.4
		c-0.4,0-0.7,0.1-1,0.2c-0.5,0.2-1,0.5-1.4,0.7c0.5,0.1,1,0.3,1.5,0.3c1.2,0.2,1.9,0.8,1.9,2c0,2.4-0.8,4.5-2.1,6.5
		c-0.4,0.6-1.2,0.5-1.8,0.7c-0.7,0.2-1.2,0.2-1.8-0.2c-0.2-0.1-0.4,0-0.6,0c0.1,0.2,0.1,0.5,0.3,0.6c0.6,0.6,1.3,1.1,1.9,1.6
		c0.1,0.1,0.1,0.3,0.2,0.5c-0.2,0-0.5,0.1-0.6,0c-1.7-1.1-3.4-2.2-5.1-3.3c-1.2-0.8-2.3-1.5-3.5-2.3C36.7,36,36.5,36,36.3,36
		c-1.9,0.5-3.9,0.2-5.9,0.3c-0.4,0-0.5,0.1-0.3,0.5c0.5,0.9,1,1.9,1.5,2.8c0.4,0.9,0.3,1.3-0.4,1.8c-0.9,0.6-1.8,0.8-2.9,0.3
		c-2.2-1-4.2-2.3-6-3.9c-0.9-0.8-1.7-1.7-2.7-2.3c-0.8-0.5-1.9-0.7-2.8-1c-1.6-0.4-3.2-0.8-4.8-1.2C11,33.2,9.8,33,8.8,32.7
		c-1.9-0.6-4-0.7-5.9-1.1c-0.7-0.2-1.4-0.4-2-0.7c-0.8-0.4-1-1.5-0.7-2.3c0.9-2.1,2.2-4,2.3-6.4c0.1-1.4,1-2.5,1.9-3.5
		c1.8-2.1,3.5-4.2,5.3-6.3c1.3-1.5,2.9-2.6,4.7-3.5c0.7-0.3,1.1-0.8,1.5-1.5c0.8-1.4,1.7-2.8,2.6-4.2c0.3-0.4,0.3-0.4,0.6,0.1
		c0,0.1,0.3,0.1,0.3,0.1c0.2-0.4,0.4-0.7,0.6-1.1c0.4-0.6,0.8-1.2,1.2-1.8c0.2-0.2,0.4-0.4,0.6-0.6c0,0.3,0,0.5,0,0.8
		c0,0.2-0.1,0.3-0.1,0.5C21.8,1.2,22,1.1,22.1,1c0.1-0.1,0.2-0.2,0.3-0.2c0.1-0.1,0.3-0.1,0.4-0.1c0,0.2,0,0.3,0,0.5
		c0,0.2,0,0.4,0,0.6c0.2,0,0.3-0.1,0.5-0.2c0.2-0.2,0.4-0.5,0.7-0.6c0.2-0.1,0.7,0,0.7,0.1C24.9,2.1,25.3,2,26,1.6
		c0.5-0.3,0.6-0.2,0.5,0.4c-0.1,0.5,0.2,0.6,0.6,0.7c0.4,0,0.8-0.1,1.2-0.1c0.2,0,0.4-0.2,0.5-0.1c0.5,0.3,0.4,1.2,1.2,1
		c0.7-0.1,1.2,0,1.5,0.7c0,0.1,0.1,0.1,0.1,0.1c0.6,0,1.2-0.2,1.6,0.1c0.5,0.3,0.6,1,1.4,0.8c0.2-0.1,0.5-0.1,0.6,0
		c1.2,1.1,2.6,1,4,1.1c2.5,0.2,4.8,1.1,6.7,2.7c1.5,1.2,2.8,2.6,3.4,4.5c0.3,0.8,0.5,1.7,0.6,2.6c0.1,2.4-0.5,3-2.7,3.6
		c-0.2,0.1-0.4,0.1-0.6,0.1c0.2,0.1,0.4,0.3,0.6,0.4C48.3,20.6,49.5,21.1,50.8,21z"/>
	<path d="M30.4,23.3c3.6,0.1,6.7,0.6,9.8,1.5c0.3,0.1,0.4,0.3,0.7,0.5c-0.2,0.2-0.5,0.4-0.7,0.5c-1.5,0.4-3,0.8-4.5,1.1
		c-2.5,0.4-4.6,1.6-6.9,2.5c-1,0.4-2,0.8-2.9,1.3c-1.3,0.7-2.6,0.6-4,0.2c-1-0.3-2.1-0.6-3.1-0.8c-0.4-0.1-0.8,0-1.2,0
		c-0.2,0-0.3,0-0.5,0c0-0.1,0.1-0.2,0.1-0.3c1.3-1.4,1.3-3,0.7-4.6c-0.2-0.4-0.1-0.6,0.4-0.7c3-0.4,6-0.8,9.1-0.7
		C28.5,23.7,29.6,23.4,30.4,23.3z"/>
	<path d="M47.4,23.8c-1.9,0.1-3.6-0.8-5.3-1.4c-2.5-0.9-4.9-1.9-7.4-2.7c-2.5-0.8-5-1.5-7.6-1.9c-2.3-0.3-4.8-0.4-7.1,0.2
		c-0.7,0.2-1.5,0.3-2.3,0.4c-0.1,0-0.3-0.1-0.5-0.2c0.1-0.2,0.2-0.4,0.4-0.5c1-0.2,2-0.3,3-0.4c2.5-0.1,5-0.2,7.6,0.2
		c5,0.7,9.6,2.8,14.2,4.5c1.1,0.4,2.3,0.7,3.4,1C46.4,23.2,46.9,23.5,47.4,23.8C47.4,23.7,47.4,23.8,47.4,23.8z"/>
	<path d="M11.2,30.6c0.2,0,0.4,0,0.5,0c0.1,0,0.1,0.1,0.2,0.2c0,0-0.1,0.1-0.1,0.1c-0.3,0.1-0.5,0.2-0.8,0.3c-0.3,0.1-0.7,0-1,0
		c0,0-0.1-0.2,0-0.3c0.3-0.1,0.6-0.2,0.9-0.3C10.9,30.5,11,30.5,11.2,30.6C11.2,30.6,11.2,30.6,11.2,30.6z"/>
	<path d="M5.2,22C5.3,21,6,20.4,7,20.5c0.9,0.1,1.6,0.8,1.5,1.8c-0.1,0.9-0.9,1.6-1.8,1.5C5.8,23.7,5.2,23,5.2,22z"/>
</g>
</svg>
