<?xml version="1.0" encoding="iso-8859-1"?>
<!-- Generator: Adobe Illustrator 25.3.0, SVG Export Plug-In . SVG Version: 6.00 Build 0)  -->
<svg version="1.1" id="Calque_1" xmlns="http://www.w3.org/2000/svg" xmlns:xlink="http://www.w3.org/1999/xlink" x="0px" y="0px"
	 viewBox="0 0 84.5 35.3" style="enable-background:new 0 0 84.5 35.3;" xml:space="preserve">
<g>
	<path d="M51.1,17.5c0.8,0.2,1.7-0.4,2.6-0.9c0.7-0.4,1.4-0.9,2.2-1.2c1.1-0.4,1.7,0.1,1.3,1.2c-0.2,0.7,0,0.9,0.5,1.1
		c0.8,0.4,1.6,0.8,2.5,1c0.4,0.1,1,0.1,1.4,0c0.6-0.1,1.1-0.4,1.7-0.7c4-2.2,8.3-3.5,12.6-4.9c1.7-0.6,3.5-1.1,5.3-1.6
		c0.9-0.3,1.8-0.3,2.6,0.1c0.6,0.3,0.8,0.9,0.3,1.2c-1.3,0.7-1.8,1.8-2.2,3.1c-0.2,0.6-0.7,0.6-1.2,0.5c-0.3-0.1-0.6-0.4-1-0.4
		c-0.2-0.1-0.6-0.1-0.8,0.1c-1.1,0.6-2.2,1.2-3.2,1.9c-2.3,1.4-4.6,2.8-6.8,4.3c-1.2,0.8-1.2,0.8-0.7,2.2c0.2,0.6,0.3,1.3,0.4,1.9
		c0,0.6-0.5,1-1.1,0.8c-0.7-0.2-1.5-0.4-2.2-0.8c-1.2-0.8-2.4-1.6-3.4-2.6c-0.8-0.8-1.7-0.7-2.6-0.7c-0.1,0-0.1,0.1-0.2,0.1
		c-0.7,1.1-0.7,1.1-1.2,1.3c-1,0.4-2.1,0.7-2.6,1.7c-0.4,0.6-1,0.7-1.5,0.4c-0.8-0.4-1.6-0.8-2.2-1.4c-1-0.9-2.1-1.2-3.3-1.1
		c-0.6,0.1-1.2,0.1-0.9,1c0,0.1-0.1,0.2-0.1,0.3c-1.1,0.9-1.8,2.1-2.4,3.5c-0.2,0.5-0.7,0.6-1.2,0.2c-0.4-0.3-0.9-0.6-1.3-1
		c-0.6-0.6-1.2-1.2-1.8-1.8c-0.8-0.8-1.6-1-2.7-0.8c-1.5,0.4-3.2,0.4-4.8,0.5c-1.3,0.1-2.5,0-3.8,0c-0.8,0-1.4,0.1-1.3,1.1
		c0,0.3-0.3,0.7-0.6,1.1c-1.1,1.7-2,3.5-2.6,5.4c-0.2,0.7-0.4,1.6-1.2,1.6c-0.6,0-1.3-0.6-1.7-1.1c-1.3-1.7-2.3-3.6-2.6-5.8
		c0-0.5-0.2-0.9-0.3-1.4c-0.1-0.6,0-1.4-0.4-1.7c-0.5-0.4-1.3-0.5-2-0.7c-2.6-0.4-5.2-0.7-7.8-1.1c-0.5-0.1-1-0.3-1.5-0.4
		c-1.6-0.6-3.2-1-4.9-1c-0.3,0-0.7-0.1-1-0.2c-0.1,0-0.3-0.2-0.4-0.4c0-0.1,0.2-0.3,0.3-0.4c0,0,0.1-0.1,0.2-0.1
		c2.7-0.3,5-1.8,7.6-2.4c4.5-1.1,9-2.4,13.4-3.6c1-0.3,2-0.4,3-0.5c1.7-0.2,3-0.9,3.9-2.5c1.1-1.9,2.4-3.7,3.7-5.5
		c0.7-1,1.6-1.7,2.8-2.2c0.5-0.2,1-0.4,1.5,0c0.5,0.4,0.4,0.9,0.3,1.5c-0.5,2.1-0.9,4.1-1.4,6.2c-0.2,0.9,0.2,1.5,0.8,2.2
		c0.8,0.9,1.8,1.1,2.8,1.3c3.2,0.6,6.4,1.2,9.6,1.8C49.8,17.5,50.2,17.5,51.1,17.5z"/>
	<path d="M14.9,13.3c-0.7,0-1.4,0-2.2,0c-0.4,0-0.7,0.2-0.7,0.6c0,0.4,0,0.8,0,1.2c0,1.4-0.6,2.1-1.9,2c-3.4-0.1-6.7-0.8-8.4-4.3
		c-0.4-0.7-0.9-1.4-1.2-2.2c-0.6-1.4-0.7-2.9-0.1-4.3C1.7,3.5,3.7,1,7,0.2C8.3-0.1,9.7,0,11.1,0.1c0.8,0,1.3,0.7,1.3,1.5
		c0,0.5,0,1.1-0.1,1.6c-0.1,1.1-0.1,1.1,0.9,1.2c0.4,0,0.9,0,1.2-0.1c0.9-0.4,1.8,0,2.6,0.2c0.1,0,0.2,0.3,0.2,0.4
		C17.2,4.8,17,5,16.9,5C16,4.6,15,5,14.1,4.8c-0.4-0.1-0.9,0.1-1.4,0c-1.3-0.3-1.4-0.6-1.2-1.9c0-0.2,0.1-0.3,0.1-0.5
		c0.2-1-0.1-1.6-1.1-1.8c-0.5-0.1-1.1-0.1-1.6,0C8,0.7,7,1.4,5.8,1.2c-0.1,0-0.3,0.1-0.3,0.2C5.3,1.9,5.2,2.5,4.9,2.8
		C4.6,3,3.9,2.7,3.6,2.9C1.2,5-0.3,8.8,1.8,11.8c0.3,0.4,0.5,0.9,0.8,1.4c0.4,0.5,0.7,1.4,1.6,0.6c0.2,0.3,0.4,0.5,0.5,0.8
		c0.1,0.9,0.3,1.3,1.1,1.1c0.8-0.2,1.2,0,1.8,0.4c1,0.7,2.2,0.4,3.3,0.4c0.2,0,0.4-0.4,0.5-0.6c0.1-0.6,0-1.3,0-2
		c0-1,0.5-1.4,1.5-1.3c0.6,0.1,1.2,0.3,1.7,0.3c0.6,0,1.4,0.1,1.8-0.2c0.5-0.3,1,0.3,1.4-0.2c0,0,0.3,0.1,0.4,0.1c0,0,0,0.3-0.1,0.3
		c-0.4,0.2-0.7,0.4-1.1,0.4C16.2,13.4,15.5,13.3,14.9,13.3C14.9,13.3,14.9,13.3,14.9,13.3z"/>
	<path d="M10.1,5.1c0.3,0.1,0.4,0.2,0.4,0.2c0,0.1,0,0.3-0.1,0.3C9.8,6.3,9,6.8,8.4,7.4C7.6,8.2,7.5,8.6,8.2,9.5
		C8.6,10,9.1,10.5,9.5,11c0.1,0.1,0.1,0.3,0.1,0.4c-0.2,0-0.4,0-0.5-0.1c-0.8-0.6-1.6-1.2-2.3-1.9C6.4,8.9,6.3,8,6.9,7.5
		C7.9,6.6,9.1,5.9,10.1,5.1z"/>
	<path d="M8.9,13.6c-0.2-0.3-0.4-0.5-0.5-0.7C8.2,12.4,8,12,7.9,11.6c0.4,0.1,0.9,0.3,1.3,0.4c0.4,0.2,0.8,0.3,1.1,0.6
		c0.1,0.1,0.1,0.3,0.2,0.4c-0.2,0-0.3,0-0.5,0c-0.2,0-0.3-0.1-0.5-0.2c-0.5-0.2-0.6-0.1-0.4,0.4C9.1,13.2,9,13.4,8.9,13.6z"/>
	<path d="M16,21.8c-0.1,0.4-0.3,0.8-0.3,1.3c-0.1,0.5-0.4,0.5-0.8,0.5c0-0.7-0.3-1.6,0.3-2.2c0.1-0.1,0.4-0.1,0.6-0.2
		C15.9,21.4,15.9,21.6,16,21.8z"/>
	<path d="M65.3,21.8c0.8-0.5,1.6-0.9,2.4-1.4c0.1,0,0.2,0.1,0.3,0.1c0,0.1-0.1,0.2-0.1,0.3C67.1,21.3,66.3,21.9,65.3,21.8L65.3,21.8
		z"/>
</g>
</svg>
