<svg xmlns="http://www.w3.org/2000/svg" viewBox="0 0 800 312" width="800" height="312">
  <g transform="scale(0.6666666666666666, 0.6666666666666666)">
    <path d="M 514.607 9.055 C 507.509 17.490, 497.355 41.496, 489.884 67.500 C 487.672 75.200, 483.436 89.150, 480.472 98.500 C 477.508 107.850, 473.497 122.147, 471.560 130.271 C 467.820 145.954, 464.953 153.828, 462.012 156.489 C 459.303 158.941, 451.373 159.716, 406 161.964 C 365.149 163.988, 339.914 165.612, 335 166.533 C 333.625 166.790, 320.350 167.902, 305.500 169.003 C 290.650 170.104, 275.125 171.464, 271 172.025 C 266.875 172.587, 256.075 173.684, 247 174.463 C 231.562 175.789, 216.667 178.199, 172.500 186.520 C 162.600 188.385, 148.960 190.829, 142.190 191.952 C 135.419 193.075, 128.992 194.469, 127.908 195.049 C 126.823 195.630, 122.250 196.753, 117.746 197.545 C 113.242 198.337, 106.844 199.851, 103.528 200.910 C 100.213 201.968, 95.700 203.131, 93.500 203.494 C 86.484 204.649, 44.802 219.107, 36.511 223.260 C 20.617 231.222, 19 233.637, 19 249.401 C 19 255.231, 18.631 260, 18.180 260 C 17.729 260, 15.479 261.610, 13.180 263.578 C 9.220 266.967, 9 267.444, 9 272.618 C 9 281.730, 12.337 286.421, 26.227 296.839 C 35.660 303.914, 46.361 309.988, 52.919 311.988 C 55.989 312.924, 61.200 315.058, 64.500 316.731 C 77.181 323.157, 96.240 328.838, 114.038 331.497 C 119.792 332.357, 131.150 334.642, 139.279 336.575 C 156.653 340.708, 176.208 343.688, 195 345.069 C 202.425 345.614, 210.193 346.720, 212.263 347.527 C 225.775 352.795, 255.604 355.058, 350.500 358.014 C 369.200 358.597, 400.925 359.813, 421 360.716 C 444.216 361.761, 474.242 362.312, 503.500 362.229 C 542.890 362.118, 549.830 362.315, 551.794 363.601 C 553.286 364.578, 560.903 378.904, 573.579 404.571 C 595.827 449.621, 598.106 453, 606.239 453 C 614.156 453, 623.603 443.489, 644.188 414.792 C 658.339 395.065, 658 396.079, 658 373.451 L 658 354.294 669.750 353.704 C 676.212 353.380, 692.177 351.741, 705.226 350.063 C 727.386 347.214, 736.530 345.740, 780.500 337.933 C 803.514 333.847, 825.597 333.878, 827.705 338 C 828.409 339.375, 831.652 346.160, 834.912 353.078 C 846.585 377.846, 845.752 377.804, 884.003 355.526 C 909.548 340.647, 915.818 337.686, 929.491 334.041 C 936.086 332.283, 942.049 330.374, 942.741 329.800 C 943.656 329.041, 944 324.422, 944 312.897 L 944 297.038 946.750 296.269 C 948.263 295.846, 961.425 295.547, 976 295.604 C 1006.418 295.724, 1013.236 296.545, 1041.324 303.470 C 1051.430 305.961, 1060.821 308, 1062.193 308 C 1063.564 308, 1067.120 308.834, 1070.093 309.854 C 1073.067 310.874, 1077.750 312.032, 1080.500 312.428 C 1083.250 312.824, 1089.775 314.219, 1095 315.529 C 1142.037 327.324, 1162.560 331.253, 1177.826 331.390 C 1191.914 331.516, 1193 330.953, 1193 323.531 C 1193 312.408, 1169.136 276.472, 1152.988 263.281 L 1146 257.572 1146 243.525 L 1146 229.479 1151.524 225.071 C 1170.714 209.758, 1191 181.378, 1191 169.843 C 1191 154.624, 1144.120 159.711, 1036.986 186.553 C 1014.153 192.274, 991.878 197.469, 987.486 198.098 C 973.568 200.091, 926.738 198.224, 899.500 194.590 C 893.450 193.783, 878.375 192.414, 866 191.549 C 853.625 190.684, 839.800 189.517, 835.279 188.955 C 830.757 188.393, 820.407 187.531, 812.279 187.040 C 804.150 186.549, 789.175 185.007, 779 183.613 C 758.088 180.749, 730.575 177.269, 718.178 175.920 C 708.529 174.869, 643.373 170, 638.968 170 L 636 170 636 158.205 L 636 146.411 631.750 137.944 C 620.558 115.648, 601.438 88.245, 578.135 61.104 C 572.655 54.722, 565.995 46.931, 563.336 43.791 C 532.857 7.804, 522.108 0.141, 514.607 9.055" stroke="none" fill="black" fill-rule="evenodd"/>
  </g>
</svg>