<?xml version="1.0" encoding="iso-8859-1"?>
<!-- Generator: Adobe Illustrator 25.3.0, SVG Export Plug-In . SVG Version: 6.00 Build 0)  -->
<svg version="1.1" id="Calque_1" xmlns="http://www.w3.org/2000/svg" xmlns:xlink="http://www.w3.org/1999/xlink" x="0px" y="0px"
	 viewBox="0 0 86.5 26" style="enable-background:new 0 0 86.5 26;" xml:space="preserve">
<g>
	<path d="M23.3,26c-0.5-0.4-1.1-0.6-1.4-1c-1.3-1.4-2-3.1-2.5-4.9c-0.3-1.1-0.6-2.3-0.7-3.5c-0.1-0.7-0.4-1-1.1-1.2
		c-0.4-0.1-0.8-0.3-1.2-0.3c-1.8-0.2-3.6-0.4-5.4-0.4C8.9,14.9,7,14,5,13.4c-1.1-0.4-2.2-0.9-3.3-1.4c-0.5-0.2-1-0.6-1.5-1
		C-0.2,10.5,0,9.7,0.7,9.7c2.7,0.1,5.1-1.1,7.7-1.2c2.4-0.1,4.8-0.7,7.2-1.1c3.2-0.6,6.3-1.4,9.5-1.3c1.3,0,2.2-0.7,2.8-1.7
		c0.5-0.8,1-1.6,1.9-2.1c0.4-0.2,0.7-0.7,0.9-1.1c0.3-0.7,1-0.9,1.6-1.1c0.7-0.3,1.2-0.1,1.6,0.7c0.3,0.6,0.5,1.2,0.8,1.8
		c0.5,1.2,1.1,2.4,2.4,3c0.3,0.2,0.5,0.6,0.8,0.9c0.2,0.1,0.3,0.3,0.5,0.4c2.5,0.6,5.1,1.1,7.7,1.6c2.8,0.6,5.7,1.3,8.5,1.9
		c0.9,0.2,1.7,0,2.5-0.5c1-0.8,2.2-1.3,3.4-2c0.6-0.3,1.1-0.1,1.1,0.6c0.1,0.4,0,0.8,0,1.2c0,1.2,0.7,2,1.9,2.2
		c1.5,0.2,3.1,0.3,4.6,0.4c0.3,0,0.7-0.1,1-0.2c1.8-0.8,3.7-1.2,5.6-1.7C77,9.7,79.2,9,81.5,8.4c0.7-0.2,1.5-0.4,2.3-0.5
		c0.3-0.1,0.6-0.1,0.9,0c0.7,0.1,1.5,0.2,1.8,1c0.3,0.7-0.2,1.2-0.6,1.7c-1,1.2-2.2,2.2-3.6,2.9c-1.7,0.8-3.3,1.7-5,2.4
		c-1,0.4-1.5,1.1-1.5,2.2c0,0.8-0.2,1.6-0.3,2.4c-0.1,0.8-0.7,1.2-1.4,0.9c-0.6-0.3-1.3-0.7-1.7-1.2c-0.7-0.7-1.2-1.7-1.9-2.4
		c-0.9-0.9-1.8-1.7-2.9-2.4c-0.4-0.3-1-0.4-1.5-0.4c-1.2-0.1-2.5,0-3.7,0c-3.7,0.1-7.4,0.2-11.1,0.4c-0.1,0-0.6-0.1-0.2,0.3
		c0.5,0.6,0.1,0.9-0.3,1.1c-1.1,0.8-2.2,1.5-3.3,2.2c-0.4,0.3-0.8,0.4-1.3,0.1c-1.1-0.7-2.3-1.3-3.4-2c-0.7-0.5-1.5-0.7-2.3-0.6
		c-2.2,0.3-4.4,0.5-6.6,0.7c-1.1,0.1-2.3,0.1-3.4,0c-0.9-0.1-1.5,0.3-2.2,0.9c-1.6,1.3-2.1,3.1-2.8,4.9c-0.3,0.8-0.7,1.5-1,2.3
		C24.1,25.6,23.7,25.7,23.3,26z"/>
	<path d="M16.2,12.7c0,0.5,0,0.8,0,1c0,0.1-0.2,0.2-0.2,0.2c-0.2,0-0.3-0.1-0.4-0.2c-0.1-0.1-0.1-0.2-0.1-0.3c0-0.3-0.1-0.6-0.1-0.9
		c-0.1,0.3-0.1,0.6-0.2,0.9c-0.1,0.2-0.2,0.3-0.4,0.5c-0.1-0.2-0.3-0.3-0.4-0.5c-0.1-0.2,0-0.4,0-0.5c0.1-0.8,0.4-1,1.2-1
		C16.4,11.9,16.2,12.5,16.2,12.7z"/>
	<path d="M67.9,14.4c-0.1,0-0.5-0.1-0.9-0.2c-0.2-0.1-0.4-0.2-0.6-0.4c0.2,0,0.4-0.1,0.7-0.1c0.5,0.1,1,0.2,1.5,0.3
		c0.2,0,0.4,0.1,0.6,0.2c-0.2,0-0.4,0.1-0.7,0.1C68.4,14.4,68.3,14.4,67.9,14.4z"/>
	<path d="M75.2,12.6c0,0,0.2,0,0.3,0c0.1,0,0.1,0.1,0.1,0.1c-0.1,0.1-0.1,0.2-0.2,0.2c-0.3,0-0.7,0-1,0c-0.2,0-0.3-0.1-0.4-0.2
		c0.2-0.1,0.3-0.1,0.5-0.2C74.7,12.6,74.8,12.6,75.2,12.6z"/>
</g>
</svg>
