<?xml version="1.0" encoding="iso-8859-1"?>
<!-- Generator: Adobe Illustrator 25.3.0, SVG Export Plug-In . SVG Version: 6.00 Build 0)  -->
<svg version="1.1" id="Calque_1" xmlns="http://www.w3.org/2000/svg" xmlns:xlink="http://www.w3.org/1999/xlink" x="0px" y="0px"
	 viewBox="0 0 67.7 37.9" style="enable-background:new 0 0 67.7 37.9;" xml:space="preserve">
<g>
	<path d="M0,19.1c0.3-1.6,0.4-2.8,1.4-3.9c1.2-1.4,2.2-2.9,3.5-4.2C6,10,7.4,9.6,8.6,8.8c3.2-2.1,6.4-4.2,9.6-6.2
		c1.4-0.9,2.8-1.7,4.2-2.4C23.3-0.2,24,0,24.4,0.9c0.9,2,2.4,3.5,4,5c0.2,0.2,0.4,0.3,0.5,0.5C29.2,7,29.5,7.8,29.9,8
		c0.5,0.2,1.2-0.5,1.8-0.5c0.7,0,1.5,0.4,2.2,0.7c0.3,0.1,0.6,0.4,0.9,0.6c2.1,2.2,4.2,4.5,6.4,6.7c0.2,0.2,0.4,0.4,0.7,0.5
		c1.2,0.2,2.5,0.2,3.7,0.4c2.4,0.3,4.8,0.6,7.2,1.1c4.1,0.9,8.2,1.8,12.3,2.8c0.8,0.2,1.6,0.5,2.3,0.9c0.1,0.1,0.2,0.3,0.3,0.4
		c-0.1,0.1-0.3,0.2-0.4,0.2c-0.8,0.1-1.7-0.2-2.3,0.7c-0.1,0.2-0.7,0.1-1,0c-0.6-0.1-1.3-0.3-1.9-0.5c-1.1-0.3-2.1-0.9-3.2-1
		c-1-0.1-2.1,0.3-3.1,0.5c-2.8,0.5-5.6,0.6-8.4,0.7c-1.9,0-3.8,0.2-5.7,0.4c-0.3,0-0.6,0.3-0.8,0.5c-2.2,2.1-4.3,4.3-6.4,6.4
		c-1,1-2.2,1.1-3.5,0.8c-0.3-0.1-0.8-0.1-0.9,0.1c-1.4,1.4-3.1,2.5-4.2,4.1c-0.5,0.8-1,1.6-1.6,2.3c-1.3,1.4-1.8,1.4-3.3,0.3
		c-1.4-1-2.7-2.1-4.1-3.1c-2.8-1.9-5.7-3.7-8.5-5.6c-0.2-0.1-0.4-0.2-0.6-0.3c-1.9-0.4-3-1.8-4.1-3.2c-0.9-1-1.4-2.2-2.5-3.2
		C0.2,21.2,0.2,19.9,0,19.1z"/>
	<path d="M2.3,21.8C3.4,21,3.8,21,4.6,21.7c0.1,0.1,0.2,0.4,0.2,0.4c-0.1,0.2-0.4,0.4-0.5,0.3c-0.6-0.1-1.3-0.2-1.9-0.3
		C2.3,22,2.3,21.9,2.3,21.8z"/>
	<path d="M1.9,15.7c0.6-0.2,1.2-0.3,1.8-0.6c0.5-0.2,0.9,0,1,0.4c0,0.2-0.3,0.6-0.5,0.8C3.3,16.8,2.6,16.4,1.9,15.7L1.9,15.7z"/>
	<path d="M30.8,19.6c-0.4-0.1-1-0.2-1-0.3c0.1-0.7,0.7-0.4,1.1-0.4c0.3,0,0.6-0.1,0.9,0c0.4,0.1,0.8,0.2,1.2,0.3
		c-0.4,0.2-0.9,0.4-1.3,0.4c-0.3,0-0.6-0.1-0.8-0.1C30.8,19.5,30.8,19.5,30.8,19.6z"/>
	<path d="M6.6,23.2c-0.1,0.1-0.3,0.4-0.5,0.6c-0.2-0.3-0.5-0.6-0.7-0.9c-0.1-0.3,0-0.7,0.5-0.8C6.6,22.1,6.6,22.6,6.6,23.2z"/>
	<path d="M6.2,16c-0.3-0.5-0.6-0.9-0.5-1.1c0.1-0.4,0.4-0.7,0.9-0.6c0.1,0.1,0.3,0.4,0.3,0.5C6.7,15.1,6.5,15.4,6.2,16z"/>
	<path d="M29.5,13.5c-0.4,0-0.8,0-1.3,0c-0.2,0-0.3-0.1-0.5-0.2c0.1-0.1,0.3-0.2,0.4-0.2c0.4,0,0.8-0.1,1.2,0
		c0.5,0.1,1.2-0.4,1.6,0.4C30.5,13.6,30,13.6,29.5,13.5C29.5,13.6,29.5,13.6,29.5,13.5z"/>
	<path d="M21.4,19.3c-0.4,0-0.7,0-1,0c-0.1,0-0.2-0.1-0.3-0.2c0.1-0.1,0.2-0.2,0.3-0.2c0.2,0,0.5-0.1,0.7-0.1c0.5,0,1.1,0,1.6,0
		C22.4,19.6,21.7,19.1,21.4,19.3z"/>
	<path d="M31.8,22.5c-0.8,0-1.1,0-1.5,0c-0.2,0-0.3-0.1-0.5-0.2c0.2-0.1,0.3-0.2,0.5-0.2c0.4,0,0.7,0,1.1,0c0.5,0.1,1.1,0.2,1.6,0.2
		C32.5,22.4,32,22.5,31.8,22.5z"/>
	<path d="M18.2,18.8c0.3,0,0.6-0.1,0.8-0.1c0,0,0.1,0.1,0.1,0.1c0,0.1-0.1,0.3-0.1,0.3c-0.6,0-1.2,0-1.7,0c-0.1,0-0.2-0.2-0.2-0.3
		c0-0.1,0.1-0.2,0.2-0.2C17.6,18.7,17.9,18.7,18.2,18.8C18.2,18.8,18.2,18.8,18.2,18.8z"/>
	<path d="M28.8,16.4c-0.3,0-0.6,0-0.9,0c0,0-0.1-0.1-0.1-0.1c0.1-0.1,0.1-0.2,0.2-0.2c0.6,0,1.3,0,1.9,0c0.1,0,0.2,0.1,0.3,0.2
		c-0.1,0-0.2,0.1-0.3,0.1C29.5,16.4,29.2,16.4,28.8,16.4C28.8,16.4,28.8,16.4,28.8,16.4z"/>
	<path d="M39.1,19.4c-0.5,0.1-0.8,0.2-1.1,0.1c-0.1,0-0.2-0.3-0.3-0.5c0.3-0.1,0.7-0.2,1-0.2C38.8,18.9,38.9,19.1,39.1,19.4z"/>
	<path d="M32.4,14.3c-0.2-0.1-0.4-0.2-0.6-0.3c-0.1,0-0.1-0.2-0.1-0.3c0.2,0,0.5-0.1,0.7,0c0.3,0.1,0.5,0.3,0.7,0.5
		C32.9,14.2,32.6,14.2,32.4,14.3z"/>
	<path d="M35,21.8c0.2,0,0.4,0,0.5,0c0.1,0,0.3,0.1,0.4,0.2c-0.2,0.1-0.3,0.2-0.5,0.2c-0.2,0.1-0.5,0.2-0.7,0.1
		c-0.2,0-0.4-0.2-0.6-0.3c0.2-0.1,0.4-0.1,0.6-0.2C34.8,21.7,34.9,21.7,35,21.8C35,21.8,35,21.8,35,21.8z"/>
	<path d="M32.1,16c0.3,0,0.5,0,0.8,0.1c0,0,0.1,0.1,0.1,0.2c-0.5,0-1,0-1.5,0c0-0.1,0-0.2,0-0.2C31.7,16.1,31.9,16,32.1,16z"/>
	<path d="M36.1,16c-0.1,0.1-0.1,0.3-0.2,0.3c-0.6,0-1.1,0-1.7,0c0,0,0-0.1,0-0.1c0.5,0,1-0.1,1.5-0.1C35.9,16,36,16,36.1,16L36.1,16
		z"/>
	<path d="M14.1,18.3c0.4,0.3,0.6,0.4,0.7,0.6c-0.2,0.1-0.3,0.3-0.5,0.3c-0.2,0-0.4-0.2-0.4-0.4C13.9,18.7,14,18.5,14.1,18.3z"/>
	<path d="M15.5,18.8c0.3-0.1,0.5-0.3,0.7-0.2c0.1,0,0.2,0.3,0.4,0.4c-0.2,0.1-0.4,0.2-0.6,0.2C15.9,19.2,15.8,19,15.5,18.8z"/>
	<path d="M6.3,20.5C6.1,20.7,6,20.9,5.8,21c-0.1,0.1-0.3,0.1-0.4,0.1c0-0.1-0.1-0.2-0.1-0.3c0.2-0.2,0.5-0.4,0.8-0.7
		C6.1,20.2,6.2,20.3,6.3,20.5z"/>
</g>
</svg>
