<?xml version="1.0" encoding="iso-8859-1"?>
<!-- Generator: Adobe Illustrator 25.3.0, SVG Export Plug-In . SVG Version: 6.00 Build 0)  -->
<svg version="1.1" id="Calque_1" xmlns="http://www.w3.org/2000/svg" xmlns:xlink="http://www.w3.org/1999/xlink" x="0px" y="0px"
	 viewBox="0 0 83.5 20.1" style="enable-background:new 0 0 83.5 20.1;" xml:space="preserve">
<g>
	<path d="M49.6,11.7c-1,0.3-1.9,0-2.7-0.6c-0.5-0.4-1.2-0.6-1.8-0.8c-0.3-0.1-0.7-0.2-1-0.2c-0.1,0.3-0.1,0.7-0.2,1
		c-0.3,1.4-1.7,2.2-2.9,1.5c-2.2-1.3-4.6-1.2-7-1.2c-0.5,0-0.8,0.1-1,0.7c-0.4,1.5-1.8,2.1-3.1,2.4c-0.9,0.2-1.8-0.3-2.3-1.1
		c-0.8-1.2-1.9-1.5-3.2-1.4c-1.1,0.1-2.3,0-3.4,0c-0.6,0-0.8,0.2-0.9,0.8c-0.3,1.8-0.7,3.6-1.2,5.4c-0.6,1.9-2.2,2.5-3.9,1.5
		c-1.8-1-2.8-2.7-3.5-4.6c-0.2-0.6-0.4-1.2-0.6-1.8c-0.4-1.2-0.4-1.3-1.8-1.2c-2.2,0.1-4.3-0.4-6.3-1c-0.8-0.3-1.6-1-2.3-1.6
		c-0.8-0.9-0.7-1.5,0.2-2.3C1.1,6.8,1.5,6.4,2,6.2C4.3,5.4,6.6,4.6,9,4c1.2-0.4,2.6-0.4,3.9-0.6c1.9-0.2,3.8-0.4,5.7-0.6
		c0.7-0.1,1.3-0.1,2-0.1c1.7,0,3.2-0.5,4.6-1.3c0.8-0.5,1.6-0.8,2.4-1.1c1.2-0.4,1.9-0.1,2.4,1.1c0.2,0.6,0.3,1.3,0.4,1.9
		c0.1,0.5,0.3,0.6,0.7,0.5c1.8-0.4,3.6-0.8,5.4-1.2c1.2-0.3,2.3-0.4,3.1,0.9C40,4.2,40.9,4.5,42,4.5c3.2-0.1,6.3-0.4,9.4-1
		c2.1-0.4,4.2-0.6,6.4-0.8c2.8-0.3,5.7-0.7,8.5-1c0.9-0.1,1.8-0.1,2.7-0.1c4.2-0.1,8.4-0.2,12.6-0.4c0.9,0,1.5,0.2,1.8,1.1
		c0.4,1.1-0.2,1.7-0.8,2.3c-0.7,0.7-1.1,0.8-1.9,0.3c-0.7-0.4-1.3-0.4-2-0.2C74.3,6,70,7.2,65.7,8.3c-2.9,0.7-5.8,1.2-8.7,2
		C54.6,11,52.1,11.4,49.6,11.7z"/>
	<path d="M36.4,8.9c-2.5-0.3-5-0.5-7.4-0.8c-2.5-0.3-5-0.7-7.6-1c-1.1-0.1-2.2,0-3.2-0.1c-0.2,0-0.3-0.3-0.4-0.4
		c0.1-0.1,0.3-0.3,0.4-0.3c0.9,0,1.8-0.1,2.7,0c2.8,0.4,5.5,0.9,8.2,1.3c0.1,0,0.2,0,0.4,0C32.7,7.8,35.9,8,39.1,8
		c1.4,0,2.8-0.3,4.2-0.5c0.3,0,0.6-0.1,0.9-0.1c0.3,0,0.6,0.1,0.9,0.2c-0.3,0.2-0.6,0.4-0.9,0.5c-0.3,0.1-0.6,0-0.9,0.1
		C41.1,8.6,38.8,8.9,36.4,8.9z"/>
	<path d="M5,7.1c0.4,0.3,0.7,0.5,1,0.7C5.8,8,5.5,8.4,5.4,8.4C5,8.3,4.7,8,4.4,7.8C4.6,7.6,4.7,7.4,5,7.1z"/>
</g>
</svg>
