<svg xmlns="http://www.w3.org/2000/svg" viewBox="0 0 800 295" width="800" height="295">
  <g transform="scale(0.6666666666666666, 0.6659142212189616)">
    <path d="M 407.366 19.418 C 405.642 20.181, 396.291 25.359, 386.585 30.923 C 334.230 60.939, 307.604 80.396, 279.249 109.356 C 263.059 125.893, 259.011 130.880, 259.004 134.301 C 258.998 136.916, 253.154 138.998, 245.782 139.011 C 237.219 139.025, 216.703 141.273, 187.191 145.430 C 163.183 148.812, 154.285 149.716, 122 152.048 C 100.720 153.585, 92.448 155.143, 71 161.652 C 48.878 168.365, 44.510 170.427, 39.099 176.710 C 32.785 184.042, 30 190.332, 30 197.262 C 30 204.862, 30.353 205.441, 43.158 218.871 L 54 230.241 54 244.952 L 54 259.662 42.367 260.802 C 25.095 262.494, 19 266.712, 19 276.974 C 19 284.037, 20.663 285.254, 42.019 293.817 C 55.454 299.204, 55.223 299.163, 105 305.082 C 114.075 306.161, 125.175 307.917, 129.667 308.984 C 139.079 311.219, 150.070 312.616, 165 313.475 C 196.719 315.299, 206.839 316.270, 212 317.984 C 222.320 321.410, 225.503 322.065, 236.303 322.984 C 248.994 324.063, 252.003 325.511, 257.704 333.279 C 268.952 348.608, 296.767 376.608, 307.584 383.490 C 310.838 385.561, 317.100 390.270, 321.500 393.956 C 342.980 411.949, 348.378 414.900, 350.965 410.066 C 353.233 405.828, 352.219 402.045, 347.780 398.177 C 333.260 385.525, 323.006 373.927, 322.995 370.140 C 322.992 369.238, 320.967 364.014, 318.495 358.532 L 314 348.564 314 334.250 C 314 323.702, 314.329 319.821, 315.250 319.497 C 322.501 316.940, 370.028 314.940, 374.961 316.984 C 378.619 318.499, 384.949 325.262, 395.784 339.232 C 421.366 372.216, 456.956 403, 469.507 403 C 476.542 403, 485.743 396.210, 490.209 387.723 C 492.286 383.775, 492.415 382.394, 492.183 366.500 C 492.047 357.150, 491.466 346.800, 490.892 343.500 C 490.317 340.200, 489.614 329.578, 489.329 319.896 L 488.811 302.293 497.655 300.648 C 502.520 299.743, 513.025 298.096, 521 296.986 C 528.975 295.877, 541.350 293.850, 548.500 292.481 C 555.650 291.112, 566.675 289.287, 573 288.424 C 579.325 287.562, 587.200 286.206, 590.500 285.410 C 593.800 284.615, 602.759 283.523, 610.409 282.984 C 618.058 282.444, 628.408 281.345, 633.409 280.541 C 660.299 276.219, 699.194 274.032, 766 273.088 C 812.701 272.427, 817.873 272.190, 821.500 270.541 C 826.518 268.260, 841.722 267.539, 914.500 266.129 C 1047.827 263.545, 1135.102 262.714, 1138.971 263.991 C 1143.012 265.324, 1167.942 264.980, 1171.250 263.545 C 1173.580 262.535, 1173.649 255.784, 1171.349 253.872 C 1170.126 252.856, 1165.262 252.422, 1152.599 252.199 C 1141.109 251.997, 1134.516 251.461, 1132.500 250.565 C 1128.440 248.759, 1118.477 247.459, 1086 244.498 C 1056.458 241.804, 1049.123 240.938, 1030.500 237.946 C 1017.997 235.937, 991.986 234.034, 976.500 233.995 C 965.732 233.968, 963 233.360, 963 230.990 C 963 228.292, 961.137 228, 943.918 228 L 928 228 928 225.559 C 928 222.348, 928.264 222.450, 915 220.507 C 908.675 219.581, 901.475 217.967, 899 216.922 C 895.059 215.258, 889.078 213.845, 865 208.893 C 861.975 208.270, 852.750 205.954, 844.500 203.746 C 804.021 192.911, 794.688 190.571, 771.500 185.444 C 757.750 182.405, 736.375 177.486, 724 174.514 C 711.625 171.542, 697.225 168.386, 692 167.500 C 686.775 166.615, 678.675 165.029, 674 163.975 C 669.325 162.922, 660.775 161.394, 655 160.581 C 649.225 159.769, 641.575 158.449, 638 157.650 C 634.425 156.850, 628.575 155.895, 625 155.528 C 621.425 155.160, 608.600 152.661, 596.500 149.975 C 575.977 145.419, 566.419 143.556, 509.250 132.974 C 467.948 125.329, 454.474 120.915, 430 107.013 C 408.987 95.078, 396.807 96.286, 369.466 113.021 L 362.965 117 348.482 117 L 334 117 334 99.085 L 334 81.170 338.407 77.335 C 343.866 72.583, 373.238 53.730, 390 44.217 C 396.875 40.315, 406.325 34.508, 411 31.311 C 418.941 25.882, 419.500 25.270, 419.500 22 C 419.500 18.553, 419.431 18.496, 415 18.265 C 412.525 18.136, 409.090 18.655, 407.366 19.418" stroke="none" fill="black" fill-rule="evenodd"/>
  </g>
</svg>