<?xml version="1.0" encoding="iso-8859-1"?>
<!-- Generator: Adobe Illustrator 25.3.0, SVG Export Plug-In . SVG Version: 6.00 Build 0)  -->
<svg version="1.1" id="Calque_1" xmlns="http://www.w3.org/2000/svg" xmlns:xlink="http://www.w3.org/1999/xlink" x="0px" y="0px"
	 viewBox="0 0 82 25.4" style="enable-background:new 0 0 82 25.4;" xml:space="preserve">
<g>
	<path d="M48.3,25.4c-0.4-0.1-1-0.2-1.5-0.4c-1.9-0.8-3.8-1.7-5.6-2.6c-0.8-0.4-1.6-1.1-2.4-1.5c-0.4-0.2-1-0.4-1.5-0.4
		c-2,0.3-4,0.7-6,1c-0.4,0.1-0.2,0.2-0.1,0.4c0.2,0.4,0.5,1.1,0.4,1.2c-0.5,0.4-1,0.2-1.4-0.3c-0.8-1-1.8-1.1-3.2-1
		c-2.5,0.2-5,0.1-7.5,0c-1.3-0.1-2.7-0.4-4-0.6c-0.2,0-0.5-0.1-0.7,0c-3.8,0.5-7.4-0.3-10.9-1.6c-1.3-0.5-2.7-1.3-3.6-2.5
		C0.1,17-0.1,16.7,0,16.6c0.2-0.2,0.5-0.5,0.7-0.4c0.5,0.1,1,0.2,1.5,0.4c0.6,0.3,1.2,0.5,1.7-0.3C4,16,4.5,15.9,4.8,15.8
		c0.1-0.1,0.2-0.2,0.3-0.3c-0.1-0.1-0.2-0.2-0.3-0.2c-1-0.3-1.9-0.6-2.9-1c-1-0.4-1-0.4-0.8-1.6c0-0.1,0-0.1,0-0.2
		c0.4-0.7-0.6-1.5,0.3-2.2c0.6-0.4,0.9-1.2,1.4-1.8C3.1,8.4,3.3,8.2,3.3,8c0.2-1.5,1.4-1.7,2.6-1.9C6.2,6.1,6.5,6,6.8,5.9
		c1.5-0.4,2.9-0.8,4.5-0.6c0.9,0.1,1.9,0.3,2.7-0.5c0.1-0.1,0.3-0.1,0.5-0.1c1.7-0.1,3.3-0.1,5-0.4c2.7-0.4,5.4-0.3,8-0.3
		c1.3,0,2.6,0.2,3.9,0.3c1.7,0.1,3.1-0.3,4.5-1.3c1.3-0.9,2.8-1.8,4.5-2c0.2,0,0.4-0.2,0.7-0.3c0.5-0.3,1-0.6,1.5-0.8
		c0.8,0.8,1.9,0.3,2.8,0.8c1.5,0.8,3.1,1.3,4.6,2c1.2,0.6,2.4,1.3,2.9,2.7c0.2,0.5,0.3,0.8-0.3,1.2c-0.9,0.5-1.7,1.1-2.5,1.6
		c-0.1,0.1-0.2,0.2-0.2,0.3c0,0.1,0.2,0.2,0.3,0.2C50.5,8.9,51,9,51.5,9c2,0.1,3.9,0.2,5.9,0.3c0.9,0.1,1.8-0.2,2.6-0.5
		c2.8-1.2,5.7-2.1,8.7-2.6c3.8-0.6,7.4-1.5,11.1-2.4c0.4-0.1,0.8-0.1,1.2,0c1.1,0.4,1.3,0.9,0.7,1.9c-0.6,0.9-1.3,1.7-1.9,2.5
		c-0.2,0.2-0.4,0.4-0.6,0.7c-1.1,1.9-0.9,3.4,0.5,5c0.6,0.6,1.2,1.2,1.8,1.8c0.8,0.9,0.7,1.6-0.5,2c-0.8,0.2-1.7,0.3-2.5,0.2
		c-1.3-0.1-2.7-0.4-4-0.6c-1.3-0.2-2.6-0.5-3.8-0.6c-0.4-0.1-0.8,0.1-1.2,0.1c-1,0-2,0-3,0c-2.3-0.1-4.5-1-6.8-1.5
		c-1.3-0.3-2.8-0.1-4.1,0c-1.9,0.2-3.9,0.5-5.8,0.7c-0.1,0-0.3,0.2-0.4,0.3c0,0,0.1,0.2,0.1,0.3c0.2,0.2,0.5,0.4,0.8,0.5
		c2,0.8,1.9,2.6,2.4,4.2c-0.9,1.4-1.1,3.3-2.9,4C49.3,25.4,48.9,25.4,48.3,25.4z"/>
	<path d="M8.1,11.6c-0.1-0.3-0.4-0.6-0.4-1C7.6,10,7.9,9.5,8.5,9.4c0.3,0,0.8,0.3,1,0.5c0.3,0.5,0.2,1.1-0.4,1.4
		C8.8,11.5,8.5,11.5,8.1,11.6C8.1,11.5,8.1,11.6,8.1,11.6z"/>
</g>
</svg>
