<?xml version="1.0" encoding="iso-8859-1"?>
<!-- Generator: Adobe Illustrator 25.3.0, SVG Export Plug-In . SVG Version: 6.00 Build 0)  -->
<svg version="1.1" id="Calque_1" xmlns="http://www.w3.org/2000/svg" xmlns:xlink="http://www.w3.org/1999/xlink" x="0px" y="0px"
	 viewBox="0 0 82.8 11.2" style="enable-background:new 0 0 82.8 11.2;" xml:space="preserve">
<g>
	<path d="M47.3,8.2C47,9,46.3,8.6,45.7,8.7c-3.4,0.7-6.8,1.4-10.2,2c-2.9,0.5-5.9,0.3-8.9,0.4c-4.6,0.1-9.1-0.7-13.5-2.1
		c-0.8-0.3-1.6-0.4-2.4-0.4C7.8,8.7,5,8.4,2.2,7.6C1.8,7.5,1.3,7.4,1.1,7.1C0.6,6.7,0.2,6.1,0,5.5C0,5.4,0.7,4.8,1.2,4.6
		c1.5-0.6,3.2-1,4.7-1.7c1.2-0.6,2.4-1.2,3.8-1.6c1.9-0.6,3.9-0.9,5.9-1C17,0.2,18.5-0.1,20,0c2,0.1,4,0.4,6,0.6
		c1.4,0.1,2.7,0.3,4.1,0.4c1.5,0.2,3,0.3,4.4,0.5c1.4,0.2,2.8,0.4,4.2,0.5c2.5,0.2,5,0.2,7.5,0.4C51.8,3,57.4,2.9,62.9,2.7
		c3.4-0.1,6.8,0,10.2-0.4c3.1-0.3,6.1-0.1,9.1-0.2c0.2,0,0.4,0.2,0.5,0.3c-0.2,0.1-0.3,0.2-0.5,0.2c-2.5,0.2-5,0.5-7.4,0.7
		c-1,0.1-2,0.2-3,0.4c-2.3,0.4-4.7,0.7-6.9,1.7c-1.4,0.6-3.1,0.8-4.6,1.1c-2.3,0.4-4.7,0.8-7,1.1C51.3,7.8,49.3,8,47.3,8.2
		c0.7-1.2,2-0.8,3-1c2.9-0.4,5.7-1.1,8.7-1.4c0.4-0.3,0.8-0.5,1.3-0.2c-0.6-0.4-1,0.1-1.5,0.2c-0.1,0-0.1,0-0.2,0
		c-3.4,0.4-6.8,1-10.2,1.6C40,9,31.7,10.4,23.2,10c-1.8-0.1-3.6-0.2-5.3-0.6c-0.2,0-0.4,0-0.5,0c0.2,0,0.3,0,0.5,0
		c1.8,0.4,3.6,0.6,5.3,0.6c6.8,0.3,13.6-0.5,20.3-1.6C44.7,8.2,46,7.6,47.3,8.2z"/>
	<path d="M10.2,7.4c0.7-0.6,1.4-1.3,1.6-2.2c0.1-0.3,0-0.7,0.1-1c0-0.2,0-0.4,0.1-0.5c0.1-0.1,0.4-0.1,0.5,0c0.6,0.9,1.3,1,2.3,0.6
		c0.2-0.1,0.5-0.1,0.7-0.1c0.6,0,1.4-0.2,1.7,0.6c0.2,0.5-0.7,1.7-1.4,1.9c-0.3,0.1-0.6,0.1-0.9,0.1c-0.7-0.1-1.5,0.3-2.2-0.3
		c0.5-1,1.4-0.3,2-0.4c0.3-0.1,0.7-0.1,1-0.2c0.2-0.1,0.4-0.4,0.6-0.6c-0.3-0.1-0.6-0.2-0.8-0.2c-0.9,0.1-1.9,0.3-2.8,0.5
		c-0.2,0-0.4,0.3-0.4,0.5c-0.1,1.1-0.9,1.3-1.8,1.6C10.3,7.6,10.2,7.5,10.2,7.4z"/>
</g>
</svg>
