<svg xmlns="http://www.w3.org/2000/svg" viewBox="0 0 800 357" width="800" height="357">
  <g transform="scale(0.6666666666666666, 0.6660447761194029)">
    <path d="M 721.500 41.313 C 711.623 44.634, 704.790 48.287, 695 55.481 C 690.325 58.915, 680.200 65.915, 672.500 71.036 C 664.800 76.156, 654.450 83.272, 649.500 86.848 C 644.550 90.424, 638.590 94.652, 636.255 96.243 L 632.010 99.135 615.534 98.817 L 599.059 98.500 596.183 95.053 C 593.333 91.637, 593.222 91.602, 583.753 91.188 L 574.198 90.770 569.387 85.885 L 564.575 81 553.363 81 L 542.150 81 539.808 76.750 L 537.466 72.500 527.369 72.217 L 517.273 71.933 516.718 66.552 C 515.704 56.730, 516.229 57.001, 498.215 56.994 L 482.500 56.987 480.797 53.994 L 479.093 51 462.669 51 C 450.040 51, 445.984 50.686, 445.116 49.640 C 444.220 48.560, 440.531 48.365, 427.244 48.694 C 405.898 49.222, 406.345 49.115, 404.879 54.010 L 403.683 58 392.388 58 C 379.892 58, 381.230 57.359, 375.678 66 C 373.445 69.473, 373.368 69.502, 365.464 69.752 C 354.324 70.104, 353.327 70.452, 351.863 74.503 L 350.598 78 343.495 78 C 336.779 78, 336.225 78.177, 333.316 81.250 C 329.562 85.216, 328.001 88.131, 327.996 91.184 C 327.984 98.575, 320.663 103.321, 305.012 106.085 C 299.140 107.122, 292.360 108.667, 289.946 109.519 C 287.531 110.371, 281.327 111.749, 276.158 112.580 C 270.989 113.412, 264.901 114.779, 262.630 115.618 C 260.358 116.456, 256.250 117.830, 253.500 118.670 C 231.692 125.334, 221.617 128.848, 216.167 131.694 C 212.684 133.512, 209.027 135, 208.041 135 C 207.055 135, 203.785 136.089, 200.774 137.421 C 197.763 138.753, 193.320 140.342, 190.900 140.953 C 188.480 141.565, 182.900 143.359, 178.500 144.942 C 174.100 146.524, 166.900 148.693, 162.500 149.763 C 158.100 150.832, 152.250 152.614, 149.500 153.724 C 141.820 156.821, 132.177 160.088, 124.965 162.035 C 103.614 167.802, 68.348 192.262, 40.250 220.795 L 26 235.265 26 245.505 C 26 253.770, 25.590 256.672, 23.877 260.545 C 20.987 267.079, 21.644 275.688, 25.601 283.136 C 29.608 290.679, 51.139 311.984, 62.500 319.649 C 72.024 326.074, 87.058 334.582, 105.952 344.238 C 112.250 347.456, 117.875 350.467, 118.452 350.927 C 119.686 351.912, 129.351 355.964, 140.247 360.062 C 144.507 361.665, 151.932 364.943, 156.747 367.347 C 161.561 369.751, 167.975 372.487, 171 373.427 C 174.025 374.366, 183.025 378.238, 191 382.030 C 205.597 388.972, 212.209 391.791, 226 396.954 C 230.125 398.498, 237.996 401.834, 243.492 404.366 C 248.987 406.899, 256.862 409.686, 260.992 410.559 C 272.632 413.022, 273.694 413.641, 277.545 420.211 C 289.320 440.302, 326.946 481.243, 344.660 493.240 L 351.660 497.980 369.765 497.171 C 390.785 496.232, 392.700 495.461, 400.595 484.754 C 406.026 477.389, 407 472.703, 407 453.951 L 407 439 416.250 438.905 C 504.965 437.989, 539.802 437.214, 542.500 436.095 C 545.380 434.901, 554.992 434.274, 605 432.015 C 624.805 431.120, 628.338 430.702, 634.500 428.525 C 640.637 426.356, 643.209 426.048, 655.368 426.026 L 669.236 426 672.655 429.002 C 677.318 433.096, 684.791 436.745, 692.265 438.578 C 695.694 439.418, 701.200 441.307, 704.500 442.775 C 709.914 445.183, 712.015 445.495, 726 445.972 L 741.500 446.500 753.837 453.327 L 766.174 460.155 785.587 460.167 C 808.810 460.181, 810.252 459.716, 820.436 448.921 C 827.856 441.055, 837.551 423.226, 840.345 412.307 C 841.216 408.901, 845.156 399.676, 849.100 391.807 C 860.148 369.766, 861 367.021, 861 353.496 L 861 342.038 863.750 341.426 C 865.263 341.090, 867.175 340.647, 868 340.444 C 868.825 340.240, 873.550 339.595, 878.500 339.010 C 883.450 338.425, 892.908 337.037, 899.517 335.925 C 917.456 332.906, 941.575 333.510, 951.658 337.231 C 966.163 342.584, 980.579 351.205, 1001.290 366.913 C 1008.969 372.736, 1018.457 379.485, 1022.375 381.912 C 1031.698 387.685, 1073.109 408.542, 1079.395 410.631 C 1082.087 411.525, 1085.863 413.324, 1087.785 414.629 C 1089.707 415.933, 1091.928 417, 1092.721 417 C 1093.515 417, 1098.739 418.567, 1104.332 420.482 C 1120.820 426.129, 1149.334 429.105, 1157.435 426.025 C 1162.346 424.158, 1160.980 415.433, 1153.045 398 C 1150.187 391.721, 1148.882 387.149, 1148.048 380.500 C 1146.601 368.956, 1144.066 359.643, 1139.473 349 C 1136.425 341.937, 1135.640 338.641, 1134.829 329.500 C 1133.725 317.066, 1134.665 246.819, 1136.019 240.500 C 1136.491 238.300, 1137.838 231.550, 1139.012 225.500 C 1141.157 214.447, 1144.571 202.204, 1150.167 185.500 C 1151.825 180.550, 1153.988 173.575, 1154.973 170 C 1155.959 166.425, 1157.938 161.025, 1159.373 158 C 1160.807 154.975, 1161.985 151.914, 1161.990 151.198 C 1161.996 150.482, 1163.648 146.711, 1165.663 142.818 C 1169.108 136.162, 1169.331 135.165, 1169.413 126.083 C 1169.513 115.012, 1168.174 111.806, 1162.454 109.416 C 1158.047 107.575, 1146.817 107.622, 1140.601 109.508 C 1137.907 110.325, 1131.382 111.687, 1126.101 112.533 C 1119.968 113.516, 1114.513 115.094, 1111 116.900 C 1107.975 118.455, 1103.806 120.036, 1101.735 120.412 C 1087.786 122.947, 1028.153 153.813, 1009 168.412 C 987.705 184.644, 968.125 196.912, 945 208.513 L 935.500 213.278 915 212.704 C 897.483 212.213, 893.117 211.764, 885 209.617 C 879.775 208.234, 870.775 206.361, 865 205.453 C 859.225 204.545, 852.025 202.956, 849 201.921 C 845.975 200.887, 839.960 199.368, 835.634 198.546 C 824.391 196.411, 825 197.653, 825 176.843 L 825 158.930 819.578 148.715 C 816.596 143.097, 813.259 135.730, 812.163 132.345 C 811.068 128.960, 809.480 125.135, 808.635 123.845 C 807.790 122.555, 805.934 118.350, 804.510 114.500 C 800.318 103.160, 788.359 80.026, 782.988 72.863 C 774.137 61.062, 757.788 45.250, 751.422 42.336 C 743.088 38.520, 731.032 38.108, 721.500 41.313" stroke="none" fill="black" fill-rule="evenodd"/>
  </g>
</svg>