<?xml version="1.0" encoding="iso-8859-1"?>
<!-- Generator: Adobe Illustrator 25.3.0, SVG Export Plug-In . SVG Version: 6.00 Build 0)  -->
<svg version="1.1" id="Calque_1" xmlns="http://www.w3.org/2000/svg" xmlns:xlink="http://www.w3.org/1999/xlink" x="0px" y="0px"
	 viewBox="0 0 60.2 45.4" style="enable-background:new 0 0 60.2 45.4;" xml:space="preserve">
<g>
	<path d="M22.8,43.2c-3.7-0.3-7.5,0.1-11.2-1.1c-0.3-0.1-0.6,0-0.9-0.1c-0.3,0-0.6,0-0.8-0.2c-1-1.2-2-2.3-2.9-3.6
		c-1.1-1.5-2-3-2.5-4.8c-0.5-2-1.4-3.7-2.7-5.3c-0.8-1-1.1-2.3-1.8-3.4c-0.3-0.5-0.1-0.8,0-1.1c0.5-0.9,0.9-1,1.9-0.6
		c0.3,0.1,0.5,0.2,0.8,0.3c0.1,0,0.3,0,0.3-0.1c0-0.1,0.1-0.4,0-0.5c-0.3-0.3-0.7-0.6-1.1-0.9c-0.4-0.3-0.6-0.5-0.3-1
		c0.3-0.6,0.4-1.3,0.7-2c1.3-3.3,3.2-6.2,6.5-8C10.6,9.8,12.3,9,14,8.1c0.7-0.4,1.4-0.9,2-1.5c2-2.4,4.4-4.3,6.9-6.1
		c0.1-0.1,0.3-0.2,0.4-0.3c0.6-0.3,1.1-0.1,1,0.6c-0.2,1.4,0.7,2.6,0.8,4c0.1,0.5,0.5,0.5,0.9,0.1C26.9,4,27.7,3,28.7,2.3
		c0.7-0.6,1.6-1,2.5-1.2c1.8-0.3,3.1,0.7,4.2,2c1.1,1.3,1.7,3,2.1,4.7c0.1,0.6,0,0.9-0.3,1.3c-0.9,1.1-2.2,1.5-3.5,2.1
		c-0.3,0.1-0.6,0.3-0.9,0.5c0.3,0.2,0.5,0.4,0.8,0.6c0.6,0.4,1.1,0.9,1.8,1.2c0.5,0.2,1.1,0.4,1.7,0.3c1.9-0.3,3.6,0.2,5.1,1.4
		c0.5,0.4,0.8,1,1.2,1.5c0.6,0.9,0.6,0.9,1.6,0.4c2.2-1.1,4.4-2.3,6.7-3.3c1.9-0.9,3.9-1.6,6-1.6c1.5,0,2,0.6,1.5,2
		c-0.6,1.5-1.3,3-2.2,4.5c-0.5,0.8-0.6,1.4,0,2.2c0.8,0.9,1.5,1.8,2.2,2.8c0.4,0.6,0.8,1.3,1,2c0.3,0.7,0,1.4-0.7,1.5
		c-0.7,0.2-1.5,0.4-2.3,0.3c-2-0.2-3.9-0.7-5.7-1.4c-1.9-0.8-4-1.2-6-1.6c-0.6-0.1-1.2-0.2-1.7-0.3c-0.1,0.5-0.1,1-0.2,1.4
		c-0.1,0.9-0.8,1.4-1.4,2c-0.4,0.3-0.7,0.4-1.1,0.1c-0.1-0.1-0.3-0.1-0.4-0.2c0,0.2,0.1,0.3,0.1,0.5c0,0.4,0.1,0.8-0.1,1.1
		c-0.9,1.5-1.8,2.9-2.7,4.4c-0.7,1.1-1.4,1.2-2.2,0.1c-0.8-1.1-1.4-2.4-2-3.6c-0.1-0.2-0.2-0.3-0.3-0.4c-0.1,0.1-0.3,0.2-0.4,0.4
		c-0.4,1.5-0.9,3.1-1.3,4.6c-0.2,0.7,0,0.8,0.7,0.7c1.2-0.2,1.5,0,1.9,1c0.2,0.4,0.3,0.8,0.4,1.2c0.2,1.2-0.2,1.6-1.4,1.7
		c-1.8,0.1-1.8,0.1-1.8,1.9c0,1-0.2,2,0.9,2.7c0.4,0.2,0.2,0.6-0.3,0.7c-0.4,0.1-0.8,0.2-1.1,0.4c-0.3,0.2-0.6,0.6-0.8,0.6
		c-0.6,0,0-0.6-0.2-0.8c-0.2-0.2-0.5-0.4-0.7-0.5C27.1,43.7,25,43.5,22.8,43.2z"/>
	<path d="M18.2,15.8c-0.5,0.1-0.9-0.2-0.9,0.8c0,1.6,0.4,3,1,4.4c0.8,1.8,0.7,3.7,0.7,5.6c0,0.8-0.1,1.6,0.6,2.3
		c0.3,0.3,0.3,0.8,0.4,1.1c0.3,1.1,0.3,1.1,1.3,0.4c1.4-0.9,2.8-1.9,4.2-2.8c0.5-0.3,1.2-0.9,1.8-0.3c0.7,0.6-0.1,1.2-0.3,1.7
		c-0.6,1.2-1.2,2.3-1.9,3.4c-0.2,0.4-0.6,0.8-0.8,1.1c0,0,0.1,0.3,0.2,0.3c1.3-0.2,2.6-0.2,3.6-1.2c0.9-0.8,1.1-0.7,1.5,0.4
		c0.1,0.3,0.2,0.6,0.2,0.9c0,0.6,0,1.3,0,1.9c-0.8-0.2-0.7-1-0.8-1.5c0-0.1-0.2-0.2-0.4-0.2c0,0-0.2,0.2-0.2,0.3
		c0.1,0.5,0.2,1,0.2,1.6c0,0.1-0.2,0.3-0.3,0.4c0,0-0.2-0.1-0.3-0.1c0,0-0.1-0.1-0.1-0.2c-0.2-0.4-0.4-0.8-0.6-1.1
		c-0.6,0.4-0.1,0.8-0.1,1.3c0,0.2,0,0.4-0.1,0.5C27,36.8,26.8,37,26.7,37c-0.1,0-0.3-0.1-0.4-0.3c-0.1-0.1-0.1-0.2-0.1-0.3
		c-0.1-0.4-0.1-0.7-0.2-1.1c0,0.4-0.1,0.8-0.1,1.2c0,0.2,0,0.4-0.1,0.5c-0.1,0.1-0.3,0.2-0.4,0.3c0,0-0.2-0.1-0.2-0.2
		c-0.1-0.3-0.2-0.7-0.3-1c-0.1-0.2-0.1-0.3-0.2-0.5c0,0.2-0.1,0.3-0.1,0.5c0,0.3,0,0.6,0,0.9c0,0.1-0.2,0.2-0.3,0.3
		c-0.1-0.1-0.3-0.2-0.4-0.3c-0.1-0.4-0.2-0.8-0.3-1.2c0-0.1-0.2-0.1-0.3-0.2c-0.1,0.1-0.2,0.2-0.2,0.3c0,0.5,0,1-0.1,1.4
		c0,0.1-0.2,0.3-0.3,0.4c-0.1-0.1-0.4-0.2-0.4-0.3c-0.1-0.5-0.1-0.9-0.1-1.4c-0.1-1-0.2-1-1.1-0.5c-0.9,0.5-1.9,1-2.9,1.4
		c-0.4,0.2-0.8,0.2-1.1-0.3c-0.1-0.1,0-0.5,0.1-0.5c2.5-0.2,4.1-2.2,6.2-3.1c0.3-0.1,0.5-0.5,0.7-0.8c0.2-0.4,0.4-0.9,0.6-1.3
		c0.5-0.9,1-1.8,1.4-2.7c-0.9,0.6-1.9,1.1-2.7,1.7c-1.8,1.2-3.5,2.5-5.2,3.8c-0.2,0.1-0.3,0.3-0.6,0.4c-0.3,0.1-0.6,0.2-1,0.3
		c0-0.3,0-0.6-0.1-0.8c-0.2-0.8-0.5-0.9-1.2-0.4c-0.9,0.6-1.7,1-2.8,0.1c-0.6-0.5-1.2-0.6-0.4-1.6c0.3-0.4,0.1-1.4,0-2.1
		c-0.1-2.7-0.2-5.5-0.2-8.2c0-0.1,0.1-0.2,0.1-0.3c0.1,0.1,0.3,0.2,0.3,0.3c0.1,0.5,0.3,0.9,0.3,1.4c0.1,1,0,1.9,0.1,2.9
		c0.1,2.1,0.2,4.3,0.4,6.4c0.1,0.9,0.5,1.1,1.3,0.6c1.8-0.9,2.8-2.5,3.3-4.4c0.8-3.2,0-6.1-1-9c-0.6-1.6-1.2-3.2-1.7-4.9
		c-0.1-0.5-0.2-1.1,0-1.6c0.2-0.7,0.7-1.2,0.3-2c0-0.1,0.2-0.3,0.3-0.4c0.1,0.1,0.3,0.1,0.3,0.3c0.3,0.9,0.6,1.8,0.7,2.7
		C16.8,14.7,17.2,15.4,18.2,15.8L18.2,15.8z"/>
	<path d="M5.6,16.5c0.2-1.2,0.8-2.2,2.1-2.5C7.8,14,7.9,14,8,14c0.5,0.1,0.9,0.2,1.3,0.4c1.2,0.6,1.8,1.7,1.6,3
		c-0.3,1.4-1.3,1.8-2.6,1.9c-1.5,0.1-2.2-0.6-2.5-2c0-0.2-0.1-0.5-0.1-0.7C5.6,16.7,5.6,16.6,5.6,16.5z"/>
	<path d="M7.7,13.9c1.5-0.9,2.5-0.7,3.5,0.5c1.4,1.7,1.4,4.3,0.4,5.7c-0.9,1.5-3,2.1-4.6,1.3c0-0.1,0-0.2,0-0.3
		c0.2-0.6,0.7-0.7,1.2-0.9c2.1-0.5,2.6-1.2,2.6-3.2c0-1.8-0.4-2.3-2.7-2.9C8,14.2,7.9,14.1,7.7,13.9L7.7,13.9z"/>
	<path d="M39.1,19.7c1-0.6,2,0,2.9,0.1c1.2,0.2,2.4,0.2,3.5,0.3c0.3,0,0.5,0.2,0.8,0.3c0,0,0,0,0,0c-2.3,0.5-4.6-0.1-6.8-0.4
		C39.3,20,39.2,19.8,39.1,19.7L39.1,19.7z"/>
	<path d="M15.1,18.3c-0.2,0.3-0.2,0.4-0.3,0.6c-0.2-0.1-0.4-0.2-0.5-0.3c-0.1-0.1,0-0.2-0.1-0.3c-0.3-0.6-0.5-0.5-0.8,0
		c-0.1,0.1-0.3,0.2-0.4,0.3c-0.1-0.2-0.2-0.3-0.2-0.5c0.1-0.4,0.2-0.8,0.4-1.2c0.3-0.5,0.8-0.5,1.2-0.1
		C14.6,17.3,14.8,17.8,15.1,18.3z"/>
	<path d="M39.1,19.7c-0.3,0.1-0.6,0.4-0.8,0.3c-1.2-0.3-2.4-0.3-3.5-1l0,0c0.2-0.1,0.3-0.2,0.5-0.2C36.5,19,37.9,19.1,39.1,19.7
		C39.1,19.7,39.1,19.7,39.1,19.7z"/>
	<path d="M34.8,19c-1.5,0.4-2.8-0.5-4.2-0.7c-0.1,0-0.2-0.1-0.3-0.2c0.1,0,0.2-0.1,0.3-0.1c0.2,0,0.5,0,0.7,0
		C32.5,18.3,33.6,18.6,34.8,19L34.8,19z"/>
	<path d="M18.2,15.8c1,0.1,2,0.2,3,0.3c0.2,0,0.5,0.2,0.7,0.2c-0.2,0-0.5,0.1-0.7,0.1C20.1,16.5,19.1,16.3,18.2,15.8
		C18.2,15.8,18.2,15.8,18.2,15.8z"/>
	<path d="M46.3,20.4c1.1,0,2.2,0,3.4,0c0.1,0,0.2,0.1,0.3,0.1c0,0.1-0.1,0.2-0.1,0.2C48.6,20.7,47.4,21.1,46.3,20.4L46.3,20.4z"/>
	<path d="M5.6,19.7c-0.5-1.1-0.5-2.1,0-3.2l0,0c0.6,1,0.9,2,0.3,3.1C5.8,19.6,5.7,19.7,5.6,19.7z"/>
	<path d="M29.6,17.9c-0.1,0.1-0.2,0.2-0.2,0.2c-0.5-0.1-1-0.2-1.5-0.3c0,0-0.1-0.2-0.1-0.3c0,0,0.1-0.1,0.1-0.1
		c0.6,0.1,1.1,0.2,1.7,0.3C29.6,17.8,29.6,17.9,29.6,17.9z"/>
	<path d="M7,21.5c-1.2-0.2-1.3-0.3-1.4-1.8l0,0C7,19.6,7.3,20.3,7,21.5L7,21.5z"/>
	<path d="M49,16.6c0.3,0.3,0.7,0.5,1,0.7c-0.1,0.1-0.2,0.2-0.2,0.2c-0.3-0.2-0.6-0.3-0.9-0.5C48.9,16.9,49,16.8,49,16.6z"/>
</g>
</svg>
