<?xml version="1.0" encoding="iso-8859-1"?>
<!-- Generator: Adobe Illustrator 25.3.0, SVG Export Plug-In . SVG Version: 6.00 Build 0)  -->
<svg version="1.1" id="Calque_1" xmlns="http://www.w3.org/2000/svg" xmlns:xlink="http://www.w3.org/1999/xlink" x="0px" y="0px"
	 viewBox="0 0 81.6 17.7" style="enable-background:new 0 0 81.6 17.7;" xml:space="preserve">
<g>
	<path d="M62.9,3.5c1-0.2,2,0,3,0.3c1.4,0.4,2.8,0.7,4.1,1.1c1,0.3,2,0.6,2.5,1.6c0.3,0.6,0.8,0.6,1.4,0.5c1.3-0.2,2.7-0.5,4-0.6
		c2.4-0.2,4.2,2.4,3.6,4.7c-0.5,1.8-1.9,2.2-3.4,2.1c-1.5-0.1-3-0.4-4.5-0.8c-1.1-0.3-1.1-0.4-1.2,0.7c-0.1,0.4-0.2,0.8-0.3,1.2
		c-0.2,0.5-0.6,0.7-1.1,0.8c-2,0.3-4.1,0.7-6.1,1c-0.6,0.1-1.3,0.2-2,0c-0.6-0.1-1.1,1-1.7,0.2c-1.6,0.2-3.2,0.4-4.8,0.6
		c-1.7,0.2-3.5,0.4-5.2,0.5c-1.9,0.1-3.8,0.2-5.6,0.4c-1.8,0.2-3.6,0.3-5.3-0.7c-1,0.5-1.6-0.6-2.6-0.7c-0.3,0-0.8-0.4-1-0.7
		c-0.7-1-1.8-1.2-2.9-0.9c-2.1,0.5-4.3,0.4-6.4,0c-0.1,0-0.1,0-0.2,0c-2.7-0.1-5.4-0.3-8.1-0.4c-0.6,0-0.7,0.1-0.3,0.6
		c0.4,0.6,0,2-0.5,2.4c-0.2,0.1-0.6,0.1-0.7-0.1c-0.3-0.4-0.5-0.9-0.7-1.4c-0.2-0.5-0.4-1.1-0.6-1.7c-0.1-0.2-0.4-0.5-0.6-0.5
		c-2.2-0.1-4.3-0.5-6.4-0.8c-2.2-0.2-4.4-0.8-6.6-1.2c-0.8-0.2-1.5-0.4-2.2-0.6c-0.1,0-0.3-0.3-0.2-0.4c0-0.1,0.2-0.3,0.4-0.3
		c0.3-0.1,0.6,0,0.9-0.1c0.2-0.1,0.4-0.2,0.6-0.3C1.7,9.7,1.6,9.6,1.5,9.5C-0.2,8-0.1,8,1.8,6.9C5,5.1,8.5,4.4,12,3.7
		c0.8-0.1,1.5-0.2,2.3-0.4c1-0.3,1.7-0.8,2.1-1.8c0.2-0.5,0.5-0.8,1-0.8c2.8-0.2,5.6-0.4,8.4-0.6c0.9-0.1,1.8,0.1,2.7-0.1
		c0.8-0.2,1.5,0.3,2.4,0.1c0.8-0.2,1.7-0.1,2.6,0c2.1,0.1,4.2,0.2,6.3,0.3c1.2,0.1,2.4,0.1,3.6,0.2c1.8,0.1,3.5,0.2,5.3,0.4
		c2.1,0.2,4.3,0.4,6.4,0.7C57.6,2,60,2.5,62.4,3C62.6,3.1,62.7,3.3,62.9,3.5c-0.2,0.2-0.3,0.4-0.4,0.5c-0.2,0.2-0.3,0.3-0.5,0.5
		c0.1-0.1,0.3-0.2,0.4-0.4C62.6,3.9,62.7,3.7,62.9,3.5z"/>
	<path d="M23.3,12.9c-0.6-0.1-1-0.2-1.3-0.3c-0.9-0.1-1.7-0.5-2.6-0.3c-0.7,0.2-1.1-0.3-0.9-1.1c0.3-1,0.8-1.9,0.1-2.9
		c-0.2-0.2-0.2-0.5-0.4-0.8c-0.2-0.3-0.5-0.5-0.8-0.8c0.4-0.2,0.7-0.4,1.1-0.5c2.3-0.9,4.6-1.9,7.2-1.7c1.4,0.1,2.5,0.6,3.3,1.8
		c0.8,1.1,0.8,2.1,0.1,3.1c-0.5,0.8-1.1,1.6-1.9,2.1C25.9,12.1,24.4,12.5,23.3,12.9z"/>
</g>
</svg>
