<?xml version="1.0" encoding="iso-8859-1"?>
<!-- Generator: Adobe Illustrator 25.3.0, SVG Export Plug-In . SVG Version: 6.00 Build 0)  -->
<svg version="1.1" id="Calque_1" xmlns="http://www.w3.org/2000/svg" xmlns:xlink="http://www.w3.org/1999/xlink" x="0px" y="0px"
	 viewBox="0 0 69.9 43.3" style="enable-background:new 0 0 69.9 43.3;" xml:space="preserve">
<g>
	<path d="M17.2,31.2c-2.4-0.2-4.4,0.2-6.2-0.4c-0.3-0.1-0.6,0-0.9,0c-0.6,0-0.8,0.5-0.9,0.9c-0.1,0.5,0.3,0.7,0.8,0.7
		c0.6,0.1,1.3,0.3,1.9,0.4c0.1,0,0.2,0.2,0.3,0.4c-0.2,0.1-0.3,0.3-0.5,0.4c-0.2,0-0.5,0-0.7-0.1c-1.6-0.6-3.3-0.9-5.1-1
		c-1.9-0.1-3.1-1.3-4.3-2.6c-0.1-0.1-0.1-0.5,0-0.6c0.2-0.5,0.1-0.8-0.2-1.2c-0.6-0.8-0.4-1.7,0.3-2.4c2.1-2.1,4.7-3.4,7.8-3.6
		c11-0.7,22-0.3,33.1-0.3c2.5,0,5.1,0.2,7.6,0.6c1.1,0.2,2,0,2.8-0.8c0.3-0.3,0.6-0.6,0.9-0.9c0.6-0.5,1.3-0.9,2.1-0.7
		c1.7,0.4,3.3,0.9,5,1.4c0.3,0.1,0.8,0.3,0.5,0.7c-0.3,0.5-0.4,0.7,0.3,0.6c0.6-0.1,1.3-0.2,1.9-0.3c0.6-0.1,1.1-0.3,1.7-0.4
		c1.1-0.2,1-0.2,0.8,0.9c-0.1,0.2,0.1,0.6,0.2,0.7c0.2,0.2,0.6,0.2,0.8,0.3c0.5,0.2,0.5,0.7,0,0.9c-0.5,0.2-1.1,0.4-1.7,0.5
		c-0.6,0.1-1.3,0-2,0c-0.5,0-0.9,0.1-1.4,0.5c-1.2,1.2-2.9,1.6-4.5,1.9c-0.6,0.1-1.4-0.2-2-0.6c-1.3-0.9-2.6-0.6-3.9-0.4
		c-0.4,0.1-0.3,0.2-0.1,0.4c0.3,0.2,0.3,0.5-0.1,0.7c-1,0.4-2,1-3.2,0.6c-1.2-0.4-2.3-0.5-3.6-0.3c-3,0.6-6,0.8-9,1.2
		c-2.2,0.3-4.3,0.7-6.5,1c-1.2,0.2-2.5,0.3-3.7,0.4C22.5,31,19.6,31.1,17.2,31.2z"/>
	<path d="M15.9,11.1c-1.4-2.1-2.8-4.1-5-5.5C9.9,5,8.8,4.5,7.7,4c-0.5-0.2-1-0.4-1.5-0.6C6.1,3.4,6.1,3.2,6,3.2C6.1,3.1,6.3,3,6.4,3
		c2,0.7,4.2,1.1,5.8,2.7c0.9,0.9,1.8,1.7,2.6,2.6c0.7,0.8,1.4,1.6,2.1,2.5c0.3,0.4,0.3,1.1,0.5,1.2c0.6,0.1,1.3,0,1.9-0.1
		c0.4,0,0.7-0.1,1.1-0.1c4.2-0.1,8.4-0.3,12.6-0.4c2.5-0.1,2.5,0,4.8,1c1.3,0.6,2.7,1,4,1.4c1.6,0.5,3.2,0.9,4.8,1.4
		c0.1,0,0.2,0,0.3,0c0-0.1,0-0.3-0.1-0.4c-0.6-0.5-1.2-1.1-1.9-1.6c-0.4-0.2-0.9-0.3-1.3-0.4c-1.9-0.4-3.7-0.8-5.6-1.3
		c-0.2,0-0.4-0.3-0.6-0.4c0.2-0.1,0.5-0.2,0.6-0.2c2.1,0.6,4.1-0.2,6.2-0.2c2.6,0,5.1-0.2,7.7-0.2c0.6,0,1.2,0.5,1.7,0.8
		c0.6,0.5,1.2,1,1.7,1.6c0.5,0.7,1.1,0.7,1.7,0.3c0.9-0.6,2-1.1,2.6-2.1c0.5-0.9,1.5-1.5,1.8-2.7c0-0.2,0.5-0.4,0.8-0.4
		c0.4,0,0.8,0.2,1.2,0.3c0.2,0,0.5,0,0.8,0C64,8.2,64,7.7,63.8,7.4c-0.1-0.2-0.5-0.1-0.8-0.2c-0.6-0.1-1.2-0.2-1.7-0.4
		c-1.7-0.5-1.7-0.6-1.6-2.3c0.1-0.9,0.1-1.9,0.2-2.8c0.1-0.8-0.2-1-1.1-0.9c-0.3,0-0.6,0.1-0.9,0.2c-1.4,0.6-2.9,1.1-4.2,1.9
		c-1.5,0.8-3,1.2-4.6,1c-1.7-0.1-3.3-0.2-5-0.3c-2.4-0.2-4.9-0.4-7.3-0.6c-0.2,0-0.4,0-0.5,0c-2.5-0.1-5-0.2-7.5-0.4
		C24,2.1,19.3,1.9,14.5,1.8c-2.7,0-5.3,0-8,0.4C5.6,2.3,4.6,2.2,3.7,2.2C2.9,2.2,2.1,2.5,1.6,3C1,3.6,0.5,4.1,0.7,5
		c0.1,0.2-0.1,0.4-0.2,0.7c0,0.1-0.1,0.2-0.2,0.3C0.2,5.8,0.1,5.7,0,5.6c-0.3-2.2,0.9-3.5,3-3.8C7.8,0.9,12.6,1,17.3,1.1
		c2.6,0,5.3,0.1,7.9,0.4c3,0.3,5.9,0.5,8.9,0.7c2.4,0.2,4.8,0.2,7.2,0.3c2.9,0.2,5.8,0.4,8.7,0.7c1.1,0.1,2.1-0.2,3.1-0.7
		c1.8-1,3.6-1.8,5.6-2.3C59.1,0.1,59.5,0,59.9,0c0.8,0,1.1,0.4,1,1.3c-0.2,1.5-0.4,2.9-0.5,4.4c0,0.1,0.3,0.4,0.4,0.4
		c1.3,0.5,2.7,1,4.1,0.2c1.1-0.7,2.3-0.5,3.4-0.9c0.2-0.1,0.5,0.1,0.6,0.2c0.1,0.1,0.1,0.4,0,0.6c-0.3,0.6-0.7,1.2-1,1.8
		c0.5,0.3,1.1,0.6,1.6,1c0.2,0.1,0.4,0.5,0.3,0.7c-0.1,0.2-0.4,0.5-0.6,0.5c-0.6,0.1-1.3,0.1-2,0c-1.4-0.3-2.8-0.6-4.1-1
		c-0.5-0.2-0.7,0-0.9,0.4c-1.2,1.9-2.7,3.5-4.6,4.6c-1,0.6-1.3,0.6-2.2-0.2c-0.2-0.2-0.3-0.3-0.5-0.5c-0.8-0.7-1.6-1.4-2.4-2.1
		c-1-0.8-1.9,0.1-2.9,0c-2.1-0.2-4.3,0-6.5,0c-0.2,0-0.5,0.2-0.7,0.3c0.2,0.1,0.5,0.2,0.7,0.3c0.2,0.1,0.4,0.2,0.7,0.2
		c1.9,0,2.9,1.6,4,2.7c0.3,0.3,0.1,0.8-0.4,0.7c-1-0.1-2-0.2-3-0.5c-2.5-0.8-4.9-1.7-7.4-2.5c-0.9-0.3-1.8-0.5-2.8-0.5
		c-1.8-0.1-3.6-0.2-5.4,0c-3.6,0.4-7.2,0.2-10.8,0.3c-0.9,0-1.8,0.2-2.7,0.3c-0.5,0.1-0.6,0.3-0.4,0.7c0.6,1,1.3,2,1.9,3
		c0.6,0.9,0.5,1.8,0,2.7c-0.2,0.4-0.6,0.4-0.9,0.1c-0.3-0.3-0.5-0.7-0.7-1c-0.5-1.5-1-3-1.4-4.5c-0.1-0.4-0.4-0.5-0.8-0.5
		c-1.6,0-3.1,0.1-4.7,0c-1.1-0.1-2.2-0.3-3.4-0.4c-0.5-0.1-0.9-0.2-1.4-0.3c-0.3-0.1-0.9-0.1-1-0.3c-0.2-0.7-0.8-0.4-1.1-0.4
		c-0.7-0.2-1-0.6-1.1-1.1c0-0.1,0.1-0.3,0.2-0.5c0,0,0.2,0,0.3,0.1c0.9,0.8,2.2,0.1,3.2,0.6c0.2,0.1,0.7-0.4,1-0.6
		C5.7,10,5.7,9.8,5.2,9.7C4.4,9.5,3.6,9.3,2.8,9c-0.4-0.1-0.7-0.4-1-0.6C1.5,7.9,0.9,7.6,1.2,6.8c0-0.4-0.1-0.7,0-1.1
		C1.2,4.5,1.7,4,2.8,3.9C4,3.9,4.6,4.3,4.8,5.5c0,0.1,0,0.2,0,0.4c-0.2,0.6,1,0.9,0.3,1.6C4.8,7.8,4.2,8,3.8,8.2
		C3.7,8.3,3.6,8.4,3.5,8.4c0.3,0.1,0.7,0.3,1,0.4C4.9,8.9,5.2,9,5.4,8.6c0.2-0.4,0.3-0.8,0.6-1C6.3,7.3,6.8,7.2,7,7.3
		c0.3,0.2,0.5,0.6,0.6,1c0.1,0.2-0.2,0.6-0.2,0.8c0,0.2,0.1,0.5,0.3,0.5c2.6,0.5,5.2,1,7.9,1.5C15.7,11.1,15.8,11.1,15.9,11.1
		c-0.4,1-1.2,0.4-1.9,0.5c-0.8,0.1-1.5,0-2.3,0c-0.1,0-0.2,0-0.4,0c0.1,0,0.1,0,0.2,0c1.4-0.1,2.9,0.3,4.4-0.2
		C16,11.4,16,11.2,15.9,11.1z"/>
	<path d="M52.5,41.9c-0.2,0-0.4-0.1-0.5-0.1c-0.4-0.1-0.4,0.1-0.3,0.4c0.1,0.2,0.2,0.4,0.3,0.6c0.2,0.4-0.1,0.6-0.4,0.5
		c-0.6-0.1-1.3-0.2-1.9-0.5c-1.3-0.7-2.6-0.9-4.1-0.9c-6.1,0.1-12.1,0-18.2,0.1c-2.1,0-4.2,0.5-6.2,0.2c-2.8-0.3-5.7,0-8.6-0.6
		c-0.4-0.1-1,0.1-1.4,0.3c-0.8,0.5-1.6,0.4-2.4,0c-0.3-0.1-0.5-0.3-0.8-0.3c-0.3,0-0.7,0.1-1,0.1c0.2,0.2,0.5,0.4,0.7,0.6
		c0.1,0.1,0.2,0.3,0.1,0.4c-0.1,0.1-0.3,0.3-0.4,0.2c-0.9-0.4-1.7-0.8-2.6-1.2c-0.7-0.4-1.4-0.9-2.1-1.3c-0.6-0.4-1.1-0.9-0.9-1.8
		c0.1-0.3,0.2-0.6,0.4-0.7c0.5-0.4,1-0.7,1.5-1c0.6-0.4,1.2-0.4,2-0.2c2.8,0.6,5.7,0.6,8.5,0.2c1.3-0.2,2.8,0,4.1-0.1
		c2.1-0.1,4.3-0.2,6.4-0.3c2.1-0.1,4.3-0.4,6.4-0.2c2.9,0.4,5.7-0.3,8.6,0.5c0.4,0.1,0.8,0,1.3,0c2.9,0.1,5.7,0.2,8.6,0.4
		c2.1,0.2,4.2,0.6,6.3,0.9c0.8,0.1,1.4-0.1,2-0.5c1.7-1,3.3-0.5,4.9,0.3c0.2,0.1,0.4,0.2,0.4,0.3c0.3,1.2,1.1,0.9,1.9,0.7
		c0.8-0.3,1.7-0.3,2.6-0.4c0.3,0,0.7,0,0.8,0.2c0.4,0.5,0.7,1.2,1.1,1.8c-0.4,0.3-0.9,0.5-1.3,0.8c-1.1,0.6-2.2-0.1-3.3-0.2
		c-0.5-0.1-0.8-0.2-1.2,0.3c-0.3,0.4-0.8,0.7-1.3,0.8c-1,0.3-2.1,0.7-3.1,0.7c-0.9,0-1.8-0.2-2.6-0.5c-1.2-0.5-2.2-1.1-3.6-0.5
		C53.2,42,52.8,41.9,52.5,41.9z"/>
	<path d="M1.2,6.8c0.2,0.5,0.4,1,0.6,1.5C1,8.4,0.7,7.9,0.4,7.2c-0.1-0.2,0-0.5,0-0.8C0.7,6.6,0.9,6.7,1.2,6.8z"/>
	<path d="M35.5,25.9c0.3,0.3,0.5,0.5,0.6,0.7c0,0.1-0.2,0.3-0.3,0.5c-0.2-0.2-0.4-0.3-0.6-0.5C35.1,26.5,35.3,26.3,35.5,25.9z"/>
	<path d="M39,26.5c-0.3,0.2-0.5,0.5-0.6,0.5c-0.2,0-0.3-0.3-0.5-0.5c0.2-0.1,0.3-0.4,0.5-0.4C38.6,26.1,38.8,26.3,39,26.5z"/>
	<path d="M30.3,27.2c-0.3,0.1-0.5,0.2-0.7,0.2c-0.1,0-0.3-0.2-0.3-0.3c0-0.2,0.2-0.3,0.3-0.5C29.7,26.7,29.9,26.8,30.3,27.2z"/>
	<path d="M31.8,26.9c-0.3,0.1-0.5,0.2-0.7,0.2c-0.1,0-0.2-0.2-0.3-0.3c0.2-0.1,0.3-0.3,0.5-0.3C31.4,26.5,31.6,26.7,31.8,26.9z"/>
	<path d="M32.8,27.4c-0.3-0.2-0.4-0.4-0.6-0.5c0.2-0.1,0.3-0.3,0.5-0.4c0.1,0,0.4,0.1,0.4,0.2C33.1,26.9,33,27.1,32.8,27.4z"/>
	<path d="M28.9,27.1c-0.3,0.2-0.4,0.4-0.5,0.4c-0.2,0-0.3-0.2-0.5-0.3c0.1-0.1,0.2-0.3,0.3-0.3C28.4,26.9,28.6,27,28.9,27.1z"/>
</g>
</svg>
