<?xml version="1.0" encoding="iso-8859-1"?>
<!-- Generator: Adobe Illustrator 25.3.0, SVG Export Plug-In . SVG Version: 6.00 Build 0)  -->
<svg version="1.1" id="Calque_1" xmlns="http://www.w3.org/2000/svg" xmlns:xlink="http://www.w3.org/1999/xlink" x="0px" y="0px"
	 viewBox="0 0 70 36.5" style="enable-background:new 0 0 70 36.5;" xml:space="preserve">
<g>
	<path d="M66.6,24.5c-2.6-0.1-4.6-0.5-6.6-1.3c-3-1.1-5.9-2.2-8.9-3.3c-0.3-0.1-0.7-0.2-0.9,0.3c-0.6,2-2.2,3.1-3.7,4.2
		c-2.5,1.8-5.1,3.5-7.6,5.2c-2.8,1.9-5.8,3.5-8,6.2c-0.7,0.9-1,0.9-1.9,0.1c-1-0.8-2-1.7-3-2.6c-0.7-0.7-1.5-1-2.5-1.2
		c-2.2-0.4-4.4-1-6.6-1.5c-1.7-0.4-3.5-0.7-5.2-1.3c-3.1-1.1-6.3-2.3-8.8-4.5c-0.8-0.7-1.6-1.3-2.3-2c-1-1-0.8-1.8,0.6-2.1
		c0.7-0.2,0.7-0.3,0.2-0.6c-0.5-0.3-0.5-0.6-0.4-1.2c0.5-1.8,1.6-3.1,3-4.2c3.3-2.4,6.9-4.3,10.6-5.8c1.1-0.5,2.2-0.9,3.2-1.5
		c0.6-0.3,1.1-0.8,1.4-1.3c1.2-1.6,2.3-3.3,3.5-5c0.1-0.2,0.2-0.4,0.4-0.6c0.6-0.7,1-0.7,1.7-0.1c0.7,0.7,1.3,1.4,1.8,2.2
		C28.1,4.7,30,6,32.5,6.4c5,0.9,9.7,2.8,14.1,5.4c1.2,0.7,2.4,1.4,3,2.7c0.1,0.2,0.5,0.5,0.7,0.4c1-0.3,2.1-0.4,3-1
		c2.1-1.3,4.3-2.6,6.5-3.7c2.1-1,4.3-1.6,6.7-1.7c0.3,0,0.5,0.2,0.8,0.3c-0.1,0.2-0.3,0.4-0.4,0.5c-2,1.2-3.5,3-5.2,4.6
		c-0.7,0.6-1.4,1.2-2,1.7c-1,0.9-1.1,1.7,0,2.5c1.2,0.9,2.5,1.6,3.8,2.4c1.1,0.6,2.2,1.2,3.2,1.9c0.8,0.5,1.7,0.8,2.7,0.9
		c0.2,0,0.4,0.2,0.5,0.4c-0.2,0.1-0.3,0.4-0.5,0.4C68.4,24.2,67.3,24.4,66.6,24.5z"/>
	<path d="M2.4,18.3c0.9-0.2,1.7-0.5,2.6-0.7c0.5-0.1,1-0.3,1.5-0.4c1.3-0.1,2.3,0.9,2.4,2.1c0.1,1-0.9,2.1-2,2.2
		c-1.1,0.2-2.1-0.7-2.4-1.9c-0.2-0.9-0.2-0.9-1.2-0.7C2.7,19,2.4,18.9,2.4,18.3L2.4,18.3z"/>
	<path d="M36.2,13.3c-1.5,0-3,0.2-4.4-0.3c-0.1,0-0.1,0-0.2,0c-2.1-0.1-4.3-0.3-6.4-0.3c-3.2,0-6.4,0.3-9.4,1.6
		c-0.3,0.1-0.9,0.8-1.4,0.1c0.4-0.2,0.8-0.5,1.2-0.7c3-1.2,6.2-1.7,9.4-1.5c1.3,0.1,2.5,0.1,3.8,0c1.7-0.1,3.4,0.2,5.1,0.6
		c0.5,0.1,1,0,1.4,0.1C35.6,13,35.9,13.1,36.2,13.3L36.2,13.3z"/>
	<path d="M36.2,13.3c2.3,0.3,4.7,0.2,6.8,1.4l0,0c-0.9-0.1-1.9-0.2-2.8-0.4c-1.2-0.2-2.3-0.4-3.5-0.7C36.5,13.6,36.4,13.4,36.2,13.3
		L36.2,13.3z"/>
</g>
</svg>
