<?xml version="1.0" encoding="iso-8859-1"?>
<!-- Generator: Adobe Illustrator 25.3.0, SVG Export Plug-In . SVG Version: 6.00 Build 0)  -->
<svg version="1.1" id="Calque_1" xmlns="http://www.w3.org/2000/svg" xmlns:xlink="http://www.w3.org/1999/xlink" x="0px" y="0px"
	 viewBox="0 0 76.3 36.2" style="enable-background:new 0 0 76.3 36.2;" xml:space="preserve">
<g>
	<path d="M21.5,6.5c-0.8,0.6-1.7,1.2-2.4,1.8c-2.3,2-4.7,4.1-7,6.1c-0.2,0.1-0.2,0.4-0.3,0.6c0.2,0,0.5,0.1,0.6,0
		c1.4-0.6,2.8-0.8,4.3-0.9c2.4,0,4.8,0.1,7.1,0.7c0.1,0,0.2,0,0.4,0c2.6,0.1,5.1,0.2,7.7,0.4c2.8,0.1,5.6,0.2,8.4,0.4
		c1.6,0.1,3.2,0.2,4.8,0.3c1.1,0.1,2.3,0.2,3.4,0.4c1.7,0.3,3.5,0.7,5.2,1c1.9,0.3,3.9,0.5,5.8,0.8c0.8,0.1,1.5,0.2,2.3,0.4
		c0.2,0,0.4,0.1,0.5,0.2c0.5,1.4,1.7,0.8,2.6,0.7c1.4-0.1,2.8-0.6,4.2-0.8c0.5-0.1,0.9-0.1,1.4-0.2c2-0.1,2.2,0.1,1.3,1.9
		c-0.3,0.6,0.1,0.8,0.4,0.9c0.9,0.3,1.8,0.7,2.5,1.4c1.9,1.9,2.1,5,0.2,7c-0.6,0.7-1.4,1.3-2.2,1.8c-3.1,1.8-6.5,2.9-10,3.6
		c-1.7,0.4-3.5,0.8-5.2,1c-2,0.2-4.1,0.3-6-0.3c-3.6-1.1-7.2-2.2-10.4-4.2c-1.3-0.8-2.7-1.3-4-2c-0.3-0.1-0.6-0.2-0.8-0.4
		c-0.2-0.2-0.2-0.5-0.3-0.7c0.2,0,0.5-0.1,0.6,0c1.3,0.5,2.6,1,3.8,1.5c3.5,1.6,7.2,2.8,10.9,3.9c1.9,0.6,3.8,0.8,6,0.5
		c2.7-0.4,5.4-0.6,8.1-1.2c1.8-0.4,3.6-0.9,5.3-1.5c2.3-0.9,4.1-2.4,4.7-5c0.4-1.8-0.7-3.7-2.5-3.9c-0.8-0.1-1.8,0.1-2.6,0.3
		c-2.2,0.5-4.4,0.3-6.5-0.4c-0.9-0.3-1.9-0.4-2.8-0.4c-2.9,0-5.9,0-8.8,0c-2,0-3.9,0.2-5.9,0.3c-0.5,0-0.5,0.2-0.2,0.5
		c0.2,0.3,0.5,0.7,0.6,1.1c0.2,0.6,0.1,1.2-0.5,1.6c-0.7,0.4-1.4,1-2.2,1.1c-3.2,0.4-6.3-0.3-8.6-2.5c-1.2-1.1-2.3-1.1-3.6-0.9
		c-1.9,0.4-3.9,0.6-5.8,0.6c-2.9,0-5.8,0-8.6,0c-0.5,0-1,0-1.4,0.1c-0.2,0-0.4,0.2-0.6,0.3c0.2,0.2,0.3,0.3,0.5,0.5
		c0.1,0.2,0.2,0.4,0.3,0.6c-0.2,0-0.5,0.1-0.6-0.1c-0.6-0.6-1.2-0.5-2-0.5c-1.2,0.1-2.4-0.2-3.5-0.4C8,24.1,6.3,23.9,4.6,24
		c-1,0.1-2,0.2-3,0.4c-0.5,0.1-0.8,0.3-1.3-0.1c-0.5-0.4-0.2-0.8-0.2-1.3c0-0.7,0.4-1,0.9-1.4c0.7-0.5,1.4-1.1,1.9-1.9
		c1.2-1.8,3-2.9,5.1-3.4c0.8-0.2,1.4-0.5,1.9-1.2c1.6-2.1,3.2-4.1,5.2-5.9c2.7-2.5,5.6-4.8,8.9-6.5c1.7-0.9,3.4-1.7,5.1-2.6
		C29.2,0.2,29.4,0,29.7,0c0.2,0,0.4,0.1,0.7,0.1c-0.2,0.1-0.3,0.3-0.5,0.4c-0.7,0.4-1.4,0.7-2.1,1c-4,1.8-7.6,4.2-11,7
		c-1.1,0.9-2,1.9-2.9,2.9c-0.1,0.1-0.1,0.3-0.2,0.4c0.1-0.1,0.3-0.1,0.4-0.2c1-0.9,2-1.9,3.1-2.7c1.3-1,2.5-2.2,4.2-2.7
		c0.1,0,0.2-0.1,0.3-0.1C21.6,6.3,21.6,6.4,21.5,6.5z"/>
	<path d="M21.3,6.3c1.4-1.3,3.1-1.9,4.8-2.6c1.3-0.5,2.6-1.1,4-1.5C33,1.4,36,0.8,38.9,0.1c0.1,0,0.3,0.1,0.4,0.2
		c-0.1,0.2-0.2,0.4-0.4,0.5c-2.4,0.6-4.8,1.3-7.2,1.7c-1.7,0.3-3.3,1-4.9,1.7c-1.8,0.8-3.6,1.6-5.4,2.4C21.5,6.5,21.4,6.4,21.3,6.3z
		"/>
	<path d="M4.2,19.5c0.3,0,0.7-0.1,1-0.1c0.9-0.2,1.5,0.2,1.7,1c0.2,0.6-0.3,1.2-1.2,1.4c-0.3,0.1-0.6,0.1-0.9,0.1
		c-0.8-0.1-1.1-0.3-1.2-1.2c0-0.2,0-0.5,0-0.7C3.9,19.9,4,19.7,4.2,19.5z"/>
	<path d="M12.4,21c0.5-1.3,1.7-1.7,2.9-2.1c0.6-0.2,1.6,0.4,1.8,0.9c0.2,0.5-0.2,1.2-0.9,1.6c-0.7,0.4-1.5,0.8-2.4,0.6
		c-0.1,0-0.3-0.2-0.3-0.2c0-0.2,0.1-0.4,0.2-0.4c0.4-0.1,0.9,0,1.2-0.2c0.4-0.2,0.9-0.5,1.2-0.9c0.2-0.2-0.8-0.5-1.6-0.3
		c-0.4,0.1-0.8,0.4-1.3,0.6C13.1,20.9,12.8,20.9,12.4,21L12.4,21z"/>
</g>
</svg>
