<?xml version="1.0" encoding="iso-8859-1"?>
<!-- Generator: Adobe Illustrator 25.3.0, SVG Export Plug-In . SVG Version: 6.00 Build 0)  -->
<svg version="1.1" id="Calque_1" xmlns="http://www.w3.org/2000/svg" xmlns:xlink="http://www.w3.org/1999/xlink" x="0px" y="0px"
	 viewBox="0 0 69.3 36.7" style="enable-background:new 0 0 69.3 36.7;" xml:space="preserve">
<g>
	<path d="M47.5,10.5c1.4,0,2.8,0.1,4.2,0c1-0.1,2-0.7,3-0.9c2.1-0.5,4.2-1.1,6.4-1.5c2.3-0.4,4.6-0.7,6.8-1.3c0.1,0,0.1,0,0.2,0
		C68.6,6.9,69,7,69.3,7.1c-0.2,0.3-0.4,0.7-0.7,0.9c-2.4,1.9-5.2,3.3-8,4.6c-0.1,0-0.1,0-0.2,0c-0.7,0.4-1.3,0.8-1.9,1.1
		c0.5,0.9,1.4,0.5,2.1,0.7c2.7,0.8,5,2.2,7,4.1c0.4,0.3,0.8,0.6,1.3,0.9c0.2,0.1,0.3,0.3,0.5,0.4c-0.2,0.2-0.4,0.5-0.7,0.5
		c-0.6,0-1.3-0.2-1.9-0.3c-3.1-0.7-6.3-1.2-9.3-2.2c-3-0.9-5.9-0.6-8.9-0.7c-1,0-2,0.2-3,0.3c-0.7,0.1-0.9,0.5-0.8,1.1
		c0.3,2-0.9,3.2-2.2,4.4c-0.2,0.2-0.5,0.5-0.7,0.5c-1.2-0.2-2.4,0.4-3.7,0.3c-1.9-0.1-3.1-1.2-4.7-1.9c-1-0.4-1.9-1-3.1-0.8
		c-0.9,0.2-1.8,0.3-2.6,0.3c-1.4,0.1-2.8,0.2-4.3,0.4c-0.7,0.1-0.9,0.4-0.4,0.9c0.5,0.6,1.2,1,1.9,1.5c0.8,0.5,0.8,0.5,0.3,1.1
		c-0.6,0.8-1.2,1.6-1.8,2.4c-0.8,1.2-0.7,3.5,0.3,4.8c0.9,1.2,1.8,2.3,2.7,3.5c0.1,0.1,0,0.4,0,0.6c-0.2,0-0.5,0-0.6-0.1
		c-0.3-0.3-0.6-0.7-0.8-1.1c-1-1.4-2.2-2.8-3.4-4.1c-1.1-1.3-1.8-2.9-2.6-4.4c-0.4-0.7-0.7-1.4-1.1-2c-0.3-0.4-0.4-0.7-0.4-1.3
		c0-0.6-0.4-1.2-0.8-1.8c-0.2-0.3-0.6-0.6-1-0.6c-1.2-0.2-2.5-0.2-3.7-0.3c-0.6-0.1-1.2-0.3-1.8-0.4c-1.9-0.4-3.7-0.8-5.4-1.7
		c-1.5-0.8-2.8-1.8-3.9-3c-0.5-0.6-1.3-1.2-0.2-2.1c0.2-0.2,0-0.7,0.2-1c0.1-0.3,0.4-0.7,0.6-0.8c1.6-0.2,2.7-1.4,4.2-1.8
		c3.3-0.9,6.5-2.2,10-2.2c1,0,1.9-0.3,2.6-1.3c0.3-0.6,0.7-1.5,1.8-1.3c0.4-0.6,0.9-1.1,1.3-1.7c0.3-0.4,0.5-0.8,1.1-0.5
		c0.1,0.1,0.4-0.3,0.6-0.5c0.6-0.7,1.1-1.5,1.8-2.2c0.3-0.4,0.7-0.5,0.7,0.3c0,0.3,0.4,0.4,0.8,0.5c1.9,0.5,3.8,1.2,5.4,2.6
		c0.5,0.5,1,0.9,1.6,1.3c0.2,0.1,0.6,0.1,0.8,0c1.8-1.3,3.6-0.6,5.4-0.1c1.8,0.5,3.2,1.6,4.7,2.5c0.8,0.5,0.8,0.7,0.2,1.4
		c-0.5,0.4-1,0.8-1.5,1.2c0.7,0.1,1.3,0.2,2,0.3c0.3,0,0.6,0.2,0.9,0.2c0.7,0,1.3,0,2,0C47.5,10.6,47.5,10.6,47.5,10.5z"/>
</g>
</svg>
