<?xml version="1.0" encoding="iso-8859-1"?>
<!-- Generator: Adobe Illustrator 25.3.0, SVG Export Plug-In . SVG Version: 6.00 Build 0)  -->
<svg version="1.1" id="Calque_1" xmlns="http://www.w3.org/2000/svg" xmlns:xlink="http://www.w3.org/1999/xlink" x="0px" y="0px"
	 viewBox="0 0 84.2 39.1" style="enable-background:new 0 0 84.2 39.1;" xml:space="preserve">
<g>
	<path d="M48.1,0c2.9,0,5.8,0.2,8.7,0.8c3.7,0.7,6.7,2.4,9.4,4.8c0.9,0.8,1.8,1.8,2.7,2.6c3.9,3.7,4.2,9.5,1.4,13.7
		c-1.1,1.7-2.6,3.2-4,4.8c-1.2,1.3-2.9,1.8-4.6,2.4c-2.9,1-5.9,1.3-9,1.2c-0.8,0-1.7,0-2.5,0c-1.8-0.2-3.5-0.4-5.3-0.6
		c-1.2-0.1-2.4-0.3-3.5-0.5c-3.1-0.5-6.2-1-9.3-1.4c-2.4-0.3-4.8-0.3-7.1-0.4c-5.2-0.3-10.2,0.6-15.2,1.9c-1.5,0.4-3,0.7-4.6,0.6
		c-1.5-0.1-2.2-1.3-1.3-2.6c0.4-0.5,0.8-1,1.4-1.4c1.5-1.1,3-2.2,4.8-2.7c0.9-0.2,1.7-0.6,2.5-0.9c3-1.2,6.1-2.1,9.3-2.4
		c3.9-0.4,7.9-1,11.8-0.2c0.5,0.1,1,0,1.4,0c2.4,0,4.7,0.3,7.1,0.7c2.8,0.4,5.7,0.5,8.5,0.8c3.2,0.4,6.3,0.4,9.5,0.3
		c2.5-0.1,4.8-0.9,6.6-2.8c1.3-1.4,1.3-4.1,0-5.5c-1.4-1.4-3.1-2-4.9-2.3c-2.9-0.6-5.9-1-8.8-1.1c-1.8-0.1-3.6-0.2-5.4-0.3
		c-0.3,0-0.7,0.1-0.9-0.1c-1-0.9-2.3-0.6-3.4-0.6c-0.8,0-1.7,0-2.5,0c-3.1,0.1-6.2,0.1-9.3,0.4c-2.3,0.3-4.7,0.2-7,0.3
		c-3.9,0.1-7.8,0.3-11.7,0.3c-2.5,0-5-0.4-7.5-0.6c-1.1-0.1-2.3,0-3.4,0C1.3,9.1,0.3,9.3,0.6,8c0-0.1-0.2-0.2-0.3-0.3
		c-0.5-0.5-0.3-1,0.2-1.3c0.3-0.2,0.8-0.5,1.2-0.4c2,0.1,3.8-1.1,5.7-1.2c1.4-0.1,2.7-0.4,4-0.6c1.1-0.1,2.1-0.4,3.2-0.3
		c2.3,0.1,4.5-0.5,6.7-0.9c3.9-0.8,7.8-1.6,11.8-1.6c1.7,0,3.4-0.4,5.1-0.6c0.2,0,0.4-0.1,0.5-0.1C41.9,0.3,45,0.2,48.1,0z"/>
	<path d="M34.2,33.7c4.4-0.1,8.8-0.3,13.3-0.3c2.2,0,4.4,0.4,6.6,0.6c1.4,0.1,2.8,0,4.1,0.1c2.9,0.1,5.8,0,8.6,0.4
		c5,0.7,10,0.6,15,0.7c0.8,0,1.8-0.4,2.4,0.6c-0.5,0.8-1.4,0.8-2.2,1c-3.8,1.1-7.6,1.9-11.5,2.1c-2.2,0.1-4.4-0.2-6.6-0.1
		c-2.2,0.1-4.4,0-6.7,0c-2.4,0.1-4.8,0.5-7.1,0.3c-3.5-0.3-7.1-0.2-10.6-0.3c-1.1,0-2.1-0.2-3.2-0.4c-3.3-0.5-6.5-0.4-9.8-0.1
		c-2.4,0.2-4.9,0.1-7.4,0.1c-0.6,0-1-0.3-1.1-0.9c-0.1-0.5-0.1-1.1,0.5-1.3c0.6-0.2,1.1-0.5,1.7-0.6c3-0.6,6-1.3,9.1-1.7
		C30.9,33.5,32.6,33.7,34.2,33.7C34.2,33.7,34.2,33.7,34.2,33.7z"/>
	<path d="M17.3,6.5C17.5,6.6,17.9,6.7,18,7c0.1,0.3-0.1,0.7-0.4,0.9c-0.3,0.2-0.8,0.5-1.1,0.4c-0.4-0.1-0.6-0.6-0.9-1
		c0.3-0.2,0.5-0.5,0.8-0.6C16.6,6.6,16.9,6.6,17.3,6.5z"/>
	<path d="M29.4,35.5c1.4,0,2.2,0.4,1.9,0.7c-0.4,0.4-0.9,0.6-1.5,0.8c-0.4,0.1-1,0.1-1.4,0c-0.3-0.1-0.5-0.4-0.8-0.7
		c0.2-0.2,0.4-0.5,0.7-0.6C28.7,35.5,29.2,35.5,29.4,35.5z"/>
</g>
</svg>
