<?xml version="1.0" encoding="iso-8859-1"?>
<!-- Generator: Adobe Illustrator 25.3.0, SVG Export Plug-In . SVG Version: 6.00 Build 0)  -->
<svg version="1.1" id="Calque_1" xmlns="http://www.w3.org/2000/svg" xmlns:xlink="http://www.w3.org/1999/xlink" x="0px" y="0px"
	 viewBox="0 0 85.4 49.7" style="enable-background:new 0 0 85.4 49.7;" xml:space="preserve">
<g>
	<path d="M33.1,33.1c-0.4-2.2-0.4-2.1,1.7-2.7c1-0.3,2.1-0.4,3.1-0.3c0.7,0.1,1.2,0,1.7-0.7c0.8-1.2,1.7-1.4,3.1-0.7
		c0.5,0.2,0.7,0.2,1.1-0.1c0.5-0.4,1.2-0.5,1.8-0.8c0.2-0.1,0.4-0.3,0.4-0.5c0-0.2-0.2-0.5-0.4-0.5c-0.7,0.1-1.5-0.9-2.2,0
		c-0.1,0.1-0.5,0-0.8,0c-0.3,0-0.7-0.2-0.8-0.1c-0.7,0.8-1.2,0.3-1.8-0.1c-0.1-0.1-0.4-0.2-0.4-0.1c-0.8,1.9-1.4,0-2.1-0.1
		c-0.1,0-0.3,0.1-0.4,0.1c-0.4,0.6-0.6,0.7-1,0.4c-0.3-0.2-0.6-0.4-0.8-0.7c-0.4-0.3-0.7-0.6-0.7,0.2c-0.3,0-0.8,0-1-0.1
		c-1.1-0.9-2.1-1.9-3.5-2.4c-0.2-0.1-0.4-0.3-0.5-0.5c-0.3-0.7-0.8-0.7-1.5-0.7c-1.3,0-1.4,0.1-1.3,1.4c0,0.3,0.1,0.6,0,0.8
		c-0.1,0.3-0.4,0.5,0.1,0.6c0.4,0.1,0.8,0.3,1.2,0.4c0.1,0.1,0.2,0.3,0.3,0.4c0,0-0.2,0.2-0.2,0.2c-1.6-0.1-2.5,1.2-3.7,1.8
		c-0.5,0.3-0.9,0.4-1.5,0.2c-0.6-0.3-1.3-0.3-1.8,0.2c-0.6,0.6-1.1,0.3-1.6-0.1c-0.2-0.2-0.4-0.5-0.7-0.6c-0.4-0.2-1-0.7-1.3-0.5
		c-1.4,0.9-1.6-0.4-1.9-1.1c-0.4-1-0.8-2.1-1-3.2c-0.1-0.7-0.4-0.9-1-1c-0.5-0.1-1.1-0.2-1.6-0.2c-1.9-0.1-3.8,0.2-5.7-0.3
		c-0.8-0.2-0.9,0-0.6,0.8c0,0.1,0.2,0.2,0.2,0.3c0,0.3,0,0.6,0,0.8c-0.2-0.1-0.5-0.2-0.7-0.4c-0.4-0.5-0.8-1-1.2-1.5
		c-0.4-0.5-0.9-0.5-1.4,0c-0.2,0.2-0.4,0.4-0.6,0.6c-0.2,0.2-0.5,0.5-0.7,0.7c0-0.3-0.1-0.7,0-1c0.4-0.7,0-1.1-0.6-1.4
		c-0.2-0.1-0.5-0.2-0.6-0.4c-0.2-0.3-0.3-0.7-0.2-1c0.1-0.3,0.5-0.5,0.8-0.6c0.2-0.1,0.6,0.2,0.8,0.2c0.1,0,0.3,0,0.3-0.1
		c0.1-0.1,0-0.2,0-0.3c0-0.1-0.1-0.1-0.1-0.2c-1-1.5-1-1.5,0.2-2.7c0.4-0.4,0.8-0.8,1.1-1.1c0.2-0.2,0.4-0.3,0.6-0.4
		c0.9-0.4,1.4-0.7,1.5-1.4c0.2-1.6,1.7-2,2.6-3c0.9,0.1,1.6-0.9,2.5-0.4C10.5,9.3,10.9,9.2,11,9c0.8-1.1,1.4-2.1,0.8-3.6
		c-0.5-1.3-0.9-2.7-0.7-4.2c0-0.3,0.1-0.5,0.6-0.4c0.8,0.2,1.4,0.5,1.7,1.4c0.1,0.5,0.3,0.9,0.5,1.3c0.2,0.4,0.5,0.8,0.9,0.6
		c0.3-0.1,0.7-0.5,0.8-0.8c0.2-0.6,0.3-1.3,0.5-1.9C16.3,1.2,16.7,1,17,0.7c0.2,0.2,0.5,0.5,0.7,0.7c0,0,0,0.1,0,0.2
		c0.3,0.5,0.5,0.9,0.8,1.4c0.3-0.4,0.5-0.9,0.8-1.3c0-0.1,0.1-0.1,0.1-0.2c1.1-2,1.2-2.2,2.5-0.2C22.3,2,22.3,2,23,1.3
		c0.2-0.2,0.3-0.4,0.5-0.5c0.8-0.9,0.8-0.9,1.4,0.1c0.4,0.6,0.5,0.4,0.8,0c0.7-0.9,0.8-0.9,1.7,0c0.5,0.5,0.8,0.2,1.2-0.1
		c1-0.8,1-0.8,1.8,0.1c0.7,0.7,0.7,0.8,1.5,0.1c0.5-0.4,0.9-0.5,1.1,0.1c0.4,0.9,1.1,0,1.5,0.3c0.4,0.3,0.9,1,1.2,1
		c1-0.4,1.7,0.1,2.5,0.5c1.2-0.6,2.2,0.8,3.4,0.2c0.1,0,0.3,0.2,0.5,0.4c0.1,0.1,0.3,0.3,0.3,0.3c0.9-0.6,1.3,0.5,2.1,0.5
		c0.6,0.1,1.1,0.6,1.7,0.9c0.3,0.1,0.7,0.1,1,0.3c0.4,0.3,1.2,0.2,0.9,1.1c0,0,0.2,0.2,0.3,0.2c0.8-0.5,0.7,0.2,1.1,0.6
		c0.8,0.8,1,1.7,0.9,2.7c-0.1,0.9,0.1,2-0.8,2.7c-0.2,0.2-0.3,0.5-0.4,0.8c0,0.1,0,0.2,0,0.3c0.1,0.1,0.2,0.1,0.3,0.1
		c1.2-0.5,2.4-1,3.5-1.6c0.9-0.5,1.7-1.1,2.8-0.5c0.4,0.2,1-0.2,1.5-0.2c0.6-0.1,1.2-0.2,1.2,0.8c0,0.4,0.4,0.7,0.5,1.1
		c1.1,2.4,0.5,4.8-0.1,7.2c-0.3,1.2-0.8,1.3-2.1,1.4c-2.2,0.1-4.2-0.5-6.1-1.5c-0.4-0.2-0.8-0.5-1.3-0.6c-0.2-0.1-0.6,0-0.8,0.2
		c-0.1,0.1,0,0.5,0.1,0.7c0.4,0.6-0.1,1.5,0.7,2.1c0.3,0.2,0.4,0.5,0.7-0.1c0.5-0.9,1-1.1,1.5-0.5c0.5,0.7,0.9,0.8,1.5,0.2
		c0.1-0.1,0.5,0,0.6,0.1c0.3,1,0.8,0.6,1.3,0.2c0.3-0.2,0.8-0.2,0.9,0.3c0.2,0.7,0.6,0.4,1,0.4c0.9,0.1,1.9,0.2,2.7,0.6
		c0.2,0.1,0.5,0.1,0.7,0.1c0.2,0.1,0.6,0.1,0.7,0.3c0.3,0.4,0.5,0.7,0.9,0.2c0.1-0.1,0.3-0.2,0.3-0.2c0.8,0.6,1.9,0.1,2.7,0.6
		c0.3,0.2,0.6,0.5,0.9,0.3c0.4-0.2,0.7,0,0.9,0.3c0.1,0.1,0.3,0.3,0.3,0.3c0.8-0.9,1.4,0.2,2.1,0.2c0.8,0,1.6,0.2,2.4,0.1
		c1.8-0.2,3.4,0.5,4.8,1.5c0.8,0.6,0.7,1.8,0,2.8c-0.3,0.4-0.5,0.8-0.7,1.1c0.5-0.1,1-0.3,1.4-0.4c1.3-0.4,2.4-1.2,3.9-1.2
		c1.7-0.1,2.9,0.7,3.8,2c1.2,1.7,1.3,4.9,0,6.6c-1.2,1.6-2.3,2-4.6,1.5c-1.4-0.4-2.8-1-4.2-1.5c-0.2-0.1-0.5,0-0.7,0
		c0.1,0.1,0.2,0.3,0.3,0.4c0.8,0.7,1.1,1.4,0.8,2.5c-0.3,1.2-1.1,1.9-1.9,2.6c-0.4,0.3-0.9,0.6-1.4,0.8c-0.2,0.1-0.5,0.1-0.8,0.1
		c-0.5,0-1.1,0-1.6,0.1c-0.5,0.2-0.9,0.2-1.3-0.2c-0.2-0.1-0.4-0.3-0.6-0.3c-2.1-0.2-2.6-0.5-3.7-2c-0.1-0.2-0.2-0.6-0.6-0.3
		c-2.1,1.7-4.7,2.3-7.2,2.8c-0.7,0.2-0.9,0.4-0.9,1c0.1,0.7-0.2,1.2-0.9,1.6c-0.9,0.4-1.7,1.1-2.6,1.4c-0.8,0.3-1.8,0.3-2.7,0.3
		c-0.9,0-1.8-0.3-2.7-0.3c-2,0.1-3.2-1.1-4-2.5c-0.7-1.3-1.8-1.8-2.9-2.1c-1.3-0.3-2.3-0.8-3.4-1.6c-0.2-0.2-0.5-0.4-0.7-0.5
		c-1.3-0.2-1.9-1.3-2.4-2.3c-0.7-1.3-1.2-2.7-1.7-4.1C31.6,34.8,31.9,34,33.1,33.1L33.1,33.1L33.1,33.1z"/>
	<path d="M37.1,13.7c-1.3-0.3-2.6-0.7-4-1c0-0.2,0-0.3,0-0.5C34.5,12.6,35.9,12.7,37.1,13.7z"/>
	<path d="M44.7,29.9c0,0.2,0.1,0.6,0.1,0.6c-0.4,0.1-0.7,0.1-1.1,0.2c0-0.2-0.1-0.3,0-0.5c0.1-0.2,0.2-0.4,0.3-0.6
		C44.4,29.1,44.5,29.7,44.7,29.9z"/>
	<path d="M44.1,35.8c0-0.1-0.2-0.2-0.1-0.3c0.2-0.7,0.5-1.3,0.7-2c0-0.1,0.1-0.1,0.2-0.1c0,0,0.1,0.1,0.1,0.1
		c-0.2,0.7-0.5,1.4-0.8,2.1C44.2,35.7,44.1,35.8,44.1,35.8z"/>
	<path d="M22.6,8.3c-1.4-0.3-2.9-0.2-4.3,0c-0.1,0-0.3-0.1-0.5-0.2C18,8,18.2,7.9,18.3,7.9C19.8,7.3,21.3,7.3,22.6,8.3L22.6,8.3z"/>
	<path d="M42.8,15.5c-1.3,0-2.6-0.2-3.6-1.1C40.5,14.6,41.7,14.7,42.8,15.5z"/>
	<path d="M46.8,16.2c-1.4,0.1-2.7-0.1-4-0.7C44.2,15.5,45.6,15.4,46.8,16.2z"/>
	<path d="M39.2,14.4c-0.8,0-1.6,0-2.2-0.7C37.9,13.6,38.7,13.7,39.2,14.4z"/>
	<path d="M57.4,26c0.1,0.3,0.4,0.5,0.5,0.9c0,0.2-0.2,0.5-0.4,0.7c0,0.1-0.3,0.1-0.3,0c-0.1-0.3-0.3-0.6-0.3-0.9
		c0-0.2,0.1-0.4,0.2-0.6C57.1,26,57.2,26,57.4,26z"/>
	<path d="M55.4,25.5c0,0.1,0,0.2,0,0.4c-0.1,0.4,0.6,0.9-0.1,1.3c-0.1,0-0.3-0.1-0.3-0.1c0-0.4,0.1-0.9,0.1-1.3
		C55.2,25.7,55.3,25.6,55.4,25.5L55.4,25.5z"/>
</g>
</svg>
