<?xml version="1.0" encoding="iso-8859-1"?>
<!-- Generator: Adobe Illustrator 25.3.0, SVG Export Plug-In . SVG Version: 6.00 Build 0)  -->
<svg version="1.1" id="Calque_1" xmlns="http://www.w3.org/2000/svg" xmlns:xlink="http://www.w3.org/1999/xlink" x="0px" y="0px"
	 viewBox="0 0 70.7 30.1" style="enable-background:new 0 0 70.7 30.1;" xml:space="preserve">
<g>
	<path d="M41.2,29.6c-2.1,0.2-4.2,0.3-6.2,0.4c-0.9,0-1.9-0.1-2.9-0.2c-0.5,0-1.1-0.1-1.6-0.1c-2.3,0-4.6,0-6.8,0
		c-3.6-0.1-7.2-0.2-10.8-0.4c-1.5-0.1-3.1-0.2-4.6-0.3c-0.7,0-1.6-0.1-1.6-0.8c0-0.7,0.9-0.8,1.6-0.8c2.6,0,5.3,0.1,7.9,0
		c2.4-0.1,4.7-0.4,7.1-0.6c0.4,0,0.8-0.1,1.3-0.1c2.8,0,5.6-0.5,8.3-1c1.9-0.3,3.9-0.4,5.9-0.5c2.3,0,4.5-0.2,6.7-0.7
		c1.9-0.4,3.9-0.5,5.8-0.8c3.4-0.6,6.8-0.9,10.1-2.1c0.5-0.2,1-0.4,1.5-0.6c1.2-0.5,2.4-1.1,2.7-2.4c0.3-1.7,0.1-3.4-1.2-4.8
		c-1.5-1.6-3.1-2.9-5-4c-3-1.7-6.2-2.7-9.6-3.1c-2.2-0.3-4.5-0.7-6.7-0.7c-3,0-5.9,0.4-8.9,0.6c-2,0.1-4,0.3-6.1,0.4
		c-2.4,0.2-4.7,0.4-7.1,0.6c-0.1,0-0.2,0-0.4,0c-2.5,0.1-5,0.3-7.5,0.4c-2.2,0.1-4.4,0.4-6.6,0.3c-2,0-3.9-0.4-5.7-1.3
		C-0.1,7-0.2,6.6,0.4,6c0.7-0.7,1.5-1.3,2.3-1.9c0.7-0.5,1.5-0.9,2-1.4c1-1,2.1-1.3,3.4-1.2c2.4,0.1,4.9-0.2,7.3-0.6
		c0.6-0.1,1.2,0,1.8-0.1c4.2-0.3,8.4-0.1,12.5-0.4c4.4-0.3,8.7-0.4,13.1-0.2c4.8,0.2,9.6,0.6,14.2,2.4C60.7,4,64.2,5.8,67,8.7
		c1.8,1.9,2.8,4.2,3.4,6.7c0.1,0.5,0.2,1,0.3,1.6c0.4,2.8-0.6,5.1-2.5,7.1c-2.6,2.5-5.8,3.7-9.3,4.3c-2.2,0.4-4.5,0.5-6.7,0.7
		c-1.9,0.2-3.9,0.5-5.8,0.6C44.6,29.8,42.9,29.7,41.2,29.6C41.2,29.7,41.2,29.7,41.2,29.6z"/>
</g>
</svg>
