<?xml version="1.0" encoding="UTF-8" standalone="no"?>
<svg
   xmlns:dc="http://purl.org/dc/elements/1.1/"
   xmlns:cc="http://creativecommons.org/ns#"
   xmlns:rdf="http://www.w3.org/1999/02/22-rdf-syntax-ns#"
   xmlns:svg="http://www.w3.org/2000/svg"
   xmlns="http://www.w3.org/2000/svg"
   xmlns:sodipodi="http://sodipodi.sourceforge.net/DTD/sodipodi-0.dtd"
   xmlns:inkscape="http://www.inkscape.org/namespaces/inkscape"
   version="1.1"
   id="Calque_1"
   x="0px"
   y="0px"
   viewBox="0 0 61.7 61.4"
   style="enable-background:new 0 0 61.7 61.4;"
   xml:space="preserve"
   sodipodi:docname="Syngnathidae.svg"
   inkscape:version="1.0.2-2 (e86c870879, 2021-01-15)"><metadata
   id="metadata15"><rdf:RDF><cc:Work
       rdf:about=""><dc:format>image/svg+xml</dc:format><dc:type
         rdf:resource="http://purl.org/dc/dcmitype/StillImage" /></cc:Work></rdf:RDF></metadata><defs
   id="defs13" /><sodipodi:namedview
   pagecolor="#ffffff"
   bordercolor="#666666"
   borderopacity="1"
   objecttolerance="10"
   gridtolerance="10"
   guidetolerance="10"
   inkscape:pageopacity="0"
   inkscape:pageshadow="2"
   inkscape:window-width="1920"
   inkscape:window-height="991"
   id="namedview11"
   showgrid="false"
   inkscape:zoom="9.4434454"
   inkscape:cx="26.16676"
   inkscape:cy="34.235768"
   inkscape:window-x="-9"
   inkscape:window-y="-9"
   inkscape:window-maximized="1"
   inkscape:current-layer="Calque_1" />
<g
   id="g8"
   transform="matrix(0.68242614,0,0,0.68242614,9.8362508,9.7373081)">
	<path
   d="m 37.2,39.7 c -1.6,0 -3.2,0 -4.8,0 -0.2,0 -0.4,0 -0.5,0.1 -1.6,1 -3.4,0.8 -5.2,0.9 C 25,40.8 23.4,41 21.7,41 19,41 16.3,41 13.6,40.3 12,40.7 10.4,39.5 8.8,40.1 8.6,40.2 8.3,40 8.1,40 6.4,39.5 4.7,39.5 3,39.5 2.3,39.5 1.6,39.3 0.9,39.1 0.6,39 0.3,38.6 0.1,38.2 c -0.3,-0.5 0.1,-0.9 0.7,-0.9 0.1,0 0.2,0 0.4,0 1.9,0.8 3.6,0.2 5.3,-0.7 1,-0.5 2,-0.7 3.1,-0.8 4.4,-0.2 8.8,-0.5 13.3,-0.3 0.4,0 0.7,-0.1 1.1,0 1,0.2 1.8,0 2.6,-0.6 1.3,-1 4.7,-0.6 6,0.4 0.5,0.4 0.1,1.3 1,1.3 0.5,0 1.1,0 1.6,0.1 1.2,0.1 2.4,0.2 3.6,0.2 0.4,0 0.5,-0.2 0.3,-0.6 -0.7,-1 -1.3,-2.1 -2.1,-3.1 -0.8,-1 -1.1,-2.2 -0.9,-3.3 0.1,-0.9 -0.2,-1.1 -0.8,-1.4 -1,-0.4 -1.2,-0.7 -1,-1.6 0.3,-1.1 0.7,-2.2 0.4,-3.4 -0.1,-0.2 0.2,-0.5 0.3,-0.8 0.3,-1.2 1.2,-2.3 1,-3.6 0.9,-1.9 1.1,-4 2.4,-5.7 0.5,-0.6 0.4,-1.6 0.6,-2.4 0,-0.1 -0.4,-0.3 -0.5,-0.2 -0.4,0.5 -0.9,0.9 -1.2,1.5 -0.4,0.8 -0.8,1.3 -1.9,1.5 -1.3,0.1 -2.5,1 -3.4,2 -2,2.3 -3.9,4.8 -5.9,7.2 -0.4,0.5 -0.6,1 -0.8,1.6 -0.2,0.5 -0.6,0.7 -1.1,0.8 -1.1,0.1 -2,-0.2 -2.9,-0.8 -0.5,-0.3 -0.6,-0.7 -0.1,-1 1.6,-0.9 2.3,-2.5 3.3,-3.9 0.4,-0.5 0.7,-1 1,-1.5 0.9,-1.1 1.2,-2.4 1.2,-3.8 -0.1,-1.9 0.5,-3.7 1.6,-5.3 C 28.8,8.4 29.2,7.6 28.4,6.7 28.1,6.3 28.2,5.7 28.1,5.2 28,4.5 28.5,4.3 28.8,4 c 0.5,-0.4 0.8,-1 1.3,-1.5 0.5,-0.5 0.7,-1 0.5,-1.7 -0.2,-0.5 0,-0.9 0.7,-0.8 0.7,0.1 1.6,-0.1 1.5,1.2 0,0.6 0.5,0.7 1.1,0.7 0.6,0 1.1,0.1 1.7,0.4 0.4,0.3 1.1,0.2 1.7,0.1 1.6,-0.3 4.1,0.2 5.4,1.1 0.4,0.3 0.8,0.4 1.3,0.5 0.6,0.1 1,0.3 1.1,1 0.2,1 0.2,2.2 1.6,2.4 0.2,0 0.3,0.4 0.4,0.6 0.5,1.4 1.8,2.3 2,3.8 0,0.3 0.3,0.5 0.4,0.8 0.3,0.8 0.8,1.5 0.4,2.5 -0.3,0.5 -0.2,1.2 0.3,1.7 0.5,0.4 0.3,0.8 -0.1,1.2 -0.2,0.3 -0.4,0.8 -0.2,1.1 0.4,0.8 0.3,1.3 -0.3,1.9 -0.1,0.1 -0.1,0.4 -0.1,0.7 0,0.2 0.2,0.3 0.2,0.5 -0.1,1.5 0.5,2.6 2.2,2.9 0.8,0.1 1,0.9 1.2,1.5 0.8,2.8 0,5.4 -1.2,7.9 -0.2,0.4 -0.6,0.5 -1,0.2 -0.4,-0.3 -0.7,-0.6 -1.1,-0.9 -0.4,-0.3 -0.9,-0.7 -1.3,-0.9 -0.2,-0.1 -0.6,0.1 -0.8,0.3 -0.1,0.1 -0.1,0.6 0,0.7 0.5,0.5 1,1 0.5,1.8 -0.2,0.3 0.9,1.2 1.5,1.2 1.7,0 3.3,0.2 5,-0.4 1.5,-0.6 3.1,-1 4.6,-1.5 0.6,-0.2 1.1,-0.1 1.5,0.2 1.1,0.9 1.5,3.1 0.8,4.1 -0.1,0.1 -0.2,0.2 -0.2,0.3 -1.3,2 -1.7,2.1 -3.8,1.4 -1.3,-0.5 -2.6,-1 -3.8,-1.7 -1.2,-0.7 -2.5,-0.5 -3.7,-0.4 -0.6,0.1 -1.1,0.8 -1.5,1.4 -0.1,0.2 0.3,0.8 0.6,1.2 0.2,0.3 0.5,0.6 0.2,0.9 -0.8,0.8 -0.5,1.5 0.1,2.2 0.4,0.5 0.6,1 -0.3,1.4 -0.7,0.3 -0.8,0.8 -0.4,1.5 0.2,0.4 0.4,0.8 0.5,1.1 0.2,0.3 0,0.5 -0.3,0.6 -1,0.5 -0.9,0.6 -0.5,1.6 0.3,0.8 0.3,0.8 -0.6,1.2 -0.7,0.3 -0.9,0.8 -0.5,1.5 0.3,0.5 0.4,0.8 -0.3,1 -0.8,0.2 -1.3,0.7 -0.8,1.7 0.2,0.4 -0.1,0.7 -0.5,0.8 -0.8,0.2 -1.2,0.7 -1.3,1.5 0,0.2 -0.4,0.5 -0.5,0.5 -0.9,-0.4 -1.2,0.3 -1.4,0.9 -0.3,0.7 -0.6,0.9 -1.2,0.4 -0.5,-0.4 -0.9,-0.2 -1.2,0.2 -0.4,0.5 -0.9,0.9 -1.6,0.4 -0.2,-0.1 -0.7,-0.1 -0.9,0.1 -0.6,0.5 -1.2,0.4 -1.8,0 -0.2,-0.1 -0.6,-0.3 -0.6,-0.2 -1.4,1.3 -2.3,-0.4 -3.5,-0.5 -0.5,-1 -2,-0.8 -2.4,-2.1 -0.2,-0.7 -1.2,-1.1 -1.4,-2.1 -1.1,-0.4 -0.7,-1.5 -1,-2.2 -0.4,-0.7 -0.6,-1.5 -0.8,-2.3 -0.1,-0.2 0.1,-0.4 0.2,-0.6 0.1,-0.3 0.2,-0.6 0.2,-0.8 -0.6,-2.6 2.2,-5.7 4.8,-6.4 0.3,-0.1 0.7,-0.1 1,0.1 0.7,0.3 1.4,0.7 2,1.2 0.9,0.8 0.9,2 0.2,2.9 -0.6,0.7 -1.9,0.7 -2.3,-0.1 -0.2,-0.3 -0.3,-0.8 0.4,-0.8 0.3,0 0.8,-0.2 0.8,-0.4 0.1,-0.5 -0.3,-0.7 -0.8,-0.8 -0.4,0 -0.7,0 -1.1,0.1 -1.1,0.5 -2.5,3 -2.2,4.2 0.4,1.6 0.8,3.2 1.9,4.6 1,1.3 2.4,2 3.9,2.4 1.6,0.4 3.2,-0.3 4.5,-1.2 1.6,-1 2.5,-2.6 3,-4.4 0.3,-1 0.8,-1.9 0.4,-3 -0.2,-0.4 0.2,-1 0.2,-1.6 0.3,-2 -0.4,-3.7 -1.1,-5.5 -0.3,-0.7 -0.5,-1.6 -1,-2 -0.4,-0.3 -1.3,0 -2,0 -0.5,0 -1,0 -1.4,0 -0.6,0.1 -0.6,0.2 -0.6,0.2 z"
   id="path2" />
	<path
   d="M 40.1,7.1 C 39.9,7.5 39.7,8.3 39.3,8.9 39,9.4 38.5,9.6 37.9,9.5 37.4,9.5 37.1,9.3 37.1,8.8 37.1,7.8 36.9,6.9 36.5,6.1 36.3,5.7 36.4,5.3 36.8,5 37.4,4.6 38,4 38.9,4.4 c 1,0.5 1.1,1.4 1.2,2.7 z"
   id="path4" />
	<path
   d="M 31.7,13 C 31.2,11.9 30.5,9.8 30.6,9.2 30.6,9 30.9,8.9 31,8.8 c 0.1,0.1 0.2,0.2 0.3,0.4 0.2,0.7 0.3,1.4 0.6,2 0.2,0.7 0.2,1.3 -0.2,1.8 z"
   id="path6" />
</g>
</svg>
