<?xml version="1.0" encoding="iso-8859-1"?>
<!-- Generator: Adobe Illustrator 25.3.0, SVG Export Plug-In . SVG Version: 6.00 Build 0)  -->
<svg version="1.1" id="Calque_1" xmlns="http://www.w3.org/2000/svg" xmlns:xlink="http://www.w3.org/1999/xlink" x="0px" y="0px"
	 viewBox="0 0 83.3 39" style="enable-background:new 0 0 83.3 39;" xml:space="preserve">
<g>
	<path d="M19.6,5.7c1.1,0.1,2.3,0.3,3.6,0.4c1.2,0.1,2-0.2,2.9-1.2c1.4-1.7,3.2-3,4.8-4.5c0.4-0.4,1-0.4,1.5-0.1
		c0.7,0.4,1.3,0.8,2,1.2c0.9,0.7,1.8,1.4,3,1.7c1,0.3,1.9,1.2,2.8,1.9c0.4,0.4,0.2,0.8-0.2,1c-0.5,0.3-1,0.4-1.4,0.6
		c0.6,0,1.2,0.1,1.8,0.1c2.1,0.1,4.2,0.3,6.2,0.4c1,0,1.9,0,2.8-0.5c0.9-0.5,1.2-0.3,1.9,0.5c0.1,0.2,0.4,0.4,0.5,0.4
		c2.4,0,4.8,0.4,7.1-0.5c1.8-0.7,3.6-1.1,5.5-1.5c1.5-0.3,3.1-0.3,4.6-0.4c0.3,0,0.7,0.2,0.9,0.4c0.1,0.1-0.1,0.6-0.2,0.8
		c-0.8,1.1-1.8,1.9-3.1,2.3c-0.3,0.1-0.7,0.2-1,0.3C65.3,9,65.2,9.1,65,9.2c0.1,0.1,0.2,0.3,0.4,0.4c0.9,0.5,1.8,0.9,2.7,1.4
		c0.6,0.3,1.1,0.7,1.5,1.2c0.4,0.4,0.2,0.9-0.3,1.1c-0.2,0.1-0.3,0.1-0.5,0.1c-2.1,0-4.3,0.2-6.4-0.6c-2.6-1-5.3-0.8-8-0.8
		c-0.5,0-1,0.2-1.6,0.3c-0.3,0.1-0.6,0.2-0.9,0.3c0.3,0.2,0.6,0.4,0.9,0.6c0.1,0.1,0.3,0,0.3,0.1c0.2,0.1,0.5,0.3,0.7,0.5
		c-0.2,0.3-0.3,0.6-0.6,0.8c-0.7,0.4-1.4,0.7-2.1,1c-0.9,0.4-1.8,0.6-2.6,1.1c-1.2,0.8-2.3,0.5-3.3-0.1c-0.8-0.5-1.6-1-2.4-1.6
		c-1.1-0.7-2.2-1.2-3.5-0.6c-0.2,0.1-0.3,0.1-0.5,0.1c-1.9,0.1-3.8,0.3-5.7,0.4c-2.2,0.1-4.4,0.2-6.6,0.4c-0.1,0-0.2,0-0.3,0.1
		c0.1,0.1,0.3,0.2,0.4,0.3c0.4,0.1,0.8,0.2,1.2,0.2c1.9,0.3,3.8,0.5,5.6,0.8c0.5,0.1,0.9,0.3,0.3,0.9c-0.6,0.6-0.9,1.4-1.5,2
		c-0.7,0.7-1.7,0.9-2.6,0.9c-0.7,0-1.5,0-2.2,0.1c-0.7,0.2-1.4-0.5-2,0.2c-0.9-0.6-2.4-0.1-2.9-1.6c-0.4-1-1.1-1.8-1.6-2.8
		c-0.3-0.6-0.8-0.8-1.5-0.8c-2.2-0.1-4.3-0.6-6.5-1c-1.4-0.3-2.8-0.2-4.3-0.4c-2.6-0.4-5.2-0.6-7.6-1.9c-0.3-0.1-0.5-0.3-0.8-0.4
		c-0.6-0.5-0.5-1.2,0.2-1.6c1.1-0.7,2.2-1.4,3.4-1.9c0.8-0.4,1.7-0.8,2.7-1c2.1-0.4,4.2-0.8,6.3-1C15,5.9,17.2,5.8,19.6,5.7z"/>
	<path d="M32.2,24.1c1.8-0.2,3.6-0.4,5.3-0.5c0.7,0,1.1-0.3,1.6-0.7c1.9-1.7,4-3,6.2-4.2c1-0.5,1.2-0.4,2,0.4
		c0.1,0.2,0.3,0.4,0.4,0.6c0.5,1.6,1.7,2.4,3.2,2.8c0.3,0.1,0.5,0.4,0.8,0.6c-0.2,0.2-0.5,0.4-0.7,0.7c-0.1,0.1-0.2,0.3-0.3,0.4
		c0.1,0.1,0.2,0.1,0.3,0.2c1.4,0.1,2.8,0.3,4.3,0.4c1.7,0.1,3.3,0.2,5,0.4c0.9,0.1,1.6-0.2,2.3-0.7c0.5-0.3,1.1-0.6,1.6-0.7
		c0.3-0.1,0.7,0.3,1.1,0.5c-0.1,0.3-0.3,0.6-0.5,0.8c-0.1,0.2-0.3,0.3-0.4,0.5c0.2,0.1,0.4,0.2,0.6,0.2c1.4,0.1,2.7,0.3,4.1,0.4
		c1.6,0.1,3.2-0.3,4.8-0.6c2.7-0.6,5.4-1.2,8.2-1.7c0.1,0,0.4,0,0.5,0.1c0,0.2,0,0.5-0.1,0.6c-1,0.8-2.1,1.6-3.1,2.4
		c-0.2,0.1-0.3,0.4-0.4,0.5c0.2,0.1,0.4,0.1,0.6,0.2c0.2,0.1,0.5,0.3,0.5,0.4c-0.4,1.7,1.5,1.7,2,2.7c0.1,0.2,0.5,0.2,0.6,0.4
		c0.2,0.3,1.1,0.3,0.8,0.9c-0.2,0.3-0.8,0.4-1.3,0.4c-0.9,0-1.8-0.2-2.6-0.3c-2.4-0.5-5-0.4-7.3-1.5c-1-0.5-2.1-0.3-3.1,0.1
		c-0.1,0-0.1,0.2-0.1,0.2c0.8,0.7,0.1,0.9-0.4,1.1c-0.4,0.3-0.9,0.4-1.3,0.7c-0.8,0.4-1.4,0.9-1.6,1.9c-0.3,1.4-1.4,1.7-2.6,1
		c-0.6-0.3-1.2-0.8-1.8-1.1c-1.9-1.1-3.9-0.8-5.9-0.3c-2.5,0.7-5,1.3-7.6,1.9c-0.1,0-0.1,0-0.2,0c-0.6,0.2-1.4-0.3-2,0.4
		c0.6,0.3,1.2,0.6,1.9,0.9c0.7,0.3,1.3,0.5,2,0.8c0.1,0.1,0.3,0.3,0.3,0.4c0,0.1-0.2,0.3-0.3,0.3c-1,0-2.1,0.1-3-0.1
		c-2.7-0.6-5.4-1.5-8.1-2.1c-1.3-0.3-2.7-0.5-4.1-0.5c-2.7,0-5.3-0.3-8-0.7c-2.2-0.3-4.4-1-6.7-0.9c-0.7,0.1-1.5-0.3-2.3-0.4
		c-0.3-0.1-0.6-0.2-0.8-0.1c-1.3,0.5-2.1-0.5-3-1.1c-0.5-0.3-0.4-0.8,0.2-0.9c1.1-0.3,2.3-0.4,3.5-0.6c0.3,0,0.6,0,0.8-0.1
		c0.1,0,0.2-0.1,0.3-0.2c-0.1-0.1-0.2-0.2-0.3-0.3c-0.7-0.4-1.4-0.8-2.1-1.3c-0.3-0.2-0.6-0.4-0.8-0.7c-0.3-0.5-0.2-1,0.4-1.3
		c0.2-0.1,0.3-0.2,0.5-0.3c4.1-1.2,8.2-2.9,12.5-3.6C29.5,23.8,30.8,24,32.2,24.1C32.1,24,32.1,24.1,32.2,24.1z"/>
	<path d="M69.1,28.3c-0.3,0-0.7-0.1-1.2-0.2c0.4-0.2,0.8-0.5,1.2-0.6c0.6-0.1,1.3,0,1.9,0.1c0.1,0,0.2,0.2,0.2,0.2
		c0,0.1-0.1,0.2-0.2,0.2C70.4,28.2,69.8,28.3,69.1,28.3z"/>
	<path d="M30.5,27.2c1.3,0.1,2.3,0.2,3.3,0.3c0.1,0,0.2,0.2,0.2,0.4c0,0.1-0.2,0.2-0.3,0.2c-1-0.2-2.1-0.3-3.1-0.5
		c-0.2,0-0.3-0.1-0.5-0.2C30.3,27.3,30.5,27.2,30.5,27.2z"/>
	<path d="M22,31.1c0.4,1,0.4,1.4-0.3,1.9c-0.1,0-0.2,0.1-0.3,0c-0.1-0.1-0.1-0.2-0.1-0.3C21.6,32.2,21.8,31.7,22,31.1L22,31.1z"/>
	<path d="M72.4,27.5c0.3,0,0.5,0,0.7,0.1c0.1,0,0.1,0.2,0.1,0.2c0,0,0,0.1-0.1,0.1c-0.1,0.1-0.3,0.2-0.5,0.2c-0.3,0-0.6-0.2-0.9-0.3
		C72,27.8,72.3,27.6,72.4,27.5z"/>
	<path d="M34.5,27.9c0.2-0.3,0.3-0.5,0.3-0.5c0.3,0.1,0.7,0.2,1,0.3c0.1,0,0.1,0.3,0.1,0.3c-0.1,0.1-0.3,0.2-0.4,0.1
		C35.2,28.1,34.9,28,34.5,27.9z"/>
	<path d="M22,31.1c-0.1-0.1-0.2-0.1-0.3-0.2c-0.2-0.2-0.4-0.5-0.6-0.8c0.2,0,0.5-0.1,0.7,0C22.4,30.4,22.2,30.8,22,31.1L22,31.1z"/>
</g>
</svg>
