<?xml version="1.0" encoding="iso-8859-1"?>
<!-- Generator: Adobe Illustrator 25.3.0, SVG Export Plug-In . SVG Version: 6.00 Build 0)  -->
<svg version="1.1" id="Calque_1" xmlns="http://www.w3.org/2000/svg" xmlns:xlink="http://www.w3.org/1999/xlink" x="0px" y="0px"
	 viewBox="0 0 87.4 15.1" style="enable-background:new 0 0 87.4 15.1;" xml:space="preserve">
<g>
	<path d="M24,0.1c1.9,0,3.7-0.1,5.6,0c2.9,0.2,5.8,0.6,8.7,0.9c2.3,0.3,4.6,0.5,6.9,0.8c2.6,0.4,5.1,0.3,7.7,0.4
		c0.6,0,1.2,0.2,1.8,0.3c1.9,0.3,3.6-0.3,5.2-1.1c1.3-0.7,2.6-0.7,4-0.5c2.1,0.2,4.1,0.8,6,1.5c0.4,0.2,1,0.1,1.4,0.1
		c0.2,0,0.4,0.2,0.5,0.3c-0.2,0.1-0.3,0.4-0.5,0.4C69.8,3.5,68.4,3.7,67,4c-0.2,0-0.3,0.1-0.5,0.1c0.2,0.1,0.4,0.1,0.6,0.2
		c2.7,0.5,5.4,1.1,7.7,2.6c0.9,0.6,1.9,1,3,1.1c1.4,0.1,2.7,0.8,4,1.6c1.8,1.1,3.3,2.5,5.3,3.3c0.1,0.1,0.3,0.2,0.3,0.4
		c0,0.1-0.2,0.3-0.3,0.4c-2.2,0.4-4.3,0.8-6.5,1.1c-1.7,0.2-3.3-0.2-4.9-0.7c-1.3-0.5-2.6-0.2-3.9-0.3c-0.1,0-0.2,0.1-0.2,0.2
		c-0.7,1.2-0.7,1.2-1.8,1.2c-2.4,0.2-4.6-0.3-6.5-2c-1.5-1.3-3.4-1.9-5.5-1.6c-0.1,0-0.2,0.1-0.3,0.1c0.1,0.1,0.1,0.2,0.2,0.2
		c0.5,0.4,1.1,0.7,1.7,1.1c0.1,0.1,0.3,0.3,0.3,0.4c0,0.1-0.2,0.3-0.3,0.3c-2.4,0.7-4.7,0.5-6.7-1.2c-1.3-1.1-2.6-1.7-4.4-1.7
		c-2.5-0.1-4.9-0.6-7.4-0.9c-1.2-0.2-2.4-0.3-3.5-0.4c-1.6-0.2-3.2-0.4-4.8-0.6c-0.4,0-0.7-0.1-1.1-0.1c-1.8-0.1-3.7-0.3-5.5-0.3
		c-0.9,0-1.8,0.1-2.7,0.2c-1,0.1-1.9,0.1-2.9,0.1c-0.8,0-1.7,0-2.5,0.1c-0.4,0-0.5,0.2-0.4,0.6c0.1,0.4,0.2,1,0,1.3
		c-0.2,0.5-0.7,0.9-1,1.4c-0.4-0.3-0.8-0.7-1.1-1.1c-1-1.4-1.4-1.5-3-1c-1.2,0.4-2.4,0.9-3.7,1.3c-1,0.3-2,0.4-3,0.6
		C3.5,12.3,1.9,11,0.3,9.9c-0.3-0.2-0.3-1.3-0.1-1.8c0.2-0.6,0.8-1,1.3-1.4C2.2,6,3.1,5.4,4,4.8c0.9-0.5,1.9-1,2.9-1.4
		c2.2-0.9,4.4-1.8,6.7-2.5c1.6-0.5,3.4-0.7,5.1-0.8C20.4-0.1,22.2,0,24,0.1C24,0,24,0,24,0.1z"/>
	<path d="M68,8.6c-1.9-0.4-3.8-0.8-5.7-1.2c-1.3-0.3-2.5-0.7-3.7-1.1c-2-0.8-4.1-0.9-6.1-1.1c-2.3-0.3-4.6-0.3-7-0.4
		C42.8,4.5,40,4.2,37.3,4c-1.7-0.1-3.4-0.2-5.2-0.4C30.4,3.4,28.7,3.2,27,3c-0.3,0-0.6,0-0.9,0c-4.2-0.1-8.5,0-12.6,1
		c-0.1,0-0.2,0-0.4,0c-0.1,0-0.2-0.1-0.3-0.1c0.1-0.1,0.2-0.3,0.3-0.3c0.7-0.2,1.5-0.3,2.3-0.4c1.6-0.2,3.2-0.5,4.8-0.6
		c1.7-0.1,3.5-0.1,5.2,0c2.5,0.1,5,0.4,7.5,0.7c1.2,0.1,2.5,0.3,3.7,0.4c1.8,0.1,3.7,0.3,5.5,0.4c2.6,0.1,5.3,0.1,7.9,0.4
		c4.1,0.4,8.2,1,12.2,2.4c1.3,0.5,2.8,0.7,4.1,1.1C66.9,8.1,67.4,8.4,68,8.6L68,8.6z"/>
	<path d="M68,8.6c1.5-0.2,2.8,0.7,4.2,0.8c0.3,0,0.6,0.1,0.9,0.2c0.3,0.1,0.6,0.3,0.9,0.4c-0.3,0-0.6,0-0.9-0.1
		C71.3,9.8,69.6,9.5,68,8.6L68,8.6z"/>
	<path d="M76.7,10.1c0,0.3,0,0.5-0.1,0.6c-0.1,0.2-0.3,0.4-0.4,0.5c0-0.2-0.1-0.4-0.1-0.6c0-0.2,0.1-0.4,0.1-0.5
		c0.2-0.3-0.5-0.7,0.1-0.7C76.5,9.5,76.6,10,76.7,10.1z"/>
</g>
</svg>
