<?xml version="1.0" encoding="iso-8859-1"?>
<!-- Generator: Adobe Illustrator 25.3.0, SVG Export Plug-In . SVG Version: 6.00 Build 0)  -->
<svg version="1.1" id="Calque_1" xmlns="http://www.w3.org/2000/svg" xmlns:xlink="http://www.w3.org/1999/xlink" x="0px" y="0px"
	 viewBox="0 0 49.7 25.6" style="enable-background:new 0 0 49.7 25.6;" xml:space="preserve">
<g>
	<path d="M4.9,14.5C5,14.3,5.1,14.1,5.3,14c1.6-0.8,3.2-1.6,4.8-2.3c1.5-0.6,3-0.9,4.6-1.1c0.9-0.1,1.7-0.1,2.6-0.3
		c0.3,0,0.6-0.3,0.8-0.5C19.6,8.3,21,6.6,22.5,5c1.8-2,3.8-3.7,6.3-4.8c0.1,0,0.1-0.1,0.2-0.1c0.4,0,0.8-0.1,1.1-0.1
		c0,0.5-0.4,0.6-0.7,0.8c-0.9,0.6-1.9,1.1-2.8,1.7c-1.1,0.7-2,1.7-2.5,2.9c-0.1,0.2-0.2,0.4-0.2,0.7c-0.3,1.1-0.5,2.3-0.7,3.4
		c-0.1,0.3-0.1,0.5-0.3,0.8c-0.2,0.3,0,0.3,0.2,0.3c0.6,0,1.2,0,1.8,0c0.4,0,0.7-0.2,1-0.5c0.6-0.6,1.2-1.3,1.9-1.8
		c0.5-0.4,0.9-1,1.6-1c0.3,0.5,0.1,0.8-0.3,1.2c-0.3,0.4-0.7,0.7-1.1,1.1c-0.5,0.5-0.4,0.9,0.3,1.2c1.4,0.6,2.9,1.2,4.4,1.5
		c1.3,0.3,1.8,0,2.1-1.2c0.2-0.9,0.6-1.7,0.9-2.6c0.3-1.1-0.1-1.6-1.2-1.7c-1.3-0.1-2.5,0.2-3.7,0.7c-0.5,0.2-1,0.4-1.4-0.1
		c0.3-0.6,0.9-1,1.5-1.1c1.2-0.4,2.5-0.7,3.9-0.5c0.5,0.1,0.9,0.1,1.4,0.3c0.7,0.2,1.1,1.1,0.9,2c-0.2,0.6-0.4,1.2-0.6,1.8
		c-0.5,1.1-0.6,2.3-0.7,3.5c0,0.7,0,0.7,0.7,0.7c1.1-0.1,2.1-0.4,3-1c0.9-0.6,1.9-1.1,2.9-1.7c0.3-0.2,0.7-0.2,1-0.3
		c0,0,0.1,0.1,0.1,0.1c0.1,0.9-0.7,1.2-1.3,1.5c-1.2,0.6-1.9,1.4-1.4,2.8c0,0.1,0,0.2,0,0.4c0,2.1,0,2.1,1.9,3
		c1.4,0.6,2.8,1,4.2,1.5c0.3,0.1,0.6,0.2,0.8,0c0.3-0.3,0-0.6-0.1-0.9c-0.3-0.6-1.1-1-0.7-1.9c0.1-0.1,0.2-0.2,0.3-0.2
		c1.1,1,1.9,2.2,2.6,3.5c0.2,0.4,0.1,0.5-0.3,0.6c-1.1,0.3-2.1,0.2-3.1-0.2c-1.7-0.7-3.4-1.4-5.1-2c-1.5-0.5-3-0.7-4.6-0.6
		c-0.4,0-0.6,0.2-0.6,0.6c-0.1,0.7-0.2,1.4-0.3,2.1c-0.1,1-0.2,2-0.2,2.9c0,0.5-0.3,0.8-0.7,0.8c-1.3,0.3-2.6,0.8-4.1,0.5
		c-1.1-0.2-2.2-0.2-3.2-0.6c-0.7-0.3-1.3-0.6-1.9-0.9c-0.2-0.1-0.5-0.2-0.8-0.2c-1.5,0.4-3.1,0.1-4.6,0c-0.2,0-0.4,0-0.6,0
		c-2.3,0-4.7-0.2-7-0.7c-1.4-0.3-2.8-0.7-4.1-1c-0.1,0-0.1-0.1-0.1-0.2c0-0.1,0.1-0.1,0.1-0.2c0.8-0.5,1.5-0.5,2.4-0.2
		c2.4,0.7,4.9,1.1,7.4,0.8c0.6-0.1,1.2-0.1,1.8,0c3.5,0.3,6.7-0.7,9.7-2.4c0.7-0.4,1.4-0.7,2.1-1.1c1.6-0.9,3.3-1.4,5.1-1.3
		c1.2,0.1,1.8-0.4,1.9-1.4c0.1-0.9-0.2-1.3-1.1-1.3c-0.8,0-1.6,0.2-2.4,0.1c-2.7-0.3-5.2-1.6-7.7-2.5c-1.7-0.6-3.3-0.9-5-0.9
		c-2.1,0-4.2-0.1-6.4,0c-3.4,0.2-6.4,1.4-9.4,2.9c-0.6,0.3-1.1,0.7-1.8,0.2C4.9,14.6,4.9,14.5,4.9,14.5z"/>
	<path d="M8.2,21.9c-2.9,0-5.5-0.8-7.6-2.9c-0.2-0.2-0.5-0.5-0.5-0.8c-0.1-0.6-0.1-1.2,0.6-1.5c1.1-0.6,2.1-1.4,3.2-2
		c0.3-0.2,0.7-0.1,1-0.2l0,0c0.5,0.5,1.2,0.1,1.8,0.4c1.1,0.6,1.2,1.7,1.4,2.7c0.1,0.5,0,1.2,0.5,1.3c0.7,0.1,0.7-0.7,1-1.2
		c0.5-0.8,0.6-1.6-0.1-2.3c-0.3-0.4-0.5-0.8,0-1.1c0.4-0.4,0.9-0.2,1.3,0.2c0.9,0.8,1.2,2.5,0.6,3.5c-0.3,0.6-0.5,1.2-0.8,1.7
		C10,20.7,9.2,21.3,8.2,21.9L8.2,21.9z"/>
	<path d="M43.3,10.9c1.3-1.1,2.8-1.8,4.6-2c0.5-0.1,0.7,0.1,0.6,0.6c-0.1,0.6-0.3,1.1-0.7,1.6c-0.7,1.1-1.2,2.4-1.8,3.6
		c-0.1,0.3,0,0.7,0.1,1c0.2,0.5,0.6,1,0.9,1.5c-0.1,0-0.1,0.1-0.2,0.1c-1.5,0-2.4-1.7-1.7-3.2c0.5-1.1,1-2.1,1.5-3.1
		c0.1-0.2,0.3-0.4,0.1-0.6c-0.2-0.2-0.5-0.1-0.7,0c-0.5,0.2-0.9,0.5-1.4,0.8C44.1,11.5,43.6,11.5,43.3,10.9L43.3,10.9z"/>
	<path d="M3.6,16.2C3.8,16.1,4,16,4.2,15.8c0.6-0.2,1.1-0.3,1.4,0.3c0.3,0.6,0.3,1.2-0.3,1.6l0,0c-0.6,0.3-1.2,0.4-1.7-0.2l0-0.1
		C3.4,17.1,3.4,16.7,3.6,16.2z"/>
	<path d="M11.8,15.9c0.6,0.3,0.8,0.8,1,1.4c0.2,1,0.3,1,1.3,1c1,0,1.9-0.4,2.6-1.1c0.8-0.8,1.6-1.5,2.4-2.3c0.1-0.1,0.1-0.2,0.1-0.3
		c-0.1-0.1-0.2-0.1-0.3-0.1c-1.4,0-2.8-0.1-4.1,0.3c-1,0.3-1.9,0.5-2.9,0.7c0.1-0.5,0.5-0.7,0.9-0.8c1.1-0.2,2.3-0.3,3.4-0.5
		c0.8-0.1,1.6-0.2,2.5-0.2c0.3,0,0.6,0,0.8,0.1c0.2,0.1,0.5,0.3,0.7,0.4c-0.2,0.2-0.4,0.4-0.5,0.5c-0.6,0.6-1.4,1.1-1.8,1.8
		c-1,1.5-2.6,1.9-4.2,2.1c-0.7,0.1-0.9-0.1-1-0.9c0-0.5-0.2-0.9-0.4-1.3C12,16.5,11.9,16.2,11.8,15.9z"/>
</g>
</svg>
