<?xml version="1.0" encoding="iso-8859-1"?>
<!-- Generator: Adobe Illustrator 25.3.0, SVG Export Plug-In . SVG Version: 6.00 Build 0)  -->
<svg version="1.1" id="Calque_1" xmlns="http://www.w3.org/2000/svg" xmlns:xlink="http://www.w3.org/1999/xlink" x="0px" y="0px"
	 viewBox="0 0 63.6 41.2" style="enable-background:new 0 0 63.6 41.2;" xml:space="preserve">
<g>
	<path d="M49.1,13.6c0,0.1,0.1,0.3,0.1,0.5c-0.1,1.3-0.4,2.4-2.2,2.6c-0.2,0-0.4,0.1-0.6,0.1c0.2,0.1,0.4,0.2,0.7,0.2
		c1.4,0.4,2.6,0.4,3.9-0.4c2.1-1.2,4.2-2.3,6.4-3.2c1.3-0.6,2.7-0.9,4.1-1.1c1.4-0.2,1.8,0.4,1.4,1.8c-0.2,0.6-0.5,1.2-0.7,1.8
		c-0.3,0.7-0.7,1.4-1,2.1c-0.8,1.5-0.7,2.9,0.4,4.3c0.6,0.8,1.1,1.7,1.5,2.6c0.4,0.9,0.9,1.9,0.2,2.7c-0.7,0.8-1.7,0.4-2.7,0.2
		c-2.4-0.5-4.6-1.3-6.8-2.2c-1.6-0.7-3.3-1.3-5.1-1.7c-0.9-0.2-1.9,0.2-2.8,0.3c-0.1,0-0.1,0.1-0.2,0.2c0.1,0.1,0.2,0.2,0.3,0.2
		c0.3,0.1,0.7,0.1,1,0.2c1.4,0.3,1.9,1,2,2.3c0.3,3-0.6,5.6-2.6,7.9c-0.2,0.2-0.3,0.3-0.5,0.5c-1.4,1.2-1.9,1.3-3.3,0.1
		c-0.3-0.2-0.5-0.5-0.8-0.7c-0.3-0.3-0.7-0.5-1.1-0.1c-0.3,0.3-0.5,0.2-0.7,0c-0.3-0.3-0.6-0.5-0.9-0.8c-0.1,0.5-0.2,1-0.1,1.5
		c0.1,0.6,0.3,1.3,0.4,1.9c0,0.2-0.1,0.4-0.1,0.6c-0.2-0.1-0.5-0.1-0.6-0.2c-0.8-1.1-1.5-2.3-2.3-3.4c-0.4-0.6-0.3-1.7-1.5-1.5
		c-0.2,0-0.4-0.8-0.6-1.2c-0.3-0.7-0.3-1.6-0.8-2c-0.4-0.3-1.3,0.1-2,0.1c-1.3,0-2.6,0-4,0c-0.1,0-0.3,0.1-0.4,0.1
		c0.1,0.1,0.2,0.1,0.3,0.2c0,0,0.1,0.1,0.1,0.1c1.8,1,2.4,1.7,0.9,4.2c-0.9,1.5-1.9,3-2.8,4.5c-0.3,0.5-0.5,1.1-0.8,1.6
		c-0.3,0.6-0.7,0.7-1,0.1c-0.4-0.6-0.7-1.2-1.1-1.8c-0.5-0.8-0.9-1.7-1.6-2.4c-1.3-1.3-1.4-2.9-1.8-4.5c0-0.1,0-0.2,0-0.4
		c-0.2-2.1-0.5-2.4-2.5-2.6c-1.2-0.1-2.4-0.3-3.5-0.9c-0.7-0.3-1.5-0.4-2.2-0.5c-2.3-0.3-4.3-1.3-6.3-2.3c-1.1-0.6-2.2-1.2-3.3-1.8
		c-1.5-0.9-1.6-2-0.2-3.1c2.5-1.9,5.2-3.7,7.4-5.8c2-1.9,4.4-3.1,6.8-4.3c0.6-0.3,1-0.5,0.7-1.3c-0.2-0.5-0.1-1.1,0.7-1.2
		c0.1,0,0.3-0.3,0.3-0.5c0.1-0.5,0.2-1,0.3-1.6c0.1-0.2,0.3-0.4,0.4-0.6c0.2,0.2,0.4,0.4,0.5,0.6c0.1,0.1,0.2,0.2,0.3,0.3
		c0.1-0.1,0.2-0.3,0.2-0.4c0.2-1,0.2-2,0.4-3c0.1-0.4,0.6-0.5,0.8-0.1c0.2,0.3,0.3,0.7,0.4,1c0.1,0.1,0.3,0.2,0.4,0.4
		c0.1-0.2,0.2-0.3,0.2-0.5c0.1-1.2,0.7-2.2,1.1-3.3c0-0.1,0.3-0.2,0.4-0.2c0.1,0,0.2,0.1,0.2,0.2c0.2,0.6,0.3,1.1,0.5,1.7
		c0.1,0.3,0.3,0.5,0.5,0.7c0.2-0.2,0.4-0.4,0.6-0.6c0.1-0.2,0.2-0.4,0.3-0.6c0.3-0.4,0.3-1.1,1-1c0,0,0,0.7,0.1,1.1
		c0.1,0.3,0.2,0.7,0.3,1c0,0.1,0.1,0.3,0.2,0.4c0.1-0.1,0.2-0.2,0.2-0.3c0.3-0.5,0.5-0.9,0.8-1.4c0-0.1,0.2-0.1,0.3-0.1
		c0.1,0,0.2,0.1,0.3,0.2c0.1,0.2,0.1,0.3,0.1,0.5c0,0.5-0.2,1.1,0.4,1.4c0.1,0,0.5-0.7,0.7-1.1c0.1-0.1,0.3-0.2,0.4-0.3
		c0.1,0.2,0.3,0.3,0.4,0.5c0.1,0.4,0.1,0.8,0.2,1.2c0,0.1,0.1,0.3,0.2,0.4c0.1-0.1,0.3-0.2,0.4-0.4c0.1-0.2,0.2-0.4,0.4-0.6
		C31,3,31.2,2.9,31.2,2.9c0.1,0.1,0.3,0.2,0.3,0.4c0,0.2-0.1,0.4,0,0.5C31.7,4.2,31.8,4.6,32,5c0.2-0.3,0.3-0.6,0.5-0.9
		c0.1-0.1,0.3-0.3,0.4-0.2c0.1,0,0.2,0.2,0.3,0.4c0.1,0.3,0.2,0.6,0.3,0.8c0.1,0.4,0.2,0.3,0.4,0c0.3-0.6,0.8-0.6,1,0.1
		c0.2,0.6,0.2,1.2,1.1,0.8c0.1,0,0.4,0.1,0.4,0.3c0.3,0.6,0.5,1.5,1.3,0.3c0.2-0.3,0.4,0.1,0.6,0.3c0.5,0.8,0.6,0.9,1.2,0.2
		c1-1.3,2.1-1.3,3.5-0.7c2.2,0.9,3.9,2.5,5.4,4.2C48.8,11,49,12.4,49.1,13.6z"/>
	<path d="M22.3,15.3c0.8,0,1.7,0,2.5,0c0.1,0,0.2,0.2,0.3,0.3c-0.1,0.1-0.2,0.3-0.4,0.3c-1.7,0-3.4,0-5.2,0c-0.1,0-0.2-0.2-0.3-0.3
		c0.1-0.1,0.2-0.3,0.4-0.3C20.5,15.3,21.4,15.3,22.3,15.3C22.3,15.3,22.3,15.3,22.3,15.3z"/>
	<path d="M39.3,19.2c1.4,0.2,2.8,0.5,4.2,0.7c0.1,0,0.2,0.1,0.3,0.2c-0.2,0.1-0.3,0.2-0.5,0.2c-0.6-0.1-1.3-0.1-1.9-0.2
		C40.7,19.8,40,19.5,39.3,19.2L39.3,19.2z"/>
	<path d="M28.1,16c1.3-0.1,2.6,0.4,3.8,0.7c0.1,0,0.2,0.1,0.3,0.2c-0.1,0.1-0.3,0.2-0.4,0.2C30.6,16.7,29.3,16.6,28.1,16L28.1,16z"
		/>
	<path d="M47.1,21.1c-0.4-0.2-1.1-0.4-1.1-0.4c0.1-0.7,0.7-0.4,1.1-0.4c0.4,0,0.7,0.2,1.1,0.3C47.8,20.7,47.4,20.9,47.1,21.1z"/>
	<path d="M39.3,19.2c-0.9,0.1-1.7-0.3-2.5-0.7c-0.1,0-0.1-0.2-0.2-0.2c0.1,0,0.2-0.1,0.3-0.1C37.7,18.5,38.5,18.8,39.3,19.2
		L39.3,19.2z"/>
	<path d="M28.1,16c-0.6,0-1.3,0-1.9,0c-0.1,0-0.3-0.1-0.4-0.2c0.1,0,0.2-0.1,0.3-0.1C26.8,15.7,27.6,15.3,28.1,16
		C28.1,16,28.1,16,28.1,16z"/>
	<path d="M50.3,20.5c0.3,0.1,0.5,0.2,0.7,0.3c-0.2,0.1-0.4,0.4-0.7,0.4c-0.2,0-0.5-0.2-0.7-0.4C49.8,20.8,50,20.7,50.3,20.5z"/>
	<path d="M34.6,17.4c0.3,0.1,0.7,0.2,1,0.4c0.1,0,0.1,0.1,0.2,0.2c-0.1,0-0.2,0.1-0.3,0.1c-0.4-0.1-0.8-0.2-1.2-0.4
		c-0.1,0-0.1-0.1-0.2-0.2C34.3,17.5,34.4,17.4,34.6,17.4z"/>
	<path d="M12.2,16.1c-0.2,0.1-0.3,0.2-0.4,0.1c-0.3-0.2-0.5-0.4-0.8-0.7c0,0,0.1-0.2,0.1-0.3c0.2,0.1,0.4,0.2,0.6,0.3
		C11.9,15.7,12,15.9,12.2,16.1z"/>
</g>
</svg>
