<?xml version="1.0" encoding="iso-8859-1"?>
<!-- Generator: Adobe Illustrator 25.3.0, SVG Export Plug-In . SVG Version: 6.00 Build 0)  -->
<svg version="1.1" id="Calque_1" xmlns="http://www.w3.org/2000/svg" xmlns:xlink="http://www.w3.org/1999/xlink" x="0px" y="0px"
	 viewBox="0 0 166.6 52.8" style="enable-background:new 0 0 166.6 52.8;" xml:space="preserve">
<g>
	<path d="M53.4,52.8c0.5-1.2,1-2.4,1.5-3.6c0.2-0.5,0.1-0.6-0.4-0.7c-1-0.2-2-0.3-3.1-0.1c-1.5,0.3-3.1,0.1-4.7,0.1
		c-1.1,0-1.3,0-1.4-1.1c-0.1-0.9-0.5-0.7-1-0.6c-1,0.1-2,0.3-3,0.2c-0.9-0.1-1.8-0.4-2.5-0.8c-1.4-0.8-1.6-1.8-0.6-3.1
		c0.2-0.2,0.4-0.4,0.6-0.6c-0.3,0-0.6-0.1-0.9-0.1c-0.6,0.1-1.2,0.2-1.7,0.3c-0.7,0.2-1.4,0.4-2.1,0.5c-2.3,0.6-4.5-0.4-5.4-2.6
		c-0.2-0.6-0.3-0.8-1-0.4c-0.6,0.3-1.2,0.5-1.8,0.7c-0.7,0.3-0.7,0.3-1.6-0.4c-0.9-0.7-1.9-1.4-2.9-2c-0.5-0.4-1.1-0.4-1.7,0
		c-0.7,0.5-1.3,1-2,1.5c-0.7,0.5-1.4,1.1-2.2,1.5c-1.5,0.8-2.4,0.4-3-1.2c-0.6-1.6-1.1-3.3-1.6-4.9c-0.3-0.8-0.5-1.6-0.2-2.4
		c0.2-0.7-0.3-0.9-0.7-0.8c-0.9,0.2-1.7,0.5-2.5,0.9c-1.7,0.7-3.3,1.4-4.9,2.1c-0.6,0.2-1.4,0.2-2.1,0.3C0.3,35.2,0.1,35,0,35
		c0.1-0.1,0.1-0.4,0.3-0.4c1.1-0.7,1.5-1.5,1.2-2.8c-0.2-1.1,0-2.2,0.2-3.3c0.3-1.5,0-2.7-1.3-3.6c-0.2-0.1-0.3-0.4-0.4-0.6
		c0.3-0.1,0.5-0.2,0.8-0.3c2-0.1,3.7,0.8,5.3,1.7c1.1,0.6,2.1,1.3,3.2,1.9c0.4,0.2,0.9,0.2,1.4,0.2c0.1,0,0.4-0.5,0.4-0.6
		c-0.7-1-0.2-2,0-2.9c0.2-1.1,0.8-2.1,1.1-3.2c0.3-0.9,0.7-1.9,0.9-2.9c0.3-1.1,0.5-1.3,1.6-0.9c1.7,0.6,3.4,1.3,5.1,2
		c1.1,0.5,2.2,0.7,3.3,0.6c0.3,0,0.7-0.1,1-0.4c0.4-0.4,0.8-0.5,1.4-0.4c1.2,0.2,1.6-0.4,1.8-1.7c0.4-2.2,1-4.4,1.6-6.5
		c0.2-0.7,0.7-0.9,1.4-0.5c1.8,0.8,3.5,1.9,4.8,3.3c1,1.1,2.1,1.7,3.6,1.5c0.8-0.1,1.6,0,2.3,0c1.2,0.1,1.9-0.5,1.7-1.7
		c0-0.2-0.1-0.3-0.2-0.5C42.2,11,43.5,9,45.6,8.6c0.3-0.1,0.8,0.2,1,0.5c0.4,0.8,0.7,1.7,1.1,2.6c0.2,0.5,0.3,0.7,0.9,0.3
		c1.9-1.4,4.1-2.1,6.4-2.5c0.5-0.1,1-0.3,1.6-0.3c2.6,0.1,5.2,0.4,7.4,2.1c0,0.2-0.1,0.3-0.2,0.4c-1,0.4-1.9,0-2.8-0.3
		c-3.5-1.2-6.9-0.7-10.1,1c-1.8,0.9-3.1,2.6-4.7,3.8c-1.2,0.8-0.7,3.1,0.3,4.2c1.8,2,4.2,2.4,6.7,2.7c1.3,0.1,2.1-0.7,2.6-1.8
		c0.3-0.7,0.6-1.5,1.6-1.4c1,0.1,1.2,0.8,1.4,1.6c0.3,1.6,1.3,2.1,2.9,2c2.8-0.2,5.6-0.7,8-2.3c0.2-0.1,0.3-0.1,0.5-0.2
		c0.4,0.4,0.6,0.8,0.4,1.4c-0.2,0.6-0.6,0.8-1.2,0.9c-2.4,0.8-4.8,1.4-7.3,1.4c-1,0-2,0.2-3,0.4c-0.5,0.1-0.5,0.5-0.5,0.8
		c0,0.7,0.1,1.4,0.2,2.1c0,0.6,0,1.3-0.1,1.9c-0.1,0.7,0.1,1.2,0.6,1.7c1.1,1,2.2,2,3.3,3c0.3,0.3,0.6,0.7,0.9,0.9
		c1.1,0.6,2,1.3,2.5,2.4c0.2,0.4,0.7,0.6,1.1,0.9c0.5,0.4,1,0.8,1.4,1.3c0.9,1.1,0.8,2.5-0.5,3.2c-2.8,1.4-5.6,2.9-8.7,3.7
		c-0.1,0-0.2,0-0.4,0c-1.3,0.2-2.3,0.7-2.8,2.1c-0.5,1.3-1.3,2.4-1.9,3.6C53.9,52.8,53.6,52.8,53.4,52.8z"/>
	<path d="M123.5,20.7c0.3,1.8-0.8,3.3-1.7,4.8c-0.8,1.5-1.9,2.7-3.4,3.6c-0.2,0.1-0.3,0.4-0.3,0.6c0,0.8-0.2,1.7,0,2.3
		c0.4,0.9,0.3,1.2-0.5,1.7c-0.4,0.2-0.9,0.5-0.8,1.2c0,0.8,0,1.5,0.7,2c0.2,0.2,0.5,0.4,0.7,0.6c0.1,0.1,0.1,0.3,0.1,0.3
		c-0.1,0.1-0.3,0.2-0.4,0.2c-0.2,0-0.3-0.2-0.4-0.3c-0.3-0.3-0.6-0.1-0.7,0.2c-0.5,1.2-0.9,2.3-1.4,3.5c-0.2,0.5-0.7,1.2-1.1,1.2
		c-0.6,0-0.9-0.7-0.9-1.4c0-0.3-0.2-0.6-0.3-0.9c-0.2-1.5-0.3-3.1-0.4-4.6c-0.1-1.3-0.2-2.6-0.4-3.9c-0.2-1.5-1.3-2.3-2.7-1.9
		c-1.6,0.4-3.2,0.3-4.8,0.3c-3.8,0-6.8-2-8.4-5.6c-0.2-0.5-0.5-1-0.8-1.4c-0.8-0.9-0.9-2-1-3.2c0-0.3,0.2-0.7,0.4-0.9
		c2.1-1.9,4.1-3.8,6.3-5.5c1.1-0.9,2.5-1.4,4-1.3c1,0,2,0,3.1,0c1.6-0.1,2.3-0.5,2.7-2.1c0.5-2,0.8-3.9,1.2-5.9
		c0.3-1.3,0.5-2.6,0.8-3.8c0.2-0.6,0.6-0.7,1-0.2c0.4,0.4,0.7,0.9,0.8,1.5c0.6,2.7,1.4,5.3,2,7.9c0.2,0.8,0.1,1.7,0.2,2.5
		c0,0.2,0.5,0.7,0.6,0.6c1.1-0.3,1.7,0.3,2.4,0.9c0.8,0.7,1.8,1.4,2.2,2.3c0.5,1.3,1.8,2.5,1.3,4.1
		C123.5,20.4,123.5,20.5,123.5,20.7z"/>
	<path d="M146.1,22.2c-0.4,0.1-1.3-0.2-0.4,0.7c0.3,0.3,0.3,0.7,0.5,1c-0.4,0-0.8,0.2-1.2,0.1c-0.2,0-0.6-0.2-0.7-0.4
		c-0.5-1.2-1.6-1.3-2.5-1c-1.1,0.3-1.4-1-2.3-0.8c0.1-0.2,0.1-0.5,0.2-0.6c0.7-0.6,1.3-1.2,1.5-2.1c0-0.1,0.1-0.1,0.1-0.2
		c0.2-1.1,0.5-2.2-1-2.8c-0.7-0.3,0-0.6,0.4-0.7c0.4,0.3,0.9,0.3,1.3,0c0.4-0.3,0.4-1,1-1.2c0,0,0,0,0,0c-0.8,0.3-0.6,1.6-1.8,1.4
		c-0.2,0-0.3-0.1-0.5-0.2c0.1-0.2,0.1-0.6,0.2-0.6c0.6-0.1,0.8-0.6,1-1.1c0.1-0.2,0.6-0.4-0.1-0.4c-1.6,0-3.3-0.1-4.6,1.2
		c0,0-0.1,0.1-0.1,0.1c-0.4,0.1-1.2,0.3-1.3,0.2c-0.3-0.7,0.5-0.6,0.8-0.9c0.1-0.2,0.2-0.3,0.4-0.5c-0.2,0-0.4-0.1-0.7-0.1
		c-0.2,0-0.4,0.2-0.6,0.3c-1.6,1.1-3.4,0.7-5.1,0.8c-0.7-0.7-1.1,0.3-1.6,0.3c-0.2,0.1-0.3,0-0.2-0.2c-0.4-0.7-0.6-1.3,0.1-1.9
		c0.5-0.5,0.9-0.3,1.1,0.4c0.2,0.6,0.3,0.9,1.1,0.7c1.3-0.2,2.4-1,3.7-1c0.5-0.8,1.5,0.1,2.1-0.5c2.5,0.1,4.9,0.1,7.4,0.3
		c1,0.1,2.2,0.3,3.1,0.8c1.2,0.7,2.9,0.6,3.6,2.2c0,0.1,0.5,0.1,0.6,0c1.1-0.7,2.3-0.8,3.5-1.1c0.7-0.2,1.6-0.3,1.9,0.8
		c-0.4,0.7-1,0.7-1.7,0.8c-0.8,0-1.1,0.5-1.3,1.2c-0.1,0.2-0.2,0.3-0.4,0.4c-0.4,0.2-0.8,0.1-1.2-0.1c-0.2-0.1,0.1,0-0.1-0.1
		c-0.2-0.2-0.4-0.3-0.6-0.3c0.2,0.1,0.4,0.2,0.5,0.3c0.4,0.4,1.3,0.6,0.7,1.5c-0.5,0.6-1.2,0.6-1.7,0.1c-0.9-0.7-1.6-0.4-2.4,0
		c-0.7,0.4-1,0.7-0.7,1.6c0.5,1.3-0.1,1.8-1.6,1.8C146.2,22.2,146.2,22.2,146.1,22.2z"/>
	<path d="M157.1,15.3c0.8,1,0.7,1.4-0.3,2.2c-0.2,0.1-0.3,0.3-0.5,0.5c0.2,0.1,0.5,0.1,0.7,0.2c1.4,0.3,2.9,0.8,4.3,0.9
		c1.1,0.1,2.2-0.5,3.3-0.7c1.5-0.4,1.9-0.1,2,1.4c0,1,0,1.9,0,2.9c-0.1,1.3-0.7,1.7-2,1.4c-1-0.2-2.1-0.6-3.1-0.7
		c-1-0.1-2.1,0.1-3.2,0.3c-0.1,0-0.3,0.3-0.3,0.4c0,0.3,0.2,0.6,0.2,0.8c0.1,1.6-0.6,2.4-2.1,2.3c-1.6,0-2.9-0.8-3.9-1.9
		c-0.5-0.6-0.9-0.7-1.5-0.4c-1.6,0.7-3.3,1.2-5.1,1.5c-1,0.1-2,0.3-3,0.5c-0.7,0.1-0.3-0.6-0.7-0.8c-0.1-0.1-0.1-0.4-0.2-0.6
		c0.3-0.1,0.6-0.1,0.8-0.2c0.1,0,0.2,0.1,0.3,0.2c1.3,0.7,1.3,0.7,1.7-0.6c0.1-0.2,0.2-0.6,0.4-0.6c0.3-0.1,0.7,0,1,0.1
		c0,0,0,0.2,0,0.3c0,0.3,0.2,0.4,0.6,0.3c0.2-0.1,0.5-0.2,0.7-0.2c0.4,0.1,0.9,0.5,1,0.4c0.4-0.4,0.7-1,1.1-1.5c0-0.3,0-0.5,0.2-0.7
		c1.2-1.2,2.5-1.5,3.9-0.3c0.4,0.3,0.6,0.3,0.9-0.1c0.9-1,2-1.2,3.2-0.8c0.4,0.1,1.1,0.2,1.2-0.5c0.1-0.5-0.5-0.6-0.9-0.7
		c-0.9-0.1-1.8-0.6-2.7-0.7c-2.5-0.4-2.5-0.4-1.7-2.8l0,0C154.5,16,156.2,16.5,157.1,15.3z"/>
	<path d="M122.3,30.4c1.4-1,2.9-0.7,4.4-0.6c0.9,0,1.8,0.2,2.8,0.3c1.1,0.1,2.3,0.2,3.3,0.8l0,0c-0.2,0-0.5,0-0.7,0
		c-0.2,0-0.7-0.1-0.4,0.4c0.3,0.6,0.6,1.3,0.9,1.9c0.4,0.9,0.3,1.9-0.2,2.7c-0.5,0.9-1.1,1-2.1,0.8c-1-0.2-2-0.4-2-1.8
		c0-0.2-0.2-0.4-0.3-0.6c-0.1-0.1-0.3-0.1-0.4-0.1c0,0.1,0,0.2,0,0.3c0.1,0.6-0.2,0.6-0.6,0.3c-0.3-0.2-0.6-0.5-0.7-0.8
		c-0.1-0.2,0.2-0.7,0.2-0.7c1.2,0.2,1.6-0.8,2.3-1.4c0.3-0.2,0.6-0.4,0.9-0.6c0.2-0.2,0.5-0.4-0.1-0.5c-0.6-0.1-1.2-0.3-1.7-0.3
		c-1.8,0-3.7,0-5.5,0L122.3,30.4z"/>
	<path d="M63.9,11.3c1.3,0.7,2.6,1.3,3.9,2c0.4,0.2,0.7,0.4,1.1,0.6c0.4,0.2,1.3,0.6,1.3,0.7c-0.2,0.8-0.9,0.4-1.5,0.5
		c-0.5,0.1-0.6,0.4-0.5,0.8c0.2,1.2,0.4,2.4,0.7,3.6c0.2,0.6,0.7,1.1,1.1,1.6c-0.1,0.1-0.1,0.1-0.2,0.2c-0.6,0.8-1.2,0.6-1.7-0.2
		c-0.2-0.3-0.4-0.6-0.5-1c-0.3-1.7-0.9-3.1-2.8-3.7c-0.5-0.1-1.2-0.6-1.2-1.2c0.1-1-0.2-1.4-1.1-2.1c-1.3-1,0.5-1.2,1.1-1.6
		C63.8,11.4,63.8,11.3,63.9,11.3z"/>
	<path d="M91.7,32c-0.2,0-0.5,0.2-0.9,0.3c-0.7,0.2-1.1-0.1-1.5-0.6c-0.4-0.5-0.3-1,0.1-1.4c0.3-0.3,0.3-0.6,0.1-0.9
		c-0.3-0.6-0.1-1.2,0.5-1.3c0.5-0.1,1.2-0.1,1.7,0.2c0.6,0.3,0.4,0.9,0,1.4c-0.1,0.2-0.3,0.4-0.3,0.6c0,0.1,0.2,0.3,0.3,0.4
		c0.9-0.7,0.8-0.2,0.9,0.5C92.7,32,92.8,32,91.7,32z"/>
	<path d="M66.3,30.1c0-0.2,0-0.5,0-0.7c0-1.5,0.1-1.6,1.6-1.5c0.9,0,1.6,0.6,1.7,1.2c0.1,0.7-0.5,1.3-1.5,1.4c-0.8,0-1.1,0.3-1,1.1
		c0,0.1,0,0.3,0,0.4c-0.1,0.2-0.3,0.3-0.4,0.5c-0.1-0.2-0.3-0.3-0.3-0.5c0-0.1,0-0.2,0-0.4C66.3,31.1,66.3,30.6,66.3,30.1z"/>
	<path d="M101.2,39.2c0,0.1-0.2,0.9-0.3,0.9c-0.9,0-0.4-0.8-0.5-1.2c-0.1-0.4,0.2-1.1-0.5-1.1c-0.6,0-0.8,0.5-0.8,1
		c0,0.3,0,0.6,0,0.9c0,0.2-0.3,0.3-0.4,0.5c-0.1-0.2-0.4-0.3-0.4-0.5c0-1.1,0-2.2,0-3.2c0-0.2,0.3-0.3,0.4-0.5
		c0.1,0.2,0.3,0.3,0.4,0.5c0.1,0.2-0.3,0.7,0.5,0.6C101.2,36.8,101.3,37,101.2,39.2z"/>
	<path d="M132.9,25.3c0.4-0.2,0.8-0.4,1.2-0.6c0.2-0.1,0.4-0.2,0.6-0.2c-0.2,0-0.5-0.1-0.7-0.1c-0.1,0-0.2-0.1-0.3-0.2
		c0.1-0.1,0.2-0.3,0.3-0.3c0.5,0,1.1,0,1.6,0l0,0c-0.2,0.6-0.2,1.4-1.2,1.5c-0.1,0-0.3,0.1-0.4,0.1c0.1,0,0.2,0.1,0.3,0.1
		c0.8,0.4,1.1,0.3,1.7-0.5c0.6-0.7,0.6-0.7,1.6-0.2c0,0,0,0,0,0c-0.4,0.2-0.7,0.3-1.1,0.6c-0.3,0.3-0.2,0.4,0.2,0.6
		c0.2,0.1,0.3,0.3,0.4,0.5c-0.1,0.1-0.3,0.3-0.4,0.2c-1.4-0.4-3-0.3-4.2-1.4C132.8,25.5,132.8,25.4,132.9,25.3z"/>
	<path d="M80.6,38.1c0-0.1,0-0.2,0-0.4c0.1-0.6,0.2-1.2,0.3-1.9c0.8,0,1.5,0,2.3,0c0.1,0,0.3,0.3,0.3,0.4c0,0.1-0.2,0.3-0.3,0.3
		c-0.5,0.1-1,0.1-1.4,0.1c-0.1,0-0.2,0.3-0.2,0.4c0,0.1,0.1,0.4,0.3,0.4c0.2,0.1,0.5,0,0.7,0.1c0.2,0.1,0.5,0.3,0.7,0.4
		c-0.2,0.1-0.4,0.4-0.6,0.4c-0.9-0.1-1.1,0.4-1.1,1.2c0,0.2-0.2,0.4-0.3,0.5c-0.2-0.2-0.4-0.4-0.5-0.6
		C80.6,39.1,80.6,38.6,80.6,38.1C80.6,38.1,80.6,38.1,80.6,38.1z"/>
	<path d="M101.8,38.2c0.2-0.3,0.5-0.8,0.9-1.2c0.2-0.2,0.8-0.1,1.1,0.1c0.3,0.3,0.6,0.8,0.6,1.2c0,0.5-0.6,0.4-1,0.4
		c-0.2,0-0.3,0.2-0.5,0.2c0.2,0.1,0.4,0.2,0.6,0.2c0.2,0,0.3-0.2,0.5-0.2c0.1,0,0.2,0,0.3,0.1c0,0.1,0,0.3-0.1,0.3
		c-0.4,0.2-0.8,0.7-1.2,0.6c-0.4-0.1-0.8-0.6-1.2-1C101.8,39,101.8,38.7,101.8,38.2z"/>
	<path d="M87.8,38.5c-0.1-0.8,0.4-1.3,1-1.5c0.6-0.3,1,0.2,1.3,0.6c0.5,0.6,0.3,1.1-0.5,1.2c-0.2,0-0.4,0-0.5,0
		c-0.1,0-0.2,0.2-0.3,0.2c0.1,0.1,0.3,0.2,0.4,0.3c0.3,0,0.6-0.1,1-0.1c-0.1,0.2-0.1,0.4-0.2,0.4c-0.4,0.2-0.8,0.5-1.2,0.5
		C88.2,40.1,87.8,39.2,87.8,38.5z"/>
	<path d="M79.5,29c0.5,0,1.3,0.7,1.3,1.3c0,0.2-0.3,0.5-0.5,0.6c-0.3,0.1-0.6,0-0.9,0.1c-0.1,0-0.2,0.2-0.1,0.2
		c0,0.1,0.1,0.2,0.2,0.3c0,0,0.1,0,0.2,0.1c0.3,0.1,0.8-0.7,0.9,0c0,0.2-0.6,0.7-1,0.8c-0.6,0.2-1.4-0.7-1.4-1.5
		C78.1,29.8,78.7,29,79.5,29z"/>
	<path d="M132.8,30.8c1.7,0.1,3.4-0.3,5.1,0.3c0.3,0.1,0.9-0.2,1.3-0.4c0.5-0.4,1-0.9,1.4-1.3c0.2,0,0.3,0.1,0.4,0.2
		c0.2,0.3,0.3,0.7,0.6,1c0.1,0.1,0.2,0.3,0.2,0.4c-0.2,0.2-0.3,0.4-0.5,0.5c-0.6,0.5-1.2,1.2-2.1,0.4c-0.2-0.2-0.7-0.2-1-0.2
		c-1.7-0.2-3.4-0.3-5.1-0.5C133,31.1,132.9,30.9,132.8,30.8C132.8,30.8,132.8,30.8,132.8,30.8z"/>
	<path d="M96.6,36.9c0.1,0.1,0.5,0.2,0.7,0.4c0.1,0.1,0.1,0.4,0.1,0.6c0,0.1-0.3,0.1-0.4,0.1c-0.2,0-0.4-0.2-0.7-0.2
		c-0.1,0-0.2,0-0.3,0.1c0.1,0.1,0.2,0.1,0.3,0.2c0.4,0.2,0.8,0.4,1.1,0.7c0.5,0.4,0.3,1.3-0.3,1.5c-0.5,0.1-1.1,0.1-1.6,0
		c-0.2,0-0.3-0.5-0.4-0.7c0.2-0.1,0.5-0.1,0.7-0.1c0.2,0,0.3,0.1,0.5,0.1c0.1,0,0.2-0.1,0.3-0.1c-0.1-0.1-0.1-0.2-0.2-0.3
		c-0.1-0.1-0.3-0.1-0.5-0.2c-0.6-0.1-1-0.5-0.9-1.1C95.1,37.1,95.6,36.8,96.6,36.9z"/>
	<path d="M106.5,36.9c0.1,0,0.4,0,0.6,0.1c0.2,0.1,0.3,0.4,0.5,0.7c-0.2,0.1-0.5,0.2-0.7,0.2c-0.2,0-0.3-0.1-0.5-0.1
		c-0.1,0-0.2,0-0.3,0.1c0.1,0.1,0.2,0.1,0.3,0.2c0.3,0.2,0.7,0.3,0.9,0.5c0.2,0.2,0.4,0.6,0.3,0.9c-0.1,0.3-0.4,0.6-0.7,0.7
		c-0.4,0.1-0.9,0-1.4-0.1c-0.2-0.1-0.3-0.5-0.4-0.7c0.2,0,0.5-0.1,0.7-0.1c0.2,0,0.3,0.1,0.5,0.1c0.1,0,0.2-0.1,0.3-0.1
		c-0.1-0.1-0.1-0.2-0.2-0.3c-0.2-0.1-0.3-0.1-0.5-0.2c-0.6-0.1-1-0.5-0.9-1.1C105.2,37,105.7,36.9,106.5,36.9z"/>
	<path d="M85.5,29c0.1,0.1,0.5,0.1,0.8,0.3c0.1,0.1,0.1,0.4,0.1,0.6c0,0.1-0.3,0.2-0.4,0.1c-0.2,0-0.3-0.2-0.5-0.2
		c-0.2,0-0.3,0-0.5,0c0.1,0.1,0.3,0.2,0.4,0.3c0.1,0.1,0.2,0.1,0.3,0.2c0.5,0.2,1,0.5,0.8,1.2c-0.1,0.3-0.4,0.7-0.7,0.7
		c-0.6,0.1-1.2,0.2-1.7-0.3c-0.1-0.1-0.2-0.4-0.2-0.5c0.1-0.1,0.3-0.2,0.5-0.3c0.2,0,0.3,0.2,0.5,0.2c0.2,0,0.3,0,0.5-0.1
		c-0.1-0.1-0.2-0.3-0.3-0.4c-0.1-0.1-0.2-0.1-0.3-0.1c-0.6-0.1-1-0.4-0.9-1.1C84,29.2,84.4,28.9,85.5,29z"/>
	<path d="M73.3,30.8c-0.1,0.5-0.1,1.3-0.4,1.4c-0.6,0.2-1.3,0.1-2,0.1c-0.2,0-0.6-0.4-0.6-0.6c-0.1-0.8,0-1.5,0-2.3
		c0-0.1,0.3-0.3,0.4-0.3c0.1,0,0.3,0.2,0.3,0.3c0.1,0.5,0,1,0.1,1.4c0,0.2,0.3,0.6,0.4,0.6c0.2,0,0.6-0.2,0.7-0.4
		c0.1-0.5,0.1-1,0.2-1.6c0-0.1,0.2-0.2,0.3-0.4c0.2,0.1,0.4,0.3,0.4,0.4c0.1,0.4,0,0.8,0,1.2C73.2,30.7,73.3,30.7,73.3,30.8z"/>
	<path d="M147.1,34.1c-0.4-0.4-0.8-0.7-1.5-0.7c-1.1,0-2.1-0.2-3.2-0.4c-0.2,0-0.3-0.1-0.5-0.2c0.1-0.1,0.3-0.2,0.4-0.2
		c0.5,0,1,0,1.4,0.1c1.2,0.4,2.2,0.1,3.2-0.5c0.8-0.5,1.8-0.9,2.7-1.3c0.3-0.1,0.7-0.1,1-0.1c0.2,0,0.3,0.3,0.5,0.4
		c-0.2,0-0.4,0.1-0.5,0.1c-1.4,0-2.5,0.6-3.5,1.5C147.1,33.1,147.2,33.6,147.1,34.1L147.1,34.1z"/>
	<path d="M141.6,36.6c-0.5,0.1-0.9,0.9-1.4,0.2c-0.5,0.3-1,0.6-1.5,0.9c-0.1,0.1-0.3,0.1-0.4,0.1c0-0.2-0.1-0.4,0-0.5
		c0.5-0.4,1-1,1.6-1.1c1.3-0.2,2.4-0.6,3.6-1.1c0.2-0.1,0.3-0.1,0.5-0.1c0.2,0,0.3,0.1,0.5,0.1c-0.1,0.1-0.2,0.3-0.3,0.3
		c-0.1,0.1-0.3,0.2-0.5,0.3c-0.8,0.3-0.8,0.3-0.3,1.1c0.1,0.1,0.1,0.3,0.2,0.5c0,0.1,0,0.2-0.1,0.3c-0.1,0-0.3-0.1-0.4-0.1
		c-0.4-0.3-0.7-0.6-1.1-0.9C142,36.7,141.8,36.6,141.6,36.6z"/>
	<path d="M76.4,32.3c-0.1-0.1-0.3-0.2-0.3-0.3c-0.1-0.9-0.3-1.7-0.4-2.6c0-0.8,0.7-1.5,1.5-1.5c0.2,0,0.4,0.3,0.7,0.4
		c-0.2,0.1-0.3,0.3-0.5,0.4c-0.1,0.1-0.1,0.1-0.2,0.2L76.7,32C76.6,32.1,76.5,32.2,76.4,32.3z"/>
	<path d="M75.8,28.4c-0.4,0.2-0.6,0.3-0.9,0.4c0.1,0.2,0.3,0.5,0.4,0.7c-0.9,0.5-0.5,1.4-0.7,2.2c0,0.2-0.3,0.3-0.4,0.5
		c-0.1-0.2-0.4-0.3-0.4-0.5c-0.1-0.7-0.3-1.5-0.3-2.2c-0.1-1,0.9-1.8,1.8-1.6C75.5,28,75.6,28.2,75.8,28.4z"/>
	<path d="M92.5,37.1c0,0.1,0.1,0.3,0,0.3c-0.9,0.5-0.5,1.5-0.7,2.2c0,0.2-0.3,0.3-0.4,0.5c-0.1-0.2-0.4-0.3-0.4-0.5
		c-0.1-0.7-0.3-1.5-0.3-2.2c-0.1-0.7,0.6-1.6,1.3-1.6c0.3,0,0.5,0.2,0.8,0.3c-0.2,0.2-0.3,0.4-0.5,0.6c-0.1,0.1-0.1,0.2-0.1,0.2
		C92.3,37,92.4,37,92.5,37.1z"/>
	<path d="M128.9,14.7c-0.2,0.6-0.3,1.1-0.5,1.7c-0.2,0.5-0.5,0.8-1.1,0.7c-0.3-0.1-0.7-0.9-0.5-1.3c0.1-0.2,0.3-0.3,0.4-0.5
		c0.1-0.4-0.5-1.1,0.3-1.3c0.3-0.1,0.7,0.3,1.1,0.5C128.8,14.6,128.9,14.6,128.9,14.7z"/>
	<path d="M131.3,16.6c0,0.5-0.8,1.1-1.4,1.2c-0.5,0-1.1-0.5-1.1-0.9c0.1-0.6,0.8-1.2,1.4-1.2C130.8,15.7,131.3,16.1,131.3,16.6z"/>
	<path d="M151.9,34.8c0,0.1,0,0.1,0,0.2c-0.1,0.6-0.2,1.2-0.3,1.9c-0.8-0.1-1.6-0.1-2.4-0.2c-0.2,0-0.3-0.1-0.5-0.2
		c-0.1-0.1-0.2-0.3-0.3-0.4c0.2,0,0.3-0.1,0.5-0.1c0.4,0.1,0.8,0.3,1.2,0.4c0.9,0.3,1.3,0.1,1.4-0.8c0.1-0.7-0.1-1.4-0.1-2.1
		c0-0.5,0-0.9,0-1.4c0.2,0.4,0.5,0.8,0.6,1.3C152,33.9,151.9,34.4,151.9,34.8C151.9,34.8,151.9,34.8,151.9,34.8z"/>
	<path d="M137.8,25.1c0.3,0.2,0.8,0.3,1,0.6c0.4,0.6,0.7,0.7,1.2,0.4c0.2-0.1,0.5-0.3,0.8-0.3c0.7-0.1,0.4,0.8,0.8,0.8
		c-0.2,0.1-0.4,0.3-0.6,0.3c-0.7,0-1.3,0-2,0C137.9,26.9,137.6,26.3,137.8,25.1L137.8,25.1z"/>
	<path d="M142.6,25.1c-0.1,0-0.5-0.1-0.6-0.2c-0.2-0.8-0.6-1.3-1.4-1.3c-0.1,0-0.2-0.2-0.2-0.3c0-0.2,0.1-0.4,0.3-0.4
		c0.8-0.3,2.6,0.6,2.8,1.5C143.6,25.1,143.1,25,142.6,25.1z"/>
	<path d="M81.3,30.9c0-0.4,0-0.5,0-0.5c0.1-0.4,0.1-1.1,0.3-1.2c0.5-0.2,1.1-0.1,1.7-0.1c0,0,0.1,0.4,0.1,0.6c0,0.1-0.2,0.1-0.3,0.2
		c-0.7,0.1-1,0.6-1,1.2c0,0.3,0,0.6-0.1,0.9c0,0.1-0.2,0.3-0.3,0.3c-0.1,0-0.4-0.2-0.4-0.3C81.4,31.5,81.4,31,81.3,30.9z"/>
	<path d="M139.4,18.1c-0.2,0.7-0.3,1.5-0.5,2.2c0,0.2-0.3,0.2-0.5,0.3c0-0.2-0.1-0.3-0.1-0.5c0-0.8,0.1-1.5,0.2-2.3
		c0-0.4,0-0.7,0.1-1.1c0-0.2,0.3-0.4,0.4-0.5c0.1,0.2,0.3,0.3,0.3,0.5c0,0.4,0,0.8,0,1.3C139.3,18,139.4,18,139.4,18.1z"/>
	<path d="M126.4,20.8c-0.3,0.9,1,1.5,0.5,2.4c0.4,0.1,0.8,0.2,1.1,0.4c0.2,0.1,0.7-0.1,0.5,0.4c-0.1,0.2-0.5,0.3-0.7,0.2
		c-0.9-0.2-2.1-0.2-1.7-1.8c-0.9-0.6-0.8-1.2,0.1-1.8C126.3,20.7,126.3,20.8,126.4,20.8z"/>
	<path d="M86,37.9c0-0.5,0-1,0-1.4c0-0.2,0.3-0.4,0.4-0.6c0.1,0.2,0.3,0.3,0.4,0.5c0,1.1,0,2.1,0,3.2c0,0.2-0.2,0.4-0.3,0.5
		c-0.2-0.2-0.4-0.4-0.4-0.6C86,39,86,38.5,86,37.9z"/>
	<path d="M122.4,30.5c0.2,0.4,1,0.5,0.5,1.1c-0.3,0.4-1.2,0.4-1.7,0c0,0,0-0.2-0.1-0.2c-0.3-0.1-0.6-0.1-0.9-0.2
		c0.1-0.5,0.6-0.5,1-0.6c0.3-0.1,0.7-0.2,1-0.4L122.4,30.5z"/>
	<path d="M128.4,43.8c-0.2,0-0.2,0-0.3-0.1c-0.5-0.2-1.1-0.3-1.6-0.5c0.6-0.1,1.1-0.2,1.7-0.2c1,0,2,0.1,2.9-0.6
		c0.1-0.1,0.3,0,0.5,0c-0.1,0.2-0.1,0.4-0.2,0.6c-0.1,0.1-0.2,0.2-0.3,0.2C130.1,43.4,129.2,43.6,128.4,43.8z"/>
	<path d="M93.1,38.5c0.2-0.6-0.3-1.5,0.5-1.5c0.6,0,0.4,0.9,0.4,1.3c0,0.6,0.3,1.6-0.4,1.7C92.8,40.1,93.5,39,93.1,38.5z"/>
	<path d="M84.3,38.5c0-0.4,0-0.7,0-1.1c0-0.2,0.3-0.3,0.4-0.4c0,0,0.3,0.2,0.3,0.3c0,0.8,0,1.6,0,2.5c0,0.1-0.3,0.4-0.3,0.3
		c-0.2-0.1-0.4-0.2-0.4-0.4C84.2,39.3,84.3,38.9,84.3,38.5C84.3,38.5,84.3,38.5,84.3,38.5z"/>
	<path d="M133.4,22.3c-0.3-0.1-0.5-0.2-0.8-0.3c0.2-0.4,0.4-0.8,0.8-1.1c0.2-0.1,0.7,0,0.9,0.2c0.2,0.2,0.2,0.7,0.1,0.9
		C134.2,22.2,133.7,22.2,133.4,22.3z"/>
	<path d="M140.9,24.8c-0.1,0.1-0.1,0.2-0.2,0.3c-0.5,0.4-1.8-0.2-1.9-0.8c0-0.1,0-0.2,0.1-0.2C139.4,23.6,140.8,24.2,140.9,24.8z"/>
	<path d="M126.2,20.7c0.1-0.3,0.2-0.6,0.4-0.8c0.5-0.6,1.3-1.1,1.2-2.1c0-0.1,0.3-0.2,0.4-0.2c0.1,0.1,0.2,0.3,0.2,0.4
		c-0.2,1.3-1.1,2.1-2,2.8C126.3,20.8,126.3,20.7,126.2,20.7z"/>
	<path d="M136.3,18.4c-0.4,0.5-0.6,0.9-1,1.2c-0.2,0.1-0.6-0.1-1-0.1c0.1-0.2,0.3-0.5,0.5-0.5c0.4-0.2,0.2-1,0.9-0.7
		C135.9,18.2,136.1,18.3,136.3,18.4z"/>
	<path d="M132.7,25.5c-1-0.4-2-0.8-3-1.2c-0.1-0.1-0.2-0.2-0.3-0.3c0.2,0,0.3-0.1,0.5-0.1c1.2,0.1,2.2,0.5,3,1.4
		C132.8,25.4,132.8,25.5,132.7,25.5z"/>
	<path d="M150.1,23.2c-0.2,0.2-0.3,0.3-0.5,0.5c-0.5,0-1,0-1.5,0c-0.6-0.1-0.3-0.4-0.2-0.7c0.1-0.1,0.1-0.2,0.2-0.3
		C148.9,22.3,149.7,22,150.1,23.2z"/>
	<path d="M147.2,34c0.8,0.4-0.5,1.5,0.6,1.7c0,0,0,0.2-0.1,0.3c-0.1,0.1-0.2,0.1-0.3,0.1c-0.2,0-0.3-0.2-0.5-0.2
		c-0.4-0.2-0.7-0.4-1.1-0.6c0.3-0.2,0.6-0.4,0.9-0.7C147,34.5,147,34.3,147.2,34L147.2,34z"/>
	<path d="M140.6,29.3c0.2-0.2,0.3-0.5,0.5-0.7c0.3-0.2,0.6-0.4,0.8,0.1c0.3,0.7,0.6,1.4,0,2.1c-0.1-0.1-0.1-0.1-0.2-0.2
		c-0.5-0.3-0.5-0.9-0.9-1.3C140.7,29.4,140.7,29.3,140.6,29.3z"/>
	<path d="M133.6,23.7c-0.3-0.1-0.6-0.1-0.8-0.2c-0.1-0.1-0.2-0.3-0.2-0.4c0,0,0.1-0.2,0.2-0.2c0.2-0.1,0.5-0.1,0.7-0.1
		c0.3,0.1,0.6,0.3,0.9,0.4C134.1,23.3,133.9,23.5,133.6,23.7z"/>
	<path d="M121,39.3c-0.1,0.3-0.1,0.4-0.2,0.4c-0.1,0-0.2,0-0.3-0.1c-0.5-0.3-0.9-0.7-1.4-1.1c-0.1-0.1-0.2-0.4-0.3-0.6
		c0.2,0,0.4,0,0.6,0.1C119.9,38.4,120.5,38.9,121,39.3z"/>
	<path d="M147.9,22.9c-0.4,0-0.8,0-1.2,0c-0.5,0-0.6-0.4-0.5-0.7l0,0C147.7,21.8,147.8,21.9,147.9,22.9L147.9,22.9z"/>
	<path d="M134.3,17.4c0.1,0.1,0.3,0.2,0.5,0.3c-0.2,0.2-0.3,0.4-0.5,0.5c-0.1,0.1-0.4,0.1-0.5,0c-0.2-0.1-0.3-0.3-0.5-0.4
		c0.1-0.1,0.2-0.3,0.4-0.3C133.8,17.4,134,17.5,134.3,17.4z"/>
	<path d="M135.8,16.2c-0.7,0.2-1,0.4-1.4,0.5c-0.1,0-0.3-0.2-0.4-0.3c0.2-0.2,0.4-0.5,0.7-0.6C135,15.7,135.3,15.9,135.8,16.2z"/>
	<path d="M137.1,21.2c-0.2,0.3-0.3,0.5-0.4,0.5c-0.3,0-0.7-0.1-1-0.1c0.1-0.2,0.2-0.5,0.3-0.5C136.4,21.1,136.7,21.2,137.1,21.2z"/>
	<path d="M136.4,22.1c0.3,0.1,0.6,0.1,0.8,0.2c0,0,0.1,0.3,0.1,0.3c-0.2,0.1-0.5,0.3-0.8,0.3c-0.2,0-0.4-0.2-0.6-0.3
		C136.1,22.4,136.2,22.2,136.4,22.1z"/>
	<path d="M135.7,24c-0.1-0.6,0.3-0.8,0.8-0.7c0.2,0,0.3,0.2,0.5,0.3c-0.2,0.1-0.3,0.3-0.5,0.4C136.3,24,136,24,135.7,24L135.7,24z"
		/>
	<path d="M134.5,40.5c-0.4,0.4-0.9,0.7-1.3,1.1c0,0-0.2-0.1-0.3-0.1c0.5-0.4,0.9-0.8,1.4-1.2C134.3,40.3,134.4,40.4,134.5,40.5z"/>
	<path d="M138.3,23.4c-0.2-0.2-0.3-0.4-0.4-0.5c0.2-0.1,0.5-0.3,0.7-0.3c0.1,0,0.3,0.2,0.4,0.3C138.8,23,138.6,23.1,138.3,23.4z"/>
	<path d="M140.7,14c-0.3,0.3-0.5,0.5-0.7,0.6c-0.2,0-0.5-0.1-0.8-0.2c0.1-0.2,0.2-0.4,0.4-0.4C140,13.9,140.3,13.9,140.7,14z"/>
	<path d="M125.9,43c0,0.1,0,0.1,0,0.2c-0.1,0-0.2,0.1-0.3,0.1c-0.4-0.2-0.9-0.5-1.3-0.7c0,0,0.1-0.1,0.1-0.1c0.5,0.1,1,0.3,1.4,0.4
		C125.8,42.9,125.9,43,125.9,43z"/>
	<path d="M137.4,18.4c-0.2-0.2-0.4-0.4-0.5-0.5c0.2-0.1,0.5-0.3,0.7-0.4c0.1,0,0.3,0.2,0.4,0.3C137.9,18,137.7,18.2,137.4,18.4z"/>
	<path d="M130.6,21.3c0.2,0.1,0.3,0.1,0.3,0.1c0,0.2,0,0.5-0.1,0.6c-0.1,0.2-0.4,0.4-0.6,0.6c0,0-0.1-0.1-0.1-0.1
		C130.2,22,130.4,21.6,130.6,21.3z"/>
	<path d="M130.5,23.8c-0.2-0.3-0.4-0.4-0.5-0.6c0.2-0.1,0.4-0.3,0.5-0.3c0.1,0,0.4,0.2,0.4,0.3C130.8,23.4,130.7,23.6,130.5,23.8z"
		/>
	<path d="M142.9,39.7c-0.2-0.3-0.5-0.7-0.7-1c0,0,0.1-0.2,0.2-0.2c0.3,0.3,0.6,0.7,0.8,1C143.1,39.6,143,39.6,142.9,39.7z"/>
	<path d="M137.7,15.3c0.4-0.2,0.5-0.4,0.7-0.4c0.2,0,0.3,0.2,0.5,0.3c-0.2,0.1-0.3,0.3-0.5,0.4C138.2,15.7,138,15.5,137.7,15.3z"/>
	<path d="M138,19.7c-0.4,0.2-0.6,0.4-0.8,0.5c-0.1,0-0.2-0.1-0.4-0.2c0.2-0.2,0.4-0.4,0.6-0.6C137.5,19.4,137.7,19.5,138,19.7z"/>
	<path d="M57,42.3c-2.8,0.9-4.8,1.3-6.6-0.5c-0.9-0.9-0.9-1.6,0.1-2.4c1.2-0.9,2.5-1.3,4-1c0.3,0.1,0.7,0.2,1,0.3
		c1.1,0.3,1.2,0.5,0.7,1.6c-0.2,0.4-0.3,0.9-0.2,1.3C56.1,41.9,56.7,42.1,57,42.3L57,42.3z"/>
	<path d="M57,42.3c-0.2-0.9-0.3-1.9,0-2.8c0.1-0.2,0.4-0.4,0.7-0.4c0.1,0,0.3,0.3,0.4,0.5c0.1,0.2,0,0.5,0,0.7
		c0,1.2-0.1,2.4,0.8,3.4c0,0,0,0.3,0,0.3c-0.1,0-0.3,0-0.3,0C58,43.5,57.5,42.9,57,42.3L57,42.3z"/>
	<path d="M60.9,39.5c0.1,0.7-0.2,1.6,0.5,2.2c0.2,0.1,0.2,0.4,0.3,0.7c-0.2-0.1-0.6-0.2-0.7-0.5c-0.3-0.6-0.6-1.2-0.7-1.8
		C60.1,39.6,60.6,39.5,60.9,39.5L60.9,39.5z"/>
	<path d="M60.8,45c-0.3,0-0.6,0-0.8-0.1c-0.2-0.1-0.3-0.3-0.4-0.5c0.2,0,0.3,0,0.5,0c0.3,0,0.7,0,1,0.1c0.2,0,0.3,0.2,0.5,0.3
		c-0.2,0-0.4,0-0.6,0.1C60.9,44.9,60.9,44.9,60.8,45C60.8,45,60.8,45,60.8,45z"/>
	<path d="M17.8,33c0-0.2,0-0.5,0-0.7c1.4-2.8,2.7-5.7,4.2-8.5c0.9-1.8,2.5-2.5,4.4-2.4c1.1,0.4,2.3,0.9,3.4,1.4
		c0.4,0.2,0.8,0.2,1.1,0.5c0.5,0.5,0.9,0.5,1.4,0.2c0.5-0.3,1-0.2,1.2,0.3c0.4,0.9,1.2,1.2,1.9,1.8c0.1,0.1,0.1,0.4,0.2,0.6
		c-0.2,0-0.4,0.1-0.6,0c-0.4-0.1-0.7-0.4-1.1-0.5c-0.2,0-0.4,0.1-0.5,0.2c-0.1,0.1,0.1,0.5,0.2,0.5c1.1,0.4,2,1.1,2.7,2
		c0.1,0.1,0.1,0.4,0.2,0.6c-0.2,0-0.5,0-0.7-0.1c-0.3-0.1-0.5-0.4-0.7-0.6c-0.7-0.8-1.7-1.3-2.7-1.6c-1.1-0.2-1.7-0.9-1.7-2
		c0-0.6-0.4-1-0.9-1.2c-0.9-0.4-1.9-0.8-2.8-1.1c-2-0.7-3.3-0.2-4.4,1.6c-0.6,0.9-1,1.9-1.5,2.8C20,28.9,18.9,30.9,17.8,33z"/>
	<path d="M25.7,29c0-1.9,0.7-2.4,2.4-1.4c0.6,0.3,1.1,0.3,1.7,0.1c0.2-0.1,0.7,0.2,0.8,0.4c0.2,0.4,0.3,0.9,0.4,1.4
		c0.1,0.3,0,0.7,0,1c-0.2-0.2-0.5-0.4-0.7-0.5c-0.2-0.1-0.6,0-0.7,0.1c-0.3,0.5-0.5,1.1,0.4,1.4c0.7,0.2,0.4,0.6,0,0.9
		c-1.3,1.1-2.5,0.9-3.4-0.6C26,31.1,25.7,30.1,25.7,29z"/>
	<path d="M16.7,33.3c0.4-0.1,0.7-0.2,1.1-0.4c-0.1,0.2-0.1,0.5-0.2,0.7c-0.1,0.2-0.4,0.3-0.5,0.4C17,33.8,16.9,33.6,16.7,33.3z"/>
	<path d="M59,18.1c0.2-0.8,0.3-1.4,0.4-1.9c0.1-0.8,0.6-1.2,1.3-1.3c0.6-0.1,1.1,0.3,1.4,0.9c0.3,0.5,0.6,1,0.9,1.5
		c0.1,0.1,0.2,0.3,0.3,0.4c0-0.2,0.1-0.3,0.1-0.5c0-0.1,0-0.3,0.1-0.3c0.1-0.1,0.2-0.2,0.4-0.2c0.1,0,0.2,0.1,0.2,0.2
		c0,1.3,0.8,2.4,1.4,3.4c0.1,0.2-0.1,0.5-0.1,0.8c-0.2-0.1-0.4-0.1-0.6-0.2c-0.2-0.1-0.2-0.3-0.4-0.4c-0.6-0.5-0.9-0.4-1.2,0.3
		c0,0.1,0,0.2-0.1,0.3c-0.2,0.6-0.3,1.1-1.1,1.2c-0.9,0.1-1.6-0.1-2-0.9C59.5,20.2,59.3,19.1,59,18.1z"/>
	<path d="M107.3,20c0,2-0.3,2.3-1.9,2.6c-1.5,0.3-2.4-0.6-3.4-1.4c-0.2-0.1-0.1-0.8,0.1-1.1c0.1-0.3,0.5-0.5,0.9-0.2
		c0.4,0.4,0.6,0.5,0.8-0.2c0.2-0.6,0.5-1.1,0.9-1.5c0.9-1,2-0.7,2.5,0.5C107.3,19.2,107.3,19.8,107.3,20z"/>
	<path d="M99.6,20.4c-0.6,0.4-0.9,0.8-1.3,0.8c-0.5,0-0.8-0.4-0.8-1c0.1-0.6,0.5-0.7,0.9-0.6C98.8,19.7,99.1,20,99.6,20.4z"/>
	<path d="M151.1,20.7c0.4-0.3,0.7-0.5,1.1-0.8c0.2-0.1,0.4-0.3,0.6-0.2c0.6,0.1,1.1,0.3,1.7,0.5c-0.3,0.8-1,0.5-1.5,0.6
		C152.4,20.9,151.7,21.6,151.1,20.7L151.1,20.7z"/>
	<path d="M150.5,18.8c0.5,0.1,0.8,0.1,1.1,0.1c0.1,0,0.2,0.2,0.2,0.2c0,0.1-0.2,0.4-0.2,0.4c-0.3,0-0.7,0-1-0.1
		c-0.2-0.1-0.3-0.3-0.4-0.5C150.3,18.9,150.5,18.8,150.5,18.8z"/>
	<path d="M149.9,21c0.1,0.1,0.2,0.3,0.4,0.4c-0.2,0.1-0.3,0.3-0.5,0.4c-0.2,0.1-0.5,0-0.7,0c-0.2,0-0.3-0.2-0.4-0.3
		c0.1-0.2,0.2-0.4,0.4-0.5C149.3,21,149.6,21.1,149.9,21z"/>
	<path d="M153.6,21.3c0,0,0.2,0.1,0.4,0.2c-0.1,0.2-0.2,0.4-0.4,0.5c-0.1,0.1-0.2,0.1-0.3,0.1c-0.3-0.1-0.9-0.1-0.9-0.2
		c-0.1-0.5,0.4-0.5,0.7-0.5C153.1,21.4,153.2,21.4,153.6,21.3z"/>
	<path d="M151.1,20.7c-0.5,0-1,0-1.5-0.1c-0.1,0-0.1-0.3-0.1-0.4c0.4-0.1,0.8-0.2,1.2-0.2C151,20,151.1,20.4,151.1,20.7L151.1,20.7z
		"/>
	<path d="M149.4,19.4c-0.5,0.1-0.8,0.2-1.1,0.2c-0.1,0-0.2-0.3-0.4-0.5c0.3-0.1,0.7-0.2,1-0.2C149,19,149.2,19.2,149.4,19.4z"/>
</g>
</svg>
