<?xml version="1.0" encoding="iso-8859-1"?>
<!-- Generator: Adobe Illustrator 25.3.0, SVG Export Plug-In . SVG Version: 6.00 Build 0)  -->
<svg version="1.1" id="Calque_1" xmlns="http://www.w3.org/2000/svg" xmlns:xlink="http://www.w3.org/1999/xlink" x="0px" y="0px"
	 viewBox="0 0 74.4 38" style="enable-background:new 0 0 74.4 38;" xml:space="preserve">
<g>
	<path d="M9.7,0.8C9.7,1.9,9.7,2,10.9,2c1.3,0,2.5-0.3,3.4-1.3c0.3-0.3,0.6-0.6,0.8-0.1c1,2,2.9,1.9,4.6,2c0.5,0,0.8,0.1,1.3,0.3
		c1,0.5,2,1.2,3.2,0.7c0.2-0.1,0.5,0,0.6,0.1c1.3,1.2,3,0.8,4.6,1.1C30.2,5,31,4.7,31.7,5.4c0.1,0.1,0.2,0.1,0.3,0.1
		c1.2,0,2.3-0.1,3.5-0.1c0.3,0,0.7-0.2,0.8-0.1c1.5,1,3.2,0.7,4.8,1.1c1,0.3,2,0.7,2.9,1.1c0.4,0.1,0.8,0.2,1.2,0.3
		c0.3,0.1,0.6,0.3,0.9,0.5c0.1,0.1,0.2,0.4,0.4,0.4c1.9,0.2,3.2,1.9,5.2,2.1c1.3,0.1,2.6,0.6,3.8,1.3c0.8,0.4,1.6,1.1,2.2,1.9
		c0.4,0.6,0.9,1,1.4,1.5c0.5,0.5,0.8,0.8,0,1.3c-0.3,0.2-0.5,0.6-0.7,0.9c-0.1,0.1-0.2,0.3-0.2,0.4c0.2,0,0.4,0.1,0.5,0.1
		c1.2-0.4,2.5-0.9,3.7-1.3c0.7-0.2,1.3-0.6,2-0.8c0.7-0.3,1.3-0.5,2.1-0.1c0.3,0.2,0.7,0.2,1,0.1c1-0.4,1.8,0.2,2.3,0.7
		c1.4,1.3,3.1,2.3,3.8,4.2c0.1,0.2,0.5,0.4,0.6,0.6c0.2,0.3,0.4,0.8,0.3,0.9c-0.7,0.7-0.1,2-1.1,2.5c0.3,1.1-0.5,0.9-1.1,0.9
		c-0.5,0-1,0.3-1.4,0.5c-1.1,0.4-2.2,0.7-3.4,0.4c-1.9-0.5-3.8-1-5.7-1.5c-1.7-0.4-3.5-0.8-5.2-1.1c-0.2,0-0.5,0-0.7,0
		c-0.4,0.1-0.8,0.2-1.1,0.3c0.3,0.1,0.7,0.2,1,0.3c0.5,0.1,0.9,0,1.3,0.4c0.7,0.8,0.8,0.7-0.1,1.3c-0.2,0.2-0.6,0.4-0.5,0.6
		c0.2,0.7-0.3,0.6-0.7,0.7c-0.5,0.2-1.2,0.2-1.3,1c0,0.1-0.5,0.3-0.7,0.3c-0.5,0.1-1.1,0-1.6,0c-0.2,0-0.6,0.1-0.6,0.2
		c0.1,1.5-0.8,0.7-1.4,0.6c-0.5-0.1-1.1-0.1-1.6-0.1c-0.3,0-0.7,0.1-1,0.2c0.2,0.2,0.5,0.5,0.7,0.7c0.1,0.1,0.1,0.2,0.1,0.3
		c-0.2,0-0.3,0.2-0.5,0.1c-0.4-0.1-0.8-0.3-1.2-0.5c-0.5-0.2-0.9-0.3-1.3,0.2c-0.3,0.4-0.1,0.8,0.2,1.1c0.1,0.1,0.2,0.2,0.2,0.3
		c0,0.2,0.1,0.4,0,0.5c-0.1,0.1-0.4,0.1-0.4,0c-0.5-0.4-1-0.7-1.3-1.2c-0.6-0.7-1.4-0.9-2.3-0.8c-0.2,0-0.6,0.1-0.6,0.2
		c-0.4,1.4-0.9,0.4-1.2,0c-0.4-0.4-0.7-0.9-1.1-1.4c-0.7-1-1.1-1.3-2.2-0.7c-1.5,0.7-3.1,1.3-4.8,1.3c-2.1,0.1-4.3,0-6.4,0
		c-0.5,0-1-0.1-1.4-0.1c-1,0-1.2,0.5-0.8,1.4c0.1,0.2,0.1,0.3,0.2,0.5c0.4,0.5,0.6,0.8-0.1,1.2c-1,0.6-0.8,1.7-0.5,2.6
		c0.2,0.7,0.6,1.3,0.8,2c0,0.1,0,0.3-0.1,0.3c-0.1,0.1-0.4,0.2-0.5,0.1c-0.7-0.5-1.4-0.9-2.2-0.1c-0.1,0.1-0.5-0.1-0.5-0.2
		c-0.5-1.4-1-2.9-1.5-4.4c-0.3-1.1-0.6-2.2-0.7-3.3c-0.1-0.8-0.5-1.2-1.2-1.2c-2.4-0.3-4.8-0.8-7.3-0.8c-1,0-2-0.3-2.9-0.7
		c-1.9-0.9-3.7-1.9-5.6-2.9c-0.3-0.1-0.5-0.3-0.6-0.6c-0.2-0.4-0.3-0.9-0.3-1.3c0-0.2,0.7-0.3,1.1-0.3c0.5-0.1,0.9,0,1.4-0.1
		c-0.3-0.4-0.5-0.7-0.8-1.1c-0.5-0.6-0.6-1.1-0.1-1.8c0.7-1,1.2-2.2,2.2-3c0.5-0.4,0.7-0.9,0.7-1.5c0.2-1.4,0.5-2.8,0.2-4.2
		c-0.1-0.5,0.1-0.9,0.9-1.2c1-0.4,1.2-1.7,1.4-2.7c0.3-2.3,1.3-4.3,2.1-6.4C9.3,0.3,9.6,0.2,9.8,0c0,0.2,0,0.4,0,0.6
		C9.7,0.7,9.7,0.8,9.7,0.8z"/>
	<path d="M27.4,29.2c-1-0.2-2.2-0.5-3.4-0.8c-0.9-0.3-1.8-0.7-2.7-1c-0.6-0.2-0.7-0.6-0.4-1.1c0.7-1.3,0.7-2.7,0.2-4.1
		c-0.2-0.6-0.2-1.1,0.5-1.4c2.2-1,4.3-2.2,6.4-3.3c0.6-0.3,1.1-0.2,1.7,0.1c0.6,0.4,1.2,0.4,1.9,0.2c0.7-0.2,1.5-0.2,2.3-0.2
		c0.3,0,0.8,0.1,1,0.3c0.7,1.1,1.7,1.1,2.8,1.1c0.6,0,1.1,0.1,0.8,0.9c0,0.1,0.1,0.5,0.3,0.6c0.6,0.4,0.9,0.8,0.2,1.3
		c-0.1,0.1,0,0.3,0,0.5c0.3,1,0.3,1-0.5,1.4c-0.4,0.2-0.8,0.2-0.7,0.8c0,0.2-0.7,0.5-1.1,0.7c-0.5,0.1-1,0.1-1.1,0.7
		c-0.1,0.7-0.6,0.8-1.2,0.8c-0.6,0.1-1.3,0.2-1.9,0.3c-0.5,0.1-0.9,0.3-0.7,0.9c0,0.1-0.3,0.5-0.4,0.5c-1.3-0.1-2.6,0.2-3.8,0.8
		C27.7,29.3,27.6,29.2,27.4,29.2z"/>
	<path d="M10.4,16.8c0,1.1-0.9,2.1-1.9,2.1c-1,0-1.6-0.6-1.7-1.6c-0.1-1.2,0.7-2.3,1.7-2.3C9.5,14.8,10.3,15.7,10.4,16.8z"/>
	<path d="M16.8,16.4c-0.4,0.2-1.1,0.2-1.2,0.5c-0.2,0.4-0.1,1,0,1.5c0.1,0.3,0.4,0.4,0.6,0.7c0.3,0.3,0.3,0.6-0.1,0.9
		c-0.7,0.6-1.2,1.3-1.1,2.3c0,0.1-0.1,0.4-0.3,0.4c-0.9,0.3-1.5,0.7-1.3,1.7c0,0.1-0.4,0.4-0.7,0.5c-0.9,0.1-1.7,0.3-2.3,1.1
		c-0.4,0.5-2,0.5-2.7,0.1c-0.1-0.1-0.2-0.2-0.1-0.3c0-0.1,0.2-0.2,0.3-0.2c0.2,0,0.4,0.1,0.7,0.1c0.7,0.1,1.4,0.2,1.7-0.6
		c0.1-0.2,0.4-0.4,0.7-0.5c0.8-0.4,1.7-0.4,2.2-1.5c0.3-0.8,1.3-1.4,1.6-2.3c0.1-0.3,0.2-0.6,0.4-0.8c0.5-0.4,0.4-0.7,0-1.2
		c-1-1.2-0.6-2.6,0.9-3.1C16.6,15.5,16.8,15.8,16.8,16.4L16.8,16.4z"/>
	<path d="M20.5,14c-0.4,0.1-0.6,0.2-0.8,0.2c-0.1,0-0.2-0.2-0.3-0.3c0.2-0.1,0.4-0.2,0.6-0.2C20.2,13.5,20.3,13.7,20.5,14z"/>
</g>
</svg>
