<?xml version="1.0" encoding="iso-8859-1"?>
<!-- Generator: Adobe Illustrator 25.3.0, SVG Export Plug-In . SVG Version: 6.00 Build 0)  -->
<svg version="1.1" id="Calque_1" xmlns="http://www.w3.org/2000/svg" xmlns:xlink="http://www.w3.org/1999/xlink" x="0px" y="0px"
	 viewBox="0 0 83.2 33.3" style="enable-background:new 0 0 83.2 33.3;" xml:space="preserve">
<g>
	<path d="M68.1,17.1c0.1-1.6-0.1-3.1-0.7-4.5c-0.5-1.1-1.4-1.6-2.5-1.4c-0.6,0.1-1.3,0.2-1.9,0.2c-2.9,0-5.8,0-8.6,0
		c-4,0.1-7.9-0.7-11.8-1.7c-1.9-0.5-3.8-1.1-5.7-1.3c-1-0.1-2.1-0.6-3-1c-1.3-0.5-2.5-1.2-3.7-1.8c-0.1-0.1-0.3-0.3-0.2-0.4
		c0-0.1,0.3-0.3,0.4-0.3c1.4,0.3,2.5-0.5,3.7-0.8c1-0.3,2.2,0,3.3,0.2c2.8,0.5,5.5,1.3,8.2,2.2c1.9,0.6,3.9,1,6,0.9
		c1.5-0.1,3.1-0.1,4.6,0.3c1.6,0.4,3.3,0.5,4.9,0.8c0.5,0.1,1,0.2,1.5,0.4c0.4,0.1,0.9,0.3,1.3,0.5c-0.3,0.4-0.6,0.7-0.9,1.1
		c-0.1,0.1-0.1,0.3-0.2,0.4c0.2,0,0.4,0.1,0.5,0.1c1.3-0.3,2.6-0.7,4-0.9c2.6-0.5,5.1-0.8,7.7-1.3c1.1-0.2,2.2-0.5,3.3,0
		c2.1,1.1,3.9,2.4,4.8,4.7c0.6,1.7,0.1,3-0.9,4.3c-1.6,2.1-3.8,2.7-6.3,2.8c-2.3,0.1-4.5-0.1-6.7-0.5c-1-0.2-2-0.1-3,0
		c-0.4,0-0.8,0.3-1.2,0.5c0.4,0.1,0.7,0.3,1.1,0.4c0.5,0.2,0.5,0.5,0.2,0.8c-0.5,0.4-1,0.9-1.5,1.2c-1.6,1.1-3.3,2.1-5,3.1
		c-0.2,0.1-0.3,0.3-0.5,0.3c-2.2,0.1-3.7,1.5-5.6,2.3c-3,1.2-6,2.1-9.2,2.5c-2,0.2-3.6-0.1-5.3-0.9c-1.2-0.6-2.2,0.3-3.3,0.4
		c-0.6,0-1.2,0.4-1.8,0.7c-1.9,0.9-3.9,1.1-5.9,1.2c-1.6,0.1-3.2,0.2-4.8-0.2c-0.3-0.1-1.2-0.6-1.3,0.5c0,0.1-0.3,0.2-0.5,0.2
		c-0.7,0-1.6-0.4-2-0.1c-0.6,0.5-1.2,0.3-1.8,0.5c-0.6,0.1-1,0.1-1.5-0.3c-0.3-0.3-0.8-0.5-1.2,0c-0.1,0.2-0.6,0.2-0.8,0.1
		c-0.4-0.2-0.8-0.7-1.3,0c0,0-0.4-0.1-0.6-0.3c-0.2-0.2-0.3-0.5-0.5-0.8c-1.6-3-4.2-4.9-7-6.6c-1.3-0.8-2.5-1.8-3.8-2.7
		c-0.6-0.4-0.9-1.1-0.8-1.9c0.1-0.7,0.2-1.4,0.2-2.1c0.1-1.3,0-2.6,0.2-3.9c0.2-1.6,0.5-3.2,2.2-4C2.8,9.9,4.3,9.5,4,8.1
		C3.9,7.9,4,7.5,4.1,7.3C4.3,7,4.5,6.9,4.8,6.7C4.9,6.9,5,7.1,5.2,7.2c0.1,0.1,0.3,0.3,0.4,0.4c0-0.2,0.1-0.3,0.1-0.5
		c0-0.8-0.3-1.8,0-2.5C6,3.8,6.8,3.2,7.4,2.4C7.7,2,7.9,2.2,8.3,2.4c0.8,0.3,1,0.6,0.7,1.2C8.8,4.3,8.7,5.2,7.8,5.5
		C7.5,5.6,7.3,5.9,7.1,6.2C7,6.4,7,6.6,7.1,6.8c0,0.1,0.3,0.1,0.5,0.1c1.9-0.2,3.4-1,4.7-2.3c0.9-0.8,1.9-1.3,3-1.4
		c1.2-0.2,1.8-0.9,2.3-1.8c0.1-0.3,0.2-0.6,0.3-0.8c0.3-0.3,0.8-0.7,0.9-0.6c0.6,0.3,0,0.7-0.2,1C18,2.2,18,2.5,19.4,2.7
		C21.1,2.9,22.5,3.4,24,4c1.4,0.6,2.8,1,4.3,0.9c0.2,0,0.5,0.2,0.8,0.3c-0.2,0.1-0.4,0.4-0.7,0.4c-1.6,0.1-3.1-0.1-4.5-0.8
		c-1.7-0.8-3.5-1.2-5.3-1.6c-0.3-0.1-0.6-0.1-0.9,0c-2.1,0.9-4.6,1-6.2,3C10.9,7,9.8,7.2,8.7,7.4C8.2,7.5,7.9,7.7,7.6,8.2
		C7,9.7,6.9,9.7,5.4,9.5C5.2,9.5,5,9.4,4.9,9.4c-0.5,0.1-0.7,0.7-0.5,1.1c0.2,0.2,0.4,0.4,0.6,0.7c0.4,0.6,0.1,1.1-0.2,1.6
		c-0.3,0.5-0.8,0.4-1.3,0.2c-0.3-0.1-0.6-0.3-0.9-0.5c-0.3-0.2-0.4-0.4-0.7,0.1c-0.5,1-1.1,1.9-0.7,3.2c0.2,0.6,0,1.3-0.1,1.9
		c-0.1,1.1-0.4,2.1-0.4,3.1c0,0.8,0.4,1.4,1.2,1.9c1.4,0.9,2.8,1.7,4.2,2.7c1.6,1,3.2,2,4.4,3.6c0.1,0.1,0.5,1.3,0.9,0.1
		c0.1,0.1,0.3,0.1,0.4,0.2c0.3,0.4,0.7,0.8,1,1.2c0.2,0.3,0.2,0.1,0.4,0c0.8-0.7,2.1-0.8,2.9-0.3l1.6,0.5c0.4-0.7,0.8-0.2,1.1,0.1
		c0.4,0.3,0.7,0.7,1.1,1c0.4,0.3,0.6,0.3,0.7-0.3c0.1-0.7,0.7-0.7,1.1-0.5c1.8,0.8,3.8,0.6,5.7,0.6c2.4,0.1,4.6-0.5,6.8-1.4
		c1.7-0.7,3.4-1.1,5.2-1.2c2.7-0.2,5.5-0.6,7.9-2.1c1.8-1.1,3.8-1.3,5.7-2.1c3.3-1.3,6.7-2.5,9.6-4.7c0.3-0.2,0.6-0.3,1-0.4
		c1.2-0.4,2.4-0.7,3.6-1.1c0.1,0,0.2,0,0.3,0c2.8-0.5,5.6,0.4,8.4,0.2c1.8-0.1,3.4-0.6,4.6-2c1.3-1.4,1.4-2.8,0.2-4.3
		c-1.5-1.9-3.3-2.9-5.9-2.5c-1.9,0.3-3.7,0.8-5.7,1c-0.8,0.1-0.6,0.3-0.3,0.8c0.6,1.2,1.1,2.5,0.8,3.9c-0.1,0.6-0.3,1.1-1.1,1.2
		C68.3,17.1,68.2,17.1,68.1,17.1z"/>
	<path d="M28.9,24.2c-1,0-0.7-0.9-1-1.4c0,0,0.3-0.3,0.3-0.3c0.5,0.3,0.8,0,1-0.4c0.7-1.4,1.5-2.7,2.2-4c0.1-0.2,0.1-0.5,0.2-0.8
		c-0.2,0.2-0.5,0.3-0.7,0.6c-0.4,0.6-0.8,1.1-1.3,1.7c-0.3,0.3-0.5,0.7-0.8,0.9c-0.4,0.2-0.9,0.5-1.3,0.4c-0.7-0.2,0-0.8-0.1-1.2
		l0,0c0.4,0.2,0.9,0.4,1.3-0.1c1.2-1.7,2.5-3.3,3.7-5c0.2-0.3,0.2-0.8,0.7-0.5c0.2,0.1,0.2,0.5,0.2,0.7c0,1.1-0.1,2.3-0.1,3.4
		c0,0.2,0.1,0.3,0.1,0.5c0.2-0.1,0.4-0.2,0.6-0.3c0.2-0.1,0.4-0.2,0.6-0.3c0.1,0.2,0.2,0.5,0.2,0.7c-0.1,0.6-0.4,1.1-0.6,1.7
		c-0.3,0.9-0.3,1,0.8,1.1c0.4,0,0.5,0.3,0.3,0.6c-0.4,0.6-0.9,1.2-1.4,1.8c-0.3,0.4-0.9,0.7-0.8,1.5c0,0.5-0.7,1-1.1,1.5
		c-0.4,0.5-0.9,0.6-1.2,1.4c-0.5,1.4-4.4,3.1-5.8,2.9c-0.5-0.1-1-0.3-1.5-0.6c-0.5-0.4-0.9-0.9-1.3-1.3c0.8-0.4,1.2,0.2,1.7,0.6
		c0.9,0.6,1.7,0.7,2.7,0.2c0.5-0.2,0.9-0.5,1.4-0.7c0.7-0.2,0-0.3,0-0.5c0.1-0.3,0.1-0.6,0.3-0.7c0.3-0.2,0.7-0.3,1-0.4
		c0.5-0.2,0.7-1.2,0.5-1.7C29.6,25.2,29.4,24.6,28.9,24.2c1.2-1.5,2.3-2.9,3.3-4.6c0.1-0.1,0.1-0.2,0.1-0.3c0,0.1,0,0.2-0.1,0.3
		C31.2,21.3,30,22.7,28.9,24.2z"/>
	<path d="M27.4,19.6c-0.5-0.2-0.8-0.5-0.6-1.1c0.1-0.1,0-0.3,0-0.5c-0.1,0.1-0.3,0.1-0.4,0.2c-0.1,0.1-0.1,0.2-0.2,0.3
		c-0.3,0.2-0.7,0.6-0.8,0.5c-0.6-0.4,0-0.7,0.2-1c0.5-1.5,1.1-3,1.6-4.5c0.1-0.3,0.2-0.8,0.5-0.9c1.1-0.4,2.2-0.8,3.4-1.1
		c0.6-0.1,0.9,0.3,0.6,0.8c-1,2-2,4-3,6c-0.2,0.5-0.5,0.8-1.1,0.5C27.7,19.1,27.5,19.4,27.4,19.6L27.4,19.6z"/>
	<path d="M23.2,19.6c-0.1,0.1-0.1,0.3-0.2,0.4c-0.2-0.1-0.5-0.3-0.5-0.4c-0.3-1.7-1.5-2.9-2.2-4.4c-0.1-0.2-0.4-0.3-0.7-0.5
		c-0.1,0.2-0.3,0.4-0.4,0.6c-0.8,3.9-3.8,6-6.9,7.9c-0.8,0.5-1.9,0.4-2.9,0.5c-0.1,0-0.3-0.3-0.5-0.4c0.1-0.1,0.3-0.2,0.4-0.2
		c2.3,0.2,3.8-1.2,5.4-2.5c1.7-1.4,2.9-3,3.6-5.1c0.4-1.3,0.3-2.4-0.3-3.6c-0.3-0.6-0.8-1.2-1.1-1.8c-0.1-0.1-0.1-0.4,0-0.4
		c0.1-0.1,0.4-0.1,0.5-0.1c0.2,0.1,0.5,0.3,0.6,0.6c0.2,0.3,0.4,0.7,0.6,1.1c1.2,1.9,2.4,3.8,3.5,5.7C22.6,17.8,23.2,18.6,23.2,19.6
		z"/>
	<path d="M16.3,12.5c0.1,1.5-0.5,2.8-1.2,4c-0.2,0.3-0.5,0.5-0.8,0.7c-0.1,0.1-0.4,0-0.4-0.1c-0.1-0.1-0.1-0.3,0-0.5
		c0.3-0.6,0.8-1.1,1-1.6c0.3-1,0.4-2.1,0.6-3.1c0-0.2,0-0.5,0.1-0.7c0-0.1,0.3-0.2,0.4-0.2c0.1,0,0.2,0.1,0.2,0.2
		C16.3,11.7,16.3,12.1,16.3,12.5z"/>
	<path d="M4.4,22c0.4,0.2,0.7,0.3,1,0.5c0.1,0.1,0.2,0.4,0.2,0.5c-0.2,0-0.5,0.2-0.6,0.1c-0.3-0.2-0.5-0.4-0.8-0.7
		C4.2,22.4,4.4,22.2,4.4,22z"/>
	<path d="M6.8,23c0.5,0.1,0.8,0.1,1.1,0.1c0.1,0,0.3,0.3,0.2,0.3c-0.1,0.1-0.3,0.3-0.4,0.3c-0.3,0-0.6-0.1-0.8-0.2
		c-0.2-0.1-0.3-0.2-0.5-0.4C6.6,23.1,6.8,23,6.8,23z"/>
	<path d="M41.1,21.5c-0.2-0.3-0.4-0.6-0.3-0.7c0.1-0.2,0.3-0.4,0.6-0.5c0.1,0,0.4,0.3,0.4,0.4C41.6,21,41.4,21.1,41.1,21.5z"/>
	<path d="M58.5,17.2c-0.3,0.2-0.5,0.4-0.8,0.5c-0.1,0-0.4-0.4-0.3-0.4c0.1-0.2,0.3-0.4,0.6-0.5C58,16.7,58.2,17,58.5,17.2z"/>
	<path d="M53.6,17.6c0.2,0.3,0.5,0.5,0.4,0.6c0,0.2-0.3,0.3-0.5,0.5c-0.2-0.2-0.4-0.3-0.4-0.5C53.1,18.1,53.3,17.9,53.6,17.6z"/>
	<path d="M67,18.9c0.4-0.6,0.7-1.2,1.1-1.8l0,0C68.7,18.5,68.5,18.8,67,18.9L67,18.9z"/>
	<path d="M43,19.3c0.4,0.7,0.6,0.9,0.5,1c-0.1,0.2-0.3,0.3-0.5,0.4c-0.1-0.2-0.4-0.3-0.4-0.5C42.6,20.1,42.8,19.9,43,19.3z"/>
	<path d="M55.4,18.1c-0.1-0.2-0.3-0.4-0.2-0.5c0.2-0.2,0.4-0.3,0.6-0.5c0.1,0.2,0.3,0.3,0.4,0.5C55.9,17.7,55.7,17.9,55.4,18.1z"/>
	<path d="M51.2,17.9c0.2,0.4,0.3,0.6,0.3,0.8c0,0.2-0.3,0.3-0.5,0.4c-0.1-0.1-0.3-0.3-0.2-0.4C50.8,18.5,51,18.3,51.2,17.9z"/>
	<path d="M49,19.7c-0.1-0.4-0.3-0.6-0.2-0.8c0-0.2,0.3-0.4,0.4-0.4c0.2,0,0.3,0.2,0.5,0.3C49.5,19,49.4,19.1,49,19.7z"/>
	<path d="M47.8,19.2c-0.3,0.3-0.4,0.4-0.5,0.6c-0.1-0.2-0.3-0.3-0.4-0.5c0-0.1,0.1-0.4,0.2-0.4C47.3,18.9,47.5,19.1,47.8,19.2z"/>
	<path d="M44.8,19.4c0.3,0.2,0.4,0.4,0.6,0.5c-0.1,0.1-0.3,0.3-0.4,0.4c-0.1,0-0.4-0.1-0.4-0.2C44.5,19.9,44.6,19.7,44.8,19.4z"/>
	<path d="M39.4,21.2c-0.2,0.2-0.3,0.4-0.4,0.4c-0.2,0-0.4-0.2-0.6-0.3c0.1-0.2,0.2-0.3,0.3-0.5C38.9,20.9,39.1,21,39.4,21.2z"/>
	<path d="M59.8,16.2c0.2,0.4,0.4,0.5,0.4,0.7c0,0.1-0.1,0.3-0.2,0.4c-0.2-0.1-0.4-0.2-0.5-0.4C59.5,16.8,59.6,16.6,59.8,16.2z"/>
	<path d="M19.7,27.5c-0.3-0.2-0.5-0.4-0.7-0.5c0.1-0.1,0.2-0.3,0.3-0.3c0.3,0.1,0.5,0.3,0.7,0.4C19.9,27.2,19.8,27.3,19.7,27.5z"/>
	<path d="M61.2,17.6c-0.1-0.4-0.3-0.7-0.2-0.8c0.1-0.2,0.3-0.2,0.5-0.3c0.1,0.1,0.2,0.3,0.2,0.4C61.6,17,61.4,17.2,61.2,17.6z"/>
</g>
</svg>
