<?xml version="1.0" encoding="iso-8859-1"?>
<!-- Generator: Adobe Illustrator 25.3.0, SVG Export Plug-In . SVG Version: 6.00 Build 0)  -->
<svg version="1.1" id="Calque_1" xmlns="http://www.w3.org/2000/svg" xmlns:xlink="http://www.w3.org/1999/xlink" x="0px" y="0px"
	 viewBox="0 0 235.9 69.4" style="enable-background:new 0 0 235.9 69.4;" xml:space="preserve">
<g>
	<path d="M212.7,52.8c-5-1-10.2-1.5-15-3c-6-1.8-11.8-1-17.7-0.3c-5.6,0.6-11.2,1.4-16.7,1.8c-5.8,0.5-11.6,0.7-17.4,1
		c-0.3,0-0.6,0.2-0.9,0.2c0.2,0.4,0.4,0.9,0.7,1.2c1.6,1.5,3.2,2.9,4.8,4.4c2.2,2,4.5,4,6.6,6.1c1.2,1.2,1.1,2.4-0.5,3.1
		c-1,0.5-2.2,0.7-3.3,0.6c-3.3-0.2-6.6-0.5-9.9-0.8c-3.6-0.3-7.3-0.4-10.8-1.2c-2.3-0.6-4.4-2.3-6.5-3.6c-0.8-0.5-1.5-1.3-2.2-2
		c-4.7-4.2-9.8-6.3-16.5-6.5c-8.5-0.2-16.9-0.3-25.4-0.7c-2.8-0.2-5.5-0.9-8.3-1.3c-0.6-0.1-1.2-0.1-1.8-0.1
		c0.4,0.5,0.8,1.1,1.3,1.5c2.7,2.3,5.3,4.5,8,6.7c0.6,0.5,1.4,0.9,2,1.5c1.4,1.6,2.7,3.2,4.1,4.8c-2,1-4,2.3-6.2,2.8
		c-6.8,1.5-15.8-2.2-19.1-8c-1.2-2-1.3-4.7-1.6-7.2c-0.2-1.9-0.9-2.8-2.7-2.6c-8.6,0.8-16.8-1.2-24.9-3.7c-3.6-1.1-7.4-1.6-11.2-2.3
		c-0.3-0.1-0.7,0-1-0.1c-6.8-3.7-14.1-6.9-18.7-13.6c-2.7-4-2.3-5.7,1.7-8.6c3.4-2.4,6.9-4.5,11.2-5.2c2.1-0.3,4.1-1.4,6.2-2
		c1.3-0.4,2.7-0.9,3.9-0.7c7.8,1.5,15.5-0.6,23.2-0.1c5.5,0.3,11,0.1,16.5,0.2c2.6,0.1,5.2,1.3,7.8,0c0.8-0.4,1.5-1,2-1.7
		c2.3-3.2,4.6-6.5,6.8-9.8c2.3-3.4,5.6-4,9.2-3.5c2.9,0.4,5.8,1.3,8.6,2c1.6,0.4,3.2,0.7,2.9,3.1c-0.1,0.5,2,1.3,3.2,1.8
		c1.1,0.5,1.7,1.3,1.2,2.3c-1.2,2.4-0.3,3.3,2,3.8c0.7,0.1,1.3,0.7,2,1.1c-0.6,0.7-1.1,1.4-1.7,2c-0.3,0.4-0.8,0.6-1.1,0.9
		c-0.4,0.6-1.3,1.5,0.2,1.8c1.8,0.4,3.6,0.7,5.4,0.9c2.1,0.3,2.7-1.6,3.9-2.6c3.7-3.1,7.5-6,11.3-8.9c1.1-0.9,2.2-1.4,3.6-0.7
		c0.6,0.3,1.3,0.3,2,0.2c8.1-0.6,15.7,2.3,23.6,3.3c4.9,0.6,8.3,4,11.2,7.7c0.6,0.7,0.8,1.8,1,2.8c0.7,3.3,0.7,3.1,3.5,3.4
		c6.1,0.6,11.5-1.5,16.7-3.9c5-2.3,9.9-4.7,14.7-7.3c8-4.4,15.7-3.8,23.1,1c2.5,1.6,4.8,4.4,6,7.1c2.1,4.8,2.9,10,1.9,15.4
		c-0.8,4.5-3,7.6-6.8,9.8C223.7,50.1,218.8,52.9,212.7,52.8z"/>
	<path d="M104.3,19.2c-0.4,0.3-0.7,0.8-1.1,0.9c-1.4,0.2-2.1,0.6-1.3,2.2c1.6,3.3,3.1,6.6,4.5,10c1.8,4.4,1.2,8.5-1.8,12.1
		c-3.1,3.8-7.2,4.7-11.9,4c-6.7-0.9-13.4-1.5-20.2-2.2c-1.2-0.1-2.4,0.1-3.4-0.3c-1-0.4-1.7-1.3-2.5-2c0.8-0.9,1.5-1.7,2.3-2.5
		c0.1-0.1,0.7,0,0.8,0.2c0.1,0.1,0.1,0.6-0.1,0.8c-0.8,1.1-0.9,1.5,0.7,1.7c7.7,1.2,15.4,1,23.1,2.6c6.4,1.4,12.3-2.5,11.9-9.7
		c-0.1-2.5-0.3-4.9-1.6-7.2c-0.8-1.4-1.6-2.9-2.2-4.5c-1.3-4-3.5-6.8-8.2-6.3c-5.9-3-10.3,0.6-14.9,3.4c-1.1,0.7-2.2,1.5-3.2,2.4
		c-2.7,2.2-5.4,4.3-8,6.5c-0.1,0.1-0.6,0-0.7-0.1c-0.2-0.3-0.3-0.8-0.1-0.9c1.2-1.4,2.2-2.9,3.6-4c3.6-2.7,7.4-5.1,11-7.6
		c0.4-0.3,0.6-0.8,0.9-1.1c-0.5-0.1-0.9-0.4-1.4-0.3c-1,0-1.9,0.2-2.9,0.3c-0.2,0-0.5-0.4-0.6-0.7c0-0.2,0.3-0.6,0.4-0.6
		c2.2-0.1,4.3-0.1,6.5-0.1c1.6,0,3.3,0.3,4.8-0.2c2-0.7,3.9-0.3,5.8,0.2c3.3,0.9,6.6,1.9,9.9,2.9L104.3,19.2z"/>
	<path d="M116.2,21.1c7.7-0.4,15.1,1.6,22.5,3c0.5,0.1,0.8,0.8,1.2,1.3c-0.6,0.2-1.2,0.6-1.7,0.5c-5.7-0.9-11.4-1.8-17-2.9
		C119.4,22.8,117.8,21.8,116.2,21.1L116.2,21.1z"/>
	<path d="M196.4,35c0.3,3.6-1.8,6.4-3,9.4c-0.1,0.3-0.8,0.4-1.2,0.6c-0.1-0.4-0.3-0.9-0.2-1.2c0.7-2.7,1.8-5.3,2.2-8.1
		c0.5-3.7-0.1-7.3-3-10.1c-0.2-0.2-0.1-0.8-0.2-1.2c0.4,0.1,1,0,1.3,0.3C195.4,27.4,195.8,31.2,196.4,35z"/>
	<path d="M156.2,27.2c-1.8,0-3.1,0.1-4.4,0c-0.3,0-0.6-0.5-0.9-0.8c0.3-0.3,0.6-0.9,1-0.9c1.3-0.2,2.6-0.3,3.9-0.2
		c1.7,0.1,3.4,0.5,5.1,0.8C159.6,28.4,157.4,26.6,156.2,27.2z"/>
	<path d="M146.1,25.1c0.3,0.1,1.4,0.7,2.5,1.2c-0.8,1.5-2.2,0.6-3.4,0.7c-0.6,0.1-1.3-0.2-1.9-0.5c-0.3-0.1-0.6-0.6-0.6-0.7
		c0.2-0.3,0.5-0.7,0.9-0.8C144.1,25,144.7,25.1,146.1,25.1z"/>
	<path d="M73.6,36.6c-0.6,0.6-1.1,1-1.5,1.3c-0.2-0.5-0.4-1-0.6-1.5c-0.2-0.7-0.5-1.4-0.6-2.1c-0.1-0.3,0.2-0.7,0.3-1.1
		c0.3,0.1,0.7,0.1,0.9,0.3C72.6,34.5,73,35.5,73.6,36.6z"/>
</g>
</svg>
