<?xml version="1.0" encoding="iso-8859-1"?>
<!-- Generator: Adobe Illustrator 25.3.0, SVG Export Plug-In . SVG Version: 6.00 Build 0)  -->
<svg version="1.1" id="Calque_1" xmlns="http://www.w3.org/2000/svg" xmlns:xlink="http://www.w3.org/1999/xlink" x="0px" y="0px"
	 viewBox="0 0 85.3 16.6" style="enable-background:new 0 0 85.3 16.6;" xml:space="preserve">
<g>
	<path d="M78.7,12.3c-1.6,0.2-3.6,0.5-5.6,0.7c-1.4,0.1-2.8,0.1-4.1,0.1c-1.2,0-2.5,0.1-3.7-0.3c-0.4-0.1-0.7-0.3-1.1-0.5
		c-1.1-0.5-2.2-1.1-3.3-1.6c-0.2-0.1-0.2,0-0.2,0.4c0.1,0.4,0.1,0.8,0,1.2c0,0.2-0.2,0.4-0.3,0.4c-0.6,0.1-1.2,0-1.8,0
		c-0.7,0-1.3,0.2-2,0.4c-0.9,0.3-2.1,0.2-3.1,0.1c-1-0.2-2-0.6-3.1-0.9c-0.5-0.1-1.2-0.3-1.7-0.1c-1.1,0.5-2.3,0.7-3.4,0.9
		c-1,0.2-1.8,0.6-2.7,0.9c-1.6,0.6-3.1,0.8-4.8,0.9c-2.3,0.1-4.6-0.5-6.8-0.6c-1.6-0.1-3.1-0.7-4.6-1.1c-1.1-0.2-2.3-0.3-3.4-0.5
		c-0.2,0-0.4,0-0.5,0.1c-2.1,1.2-4.4,1.3-6.7,1.7c-1.3,0.2-2.6,0.4-3.8,0.7c-0.7,0.2-1.5,0.4-2.2,0.8c-1.1,0.7-2.1,0.7-3.2,0.2
		C6,16.1,5.7,16.1,5.5,16c-0.9-0.4-1-0.7-0.4-1.5c0.1-0.1,0.1-0.2,0.2-0.3c0.1-0.2,0.2-0.3,0.4-0.5c0.1,0.2,0.1,0.3,0.2,0.5
		c0.1,0.2,0.1,0.5,0.2,0.7c0.3-0.1,0.6-0.3,0.8-0.4C7,14.3,7,14.1,7.2,13.9c0.4-0.4,0.7-0.5,0.8,0.2c0,0.2,0.1,0.3,0.1,0.5
		c0.4-0.7,0.6,0,0.9,0.1c0.1,0,0.3-0.3,0.3-0.5c0.1-0.3,0.1-0.8,0.5-0.7c0.3,0.1,1.1-0.3,1,0.5c0,0.1,0.2,0.2,0.3,0.3
		c0-0.2,0-0.3,0.1-0.5c0-0.2,0-0.4,0.1-0.5c0.1-0.1,0.4-0.2,0.5-0.1c0.2,0.1,0.3,0.4,0.5,0.6c0-0.2,0.1-0.4,0.1-0.6
		c0.1-0.7,0.4-1.1,1.1-1c1.7,0.3,2.3-1.2,3.4-1.8c0,0-0.1-0.4-0.2-0.5c-0.6-0.3-1.2-0.6-1.8-0.8c-1.5-0.5-1.5-0.5-1.5,1
		c0,0.1-0.1,0.2-0.1,0.3c-0.1-0.1-0.4-0.1-0.4-0.2c-0.2-1.1-0.7-1.1-1.7-0.8c-0.5,0.2-1.2,0.2-1.8-0.4c-1-0.9-1.8-0.7-2.7,0.3
		C6.5,10,6,10.5,5.5,11c-0.1,0.1-0.3,0.1-0.4,0.1c0-0.2-0.1-0.4-0.1-0.5C5.2,10,5.4,9.5,5.6,8.9c0-0.1,0-0.2-0.1-0.3
		C5.5,8.7,5.3,8.7,5.3,8.8C5,9.4,4.8,10,4.5,10.6c-0.1,0.2-0.3,0.4-0.4,0.6c-0.1-0.3-0.2-0.5-0.2-0.8c0-0.3,0.3-0.6,0.2-0.8
		C4,8.9,3.7,8.4,3.5,7.9c-0.1,0.5-0.2,1-0.2,1.5c0,0.2,0.1,0.5,0.1,0.7c0,0.1-0.1,0.3-0.1,0.4c-0.1-0.1-0.3-0.2-0.4-0.3
		c-0.2-0.3-0.3-0.6-0.4-1C2.4,8.9,2.3,8.6,2.3,8.3C2,8.5,1.7,8.7,1.5,9C1.2,9.5,1,10.1,0.7,10.6c-0.1,0.2-0.4,0.3-0.6,0.5
		c0-0.2-0.2-0.5-0.1-0.7c0.4-0.9,0.8-1.7,1.2-2.5c0.2-0.4,0.6-0.8-0.3-1c-0.1,0-0.3-0.5-0.3-0.7c0.1-0.3,0.5-0.6,0.8-0.7
		c0.7-0.2,1.4-0.2,2.1-0.4C4.1,5,4.4,4.7,4.1,4.1C4,3.9,4.1,3.4,4.2,3.3c0.7-0.4,1.3-1,2.2-1c2.9-0.1,5.6-0.7,8.3-1.8
		c0.8-0.3,1.4-0.4,2.2-0.2c1.5,0.4,3,0.6,4.5,0.9c0.5,0.1,0.9-0.1,1.4-0.1c0.3,0,0.6-0.3,0.8-0.2c1.5,0.6,3-0.4,4.5,0.1
		c1.5,0.5,3,0.8,4.5,1.1C34.5,2.5,36.3,2.9,38,3c1.1,0.1,2.2,0.6,3.3,0c1-0.5,2.1-0.9,3.1-1.4c1.1-0.4,2.2-0.8,3.3-1.3
		c1-0.4,1.8-0.6,2.8,0.1c0.4,0.3,1.2,0.4,1.7,0.3c0.7-0.3,1.1-0.1,1.6,0.4c0.2,0.2,0.4,0.4,0.6,0.4c0.9-0.1,1.6,0.4,2.3,0.8
		c0.4,0.2,1.1,0.4,1.1,0.6c0,0.6,0.5,0.6,0.8,0.8c0.5,0.3-0.3,1,0.4,1.1c-0.2,0.5,0,0.8,0.5,0.7c0.3,0,0.6-0.1,0.9-0.2
		c1.3-0.5,2.6-1.1,3.9-1.7c0.5-0.2,1-0.3,1.6-0.3c2.8,0,5.5,0,8.3,0c0.7,0,1.2,0.1,1.9,0.5c0.7,0.4,1.6,0.5,2.4,0.6
		c0.8,0.1,1.6,0,2.3,0c0.9,0,1.7,0.1,2.2,0.9c0.1,0.2,0.3,0.4,0.5,0.5c1,0.1,1.3,0.7,1.2,1.6c0,0.3,0.3,0.6,0.4,0.9
		c0.1,0.2,0.2,0.4,0.2,0.5c-0.7,0.6-0.2,2.1-1.6,2.2c-0.2,0-0.5,0.1-0.6,0.3C81.9,12.5,80.5,12.5,78.7,12.3z"/>
	<path d="M24.2,1.7c0,0.2,0,0.5-0.1,0.7c-0.4,0.8-0.4,0.8-1.5,0.4c-0.1,0-0.2,0-0.3,0c-0.2-0.1-0.3-0.2-0.5-0.3
		C22,2.3,22.1,2.1,22.3,2c0.3-0.1,0.6-0.2,0.9-0.3C23.5,1.7,23.9,1.7,24.2,1.7z"/>
	<path d="M17.7,1.3C18.8,2,19.8,2.8,21,3.4c0.3,0.2,0.7,0.2,1,0.1c0.4-0.1,0.7-0.1,0.9,0.3c0,0-0.4,0.3-0.6,0.4
		c-2.5,0.5-4.9,1.6-7.5,1.3C12.5,5.3,10.4,5,8.5,4.1C8.3,4,8.2,3.7,8.1,3.5c0.2,0,0.5-0.1,0.7-0.1c1.5,0.4,3.1,0.9,4.6,1.2
		c1.7,0.3,3.4,0.3,5.1-0.2c0.1,0,0.2-0.1,0.3-0.1c-0.1-0.1-0.2-0.2-0.3-0.2c-1.1-0.7-2-1.7-3.3-2.1c-0.1,0-0.2-0.2-0.3-0.3
		c0.1,0,0.2-0.1,0.3-0.1c0.9-0.2,1.5,0.3,2,0.9c0.1,0.1,0.2,0.1,0.3,0.1c0-0.1,0-0.3-0.1-0.4c-0.2-0.2-0.4-0.5-0.6-0.7
		c0.2-0.1,0.3-0.2,0.5-0.3L17.7,1.3z"/>
	<path d="M13,5.9c1.7,0,3.3,0,5,0c0.9,0,1.9,0.1,2.8-0.4c0.8-0.4,1.3,0.1,1.2,1c0,0.1-0.1,0.2-0.2,0.3c-0.1-0.1-0.2-0.2-0.2-0.3
		c-0.1-0.7-0.6-0.5-1.1-0.4c-2.4,0.1-4.9,0.1-7.3,0.1C13.1,6.2,13,6,13,5.9L13,5.9z"/>
</g>
</svg>
