<?xml version="1.0" encoding="iso-8859-1"?>
<!-- Generator: Adobe Illustrator 25.3.0, SVG Export Plug-In . SVG Version: 6.00 Build 0)  -->
<svg version="1.1" id="Calque_1" xmlns="http://www.w3.org/2000/svg" xmlns:xlink="http://www.w3.org/1999/xlink" x="0px" y="0px"
	 viewBox="0 0 230.3 154.3" style="enable-background:new 0 0 230.3 154.3;" xml:space="preserve">
<g>
	<path d="M0.3,84.8C0,77-0.2,69.2,1.9,61.5c0.3-1.2,0.1-2.7,0.1-4C2,43.7,6.9,31.7,15.7,21.1c3.4-4.1,7.8-7.3,12.4-9.9
		c8.2-4.8,17.3-7.3,26.6-9.4C64.4-0.4,74.1,0,83.9,0.1c3.4,0.1,6.9,1,10.2,1.9c15,4.1,26.9,12.7,35.7,25.5
		c3.5,5.1,5.9,10.9,4.1,17.4c-0.3,1.2,0.4,1.1,1,0.8c3-1.6,6-2.7,9.5-2.7c3.5,0,6.5,1,9,3.5c5,5.1,10.4,9.9,12.9,16.9
		c0.4,1,0.7,1.1,1.7,0.9c2.8-0.6,5.2,0.7,7.6,1.9c2.1,1.1,2.2,2.2,0.3,4.2c-0.7,0.7-1.8,1.3,0.2,1.6c5.5,0.9,11,1.9,16.5,2.9
		c2,0.4,3.5-0.3,5-1.5c5.3-3.9,10.7-7.8,16.2-11.5c3.2-2.1,6.4-4.2,10.5-4c5,0.3,7.3,4.1,5.1,8.6c-1,2.2-2.6,3.8-4.9,4.6
		c-4.5,1.6-9,3.2-13.6,4.8c-4.4,1.6-8.7,3.2-13.1,4.7c-6.4,2.2-12.9,4.1-19.8,4.4c-1.7,0.1-1.3,0.5-0.6,1.7c1.5,2.7,1,4.6-1.5,5.7
		c-2.4,1.1-5,1.8-7.6,2.3c-1.1,0.2-1.6-0.1-2.4,1.3c-3.2,6.5-8.3,11.1-15,13.9c-0.8,0.3-1.6,0.5-2.4,0.8c-4.5,1.5-9,2.2-13.5-0.2
		c-1.2-0.7-1.9-0.2-1.9,1.2c0.2,7.6-3.6,13.1-8.6,18.3c-7.7,8.1-17.3,13.3-27.4,17.8c-6.8,3-14,5.1-21.4,6
		c-7.5,0.8-14.8-0.5-22.1-2.4c-12.4-3.3-22.5-10.5-32.1-18.4c-2.4-2-4.8-4.1-7.1-6.2c-7.9-7.2-12.4-16.4-14.1-26.8
		C-0.4,95.2,0.3,89.9,0.3,84.8z"/>
	<path d="M86.9,43c7.6,0.9,14.3,2.7,20.3,6.2c0.3,0.2,0.4,0.8,0.6,1.2c-0.4,0-0.9,0.1-1.3-0.1c-4.2-2-8.5-3.3-13.1-4.4
		c-7.6-1.7-14.3-0.2-20.6,4.1c-0.4,0.3-0.8,0.7-1.2,0.9c-0.2,0.1-0.7,0-0.8-0.2c-0.1-0.1,0-0.7,0.2-0.8c2.3-1.6,4.5-3.5,7-4.5
		C81,44.1,84.3,43.6,86.9,43z"/>
	<path d="M35.2,127.2c-2,0-4,0.1-6,0c-1.4-0.1-2.9-0.7-4.3-1.1c-0.2-0.1-0.4-0.5-0.5-0.8c0.3-0.2,0.7-0.4,1-0.4
		c0.8,0,1.7,0.1,2.5,0.3c7.5,2.2,14.7,0.2,21.8-1.8c2.5-0.7,5-1.8,7.4-2.7c0.4-0.1,0.9-0.1,1.3-0.1c-0.3,0.5-0.5,1.2-0.9,1.4
		c-5.8,2.8-11.8,5-18.4,5.2C37.9,127.2,36.5,127.2,35.2,127.2C35.2,127.2,35.2,127.2,35.2,127.2z"/>
	<path d="M27.6,85.2c-3.4-0.5-5.8-0.7-8.2-1.2c-0.8-0.2-1.6-1.2-1.8-2c-0.1-0.4,0.7-1.4,1.4-1.8c2-1.4,4.3-1.3,5.9,0.3
		c0.7,0.7,0.8,2,1.1,3c0.8-0.8,1.5-1.8,2.5-2.3c0.5-0.2,1.5,0.4,2.1,0.9c0.2,0.2,0,1.3-0.4,1.6C29.1,84.5,28,85,27.6,85.2z"/>
	<path d="M26.1,67.7c-0.2,0.6-0.3,1.2-0.6,1.5c-1.5,1.4-3.3,2.4-5.3,1.8c-1.1-0.4-2.5-1.8-2.7-2.9c-0.2-1.4,1.4-2,2.8-1.9
		c1.3,0,2.6-0.1,3.9,0.2C25,66.3,25.5,67.1,26.1,67.7z"/>
	<path d="M46.2,49.7c3.2,0.6,5.8,1,8.4,1.5c0.5,0.1,0.9,0.7,1.3,1.1c-0.7,0.2-1.4,0.7-2.1,0.6c-1.5-0.1-2.9-0.5-4.3-0.8
		c-3.3-0.6-6.5-0.4-9.7,1c-0.3,0.1-0.8-0.4-1.1-0.6c0.2-0.3,0.3-0.7,0.5-0.8C41.7,50.9,44.1,50.2,46.2,49.7z"/>
	<path d="M51,99.2c-3.7,0.4-7.5-0.4-11.3-1.8c-0.4-0.1-0.6-0.6-0.9-0.9c0.5-0.1,0.9-0.4,1.4-0.3c1.6,0.3,3.2,0.6,4.8,1
		c3.9,1.1,7.7,1.4,11.7,0.1c1.1-0.4,2.6,0.1,3.9,0.2c-1.2,0.6-2.5,1.4-3.8,1.6C55,99.4,53.2,99.2,51,99.2z"/>
	<path d="M91.8,109.7c-2.8-0.9-5.6-1.7-8.3-2.9c-1.8-0.7-3.3-2-4.9-3c2.1-0.8,3.5,0.9,5.1,1.6c3.3,1.5,6.6,1.9,10.1,1.8
		c0.7,0,1.3,0.5,2,0.8c-0.6,0.4-1.2,0.9-1.9,1.1c-0.6,0.2-1.3,0-2,0C91.9,109.3,91.9,109.5,91.8,109.7z"/>
	<path d="M41.8,69.9c-0.1,0.3-0.2,0.6-0.3,0.9c-1.6,3.6-1.9,7,1,10.1c0.1,0.2,0.2,0.7,0,0.8c-0.2,0.2-0.6,0.3-0.8,0.2
		c-3.8-2-4.3-9.8-0.9-12.6c0.1-0.1,0.4-0.1,0.5,0C41.4,69.4,41.6,69.7,41.8,69.9z"/>
	<path d="M27.3,64.1c2.4,0.3,4.1,1.6,3.7,2.9c-0.2,0.8-1.1,1.7-1.9,1.9c-1,0.3-2.7-2.1-2.7-3.7C26.4,64.8,27.1,64.3,27.3,64.1z"/>
	<path d="M33.7,53.6c0.3-0.2,0.6-0.5,0.8-0.4c1.3,0.5,2.7,0.9,3.9,1.6c0.6,0.3,0.9,1.3,1.3,1.9c-0.7-0.2-1.4-0.3-2.1-0.6
		c-1.2-0.5-2.3-1.1-3.5-1.7C33.9,54.3,33.8,53.9,33.7,53.6z"/>
	<path d="M144.1,78.1c3.5,0,7,0,10.5,0c0.3,0,0.6,0.3,0.9,0.4c-0.3,0.2-0.5,0.5-0.8,0.4C151.2,78.7,147.5,80.2,144.1,78.1
		L144.1,78.1z"/>
	<path d="M32.5,96.2c-0.3-0.3-0.6-0.7-1-1.1c0.3-0.3,0.7-0.7,1.1-0.8C33,94,33.5,94,34,94c1,0.1,2.1-1.8,2.8,0
		c0.1,0.3-1.6,1.3-2.5,1.9C33.9,96.2,33.3,96.1,32.5,96.2z"/>
	<path d="M73.1,101.1c-1.4-0.8-2.8-1.6-4.1-2.5c-0.9-0.6-1.7-1.2-2.6-1.7c1.4-1.3,2.5,0,3.4,0.6C71.1,98.5,72.1,99.9,73.1,101.1
		L73.1,101.1z"/>
	<path d="M158.3,101c-0.6,0.5-0.9,0.9-1.3,1c-1.1,0.2-1.9-0.2-1.8-1.5c0-0.4,0.6-1,0.7-1C156.7,99.9,157.4,100.3,158.3,101z"/>
	<path d="M27.5,23.5c-0.1,0.1-0.1,0.3-0.2,0.4c-1.1,0.6-2.3,1.2-3.4,1.7c-0.1,0-0.3-0.4-0.5-0.6c1.2-0.6,2.4-1.2,3.7-1.8
		C27.2,23.2,27.4,23.4,27.5,23.5z"/>
	<path d="M158.1,60.4c-0.7-0.8-1.4-1.3-1.4-1.7c0-0.5,0.8-0.9,1.3-1.3c0.4,0.4,1,0.8,1.1,1.3C159.1,59.1,158.5,59.6,158.1,60.4z"/>
	<path d="M14.7,58.6c0.4,0.2,0.8,0.4,1.1,0.7c0.7,0.7,1.3,1.5,1.9,2.2c0,0-0.3,0.3-0.3,0.3c-0.9-0.6-1.8-1.2-2.7-1.9
		c-0.2-0.2-0.3-0.6-0.3-0.9C14.4,59,14.5,58.8,14.7,58.6z"/>
	<path d="M65.8,59.2c0.5,1.4,0.8,2.3,1.1,3.2c0,0.1-0.5,0.3-0.7,0.5c-0.3-0.6-0.7-1.3-0.9-2C65.1,60.6,65.4,60.1,65.8,59.2z"/>
	<path d="M73.2,101.1c0.9,0.9,1.9,1.7,2.8,2.6c0.1,0.1,0,0.6-0.2,0.8c-0.1,0.1-0.6,0-0.7-0.2C74.3,103.3,73.8,102.2,73.2,101.1
		L73.2,101.1z"/>
</g>
</svg>
