<?xml version="1.0" encoding="iso-8859-1"?>
<!-- Generator: Adobe Illustrator 25.3.0, SVG Export Plug-In . SVG Version: 6.00 Build 0)  -->
<svg version="1.1" id="Calque_1" xmlns="http://www.w3.org/2000/svg" xmlns:xlink="http://www.w3.org/1999/xlink" x="0px" y="0px"
	 viewBox="0 0 62.9 39.5" style="enable-background:new 0 0 62.9 39.5;" xml:space="preserve">
<g>
	<path d="M62.9,13.8c-0.3,2.1-0.6,4.2-0.8,6.3c-0.1,0.8,0,1.7,0,2.5c0.1,1.1,0.3,2.2,0.3,3.3c0,1.5-0.9,2.2-2.3,1.8
		c-1.6-0.4-2.9-1.3-4.3-2.2c-1.7-1.2-3.5-2.4-5.3-3.5c-0.1-0.1-0.3,0-0.5,0c0,0.1,0.1,0.2,0.1,0.3c1.2,1.5,0.9,3.1,0.6,4.8
		c-0.6,3.6-2.6,6.4-5.5,8.6c-1.4,1.1-2.8,2.2-4.4,3.1c-0.4,0.2-0.8,0.5-1.3,0.6c-1.2,0.3-2.5,0.7-3.3-0.7c-1.2-0.3-2.5-0.6-3-2.1
		c-2.2-0.1-1.9-1.9-2.3-3.2c-0.1-0.4-0.1-1.1-0.7-0.8c-0.4,0.2-1.3-0.4-1.2,0.9c0.1,1.5-0.8,2.9-1.8,4.1c-0.4,0.5-0.9,0.5-1.4,0
		c-1.3-1.2-2.6-2.3-3.1-4.1c-0.3-1-0.8-1.3-1.8-1.3c-1.8-0.1-3.5-0.5-5.1-1.3c-2-1-4-2.2-5.9-3.3c-1.3-0.7-2.7-1.3-3.9-2.1
		c-1.3-0.9-2.6-1.9-3.9-2.8c-0.5-0.4-1-0.8-1.5-1.2c-0.8-0.6-0.7-1,0-1.7c2.1-2.1,4.8-3,7.4-4.1c3.2-1.4,6.5-2.7,9.8-4
		c3.3-1.3,6.6-2.4,9.9-3.6c0.8-0.3,1.7-0.4,2.6-0.5c0.8-0.1,1-0.4,1.1-1.1c0-0.5,0.2-0.9,0.4-1.3c0-0.1,0.4-0.3,0.4-0.3
		c0.9,0.8,0.8-0.2,1-0.5c0.2-0.5,0.4-1,0.7-1.4C34,2.4,34.5,1.9,34.7,2c0.6,0.3-0.1,0.6,0,1c0,0.3,0,0.7,0,1.1
		c0,0.1,0.2,0.3,0.3,0.4c0.1-0.1,0.3-0.2,0.4-0.3c0.9-1.6,2.1-2.8,3.5-3.9c0.1-0.1,0.3-0.1,0.5-0.2c0,0.2,0.1,0.4,0,0.6
		c-0.2,0.7-0.5,1.4-0.7,2.2c0,0.1,0.1,0.3,0.1,0.5c0.1-0.1,0.3-0.1,0.4-0.2c0.4-0.4,0.9-0.8,1.3-1.2c0.1-0.1,0.3,0,0.5,0
		C41,1.9,41,2.1,41,2.2c0,0.2-0.2,0.3-0.2,0.5c0,0.5,0,1,0,1.6c0.5-0.2,0.9-0.3,1.3-0.6C43.1,3,43.9,3,44.8,3.7c0.4,0.3,0.8,0.6,1,1
		c1.6,2.2,3.4,4.3,4.6,6.8c0.3,0.6,0.5,1.2,0.1,1.8c-0.1,0.1-0.1,0.3-0.1,0.4c0.2,0,0.4,0.1,0.5,0c0.8-0.3,1.7-0.6,2.5-1
		c1.5-0.8,3.1-1.6,4.6-2.4c0.7-0.3,1.4-0.7,2.1-0.9c1.4-0.5,2.5,0.3,2.6,1.7c0,0.1,0,0.2,0,0.4c0,0.8,0,1.5,0,2.3
		C62.8,13.8,62.8,13.8,62.9,13.8z"/>
	<path d="M18.8,17.1c0.1-0.2,0.1-0.6,0.3-0.6c0.9-0.2,1.7-0.3,2.6-0.5c1.5-0.2,2.9-0.4,4.4-0.6c1.5-0.2,2.9-0.4,4.4-0.5
		c1.4-0.1,2.7,0.2,4.1-0.4c0.3-0.1,0.7,0.1,1,0.2c-0.1,0.3-0.2,0.6-0.4,0.9c-0.5,0.7-0.5,0.7,0.2,1.1c1.6,0.9,3.4,1.4,5.3,1.4
		c2,0,4,0.1,5.9,0c1.9-0.1,3.8-0.4,5.7-0.6c0.1,0,0.3-0.1,0.3,0c0.1,0.1,0.3,0.2,0.3,0.4c0,0.1-0.1,0.4-0.2,0.4
		c-0.6,0.1-1.3,0.2-1.9,0.2c-3.6,0.1-7.2,0.3-10.7,0.4c-1.8,0-3.4-0.8-4.9-1.5c-1.3-0.6-1.3-0.6-2.2,0.5c-0.5,0.7-1,1.5-1.3,2.3
		c-1,2.3-2.7,3.9-5.1,4.7c-1,0.3-1.9,0.7-2.9,1c-0.2,0.1-0.4-0.1-0.6-0.2c0.1-0.2,0.2-0.6,0.3-0.7c0.6-0.2,1.3-0.3,1.9-0.5
		c2.6-0.9,4.6-2.2,5.7-5c0.5-1.2,1.5-2.2,2.3-3.3c0.1-0.1,0.2-0.3,0.3-0.4c-0.2,0-0.4-0.1-0.5-0.1c-0.7,0.3-1.5,0.5-2.2,0.8
		c-3,1.4-6,3-8.5,5.2c-0.2,0.2-0.6,0.2-1,0.3c-0.1,0-0.3-0.2-0.4-0.3c0-0.1,0.1-0.3,0.2-0.4c2.9-1.8,5.8-3.5,8.7-5.2
		c0.1-0.1,0.2-0.2,0.3-0.3c-0.1,0-0.2-0.1-0.3-0.1c-0.8,0.1-1.6,0.1-2.3,0.2c-2.2,0.4-4.4,0.9-6.7,0.9C20.3,16.8,19.5,17,18.8,17.1
		L18.8,17.1z"/>
	<path d="M14.2,24.9c-0.1,0-0.2-0.1-0.3-0.1c0-0.1,0.1-0.2,0.1-0.3c1-0.9,1.9-2,2.1-3.4c0-0.1,0.3-0.2,0.4-0.2
		c0.1,0,0.3,0.2,0.3,0.4C17,22.3,15.3,24.6,14.2,24.9z"/>
	<path d="M24.2,23.3c-0.1,0.3-0.1,0.5-0.2,0.6c-0.1-0.2-0.2-0.3-0.2-0.5c-0.1-0.3-0.2-0.7-0.3-1c0,0,0.1-0.1,0.2-0.2
		c0,0,0.1,0,0.1,0.1C24,22.7,24.1,23.1,24.2,23.3z"/>
	<path d="M8.3,20.7c-0.7,0-1.3-0.5-1.3-1.1c0-0.7,0.7-1.4,1.3-1.4c0.6,0,1.3,0.6,1.3,1.2C9.6,20.1,9,20.7,8.3,20.7z"/>
</g>
</svg>
