<?xml version="1.0" encoding="iso-8859-1"?>
<!-- Generator: Adobe Illustrator 25.3.0, SVG Export Plug-In . SVG Version: 6.00 Build 0)  -->
<svg version="1.1" id="Calque_1" xmlns="http://www.w3.org/2000/svg" xmlns:xlink="http://www.w3.org/1999/xlink" x="0px" y="0px"
	 viewBox="0 0 81.7 27.6" style="enable-background:new 0 0 81.7 27.6;" xml:space="preserve">
<g>
	<path d="M65,8.8c2.2,0,4-0.9,6-1.7c2.8-1.1,5.6-2.3,8.4-3.4c1-0.4,1.3-0.3,1.5,0.7C81,4.7,81.1,5.1,81,5.3c-0.5,1-0.1,2,0.1,2.9
		c0.4,1.9,0.4,3.7,0.1,5.6c-0.2,1.2,0.2,2.6,0.4,3.8c0,0.3,0.2,0.6,0.2,0.9c-0.1,0.4-0.2,0.8-0.4,1.1c-0.3-0.1-0.6-0.2-0.9-0.4
		c-0.5-0.2-1-0.5-1.5-0.6c-3.5-1.1-7.1-2.1-10.6-3.1c-0.7-0.2-1.5-0.1-2.3,0c-0.5,0-0.6,0.4-0.1,0.6c0.6,0.3,0.6,0.5,0,0.9
		c-1.1,0.8-2.5,1.3-3.3,2.4c-0.2,0.2-0.6,0.4-1,0.4c-0.9-0.1-1.5,0.6-2.4,0.7c-0.7,0.1-1.5,0.9-2.2,0.9c-1.2,0-2,1.2-3.3,0.8
		c-0.5-0.1-1.3,0.4-1.9,0.7c-1,0.5-1.9,0.7-3.1,0.6c-0.2,0-0.4,0-0.5,0.1c-0.3,0.7-1.1,0.5-1.6,0.6c-1,0.1-1.9,0.7-3,0.3
		c-0.1,0-0.2,0-0.4,0c-0.5-0.1-0.5,1.2-1.3,0.4c-0.3-0.2-1,0.1-1.5,0.2c-1.3,0.3-2.6,0.8-4,0.4c-1.7,0.6-3.5,0.5-5.2,0.4
		c-0.7,0.6-1.6,0.2-2.4,0.4c-0.5,0.1-1.1-0.6-1.7,0.1c0,0.1-0.4-0.1-0.6-0.2c-0.4-0.3-0.7-0.4-1,0.1c-0.1,0.1-0.3,0.1-0.5,0.1
		L23.4,26c-0.2-0.1-0.4-0.2-0.5-0.2c-0.6,0.9-1,0.3-1.4-0.2c-0.1-0.1-0.5-0.2-0.6-0.2c-0.5,0.1-0.8,0.1-0.9-0.5
		c-0.4-2-2-2.2-3.6-2.4c-0.2,0-0.5,0-0.7,0c-0.1,0-0.3,0.2-0.2,0.3c0.3,1.4-0.1,2.9,1,4c0.1,0.1,0.1,0.4,0.1,0.7
		c-0.3,0-0.6,0.2-0.8,0.1c-0.5-0.2-1-0.4-1.4-0.7c-1.4-1.1-2.5-2.4-3.2-4c-0.4-0.9-1-1.5-2-1.8c-2.5-0.8-4.5-2.4-6.2-4.3
		c-0.2-0.2-0.4-0.5-0.5-0.7c-0.8-1.7-1.6-3.3-2.3-5c-0.5-1.3,0.5-2.1,1.2-2.9c0.2-0.3,0.8-0.4,1-0.7c0.8-1.6,2.1-1.2,3.3-1
		c2,0.4,4,0.4,6,0c0.3-0.1,0.6-0.1,0.9,0c1.2,0.2,1.7-0.5,2.2-1.4c0.2-0.4,0.4-0.8,0.6-1.3c0.4-0.8,0.6-1.9,1.3-2.3
		c0.7-0.4,1.5-0.7,2-1.3c0,0,0.1-0.1,0.2-0.1c0.1,0,0.3,0,0.3,0c0.5,1.2,1.9,0,2.5,1.2c0.6,1,1,2.1,1.4,3.2c0.2,0.6,0.4,0.3,0.6,0.1
		c0.2-0.3,0.4-0.6,0.6-0.9c0.4-0.7,0.6-1.6,1.8-1.3c0.1,0,0.2-0.1,0.3-0.2c0.5-0.4,1-1,1.6-1.1C28.4,1,28.9,1,29.5,0.8
		c0.7-0.2,1.6,0.2,2.3-0.2c2,0.4,4-0.1,5.9,0.1c1.8,0.2,3.7,0.5,5.5,0.7c2.8,0.3,5.5,1.2,8.2,1.6c1.9,0.2,3.7,1,5.5,1.3
		c1.4,0.3,2.8,0.5,4,1.5c1.2-0.3,1.9,0.7,2.8,1.2c0.6,0.3,0.5,0.5,0.3,0.9C64,8,63.8,8.2,63.7,8.4c-0.2,0.3-0.1,0.4,0.2,0.4
		C64.2,8.8,64.6,8.8,65,8.8z"/>
	<path d="M4.6,16.7c0.2-0.2,0.3-0.6,0.5-0.7c0.4-0.2,0.9-0.3,1.4-0.4c1.3-0.2,1.8-1,1.8-2.2c0-0.2,0-0.5,0.1-0.7
		c0.1-0.2,0.3-0.3,0.5-0.5C8.9,12.4,9,12.6,9,12.7c-0.1,0.9-0.1,1.8-0.4,2.6c-0.2,0.5-0.8,0.9-1.3,1.1C6.5,16.6,5.6,16.6,4.6,16.7
		L4.6,16.7z"/>
</g>
</svg>
