<?xml version="1.0" encoding="iso-8859-1"?>
<!-- Generator: Adobe Illustrator 25.3.0, SVG Export Plug-In . SVG Version: 6.00 Build 0)  -->
<svg version="1.1" id="Calque_1" xmlns="http://www.w3.org/2000/svg" xmlns:xlink="http://www.w3.org/1999/xlink" x="0px" y="0px"
	 viewBox="0 0 66.4 53.8" style="enable-background:new 0 0 66.4 53.8;" xml:space="preserve">
<g>
	<path d="M34.7,46.3c-2.8-0.3-5.7-0.6-8.5-0.8c-0.5,0-1.1-0.2-1.3,0.6c0,0.2-0.5,0.4-0.8,0.4c-0.9,0-1.1,0.5-0.9,1.1
		c0.3,1.1,0.7,2.2,1.2,3.3c0.3,0.8,0.8,1.6,1.2,2.4c0.1,0.1,0,0.3-0.1,0.5c-0.1-0.1-0.4-0.1-0.4-0.2c-1-1.5-2-3.1-2.9-4.7
		c-0.5-0.8-1.1-1.6-1.4-2.5c-0.6-1.7-1.9-2.2-3.5-2.5c-2.2-0.4-4.5-0.8-6.5-1.9c-2.9-1.6-5.9-2.9-8.8-4.3c-1.7-0.8-2.2-2.7-1.9-4
		c0.2-0.8,1-1.6,1.8-2.1c1.8-1.1,3.3-2.4,4.3-4.3c0.4-0.7,1.2-1.3,2-1.7c0.8-0.3,1.3-0.8,1.9-1.3c1.5-1.5,2.9-3,4.5-4.4
		c0.9-0.8,2.2-1.3,2.6-2.3c0.4-1-0.1-2.3-0.2-3.5c-0.1-1.1,0-2.3,0-3.4c-0.1-1.9,0.2-3.6,0.8-5.4c0.3-0.9,0.4-1.8,0.6-2.8
		c0.1-0.5,0.2-0.9,0.3-1.4C18.9,0.8,19.3,0,19.5,0c0.8,0.2,0.4,0.9,0.5,1.5c0.5,4.7,5.6,6.9,8.8,5.4c0.7-0.3,0.7-0.3,0.6,0.5
		c-0.1,1.3-0.1,2.5,1,3.4c0.4,0.3,0.8,0.4,1.3,0.5c0.4,0.1,0.8,0,1.1,0c-0.1,0.3-0.2,0.7-0.2,1c-0.2,1.6,0.4,2.4,2.4,3.2
		c0.4,0.2,0.4,0.3,0.3,0.6c-0.8,1.7-0.8,1.7,0.7,2.8c0.2,0.2,0.7,0.4,0.1,0.8c-0.2,0.1-0.2,0.4-0.3,0.6c0.4,0,0.3,0.8,1,0.5
		c1-0.5,2-0.9,3-1.1c2.2-0.6,4.4-1.1,6.7-0.4c3,0.9,3.8,4.7,1.9,6.9c-0.8,0.9-1.8,1.6-2.9,2.1c-0.1,0.1-0.3,0.2-0.4,0.3
		c0.1,0.1,0.2,0.3,0.4,0.3c2.9,0.7,5.8,1.2,8.7-0.2c1.6-0.8,3.3-1.3,5-1.8c2.8-0.7,6.9,1.9,7.3,5.1c0.1,0.8-0.1,1.7-0.6,2.3
		c-1.5,1.9-3.3,3.3-6,3.3c-1.7,0-3.3-0.1-4.9-0.8c-2-0.9-4.1-0.7-6.2-0.6c-0.1,0-0.3,0.1-0.4,0.1c0.2,0.1,0.3,0.1,0.5,0.2
		c1,0.4,1.8,1.1,2.2,2.2c0.5,1.1,0.2,2-0.5,2.8c-1.3,1.4-2.9,2.2-4.9,2.3c-2,0-3.9,0.2-5.8-0.6c-1-0.5-1.5,0.1-1.3,1.3
		c0.3,1.5,0.1,1.8-1.4,1.9c-0.1,0-0.1,0-0.2,0c-0.7,0-1.4,0-2.2,0C34.7,46.2,34.7,46.2,34.7,46.3z"/>
	<path d="M25,30.3c1.6-0.2,3.1,0.3,4.6,1.1c0.3,0.2,0.6,0.4,0.9,0.6c1.3,1.2,1.2,1.9,0.1,3.1c-1.8,1.9-4,2.3-6.5,1.9
		c-1.1-0.2-2.2-0.2-3.4-0.2c-0.2,0-0.3-0.1-0.5-0.2c0.1-0.2,0.2-0.4,0.3-0.5c1.5-1.2,1.6-2.5,0.3-3.9c-0.6-0.7-0.6-0.8,0.2-1.2
		C22.2,30.4,23.6,30.2,25,30.3z"/>
	<path d="M18,33.3c0-0.5,0-1.1,0-1.6c0-0.2,0.2-0.4,0.3-0.6c0.2,0.1,0.6,0.2,0.7,0.4c0.7,1.1,0.7,2.3,0.4,3.5c-0.3,1-1,2-1.6,2.9
		c0,0.1-0.2,0.1-0.3,0.1c0-0.1-0.1-0.3-0.1-0.3c1-1,0.3-2.4,0.6-3.5C18.1,33.9,18.1,33.6,18,33.3C18.1,33.3,18.1,33.3,18,33.3z"/>
	<path d="M11.6,29.4c0,1.1-1,2.1-2.2,2.1c-1.2,0-2.2-0.9-2.2-2c0-1.2,1-2.3,2.2-2.3C10.6,27,11.6,28.2,11.6,29.4z"/>
</g>
</svg>
