<?xml version="1.0" encoding="iso-8859-1"?>
<!-- Generator: Adobe Illustrator 25.3.0, SVG Export Plug-In . SVG Version: 6.00 Build 0)  -->
<svg version="1.1" id="Calque_1" xmlns="http://www.w3.org/2000/svg" xmlns:xlink="http://www.w3.org/1999/xlink" x="0px" y="0px"
	 viewBox="0 0 84.7 19.6" style="enable-background:new 0 0 84.7 19.6;" xml:space="preserve">
<g>
	<path d="M33.6,0c1,0,1.3,0.2,1.5,1.1c0.5,2.2,1.6,3,3.8,3.2C41,4.5,43.1,4.9,45,5.4c1.6,0.5,3,0.2,4.5-0.3c1.1-0.3,2.1-0.7,3.2-1
		c1.7-0.5,2.3-0.2,2.8,1.4c0.2,0.6,0.3,1.1,0.9,1.4c0.6,0.3,0.3,0.6,0,0.9c0.4,0,0.8,0.1,1.2,0.1c0.4,0.1,0.8,0.2,1.2,0.3
		C61,8.4,63,8.7,64.9,8.9c1.2,0.1,2.5,0,3.7-0.2c1.9-0.2,3.8-0.5,5.6-0.8c2.1-0.3,4.1-0.7,6.2-1c1.2-0.1,2.4-0.3,3.5,0.2
		c0.9,0.4,1,0.8,0.4,1.5c-0.5,0.6-1,1.2-1.5,1.8c-0.5,0.7-1.2,1-2,0.6c-2-0.9-3.9-0.2-5.9,0.4c-1.7,0.5-3.4,1.1-5.1,1.7
		c-0.8,0.3-1.6,0.7-2.4,1.2c-1,0.6-1.9,0.6-2.9,0c-1-0.6-1.9-1.2-3-1.6c-2-0.8-4-1.1-6.1-0.3c-0.5,0.2-1,0.5-1.4,0.8
		c-0.7,0.7-1.5,0.7-2.3,0.4c-1.1-0.4-2.1-0.8-3.2-1.2c-1.4-0.5-2.9-0.8-4.4-0.7c-0.2,0-0.4,0.2-0.5,0.3c0.1,0.1,0.2,0.3,0.3,0.4
		c0.2,0.1,0.5,0.1,0.6,0.3c0.1,0.1,0,0.5,0,0.5c-0.6,0.1-1.2,0.3-1.7,0.2c-1.1-0.4-2.1-0.3-3,0.3c-0.6,0.4-1.3,0.5-2,0.1
		c-0.3-0.2-0.7-0.2-1-0.4c-1.7-1.1-3.5-1.1-5.4-1c-1.6,0.1-3.2,0-4.9,0c-0.5,0-1.2-0.1-0.7,0.8c0.1,0.2-0.2,0.6-0.4,0.9
		c-0.9,1.5-1.8,2.9-2.6,4.4c-0.8,1.4-1.4,1.5-2.6,0.5c-1.7-1.4-2.7-3.1-3-5.3c-0.1-0.7-0.1-1.5-0.4-2.1c-0.4-0.7-1.3-0.3-2-0.4
		c-0.6-0.1-1.2-0.3-1.8-0.3c-2.5,0-5-0.3-7.5-0.7C4.3,9.9,2.8,9.7,1.4,9.4C0.9,9.2,0.1,8.8,0,8.5c-0.1-0.8,0.7-0.9,1.3-1.2
		C3,6.7,4.6,6.1,6.2,5.6c2.1-0.8,4.4-1,6.6-1.3C13.6,4.2,14.3,4,15,3.9c3.8-0.6,7.6-0.8,11.4-0.7c1.2,0,2.2-0.4,3.2-1.1
		c1-0.7,2.1-1.3,3.2-1.8C33.1,0.1,33.5,0.1,33.6,0z"/>
	<path d="M7.3,6.4c0.5,0,0.8,0,1.1,0.1c0.1,0,0.3,0.2,0.4,0.3c0,0.1-0.1,0.2-0.1,0.3C7.8,7.7,7,8.1,6,7.9C5.8,7.8,5.5,7.5,5.5,7.2
		c0-0.1,0.3-0.4,0.5-0.5C6.4,6.6,7,6.5,7.3,6.4z"/>
	<path d="M78.6,8.5c0.7,0.2,1.7,0.4,2.6,0.6c-0.8,0.1-1.5,0.1-2.3,0.2c-0.2,0-0.4-0.2-0.7-0.2c-0.1,0-0.1,0-0.2,0
		c-0.5-0.1-0.9-0.2-1.4-0.3C77.3,8.7,77.8,8.6,78.6,8.5z"/>
	<path d="M63.9,11.8c1-0.8,2.1-0.2,3.1-0.3c0.1,0,0.2,0.1,0.3,0.2c-0.1,0.1-0.2,0.1-0.3,0.1C65.9,11.8,64.9,11.8,63.9,11.8
		C63.9,11.8,63.9,11.8,63.9,11.8z"/>
</g>
</svg>
