<?xml version="1.0" encoding="iso-8859-1"?>
<!-- Generator: Adobe Illustrator 25.3.0, SVG Export Plug-In . SVG Version: 6.00 Build 0)  -->
<svg version="1.1" id="Calque_1" xmlns="http://www.w3.org/2000/svg" xmlns:xlink="http://www.w3.org/1999/xlink" x="0px" y="0px"
	 viewBox="0 0 69.1 38.8" style="enable-background:new 0 0 69.1 38.8;" xml:space="preserve">
<g>
	<path d="M27.9,11.4c0.4,0,0.8,0,1.3,0c0.5,0,0.9-0.2,1.1-0.7c0.1-0.3,0.3-0.5,0.4-0.8c1.3-1.9,4-2,5.5-0.2c1.1,1.4,2.5,2.7,4,3.8
		c1.3,1,2.4,2.2,3.5,3.3c0.4,0.4,1,1,0.9,1.5c0,1.2,0.7,1.1,1.5,1.3c2.6,0.6,5.3,0.6,7.9,1.7c0.4,0.2,0.8,0.1,1.2-0.4
		c2.4-2.2,4.9-4.3,7.7-5.9c1.2-0.7,2.6-1,3.9-1.5c0.1,0,0.2,0,0.4,0c1.2-0.2,1.8,0.8,1.3,1.9c-1.2,2.6-2.9,4.7-5.1,6.5
		c-0.2,0.2-0.5,0.4-0.7,0.6c-0.4,0.4-0.4,0.9,0.1,1.2c1.4,0.8,2.4,2,3.4,3.1c1.3,1.5,2.3,3.1,2.7,5.1c0.2,1.2-0.4,1.9-1.5,1.5
		c-2.5-1-4.9-2.2-7-4c-1.5-1.3-3.1-2.6-4.6-4c-0.5-0.5-1-0.6-1.6-0.5c-0.5,0.1-1,0.2-1.6,0.3c-2.5,0.6-5,1.2-7.4,1.9
		c-1.1,0.3-1.1,0.4-1.1,1.6c0,0.7-0.3,1.1-0.8,1.4c-1,0.8-2.2,1.5-2.7,2.8c-0.2,0.4-0.3,0.9-0.5,1.3c-0.1,0.3-0.2,0.6-0.3,0.8
		c-1,2-2,2.2-3.7,0.7c-0.7-0.6-1.3-1.2-1.9-1.9c-0.6-0.8-1.3-0.9-2.2-0.7c-0.7,0.1-1.4,0.3-2.1,0.3c-3.2,0-6.3,0-9.5,0
		c-0.5,0-0.8,0-0.5,0.7c0.4,0.7,0.7,1.5,1.1,2.2c0.2,0.4,0.5,0.8,0.7,1.2c0.2,0.4,0.5,0.8,0,1.1c-0.2,0.1-0.7-0.1-0.9-0.4
		c-0.9-1.1-1.8-2.2-2.5-3.4c-0.6-1.1-1.3-1.7-2.5-2.1c-2-0.6-4-1.2-5.9-2c-1.3-0.5-2.4-1.4-3.6-2c-1.3-0.6-2.6-1.2-3.9-1.8
		C1.2,26.7,0.9,26.3,1,25c0-0.2-0.2-0.5-0.3-0.6c-0.9-0.9-0.8-1.6,0.2-2.3c1.9-1.2,3.4-2.7,4.9-4.4c1.2-1.3,2.7-2.3,4.5-2.9
		c1.8-0.6,3.6-1.4,5.2-2.7c0.2-0.1,0.4-0.3,0.6-0.3c2.1-0.7,3-2.4,3.7-4.3c0.9-2.6,2.5-4.7,4.2-6.7c0.3-0.4,0.8-1,1.3-0.6
		c0.6,0.5,0,1.1-0.3,1.4c-1.2,1.1-1.3,2.7-2.1,4c-0.2,0.3-0.2,1.1,0.1,1.3c1,1,0.9,2.7,2.2,3.5c0.2,1.1,0.9,1.1,1.8,1.1
		C27.3,11.4,27.6,11.4,27.9,11.4z"/>
	<path d="M23.9,21.4c-0.1,1.8-0.8,3.2-1.6,4.4c-0.4,0.6-1.2,0.8-1.9,0.6c-0.8-0.1-1.5-0.2-2.3-0.3c-1.7-0.2-2.5-1.4-1.9-3
		c0.3-0.8,0.7-1.6,1.1-2.4c0-0.1,0.3-0.2,0.4-0.1c0.1,0.1,0.2,0.3,0.2,0.4c-0.3,0.8-0.7,1.5-0.9,2.3c-0.4,1.2,0.3,2.2,1.5,2.2
		c0.3,0,0.8-0.5,0.9-0.9c0.2-0.5-0.4-1.2-1-1.2c-0.2,0-0.5,0.2-0.7,0.1c-0.1,0-0.3-0.4-0.2-0.5c1.2-1.2,2.4-2.5,3.6-3.6
		c0.7-0.7,1.8-0.5,2.3,0.4C23.7,20.4,23.8,21.1,23.9,21.4z"/>
	<path d="M12,15.7c1.5,0,2.2,0.6,2.2,1.9c0,1.3-0.9,2.1-2.3,2.1c-0.5,0-0.9-0.1-1.3-0.4c-1-0.5-1.6-1.3-1.4-2c0.3-1,1.1-1.3,2-1.6
		C11.4,15.7,11.7,15.7,12,15.7z"/>
	<path d="M57.7,20c1.8,0.7,3,2.2,2.8,3.7c-0.1,0.8-0.3,1.8-1.4,2c0.1-0.3,0-0.7,0.2-1c0.8-1.6,0.6-2.4-0.7-3.7
		C58.3,20.8,57.6,20.7,57.7,20z"/>
	<path d="M14.4,20.7c-0.1,0.2-0.1,0.5-0.3,0.7c-0.9,0.9-1.8,1.9-2.7,2.8c-0.1,0.1-0.3-0.1-0.4-0.1c0-0.1,0-0.2,0.1-0.3
		c0.4-0.4,0.9-0.8,1.3-1.1c0.7-0.6,1.3-1.4,1.4-2.4c0-0.1,0.3-0.3,0.4-0.4c0,0.2,0,0.3,0.1,0.5C14.3,20.4,14.3,20.5,14.4,20.7z"/>
</g>
</svg>
