<?xml version="1.0" encoding="iso-8859-1"?>
<!-- Generator: Adobe Illustrator 25.3.0, SVG Export Plug-In . SVG Version: 6.00 Build 0)  -->
<svg version="1.1" id="Calque_1" xmlns="http://www.w3.org/2000/svg" xmlns:xlink="http://www.w3.org/1999/xlink" x="0px" y="0px"
	 viewBox="0 0 86 15.2" style="enable-background:new 0 0 86 15.2;" xml:space="preserve">
<g>
	<path d="M36.1,1.8c2.2,0,4.3,0,6.5,0c0.8,0,1.5,0.2,2.3,0.3c0.8,0.1,1.5,0.1,2.3-0.3c1.1-0.5,2.2-0.9,3.3-1.3
		c1.8-0.7,3.6-0.8,5.3,0.2c0.9,0.5,1.8,0.7,2.8,1c2.6,0.7,5.1,1.6,7.6,2.5C66.5,4.2,67,4.6,67,4.8c-0.3,0.8,0.3,0.6,0.7,0.6
		c2.4-0.3,4.8-0.5,7.2-1.2c1.5-0.4,3-0.8,4.5-1.1C79.6,3,80,2.9,80.3,2.9c1.1-0.1,2.1-0.2,3.2-0.3c0.4,0,0.9-0.1,1.3,0
		c0.4,0.1,0.8,0.3,1.3,0.5c-0.2,0.4-0.4,0.8-0.7,1.2c-0.3,0.4-0.7,0.7-0.9,1.1C84,6,83.6,6.7,84.3,7.7c0.7,1,1.1,2.2,1.6,3.4
		c0.3,0.7,0.1,1.1-0.7,1.2c-0.3,0-0.6,0-0.9,0c-2.1-0.3-4.2-0.6-6.3-1c-2.6-0.5-5.1-1-7.7-1.5c-1.3-0.2-2.6-0.4-3.9-0.4
		c-1.8,0-3.7,0.2-5.5,0.4c-0.7,0.1-0.9,0.4-0.7,1.2c0.3,1.2-0.2,2.3-0.7,3.4c-0.4,0.8-1.2,0.8-1.9,0.7c-1.4-0.3-2.6-0.7-3.7-1.7
		c-0.3-0.3-0.6-0.6-0.9-0.9c-0.9-0.9-1.9-1.5-3.3-1c-0.8,0.3-1.6,0.3-2.5,0.4c-0.7,0.1-0.8,0.3-0.5,0.9c0.1,0.3,0.7,0.5,0.2,0.9
		c-0.2,0.2-0.6,0.3-1,0.3c-1.6,0-3-0.6-4.4-1.2c-1.5-0.7-2.9-0.9-4.5-0.9c-4.1,0-8.3,0-12.4,0c-0.6,0-1.2,0.1-1.8-0.1
		c-1-0.3-1.6-0.1-1.9,1c-0.1,0.6-0.8,0.6-1.2,0.5c-0.9-0.2-1.7-0.5-2.5-0.9c-1.6-0.9-3.3-1.1-5.1-1.3c-2.8-0.4-5.6,0.1-8.3-0.6
		c-0.1,0-0.2,0-0.3,0.1c0,0.1,0,0.2,0.1,0.3c0.2,0.2,0.4,0.5,0.6,0.7c0.4,0.3,0.4,0.5,0,0.9c-0.4,0.5-0.6,0.2-1,0
		C1.7,11.6,1.1,10,0.2,8.6C-0.1,8.2,0,7.8,0.4,7.4c0.7-0.9,1.8-1.2,2.8-1.5c2.2-0.6,4.4-1.1,6.5-1.7c2.6-0.7,5.2-1.2,7.9-1.3
		c1.7-0.1,3.3-0.4,4.9-0.6c0.2,0,0.5,0,0.7,0c4.3-0.2,8.6-0.3,12.9-0.5C36.1,1.7,36.1,1.8,36.1,1.8z"/>
	<path d="M33.5,5.8c0.1-0.1,0.2-0.2,0.2-0.2c2,0,3.9,0,5.9,0.1c0.4,0,0.8,0.1,1.2,0.1c2,0,4,0.1,6.1,0.3c3.1,0.4,6.3,0.4,9.5,0.4
		c3,0,5.9,0.3,8.9,0.7c0.5,0.1,1.1,0,1.6,0c1.5,0.1,3.1,0.2,4.6,0.3c0.3,0,0.6-0.1,0.9-0.1c0.6-0.1,1.2-0.1,1.8-0.1
		c0.2,0,0.3,0.2,0.5,0.3c-0.1,0.1-0.3,0.3-0.4,0.3c-1.4,0-2.8-0.1-4.2-0.1c-0.2,0-0.5-0.1-0.7-0.1c-2.6-0.1-5.3-0.1-7.9-0.4
		c-2.7-0.3-5.4-0.1-8-0.4c-2.1-0.3-4.2,0-6.2-0.3c-2.4-0.3-4.8-0.1-7.1-0.4C37.9,5.8,35.7,5.9,33.5,5.8L33.5,5.8z"/>
	<path d="M33.5,5.8c-0.2,0.1-0.5,0.3-0.7,0.3C27.9,6.3,23,6.8,18,6.5c0,0,0,0,0,0c0.2-0.1,0.5-0.3,0.7-0.3c0.8-0.1,1.7,0,2.5,0
		C25.4,6,29.5,5.9,33.5,5.8L33.5,5.8z"/>
	<path d="M18,6.5c-0.1,0.1-0.1,0.3-0.2,0.3c-1.4,0.1-2.9,0.1-4.3,0.1c-0.1,0-0.2-0.1-0.3-0.1c0.1-0.1,0.2-0.2,0.3-0.2
		C15.1,6.5,16.6,6.5,18,6.5L18,6.5z"/>
</g>
</svg>
