<?xml version="1.0" encoding="iso-8859-1"?>
<!-- Generator: Adobe Illustrator 25.3.0, SVG Export Plug-In . SVG Version: 6.00 Build 0)  -->
<svg version="1.1" id="Calque_1" xmlns="http://www.w3.org/2000/svg" xmlns:xlink="http://www.w3.org/1999/xlink" x="0px" y="0px"
	 viewBox="0 0 80.9 28.3" style="enable-background:new 0 0 80.9 28.3;" xml:space="preserve">
<g>
	<path d="M12.2,14.6c0.2,0,0.4,0,0.5,0c1.2,0,1.1,0,1.4-1.2c0.4-1.4,1-2.6,1.9-3.8c3.3-4.2,7.9-6.5,12.7-8.5
		c0.9-0.4,1.9-0.6,2.9-0.9C32.1,0.1,32.5,0,32.9,0c0.2,0,0.4,0.2,0.5,0.3c-0.1,0.1-0.2,0.3-0.3,0.4c-0.8,0.3-1.5,0.7-2.3,0.8
		c-2.5,0.6-4.7,1.9-7.1,3c-0.1,0.1-0.2,0.2-0.3,0.4c0.2,0,0.3,0,0.5-0.1c2.3-0.7,4.6-1.5,7-2.1c0.7-0.2,1.5-0.1,2.3-0.1
		c0.1,0,0.3,0.2,0.3,0.3c0,0.1-0.2,0.3-0.3,0.4c-0.5,0.1-1.1,0.1-1.6,0.2c-1.5,0.2-2.9,0.8-4.3,1.1c-1.5,0.4-2.9,0.9-4.3,1.5
		c-2.3,1.1-4.5,2.4-5.9,4.6c-0.2,0.2-0.3,0.5-0.4,0.8c-0.1,0.1,0,0.3-0.1,0.5c0.1-0.1,0.3-0.1,0.4-0.2c2.6-3.8,6.7-5.2,10.9-6.3
		c0.2,0,0.4,0.1,0.6,0.2C28.3,5.7,28.2,6,28,6.1c-0.8,0.3-1.7,0.5-2.6,0.8C25,7,24.5,7.1,24.1,7.3c-0.6,0.3-1.3,0.3-1.7,1
		c0.6,0,1.1,0,1.7-0.1c3.6-0.6,7.2-0.4,10.7-0.3c3.5,0.1,7,0.5,10.5,0.6c2.9,0.1,5.6,0.7,8.5,0.9c2.8,0.2,5.6,0.9,8.4,1.5
		c0.9,0.2,1.9,0.4,2.8,0.6c0.4,0.1,0.9,0.2,1,0.5c0.2,0.6-0.5,0.7-0.8,0.9c-1,0.7-2,1.3-3,2c-0.1,0.1-0.2,0.3-0.2,0.4
		c0.1,0,0.2,0.1,0.3,0.1c0.7,0,1.3,0,2-0.5c1-0.8,2.1-1.4,3.2-1.9c1.7-0.8,3.4-0.3,5,0.2c2.2,0.7,4.4,1.7,6.6,2.5
		c0.5,0.2,0.9,0.5,1.4,0.8c0.4,0.3,0.4,0.8-0.1,1.2c-0.2,0.1-0.4,0.2-0.6,0.3c-1.4,0.5-2.9,1.1-4.3,1.6c-1.6,0.6-3.3,1.1-4.9,1.7
		c-1.1,0.5-2.1,0.2-3.1-0.1c-0.3,1.2-1.4,1.2-2.2,1.4c-0.5,0.1-1,0-1.4,0c-1.5,0.1-3.1,0.3-4.6,0.5c-1.8,0.2-3.7,0.4-5.5,0.6
		c-7.9,0.7-15.9,0.3-23.9,0.3c-1.5,0-2.9-0.4-4.4-0.7c-1-0.2-1.8-0.8-2.2-1.9c-0.2-0.6-0.5-0.7-1.3-0.7c-2.5,0.1-5,0.5-7.5-0.2
		c-0.1,0-0.3,0.1-0.5,0.1c0.1,0.1,0.1,0.2,0.2,0.3c2.9,2.2,5.5,4.8,9.2,5.6c1.6,0.3,3,1,4.7,1c0.6,0,1.1,0.4,1.7,0.6
		c-0.6,0-1.2,0.2-1.7,0.1c-1.7-0.3-3.5-0.7-5.2-1c-1.9-0.4-3.8-0.9-5.8-0.7c-1.1,0.1-1.6-0.3-2.1-1.2c-0.7-1.3-1.5-2.4-2.2-3.7
		c-0.3-0.5-0.7-1-1.4-0.9c-0.2,0-0.5,0-0.7-0.1c-2.7-1.2-5.6-1-8.5-1c-0.3,0-0.6,0-0.9,0C0.8,19.7,0,19.5,0,19.5
		c0-0.6,0.4-1.2,1.1-1.2c0.5-0.1,0.8-0.3,1.1-0.7c0.2-0.3,0.7-0.4,1.1-0.6c0.7-0.4,1.5-0.8,2.2-1.1c0.5-0.2,1-0.4,1.5-0.5
		c0.9-0.2,1.8-0.2,2.6-0.4c0.9-0.1,1.7-0.3,2.6-0.5C12.2,14.5,12.2,14.6,12.2,14.6z"/>
	<path d="M36.4,17.8c-0.5,0-1.2,0.1-2,0.1c-0.1,0-0.3-0.2-0.4-0.3c0-0.1,0.2-0.4,0.3-0.4c1.4,0,2.9,0,4.3,0c0.1,0,0.2,0.2,0.3,0.3
		c-0.2,0.1-0.3,0.4-0.5,0.4C37.9,17.9,37.3,17.8,36.4,17.8z"/>
	<path d="M48,17.7c-0.1,0-0.5,0.1-0.9,0.1c-0.2,0-0.5-0.3-0.7-0.4c0.2-0.2,0.4-0.5,0.6-0.5c1,0,1.9,0,2.9,0c0.1,0,0.4,0.3,0.4,0.5
		c0,0.2-0.3,0.4-0.4,0.4C49.3,17.8,48.8,17.7,48,17.7z"/>
	<path d="M58.6,16.6c0.7,0,1.3,0,1.9,0c0.2,0,0.3,0.3,0.4,0.5c0,0-0.1,0.3-0.2,0.3c-0.9,0-1.8,0.1-2.7,0.1c-0.2,0-0.3-0.3-0.5-0.4
		c0.2-0.2,0.4-0.3,0.7-0.5c0,0,0.1,0,0.2,0C58.5,16.6,58.6,16.6,58.6,16.6z"/>
	<path d="M55.1,17.4c-0.3-0.5-1.2,0.7-1.5-0.4c0.5-0.1,1.1-0.2,1.6-0.2c0.4,0,0.8,0,1.2,0c0.2,0,0.3,0.3,0.4,0.4
		c-0.2,0.1-0.4,0.3-0.6,0.3C56,17.5,55.6,17.4,55.1,17.4z"/>
	<path d="M51.9,17c0.5-0.1,0.7-0.1,0.9-0.1c0.1,0,0.2,0.3,0.2,0.4c0,0.1-0.2,0.4-0.3,0.4c-0.5,0-1,0.1-1.5,0c-0.2,0-0.4-0.3-0.4-0.4
		c0-0.2,0.3-0.4,0.4-0.4C51.6,16.9,51.9,17,51.9,17z"/>
	<path d="M63.7,17.3c-0.2,0-0.4,0.2-0.5,0.1c-0.2-0.1-0.3-0.3-0.4-0.5c0-0.1,0.2-0.4,0.3-0.4c0.4-0.1,0.8-0.1,1.2,0
		c0.1,0,0.3,0.3,0.3,0.5c0,0.1-0.2,0.3-0.3,0.4C64.1,17.4,63.9,17.4,63.7,17.3z"/>
	<path d="M43.5,17.9c-0.4,0-0.9,0.3-1.1-0.4c0.4-0.1,0.7-0.3,1.1-0.3c0.4,0,1.1-0.4,1.2,0.4C44.7,17.6,43.9,17.8,43.5,17.9z"/>
	<path d="M61.9,17.7c-0.2-0.3-0.4-0.5-0.5-0.7c0-0.1,0.4-0.4,0.4-0.4c0.2,0.1,0.4,0.3,0.5,0.6C62.4,17.2,62.1,17.4,61.9,17.7z"/>
	<path d="M26.1,16.8c0.1,0.3,0.3,0.5,0.3,0.6c0,0.2-0.3,0.3-0.4,0.4c-0.2-0.2-0.4-0.3-0.5-0.6C25.6,17.2,25.9,17,26.1,16.8z"/>
	<path d="M28.1,17.6c-0.4,0.2-0.6,0.3-0.8,0.3c-0.2,0-0.3-0.3-0.4-0.4c0.2-0.1,0.3-0.3,0.5-0.3C27.5,17.2,27.7,17.3,28.1,17.6z"/>
	<path d="M28.7,18c-0.2-0.3-0.3-0.4-0.4-0.6c0.2-0.1,0.4-0.3,0.5-0.3c0.1,0,0.3,0.3,0.4,0.4C29.1,17.7,28.9,17.8,28.7,18z"/>
	<path d="M29.5,17.5c0.4-0.2,0.6-0.4,0.7-0.3c0.2,0,0.3,0.2,0.5,0.3c-0.2,0.1-0.3,0.3-0.5,0.4C30.1,17.9,29.9,17.7,29.5,17.5z"/>
	<path d="M31.6,18c-0.2-0.3-0.3-0.4-0.4-0.6c0.2-0.1,0.4-0.3,0.5-0.3c0.1,0,0.3,0.3,0.4,0.4C32,17.7,31.8,17.8,31.6,18z"/>
	<path d="M39.8,17c0.3,0.2,0.5,0.4,0.6,0.5c-0.2,0.1-0.3,0.3-0.5,0.4c-0.1,0-0.4-0.1-0.4-0.2C39.5,17.5,39.7,17.3,39.8,17z"/>
	<path d="M42.1,17.4c-0.4,0.2-0.5,0.4-0.7,0.4c-0.2,0-0.4-0.2-0.5-0.3c0.1-0.1,0.3-0.4,0.4-0.4C41.5,17.1,41.7,17.3,42.1,17.4z"/>
</g>
</svg>
