<?xml version="1.0" encoding="iso-8859-1"?>
<!-- Generator: Adobe Illustrator 25.3.0, SVG Export Plug-In . SVG Version: 6.00 Build 0)  -->
<svg version="1.1" id="Calque_1" xmlns="http://www.w3.org/2000/svg" xmlns:xlink="http://www.w3.org/1999/xlink" x="0px" y="0px"
	 viewBox="0 0 75.7 37.1" style="enable-background:new 0 0 75.7 37.1;" xml:space="preserve">
<g>
	<path d="M43.8,26.6c-2.6-0.1-4.3,0.1-6,0.8C36.9,27.7,36,27.9,35,28c-1,0-2,0.3-2.9,0.7c-1.4,0.6-2.8,1-4.3,0.8
		c-0.5-0.1-1.1,0-1.6,0c-0.3,0-0.5,0.2-0.8,0.3c0.1,0.2,0.2,0.4,0.3,0.6c1.1,1.2,2.2,2.4,3.2,3.6c0.2,0.3,0.6,0.6,0.5,0.9
		c0,0.7-0.2,1.4-0.4,2.1c-0.1,0.3-1.3,0.4-1.8,0.2c-1.2-0.4-2.2-1.1-3.4-1.6c-0.2-0.1-0.4-0.2-0.4-0.3c-0.6-1.2-1.6-2-2.4-3
		c-0.5-0.6-1-1.3-0.9-2.2c0.1-0.7-0.3-0.8-0.9-0.8c-2.9,0-5.5-1.1-7.9-2.5c-0.6-0.3-1.1-0.8-1.7-0.9c-3.2-0.8-5.2-3.1-6.9-5.6
		c-0.8-1.1-1.5-2.3-2.1-3.5c-0.6-1.3-1.1-2.7,0-4c0.7-0.8,1.2-0.8,1.8,0.1c0.1,0.3,0.2,0.6,0.3,0.8c0.2,0.5,0.4,1,0.7,1.4
		c0.3,0.5,0.7,0.9,1.1,1.4c-0.1-0.7-0.1-1.4-0.2-2.1c0-0.2-0.1-0.4-0.2-0.5c-1-0.7-0.8-1.4-0.3-2.4c0.2-0.4,0.3-0.6,0.9-0.7
		c1-0.1,2-0.5,2.9-1c3-1.5,6-3,9.2-4c0.6-0.2,1.1-0.3,1.7-0.5c0.9-0.3,1.9-0.4,2.7-0.9c0.8-0.5,1.3-1.4,2-2C26-0.1,29.1-0.8,32.5,1
		C32.6,1,32.7,1,32.7,1c2.6,0.4,4.7,1.9,7,3.1c0.5,0.3,0.9,0.6,0.4,1.2c-0.4,0.4-0.1,0.6,0.3,0.7c1.2,0.5,2.4,0.5,3.6-0.1
		c0.9-0.5,1.9-0.9,3-1.2c1.3-0.4,2.7,0,3.8,0.5c3.2,1.4,6.4,3,9.2,5.1c0.2,0.2,0.4,0.5,0.5,0.8c0,0.1-0.4,0.3-0.7,0.4
		c-0.3,0.1-0.6,0.2-0.8,0.3c-0.1,0-0.2,0.1-0.3,0.2c0.1,0.1,0.1,0.1,0.2,0.2c1.4,0.3,2.8,0.7,4.2-0.1c3.2-1.9,6.9-2,10.4-3
		c0.4-0.1,1.1,0.2,1.4,0.6c0.4,0.4,0.1,1-0.3,1.4c-1.1,1.1-2.2,2.2-3.3,3.3c-0.8,0.9-0.8,1.1,0.2,1.8c1,0.7,2,1.3,2.9,2.1
		c0.7,0.6,1.7,1.2,1.2,2.3c-0.5,1.1-1.7,0.7-2.6,0.7c-0.9,0-1.9-0.2-2.8-0.4c-2.5-0.6-4.9-1.4-7.4-2.1c-0.8-0.2-1.6-0.4-2.4-0.6
		c-0.1,0-0.4,0.2-0.3,0.2c0.4,1.2-0.8,1.3-1.4,1.7c-1.4,0.8-2.8,1.5-4.2,2.3c-1.5,0.8-3,1.7-4.5,2.6C47.8,26.1,45.6,27,43.8,26.6z"
		/>
	<path d="M14.2,17.4c0.6,1-0.5,2.1,0.1,3.1c0.1,0.1-0.1,0.6-0.3,0.7c-0.8,0.5-1.6,1.1-2.5,1.2c-1,0.2-2.1,0-3.2,0
		c-0.1,0-0.2-0.2-0.2-0.2c0-0.1,0.1-0.3,0.2-0.4c0.4-0.3,0.8-0.2,1.3-0.1c0.8,0.1,1.7,0.2,2.6-0.3c1.5-0.9,1.1-2.3,1.3-3.5
		c0.1-0.3-0.2-0.7,0-1c0.2-0.3,0.5-0.6,0.8-0.9c0,0.3,0.1,0.6,0.1,1C14.4,17.1,14.3,17.3,14.2,17.4z"/>
</g>
</svg>
