<?xml version="1.0" encoding="iso-8859-1"?>
<!-- Generator: Adobe Illustrator 25.3.0, SVG Export Plug-In . SVG Version: 6.00 Build 0)  -->
<svg version="1.1" id="Calque_1" xmlns="http://www.w3.org/2000/svg" xmlns:xlink="http://www.w3.org/1999/xlink" x="0px" y="0px"
	 viewBox="0 0 78.4 33.8" style="enable-background:new 0 0 78.4 33.8;" xml:space="preserve">
<g>
	<path d="M42.9,30.1c-0.9-0.1-2.2-0.3-3.5-0.4c-1.5-0.1-2.4-1-3.2-2c-0.7-0.9-1.5-1.7-2.3-2.5c-0.3-0.3-0.6-0.5-1.1-0.4
		c-1.4,0.3-2.8,0.4-4.2,0.6c-0.2,0-0.3,0.1-0.5,0.1c0.2,0.1,0.4,0.1,0.6,0.2c1,0.1,2,0.3,3,0.4c0.1,0,0.2,0.2,0.4,0.3
		c-0.2,0.1-0.3,0.3-0.5,0.4c-0.2,0.1-0.5,0.1-0.7,0c-0.6-0.1-1,0.1-1.4,0.7c-0.1,0.2-0.7,0.1-0.1,0.4c0.8,0.4,1.5,0.9,2.3,1.3
		c1.4,0.8,1.4,1.2,0.4,2.4c-1.1,1.3-2.6,1.9-4.2,2.2c-0.6,0.1-1.4-0.4-1.9-0.7c-0.8-0.5-1.5-0.9-2.5-0.9c-0.4,0-0.9-0.3-1.2-0.6
		c-2.2-1.7-4.3-3.4-5.8-5.7c-0.7-1.1-1.7-1.5-3-1.5c-1.2,0-2.5-0.2-3.7-0.5c-2.1-0.5-4.2-1.1-6.3-0.9c-0.8,0.1-1.4-0.2-1.9-0.8
		c-0.1-0.2-0.3-0.5-0.3-0.6C1.4,21.3,1.7,21.1,2,21c0.2-0.1,0.5,0,0.7,0c0.1,0,0.2,0,0.3-0.1c-0.1-0.1-0.2-0.3-0.4-0.3
		C1.7,20.4,1,20,0.5,19.2c-0.1-0.1-0.3-0.3-0.3-0.4c-0.2-0.5-0.1-1,0.4-0.9c1.7,0.2,2.3-1.3,3.3-2.1c1-0.8,1.9-1.9,2.3-3.3
		c0.5-1.8,2.1-2.1,3.6-2.5c0.5-0.1,1.1-0.2,1.6,0c1.8,0.6,3.6,0.2,5.4,0.3c0.8,0,1.1-0.3,1.3-1.1c0.6-2.5,1.4-5,2.1-7.5
		c0.2-0.8,0.4-0.8,0.8,0C21.3,2.2,21.7,2.2,22,2c0.8-0.3,1.6-0.6,2-1.4c0.2-0.4,0.6-0.9,1.2-0.5c1.3,0.8,2.5,0.6,3.8,0.1
		C29.5,0,29.8,0,30.1,0.6c0.4,1,1.1,1.7,2.2,1.9c0.4,0.1,0.7,0.4,0.5,0.8c-0.3,0.6,0,0.9,0.2,1.4c0.3,1.1,0.7,2.2,0.4,3.4
		c-0.2,0.6-0.1,1.3-0.1,1.9c-0.1,0.9,0,1.1,0.8,1c0.4,0,0.9-0.2,1.3-0.5c1.2-0.8,2.4-1.6,3.6-2.3c0.9-0.6,1.9-0.9,3-1.2
		c2.6-0.7,5.2-0.9,7.8-0.2c2.5,0.6,5.2,0.9,7.5,2.1c1.5,0.8,2.9,1.7,4.2,2.7c1,0.8,0.8,1.7-0.4,2.3c-0.7,0.4-1.5,0.7-2.2,1.1
		c-0.1,0.1-0.2,0.1-0.3,0.1c0.1,0.1,0.2,0.1,0.4,0.2c1.8,0.7,3.5,0.2,5.2-0.6c3.3-1.5,6.7-2.7,10.3-3.4c0.9-0.2,1.9-0.4,2.8-0.5
		c1-0.1,1.6,0.6,1.4,1.5c-0.1,0.4-0.2,0.8-0.4,1.2c-0.4,0.8-0.7,1.5-1.1,2.2c-1.2,2.3-1.2,2.3,0.2,4.5c0.6,1,1.1,2,1.4,3
		c0.3,0.9,0,1.4-0.9,1.4c-1.5,0-3-0.1-4.4-0.5c-2.9-0.7-5.8-1.3-8.5-2.7c-0.3-0.1-0.6-0.2-0.8-0.3c-1.5-1.3-3.3-1.2-5.1-1.1
		c-0.1,0-0.2,0.1-0.3,0.1c0.1,0.1,0.2,0.3,0.3,0.4c0.9,0.4,1.9,0.8,2.8,1.2c1.2,0.5,1.3,0.9,0.4,1.9c-1.2,1.4-2.7,2.5-4.4,3.3
		c-2.2,1.1-4.4,2.2-6.8,2.5c-0.3,0-0.6,0.2-0.9,0.2C47.5,29.8,45.4,29.9,42.9,30.1z"/>
	<path d="M55.8,17.5c1.5,0.1,3.1-0.2,4.6,0.2c0.7,0.2,1.6-0.2,2.4-0.2c0.2,0,0.5,0,0.7,0c0.1,0,0.2,0.1,0.3,0.2
		c-0.1,0.1-0.2,0.2-0.3,0.2c-1.1,0.1-2.1,0.5-3.1,0.3c-1.3-0.2-2.6-0.2-3.9-0.3C56.3,17.8,56.1,17.6,55.8,17.5L55.8,17.5z"/>
	<path d="M47.9,16c0.4,0,0.8,0,1.2,0.1c1.9,0.5,3.9,0.8,5.9,1c0.3,0,0.5,0.2,0.7,0.4l0,0c-2.5,0.2-5-0.4-7.4-1
		C48.3,16.4,48.1,16.2,47.9,16C47.9,16.1,47.9,16,47.9,16z"/>
</g>
</svg>
