<?xml version="1.0" encoding="iso-8859-1"?>
<!-- Generator: Adobe Illustrator 25.3.0, SVG Export Plug-In . SVG Version: 6.00 Build 0)  -->
<svg version="1.1" id="Calque_1" xmlns="http://www.w3.org/2000/svg" xmlns:xlink="http://www.w3.org/1999/xlink" x="0px" y="0px"
	 viewBox="0 0 81.8 26.3" style="enable-background:new 0 0 81.8 26.3;" xml:space="preserve">
<g>
	<path d="M66,11.9c2.6,0.2,5.1-0.7,7.5-1.4c1-0.3,2-0.5,2.9-0.9c2.1-0.9,4.3,0.9,4.8,2.4c0.4,1.2,0.7,2.4,0.5,3.7
		c-0.2,1.1-0.4,2.2-0.7,3.3c-0.7,2.3-2.2,3-4.6,2.4c-2.7-0.7-5.3-1.6-8-2.3c-1.3-0.3-2.7-0.4-4.1-0.6c-1-0.1-1.9,0-2.9,0
		c-0.3,0-0.5,0.1-0.8,0.2c0.2,0.1,0.4,0.4,0.7,0.4c1.4,0.4,2.1,1.3,2.1,2.9c0,0.2,0.1,0.4,0.2,0.7c0.1,0.4,0.1,0.7-0.5,0.6
		c-0.3-0.1-0.7,0-1.1-0.2c-0.7-0.3-1.2-0.3-1.6,0.4c-0.1,0.2-0.6,0.3-0.9,0.3c-0.3,0-0.6-0.3-1-0.5C58.3,23,58,23,58,23.5
		c-0.1,1.2-0.1,1.2-1.1,0.6c-0.3-0.2-0.6-0.4-0.9-0.6c-0.5-0.3-0.6-0.2-0.6,0.5c0,0.7-0.2,0.8-0.8,0.5c-0.2-0.1-0.4-0.2-0.6-0.3
		c-0.1-0.1-0.3,0-0.5,0c0.1,0.1,0.2,0.3,0.2,0.4c0.1,0.2,0.1,0.4,0.1,0.6c-0.2,0-0.5,0.1-0.6,0c-0.4-0.2-0.8-0.5-1.2-0.8
		c-0.1-0.1-0.3-0.1-0.4-0.1c0,0.1,0,0.2,0.1,0.3c0.1,0.8-0.1,1-0.7,0.7c-0.5-0.3-0.9-0.7-1,0.3c0,0-0.4,0.1-0.6,0
		c-0.4-0.1-0.9-0.9-1.1,0.2c0,0-0.3,0.1-0.4,0c-0.8-0.2-1.4-0.2-2.6,0.1c-0.4,0.1-0.9-0.3-1.2-0.1c-1,0.8-1.7,0.2-2.4-0.4
		c-0.4-0.3-0.4,0-0.7,0.2c-0.2,0.1-0.5,0.2-0.7,0.1c-0.6-0.2-1.2-0.8-1.9-0.1c-0.7-0.4-1.4-0.7-2-1.1c-0.6-0.4-1-1.2-2.1-1
		c-0.4,0.1-1-0.7-1.5-1.1c-0.6-0.6-1-1.6-1.7-1.8c-0.7-0.2-1.5,0.6-2.3,0.7c-2.4,0.4-4.8,0.9-7.3,0.3c-1.8-0.4-3.6-0.6-5.5-0.8
		c-0.1,0-0.3,0.1-0.3,0.1c0,0.1-0.1,0.4,0,0.5c0.4,0.4,0.9,0.8,1.4,1.1c1.2,0.7,2.4,1.3,3.8,1.4c0.3,0,0.6,0.3,0.9,0.5
		c-0.4,0.1-0.7,0.3-1.1,0.3c-0.5,0-0.9-0.2-1.4-0.3c-0.5-0.1-1-0.4-1.4,0.3c-0.3,0.5-0.7,0.2-1.1,0c-1.2-0.6-2.4-1.2-3.1-2.4
		c-1-1.8-2.7-2.2-4.4-2.3c-1.8-0.1-3.4-0.7-4.9-1.4c-0.7-0.3-1.4-0.7-2.2-0.8c-1.2-0.2-1.7-1-2.1-1.9c-0.3-0.6,0.1-1,0.5-1.4
		c0.3-0.4,0.7-0.6,1.1-0.9c0.5-0.4,0.9-0.9,0.5-1.7c-0.2-0.5,0.1-1,0.5-0.7c0.7,0.5,1,0.1,1.3-0.3c0.3-0.3,0.4-0.7,0.8-1
		C5.4,9.6,6,9.1,6.7,8.6C7.4,8.3,8,8.1,8.3,7.3c0.1-0.4,0.6-0.7,1-0.9c0.3-0.2,0.6-0.2,1-0.3c0,0.3,0.1,0.7,0,1
		c0,0.2-0.2,0.3-0.2,0.5C10,8,10.2,8.3,10.7,8.3c1.6-0.3,3.4-0.2,4.6-1.8c1.6-1.9,3.7-3.2,5.9-4.2c1-0.5,1-0.4,1.4,0.7
		c0.2,0.5,0.5,1.1,0.7,1.6c0,0,0,0.1-0.1,0.2c-0.1,0.2-0.1,0.3-0.2,0.5c0.2-0.1,0.4-0.1,0.6-0.2c1.3-0.9,2.5-2,3.9-2.9
		c1.4-1,3-1.7,4.8-1.7C33.2,0.4,34,0,35,0c2.1,0.1,3.8,0.8,5.6,1.7c1.8,0.9,3.2,2.1,4.4,3.6C45.4,5.8,45.8,6.4,46,7
		c0.2,0.4,0.3,0.9,0.4,1.4c0.1,0.7,0.5,0.8,1,0.5c0.9-0.4,1.8-0.7,2.6-1.2c1.8-1.1,3.8-1.7,5.8-2.4c0.3-0.1,0.8-0.2,1-0.1
		c1.8,1.4,4,2.4,4.9,4.8c0.1,0.2,0.2,0.4,0.2,0.5c-0.6,1.2,0.4,1.1,1,1.2C63.9,11.8,65,11.8,66,11.9z"/>
	<path d="M9.3,12.3c-0.4,0.1-0.8,0.2-1.2,0.2c-0.3,0-0.6,0.2-0.9,0c-0.4-0.2-0.9-0.5-1-0.9c-0.1-0.3,0.2-0.9,0.5-1.2
		c0.8-0.6,1.8-0.6,2.7-0.3c0.6,0.2,0.6,0.8,0.6,1.3C9.8,11.8,9.5,12.1,9.3,12.3z"/>
</g>
</svg>
