<?xml version="1.0" encoding="iso-8859-1"?>
<!-- Generator: Adobe Illustrator 25.3.0, SVG Export Plug-In . SVG Version: 6.00 Build 0)  -->
<svg version="1.1" id="Calque_1" xmlns="http://www.w3.org/2000/svg" xmlns:xlink="http://www.w3.org/1999/xlink" x="0px" y="0px"
	 viewBox="0 0 237 92.1" style="enable-background:new 0 0 237 92.1;" xml:space="preserve">
<g>
	<path d="M96.9,14.7c7.5,0.4,14.9,0.7,22.4,1.2c3.8,0.2,7.2-0.7,10.5-2.4c5.6-2.9,11.1-5.9,16.8-8.8c3.1-1.6,6.3-2.9,9.5-4.3
		c2.1-0.9,3.1-0.3,2.9,1.7c-0.8,6.5-0.4,13.3-2.9,19.6c-0.1,0.3-0.2,0.7-0.4,0.9c-0.8,1.2-1.6,2.4-2.4,3.7c1.5,0.5,3.1,1,4.6,1.5
		c4.6,1.4,9.2,2.7,13.8,4.2c2.5,0.8,4.8,1.3,7.3,0.5c2.3-0.8,4.5-0.4,6.8,0.3c2.3,0.7,4.1,1.7,4.2,4.2c0.1,1.9,1.3,2.1,2.7,2
		c1.3-0.1,2.6-0.3,3.9-0.8c8.7-2.9,17-6.6,25-10.9c3.6-1.9,7.7-3,11.7-4.1c2.5-0.7,4.2,1.1,3.3,3.3c-2.3,6.1-2.6,12.5-3.6,18.8
		c-0.1,0.3,0,0.7-0.1,1c-3,10-3.9,20.4-6.1,30.5c-0.6,2.7-1.7,5.4-2.8,8c-0.7,1.8-1.9,2.5-4,1.8c-3.3-1.1-6.3-2.6-9.2-4.8
		c-6.7-5.1-11.3-12.2-17.5-17.7c-1.1-1-1.5-1.6-3.2-0.1c-7.4,6.4-15.2,12.3-22.8,18.4c-2.2,1.8-4.4,3.7-4.9,6.7
		c-0.4,2.6-1.9,3-4.2,3c-3.9,0-7.6-0.7-11.2-2c-4.8-1.8-9.7-3.4-14.5-5.3c-2.3-0.9-4.5-0.8-6.8-0.3c-3.8,0.9-7.8,2.6-11.6,2.2
		c-8.2-0.7-16.1-0.3-24.1,1.2c-7.8,1.4-15.7,2.2-23.6,2.9c-10.4,1-20.7,0.6-29.8-5.5c-2.3-1.6-4.6-3.3-6.8-5
		c-1.8-1.4-3.7-2.9-5.4-4.4c-3-2.6-5.7-5.4-8.1-8.6c-3.6-4.7-8.3-8.5-12.2-13c-1.7-1.9-3-4.3-4-6.7c-0.4-1,0-2.7,0.7-3.7
		c1.1-1.7,4.9-0.7,4.4-4.2c2-1.4,3.9-3.1,6-4.3c2-1.1,4.3-1.8,6.4-2.6c8.8-3.5,17.6-7,26.4-10.4c8.6-3.3,17.5-4.6,26.6-5.7
		C79.4,15.7,88.1,14.7,96.9,14.7z"/>
	<path d="M14.1,61c0.7-0.3,1.5-1.1,2-0.9c2.7,1.1,5.4,1.4,7.5-0.7c2.5-2.4,4.6-5.2,4.5-9c-0.1-3.5-0.1-7,0-10.5
		c0-0.5,0.5-1.1,0.8-1.6c0.4,0.4,1.1,0.9,1.1,1.3c0.1,4.1,0.6,8.4,0.1,12.4c-0.6,4.6-3.5,8.1-7.7,10.4c-2.5,1.4-4.8-0.1-7.2-0.4
		C14.8,61.7,14.5,61.3,14.1,61z"/>
	<path d="M52,56c-1.5,0.1-2,0.1-2.5,0.1c-1.2,0.2-1.4,0.9-0.7,1.7c1.3,1.5,2.6,3,3.9,4.5c0.2,0.2-0.2,0.8-0.3,1.2
		c0,0.1-0.7,0-0.8-0.2c-1.8-2-3.6-3.9-5.2-6c-0.7-0.9-0.5-2,0.7-2.4c1.6-0.5,3.3-1,4.8-0.9c4.6,0.4,9.2,1,13.7,1.9
		c11.2,2.2,22.3,4.5,33.5,6.9c5.7,1.2,11.3,2.6,16.8,4.2c1.8,0.5,3.3,1.9,4.9,2.9c-1.3,2.2-3.6,2-5.7,2c-6.3,0.2-12.6,0.7-18.9,0.5
		c-7.3-0.2-14.5-1-21.8-1.5c-4.3-0.3-8.6-0.7-12.9-1.1c-2.7-0.3-5.3-0.8-7-3.2c-0.2-0.3-0.1-0.9-0.1-1.3c0.3,0,0.6-0.1,0.9,0
		c4.8,3.1,10.3,3,15.7,3.4c7.6,0.5,15.2,1.2,22.8,1.8c1.5,0.1,3,0.1,4.5,0c5.6-0.3,11.2-0.5,16.9-0.9c0.4,0,0.9-0.3,1.3-0.4
		c-0.5-0.2-0.9-0.3-1.4-0.5c-15.4-3.9-30.8-7.7-46.5-10.1C62.8,58,56.9,56.9,52,56z"/>
	<path d="M15.3,53.1c-2.1,0.2-3.8-0.6-4.8-2.5c-0.2-0.3,0.5-1.4,0.6-1.4c1.3,0.3,2.6,0.5,1.4-1.4c-1.1-1.6,1.8-2.2,0.5-3.6
		c-0.7,1.1-1.3,2.1-2.1,3.1c-0.1,0.2-0.7,0.4-0.8,0.3c-0.3-0.3-0.9-0.7-0.8-1c0.6-3.1,2.2-5.5,4.9-7.1c0.7-0.4,2-0.5,2.8-0.2
		c1.2,0.5,2.3,1.3,3.3,2.1c2.8,2.5,3.6,4.9,2.5,7.4C21.5,51.8,19.2,53.1,15.3,53.1z"/>
	<path d="M18,65.9c0.1-1,0.2-2.2,1.7-1.7c3,1.1,5.8,0.5,8.8-0.2c1.9-0.5,3.2-1.5,4.6-2.6c2.5-2.1,4.5-5.2,8.5-5c0.7,0,0.7-0.6,0.1-2
		c-0.2-0.5-0.2-1.4,0-1.6c2.8-2,2.2-4.9,2.3-7.7c0.1-2.8-1.3-5.2-2.7-7.3c-1.4-2-3.4-3-6-2.9c-1.8,0.1-3.6-0.1-5.4-0.3
		c-0.2,0-0.5-0.5-0.5-0.7c0-0.3,0.2-0.7,0.4-0.8c4.8-2,11.1,0.3,13.9,4.7c3.5,5.6,2.9,11.4,1.1,17.2c-0.5,1.6-2.6,2.8-4.2,4
		c-2.2,1.7-4.6,3.2-7,4.7c-3.9,2.6-8,3.9-12.6,2.7C20.1,66.2,19.1,66.1,18,65.9L18,65.9z"/>
</g>
</svg>
