<?xml version="1.0" encoding="iso-8859-1"?>
<!-- Generator: Adobe Illustrator 25.3.0, SVG Export Plug-In . SVG Version: 6.00 Build 0)  -->
<svg version="1.1" id="Calque_1" xmlns="http://www.w3.org/2000/svg" xmlns:xlink="http://www.w3.org/1999/xlink" x="0px" y="0px"
	 viewBox="0 0 239.9 99" style="enable-background:new 0 0 239.9 99;" xml:space="preserve">
<g>
	<path d="M150.4,56c-4.8,0-9.7-0.1-14.5,0c-5.5,0.2-10.9,0.7-16.4,1.1c-0.3,0-0.6,0.3-0.9,0.5c0.3,0.1,0.6,0.2,0.9,0.3
		c6.1,1.2,6.6,2.2,2.3,6.2c-3.5,3.3-6.7,7.3-11.7,9c-3.3,1.1-6.2,0.6-9.2-0.7c-1.2-0.5-1.9-0.4-2,1.1c-0.3,2.8-1.9,4.9-3.9,6.8
		c-4.3,3.9-8.3,8.3-12.9,11.7c-6.3,4.5-13.6,6.7-21.5,7c-5.6,0.2-10.9-1.3-15.7-4c-9.9-5.6-18.5-12.9-25.7-21.8
		c-4.8-5.9-9.6-11.8-14.5-17.7c-6.1-7.3-6.3-7.8-0.6-15.2c9.7-12.6,20.6-23.8,34.1-32.5c6.5-4.2,13.6-7.2,21.3-7.8
		c4.2-0.3,8.7,0.3,12.7,1.6c11.1,3.6,20.6,9.9,27.6,19.5c0.7,0.9,1.2,2,1.7,3c0.5,1,1.1,1.6,2.3,1.1c3.8-1.4,7.2-0.3,10.4,1.6
		c2.5,1.6,5,3.3,7.3,5.2c2,1.7,1.7,2.8-0.7,3.9c-0.8,0.3-1.5,0.6-2.3,0.9c-0.3,0.1-0.6,0.3-0.9,0.4c0.4,0.1,0.7,0.4,1.1,0.4
		c3.3-0.1,6.6-0.3,10-0.3c2.8-0.1,5.6-0.1,8.4,0c1.5,0,3,0.1,4.5,0.3c7.6,0.9,15.1,1.7,22.6,2.7c6.7,0.9,13.4,2.1,20.1,3
		c0.8,0.1,1.8-0.6,2.5-1.1c2.2-1.8,4.2-3.8,6.5-5.4c2.2-1.6,3.7-1.1,4.3,1.6c0.4,1.6,0.3,3.3,0.3,4.9c0.1,3.1,0.1,3.1,3.2,4
		c5.9,1.7,11.6,1.8,17.3-1.2c4.7-2.4,9.9-3.8,14.9-5.6c1.2-0.4,2.6-0.7,3.9-0.5c2.6,0.4,3.3,1.8,2.4,4.3c-1.7,4.7-3.9,9-7.9,12.5
		c-3.5,3.1-7.2,3.8-11.5,2.6c-1.4-0.4-2.8-1-4.3-1.4c-3.8-1.2-7.4-1.9-11.6-1.4c-5.9,0.7-12,0.3-18,0.2c-12-0.3-23.9-0.8-35.9-1.2
		C150.4,55.8,150.4,55.9,150.4,56z"/>
	<path d="M31.8,45.5c5.9,0.7,11.8,1.4,17.7,2.1c0.8,0.1,1.7,0.2,2.5,0.2c7.1,0.4,14.2,0.4,21.2,1.1c8.4,0.9,16.7,1.1,25.1,0.8
		c8.4-0.4,16.7-1.2,25-1.8c0.5,0,1-0.2,1.5-0.1c0.9,0.2,1.7,0.6,2.6,0.9c-0.8,0.4-1.5,1.1-2.3,1.1c-7.8,0.4-15.6,0.7-23.3,1.1
		c-4.6,0.2-9.2,0.8-13.8,0.9c-3.4,0-6.9-1-10.3-0.8c-3.9,0.3-7.6-0.9-11.4-1c-3.8-0.1-7.7,0.3-11.5-0.3c-9.2-1.4-18.4-2.1-27.7-1.9
		c-0.5,0-1.1,0.1-1.5-0.1c-0.5-0.2-0.9-0.7-1.3-1.1c0.4-0.3,0.8-0.7,1.1-0.7c2.2-0.1,4.3,0,6.5,0C31.8,45.8,31.8,45.7,31.8,45.5z"/>
	<path d="M24,38.2c0.1,0.3,0.3,0.6,0.2,0.8c-0.4,1.3-0.6,2.7-1.3,3.7c-1.9,2.3-1.4,4.4-0.2,6.8c0.9,1.8,1.7,3.6,2.6,5.4
		c0.1,0.2-0.1,0.5-0.2,0.8c-0.3-0.1-0.7-0.1-0.8-0.3c-0.9-1.4-1.6-2.9-2.6-4.2c-0.6-0.8-1.5-1.3-2.2-1.9c-0.5-0.4-1.1-0.7-1.7-1.1
		c0.6-0.1,1.3-0.2,1.9-0.4c0.3-0.1,0.4-0.6,0.7-0.9c-0.3-0.2-0.5-0.5-0.8-0.5c-0.5,0-0.9,0.3-1.4,0.3c-0.3,0-0.6-0.3-0.7-0.5
		c-0.1-0.2,0.1-0.8,0.2-0.8c3.5-0.9,4.8-3.7,5.8-6.8C23.2,38.4,23.7,38.3,24,38.2z"/>
	<path d="M33.4,54.8c0.5,0,1,0,1.5,0c2.3,0.3,2.8,1.2,1.9,3.3c-1.3,2.9-1.7,3-4.4,1.7c-0.6-0.3-1.3-0.5-1.7-0.9
		c-0.7-0.6-1.2-1.4-1.8-2.1c0.8-0.6,1.6-1.4,2.5-1.9C32,54.6,32.8,54.8,33.4,54.8C33.4,54.8,33.4,54.8,33.4,54.8z"/>
	<path d="M33.7,39.8c-0.8,0-1.7,0.1-2.3-0.2c-0.6-0.3-1.3-1.2-1.4-1.9c-0.1-0.6,0.6-1.5,1.1-1.9c2.3-1.5,4.2-1.4,5.8,0.5
		c0.5,0.5,0.8,1.6,0.6,2.1c-0.2,0.6-1.2,1.1-1.9,1.2c-0.5,0.1-1.2-0.3-1.8-0.4C33.7,39.5,33.7,39.6,33.7,39.8z"/>
</g>
</svg>
