<?xml version="1.0" encoding="iso-8859-1"?>
<!-- Generator: Adobe Illustrator 25.3.0, SVG Export Plug-In . SVG Version: 6.00 Build 0)  -->
<svg version="1.1" id="Calque_1" xmlns="http://www.w3.org/2000/svg" xmlns:xlink="http://www.w3.org/1999/xlink" x="0px" y="0px"
	 viewBox="0 0 80.6 25.6" style="enable-background:new 0 0 80.6 25.6;" xml:space="preserve">
<g>
	<path d="M80.5,12c0.3,2.1-0.5,4.1-1.5,6.1c-0.5,1.1-1.3,1.4-2.5,0.9c-2.2-1-4.4-1.9-6.5-2.9c-2.5-1.1-5-1.5-7.7-0.8
		c-0.7,0.2-1.4,0.2-2.1,0.4c-0.3,0-0.5,0.1-0.7,0.2c0.3,0.1,0.5,0.3,0.8,0.3c0.7,0.1,1.3,0.1,2,0.1c0.4,0,0.8,0.1,1.2,0.2
		c0.4,0.1,0.6,0.5,0.3,0.9c-0.9,0.9-1.6,2.3-3.2,2.3c-1,0.8-2.4,0.4-3.4,1.2c-0.2,0.2-0.6,0.1-0.8,0.2c-0.2,0-0.6-0.1-0.7,0.1
		c-0.7,1.3-2,0.7-2.9,0.9c-0.7,0.2-1.5,0.1-2.1,0.8c-0.1,0.2-0.5,0.3-0.6,0.3c-1.1-1-2.2,0.1-3.3,0c-0.5-0.1-1,0.3-1.6,0.4
		c-0.5,0.1-1-0.5-1.4,0.2c-1.2-0.1-2.3,0.9-3.5,0.2c-0.1,0-0.1-0.1-0.2,0c-1.2,0.8-2.3,0.2-3.3-0.4c-1-0.6-2.4-0.5-3.2-1.5
		c-0.2-0.2-0.7-0.3-1-0.3c-3.7,0.9-7.5,0.7-11.2,0.7c-0.6,0-0.6,0.2-0.5,0.7c0.1,0.7-0.6,1.1-1.2,1c-0.6-0.2-0.8,0.1-1.2,0.4
		c-0.9,0.8-2.1,0.8-3.2,1.1c-0.2,0.1-0.6-0.1-0.8-0.2c-0.5-0.2-1-0.7-1.4-0.7c-1.4,0-1.9-0.9-2.2-2c-0.3-1.1-0.9-1.5-2-1.7
		c-1-0.2-2-0.7-3-1.1c-1.1-0.4-1.9-1.1-2.6-2.1c-0.4-0.6-0.9-1.1-1.4-1.6c-1.1-1-2-2.1-1-3.7c0.1-0.2-0.1-0.5-0.2-0.8
		c-0.2-0.5-0.6-1-0.8-1.6C0,10.1,0.1,9.8,0.3,9.7c0.1-0.1,0.5,0,0.6,0.2c0.5,0.8,1,1.6,1.4,2.4c0.2,0.3,0.2,0.7,0.4,1
		c0,0.1,0.1,0.2,0.2,0.3c0-0.1,0.1-0.3,0.1-0.4c0-0.3-0.1-0.6-0.2-0.9C2.5,10.8,3,9.7,4.3,8.9c0.4-0.2,0.9-0.4,1.2-0.7
		c0.8-1,1.9-1.1,2.9-0.7c0.6,0.2,1,0.1,1.5-0.2c2-1,4.1-1.4,6.4-1.4c2.7-0.1,5.3-0.4,8-0.7c0.3,0,0.6-0.4,0.7-0.6
		c0.5-0.8,1.1-1.6,1.6-2.4c0.3-0.5,0.7-0.6,1.2-0.7c1.6-0.3,2.5,0.2,3.4,1.5c0.2,0.4,0.5,0.8,0.9,1.1c0.3,0.3,0.7,0.6,1,1
		C33.4,4.7,33.7,4.4,34,4c0.2-0.2,0.3-0.4,0.5-0.5c2.7-1.3,5.3-3.1,8.3-3.5c0.5-0.1,1.1,0,1.5,0.2c2.4,1.1,4.8,2.3,7.2,3.4
		c0.5,0.2,1,0.5,1.5,0.5c1.9,0,3.5,1.2,5.3,1.6c0.2,0,0.4,0.3,0.4,0.5c0,0.2-0.2,0.4-0.4,0.5c0,0-0.1,0-0.2,0.1
		c-0.4,0.2-0.9,0.3-1.3,0.5c0.5,0.2,1,0.4,1.5,0.4c1.7,0.2,3.4,0.3,5.2,0.4c1.7,0.1,3.3-0.5,4.7-1.3c2.4-1.4,4.8-2.6,7.2-3.9
		c0.6-0.3,1.1-0.3,1.5,0.3C79.1,5.6,80.8,8.3,80.5,12z"/>
	<path d="M12.5,19.6c-0.7,0.6-1.5,0.3-2.2,0.3c-0.4,0-0.9-0.3-1.3-0.5c0.5-0.4,0.9-0.1,1.4,0c0.6,0.1,1.3,0.1,1.9,0.1
		C12.4,19.5,12.4,19.6,12.5,19.6z"/>
</g>
</svg>
