<?xml version="1.0" encoding="iso-8859-1"?>
<!-- Generator: Adobe Illustrator 25.3.0, SVG Export Plug-In . SVG Version: 6.00 Build 0)  -->
<svg version="1.1" id="Calque_1" xmlns="http://www.w3.org/2000/svg" xmlns:xlink="http://www.w3.org/1999/xlink" x="0px" y="0px"
	 viewBox="0 0 70.9 38.3" style="enable-background:new 0 0 70.9 38.3;" xml:space="preserve">
<g>
	<path d="M65.3,19.9c-1.5-0.2-3.1-0.4-4.6-0.5c-0.9-0.1-1.9,0-2.9,0.1c-1.4,0.1-2.7,0.6-4,0.6c-3.5,0-6.9,0.9-10.3,0.8
		c-1.8-0.1-3.6,0.2-5.4,0.3c-0.7,0-1,0.3-0.9,1c0,0.1,0,0.1,0,0.2c0.4,2.6-0.8,4.3-3,5.5c-0.4,0.2-0.6,0.7-0.9,1
		c-2.4,3.6-5.4,6.3-9.6,7.7c-1.2,0.4-2.5,0.9-3.7,1.3c-2.6,0.8-5,0.6-7.5-0.5c-4-1.8-6.9-4.8-8.8-8.7c-1.1-2.3-1.8-4.9-3.1-7.2
		c-1-1.7-0.7-2.9,0.1-4.5C1.6,15,2.1,13,2.9,11.1C3.9,9,5,6.9,6.2,5c1.1-1.7,3-2.7,4.8-3.6c1.6-0.8,3.3-1.1,5-1.4
		c0.3-0.1,0.7,0,1.1,0c4.6,0.9,8.7,2.9,12.2,6.1c1,0.9,2,1.7,2.9,2.6c0.7,0.8,1.3,1.7,1.9,2.6c0.3,0.4,0.5,0.9,0.9,1.1
		c1.2,0.7,1.8,1.9,2.2,3.1c0.2,0.6,0.5,0.9,1.1,0.9c2,0.1,4,0.3,6.1,0.3c3.9,0.1,7.9,0.2,11.8,0.4c1.1,0.1,2.2,0.4,3.3,0.5
		c0.8,0.1,1.7,0.2,2.5,0.1c2.2-0.4,4.5-0.7,6.7-0.6c0.4,0,0.8-0.1,1.1,0.1c0.4,0.3,0.9,0.6,1.1,1c0.1,0.2-0.5,0.8-0.8,1
		c-0.6,0.3-1.4,0.4-2.1,0.5c-0.9,0.1-1.8,0-2.7,0C65.3,19.8,65.3,19.8,65.3,19.9z"/>
	<path d="M10.9,15.7c0.2,0,0.5-0.1,0.7,0c0.4,0.2,0.7,0.4,1,0.6c-0.3,0.3-0.5,0.6-0.8,0.8c-0.2,0.1-0.4,0.2-0.7,0.3
		c-0.1,0-0.3,0-0.5-0.1c0-0.1,0.1-0.3,0.1-0.4c0-0.1,0-0.2,0.1-0.3c-0.4,0-0.7,0-1.1,0c0,0.2,0.1,0.4,0.1,0.5c0,0.1,0,0.2-0.1,0.4
		c-0.3-0.2-0.6-0.4-0.8-0.6c-0.1-0.1,0.1-0.6,0.3-0.7c0.5-0.3,1.1-0.4,1.6-0.6C10.9,15.6,10.9,15.6,10.9,15.7z"/>
	<path d="M10.7,23.3c-0.1,0-0.4,0-0.6-0.1c-0.5-0.2-1-0.5-0.9-1.2c0.1-0.5,0.7-0.6,1.2-0.5c0.3,0,0.7,0.2,1,0.2
		c0.5,0.1,1.2,0.1,1.1,0.8c-0.1,0.3-0.8,0.5-1.3,0.8C11.2,23.3,11.1,23.3,10.7,23.3z"/>
</g>
</svg>
