<?xml version="1.0" encoding="iso-8859-1"?>
<!-- Generator: Adobe Illustrator 25.3.0, SVG Export Plug-In . SVG Version: 6.00 Build 0)  -->
<svg version="1.1" id="Calque_1" xmlns="http://www.w3.org/2000/svg" xmlns:xlink="http://www.w3.org/1999/xlink" x="0px" y="0px"
	 viewBox="0 0 76.5 56.2" style="enable-background:new 0 0 76.5 56.2;" xml:space="preserve">
<g>
	<path d="M75.2,11c-0.4,2.7-0.7,5.6-1.1,8.5c0,0.1-0.1,0.2-0.1,0.3c0,0.2,0,0.5,0.1,0.7c0.1,0.1,0.4,0,0.6-0.1
		c0.4-0.2,0.7-0.5,1-0.7c0.2-0.1,0.4-0.1,0.6-0.2c0,0.2,0.1,0.5,0.1,0.7c-0.1,0.3-0.3,0.5-0.5,0.7c-0.8,0.7-1.7,1.3-2.5,2
		c-0.8,0.8-1.5,1.7-2.3,2.4c-1.7,1.6-3.5,3.1-5.6,4.1c-1.2,0.6-2.4,1.2-3.7,1.6c-3.2,1-6.3,1.9-9.7,2.1c-0.3,0-0.5,0.1-0.5,0.5
		c0,1.5-0.1,2.9,0,4.4c0,0.7-0.3,1.3-0.3,1.9c0,1.2-1,1.6-2.4,1.2c-0.6-0.1-0.8-0.2-1,0.4c-1.2,3.3-3.5,5.7-6.3,7.8
		c-1.9,1.4-3.8,2.9-6,3.8c-1.5,0.6-3,1-4.5,1.4c-2.5,0.7-5,1.5-7.7,1.4c-1.9-0.1-3.7-0.7-5.5-1.3c-0.5-0.2-0.9-0.8-1.4-1.1
		c-3-1.8-4.9-4.6-6.7-7.5c-1.4-2.2-2.6-4.6-3.8-6.9c-1.1-2.1-2-4.4-2.6-6.8c-0.5-1.8-1.4-3-2.9-4c-0.9-0.6-0.9-1.1-0.1-1.7
		c1-0.7,2-1.3,2.7-2.3c0.4-0.5,0.8-0.9,1.1-1.4C5.5,21,6.6,18.8,8,16.8c1.8-2.6,3.3-5.5,5.6-7.7c1.3-1.3,2.4-2.8,3.8-4
		c2.6-2.2,5.7-2.7,9-2.1c1.3,0.2,2.6,0.5,3.8,0.7c2.5,0.5,4.6,1.6,6.6,3c2.3,1.5,4.7,3,6.9,4.8c1.4,1.2,2.4,2.8,3.5,4.2
		c0.4,0.6,0.9,1.1,1.2,1.8c0.3,0.6,0.4,1.3,0.6,1.9c0.1,0.5,0.4,0.8,1,0.9c0.5,0.1,1.1,0.2,1.4,0.5c0.4,0.4,0.6,1.1,0.6,1.7
		c0,1.2,0.3,2.4-0.3,3.6c-0.1,0.2-0.1,0.5-0.1,0.7c-0.1,0.8,0,1,0.8,1c0.3,0,0.6,0,0.9,0c1.8-0.1,3.6-0.2,5.3-0.5
		c3.4-0.6,6.8-1.3,9.6-3.5c1.9-1.5,3.6-3.1,3.7-5.9c0.1-2.2-0.3-4.2-0.6-6.2c-0.3-1.9-0.6-3.7-1-5.5C70.2,5.4,70,4.8,70,4.1
		c0-0.9,0-1.8,0-2.7c0-0.8,0.6-1.4,1.3-1.5c0.5,0,1.2,0.4,1.4,0.9c0.6,1.6,1.6,3.2,1.7,5c0,0.8,0.3,1.5,0.4,2.3
		C74.9,9,75,9.9,75.2,11z"/>
	<path d="M13.9,30.9c0.5,0.2,0.9,0.4,1.2,0.6c0.6,0.6,1.1,1.1,2,0.8c0.1,0,0.4,0.3,0.4,0.4c0,0.1-0.2,0.3-0.3,0.4
		c-1.2,1-2.4,1.5-3.5-0.2c-0.1-0.1-0.2-0.1-0.3-0.1c-0.6-0.1-0.9-0.5-0.7-1C13,31.5,13.5,31.2,13.9,30.9z"/>
	<path d="M15.1,23.8c1,0,1.6,0.4,2,1.2c0.4,0.8,0.4,0.9-0.6,1.1c-0.6,0.1-1.2,0.5-1.8,0.7c-0.2,0.1-0.4-0.1-0.7-0.1
		c0.1-0.1,0.3-0.3,0.4-0.4c0.1-0.1,0.1-0.3,0.2-0.4c-0.2,0-0.4-0.1-0.5-0.1c-0.2,0.1-0.4,0.2-0.6,0.3c-0.5,0.3-0.5-0.2-0.4-0.4
		c0.2-0.5,0.5-1.1,0.9-1.5C14.3,23.9,14.7,23.9,15.1,23.8z"/>
	<path d="M49.7,30.7c-0.5,0.3-0.8,0.5-1.2,0.6c-0.1,0-0.4-0.5-0.4-0.8c0-0.4,0.3-0.6,0.7-0.5C49,30.1,49.3,30.4,49.7,30.7z"/>
	<path d="M52.6,30.7c-0.6,0.3-0.9,0.4-1.3,0.6C51.2,31,51,30.7,51,30.4c0-0.1,0.3-0.4,0.4-0.4C51.7,30.2,52,30.4,52.6,30.7z"/>
	<path d="M46,29.6c0.4,0.5,0.6,0.7,0.8,0.9c-0.3,0.2-0.6,0.6-0.9,0.7c-0.4,0.1-0.3-0.3-0.2-0.6C45.8,30.4,45.9,30.1,46,29.6z"/>
	<path d="M62.4,29.3c-0.2-0.3-0.5-0.6-0.5-0.8c0.1-0.2,0.4-0.4,0.7-0.6c0.2,0.2,0.4,0.5,0.4,0.7C63,28.8,62.7,29,62.4,29.3z"/>
	<path d="M64.6,27.3c0.4-0.1,0.6-0.2,0.8-0.2c0.2,0,0.3,0.2,0.5,0.4c-0.2,0.2-0.5,0.4-0.7,0.6C65.1,27.8,64.9,27.6,64.6,27.3z"/>
	<path d="M60.3,29.8c-0.2-0.3-0.4-0.6-0.3-0.7c0.1-0.2,0.3-0.4,0.6-0.5c0.1,0,0.4,0.4,0.4,0.4C60.8,29.2,60.6,29.4,60.3,29.8z"/>
	<path d="M56.4,30.7c-0.1-0.4-0.2-0.7-0.1-0.9c0-0.1,0.4-0.3,0.5-0.2c0.2,0.1,0.3,0.4,0.5,0.6C57.1,30.2,56.8,30.4,56.4,30.7z"/>
</g>
</svg>
