<?xml version="1.0" encoding="iso-8859-1"?>
<!-- Generator: Adobe Illustrator 25.3.0, SVG Export Plug-In . SVG Version: 6.00 Build 0)  -->
<svg version="1.1" id="Calque_1" xmlns="http://www.w3.org/2000/svg" xmlns:xlink="http://www.w3.org/1999/xlink" x="0px" y="0px"
	 viewBox="0 0 239.1 30.4" style="enable-background:new 0 0 239.1 30.4;" xml:space="preserve">
<g>
	<path d="M50.2,9.1c1.8,0,3.7,0,5.5,0c3.8,0.1,7.4-0.2,11.1-1.9c5.4-2.4,11.3-2,17-0.8c1,0.2,1.9,0.6,2.9,0.6
		c10.8,0.4,21.6,1.5,32.3,0.8c20.6-1.3,41.2-0.3,61.8-0.8c6.2-0.2,12.2,0.3,18.2,1.8c3.2,0.8,6.1-0.3,9-1.8c8.7-4.8,18-7.6,28.1-6.9
		c0.5,0,1-0.1,1.5,0.1c0.5,0.1,0.9,0.4,1.3,0.6c-0.3,0.5-0.4,1.3-0.9,1.5c-4.2,2.1-8.3,4.1-12.6,6c-2.4,1.1-4.9,2-7.4,3
		c-0.7,0.3-1.4,0.9-2.1,1.3c0.9,0.1,1.8,0.3,2.7,0.4c3.1,0.3,6.2,0.6,9.4,1c0.6,0.1,1.3,0.3,1.9,0.5c1.3,0.6,1.4,1.9,0.2,2.6
		c-3,1.8-6.4,2.8-9.9,3c-8.9,0.4-17.9,0.6-26.9,1.1c-3,0.1-6,0.4-8.8,1.1c-6.9,1.8-13.6,4-20.5,5.9c-2,0.6-4.2,0.9-6.3,0.8
		c-3.1-0.1-6.2-0.7-9.4-1c-2.6-0.3-5.2-0.8-7.9-0.8c-9.7-0.1-19.3,0-29,0c-2,0-3.8,0.2-5.6,1.5c-2.6,1.9-5.5,2.2-8.4,0.6
		c-0.9-0.5-1.8-0.9-2.8-1c-4.4-0.4-8.9-1-13.4-1c-22.8-0.1-45.6-0.1-68.4-0.1c-1,0-2.1-0.2-2.9,0.2c-1.4,0.7-2.4,0.5-3.6-0.6
		c-0.7-0.7-2-1.5-2.6-1.3c-3,1.2-1.8-3.2-4-2.8c0.2-0.5,0.1-1.3,0.5-1.5c2.3-1.6,4.5-3.5,7.1-4.6c8-3.6,16.3-6.4,25.3-6.6
		c5.8-0.2,11.6-0.8,17.3-1.3C50.2,8.9,50.2,9,50.2,9.1z"/>
	<path d="M54.5,15.1c10.8,0.4,21.6,0.3,32.3,1.3c5.8,0.5,11.6,0.2,17.4,0.9c11.6,1.5,23.3,1.1,34.8,0.6c10.6-0.4,21.2-0.4,31.9-0.9
		c7.2-0.4,14.4-1.8,21.6-2.6c2.1-0.2,4.3-0.1,6.5-0.1c0.4,0,0.8,0.5,1.1,0.7c-0.4,0.4-0.8,0.9-1.3,1.1c-0.6,0.2-1.3,0.1-2,0.1
		c-4.7,0.6-9.5,1.2-14.2,1.8c-0.8,0.1-1.7,0.1-2.5,0.2c-14.6,1.3-29.2,1-43.8,1.1c-3.3,0-6.6,0.8-9.9,0.8
		c-10.8-0.2-21.6-0.2-32.3-1.1c-5.3-0.4-10.6-0.2-15.9-0.9c-12.3-1.5-24.6-0.5-36.8-0.9c-1.2,0-2.4-0.6-3.6-0.8
		c1.3-0.4,2.5-1.1,3.8-1.1C45.9,15.1,50.2,15.2,54.5,15.1C54.5,15.2,54.5,15.1,54.5,15.1z"/>
</g>
</svg>
