<?xml version="1.0" encoding="iso-8859-1"?>
<!-- Generator: Adobe Illustrator 25.3.0, SVG Export Plug-In . SVG Version: 6.00 Build 0)  -->
<svg version="1.1" id="Calque_1" xmlns="http://www.w3.org/2000/svg" xmlns:xlink="http://www.w3.org/1999/xlink" x="0px" y="0px"
	 viewBox="0 0 76.7 29.5" style="enable-background:new 0 0 76.7 29.5;" xml:space="preserve">
<g>
	<path d="M38,28.6c-0.1,0.2-0.2,0.7-0.3,0.7c-0.6,0.1-1.2,0.1-1.8,0.2c-0.1,0-0.4-0.1-0.4-0.2c-0.9-1.2-2.4-2-2.6-3.7
		c-0.1-0.7-0.6-0.9-1.1-0.8c-2.4,0.5-4.9,0.4-7.3,0.3c-3.5-0.1-7-0.6-10.4-1.5c-2.5-0.7-5-1.4-7.5-2c-2.1-0.6-3.9-1.7-5.5-3.2
		C0.4,17.9,0.3,17,0,16.3c0-0.1,0.1-0.3,0.2-0.4c0.2-0.2,0.5-0.2,0.4-0.6C0.2,13.9,1,13.2,2,12.5c4.2-2.6,8.8-4.4,13.6-5.6
		c3.7-0.9,7.6-1.4,11.5-1.7c2.8-0.2,5.6,0.3,8.4,0.2c1,0,2,0.2,3,0.3c0.8,0,1.4-0.3,1.9-0.8c1.2-1.2,2.5-2.4,3.7-3.5
		c1.4-1.3,3-1.5,4.8-1.3c1.7,0.2,3.4,0.4,5.1,0.7C56.1,1,58,1.5,59.7,2.5c1.1,0.6,1.3,1.8,0.6,3C57,1.8,52.6,1.8,48.2,1.7
		c-1.9-0.1-3.3,0.9-4.5,2.3c-0.7,0.8-0.6,1.4,0.4,1.8c2.7,1,5.4,2,8.2,2.6c2.3,0.4,4.2-0.9,6.1-2.2c0.6-0.4,0.9-1.2,1.8-0.7
		C60.6,6.6,60,7.4,59,7.9c-1.1,0.6-2.2,1.1-3.4,1.6c-0.1,0-0.2,0.2-0.2,0.2c0,0.1,0.1,0.2,0.2,0.2c1.8,0.4,3.5,0.6,5.1-0.4
		c1.3-0.9,2.8-1.6,4.1-2.5c1.3-1,2.8-1.5,4.4-1.9c1.5-0.3,3-0.1,4,1.2c0.7,0.9,1.4,1.9,2,2.9c0.2,0.3,0.1,0.8,0.2,1.2c0,0,0,0,0,0
		c-0.6-0.9-1.1-1.8-1.7-2.7c-1.3-1.9-3.4-2.5-5.7-1.7c-1.8,0.7-3.4,1.7-4.9,2.8C63,9,62.9,9.1,62.7,9.2c-1,0.7-1,0.7-0.3,1.7
		c0.2,0.2,0.3,0.5,0.4,0.8c0,0.2-0.1,0.4-0.1,0.6c-0.2-0.1-0.5-0.1-0.5-0.3c-0.6-1.1-1.6-1.3-2.7-1.3c-4.1,0.1-7.9-0.9-11.7-2.3
		c-1.9-0.7-3.8-1.4-5.8-1.8c-1.4-0.3-2.8-0.4-4.3-0.5c-2-0.2-4.1-0.4-6.1-0.3c-2.4,0-4.9,0.3-7.3,0.5c-0.4,0-0.7,0.1-1.1,0.1
		c-2.2,0-4.3,0.3-6.4,0.8C14.4,8,12,8.8,9.5,9.6C9.1,9.8,8.6,10,8.2,10.2c-0.5,0.4-0.3,0.5,0.2,0.6c0.1,0,0.3,0.4,0.2,0.5
		c-0.2,0.2-0.4,0.3-0.6,0.4c0.3,0.1,0.6,0.1,0.9,0.2c1,0.3,2.2,2.2,2.1,3.2c-0.2,1.3-1.5,2.4-2.9,2.5c-1.3,0.1-2.6-1-2.9-2.4
		c-0.1-0.3-0.1-0.7-0.3-0.9c-0.9-0.8-0.9-0.8-0.2-1.6c0.2-0.3,0.5-0.5,0.8-0.7c0.1-0.1,0.2-0.2,0.3-0.3c-0.2,0-0.4-0.1-0.5,0
		C4.5,12,3.7,12.4,3,12.8c-0.3,0.2-0.4,0.6,0.1,0.8c0.7,0.2,0.6,0.5,0.3,1c-0.2,0.3-0.3,0.8-0.3,1.1c0.4,1.9,2,3.8,4.4,3.6
		c1.2-0.1,2.4-0.1,3.6-0.3c0.8-0.1,1.5-0.6,1.7-1.4c0.2-0.7,0.3-1.4,0.3-2.1c0-0.6,0.3-0.9,0.7-1.2c0.2-0.1,0.4-0.2,0.6-0.2
		c0.1,0,0.2,0.3,0.2,0.5c0.1,0.8,0.2,1.6,0.3,2.5c0.2,1.5,0.8,1.9,2.2,1.3c0.9-0.4,1.7-0.9,2.4-1.5c0.2-0.1,0.3-0.5,0.4-0.7
		c0.3-1.6-0.4-3-1.1-4.4c-0.1-0.1-0.2-0.3-0.4-0.4c-1.1-0.3-2.1-0.6-3.2-0.8c-0.6-0.1-1.3-0.2-1.9-0.2c0.6-0.5,1.2-0.3,1.9-0.4
		c1.3-0.1,2.6,0,3.8,0.7c0.8,0.5,1.3,0.9,1.4,1.9c0,0.7,0.2,1.4,0.4,2.1c0.2,1.1,0.5,1.3,1.6,1.1c1.5-0.2,2.9-0.6,4.4-0.9
		c2-0.4,3.9-0.3,5.9,0.1c0.9,0.2,1,0.5,0.4,1.1c-1.1,1.2-2.2,2.5-3,3.9c-0.6,1-1.6,1.8-2.6,2.4c-0.8,0.5-1.9,0.6-2.9,0.3
		c-1.3-0.5-2.7-0.8-4.1-1.2c-0.4-0.1-0.5-0.4-0.2-0.6c0.3-0.3,0.6-0.7,1-0.9c1.1-0.9,1-2.6-0.2-3.3c-0.1-0.1-0.3,0-0.4,0.1
		c-0.1,0.1-0.2,0.3-0.2,0.5c-1.1,1.9-2.4,3.6-4.5,4.6c-0.4,0.2-0.7,0.6-1,0.9c0.4,0.1,0.9,0.3,1.3,0.4c5.1,1.3,10.3,1.2,15.5,1
		c2.2-0.1,4.4-0.6,6.5-0.9c2.1-0.3,4.2-0.7,6.2-1.5c0.8-0.3,1.6-0.4,2.4-0.7c1.5-0.5,2.9-1,4.4-1.5c2.2-0.9,4.6-0.9,6.9-0.6
		c1.5,0.2,2.7,0,3.7-1.1c0.1-0.1,0.2-0.1,0.3-0.1l0.1,0.1c-0.3,0.6-1,1.3-0.9,1.9c0.1,0.5,1.1,0.8,1.6,1.2c0,0.1,0.1,0.2,0.1,0.3
		c-0.1,0-0.2-0.1-0.3-0.1c-1-0.4-2.1-1-3.1-1.2c-1.4-0.3-2.9-0.5-4.4-0.3c-0.2,0-0.5,0.2-0.5,0.4c0,0.2,0.2,0.4,0.3,0.5
		c0.4,0.2,0.8,0.3,1.1,0.5c1.7,0.8,2.3,3.1,1,4.4c-1.7,1.8-3.9,3-6.4,3.6c-1.9,0.4-3.8,0.3-5.6-0.1c-0.4-0.1-0.8-0.4-1.1-0.8
		c-0.5-0.6-0.8-1.3-1.3-1.9c-0.8-0.8-1.6-1.6-2.5-2.3c-0.4-0.3-0.9,0-0.8,0.5C39.8,26.3,39,27.5,38,28.6c-0.5-0.4-0.9-1-0.7-1.7
		c0.1-0.3,0.1-0.6,0-0.9c-0.2-0.5-0.6-0.8-1.1-0.6c-0.7,0.3-0.5,0.8-0.1,1.2C36.6,27.4,37.3,28,38,28.6z"/>
	<path d="M65.5,22.8c1.1,0.4,2.1,1,3.3,1.2c1.8,0.3,3-0.4,4.1-1.4c0.7-0.6,1.4-1.3,2.1-2c0.1-0.1,0.2-0.1,0.3-0.1
		c0,0.2,0.1,0.4,0.1,0.5c-1.3,1.5-2.6,3-4.5,3.6c-0.7,0.3-1.7,0.2-2.5,0c-1.1-0.3-2.3-0.7-3.1-1.6c0-0.1,0-0.2-0.1-0.3
		C65.3,22.7,65.4,22.8,65.5,22.8z"/>
	<path d="M75.4,10.4c0.3,0.7,0.8,1.4,0.9,2.2c0.4,2.3,0.6,4.7-0.5,6.9c-0.1,0.1-0.2,0.2-0.3,0.3c0-0.2-0.2-0.3-0.1-0.5
		c0.4-1.2,0.7-2.4,0.7-3.6c0-1.1-0.1-2.1-0.4-3.1C75.5,12,75.5,11.2,75.4,10.4L75.4,10.4z"/>
	<path d="M62.9,21c0.9,0.5,2.1,0.6,2.6,1.8c-0.1,0.1-0.2,0.1-0.2,0.2c-0.8-0.6-1.7-1.2-2.5-1.8C62.8,21.2,62.9,21.1,62.9,21z"/>
	<path d="M62.1,17.9c0.1-0.6,0.2-1.3,0.4-1.9c0-0.1,0.2-0.2,0.3-0.4c0,0.1,0.1,0.2,0.1,0.3c0.1,0.8,0.1,1.5-0.7,2L62.1,17.9z"/>
</g>
</svg>
