<?xml version="1.0" encoding="iso-8859-1"?>
<!-- Generator: Adobe Illustrator 25.3.0, SVG Export Plug-In . SVG Version: 6.00 Build 0)  -->
<svg version="1.1" id="Calque_1" xmlns="http://www.w3.org/2000/svg" xmlns:xlink="http://www.w3.org/1999/xlink" x="0px" y="0px"
	 viewBox="0 0 55.8 47" style="enable-background:new 0 0 55.8 47;" xml:space="preserve">
<g>
	<path d="M51.8,35.8c-1.1,0.2-2.1-0.4-3-1c-1.1-0.8-2.1-1.8-3.1-2.7c-0.8-0.7-1.7-1.3-2.5-2c-0.2-0.2-0.5-0.2-0.8-0.3
		c0,0.3,0,0.5,0.1,0.8c0.2,0.8,0.3,1.6-0.6,2c-1.2,0.6-1.3,1.8-1.5,2.8c-0.2,1.1-0.3,2.2-0.4,3.3c-0.2,1.3-0.2,2.6-0.5,3.9
		c-0.3,1.4-0.7,2.7-0.9,4.1c-0.1,0.5-0.5,0.3-0.7,0.2c-2.1-0.6-4.1-1.1-6.2-1.7c-0.7-0.2-1.4-0.6-2.2-0.8c-2.9-1.1-4.9-3.4-6.6-5.8
		c-0.6-0.9-1.3-1.3-2.3-1.3C20,37.2,19.5,37,19,37c-0.3,0-0.5,0.1-0.8,0.1c0.1,0.3,0,0.6,0.2,0.8c0.6,0.8,0.9,1.7,1.1,2.6
		c0,0.2,0.1,0.5,0.3,0.6c1.2,0.9,0.7,2,0.4,3.1c-0.2,0.5-0.4,0.5-0.8,0.2c-2.2-1.5-3.8-3.4-4.9-5.8c-0.1-0.3-0.3-0.7-0.4-1
		c-0.4-1.1-1-1.8-2.3-2.1c-1.9-0.5-3.6-1.6-5.3-2.5c-1.3-0.7-2.7-1.2-3.8-2.3c-0.3-0.3-0.8-0.4-1.2-0.4c-0.7-0.1-1.4-0.4-1.3-1
		c0-0.6-0.3-1.3,0.3-2c0.7-0.7,1.2-1.6,1.7-2.5c1.9-3.7,4.7-6.6,8.2-8.8c1-0.7,1.6-1.6,2.2-2.5c1.5-2.4,3.2-4.6,5.3-6.5
		c3.1-2.7,6.4-5.1,10.4-6.5c0.4-0.1,0.8-0.3,1.2-0.5c0.5-0.3,1-0.4,1.4,0.2c0.1,0.1,0.5,0.3,0.6,0.2c0.8-0.6,1.4,0.6,2.1,0.2
		c0,0,0.3,0.3,0.4,0.5c0.2,0.2,0.4,0.4,0.6,0.5c0.5,0.1,0.8,0.1,0.7,0.7c-0.1,0.2,0.2,0.7,0.5,0.8c0.4,0.2,0.9,0.3,1.3,0.4
		c-0.2,0.6,0,0.9,0.6,1c0.1,0,0.2,0.4,0.1,0.6c0,0.1-0.2,0.3-0.3,0.4c-0.5,0.7-0.5,0.8,0.3,1c0.6,0.1,0.9,0.2,0.4,0.8
		c-0.2,0.3-0.2,0.5,0.2,0.7c0.2,0.1,0.5,0.2,0.5,0.2c-0.1,0.4-0.3,0.9-0.2,1.2c0.1,0.3,0.6,0.4,0.9,0.6c-0.6,0.6-0.1,0.8,0.4,1
		c0.1,0,0.2,0.3,0.1,0.3c-0.6,0.7,0.4,1.3,0.2,1.8c-0.3,0.8,0.5,1.1,0.7,1.7c0.1,0.5,0,1-0.1,1.5c-0.1,0.5-0.4,1.3-0.2,1.4
		c0.9,0.7,0.3,1.4,0,1.9c-0.4,0.6-0.4,1,0.1,1.5c0.4,0.4,0.8,0.8,1.2,1.2c0.4,0.5,1,0.9,1.3,1.4c0.5,0.9,0.4,1,1.4,0.6
		c3-1.4,5.9-2.8,8.9-4.2c0.3-0.2,0.6-0.3,0.9-0.5c0.5-0.3,0.9-0.2,1.3,0.2c0.3,0.4,0.2,0.8-0.1,1.1c-0.8,0.8-1.5,1.7-2.3,2.5
		c-1.4,1.3-2.8,2.5-4.3,3.8c-0.3,0.3-0.3,0.6-0.1,0.9c0.6,0.9,1.2,1.9,1.9,2.8c0.8,1.1,1.7,2.2,2.5,3.3c0.2,0.3,0.4,0.7,0.3,0.9
		c-0.1,0.2-0.6,0.3-0.9,0.4C52.4,35.8,52.2,35.8,51.8,35.8z"/>
	<path d="M14.7,29.7c-0.4,0-0.7-0.2-0.7-0.6c0-0.4,0.1-1,0.3-1.1c2.4-1.3,4.9-2.6,7.7-2.6c0.9,0,1.3,0.5,1,1.2c-0.9,2-1.7,4.1-4.1,5
		C17.3,32.1,15.4,31.3,14.7,29.7c0.7-0.6,1.4-0.4,2.2-0.1c1,0.3,1.9,0,2.7-0.6c0.3-0.3,0.7-0.6,0.5-1c-0.2-0.5-0.8-0.2-1.1-0.1
		C17.5,28.3,16,28.8,14.7,29.7z"/>
	<path d="M6.2,28.6c-1.2,0-2.5-1.3-2.5-2.4c0-1,1.7-2.5,2.7-2.4c1.1,0.1,2.3,1.2,2.3,2.4C8.8,27.2,7.3,28.6,6.2,28.6z"/>
	<path d="M30.6,23.6c0.8,0.2,1.6,0.4,2.3,0.6c0.1,0,0.2,0.2,0.3,0.3c-0.2,0-0.4,0.1-0.5,0.1C32,24.3,31.3,23.9,30.6,23.6L30.6,23.6z
		"/>
	<path d="M10,28.2c-0.7-0.8-0.4-1.6-0.2-2.4c0-0.1,0.2-0.2,0.4-0.3c0,0.1,0.1,0.2,0.1,0.3C10.2,26.6,10.1,27.4,10,28.2L10,28.2z"/>
	<path d="M20.2,21.4c0.6,0,0.9,0,1.1,0c0.1,0,0.2,0.1,0.4,0.2c-0.1,0-0.2,0.1-0.3,0.1c-0.2,0-0.5,0-0.7,0c-0.5,0-0.9-0.1-1.4-0.2
		C19.7,21.5,20.1,21.5,20.2,21.4z"/>
	<path d="M30.6,23.6c-0.6-0.1-1.3-0.2-1.9-0.4c-0.1,0-0.2-0.2-0.4-0.2c0.2,0,0.4-0.1,0.5-0.1C29.4,23.1,30,23.4,30.6,23.6L30.6,23.6
		z"/>
	<path d="M10,28.2c0.1,0.1,0.3,0.2,0.3,0.4c0,0.7-0.1,1.5-0.1,2.2c-0.1-0.7-0.2-1.4-0.2-2.1C10,28.6,10,28.4,10,28.2L10,28.2z"/>
	<path d="M13,22.1c0.1,0.1,0.3,0.1,0.4,0.2c-0.1,0.1-0.3,0.1-0.4,0.2c-0.2,0.1-0.4,0.1-0.7,0.1c-0.1,0-0.2-0.1-0.4-0.1
		c0.1-0.1,0.1-0.2,0.2-0.2C12.4,22.2,12.7,22.2,13,22.1z"/>
	<path d="M36.3,25.7c-0.5-0.2-1.1-0.3-1.6-0.5c0,0,0.1-0.1,0.1-0.1C35.3,25.3,35.8,25.5,36.3,25.7L36.3,25.7z"/>
	<path d="M32.7,18.2c-1.2-0.4-2.6-0.5-3.6-1.5C30.5,16.8,31.7,17.2,32.7,18.2z"/>
</g>
</svg>
