<?xml version="1.0" encoding="iso-8859-1"?>
<!-- Generator: Adobe Illustrator 25.3.0, SVG Export Plug-In . SVG Version: 6.00 Build 0)  -->
<svg version="1.1" id="Calque_1" xmlns="http://www.w3.org/2000/svg" xmlns:xlink="http://www.w3.org/1999/xlink" x="0px" y="0px"
	 viewBox="0 0 80.2 20.3" style="enable-background:new 0 0 80.2 20.3;" xml:space="preserve">
<g>
	<path d="M46.5,18.3c-1.4,0-2.9,0.1-4.3,0c-1.5-0.1-2.9-0.7-3.7-2c-0.2-0.3-0.3-0.5-0.4-0.8c-0.3-1-1-1.3-1.9-1.2
		c-2.3,0.1-4.5,0.4-6.8,0.4c-3.1,0-6.3,0.3-9.5-0.2c-0.7-0.1-1.4-0.1-2.1-0.1c-0.3,0-0.5,0.2-0.8,0.2c0.1,0.2,0.2,0.5,0.4,0.7
		c1.2,1.1,2.5,2.2,3.8,3.2c0.2,0.2,0.4,0.3,0.5,0.5c0.3,0.4,0.8,0.7,0.5,1.3c-0.4-0.2-0.8-0.4-1.2-0.6c-0.5-0.2-0.9-0.6-1.4-0.7
		c-1.9-0.5-3.3-1.7-4-3.5c-0.1-0.2-0.2-0.3-0.3-0.5c-0.3-1-1-1.2-1.9-1.1c-1.9,0.1-3.7,0-5.6,0C5,14,2.7,13,0.6,11.3
		c-0.9-0.7-0.8-1.4,0.2-2c0.1-0.1,0.4-0.1,0.5-0.1C2.1,8.8,1.8,7,3.4,7.7c1-0.3,1.9-0.5,2.9-0.8c2.4-0.6,4.7-1.2,7.2-1.4
		c0.2,0,0.4-0.1,0.5-0.1C16.6,6,19.2,5,21.8,5.3c0.8,0.1,1.4-0.3,1.8-0.9c0.2-0.3,0.3-0.5,0.4-0.8c0.6-1.5,1.7-1.9,3.2-1.9
		c0.7,0,1.3-0.1,2-0.1c1.7,0.2,2.9,1,3.8,2.4c0.2,0.3,0.3,0.7,0.5,0.9c0.4,0.5,1,0.4,1.4-0.1c0.2-0.2,0.3-0.5,0.4-0.8
		c1.4-3,4.1-4,7.1-4.1c1.8-0.1,3.7,0.2,5.5,0.5c2,0.3,4,0.6,6,0.9c2.6,0.5,5.3,0.4,7.9,1.3c1.7,0.6,3.3,1.1,5,1.6
		c0.6,0.2,0.7,0.6,0.2,1c-0.5,0.4-1.1,0.6-1.7,1c-0.2,0.1-0.3,0.2-0.4,0.3c0.2,0.1,0.4,0.2,0.6,0.1c0.3,0,0.7-0.1,1-0.3
		c1.3-0.6,2.6-1.1,3.9-1.7c1.3-0.6,2.7-0.9,4.1-0.9c3.6,0.1,6.4,3.7,5.5,7.2c-1.1,4.5-5.1,5.4-8,4.4c-2-0.7-3.9-1.3-5.9-2
		c-0.2-0.1-0.4,0-0.6,0.1c0.1,0.1,0.2,0.3,0.3,0.4c0.4,0.3,0.7,0.6,1.1,0.9c0.5,0.4,0.3,0.8-0.1,1.2c-0.2,0.1-0.4,0.3-0.6,0.4
		c-1.3,0.3-2.7,0.7-4,0.8c-2.7,0.1-5.3,0.4-8,0.7C51.6,18.2,49,18.2,46.5,18.3C46.5,18.4,46.5,18.4,46.5,18.3z"/>
	<path d="M18.6,7.5c-0.2-0.1-0.4-0.1-0.6-0.2c0.1-0.2,0.2-0.4,0.4-0.5c1.8-0.5,3.7-0.6,5.5-0.3c1.4,0.2,2.9,0.3,3.8,1.6
		c0.7,0.9,0.9,1.3,0.3,2.2c-0.6,0.9-1.4,1.7-2.6,2c-2.2,0.5-4.3,0.9-6.5,0.1c-1.1-0.4-1.3-0.5-0.6-1.5C19.1,9.9,18.7,8.7,18.6,7.5
		c1.3-0.2,1.5,0.7,1.6,1.7c0.2,2,0.7,2.3,2.7,2c0.8-0.1,1.5-0.2,2.3-0.6c0.5-0.2,0.8-0.6,0.8-1.1c0-0.5-0.4-0.9-0.8-1.1
		c-0.4-0.2-0.9-0.4-1.4-0.4C21.9,8.1,20.2,8,18.6,7.5z"/>
</g>
</svg>
