<?xml version="1.0" encoding="iso-8859-1"?>
<!-- Generator: Adobe Illustrator 25.3.0, SVG Export Plug-In . SVG Version: 6.00 Build 0)  -->
<svg version="1.1" id="Calque_1" xmlns="http://www.w3.org/2000/svg" xmlns:xlink="http://www.w3.org/1999/xlink" x="0px" y="0px"
	 viewBox="0 0 85.3 26" style="enable-background:new 0 0 85.3 26;" xml:space="preserve">
<g>
	<path d="M59.5,19.5c-0.7-0.4-1.4-0.7-2-1.2c-1-0.8-1.9-1.1-3.3-0.7c-2.1,0.7-4.3,1.3-6.5,1.7c-1.3,0.2-2.6,0.1-3.9,0
		c-0.5,0-0.7-0.1-0.7,0.5c-0.1,1.9,0.7,3.4,1.7,4.9c0.1,0.1,0.3,0.2,0.4,0.4c0.1,0.2,0.1,0.4,0.2,0.6c-0.2,0-0.3,0-0.5,0
		c-1.5-0.4-2.8-1.1-3.8-2.2c-0.4-0.4-0.9-0.7-1.4-1.1c-0.6,0.7,0,1.2,0.1,1.8c0,0.1,0,0.1,0,0.2c0.2,0.5,0.3,1.1,0.5,1.6
		c-0.8,0.2-1.1-0.6-1.5-1c-1.1-1-1.7-2.4-1.7-4c0-2.1-0.7-2-2.2-2.3c-1.3-0.2-2.5-0.6-3.7-1.1c-1.3-0.5-2.7-0.9-4-1.4
		c-0.8-0.3-1.5-0.6-2.2-0.9c-0.1,0-0.1-0.3-0.1-0.4c0.1-0.2,1-0.6-0.1-0.5c-1.9,0-3.8,0.2-5.7-0.1c-1.9-0.4-3.8-0.2-5.7-0.2
		c-3.6-0.1-7.2,0-10.8-0.1c-0.8,0-1.5-0.2-2.3-0.3c-0.1,0-0.3-0.2-0.4-0.3c0.2-0.1,0.3-0.2,0.5-0.2c2.9,0,5.8,0,8.6,0
		c1.8,0,3.7-0.3,5.5-0.3c1.9-0.1,3.8,0.2,5.6-0.1c2.6-0.4,5.2-0.7,7.6-2.1c1-0.6,2.1-0.9,3.1-1.2c1.3-0.4,2.6-0.8,3.9-1.1
		c1.4-0.4,2.5-1,3.5-2.1c1.4-1.5,2.9-2.8,4.3-4.3c1.2-1.3,2.7-1.6,4.2-2c0.7-0.2,1.1,0.7,0.8,1.5c-0.4,0.8-0.8,1.5-1.3,2.2
		c-0.3,0.5-0.7,1-0.9,1.5c-0.7,1.3-0.2,2.1,1.2,2.3c0.2,0,0.5,0,0.7,0c2.4,0,4.9,0.3,7.3,0.7c0.4,0.1,0.7,0,1.1,0
		c2.9,0.1,5.7,0.5,8.5,1c1.2,0.2,2.5,0.1,3.8,0c0.5,0,1.1-0.7,1.6-0.7c0.5,0.1,0.8,0.8,1.3,1.2c0.6,0.5,2.1,0.4,2.7-0.3
		c1.3-1.6,2.8-3.1,4.6-4.2c2.1-1.3,4.5-1.9,7-1.6c0.1,0,0.3,0.2,0.3,0.3c0,0.1-0.1,0.2-0.1,0.3c-0.3,0.2-0.5,0.3-0.8,0.4
		c-2.2,0.9-3.7,2.4-4.9,4.4c-1.4,2.3-0.8,4.4,0.5,6.4c0.8,1.2,1.9,2.3,2.9,3.4c0.6,0.6,1.4,0.9,2,1.4c0.4,0.3,0.2,0.9-0.2,0.9
		c-0.9,0-1.8,0-2.6-0.2c-1.8-0.7-3.5-1.6-4.8-3.1c-0.7-0.8-1.6-1.5-2.3-2.3c-0.6-0.6-1.1-1.4-1.7-2c-0.2-0.2-0.6-0.4-0.9-0.5
		c-0.4-0.1-2.1,0.8-2.5,1.2c-0.7,0.7-1.6,0.6-2.4,0.4c-0.5-0.1-0.9-0.1-1.3,0c-0.7,0.2-1.4,0.3-2.1,0.4c-0.9,0.2-1.7,0.7-2.4,1.4
		c-0.5,0.5-0.1,0.8-0.1,1.3c-0.1,0.2-0.2,0.3-0.3,0.3c-0.2,0,0,0.1-0.2,0c-1-0.4-1.6-0.3-1.2,1C59.8,19.3,59.7,19.4,59.5,19.5z"/>
	<path d="M61.5,17.9c0.3,0.1,0.6,0.2,0.8,0.4c0.3,0.3,0.8,0.7,0.8,1c0,0.5-0.8,0.4-1.1,0.6c-0.9,0.5-1.6-0.1-2.4-0.4
		c0.1-0.1,0.1-0.2,0.2-0.2c0.3-0.7,1.3-0.5,1.6-1.2C61.4,18,61.4,17.9,61.5,17.9z"/>
</g>
</svg>
