<?xml version="1.0" encoding="iso-8859-1"?>
<!-- Generator: Adobe Illustrator 25.3.0, SVG Export Plug-In . SVG Version: 6.00 Build 0)  -->
<svg version="1.1" id="Calque_1" xmlns="http://www.w3.org/2000/svg" xmlns:xlink="http://www.w3.org/1999/xlink" x="0px" y="0px"
	 viewBox="0 0 68 60.3" style="enable-background:new 0 0 68 60.3;" xml:space="preserve">
<g>
	<path d="M54.1,1.5c-2.5-0.1-4.8,0.2-7,0.7c-0.2,0-0.4,0-0.5,0.1c-0.5,0.1,0.2,1.1-0.8,1.1c-0.4,0-0.9,0.2-1.4,0.4
		C44,4,43.6,4.4,43.2,4.7C43,4.8,42.8,5,42.7,5.2c-0.5,1.7-1.2,3.4-1.4,5.1c-0.1,1.7,0.2,3.4,1.1,5c1,1.8,2.2,3.5,3.1,5.4
		c1,1.9,1.8,3.9,2.6,5.8c0.1,0.3,0.2,0.7,0.2,1c0,0.4,0,0.7,0,1.1c0.3-0.3,0.7-0.5,1-0.8c2.5-2.2,5.4-4,8.3-5.6
		c0.2-0.1,0.4-0.3,0.7-0.3c0.5,0,1-0.1,1.4,0.1c0.5,0.4,0,0.8-0.2,1.2c-0.9,2.3-1.6,4.8-1.3,7.3c0.3,2.3,0.3,4.6,1.7,6.6
		c0.3,0.4,0.3,1,0.5,1.4c0.6,1.4,0.5,1.6-1.1,1.6c-0.9,0-1.9-0.2-2.8-0.6c-2.3-0.9-4.7-1.8-7-2.7c-0.9-0.3-0.8-0.3-1.2,0.7
		c-0.5,1.1-0.8,2.3-1.3,3.4c-1.1,2.5-1.5,5.1-0.7,7.8c0.3,1,0.4,2.1,0.7,3.1c0.2,0.8,0.7,1.5,1.1,2.2c0.3,0.6,0.1,1.1-0.5,1.2
		c-0.5,0.1-1.1,0.1-1.6,0c-3.9-0.4-7.7-1.2-11.4-2.8c-1.8-0.8-3.9-1.1-5.9-1.4c-1.8-0.2-3.6-0.6-5.4-1.1c-0.5-0.1-0.9-0.4-0.9,0.5
		c0,0.9-0.1,1.9-0.4,2.8c-0.6,2.1-0.4,4.1,0.6,6c0.1,0.3,0.3,0.5,0.4,0.8c0,0.1,0,0.2-0.1,0.3c-0.1,0.1-0.2,0-0.3,0
		c-0.1,0-0.1,0-0.2-0.1c-1.5-1.9-3.5-3.6-4.1-6.1c-0.4-1.5-0.8-3.1-1.2-4.6c-0.2-0.7-0.7-1.2-1.3-1.6c-3.1-2.2-5.6-5-7.1-8.5
		c-0.5-1.2-1-2.4-1.2-3.7c-0.2-1-0.7-1.5-1.5-1.9c-0.6-0.3-1.4-0.5-2-0.8c-1-0.5-2-1-3-1.6c-0.5-0.3-0.9-0.8-1.3-1.2
		c0.8-0.4,0.1-0.9,0.2-1.4c0-0.2,0.3-0.5,0.5-0.6C1.8,28,2.9,27.7,4,27.6c3.6-0.5,4.6-2.7,5.3-5.7c0.2-0.7,0.2-1.5,0-2.2
		C9,19,9.2,18.8,9.6,19c1.4,0.5,2.4-0.2,3.3-1.1c1-1.1,2.1-2.2,2.9-3.4c1-1.4,2.3-2.4,3.8-3.2c1.3-0.8,2.8-1.3,4.2-1.9
		c0.6-0.3,1.2-0.5,1.7-0.8C26,8.3,26.2,8,26.7,8.2c0.3,0.1,0.7-0.1,1-0.3c2.3-1.4,4.7-2.6,7.1-3.8c3.6-1.7,7.4-3,11.3-3.7
		c1.6-0.3,3.3-0.4,5-0.4c5.3,0,10,1.9,13.5,5.8c2,2.2,3.6,4.9,3.3,8.2c-0.1,1,0,2-0.2,3c-0.7,2.9-2.4,5.1-5,6.7
		c-0.3,0.2-0.7,0.3-0.9,0.6c-0.2,0.2-0.5,0.4-0.7,0.1c-0.1-0.1,0.2-0.5,0.4-0.7c0.6-0.4,1.2-0.8,1.8-1.2c2.2-1.4,3.2-3.5,3.7-6
		c1-5.4-1.4-9.3-5.5-12.4c-0.8-0.6-1.6-1-2.4-1.5C57.6,1.6,55.8,1.3,54.1,1.5z"/>
	<path d="M24.5,32.7c-0.2-0.1-0.8-0.2-1.4-0.4c-0.2-0.1-0.4-0.2-0.5-0.4c0.2,0,0.4-0.1,0.6,0c3.1,0.3,3.2,0.1,4-2.9
		c0.5-2,1.1-4,1.6-6c0.2-0.7,0-1.4,0-2.1c-0.6,0.3-1.3,0.6-1.8,1c-2,2.2-4,4.4-6,6.6c-0.7,0.7-0.8,1.3-0.1,2c0.1,0.1,0,0.3,0,0.5
		c-0.1-0.1-0.3-0.1-0.4-0.2c-0.9-1-1-1.6-0.2-2.6c1.8-2.1,3.6-4.1,5.5-6.1c0.6-0.6,1.3-1.2,2.1-1.7c1-0.7,2-0.2,1.9,1.1
		c-0.2,1.6-0.5,3.1-0.9,4.7c-0.3,1.3-0.7,2.6-1,4C27.5,31.9,26.6,32.7,24.5,32.7z"/>
	<path d="M14,20.1c1,0,2.3,1.2,2.3,2.1c0,1.8-0.9,2.7-2.6,2.6c-1,0-2.3-1.3-2.4-2.3C11.3,21.4,12.8,20.1,14,20.1z"/>
	<path d="M26.5,15.4c1.7,0.2,3,0.7,4.1,1.5c0.4,0.3,0.8,0.6,1.2,0.8c0.3,0.2,0.6,0.3,0.9,0.4c-0.4,0-0.8,0.1-1.2,0
		c-0.3-0.1-0.7-0.3-0.9-0.5c-2.5-2.4-5.4-1.9-7.9,0c-1.8,1.3-3.5,2.9-5.2,4.3c-0.1,0.1-0.4,0.1-0.6,0.1c0.1-0.1,0.1-0.3,0.2-0.4
		c2.1-1.8,3.9-3.8,6.4-5.2C24.5,15.9,25.7,15.7,26.5,15.4z"/>
	<path d="M20,25.4c0,3.4-2,5.8-5.1,6.4c-0.2,0-0.5,0-0.7,0c-0.1,0-0.2-0.1-0.2-0.2c0-0.1,0-0.3,0.1-0.3c0.6-0.2,1.1-0.4,1.7-0.6
		c2.5-1,3.7-3.4,3.2-6c-0.1-0.5-0.6-1.1,0-1.6c0.2,0.4,0.5,0.9,0.7,1.3C19.8,24.9,19.9,25.3,20,25.4z"/>
	<path d="M45.5,40.1c-0.3,0.5-0.5,1-0.8,1.5c0,0-0.2-0.1-0.2-0.1c0.2-0.5,0.5-1,0.7-1.5C45.2,40,45.4,40.1,45.5,40.1z"/>
</g>
</svg>
