<svg xmlns="http://www.w3.org/2000/svg" viewBox="-532 0 2020 1196" width="800" height="471">
    <path d="M0,0 L13,0 L19,3 L24,7 L29,17 L30,21 L30,35 L27,46 L23,53 L18,65 L5,90 L-5,109 L-16,134 L-22,151 L-25,158 L-32,179 L-40,200 L-47,224 L-55,263 L-66,330 L-70,347 L-74,360 L-78,384 L-83,400 L-86,407 L-90,436 L-94,454 L-94,468 L-93,482 L-93,495 L-82,495 L-81,489 L-72,472 L-64,456 L-55,446 L-51,439 L-47,426 L-36,407 L-26,392 L-11,368 L-3,357 L3,350 L13,343 L23,340 L34,341 L44,346 L51,354 L53,359 L53,371 L49,381 L48,383 L47,394 L54,395 L60,399 L66,407 L67,410 L67,424 L82,424 L91,427 L98,432 L99,434 L111,434 L123,430 L134,430 L142,433 L147,437 L149,440 L170,441 L180,445 L186,450 L190,458 L190,462 L212,461 L221,464 L229,471 L231,477 L244,476 L250,474 L260,475 L268,479 L274,487 L276,492 L276,502 L287,501 L294,498 L304,498 L312,502 L317,508 L320,516 L320,519 L336,517 L343,517 L353,521 L359,528 L359,530 L379,529 L388,532 L396,539 L400,546 L400,549 L412,548 L419,546 L431,546 L439,549 L444,553 L449,561 L450,569 L467,568 L476,571 L485,577 L495,586 L511,586 L521,588 L531,593 L540,601 L548,615 L554,633 L567,636 L575,640 L583,648 L588,657 L600,663 L608,671 L620,671 L627,664 L635,657 L646,647 L657,638 L668,630 L678,622 L693,609 L706,598 L720,587 L733,576 L747,565 L762,554 L772,549 L775,548 L788,548 L796,552 L818,553 L832,558 L840,562 L853,565 L878,576 L907,591 L926,602 L938,611 L950,621 L967,633 L982,644 L996,655 L1011,668 L1027,683 L1034,691 L1045,705 L1050,714 L1050,716 L1091,716 L1134,715 L1154,714 L1167,712 L1185,706 L1202,702 L1210,697 L1220,689 L1229,684 L1240,680 L1264,668 L1280,662 L1307,648 L1324,642 L1338,637 L1362,632 L1377,627 L1402,623 L1418,618 L1432,616 L1448,616 L1456,618 L1464,622 L1473,630 L1480,640 L1485,653 L1487,666 L1488,693 L1488,768 L1486,795 L1483,825 L1482,845 L1482,876 L1485,893 L1486,905 L1486,940 L1483,957 L1476,973 L1469,982 L1461,989 L1454,992 L1449,993 L1434,993 L1415,990 L1379,978 L1355,969 L1334,960 L1299,948 L1276,937 L1258,925 L1245,915 L1234,906 L1221,895 L1207,884 L1197,878 L1183,875 L1156,873 L1127,872 L1087,872 L1065,873 L1065,884 L1070,886 L1079,893 L1089,902 L1099,914 L1106,925 L1112,937 L1115,948 L1115,966 L1111,977 L1107,983 L1102,988 L1097,992 L1089,996 L1073,1000 L1048,1004 L1027,1008 L1017,1009 L994,1009 L978,1007 L964,1004 L950,1003 L909,1003 L867,1005 L820,1009 L784,1014 L758,1019 L726,1022 L665,1026 L624,1029 L600,1030 L558,1031 L502,1031 L485,1029 L475,1025 L468,1021 L460,1017 L447,1007 L443,1004 L432,1004 L426,1009 L420,1012 L417,1012 L415,1022 L411,1028 L406,1033 L397,1037 L384,1037 L374,1033 L370,1030 L348,1030 L339,1027 L329,1018 L317,1002 L308,987 L307,983 L288,985 L271,989 L244,992 L221,994 L206,997 L203,997 L205,1012 L207,1021 L208,1041 L206,1063 L205,1070 L205,1085 L219,1105 L232,1124 L242,1138 L251,1153 L254,1161 L254,1175 L250,1184 L244,1191 L236,1195 L233,1196 L219,1196 L209,1192 L200,1190 L184,1181 L163,1165 L151,1155 L147,1153 L134,1150 L126,1145 L114,1140 L102,1131 L90,1120 L82,1112 L66,1108 L55,1101 L42,1088 L31,1074 L18,1059 L10,1049 L-3,1033 L-11,1023 L-24,1007 L-33,996 L-35,992 L-98,991 L-127,989 L-164,981 L-195,974 L-225,966 L-243,960 L-261,958 L-292,957 L-306,955 L-319,952 L-372,946 L-400,941 L-420,935 L-437,928 L-450,923 L-458,919 L-471,916 L-480,911 L-496,907 L-507,900 L-519,889 L-528,877 L-532,866 L-532,852 L-528,841 L-519,826 L-508,808 L-499,797 L-488,785 L-476,773 L-465,764 L-455,756 L-442,746 L-427,732 L-417,722 L-406,713 L-393,703 L-379,695 L-366,691 L-350,688 L-326,684 L-313,680 L-302,676 L-275,671 L-264,666 L-254,663 L-221,646 L-211,642 L-211,631 L-214,613 L-218,600 L-220,582 L-221,558 L-221,517 L-220,489 L-218,467 L-213,442 L-211,427 L-202,387 L-195,361 L-185,331 L-175,307 L-165,288 L-159,281 L-151,276 L-148,275 L-122,275 L-116,250 L-104,210 L-94,177 L-91,162 L-87,153 L-84,144 L-80,131 L-67,106 L-60,92 L-51,71 L-40,49 L-27,26 L-20,15 L-10,5 Z " stroke="none" fill="black" fill-rule="nonzero"/>
</svg>