<?xml version="1.0" encoding="iso-8859-1"?>
<!-- Generator: Adobe Illustrator 25.3.0, SVG Export Plug-In . SVG Version: 6.00 Build 0)  -->
<svg version="1.1" id="Calque_1" xmlns="http://www.w3.org/2000/svg" xmlns:xlink="http://www.w3.org/1999/xlink" x="0px" y="0px"
	 viewBox="0 0 235.5 141.6" style="enable-background:new 0 0 235.5 141.6;" xml:space="preserve">
<g>
	<path d="M169.7,98.6c-5.5,0.5-11.9-2.1-18.6-3.3c-4-0.8-8-2.1-11.9-3.3c-3.2-1-5.7-0.4-8.1,2.1c-2.6,2.7-5.7,5.1-8.7,7.4
		c-1.2,0.9-1.9,1.6-2.1,3.1c-1.2,8.2-6.1,13.9-12.3,19.2c-10.4,8.7-22.6,12.9-35.4,16.1c-3.9,0.9-7.7,1.9-11.7,2
		c-8.9,0.1-16.4-3.2-23.1-8.9c-9.3-8.1-15.6-18.4-21.9-28.7C9.4,93.4,5.8,81.6,0.7,70.4c-1.6-3.6-0.2-7,1.5-10
		C10.3,46.5,18.6,32.7,29,20.3c5.2-6.2,11.6-10.9,18.5-15c1.7-1,3.4-2.2,5.1-3c4.2-2,8.6-2.4,13.4-2.2c7.1,0.3,13.8,1.7,20.3,4.2
		c10.4,4,19.5,10,26.4,18.9c1.7,2.2,3.6,4.3,5.3,6.6c2.6,3.5,4.8,7.2,5.4,11.6c0.3,2.4,1.2,4.4,3.9,5.1c2.8,0.8,4.2,3.1,5.2,5.6
		c1.1,2.8,2.3,5.5,3.6,8.2c1.1,2.4,2.4,4.7,3.7,7c0.4,0.7,1.5,1.3,1.5,1.9c0.2,4.4,3.7,4.9,6.8,6.1c5.7,2.2,11.5,4.3,17.1,6.7
		c2.7,1.1,5.1,0.8,7.4-1c0.9-0.7,1.8-1.6,2.8-2.1c4-2.4,7.6-1.1,8.7,3.5c0.5,1.8,1.3,2.2,2.7,1.8c7.1-2,13.9-4.7,19.4-9.7
		c1.8-1.6,3.1-3.9,4.3-6c2.4-4.2,4.4-8.6,7-12.6c2.5-3.9,6.4-5.8,11.1-5.5c2.8,0.2,5.4,1.3,6.4,4c1.1,2.7,0.1,5.3-2.2,7.1
		c-3.5,2.8-7.1,5.4-10.7,8.1c-3.4,2.6-6.9,5.2-10.2,7.9c-0.9,0.7-1.4,1.8-2.1,2.7c-0.8,1-0.4,1.9,0.5,2.6c0.9,0.7,2,1.2,2.8,2
		c2.2,2.2,1.6,5.1-1.5,5.6c-3.4,0.6-6.9,0.9-10.4,0.9c-2.7,0-5.2,0.5-7.6,1.9C186.7,97.1,179.1,98.4,169.7,98.6z"/>
	<path d="M59.6,69.7c12.7,1.3,24.7,0.4,36.6,0.8c3.3,0.1,6.5,1.2,9.7,1.8c17.1,3.2,33.7,7.9,50,13.9c0.9,0.3,1.9,0.6,2.8,1
		c0.3,0.2,0.5,0.6,0.8,0.9c-0.3,0.1-0.6,0.3-0.9,0.3c-1.5-0.2-2.9-0.4-4.3-0.9c-5.4-1.7-10.7-3.4-16-5.3c-10-3.6-20.4-5.5-30.7-7.8
		c-6-1.4-12-2.3-18.2-2.1c-4.3,0.2-8.7,0.2-13,0c-5.5-0.2-10.9-0.6-16.3-1.1c-0.5,0-1-0.6-1.6-0.9C59.1,70.1,59.7,69.6,59.6,69.7z"
		/>
	<path d="M35.3,74.2c2.9,0.7,5.6,0.9,7.4,3.2c0.3,0.3,0.4,1,0.3,1.3c-0.1,0.3-0.9,0.6-1.2,0.4c-3.1-1.5-4.1,2.3-6.5,2.4
		c0,0.3,0,0.8,0.2,0.9c1.6,1,3.3,1.6,5,0.2c1.4-1.2,2.7-2.4,4.1-3.5c0.3-0.2,1-0.2,1.2,0c0.2,0.3,0.3,1.1,0.1,1.2
		c-2,1.7-4.1,3.4-6.2,4.9c-0.6,0.4-1.7,0.4-2.4,0.1c-3.3-1.2-6.4-2.9-8.4-5.9c-1-1.4-0.6-3,1-3.7C31.7,75,33.6,74.6,35.3,74.2z"/>
	<path d="M104.8,81.3c4.3,0,8.6,0,13,0c8.1-0.1,15.6,2.5,23,5.4c0.4,0.2,0.7,0.7,1,1c-0.5,0.2-1.2,0.6-1.6,0.5
		c-2.1-0.6-4.1-1.2-6.1-2.1c-6.3-2.6-12.8-3-19.5-2.9c-7,0.1-14,0.1-20.9,0.1c-1.3,0-2.8,0.2-4-0.2c-1.4-0.5-3.4,0-4.1-2
		c1.3,0,2.5,0.1,3.8,0.1C94.5,81.4,99.6,81.3,104.8,81.3z"/>
	<path d="M79.4,60.4c1.5,0.5,3,0.8,4.4,1.3c3.1,1.3,6.3,1.8,9.7,1.7C107,63,119,67.8,130.6,74.1c0.3,0.2,0.7,0.3,0.8,0.5
		c0.2,0.4,0.2,0.8,0.3,1.2c-0.4,0-1,0.3-1.3,0.1c-2.1-1-4.2-2-6.2-3.1c-6.3-3.3-12.9-5.7-20-6.9c-3.1-0.5-6.3-0.6-9.4-0.5
		c-5.4,0.2-10.4-1.5-15.4-3.2c-0.4-0.1-0.9-0.6-0.9-0.9C78.6,61.1,79.1,60.8,79.4,60.4z"/>
	<path d="M96.7,94.9c-5.5-0.2-10.5-1.6-15.4-3.9c-3.4-1.6-6.9-3.1-10.4-4.6c-6.4-2.8-11-7.7-15.2-13.1c-0.2-0.3,0-0.8,0-1.3
		c0.3,0.1,0.7,0,0.8,0.2c1.3,1.3,2.8,2.4,3.8,3.9c2.4,3.5,5.8,5.9,9.6,7.6c6,2.7,12,5.5,18.2,7.7c4.9,1.8,10.1,1.2,15.2,0.4
		c0.4-0.1,0.9,0,1.3,0c-0.3,0.5-0.5,1.4-0.9,1.5C101.4,94,99,94.4,96.7,94.9z"/>
	<path d="M104.7,52.5c-0.9,0.2-1.3,0.4-1.7,0.3c-2.3-0.4-4.5-1.2-6.8-1.3c-3.5-0.3-6.8,0.2-10.1,1.9c-3.3,1.7-7.4,1.9-10.7,3.6
		c-5.5,2.7-10.7,5.9-16,9c-0.7,0.4-1.3,1-2,1.4c-0.4,0.2-0.9-0.1-1.4-0.2c0.2-0.4,0.2-1,0.5-1.2c7.2-4.7,14.1-9.9,22.7-12
		c2.9-0.7,5.7-1.9,8.4-3.1c5-2.3,10-1.8,15-0.1C103.2,50.8,103.7,51.6,104.7,52.5z"/>
	<path d="M44.3,60.4c-3,3-8.8,4-12.1,2c-2.4-1.5-2.7-3.5-0.9-5.8c3.5-4.3,8.4-4.5,12.3-0.5c0.7,0.7,1.5,1.3,2,2.2
		C46.7,60,45.6,60.3,44.3,60.4c-0.8-0.8-1.6-1.5-2.5-2.3c-0.2-0.1-0.2-0.3-0.4-0.2c-0.6,0.3,0.2-0.6,0,0c0,0.1,0.1,0.2,0.3,0.3
		C42.7,58.8,43.4,59.7,44.3,60.4z"/>
	<path d="M17.9,77.2c0.6-1.7,1.2-3.4,2-5c1.6-3.1,2.2-5.9,0.3-9.3c-2.1-3.9-1-8.1,0.4-12c0.2-0.6,0.8-1,1.4-1.3c0.4-0.2,0.9,0,1.4,0
		c0,0.4,0.1,1-0.1,1.2c-1.4,1.3-1.7,3-2.2,4.8c-0.6,2.6-0.4,4.9,0.9,7.1c1.7,2.9,1.7,5.7,0.2,8.5c-1.6,3.2-2.6,6.5-1.6,10
		c0.1,0.3-0.1,0.6-0.2,0.9c-0.4-0.2-1-0.2-1.2-0.5C18.8,80.2,18.4,78.8,17.9,77.2z"/>
</g>
</svg>
