<?xml version="1.0" encoding="iso-8859-1"?>
<!-- Generator: Adobe Illustrator 25.3.0, SVG Export Plug-In . SVG Version: 6.00 Build 0)  -->
<svg version="1.1" id="Calque_1" xmlns="http://www.w3.org/2000/svg" xmlns:xlink="http://www.w3.org/1999/xlink" x="0px" y="0px"
	 viewBox="0 0 81.9 21.6" style="enable-background:new 0 0 81.9 21.6;" xml:space="preserve">
<g>
	<path d="M81.9,9.8c0,0.7,0,1.4,0,2.1c0.1,2.8-0.4,5.5-1.4,8.1c-0.6,1.4-0.6,1.5-1.8,0.7c-2.1-1.4-4.3-2.8-6.4-4.2
		c-0.6-0.4-1.2-0.7-2-0.7c-0.7,0-1.2,0-0.7,1c0.1,0.2-0.1,0.7-0.3,0.9c-0.4,0.4-0.9,0.8-1.4,1.1c-1.7,0.8-3.5,1.4-5.4,1.7
		c-2.5,0.3-5,0.8-7.6,1c-3,0.2-6.1,0.5-8.9-0.4c-1.8-0.6-3.7-0.3-5.5-0.7c-1.9-0.4-3.7-0.4-5.5-0.2c-4.7,0.5-9.5,0.2-14.2,0.3
		c-2.1,0-4.2-0.1-6.2-0.4c-1.8-0.2-3.6-0.7-5.4-1c-2.9-0.5-5.2-2.1-7.4-3.7c-0.6-0.4-1.1-1.1-1.4-1.8c-0.6-1.3-0.2-2.4,1-3.2
		c0.2-0.1,0.5-0.2,0.5-0.4c0.9-2.7,3.1-3.9,5.8-4.3c1.6-0.3,3.1-0.7,4.8-0.7c0.7,0,1.5-0.6,2.1-1.2C16.2,2,18.3,1.2,20.7,1
		c1.6-0.1,3.2-0.4,4.8-0.6c0.1,0,0.2,0,0.4,0c2.4-0.1,4.9-0.5,7.3-0.3c2.9,0.2,5.7,0.2,8.6,0.3c2.7,0.1,5.5,0.4,8.2,0.7
		c3.5,0.4,7,0.8,10.4,1.5c2.5,0.5,4.5,2,6.1,4.1c0.1,0.1,0.2,0.3,0.3,0.5c1.2,1.5,2.3,1.8,4,0.8c1-0.6,1.9-1.2,2.9-1.8
		c2-1.3,4.2-1.9,6.4-2.6c0.2-0.1,0.4,0,0.5-0.1c1.2-0.1,1.4,0.1,1.4,1.2C81.9,6.4,81.9,8.1,81.9,9.8z"/>
	<path d="M22.6,10c3.3-0.4,4.9,2.7,4.1,5.6c-0.6,2.1-2.9,3.8-5.4,3.7c-1.9,0-3.8-0.5-5.3-1.8c-0.1-0.1-0.2-0.3-0.3-0.4
		c0.1,0,0.3-0.1,0.4-0.1c0.7-0.2,1.5-0.3,2.2-0.7c1.9-1.1,1.9-3.6,0-4.8c-0.2-0.1-0.5-0.2-0.6-0.4c-0.1-0.1,0.1-0.5,0.1-0.5
		c1.5,0.3,2.7-0.7,4.2-0.6C22.2,10,22.5,10,22.6,10z"/>
	<path d="M6.4,7.9c0.6,0,1.3,0.5,1.3,1c0.1,0.6-0.6,1.5-1.2,1.5c-0.5,0-1-0.5-1-1.2C5.4,8.5,5.8,7.9,6.4,7.9z"/>
</g>
</svg>
