<?xml version="1.0" encoding="iso-8859-1"?>
<!-- Generator: Adobe Illustrator 25.3.0, SVG Export Plug-In . SVG Version: 6.00 Build 0)  -->
<svg version="1.1" id="Calque_1" xmlns="http://www.w3.org/2000/svg" xmlns:xlink="http://www.w3.org/1999/xlink" x="0px" y="0px"
	 viewBox="0 0 63.8 39.3" style="enable-background:new 0 0 63.8 39.3;" xml:space="preserve">
<g>
	<path d="M34.1,5.8c0,0.1-0.1,0.2-0.1,0.3c0,0.6,0,1.2,0,1.8c0.6-0.2,1.2-0.4,1.8-0.5c0.5-0.1,1.1-0.2,1.6,0
		c2.3,0.7,4.7,0.8,6.9,1.7c2.7,1.1,4.8,2.9,6.4,5.2c0.4,0.6,0.3,1-0.3,1.3c-0.3,0.2-0.5,0.3-0.7,0.5c-0.5,0.4-1.2,0.5-1.3,1.3
		c0.6,0.1,1.1,0.2,1.7,0.3c1.4,0.2,2.6-0.5,3.8-0.9c2.2-0.7,4.4-1.3,6.7-1.9c0.6-0.2,1.2-0.1,1.8-0.1c1.3,0,1.4,0.1,1.3,1.3
		c-0.2,2.1-0.4,4.1-0.7,6.1c-0.1,0.8-0.6,1.6-1,2.5c-0.2,0.5-0.6,1.1-0.8,1.6c-0.8,1.8-0.9,1.9-2.7,0.9c-2.1-1.1-3.9-2.5-5.6-4.2
		c-0.8-0.8-1.7-1.3-2.7-1.6c-0.2-0.1-0.5,0-0.7,0.1c0.1,0.1,0.3,0.2,0.4,0.3c0.6,0.7,0.6,1.4,0.1,2.2c-0.9,1.4-2.2,2.5-3.6,3.4
		c-2.2,1.5-4.6,2.7-7.3,3.3c-0.5,0.1-1.2,0.3-1.6,0.1c-1.3-0.7-1.9,0.4-2.7,1c-0.2,0.2,0,0.9-0.3,1c-0.2,0.2-0.7,0-1.1,0
		c-0.1,0-0.3,0.3-0.3,0.4c0.2,1.1-0.4,0.8-1,0.6c-0.1,0-0.3-0.1-0.4,0c-0.3,0.1-0.9,0.5-1,0.4c-0.4-0.4-0.7-0.8-0.8-1.3
		c-0.4-1.4-1.3-1.7-2.7-1.6c-1.9,0.1-3.8,0-5.8,0c-0.5,0-0.9-0.1-1.4-0.2c-0.1,0.7,0.7,0.7,1,1.1c0.5,0.6,1,1.3,1.4,2
		c0.7,1.2,0.4,2.3-0.4,3.3c-0.3,0.4-0.7,0.7-1,1c-1,0.9-1.6,0.9-2.2-0.3c-1.3-2.3-2.3-4.7-2.9-7.2c-0.2-0.7-0.5-1-1.2-1.1
		c-1.5-0.3-2.9-0.6-4.4-0.8c-0.3-0.1-0.6-0.2-0.8-0.1C9,29.4,8.6,28.9,8,28.5c-0.3-0.2-0.5-0.5-0.7-0.8c-1.7-2.4-3.8-4.4-6.4-5.7
		c-0.5-0.3-1-0.7-0.9-1.4c0.1-0.8,0.7-1.4,1.5-1.5c0.3,0,0.6,0.1,0.6-0.4c0-0.7,0.5-0.8,1-1.1c1.1-0.7,2.2-1.4,3.2-2.2
		c2.1-1.7,4.6-2.5,6.8-3.9c2.1-1.4,4.3-2.6,6.7-3.3c0.6-0.2,0.8-0.5,0.8-1c0-0.6,0-1.2,0-1.8c0-0.2,0.1-0.3,0.2-0.5
		C20.8,4.9,21,4.9,21.1,5c0.2,0.3,0.3,0.7,0.5-0.1c0.3-1.1,0.8-2.1,1.2-3.1c0.1-0.2,0.5-0.6,0.6-0.1c0.2,0.6,0.3,0.7,0.7,0.2
		c0.2-0.3,0.4-0.7,0.7-1C25.2,0.3,25.4,0.3,26,1c0.1,0.1,0.3,0.2,0.4,0.1c0.1-0.1,0.2-0.3,0.4-0.4c0.2-0.2,0.6-0.7,0.7-0.7
		c0.5,0.2,0,0.6,0.1,0.9c0,0.1,0.4,0.4,0.4,0.3c0.4-0.3,0.8-0.7,1.2-1c0.1-0.1,0.3-0.1,0.5-0.2c0,0.1,0.1,0.3,0.1,0.4
		c-0.2,0.7-0.1,1.1,0.8,0.7c0.1,0,0.5,0.3,0.5,0.5c0,0.7,0.3,1.1,1.1,1.2c0.3,0,0.6,0.1,0.6,0.5c0,0.1,0.2,0.4,0.2,0.4
		C34.4,3.7,33.9,5,34.1,5.8z"/>
	<path d="M15.1,15.1c0,1.2-0.7,2.6-1.4,2.4c-0.8-0.1-1.6-0.4-2.3-0.8c-0.3-0.2-0.5-0.8-0.6-1.2c-0.1-1.1,0.9-2,2.2-2
		C14.2,13.5,15.1,14.2,15.1,15.1z"/>
	<path d="M16.5,14.9c-0.2,0.4-0.4,0.9-0.7,1.3c0,0-0.1,0-0.1,0c0.1-0.5,0.1-1,0.2-1.5c0-0.1,0.2-0.2,0.4-0.2
		C16.3,14.5,16.3,14.7,16.5,14.9z"/>
</g>
</svg>
