<?xml version="1.0" encoding="iso-8859-1"?>
<!-- Generator: Adobe Illustrator 25.3.0, SVG Export Plug-In . SVG Version: 6.00 Build 0)  -->
<svg version="1.1" id="Calque_1" xmlns="http://www.w3.org/2000/svg" xmlns:xlink="http://www.w3.org/1999/xlink" x="0px" y="0px"
	 viewBox="0 0 86.5 13.1" style="enable-background:new 0 0 86.5 13.1;" xml:space="preserve">
<g>
	<path d="M82.3,9.7c-1-0.2-2.7-0.4-4.3-0.8c-1.7-0.4-3.5-0.2-5.2-0.2c-0.3,0-0.4,0.2-0.2,0.4c0.9,1.1,0.2,2.4,0.2,3.6
		c0,0.2-0.4,0.5-0.6,0.5c-0.6-0.1-1.2-0.2-1.7-0.5c-0.9-0.4-1.8-0.8-2.5-1.4c-1-1-2.2-1-3.4-0.9c-0.5,0-0.9,0.1-0.9,0.8
		c0,0.2-0.1,0.5-0.2,0.7c-0.2,0.5-0.5,0.8-1.1,0.4c-0.3-0.2-0.7-0.4-1-0.7c-1.1-0.9-2.4-0.9-3.7-0.7c-0.6,0.1-1.3,0.2-1.9,0.2
		c-5.6,0-11.2,0.2-16.7,0c-4-0.1-8-0.2-11.9-1c-1.1-0.2-2.2-0.6-3.2-1c-1.7-0.6-3.4-1.3-5.2-1.7c-3.4-0.8-6.8-1.5-10.4-1.6
		C5.8,5.7,3.3,5.3,0.9,5C0.7,5,0.5,5,0.4,5C0.2,4.8,0,4.6,0,4.5C0,4.3,0.3,4,0.4,4c0.6-0.1,1.2-0.1,1.8,0c1.5,0.1,3,0.2,4.5,0.3
		c1.7,0.1,3.4,0,5,0c0.7,0,1.4,0.1,1.8-0.7c0.1-0.2,0.5-0.3,0.8-0.3c1.4,0,2.7,0.1,4.1,0.2c0.9,0.1,1.8,0.3,2.6-0.2
		c0.2-0.1,0.4-0.1,0.6-0.1c2.5,0.3,4.9-0.2,7.3-0.5c0.6-0.1,1.2-0.1,1.8-0.1c4,0.1,8,0.5,12,0.2C48.5,2.4,54.3,2.5,60,2.5
		c2,0,3.7-0.1,5-1.9c0.5-0.7,1.2-0.8,2.1-0.4c2.6,1.2,5.4,1.7,8.3,2.2c0.2,0,0.4,0,0.5,0.1c0.8,0.2,0.8,0.5,0.3,1.2
		C76,3.8,76,4,75.9,4.2c0.2,0,0.4,0.1,0.5,0c1.4-1.1,3.1-1,4.6-1.2c1.2-0.2,2.5,0.1,3.7,0.5c1.9,0.7,2,1.8,1.6,3.8
		C86,8.8,84.5,9.7,82.3,9.7z"/>
	<path d="M34.3,7.9c-0.6,0-1.2,0.1-1.8,0c-0.4-0.1-0.8-0.2-1-0.5c-0.2-0.3,0.3-1.5,0.7-1.6c2.7-0.9,5.4-1.5,8.2-1.4
		c0.3,0,0.6,0.1,0.8,0.2c-0.2,0.3-0.3,0.6-0.6,0.8c-1,0.8-1.9,1.7-3,2.2c-1,0.4-2.2,0.4-3.3,0.6C34.3,8,34.3,7.9,34.3,7.9z"/>
	<path d="M65,6.4c-0.5,0-1.1,0-1.6,0c-2.7-0.1-5.4-0.2-8-0.4c-0.1,0-0.3-0.1-0.4-0.2c0.2-0.1,0.3-0.1,0.5-0.1c2.8,0,5.5-0.2,8.3,0
		C66,6,68.2,6,70.5,6.1c0.2,0,0.3,0.1,0.5,0.1c-0.2,0.1-0.4,0.2-0.6,0.2C68.6,6.4,66.8,6.4,65,6.4C65,6.4,65,6.4,65,6.4z"/>
	<path d="M42.1,5.5c1.3,0.1,2.7,0.2,4,0.3c0.1,0,0.3,0.1,0.4,0.2C46.4,6,46.3,6,46.2,6c-1.5-0.1-2.9-0.2-4.4-0.3
		c-0.2,0-0.4-0.2-0.6-0.3c0.2,0,0.4-0.1,0.7-0.1C41.9,5.3,42,5.4,42.1,5.5C42.1,5.4,42.1,5.4,42.1,5.5z"/>
</g>
</svg>
