<?xml version="1.0" encoding="iso-8859-1"?>
<!-- Generator: Adobe Illustrator 25.3.0, SVG Export Plug-In . SVG Version: 6.00 Build 0)  -->
<svg version="1.1" id="Calque_1" xmlns="http://www.w3.org/2000/svg" xmlns:xlink="http://www.w3.org/1999/xlink" x="0px" y="0px"
	 viewBox="0 0 58.9 45.8" style="enable-background:new 0 0 58.9 45.8;" xml:space="preserve">
<g>
	<path d="M21.8,5.5c0,1,0,2,0,3c0,0.4,0,0.7,0.1,1.1c0.1,0.3,0.4,0.6,0.6,0.9c0.2-0.2,0.4-0.4,0.6-0.6c0.7-1.1,1.4-2.2,2.1-3.3
		c0.2-0.3,0.3-0.8,0.7-0.5c0.1,0.1,0,0.6-0.1,0.9c-0.4,1.1-0.8,2.1-1.2,3.1c-0.1,0.3-0.2,0.6-0.2,0.9c0,1.2,0.6,1.6,1.7,1
		c0.5-0.3,1-0.6,1.5-0.9c0.1-0.1,0.5,0,0.5,0c0,0.2,0,0.5-0.1,0.6c-0.3,0.3-0.6,0.6-0.9,0.9c-0.3,0.2-0.7,0.3-0.4,0.8
		c0.2,0.3,0.5,0.7,0.7,0.7c0.8,0,1.2,0.2,1.6,0.9c0.1,0.1,0.6,0.2,0.8,0c1.4-1.2,3.2-1.3,4.9-1.2c0.6,0,1.2,0,1.8,0
		c3.2-0.2,6.1,0.8,8.9,2.2c2,1,3.2,2.8,4,4.8c0.1,0.3-0.1,0.8-0.3,1.1c-0.1,0.2-0.5,0.3-0.7,0.5c-0.3,0.3-0.5,0.6-0.8,0.9
		c0.4,0,0.8,0.1,1.2,0.1c1.5,0.1,2.9-0.2,4.3-0.8c1.4-0.6,2.8-0.9,4.3-1.2c0.9-0.2,1.5,0.3,1.5,1.3c0,1.4,0,2.9,0,4.3
		c0,0.6-0.3,0.9-0.9,0.9c-1.4-0.1-2.8-0.3-4.3-0.4c-1.7-0.1-3.4-0.2-5.2-0.2c-0.1,0-0.4,0.1-0.4,0.2c0,0.1,0.1,0.3,0.2,0.4
		c0.2,0.2,0.4,0.3,0.6,0.4c1,0.8,1.1,1.2,0.5,2.4c-1.2,2.5-2.7,4.6-5.5,5.5c-0.6,0.2-1.1,0.7-1.7,1c-2.5,1.2-5.1,1.4-7.8,0.8
		c-1-0.2-1.8-0.6-2.2-1.6c-0.2-0.5-0.5-0.6-1-0.4c-1.7,0.8-3.6,0.8-5.4,1.1c-0.9,0.1-1.8-0.2-2.7-0.2c-0.5,0-1.1,0-1.6,0
		c-0.3,0-0.5,0.2-0.8,0.3c0.2,0.2,0.4,0.4,0.7,0.5c1.1,0.3,2.3,0.7,3.4,0.9c2.1,0.5,3.2,1.8,3.6,3.8c0.2,1.1,0.6,2,1.2,2.9
		c0.1,0.2,0.1,0.4,0.1,0.6c-0.2,0-0.5,0.1-0.6,0c-1.6-0.7-3.2-1.4-4.6-2.3c-3-1.9-6.1-3.7-8.7-6.2c-0.8-0.8-1.9-0.8-2.8-0.7
		c-1.3,0.2-2.3-0.2-3.4-0.5c-0.9-0.2-1.8-0.6-2.7-0.8c-1.6-0.4-3-1-3.9-2.6c-0.6-1.1-1.4-2.1-2.3-3C0,29-0.2,28.1,0.1,27.3
		c0.4-1.1,0.9-2.2,1.8-3c1.2-1.1,2.6-2,4-3c1.5-1,3.2-1.8,5-2.5c2-0.8,3.9-1.8,5.5-3.3c0.7-0.7,1.7-1.1,2.6-1.5
		c0.4-0.2,0.7-0.5,0.2-0.9c-0.2-0.2-0.3-0.3-0.5-0.5c-0.3-0.5-0.2-0.8,0.4-0.8c0.7,0,0.8-0.3,0.8-0.9c0-0.5,0-1,0-1.4
		c0.1-2.6,0.3-5.2,0.4-7.8c0-0.1,0-0.3,0-0.4C20.5,0.7,20.7,0,20.9,0c0.7,0,0.5,0.7,0.5,1.1c0.2,1.5,0.3,2.9,0.4,4.4
		C21.9,5.5,21.8,5.5,21.8,5.5z"/>
	<path d="M8.4,22.4c0.3-0.1,0.7-0.2,1-0.3c0.5-0.1,1-0.2,1.4-0.1c1.4,0.1,2.3,1.9,1.6,3.1c-0.8,1.5-3.7,1.9-4.9,0.8
		C6.6,24.8,6.9,23.7,8.4,22.4z"/>
	<path d="M26.4,25.6c-0.2-0.2-0.3-0.3-0.5-0.5c0.2-0.1,0.4-0.2,0.6-0.2c0.3,0.1,0.7,0.2,1,0.3c0.4,0.2,0.7,0.4,1.1,0.5
		c-0.4,0-0.8,0.1-1.2,0.1C27.1,25.8,26.8,25.7,26.4,25.6z"/>
	<path d="M51.2,24.9c0.5-0.7,1.2-0.3,1.8-0.4c0.3,0.1,0.3,0.2,0,0.4C52.4,25.4,51.8,24.9,51.2,24.9L51.2,24.9z"/>
	<path d="M11.6,29.5c0.6-0.5,1.1-1.1,1.8-1.4c1.5-0.6,1.7-2,2.4-3.1c0.2-0.3,0.2-0.7,0.4-1c0.1-0.2,0.3-0.2,0.5-0.4
		c0.1,0.3,0.2,0.6,0.2,0.8c-0.4,0.7-0.8,1.3-1.2,2c-0.1,0.2-0.3,0.4-0.4,0.6c0,0.1,0.1,0.3,0.1,0.5c0.2-0.1,0.3-0.1,0.4-0.2
		c0.2-0.3,0.4-0.6,0.6-0.9c0.1-0.1,0.3-0.2,0.5-0.2c0,0.2,0.1,0.4,0,0.5c-0.6,1.1-1.7,1.7-2.7,2.3C13.3,28.6,12.5,29.5,11.6,29.5
		L11.6,29.5z"/>
	<path d="M48,25.2c-0.1,0.1-0.1,0.2-0.2,0.3c-2.4,0.2-4.7,0.3-7.1,0.5c-0.1,0-0.2-0.1-0.3-0.2c0.1,0,0.2-0.1,0.3-0.1
		c1.5-0.1,2.9-0.2,4.4-0.4c0.4,0,0.8-0.1,1.2-0.2C46.9,24.8,47.5,25,48,25.2L48,25.2z"/>
	<path d="M16.6,21c0.2,0,0.7,0.2,1.1,0.4c0.1,0,0.2,0.3,0.3,0.4c-0.1,0-0.3,0-0.4,0.1c-0.3,0.1-0.5,0.1-0.8,0.2
		c-0.2,0.1-0.5,0.3-0.6,0.2c-0.4-0.1-0.9-0.3-1.2-0.6c-0.2-0.2,0.3-0.7,0.9-0.8C16,20.9,16.1,20.9,16.6,21z"/>
	<path d="M18.4,19.3c-0.1,0.1-0.3,0.2-0.3,0.2c-1.1-0.9-2.3-0.6-3.5-0.3c-0.1,0-0.3-0.1-0.5-0.1c0.1-0.1,0.2-0.3,0.3-0.3
		c1.3-0.5,2.6-0.9,3.8,0.1C18.3,19,18.3,19.1,18.4,19.3z"/>
	<path d="M11.6,29.5c-1,0.9-1.9,1.8-2.9,2.6c0,0-0.3,0-0.3-0.1c0-0.1,0-0.3,0-0.3C9.4,30.8,10.2,29.7,11.6,29.5
		C11.6,29.5,11.6,29.5,11.6,29.5z"/>
	<path d="M24.2,24.1c-0.1,0.1-0.1,0.2-0.2,0.2c-0.4-0.1-0.8-0.2-1.2-0.4c-0.3-0.2-0.6-0.5-0.9-0.7c0.4,0,0.8,0,1.1,0.1
		c0.3,0.1,0.6,0.3,0.9,0.5C24,23.9,24.1,24,24.2,24.1z"/>
	<path d="M32.4,26.8c-0.4-0.1-1.1-0.2-1.1-0.4c-0.1-0.5,0.4-0.3,0.8-0.3c0.2,0,0.3,0.2,0.5,0.2c0.4,0.1,0.8,0.1,1.2,0.2
		C33.3,26.5,32.9,26.6,32.4,26.8z"/>
	<path d="M36.1,26.7c-0.5,0-0.7,0-0.9,0c-0.1,0-0.2-0.2-0.3-0.3c0,0,0.1-0.2,0.2-0.2c0.2-0.1,0.3-0.2,0.5-0.1
		c0.4,0.1,0.7,0.2,1.1,0.3C36.4,26.4,36.1,26.6,36.1,26.7z"/>
	<path d="M51.2,24.9c-0.4,0.1-0.8,0.3-1.3,0.4c-0.6,0.1-1.3,0-2,0c0,0,0,0,0,0c0.3-0.1,0.6-0.3,0.9-0.4
		C49.7,24.8,50.5,24.9,51.2,24.9L51.2,24.9z"/>
	<path d="M26,33.3c-0.2,0.2-0.2,0.3-0.3,0.4c-0.3-0.4-0.7-0.8-1-1.1c0.1,0,0.3-0.1,0.3-0.1C25.4,32.7,25.7,33.1,26,33.3z"/>
</g>
</svg>
