<?xml version="1.0" standalone="no"?>
<!DOCTYPE svg PUBLIC "-//W3C//DTD SVG 20010904//EN"
 "http://www.w3.org/TR/2001/REC-SVG-20010904/DTD/svg10.dtd">
<svg version="1.0" xmlns="http://www.w3.org/2000/svg"
 width="264.000000pt" height="105.000000pt" viewBox="0 0 264 105"
 preserveAspectRatio="xMidYMid meet">
<g transform="translate(264, 0) rotate(90) translate(0.000000,264.000000) scale(0.100000,-0.100000)"
fill="#000000" stroke="none">
<path d="M551 2554 c-48 -34 -120 -219 -151 -387 -11 -62 -16 -71 -49 -92 -20
-12 -66 -33 -102 -44 -37 -12 -84 -36 -105 -55 -36 -31 -37 -34 -19 -43 11 -6
58 -14 105 -18 123 -10 121 -7 118 -123 l-3 -97 -35 -6 c-58 -10 -135 -48
-171 -85 -33 -35 -34 -36 -14 -50 15 -11 46 -14 125 -12 59 1 112 -2 119 -6 9
-6 11 -27 7 -75 -3 -41 -2 -57 3 -41 l8 25 6 -25 c75 -318 71 -401 -29 -519
-25 -30 -27 -31 -41 -14 -13 17 -14 16 -8 -5 5 -17 -2 -32 -28 -61 -51 -56
-81 -154 -82 -266 0 -72 3 -90 14 -90 11 0 20 25 32 85 26 132 37 165 64 190
14 13 26 22 28 19 1 -2 11 -21 20 -43 23 -51 31 -41 10 12 -9 23 -14 44 -12
45 2 2 26 16 52 31 27 15 80 55 118 87 38 33 69 54 70 47 0 -7 5 -2 11 12 6
14 29 62 51 108 l40 83 24 -23 c14 -13 37 -45 51 -73 22 -43 26 -64 28 -158 1
-60 5 -111 8 -115 19 -19 30 28 34 141 5 140 -11 199 -73 280 -19 25 -35 48
-35 51 0 3 19 7 43 9 l42 4 -40 1 -40 2 0 169 c0 93 3 172 6 175 3 4 44 14 90
22 84 16 139 37 139 53 0 26 -69 47 -179 54 -41 3 -77 10 -81 16 -9 16 19 184
33 193 6 3 45 10 87 13 89 8 142 23 137 38 -6 19 -98 65 -155 78 -63 15 -64
16 -86 155 -38 241 -115 377 -185 328z m67 -27 c49 -52 90 -188 117 -384 4
-29 12 -56 18 -61 7 -4 39 -16 72 -26 79 -24 140 -55 129 -66 -5 -5 -50 -14
-101 -20 -50 -5 -98 -13 -107 -16 -8 -3 -18 -22 -22 -42 -17 -99 -19 -102 -33
-32 -22 108 -106 303 -141 325 -19 12 -59 -23 -84 -73 -25 -49 -65 -172 -90
-277 l-14 -60 -1 51 c-1 30 -7 56 -14 63 -11 8 -156 30 -211 31 -25 0 34 42
92 65 37 15 84 34 104 42 21 9 44 24 53 33 9 10 26 69 40 131 23 113 45 181
86 262 41 81 68 95 107 54z m-251 -754 c-4 -3 -7 0 -7 7 0 7 3 10 7 7 3 -4 3
-10 0 -14z m399 -590 c61 -80 86 -212 65 -333 -7 -39 -9 -34 -10 45 -1 101
-27 174 -82 231 -24 25 -28 36 -23 62 4 18 10 32 14 32 4 0 20 -17 36 -37z"/>
<path d="M330 1363 c-8 -3 -26 -10 -39 -15 -13 -5 -22 -11 -19 -13 6 -7 76 14
83 25 7 11 -2 12 -25 3z"/>
<path d="M770 1352 c0 -7 16 -15 85 -41 7 -2 7 0 0 7 -14 16 -85 44 -85 34z"/>
<path d="M185 1310 c-22 -11 -32 -18 -22 -15 11 3 30 8 43 11 13 3 24 10 24
15 0 11 2 12 -45 -11z"/>
<path d="M896 1288 c4 -12 1 -18 -9 -18 -9 0 -19 -5 -23 -11 -5 -9 1 -10 22
-5 39 10 41 14 20 34 -16 16 -17 16 -10 0z"/>
<path d="M140 1261 c24 -14 87 -25 75 -13 -5 5 -28 12 -50 15 -24 4 -34 3 -25
-2z"/>
<path d="M288 1238 c18 -6 32 -18 33 -27 0 -13 2 -13 6 -2 7 18 -24 41 -51 40
-15 -1 -11 -4 12 -11z"/>
<path d="M317 1146 c-4 -10 -7 -32 -6 -49 1 -31 1 -31 10 7 10 43 7 72 -4 42z"/>
<path d="M300 985 c0 -25 5 -45 10 -45 6 0 10 20 10 45 0 25 -4 45 -10 45 -5
0 -10 -20 -10 -45z"/>
<path d="M590 876 c0 -7 -3 -29 -6 -47 -4 -19 -3 -31 1 -27 11 11 24 88 14 88
-5 0 -9 -6 -9 -14z"/>
<path d="M583 710 c0 -30 2 -43 4 -27 2 15 2 39 0 55 -2 15 -4 2 -4 -28z"/>
<path d="M417 622 c19 -35 43 -61 43 -46 0 5 -14 25 -31 44 l-31 35 19 -33z"/>
<path d="M580 618 c0 -23 21 -78 30 -78 4 0 1 19 -7 42 -16 48 -23 58 -23 36z"/>
<path d="M490 525 c21 -29 51 -58 56 -53 2 2 -13 20 -33 39 -21 19 -31 25 -23
14z"/>
<path d="M652 465 c12 -25 24 -42 26 -36 4 12 -24 67 -38 76 -6 4 0 -14 12
-40z"/>
<path d="M579 435 c17 -33 51 -71 51 -58 0 7 -14 27 -31 45 -16 18 -26 24 -20
13z"/>
<path d="M688 335 c2 -25 9 -45 14 -45 6 0 8 13 4 31 -3 17 -6 38 -6 45 0 8
-3 14 -8 14 -4 0 -6 -20 -4 -45z"/>
<path d="M647 304 c3 -21 10 -46 15 -54 6 -10 6 1 2 30 -3 25 -10 49 -15 54
-5 5 -6 -8 -2 -30z"/>
<path d="M691 203 c1 -53 6 -49 11 10 2 20 0 37 -4 37 -4 0 -8 -21 -7 -47z"/>
<path d="M662 189 c-1 -9 -5 -32 -8 -50 -5 -26 -4 -31 5 -23 7 7 11 28 8 50
-2 22 -4 32 -5 23z"/>
<path d="M680 95 c0 -14 -5 -25 -12 -25 -9 0 -9 -3 0 -12 15 -15 18 -11 27 30
4 20 3 32 -4 32 -6 0 -11 -11 -11 -25z"/>
</g>
</svg>
