<svg xmlns="http://www.w3.org/2000/svg" width="1200" height="1200" viewBox="0 0 1200 1200" version="1.1">
	<path d="M 1099 171.106 C 1087.999 180.936, 1087.018 181.331, 1075.023 180.763 C 1062.726 180.180, 1060.105 180.916, 1052.929 186.964 C 1045.555 193.180, 1039.116 196.834, 1033.474 198.005 C 1029.743 198.780, 1025.646 200.882, 1019.477 205.186 L 1010.755 211.272 1000.027 210.763 C 987.726 210.180, 985.106 210.915, 977.929 216.964 C 970.555 223.180, 964.116 226.834, 958.474 228.005 C 954.743 228.780, 950.646 230.882, 944.477 235.186 L 935.755 241.272 925.027 240.763 C 912.726 240.180, 910.106 240.915, 902.929 246.964 C 895.548 253.186, 889.115 256.834, 883.454 258.009 C 879.869 258.754, 875.803 260.764, 870.862 264.233 C 863.183 269.626, 855.702 273, 851.424 273 C 844.191 273, 841.943 277.897, 841.236 295.193 C 839.957 326.493, 853.070 346.811, 875.749 348.669 C 886.206 349.526, 892.039 347.063, 907 335.474 L 911.500 331.989 923.500 332.184 C 936.904 332.401, 938.307 331.972, 946 325.296 C 955.534 317.021, 955.592 317, 968.470 317 C 981.147 317, 981.370 316.932, 990.275 310.377 C 1000.705 302.698, 1007.632 304.367, 1006.803 314.357 C 1006.357 319.739, 1004.979 322.557, 997.487 333.416 C 995.621 336.121, 993.623 340.529, 993.048 343.214 C 991.757 349.231, 987.322 356.203, 978.553 366 C 969.661 375.934, 964.439 383.658, 962.999 389.002 C 961.442 394.788, 956.837 401.747, 948.114 411.500 C 939.672 420.939, 934.394 428.516, 933.435 432.574 C 929.778 448.045, 806.016 573, 794.350 573 C 789.802 573, 781.615 579.299, 760 599.427 C 746.891 611.635, 740.389 616.280, 734 618 C 728.365 619.517, 721.684 624.005, 711.500 633.114 C 701.165 642.357, 694.309 646.740, 688.103 648.071 C 684.994 648.738, 680.545 650.943, 676.306 653.918 C 667.519 660.085, 664.188 661.766, 658.216 663.047 C 655.531 663.623, 651.121 665.626, 648.416 667.497 C 638.820 674.139, 633.436 676.973, 628.441 678.011 C 625.658 678.589, 621.158 680.596, 618.441 682.471 C 608.544 689.297, 604.675 691.342, 598.532 692.991 C 594.261 694.138, 589.650 696.518, 584.038 700.474 L 575.807 706.274 564.984 705.761 C 552.540 705.171, 549.533 706.075, 542 712.670 C 532.321 721.144, 532.349 721.134, 519.271 720.862 C 505.794 720.582, 504.984 720.859, 495.500 729 C 485.613 737.487, 486.108 737.361, 465.869 736.549 C 445.480 735.732, 445.152 735.814, 435.414 744.111 C 425.593 752.479, 426.070 752.359, 405.869 751.549 C 384.933 750.710, 385.196 750.634, 373.099 761.155 L 365.059 768.148 277.126 767.422 L 189.192 766.695 183.346 771.686 C 175.580 778.315, 171.548 780.622, 164.537 782.448 C 155.280 784.859, 151.545 789.866, 150.099 801.797 C 147.837 820.472, 152.494 834.628, 165.176 847.620 L 173.355 856 263.751 856 L 354.148 856 360.704 850.437 C 373.332 839.725, 372.915 839.799, 412.642 841.236 L 442.784 842.327 450.398 835.686 C 461.998 825.569, 461.071 825.836, 483.311 826.193 L 502.500 826.500 507 823.213 C 509.475 821.406, 513.750 818.132, 516.500 815.938 L 521.500 811.949 533.500 812.170 C 546.713 812.414, 547.610 812.156, 555.071 805.972 C 562.621 799.713, 568.948 796.153, 574.604 794.978 C 578.488 794.172, 582.229 792.232, 588.229 787.912 L 596.500 781.957 608.500 782.174 C 621.712 782.413, 622.612 782.154, 630.071 775.972 C 637.602 769.730, 643.944 766.153, 649.546 764.991 C 653.048 764.263, 657.154 762.268, 661.671 759.098 C 670.481 752.914, 673.809 751.234, 679.784 749.953 C 682.469 749.377, 686.879 747.374, 689.584 745.503 C 699.180 738.861, 704.564 736.027, 709.559 734.989 C 712.342 734.411, 716.842 732.404, 719.559 730.529 C 729.125 723.931, 733.362 721.613, 738.112 720.381 C 743.832 718.897, 751.776 713.599, 762 704.447 C 771.272 696.148, 778.293 691.537, 783.998 690.001 C 789.321 688.567, 797.022 683.369, 807 674.474 C 816.567 665.946, 822.215 662.051, 826.829 660.799 C 843.434 656.295, 1016.171 483.542, 1020.782 466.829 C 1022.058 462.204, 1025.967 456.544, 1034.474 447 C 1043.369 437.022, 1048.567 429.321, 1050.001 423.998 C 1051.558 418.212, 1056.163 411.253, 1064.886 401.500 C 1075.101 390.079, 1078.864 384.104, 1080.120 377.311 C 1081.908 367.636, 1083.193 366, 1089 366 C 1096.056 366, 1097.438 368.842, 1096.751 381.944 C 1096.111 394.139, 1097.318 398.166, 1104.373 407.377 C 1112.771 418.342, 1113.182 420.735, 1110.860 445.191 L 1109.720 457.197 1125.110 472.655 C 1154.619 502.296, 1166.752 505.852, 1185.668 490.404 C 1188.404 488.170, 1190.896 487, 1192.918 487 L 1196 487 1196 443.500 L 1196 400 1192.526 400 C 1186.188 400, 1185.759 397.815, 1186.156 367.618 C 1186.544 338.166, 1186.844 339.638, 1178.461 329.881 C 1170.508 320.626, 1170.770 321.959, 1171.156 292.618 C 1171.544 263.166, 1171.844 264.638, 1163.461 254.881 C 1155.861 246.037, 1155.658 245.352, 1156.253 230.674 C 1157.403 202.328, 1147.856 185.036, 1129.747 182.661 C 1123.478 181.839, 1118.559 179.226, 1110.656 172.522 C 1102.979 166.009, 1104.498 166.193, 1099 171.106 M 36.440 169.271 C 35.373 169.855, 32.475 172.120, 30 174.305 C 24.074 179.535, 18.492 181.936, 10.526 182.680 L 4 183.289 4 587.109 L 4 990.930 6.250 992.087 C 7.488 992.724, 11.755 995.890, 15.734 999.123 L 22.969 1005 601.519 1005 L 1180.070 1005 1188.035 998.410 L 1196 991.821 1196 966.410 L 1196 941 1192.916 941 C 1190.356 941, 1187.723 939.016, 1177.409 929.315 L 1164.985 917.631 633.743 917.886 L 102.500 918.142 98.338 913.821 C 96.025 911.419, 93.666 907.723, 93.028 905.500 C 90.663 897.261, 89.970 817.947, 90.631 631.321 L 91.295 444.142 83.125 434.645 L 74.955 425.149 75.220 313.324 C 75.536 179.640, 75.870 183.974, 65.142 182.703 C 59.034 181.980, 54.192 179.593, 46.987 173.755 C 40.485 168.486, 39.014 167.861, 36.440 169.271" stroke="none" fill="#FFFFFF" fill-rule="nonzero"/>
</svg>