<?xml version="1.0" standalone="no"?>
<!DOCTYPE svg PUBLIC "-//W3C//DTD SVG 20010904//EN"
 "http://www.w3.org/TR/2001/REC-SVG-20010904/DTD/svg10.dtd">
<svg version="1.0" xmlns="http://www.w3.org/2000/svg"
 width="348.000000pt" height="348.000000pt" viewBox="0 0 348.000000 348.000000"
 preserveAspectRatio="xMidYMid meet">
<g transform="translate(0.000000,348.000000) scale(0.100000,-0.100000)"
fill="#FFFFFF" stroke="none">
<path d="M85 2961 c-34 -10 -64 -36 -75 -65 -14 -38 -14 -2202 0 -2242 6 -16
23 -38 38 -49 27 -20 43 -20 1682 -20 1639 0 1655 0 1682 20 58 43 57 133 -2
175 -28 20 -40 20 -1609 20 l-1581 0 0 1030 c0 867 -2 1036 -14 1065 -21 49
-77 80 -121 66z"/>
<path d="M3193 2960 c-17 -4 -78 -26 -135 -48 -57 -23 -204 -80 -328 -127
-278 -106 -303 -126 -269 -224 12 -34 53 -61 92 -61 19 0 223 69 292 99 72 32
136 54 141 49 14 -15 -186 -334 -294 -468 -302 -376 -727 -666 -1187 -811
-318 -99 -546 -139 -810 -140 -88 0 -173 -5 -190 -10 -62 -20 -89 -93 -55
-147 36 -58 70 -66 275 -58 99 3 191 7 205 9 14 2 50 7 80 11 494 64 1003 271
1400 569 96 73 339 307 421 406 110 133 303 426 323 489 4 12 11 22 15 22 5 0
25 -89 46 -197 34 -176 42 -201 66 -225 55 -55 156 -27 175 48 4 17 -1 71 -14
134 -12 58 -44 218 -72 355 -28 138 -59 263 -68 279 -21 36 -66 55 -109 46z"/>
</g>
</svg>
