<svg xmlns="http://www.w3.org/2000/svg" width="385" height="400" viewBox="0 0 385 400" version="1.1">
	<path d="M 151.001 22.499 C 148.891 24.744, 147.870 25, 141 25 C 134.132 25, 133.108 25.256, 131 27.500 C 129.708 28.875, 127.557 30, 126.220 30 C 124.883 30, 122.452 31.125, 120.818 32.500 C 117.791 35.047, 116.667 35.357, 111.677 35.023 C 109.484 34.876, 107.550 36.078, 103.002 40.417 C 99.496 43.761, 96.258 46, 94.928 46 C 93.676 46, 90.610 47.962, 87.897 50.500 C 85.077 53.137, 82.133 55, 80.783 55 C 77.637 55, 40 92.544, 40 95.683 C 40 96.873, 38.875 99.184, 37.500 100.818 C 36.125 102.452, 35 104.702, 35 105.818 C 35 106.934, 33.875 109.184, 32.500 110.818 C 31.125 112.452, 30 114.702, 30 115.818 C 30 116.934, 28.875 119.184, 27.500 120.818 C 26.125 122.452, 25 124.702, 25 125.818 C 25 126.934, 23.875 129.184, 22.500 130.818 C 20.639 133.030, 20 134.946, 20 138.318 C 20 141.690, 19.361 143.606, 17.500 145.818 C 15.573 148.108, 15 149.919, 15 153.720 C 15 157.596, 14.500 159.121, 12.662 160.848 C 10.346 163.024, 10.322 163.275, 10.109 187.798 L 9.894 212.552 12.447 214.950 C 14.855 217.212, 15 217.918, 15 227.370 C 15 236.928, 15.126 237.522, 17.738 240.248 C 19.931 242.537, 20.478 244.051, 20.488 247.860 C 20.497 251.602, 21.099 253.327, 23.312 255.958 C 25.716 258.816, 26.030 259.863, 25.472 263.166 C 24.902 266.541, 25.210 267.475, 27.910 270.550 C 29.609 272.486, 31 275.001, 31 276.140 C 31 277.279, 32.125 279.548, 33.500 281.182 C 34.875 282.816, 36 285.066, 36 286.182 C 36 287.298, 37.125 289.548, 38.500 291.182 C 39.875 292.816, 41 295.106, 41 296.270 C 41 297.606, 44.685 302.131, 51 308.548 C 58.178 315.842, 61 319.401, 61 321.159 C 61 324.289, 66.791 330, 69.965 330 C 71.663 330, 76.055 333.685, 85.463 343 C 94.026 351.479, 99.331 356, 100.719 356 C 101.889 356, 104.184 357.125, 105.818 358.500 C 107.452 359.875, 109.702 361, 110.818 361 C 111.934 361, 114.184 362.125, 115.818 363.500 C 118.030 365.361, 119.946 366, 123.318 366 C 126.690 366, 128.606 366.639, 130.818 368.500 C 133.108 370.427, 134.919 371, 138.720 371 C 142.687 371, 144.111 371.489, 146 373.500 C 148.262 375.908, 148.808 376, 160.860 376 C 172.286 376, 173.570 376.187, 175.660 378.150 C 179.309 381.579, 211.827 381.451, 215.507 377.993 C 217.827 375.814, 218.643 375.698, 230.252 375.902 C 242.271 376.113, 242.594 376.061, 244.945 373.559 C 246.920 371.456, 248.267 371, 252.500 371 C 256.702 371, 258.084 370.539, 260 368.500 C 261.891 366.487, 263.312 366, 267.292 366 C 271.359 366, 272.842 365.468, 275.653 363 C 277.532 361.350, 280.001 360, 281.140 360 C 282.279 360, 284.548 358.875, 286.182 357.500 C 287.816 356.125, 290.088 355, 291.230 355 C 292.372 355, 295.686 352.750, 298.594 350 C 301.812 346.956, 304.788 345, 306.200 345 C 309.476 345, 345 309.457, 345 306.180 C 345 304.792, 346.982 301.785, 350 298.594 C 352.750 295.686, 355 292.372, 355 291.230 C 355 290.088, 356.125 287.816, 357.500 286.182 C 358.875 284.548, 360 282.298, 360 281.182 C 360 280.066, 361.125 277.816, 362.500 276.182 C 363.875 274.548, 365 272.279, 365 271.140 C 365 270.001, 366.391 267.486, 368.090 265.550 C 370.799 262.465, 371.099 261.548, 370.522 258.128 C 369.942 254.699, 370.243 253.793, 373 250.653 C 375.961 247.280, 376.121 246.689, 375.850 240.072 C 375.590 233.689, 375.798 232.816, 378.179 230.282 L 380.794 227.500 380.781 205.316 C 380.769 183.239, 380.758 183.121, 378.385 180.892 C 376.075 178.722, 376 178.173, 376 163.500 C 376 148.632, 375.953 148.305, 373.500 146 C 371.268 143.903, 371 142.855, 371 136.208 C 371 129.363, 370.759 128.489, 368 125.347 C 366.350 123.468, 365 120.968, 365 119.791 C 365 118.496, 362.236 114.801, 358 110.432 C 353.343 105.629, 351 102.422, 351 100.849 C 351 97.288, 303.494 50, 299.917 50 C 298.470 50, 296.323 48.908, 295 47.500 C 293.640 46.052, 291.535 45, 290 45 C 288.465 45, 286.360 43.948, 285 42.500 C 283.640 41.052, 281.535 40, 280 40 C 278.465 40, 276.360 38.948, 275 37.500 C 273.632 36.044, 271.536 35, 269.981 35 C 268.512 35, 266.495 34.100, 265.500 33 C 264.505 31.900, 262.650 31, 261.380 31 C 260.109 31, 257.486 29.609, 255.550 27.910 C 252.475 25.210, 251.541 24.902, 248.166 25.472 C 244.931 26.019, 243.810 25.711, 241.284 23.586 L 238.266 21.046 195.809 20.522 L 153.351 19.997 151.001 22.499 M 167.881 25.735 C 163.491 26.014, 161.758 26.629, 159.957 28.546 C 157.898 30.738, 156.831 31, 149.981 31 C 143.580 31, 142.010 31.331, 140.500 33 C 139.172 34.467, 137.420 35, 133.922 35 C 130.295 35, 128.442 35.598, 126.182 37.500 C 124.548 38.875, 122.526 40, 121.687 40 C 117.371 40, 115.047 44.036, 118.582 45.393 C 121.071 46.348, 121.650 46.166, 124.965 43.376 C 128.005 40.818, 128.460 40.748, 142.854 40.623 C 157.420 40.496, 157.670 40.456, 160.889 37.747 C 162.684 36.236, 165.174 35, 166.422 35 C 167.669 35, 169.505 34.100, 170.500 33 C 171.870 31.486, 173.580 31, 177.533 31 C 183.633 31, 186.059 29.202, 183.463 26.606 C 181.856 24.998, 180.591 24.928, 167.881 25.735 M 221.956 36.553 C 220.229 38.634, 231.105 50, 234.824 50 C 236.137 50, 238.548 51.125, 240.182 52.500 C 241.816 53.875, 244.107 55, 245.272 55 C 246.619 55, 251.271 58.824, 258.046 65.500 C 265.447 72.793, 269.414 76, 271.036 76 C 272.320 76, 274.418 76.983, 275.697 78.185 L 278.023 80.370 281.504 76.996 C 287.045 71.625, 287.021 66, 281.456 66 C 279.850 66, 276.885 64.072, 273 60.500 C 269.600 57.374, 266.084 55, 264.855 55 C 263.632 55, 260.397 52.828, 257.406 50 C 254.411 47.167, 251.181 45, 249.954 45 C 248.763 45, 246.452 43.875, 244.818 42.500 C 243.184 41.125, 240.934 40, 239.818 40 C 238.702 40, 236.452 38.875, 234.818 37.500 C 231.297 34.538, 224.070 34.006, 221.956 36.553 M 196.446 42.087 C 195.416 43.755, 197.733 45.667, 199.113 44.287 C 200.267 43.133, 199.545 41, 198 41 C 197.515 41, 196.816 41.489, 196.446 42.087 M 211.413 42.367 C 210.730 44.147, 216.853 50.270, 218.633 49.587 C 220.713 48.789, 220.298 47.451, 216.923 44.077 C 213.549 40.702, 212.211 40.287, 211.413 42.367 M 266.446 42.087 C 265.416 43.755, 267.733 45.667, 269.113 44.287 C 270.267 43.133, 269.545 41, 268 41 C 267.515 41, 266.816 41.489, 266.446 42.087 M 134.924 48.581 C 132.537 51.123, 132.314 51.158, 120.313 50.834 L 108.125 50.506 105.151 53.356 C 102.543 55.854, 101.686 56.123, 98.201 55.534 C 94.699 54.942, 93.811 55.227, 90.731 57.931 C 88.809 59.619, 86.184 61, 84.898 61 C 81.582 61, 46 96.571, 46 99.886 C 46 101.165, 44.875 103.548, 43.500 105.182 C 42.125 106.816, 41 109.066, 41 110.182 C 41 111.298, 39.875 113.548, 38.500 115.182 C 37.125 116.816, 36 119.066, 36 120.182 C 36 121.298, 34.875 123.548, 33.500 125.182 C 32.125 126.816, 31 129.066, 31 130.182 C 31 131.298, 29.875 133.548, 28.500 135.182 C 26.639 137.394, 26 139.310, 26 142.682 C 26 146.054, 25.361 147.970, 23.500 150.182 C 20.928 153.239, 20.277 157.544, 20.798 168.064 C 20.984 171.815, 20.576 173.050, 18.512 174.989 C 14.634 178.632, 14.625 202.359, 18.500 206 C 20.844 208.202, 21 208.974, 21 218.360 C 21 227.365, 21.226 228.612, 23.250 230.767 C 24.940 232.566, 25.503 234.372, 25.513 238.014 C 25.522 241.649, 26.086 243.463, 27.763 245.247 C 28.993 246.557, 30 248.578, 30 249.738 C 30 250.898, 31.125 253.184, 32.500 254.818 C 33.875 256.452, 35 258.702, 35 259.818 C 35 260.934, 36.125 263.184, 37.500 264.818 C 38.875 266.452, 40 268.817, 40 270.074 C 40 273.037, 70.337 303.845, 74 304.602 C 76.662 305.153, 77.198 305.427, 81.430 308.411 C 83.180 309.645, 85.603 310.265, 88.265 310.161 C 91.490 310.034, 92.988 310.573, 95.133 312.628 C 97.359 314.760, 98.781 315.238, 102.667 315.160 C 106.477 315.083, 107.984 315.569, 110.032 317.531 C 112.502 319.897, 113.231 320.012, 127.812 320.333 C 141.779 320.640, 143.205 320.844, 145.323 322.834 C 149.033 326.319, 153.141 325.693, 157.384 320.997 C 162.120 315.754, 161.995 314.894, 155.500 308.085 L 150 302.319 150 290.334 C 150 278.843, 150.103 278.252, 152.500 276 C 153.925 274.662, 155 272.532, 155 271.049 C 155 267.736, 167.458 255, 170.698 255 C 171.880 255, 174.184 253.875, 175.818 252.500 C 177.452 251.125, 179.883 250, 181.220 250 C 182.557 250, 184.708 248.875, 186 247.500 C 187.852 245.528, 189.332 245, 193 245 C 196.668 245, 198.148 245.528, 200 247.500 C 201.889 249.511, 203.313 250, 207.280 250 C 211.081 250, 212.892 250.573, 215.182 252.500 C 216.816 253.875, 219.140 255, 220.346 255 C 225.077 255, 241 272.845, 241 278.146 C 241 284.359, 241.811 284.788, 255.054 285.579 L 266.531 286.265 269.824 283.494 C 271.636 281.970, 274.538 280.433, 276.275 280.078 C 278.830 279.555, 279.558 278.814, 280.095 276.191 C 280.488 274.267, 282.840 270.747, 285.879 267.535 C 288.797 264.449, 291 261.188, 291 259.954 C 291 258.763, 292.125 256.452, 293.500 254.818 C 294.875 253.184, 296 250.844, 296 249.619 C 296 248.395, 297.543 245.896, 299.430 244.068 L 302.859 240.744 305.547 242.858 C 308.102 244.868, 310 244.927, 310 242.996 C 310 242.509, 307.881 240.108, 305.291 237.661 L 300.582 233.211 303.150 229.356 C 307.099 223.427, 306.980 184.743, 303 180.499 C 300.803 178.157, 300.500 176.946, 300.500 170.501 C 300.500 164.274, 300.161 162.807, 298.250 160.770 C 297.012 159.450, 296 157.422, 296 156.262 C 296 155.102, 294.875 152.816, 293.500 151.182 C 292.125 149.548, 291 147.237, 291 146.046 C 291 144.819, 288.833 141.589, 286 138.594 C 283.189 135.621, 281 132.365, 281 131.156 C 281 127.836, 274.308 121, 271.058 121 C 269.461 121, 267.384 119.974, 266 118.500 C 263.895 116.259, 262.865 116, 256.055 116 L 248.458 116 239.629 107.130 C 233.257 100.728, 230.609 97.320, 230.112 94.880 L 229.423 91.500 221.961 90.740 C 217.858 90.322, 212.002 90.222, 208.950 90.517 C 203.947 91.001, 203.165 90.805, 201.025 88.527 C 199.644 87.057, 197.543 86, 196 86 C 194.465 86, 192.360 84.948, 191 83.500 C 189.664 82.078, 187.532 81, 186.055 81 C 182.350 81, 166.077 64.613, 165.116 59.914 C 164.557 57.179, 163.855 56.450, 161.275 55.922 C 159.538 55.567, 156.707 54.089, 154.982 52.638 C 153.258 51.187, 150.826 50, 149.578 50 C 148.331 50, 146.495 49.100, 145.500 48 C 142.885 45.110, 137.929 45.382, 134.924 48.581 M 276.446 47.087 C 275.416 48.755, 277.733 50.667, 279.113 49.287 C 280.267 48.133, 279.545 46, 278 46 C 277.515 46, 276.816 46.489, 276.446 47.087 M 176.404 52.390 C 176.111 53.154, 176.989 54.898, 178.357 56.266 C 180.460 58.369, 180.757 59.392, 180.285 62.914 C 179.736 67.004, 179.850 67.195, 186.899 74.038 L 194.071 81 200.913 81 C 208.631 81, 211.302 79.445, 208.463 76.606 C 207.279 75.422, 204.921 75, 199.488 75 C 191.892 75, 189.901 74.030, 192.088 71.394 C 193.087 70.190, 195.394 69.925, 203.212 70.118 L 213.076 70.362 219.038 64.462 C 222.317 61.218, 225 58.197, 225 57.750 C 225 55.807, 221.867 55.943, 220.237 57.956 C 217.071 61.865, 199.676 61.801, 195.192 57.863 C 192.211 55.247, 191.328 54.978, 187.555 55.544 C 183.767 56.112, 183.061 55.893, 181.251 53.592 C 178.990 50.718, 177.214 50.278, 176.404 52.390 M 286.446 52.087 C 285.416 53.755, 287.733 55.667, 289.113 54.287 C 290.267 53.133, 289.545 51, 288 51 C 287.515 51, 286.816 51.489, 286.446 52.087 M 231.627 57.516 C 229.361 59.782, 229.583 61.351, 232.692 65.046 C 236.132 69.134, 234.329 71.017, 227.691 70.269 C 222.352 69.667, 219.891 71.748, 222.662 74.519 C 225.147 77.004, 237.733 75.906, 240.160 72.993 C 242.155 70.598, 244.559 70.409, 245.393 72.582 C 246.235 74.775, 246.273 74.715, 243.623 75.380 C 242.315 75.708, 240.486 77.136, 239.558 78.552 C 237.979 80.962, 237.522 81.084, 232.453 80.451 C 225.602 79.595, 222 80.443, 222 82.912 C 222 88.094, 236.030 87.385, 241.750 81.914 C 244.088 79.679, 246 77.433, 246 76.925 C 246 76.416, 247.520 76, 249.378 76 C 251.235 76, 253.335 75.302, 254.043 74.449 C 255.763 72.376, 246.185 62.421, 241.126 61.024 C 239.251 60.507, 236.713 59.140, 235.485 57.986 C 233.424 56.050, 233.129 56.014, 231.627 57.516 M 296.423 57.341 C 296.116 58.139, 301.799 64.548, 310.454 73.167 C 320.533 83.203, 325 88.339, 325 89.889 C 325 91.307, 327.747 95.010, 332.500 100 C 336.625 104.330, 340 108.740, 340 109.799 C 340 110.858, 341.350 113.424, 343 115.500 C 344.650 117.576, 346 120.260, 346 121.463 C 346 122.667, 347.159 124.741, 348.577 126.072 C 350.814 128.174, 351.071 129.041, 350.529 132.657 C 349.979 136.325, 350.265 137.232, 352.928 140.265 C 355.811 143.548, 355.924 144.011, 355.348 150.174 C 354.770 156.368, 354.875 156.788, 357.848 160.174 C 360.817 163.556, 360.926 163.988, 360.352 170.131 C 359.800 176.048, 359.959 176.797, 362.376 179.671 C 364.654 182.378, 365 183.700, 365 189.700 C 365 195.502, 365.401 197.155, 367.500 200 C 369.328 202.478, 370 204.647, 370 208.072 C 370 213.638, 371.895 215.963, 374.394 213.463 C 377.016 210.842, 376.533 201.586, 373.506 196.420 C 371.194 192.475, 370.964 190.883, 370.350 174.610 C 369.720 157.916, 369.573 156.947, 367.344 154.853 C 365.280 152.915, 365 151.733, 365 144.981 C 365 138.580, 364.669 137.010, 363 135.500 C 361.900 134.505, 361 132.669, 361 131.422 C 361 130.174, 359.875 127.816, 358.500 126.182 C 357.125 124.548, 356 122.244, 356 121.063 C 356 119.881, 354.032 116.796, 351.627 114.207 C 349.223 111.618, 346.410 107.578, 345.377 105.228 C 343.562 101.098, 300.006 56, 297.832 56 C 297.340 56, 296.706 56.603, 296.423 57.341 M 254.089 84.409 C 252.271 86.283, 250.480 89.321, 250.107 91.159 C 249.532 93.996, 248.956 94.546, 246.289 94.808 C 244.562 94.977, 242.573 95.809, 241.870 96.657 C 239.953 98.967, 251.487 110, 255.819 110 C 257.478 110, 259.490 110.251, 260.289 110.558 C 265.082 112.397, 265.154 107.725, 260.408 102.907 C 255.536 97.960, 255.396 94.086, 260.134 95.325 C 263.859 96.299, 265.792 93.472, 263.250 90.766 C 262.012 89.449, 261 87.253, 261 85.886 C 261 83.584, 259.411 81, 257.996 81 C 257.664 81, 255.906 82.534, 254.089 84.409 M 301.337 82.564 C 300.971 83.518, 301.568 84.710, 302.869 85.620 C 304.547 86.796, 305 88.147, 305 91.980 C 305 95.712, 305.583 97.539, 307.500 99.818 C 308.875 101.452, 310 103.795, 310 105.026 C 310 108.117, 318.026 116, 321.172 116 C 324.420 116, 330 121.800, 330 125.175 C 330 128.634, 332.441 130.709, 334.500 129 C 336.748 127.134, 336.311 123.641, 333.500 121 C 332.125 119.708, 331 117.578, 331 116.266 C 331 114.775, 329.125 111.898, 326 108.594 C 323.061 105.486, 321 102.383, 321 101.067 C 321 98.671, 305.538 81.321, 303.219 81.114 C 302.514 81.051, 301.667 81.704, 301.337 82.564 M 271.200 87.200 C 268.437 89.963, 271.675 96.345, 274.606 93.912 C 276.975 91.946, 275.768 86, 273 86 C 272.670 86, 271.860 86.540, 271.200 87.200 M 271.446 112.087 C 270.416 113.755, 272.733 115.667, 274.113 114.287 C 275.267 113.133, 274.545 111, 273 111 C 272.515 111, 271.816 111.489, 271.446 112.087 M 286.413 112.367 C 285.730 114.147, 291.853 120.270, 293.633 119.587 C 295.713 118.789, 295.298 117.451, 291.923 114.077 C 288.549 110.702, 287.211 110.287, 286.413 112.367 M 301.446 112.087 C 300.416 113.755, 302.733 115.667, 304.113 114.287 C 305.267 113.133, 304.545 111, 303 111 C 302.515 111, 301.816 111.489, 301.446 112.087 M 306.950 121.561 C 305.009 123.899, 312.101 130.991, 314.439 129.050 C 316.576 127.277, 316.397 124.397, 314 122 C 311.603 119.603, 308.723 119.424, 306.950 121.561 M 296.446 137.087 C 295.416 138.755, 297.733 140.667, 299.113 139.287 C 300.267 138.133, 299.545 136, 298 136 C 297.515 136, 296.816 136.489, 296.446 137.087 M 304.750 143.892 C 300.343 148.003, 300.517 151, 305.161 151 C 308.562 151, 315.674 143.517, 314.089 141.608 C 311.963 139.045, 309.229 139.714, 304.750 143.892 M 312.140 156.456 C 305.117 163.284, 304.691 167.306, 311.165 165.669 C 315.756 164.509, 325.402 153.545, 323.503 151.646 C 320.812 148.955, 319.117 149.673, 312.140 156.456 M 336.446 157.087 C 335.416 158.755, 337.733 160.667, 339.113 159.287 C 340.267 158.133, 339.545 156, 338 156 C 337.515 156, 336.816 156.489, 336.446 157.087 M 321.200 167.200 C 318.467 169.933, 323.537 179, 327.798 179 C 329.484 179, 329.297 176.491, 327.500 175 C 326.675 174.315, 326 172.550, 326 171.078 C 326 168.619, 324.452 166, 323 166 C 322.670 166, 321.860 166.540, 321.200 167.200 M 337 176.500 C 335.358 178.478, 337.319 181, 340.500 181 C 341.740 181, 343.315 180.325, 344 179.500 C 345.642 177.522, 343.681 175, 340.500 175 C 339.260 175, 337.685 175.675, 337 176.500 M 311.446 182.087 C 310.416 183.755, 312.733 185.667, 314.113 184.287 C 315.267 183.133, 314.545 181, 313 181 C 312.515 181, 311.816 181.489, 311.446 182.087 M 325.500 188 C 324.505 189.100, 322.635 190, 321.345 190 C 316.656 190, 314.665 193.509, 315.327 200.603 C 315.869 206.398, 315.699 207.204, 313.354 209.991 C 307.655 216.763, 315.099 218.164, 321.701 211.562 L 326.138 207.125 325.846 199.953 C 325.581 193.462, 325.774 192.601, 327.884 190.893 C 329.251 189.786, 329.977 188.383, 329.639 187.502 C 328.859 185.469, 327.660 185.613, 325.500 188 M 342.138 191.862 C 338.926 195.074, 339.289 211.002, 342.667 215.016 L 345.229 218.061 342.615 221.834 C 338.526 227.735, 339.543 235, 344.458 235 C 345.772 235, 348.240 236.173, 349.943 237.606 C 355.472 242.258, 358.315 236.905, 353.411 231.077 L 350.822 228 353.411 224.923 C 356.969 220.695, 356.742 219.664, 350.885 213.472 L 345.769 208.063 348.385 204.955 C 354.463 197.732, 348.586 185.414, 342.138 191.862 M 331.011 217.487 C 329.231 219.631, 330.566 224, 333 224 C 335.434 224, 336.769 219.631, 334.989 217.487 C 334.310 216.669, 333.415 216, 333 216 C 332.585 216, 331.690 216.669, 331.011 217.487 M 315.003 223.616 C 310.649 227.550, 310.167 228.743, 312.564 229.663 C 313.518 230.029, 314.710 229.432, 315.620 228.131 C 316.544 226.813, 318.189 226, 319.934 226 C 323.600 226, 325.755 223.615, 324 221.500 C 322.009 219.100, 319.295 219.739, 315.003 223.616 M 366.200 237.200 C 364.577 238.823, 364.683 242.492, 366.394 243.912 C 369.498 246.488, 372.362 240.505, 369.429 237.571 C 367.547 235.690, 367.693 235.707, 366.200 237.200 M 339.201 244.293 C 336.341 247.244, 335.941 248.401, 335.346 255.438 C 334.715 262.897, 334.464 263.537, 330.341 268.179 C 327.874 270.957, 326 274.067, 326 275.385 C 326 276.660, 324.650 279.116, 323 280.843 C 318.614 285.432, 318.993 288.804, 324.275 292.179 C 330.834 296.369, 333.609 292.254, 328.399 286.062 C 325.122 282.168, 325.828 280.216, 330.659 279.814 C 334.002 279.535, 334.502 279.139, 335.076 276.309 C 335.432 274.554, 336.911 271.707, 338.362 269.982 C 340.383 267.580, 341 265.762, 341 262.208 C 341 258.023, 341.461 257.101, 345.704 252.793 L 350.408 248.017 347.008 244.508 C 342.870 240.239, 343.123 240.246, 339.201 244.293 M 326.446 247.087 C 325.416 248.755, 327.733 250.667, 329.113 249.287 C 330.267 248.133, 329.545 246, 328 246 C 327.515 246, 326.816 246.489, 326.446 247.087 M 306.446 252.087 C 305.416 253.755, 307.733 255.667, 309.113 254.287 C 310.267 253.133, 309.545 251, 308 251 C 307.515 251, 306.816 251.489, 306.446 252.087 M 183.500 256.386 C 181.849 257.105, 179.882 258.437, 179.127 259.347 C 178.373 260.256, 176.666 261, 175.335 261 C 169.656 261, 159.458 273.596, 160.527 279.291 C 161.021 281.925, 160.657 282.974, 158.567 284.937 C 155.382 287.929, 155.116 292.890, 158 295.500 C 159.100 296.495, 160 298.452, 160 299.847 C 160 301.715, 162.455 304.840, 169.308 311.692 L 178.615 321 185.273 321 C 191.232 321, 192.286 320.688, 195.320 318.024 C 198.537 315.200, 199.036 315.079, 205.131 315.648 C 211.115 316.207, 211.776 316.059, 214.835 313.485 C 216.640 311.966, 219.538 310.433, 221.275 310.078 C 223.850 309.551, 224.557 308.819, 225.111 306.111 C 225.490 304.258, 227.554 300.956, 229.778 298.645 C 235.587 292.608, 236.072 291.237, 235.138 283.483 L 234.326 276.740 226.296 268.870 C 220.934 263.615, 217.496 261, 215.947 261 C 214.672 261, 212.575 260.010, 211.286 258.799 C 207.637 255.371, 189.452 253.792, 183.500 256.386 M 321.200 257.200 C 318.208 260.192, 321.332 266.629, 324.500 264 C 326.958 261.960, 325.840 256, 323 256 C 322.670 256, 321.860 256.540, 321.200 257.200 M 313.250 275.160 C 309.739 279.542, 309.199 282.090, 311.394 283.912 C 313.176 285.391, 316 282.835, 316 279.743 C 316 278.580, 316.947 276.621, 318.105 275.388 C 320.192 273.167, 319.981 270.952, 317.691 271.052 C 317.036 271.080, 315.038 272.929, 313.250 275.160 M 301.446 277.087 C 300.416 278.755, 302.733 280.667, 304.113 279.287 C 305.267 278.133, 304.545 276, 303 276 C 302.515 276, 301.816 276.489, 301.446 277.087 M 242.200 292.200 C 241.540 292.860, 241 294.175, 241 295.123 C 241 296.071, 239.827 298.240, 238.394 299.943 C 233.798 305.406, 239.078 308.330, 244.818 303.500 C 246.452 302.125, 248.906 301, 250.272 301 C 255.033 301, 255.720 298.338, 251.960 294.459 C 248.473 290.861, 244.466 289.934, 242.200 292.200 M 316.200 292.200 C 313.208 295.192, 316.332 301.629, 319.500 299 C 321.074 297.694, 321.415 295.245, 320.393 292.582 C 319.671 290.701, 317.864 290.536, 316.200 292.200 M 51.431 297.319 C 51.131 298.100, 61.127 308.778, 75.930 323.490 C 102.696 350.093, 102.551 349.962, 105.356 349.985 C 106.376 349.993, 108.548 351.125, 110.182 352.500 C 111.816 353.875, 114.066 355, 115.182 355 C 116.298 355, 118.548 356.125, 120.182 357.500 C 122.394 359.361, 124.310 360, 127.682 360 C 131.054 360, 132.970 360.639, 135.182 362.500 C 137.743 364.654, 139.138 365, 145.272 365 C 151.426 365, 152.737 365.327, 154.945 367.414 C 157.403 369.736, 158.175 369.846, 175.221 370.301 C 194.985 370.829, 197.415 370.199, 193.147 365.656 C 191.966 364.399, 191 362.403, 191 361.220 C 191 360.037, 189.719 357.591, 188.154 355.785 C 184.216 351.241, 184.069 339.683, 187.897 335.609 C 192.739 330.457, 191.154 330.182, 157.970 330.425 L 128.015 330.644 125.833 328.322 C 123.832 326.192, 122.822 326, 113.630 326 C 104.170 326, 103.456 325.853, 100.862 323.368 C 98.610 321.210, 97.232 320.756, 93.212 320.847 C 89.202 320.937, 87.884 320.505, 85.980 318.479 C 84.699 317.115, 82.552 316, 81.208 316 C 79.864 316, 77.226 314.650, 75.347 313 C 73.468 311.350, 70.934 309.997, 69.715 309.993 C 68.294 309.988, 65.058 307.477, 60.690 302.993 C 53.742 295.859, 52.325 294.991, 51.431 297.319 M 283.690 299.241 C 281.081 302.029, 280.670 305, 282.892 305 C 284.641 305, 290.120 298.755, 289.587 297.367 C 288.789 295.287, 286.797 295.920, 283.690 299.241 M 296.446 302.087 C 295.416 303.755, 297.733 305.667, 299.113 304.287 C 300.267 303.133, 299.545 301, 298 301 C 297.515 301, 296.816 301.489, 296.446 302.087 M 311.446 307.087 C 310.416 308.755, 312.733 310.667, 314.113 309.287 C 315.267 308.133, 314.545 306, 313 306 C 312.515 306, 311.816 306.489, 311.446 307.087 M 286.446 312.087 C 285.416 313.755, 287.733 315.667, 289.113 314.287 C 290.267 313.133, 289.545 311, 288 311 C 287.515 311, 286.816 311.489, 286.446 312.087 M 301.446 312.087 C 300.416 313.755, 302.733 315.667, 304.113 314.287 C 305.267 313.133, 304.545 311, 303 311 C 302.515 311, 301.816 311.489, 301.446 312.087 M 316.206 321.795 C 307.062 331.154, 304.626 335, 307.841 335 C 309.619 335, 330.082 313.655, 329.573 312.330 C 328.599 309.791, 326.446 311.316, 316.206 321.795 M 236.446 317.087 C 235.416 318.755, 237.733 320.667, 239.113 319.287 C 240.267 318.133, 239.545 316, 238 316 C 237.515 316, 236.816 316.489, 236.446 317.087 M 246.200 321.775 C 241.577 326.590, 240.128 330.013, 242.719 329.994 C 244.482 329.982, 255.104 318.715, 254.598 317.394 C 253.684 315.013, 251.693 316.052, 246.200 321.775 M 276.446 317.087 C 275.416 318.755, 277.733 320.667, 279.113 319.287 C 280.267 318.133, 279.545 316, 278 316 C 277.515 316, 276.816 316.489, 276.446 317.087 M 266.446 322.087 C 265.416 323.755, 267.733 325.667, 269.113 324.287 C 270.267 323.133, 269.545 321, 268 321 C 267.515 321, 266.816 321.489, 266.446 322.087 M 216.446 327.087 C 215.416 328.755, 217.733 330.667, 219.113 329.287 C 220.267 328.133, 219.545 326, 218 326 C 217.515 326, 216.816 326.489, 216.446 327.087 M 281.446 327.087 C 280.416 328.755, 282.733 330.667, 284.113 329.287 C 285.267 328.133, 284.545 326, 283 326 C 282.515 326, 281.816 326.489, 281.446 327.087 M 202 331.500 C 200.358 333.478, 202.319 336, 205.500 336 C 206.740 336, 208.315 335.325, 209 334.500 C 210.642 332.522, 208.681 330, 205.500 330 C 204.260 330, 202.685 330.675, 202 331.500 M 231.446 332.087 C 230.416 333.755, 232.733 335.667, 234.113 334.287 C 235.267 333.133, 234.545 331, 233 331 C 232.515 331, 231.816 331.489, 231.446 332.087 M 251.446 332.087 C 250.416 333.755, 252.733 335.667, 254.113 334.287 C 255.267 333.133, 254.545 331, 253 331 C 252.515 331, 251.816 331.489, 251.446 332.087 M 271.446 332.087 C 270.416 333.755, 272.733 335.667, 274.113 334.287 C 275.267 333.133, 274.545 331, 273 331 C 272.515 331, 271.816 331.489, 271.446 332.087 M 213.750 344.242 C 209.488 348.634, 206 352.599, 206 353.054 C 206 355.065, 208.345 355.024, 210.526 352.976 L 212.904 350.741 216.029 353.371 C 221.769 358.200, 238.376 356.519, 233.463 351.606 C 232.580 350.723, 230.983 350, 229.914 350 C 228.845 350, 226.291 348.460, 224.237 346.579 L 220.504 343.157 222.857 340.653 C 225.155 338.206, 225.070 335.871, 222.691 336.129 C 222.036 336.200, 218.012 339.851, 213.750 344.242 M 241.446 337.087 C 240.416 338.755, 242.733 340.667, 244.113 339.287 C 245.267 338.133, 244.545 336, 243 336 C 242.515 336, 241.816 336.489, 241.446 337.087 M 281.446 337.087 C 280.416 338.755, 282.733 340.667, 284.113 339.287 C 285.267 338.133, 284.545 336, 283 336 C 282.515 336, 281.816 336.489, 281.446 337.087 M 266 342.500 C 264.698 343.885, 262.503 345.012, 261.076 345.027 C 257.925 345.060, 250.605 351.528, 251.393 353.582 C 252.173 355.615, 254.313 355.330, 255.768 353 C 256.457 351.897, 258.100 351, 259.432 351 C 260.760 351, 263.184 349.875, 264.818 348.500 C 266.452 347.125, 268.906 346, 270.272 346 C 273.835 346, 275.527 343.670, 273.463 341.606 C 271.177 339.320, 268.710 339.615, 266 342.500 M 231.446 342.087 C 230.416 343.755, 232.733 345.667, 234.113 344.287 C 235.267 343.133, 234.545 341, 233 341 C 232.515 341, 231.816 341.489, 231.446 342.087 M 291.446 342.087 C 290.416 343.755, 292.733 345.667, 294.113 344.287 C 295.267 343.133, 294.545 341, 293 341 C 292.515 341, 291.816 341.489, 291.446 342.087 M 281.446 347.087 C 280.416 348.755, 282.733 350.667, 284.113 349.287 C 285.267 348.133, 284.545 346, 283 346 C 282.515 346, 281.816 346.489, 281.446 347.087 M 261.446 357.087 C 260.416 358.755, 262.733 360.667, 264.113 359.287 C 265.267 358.133, 264.545 356, 263 356 C 262.515 356, 261.816 356.489, 261.446 357.087 M 201.446 362.087 C 200.416 363.755, 202.733 365.667, 204.113 364.287 C 205.267 363.133, 204.545 361, 203 361 C 202.515 361, 201.816 361.489, 201.446 362.087 M 246.446 362.087 C 245.416 363.755, 247.733 365.667, 249.113 364.287 C 250.267 363.133, 249.545 361, 248 361 C 247.515 361, 246.816 361.489, 246.446 362.087" stroke="none" fill="#FFFFFF" fill-rule="nonzero"/>
</svg>