<svg xmlns="http://www.w3.org/2000/svg" width="400" height="150" viewBox="0 0 400 150" version="1.1">
	<path d="M 59.966 8.322 C 57.224 10.772, 56.286 11.055, 52.847 10.474 C 49.058 9.834, 48.629 10.049, 43.017 15.402 C 39.307 18.941, 36.286 21, 34.802 21 C 31.593 21, 16 36.617, 16 39.831 C 16 41.206, 14.004 44.230, 11 47.406 C 8.185 50.383, 6 53.634, 6 54.847 C 6 57.053, 2.793 61, 1 61 C 0.368 61, -0 68.113, -0 80.339 L -0 99.679 2.500 100.818 C 4.295 101.636, 5 102.742, 5 104.741 C 5 108.576, 32.192 135.994, 36.013 136.012 C 37.661 136.019, 40.164 137.705, 43.435 141.012 L 48.370 146 63.650 146 C 77.906 146, 79.001 146.134, 80 148 C 81.659 151.100, 119.341 151.100, 121 148 C 121.962 146.203, 123.094 146, 132.141 146 C 141.424 146, 142.444 145.804, 145.182 143.500 C 147.394 141.639, 149.310 141, 152.682 141 C 156.054 141, 157.970 140.361, 160.182 138.500 C 162.397 136.636, 164.310 136, 167.695 136 C 171.315 136, 172.929 135.391, 175.653 133 C 177.532 131.350, 180.001 130, 181.140 130 C 182.279 130, 184.582 128.847, 186.257 127.438 C 188.811 125.288, 189.925 124.980, 193.166 125.528 C 196.541 126.098, 197.475 125.790, 200.550 123.090 C 202.486 121.391, 205.109 120, 206.380 120 C 207.650 120, 209.505 119.100, 210.500 118 C 211.495 116.900, 213.413 116, 214.761 116 C 216.108 116, 218.548 114.875, 220.182 113.500 C 221.816 112.125, 224.165 111, 225.402 111 C 226.639 111, 228.708 109.875, 230 108.500 C 232.097 106.268, 233.146 106, 239.780 106 C 246.248 106, 247.597 105.676, 250.182 103.500 L 253.153 101 312.682 101 L 372.211 101 375.182 98.500 C 376.816 97.125, 379.066 96, 380.182 96 C 381.298 96, 383.548 94.875, 385.182 93.500 C 386.816 92.125, 389.174 91, 390.422 91 C 393.372 91, 396 88.035, 396 84.706 C 396 83.110, 396.775 81.656, 397.964 81.019 C 399.844 80.013, 399.941 80.384, 400.254 89.734 C 400.434 95.105, 400.676 90.586, 400.791 79.691 C 400.929 66.590, 400.659 60.093, 399.992 60.505 C 399.438 60.847, 396.360 58.624, 393.152 55.564 C 389.279 51.869, 386.484 50, 384.834 50 C 383.467 50, 381.292 48.875, 380 47.500 C 377.892 45.256, 376.868 45, 370 45 C 363.132 45, 362.108 44.744, 360 42.500 C 357.671 40.021, 357.508 40, 340.402 40 C 323.462 40, 323.100 39.955, 320.182 37.500 C 317.362 35.127, 316.581 35, 304.780 35 C 292.813 35, 292.261 34.907, 290 32.500 C 287.743 30.097, 287.175 30, 275.402 30 C 263.796 30, 262.998 29.869, 260.182 27.500 C 257.630 25.352, 256.221 25, 250.182 25 C 244.144 25, 242.735 24.648, 240.182 22.500 C 237.892 20.573, 236.081 20, 232.280 20 C 228.313 20, 226.889 19.511, 225 17.500 C 222.735 15.089, 222.202 15, 210 15 C 197.699 15, 197.282 14.929, 194.929 12.424 L 192.509 9.848 158.498 10.565 L 124.488 11.281 121.234 8.544 L 117.981 5.806 90.552 5.653 L 63.124 5.500 59.966 8.322 M 167.537 16.606 C 164.655 19.488, 167.249 20.793, 175.274 20.498 C 184.542 20.158, 184 20.306, 184 18.107 C 184 14.628, 170.725 13.418, 167.537 16.606 M 76.446 17.087 C 75.416 18.755, 77.733 20.667, 79.113 19.287 C 80.267 18.133, 79.545 16, 78 16 C 77.515 16, 76.816 16.489, 76.446 17.087 M 192.257 21.190 C 190.193 23.678, 192.522 25.466, 197.966 25.572 C 201.679 25.645, 203.632 26.245, 205.325 27.835 C 206.981 29.392, 208.891 30, 212.120 30 C 215.267 30, 217.567 30.705, 219.804 32.356 C 222.245 34.156, 224.791 34.847, 230.611 35.287 C 236.396 35.724, 238.754 36.360, 240.427 37.931 C 242.022 39.430, 243.952 40, 247.432 40 C 251.368 40, 252.868 40.555, 255.731 43.069 C 258.791 45.755, 259.712 46.055, 263.128 45.478 C 266.571 44.897, 267.461 45.197, 270.695 48.037 C 274.229 51.140, 274.592 51.234, 280.826 50.652 C 287.019 50.073, 287.439 50.179, 290.826 53.152 C 294.346 56.243, 294.403 56.254, 303.426 55.740 C 312.382 55.229, 312.531 55.259, 315.894 58.211 L 319.297 61.200 335.963 60.855 L 352.629 60.510 356.049 63.388 C 359.407 66.213, 359.638 66.256, 368.656 65.718 C 378.581 65.126, 381 66.103, 381 70.706 C 381 74.926, 378.648 75.524, 363.546 75.145 C 349.462 74.792, 349.389 74.802, 346.243 77.449 L 343.083 80.108 313.077 80.262 L 283.071 80.415 280.455 77.958 C 277.927 75.583, 277.434 75.511, 265.820 75.842 C 253.819 76.183, 253.796 76.179, 250.879 73.384 L 247.958 70.586 239.479 79.021 C 230.636 87.818, 228.102 94.702, 232.200 98.800 C 234.436 101.036, 242.534 100.263, 245.818 97.500 L 248.789 95 308.318 95 L 367.847 95 370.818 92.500 C 372.452 91.125, 374.702 90, 375.818 90 C 376.934 90, 379.184 88.875, 380.818 87.500 C 382.452 86.125, 384.646 85, 385.694 85 C 388.135 85, 390 83.130, 390 80.682 C 390 79.627, 391.350 77.226, 393 75.347 C 397.271 70.483, 396.984 69.709, 387.250 59.857 L 378.500 51.001 365.924 51.001 C 353.804 51, 353.264 50.910, 351 48.500 C 348.698 46.050, 348.354 46, 333.720 46 C 319.252 46, 318.696 45.922, 315.818 43.500 C 312.942 41.081, 312.371 41, 298.098 41 C 283.658 41, 283.299 40.948, 281 38.500 C 278.801 36.159, 278.020 36, 268.720 36 C 259.586 36, 258.550 35.799, 255.818 33.500 C 253.293 31.375, 251.836 31, 246.118 31 C 240.620 31, 238.804 30.569, 236.196 28.644 C 233.755 26.844, 231.209 26.153, 225.389 25.713 C 219.780 25.289, 217.212 24.620, 215.637 23.172 C 212.799 20.561, 194.095 18.976, 192.257 21.190 M 100.232 23 C 99.543 24.103, 97.900 25, 96.568 25 C 95.240 25, 92.773 26.161, 91.087 27.580 L 88.020 30.161 85.329 28.044 L 82.637 25.927 77.394 31.105 C 72.425 36.012, 71.935 36.255, 68.044 35.733 C 64.676 35.281, 63.423 35.615, 61.074 37.591 C 59.500 38.916, 57.298 40, 56.182 40 C 55.066 40, 52.683 41.237, 50.886 42.750 C 46.227 46.671, 33.971 47.050, 31.071 43.363 C 28.934 40.647, 27.193 40.334, 26.355 42.517 C 26 43.441, 26.794 44.837, 28.387 46.089 C 31.438 48.490, 31.771 51.992, 29.171 54.345 C 26.566 56.703, 24.025 56.398, 20.841 53.348 C 17.619 50.261, 15 51.350, 15 55.776 C 15 57.441, 13.290 60.114, 10 63.594 L 5 68.880 5 80.405 C 5 91.785, 5.038 91.974, 8 95.347 C 9.650 97.226, 11 99.806, 11 101.079 C 11 104.391, 41.546 134.993, 44.856 134.997 C 46.151 134.999, 48.466 136.056, 50 137.347 C 55.741 142.177, 135.257 142.179, 140.997 137.349 C 143.028 135.640, 145.024 135, 148.318 135 C 151.690 135, 153.606 134.361, 155.818 132.500 C 158.132 130.553, 159.910 130, 163.859 130 C 167.849 130, 169.150 129.588, 169.965 128.066 C 171.500 125.197, 171.289 124.399, 168 120.653 C 166.350 118.774, 165 116.317, 165 115.195 C 165 114.072, 163.875 111.816, 162.500 110.182 C 160.699 108.043, 160 106.033, 160 103 C 160 99.967, 160.699 97.957, 162.500 95.818 C 163.875 94.184, 165 91.826, 165 90.578 C 165 87.817, 167.905 85, 170.752 85 C 171.904 85, 174.256 83.814, 175.978 82.365 C 179.065 79.768, 179.282 79.737, 191.051 80.222 C 207.620 80.904, 207.882 80.396, 196.707 69.221 L 188.060 60.575 180.760 60.846 C 174.045 61.097, 173.267 60.913, 171.056 58.559 C 169.662 57.075, 167.549 56, 166.029 56 C 164.295 56, 162.107 54.670, 159.572 52.074 L 155.739 48.148 157.874 45.433 C 161.862 40.363, 156.564 37.972, 151.251 42.442 C 149.458 43.951, 146.449 45.137, 143.381 45.544 C 136.565 46.448, 135.501 45.038, 135.853 35.570 C 136.061 30.003, 135.765 28.049, 134.561 27.051 C 131.984 24.912, 130 27.466, 130 32.922 C 130 38.702, 128.778 40, 123.335 40 C 120.058 40, 118.307 40.670, 115.780 42.888 C 112.552 45.723, 112.320 45.767, 103.426 45.260 C 94.390 44.745, 94.351 44.753, 90.799 47.872 C 87.529 50.743, 86.657 51, 80.195 51 C 74.143 51, 72.736 51.351, 70.182 53.500 C 68.548 54.875, 66.298 56, 65.182 56 C 64.066 56, 61.816 57.125, 60.182 58.500 C 54.551 63.238, 37.925 61.410, 42 56.500 C 42.790 55.548, 44.998 55, 48.046 55 C 51.708 55, 53.551 54.407, 55.818 52.500 C 57.452 51.125, 59.702 50, 60.818 50 C 61.934 50, 64.184 48.875, 65.818 47.500 C 68.382 45.342, 69.770 45, 75.954 45 L 83.120 45 88.362 40.042 L 93.605 35.083 100.576 35.668 C 106.281 36.146, 107.791 35.957, 108.895 34.626 C 110.766 32.372, 108.690 30, 104.846 30 C 101.038 30, 100.122 27.531, 103.051 25.160 C 104.335 24.120, 105.007 22.820, 104.600 22.162 C 103.513 20.404, 101.627 20.766, 100.232 23 M 172.537 26.606 C 169.944 29.199, 172.367 31, 178.448 31 C 182.705 31, 184.078 31.455, 186 33.500 C 188.720 36.395, 196.849 37.092, 198.912 34.606 C 200.840 32.283, 197.574 30, 192.323 30 C 188.945 30, 187.031 29.362, 184.818 27.500 C 181.315 24.552, 175.047 24.096, 172.537 26.606 M 56.446 27.087 C 55.416 28.755, 57.733 30.667, 59.113 29.287 C 60.267 28.133, 59.545 26, 58 26 C 57.515 26, 56.816 26.489, 56.446 27.087 M 211.393 37.418 C 209.746 41.711, 221.617 47.619, 227.418 45.393 C 232.219 43.551, 228.371 40, 221.573 40 C 218.580 40, 216.771 39.404, 215.500 38 C 213.365 35.641, 212.141 35.468, 211.393 37.418 M 167.052 46.438 C 163.312 50.943, 179.405 58.452, 183.667 54.190 C 185.100 52.757, 184.874 52.273, 181.160 48.808 C 176.675 44.624, 169.550 43.427, 167.052 46.438 M 242.537 46.606 C 240.527 48.616, 242.135 51, 245.500 51 C 248.865 51, 250.473 48.616, 248.463 46.606 C 247.580 45.723, 246.246 45, 245.500 45 C 244.754 45, 243.420 45.723, 242.537 46.606 M 126.688 46.646 C 125.272 48.061, 126.073 50, 128.073 50 C 129.471 50, 130.041 49.457, 129.823 48.333 C 129.466 46.492, 127.759 45.574, 126.688 46.646 M 206.446 47.087 C 205.416 48.755, 207.733 50.667, 209.113 49.287 C 210.267 48.133, 209.545 46, 208 46 C 207.515 46, 206.816 46.489, 206.446 47.087 M 146.688 51.646 C 145.272 53.061, 146.073 55, 148.073 55 C 149.471 55, 150.041 54.457, 149.823 53.333 C 149.466 51.492, 147.759 50.574, 146.688 51.646 M 226.446 52.087 C 225.416 53.755, 227.733 55.667, 229.113 54.287 C 230.267 53.133, 229.545 51, 228 51 C 227.515 51, 226.816 51.489, 226.446 52.087 M 202 56.500 C 199.515 59.494, 202.510 61, 210.948 61 C 217.872 61, 218.889 61.253, 221 63.500 C 223.901 66.588, 241.627 67.359, 244 64.500 C 246.704 61.242, 243.545 60, 232.552 60 C 222.961 60, 222.208 59.850, 220 57.500 C 217.132 54.447, 204.296 53.734, 202 56.500 M 251.446 57.087 C 250.416 58.755, 252.733 60.667, 254.113 59.287 C 255.267 58.133, 254.545 56, 253 56 C 252.515 56, 251.816 56.489, 251.446 57.087 M 0.420 80.500 C 0.419 91.500, 0.565 96.136, 0.745 90.803 C 0.924 85.470, 0.925 76.470, 0.746 70.803 C 0.568 65.136, 0.421 69.500, 0.420 80.500 M 257.088 66.394 C 254.028 70.081, 264.907 72.951, 268.463 69.394 C 270.976 66.881, 268.637 65, 263 65 C 260.154 65, 257.780 65.560, 257.088 66.394 M 286.446 72.087 C 285.416 73.755, 287.733 75.667, 289.113 74.287 C 290.267 73.133, 289.545 71, 288 71 C 287.515 71, 286.816 71.489, 286.446 72.087 M 211.970 76.536 C 210.905 77.819, 211.132 78.529, 213.348 80.841 C 216.745 84.387, 216.691 86.449, 213.095 90.544 C 210.462 93.544, 210.194 94.514, 210.234 100.920 C 210.290 109.796, 211.628 111.332, 216.057 107.606 C 217.760 106.173, 220.217 105, 221.518 105 C 224.946 105, 225.146 104.217, 225.269 90.344 C 225.368 79.095, 225.179 77.604, 223.499 76.376 C 220.929 74.497, 213.578 74.599, 211.970 76.536 M 186.260 85.941 C 183.929 86.321, 180.975 87.615, 179.696 88.816 C 178.417 90.017, 176.478 91, 175.386 91 C 172.845 91, 171 92.849, 171 95.395 C 171 96.493, 169.794 98.650, 168.319 100.189 L 165.639 102.987 167.819 105.308 C 169.019 106.584, 170 108.351, 170 109.233 C 170 113.922, 172.827 115.372, 176.133 112.379 C 177.797 110.873, 178.145 110.944, 181.039 113.379 C 184.964 116.682, 185.897 116.658, 190.326 113.138 C 197.825 107.179, 201.128 102.152, 200.799 97.200 C 200.420 91.506, 197.837 89.361, 195.454 92.762 C 194.592 93.993, 193.237 95, 192.443 95 C 190.308 95, 190.692 92.235, 193 91 C 195.946 89.423, 193.894 83.905, 190.816 85.125 C 190.642 85.194, 188.592 85.561, 186.260 85.941 M 196.173 112.659 C 196.368 113.672, 197.196 114.500, 198.014 114.500 C 200.157 114.500, 199.848 111.594, 197.659 111.173 C 196.323 110.916, 195.916 111.323, 196.173 112.659" stroke="none" fill="#FFFFFF" fill-rule="nonzero"/>
</svg>