<svg xmlns="http://www.w3.org/2000/svg" width="1200" height="446" viewBox="0 0 1200 446" version="1.1">
	<path d="M 268.500 23.106 C 263 23.554, 240.050 24.356, 217.500 24.888 L 176.500 25.855 166.875 29.908 C 154.828 34.980, 147.591 39.068, 122.500 54.975 C 111.500 61.949, 99.800 69.309, 96.500 71.331 C 76.596 83.529, 59.321 104.251, 56.604 119.187 C 56.049 122.235, 53.363 125.441, 41.104 137.687 C 23.214 155.558, 17.422 164.968, 7.673 192 L 4.608 200.500 4.236 229.209 C 3.829 260.600, 4.167 263.495, 9.874 277.500 C 11.443 281.350, 13.289 286.300, 13.977 288.500 C 15.620 293.760, 24.983 312.497, 29.598 319.759 C 41.888 339.102, 80.055 376.971, 108.380 397.924 C 147.622 426.953, 156.430 429.474, 231 433.011 C 243.375 433.598, 261.825 434.830, 272 435.749 C 311.815 439.346, 376.017 436.311, 395.500 429.911 C 397.150 429.369, 401.489 428.501, 405.142 427.982 C 422.525 425.512, 482.451 405.174, 509.500 392.565 C 516.100 389.489, 527.800 384.970, 535.500 382.522 C 554.785 376.393, 566.749 371.425, 578.500 364.667 C 587.833 359.299, 653.137 326.378, 675.511 315.760 C 693.109 307.409, 742.990 298.722, 794.500 295.036 C 846.536 291.313, 886.478 291.453, 968.500 295.647 C 1055.463 300.093, 1076.933 298.580, 1119.212 285.026 C 1150.609 274.960, 1177.687 255.532, 1187.260 236.202 L 1191.500 227.642 1191.443 211.571 C 1191.312 174.340, 1177.562 158.466, 1130.822 141.584 C 1114.609 135.728, 1097.778 133.164, 1058 130.491 C 1021.076 128.009, 989.837 123.517, 963.774 116.941 C 940.163 110.984, 917.221 107.400, 871 102.449 C 842.136 99.358, 806.433 94.052, 790.613 90.504 C 777.244 87.506, 766.432 84.541, 716.130 70.081 C 659.201 53.716, 640.442 49.788, 587 43.042 C 548.072 38.129, 535.845 37.084, 504.500 35.995 C 431.239 33.447, 419.774 32.898, 390.500 30.529 C 373.450 29.149, 356.350 27.542, 352.500 26.958 C 327.232 23.124, 289.513 21.394, 268.500 23.106" stroke="none" fill="#FFFFFF" fill-rule="nonzero"/>
</svg>