<svg xmlns="http://www.w3.org/2000/svg" width="1200" height="450" viewBox="0 0 1200 450" version="1.1">
	<path d="M 534.500 17.462 C 513.380 21.329, 486.058 30.177, 466.104 39.611 C 456.446 44.178, 453.833 45, 448.974 45 C 443.807 45, 441.661 45.790, 427.245 53 C 418.414 57.417, 409.962 61.002, 408.375 61.004 C 406.794 61.006, 401.225 61.704, 396 62.555 C 390.775 63.407, 381.193 64.763, 374.706 65.570 C 361.859 67.168, 337.750 73.002, 323.500 77.961 C 315.922 80.599, 312.209 81.235, 300 81.990 C 281.053 83.161, 251.608 89.482, 218.500 99.485 C 197.467 105.841, 152.498 126.343, 129.303 140.153 C 113.125 149.785, 106.490 152.969, 102.500 153.014 C 95.271 153.095, 70.682 166.830, 51.015 181.773 C 36.618 192.712, 27 204.621, 27 211.509 C 27 215.008, 26.590 215.866, 24.451 216.841 C 21.087 218.373, 18.050 225.253, 18.022 231.401 C 18 236.217, 18.134 236.430, 25.750 243.734 C 57.520 274.204, 110.876 309.321, 135.732 316.121 C 144.471 318.512, 181.287 331.470, 193.500 336.453 C 203.643 340.592, 204.181 340.712, 218.540 342.034 C 230.067 343.096, 230.880 343.329, 241 348.460 C 259.329 357.753, 269.958 360.080, 305.260 362.528 C 329.413 364.203, 332.297 364.620, 360.500 370.506 C 380.509 374.682, 381.721 375.149, 419.601 393.303 C 508.896 436.096, 505.755 434.989, 538.848 435.336 L 554.500 435.500 554.808 432.837 C 554.983 431.321, 553.802 427.569, 552.066 424.130 C 550.388 420.806, 547.847 414.580, 546.419 410.293 C 544.992 406.007, 542.626 401.202, 541.162 399.615 C 534.707 392.619, 510.892 378.833, 502.941 377.490 C 499.049 376.833, 499 376.769, 499 372.412 L 499 368 503.587 368 C 506.110 368, 513.872 368.744, 520.837 369.654 C 556.674 374.336, 584.836 370.367, 600.504 358.427 C 605.415 354.685, 608.866 353.802, 621.760 352.989 C 630.267 352.453, 634.772 351.725, 636.475 350.608 C 641.021 347.630, 646.845 348.531, 655.579 353.565 C 663.165 357.936, 663.733 358.099, 669 357.426 C 672.025 357.039, 684.175 356.673, 696 356.611 L 717.500 356.500 717.816 353.750 C 718.223 350.212, 723.573 350.036, 739.002 353.052 C 785.926 362.224, 884.074 352.423, 893.893 337.585 C 898.027 331.339, 897.772 317.351, 893.408 311 C 891.708 308.525, 888.592 303.391, 886.484 299.592 L 882.651 292.683 848.825 293.343 L 815 294.003 815 289.632 L 815 285.261 825.750 283.056 C 831.663 281.843, 840.700 279.735, 845.832 278.371 C 850.965 277.008, 868.515 273.636, 884.832 270.879 L 914.500 265.865 953 265.511 C 974.175 265.316, 993.750 264.698, 996.500 264.138 C 999.250 263.578, 1014.100 263.082, 1029.500 263.037 C 1103.062 262.823, 1117.648 260.648, 1136.124 247.140 C 1141.967 242.868, 1150.629 237.459, 1155.374 235.120 C 1160.118 232.780, 1165.516 229.434, 1167.369 227.683 L 1170.738 224.500 1171.464 210.885 C 1172.366 193.983, 1172.035 193.184, 1161.589 187.027 L 1154 182.553 1154 178.190 C 1154 174.251, 1154.563 173.227, 1159.790 167.663 C 1162.974 164.274, 1166.907 159.520, 1168.530 157.099 L 1171.481 152.698 1171.568 136.099 C 1171.679 115.168, 1168.120 108.272, 1153.261 100.627 C 1143.810 95.764, 1090.638 95.639, 1075 100.443 C 1063.318 104.032, 1051.640 106.291, 1023 110.502 C 1009.525 112.484, 995.575 114.781, 992 115.607 C 988.425 116.433, 979.875 118.221, 973 119.579 C 956.763 122.787, 936.720 128.328, 925.892 132.602 C 921.158 134.471, 915.706 136, 913.776 136 L 910.268 136 910.384 120.215 C 910.526 100.900, 909.901 99.746, 891.593 85.530 C 881.455 77.658, 867.122 74.186, 835.500 71.942 C 828.350 71.435, 815.975 70.570, 808 70.020 C 800.025 69.471, 786.300 67.706, 777.500 66.098 C 746.862 60.502, 713.780 59.413, 693.500 63.333 C 688.043 64.388, 677.490 64.999, 660.299 65.256 L 635.097 65.632 634.799 63.066 L 634.500 60.500 625.250 60.861 L 616 61.223 616 57.611 L 616 54 609.500 54 L 603 54 603 50.958 L 603 47.917 595.500 48.596 C 588.293 49.249, 588 49.192, 588 47.138 C 588 44.567, 585.676 44.411, 573.534 46.167 C 562.054 47.827, 560 47.131, 560 41.581 L 560 37.199 565.250 35.968 C 576.829 33.252, 572.906 31.783, 556.278 32.610 C 539.724 33.433, 537.719 32.610, 538.198 25.193 C 538.466 21.030, 538.783 20.466, 541 20.201 C 545.613 19.649, 546.362 19.141, 544.990 17.488 C 543.566 15.772, 543.728 15.773, 534.500 17.462" stroke="none" fill="#FFFFFF" fill-rule="nonzero"/>
</svg>