<svg xmlns="http://www.w3.org/2000/svg" width="400" height="150" viewBox="0 0 400 150" version="1.1">
	<path d="M 165.089 8.211 C 162.231 10.766, 161.303 11.058, 157.889 10.481 C 154.449 9.900, 153.540 10.197, 150.450 12.910 C 148.514 14.609, 145.999 16, 144.860 16 C 143.721 16, 141.389 17.178, 139.678 18.618 C 136.628 21.184, 136.341 21.226, 125.034 20.751 C 113.707 20.276, 113.450 20.314, 110.718 22.852 C 108.069 25.312, 107.468 25.423, 98.193 25.164 C 88.872 24.903, 88.347 25.001, 86.051 27.446 C 84.107 29.515, 82.715 30, 78.720 30 C 74.919 30, 73.108 30.573, 70.818 32.500 C 68.603 34.364, 66.690 35, 63.305 35 C 59.685 35, 58.071 35.609, 55.347 38 C 53.468 39.650, 50.999 41, 49.860 41 C 48.721 41, 46.452 42.125, 44.818 43.500 C 43.184 44.875, 40.934 46, 39.818 46 C 38.702 46, 36.452 47.125, 34.818 48.500 C 33.184 49.875, 30.826 51, 29.578 51 C 28.331 51, 26.495 51.900, 25.500 53 C 24.505 54.100, 22.510 55, 21.068 55 C 19.159 55, 16.620 56.841, 11.723 61.775 L 5 68.550 5 75.572 C 5 83.316, 9.564 90, 14.852 90 C 16.202 90, 19.260 92.024, 22.406 95 C 25.328 97.763, 28.641 100, 29.812 100 C 30.977 100, 33.468 101.350, 35.347 103 C 37.226 104.650, 39.864 106, 41.208 106 C 42.552 106, 44.742 107.168, 46.076 108.595 C 48.155 110.820, 49.119 111.121, 52.843 110.707 C 56.571 110.293, 57.649 110.631, 60.448 113.088 C 63.524 115.789, 64.076 115.918, 70.174 115.348 C 76.408 114.766, 76.771 114.860, 80.305 117.963 C 83.539 120.803, 84.429 121.103, 87.872 120.522 C 91.288 119.945, 92.209 120.245, 95.269 122.931 L 98.764 126 111.227 126 C 122.420 126, 123.874 126.204, 125.500 128 C 126.495 129.100, 128.350 130, 129.620 130 C 130.891 130, 133.514 131.391, 135.450 133.090 C 138.525 135.790, 139.459 136.098, 142.834 135.528 C 146.075 134.980, 147.189 135.288, 149.743 137.438 C 151.418 138.847, 153.721 140, 154.860 140 C 155.999 140, 158.409 141.255, 160.215 142.790 C 164.035 146.034, 180.928 146.964, 184.356 144.119 C 188.477 140.700, 185.938 131, 180.922 131 C 177.293 131, 175.422 128.721, 177.414 126.729 C 178.591 125.551, 180.773 125.352, 187.985 125.763 C 196.205 126.232, 197.283 126.084, 199.286 124.207 C 203.739 120.036, 205.636 119.882, 250.295 120.065 L 293.170 120.240 297.085 116.417 C 302.286 111.339, 302.613 105.601, 298 100.347 C 294.631 96.510, 294.376 95.236, 296.419 92.441 C 297.775 90.586, 299.506 90.490, 335.484 90.285 L 373.129 90.069 376.141 87.535 C 377.798 86.141, 380.112 85, 381.285 85 C 382.457 85, 385.057 83.398, 387.062 81.439 L 390.709 77.878 390.225 66.122 L 389.741 54.365 392.870 50.801 C 397.246 45.817, 396.880 44.314, 389.515 37.015 L 383.029 30.587 370.765 30.536 C 358.681 30.487, 358.449 30.528, 355.079 33.362 L 351.659 36.239 340.079 35.774 C 328.501 35.309, 328.500 35.309, 325.215 38.154 C 319.476 43.127, 306 41.926, 306 36.442 C 306 31.464, 298.289 24.730, 293.423 25.459 C 289.851 25.995, 288.798 25.701, 286.071 23.406 L 282.889 20.728 246.050 20.927 L 209.212 21.125 205.621 17.972 C 202.439 15.178, 201.576 14.896, 198.043 15.493 C 194.242 16.135, 193.793 15.917, 188.418 10.833 L 182.779 5.500 175.575 5.390 C 168.944 5.288, 168.109 5.513, 165.089 8.211 M 106.961 32.542 C 105.495 34.102, 105.022 35.493, 105.473 36.915 C 106.244 39.345, 109.208 39.659, 111 37.500 C 112.573 35.605, 113.905 35.588, 114.620 37.453 C 115.393 39.467, 108.467 45.378, 104.604 46 C 99.329 46.850, 99.975 55, 105.318 55 C 106.458 55, 108.540 56.093, 109.945 57.429 C 115.477 62.688, 122.258 61.140, 117.908 55.611 C 115.521 52.575, 116.832 49.461, 120.134 50.325 C 123.827 51.291, 125.379 48.751, 122.967 45.686 C 119.868 41.746, 121.766 39.588, 127.566 40.458 C 131.110 40.989, 132.206 40.698, 134.767 38.542 C 138.510 35.393, 138.217 35.371, 141.923 39.077 C 145.625 42.779, 145.602 42.496, 142.500 46.182 C 137.508 52.115, 139.878 62.244, 145.266 58.005 C 148.493 55.467, 148.278 55.432, 151.923 59.077 C 155.625 62.779, 155.602 62.496, 152.500 66.182 C 149.477 69.775, 149.375 71.375, 152 74 C 155.320 77.320, 170.742 76.930, 174.913 73.420 L 177.980 70.839 180.631 72.925 C 183.788 75.408, 186.487 74.076, 185.584 70.480 C 185.210 68.988, 185.814 67.584, 187.520 65.981 C 189.011 64.581, 190 62.538, 190 60.861 C 190 57.618, 192.989 55.389, 194.847 57.247 C 196.727 59.127, 196.172 62.211, 193.439 65.063 C 188.785 69.921, 194.156 73.013, 199.406 68.499 C 203.065 65.352, 203.209 65.363, 206.923 69.077 C 212.163 74.316, 210.313 76.234, 200.871 75.352 C 195.523 74.853, 194.094 75.049, 192.663 76.480 C 190.539 78.604, 192.036 81, 195.488 81 C 196.721 81, 198.865 81.892, 200.252 82.983 C 202.766 84.961, 202.780 84.961, 205.294 82.983 C 208.490 80.469, 208.281 80.435, 211.923 84.077 C 216.712 88.866, 215.382 90.978, 207.763 90.683 C 203.347 90.512, 202.752 90.813, 197.768 95.735 L 192.469 100.969 185.958 100.361 C 179.827 99.788, 179.249 99.919, 176.042 102.618 C 170.904 106.942, 155.227 107.046, 150.215 102.790 C 146.070 99.269, 144.872 99.295, 140.653 103 C 135.158 107.824, 124.366 106.701, 126.357 101.513 C 126.699 100.621, 128.187 100, 129.983 100 C 132.068 100, 134.208 98.911, 136.765 96.548 L 140.500 93.096 136.705 89.298 L 132.910 85.500 128.955 89.711 C 126.746 92.064, 125 94.925, 125 96.193 C 125 97.725, 121.916 101.564, 115.529 107.982 C 104.028 119.539, 104.042 120.566, 115.691 120.145 C 122.376 119.904, 123.868 119.513, 126.055 117.431 C 129.408 114.240, 131.512 114.364, 135.653 118 C 139.037 120.971, 139.184 121, 150.876 121 C 178.680 121, 193.010 119.862, 195.906 117.425 C 197.378 116.187, 199.906 115.022, 201.523 114.837 C 203.796 114.576, 204.664 113.819, 205.348 111.500 C 207.019 105.841, 207.443 105.500, 212.823 105.500 C 217.575 105.500, 218.248 105.173, 222.890 100.604 L 227.865 95.708 231.009 98.354 C 235.004 101.716, 236.162 101.675, 240.320 98.024 C 243.537 95.200, 244.036 95.079, 250.131 95.648 C 256.162 96.211, 256.760 96.073, 259.961 93.380 C 263.073 90.761, 263.952 90.535, 270.074 90.784 C 275.929 91.023, 277.142 90.751, 279.650 88.641 C 282.134 86.551, 283.973 86.126, 293.290 85.491 C 304.694 84.714, 306 84.054, 306 79.066 C 306 76.625, 308.575 76.363, 311.418 78.515 C 315.002 81.227, 317.577 76.539, 314.680 72.577 C 311.012 67.560, 290 70.730, 290 76.300 C 290 78.159, 286.761 81, 284.640 81 C 282.381 81, 281.396 78.196, 282.842 75.881 C 284.448 73.310, 284.288 71.325, 282.418 70.607 C 280.046 69.697, 279.740 69.796, 276.594 72.501 C 272.935 75.648, 272.791 75.637, 269.077 71.923 C 263.130 65.976, 263.952 65.727, 290.931 65.303 C 316.326 64.904, 316 65.006, 316 57.431 C 316 51.834, 314.134 50.320, 310.631 53.075 L 307.980 55.161 304.913 52.580 C 299.980 48.430, 289.826 48.780, 285.490 53.250 C 276.517 62.500, 268.183 63.732, 273.312 55.050 C 274.535 52.979, 274.643 52.043, 273.761 51.161 C 270.885 48.285, 265 51.801, 265 56.396 C 265 59.186, 258.943 65, 256.037 65 C 250.224 65, 250.454 70.620, 256.289 71.192 C 258.951 71.453, 259.532 72.006, 260.102 74.815 C 260.472 76.639, 261.791 79.213, 263.034 80.536 C 265.641 83.311, 264.443 86, 260.599 86 C 257.725 86, 246 74.189, 246 71.295 C 246 68.172, 243.185 65.601, 241.394 67.088 C 239.041 69.041, 239.765 72.975, 243 75.813 C 248.663 80.782, 245.879 86, 237.566 86 C 233.929 86, 232.079 86.597, 229.818 88.500 C 226.146 91.589, 223.586 91.675, 221.557 88.777 C 217.765 83.364, 220.362 80.936, 230.417 80.497 C 238.378 80.149, 240.298 79.556, 239.805 77.599 C 239.357 75.815, 228.207 66, 226.629 66 C 225.887 66, 223.621 64.875, 221.595 63.500 C 219.136 61.831, 216.513 60.992, 213.706 60.976 C 208.812 60.948, 201.977 59.510, 201.099 58.322 C 198.842 55.269, 186.877 45, 185.577 45 C 184.700 45, 182.569 46.350, 180.843 48 C 175.949 52.676, 171 51.632, 171 45.922 C 171 41.699, 168.610 40.375, 165.460 42.852 C 159.618 47.448, 151 46.546, 151 41.339 C 151 39.909, 149.397 37.204, 147.072 34.711 L 143.144 30.500 126.127 30.377 C 109.611 30.257, 109.047 30.321, 106.961 32.542 M 91.667 31.667 C 91.300 32.033, 91 33.553, 91 35.044 C 91 39.449, 88.500 40.746, 84.999 38.157 C 81.369 35.473, 78.990 35.433, 75.727 38 C 74.036 39.330, 71.670 40, 68.664 40 C 65.846 40, 63.538 40.605, 62.537 41.606 C 59.909 44.233, 62.369 46, 68.654 46 C 72.137 46, 74.181 46.445, 74.395 47.250 C 76.044 53.458, 76.715 54.518, 79.518 55.349 C 87.733 57.786, 88.023 60.388, 80.885 67.616 L 75.598 72.970 78.299 75.790 C 81.446 79.074, 81.745 82.015, 79.171 84.345 C 76.521 86.744, 73.443 86.379, 71.089 83.387 C 69.837 81.794, 68.441 81, 67.517 81.355 C 65.303 82.205, 65.657 83.942, 68.500 86.179 C 71.799 88.774, 71.655 91.489, 68 95.653 C 61.922 102.575, 67.832 109.378, 74.818 103.500 C 76.452 102.125, 78.702 101, 79.818 101 C 80.934 101, 83.184 99.875, 84.818 98.500 C 88.448 95.445, 88.717 95.434, 91.019 98.250 C 92.509 100.073, 93.103 100.259, 94.148 99.231 C 95.199 98.197, 94.933 97.493, 92.719 95.440 C 89.282 92.253, 89.272 89.369, 92.687 85.805 L 95.374 83 92.687 80.195 C 89.336 76.698, 89.282 74.023, 92.500 71 C 94.851 68.791, 95 68.042, 95 58.398 C 95 48.653, 95.124 48.048, 97.500 46.179 C 100.293 43.982, 101.168 34.568, 98.800 32.200 C 97.517 30.917, 92.772 30.562, 91.667 31.667 M 156.446 32.087 C 155.416 33.755, 157.733 35.667, 159.113 34.287 C 160.267 33.133, 159.545 31, 158 31 C 157.515 31, 156.816 31.489, 156.446 32.087 M 177 36.500 C 174.975 38.939, 177.517 41, 182.551 41 C 187.579 41, 190.799 38.668, 188.912 36.394 C 187.315 34.470, 178.621 34.547, 177 36.500 M 202 42 C 198.783 45.217, 200.253 50, 204.458 50 C 205.772 50, 208.184 51.125, 209.818 52.500 C 213.767 55.823, 218.641 55.883, 220.124 52.626 C 221.575 49.443, 219.744 46, 216.602 46 C 215.322 46, 212.576 44.650, 210.500 43 C 206.058 39.470, 204.691 39.309, 202 42 M 227.239 46.161 C 226.357 47.043, 226.484 48.011, 227.766 50.182 C 229.147 52.519, 229.231 53.400, 228.228 55.007 C 226.456 57.844, 226.715 59.775, 228.962 60.488 C 232.103 61.485, 235 59.332, 235 56 C 235 54.175, 235.696 52.698, 236.847 52.082 C 239.134 50.858, 241 52.452, 241 55.629 C 241 60.541, 249.691 63.166, 253.463 59.394 C 255.492 57.365, 253.854 55, 250.420 55 C 248.996 55, 246.020 53.060, 242.792 50.029 C 237.264 44.836, 230.297 43.103, 227.239 46.161 M 161.688 51.646 C 160.272 53.061, 161.073 55, 163.073 55 C 164.471 55, 165.041 54.457, 164.823 53.333 C 164.466 51.492, 162.759 50.574, 161.688 51.646 M 180.667 51.667 C 179.435 52.898, 179.985 57.743, 181.500 59 C 184.668 61.629, 187.792 55.192, 184.800 52.200 C 183.472 50.872, 181.691 50.642, 180.667 51.667 M 102.861 61.912 C 99.256 64.831, 99.221 85.921, 102.814 90.190 L 105.161 92.980 103.075 95.631 C 101.481 97.659, 101.255 98.603, 102.117 99.641 C 105.853 104.143, 116.639 94.742, 115.497 87.980 C 114.828 84.025, 114.996 83.685, 120.402 78.017 C 126.010 72.138, 127.159 69.207, 124.668 67.139 C 123.680 66.319, 122.841 66.408, 121.418 67.485 C 118.350 69.807, 116.618 69.283, 111.554 64.500 C 106.111 59.359, 106.040 59.337, 102.861 61.912 M 21.200 62.200 C 18.208 65.192, 21.332 71.629, 24.500 69 C 26.958 66.960, 25.840 61, 23 61 C 22.670 61, 21.860 61.540, 21.200 62.200 M 106.739 67.126 C 104.604 68.321, 104.465 72.311, 106.500 74 C 107.697 74.993, 108.303 74.993, 109.500 74 C 112.801 71.260, 110.333 65.115, 106.739 67.126 M 217.042 71.449 C 215.224 73.640, 217.500 76.197, 220.914 75.801 C 222.926 75.567, 223.500 74.945, 223.500 73 C 223.500 69.987, 219.127 68.937, 217.042 71.449 M 31.446 72.087 C 30.416 73.755, 32.733 75.667, 34.113 74.287 C 35.267 73.133, 34.545 71, 33 71 C 32.515 71, 31.816 71.489, 31.446 72.087 M 51.446 72.087 C 50.416 73.755, 52.733 75.667, 54.113 74.287 C 55.267 73.133, 54.545 71, 53 71 C 52.515 71, 51.816 71.489, 51.446 72.087 M 61.446 72.087 C 60.416 73.755, 62.733 75.667, 64.113 74.287 C 65.267 73.133, 64.545 71, 63 71 C 62.515 71, 61.816 71.489, 61.446 72.087 M 138.690 74.241 C 135.931 77.190, 135.692 80.070, 138.219 79.928 C 140.042 79.825, 145.277 73.257, 144.516 72.026 C 143.485 70.358, 141.680 71.044, 138.690 74.241 M 11.446 77.087 C 10.416 78.755, 12.733 80.667, 14.113 79.287 C 15.267 78.133, 14.545 76, 13 76 C 12.515 76, 11.816 76.489, 11.446 77.087 M 36.385 82.439 C 35.617 84.441, 41.679 89.744, 46.177 91.006 C 48.199 91.574, 51.034 93.440, 52.475 95.153 L 55.097 98.268 52.862 100.647 C 51.078 102.546, 50.878 103.276, 51.874 104.263 C 53.344 105.719, 61 98.289, 61 95.407 C 61 91.311, 52.595 85, 47.140 85 C 43.100 85, 41.753 84.577, 40.768 83 C 39.307 80.661, 37.172 80.388, 36.385 82.439 M 41.446 97.087 C 40.416 98.755, 42.733 100.667, 44.113 99.287 C 45.267 98.133, 44.545 96, 43 96 C 42.515 96, 41.816 96.489, 41.446 97.087 M 86.446 107.087 C 85.416 108.755, 87.733 110.667, 89.113 109.287 C 90.267 108.133, 89.545 106, 88 106 C 87.515 106, 86.816 106.489, 86.446 107.087" stroke="none" fill="#FFFFFF" fill-rule="nonzero"/>
</svg>