<svg xmlns="http://www.w3.org/2000/svg" width="400" height="250" viewBox="0 0 400 250" version="1.1">
	<path d="M 90.089 8.159 C 86.805 11.144, 86.435 11.236, 80.125 10.647 C 73.982 10.074, 73.398 10.202, 70.788 12.703 C 68.120 15.259, 67.600 15.361, 58.462 15.117 C 49.082 14.867, 48.861 14.915, 45.425 17.931 C 43.503 19.619, 40.999 21, 39.860 21 C 38.721 21, 36.452 22.125, 34.818 23.500 C 33.184 24.875, 30.856 26, 29.644 26 C 26.829 26, 15 37.772, 15 40.574 C 15 43.223, 21.985 50, 24.715 50 C 25.888 50, 28.184 51.125, 29.818 52.500 C 31.452 53.875, 33.721 55, 34.860 55 C 35.999 55, 38.514 56.391, 40.450 58.090 C 43.525 60.790, 44.459 61.098, 47.834 60.528 C 51.137 59.970, 52.183 60.283, 55.039 62.686 C 58.157 65.310, 59.046 65.513, 68.357 65.731 C 76.788 65.929, 78.666 66.277, 80.481 67.982 C 81.662 69.092, 83.597 70, 84.780 70 C 85.963 70, 88.497 71.376, 90.412 73.057 C 93.411 75.690, 94.546 76.071, 98.594 75.807 C 103.476 75.488, 104.031 74.993, 105.652 69.500 C 106.341 67.162, 107.195 66.428, 109.518 66.173 C 111.158 65.993, 113.737 64.671, 115.250 63.236 L 118 60.626 120.805 63.313 C 124.433 66.789, 126.438 66.701, 130.801 62.870 L 134.365 59.741 146.128 60.225 C 158.589 60.738, 160 60.339, 160 56.300 C 160 51.611, 163.519 49.666, 170.778 50.344 C 176.953 50.920, 177.463 50.801, 180.614 48.034 C 183.822 45.217, 184.266 45.122, 193.458 45.269 C 205.427 45.461, 205.356 45.532, 205.512 33.256 L 205.636 23.500 201.610 19.250 C 196.345 13.693, 190.744 13.262, 185.347 18 C 180.628 22.144, 170.817 22.399, 166.182 18.500 C 164.548 17.125, 162.298 16, 161.182 16 C 160.066 16, 157.707 14.783, 155.939 13.296 L 152.725 10.591 130.998 10.884 L 109.270 11.176 105.753 8.088 C 100.818 3.755, 94.905 3.782, 90.089 8.159 M 52.323 21.820 C 51.010 23.133, 51.252 23.719, 54.419 26.886 L 58 30.467 61.472 26.983 C 63.890 24.557, 64.681 23.079, 64.078 22.113 C 62.851 20.146, 54.212 19.931, 52.323 21.820 M 72 22 C 70.553 23.447, 70 25.333, 70 28.826 C 70 32.680, 69.497 34.124, 67.500 36 C 62.938 40.286, 64.870 52.843, 69.500 49 C 70.482 48.185, 71 45.957, 71 42.552 C 71 38.295, 71.455 36.922, 73.500 35 C 74.875 33.708, 76 31.665, 76 30.461 C 76 29.256, 76.944 27.070, 78.097 25.604 C 81.777 20.925, 76.308 17.692, 72 22 M 111.446 22.087 C 110.416 23.755, 112.733 25.667, 114.113 24.287 C 115.267 23.133, 114.545 21, 113 21 C 112.515 21, 111.816 21.489, 111.446 22.087 M 96.029 27.629 L 92.904 30.259 90.526 28.024 C 88.300 25.933, 86 25.944, 86 28.046 C 86 33.659, 99.782 38.218, 104 34 C 109.619 28.381, 102.191 22.444, 96.029 27.629 M 275.178 28.080 C 272.238 30.753, 271.374 31.029, 267.674 30.474 C 264.038 29.929, 263.177 30.183, 261.072 32.423 C 259.105 34.517, 257.726 35, 253.720 35 C 249.919 35, 248.108 35.573, 245.818 37.500 C 243.606 39.361, 241.690 40, 238.318 40 C 234.946 40, 233.030 40.639, 230.818 42.500 C 227.783 45.054, 226.668 45.359, 221.621 45.017 C 219.366 44.864, 217.620 45.931, 213.553 49.948 L 208.363 55.073 205.671 52.956 L 202.980 50.839 199.913 53.420 C 198.227 54.839, 195.826 56, 194.578 56 C 193.331 56, 191.495 56.900, 190.500 58 C 189.154 59.487, 187.420 60, 183.739 60 C 179.918 60, 178.111 60.570, 175.818 62.500 C 174.184 63.875, 171.928 65, 170.805 65 C 169.683 65, 167.226 66.350, 165.347 68 C 163.468 69.650, 160.999 71, 159.860 71 C 158.721 71, 156.381 72.185, 154.660 73.633 C 151.648 76.167, 151.186 76.245, 142.359 75.719 C 133.610 75.197, 133.083 75.283, 130.919 77.586 C 129.672 78.914, 127.557 80, 126.220 80 C 124.883 80, 122.452 81.125, 120.818 82.500 C 118.606 84.361, 116.690 85, 113.318 85 C 109.946 85, 108.030 85.639, 105.818 87.500 C 102.786 90.051, 101.668 90.358, 96.645 90.020 C 94.721 89.890, 92.864 90.714, 90.952 92.546 C 88.604 94.795, 87.270 95.245, 83.212 95.153 C 79.202 95.063, 77.884 95.495, 75.980 97.521 C 74.699 98.885, 72.557 100, 71.220 100 C 69.883 100, 67.452 101.125, 65.818 102.500 C 63.606 104.361, 61.690 105, 58.318 105 C 54.946 105, 53.030 105.639, 50.818 107.500 C 47.787 110.050, 46.788 110.322, 41.478 110.044 C 39.392 109.935, 37.711 110.678, 36.054 112.443 C 34.732 113.849, 32.557 115, 31.220 115 C 29.883 115, 27.452 116.125, 25.818 117.500 C 24.184 118.875, 21.857 120, 20.646 120 C 19.258 120, 15.970 122.496, 11.733 126.765 L 5.019 133.531 5.341 148.170 C 5.656 162.524, 5.717 162.875, 8.455 166.129 C 11.063 169.229, 11.208 169.871, 10.648 175.869 C 10.079 181.964, 10.200 182.463, 13.024 185.680 C 14.661 187.544, 16 190.001, 16 191.140 C 16 192.279, 17.153 194.582, 18.562 196.257 C 20.712 198.811, 21.020 199.925, 20.472 203.166 C 19.902 206.541, 20.210 207.475, 22.910 210.550 C 24.609 212.486, 26 215.001, 26 216.140 C 26 217.279, 27.125 219.548, 28.500 221.182 C 29.875 222.816, 31 225.085, 31 226.223 C 31 227.361, 33.025 230.457, 35.500 233.103 C 38.234 236.026, 40 238.852, 40 240.302 C 40 245.242, 42.388 246, 57.947 246 L 72.236 246 75.731 242.931 C 78.791 240.245, 79.712 239.945, 83.128 240.522 C 86.561 241.102, 87.463 240.801, 90.628 238.022 C 93.794 235.242, 94.695 234.942, 98.128 235.522 C 101.561 236.102, 102.463 235.801, 105.628 233.022 C 108.794 230.242, 109.695 229.942, 113.128 230.522 C 116.561 231.102, 117.463 230.801, 120.628 228.022 C 123.794 225.242, 124.695 224.942, 128.128 225.522 C 131.548 226.099, 132.465 225.799, 135.550 223.090 C 137.486 221.391, 140.001 220, 141.140 220 C 142.279 220, 144.582 218.847, 146.257 217.438 C 148.811 215.288, 149.925 214.980, 153.166 215.528 C 156.550 216.100, 157.474 215.791, 160.604 213.043 C 163.773 210.260, 164.651 209.975, 168.343 210.529 C 171.959 211.071, 172.826 210.814, 174.928 208.577 C 176.299 207.117, 178.452 206, 179.893 206 C 181.619 206, 184.138 204.320, 187.724 200.779 L 193.011 195.557 202.844 195.503 C 212.106 195.452, 212.870 195.287, 215.990 192.662 C 218.816 190.284, 219.868 189.971, 223.166 190.528 C 226.541 191.098, 227.475 190.790, 230.550 188.090 C 232.486 186.391, 235.109 185, 236.380 185 C 237.650 185, 239.505 184.100, 240.500 183 C 241.495 181.900, 243.418 181, 244.773 181 C 246.128 181, 248.839 179.593, 250.798 177.872 C 254.216 174.872, 254.624 174.769, 260.826 175.348 C 266.970 175.922, 267.459 175.804, 270.680 172.976 C 272.544 171.339, 275.001 170, 276.140 170 C 277.279 170, 279.582 168.847, 281.257 167.438 C 283.811 165.288, 284.925 164.980, 288.166 165.528 C 291.554 166.100, 292.473 165.792, 295.628 163.022 C 298.794 160.242, 299.695 159.942, 303.128 160.522 C 306.548 161.099, 307.465 160.799, 310.550 158.090 C 312.486 156.391, 315.109 155, 316.380 155 C 317.650 155, 319.505 154.100, 320.500 153 C 321.495 151.900, 323.485 151, 324.921 151 C 326.923 151, 330.289 148.235, 339.375 139.126 L 351.218 127.251 350.540 123.239 C 349.938 119.675, 350.216 118.824, 353.022 115.628 C 355.837 112.422, 356.106 111.589, 355.496 107.978 C 354.847 104.132, 355.047 103.690, 359.418 99.319 L 364.024 94.713 370.657 95.332 C 376.995 95.924, 377.442 95.819, 380.680 92.976 C 382.544 91.339, 385.066 89.984, 386.285 89.964 C 387.558 89.943, 390.945 87.623, 394.250 84.507 L 400 79.087 400 72.908 C 400 67.549, 399.657 66.412, 397.417 64.336 C 395.172 62.255, 394.922 61.421, 395.507 57.956 C 396.102 54.437, 395.819 53.558, 393.090 50.450 C 391.391 48.514, 390 45.921, 390 44.686 C 390 43.260, 387.713 40.175, 383.723 36.221 C 375.980 28.547, 371.325 27.752, 365.269 33.069 C 362.198 35.765, 361.295 36.057, 357.830 35.471 C 354.062 34.835, 353.622 35.056, 348.017 40.402 C 340.781 47.304, 340.223 47.308, 333.085 40.500 C 329.877 37.439, 326.395 35, 325.236 35 C 324.091 35, 321.816 33.875, 320.182 32.500 C 318.548 31.125, 316.117 30, 314.780 30 C 313.443 30, 311.292 28.875, 310 27.500 C 307.700 25.052, 307.348 25.001, 293.076 25.029 L 278.500 25.059 275.178 28.080 M 112.490 31.652 C 110.140 34.003, 116.878 41.176, 119.439 39.050 C 121.576 37.277, 121.397 34.397, 119 32 C 116.567 29.567, 114.677 29.466, 112.490 31.652 M 137.169 31.296 C 136.379 32.248, 136.605 33.373, 138.018 35.528 L 139.944 38.463 136.776 41.731 C 134.749 43.823, 132.642 45, 130.926 45 C 127.381 45, 125.272 47.417, 127 49.500 C 129.424 52.420, 132.455 51.138, 139.296 44.296 C 142.983 40.609, 146 36.784, 146 35.796 C 146 31.639, 139.594 28.375, 137.169 31.296 M 287.371 31.772 C 285.988 33.154, 287.098 34.567, 298.417 45.828 C 305.338 52.714, 311 59.142, 311 60.114 C 311 61.085, 312.954 65.646, 315.342 70.249 C 317.730 74.852, 320 80.596, 320.386 83.013 C 320.773 85.430, 321.929 88.778, 322.957 90.454 C 325.705 94.935, 326.590 102.265, 324.585 103.930 C 322.515 105.647, 320 103.740, 320 100.454 C 320 99.189, 318.875 96.816, 317.500 95.182 C 315.639 92.970, 315 91.054, 315 87.682 C 315 84.310, 314.361 82.394, 312.500 80.182 C 311.125 78.548, 310 76.298, 310 75.182 C 310 74.066, 308.875 71.816, 307.500 70.182 C 306.125 68.548, 305 66.298, 305 65.182 C 305 64.066, 303.875 61.816, 302.500 60.182 C 301.125 58.548, 300 56.354, 300 55.306 C 300 52.851, 298.126 51, 295.640 51 C 294.563 51, 291.086 48.525, 287.915 45.500 L 282.148 40 273.824 40.051 C 259.934 40.137, 252.359 41.315, 249.714 43.799 C 247.999 45.410, 246.135 46, 242.762 46 C 239.305 46, 237.411 46.625, 235.182 48.500 C 233.548 49.875, 231.127 51, 229.802 51 C 228.362 51, 226.031 52.405, 224.011 54.489 L 220.630 57.977 222.815 60.303 C 224.017 61.582, 225 63.578, 225 64.738 C 225 65.898, 226.125 68.184, 227.500 69.818 C 228.875 71.452, 230 73.702, 230 74.818 C 230 75.934, 231.238 78.318, 232.750 80.116 C 234.897 82.668, 235.503 84.425, 235.513 88.125 C 235.522 91.788, 236.091 93.468, 238.013 95.514 C 239.953 97.581, 240.503 99.233, 240.512 103.029 C 240.523 107.001, 241.046 108.438, 243.362 110.856 C 245.680 113.275, 246.078 114.370, 245.536 116.836 C 244.835 120.027, 246.594 124.588, 249.434 126.945 C 251.521 128.677, 251.568 137.284, 249.500 139 C 247.510 140.652, 245 138.674, 245 135.454 C 245 134.189, 243.875 131.816, 242.500 130.182 C 241.125 128.548, 240 126.180, 240 124.920 C 240 123.660, 238.988 121.551, 237.750 120.233 C 236.060 118.434, 235.497 116.628, 235.487 112.986 C 235.478 109.205, 234.926 107.550, 232.987 105.486 C 231.049 103.421, 230.497 101.766, 230.487 97.986 C 230.478 94.351, 229.914 92.537, 228.237 90.753 C 227.007 89.443, 226 87.422, 226 86.262 C 226 85.102, 224.875 82.816, 223.500 81.182 C 222.125 79.548, 221 77.298, 221 76.182 C 221 75.066, 219.875 72.816, 218.500 71.182 C 217.125 69.548, 216 67.350, 216 66.297 C 216 60.401, 205.965 58.336, 200.525 63.112 C 197.565 65.711, 196.532 66, 190.195 66 C 184.143 66, 182.736 66.351, 180.182 68.500 C 178.548 69.875, 176.211 71, 174.988 71 C 166.176 71, 161.421 87.854, 168.090 95.450 C 170.790 98.525, 171.098 99.459, 170.528 102.834 C 169.970 106.137, 170.284 107.184, 172.688 110.042 C 174.898 112.670, 175.503 114.399, 175.513 118.125 C 175.522 121.788, 176.091 123.468, 178.013 125.514 C 179.953 127.581, 180.503 129.233, 180.512 133.029 C 180.522 136.959, 181.051 138.444, 183.262 140.752 C 184.768 142.324, 186 144.744, 186 146.130 C 186 147.544, 187.128 149.711, 188.567 151.063 C 190.657 153.026, 191.021 154.075, 190.527 156.709 C 189.889 160.110, 191.600 164.594, 194.434 166.945 C 196.521 168.677, 196.568 177.284, 194.500 179 C 192.510 180.652, 190 178.674, 190 175.454 C 190 174.189, 188.875 171.816, 187.500 170.182 C 186.125 168.548, 185 166.055, 185 164.641 C 185 160.888, 181.898 159.632, 174.504 160.389 C 166.393 161.220, 165.344 160.074, 165.452 150.500 C 165.544 142.286, 166.152 141, 169.937 141 C 174.469 141, 175.799 138.479, 172.897 135.389 C 171.053 133.426, 170.497 131.717, 170.487 127.986 C 170.478 124.351, 169.914 122.537, 168.237 120.753 C 167.007 119.443, 166 117.422, 166 116.262 C 166 115.102, 164.875 112.816, 163.500 111.182 C 162.125 109.548, 161 107.279, 161 106.140 C 161 105.001, 159.609 102.486, 157.910 100.550 C 155.192 97.454, 154.899 96.555, 155.485 93.090 C 156.610 86.429, 154.223 85, 141.968 85 C 131.680 85, 126.732 86.205, 124.128 89.345 C 123.199 90.465, 121.202 91, 117.954 91 C 114.292 91, 112.449 91.593, 110.182 93.500 C 108.548 94.875, 106.117 96, 104.780 96 C 103.443 96, 101.301 97.115, 100.020 98.479 C 98.116 100.505, 96.798 100.937, 92.788 100.847 C 88.730 100.755, 87.396 101.205, 85.048 103.454 C 83.136 105.286, 81.279 106.110, 79.355 105.980 C 74.332 105.642, 73.214 105.949, 70.182 108.500 C 67.970 110.361, 66.054 111, 62.682 111 C 59.310 111, 57.394 111.639, 55.182 113.500 C 53.548 114.875, 51.117 116, 49.780 116 C 48.443 116, 46.268 117.151, 44.946 118.557 C 43.289 120.322, 41.608 121.065, 39.522 120.956 C 34.212 120.678, 33.213 120.950, 30.182 123.500 C 28.548 124.875, 26.192 126, 24.946 126 C 17.753 126, 8.373 141.312, 13 145.500 C 14.100 146.495, 15 148.331, 15 149.578 C 15 150.826, 16.125 153.184, 17.500 154.818 C 18.875 156.452, 20 158.702, 20 159.818 C 20 160.934, 21.125 163.184, 22.500 164.818 C 25.522 168.409, 25.584 169.154, 23 170.768 C 20.602 172.266, 20.425 173.842, 22.564 174.663 C 23.502 175.023, 24.687 174.464, 25.527 173.265 C 26.473 171.915, 28.609 171.044, 32.119 170.579 C 42.604 169.188, 50.788 183.153, 43.500 190 C 40.252 193.051, 40.154 197.857, 43.279 200.792 C 46.789 204.090, 46.621 221.646, 43.043 225.454 L 40.639 228.013 43.319 230.811 C 44.794 232.350, 46 234.542, 46 235.682 C 46 238.978, 47.898 239.712, 57.801 240.250 C 65.188 240.651, 67.408 240.449, 68.586 239.271 C 70.578 237.279, 68.707 235, 65.078 235 C 60.257 235, 58.317 230.517, 61.578 226.914 C 62.938 225.411, 64.433 225.246, 72.389 225.720 L 81.621 226.271 85.165 223.160 C 88.562 220.178, 88.978 220.073, 95.174 220.652 C 101.408 221.234, 101.771 221.140, 105.305 218.037 C 108.528 215.207, 109.436 214.898, 112.834 215.472 C 116.075 216.020, 117.189 215.712, 119.743 213.562 C 121.418 212.153, 123.721 211, 124.860 211 C 125.999 211, 128.514 209.609, 130.450 207.910 C 133.525 205.210, 134.459 204.902, 137.834 205.472 C 141.075 206.020, 142.189 205.712, 144.743 203.562 C 146.418 202.153, 148.721 201, 149.860 201 C 150.999 201, 153.409 199.706, 155.215 198.124 C 159.680 194.215, 171.364 194.114, 175.446 197.949 C 180.701 202.886, 182.993 196.339, 178 190.653 C 174.529 186.700, 173.748 179.284, 176.556 176.953 C 177.889 175.847, 179.179 176.721, 185.552 183.051 L 192.991 190.441 198.261 185.236 L 203.531 180.031 210.085 180.643 C 216.428 181.236, 216.758 181.151, 220.322 178.022 L 224.005 174.788 232.968 175.498 L 241.932 176.207 247.908 170.506 C 253.609 165.068, 254.066 164.835, 257.792 165.465 C 261.082 166.021, 262.179 165.721, 264.743 163.562 C 266.418 162.153, 268.721 161, 269.860 161 C 270.999 161, 273.514 159.609, 275.450 157.910 C 278.535 155.201, 279.452 154.901, 282.872 155.478 C 286.283 156.055, 287.210 155.755, 290.241 153.093 C 293.552 150.186, 294.003 150.076, 300.174 150.652 C 306.375 151.231, 306.785 151.128, 310.199 148.130 C 313 145.671, 314.589 145.037, 317.655 145.158 C 323.744 145.396, 331 139.748, 331 134.770 C 331 133.628, 333.250 130.314, 336 127.406 C 338.833 124.411, 341 121.181, 341 119.954 C 341 118.763, 342.125 116.452, 343.500 114.818 C 345.361 112.606, 346 110.690, 346 107.318 C 346 103.896, 346.637 102.031, 348.607 99.690 C 352.041 95.610, 351.566 89.243, 347.512 85.012 C 345.159 82.557, 344.884 81.648, 345.460 78.239 C 346.021 74.913, 345.727 73.829, 343.562 71.257 C 342.153 69.582, 341 67.326, 341 66.243 C 341 65.161, 339.650 62.576, 338 60.500 C 336.350 58.424, 335 55.730, 335 54.515 C 335 51.627, 323.966 41, 320.969 41 C 319.770 41, 317.452 39.875, 315.818 38.500 C 312.786 35.949, 311.668 35.642, 306.645 35.980 C 304.799 36.105, 302.855 35.302, 301.145 33.708 C 297.790 30.582, 289.698 29.444, 287.371 31.772 M 126.446 32.087 C 125.416 33.755, 127.733 35.667, 129.113 34.287 C 130.267 33.133, 129.545 31, 128 31 C 127.515 31, 126.816 31.489, 126.446 32.087 M 153.690 39.241 C 151.081 42.029, 150.670 45, 152.892 45 C 154.641 45, 160.120 38.755, 159.587 37.367 C 158.789 35.287, 156.797 35.920, 153.690 39.241 M 53.675 44.546 C 50.959 47.815, 50.805 50.080, 53.309 49.928 C 55.069 49.821, 60.255 43.221, 59.516 42.026 C 58.416 40.247, 56.592 41.033, 53.675 44.546 M 41.446 47.087 C 40.416 48.755, 42.733 50.667, 44.113 49.287 C 45.267 48.133, 44.545 46, 43 46 C 42.515 46, 41.816 46.489, 41.446 47.087 M 316.965 51.542 C 315.904 52.821, 316.056 53.585, 317.860 56.024 C 319.055 57.641, 320.311 60.992, 320.651 63.470 C 320.991 65.948, 322.333 69.418, 323.634 71.182 C 325.201 73.306, 326.002 75.758, 326.007 78.444 C 326.010 80.790, 326.843 83.759, 327.981 85.485 C 329.063 87.126, 330.238 90.501, 330.592 92.985 C 330.946 95.468, 332.083 98.903, 333.118 100.618 C 334.153 102.333, 335 104.640, 335 105.746 C 335 106.851, 335.675 108.315, 336.500 109 C 341.129 112.842, 342.915 101.065, 338.500 95.818 C 336.346 93.257, 336 91.862, 336 85.728 C 336 79.333, 335.722 78.319, 333.262 75.752 C 331.051 73.444, 330.522 71.959, 330.512 68.029 C 330.503 64.371, 329.941 62.569, 328.250 60.767 C 327.012 59.449, 326 57.232, 326 55.841 C 326 51.054, 319.813 48.110, 316.965 51.542 M 349.716 53.924 L 345.509 57.848 347.754 60.239 C 348.989 61.553, 350 63.597, 350 64.780 C 350 65.963, 351.339 68.456, 352.976 70.320 C 355.803 73.539, 355.922 74.033, 355.350 80.157 C 354.535 88.882, 356.534 91.411, 361.164 87.516 C 362.808 86.132, 365.228 85, 366.542 85 C 368.761 85, 371 82.540, 371 80.101 C 371 79.534, 369.609 77.486, 367.910 75.550 C 365.224 72.491, 364.903 71.531, 365.463 68.220 C 366.015 64.951, 365.673 63.863, 363.053 60.567 C 361.374 58.454, 360 55.678, 360 54.398 C 360 52.211, 357.500 50, 355.027 50 C 354.420 50, 352.029 51.766, 349.716 53.924 M 110.242 52.977 C 109.054 54.885, 107.969 55, 91.114 55 C 72.052 55, 68.891 55.748, 72.537 59.394 C 73.880 60.737, 76.811 61, 90.463 61 L 106.784 61 110.857 57.750 C 114.918 54.509, 115.812 51.778, 112.989 51.239 C 112.170 51.082, 110.934 51.864, 110.242 52.977 M 226.200 137.200 C 224.315 139.085, 224.783 141.953, 227.500 145.182 C 229.662 147.751, 230 149.131, 230 155.374 C 230 163.661, 235.813 172.060, 239.455 169.037 C 242.089 166.851, 241.501 158.819, 238.500 156 C 236.464 154.088, 236 152.700, 236 148.529 C 236 141.813, 229.315 134.085, 226.200 137.200 M 176.446 147.087 C 175.416 148.755, 177.733 150.667, 179.113 149.287 C 180.267 148.133, 179.545 146, 178 146 C 177.515 146, 176.816 146.489, 176.446 147.087 M 31.200 182.200 C 29.328 184.072, 29.580 202.407, 31.500 204 C 34.463 206.459, 35.567 203.677, 35.733 193.339 C 35.910 182.252, 34.533 178.867, 31.200 182.200" stroke="none" fill="#FFFFFF" fill-rule="nonzero"/>
</svg>