<svg xmlns="http://www.w3.org/2000/svg" width="400" height="390" viewBox="0 0 400 390" version="1.1">
	<path d="M 74.425 29.076 L 70.933 32.653 70.946 132.950 C 70.954 193.675, 71.329 233.691, 71.895 234.373 C 72.952 235.647, 96.776 235.875, 98.789 234.630 C 99.671 234.085, 100 228.489, 100 214.018 C 100 194.288, 100.017 194.133, 102.500 191.182 C 103.875 189.548, 105 187.351, 105 186.300 C 105 185.249, 106.125 182.864, 107.500 181 C 108.875 179.136, 110 176.860, 110 175.941 C 110 175.022, 110.938 173.077, 112.085 171.619 C 113.232 170.161, 114.575 167.502, 115.070 165.710 C 116.217 161.556, 147.636 130, 150.624 130 C 151.717 130, 154.136 128.875, 156 127.500 C 157.864 126.125, 160.285 125, 161.380 125 C 162.475 125, 164.444 123.993, 165.754 122.761 C 167.501 121.120, 169.430 120.497, 172.976 120.428 C 176.610 120.357, 178.568 119.700, 180.836 117.792 L 183.856 115.250 205.500 115.250 C 226.824 115.250, 227.185 115.285, 229.966 117.625 C 232.004 119.340, 234.015 120, 237.200 120 C 240.335 120, 242.592 120.723, 245 122.500 C 246.864 123.875, 249.114 125, 250 125 C 250.886 125, 253.136 126.125, 255 127.500 C 256.864 128.875, 259.220 130, 260.237 130 C 261.254 130, 264.278 132.051, 266.958 134.557 C 269.637 137.063, 273.373 139.540, 275.260 140.061 C 279.446 141.217, 291 152.846, 291 155.903 C 291 157.045, 293.250 160.463, 296 163.500 C 298.750 166.537, 301 169.829, 301 170.816 C 301 171.804, 302.125 174.136, 303.500 176 C 304.875 177.864, 306 180.249, 306 181.300 C 306 182.351, 307.125 184.548, 308.500 186.182 C 310.648 188.735, 311 190.144, 311 196.182 C 311 202.292, 311.340 203.615, 313.599 206.300 C 316.126 209.303, 316.189 209.713, 315.849 221.040 C 315.613 228.913, 315.878 233.146, 316.665 234.095 C 318.033 235.745, 342.357 236.043, 343.970 234.430 C 344.550 233.850, 344.968 196.661, 345.049 138.243 L 345.181 43.003 342.504 39.822 C 340.211 37.097, 339.916 36.043, 340.452 32.474 C 341.482 25.605, 343.566 25.880, 290.541 25.880 L 242.931 25.880 239.889 28.440 C 238.216 29.848, 235.934 31, 234.818 31 C 233.702 31, 231.452 32.125, 229.818 33.500 C 228.184 34.875, 225.934 36, 224.818 36 C 223.702 36, 221.452 37.125, 219.818 38.500 C 218.184 39.875, 215.934 41, 214.818 41 C 213.702 41, 211.452 42.125, 209.818 43.500 C 205.714 46.953, 204.633 46.712, 198.594 41 C 195.672 38.237, 192.359 36, 191.188 36 C 190.023 36, 187.486 34.609, 185.550 32.910 C 182.475 30.210, 181.541 29.902, 178.166 30.472 C 174.908 31.022, 173.812 30.713, 171.183 28.500 L 168.064 25.876 122.991 25.688 L 77.918 25.500 74.425 29.076 M 50.234 63.029 C 48.438 64.663, 45.939 66, 44.680 66 C 41.826 66, 36 71.853, 36 74.721 C 36 75.890, 34.860 78.201, 33.467 79.857 L 30.933 82.868 30.933 170.584 L 30.933 258.300 33.080 260.585 C 34.260 261.841, 35.528 264.346, 35.897 266.151 C 36.449 268.850, 37.150 269.551, 39.849 270.103 C 41.654 270.472, 44.191 271.770, 45.486 272.987 C 47.800 275.161, 48.329 275.200, 75.554 275.200 L 103.267 275.200 106.788 271.678 L 110.310 268.157 107.655 265.002 C 105.601 262.561, 105 260.776, 105 257.119 C 105 253.016, 104.531 251.938, 101.447 248.948 L 97.894 245.504 81.048 245.853 C 64.961 246.186, 64.106 246.106, 62.076 244.076 L 59.949 241.949 60.027 152.390 C 60.085 85.185, 59.811 62.477, 58.930 61.415 C 57.081 59.188, 53.784 59.800, 50.234 63.029 M 354.703 63.792 L 351 67.584 351 154.792 L 351 242 348.899 244.101 C 346.904 246.096, 345.964 246.185, 330.149 245.870 C 310.991 245.488, 311 245.485, 311 251.982 C 311 255.732, 310.418 257.538, 308.460 259.865 C 305.219 263.717, 303.985 271.913, 306.350 273.876 C 307.573 274.891, 314.708 275.185, 338.111 275.185 L 368.295 275.185 374.179 269.301 L 380.063 263.417 380.063 170.510 L 380.063 77.603 371.302 68.802 C 361.311 58.764, 359.999 58.368, 354.703 63.792 M 195.220 123.224 C 193.334 125.111, 191.888 125.452, 185.690 125.474 C 179.149 125.497, 178.032 125.796, 175.021 128.329 C 172.330 130.593, 171.025 131.040, 168.491 130.564 C 166.064 130.109, 164.409 130.592, 161.412 132.630 C 159.260 134.094, 156.138 135.669, 154.472 136.131 C 150.547 137.220, 121 166.790, 121 169.628 C 121 170.719, 119.875 173.136, 118.500 175 C 117.125 176.864, 116 179.114, 116 180 C 116 180.886, 114.875 183.136, 113.500 185 C 111.762 187.356, 111 189.677, 111 192.618 C 111 195.644, 110.305 197.673, 108.555 199.752 C 106.182 202.572, 106.105 203.173, 105.931 220.287 L 105.753 237.917 108.376 241.035 C 110.639 243.724, 111 245.079, 111 250.882 C 111 256.490, 111.417 258.176, 113.500 261 C 114.875 262.864, 116 265.249, 116 266.300 C 116 267.351, 117.125 269.548, 118.500 271.182 C 119.875 272.816, 121 275.125, 121 276.313 C 121 279.450, 146.660 305, 149.810 305 C 151.284 305, 154.319 307.070, 158.017 310.598 C 163.605 315.928, 164.072 316.164, 167.792 315.535 C 171.108 314.975, 172.176 315.277, 174.862 317.538 L 178.026 320.200 205.500 320.200 L 232.974 320.200 236.138 317.538 C 238.813 315.286, 239.898 314.976, 243.166 315.528 C 246.541 316.098, 247.475 315.790, 250.550 313.090 C 252.486 311.391, 255.037 310, 256.220 310 C 257.403 310, 259.399 309.034, 260.656 307.853 C 263.404 305.272, 266 306.668, 266 310.728 C 266 312.094, 267.125 314.548, 268.500 316.182 C 269.875 317.816, 271 320.066, 271 321.182 C 271 322.298, 272.125 324.548, 273.500 326.182 C 274.875 327.816, 276 330.137, 276 331.338 C 276 334.396, 306.663 365, 309.727 365 C 310.939 365, 313.409 366.255, 315.215 367.790 C 319.868 371.741, 336.283 371.962, 340.363 368.129 C 341.742 366.834, 344.346 365.472, 346.151 365.103 C 348.850 364.551, 349.551 363.850, 350.103 361.151 C 350.472 359.346, 351.834 356.742, 353.129 355.363 C 355.255 353.099, 355.489 351.921, 355.545 343.178 L 355.606 333.500 347.803 325.372 C 342.501 319.850, 340 316.477, 340 314.850 C 340 311.584, 324.420 296, 321.155 296 C 319.724 296, 316.629 293.881, 312.983 290.402 C 307.350 285.029, 306.954 284.832, 303.104 285.482 C 299.397 286.109, 298.770 285.858, 294.801 282.156 L 290.509 278.152 292.754 275.761 C 293.989 274.447, 295 272.422, 295 271.262 C 295 270.102, 296.125 267.816, 297.500 266.182 C 299.361 263.970, 300 262.054, 300 258.682 C 300 255.241, 300.637 253.396, 302.652 251.001 L 305.305 247.849 305.180 222.852 L 305.055 197.854 302.528 194.850 C 300.696 192.674, 300 190.682, 300 187.618 C 300 184.677, 299.238 182.356, 297.500 180 C 296.125 178.136, 295 175.780, 295 174.763 C 295 173.746, 292.949 170.722, 290.443 168.042 C 287.937 165.363, 285.457 161.618, 284.934 159.721 C 283.797 155.605, 274.093 146, 271.070 146 C 269.943 146, 266.537 143.750, 263.500 141 C 260.463 138.250, 257.171 136, 256.184 136 C 255.196 136, 252.864 134.875, 251 133.500 C 249.136 132.125, 246.936 131, 246.109 131 C 245.283 131, 242.988 129.878, 241.008 128.506 C 237.891 126.346, 236.107 125.967, 227.702 125.678 C 219.387 125.392, 217.664 125.033, 215.683 123.172 C 212.229 119.927, 198.482 119.962, 195.220 123.224 M 190.984 152.667 C 188.573 154.696, 186.669 155.355, 183.018 155.427 C 178.732 155.511, 177.679 156.027, 173.153 160.260 C 170.328 162.903, 167.125 165, 165.914 165 C 162.788 165, 146.260 181.397, 145.081 185.669 C 144.580 187.484, 143.232 190.161, 142.085 191.619 C 140.678 193.408, 140 195.723, 140 198.741 C 140 201.990, 139.350 203.984, 137.621 206.038 C 135.362 208.724, 135.242 209.574, 135.242 223 C 135.242 236.426, 135.362 237.276, 137.621 239.962 C 139.391 242.065, 140 243.997, 140 247.509 C 140 252.032, 140.314 252.553, 147.500 259.937 C 152.179 264.745, 155 268.463, 155 269.822 C 155 272.613, 158.373 276, 161.153 276 C 162.366 276, 165.617 278.185, 168.594 281 C 171.501 283.750, 174.720 286, 175.746 286 C 176.772 286, 179.136 287.125, 181 288.500 C 184.034 290.739, 185.347 291, 193.559 291 C 201.323 291, 203.135 291.318, 205.365 293.073 L 208 295.145 210.635 293.073 C 212.874 291.311, 214.675 291, 222.624 291 L 231.979 291 237.500 286 C 240.537 283.250, 243.974 281, 245.139 281 C 248.213 281, 264.755 264.546, 265.919 260.331 C 266.420 258.516, 267.768 255.839, 268.915 254.381 C 270.062 252.923, 271 250.978, 271 250.059 C 271 249.140, 272.125 246.864, 273.500 245 C 275.956 241.671, 276 241.282, 276 223 C 276 204.718, 275.956 204.329, 273.500 201 C 272.125 199.136, 271 196.860, 271 195.941 C 271 195.022, 270.062 193.077, 268.915 191.619 C 267.768 190.161, 266.423 187.492, 265.924 185.688 C 264.682 181.188, 243.273 160, 239.968 160 C 238.681 160, 236.556 158.993, 235.246 157.761 C 233.499 156.120, 231.570 155.497, 228.024 155.428 C 224.328 155.355, 222.436 154.703, 220.016 152.667 C 216.990 150.121, 216.333 150, 205.500 150 C 194.667 150, 194.010 150.121, 190.984 152.667 M 188.289 161.089 C 187.267 161.467, 185.829 162.502, 185.093 163.388 C 184.357 164.275, 182.747 165, 181.515 165 C 180.283 165, 177.576 166.350, 175.500 168 C 173.424 169.650, 170.835 171, 169.748 171 C 167.136 171, 152.104 185.673, 151.352 188.955 C 151.032 190.355, 149.674 193.132, 148.334 195.127 C 146.214 198.284, 145.887 199.948, 145.811 207.964 C 145.733 216.253, 145.475 217.470, 143.233 220.135 L 140.741 223.096 143.121 225.628 C 145.171 227.811, 145.507 229.182, 145.548 235.551 C 145.589 241.751, 145.952 243.320, 147.798 245.286 C 149.009 246.574, 150 248.551, 150 249.677 C 150 250.803, 151.350 253.424, 153 255.500 C 154.650 257.576, 156 260.179, 156 261.285 C 156 263.938, 166.902 274.952, 169.556 274.979 C 170.686 274.991, 173.136 276.125, 175 277.500 C 176.864 278.875, 179.114 280, 180 280 C 180.886 280, 183.136 281.125, 185 282.500 C 189.771 286.020, 222.402 286.423, 225.500 283 C 226.495 281.900, 228.303 281, 229.517 281 C 230.732 281, 233.424 279.650, 235.500 278 C 237.576 276.350, 240.165 275, 241.252 275 C 244.178 275, 258.801 260.382, 259.916 256.341 C 260.419 254.521, 261.768 251.839, 262.915 250.381 C 264.062 248.923, 265 246.978, 265 246.059 C 265 245.140, 266.125 242.864, 267.500 241 C 269.898 237.750, 270 237.015, 270 223 C 270 208.985, 269.898 208.250, 267.500 205 C 266.125 203.136, 265 200.886, 265 200 C 265 199.114, 263.875 196.864, 262.500 195 C 261.125 193.136, 260 190.736, 260 189.666 C 260 187.467, 242.007 168.611, 237.821 166.422 C 236.289 165.622, 233.904 165.269, 232.253 165.599 C 230.028 166.044, 228.605 165.539, 226.062 163.399 C 222.724 160.590, 194.331 158.854, 188.289 161.089 M 207 177 C 202.066 181.934, 206.218 186, 216.189 186 L 223.378 186 232.189 194.811 C 238.635 201.256, 241 204.302, 241 206.156 C 241 207.550, 241.900 209.505, 243 210.500 C 244.514 211.870, 245 213.580, 245 217.533 C 245 223.475, 246.879 226.175, 249.500 224 C 250.642 223.052, 251 220.471, 251 213.173 L 251 203.592 239.204 191.796 C 227.413 180.005, 227.406 180, 222.598 180 C 218.927 180, 217.086 179.408, 214.818 177.500 C 211.225 174.477, 209.625 174.375, 207 177" stroke="none" fill="#FFFFFF" fill-rule="nonzero"/>
</svg>