<svg xmlns="http://www.w3.org/2000/svg" width="1200" height="1200" viewBox="0 0 1200 1200" version="1.1">
	<path d="M 534 4.658 C 443.041 18.677, 374.924 42.595, 303 85.771 C 289.840 93.671, 261.325 112.665, 260.416 114.136 C 260.122 114.611, 266.624 115, 274.864 115 L 289.846 115 297.173 118.900 C 302.269 121.613, 307.697 123.463, 315 124.979 C 320.775 126.177, 326.248 127.365, 327.162 127.618 C 328.283 127.929, 329.038 129.643, 329.485 132.890 L 330.146 137.701 342.230 138.350 C 359.049 139.255, 371 139.161, 371 138.124 C 371 137.643, 369.911 134.787, 368.581 131.778 L 366.161 126.307 358.430 125.654 C 354.177 125.294, 347.841 125, 344.349 125 L 338 125 338 119.468 C 338 116.425, 337.348 112.375, 336.551 110.468 L 335.102 107 325.551 107 L 316 107 316 102.583 L 316 98.165 326.948 90.083 L 337.897 82 355.198 82.023 L 372.500 82.046 380.319 92.872 L 388.138 103.699 401.263 104.363 L 414.388 105.027 417.986 101.514 C 419.965 99.581, 421.951 98, 422.398 98 C 422.846 98, 424.097 96.875, 425.179 95.500 C 426.747 93.506, 428.041 93, 431.573 93 L 436 93 436 97.345 C 436 101.257, 433.925 105, 431.756 105 C 431.433 105, 428.768 107.465, 425.835 110.479 L 420.500 115.957 406.217 116.629 L 391.935 117.301 392.509 123.401 C 392.824 126.755, 393.317 131.412, 393.603 133.750 L 394.123 138 409.936 138 C 431.130 138, 431.257 137.967, 433.436 131.908 L 435.201 127 441.350 126.993 C 444.733 126.989, 450.508 126.702, 454.184 126.354 L 460.868 125.723 462.089 118.889 C 463.667 110.060, 463.940 110.662, 457.809 109.451 L 452.500 108.402 452.192 103.614 C 451.508 93.001, 459.331 90.520, 486.750 92.654 L 495 93.296 495 97.580 C 495 101.568, 494.587 102.222, 489 107.081 C 485.614 110.026, 483 113.125, 483 114.194 C 483 116.989, 486.140 128.999, 486.872 129.004 C 487.217 129.006, 491.550 129.673, 496.500 130.486 C 510.939 132.859, 509.552 134.215, 509.176 118.096 L 508.852 104.188 519.200 98.638 L 529.548 93.087 549.147 90.863 L 568.745 88.639 596.873 101.068 L 625 113.498 625 124.210 L 625 134.923 628.804 135.947 C 630.897 136.511, 634.047 137.259, 635.804 137.611 C 640.080 138.466, 640.255 143.723, 636.250 150.985 L 633.500 155.971 620.838 155.986 L 608.176 156 604.838 164.496 L 601.500 172.993 596.500 172.964 C 593.750 172.948, 583.400 171.025, 573.500 168.690 L 555.500 164.444 555.230 159.972 L 554.961 155.500 569.230 148.075 C 577.079 143.991, 584.740 139.899, 586.256 138.982 L 589.011 137.315 580.136 129.832 L 571.261 122.349 551.510 124.811 L 531.760 127.274 524.229 135.156 C 516.118 143.645, 516.220 143.596, 504.919 144.519 L 497.339 145.139 497.794 153.001 L 498.249 160.863 494.375 161.576 C 489.848 162.408, 489.036 163.344, 489.015 167.750 L 489 171 481.598 171 L 474.196 171 473.491 164.923 C 473.103 161.580, 472.496 157.824, 472.143 156.577 L 471.500 154.308 458 158.494 C 446.445 162.077, 398.343 187.688, 392.112 193.576 C 391.665 193.998, 396.936 214.296, 397.875 215.765 C 401.228 221.012, 412.960 225.939, 426.896 227.950 C 434.706 229.078, 441.299 230, 441.548 230 C 441.797 230, 442 237.398, 442 246.441 C 442 265.138, 441.656 264.467, 450.452 262.935 L 456.979 261.798 463.350 248.549 L 469.721 235.301 483.110 231.095 C 490.475 228.782, 497.625 226.540, 499 226.112 L 501.500 225.335 501.770 204.676 L 502.041 184.017 509.359 178.509 C 519.102 171.175, 523.514 171.326, 556.399 180.115 L 560.299 181.158 559.664 192.958 C 559.315 199.448, 558.750 205.488, 558.408 206.379 C 556.770 210.649, 570.134 208.451, 582 202.500 C 600.402 193.271, 601.934 193.944, 602.118 211.332 C 602.298 228.278, 601.825 227.357, 614.240 234.940 L 624.980 241.500 624.990 252.037 L 625 262.575 615.199 265.787 C 604.634 269.250, 598 269.949, 598 267.600 C 598 265.936, 588.274 263.312, 586.997 264.631 C 586.535 265.109, 585.756 267.075, 585.267 269 C 584.275 272.903, 577.329 274.793, 563.449 274.937 L 557.399 275 555.224 270.524 C 549.177 258.077, 527 260.915, 527 274.135 C 527 277.593, 527.447 279.234, 528.500 279.638 C 529.518 280.029, 530 281.625, 530 284.607 C 530 288.989, 529.991 289, 526.379 289 C 521.759 289, 497.356 311.106, 496.811 315.784 C 496.540 318.115, 494.291 319.683, 479.180 328.076 C 460.191 338.624, 459.320 339.350, 436.045 364.053 L 423.275 377.606 422.539 384.477 C 421.506 394.128, 422.462 393.084, 403.098 405.702 C 389.453 414.592, 383.303 419.339, 375.720 426.834 L 365.940 436.500 366.620 452.750 L 367.301 469 363.401 469.008 C 361.061 469.013, 356.198 467.549, 351.250 465.350 L 343 461.684 343 450.842 L 343 440 307.507 440 L 272.014 440 253.721 449.131 L 235.428 458.261 227.298 473.381 C 220.960 485.167, 218.475 491.024, 216.024 499.951 L 212.879 511.403 218.103 522.723 C 221.954 531.069, 223.875 534.159, 225.413 534.483 C 226.561 534.725, 233.117 535.613, 239.981 536.457 L 252.462 537.992 272.006 524.996 C 297.448 508.078, 301 507.601, 301 521.106 C 301 522.689, 298.086 529.499, 294.463 536.384 L 287.926 548.807 295.213 550.012 C 309.899 552.440, 322.094 554.761, 322.548 555.214 C 322.803 555.470, 323.747 567.339, 324.645 581.590 C 325.543 595.840, 326.553 607.808, 326.889 608.185 C 327.225 608.561, 337.175 610.505, 349 612.505 C 360.825 614.505, 371.440 616.365, 372.589 616.639 C 374.292 617.044, 377.398 613.985, 389.412 600.068 C 406.696 580.047, 403.387 581.286, 426.658 586.113 L 441.815 589.256 448.158 598.192 L 454.500 607.127 468 606.535 C 489.900 605.574, 491 605.352, 491 601.906 C 491 597.925, 497.487 597.789, 505.271 601.607 C 510.311 604.079, 511.158 605.103, 521.594 621.357 L 532.602 638.500 551.551 638.775 L 570.500 639.050 577.340 651.063 L 584.179 663.075 585.194 677.788 C 585.752 685.879, 586.499 692.805, 586.854 693.178 C 587.209 693.551, 596.500 697.291, 607.500 701.488 L 627.500 709.120 654.500 709.712 L 681.500 710.303 689.010 722.729 L 696.519 735.154 707.260 738.628 L 718 742.101 717.964 747.301 C 717.885 758.841, 716.186 762.510, 703.473 778.596 C 696.994 786.793, 691.248 794.074, 690.703 794.775 C 690.159 795.477, 688.033 812.259, 685.979 832.069 C 683.926 851.880, 682.078 868.241, 681.873 868.427 C 681.668 868.614, 676.550 872.691, 670.500 877.487 L 659.500 886.207 642.143 885.853 L 624.787 885.500 618.979 895.546 L 613.171 905.593 616.549 920.046 C 618.407 927.996, 619.944 936.900, 619.964 939.833 L 620 945.165 602.126 967.949 C 589.485 984.062, 582.560 993.888, 578.472 1001.510 L 572.691 1012.287 554.595 1021.037 C 537.282 1029.410, 535.992 1029.863, 524.750 1031.524 L 513 1033.260 512.986 1036.380 C 512.979 1038.096, 512.721 1040.436, 512.414 1041.580 C 511.916 1043.435, 512.650 1043.875, 519.178 1045.643 L 526.500 1047.625 526.795 1053.143 L 527.090 1058.661 519.506 1065.865 L 511.921 1073.069 516.608 1079.034 L 521.295 1085 529.648 1085 L 538 1085 538 1091.455 C 538 1095.884, 537.210 1100.041, 535.483 1104.705 C 534.099 1108.442, 532.702 1114.200, 532.379 1117.500 L 531.790 1123.500 543.871 1133.500 C 556.849 1144.244, 557.038 1144.561, 555.375 1152.875 L 554.750 1156 537.098 1156 L 519.446 1156 501.473 1140.270 L 483.500 1124.540 470.250 1101.253 L 457 1077.967 457.012 1070.233 C 457.021 1064.796, 459.261 1034.073, 459.988 1029.421 C 459.994 1029.377, 455.500 1023.338, 450 1016 C 438.123 1000.153, 438.524 1002.657, 443.513 975.568 C 447.930 951.588, 448.132 953.697, 441.250 951.955 L 435.500 950.500 435.213 899 L 434.927 847.500 421.213 837.408 C 401.020 822.547, 399.618 821.743, 389.114 819 L 379.541 816.500 377.836 807.261 C 375.770 796.064, 378.712 800.670, 353.292 768.839 C 329.429 738.960, 330.406 740.996, 333.513 727.602 C 334.344 724.015, 335.413 713.394, 335.886 704 C 336.360 694.605, 336.917 686.781, 337.124 686.614 C 337.331 686.446, 343.800 681.918, 351.500 676.551 C 359.200 671.185, 366.076 666.249, 366.780 665.582 C 369.124 663.361, 364.215 627.025, 361.556 626.914 C 360.425 626.867, 350.069 626.079, 338.543 625.164 L 317.586 623.500 299.543 603.069 L 281.500 582.639 269.500 579.273 C 262.900 577.423, 253.742 575.196, 249.149 574.326 L 240.797 572.745 241.149 565.138 L 241.500 557.531 233.500 556.341 C 220.604 554.422, 220 554.496, 220 558 C 220 560.838, 219.782 561, 215.963 561 C 212.367 561, 174.094 552.073, 169.792 550.231 C 168.853 549.829, 164.016 543.289, 159.042 535.698 C 148.458 519.543, 147.963 517.271, 153.058 508.244 C 156.030 502.978, 156.068 502.751, 154.408 500.163 C 153.469 498.698, 146.022 487.758, 137.859 475.851 L 123.019 454.202 120.507 438.351 C 116.911 415.660, 118.057 418, 110.540 418 C 102.434 418, 102.823 416.590, 105.432 436.500 L 107.659 453.500 118.369 469.955 L 129.079 486.411 128.790 493.455 L 128.500 500.500 120.237 500.278 C 109.156 499.981, 110.065 500.839, 96.750 478.130 L 85 458.091 85 434.474 L 85 410.857 72.524 404.934 L 60.048 399.011 59.774 382.255 L 59.500 365.500 54.116 379 C 2.930 507.348, -1.723 653.025, 41.152 784.866 C 110.649 998.570, 292.225 1154.735, 515 1192.402 C 536.333 1196.009, 540.670 1196.153, 617.500 1195.803 L 693.500 1195.458 711.500 1192.196 C 854.028 1166.370, 975.695 1097.540, 1067.215 990.960 L 1077.914 978.500 1067.957 978.215 L 1058 977.930 1058 957.950 L 1058 937.969 1046.500 922.648 L 1035 907.328 1035 883.434 L 1035 859.540 1026.275 850.774 L 1017.551 842.009 1017.166 831.618 L 1016.782 821.226 1027.141 801.363 C 1032.838 790.438, 1037.639 780.971, 1037.809 780.325 C 1037.979 779.679, 1028.868 762.804, 1017.562 742.825 C 1000.321 712.358, 997.006 705.855, 997.002 702.500 C 997 700.300, 997.945 688.895, 999.104 677.155 C 1000.262 665.415, 1000.825 655.470, 1000.355 655.055 C 999.885 654.639, 991.400 653.532, 981.500 652.593 L 963.500 650.887 956.476 643.943 L 949.453 637 936.463 637 L 923.472 637 916.824 643 L 910.176 649 887.705 649 C 866.074 649, 865.214 649.075, 864.710 651 C 864.222 652.866, 863.359 652.998, 851.844 652.972 L 839.500 652.944 810.852 620.173 L 782.203 587.402 782.751 562.227 L 783.298 537.052 787.621 535.401 C 792.331 533.602, 792.386 533.503, 794 524 C 794.607 520.425, 795.336 516.712, 795.619 515.750 C 796.075 514.202, 795.333 514, 789.175 514 L 782.215 514 780.542 507.171 C 779.621 503.415, 779.010 498.430, 779.184 496.094 L 779.500 491.847 811 469.105 L 842.500 446.363 843 429.087 L 843.500 411.811 858.500 403.424 L 873.500 395.037 894.785 395.019 L 916.070 395 926.285 389.591 L 936.500 384.183 963.071 382.091 C 977.685 380.941, 992.636 380, 996.297 380 L 1002.952 380 1003.226 396.675 L 1003.500 413.350 1029.930 420.133 C 1052.601 425.951, 1057.093 427.420, 1061.504 430.458 C 1065.757 433.387, 1067.535 434, 1071.786 434 L 1076.925 434 1077.212 424.750 L 1077.500 415.500 1089.500 414.325 C 1108.591 412.455, 1106.052 411.736, 1121.906 423.500 L 1136.056 434 1160.906 434 C 1181.580 434, 1185.961 433.752, 1186.978 432.526 C 1188.347 430.877, 1184.647 417.962, 1176.301 395.250 L 1171.799 383 1155.956 383 L 1140.113 383 1135.177 377.750 C 1124.784 366.697, 1125.205 367.593, 1123.493 352.936 C 1122.635 345.602, 1121.760 339.426, 1121.546 339.213 C 1121.333 339, 1117.544 340.777, 1113.127 343.163 L 1105.096 347.500 1101.835 360.750 L 1098.575 374 1094.378 374 C 1088.148 374, 1074 359.075, 1074 352.504 C 1074 350.193, 1073.709 344.861, 1073.354 340.655 L 1072.707 333.008 1060.604 322.612 C 1053.947 316.895, 1047.178 310.818, 1045.563 309.108 L 1042.626 306 1029.206 306 C 1018.888 306, 1015.894 306.289, 1016.252 307.250 C 1016.508 307.938, 1018.378 313.225, 1020.407 319 L 1024.096 329.500 1039.510 338 L 1054.923 346.500 1054.378 359.500 C 1053.698 375.700, 1054.298 374.271, 1047.043 376.984 C 1041.982 378.877, 1039.749 379.172, 1034.336 378.667 C 1026.179 377.905, 1025 376.967, 1025 371.233 L 1025 366.711 1032.258 367.260 L 1039.516 367.809 1042.320 363.909 C 1045.861 358.983, 1047.912 361.007, 1021.185 343.051 L 998.189 327.601 996.951 321.771 C 995.258 313.791, 995.045 313.806, 985.417 322.547 L 976.918 330.263 970.209 329.608 C 966.519 329.247, 961.700 328.732, 959.500 328.463 L 955.500 327.973 941.114 346.877 C 929.844 361.687, 926.104 367.398, 923.846 373.245 L 920.964 380.710 913.331 381.355 C 909.133 381.710, 898.549 382, 889.810 382 L 873.922 382 866.137 378.441 L 858.351 374.882 856.168 360.191 C 853.425 341.738, 853.426 341.705, 856.812 333.442 L 859.624 326.581 873.327 323.608 L 887.030 320.635 901.765 323.417 C 909.869 324.947, 916.924 326.266, 917.443 326.349 C 918.482 326.515, 922.571 310.237, 921.707 309.374 C 921.411 309.078, 918.994 308.284, 916.335 307.608 C 910.512 306.130, 910.026 304.085, 912.066 289.656 C 913.538 279.251, 912.698 279.870, 928.500 277.533 C 934.550 276.638, 940.675 275.680, 942.112 275.404 C 944.121 275.018, 947.221 271.369, 955.537 259.607 L 966.350 244.313 977.539 242.558 C 988.240 240.880, 989.303 240.881, 1001.841 242.592 C 1009.052 243.576, 1015.270 244.063, 1015.659 243.675 C 1016.296 243.037, 1013.250 216.427, 1012.357 214.832 C 1012.151 214.464, 1008.168 215.702, 1003.506 217.582 C 998.382 219.648, 993.310 221, 990.683 221 L 986.338 221 982.627 211.625 L 978.917 202.250 972.045 201.573 C 964.093 200.790, 963.999 200.668, 964.002 191.168 C 964.005 180.587, 969.681 175.124, 988.002 168.069 L 1001.503 162.870 1004.752 157.006 C 1009.056 149.234, 1009.607 150.369, 996.077 139.105 C 910.658 67.986, 808.049 21.955, 699.500 6.061 C 686.497 4.157, 545.031 2.957, 534 4.658" stroke="none" fill="#FFFFFF" fill-rule="nonzero"/>
</svg>