<svg xmlns="http://www.w3.org/2000/svg" width="400" height="400" viewBox="0 0 400 400" version="1.1">
	<path d="M 160.500 2.001 C 159.474 5.232, 156.262 6.312, 149.711 5.628 C 144.107 5.042, 143.558 5.181, 140.344 8.003 C 138.467 9.651, 135.999 11, 134.860 11 C 133.721 11, 131.418 12.153, 129.743 13.562 C 127.189 15.712, 126.075 16.020, 122.834 15.472 C 119.459 14.902, 118.525 15.210, 115.450 17.910 C 113.514 19.609, 110.977 21, 109.812 21 C 108.641 21, 105.328 23.237, 102.406 26 C 99.130 29.099, 96.221 31, 94.756 31 C 91.088 31, 85.280 37.428, 87.036 39.544 C 88.067 40.785, 89.373 41.021, 92.566 40.542 C 96.110 40.011, 97.206 40.302, 99.767 42.458 C 101.429 43.856, 103.721 45, 104.860 45 C 105.999 45, 108.468 46.350, 110.347 48 C 114.204 51.386, 121.717 52.251, 123.946 49.565 C 126.438 46.563, 124.832 41.638, 121.115 40.884 C 116.319 39.911, 110.192 33.679, 111.950 31.561 C 117.140 25.307, 131 34.172, 131 43.746 C 131 50.181, 132.307 51.293, 138.848 50.426 C 142.254 49.974, 144.600 48.990, 146.113 47.379 C 147.343 46.071, 149.305 45, 150.474 45 C 153.204 45, 155 43.183, 155 40.422 C 155 39.225, 155.675 37.685, 156.500 37 C 158.475 35.361, 161 37.317, 161 40.488 C 161 41.721, 161.944 43.930, 163.097 45.396 C 166.390 49.583, 164.399 51, 155.224 51 L 147.693 51 142.406 56 C 139.135 59.094, 136.220 61, 134.760 61 C 124.984 61, 130.678 78.755, 141.140 80.895 C 143.708 81.420, 144.682 82.261, 145.356 84.539 C 146.857 89.605, 147.630 90.500, 150.500 90.500 C 153.370 90.500, 154.143 89.605, 155.644 84.539 C 156.318 82.261, 157.292 81.420, 159.860 80.895 C 165.874 79.665, 171.253 73.308, 170.513 68.303 C 169.698 62.783, 172.207 60, 178 60 C 182.630 60, 186 62.687, 186 66.378 C 186 69.832, 188.339 71.347, 192.475 70.571 C 196.902 69.740, 200 71.341, 200 74.458 C 200 75.772, 201.173 78.240, 202.606 79.943 C 205.602 83.504, 204.640 86, 200.272 86 C 198.906 86, 196.452 87.125, 194.818 88.500 C 191 91.712, 189.807 91.647, 185.653 88 C 180.515 83.489, 176 84.374, 176 89.892 C 176 93.362, 158.428 111, 154.971 111 C 151.643 111, 141 121.551, 141 124.850 C 141 128.169, 133.097 136, 129.748 136 C 125.195 136, 120.115 142.845, 120.716 148.171 C 121.085 151.448, 120.801 152.921, 119.606 153.912 C 117.391 155.750, 115 153.686, 115 149.937 C 115 145.924, 113.925 145.596, 100.512 145.519 C 89.217 145.454, 88.341 145.592, 85.831 147.835 C 84.363 149.146, 81.678 150.523, 79.865 150.894 C 77.145 151.450, 76.450 152.145, 75.894 154.865 C 75.523 156.678, 74.106 159.363, 72.744 160.831 C 70.103 163.679, 69.217 176.641, 71.510 178.892 C 73.844 181.184, 87.760 180.575, 90.432 178.063 C 93.486 175.195, 96 176.560, 96 181.087 C 96 184.101, 98.280 186, 101.899 186 C 104.509 186, 106 188.839, 106 193.812 C 106 200.724, 103.819 201.065, 97.547 195.133 C 94.111 191.883, 91.237 190, 89.715 190 C 88.392 190, 86.495 189.100, 85.500 188 C 83.921 186.255, 82.420 186, 73.735 186 L 63.781 186 57.319 179.726 L 50.857 173.451 53.009 170.716 L 55.161 167.980 52.580 164.913 C 51.161 163.227, 50 160.934, 50 159.818 C 50 158.702, 48.875 156.452, 47.500 154.818 C 46.125 153.184, 45 150.826, 45 149.578 C 45 148.331, 44.100 146.495, 43 145.500 C 41.900 144.505, 41 142.465, 41 140.967 C 41 136.643, 38.619 135.368, 35.348 137.941 L 32.634 140.076 26.817 134.319 C 22.630 130.175, 21 127.818, 21 125.904 C 21 122.292, 18.572 120.281, 16.394 122.088 C 15.202 123.077, 14.915 124.552, 15.281 127.804 C 15.711 131.612, 15.385 132.631, 12.797 135.578 C 10.213 138.522, 9.905 139.481, 10.472 142.834 C 11.030 146.137, 10.716 147.184, 8.312 150.043 L 5.500 153.387 5.857 167.058 C 6.233 181.430, 5.623 184.350, 2.001 185.500 C -1.094 186.482, -1.094 214.518, 2.001 215.500 C 5.623 216.650, 6.233 219.570, 5.857 233.942 L 5.500 247.613 8.312 250.957 C 10.716 253.816, 11.030 254.863, 10.472 258.166 C 9.900 261.554, 10.208 262.473, 12.978 265.628 C 15.758 268.794, 16.058 269.695, 15.478 273.128 C 14.901 276.548, 15.201 277.465, 17.910 280.550 C 19.609 282.486, 21 285.001, 21 286.140 C 21 287.279, 22.125 289.548, 23.500 291.182 C 24.875 292.816, 26 295.088, 26 296.230 C 26 297.372, 28.250 300.686, 31 303.594 C 33.901 306.661, 36 309.809, 36 311.094 C 36 312.378, 38.099 315.526, 41 318.594 C 44.046 321.814, 46 324.788, 46 326.202 C 46 329.467, 76.554 360, 79.821 360 C 81.208 360, 84.217 361.984, 87.406 365 C 90.474 367.901, 93.622 370, 94.906 370 C 96.191 370, 99.339 372.099, 102.406 375 C 105.328 377.763, 108.641 380, 109.812 380 C 110.977 380, 113.514 381.391, 115.450 383.090 C 118.525 385.790, 119.459 386.098, 122.834 385.528 C 126.075 384.980, 127.189 385.288, 129.743 387.438 C 131.418 388.847, 133.721 390, 134.860 390 C 135.999 390, 138.456 391.339, 140.320 392.976 C 143.552 395.813, 144.015 395.923, 150.275 395.339 C 156.463 394.761, 156.982 394.878, 159.285 397.363 L 161.729 400 205.500 400 L 249.271 400 251.664 397.417 C 253.745 395.172, 254.579 394.922, 258.044 395.507 C 261.577 396.104, 262.439 395.821, 265.628 393.022 C 268.794 390.242, 269.695 389.942, 273.128 390.522 C 276.548 391.099, 277.465 390.799, 280.550 388.090 C 282.486 386.391, 285.001 385, 286.140 385 C 287.279 385, 289.548 383.875, 291.182 382.500 C 292.816 381.125, 295.066 380, 296.182 380 C 297.298 380, 299.548 378.875, 301.182 377.500 C 302.816 376.125, 305.088 375, 306.230 375 C 307.372 375, 310.686 372.750, 313.594 370 C 316.698 367.064, 319.804 365, 321.118 365 C 322.552 365, 326.127 362.304, 331.063 357.500 C 336.347 352.358, 339.531 350, 341.189 350 C 344.237 350, 350 344.207, 350 341.143 C 350 339.793, 352.063 336.699, 355.115 333.472 L 360.231 328.063 357.553 324.881 C 355.286 322.186, 354.975 321.105, 355.528 317.834 C 356.098 314.459, 355.790 313.525, 353.090 310.450 C 351.391 308.514, 350 305.999, 350 304.860 C 350 303.721, 348.819 301.386, 347.376 299.671 C 344.959 296.797, 344.800 296.048, 345.352 290.131 C 345.921 284.036, 345.800 283.537, 342.976 280.320 C 338.946 275.730, 339.149 274.744, 345.500 268.085 C 348.525 264.914, 351 261.501, 351 260.500 C 351 259.499, 348.525 256.086, 345.500 252.915 C 342.279 249.538, 340 246.245, 340 244.969 C 340 243.770, 338.819 241.385, 337.375 239.670 C 334.861 236.681, 334.771 236.164, 335.235 227.303 C 335.818 216.151, 334.749 214.360, 328.176 215.470 C 324.704 216.057, 323.804 215.767, 320.731 213.069 C 315.877 208.807, 310.152 208.781, 305.347 213 C 302.083 215.866, 301.522 216, 292.773 216 L 283.615 216 274.179 206.564 L 264.743 197.128 265.238 185.314 C 265.727 173.647, 265.700 173.465, 263.116 170.681 L 260.500 167.862 264.711 163.931 C 267.103 161.698, 269.924 160, 271.240 160 C 276.055 160, 286.330 147.915, 285.532 143.190 C 284.362 136.265, 287.041 134.611, 298.376 135.257 C 307.326 135.768, 307.549 135.725, 310.780 132.888 C 317.332 127.136, 331 129.494, 331 136.378 C 331 139.917, 333.281 141.297, 337.852 140.525 C 341.291 139.944, 342.204 140.240, 345.269 142.931 C 350.123 147.193, 355.848 147.219, 360.653 143 C 364.843 139.321, 365.990 139.280, 370.010 142.662 C 373.070 145.237, 373.612 145.328, 386.587 145.457 L 400 145.591 400 142.796 C 400 141.007, 399.472 140, 398.535 140 C 396.244 140, 394.784 136.240, 395.478 132.129 C 396.358 126.923, 393.724 124.533, 388.147 125.475 C 383.122 126.324, 376 120.772, 376 116.006 C 376 110.357, 373.390 110.191, 368 115.500 C 362.641 120.778, 360 120.645, 360 115.099 C 360 109.778, 348.313 99.813, 342.514 100.189 C 336.380 100.586, 334.462 102.934, 337.960 105.766 C 339.302 106.854, 340.009 108.176, 339.600 108.838 C 338.745 110.221, 336 110.399, 336 109.071 C 336 104.940, 329.382 103.900, 326 107.500 C 323.822 109.818, 323.483 109.891, 321.360 108.500 C 317.846 106.198, 316 106.601, 316 109.672 C 316 111.641, 314.203 114.142, 309.172 119.172 C 300.438 127.907, 296.528 128.475, 289.711 122 L 285.500 118 289.855 113.866 L 294.210 109.732 301.047 110.368 C 310.426 111.239, 314.301 106.450, 308.572 101.068 C 305.722 98.390, 306.214 96, 309.616 96 C 311.142 96, 314.251 93.947, 318.144 90.368 L 324.270 84.736 330.828 85.348 C 339.151 86.126, 341 84.798, 341 78.045 C 341 72.872, 339.740 71, 336.261 71 C 334.919 71, 332.128 69.323, 329.711 67.064 L 325.500 63.128 328.946 59.564 C 331.211 57.222, 333.311 56, 335.074 56 C 336.548 56, 338.338 55.298, 339.050 54.440 C 340.723 52.424, 319.969 31, 316.344 31 C 315.139 31, 312.816 29.875, 311.182 28.500 C 309.548 27.125, 307.298 26, 306.182 26 C 305.066 26, 302.816 24.875, 301.182 23.500 C 299.548 22.125, 297.298 21, 296.182 21 C 295.066 21, 292.816 19.875, 291.182 18.500 C 289.548 17.125, 287.279 16, 286.140 16 C 285.001 16, 282.486 14.609, 280.550 12.910 C 277.465 10.201, 276.548 9.901, 273.128 10.478 C 269.692 11.059, 268.794 10.758, 265.606 7.959 C 262.510 5.240, 261.482 4.875, 258.507 5.433 C 254.489 6.187, 251.410 4.867, 250.500 2.001 C 249.502 -1.144, 161.498 -1.144, 160.500 2.001 M 185.139 33.033 C 183.581 34.332, 181.287 35, 178.389 35 C 171.666 35, 167.400 40.597, 171.519 44.016 C 172.763 45.048, 173.405 44.943, 175.073 43.434 C 180.899 38.162, 192.787 39.862, 199.290 46.899 C 203.323 51.262, 206.786 52.167, 209.044 49.447 C 210.836 47.288, 200.173 36.393, 194.870 34.965 C 192.870 34.426, 190.675 33.314, 189.994 32.493 C 188.420 30.596, 188.010 30.641, 185.139 33.033 M 192 51.500 C 190.249 53.610, 192.542 56.196, 195.814 55.801 C 199.070 55.407, 201.107 52.330, 199 50.987 C 196.759 49.559, 193.407 49.804, 192 51.500 M 301.446 72.087 C 300.416 73.755, 302.733 75.667, 304.113 74.287 C 305.267 73.133, 304.545 71, 303 71 C 302.515 71, 301.816 71.489, 301.446 72.087 M 304.004 84.496 C 300.856 87.743, 300.716 88.145, 302.210 89.639 C 305.755 93.184, 313.044 87.464, 310.374 83.232 C 308.700 80.578, 307.588 80.799, 304.004 84.496 M 31.200 147.200 C 28.208 150.192, 31.332 156.629, 34.500 154 C 36.958 151.960, 35.840 146, 33 146 C 32.670 146, 31.860 146.540, 31.200 147.200 M 36.446 162.087 C 35.416 163.755, 37.733 165.667, 39.113 164.287 C 40.267 163.133, 39.545 161, 38 161 C 37.515 161, 36.816 161.489, 36.446 162.087 M 131.019 202.558 L 124.722 209.117 125.340 215.740 L 125.959 222.363 120.479 228.107 L 115 233.852 115 240.349 C 115 245.821, 115.395 247.316, 117.500 249.818 C 118.875 251.452, 120 253.810, 120 255.058 C 120 256.626, 123.947 261.318, 132.750 270.215 L 145.500 283.103 145.144 297.396 L 144.788 311.689 147.783 315.100 C 150.742 318.470, 150.771 318.615, 150.260 327.574 C 149.748 336.547, 149.774 336.673, 152.760 340.074 C 155.756 343.486, 155.773 343.574, 155.249 352.771 L 154.721 362.032 166.557 374.016 C 178.541 386.149, 181.270 387.789, 184 384.500 C 185.753 382.388, 183.737 380.202, 179.676 379.808 C 176.585 379.508, 176.486 379.347, 175.993 373.808 C 175.614 369.562, 174.836 367.403, 172.929 365.308 C 170.535 362.679, 170.380 361.885, 170.492 352.837 C 170.639 340.934, 171.463 339.542, 177.807 340.494 L 182.228 341.157 191.614 331.771 C 198.016 325.369, 201 321.654, 201 320.087 C 201 318.823, 202.182 316.384, 203.626 314.668 C 206.050 311.787, 206.209 311.034, 205.692 304.869 C 204.985 296.435, 206.557 294.411, 212.975 295.496 C 216.878 296.155, 217.295 295.968, 221.676 291.587 L 226.277 286.987 225.741 277.743 L 225.205 268.500 230.603 262.824 C 236.870 256.233, 237.005 255.540, 233 250.500 C 231.350 248.424, 230 245.678, 230 244.398 C 230 240.710, 226.750 239.671, 217.095 240.274 C 208.744 240.795, 208.467 240.739, 205.237 237.904 C 203.419 236.307, 200.876 235, 199.588 235 C 196.085 235, 194.841 232.850, 195.599 228.109 C 196.598 221.858, 189.187 214.455, 182.980 215.503 C 179.017 216.173, 178.693 216.011, 172.872 210.460 L 166.859 204.724 160.284 205.338 C 154.013 205.923, 153.552 205.814, 150.320 202.976 C 148.456 201.339, 145.891 200, 144.620 200 C 143.350 200, 141.495 199.100, 140.500 198 C 138.004 195.242, 138.081 195.204, 131.019 202.558" stroke="none" fill="#FFFFFF" fill-rule="nonzero"/>
</svg>