<svg xmlns="http://www.w3.org/2000/svg" width="1200" height="489" viewBox="0 0 1200 489" version="1.1">
	<path d="M 1120.336 19.567 C 1119.502 21.739, 1121.618 23.782, 1123.133 22.267 C 1124.413 20.987, 1123.620 18, 1122 18 C 1121.415 18, 1120.667 18.705, 1120.336 19.567 M 8.391 52.423 C 7.596 54.495, 9.955 56.445, 11.449 54.951 C 12.069 54.331, 11.818 53.389, 10.744 52.315 C 9.183 50.755, 9.029 50.762, 8.391 52.423 M 781.869 52.018 C 775.473 52.485, 766.023 53.572, 760.869 54.434 C 755.716 55.297, 746.536 56.426, 740.468 56.943 C 727.720 58.030, 724.615 58.998, 720.545 63.157 C 711.699 72.197, 689.206 84.602, 678.169 86.529 C 673.637 87.320, 669.004 88.463, 667.873 89.068 C 664.582 90.829, 654.063 89.503, 638 85.301 C 634.975 84.510, 630.250 83.405, 627.500 82.845 C 615.510 80.404, 609.112 78.439, 603.500 75.473 C 600.200 73.729, 595.700 71.753, 593.500 71.082 C 591.300 70.410, 585.066 68.224, 579.647 66.224 L 569.794 62.586 557.647 64.343 C 550.966 65.309, 541.225 67.173, 536 68.485 C 518.905 72.776, 504.787 75.074, 487 76.459 C 472.442 77.594, 468.453 78.258, 463.270 80.411 C 459.843 81.835, 456.544 83, 455.937 83 C 455.331 83, 451.835 84.297, 448.168 85.881 C 441.532 88.749, 441.369 88.766, 414.500 89.428 C 399.650 89.794, 384.800 90.508, 381.500 91.015 C 378.200 91.522, 365.825 92.619, 354 93.453 C 306.848 96.778, 292.549 98.479, 269.500 103.503 C 262.900 104.942, 250.495 107.390, 241.933 108.943 C 223.930 112.209, 175.457 123.909, 163 127.995 C 144.146 134.179, 134.315 139.631, 108 158.498 C 94.831 167.939, 80.141 176.610, 74.936 178.015 C 70.227 179.286, 55.157 191.912, 41.852 205.734 C 28.947 219.140, 25.525 224.464, 26.402 229.770 C 28.255 240.991, 28.283 244.072, 26.543 245.345 C 25.069 246.423, 24.839 248.440, 24.897 259.799 L 24.963 273 19.232 273.005 C 5.017 273.017, 3.117 284.762, 15.123 298.402 C 18.713 302.481, 19.122 303.468, 18.877 307.457 C 18.726 309.920, 18.916 312.250, 19.301 312.634 C 19.685 313.019, 20 314.743, 20 316.467 C 20 320.689, 21.588 322, 26.700 322 C 30.333 322, 31 321.690, 31 320 C 31 317.283, 37.622 317.256, 42.905 319.952 C 45.009 321.025, 55.004 324.680, 65.115 328.073 C 75.227 331.466, 89.125 336.584, 96 339.446 C 111.506 345.899, 119.702 348.746, 152.500 359.064 C 166.800 363.563, 183.836 368.989, 190.358 371.122 C 196.880 373.255, 202.947 375, 203.839 375 C 204.732 375, 210.705 377.499, 217.113 380.554 C 234.193 388.696, 240.865 389.853, 277.187 390.969 C 302.480 391.746, 307.848 392.181, 313.450 393.912 C 325.412 397.607, 343.352 400.062, 372.500 401.993 C 392.689 403.330, 406.172 404.701, 417 406.516 C 453.038 412.556, 473.884 413.685, 490.187 410.479 C 500.063 408.537, 508.793 407.636, 524 406.988 C 541.653 406.237, 545.680 405.755, 553 403.517 C 561.358 400.963, 561.968 400.922, 589.500 401.084 L 617.500 401.248 624.228 398.124 C 633.644 393.752, 639.958 394.305, 661.284 401.372 C 666.903 403.234, 673.642 405.065, 676.259 405.441 C 681.312 406.168, 690.340 409.135, 700.984 413.568 C 704.550 415.053, 713.100 417.759, 719.984 419.582 C 735.886 423.791, 750.897 429.369, 768 437.423 C 797.335 451.238, 835.425 458.287, 849.398 452.486 C 851.104 451.778, 856.513 450.711, 861.418 450.115 C 880.443 447.803, 903.694 429.082, 908.136 412.500 C 908.725 410.300, 909.948 406.715, 910.854 404.532 C 913.967 397.030, 913.183 378.592, 909.500 372.702 C 907.850 370.063, 905.483 366.013, 904.241 363.702 C 902.999 361.391, 901.086 358.281, 899.991 356.790 C 898.753 355.106, 898 352.501, 898 349.904 L 898 345.726 904.250 346.274 C 907.688 346.575, 914.325 348.015, 919 349.474 C 923.675 350.933, 931.755 352.992, 936.955 354.051 C 949.403 356.585, 955.787 358.720, 959.743 361.672 C 961.527 363.003, 964.902 364.674, 967.243 365.386 C 969.585 366.098, 974.545 368.553, 978.268 370.841 C 981.990 373.128, 985.365 375.002, 985.768 375.004 C 986.170 375.007, 988.525 376.384, 991 378.065 C 1007.468 389.250, 1078.061 421.946, 1089 423.456 C 1091.475 423.797, 1096.322 425.023, 1099.771 426.180 C 1106.380 428.398, 1127.557 427.735, 1137.113 425.011 C 1161.330 418.110, 1177.011 371.006, 1168.212 331.591 C 1166.960 325.982, 1166 318.279, 1166 313.841 L 1166 306 1169.500 306 C 1171.425 306, 1173 305.550, 1173 305 C 1173 304.450, 1171.425 304, 1169.500 304 L 1166 304 1166.020 296.750 C 1166.044 287.828, 1167.562 276.827, 1169.503 271.500 C 1170.304 269.300, 1171.641 263.450, 1172.474 258.500 C 1173.941 249.778, 1178.143 235.598, 1183.353 221.781 C 1190.451 202.960, 1188.083 193.246, 1173.778 182.492 C 1152.908 166.804, 1132.686 166.329, 1089 180.502 C 1078.275 183.981, 1059.600 189.104, 1047.500 191.887 C 1035.400 194.670, 1020.729 198.289, 1014.898 199.929 C 1009.067 201.569, 999.617 204.026, 993.898 205.388 C 982.100 208.199, 976.675 209.572, 969.483 211.565 C 942.650 219.002, 875.222 219.438, 849.750 212.339 L 844 210.736 844 206.505 L 844 202.274 854.250 201.137 C 859.888 200.512, 872.825 199.320, 883 198.490 C 914.542 195.916, 911.658 197.010, 923.013 183.300 L 930.987 173.673 930.418 165.086 C 929.498 151.172, 928.062 141.730, 926.612 140.061 C 925.867 139.202, 924.484 136.125, 923.539 133.223 C 922.594 130.320, 917.249 120.993, 911.661 112.495 C 906.072 103.997, 900.158 94.897, 898.519 92.272 C 888.182 75.726, 866.928 59.632, 848 54.017 C 839.409 51.469, 804.047 50.400, 781.869 52.018 M 16.336 86.567 C 15.502 88.739, 17.618 90.782, 19.133 89.267 C 20.413 87.987, 19.620 85, 18 85 C 17.415 85, 16.667 85.705, 16.336 86.567 M 1179.217 157.166 C 1179.459 157.900, 1180.684 158.650, 1181.940 158.834 C 1183.491 159.061, 1184.082 158.741, 1183.783 157.834 C 1183.541 157.100, 1182.316 156.350, 1181.060 156.166 C 1179.509 155.939, 1178.918 156.259, 1179.217 157.166 M 64.446 344.087 C 63.416 345.755, 65.733 347.667, 67.113 346.287 C 68.267 345.133, 67.545 343, 66 343 C 65.515 343, 64.816 343.489, 64.446 344.087" stroke="none" fill="#FFFFFF" fill-rule="nonzero"/>
</svg>