<svg width="352" height="140" xmlns="http://www.w3.org/2000/svg" xmlns:xlink="http://www.w3.org/1999/xlink" xml:space="preserve" overflow="hidden"><g transform="translate(-464 -290)"><path d="M73.4667 340.533C67.0667 336 57.4667 311.333 53.3333 288.933 51.8667 280.667 51.2 279.467 46.8 276.667 44.1333 275.067 38 272.267 33.2 270.8 28.2667 269.2 22 266 19.2 263.467 14.4 259.333 14.2667 258.933 16.6667 257.733 18.1333 256.933 24.4 255.867 30.6667 255.333 47.0667 254 46.8 254.4 46.4 238.933L46 226 41.3333 225.2C33.6 223.867 23.3333 218.8 18.5333 213.867 14.1333 209.2 14 209.067 16.6667 207.2 18.6667 205.733 22.8 205.333 33.3333 205.6 41.2 205.733 48.2667 205.333 49.2 204.8 50.4 204 50.6667 201.2 50.1333 194.8 49.7333 189.333 49.8667 187.2 50.5333 189.333L51.6 192.667 52.4 189.333C62.4 146.933 61.8667 135.867 48.5333 120.133 45.2 116.133 44.9333 116 43.0667 118.267 41.3333 120.533 41.2 120.4 42 117.6 42.6667 115.333 41.7333 113.333 38.2667 109.467 31.4667 102 27.4667 88.9333 27.3333 74 27.3333 64.4 27.7333 62 29.2 62 30.6667 62 31.8667 65.3333 33.4667 73.3333 36.9333 90.9333 38.4 95.3333 42 98.6667 43.8667 100.4 45.4667 101.6 45.7333 101.2 45.8667 100.933 47.2 98.4 48.4 95.4667 51.4667 88.6667 52.5333 90 49.7333 97.0667 48.5333 100.133 47.8667 102.933 48.1333 103.067 48.4 103.333 51.6 105.2 55.0667 107.2 58.6667 109.2 65.7333 114.533 70.8 118.8 75.8667 123.2 80 126 80.1333 125.067 80.1333 124.133 80.8 124.8 81.6 126.667 82.4 128.533 85.4667 134.933 88.4 141.067L93.7333 152.133 96.9333 149.067C98.8 147.333 101.867 143.067 103.733 139.333 106.667 133.6 107.2 130.8 107.467 118.267 107.6 110.267 108.133 103.467 108.533 102.933 111.067 100.4 112.533 106.667 113.067 121.733 113.733 140.4 111.6 148.267 103.333 159.067 100.8 162.4 98.6667 165.467 98.6667 165.867 98.6667 166.267 101.2 166.8 104.4 167.067L110 167.6 104.667 167.733 99.3333 168 99.3333 190.533C99.3333 202.933 99.7333 213.467 100.133 213.867 100.533 214.4 106 215.733 112.133 216.8 123.333 218.933 130.667 221.733 130.667 223.867 130.667 227.333 121.467 230.133 106.8 231.067 101.333 231.467 96.5333 232.4 96 233.2 94.8 235.333 98.5333 257.733 100.4 258.933 101.2 259.333 106.4 260.267 112 260.667 123.867 261.733 130.933 263.733 130.267 265.733 129.467 268.267 117.2 274.4 109.6 276.133 101.2 278.133 101.067 278.267 98.1333 296.8 93.0667 328.933 82.8 347.067 73.4667 340.533ZM82.4 336.933C88.9333 330 94.4 311.867 98 285.733 98.5333 281.867 99.6 278.267 100.4 277.6 101.333 277.067 105.6 275.467 110 274.133 120.533 270.933 128.667 266.8 127.2 265.333 126.533 264.667 120.533 263.467 113.733 262.667 107.067 262 100.667 260.933 99.4667 260.533 98.4 260.133 97.0667 257.6 96.5333 254.933 94.2667 241.733 94 241.333 92.1333 250.667 89.2 265.067 78 291.067 73.3333 294 70.8 295.6 65.4667 290.933 62.1333 284.267 58.8 277.733 53.4667 261.333 50.1333 247.333L48.2667 239.333 48.1333 246.133C48 250.133 47.2 253.6 46.2667 254.533 44.8 255.6 25.4667 258.533 18.1333 258.667 14.8 258.667 22.6667 264.267 30.4 267.333 35.3333 269.333 41.6 271.867 44.2667 272.933 47.0667 274.133 50.1333 276.133 51.3333 277.333 52.5333 278.667 54.8 286.533 56.6667 294.8 59.7333 309.867 62.6667 318.933 68.1333 329.733 73.6 340.533 77.2 342.4 82.4 336.933ZM48.9333 236.4C48.4 236 48 236.4 48 237.333 48 238.267 48.4 238.667 48.9333 238.267 49.3333 237.733 49.3333 236.933 48.9333 236.4ZM102.133 157.733C110.267 147.067 113.6 129.467 110.8 113.333 109.867 108.133 109.6 108.8 109.467 119.333 109.333 132.8 105.867 142.533 98.5333 150.133 95.3333 153.467 94.8 154.933 95.4667 158.4 96 160.8 96.8 162.667 97.3333 162.667 97.8667 162.667 100 160.4 102.133 157.733Z" stroke="#000000" stroke-width="4" fill="#171717" transform="matrix(6.12323e-17 1 1 -6.12323e-17 464 290)"/><path d="M44 181.733C42.9333 181.333 40.5333 180.4 38.8 179.733 37.0667 179.067 35.8667 178.267 36.2667 178 37.0667 177.067 46.4 179.867 47.3333 181.333 48.2667 182.8 47.0667 182.933 44 181.733Z" stroke="#000000" stroke-width="4" fill="#171717" transform="matrix(6.12323e-17 1 1 -6.12323e-17 464 290)"/><path d="M102.667 180.267C102.667 179.333 104.8 178.267 114 174.8 114.933 174.533 114.933 174.8 114 175.733 112.133 177.867 102.667 181.6 102.667 180.267Z" stroke="#000000" stroke-width="4" fill="#171717" transform="matrix(6.12323e-17 1 1 -6.12323e-17 464 290)"/><path d="M24.6667 174.667C21.7333 173.2 20.4 172.267 21.7333 172.667 23.2 173.067 25.7333 173.733 27.4667 174.133 29.2 174.533 30.6667 175.467 30.6667 176.133 30.6667 177.6 30.9333 177.733 24.6667 174.667Z" stroke="#000000" stroke-width="4" fill="#171717" transform="matrix(6.12323e-17 1 1 -6.12323e-17 464 290)"/><path d="M119.467 171.733C120 170.133 119.6 169.333 118.267 169.333 117.067 169.333 115.733 168.667 115.2 167.867 114.533 166.667 115.333 166.533 118.133 167.2 123.333 168.533 123.6 169.067 120.8 171.733 118.667 173.867 118.533 173.867 119.467 171.733Z" stroke="#000000" stroke-width="4" fill="#171717" transform="matrix(6.12323e-17 1 1 -6.12323e-17 464 290)"/><path d="M18.6667 168.133C21.8667 166.267 30.2667 164.8 28.6667 166.4 28 167.067 24.9333 168 22 168.4 18.8 168.933 17.4667 168.8 18.6667 168.133Z" stroke="#000000" stroke-width="4" fill="#171717" transform="matrix(6.12323e-17 1 1 -6.12323e-17 464 290)"/><path d="M38.4 165.067C40.8 164.267 42.6667 162.667 42.8 161.467 42.8 159.733 43.0667 159.733 43.6 161.2 44.5333 163.6 40.4 166.667 36.8 166.533 34.8 166.4 35.3333 166 38.4 165.067Z" stroke="#000000" stroke-width="4" fill="#171717" transform="matrix(6.12323e-17 1 1 -6.12323e-17 464 290)"/><path d="M42.2667 152.8C41.7333 151.467 41.3333 148.533 41.4667 146.267 41.6 142.133 41.6 142.133 42.8 147.2 44.1333 152.933 43.7333 156.8 42.2667 152.8Z" stroke="#000000" stroke-width="4" fill="#171717" transform="matrix(6.12323e-17 1 1 -6.12323e-17 464 290)"/><path d="M40 131.333C40 128 40.6667 125.333 41.3333 125.333 42.1333 125.333 42.6667 128 42.6667 131.333 42.6667 134.667 42.1333 137.333 41.3333 137.333 40.6667 137.333 40 134.667 40 131.333Z" stroke="#000000" stroke-width="4" fill="#171717" transform="matrix(6.12323e-17 1 1 -6.12323e-17 464 290)"/><path d="M78.6667 116.8C78.6667 115.867 78.2667 112.933 77.8667 110.533 77.3333 108 77.4667 106.4 78 106.933 79.4667 108.4 81.2 118.667 79.8667 118.667 79.2 118.667 78.6667 117.867 78.6667 116.8Z" stroke="#000000" stroke-width="4" fill="#171717" transform="matrix(6.12323e-17 1 1 -6.12323e-17 464 290)"/><path d="M77.7333 94.6667C77.7333 90.6667 78 88.9333 78.2667 91.0667 78.5333 93.0667 78.5333 96.2667 78.2667 98.4 78 100.4 77.7333 98.6667 77.7333 94.6667Z" stroke="#000000" stroke-width="4" fill="#171717" transform="matrix(6.12323e-17 1 1 -6.12323e-17 464 290)"/><path d="M55.6 82.9333C58.1333 78.2667 61.3333 74.8 61.3333 76.8 61.3333 77.4667 59.4667 80.1333 57.2 82.6667L53.0667 87.3333 55.6 82.9333Z" stroke="#000000" stroke-width="4" fill="#171717" transform="matrix(6.12323e-17 1 1 -6.12323e-17 464 290)"/><path d="M77.3333 82.4C77.3333 79.3333 80.1333 72 81.3333 72 81.8667 72 81.4667 74.5333 80.4 77.6 78.2667 84 77.3333 85.3333 77.3333 82.4Z" stroke="#000000" stroke-width="4" fill="#171717" transform="matrix(6.12323e-17 1 1 -6.12323e-17 464 290)"/><path d="M65.3333 70C68.1333 66.1333 72.1333 62.2667 72.8 62.9333 73.0667 63.2 71.0667 65.6 68.4 68.1333 65.6 70.6667 64.2667 71.4667 65.3333 70Z" stroke="#000000" stroke-width="4" fill="#171717" transform="matrix(6.12323e-17 1 1 -6.12323e-17 464 290)"/><path d="M86.9333 62C88.5333 58.6667 90.1333 56.4 90.4 57.2 90.9333 58.8 87.2 66.1333 85.3333 67.3333 84.5333 67.8667 85.3333 65.4667 86.9333 62Z" stroke="#000000" stroke-width="4" fill="#171717" transform="matrix(6.12323e-17 1 1 -6.12323e-17 464 290)"/><path d="M77.2 58C79.4667 53.6 84 48.5333 84 50.2667 84 51.2 82.1333 53.8667 79.8667 56.2667 77.7333 58.6667 76.4 59.4667 77.2 58Z" stroke="#000000" stroke-width="4" fill="#171717" transform="matrix(6.12323e-17 1 1 -6.12323e-17 464 290)"/><path d="M91.7333 44.6667C92 41.3333 92.9333 38.6667 93.6 38.6667 94.4 38.6667 94.6667 40.4 94.1333 42.8 93.7333 45.0667 93.3333 47.8667 93.3333 48.8 93.3333 49.8667 92.9333 50.6667 92.2667 50.6667 91.7333 50.6667 91.4667 48 91.7333 44.6667Z" stroke="#000000" stroke-width="4" fill="#171717" transform="matrix(6.12323e-17 1 1 -6.12323e-17 464 290)"/><path d="M86.2667 40.5333C86.6667 37.7333 87.6 34.4 88.2667 33.3333 89.0667 32 89.0667 33.4667 88.5333 37.3333 88.1333 40.6667 87.2 43.8667 86.5333 44.5333 85.8667 45.2 85.7333 43.4667 86.2667 40.5333Z" stroke="#000000" stroke-width="4" fill="#171717" transform="matrix(6.12323e-17 1 1 -6.12323e-17 464 290)"/><path d="M92.1333 27.0667C92.2667 20 92.9333 20.5333 93.6 28.4 93.8667 31.0667 93.6 33.3333 93.0667 33.3333 92.5333 33.3333 92 30.5333 92.1333 27.0667Z" stroke="#000000" stroke-width="4" fill="#171717" transform="matrix(6.12323e-17 1 1 -6.12323e-17 464 290)"/><path d="M88.2667 25.2C88.1333 24 87.6 20.9333 87.2 18.5333 86.5333 15.0667 86.6667 14.4 87.8667 15.4667 88.8 16.4 89.3333 19.2 88.9333 22.1333 88.6667 25.0667 88.4 26.4 88.2667 25.2Z" stroke="#000000" stroke-width="4" fill="#171717" transform="matrix(6.12323e-17 1 1 -6.12323e-17 464 290)"/><path d="M90.6667 12.6667C90.6667 10.8 90 9.33333 89.0667 9.33333 87.8667 9.33333 87.8667 8.93333 89.0667 7.73333 91.0667 5.73333 91.4667 6.26667 92.6667 11.7333 93.2 14.4 93.0667 16 92.1333 16 91.3333 16 90.6667 14.5333 90.6667 12.6667Z" stroke="#000000" stroke-width="4" fill="#171717" transform="matrix(6.12323e-17 1 1 -6.12323e-17 464 290)"/></g></svg>