<svg xmlns="http://www.w3.org/2000/svg" width="400" height="400" viewBox="0 0 400 400" version="1.1">
	<path d="M 9.694 58.532 C 7.871 60.135, 5.682 61, 3.444 61 L 0 61 0 195.500 C 0 277.049, 0.363 330, 0.923 330 C 1.431 330, 3.192 331.132, 4.836 332.515 L 7.825 335.031 200.452 335.031 L 393.079 335.031 397.039 331.848 L 401 328.665 400.768 194.083 C 400.640 120.062, 400.303 76.825, 400.018 98 L 399.500 136.500 397.119 134.119 C 394.868 131.868, 394.766 131.238, 395.257 122.624 C 395.772 113.594, 395.749 113.478, 392.760 110.074 C 389.774 106.673, 389.748 106.547, 390.260 97.574 C 390.772 88.602, 390.746 88.475, 387.761 85.075 C 384.879 81.793, 384.772 81.347, 385.356 75.095 C 386.031 67.860, 381.660 61, 376.374 61 C 375.153 61, 372.769 59.835, 371.077 58.411 L 368 55.822 364.849 58.474 C 362.187 60.714, 361.099 61.024, 357.834 60.472 C 354.459 59.902, 353.525 60.210, 350.450 62.910 C 348.514 64.609, 345.999 66, 344.860 66 C 343.721 66, 341.418 67.153, 339.743 68.562 C 337.189 70.712, 336.075 71.020, 332.834 70.472 C 329.459 69.902, 328.525 70.210, 325.450 72.910 C 323.514 74.609, 320.999 76, 319.860 76 C 318.721 76, 316.418 77.153, 314.743 78.562 C 312.189 80.712, 311.075 81.020, 307.834 80.472 C 304.459 79.902, 303.525 80.210, 300.450 82.910 C 298.514 84.609, 295.999 86, 294.860 86 C 293.721 86, 291.452 87.125, 289.818 88.500 C 288.184 89.875, 285.783 91, 284.482 91 C 281.192 91, 280.559 92.471, 280.399 100.500 C 280.136 113.704, 291.758 120.810, 300.731 112.931 C 303.791 110.245, 304.712 109.945, 308.128 110.522 C 311.561 111.102, 312.463 110.801, 315.628 108.022 C 318.745 105.285, 319.726 104.947, 322.962 105.494 C 326.083 106.021, 327.221 105.685, 329.869 103.457 C 335.395 98.807, 338.374 104.025, 333.500 109.818 C 332.125 111.452, 331 113.763, 331 114.954 C 331 116.181, 328.833 119.411, 326 122.406 C 323.099 125.474, 321 128.622, 321 129.906 C 321 131.191, 318.901 134.339, 316 137.406 C 312.884 140.701, 311 143.589, 311 145.071 C 311 148.500, 268.477 191, 265.047 191 C 263.408 191, 260.192 193.386, 254.937 198.500 C 249.939 203.364, 246.432 206, 244.961 206 C 243.611 206, 240.554 208.023, 237.406 211 C 234.411 213.833, 231.181 216, 229.954 216 C 228.763 216, 226.452 217.125, 224.818 218.500 C 223.184 219.875, 220.934 221, 219.818 221 C 218.702 221, 216.452 222.125, 214.818 223.500 C 213.184 224.875, 210.934 226, 209.818 226 C 208.702 226, 206.452 227.125, 204.818 228.500 C 203.184 229.875, 200.934 231, 199.818 231 C 198.702 231, 196.418 232.153, 194.743 233.562 C 192.189 235.712, 191.075 236.020, 187.834 235.472 C 184.446 234.900, 183.527 235.208, 180.372 237.978 C 177.206 240.758, 176.305 241.058, 172.872 240.478 C 169.429 239.897, 168.539 240.197, 165.305 243.037 C 161.771 246.140, 161.408 246.234, 155.174 245.652 C 148.981 245.073, 148.561 245.179, 145.174 248.152 C 141.788 251.125, 141.368 251.230, 135.174 250.652 C 129.001 250.075, 128.552 250.186, 125.236 253.097 L 121.763 256.147 92.470 255.910 L 63.177 255.673 60.012 258.337 C 58.271 259.802, 55.783 261, 54.482 261 C 48.665 261, 48.332 275.965, 54.026 281.525 L 57.773 285.185 87.883 285.185 L 117.992 285.185 121.212 282.475 C 124.392 279.800, 124.580 279.771, 135.966 280.228 L 147.500 280.691 150.930 277.718 C 154.187 274.895, 154.688 274.775, 160.826 275.348 C 166.997 275.924, 167.448 275.814, 170.759 272.907 C 173.790 270.245, 174.717 269.945, 178.128 270.522 C 181.548 271.099, 182.465 270.799, 185.550 268.090 C 187.486 266.391, 190.001 265, 191.140 265 C 192.279 265, 194.582 263.847, 196.257 262.438 C 198.811 260.288, 199.925 259.980, 203.166 260.528 C 206.541 261.098, 207.475 260.790, 210.550 258.090 C 212.486 256.391, 215.001 255, 216.140 255 C 217.279 255, 219.548 253.875, 221.182 252.500 C 222.816 251.125, 225.066 250, 226.182 250 C 227.298 250, 229.548 248.875, 231.182 247.500 C 232.816 246.125, 235.066 245, 236.182 245 C 237.298 245, 239.548 243.875, 241.182 242.500 C 242.816 241.125, 245.088 240, 246.230 240 C 247.372 240, 250.686 237.750, 253.594 235 C 256.661 232.099, 259.809 230, 261.094 230 C 262.378 230, 265.526 227.901, 268.594 225 C 271.807 221.961, 274.789 220, 276.196 220 C 279.498 220, 340 159.487, 340 156.184 C 340 154.791, 341.977 151.790, 345 148.594 C 347.901 145.526, 350 142.378, 350 141.094 C 350 139.809, 352.099 136.661, 355 133.594 C 358.290 130.114, 360 127.441, 360 125.776 C 360 122.275, 362.459 120.306, 364.606 122.088 C 365.791 123.071, 366.085 124.552, 365.727 127.726 C 365.313 131.403, 365.677 132.574, 368.230 135.765 C 371.051 139.291, 371.185 139.863, 370.624 145.990 L 370.030 152.480 376.738 159.240 C 384.999 167.564, 389.498 168.404, 395.868 162.811 L 399.500 159.621 399.762 198.811 C 399.905 220.365, 399.905 255.663, 399.762 277.250 L 399.500 316.500 393.869 311.217 L 388.238 305.935 211.135 305.983 L 34.032 306.032 31.982 303.982 C 29.948 301.948, 29.932 301.300, 30.037 224.945 L 30.143 147.958 27.521 144.843 L 24.899 141.727 25.058 102.442 C 25.224 60.997, 25.225 61, 21.518 61 C 20.217 61, 17.816 59.875, 16.182 58.500 C 12.622 55.504, 13.139 55.501, 9.694 58.532 M 0.486 195.500 C 0.486 269.750, 0.605 300.273, 0.750 263.328 C 0.895 226.383, 0.895 165.633, 0.750 128.328 C 0.605 91.023, 0.486 121.250, 0.486 195.500" stroke="none" fill="#FFFFFF" fill-rule="nonzero"/>
</svg>