<svg width="691" height="720" xmlns="http://www.w3.org/2000/svg" xmlns:xlink="http://www.w3.org/1999/xlink" xml:space="preserve" overflow="hidden"><g transform="translate(25 -613)"><path d="M335.25 36.1845C318.517 36.8838 306.238 37.9629 296.1 39.6261 292.882 40.1544 286.402 41.2083 281.7 41.9688 270.287 43.8147 255.083 47.5749 250.706 49.6332 248.756 50.5503 246.249 51.3 245.134 51.3 244.019 51.3 242.856 51.705 242.55 52.2 242.244 52.695 240.989 53.1 239.761 53.1 238.533 53.1 236.026 53.8542 234.189 54.7767 232.353 55.6992 228.622 57.1536 225.9 58.0086 223.178 58.8645 218.722 60.6114 216 61.8921 213.277 63.1719 210.24 64.5021 209.25 64.8477 207.04 65.619 203.411 67.2291 201.6 68.2416 197.886 70.3188 194.143 72.0018 193.202 72.0198 192.623 72.0306 191.137 72.8316 189.9 73.8 188.662 74.7684 187.101 75.5694 186.43 75.5802 185.759 75.591 184.077 76.5117 182.692 77.625 181.308 78.7383 178.082 80.865 175.523 82.35 172.966 83.835 168.92 86.5692 166.532 88.425 164.146 90.2817 161.912 91.8 161.568 91.8 161.225 91.8 159.258 92.9493 157.197 94.3551 155.137 95.76 151.83 97.9443 149.85 99.2097 147.87 100.475 144.46 102.667 142.271 104.08 140.083 105.493 136.804 107.495 134.982 108.528 126.096 113.57 109.471 128.888 106.15 135.094 105.647 136.032 104.671 136.8 103.98 136.8 103.288 136.8 101.787 138.117 100.644 139.725 99.5004 141.333 96.6114 144.81 94.2237 147.45 91.836 150.089 88.5123 154.342 86.8383 156.9 85.1634 159.458 82.5732 162.904 81.081 164.558 79.5897 166.212 78.1056 168.439 77.7834 169.508 77.4612 170.576 76.1553 172.563 74.8818 173.924 71.388 177.656 58.3731 201.226 54.8793 210.15 54.4914 211.14 51.9552 216.607 49.2435 222.3 44.2179 232.85 36.7362 250.996 34.4007 258.3 33.6888 260.527 32.5989 263.565 31.9779 265.05 31.3578 266.535 29.9556 271.597 28.863 276.3 27.7695 281.003 26.3259 286.875 25.6536 289.35 24.3486 294.158 22.3227 306.487 20.5515 320.4 18.4977 336.528 19.2204 366.899 21.8142 373.5 22.3002 374.737 23.2533 378.99 23.9319 382.95 26.5293 398.105 29.5596 412.205 31.9599 420.3 32.6205 422.527 33.4305 425.97 33.7608 427.95 34.0911 429.93 34.8264 432.112 35.3952 432.801 36.5121 434.152 38.3859 440.176 39.4857 445.95 39.8619 447.93 40.6197 450.36 41.1687 451.35 41.7177 452.34 42.7482 454.972 43.4592 457.2 44.1702 459.427 46.4688 465.907 48.5685 471.6 50.6673 477.293 52.5789 482.962 52.8156 484.2 53.3016 486.741 53.7237 487.72 60.6897 502.438 63.4455 508.261 65.7 513.362 65.7 513.773 65.7 514.184 66.51 515.255 67.5 516.15 68.49 517.045 69.3009 518.223 69.3018 518.765 69.3027 519.306 70.9173 521.977 72.891 524.7 74.8638 527.422 76.9041 530.629 77.4243 531.827 77.9454 533.024 78.966 534.442 79.6923 534.977 80.4195 535.512 81.72 537.224 82.5822 538.782 84.8403 542.862 96.237 556.883 97.7742 557.473 98.4897 557.748 99.5823 559.177 100.201 560.65 101.389 563.473 109.591 572.868 120.199 583.555 134.658 598.12 157.379 619.257 161.979 622.42 164.691 624.286 167.323 626.161 167.829 626.588 170.376 628.736 185.353 637.57 188.104 638.545 189.838 639.16 195.508 641.682 200.704 644.148 217.825 652.277 222.295 654.3 223.126 654.3 223.577 654.3 227.833 655.888 232.582 657.827 237.332 659.768 243.948 662.029 247.284 662.854 250.62 663.68 255.172 664.889 257.4 665.543 273.399 670.234 275.456 670.621 307.35 674.922 329.529 677.911 359.135 678.923 376.65 677.29 382.59 676.735 388.26 675.842 389.25 675.306 390.24 674.769 392.872 674.095 395.1 673.807 397.327 673.52 404.212 672.632 410.4 671.834 416.587 671.036 422.662 669.941 423.9 669.4 425.137 668.859 427.972 668.118 430.2 667.751 432.427 667.386 437.287 665.987 441 664.645 447.645 662.242 455.703 659.857 465.156 657.498 467.798 656.839 470.411 655.849 470.961 655.299 471.51 654.75 472.588 654.291 473.355 654.28 474.123 654.269 475.762 653.468 477 652.5 478.237 651.532 479.965 650.731 480.838 650.72 481.711 650.709 483.128 650.31 483.988 649.834 486.368 648.514 495.165 644.737 497.7 643.945 501.53 642.75 514.039 636.407 516.968 634.175 518.498 633.01 521.977 630.936 524.7 629.568 541.127 621.314 559.145 608.724 571.091 597.15 578.203 590.26 595.694 573.574 597.817 571.653 601.159 568.629 608.431 559.504 612.46 553.278 613.66 551.424 615.405 548.791 616.337 547.428 617.269 546.065 619.438 542.723 621.155 540 622.873 537.277 626.578 531.562 629.389 527.299 632.201 523.036 634.5 519.23 634.5 518.842 634.5 518.454 635.935 515.975 637.688 513.334 639.441 510.693 642.438 505.476 644.348 501.741 646.258 498.007 648.216 494.456 648.7 493.851 649.183 493.245 649.877 491.737 650.238 490.5 650.601 489.262 652.012 485.82 653.375 482.85 655.896 477.355 657.089 474.047 661.166 461.25 662.428 457.29 663.996 452.632 664.65 450.9 665.73 448.042 667.399 442.422 670.931 429.75 674.265 417.792 675.103 412.501 677.342 389.345 678.681 375.494 678.751 371.271 677.844 359.194 676.364 339.484 674.299 319.65 673.611 318.537 673.292 318.02 672.665 313.4 672.22 308.271 671.775 303.142 671.003 297.873 670.505 296.564 670.008 295.254 669.6 290.943 669.6 286.982 669.6 283.022 669.119 278.897 668.533 277.816 667.946 276.735 666.942 272.61 666.302 268.65 664.232 255.83 660.381 240.431 657.976 235.35 657.507 234.36 655.469 229.79 653.448 225.193 650.098 217.577 643.117 205.454 638.824 199.8 636.786 197.115 624.24 181.12 617.682 172.842 615.114 169.601 611.88 165.33 610.497 163.35 605.427 156.097 570.074 121.802 550.8 105.441 544.885 100.42 533.197 91.9215 530.812 90.9063 529.678 90.4239 525.307 88.0281 521.1 85.5828 511.038 79.7337 496.066 72.0081 494.718 71.9694 494.131 71.9523 492.03 71.1567 490.05 70.2 488.07 69.2433 485.944 68.4477 485.325 68.4306 484.707 68.4135 484.2 68.0004 484.2 67.5117 484.2 67.0239 482.696 65.9961 480.858 65.2275 479.02 64.4598 476.894 63.2979 476.133 62.6463 472.932 59.9049 455.834 52.1928 447.991 49.9545 445.154 49.1445 442.599 48.1032 442.313 47.6406 442.028 47.178 440.982 46.8 439.99 46.8 438.998 46.8 435.681 45.9954 432.618 45.0117 427.061 43.227 420.355 41.778 405.9 39.2373 390.948 36.6093 385.397 35.883 380.604 35.9298 377.934 35.955 370.282 35.8713 363.6 35.7417 356.918 35.613 344.16 35.8119 335.25 36.1845M376.65 39.627C385.592 39.9168 414.123 43.5132 415.823 44.5644 416.218 44.8083 419.715 45.6129 423.595 46.3536 427.476 47.0943 433.485 48.7377 436.95 50.0058 440.415 51.2739 444.465 52.6554 445.95 53.0766 449.953 54.2115 454.602 55.8639 457.65 57.2364 459.135 57.9051 461.505 58.8735 462.916 59.3883 464.327 59.9031 467.567 61.6599 470.116 63.2925 479.348 69.2046 483.85 71.6823 489.15 73.7721 498.529 77.4684 507.096 81.5994 512.34 84.9546 515.13 86.7393 517.94 88.2 518.584 88.2 519.229 88.2 521.75 89.6175 524.186 91.35 526.623 93.0825 528.931 94.5 529.315 94.5 529.699 94.5 532.698 96.4242 535.98 98.775 539.261 101.126 542.948 103.706 544.173 104.508 547.405 106.624 567.576 125.02 572.85 130.662 575.325 133.31 580.995 138.583 585.45 142.38 589.905 146.177 594.32 150.222 595.261 151.367 596.73 153.155 605.204 163.052 607.945 166.182 608.443 166.75 610.268 169.108 612 171.422 613.732 173.736 618.224 179.549 621.982 184.34 634.106 199.795 645.724 216.517 646.641 219.829 646.949 220.941 648.565 224.685 650.233 228.15 654.733 237.499 657.585 245.458 659.292 253.433 660.131 257.347 661.186 262.17 661.638 264.15 662.089 266.13 662.677 269.572 662.944 271.8 663.213 274.027 663.805 276.66 664.262 277.65 664.718 278.64 665.67 285.93 666.376 293.85 667.082 301.77 668.068 310.275 668.567 312.75 672.856 334.019 675.652 377.549 673.336 387 672.79 389.228 672.316 395.1 672.283 400.05 672.245 405.468 671.705 410.483 670.924 412.65 670.211 414.63 669.621 417.606 669.614 419.264 669.606 420.922 669.029 423.554 668.329 425.114 667.63 426.674 666.584 430.177 666.005 432.9 664.674 439.147 662.612 446.022 660.971 449.686 660.271 451.246 659.7 453.151 659.7 453.92 659.7 455.584 653.182 474.113 650.79 479.25 649.868 481.23 648.473 484.743 647.691 487.056 646.908 489.37 645.038 493.262 643.534 495.706 642.03 498.149 640.8 500.428 640.8 500.768 640.8 501.108 639.382 503.602 637.65 506.31 635.917 509.019 634.5 511.394 634.5 511.587 634.5 512.203 627.07 525.131 626.446 525.6 625.846 526.051 617.935 539.054 615.831 543.046 615.216 544.214 614.102 545.676 613.356 546.295 610.894 548.339 611.778 544.732 615.15 538.978 616.882 536.022 618.3 533.435 618.3 533.23 618.3 533.024 620.088 530.091 622.274 526.712 624.46 523.333 627.326 518.157 628.643 515.209 629.959 512.262 631.761 508.23 632.647 506.25 633.532 504.27 634.886 501.232 635.656 499.5 636.427 497.767 638.032 494.325 639.225 491.85 640.417 489.375 642.535 482.693 643.932 477 645.33 471.307 647.424 463.387 648.587 459.399 649.749 455.411 650.7 451.424 650.7 450.537 650.7 449.652 651.262 446.84 651.949 444.289 657.607 423.274 661.243 378.997 658.17 368.521 657.594 366.557 656.266 361.305 655.219 356.85 653.26 348.51 651.369 341.54 649.361 335.25 648.126 331.382 646.148 323.24 644.332 314.55 643.711 311.58 642.853 308.446 642.425 307.585 640.62 303.952 637.2 290.379 637.204 286.861 637.207 284.765 636.635 281.228 635.934 279 635.232 276.772 634.188 273.128 633.613 270.9 629.236 253.952 626.357 243.701 625.549 242.192 625.027 241.216 624.6 239.744 624.6 238.92 624.6 238.096 624.053 236.146 623.384 234.586 622.715 233.026 621.247 229.32 620.121 226.35 617.242 218.757 609.412 203.991 604.715 197.299 602.535 194.19 599.737 190.093 598.5 188.194 591.289 177.125 569.926 151.648 561.442 144 558.971 141.772 549.949 133.042 541.395 124.599 532.84 116.155 523.66 107.737 520.996 105.892 506.353 95.7546 504.083 94.4712 486.9 86.6313 479.825 83.403 474.65 80.5518 472.95 78.9444 471.96 78.0093 469.732 76.464 468 75.5118 466.267 74.5605 464.242 73.4049 463.5 72.9459 462.757 72.486 459.845 71.0721 457.027 69.8031 454.209 68.5341 451.654 67.0923 451.349 66.5982 451.044 66.1041 450.109 65.6757 449.272 65.6469 448.435 65.6181 445.927 64.6182 443.7 63.4257 441.472 62.2341 437.827 60.4251 435.6 59.4063 433.372 58.3875 429.93 56.7828 427.95 55.8405 408.505 46.584 409.514 46.7307 383.578 49.3785 378.416 49.9059 373.685 49.7817 368.278 48.978 357.355 47.3553 345.423 48.9924 331.65 54.0045 328.169 55.2717 321.245 56.7 318.587 56.7 317.11 56.7 315.9 57.0519 315.9 57.4821 315.9 57.9123 314.399 58.5081 312.564 58.806 309.774 59.2587 305.739 60.8688 300.013 63.8163 299.443 64.1097 296.068 66.375 292.514 68.85 282.404 75.8898 283.12 75.6567 272.25 75.4362 253.327 75.0537 238.487 77.0481 186.3 86.9913 182.092 87.7923 177.262 89.0091 175.566 89.6949 169.247 92.2482 171.261 89.2674 179.499 83.8728 184.18 80.8083 188.256 78.3 188.556 78.3 188.856 78.3 191.609 77.0544 194.675 75.5325 201.289 72.2493 226.283 61.6311 229.5 60.7374 230.737 60.3936 232.635 59.5548 233.716 58.8744 235.538 57.7269 238.589 56.799 246.6 54.9576 248.332 54.5589 251.775 53.3313 254.25 52.2297 256.725 51.1272 264.622 49.0284 271.8 47.565 283.486 45.1818 291.241 43.9479 310.5 41.4081 313.717 40.9842 324.855 40.365 335.25 40.032 345.645 39.6999 354.217 39.3651 354.299 39.2886 354.461 39.1392 367.881 39.3417 376.65 39.627M411.3 52.1559C415.88 53.5041 420.362 56.0727 419.984 57.1329 419.625 58.1382 419.233 58.1148 412.65 56.691 410.175 56.1555 402.791 55.7262 396.242 55.737 389.693 55.7478 383.72 55.521 382.967 55.2321 380.141 54.1476 381.8 53.3133 387.994 52.7022 391.511 52.3557 395.257 51.7239 396.319 51.2973 398.611 50.3766 406.865 50.85 411.3 52.1559M364.987 52.2603C366.079 54.0261 364.406 54.45 356.337 54.45 343.744 54.45 346.029 51.651 358.822 51.4062 361.915 51.3477 364.657 51.7266 364.987 52.2603M392.85 58.4037C401.76 58.9707 411.075 59.8329 413.55 60.3189 416.025 60.8049 420.48 61.6563 423.45 62.2116 426.42 62.766 429.457 63.6966 430.2 64.2789 430.943 64.8621 433.98 66.5235 436.95 67.9707 439.92 69.4188 443.362 71.5374 444.6 72.6795 445.837 73.8216 449.37 75.9528 452.449 77.4144 458.297 80.1909 458.782 80.5311 466.993 87.6087 472.56 92.4075 484.887 100.769 489.959 103.188 491.742 104.038 493.2 105.014 493.2 105.358 493.2 105.701 494.516 106.476 496.125 107.082 501.607 109.143 503.549 110.202 506.634 112.814 508.331 114.25 510.996 115.959 512.556 116.61 514.117 117.263 515.917 118.427 516.557 119.198 517.197 119.969 518.308 120.6 519.026 120.6 519.745 120.6 523.518 122.807 527.412 125.504 531.305 128.201 536.237 131.287 538.37 132.362 545.227 135.817 553.858 143.554 559.888 151.65 562.181 154.728 568.281 163.747 577.417 177.568 578.66 179.448 580.243 181.203 580.934 181.468 581.624 181.733 582.46 183.181 582.79 184.684 583.121 186.188 584.06 187.593 584.878 187.807 585.696 188.022 587.333 189.895 588.515 191.973 589.697 194.051 591.736 197.167 593.047 198.9 594.357 200.632 595.914 203.062 596.508 204.3 597.101 205.537 597.99 207.158 598.482 207.9 602.158 213.445 610.529 236.257 612.897 247.182 613.418 249.584 614.708 253.575 615.764 256.05 616.819 258.525 618.191 262.777 618.812 265.5 619.433 268.222 620.98 272.88 622.249 275.85 623.519 278.82 624.567 282.48 624.578 283.985 624.59 285.489 625.41 288.308 626.4 290.25 627.39 292.192 628.2 294.52 628.2 295.422 628.2 296.325 628.748 297.96 629.418 299.056 630.087 300.153 631.124 303.48 631.722 306.45 632.319 309.42 633.152 313.065 633.572 314.55 633.991 316.035 634.612 319.275 634.952 321.75 635.291 324.225 635.928 326.687 636.367 327.222 636.807 327.756 637.415 331.806 637.72 336.222 638.025 340.637 638.602 345.546 639.002 347.129 639.671 349.778 639.597 349.925 638.069 348.972 637.156 348.402 635.886 346.903 635.246 345.642 634.607 344.381 632.76 341.689 631.142 339.657 627.945 335.645 627.439 332.952 629.55 331.2 631.704 329.413 631.242 322.778 628.624 317.895 623.889 309.061 621.787 305.544 620.188 303.775 616.112 299.266 615.591 297.634 616.482 292.162 617.38 286.644 615.958 280.033 613.273 277.239 611.636 275.536 609.377 277.347 610.843 279.187 612.405 281.15 614.102 289.375 613.466 291.907 612.907 294.135 612.525 294.3 607.905 294.3 604.755 294.3 602.793 293.89 602.532 293.175 602.305 292.557 601.537 287.818 600.824 282.647 599.102 270.159 600.194 267.755 605.542 272.255 607.135 273.595 608.808 274.287 609.662 273.959 611.61 273.212 611.476 272.467 608.97 270.112 607.331 268.573 606.702 266.764 606.241 262.264 605.911 259.049 604.818 254.31 603.811 251.734 601.987 247.067 595.526 239.4 593.416 239.4 590.829 239.4 591.327 241.614 594.701 245.109 599.254 249.826 601.684 254.739 602.459 260.79 602.966 264.749 602.818 265.626 601.561 266.108 599.362 266.953 597.285 265.282 596.209 261.803 595.187 258.503 593.484 254.418 591.933 251.55 586.507 241.516 585.571 237.6 588.6 237.6 590.627 237.6 590.782 236.924 589.523 233.608 588.402 230.662 586.359 230.663 584.428 233.609L582.916 235.918 580.244 231.134C577.815 226.786 571.142 216.49 567.987 212.224 567.033 210.934 566.978 210.262 567.762 209.478 569.592 207.648 568.885 206.41 565.412 205.37 562.172 204.399 560.135 202.288 552.923 192.424 551.864 190.974 547.711 186.367 543.695 182.187 537.696 175.942 536.553 174.307 537.29 173.018 538.803 170.373 541.8 162.02 541.8 160.451 541.8 159.636 541.058 157.322 540.152 155.309 539.245 153.297 537.806 150.071 536.953 148.143 536.1 146.214 534.311 143.428 532.976 141.951 526.056 134.293 524.273 133.2 518.698 133.2 514.674 133.2 513.48 133.624 510.748 136.022 507.711 138.689 504.624 144.06 503.836 148.05 503.261 150.962 498.081 150.043 490.432 145.669 479.632 139.495 474.529 135.33 462.212 122.639 448.295 108.3 436.987 100.261 426.6 97.3233 424.372 96.6933 421.306 95.8005 419.786 95.3388 418.266 94.878 416.173 94.5 415.137 94.5 413.007 94.5 408.997 89.8362 405.94 83.8044 403.645 79.2747 396.123 71.3817 391.5 68.6502 389.767 67.626 385.515 65.7045 382.05 64.3797 378.585 63.0549 374.94 61.6176 373.95 61.1865 372.96 60.7545 370.327 60.1299 368.1 59.7969 363.313 59.0823 362.48 58.6845 363.23 57.4704 363.56 56.9358 366.424 56.7297 370.22 56.9682 373.757 57.1905 383.94 57.8367 392.85 58.4037M358.2 58.4595C358.2 58.932 356.682 59.5908 354.825 59.9229 352.969 60.2559 349.297 61.5312 346.666 62.7579 344.033 63.9837 340.199 65.2131 338.145 65.4885 335.061 65.9016 333.62 66.852 329.88 70.9362 327.389 73.6569 324.641 76.6287 323.775 77.5413 321.849 79.5699 319.657 79.6176 312.714 77.7825 309.764 77.0031 304.414 76.1346 300.825 75.8529 296.297 75.4974 294.3 74.9781 294.3 74.1582 294.3 72.0882 302.145 68.2803 313.854 64.6677 323.866 61.5789 325.579 61.2846 328.313 62.1864 331.152 63.1242 331.577 63.0189 333.332 60.9453 334.387 59.6988 335.857 58.4685 336.6 58.2111 339.073 57.3516 358.2 57.5721 358.2 58.4595M378.278 66.7197C389.048 71.0001 390.721 72.0369 396.525 78.0372 404.753 86.5458 406.429 92.5722 400.264 91.4895 398.661 91.2078 393.148 90.5418 388.012 90.0099 382.875 89.478 377.961 88.6608 377.092 88.1955 376.222 87.7302 375.243 85.8195 374.918 83.9493 373.342 74.8872 370.045 70.8732 362.182 68.445 356.555 66.7062 355.552 66.7593 347.323 69.2325 344.267 70.1514 338.985 74.5128 335.437 79.047 334.247 80.568 333.085 81.0351 331.007 80.829 327.211 80.4528 326.992 79.0515 330.168 75.4596 332.914 72.3537 334.729 71.2953 344.7 66.9807 358.177 61.1496 364.142 61.1037 378.278 66.7197M361.711 71.9964C365.856 73.0467 367.791 75.231 369.164 80.4087 370.233 84.447 370.187 84.8655 368.534 86.0931 367.494 86.8653 365.624 87.2451 364.05 87.0039 362.565 86.7771 357.503 86.1201 352.8 85.545 342.231 84.2535 340.2 83.4795 340.2 80.7462 340.2 76.1229 351.276 69.5079 356.85 70.803 357.84 71.0334 360.027 71.5707 361.711 71.9964M461.298 75.5487C464.028 77.0058 467.952 79.5375 470.018 81.1737 472.084 82.8108 474.602 84.5847 475.612 85.1157 479.804 87.3171 481.202 88.002 484.2 89.3223 502.04 97.1793 513.977 104.483 523.35 113.277 525.33 115.134 528.617 117.762 530.655 119.116 535.927 122.62 538.276 125.32 537.354 126.813 536.737 127.811 536.195 127.679 534.525 126.124 533.39 125.066 532.161 124.2 531.795 124.2 531.428 124.2 530.574 123.646 529.897 122.968 529.219 122.29 525.241 119.767 521.057 117.361 516.874 114.954 513.247 112.774 513 112.516 511.654 111.113 501.078 104.392 500.147 104.349 499.543 104.32 497.025 103.128 494.55 101.701 492.075 100.273 488.444 98.2188 486.481 97.1352 481.779 94.5405 473.98 88.7571 468.71 83.9556 466.378 81.8316 463.341 79.6086 461.96 79.0155 457.94 77.2893 454.436 74.6316 454.992 73.7316 455.707 72.5751 455.745 72.5859 461.298 75.5487M294.777 79.2423C300.455 79.1082 313.635 81.135 314.824 82.3248 315.082 82.5822 314.83 83.8062 314.266 85.0464 313.405 86.9346 313.469 87.3 314.664 87.3 315.448 87.3 317.334 86.2542 318.853 84.9753 320.919 83.2365 322.2 82.7973 323.932 83.232 325.207 83.5515 328.651 84.3093 331.586 84.9159 334.522 85.5225 337.087 86.5098 337.287 87.1092 337.486 87.7095 338.168 88.2 338.801 88.2 339.434 88.2 340.9 90.1962 342.059 92.6361 344.086 96.9075 344.374 97.1253 349.792 98.4861 352.887 99.2637 356.627 99.9 358.101 99.9 359.576 99.9 361.78 100.279 362.999 100.742 365.625 101.74 366.705 101.022 365.237 99.2529 364.403 98.2476 364.837 97.3431 367.372 94.8087L370.554 91.6254 385.303 93.1401C405.409 95.2056 405.77 95.2704 407.702 97.2018 408.947 98.4474 410.199 98.7732 412.38 98.4195 415.869 97.8534 424.688 99.9774 431.673 103.066 438.136 105.925 449.675 115.203 458.1 124.314 468.585 135.653 480.257 144.527 493.2 150.995 499.387 154.087 505.444 157.387 506.66 158.327L508.871 160.037 507.11 163.332 505.35 166.627 508.042 168.588C509.522 169.667 511.547 171.36 512.542 172.35L514.35 174.15 511.875 174.434C510.447 174.599 509.4 175.27 509.4 176.022 509.4 176.738 508.928 178.079 508.352 179.001 507.462 180.428 507.899 181.393 511.277 185.468 518.223 193.843 522 196.425 522 192.796 522 191.913 519.773 189.027 517.05 186.381 511.492 180.978 510.93 178.713 514.35 175.5 517.218 172.805 517.176 172.129 513.9 168.3 512.418 166.567 511.204 164.668 511.202 164.078 511.195 160.574 516.363 162.712 521.9 168.502 525.99 172.777 526.486 174.537 523.8 175.239 521.809 175.76 521.465 177.305 522.996 178.836 523.544 179.384 524.269 181.187 524.605 182.841 525.04 184.981 525.772 185.93 527.14 186.129 528.197 186.282 529.711 187.395 530.502 188.604 531.294 189.812 532.688 190.8 533.599 190.8 534.511 190.8 536.223 191.532 537.404 192.426 538.584 193.322 541.848 195.195 544.657 196.589 550.883 199.681 556.2 203.94 556.2 205.835 556.2 207.686 552.777 210.6 550.603 210.6 548.462 210.6 545.605 212.042 542.802 214.537 541.17 215.99 540.549 216.158 540.222 215.238 539.986 214.571 538.698 212.748 537.361 211.188 536.024 209.627 534.013 206.832 532.892 204.975 530.9 201.677 528.954 200.713 527.862 202.481 527.358 203.296 529.359 206.715 532.879 211.05 533.683 212.04 535.038 214.072 535.891 215.567L537.442 218.283 531.569 224.392C526.176 230.002 524.782 233.1 527.65 233.1 528.89 233.1 531.9 230.378 531.9 229.255 531.9 228.398 536.264 224.014 541.579 219.532 545.383 216.324 556.489 210.6 558.909 210.6 561.186 210.6 567.805 217.382 567.863 219.774 567.884 220.612 568.609 221.827 569.475 222.474 571.029 223.635 573.016 227.895 573.973 232.115 574.528 234.562 572.357 236.696 569.303 236.705 568.283 236.709 566.294 237.314 564.881 238.051 562.596 239.243 562.049 239.237 559.931 238.002 557.594 236.639 557.45 236.706 552.211 241.607 549.274 244.353 546.344 246.6 545.699 246.6 545.053 246.6 543.453 244.98 542.143 243 539.792 239.448 537.951 238.52 536.835 240.325 536.521 240.834 537.509 243.13 539.032 245.429 540.554 247.728 541.8 250.2 541.8 250.923 541.8 252.363 535.911 258.3 534.483 258.3 533.994 258.3 532.058 257.065 530.18 255.557 527.501 253.403 526.857 252.338 527.188 250.607 527.432 249.33 527.186 248.4 526.605 248.4 526.052 248.4 525.6 247.68 525.6 246.801 525.6 245.92 525 244.344 524.266 243.297 523.089 241.615 523.089 241.264 524.266 240.286 526.378 238.533 525.866 236.7 523.264 236.7 520.513 236.7 515.7 233.527 515.7 231.713 515.7 229.486 511.784 222.3 510.571 222.3 509.137 222.3 509.037 224.277 510.402 225.642 510.952 226.192 511.115 227.11 510.763 227.68 509.998 228.918 506.7 226.306 506.7 224.462 506.7 223.824 505.965 222.772 505.066 222.126 504.166 221.479 503.168 220.242 502.844 219.375 502.521 218.508 501.68 217.8 500.974 217.8 499.235 217.8 498.393 220.283 499.837 221.152 500.477 221.536 503.275 225.292 506.056 229.5 512.843 239.767 515.185 242.525 516.451 241.742 517.936 240.825 517.753 239.4 516.15 239.4 515.407 239.4 514.8 238.774 514.8 238.008 514.8 236.812 515.114 236.845 517.022 238.233 519.979 240.385 519.905 242.815 516.848 243.977L514.394 244.91 517.973 247.971C519.94 249.655 521.853 251.048 522.225 251.066 522.597 251.085 522.9 252.098 522.9 253.318 522.9 254.632 523.651 255.938 524.743 256.523 525.954 257.171 526.41 258.065 526.073 259.128 525.785 260.033 526.162 261.247 526.929 261.883 527.683 262.508 528.3 263.605 528.3 264.318 528.3 267.311 532.269 274.684 534.294 275.455 536.874 276.436 537.029 278.104 534.6 278.739 532.327 279.334 532.33 280.851 534.618 285.336 536.722 289.46 539.102 290.213 538.398 286.532 537.888 283.865 539.772 283.827 541.061 286.479 541.467 287.315 542.133 288.685 542.539 289.521 543.819 292.154 545.38 291.866 546.697 288.754 548.212 285.174 555.013 278.397 557.543 277.947 558.529 277.772 559.869 276.515 560.522 275.155 562.298 271.447 568.202 268.745 574.636 268.693 578.931 268.659 580.08 268.346 580.313 267.144 580.505 266.151 579.91 265.539 578.558 265.344 576.436 265.039 575.873 264.199 571.725 255.15 569.905 251.179 568.715 249.674 567.225 249.462 564.508 249.077 564.674 250.51 567.9 255.289 569.385 257.49 570.6 259.947 570.6 260.749 570.6 261.552 571.271 262.948 572.09 263.854 573.504 265.418 573.426 265.501 570.515 265.511 568.829 265.517 565.672 266.539 563.497 267.781 561.037 269.187 558.871 269.826 557.761 269.474 555.803 268.853 554.495 270.249 554.316 273.15 554.181 275.35 544.984 283.905 543.644 283.077 543.115 282.75 540.634 278.257 538.13 273.091 535.626 267.926 533.099 263.668 532.514 263.629 531.929 263.59 532.665 263.134 534.15 262.616 537.667 261.391 541.8 257.505 541.8 255.424 541.8 254.048 542.071 253.954 543.481 254.834 545.816 256.292 548.1 255.179 548.1 252.583 548.1 251.2 549.373 249.259 551.6 247.247 555.702 243.542 558.25 242.545 560.457 243.786 561.656 244.459 562.512 244.248 563.917 242.932 564.943 241.97 568.075 240.587 570.874 239.858 576.963 238.272 580.065 239.108 581.669 242.768 582.267 244.133 583.511 246.366 584.435 247.729 585.804 249.753 585.904 250.46 584.982 251.572 584.062 252.68 584.126 253.237 585.326 254.562 586.137 255.459 586.8 256.639 586.8 257.185 586.8 257.73 588.015 259.043 589.5 260.1 592.985 262.581 592.902 263.498 589.05 265.108 585.814 266.46 584.913 268.528 587.18 269.399 587.885 269.669 588.593 270.822 588.755 271.961 589.078 274.225 591.987 275.356 592.566 273.442 593.957 268.853 594.107 268.624 594.843 270 595.24 270.742 595.829 273.577 596.152 276.3 596.475 279.022 596.969 282.906 597.25 284.93 597.63 287.666 597.378 288.994 596.266 290.105 594.069 292.302 593.248 291.95 592.932 288.675 592.603 285.268 590.981 285.095 590.566 288.422 590.365 290.026 589.735 290.7 588.435 290.7 586.948 290.7 586.674 290.26 587.024 288.428 587.263 287.179 587.145 285.963 586.76 285.726 585.436 284.908 583.304 286.357 583.027 288.265 582.824 289.669 581.847 290.363 579.346 290.88 577.473 291.267 574.696 292.228 573.174 293.016 571.534 293.863 569.494 294.217 568.167 293.884 566.003 293.341 565.949 293.439 566.52 296.826 567.014 299.748 566.654 301.107 564.357 305.005 561.103 310.522 561.107 310.5 563.34 310.5 564.296 310.5 565.336 309.69 565.65 308.7 566.271 306.742 569.2 306.262 570.241 307.947 570.596 308.522 571.143 310.241 571.454 311.766 571.781 313.363 572.674 314.665 573.561 314.835 575.958 315.297 575.523 310.011 572.706 304.443 570.454 299.993 570.401 299.612 571.819 298.045 572.648 297.129 574.974 295.835 576.988 295.171 580.066 294.155 581.105 294.159 583.501 295.195 585.068 295.872 588.497 296.345 591.12 296.244 598.716 295.952 598.731 295.977 598.62 308.753 598.54 317.808 598.249 320.121 597.043 321.257 595.689 322.532 595.617 322.46 596.197 320.4 596.948 317.734 596.983 318.413 595.573 308.25L594.45 300.15 591.75 300.15C589.435 300.15 589.069 300.471 589.18 302.4 589.399 306.228 590.43 309.892 592.395 313.838 593.872 316.804 594.052 317.903 593.222 318.902 592.64 319.604 592.273 321.545 592.407 323.214L592.65 326.25 586.477 326.25C580.825 326.25 580.161 326.048 578.602 323.861 577.666 322.547 576.9 320.623 576.9 319.586 576.9 318.3 576.328 317.7 575.1 317.7 574.11 317.7 573.306 318.003 573.313 318.375 573.344 319.885 575.686 325.687 576.814 327.046 577.836 328.278 577.808 328.5 576.63 328.5 575.068 328.5 567.914 336.433 567.905 338.175 567.898 339.718 570.542 339.601 571.144 338.03 571.412 337.332 574.044 335.104 576.994 333.08 582.068 329.598 582.71 329.4 588.934 329.4 594.883 329.4 595.598 329.593 596.428 331.425 597.002 332.693 597.065 335.301 596.594 338.4 596.182 341.122 595.573 345.493 595.242 348.113 594.825 351.409 594.126 353.151 592.97 353.769 591.546 354.532 591.3 354.325 591.3 352.359 591.3 349.969 588.659 348.3 584.876 348.3 582.399 348.3 583.04 351.36 585.592 351.725 586.651 351.878 587.76 352.688 588.059 353.525 588.357 354.364 588.837 355.557 589.126 356.175 589.414 356.794 589.241 357.3 588.741 357.3 588.241 357.3 587.701 356.703 587.541 355.973 587.358 355.139 586.821 354.916 586.091 355.373 585.404 355.802 584.76 358.636 584.51 362.324 584.277 365.748 583.868 369.605 583.6 370.894 583.221 372.724 583.627 373.572 585.452 374.769 587.082 375.836 587.629 376.807 587.258 377.974 586.966 378.895 587.104 379.882 587.566 380.167 588.44 380.707 588.36 389.146 587.458 391.5 587.173 392.242 586.76 395.509 586.538 398.758 586.148 404.459 584.786 407.596 580.209 413.325 577.503 416.714 574.087 414.499 574.842 409.844 575.23 407.451 575.029 406.8 573.899 406.8 572.045 406.8 570.6 409.54 570.6 413.054 570.6 415.216 569.956 416.219 567.675 417.61 564.034 419.829 556.2 420.13 556.2 418.05 556.2 417.3 555.4 416.7 554.4 416.7 553.41 416.7 552.6 417.295 552.6 418.022 552.6 418.749 551.771 420.935 550.757 422.88 548.442 427.322 548.024 431.55 549.9 431.55 550.736 431.55 551.359 430.523 551.536 428.85 551.949 424.95 554.854 423.044 560.418 423.02L565.087 423 564.575 426.15C563.8 430.934 566.365 430.23 568.68 425.025 571.472 418.749 572.514 417.7 575.406 418.253 577.653 418.682 577.838 418.999 577.323 421.538 576.457 425.804 570.532 438.45 568.181 441.049 567.036 442.314 566.1 444.445 566.1 445.786 566.1 447.127 565.755 448.928 565.333 449.788 564.912 450.647 563.595 453.319 562.408 455.727 561.221 458.133 558.976 461.085 557.419 462.287 555.749 463.575 554.339 465.657 553.983 467.36 553.27 470.777 548.635 477.421 545.15 480.022L542.681 481.865 537.813 479.479C533.825 477.522 532.765 477.308 531.948 478.292 531.171 479.227 531.664 479.914 534.177 481.396 535.951 482.443 538 483.3 538.73 483.3 541.463 483.3 541.055 486.077 537.701 490.285 533.128 496.024 532.048 496.8 528.632 496.8 525.903 496.8 525.69 497.025 525.429 500.175 525.174 503.257 524.486 504.042 517.5 509.217 513.292 512.334 508.239 516.297 506.271 518.023 504.302 519.749 499.91 523.044 496.511 525.345 490.685 529.29 490.167 529.468 487.49 528.443 484.505 527.3 483.791 527.749 479.56 533.425 478.021 535.492 466.017 544.315 461.128 546.975 459.08 548.088 456.536 549 455.474 549 454.411 549 452.075 549.613 450.283 550.362 448.491 551.11 446.818 551.518 446.567 551.267 445.818 550.518 449.071 547.406 453.73 544.416 458.031 541.657 459.454 539.1 456.691 539.1 454.343 539.1 451.623 540.914 445.692 546.434 442.58 549.33 439.628 551.7 439.131 551.7 438.634 551.7 437.13 552.494 435.789 553.464 434.442 554.438 429.233 556.054 424.155 557.075 419.098 558.091 413.907 559.322 412.621 559.811 406.799 562.025 404.823 559.801 409.523 556.325 413.877 553.107 428.4 529.166 428.4 525.208 428.4 524.497 428.79 522.891 429.267 521.637 430.124 519.384 430.177 519.372 433.88 520.678 435.94 521.405 438.993 522 440.663 522 444.882 522 444.681 519.684 440.392 518.88 438.574 518.539 435.536 517.64 433.642 516.882L430.2 515.505 430.2 508.855C430.2 503.255 429.748 501.245 427.336 496.128 422.116 485.051 396.801 461.426 386.108 457.653 384.069 456.934 381.917 456.034 381.326 455.655 379.08 454.214 373.711 452.594 367.2 451.393 363.487 450.709 358.83 449.72 356.85 449.196 350.635 447.551 338.128 447.969 332.785 449.999 330.18 450.989 327.501 451.799 326.83 451.799 324.85 451.8 306.883 460.817 304.889 462.811 303.882 463.818 301.422 465.571 299.421 466.708 294.664 469.41 283.374 482.104 281.32 487.06 276.207 499.399 274.162 506.559 273.054 515.984 272.342 522.042 274.209 536.917 276.012 539.55 276.69 540.54 277.678 542.97 278.207 544.95 279.769 550.791 284.708 558.018 291.754 564.774 298.887 571.613 300.772 575.39 299.501 580.295 299.1 581.844 298.471 583.297 298.103 583.524 297.383 583.969 279.452 584.896 267.75 585.094 258.637 585.247 231.865 583.401 227.7 582.331 225.967 581.888 220.095 580.865 214.65 580.061 209.205 579.256 203.333 578.237 201.6 577.796 199.867 577.355 195.615 576.323 192.15 575.502 186.365 574.132 174.89 570.558 170.55 568.775 169.56 568.368 164.971 566.766 160.351 565.214 152.418 562.549 133.274 553.923 132.3 552.574 132.053 552.232 130.47 551.244 128.784 550.38 127.097 549.515 123.857 547.109 121.584 545.033 119.31 542.957 114.817 539.208 111.6 536.701 108.382 534.196 103.491 529.963 100.73 527.297 93.5973 520.411 76.167 501.313 73.6614 497.639 72.5004 495.936 70.4844 493.127 69.1821 491.396 67.8798 489.666 64.899 484.605 62.5581 480.15 60.2172 475.695 57.9474 471.611 57.5145 471.073 55.8279 468.984 48.5433 453.542 48.0276 450.964 47.7279 449.466 46.9242 447.777 46.2411 447.21 45.5589 446.643 45 445.851 45 445.449 45 445.046 44.5374 443.577 43.9713 442.184 41.5404 436.192 37.6668 425.004 37.0179 422.1 36.6318 420.367 35.8821 418.14 35.3529 417.15 34.4853 415.528 32.6169 407.191 30.5946 395.914 30.186 393.64 29.2104 389.618 28.4265 386.976 27.6417 384.334 27 380.691 27 378.879 27 377.068 26.3943 373.598 25.6536 371.168 23.445 363.922 22.8366 334.783 24.6438 322.8 25.452 317.438 25.929 312.751 25.7022 312.385 25.1622 311.511 27.6372 296.008 29.2365 290.25 29.9241 287.775 31.1328 282.712 31.9239 279 34.0245 269.136 36.5517 261.543 41.2938 250.851 42.3423 248.486 43.2 246.135 43.2 245.625 43.2 245.116 44.3763 242.329 45.8127 239.432 47.25 236.536 48.6999 233.217 49.0347 232.058 49.6098 230.069 54.558 219.116 57.1032 214.2 57.744 212.962 58.7763 210.33 59.3973 208.35 60.0192 206.37 61.0434 204.142 61.6743 203.4 62.3052 202.658 63.4464 200.632 64.2114 198.9 64.9764 197.167 66.2031 194.737 66.9384 193.5 67.6737 192.262 70.4034 187.605 73.0035 183.15 75.6045 178.695 77.9616 174.847 78.2415 174.6 79.4592 173.523 84.6 166.547 84.6 165.971 84.6 165.622 85.9311 163.674 87.5574 161.643 89.1846 159.611 91.1727 156.906 91.9773 155.63 92.781 154.354 95.1966 151.351 97.344 148.958 115.502 128.725 131.276 114.047 138.547 110.615 140.746 109.578 143.783 107.855 145.297 106.787 151.852 102.163 158.619 98.631 163.8 97.1271 166.027 96.4809 168.66 95.4774 169.65 94.8978 170.64 94.3173 173.475 93.3597 175.95 92.7684 178.425 92.1771 181.867 91.3527 183.6 90.9351 185.333 90.5175 189.382 89.7444 192.6 89.2161 209.201 86.49 216.082 85.2561 221.4 84.0492 224.617 83.3193 233.73 81.9837 241.65 81.081 253.851 79.6914 256.267 79.6284 257.471 80.6706 259.473 82.4031 260.783 82.1997 261.465 80.0514 262.034 78.2595 262.464 78.2208 275.251 78.7968 282.511 79.1244 291.297 79.3251 294.777 79.2423M264.6 84.0798C264.6 85.4793 268.299 86.9148 274.292 87.8418 277.61 88.3548 278.057 88.2351 277.571 86.9679 277.261 86.1606 276.287 85.5 275.406 85.5 274.526 85.5 272.646 84.8952 271.228 84.1554 267.948 82.4445 264.6 82.4067 264.6 84.0798M280.8 85.8429C280.8 87.2514 282.215 89.2521 284.93 91.6821 288.265 94.6665 289.379 95.2065 290.721 94.4892 293.655 92.9187 294.998 93.4974 301.198 99 307.426 104.53 310.239 105.533 312.357 102.982 313.332 101.806 313.313 101.422 312.242 100.741 311.531 100.289 310.434 100.108 309.805 100.339 308.281 100.898 301.5 94.707 301.5 92.7549 301.5 91.9107 299.796 90.1044 297.714 88.7409 294.347 86.5368 293.812 86.4189 292.89 87.6807 291.29 89.8677 288.411 89.3727 285.439 86.4 282.181 83.1429 280.8 82.9773 280.8 85.8429M310.441 90.6048C309.386 93.3813 309.99 95.7159 311.626 95.1831 313.111 94.6998 315.253 90.2376 314.547 89.0964 313.505 87.4089 311.356 88.1991 310.441 90.6048M355.132 89.5401C357.562 90.2772 360.664 90.8847 362.025 90.8901 363.386 90.8955 364.5 91.2906 364.5 91.7685 364.5 93.4425 360.636 94.6782 354.974 94.8132 350.206 94.9275 348.938 94.6278 347.305 92.9997 344.94 90.6417 345.587 88.2 348.579 88.2 349.753 88.2 352.702 88.803 355.132 89.5401M324.446 92.7063C323.87 93.6378 324.518 93.9726 328.622 94.8663 330.963 95.3757 333.628 93.6279 332.393 92.3922 331.453 91.4526 325.065 91.7055 324.446 92.7063M335.903 93.4551C335.03 94.0104 335.194 94.5774 336.6 95.85 338.904 97.9353 341.262 96.4143 339.331 94.0878 338.027 92.5164 337.528 92.4246 335.903 93.4551M408.315 100.485C407.977 100.823 407.7 102.079 407.7 103.275 407.7 105.766 409.77 105.628 410.26 103.105 410.604 101.326 409.27 99.5292 408.315 100.485M371.426 101.505C368.436 102.142 370.402 103.8 376.252 105.574 383.159 107.667 387.137 107.964 387.664 106.426 387.877 105.807 387.509 105.155 386.85 104.978 386.19 104.8 384.03 104.128 382.05 103.485 376.762 101.767 373.261 101.114 371.426 101.505M294.88 105.09C294.646 105.469 295.576 107.155 296.948 108.836 298.835 111.149 299.856 111.73 301.146 111.229 302.795 110.587 302.791 110.517 301.006 109.058 299.992 108.229 298.891 106.842 298.56 105.975 297.948 104.377 295.66 103.828 294.88 105.09M314.086 106.668C313.141 107.806 313.487 108.547 316.183 111.165 319.295 114.188 322.2 115.267 322.2 113.401 322.2 112.907 320.629 110.883 318.708 108.904 315.68 105.784 315.066 105.486 314.086 106.668M405.18 108.18C404.586 108.774 404.1 109.818 404.1 110.5 404.1 111.386 403.135 111.657 400.725 111.445 397.771 111.187 397.389 111.375 397.66 112.95 398.178 115.948 399.649 117 403.322 117 405.248 117 407.575 117.469 408.493 118.042 409.427 118.625 410.908 118.786 411.856 118.409 413.495 117.755 413.491 117.693 411.75 116.506 406.138 112.678 406.233 112.819 407.937 110.936 408.796 109.985 409.5 108.733 409.5 108.154 409.5 106.778 406.565 106.795 405.18 108.18M303.385 113.32C301.71 114.392 304.631 117.981 311.4 123.168 314.122 125.254 317.913 128.364 319.824 130.081 321.736 131.796 323.861 133.2 324.549 133.2 325.237 133.2 325.8 133.783 325.8 134.497 325.8 136.5 327.626 137.16 329.098 135.688 330.265 134.521 329.744 133.744 324.736 129.19 321.609 126.346 318.139 123.664 317.025 123.231 315.911 122.799 315 122.085 315 121.645 315 121.205 313.28 119.676 311.177 118.247 309.074 116.819 306.746 114.943 306.002 114.08 305.089 113.02 304.24 112.774 303.385 113.32M414.071 119.164C413.226 120.182 413.581 120.709 415.899 121.864 419.566 123.694 423 123.736 423 121.95 423 121.207 422.267 120.6 421.372 120.6 420.476 120.6 418.958 120.005 417.997 119.279 415.799 117.616 415.366 117.603 414.071 119.164M392.766 122.283C384.232 128.754 380.512 130.499 375.221 130.513 369.69 130.53 367.588 131.467 368.391 133.559 368.782 134.579 370.103 135 372.91 135 375.09 135 378.054 135.236 379.496 135.524 381.642 135.953 382.33 135.65 383.295 133.846 383.943 132.636 385.631 131.083 387.046 130.397 391.534 128.221 400.51 120.264 399.326 119.511 397.747 118.507 397.744 118.509 392.766 122.283M345.504 127.859C344.118 128.716 345.313 130.5 347.273 130.5 348.135 130.5 349.242 130.902 349.735 131.395 350.226 131.886 353.142 132.551 356.215 132.872 361.008 133.374 361.8 133.249 361.8 131.996 361.8 131.192 360.889 130.355 359.775 130.136 358.661 129.918 355.227 129.172 352.144 128.48 349.06 127.786 346.072 127.507 345.504 127.859M430.2 128.227C430.2 129.915 435.31 132.603 437.166 131.891 438.353 131.436 438.248 131.01 436.478 129.127 434.168 126.668 430.2 126.1 430.2 128.227M446.968 133.832C445.66 135.139 446.547 136.8 448.554 136.8 449.738 136.8 450.94 137.408 451.226 138.15 451.51 138.892 452.768 139.5 454.022 139.5 455.447 139.5 456.3 138.994 456.3 138.15 456.3 137.318 455.456 136.8 454.103 136.8 452.894 136.8 451.657 136.397 451.353 135.904 450.521 134.558 447.615 133.185 446.968 133.832M385.2 135.179C385.2 136.047 387.095 136.846 390.978 137.618 396.591 138.734 400.5 138.395 400.5 136.793 400.5 135.496 399.464 135.215 392.175 134.537 386.416 134.002 385.2 134.113 385.2 135.179M404.588 136.739C403.548 138.421 404.923 139.378 409.296 140.016 411.636 140.357 415.034 141.221 416.849 141.935 420.828 143.502 425.25 143.184 425.25 141.329 425.25 139.567 417.803 138.04 415.681 139.365 414.554 140.069 414.041 140.006 413.701 139.12 413.449 138.463 412.097 137.73 410.696 137.49 409.296 137.251 407.482 136.768 406.666 136.416 405.85 136.065 404.914 136.21 404.588 136.739M331.2 138.009C331.2 138.674 334.453 141.508 338.43 144.306 344.162 148.341 345.768 149.107 346.19 148.009 346.483 147.246 346.571 146.482 346.387 146.311 344.488 144.551 337.306 139.5 336.703 139.5 336.272 139.5 335.417 138.892 334.8 138.15 333.408 136.472 331.2 136.386 331.2 138.009M522.9 138.15C523.516 138.892 524.495 139.5 525.075 139.5 526.677 139.5 532.485 147.563 535.035 153.329 537.457 158.805 537.799 161.582 536.462 164.883 536.001 166.019 535.397 167.962 535.12 169.2 534.046 173.994 533.238 174.178 529.295 170.529 525.09 166.639 524.896 165.837 527.4 162.654 530.83 158.294 529.081 149.965 524.275 147.775 519.013 145.378 513 148.022 513 152.735 513 155.252 510.822 156.353 508.938 154.79 507.265 153.401 507.211 148.472 508.828 144.604 511.448 138.334 519.853 134.479 522.9 138.15M457.65 140.4C456.755 141.847 458.032 143.1 460.403 143.1 462 143.1 462.6 142.609 462.6 141.3 462.6 139.991 462 139.5 460.403 139.5 459.194 139.5 457.956 139.905 457.65 140.4M437.019 146.587C436.278 147.788 439.819 150.109 443.522 150.849 445.828 151.311 446.4 151.131 446.4 149.94 446.4 147.785 438.11 144.823 437.019 146.587M470.197 146.786C469.453 147.989 471.333 149.891 474.075 150.714 475.71 151.204 476.1 150.969 476.1 149.493 476.1 146.739 471.523 144.641 470.197 146.786M450.907 149.377C449.906 150.009 449.824 150.484 450.586 151.246 451.724 152.384 455.4 150.951 455.4 149.368 455.4 148.262 452.662 148.267 450.907 149.377M349.423 150.525C350.257 153.036 362.238 154.76 381.729 155.175 396.699 155.494 397.921 155.653 403.068 157.964 407.128 159.785 409.172 160.237 411.039 159.727 412.42 159.349 414.296 158.961 415.208 158.864 416.758 158.7 418.455 156.964 418.486 155.508 418.494 155.156 415.838 155.086 412.583 155.354 408.27 155.71 405.669 155.443 402.986 154.37 399.257 152.878 392.046 152.226 371.7 151.543 365.512 151.335 359.275 150.768 357.841 150.282 354.039 148.997 348.965 149.143 349.423 150.525M524.838 153.392C526.265 156.524 525.27 158.212 521.588 158.902 517.916 159.592 515.275 158.099 516.45 156 517.182 154.692 521.853 151.388 523.144 151.266 523.526 151.23 524.288 152.186 524.838 153.392M469.8 157.391C469.8 159.465 474.814 161.846 476.22 160.44 476.845 159.815 476.282 158.911 474.456 157.611 471.145 155.254 469.8 155.19 469.8 157.391M427.815 159.054C424.714 159.337 423.9 159.827 423.024 161.941 422.444 163.343 420.798 165.611 419.367 166.982 416.497 169.731 416.633 170.677 420.088 171.99 422.615 172.951 423.861 171.934 423.886 168.889 423.894 167.975 424.738 166.052 425.761 164.614 427.333 162.408 428.239 162 431.578 162 433.753 162 437.588 162.81 440.1 163.8 445.255 165.832 448.527 166.131 447.99 164.522 447.523 163.12 435.892 158.353 433.438 158.557 432.4 158.644 429.869 158.867 427.815 159.054M479.868 162.675C480.22 164.522 483.955 165.305 485.421 163.839 486.692 162.568 484.712 161.134 481.659 161.113 480.15 161.104 479.651 161.538 479.868 162.675M580.664 170.775C584.815 175.241 593.1 186.585 593.1 187.806 593.1 189.892 591.71 189.11 588.535 185.234 586.839 183.163 584.235 180.025 582.75 178.259 579.555 174.461 576 169.473 576 168.786 576 167.46 578.622 168.578 580.664 170.775M498.629 170.325C498.698 173.071 503.932 176.964 506.32 176.047 508.337 175.273 507.814 172.837 505.437 171.933 504.248 171.481 503.009 170.681 502.684 170.156 501.859 168.82 498.594 168.957 498.629 170.325M481.005 173.773C479.941 175.495 485.069 179.928 487.893 179.729L490.437 179.55 487.094 176.205C483.631 172.741 482.036 172.103 481.005 173.773M463.127 176.729C463.83 178.56 468.078 180.282 469.179 179.181 470.595 177.765 468.157 175.5 465.218 175.5 463.423 175.5 462.798 175.868 463.127 176.729M423.93 178.425C423.976 180.176 427.179 183.6 428.769 183.6 430.538 183.6 430.544 183.275 428.827 179.955 427.456 177.304 423.87 176.183 423.93 178.425M538.448 182.335C544.319 187.771 548.451 193.177 547.285 193.897 546.887 194.143 544.919 192.94 542.912 191.223 540.905 189.505 538.888 188.1 538.43 188.1 537.972 188.1 536.515 186.885 535.192 185.4 533.868 183.915 531.979 182.7 530.993 182.7 529.6 182.7 529.2 182.096 529.2 180 529.2 175.782 532.183 176.535 538.448 182.335M471.065 181.937C470.173 183.38 473.229 185.4 476.303 185.4 478.531 185.4 478.746 185.18 477.957 183.706 476.513 181.009 472.306 179.929 471.065 181.937M488.7 181.86C488.7 182.388 489.76 184.21 491.057 185.91 492.819 188.221 494.095 189 496.117 189 498.382 189 498.644 189.212 497.732 190.31 496.496 191.801 497.198 193.5 499.05 193.5 501.619 193.5 501.404 191.443 498.524 188.473 496.887 186.782 494.792 185.4 493.87 185.4 492.935 185.4 492.45 184.985 492.774 184.46 493.094 183.944 492.865 182.931 492.268 182.21 491.002 180.686 488.7 180.46 488.7 181.86M429.878 186.022C428.435 187.465 429.639 189.848 433.788 193.764 436.257 196.094 438.701 198 439.22 198 439.739 198 441.06 198.577 442.156 199.283 443.253 199.988 446.736 201.428 449.896 202.483 455.539 204.366 458.565 204.346 457.926 202.43 457.608 201.472 448.863 198.086 446.562 198.03 444.829 197.986 438.363 193.352 434.128 189.117 432.109 187.096 430.195 185.704 429.878 186.022M481.909 189.067C481.58 189.598 482.234 191.016 483.363 192.217 485.659 194.661 485.897 194.73 487.8 193.498 488.929 192.768 488.706 192.258 486.45 190.395 483.404 187.88 482.759 187.69 481.909 189.067M597.914 193.725C599.127 195.333 601.012 198.27 602.101 200.25 603.191 202.23 604.61 204.458 605.255 205.2 607.979 208.334 615.132 223.756 619.032 234.9 623.613 247.992 624.609 251.46 624.604 254.295 624.602 255.805 624.962 257.425 625.403 257.895 626.19 258.733 627.92 265.056 632.285 283.05 634.837 293.576 634.958 295.2 633.185 295.2 632.403 295.2 631.442 293.649 630.815 291.375 624.752 269.377 623.992 266.827 622.869 264.729 622.336 263.733 621.9 262.132 621.9 261.171 621.9 260.21 620.83 257.044 619.522 254.137 618.215 251.229 616.845 247.432 616.477 245.7 616.111 243.967 615.175 240.322 614.398 237.6 613.622 234.878 612.42 230.625 611.729 228.15 609.801 221.246 601.031 203.664 595.575 195.765 592.763 191.695 592.553 190.8 594.404 190.8 595.121 190.8 596.701 192.117 597.914 193.725M501.756 196.189C501.454 196.679 502.234 198.4 503.49 200.014 504.745 201.629 507.5 205.548 509.611 208.723 513.567 214.672 515.998 216.903 517.207 215.692 517.956 214.943 517.815 214.691 510.095 203.064 505.291 195.827 503.097 194.019 501.756 196.189M469.51 199.49C469.185 199.814 467.401 200.327 465.545 200.629 463.34 200.987 462.065 201.719 461.868 202.738 461.611 204.078 462.322 204.3 466.862 204.3 470.123 204.3 472.827 204.808 473.903 205.621 474.863 206.348 476.554 206.956 477.658 206.971 478.762 206.987 482.293 208.295 485.504 209.879 488.715 211.462 491.608 212.493 491.932 212.168 493.937 210.163 488.57 206.751 478.723 203.768 476.453 203.081 473.858 201.704 472.958 200.709 471.227 198.796 470.471 198.529 469.51 199.49M497.7 206.41C497.7 207.851 500.551 210.6 502.046 210.6 503.773 210.6 503.241 207.139 501.359 206.132 498.99 204.863 497.7 204.962 497.7 206.41M571.5 209.963C571.5 211.423 578.837 218.7 580.309 218.7 582.562 218.7 581.269 215.672 577.575 212.296 573.667 208.723 571.5 207.891 571.5 209.963M504 215.159C504 216.989 505.87 219.6 507.181 219.6 508.732 219.6 508.863 218.36 507.569 215.941 506.583 214.099 504 213.534 504 215.159M518.832 218.729C518.483 219.294 518.58 220.14 519.048 220.608 520.141 221.701 523.084 220.6 522.638 219.264 522.167 217.849 519.6 217.488 518.832 218.729M582.646 221.795C581.858 223.849 583.034 227.693 584.637 228.308 587.05 229.234 587.834 227.345 586.307 224.284 584.553 220.767 583.354 219.952 582.646 221.795M542.241 224.114C541.581 225.182 551.607 235.8 553.274 235.8 555.74 235.8 554.156 232.348 549.647 227.894 544.898 223.204 543.306 222.392 542.241 224.114M581.044 280.431C580.368 282.192 581.095 283.5 582.75 283.5 584.602 283.5 585.304 281.801 584.068 280.31 582.659 278.614 581.727 278.652 581.044 280.431M538.647 292.649C537.634 295.261 538.54 299.214 540.225 299.534 542.225 299.912 542.417 295.483 540.514 292.897 539.355 291.321 539.172 291.297 538.647 292.649M611.963 299.614C613.181 300.48 616.016 303.885 618.263 307.18 620.901 311.046 622.988 313.201 624.15 313.257 625.14 313.303 625.444 313.547 624.825 313.796 623.196 314.454 623.447 316.824 625.504 320.197 627.466 323.415 627.788 327.099 626.422 330.691 625.36 333.485 623.496 333.605 618.113 331.223 613.135 329.022 607.95 328.468 607.95 330.137 607.95 331.333 615.545 334.521 620.55 335.426 623.132 335.893 628.2 340.285 628.2 342.056 628.2 342.52 628.909 343.65 629.775 344.567 638.081 353.356 639.94 356.741 639.023 361.405 638.085 366.174 637.305 367.867 635.781 368.452 635.076 368.723 634.5 369.517 634.5 370.217 634.5 370.917 633.69 371.702 632.7 371.961 631.71 372.219 630.9 373.005 630.9 373.707 630.9 374.987 639.463 382.5 640.922 382.5 641.35 382.5 641.7 384.906 641.7 387.847 641.7 390.788 642.105 393.444 642.6 393.75 644.314 394.809 643.515 397.831 641.25 398.864 638.419 400.153 638.427 400.817 641.29 402.693 643.274 403.994 643.543 404.742 643.315 408.324 643.055 412.371 642.406 413.235 638.775 414.356 636.35 415.106 636.828 417.6 639.397 417.6 640.606 417.6 641.791 417.919 642.032 418.309 643.074 419.995 638.869 442.858 636.535 448.2 635.777 449.932 634.835 452.565 634.441 454.05 634.046 455.535 632.858 459.99 631.8 463.95 630.741 467.91 629.487 472.709 629.013 474.614 628.538 476.52 627.358 479.558 626.39 481.364 625.422 483.171 623.36 487.688 621.808 491.4 620.257 495.112 618.023 500.214 616.844 502.736 615.665 505.26 614.7 507.795 614.7 508.371 614.7 508.947 613.282 511.435 611.55 513.9 609.818 516.365 608.4 518.741 608.4 519.18 608.4 519.62 607.759 520.511 606.976 521.161 606.194 521.811 604.356 524.594 602.893 527.346 601.43 530.098 599.247 533.768 598.043 535.5 596.838 537.232 594.818 540.145 593.555 541.973 589.793 547.414 569.45 569.791 563.744 574.763 553.435 583.744 552.085 584.824 545.85 589.065 542.385 591.423 538.03 594.713 536.172 596.376 534.315 598.039 532.448 599.4 532.024 599.4 531.6 599.4 529.475 600.814 527.302 602.541 525.128 604.269 522.905 605.686 522.363 605.691 521.82 605.696 520.441 606.51 519.3 607.5 518.159 608.49 516.906 609.3 516.517 609.3 515.924 609.3 503.849 617.497 500.81 619.963 499.707 620.858 470.009 634.5 469.165 634.5 468.849 634.5 465.975 635.547 462.777 636.826 453.468 640.551 437.334 645.939 432.45 646.956 426.768 648.139 413.466 649.8 409.678 649.8 405.162 649.8 406.3 648.194 411.975 646.558 418.003 644.82 427.59 640.163 433.621 636.041 435.947 634.451 438.498 632.745 439.29 632.25 440.083 631.755 442.444 630.211 444.539 628.817 446.633 627.425 450.743 625.245 453.673 623.974 456.611 622.701 459 621.088 459 620.379 459 619.672 459.426 619.357 459.945 619.678 461.392 620.573 466.829 617.683 474.446 611.973 478.238 609.129 481.883 606.581 482.546 606.309 483.432 605.946 483.188 605.325 481.625 603.958 478.83 601.513 478.202 601.606 476.603 604.696 475.865 606.125 473.494 608.329 471.334 609.595 469.174 610.861 466.838 612.581 466.144 613.417 464.736 615.115 451.175 621.88 449.158 621.892 448.447 621.896 447.03 622.633 446.008 623.528 440.328 628.505 417.263 641.372 410.4 643.392 408.172 644.048 405.19 645.201 403.771 645.954 402.354 646.708 398.68 647.526 395.608 647.772 387.071 648.457 373.319 643.415 366.193 636.988 361.576 632.823 358.698 625.747 359.435 620.371 360.119 615.383 361.484 613.688 366.552 611.536 368.641 610.65 372.546 608.964 375.229 607.792L380.108 605.659 382.478 607.929C386.452 611.735 390.962 610.436 390.026 605.754 389.597 603.61 390.032 603.13 394.349 600.978 396.99 599.661 401.829 597.976 405.104 597.233 416.531 594.64 425.497 587.691 460.629 554.203 466.227 548.866 471.248 544.5 471.786 544.5 472.324 544.5 474.43 543.136 476.465 541.468 478.5 539.8 483.594 536.689 487.786 534.553 496.091 530.321 498.217 528.966 506.085 522.892 508.965 520.669 512.413 518.04 513.747 517.05 520.93 511.72 527.233 506.532 529.447 504.128 530.82 502.636 533.047 501.288 534.397 501.133 536.188 500.927 536.931 500.275 537.151 498.718 537.317 497.546 539.244 494.306 541.433 491.518 543.622 488.731 546.117 485.554 546.979 484.458 547.841 483.363 549.342 482.35 550.315 482.208 551.461 482.041 552.281 481 552.643 479.25 553.314 476.021 558.667 467.519 561.951 464.468 563.243 463.268 564.302 461.85 564.304 461.318 564.305 460.786 565.294 458.407 566.498 456.033 567.703 453.658 569.161 450.216 569.738 448.383 571.954 441.348 576.521 436.403 578.237 439.18 579.559 441.318 573.309 456.65 570.505 458.15 569.086 458.91 568.808 459.687 569.243 461.669 570.019 465.201 565.852 474.993 562.299 477.989 560.774 479.275 559.802 480.775 560.139 481.321 561.003 482.719 556.321 491.107 552.825 494.422 551.216 495.948 549.9 497.686 549.9 498.283 549.9 499.697 543.826 509.892 542.159 511.276 541.453 511.861 538.226 512.458 534.988 512.601 529.385 512.85 526.5 513.97 526.5 515.899 526.5 516.442 528.56 516.538 531.895 516.151 538.346 515.402 539.438 516.634 536.517 521.361 532.51 527.844 529.452 528.728 524.61 524.808 522.69 523.254 522.606 522.882 523.702 520.833 526.447 515.704 522.068 515.948 518.378 521.13 515.93 524.569 516.785 525.809 523.719 528.875 526.437 530.077 528.839 531.239 529.058 531.458 529.277 531.677 527.516 534.127 525.145 536.903 521.131 541.6 520.624 541.911 517.831 541.387 514.878 540.833 514.839 540.869 515.382 543.586 516.024 546.794 514.669 548.648 508.647 552.802 505.599 554.904 504.141 555.373 501.993 554.944 498.71 554.287 496.8 555.612 496.8 558.547 496.8 560.243 495.71 561.225 491.426 563.387 488.47 564.88 485.331 566.091 484.451 566.081 483.57 566.07 481.756 564.515 480.42 562.624L477.989 559.186 480.259 555.846C483.602 550.927 489.15 549.3 492.438 552.274 493.745 553.458 494.329 553.531 495.4 552.642 496.564 551.675 496.505 551.227 494.923 549.089 493.447 547.092 493.285 546.193 494.043 544.198 494.555 542.854 495.688 541.518 496.561 541.23 497.435 540.943 499.515 540.101 501.185 539.359 503.529 538.318 504.716 538.238 506.402 539.005 511.258 541.219 513.128 538.858 508.941 535.8 506.864 534.283 506.768 533.92 507.763 531.291 508.358 529.718 509.811 527.991 510.993 527.453 513.084 526.5 513.368 524.673 511.521 524.057 509.829 523.493 505.857 527.462 504.071 531.499 502.837 534.289 501.763 535.5 500.521 535.5 497.93 535.5 491.11 541.014 490.499 543.602 490.132 545.161 488.891 546.223 486.315 547.184 481.966 548.806 479.046 551.093 476.24 555.075 474.737 557.205 473.483 558 471.619 558 467.027 558 461.335 567.895 464.249 570.809 465.799 572.359 468 569.901 468 566.62 468 563.399 469.366 561.6 471.811 561.6 474.037 561.6 477.449 563.927 479.247 566.672 481.108 569.511 480.193 570.764 473.953 573.925 470.269 575.792 469.134 576.017 467.752 575.154 465.685 573.863 463.747 575.149 463.329 578.091 463.138 579.43 461.626 580.732 458.55 582.207 454.187 584.3 444.388 589.801 428.203 599.242 423.887 601.76 417.61 604.862 414.253 606.136 405.054 609.626 401.889 611.541 401.546 613.827 401.333 615.241 401.605 615.701 402.446 615.349 403.108 615.072 406.89 613.45 410.85 611.744 414.81 610.039 418.657 608.389 419.4 608.078 420.142 607.766 421.459 607.104 422.325 606.605 423.191 606.108 424.609 605.294 425.475 604.798 426.341 604.301 427.881 603.532 428.896 603.088 429.911 602.644 432.544 601.087 434.746 599.629 436.948 598.171 440.572 596.026 442.8 594.863 445.027 593.7 448.672 591.641 450.9 590.287 453.128 588.932 457.582 586.716 460.8 585.361 464.017 584.006 467.685 581.953 468.949 580.799 470.214 579.645 471.631 578.695 472.099 578.689 472.852 578.679 490.458 568.516 498.437 563.484 500.081 562.448 501.835 561.6 502.336 561.6 502.837 561.6 504.977 560.182 507.091 558.45 509.206 556.717 511.299 555.289 511.743 555.275 512.774 555.243 525.222 543.043 528.664 538.69 530.927 535.828 531.708 535.423 534.502 535.664 536.993 535.878 537.796 535.584 538.03 534.368 538.196 533.503 537.696 532.55 536.917 532.251 535.122 531.562 535.085 528.865 536.85 527.4 537.592 526.784 538.2 525.961 538.2 525.57 538.2 524.445 542.946 517.5 543.715 517.5 544.098 517.5 546.556 518.683 549.18 520.128 555.195 523.441 555.682 525.695 551.714 531.877 548.116 537.484 546.745 538.58 543.275 538.619 540.67 538.647 540.471 538.865 540.711 541.417 541.085 545.38 535.172 554.4 532.199 554.4 530.734 554.4 529.781 553.679 529.191 552.127 528.18 549.469 525.907 548.333 524.471 549.769 523.728 550.512 524.01 551.357 525.544 552.991 526.689 554.209 527.625 556.177 527.625 557.363 527.625 560.044 525.073 564.061 522.938 564.738 522.058 565.017 520.614 566.046 519.729 567.023 518.738 568.118 516.965 568.8 515.11 568.8 512.825 568.8 512.1 569.185 512.1 570.399 512.1 573.112 509.562 575.819 503.916 579.127 497.87 582.672 496.633 582.918 494.968 580.911 493.165 578.739 490.95 579.702 490.95 582.659 490.95 584.076 490.342 585.565 489.6 585.968 488.857 586.372 485.309 588.365 481.714 590.397 475.484 593.919 473.405 594.3 473.395 591.922 473.387 590.029 469.256 585.573 468.146 586.26 466.859 587.056 467.694 591.12 469.595 593.308 471.601 595.617 469.839 597.229 460.81 601.341 456.597 603.26 452.137 605.353 450.9 605.993 441.347 610.932 436.781 613.487 435.761 614.462 435.107 615.088 434.047 615.6 433.407 615.6 432.767 615.6 431.277 616.33 430.096 617.223 428.069 618.755 425.054 619.828 412.886 623.346 407.291 624.964 404.73 626.908 407.03 627.79 408.593 628.39 425.637 624.123 426.958 622.802 427.454 622.306 428.368 621.9 428.99 621.9 429.611 621.9 431.502 620.962 433.192 619.816 434.881 618.669 445.126 613.376 455.956 608.053 466.788 602.731 476.257 598.02 477 597.586 477.742 597.151 480.748 595.333 483.679 593.545 490.899 589.14 493.869 588.607 495.933 591.344 497.285 593.136 497.748 593.281 498.947 592.286 499.985 591.424 500.128 590.674 499.485 589.47 498.196 587.063 499.187 585.418 502.926 583.754 507.771 581.6 509.392 580.523 514.945 575.775 517.694 573.423 520.322 571.5 520.785 571.5 521.247 571.5 523.414 569.677 525.6 567.45 527.8 565.207 530.415 563.4 531.457 563.4 533.791 563.4 535.5 561.776 535.5 559.56 535.5 557.867 537.944 554.509 545.4 545.96 547.627 543.406 550.867 539.214 552.6 536.646 554.332 534.077 556.863 531.504 558.225 530.929 560.132 530.122 560.7 529.27 560.7 527.217 560.7 525.532 561.816 523.174 563.737 520.801 565.409 518.738 567.438 515.746 568.247 514.152 569.056 512.557 570.524 510.822 571.509 510.295 572.854 509.576 573.3 508.409 573.3 505.615 573.3 503.505 573.908 501.22 574.704 500.341 575.476 499.486 577.66 495.755 579.555 492.048 584.124 483.114 587.734 477.004 588.46 476.978 588.784 476.967 590.242 475.347 591.698 473.378 593.154 471.41 595.054 469.8 595.92 469.8 598.339 469.8 598.66 468.424 596.939 465.426 595.572 463.044 595.523 462.311 596.558 459.722 598.798 454.115 602.141 439.65 601.66 437.649 601.394 436.549 602.05 432.499 603.117 428.649 604.183 424.8 605.247 420.536 605.48 419.175 605.831 417.128 606.365 416.7 608.568 416.7 610.614 416.7 611.162 416.337 610.931 415.135 610.765 414.274 609.824 413.426 608.84 413.248 605.733 412.688 605.566 411.754 607.107 403.556 607.934 399.153 608.78 394.616 608.985 393.474 609.262 391.939 609.789 391.534 611.003 391.919 611.912 392.207 613.124 391.865 613.715 391.152 614.574 390.118 614.376 389.575 612.718 388.416 610.924 387.161 610.573 385.928 610.063 379.11 608.482 357.919 607.892 354.322 603.717 340.369 602.131 335.07 601.939 333.283 602.726 331.195 603.547 329.019 603.435 328.358 602.023 327.081 601.099 326.244 600.535 325.247 600.771 324.867 601.006 324.486 601.451 318.566 601.76 311.712 602.068 304.858 602.741 298.725 603.254 298.085 604.416 296.634 608.878 297.418 611.963 299.614M546.732 302.429C546.383 302.994 546.547 303.907 547.098 304.458 548.356 305.716 548.423 312.3 547.177 312.3 546.671 312.3 545.871 311.288 545.4 310.05 544.929 308.812 544.154 307.8 543.676 307.8 541.962 307.8 541.766 309.576 543.121 312.82 543.88 314.635 544.5 317.407 544.5 318.98 544.5 323.767 547.525 325.629 549 321.75 549.645 320.053 550.507 319.5 552.509 319.5 555.343 319.5 561.066 315.42 560.2 314.018 559.33 312.611 556.55 313.122 554.85 315 553.954 315.99 552.116 316.8 550.766 316.8 549.067 316.8 548.165 316.246 547.839 315 547.438 313.467 547.812 313.2 550.356 313.2 553.204 313.2 553.307 313.084 552.567 310.725 552.14 309.364 551.452 306.835 551.039 305.106 550.282 301.948 547.933 300.487 546.732 302.429M639.671 311.161C640.739 315.824 640.374 317.414 638.578 315.923 636.402 314.117 635.975 306.9 638.045 306.9 638.403 306.9 639.135 308.817 639.671 311.161M643.862 328.358C644.12 328.774 644.722 331.306 645.201 333.983 646.375 340.549 647.616 345.583 650.174 354.15 654.373 368.211 656.878 388.293 655.332 395.506 654.797 398.005 654.115 404.1 653.817 409.05 653.278 417.997 652.549 423.021 650.296 433.35 649.648 436.32 648.413 441.99 647.552 445.95 646.69 449.91 645.464 454.972 644.826 457.2 644.187 459.427 643 464.49 642.19 468.45 639.638 480.904 638.606 483.808 629.946 502.899 628.986 505.016 628.2 507.259 628.2 507.883 628.2 508.508 627.39 510.608 626.4 512.55 625.41 514.492 624.6 516.615 624.6 517.269 624.6 517.922 623.992 518.69 623.25 518.974 622.507 519.26 621.9 519.862 621.9 520.314 621.9 520.766 620.797 522.849 619.448 524.943 618.098 527.036 616.273 530.167 615.392 531.9 612.043 538.479 602.795 553.113 597.758 559.8 596.081 562.027 591.005 567.672 586.48 572.343 581.953 577.014 577.643 581.935 576.9 583.276 575.531 585.751 560.328 600.08 556.2 602.789 554.962 603.6 552.301 605.701 550.287 607.457 548.272 609.213 545.437 611.348 543.987 612.202 542.536 613.057 538.92 615.349 535.95 617.296 518.53 628.715 500.873 638.925 498.467 638.971 497.65 638.987 494.673 640.215 491.85 641.7 489.027 643.185 486.049 644.403 485.233 644.406 484.418 644.409 482.535 645.216 481.05 646.2 479.565 647.184 477.692 647.991 476.888 647.994 476.085 647.997 473.464 649.097 471.065 650.438 468.666 651.779 463.654 653.579 459.926 654.439 449.978 656.734 447.513 657.461 440.55 660.15 437.085 661.489 432.427 662.974 430.2 663.45 427.972 663.927 424.327 664.87 422.1 665.547 418.486 666.645 412.877 667.494 398.25 669.157 390.765 670.008 380.215 666.949 364.216 659.29 353.014 653.927 346.159 646.605 342.954 636.58 341.551 632.193 342.08 613.294 343.732 608.823 344.853 605.785 359.564 590.923 362.849 589.509 364.004 589.011 365.557 588.23 366.3 587.773 368.115 586.656 376.6 583.656 381.6 582.364 398.525 577.99 413.949 571.312 427.956 562.295 437.399 556.216 440.078 554.998 445.5 554.317 448.222 553.975 452.07 553.414 454.05 553.07L457.65 552.444 453.721 555.897C451.56 557.797 445.08 563.749 439.321 569.125 433.561 574.502 426.42 580.74 423.45 582.989 420.48 585.239 417.641 587.522 417.143 588.065 415.913 589.4 408.714 592.812 405.737 593.47 403.762 593.906 402.97 593.504 401.365 591.251 399.893 589.184 398.822 588.568 397.064 588.775 394.457 589.081 393.02 592.428 394.353 595.087 394.902 596.183 394.664 596.87 393.527 597.478 391.549 598.537 382.091 602.003 378.45 603.003 374.528 604.08 366.332 607.266 365.105 608.19 364.524 608.627 361.519 609.727 358.425 610.635 353.711 612.018 352.8 612.608 352.8 614.282 352.8 615.38 353.394 616.773 354.121 617.376 355.059 618.154 355.303 619.556 354.963 622.211 354.612 624.946 354.982 626.907 356.341 629.515 358.905 634.432 358.691 635.832 355.05 637.98 353.318 639.003 351.9 640.38 351.9 641.039 351.9 644.355 357.228 645.605 359.274 642.77 361.467 639.73 362.592 639.776 367.815 643.117 374.856 647.621 381.18 649.706 392.85 651.37 412.535 654.178 431.059 652.234 450 645.374 455.693 643.312 461.579 641.299 463.081 640.901 464.584 640.503 468.489 638.9 471.76 637.339 475.031 635.777 478.028 634.5 478.419 634.5 481.274 634.5 502.645 623.117 513 616.081 518.198 612.55 523.951 608.961 525.787 608.106 527.622 607.252 529.347 606.191 529.619 605.75 529.892 605.309 533.25 602.824 537.082 600.226 540.914 597.629 545.241 594.356 546.696 592.951 548.151 591.548 549.837 590.4 550.442 590.4 554.755 590.4 592.374 551.778 599.234 540.305 601.058 537.256 605.834 529.561 609.847 523.205 613.86 516.85 617.458 510.637 617.841 509.4 618.223 508.162 620.247 503.707 622.337 499.5 624.428 495.293 626.648 490.432 627.273 488.7 627.898 486.967 629.297 483.525 630.383 481.05 632.337 476.599 633.014 474.466 635.81 463.95 637.716 456.786 640.111 448.973 640.913 447.3 643.05 442.851 644.839 431.847 647.061 409.5 648.171 398.336 647.461 373.182 645.778 364.05 645.049 360.09 644.036 352.395 643.529 346.95 643.021 341.505 642.199 335.635 641.703 333.906 640.452 329.55 640.574 327.6 642.097 327.6 642.811 327.6 643.604 327.941 643.862 328.358M554.4 331.853C554.4 333.284 554.999 335.242 555.733 336.203 557.734 338.826 559.136 336.264 557.667 332.666 556.172 329.002 554.4 328.561 554.4 331.853M548.719 333.581C546.959 335.342 549.183 344.494 551.757 346.085 553.621 347.237 554.367 345.447 553.069 342.936 552.34 341.527 551.627 338.848 551.484 336.983 551.235 333.737 550.037 332.263 548.719 333.581M561.375 340.921C557.648 341.239 556.96 342.959 559.301 346.103 560.564 347.798 560.691 347.763 563.545 344.939 566.914 341.607 566.316 340.501 561.375 340.921M602.635 350.775C603.045 353.622 603.326 356.538 603.259 357.255 603.193 357.973 603.716 359.674 604.42 361.035 605.226 362.595 605.7 366.286 605.7 371.008L605.7 378.506 602.91 379.559C599.565 380.822 599.858 383.068 603.319 382.691 605.628 382.44 605.7 382.576 605.7 387.227 605.7 389.864 605.143 394.233 604.462 396.936 603.781 399.639 602.964 402.964 602.645 404.325 602.205 406.204 601.529 406.8 599.833 406.8 597.007 406.8 597.011 407.733 599.85 410.4 602.442 412.835 602.639 415.308 600.74 421.568 600.003 423.998 599.4 427.009 599.4 428.26 599.4 429.511 598.522 431.469 597.448 432.612 595.739 434.431 595.615 435.082 596.457 437.826 597.065 439.807 597.129 442.209 596.632 444.355 596.198 446.223 595.833 449.087 595.822 450.723 595.81 452.38 594.805 455.161 593.55 457.007 592.312 458.828 591.297 460.932 591.295 461.684 591.283 464.99 589.24 469.874 586.347 473.512 584.626 475.678 583.214 477.806 583.209 478.241 583.204 478.676 581.782 480.601 580.05 482.519 578.318 484.436 576.9 486.82 576.9 487.816 576.9 490.469 571.77 499.117 569.196 500.802 567.524 501.898 567.109 502.772 567.508 504.363 568.15 506.919 564.761 513.687 560.253 518.85 557.538 521.959 556.955 522.266 555.97 521.1 554.552 519.422 549.978 516.225 547.875 515.443 547.009 515.12 546.3 514.417 546.3 513.879 546.3 512.076 553.245 500.88 556.087 498.1 557.635 496.588 558.9 495.029 558.9 494.636 558.9 493.316 561.966 487.381 564.523 483.75 565.918 481.77 567.694 479.248 568.47 478.146 569.245 477.042 570.209 474.815 570.611 473.196 571.661 468.964 573.157 464.877 576.466 457.2 580.245 448.431 581.14 445.814 581.848 441.45 582.693 436.246 584.462 433.965 587.908 433.633 591.221 433.314 591.593 431.988 588.74 430.669 586.05 429.425 585.826 428.329 586.49 419.68 586.978 413.335 587.468 411.545 589.315 409.35 591.285 407.009 591.412 406.443 590.403 404.555 589.452 402.78 589.501 401.809 590.688 398.842 591.475 396.877 592.596 392.497 593.18 389.11 593.764 385.722 594.796 382.151 595.471 381.174 596.282 380.003 596.7 376.704 596.7 371.47 596.7 366.058 597.171 362.48 598.184 360.196 599.158 358.001 599.594 354.915 599.452 351.225 599.281 346.768 599.512 345.6 600.565 345.6 601.495 345.6 602.115 347.148 602.635 350.775M558.9 353.766C558.9 355.054 559.385 355.539 560.465 355.331 562.81 354.879 563.072 351.9 560.766 351.9 559.478 351.9 558.9 352.478 558.9 353.766M553.042 355.65C552.789 356.31 552.46 362.258 552.308 368.867 552.091 378.352 552.291 380.983 553.255 381.353 553.927 381.612 554.63 381.67 554.815 381.485 555.805 380.495 556.909 365.951 556.373 360.972 555.786 355.531 554.111 352.855 553.042 355.65M593.172 367.363C592.985 374.448 591.859 378.023 590.307 376.463 588.956 375.105 588.974 361.268 590.329 359.635 592.481 357.043 593.38 359.487 593.172 367.363M643.324 373.766C643.084 377.079 642.783 377.55 640.898 377.55 637.164 377.55 636.555 375.098 639.044 370.088 641.236 365.678 641.257 365.664 642.424 367.816 643.071 369.006 643.476 371.684 643.324 373.766M560.646 366.525C560.616 366.648 560.401 368.673 560.17 371.025 559.834 374.42 560.027 375.3 561.103 375.3 561.848 375.3 563.122 374.287 563.933 373.05 565.298 370.966 565.298 370.634 563.933 368.55 562.722 366.703 560.877 365.566 560.646 366.525M624.331 368.669C622.914 370.086 623.755 371.817 625.725 371.538 626.838 371.38 627.75 370.648 627.75 369.913 627.75 368.482 625.379 367.62 624.331 368.669M579.778 382.413C578.217 384.356 574.703 387.225 571.97 388.788 569.236 390.353 567 391.98 567 392.405 567 393.496 563.39 394.567 560.59 394.307 558.646 394.127 558.146 394.533 557.748 396.614 556.75 401.836 558.977 401.784 567.086 396.392 570.485 394.133 573.499 391.906 573.785 391.442 574.072 390.979 575.278 390.6 576.467 390.6 578.47 390.6 584.162 385.518 586.208 381.903 587.083 380.355 586.988 380.219 584.484 379.452 583.041 379.009 581.975 379.679 579.778 382.413M550.703 393.075C550.179 394.436 549.029 398.925 548.146 403.05 546.772 409.477 546.727 410.62 547.832 411.044 548.541 411.316 549.425 411.181 549.797 410.745 550.997 409.334 554.638 393.418 554.089 391.986 553.27 389.851 551.757 390.338 550.703 393.075M616.032 394.229C615.683 394.794 615.82 395.68 616.338 396.198 617.548 397.408 620.367 396.353 619.875 394.874 619.375 393.37 616.828 392.942 616.032 394.229M633.652 405.388C632.689 406.547 632.743 407.182 633.965 409.045 635.961 412.092 637.721 411.882 638.916 408.454 640.065 405.159 640.138 405.32 637.132 404.565 635.567 404.173 634.439 404.439 633.652 405.388M546.186 414.688C545.286 414.873 544.513 416.265 544.184 418.298 543.248 424.066 546.629 424.708 547.706 418.967 548.41 415.21 548.086 414.295 546.186 414.688M616.504 422.775C616.512 424.382 620.19 429.3 621.383 429.3 623.692 429.3 623.838 427.613 621.772 424.819 619.974 422.387 616.495 421.037 616.504 422.775M582.3 427.559C582.3 430.177 580.678 432.9 579.119 432.9 577.504 432.9 577.44 431.334 578.925 428.136 580.257 425.268 582.3 424.919 582.3 427.559M624.6 432.195C624.6 433.375 624.991 434.732 625.47 435.21 625.949 435.689 626.668 437.656 627.069 439.582 627.744 442.831 630.166 445.635 631.309 444.491 631.58 444.219 631.547 441.541 631.233 438.539 630.649 432.948 630.705 433.024 625.275 430.379 624.903 430.198 624.6 431.015 624.6 432.195M540.134 433.188C538.956 434.607 536.915 444.515 537.649 445.249 539.02 446.62 540.624 444.192 541.658 439.186 542.846 433.434 542.163 430.745 540.134 433.188M560.649 434.475C559.966 435.836 559.26 437.253 559.079 437.625 558.519 438.773 562.226 438.367 563.18 437.175 563.674 436.557 564.359 435.139 564.701 434.025 565.64 430.961 562.219 431.341 560.649 434.475M545 440.919C544.027 442.493 545.65 444.691 549.075 446.439 553.212 448.549 555.177 448.668 555.874 446.85 556.197 446.009 557.57 445.5 559.512 445.5 562.006 445.5 562.568 445.184 562.309 443.925 562.036 442.587 561.095 442.385 556.062 442.586 551.655 442.76 549.849 442.472 549.009 441.461 547.746 439.94 545.77 439.672 545 440.919M542.094 446.611C540.446 449.184 539.324 453.632 540.189 454.167 541.483 454.966 543.333 452.666 544.012 449.41 544.63 446.452 543.372 444.615 542.094 446.611M535.195 449.841C533.38 451.846 533.223 455.4 534.95 455.4 535.673 455.4 536.457 454.032 536.808 452.158 537.546 448.223 537.16 447.668 535.195 449.841M627.854 450.124C625.687 453.218 625.952 455.589 628.425 455.238 629.9 455.028 630.53 454.248 630.745 452.365 631.161 448.729 629.651 447.559 627.854 450.124M360 453.981C372.749 456.543 377.593 457.866 380.25 459.509 381.24 460.122 383.361 460.896 384.965 461.231 386.568 461.565 388.104 462.202 388.38 462.648 388.654 463.092 391.062 464.905 393.728 466.675 397.654 469.281 407.25 477.792 415.8 486.25 423.085 493.459 426.6 501.232 426.6 510.138 426.6 513.612 425.961 518.948 425.181 521.995 423.686 527.83 418.649 538.281 415.858 541.341 414.949 542.335 413.93 544.063 413.591 545.179 413.253 546.294 410.98 549.256 408.541 551.76 406.102 554.265 403.848 557.34 403.533 558.595 402.295 563.53 391.664 568.254 376.514 570.602 373.964 570.997 369.711 571.933 367.064 572.681 364.416 573.429 360.427 574.321 358.2 574.664 354.154 575.287 352.875 575.606 336.346 580.097 326.11 582.879 322.741 582.61 318.234 578.652 316.568 577.191 313.811 575.411 312.107 574.699 310.402 573.987 308.448 572.73 307.765 571.908 307.082 571.084 304.076 568.777 301.086 566.779 294.781 562.568 286.753 554.438 284.419 549.9 283.527 548.167 281.336 542.064 279.549 536.335 275.762 524.196 275.435 518.126 278.1 509.4 279.083 506.182 279.892 502.74 279.899 501.75 279.905 500.76 280.516 498.79 281.255 497.372 281.995 495.954 282.6 494.054 282.6 493.15 282.6 492.246 283.005 491.256 283.5 490.95 283.995 490.644 284.406 489.709 284.414 488.872 284.431 486.802 297.587 472.039 301.5 469.697 303.232 468.66 305.46 467.083 306.45 466.194 310.351 462.688 322.654 457.008 334.35 453.315 339.637 451.644 349.672 451.905 360 453.981M581.1 455.1C579.59 456.61 580.862 457.76 585.174 458.784 588.897 459.669 589.992 459.666 590.561 458.772 591.769 456.873 582.806 453.394 581.1 455.1M538.587 458.673C538.294 459.596 537.682 461.281 537.227 462.417 536.772 463.554 536.4 464.615 536.4 464.774 536.4 465.383 542.865 466.08 544.102 465.605 544.816 465.331 545.4 464.474 545.4 463.7 545.4 462.925 546.079 461.542 546.908 460.624 548.033 459.382 548.158 458.698 547.397 457.937 546.215 456.755 543.6 458.428 543.6 460.363 543.6 460.993 542.944 461.759 542.141 462.067 541.026 462.495 540.793 462.208 541.148 460.847 541.786 458.411 539.333 456.331 538.587 458.673M529.231 460.741C527.888 463.252 528.086 465.3 529.672 465.3 530.906 465.3 532.8 461.995 532.8 459.841 532.8 458.309 530.18 458.969 529.231 460.741M622.705 461.054C621.415 462.152 619.733 463.455 618.967 463.95 617.848 464.673 617.704 465.795 618.236 469.653 618.835 473.998 620.101 476.048 622.21 476.086 622.627 476.094 622.703 474.164 622.377 471.797 621.817 467.725 621.96 467.314 625.042 464.141 629.62 459.427 627.658 456.836 622.705 461.054M526.891 471.15C527.405 473.895 527.251 474.3 525.686 474.3 524.095 474.3 519.3 479.299 519.3 480.958 519.3 481.309 517.073 484.388 514.35 487.8 511.627 491.212 509.4 494.618 509.4 495.37 509.4 496.121 508.596 497.166 507.614 497.692 506.527 498.274 505.912 499.422 506.039 500.629 506.196 502.104 505.745 502.642 504.282 502.73 502.317 502.849 496.179 508.18 497.029 509.029 497.275 509.275 498.902 509.709 500.646 509.991 503.311 510.424 503.908 510.208 504.41 508.626 504.738 507.593 506.081 506.23 507.395 505.598 510.331 504.186 513.593 499.483 514.835 494.87 515.442 492.618 516.618 490.943 518.208 490.067 522.85 487.511 526.771 483.504 526.168 481.934 525.796 480.965 526.617 479.36 528.524 477.325 530.979 474.706 531.893 474.285 534.199 474.71 536.504 475.133 537.269 474.783 538.924 472.544 541.253 469.396 541.342 468.9 539.581 468.9 538.857 468.9 537.824 469.722 537.286 470.725 536.152 472.846 534.6 472.281 534.6 469.747 534.6 468.27 533.958 468 530.45 468L526.299 468 526.891 471.15M56.925 476.474C58.2867 478.624 59.4 480.814 59.4 481.341 59.4 484.033 69.8589 499.659 76.05 506.216 77.535 507.788 80.9775 511.64 83.7 514.776 90.9909 523.172 102.687 534.918 105.529 536.696 106.893 537.549 110.9 540.768 114.434 543.848 122.64 551.003 129.221 555.855 133.155 557.654 134.862 558.436 140.05 560.857 144.684 563.037 149.317 565.217 153.68 567 154.38 567 155.08 567 157.384 567.76 159.501 568.689 161.617 569.619 168.21 571.903 174.15 573.765 180.09 575.627 186.57 577.741 188.55 578.462 192.289 579.823 195.77 580.548 208.992 582.713 213.305 583.42 218.368 584.438 220.242 584.978 232.098 588.391 302.921 589.398 316.793 586.352 318.144 586.055 323.457 585.882 328.6 585.967 333.742 586.052 343.097 586.138 349.388 586.156 355.679 586.174 360.62 586.525 360.367 586.933 360.115 587.343 358.005 588.963 355.679 590.533 353.353 592.105 349.126 595.791 346.286 598.726 339.676 605.554 338.267 609.761 337.727 624.277L337.32 635.204 340.955 642.727C343.15 647.271 346.126 651.745 348.469 654.024 352.965 658.396 363.114 663.61 375.3 667.807 380.003 669.427 384.443 671.303 385.168 671.976 386.296 673.024 385.973 673.209 382.918 673.263 380.956 673.297 374.693 673.66 369 674.068 345.171 675.776 287.275 670.297 266.4 664.357 264.668 663.864 260.01 662.595 256.05 661.537 245.434 658.699 234.092 654.694 221.229 649.242 214.948 646.579 209.434 644.4 208.975 644.4 208.517 644.4 207.177 643.66 205.996 642.756 204.816 641.852 202.027 640.397 199.8 639.523 180.522 631.961 162.365 619.548 144.409 601.658 139.436 596.704 131.336 588.766 126.409 584.017 113.899 571.964 106.061 563.648 103.95 560.194 102.96 558.573 98.2008 552.569 93.375 546.853 88.5492 541.135 84.6 536.232 84.6 535.956 84.6 535.681 81.2358 530.302 77.1246 524.002 68.2515 510.408 55.8 485.72 55.8 481.721 55.8 480.799 55.2051 479.258 54.4788 478.297 53.0973 476.47 52.6095 472.476 53.775 472.533 54.1467 472.551 55.5633 474.324 56.925 476.474M614.917 485.987C613.278 488.611 613.551 490.5 615.568 490.5 617.397 490.5 619.2 488.073 619.2 485.609 619.2 483.602 616.244 483.863 614.917 485.987M607.842 493.607C607.206 495.265 608.133 496.8 609.772 496.8 611.199 496.8 613.141 493.741 612.268 492.868 611.212 491.812 608.347 492.291 607.842 493.607M606.825 500.146C606.207 500.368 605.692 501.225 605.683 502.05 605.66 504.049 600.592 512.044 598.948 512.675 598.232 512.951 596.974 512.502 596.151 511.68 594.009 509.538 592.227 511.444 594.265 513.697 595.493 515.053 595.612 516.182 594.955 520.243 594.506 523.017 594.5 525.505 594.942 525.967 596.26 527.344 598.321 524.826 598.956 521.061 599.321 518.906 600.745 516.204 602.606 514.138 604.284 512.275 605.668 510.376 605.679 509.921 605.691 509.465 606.263 508.452 606.95 507.671 608.481 505.931 609.677 500.726 608.678 500.157 608.278 499.929 607.444 499.925 606.825 500.146M589.95 505.8C589.216 506.988 590.199 508.5 591.707 508.5 593.023 508.5 594.197 506.297 593.338 505.438 592.499 504.598 590.565 504.806 589.95 505.8M489.375 512.445C485.186 515.784 486.828 518.261 491.199 515.199 493.179 513.813 493.83 511.696 492.525 510.889 492.153 510.659 490.736 511.359 489.375 512.445M477.45 517.965C475.965 518.655 473.852 519.237 472.753 519.26 469.779 519.32 471.21 522 474.216 522 475.549 522 477.098 522.458 477.659 523.019 478.418 523.777 479.374 523.49 481.404 521.894 486.222 518.105 483.333 515.235 477.45 517.965M490.211 521.236C487.838 524.102 487.779 525.6 490.042 525.6 491.359 525.6 495 521.036 495 519.386 495 517.478 492.536 518.431 490.211 521.236M447.862 520.684C447.08 522.721 448.636 522.991 459.497 522.707 468.024 522.484 469.369 522.241 469.63 520.875 469.904 519.446 468.934 519.3 459.162 519.3 450.301 519.3 448.298 519.546 447.862 520.684M469.301 528.865C467.348 530.661 464.438 533.136 462.834 534.365 461.23 535.594 460.14 536.96 460.412 537.4 461.447 539.076 463.909 538.064 467.916 534.315 470.201 532.178 472.837 530.001 473.774 529.476 474.844 528.878 475.269 527.979 474.917 527.062 474.106 524.947 473.27 525.216 469.301 528.865M578.529 526.972C577.856 527.644 578.763 531.832 579.707 532.417 580.144 532.686 580.5 534.019 580.5 535.381 580.5 536.742 581.044 538.601 581.711 539.512 582.854 541.076 583.206 540.953 588.011 537.326 591.029 535.047 593.1 532.795 593.1 531.792 593.1 529.611 591.71 529.646 588.846 531.9 585.508 534.525 584.287 534.136 583.2 530.1 582.526 527.597 581.738 526.5 580.615 526.5 579.727 526.5 578.788 526.712 578.529 526.972M560.218 532.852C559.894 533.375 560.597 535.299 561.78 537.127 567.445 545.882 568.272 555.26 563.695 558.861 560.017 561.755 557.468 561.247 554.85 557.1 552.622 553.572 550.58 552.57 549.426 554.44 549.106 554.956 549.487 556.359 550.273 557.558 552.631 561.157 552.094 564.942 548.799 567.95 544.941 571.475 542.574 571.334 539.577 567.406 537.657 564.889 536.88 564.428 535.909 565.234 534.884 566.085 535.05 566.848 536.888 569.76 539.407 573.75 539.67 576.787 537.809 580.385 535.879 584.118 534.18 585.159 529.266 585.621 524.911 586.03 524.761 585.961 522.627 582.582 519.655 577.872 517.688 576.262 517.024 577.994 516.75 578.706 516.948 580.398 517.463 581.754 520.087 588.653 517.992 594.188 511.619 597.203 506.321 599.71 504.156 599.953 503.452 598.119 502.238 594.955 497.7 596.003 497.7 599.449 497.7 601.586 493.138 604.777 489.159 605.423 486.857 605.796 486 606.392 486 607.618 486 608.543 486.592 609.3 487.316 609.3 489.562 609.3 498.378 605.703 499.528 604.316 500.183 603.526 502.204 603 504.577 603 510.227 603 516.732 599.337 520.715 593.912 523.808 589.697 524.146 589.5 528.251 589.5 531.407 589.5 533.475 588.872 536.035 587.135 540.425 584.155 541.592 582.615 542.343 578.813 542.769 576.651 543.748 575.356 545.746 574.313 547.288 573.509 550.43 570.926 552.729 568.575 555.027 566.224 557.71 564.3 558.69 564.3 562.081 564.3 568.538 559.922 569.674 556.854 571.501 551.919 571.81 551.62 576.856 549.914 582.038 548.16 584.761 545.701 583.222 544.162 582.64 543.58 580.827 543.982 577.95 545.33 572.772 547.755 570.593 547.548 569.159 544.494 568.579 543.26 567.051 539.922 565.763 537.075 563.557 532.203 561.56 530.682 560.218 532.852M546.75 548.1C545.919 549.445 547.075 550.8 549.053 550.8 551.148 550.8 551.39 548.518 549.376 547.746 547.51 547.03 547.402 547.044 546.75 548.1M611.07 549.225C611.054 549.844 609.848 551.97 608.392 553.95 606.936 555.93 604.716 559.069 603.461 560.925 602.205 562.782 600.778 564.3 600.288 564.3 598.659 564.3 599.373 561.939 601.65 559.8 602.888 558.637 603.9 557.29 603.9 556.807 603.9 555.666 609.54 548.164 610.425 548.128 610.797 548.113 611.086 548.607 611.07 549.225M420.087 562.725C419.469 564.641 395.44 576 392.006 576 391.728 576 391.5 575.398 391.5 574.662 391.5 573.925 393.086 572.322 395.024 571.098 396.963 569.874 398.812 568.445 399.136 567.922 399.972 566.57 405.689 564.313 408.485 564.232 409.785 564.194 412.267 563.617 414 562.95 418.064 561.385 420.549 561.293 420.087 562.725M506.7 564.75C506.7 566.15 507.21 567 508.05 567 508.89 567 509.4 566.15 509.4 564.75 509.4 563.35 508.89 562.5 508.05 562.5 507.21 562.5 506.7 563.35 506.7 564.75M385.034 574.845C384.851 575.797 383.012 576.946 380.244 577.839 377.772 578.635 375.142 579.558 374.4 579.89 370.775 581.512 362.999 582.608 352.8 582.935 342.583 583.264 341.716 583.171 343.35 581.927 344.34 581.174 346.645 580.544 348.472 580.529 350.299 580.513 352.012 580.147 352.278 579.716 352.544 579.285 354.694 578.696 357.056 578.408 359.418 578.119 365.603 576.887 370.8 575.669 382.584 572.908 385.439 572.742 385.034 574.845M311.116 578.244C312.597 578.982 314.493 580.342 315.328 581.266 316.794 582.885 316.644 582.964 311.199 583.469 304.632 584.077 302.846 583.069 303.795 579.29 304.495 576.502 306.928 576.154 311.116 578.244M409.22 578.344C405.944 580.119 406.398 582.438 410.235 583.538 412.775 584.267 413.496 584.1 415.179 582.391L417.15 580.39 415.025 578.645C412.514 576.582 412.473 576.581 409.22 578.344M378.005 591.115C375.429 593.201 376.042 595.388 379.381 596.026 382.194 596.564 385.484 593.906 385.023 591.47 384.611 589.299 380.504 589.091 378.005 591.115M372.78 616.68C371.445 618.015 371.365 621.587 372.651 622.381 374.337 623.424 377.861 621.953 378.5 619.942 379.501 616.787 375.152 614.308 372.78 616.68M378.201 634.101C375.577 635.938 375.673 637.547 378.513 639.409 380.638 640.801 381.004 640.807 383.013 639.491 385.623 637.781 385.784 636.207 383.554 634.19 381.514 632.344 380.727 632.331 378.201 634.101M372.997 654.697C370.735 656.376 372.19 659.125 375.556 659.529 378.656 659.901 380.461 656.89 378.384 654.812 376.63 653.058 375.244 653.029 372.997 654.697M389.373 656.348C386.419 658.508 389.972 662.375 393.623 660.974 395.51 660.25 395.548 656.465 393.676 655.746 391.669 654.976 391.151 655.049 389.373 656.348M404.247 659.571C403.584 660.002 403.179 661.32 403.347 662.502 403.712 665.091 406.491 665.741 409.056 663.836 410.494 662.77 410.653 662.182 409.858 660.878 408.735 659.034 406.039 658.407 404.247 659.571" stroke="#000000" stroke-width="8.00347" fill-rule="evenodd" transform="matrix(1.00101 0 0 1 -25 613)"/></g></svg>