<svg xmlns="http://www.w3.org/2000/svg" width="1200" height="1252" viewBox="0 0 1200 1252" version="1.1">
	<path d="M 584.500 62.626 C 519.595 66.195, 467.498 74.381, 436.182 85.932 C 431.607 87.619, 426.882 89.014, 425.682 89.032 C 424.482 89.049, 422.626 89.724, 421.559 90.532 C 420.491 91.339, 418.563 92, 417.274 92 C 415.986 92, 409.811 94.025, 403.553 96.500 C 397.296 98.975, 391.846 101, 391.444 101 C 389.965 101, 359.170 114.291, 348.429 119.564 C 342.339 122.554, 336.663 125, 335.813 125 C 334.964 125, 333.131 125.896, 331.738 126.991 C 330.346 128.086, 327.248 129.829, 324.853 130.864 C 320.278 132.842, 306.963 141.331, 291 152.447 C 285.775 156.085, 279.025 160.556, 276 162.382 C 227.998 191.356, 201.351 211.786, 187.464 230.260 C 184.915 233.651, 181.610 237.167, 180.119 238.074 C 176.553 240.242, 159.883 260.035, 148.177 276 C 144.749 280.675, 140.392 286.525, 138.496 289 C 136.600 291.475, 135.038 294.022, 135.024 294.660 C 135.011 295.298, 133.127 298.189, 130.839 301.085 C 114.304 322.002, 78.337 396.657, 59.335 449.500 C 36.985 511.654, 26.158 611.081, 37.557 649.499 C 38.373 652.248, 41.077 665.298, 43.566 678.499 C 49.082 707.756, 58.196 745.361, 61.742 753.500 C 63.180 756.800, 65.795 764.900, 67.553 771.500 C 69.311 778.100, 75.034 795.425, 80.271 810 C 85.507 824.575, 90.733 839.503, 91.884 843.173 C 93.035 846.843, 97.552 857.489, 101.921 866.831 C 106.290 876.173, 110.869 886.220, 112.095 889.158 C 113.322 892.096, 115.326 895.625, 116.548 897 C 117.771 898.375, 119.565 901.075, 120.534 903 C 122.255 906.417, 131.402 920.508, 137.088 928.500 C 138.653 930.700, 141.817 935.200, 144.120 938.500 C 150.598 947.786, 162.356 962.253, 167.798 967.635 C 170.504 970.311, 173.476 973.978, 174.402 975.783 C 180.192 987.074, 243.980 1051.317, 275.843 1077.949 C 286.715 1087.037, 308.856 1101.286, 322.500 1107.976 C 339.709 1116.414, 386.618 1138, 387.746 1138 C 388.270 1138, 395.666 1140.687, 404.182 1143.972 C 418.224 1149.388, 456.462 1160.654, 473.656 1164.441 C 536.106 1178.196, 646.285 1183.359, 678 1174.018 C 681.575 1172.965, 691.925 1171.160, 701 1170.007 C 729.333 1166.407, 748.318 1162.202, 771 1154.503 C 776.775 1152.542, 788.872 1148.906, 797.882 1146.422 C 806.892 1143.938, 815.987 1141.027, 818.092 1139.953 C 820.198 1138.879, 822.501 1137.998, 823.210 1137.996 C 823.920 1137.993, 826.525 1136.645, 829 1135 C 831.475 1133.355, 834.413 1132.007, 835.528 1132.004 C 836.644 1132.002, 840.694 1130.508, 844.528 1128.684 C 848.363 1126.861, 857.374 1123.023, 864.554 1120.155 C 877.028 1115.172, 887.592 1109.722, 904 1099.803 C 908.125 1097.309, 916.675 1092.450, 923 1089.005 C 937.756 1080.968, 959.606 1066.441, 973.042 1055.734 C 995.973 1037.460, 1047.103 987.214, 1057.500 972.736 C 1066.527 960.165, 1097.009 913.445, 1101.694 905 C 1103.677 901.425, 1107.054 895.664, 1109.199 892.197 C 1113.380 885.438, 1130 855.417, 1130 854.622 C 1130 854.360, 1132.632 847.924, 1135.848 840.322 C 1146.030 816.256, 1166.260 752.551, 1171.022 729.560 C 1177.824 696.720, 1180.936 646.967, 1178.126 616 C 1175.224 584.036, 1172.803 561.188, 1171.872 557 C 1171.321 554.525, 1169.992 545.080, 1168.917 536.011 C 1167.842 526.942, 1166.527 517.947, 1165.996 516.022 C 1165.464 514.097, 1164.764 507.117, 1164.439 500.511 C 1164.101 493.622, 1163.061 485.728, 1162 482 C 1160.982 478.425, 1158.966 469.003, 1157.520 461.063 C 1147.429 405.663, 1133.087 375.765, 1090.570 321.500 C 1078.935 306.650, 1066.537 290.703, 1063.020 286.062 C 1046.351 264.071, 974.425 195.614, 943.357 172.172 C 923.374 157.093, 876.737 131.403, 852 121.847 C 847.325 120.042, 842.022 117.312, 840.215 115.782 C 838.409 114.252, 836.341 113, 835.620 113 C 834.900 113, 831.511 111.191, 828.090 108.980 C 816.543 101.516, 799.563 93.785, 780.776 87.436 C 775.428 85.629, 770.040 83.441, 768.804 82.575 C 767.567 81.709, 765.642 81, 764.525 81 C 763.409 81, 757.822 79.664, 752.109 78.031 C 740.784 74.794, 721.510 70.788, 693.500 65.848 L 675.500 62.674 633 62.485 C 609.625 62.381, 587.800 62.445, 584.500 62.626" stroke="none" fill="#FFFFFF" fill-rule="nonzero"/>
</svg>