<svg id="svg" version="1.1" width="767" height="800" xmlns="http://www.w3.org/2000/svg"><path d="M372.500 40.205 C 353.908 40.982,340.265 42.181,329.000 44.029 C 325.425 44.616,318.225 45.787,313.000 46.632 C 300.319 48.683,283.426 52.861,278.562 55.148 C 276.396 56.167,273.610 57.000,272.371 57.000 C 271.132 57.000,269.840 57.450,269.500 58.000 C 269.160 58.550,267.766 59.000,266.401 59.000 C 265.037 59.000,262.251 59.838,260.210 60.863 C 258.170 61.888,254.025 63.504,251.000 64.454 C 247.975 65.405,243.025 67.346,240.000 68.769 C 236.975 70.191,233.600 71.669,232.500 72.053 C 230.045 72.910,226.012 74.699,224.000 75.824 C 219.873 78.132,215.715 80.002,214.669 80.022 C 214.026 80.034,212.375 80.924,211.000 82.000 C 209.625 83.076,207.890 83.966,207.144 83.978 C 206.399 83.990,204.530 85.013,202.991 86.250 C 201.453 87.487,197.869 89.850,195.026 91.500 C 192.184 93.150,187.689 96.188,185.036 98.250 C 182.384 100.313,179.902 102.000,179.520 102.000 C 179.139 102.000,176.953 103.277,174.663 104.839 C 172.374 106.400,168.700 108.827,166.500 110.233 C 164.300 111.639,160.511 114.074,158.079 115.644 C 155.648 117.215,152.004 119.439,149.980 120.587 C 140.107 126.189,121.634 143.209,117.944 150.105 C 117.386 151.147,116.301 152.000,115.533 152.000 C 114.765 152.000,113.097 153.463,111.827 155.250 C 110.556 157.037,107.346 160.900,104.693 163.833 C 102.040 166.766,98.347 171.491,96.487 174.333 C 94.626 177.175,91.748 181.004,90.090 182.842 C 88.433 184.680,86.784 187.155,86.426 188.342 C 86.068 189.529,84.617 191.737,83.202 193.249 C 79.320 197.395,64.859 223.584,60.977 233.500 C 60.546 234.600,57.728 240.675,54.715 247.000 C 49.131 258.722,40.818 278.884,38.223 287.000 C 37.432 289.475,36.221 292.850,35.531 294.500 C 34.842 296.150,33.284 301.775,32.070 307.000 C 30.855 312.225,29.251 318.750,28.504 321.500 C 27.054 326.842,24.803 340.541,22.835 356.000 C 20.553 373.920,21.356 407.666,24.238 415.000 C 24.778 416.375,25.837 421.100,26.591 425.500 C 29.477 442.339,32.844 458.006,35.511 467.000 C 36.245 469.475,37.145 473.300,37.512 475.500 C 37.879 477.700,38.696 480.125,39.328 480.890 C 40.569 482.391,42.651 489.085,43.873 495.500 C 44.291 497.700,45.133 500.400,45.743 501.500 C 46.353 502.600,47.498 505.525,48.288 508.000 C 49.078 510.475,51.632 517.675,53.965 524.000 C 56.297 530.325,58.421 536.625,58.684 538.000 C 59.224 540.823,59.693 541.911,67.433 558.264 C 70.495 564.734,73.000 570.402,73.000 570.859 C 73.000 571.316,73.900 572.505,75.000 573.500 C 76.100 574.495,77.001 575.803,77.002 576.405 C 77.003 577.007,78.797 579.975,80.990 583.000 C 83.182 586.025,85.449 589.588,86.027 590.919 C 86.606 592.249,87.740 593.824,88.547 594.419 C 89.355 595.013,90.800 596.916,91.758 598.647 C 94.267 603.180,106.930 618.759,108.638 619.415 C 109.433 619.720,110.647 621.308,111.334 622.944 C 112.654 626.081,121.768 636.520,133.554 648.394 C 149.620 664.578,174.866 688.063,179.977 691.578 C 182.990 693.651,185.915 695.734,186.477 696.209 C 189.307 698.596,205.948 708.411,209.004 709.495 C 210.931 710.178,217.231 712.980,223.004 715.720 C 242.028 724.752,246.995 727.000,247.918 727.000 C 248.419 727.000,253.148 728.764,258.425 730.919 C 263.702 733.075,271.053 735.588,274.760 736.505 C 278.467 737.422,283.525 738.766,286.000 739.492 C 303.777 744.705,306.062 745.134,341.500 749.913 C 366.143 753.235,399.039 754.359,418.500 752.544 C 425.100 751.928,431.400 750.936,432.500 750.340 C 433.600 749.743,436.525 748.994,439.000 748.675 C 441.475 748.356,449.125 747.369,456.000 746.482 C 462.875 745.596,469.625 744.379,471.000 743.778 C 472.375 743.177,475.525 742.353,478.000 741.946 C 480.475 741.540,485.875 739.986,490.000 738.494 C 497.383 735.824,506.337 733.174,516.840 730.553 C 519.776 729.821,522.679 728.721,523.290 728.110 C 523.900 727.500,525.098 726.990,525.950 726.978 C 526.803 726.966,528.625 726.076,530.000 725.000 C 531.375 723.924,533.294 723.034,534.264 723.022 C 535.234 723.010,536.809 722.567,537.764 722.038 C 540.409 720.571,550.183 716.374,553.000 715.495 C 557.256 714.167,571.155 707.119,574.409 704.639 C 576.109 703.344,579.975 701.040,583.000 699.520 C 601.252 690.349,621.272 676.360,634.546 663.500 C 642.448 655.845,661.882 637.305,664.241 635.170 C 667.955 631.810,676.035 621.671,680.511 614.753 C 681.844 612.693,683.783 609.768,684.819 608.253 C 685.855 606.739,688.264 603.025,690.172 600.000 C 692.081 596.975,696.198 590.624,699.321 585.888 C 702.445 581.151,705.000 576.922,705.000 576.491 C 705.000 576.060,706.594 573.306,708.542 570.371 C 710.490 567.437,713.820 561.640,715.942 557.490 C 718.064 553.341,720.240 549.395,720.778 548.723 C 721.315 548.050,722.085 546.375,722.487 545.000 C 722.890 543.625,724.458 539.800,725.972 536.500 C 728.773 530.394,730.099 526.719,734.629 512.500 C 736.031 508.100,737.773 502.925,738.500 501.000 C 739.700 497.824,741.555 491.580,745.479 477.500 C 749.183 464.213,750.115 458.335,752.602 432.605 C 754.090 417.216,754.168 412.523,753.160 399.105 C 751.516 377.205,749.221 355.167,748.457 353.930 C 748.102 353.356,747.406 348.222,746.911 342.523 C 746.417 336.824,745.559 330.970,745.006 329.515 C 744.453 328.060,744.000 323.270,744.000 318.869 C 744.000 314.469,743.466 309.886,742.814 308.684 C 742.162 307.483,741.047 302.900,740.336 298.500 C 738.036 284.256,733.757 267.146,731.084 261.500 C 730.563 260.400,728.299 255.322,726.053 250.215 C 722.331 241.752,714.574 228.282,709.804 222.000 C 707.540 219.017,693.600 201.244,686.313 192.047 C 683.460 188.446,679.867 183.700,678.330 181.500 C 672.697 173.441,633.416 135.336,612.000 117.157 C 605.428 111.578,592.441 102.135,589.791 101.007 C 588.531 100.471,583.675 97.809,579.000 95.092 C 567.820 88.593,551.184 80.009,549.687 79.966 C 549.034 79.947,546.700 79.063,544.500 78.000 C 542.300 76.937,539.938 76.053,539.250 76.034 C 538.563 76.015,538.000 75.556,538.000 75.013 C 538.000 74.471,536.329 73.329,534.287 72.475 C 532.244 71.622,529.882 70.331,529.037 69.607 C 525.480 66.561,506.482 57.992,497.768 55.505 C 494.616 54.605,491.777 53.448,491.459 52.934 C 491.142 52.420,489.980 52.000,488.878 52.000 C 487.776 52.000,484.090 51.106,480.687 50.013 C 474.512 48.030,467.061 46.420,451.000 43.597 C 434.387 40.677,428.219 39.870,422.893 39.922 C 419.927 39.950,411.425 39.857,404.000 39.713 C 396.575 39.570,382.400 39.791,372.500 40.205 M418.500 44.030 C 428.436 44.352,460.137 48.348,462.026 49.516 C 462.464 49.787,466.350 50.681,470.661 51.504 C 474.973 52.327,481.650 54.153,485.500 55.562 C 489.350 56.971,493.850 58.506,495.500 58.974 C 499.948 60.235,505.113 62.071,508.500 63.596 C 510.150 64.339,512.783 65.415,514.351 65.987 C 515.919 66.559,519.519 68.511,522.351 70.325 C 532.609 76.894,537.611 79.647,543.500 81.969 C 553.921 86.076,563.440 90.666,569.267 94.394 C 572.367 96.377,575.489 98.000,576.205 98.000 C 576.921 98.000,579.722 99.575,582.429 101.500 C 585.137 103.425,587.701 105.000,588.128 105.000 C 588.555 105.000,591.887 107.138,595.533 109.750 C 599.179 112.362,603.276 115.229,604.637 116.120 C 608.228 118.471,630.640 138.911,636.500 145.180 C 639.250 148.122,645.550 153.981,650.500 158.200 C 655.450 162.419,660.356 166.913,661.401 168.186 C 663.033 170.172,672.449 181.169,675.495 184.647 C 676.048 185.278,678.075 187.898,680.000 190.469 C 681.925 193.040,686.916 199.499,691.091 204.822 C 704.562 221.995,717.471 240.574,718.490 244.254 C 718.832 245.490,720.628 249.650,722.481 253.500 C 727.481 263.888,730.650 272.731,732.547 281.592 C 733.479 285.941,734.651 291.300,735.153 293.500 C 735.654 295.700,736.308 299.525,736.605 302.000 C 736.903 304.475,737.561 307.400,738.069 308.500 C 738.576 309.600,739.633 317.700,740.418 326.500 C 741.202 335.300,742.298 344.750,742.852 347.500 C 747.618 371.132,750.724 419.499,748.151 430.000 C 747.545 432.475,747.018 439.000,746.981 444.500 C 746.939 450.520,746.339 456.092,745.471 458.500 C 744.679 460.700,744.023 464.007,744.015 465.849 C 744.007 467.691,743.365 470.616,742.588 472.349 C 741.811 474.082,740.649 477.975,740.005 481.000 C 738.527 487.941,736.236 495.580,734.412 499.651 C 733.635 501.384,733.000 503.501,733.000 504.356 C 733.000 506.204,725.758 526.792,723.100 532.500 C 722.076 534.700,720.526 538.603,719.657 541.173 C 718.787 543.744,716.709 548.069,715.038 550.784 C 713.367 553.499,712.000 556.031,712.000 556.409 C 712.000 556.787,710.425 559.558,708.500 562.567 C 706.575 565.577,705.000 568.215,705.000 568.430 C 705.000 569.115,696.744 583.479,696.051 584.000 C 695.384 584.501,686.594 598.949,684.257 603.384 C 683.573 604.682,682.336 606.307,681.507 606.994 C 678.771 609.265,679.753 605.258,683.500 598.865 C 685.425 595.580,687.000 592.706,687.000 592.478 C 687.000 592.249,688.987 588.990,691.416 585.236 C 693.845 581.481,697.029 575.730,698.492 572.455 C 699.955 569.180,701.957 564.700,702.941 562.500 C 703.924 560.300,705.429 556.925,706.285 555.000 C 707.141 553.075,708.925 549.250,710.250 546.500 C 711.574 543.750,713.928 536.325,715.480 530.000 C 717.033 523.675,719.360 514.875,720.652 510.443 C 721.943 506.012,723.000 501.582,723.000 500.597 C 723.000 499.613,723.624 496.489,724.388 493.654 C 730.675 470.304,734.714 421.108,731.300 409.468 C 730.660 407.286,729.185 401.450,728.021 396.500 C 725.844 387.233,723.743 379.489,721.512 372.500 C 720.140 368.202,717.942 359.156,715.924 349.500 C 715.234 346.200,714.281 342.718,713.806 341.761 C 711.800 337.725,708.000 322.643,708.005 318.735 C 708.008 316.406,707.372 312.475,706.593 310.000 C 705.813 307.525,704.653 303.475,704.014 301.000 C 699.151 282.169,695.952 270.779,695.055 269.102 C 694.475 268.018,694.000 266.382,694.000 265.467 C 694.000 264.551,693.392 262.384,692.649 260.651 C 691.906 258.918,690.275 254.800,689.023 251.500 C 685.824 243.063,677.124 226.657,671.906 219.221 C 669.483 215.767,666.375 211.215,665.000 209.104 C 656.988 196.806,633.251 168.498,623.824 160.000 C 621.079 157.525,611.055 147.824,601.550 138.443 C 592.044 129.061,581.845 119.708,578.884 117.658 C 562.615 106.394,560.092 104.968,541.000 96.257 C 533.139 92.670,527.389 89.502,525.500 87.716 C 524.400 86.677,521.925 84.960,520.000 83.902 C 518.075 82.845,515.825 81.561,515.000 81.051 C 514.175 80.540,510.939 78.969,507.808 77.559 C 504.677 76.149,501.838 74.547,501.499 73.998 C 501.160 73.449,500.121 72.973,499.191 72.941 C 498.261 72.909,495.475 71.798,493.000 70.473 C 490.525 69.149,486.475 67.139,484.000 66.007 C 481.525 64.875,477.700 63.092,475.500 62.045 C 453.894 51.760,455.016 51.923,426.198 54.865 C 420.462 55.451,415.206 55.313,409.198 54.420 C 397.061 52.617,383.803 54.436,368.500 60.005 C 364.632 61.413,356.939 63.000,353.986 63.000 C 352.344 63.000,351.000 63.391,351.000 63.869 C 351.000 64.347,349.332 65.009,347.293 65.340 C 344.193 65.843,339.710 67.632,333.348 70.907 C 332.714 71.233,328.964 73.750,325.015 76.500 C 313.782 84.322,314.578 84.063,302.500 83.818 C 281.475 83.393,264.986 85.609,207.000 96.657 C 202.325 97.547,196.958 98.899,195.073 99.661 C 188.052 102.498,190.290 99.186,199.443 93.192 C 204.645 89.787,209.173 87.000,209.507 87.000 C 209.840 87.000,212.899 85.616,216.306 83.925 C 223.655 80.277,251.425 68.479,255.000 67.486 C 256.375 67.104,258.483 66.172,259.685 65.416 C 261.709 64.141,265.099 63.110,274.000 61.064 C 275.925 60.621,279.750 59.257,282.500 58.033 C 285.250 56.808,294.025 54.476,302.000 52.850 C 314.985 50.202,323.601 48.831,345.000 46.009 C 348.575 45.538,360.950 44.850,372.500 44.480 C 384.050 44.111,393.575 43.739,393.666 43.654 C 393.846 43.488,408.757 43.713,418.500 44.030 M457.000 57.951 C 462.089 59.449,467.069 62.303,466.649 63.481 C 466.250 64.598,465.815 64.572,458.500 62.990 C 455.750 62.395,447.546 61.918,440.269 61.930 C 432.992 61.942,426.355 61.690,425.519 61.369 C 422.379 60.164,424.222 59.237,431.104 58.558 C 435.012 58.173,439.174 57.471,440.354 56.997 C 442.901 55.974,452.072 56.500,457.000 57.951 M405.541 58.067 C 406.754 60.029,404.896 60.500,395.930 60.500 C 381.938 60.500,384.477 57.390,398.691 57.118 C 402.128 57.053,405.175 57.474,405.541 58.067 M436.500 64.893 C 446.400 65.523,456.750 66.481,459.500 67.021 C 462.250 67.561,467.200 68.507,470.500 69.124 C 473.800 69.740,477.175 70.774,478.000 71.421 C 478.825 72.069,482.200 73.915,485.500 75.523 C 488.800 77.132,492.625 79.486,494.000 80.755 C 495.375 82.024,499.300 84.392,502.721 86.016 C 509.219 89.101,509.758 89.479,518.881 97.343 C 525.067 102.675,538.763 111.966,544.399 114.653 C 546.380 115.598,548.000 116.682,548.000 117.064 C 548.000 117.445,549.462 118.307,551.250 118.980 C 557.341 121.270,559.499 122.447,562.927 125.349 C 564.812 126.945,567.773 128.843,569.507 129.567 C 571.241 130.292,573.241 131.585,573.952 132.442 C 574.663 133.299,575.898 134.000,576.696 134.000 C 577.495 134.000,581.687 136.452,586.013 139.449 C 590.339 142.446,595.819 145.875,598.189 147.069 C 605.808 150.908,615.398 159.504,622.098 168.500 C 624.646 171.920,631.423 181.941,641.575 197.298 C 642.956 199.387,644.714 201.337,645.482 201.631 C 646.249 201.926,647.178 203.534,647.545 205.205 C 647.912 206.876,648.956 208.437,649.865 208.675 C 650.773 208.913,652.592 210.995,653.905 213.303 C 655.219 215.612,657.485 219.075,658.941 221.000 C 660.397 222.925,662.127 225.625,662.787 227.000 C 663.446 228.375,664.433 230.175,664.980 231.000 C 669.064 237.161,678.366 262.508,680.997 274.647 C 681.576 277.316,683.009 281.750,684.182 284.500 C 685.354 287.250,686.879 291.975,687.569 295.000 C 688.259 298.025,689.978 303.200,691.388 306.500 C 692.799 309.800,693.963 313.867,693.976 315.539 C 693.989 317.210,694.900 320.342,696.000 322.500 C 697.100 324.658,698.000 327.244,698.000 328.247 C 698.000 329.250,698.609 331.067,699.353 332.285 C 700.097 333.503,701.249 337.200,701.913 340.500 C 702.577 343.800,703.502 347.850,703.969 349.500 C 704.435 351.150,705.125 354.750,705.502 357.500 C 705.879 360.250,706.587 362.986,707.075 363.580 C 707.563 364.173,708.239 368.673,708.578 373.580 C 708.917 378.486,709.558 383.940,710.002 385.699 C 710.746 388.642,710.663 388.806,708.966 387.747 C 707.951 387.113,706.540 385.448,705.829 384.047 C 705.119 382.646,703.067 379.654,701.269 377.397 C 697.717 372.939,697.154 369.947,699.500 368.000 C 701.893 366.014,701.380 358.642,698.471 353.217 C 693.210 343.401,690.875 339.493,689.098 337.528 C 684.569 332.518,683.990 330.705,684.980 324.624 C 685.978 318.493,684.398 311.148,681.414 308.043 C 679.596 306.151,677.086 308.163,678.714 310.208 C 680.450 312.389,682.335 321.528,681.629 324.341 C 681.008 326.817,680.583 327.000,675.450 327.000 C 671.950 327.000,669.770 326.544,669.480 325.750 C 669.228 325.063,668.375 319.798,667.582 314.052 C 665.669 300.177,666.882 297.506,672.825 302.506 C 674.594 303.994,676.453 304.763,677.402 304.399 C 679.567 303.569,679.418 302.741,676.633 300.125 C 674.812 298.414,674.113 296.404,673.601 291.405 C 673.234 287.832,672.020 282.567,670.901 279.705 C 668.874 274.519,661.695 266.000,659.351 266.000 C 656.477 266.000,657.030 268.460,660.779 272.343 C 665.838 277.585,668.538 283.043,669.399 289.767 C 669.962 294.166,669.798 295.140,668.401 295.676 C 665.958 296.614,663.650 294.758,662.454 290.892 C 661.319 287.226,659.427 282.687,657.703 279.500 C 651.674 268.351,650.635 264.000,654.000 264.000 C 656.252 264.000,656.425 263.249,655.025 259.565 C 653.780 256.291,651.510 256.292,649.365 259.566 L 647.684 262.131 644.715 256.816 C 642.017 251.985,634.602 240.544,631.097 235.804 C 630.037 234.371,629.976 233.624,630.847 232.753 C 632.880 230.720,632.094 229.345,628.236 228.189 C 624.635 227.110,622.372 224.764,614.359 213.804 C 613.182 212.193,608.568 207.075,604.106 202.430 C 597.440 195.491,596.170 193.674,596.989 192.242 C 598.670 189.303,602.000 180.022,602.000 178.279 C 602.000 177.373,601.176 174.802,600.169 172.566 C 599.161 170.330,597.562 166.746,596.615 164.603 C 595.667 162.460,593.679 159.364,592.196 157.723 C 584.507 149.214,582.526 148.000,576.331 148.000 C 571.860 148.000,570.533 148.471,567.498 151.136 C 564.123 154.099,560.693 160.067,559.818 164.500 C 559.179 167.736,553.423 166.714,544.925 161.855 C 532.925 154.995,527.254 150.367,513.569 136.266 C 498.106 120.333,485.541 111.401,474.000 108.137 C 471.525 107.437,468.118 106.445,466.429 105.932 C 464.740 105.420,462.415 105.000,461.263 105.000 C 458.897 105.000,454.441 99.818,451.044 93.116 C 448.494 88.083,440.137 79.313,435.000 76.278 C 433.075 75.140,428.350 73.005,424.500 71.533 C 420.650 70.061,416.600 68.464,415.500 67.985 C 414.400 67.505,411.475 66.811,409.000 66.441 C 403.681 65.647,402.756 65.205,403.589 63.856 C 403.956 63.262,407.138 63.033,411.356 63.298 C 415.285 63.545,426.600 64.263,436.500 64.893 M398.000 64.955 C 398.000 65.480,396.313 66.212,394.250 66.581 C 392.188 66.951,388.108 68.368,385.184 69.731 C 382.259 71.093,377.999 72.459,375.717 72.765 C 372.290 73.224,370.689 74.280,366.533 78.818 C 363.765 81.841,360.712 85.143,359.750 86.157 C 357.610 88.411,355.175 88.464,347.460 86.425 C 344.182 85.559,338.238 84.594,334.250 84.281 C 329.219 83.886,327.000 83.309,327.000 82.398 C 327.000 80.098,335.717 75.867,348.727 71.853 C 359.851 68.421,361.755 68.094,364.792 69.096 C 367.947 70.138,368.419 70.021,370.369 67.717 C 371.541 66.332,373.175 64.965,374.000 64.679 C 376.748 63.724,398.000 63.969,398.000 64.955 M420.309 74.133 C 432.276 78.889,434.135 80.041,440.583 86.708 C 449.726 96.162,451.588 102.858,444.738 101.655 C 442.957 101.342,436.831 100.602,431.124 100.011 C 425.417 99.420,419.957 98.512,418.991 97.995 C 418.024 97.478,416.937 95.355,416.576 93.277 C 414.824 83.208,411.161 78.748,402.425 76.050 C 396.172 74.118,395.058 74.177,385.915 76.925 C 382.519 77.946,376.650 82.792,372.708 87.830 C 371.386 89.520,370.095 90.039,367.785 89.810 C 363.568 89.392,363.324 87.835,366.853 83.844 C 369.905 80.393,371.921 79.217,383.000 74.423 C 397.974 67.944,404.602 67.893,420.309 74.133 M401.901 79.996 C 406.507 81.163,408.657 83.590,410.182 89.343 C 411.370 93.830,411.319 94.295,409.482 95.659 C 408.327 96.517,406.249 96.939,404.500 96.671 C 402.850 96.419,397.225 95.689,392.000 95.050 C 380.257 93.615,378.000 92.755,378.000 89.718 C 378.000 84.581,390.307 77.231,396.500 78.670 C 397.600 78.926,400.030 79.523,401.901 79.996 M512.553 83.943 C 515.587 85.562,519.947 88.375,522.242 90.193 C 524.538 92.012,527.335 93.983,528.458 94.573 C 533.116 97.019,534.669 97.780,538.000 99.247 C 557.822 107.977,571.085 116.092,581.500 125.863 C 583.700 127.927,587.352 130.847,589.617 132.351 C 595.475 136.245,598.085 139.244,597.060 140.903 C 596.374 142.012,595.772 141.865,593.917 140.138 C 592.655 138.962,591.290 138.000,590.883 138.000 C 590.476 138.000,589.527 137.384,588.774 136.631 C 588.021 135.878,583.601 133.074,578.952 130.401 C 574.304 127.727,570.275 125.305,570.000 125.018 C 568.504 123.459,556.753 115.991,555.719 115.943 C 555.048 115.911,552.250 114.587,549.500 113.001 C 546.750 111.414,542.716 109.132,540.535 107.928 C 535.310 105.045,526.645 98.619,520.789 93.284 C 518.198 90.924,514.823 88.454,513.289 87.795 C 508.822 85.877,504.929 82.924,505.547 81.924 C 506.341 80.639,506.383 80.651,512.553 83.943 M327.530 88.047 C 333.839 87.898,348.483 90.150,349.805 91.472 C 350.091 91.758,349.811 93.118,349.184 94.496 C 348.228 96.594,348.299 97.000,349.627 97.000 C 350.498 97.000,352.593 95.838,354.281 94.417 C 356.577 92.485,358.000 91.997,359.925 92.480 C 361.341 92.835,365.168 93.677,368.429 94.351 C 371.691 95.025,374.541 96.122,374.763 96.788 C 374.985 97.455,375.742 98.000,376.446 98.000 C 377.149 98.000,378.778 100.218,380.065 102.929 C 382.318 107.675,382.638 107.917,388.658 109.429 C 392.097 110.293,396.252 111.000,397.890 111.000 C 399.529 111.000,401.978 111.421,403.332 111.936 C 406.250 113.045,407.450 112.247,405.819 110.281 C 404.892 109.164,405.375 108.159,408.191 105.343 L 411.727 101.806 428.114 103.489 C 450.455 105.784,450.856 105.856,453.002 108.002 C 454.386 109.386,455.777 109.748,458.200 109.355 C 462.077 108.726,471.876 111.086,479.637 114.518 C 486.818 117.694,499.639 128.003,509.000 138.127 C 520.650 150.726,533.619 160.585,548.000 167.772 C 554.875 171.208,561.605 174.874,562.956 175.919 L 565.412 177.819 563.456 181.480 L 561.500 185.141 564.491 187.320 C 566.136 188.519,568.386 190.400,569.491 191.500 L 571.500 193.500 568.750 193.816 C 567.163 193.999,566.000 194.745,566.000 195.580 C 566.000 196.376,565.476 197.866,564.836 198.890 C 563.847 200.475,564.332 201.548,568.086 206.076 C 575.803 215.381,580.000 218.250,580.000 214.218 C 580.000 213.237,577.525 210.030,574.500 207.090 C 568.324 201.087,567.700 198.570,571.500 195.000 C 574.687 192.006,574.640 191.254,571.000 187.000 C 569.353 185.075,568.004 182.964,568.002 182.309 C 567.995 178.416,573.737 180.791,579.889 187.224 C 584.433 191.975,584.984 193.930,582.000 194.710 C 579.788 195.289,579.405 197.005,581.107 198.707 C 581.716 199.316,582.521 201.319,582.894 203.157 C 583.378 205.535,584.191 206.589,585.711 206.810 C 586.886 206.980,588.568 208.217,589.447 209.560 C 590.327 210.902,591.875 212.000,592.888 212.000 C 593.901 212.000,595.803 212.813,597.115 213.807 C 598.427 214.802,602.053 216.883,605.174 218.432 C 612.092 221.868,618.000 226.600,618.000 228.706 C 618.000 230.762,614.197 234.000,611.781 234.000 C 609.402 234.000,606.228 235.602,603.113 238.375 C 601.300 239.989,600.610 240.176,600.247 239.153 C 599.984 238.412,598.553 236.387,597.068 234.653 C 595.582 232.919,593.348 229.813,592.102 227.750 C 589.889 224.086,587.727 223.014,586.513 224.979 C 585.953 225.885,588.177 229.683,592.088 234.500 C 592.981 235.600,594.487 237.858,595.435 239.519 L 597.158 242.537 590.632 249.325 C 584.640 255.558,583.091 259.000,586.278 259.000 C 587.656 259.000,591.000 255.975,591.000 254.728 C 591.000 253.776,595.849 248.904,601.755 243.924 C 605.981 240.360,618.321 234.000,621.010 234.000 C 623.540 234.000,630.895 241.536,630.959 244.193 C 630.982 245.125,631.788 246.475,632.750 247.193 C 634.477 248.483,636.685 253.217,637.748 257.906 C 638.364 260.625,635.952 262.996,632.559 263.006 C 631.426 263.010,629.216 263.682,627.646 264.501 C 625.107 265.825,624.499 265.819,622.146 264.447 C 619.549 262.932,619.389 263.007,613.568 268.452 C 610.305 271.503,607.049 274.000,606.332 274.000 C 605.615 274.000,603.837 272.200,602.381 270.000 C 599.769 266.053,597.723 265.022,596.483 267.028 C 596.134 267.593,597.232 270.145,598.924 272.699 C 600.616 275.253,602.000 278.000,602.000 278.803 C 602.000 280.403,595.457 287.000,593.870 287.000 C 593.327 287.000,591.176 285.628,589.089 283.952 C 586.112 281.559,585.397 280.376,585.765 278.452 C 586.036 277.033,585.762 276.000,585.117 276.000 C 584.502 276.000,584.000 275.200,584.000 274.223 C 584.000 273.245,583.333 271.493,582.518 270.330 C 581.210 268.461,581.210 268.071,582.518 266.985 C 584.865 265.037,584.296 263.000,581.404 263.000 C 578.348 263.000,573.000 259.474,573.000 257.459 C 573.000 254.985,568.649 247.000,567.301 247.000 C 565.708 247.000,565.597 249.197,567.113 250.713 C 567.725 251.325,567.905 252.344,567.514 252.978 C 566.664 254.353,563.000 251.451,563.000 249.402 C 563.000 248.693,562.183 247.525,561.184 246.807 C 560.185 246.088,559.075 244.713,558.716 243.750 C 558.357 242.787,557.422 242.000,556.638 242.000 C 554.706 242.000,553.770 244.759,555.375 245.724 C 556.086 246.151,559.195 250.325,562.285 255.000 C 569.826 266.408,572.428 269.472,573.834 268.602 C 575.484 267.583,575.281 266.000,573.500 266.000 C 572.675 266.000,572.000 265.304,572.000 264.453 C 572.000 263.125,572.349 263.161,574.469 264.703 C 577.754 267.094,577.672 269.794,574.275 271.086 L 571.549 272.122 575.525 275.523 C 577.711 277.394,579.837 278.942,580.250 278.962 C 580.663 278.983,581.000 280.109,581.000 281.465 C 581.000 282.925,581.834 284.376,583.048 285.026 C 584.393 285.746,584.900 286.739,584.525 287.920 C 584.206 288.926,584.625 290.274,585.477 290.981 C 586.315 291.676,587.000 292.894,587.000 293.687 C 587.000 297.012,591.410 305.205,593.660 306.061 C 596.527 307.151,596.699 309.004,594.000 309.710 C 591.474 310.371,591.478 312.057,594.020 317.040 C 596.358 321.622,599.002 322.459,598.220 318.369 C 597.653 315.406,599.747 315.363,601.179 318.310 C 601.630 319.239,602.370 320.761,602.821 321.690 C 604.243 324.616,605.978 324.295,607.441 320.838 C 609.124 316.860,616.681 309.330,619.492 308.830 C 620.588 308.635,622.077 307.239,622.802 305.728 C 624.776 301.608,631.336 298.605,638.484 298.548 C 643.257 298.510,644.533 298.162,644.792 296.827 C 645.006 295.723,644.344 295.043,642.842 294.827 C 640.485 294.488,639.859 293.555,635.250 283.500 C 633.228 279.088,631.905 277.415,630.250 277.180 C 627.231 276.752,627.416 278.344,631.000 283.655 C 632.650 286.100,634.000 288.830,634.000 289.721 C 634.000 290.613,634.745 292.165,635.655 293.171 C 637.227 294.909,637.140 295.001,633.905 295.012 C 632.032 295.019,628.524 296.154,626.108 297.534 C 623.375 299.097,620.968 299.807,619.734 299.415 C 617.559 298.725,616.106 300.277,615.907 303.500 C 615.757 305.945,605.538 315.450,604.049 314.530 C 603.461 314.167,600.704 309.174,597.922 303.435 C 595.140 297.696,592.332 292.964,591.682 292.921 C 591.032 292.878,591.850 292.371,593.500 291.796 C 597.408 290.434,602.000 286.117,602.000 283.804 C 602.000 282.276,602.301 282.171,603.868 283.149 C 606.462 284.769,609.000 283.532,609.000 280.648 C 609.000 279.111,610.414 276.955,612.889 274.719 C 617.447 270.602,620.278 269.495,622.730 270.873 C 624.062 271.621,625.013 271.387,626.574 269.925 C 627.714 268.856,631.194 267.319,634.305 266.509 C 641.070 264.747,644.517 265.676,646.299 269.742 C 646.963 271.259,648.346 273.740,649.372 275.255 C 650.893 277.503,651.005 278.289,649.980 279.524 C 648.958 280.755,649.029 281.375,650.362 282.847 C 651.263 283.843,652.000 285.154,652.000 285.761 C 652.000 286.367,653.350 287.825,655.000 289.000 C 658.872 291.757,658.780 292.776,654.500 294.564 C 650.904 296.067,649.903 298.365,652.422 299.332 C 653.205 299.632,653.992 300.913,654.172 302.179 C 654.531 304.695,657.763 305.951,658.407 303.824 C 659.952 298.725,660.119 298.471,660.937 300.000 C 661.378 300.825,662.032 303.975,662.391 307.000 C 662.750 310.025,663.299 314.340,663.611 316.589 C 664.033 319.629,663.753 321.104,662.518 322.339 C 660.077 324.780,659.164 324.389,658.813 320.750 C 658.448 316.965,656.646 316.772,656.184 320.469 C 655.961 322.251,655.261 323.000,653.817 323.000 C 652.164 323.000,651.860 322.511,652.249 320.476 C 652.515 319.088,652.383 317.737,651.956 317.473 C 650.485 316.564,648.116 318.175,647.808 320.294 C 647.582 321.855,646.497 322.626,643.718 323.200 C 641.637 323.630,638.551 324.698,636.860 325.573 C 635.038 326.515,632.771 326.908,631.297 326.538 C 628.892 325.935,628.832 326.043,629.467 329.807 C 630.016 333.053,629.616 334.563,627.063 338.894 C 623.448 345.025,623.452 345.000,625.933 345.000 C 626.996 345.000,628.151 344.100,628.500 343.000 C 629.190 340.825,632.444 340.291,633.601 342.163 C 633.996 342.802,634.603 344.712,634.949 346.407 C 635.312 348.181,636.305 349.628,637.290 349.817 C 639.953 350.330,639.470 344.457,636.340 338.270 C 633.838 333.326,633.779 332.902,635.354 331.161 C 636.275 330.143,638.860 328.706,641.098 327.968 C 644.518 326.839,645.672 326.843,648.334 327.994 C 650.075 328.747,653.885 329.272,656.800 329.160 C 665.240 328.836,665.257 328.863,665.133 343.059 C 665.045 353.120,664.721 355.690,663.381 356.952 C 661.877 358.369,661.797 358.289,662.441 356.000 C 663.275 353.038,663.314 353.792,661.748 342.500 L 660.500 333.500 657.500 333.500 C 654.928 333.500,654.521 333.857,654.644 336.000 C 654.888 340.253,656.033 344.324,658.217 348.709 C 659.858 352.004,660.058 353.226,659.136 354.336 C 658.489 355.116,658.081 357.272,658.230 359.127 L 658.500 362.500 651.641 362.500 C 645.361 362.500,644.623 362.276,642.891 359.846 C 641.851 358.386,641.000 356.248,641.000 355.096 C 641.000 353.667,640.364 353.000,639.000 353.000 C 637.900 353.000,637.007 353.337,637.015 353.750 C 637.049 355.428,639.651 361.874,640.904 363.384 C 642.040 364.753,642.009 365.000,640.700 365.000 C 638.965 365.000,631.016 373.814,631.006 375.750 C 630.998 377.465,633.935 377.334,634.604 375.589 C 634.902 374.813,637.827 372.338,641.104 370.089 C 646.742 366.220,647.456 366.000,654.371 366.000 C 660.981 366.000,661.776 366.215,662.698 368.250 C 663.336 369.659,663.405 372.557,662.882 376.000 C 662.424 379.025,661.748 383.881,661.380 386.792 C 660.917 390.454,660.140 392.390,658.856 393.077 C 657.273 393.924,657.000 393.694,657.000 391.510 C 657.000 388.854,654.065 387.000,649.862 387.000 C 647.110 387.000,647.822 390.400,650.658 390.806 C 651.834 390.975,653.067 391.875,653.399 392.806 C 653.730 393.738,654.263 395.063,654.584 395.750 C 654.904 396.438,654.712 397.000,654.157 397.000 C 653.601 397.000,653.001 396.337,652.823 395.526 C 652.620 394.599,652.023 394.351,651.212 394.859 C 650.449 395.336,649.733 398.485,649.455 402.582 C 649.197 406.387,648.742 410.672,648.445 412.104 C 648.023 414.138,648.474 415.080,650.502 416.410 C 652.313 417.596,652.921 418.675,652.509 419.971 C 652.184 420.995,652.338 422.091,652.851 422.408 C 653.822 423.008,653.733 432.385,652.731 435.000 C 652.415 435.825,651.955 439.454,651.709 443.064 C 651.276 449.399,649.762 452.885,644.677 459.250 C 641.670 463.016,637.874 460.554,638.713 455.382 C 639.144 452.723,638.921 452.000,637.666 452.000 C 635.606 452.000,634.000 455.045,634.000 458.949 C 634.000 461.351,633.284 462.466,630.750 464.011 C 626.705 466.477,618.000 466.811,618.000 464.500 C 618.000 463.667,617.111 463.000,616.000 463.000 C 614.900 463.000,614.000 463.661,614.000 464.469 C 614.000 465.277,613.079 467.706,611.952 469.867 C 609.380 474.802,608.916 479.500,611.000 479.500 C 611.929 479.500,612.621 478.359,612.818 476.500 C 613.277 472.167,616.505 470.049,622.687 470.022 L 627.874 470.000 627.306 473.500 C 626.444 478.815,629.294 478.033,631.867 472.250 C 634.969 465.277,636.127 464.111,639.340 464.725 C 641.837 465.202,642.042 465.555,641.470 468.376 C 640.508 473.116,633.924 487.167,631.312 490.055 C 630.040 491.460,629.000 493.828,629.000 495.318 C 629.000 496.808,628.617 498.809,628.148 499.764 C 627.680 500.719,626.217 503.688,624.898 506.363 C 623.579 509.037,621.084 512.317,619.354 513.652 C 617.499 515.083,615.932 517.397,615.537 519.289 C 614.744 523.085,609.594 530.468,605.722 533.358 L 602.979 535.406 597.570 532.754 C 593.139 530.580,591.961 530.342,591.053 531.436 C 590.190 532.475,590.738 533.238,593.530 534.885 C 595.501 536.048,597.778 537.000,598.589 537.000 C 601.626 537.000,601.172 540.086,597.446 544.761 C 592.365 551.138,591.164 552.000,587.369 552.000 C 584.337 552.000,584.100 552.250,583.810 555.750 C 583.527 559.174,582.762 560.047,575.000 565.797 C 570.325 569.260,564.710 573.663,562.523 575.581 C 560.336 577.499,555.456 581.160,551.679 583.717 C 545.206 588.100,544.630 588.298,541.656 587.159 C 538.339 585.889,537.546 586.388,532.845 592.695 C 531.134 594.991,517.797 604.794,512.364 607.750 C 510.089 608.987,507.262 610.000,506.082 610.000 C 504.901 610.000,502.306 610.681,500.314 611.513 C 498.323 612.345,496.465 612.798,496.186 612.519 C 495.353 611.687,498.968 608.229,504.145 604.907 C 508.923 601.841,510.505 599.000,507.434 599.000 C 504.826 599.000,501.803 601.016,495.213 607.149 C 491.756 610.367,488.475 613.000,487.923 613.000 C 487.371 613.000,485.700 613.882,484.210 614.960 C 482.713 616.042,476.926 617.838,471.283 618.972 C 465.664 620.101,459.897 621.469,458.468 622.012 C 451.999 624.472,449.803 622.001,455.026 618.139 C 459.863 614.563,476.000 587.962,476.000 583.564 C 476.000 582.775,476.433 580.990,476.963 579.597 C 477.915 577.093,477.975 577.080,482.089 578.531 C 484.378 579.339,487.770 580.000,489.626 580.000 C 494.313 580.000,494.090 577.427,489.325 576.533 C 487.304 576.154,483.929 575.155,481.825 574.313 L 478.000 572.783 478.000 565.394 C 478.000 559.172,477.498 556.939,474.818 551.253 C 469.018 538.945,440.890 512.695,429.009 508.503 C 426.743 507.704,424.352 506.705,423.695 506.283 C 421.200 504.682,415.234 502.882,408.000 501.548 C 403.875 500.788,398.700 499.689,396.500 499.107 C 389.595 497.279,375.698 497.743,369.761 499.999 C 366.867 501.099,363.890 501.999,363.145 501.999 C 360.944 502.000,340.981 512.019,338.766 514.234 C 337.647 515.353,334.913 517.301,332.690 518.564 C 327.404 521.567,314.860 535.671,312.578 541.178 C 306.897 554.888,304.624 562.843,303.393 573.316 C 302.602 580.047,304.677 596.574,306.680 599.500 C 307.433 600.600,308.531 603.300,309.119 605.500 C 310.854 611.990,316.342 620.020,324.171 627.527 C 332.097 635.126,334.191 639.322,332.779 644.772 C 332.333 646.493,331.634 648.108,331.226 648.360 C 330.426 648.855,310.502 649.885,297.500 650.104 C 287.375 650.274,257.628 648.223,253.000 647.035 C 251.075 646.542,244.550 645.406,238.500 644.512 C 232.450 643.618,225.925 642.486,224.000 641.996 C 222.075 641.506,217.350 640.359,213.500 639.447 C 207.072 637.924,194.322 633.953,189.500 631.972 C 188.400 631.520,183.301 629.740,178.168 628.016 C 169.353 625.055,148.082 615.470,147.000 613.971 C 146.725 613.591,144.967 612.493,143.093 611.533 C 141.219 610.572,137.619 607.899,135.093 605.592 C 132.567 603.286,127.575 599.120,124.000 596.335 C 120.425 593.551,114.990 588.848,111.922 585.886 C 103.997 578.234,84.630 557.014,81.846 552.932 C 80.556 551.040,78.316 547.919,76.869 545.996 C 75.422 544.073,72.110 538.450,69.509 533.500 C 66.908 528.550,64.386 524.012,63.905 523.415 C 62.031 521.093,53.937 503.936,53.364 501.071 C 53.031 499.407,52.138 497.530,51.379 496.900 C 50.621 496.270,50.000 495.390,50.000 494.943 C 50.000 494.496,49.486 492.863,48.857 491.315 C 46.156 484.658,41.852 472.227,41.131 469.000 C 40.702 467.075,39.869 464.600,39.281 463.500 C 38.317 461.698,36.241 452.435,33.994 439.905 C 33.540 437.378,32.456 432.909,31.585 429.973 C 30.713 427.038,30.000 422.990,30.000 420.977 C 30.000 418.965,29.327 415.109,28.504 412.409 C 26.050 404.358,25.374 371.981,27.382 358.667 C 28.280 352.709,28.810 347.501,28.558 347.094 C 27.958 346.123,30.708 328.898,32.485 322.500 C 33.249 319.750,34.592 314.125,35.471 310.000 C 37.805 299.040,40.613 290.603,45.882 278.723 C 47.047 276.096,48.000 273.483,48.000 272.917 C 48.000 272.351,49.307 269.255,50.903 266.036 C 52.500 262.818,54.111 259.130,54.483 257.842 C 55.122 255.632,60.620 243.462,63.448 238.000 C 64.160 236.625,65.307 233.700,65.997 231.500 C 66.688 229.300,67.826 226.825,68.527 226.000 C 69.228 225.175,70.496 222.925,71.346 221.000 C 72.196 219.075,73.559 216.375,74.376 215.000 C 75.193 213.625,78.226 208.450,81.115 203.500 C 84.005 198.550,86.624 194.275,86.935 194.000 C 88.288 192.803,94.000 185.052,94.000 184.412 C 94.000 184.024,95.479 181.860,97.286 179.603 C 99.094 177.346,101.303 174.340,102.197 172.922 C 103.090 171.504,105.774 168.168,108.160 165.509 C 128.336 143.028,145.862 126.719,153.941 122.906 C 156.384 121.753,159.759 119.839,161.441 118.652 C 168.724 113.515,176.243 109.590,182.000 107.919 C 184.475 107.201,187.400 106.086,188.500 105.442 C 189.600 104.797,192.750 103.733,195.500 103.076 C 198.250 102.419,202.075 101.503,204.000 101.039 C 205.925 100.575,210.425 99.716,214.000 99.129 C 232.446 96.100,240.091 94.729,246.000 93.388 C 249.575 92.577,259.700 91.093,268.500 90.090 C 282.057 88.546,284.741 88.476,286.079 89.634 C 288.303 91.559,289.759 91.333,290.517 88.946 C 291.149 86.955,291.627 86.912,305.835 87.552 C 313.901 87.916,323.663 88.139,327.530 88.047 M294.000 93.422 C 294.000 94.977,298.110 96.572,304.769 97.602 C 308.456 98.172,308.952 98.039,308.412 96.631 C 308.068 95.734,306.986 95.000,306.007 95.000 C 305.029 95.000,302.940 94.328,301.364 93.506 C 297.720 91.605,294.000 91.563,294.000 93.422 M312.000 95.381 C 312.000 96.946,313.572 99.169,316.589 101.869 C 320.294 105.185,321.532 105.785,323.023 104.988 C 326.283 103.243,327.776 103.886,334.664 110.000 C 341.585 116.144,344.710 117.259,347.063 114.424 C 348.147 113.118,348.126 112.691,346.936 111.934 C 346.146 111.432,344.927 111.231,344.228 111.488 C 342.534 112.109,335.000 105.230,335.000 103.061 C 335.000 102.123,333.107 100.116,330.793 98.601 C 327.052 96.152,326.458 96.021,325.433 97.423 C 323.656 99.853,320.457 99.303,317.154 96.000 C 313.535 92.381,312.000 92.197,312.000 95.381 M344.934 100.672 C 343.762 103.757,344.433 106.351,346.251 105.759 C 347.901 105.222,350.281 100.264,349.497 98.996 C 348.339 97.121,345.951 97.999,344.934 100.672 M394.591 99.489 C 397.291 100.308,400.738 100.983,402.250 100.989 C 403.762 100.995,405.000 101.434,405.000 101.965 C 405.000 103.825,400.707 105.198,394.416 105.348 C 389.118 105.475,387.709 105.142,385.895 103.333 C 383.267 100.713,383.986 98.000,387.310 98.000 C 388.615 98.000,391.891 98.670,394.591 99.489 M360.496 103.007 C 359.856 104.042,360.575 104.414,365.136 105.407 C 367.737 105.973,370.698 104.031,369.325 102.658 C 368.281 101.614,361.183 101.895,360.496 103.007 M373.226 103.839 C 372.255 104.456,372.438 105.086,374.000 106.500 C 376.560 108.817,379.180 107.127,377.035 104.542 C 375.586 102.796,375.031 102.694,373.226 103.839 M453.683 111.650 C 453.308 112.026,453.000 113.421,453.000 114.750 C 453.000 117.518,455.300 117.365,455.844 114.561 C 456.227 112.585,454.745 110.588,453.683 111.650 M412.695 112.783 C 409.373 113.491,411.558 115.333,418.058 117.304 C 425.732 119.630,430.152 119.960,430.738 118.251 C 430.974 117.563,430.566 116.839,429.833 116.642 C 429.100 116.444,426.700 115.698,424.500 114.983 C 418.625 113.074,414.734 112.349,412.695 112.783 M327.644 116.767 C 327.384 117.188,328.418 119.061,329.942 120.929 C 332.039 123.499,333.173 124.145,334.607 123.588 C 336.439 122.875,336.434 122.797,334.451 121.176 C 333.325 120.254,332.101 118.713,331.733 117.750 C 331.053 115.975,328.511 115.364,327.644 116.767 M348.984 118.520 C 347.935 119.784,348.319 120.608,351.314 123.517 C 354.772 126.875,358.000 128.074,358.000 126.001 C 358.000 125.452,356.254 123.203,354.120 121.004 C 350.756 117.538,350.073 117.207,348.984 118.520 M450.200 120.200 C 449.540 120.860,449.000 122.020,449.000 122.778 C 449.000 123.762,447.928 124.063,445.250 123.828 C 441.968 123.541,441.543 123.750,441.845 125.500 C 442.420 128.831,444.054 130.000,448.136 130.000 C 450.276 130.000,452.861 130.521,453.881 131.158 C 454.919 131.806,456.564 131.985,457.618 131.565 C 459.439 130.839,459.435 130.770,457.500 129.451 C 451.264 125.198,451.370 125.354,453.263 123.262 C 454.218 122.206,455.000 120.815,455.000 120.171 C 455.000 118.642,451.739 118.661,450.200 120.200 M337.095 125.911 C 335.233 127.102,338.479 131.090,346.000 136.853 C 349.025 139.171,353.237 142.627,355.360 144.534 C 357.484 146.440,359.846 148.000,360.610 148.000 C 361.375 148.000,362.000 148.648,362.000 149.441 C 362.000 151.667,364.029 152.400,365.664 150.764 C 366.961 149.468,366.382 148.605,360.818 143.544 C 357.343 140.384,353.488 137.404,352.250 136.923 C 351.012 136.443,350.000 135.650,350.000 135.161 C 350.000 134.672,348.089 132.973,345.752 131.386 C 343.416 129.799,340.829 127.715,340.002 126.756 C 338.988 125.578,338.044 125.304,337.095 125.911 M460.079 132.405 C 459.140 133.536,459.535 134.121,462.110 135.405 C 466.185 137.438,470.000 137.484,470.000 135.500 C 470.000 134.675,469.186 134.000,468.191 134.000 C 467.196 134.000,465.509 133.339,464.441 132.532 C 461.999 130.684,461.518 130.670,460.079 132.405 M436.407 135.870 C 426.924 143.060,422.791 144.999,416.912 145.015 C 410.767 145.033,408.431 146.074,409.323 148.399 C 409.758 149.532,411.226 150.000,414.344 150.000 C 416.767 150.000,420.060 150.262,421.662 150.582 C 424.047 151.059,424.811 150.722,425.883 148.718 C 426.603 147.373,428.479 145.648,430.051 144.886 C 435.038 142.468,445.011 133.627,443.695 132.790 C 441.941 131.675,441.938 131.677,436.407 135.870 M383.893 142.066 C 382.353 143.018,383.681 145.000,385.859 145.000 C 386.817 145.000,388.047 145.447,388.594 145.994 C 389.140 146.540,392.380 147.279,395.794 147.636 C 401.120 148.193,402.000 148.055,402.000 146.662 C 402.000 145.769,400.988 144.839,399.750 144.596 C 398.512 144.353,394.697 143.525,391.271 142.755 C 387.845 141.985,384.525 141.675,383.893 142.066 M478.000 142.474 C 478.000 144.350,483.678 147.337,485.740 146.546 C 487.059 146.040,486.942 145.567,484.975 143.474 C 482.409 140.742,478.000 140.111,478.000 142.474 M496.631 148.702 C 495.178 150.155,496.163 152.000,498.393 152.000 C 499.709 152.000,501.045 152.675,501.362 153.500 C 501.678 154.325,503.076 155.000,504.469 155.000 C 506.052 155.000,507.000 154.438,507.000 153.500 C 507.000 152.576,506.062 152.000,504.559 152.000 C 503.216 152.000,501.841 151.552,501.503 151.005 C 500.579 149.509,497.350 147.983,496.631 148.702 M428.000 150.199 C 428.000 151.163,430.105 152.051,434.420 152.909 C 440.657 154.149,445.000 153.772,445.000 151.992 C 445.000 150.551,443.849 150.239,435.750 149.486 C 429.351 148.891,428.000 149.015,428.000 150.199 M449.542 151.932 C 448.387 153.801,449.915 154.865,454.773 155.573 C 457.373 155.952,461.149 156.912,463.165 157.706 C 467.587 159.447,472.500 159.093,472.500 157.032 C 472.500 155.075,464.226 153.378,461.868 154.850 C 460.616 155.632,460.046 155.562,459.668 154.578 C 459.388 153.848,457.886 153.033,456.329 152.767 C 454.773 152.501,452.758 151.964,451.851 151.573 C 450.944 151.183,449.905 151.344,449.542 151.932 M368.000 153.343 C 368.000 154.082,371.615 157.231,376.033 160.340 C 382.402 164.823,384.187 165.675,384.656 164.454 C 384.981 163.607,385.079 162.758,384.874 162.568 C 382.764 160.612,374.784 155.000,374.114 155.000 C 373.636 155.000,372.685 154.325,372.000 153.500 C 370.453 151.636,368.000 151.540,368.000 153.343 M581.000 153.500 C 581.685 154.325,582.772 155.000,583.417 155.000 C 585.197 155.000,591.650 163.959,594.483 170.365 C 597.174 176.450,597.555 179.536,596.069 183.203 C 595.557 184.466,594.886 186.625,594.578 188.000 C 593.384 193.327,592.487 193.531,588.106 189.477 C 583.433 185.154,583.218 184.263,586.000 180.727 C 589.811 175.882,587.868 166.628,582.528 164.195 C 576.681 161.531,570.000 164.469,570.000 169.706 C 570.000 172.502,567.580 173.726,565.487 171.989 C 563.628 170.446,563.568 164.969,565.364 160.671 C 568.275 153.704,577.615 149.421,581.000 153.500 M508.500 156.000 C 507.506 157.608,508.925 159.000,511.559 159.000 C 513.333 159.000,514.000 158.454,514.000 157.000 C 514.000 155.546,513.333 155.000,511.559 155.000 C 510.216 155.000,508.840 155.450,508.500 156.000 M485.577 162.875 C 484.753 164.209,488.688 166.788,492.802 167.610 C 495.365 168.123,496.000 167.923,496.000 166.600 C 496.000 164.206,486.789 160.914,485.577 162.875 M522.441 163.096 C 521.615 164.432,523.703 166.546,526.750 167.460 C 528.567 168.005,529.000 167.743,529.000 166.103 C 529.000 163.043,523.914 160.712,522.441 163.096 M501.008 165.974 C 499.896 166.677,499.805 167.205,500.651 168.051 C 501.916 169.316,506.000 167.723,506.000 165.965 C 506.000 164.736,502.958 164.741,501.008 165.974 M388.248 167.250 C 389.175 170.040,402.487 171.956,424.143 172.417 C 440.777 172.771,442.134 172.948,447.853 175.515 C 452.364 177.539,454.635 178.041,456.710 177.474 C 458.244 177.054,460.329 176.623,461.342 176.516 C 463.065 176.333,464.950 174.404,464.985 172.787 C 464.993 172.395,462.042 172.318,458.426 172.616 C 453.633 173.011,450.743 172.714,447.762 171.522 C 443.619 169.864,435.607 169.140,413.000 168.381 C 406.125 168.150,399.195 167.520,397.601 166.980 C 393.377 165.552,387.739 165.715,388.248 167.250 M583.153 170.436 C 584.739 173.916,583.633 175.791,579.542 176.558 C 575.462 177.324,572.528 175.666,573.833 173.333 C 574.647 171.880,579.837 168.209,581.271 168.073 C 581.696 168.033,582.542 169.096,583.153 170.436 M522.000 174.879 C 522.000 177.183,527.571 179.829,529.133 178.267 C 529.828 177.572,529.202 176.568,527.173 175.123 C 523.494 172.504,522.000 172.433,522.000 174.879 M475.350 176.727 C 471.904 177.041,471.000 177.586,470.027 179.935 C 469.382 181.492,467.553 184.012,465.963 185.536 C 462.775 188.590,462.926 189.641,466.764 191.100 C 469.572 192.168,470.957 191.038,470.985 187.654 C 470.993 186.639,471.931 184.502,473.068 182.904 C 474.814 180.453,475.821 180.000,479.531 180.000 C 481.948 180.000,486.209 180.900,489.000 182.000 C 494.728 184.258,498.363 184.590,497.767 182.802 C 497.248 181.244,484.325 175.948,481.598 176.175 C 480.444 176.271,477.632 176.519,475.350 176.727 M533.187 180.750 C 533.578 182.802,537.728 183.672,539.357 182.043 C 540.769 180.631,538.569 179.038,535.177 179.015 C 533.500 179.004,532.946 179.487,533.187 180.750 M645.182 189.750 C 649.795 194.712,659.000 207.317,659.000 208.673 C 659.000 210.991,657.456 210.122,653.928 205.816 C 652.043 203.515,649.150 200.028,647.500 198.066 C 643.950 193.846,640.000 188.303,640.000 187.540 C 640.000 186.067,642.913 187.309,645.182 189.750 M554.032 189.250 C 554.109 192.301,559.924 196.627,562.578 195.608 C 564.819 194.748,564.238 192.041,561.597 191.037 C 560.276 190.534,558.899 189.646,558.538 189.062 C 557.621 187.578,553.993 187.730,554.032 189.250 M534.450 193.081 C 533.268 194.994,538.965 199.920,542.103 199.699 L 544.930 199.500 541.215 195.783 C 537.368 191.934,535.596 191.226,534.450 193.081 M514.586 196.365 C 515.367 198.400,520.087 200.313,521.310 199.090 C 522.883 197.517,520.175 195.000,516.909 195.000 C 514.915 195.000,514.220 195.409,514.586 196.365 M471.033 198.250 C 471.085 200.196,474.643 204.000,476.410 204.000 C 478.376 204.000,478.382 203.639,476.474 199.950 C 474.951 197.004,470.967 195.759,471.033 198.250 M598.275 202.594 C 604.799 208.634,609.390 214.641,608.095 215.441 C 607.652 215.715,605.465 214.378,603.236 212.470 C 601.006 210.561,598.765 209.000,598.256 209.000 C 597.747 209.000,596.128 207.650,594.658 206.000 C 593.187 204.350,591.088 203.000,589.992 203.000 C 588.445 203.000,588.000 202.329,588.000 200.000 C 588.000 195.313,591.314 196.150,598.275 202.594 M523.406 202.152 C 522.415 203.755,525.810 206.000,529.226 206.000 C 531.701 206.000,531.940 205.756,531.063 204.118 C 529.459 201.121,524.785 199.921,523.406 202.152 M543.000 202.067 C 543.000 202.653,544.178 204.678,545.619 206.567 C 547.577 209.135,548.995 210.000,551.241 210.000 C 553.758 210.000,554.049 210.236,553.036 211.456 C 551.662 213.112,552.442 215.000,554.500 215.000 C 557.355 215.000,557.116 212.715,553.916 209.414 C 552.097 207.536,549.769 206.000,548.745 206.000 C 547.705 206.000,547.167 205.539,547.527 204.956 C 547.882 204.382,547.628 203.257,546.964 202.456 C 545.558 200.762,543.000 200.511,543.000 202.067 M477.642 206.691 C 476.039 208.294,477.377 210.942,481.987 215.293 C 484.730 217.882,487.446 220.000,488.022 220.000 C 488.599 220.000,490.067 220.641,491.285 221.425 C 492.503 222.209,496.373 223.809,499.884 224.981 C 506.154 227.073,509.517 227.051,508.807 224.922 C 508.453 223.858,498.737 220.096,496.180 220.033 C 494.255 219.985,487.070 214.835,482.365 210.130 C 480.121 207.885,477.995 206.338,477.642 206.691 M535.454 210.074 C 535.089 210.665,535.816 212.240,537.070 213.574 C 539.621 216.290,539.886 216.367,542.000 214.998 C 543.254 214.187,543.007 213.620,540.500 211.550 C 537.116 208.755,536.399 208.545,535.454 210.074 M664.349 215.250 C 665.697 217.037,667.791 220.300,669.001 222.500 C 670.212 224.700,671.789 227.175,672.506 228.000 C 675.532 231.482,683.480 248.618,687.813 261.000 C 692.903 275.547,694.010 279.400,694.005 282.550 C 694.002 284.228,694.402 286.028,694.892 286.550 C 695.767 287.481,697.689 294.507,702.539 314.500 C 705.375 326.195,705.509 328.000,703.539 328.000 C 702.670 328.000,701.602 326.277,700.906 323.750 C 694.169 299.308,693.324 296.474,692.077 294.143 C 691.484 293.037,691.000 291.258,691.000 290.190 C 691.000 289.122,689.811 285.605,688.358 282.374 C 686.905 279.143,685.383 274.925,684.975 273.000 C 684.568 271.075,683.528 267.025,682.665 264.000 C 681.802 260.975,680.467 256.250,679.699 253.500 C 677.557 245.829,667.812 226.293,661.750 217.517 C 658.626 212.995,658.392 212.000,660.449 212.000 C 661.246 212.000,663.001 213.463,664.349 215.250 M557.507 217.988 C 557.171 218.532,558.038 220.445,559.433 222.238 C 560.828 224.032,563.889 228.387,566.235 231.915 C 570.630 238.525,573.331 241.003,574.675 239.658 C 575.507 238.826,575.350 238.546,566.772 225.627 C 561.434 217.586,558.997 215.577,557.507 217.988 M521.678 221.656 C 521.317 222.016,519.334 222.586,517.272 222.921 C 514.822 223.319,513.406 224.132,513.187 225.265 C 512.901 226.753,513.691 227.000,518.736 227.000 C 522.359 227.000,525.363 227.564,526.559 228.468 C 527.626 229.276,529.504 229.951,530.731 229.968 C 531.958 229.986,535.881 231.439,539.449 233.199 C 543.017 234.958,546.231 236.103,546.591 235.742 C 548.819 233.514,542.856 229.723,531.914 226.409 C 529.392 225.645,526.509 224.115,525.509 223.010 C 523.586 220.885,522.746 220.588,521.678 221.656 M553.000 229.345 C 553.000 230.946,556.168 234.000,557.829 234.000 C 559.748 234.000,559.157 230.154,557.066 229.035 C 554.433 227.626,553.000 227.735,553.000 229.345 M635.000 233.292 C 635.000 234.914,643.152 243.000,644.788 243.000 C 647.291 243.000,645.855 239.636,641.750 235.884 C 637.408 231.915,635.000 230.990,635.000 233.292 M560.000 239.066 C 560.000 241.099,562.078 244.000,563.535 244.000 C 565.258 244.000,565.403 242.622,563.965 239.934 C 562.870 237.888,560.000 237.260,560.000 239.066 M576.480 243.032 C 576.092 243.660,576.200 244.600,576.720 245.120 C 577.934 246.334,581.204 245.111,580.709 243.627 C 580.186 242.054,577.333 241.653,576.480 243.032 M647.385 246.439 C 646.509 248.721,647.815 252.992,649.597 253.676 C 652.278 254.704,653.149 252.606,651.452 249.204 C 649.503 245.297,648.171 244.391,647.385 246.439 M602.490 249.016 C 601.757 250.202,612.897 262.000,614.749 262.000 C 617.489 262.000,615.729 258.164,610.719 253.216 C 605.442 248.005,603.673 247.102,602.490 249.016 M645.604 311.590 C 644.853 313.547,645.661 315.000,647.500 315.000 C 649.558 315.000,650.338 313.112,648.964 311.456 C 647.399 309.571,646.363 309.613,645.604 311.590 M598.497 325.166 C 597.371 328.068,598.378 332.460,600.250 332.815 C 602.472 333.236,602.686 328.315,600.571 325.441 C 599.283 323.690,599.080 323.663,598.497 325.166 M679.959 332.904 C 681.312 333.867,684.462 337.650,686.959 341.311 C 689.890 345.607,692.209 348.001,693.500 348.063 C 694.600 348.115,694.938 348.385,694.250 348.662 C 692.440 349.393,692.719 352.027,695.004 355.774 C 697.184 359.350,697.542 363.443,696.025 367.435 C 694.845 370.539,692.773 370.672,686.792 368.026 C 681.261 365.580,675.500 364.964,675.500 366.819 C 675.500 368.148,683.939 371.690,689.500 372.695 C 692.369 373.214,698.000 378.094,698.000 380.062 C 698.000 380.578,698.788 381.833,699.750 382.852 C 708.979 392.618,711.045 396.379,710.026 401.561 C 708.983 406.860,708.117 408.741,706.423 409.391 C 705.640 409.692,705.000 410.574,705.000 411.352 C 705.000 412.130,704.100 413.002,703.000 413.290 C 701.900 413.577,701.000 414.450,701.000 415.230 C 701.000 416.652,710.514 425.000,712.135 425.000 C 712.611 425.000,713.000 427.673,713.000 430.941 C 713.000 434.209,713.450 437.160,714.000 437.500 C 715.904 438.677,715.017 442.035,712.500 443.182 C 709.355 444.615,709.363 445.352,712.544 447.437 C 714.749 448.882,715.048 449.713,714.794 453.693 C 714.506 458.190,713.784 459.150,709.750 460.396 C 707.056 461.229,707.587 464.000,710.441 464.000 C 711.784 464.000,713.101 464.354,713.369 464.788 C 714.527 466.661,709.855 492.065,707.261 498.000 C 706.419 499.925,705.372 502.850,704.934 504.500 C 704.496 506.150,703.176 511.100,702.000 515.500 C 700.823 519.900,699.430 525.232,698.903 527.349 C 698.376 529.467,697.065 532.842,695.989 534.849 C 694.913 536.857,692.622 541.875,690.898 546.000 C 689.175 550.125,686.692 555.793,685.382 558.596 C 684.072 561.400,683.000 564.217,683.000 564.857 C 683.000 565.497,681.425 568.261,679.500 571.000 C 677.575 573.739,676.000 576.379,676.000 576.867 C 676.000 577.356,675.288 578.346,674.418 579.068 C 673.549 579.790,671.507 582.882,669.881 585.940 C 668.255 588.998,665.830 593.075,664.492 595.000 C 663.153 596.925,660.909 600.161,659.506 602.192 C 655.326 608.238,632.722 633.101,626.382 638.625 C 614.928 648.605,613.428 649.804,606.500 654.517 C 602.650 657.137,597.811 660.792,595.747 662.640 C 593.683 664.488,591.609 666.000,591.138 666.000 C 590.667 666.000,588.306 667.571,585.891 669.490 C 583.476 671.410,581.006 672.985,580.403 672.990 C 579.800 672.996,578.268 673.900,577.000 675.000 C 575.732 676.100,574.340 677.000,573.908 677.000 C 573.249 677.000,559.832 686.108,556.455 688.848 C 555.230 689.842,522.232 705.000,521.294 705.000 C 520.943 705.000,517.750 706.163,514.197 707.585 C 503.853 711.723,485.927 717.710,480.500 718.840 C 474.187 720.154,459.407 722.000,455.198 722.000 C 450.180 722.000,451.444 720.216,457.750 718.398 C 464.448 716.467,475.100 711.292,481.801 706.712 C 484.385 704.945,487.220 703.050,488.100 702.500 C 488.981 701.950,491.605 700.234,493.932 698.686 C 496.259 697.139,500.826 694.717,504.081 693.305 C 507.346 691.890,510.000 690.098,510.000 689.310 C 510.000 688.525,510.473 688.174,511.050 688.531 C 512.658 689.525,518.699 686.315,527.162 679.970 C 531.376 676.810,535.426 673.979,536.162 673.677 C 537.147 673.273,536.876 672.583,535.139 671.064 C 532.033 668.348,531.335 668.451,529.559 671.885 C 528.739 673.472,526.104 675.921,523.704 677.328 C 521.304 678.734,518.709 680.645,517.938 681.575 C 516.373 683.461,501.306 690.978,499.064 690.991 C 498.275 690.996,496.700 691.814,495.564 692.809 C 489.253 698.339,463.626 712.635,456.000 714.880 C 453.525 715.609,450.211 716.890,448.635 717.727 C 447.060 718.564,442.978 719.473,439.565 719.747 C 430.079 720.508,414.799 714.906,406.881 707.764 C 401.751 703.137,398.553 695.274,399.372 689.301 C 400.132 683.759,401.649 681.876,407.280 679.485 C 409.601 678.500,413.940 676.627,416.921 675.324 L 422.342 672.954 424.976 675.477 C 429.391 679.706,434.402 678.262,433.362 673.060 C 432.886 670.678,433.369 670.144,438.166 667.753 C 441.100 666.290,446.477 664.418,450.116 663.592 C 462.812 660.711,472.775 652.990,511.810 615.781 C 518.030 609.851,523.609 605.000,524.207 605.000 C 524.805 605.000,527.144 603.484,529.405 601.631 C 531.667 599.778,537.327 596.321,541.984 593.948 C 551.212 589.246,553.575 587.740,562.317 580.991 C 565.517 578.521,569.348 575.600,570.830 574.500 C 578.811 568.578,585.815 562.813,588.274 560.142 C 589.800 558.484,592.275 556.987,593.774 556.814 C 595.765 556.585,596.590 555.861,596.835 554.131 C 597.019 552.829,599.160 549.229,601.592 546.131 C 604.024 543.034,606.797 539.504,607.754 538.287 C 608.712 537.070,610.380 535.945,611.461 535.787 C 612.735 535.601,613.645 534.445,614.048 532.500 C 614.793 528.912,620.741 519.466,624.390 516.076 C 625.826 514.742,627.002 513.167,627.004 512.576 C 627.006 511.984,628.104 509.341,629.442 506.703 C 630.781 504.065,632.401 500.240,633.042 498.203 C 635.505 490.387,640.579 484.892,642.486 487.978 C 643.954 490.353,637.010 507.389,633.895 509.056 C 632.318 509.900,632.009 510.763,632.492 512.965 C 633.354 516.890,628.725 527.770,624.777 531.099 C 623.082 532.528,622.002 534.194,622.377 534.801 C 623.337 536.355,618.135 545.674,614.250 549.358 C 612.462 551.053,611.000 552.984,611.000 553.648 C 611.000 555.219,604.251 566.547,602.399 568.084 C 601.614 568.735,598.029 569.398,594.431 569.557 C 588.206 569.833,585.000 571.078,585.000 573.221 C 585.000 573.824,587.289 573.931,590.994 573.501 C 598.162 572.669,599.376 574.038,596.130 579.290 C 591.678 586.493,588.280 587.476,582.900 583.120 C 580.767 581.393,580.673 580.980,581.891 578.703 C 584.941 573.005,580.076 573.276,575.976 579.033 C 573.256 582.854,574.206 584.232,581.910 587.639 C 584.930 588.974,587.599 590.266,587.842 590.509 C 588.086 590.752,586.129 593.475,583.494 596.559 C 579.035 601.778,578.471 602.123,575.368 601.541 C 572.087 600.926,572.043 600.965,572.647 603.985 C 573.360 607.549,571.854 609.609,565.163 614.224 C 561.777 616.560,560.157 617.081,557.770 616.604 C 554.122 615.874,552.000 617.347,552.000 620.608 C 552.000 622.492,550.789 623.583,546.029 625.986 C 542.744 627.644,539.257 628.990,538.279 628.979 C 537.300 628.967,535.285 627.239,533.800 625.138 L 531.099 621.318 533.621 617.607 C 537.335 612.141,543.500 610.333,547.153 613.638 C 548.606 614.953,549.254 615.034,550.444 614.047 C 551.738 612.972,551.672 612.475,549.915 610.099 C 548.274 607.880,548.095 606.881,548.937 604.664 C 549.505 603.171,550.764 601.687,551.735 601.367 C 552.706 601.048,555.017 600.112,556.872 599.288 C 559.477 598.131,560.796 598.042,562.669 598.895 C 568.065 601.354,570.142 598.731,565.490 595.333 C 563.182 593.648,563.076 593.244,564.181 590.323 C 564.842 588.576,566.457 586.657,567.770 586.059 C 570.093 585.000,570.409 582.970,568.357 582.286 C 566.477 581.659,562.063 586.069,560.079 590.555 C 558.708 593.655,557.514 595.000,556.134 595.000 C 553.256 595.000,545.678 601.127,544.999 604.002 C 544.591 605.734,543.212 606.914,540.350 607.982 C 535.518 609.785,532.273 612.326,529.155 616.750 C 527.486 619.117,526.092 620.000,524.021 620.000 C 518.919 620.000,512.594 630.994,515.832 634.232 C 517.554 635.954,520.000 633.223,520.000 629.578 C 520.000 625.999,521.518 624.000,524.235 624.000 C 526.708 624.000,530.499 626.586,532.497 629.636 C 534.564 632.790,533.548 634.182,526.615 637.695 C 522.521 639.769,521.260 640.019,519.724 639.060 C 517.428 637.626,515.275 639.055,514.810 642.323 C 514.598 643.811,512.918 645.258,509.500 646.897 C 504.652 649.222,493.764 655.334,475.781 665.825 C 470.986 668.622,464.011 672.069,460.281 673.484 C 450.060 677.362,446.543 679.490,446.162 682.030 C 445.926 683.601,446.228 684.112,447.162 683.721 C 447.898 683.413,452.100 681.611,456.500 679.716 C 460.900 677.821,465.175 675.988,466.000 675.642 C 466.825 675.296,468.288 674.560,469.250 674.006 C 470.212 673.453,471.788 672.549,472.750 671.998 C 473.712 671.446,475.423 670.591,476.551 670.098 C 477.679 669.604,480.604 667.875,483.051 666.254 C 485.498 664.634,489.525 662.251,492.000 660.959 C 494.475 659.667,498.525 657.379,501.000 655.874 C 503.475 654.369,508.425 651.907,512.000 650.401 C 515.575 648.896,519.650 646.615,521.055 645.332 C 522.460 644.050,524.035 642.995,524.555 642.988 C 525.391 642.977,544.953 631.684,553.819 626.093 C 555.645 624.942,557.594 624.000,558.151 624.000 C 558.708 624.000,561.085 622.425,563.435 620.500 C 565.784 618.575,568.110 616.988,568.603 616.972 C 569.749 616.937,583.580 603.381,587.404 598.545 C 589.919 595.365,590.787 594.915,593.891 595.182 C 596.659 595.420,597.551 595.093,597.811 593.742 C 597.996 592.781,597.440 591.722,596.574 591.390 C 594.580 590.625,594.539 587.628,596.500 586.000 C 597.325 585.315,598.000 584.401,598.000 583.967 C 598.000 582.717,603.273 575.000,604.128 575.000 C 604.553 575.000,607.285 576.314,610.200 577.920 C 616.883 581.601,617.424 584.106,613.016 590.974 C 609.018 597.205,607.495 598.422,603.639 598.465 C 600.744 598.497,600.523 598.739,600.790 601.574 C 601.206 605.978,594.635 616.000,591.332 616.000 C 589.705 616.000,588.646 615.199,587.990 613.474 C 586.867 610.521,584.341 609.259,582.746 610.854 C 581.920 611.680,582.233 612.619,583.938 614.434 C 585.210 615.788,586.250 617.974,586.250 619.292 C 586.250 622.271,583.414 626.734,581.042 627.487 C 580.064 627.797,578.460 628.940,577.477 630.026 C 576.376 631.242,574.406 632.000,572.345 632.000 C 569.806 632.000,569.000 632.428,569.000 633.777 C 569.000 636.791,566.180 639.799,559.907 643.475 C 553.189 647.413,551.815 647.687,549.964 645.457 C 547.961 643.043,545.500 644.113,545.500 647.399 C 545.500 648.973,544.825 650.628,544.000 651.076 C 543.175 651.525,539.232 653.739,535.238 655.997 C 528.316 659.910,526.006 660.333,525.995 657.691 C 525.986 655.588,521.396 650.637,520.162 651.400 C 518.732 652.284,519.660 656.800,521.772 659.231 C 524.001 661.797,522.043 663.588,512.011 668.157 C 507.330 670.289,502.375 672.615,501.000 673.326 C 490.386 678.813,485.312 681.652,484.179 682.736 C 483.452 683.431,482.275 684.000,481.563 684.000 C 480.852 684.000,479.197 684.811,477.885 685.803 C 475.632 687.506,472.282 688.698,458.762 692.607 C 452.546 694.404,449.700 696.564,452.256 697.545 C 453.992 698.211,472.930 693.470,474.398 692.002 C 474.949 691.451,475.965 691.000,476.656 691.000 C 477.346 691.000,479.447 689.958,481.324 688.684 C 483.201 687.410,494.584 681.529,506.618 675.615 C 518.653 669.701,529.175 664.467,530.000 663.984 C 530.825 663.501,534.164 661.481,537.421 659.494 C 545.443 654.600,548.743 654.008,551.037 657.049 C 552.539 659.040,553.053 659.201,554.385 658.096 C 555.539 657.138,555.698 656.304,554.983 654.967 C 553.551 652.292,554.652 650.464,558.807 648.616 C 564.190 646.222,565.991 645.026,572.161 639.750 C 575.216 637.137,578.136 635.000,578.650 635.000 C 579.163 635.000,581.571 632.975,584.000 630.500 C 586.445 628.008,589.350 626.000,590.508 626.000 C 593.101 626.000,595.000 624.196,595.000 621.733 C 595.000 619.852,597.716 616.121,606.000 606.622 C 608.475 603.784,612.075 599.127,614.000 596.273 C 615.925 593.419,618.737 590.560,620.250 589.921 C 622.369 589.024,623.000 588.078,623.000 585.797 C 623.000 583.924,624.240 581.305,626.375 578.668 C 628.232 576.376,630.487 573.051,631.386 571.280 C 632.285 569.508,633.916 567.580,635.010 566.994 C 636.504 566.195,637.000 564.899,637.000 561.794 C 637.000 559.450,637.676 556.911,638.560 555.934 C 639.418 554.985,641.844 550.839,643.950 546.720 C 649.027 536.793,653.038 530.005,653.845 529.976 C 654.205 529.963,655.824 528.163,657.442 525.976 C 659.060 523.789,661.171 522.000,662.133 522.000 C 664.821 522.000,665.178 520.471,663.266 517.140 C 661.747 514.493,661.692 513.679,662.842 510.802 C 665.331 504.572,669.046 488.500,668.511 486.277 C 668.216 485.055,668.945 480.555,670.130 476.277 C 671.315 472.000,672.497 467.262,672.756 465.750 C 673.146 463.475,673.739 463.000,676.187 463.000 C 678.460 463.000,679.069 462.597,678.812 461.261 C 678.628 460.305,677.582 459.362,676.489 459.164 C 673.037 458.542,672.851 457.504,674.563 448.396 C 675.482 443.503,676.422 438.462,676.650 437.193 C 676.958 435.488,677.543 435.038,678.892 435.466 C 679.902 435.786,681.249 435.405,681.906 434.613 C 682.860 433.464,682.640 432.861,680.798 431.573 C 678.805 430.179,678.414 428.809,677.848 421.233 C 676.091 397.688,675.436 393.691,670.797 378.188 C 669.035 372.300,668.821 370.314,669.696 367.994 C 670.608 365.577,670.483 364.842,668.915 363.423 C 667.888 362.493,667.261 361.386,667.523 360.963 C 667.785 360.540,668.279 353.962,668.622 346.347 C 668.965 338.731,669.712 331.917,670.282 331.206 C 671.573 329.593,676.531 330.464,679.959 332.904 M607.480 336.032 C 607.092 336.660,607.275 337.675,607.887 338.287 C 609.285 339.685,609.359 347.000,607.975 347.000 C 607.412 347.000,606.523 345.875,606.000 344.500 C 605.477 343.125,604.615 342.000,604.084 342.000 C 602.180 342.000,601.962 343.973,603.468 347.578 C 604.311 349.594,605.000 352.674,605.000 354.422 C 605.000 359.741,608.361 361.810,610.000 357.500 C 610.717 355.614,611.674 355.000,613.899 355.000 C 617.048 355.000,623.407 350.467,622.444 348.909 C 621.478 347.346,618.389 347.913,616.500 350.000 C 615.505 351.100,613.462 352.000,611.962 352.000 C 610.074 352.000,609.072 351.384,608.710 350.000 C 608.265 348.297,608.680 348.000,611.507 348.000 C 614.671 348.000,614.786 347.871,613.963 345.250 C 613.489 343.738,612.725 340.928,612.265 339.007 C 611.425 335.498,608.814 333.874,607.480 336.032 M710.746 345.734 C 711.932 350.916,711.527 352.682,709.531 351.026 C 707.113 349.019,706.639 341.000,708.939 341.000 C 709.337 341.000,710.150 343.130,710.746 345.734 M715.402 364.842 C 715.689 365.305,716.358 368.118,716.890 371.092 C 718.194 378.388,719.573 383.981,722.416 393.500 C 727.081 409.123,729.864 431.437,728.147 439.451 C 727.552 442.228,726.794 449.000,726.463 454.500 C 725.864 464.441,725.055 470.023,722.551 481.500 C 721.831 484.800,720.459 491.100,719.502 495.500 C 718.545 499.900,717.182 505.525,716.473 508.000 C 715.763 510.475,714.445 516.100,713.544 520.500 C 710.709 534.338,709.562 537.564,699.940 558.777 C 698.873 561.129,698.000 563.621,698.000 564.315 C 698.000 565.009,697.100 567.342,696.000 569.500 C 694.900 571.658,694.000 574.017,694.000 574.743 C 694.000 575.469,693.325 576.322,692.500 576.638 C 691.675 576.955,691.000 577.625,691.000 578.127 C 691.000 578.629,689.774 580.943,688.275 583.270 C 686.776 585.596,684.748 589.075,683.769 591.000 C 680.048 598.310,669.772 614.570,664.176 622.000 C 662.312 624.475,656.672 630.747,651.644 635.937 C 646.615 641.127,641.825 646.594,641.000 648.085 C 639.479 650.834,622.587 666.756,618.000 669.765 C 616.625 670.667,613.668 673.001,611.430 674.952 C 609.191 676.903,606.041 679.276,604.430 680.225 C 602.818 681.174,598.800 683.721,595.500 685.884 C 576.144 698.572,556.526 709.917,553.852 709.968 C 552.945 709.986,549.637 711.350,546.500 713.000 C 543.363 714.650,540.055 716.003,539.148 716.007 C 538.242 716.010,536.150 716.907,534.500 718.000 C 532.850 719.093,530.769 719.990,529.876 719.993 C 528.983 719.997,526.071 721.219,523.405 722.709 C 520.740 724.199,515.171 726.199,511.029 727.154 C 499.976 729.704,497.237 730.512,489.500 733.500 C 485.650 734.988,480.475 736.638,478.000 737.167 C 475.525 737.697,471.475 738.745,469.000 739.497 C 464.984 740.717,458.752 741.660,442.500 743.508 C 434.183 744.453,422.461 741.055,404.684 732.544 C 392.238 726.585,384.621 718.450,381.060 707.311 C 379.501 702.437,380.089 681.438,381.924 676.470 C 383.170 673.094,399.515 656.581,403.165 655.010 C 404.449 654.457,406.175 653.589,407.000 653.081 C 409.017 651.840,418.444 648.507,424.000 647.071 C 442.806 642.211,459.943 634.791,475.507 624.772 C 485.999 618.018,488.976 616.665,495.000 615.908 C 498.025 615.528,502.300 614.904,504.500 614.522 L 508.500 613.827 504.134 617.663 C 501.733 619.774,494.533 626.388,488.134 632.361 C 481.735 638.335,473.800 645.267,470.500 647.766 C 467.200 650.265,464.046 652.802,463.492 653.405 C 462.126 654.889,454.127 658.680,450.819 659.411 C 448.625 659.896,447.744 659.449,445.961 656.946 C 444.326 654.649,443.136 653.964,441.182 654.194 C 438.286 654.534,436.689 658.253,438.170 661.208 C 438.780 662.426,438.516 663.189,437.252 663.865 C 435.055 665.041,424.545 668.892,420.500 670.003 C 416.142 671.200,407.036 674.740,405.672 675.767 C 405.027 676.252,401.688 677.474,398.250 678.483 C 393.012 680.020,392.000 680.676,392.000 682.536 C 392.000 683.756,392.660 685.303,393.468 685.973 C 394.510 686.838,394.781 688.396,394.403 691.346 C 394.013 694.385,394.424 696.563,395.935 699.461 C 398.783 704.925,398.546 706.480,394.500 708.867 C 392.575 710.003,391.000 711.533,391.000 712.266 C 391.000 715.950,396.920 717.339,399.193 714.189 C 401.630 710.811,402.880 710.862,408.683 714.574 C 416.507 719.579,423.533 721.895,436.500 723.745 C 458.372 726.864,478.955 724.704,500.000 717.082 C 506.325 714.791,512.866 712.555,514.535 712.112 C 516.204 711.670,520.543 709.889,524.178 708.154 C 527.812 706.419,531.142 705.000,531.577 705.000 C 534.749 705.000,558.495 692.352,570.000 684.535 C 575.775 680.611,582.168 676.623,584.208 675.673 C 586.247 674.724,588.163 673.546,588.466 673.056 C 588.769 672.566,592.500 669.804,596.758 666.918 C 601.016 664.032,605.823 660.395,607.440 658.835 C 609.057 657.276,610.930 656.000,611.602 656.000 C 616.395 656.000,658.193 613.087,665.816 600.339 C 667.842 596.951,673.149 588.401,677.608 581.339 C 682.067 574.278,686.064 567.375,686.490 566.000 C 686.915 564.625,689.163 559.675,691.486 555.000 C 693.809 550.325,696.276 544.925,696.970 543.000 C 697.664 541.075,699.219 537.250,700.426 534.500 C 702.597 529.554,703.349 527.184,706.456 515.500 C 708.573 507.540,711.234 498.859,712.126 497.000 C 714.500 492.057,716.488 479.830,718.957 455.000 C 720.190 442.596,719.401 414.647,717.531 404.500 C 716.721 400.100,715.596 391.550,715.032 385.500 C 714.468 379.450,713.555 372.928,713.003 371.007 C 711.613 366.167,711.749 364.000,713.441 364.000 C 714.234 364.000,715.116 364.379,715.402 364.842 M616.000 368.726 C 616.000 370.316,616.666 372.491,617.481 373.559 C 619.705 376.473,621.262 373.627,619.630 369.629 C 617.969 365.558,616.000 365.068,616.000 368.726 M609.688 370.646 C 607.732 372.602,610.203 382.771,613.063 384.539 C 615.134 385.819,615.963 383.830,614.521 381.040 C 613.711 379.475,612.919 376.498,612.760 374.426 C 612.483 370.819,611.152 369.181,609.688 370.646 M623.750 378.801 C 619.609 379.154,618.844 381.066,621.446 384.559 C 622.849 386.442,622.990 386.403,626.161 383.265 C 629.904 379.563,629.240 378.334,623.750 378.801 M669.595 389.750 C 670.050 392.913,670.362 396.153,670.288 396.950 C 670.215 397.748,670.796 399.638,671.578 401.150 C 672.473 402.883,673.000 406.985,673.000 412.231 L 673.000 420.562 669.900 421.732 C 666.183 423.135,666.509 425.631,670.355 425.212 C 672.920 424.933,673.000 425.085,673.000 430.252 C 673.000 433.182,672.381 438.037,671.625 441.040 C 670.868 444.043,669.960 447.738,669.606 449.250 C 669.117 451.338,668.365 452.000,666.481 452.000 C 663.341 452.000,663.346 453.037,666.500 456.000 C 669.380 458.706,669.599 461.453,667.489 468.409 C 666.670 471.109,666.000 474.455,666.000 475.844 C 666.000 477.234,665.024 479.410,663.831 480.680 C 661.932 482.701,661.795 483.425,662.730 486.473 C 663.406 488.675,663.477 491.343,662.924 493.728 C 662.442 495.803,662.037 498.986,662.024 500.803 C 662.011 502.645,660.894 505.734,659.500 507.785 C 658.125 509.809,656.997 512.147,656.994 512.982 C 656.981 516.655,654.711 522.082,651.497 526.125 C 649.584 528.531,648.015 530.895,648.010 531.379 C 648.004 531.862,646.425 534.001,644.500 536.132 C 642.575 538.262,641.000 540.911,641.000 542.018 C 641.000 544.965,635.300 554.574,632.440 556.447 C 630.582 557.665,630.121 558.636,630.565 560.403 C 631.278 563.243,627.512 570.763,622.503 576.500 C 619.487 579.955,618.839 580.296,617.744 579.000 C 616.169 577.135,611.087 573.583,608.750 572.714 C 607.788 572.356,607.000 571.574,607.000 570.977 C 607.000 568.973,614.717 556.533,617.875 553.445 C 619.594 551.764,621.000 550.032,621.000 549.596 C 621.000 548.129,624.407 541.534,627.248 537.500 C 628.798 535.300,630.771 532.498,631.633 531.273 C 632.495 530.047,633.566 527.572,634.012 525.773 C 635.179 521.071,636.841 516.530,640.518 508.000 C 644.717 498.257,645.711 495.349,646.498 490.500 C 647.437 484.718,649.402 482.183,653.231 481.815 C 656.912 481.460,657.326 479.987,654.156 478.521 C 651.167 477.139,650.918 475.921,651.656 466.311 C 652.198 459.261,652.742 457.272,654.794 454.833 C 656.983 452.232,657.125 451.603,656.003 449.506 C 654.947 447.533,655.001 446.454,656.320 443.158 C 657.194 440.974,658.440 436.108,659.089 432.344 C 659.738 428.580,660.884 424.612,661.635 423.527 C 662.536 422.226,663.000 418.560,663.000 412.745 C 663.000 406.731,663.523 402.756,664.649 400.218 C 665.731 397.779,666.215 394.350,666.058 390.250 C 665.868 385.298,666.124 384.000,667.294 384.000 C 668.328 384.000,669.017 385.720,669.595 389.750 M621.000 393.073 C 621.000 394.504,621.539 395.043,622.739 394.812 C 625.345 394.310,625.636 391.000,623.073 391.000 C 621.642 391.000,621.000 391.642,621.000 393.073 M614.491 395.167 C 614.210 395.900,613.844 402.509,613.676 409.852 C 613.435 420.391,613.657 423.315,614.728 423.726 C 615.475 424.013,616.255 424.078,616.461 423.872 C 617.561 422.772,618.788 406.612,618.192 401.080 C 617.540 395.035,615.679 392.061,614.491 395.167 M659.080 408.181 C 658.872 416.053,657.621 420.026,655.897 418.292 C 654.396 416.783,654.416 401.409,655.921 399.595 C 658.312 396.714,659.311 399.430,659.080 408.181 M714.805 415.295 C 714.538 418.977,714.203 419.500,712.109 419.500 C 707.960 419.500,707.283 416.776,710.049 411.209 C 712.485 406.309,712.508 406.293,713.805 408.684 C 714.523 410.007,714.973 412.982,714.805 415.295 M622.940 407.250 C 622.907 407.387,622.668 409.637,622.411 412.250 C 622.038 416.022,622.252 417.000,623.448 417.000 C 624.276 417.000,625.691 415.875,626.592 414.500 C 628.109 412.184,628.109 411.816,626.592 409.500 C 625.247 407.448,623.197 406.184,622.940 407.250 M693.701 409.632 C 692.127 411.207,693.061 413.130,695.250 412.820 C 696.487 412.644,697.500 411.831,697.500 411.014 C 697.500 409.425,694.866 408.467,693.701 409.632 M644.198 424.903 C 642.463 427.062,638.559 430.250,635.522 431.987 C 632.485 433.725,630.000 435.533,630.000 436.006 C 630.000 437.218,625.989 438.408,622.878 438.119 C 620.718 437.919,620.162 438.370,619.720 440.682 C 618.611 446.485,621.085 446.427,630.096 440.436 C 633.872 437.926,637.221 435.451,637.539 434.936 C 637.858 434.421,639.198 434.000,640.519 434.000 C 642.744 434.000,649.069 428.353,651.342 424.337 C 652.315 422.617,652.209 422.466,649.427 421.613 C 647.823 421.121,646.639 421.866,644.198 424.903 M611.892 436.750 C 611.310 438.262,610.032 443.250,609.051 447.833 C 607.524 454.974,607.474 456.245,608.702 456.716 C 609.490 457.018,610.472 456.868,610.886 456.383 C 612.219 454.816,616.264 437.131,615.654 435.540 C 614.744 433.168,613.063 433.709,611.892 436.750 M684.480 438.032 C 684.092 438.660,684.245 439.645,684.820 440.220 C 686.164 441.564,689.297 440.392,688.750 438.749 C 688.194 437.078,685.364 436.602,684.480 438.032 M704.058 450.431 C 702.988 451.719,703.048 452.425,704.405 454.495 C 706.623 457.880,708.579 457.647,709.907 453.838 C 711.183 450.177,711.265 450.356,707.924 449.517 C 706.186 449.081,704.932 449.377,704.058 450.431 M606.873 460.764 C 605.873 460.970,605.015 462.517,604.649 464.776 C 603.609 471.185,607.366 471.898,608.562 465.519 C 609.345 461.345,608.984 460.328,606.873 460.764 M685.004 469.750 C 685.013 471.535,689.100 477.000,690.426 477.000 C 692.991 477.000,693.153 475.126,690.858 472.021 C 688.860 469.319,684.994 467.819,685.004 469.750 M647.000 475.066 C 647.000 477.975,645.198 481.000,643.465 481.000 C 641.671 481.000,641.600 479.260,643.250 475.707 C 644.730 472.520,647.000 472.132,647.000 475.066 M694.000 480.217 C 694.000 481.528,694.435 483.035,694.967 483.567 C 695.499 484.099,696.298 486.285,696.743 488.424 C 697.493 492.034,700.184 495.150,701.454 493.879 C 701.756 493.577,701.719 490.601,701.370 487.265 C 700.721 481.053,700.783 481.138,694.750 478.199 C 694.337 477.998,694.000 478.906,694.000 480.217 M600.149 481.320 C 598.840 482.897,596.572 493.906,597.388 494.721 C 598.911 496.244,600.693 493.547,601.842 487.984 C 603.162 481.593,602.403 478.605,600.149 481.320 M622.943 482.750 C 622.184 484.262,621.400 485.837,621.199 486.250 C 620.577 487.526,624.696 487.075,625.755 485.750 C 626.305 485.063,627.066 483.488,627.445 482.250 C 628.489 478.846,624.688 479.268,622.943 482.750 M605.556 489.910 C 604.475 491.659,606.278 494.101,610.083 496.043 C 614.680 498.388,616.863 498.520,617.638 496.500 C 617.997 495.566,619.522 495.000,621.680 495.000 C 624.451 495.000,625.075 494.649,624.788 493.250 C 624.484 491.763,623.439 491.539,617.847 491.762 C 612.950 491.956,610.943 491.636,610.010 490.512 C 608.607 488.822,606.411 488.525,605.556 489.910 M602.327 496.234 C 600.496 499.093,599.249 504.036,600.210 504.630 C 601.648 505.518,603.703 502.962,604.458 499.345 C 605.145 496.058,603.747 494.017,602.327 496.234 M594.661 499.823 C 592.644 502.051,592.470 506.000,594.389 506.000 C 595.192 506.000,596.063 504.480,596.453 502.398 C 597.273 498.026,596.844 497.409,594.661 499.823 M697.616 500.138 C 695.208 503.576,695.502 506.210,698.250 505.820 C 699.889 505.587,700.589 504.720,700.828 502.628 C 701.290 498.588,699.612 497.288,697.616 500.138 M400.000 504.423 C 414.165 507.270,419.548 508.740,422.500 510.566 C 423.600 511.247,425.957 512.107,427.739 512.479 C 429.520 512.850,431.227 513.558,431.533 514.053 C 431.838 514.547,434.513 516.561,437.476 518.528 C 441.838 521.423,452.500 530.880,462.000 540.278 C 470.095 548.288,474.000 556.924,474.000 566.820 C 474.000 570.680,473.290 576.609,472.423 579.994 C 470.762 586.478,465.166 598.090,462.064 601.490 C 461.055 602.595,459.922 604.514,459.546 605.754 C 459.170 606.993,456.645 610.284,453.935 613.067 C 451.224 615.850,448.720 619.267,448.370 620.661 C 446.994 626.144,435.182 631.393,418.349 634.002 C 415.515 634.441,410.790 635.481,407.849 636.312 C 404.907 637.143,400.475 638.135,398.000 638.516 C 393.504 639.208,392.083 639.562,373.718 644.552 C 362.344 647.643,358.601 647.345,353.593 642.947 C 351.742 641.323,348.679 639.346,346.785 638.554 C 344.891 637.763,342.720 636.367,341.961 635.453 C 341.202 634.538,337.862 631.974,334.540 629.755 C 327.534 625.075,318.615 616.042,316.021 611.000 C 315.030 609.075,312.596 602.293,310.610 595.928 C 306.402 582.440,306.039 575.696,309.000 566.000 C 310.092 562.425,310.991 558.600,310.999 557.500 C 311.006 556.400,311.685 554.211,312.506 552.636 C 313.328 551.060,314.000 548.949,314.000 547.945 C 314.000 546.940,314.450 545.840,315.000 545.500 C 315.550 545.160,316.007 544.121,316.015 543.191 C 316.035 540.891,330.652 524.488,335.000 521.885 C 336.925 520.733,339.400 518.981,340.500 517.993 C 344.834 514.098,358.504 507.787,371.500 503.683 C 377.375 501.827,388.525 502.117,400.000 504.423 M645.667 505.667 C 643.989 507.344,645.402 508.622,650.193 509.760 C 654.330 510.743,655.547 510.740,656.179 509.747 C 657.521 507.637,647.562 503.771,645.667 505.667 M598.430 509.637 C 598.104 510.662,597.424 512.534,596.919 513.797 C 596.413 515.060,596.000 516.239,596.000 516.416 C 596.000 517.092,603.183 517.867,604.558 517.339 C 605.351 517.035,606.000 516.082,606.000 515.222 C 606.000 514.361,606.754 512.824,607.676 511.805 C 608.926 510.424,609.064 509.664,608.219 508.819 C 606.906 507.506,604.000 509.364,604.000 511.515 C 604.000 512.214,603.271 513.066,602.379 513.408 C 601.140 513.883,600.881 513.564,601.276 512.052 C 601.984 509.346,599.259 507.035,598.430 509.637 M588.035 511.934 C 586.542 514.724,586.762 517.000,588.525 517.000 C 589.896 517.000,592.000 513.328,592.000 510.935 C 592.000 509.232,589.089 509.966,588.035 511.934 M691.894 512.282 C 690.461 513.502,688.592 514.950,687.741 515.500 C 686.498 516.303,686.338 517.550,686.929 521.837 C 687.594 526.664,689.001 528.942,691.344 528.985 C 691.808 528.993,691.892 526.849,691.530 524.219 C 690.908 519.695,691.067 519.238,694.491 515.712 C 699.578 510.475,697.398 507.596,691.894 512.282 M585.434 523.500 C 586.006 526.550,585.834 527.000,584.096 527.000 C 582.328 527.000,577.000 532.554,577.000 534.398 C 577.000 534.788,574.525 538.209,571.500 542.000 C 568.475 545.791,566.000 549.576,566.000 550.411 C 566.000 551.246,565.107 552.407,564.016 552.991 C 562.808 553.638,562.124 554.913,562.266 556.255 C 562.440 557.893,561.939 558.491,560.313 558.589 C 558.130 558.721,551.310 564.644,552.254 565.588 C 552.528 565.861,554.336 566.343,556.273 566.657 C 559.235 567.138,559.898 566.898,560.455 565.140 C 560.820 563.992,562.312 562.478,563.772 561.776 C 567.034 560.207,570.659 554.981,572.039 549.856 C 572.713 547.353,574.020 545.492,575.787 544.519 C 580.945 541.679,585.301 537.227,584.631 535.482 C 584.218 534.406,585.130 532.622,587.249 530.361 C 589.977 527.451,590.992 526.983,593.555 527.455 C 596.116 527.926,596.966 527.537,598.805 525.049 C 601.392 521.551,601.491 521.000,599.535 521.000 C 598.730 521.000,597.582 521.913,596.985 523.028 C 595.724 525.385,594.000 524.757,594.000 521.941 C 594.000 520.300,593.287 520.000,589.389 520.000 L 584.777 520.000 585.434 523.500 M63.250 529.416 C 64.763 531.805,66.000 534.238,66.000 534.823 C 66.000 537.815,77.621 555.177,84.500 562.462 C 86.150 564.209,89.975 568.489,93.000 571.973 C 101.101 581.302,114.097 594.353,117.255 596.329 C 118.770 597.277,123.222 600.853,127.149 604.276 C 136.267 612.226,143.579 617.617,147.950 619.616 C 149.847 620.484,155.611 623.175,160.760 625.597 C 165.908 628.019,170.756 630.000,171.533 630.000 C 172.311 630.000,174.871 630.845,177.223 631.877 C 179.575 632.910,186.900 635.448,193.500 637.517 C 200.100 639.586,207.300 641.934,209.500 642.736 C 213.655 644.248,217.522 645.053,232.213 647.459 C 237.006 648.244,242.631 649.376,244.713 649.976 C 257.887 653.768,336.579 654.887,351.992 651.502 C 353.493 651.172,359.397 650.980,365.111 651.074 C 370.825 651.169,381.219 651.264,388.209 651.285 C 395.199 651.305,400.689 651.694,400.408 652.148 C 400.128 652.603,397.783 654.403,395.199 656.148 C 392.615 657.894,387.918 661.990,384.762 665.251 C 377.418 672.838,375.852 677.512,375.252 693.641 L 374.800 705.782 378.839 714.141 C 381.278 719.190,384.584 724.161,387.188 726.693 C 392.183 731.551,403.460 737.344,417.000 742.008 C 422.225 743.808,427.159 745.892,427.964 746.640 C 429.218 747.805,428.859 748.010,425.464 748.070 C 423.284 748.108,416.325 748.511,410.000 748.964 C 383.523 750.862,319.194 744.774,296.000 738.175 C 294.075 737.627,288.900 736.217,284.500 735.041 C 272.705 731.888,260.102 727.438,245.810 721.380 C 238.831 718.421,232.704 716.000,232.195 716.000 C 231.686 716.000,230.197 715.178,228.885 714.173 C 227.573 713.169,224.475 711.552,222.000 710.581 C 200.580 702.179,180.405 688.387,160.454 668.509 C 154.929 663.004,145.929 654.184,140.454 648.908 C 126.555 635.515,117.845 626.276,115.500 622.438 C 114.400 620.637,109.112 613.966,103.750 607.614 C 98.388 601.261,94.000 595.813,94.000 595.507 C 94.000 595.201,90.262 589.224,85.694 582.225 C 75.835 567.120,62.000 539.689,62.000 535.246 C 62.000 534.221,61.339 532.509,60.532 531.441 C 58.997 529.411,58.455 524.973,59.750 525.037 C 60.163 525.057,61.737 527.027,63.250 529.416 M683.241 539.986 C 681.420 542.901,681.723 545.000,683.965 545.000 C 685.997 545.000,688.000 542.303,688.000 539.566 C 688.000 537.336,684.715 537.626,683.241 539.986 M675.380 548.452 C 674.673 550.295,675.703 552.000,677.524 552.000 C 679.110 552.000,681.268 548.601,680.298 547.631 C 679.125 546.458,675.941 546.990,675.380 548.452 M674.250 555.718 C 673.563 555.965,672.991 556.917,672.981 557.833 C 672.956 560.055,667.325 568.938,665.498 569.639 C 664.702 569.945,663.304 569.447,662.390 568.533 C 660.010 566.153,658.030 568.271,660.295 570.774 C 661.659 572.281,661.791 573.536,661.061 578.048 C 660.562 581.130,660.556 583.894,661.047 584.408 C 662.511 585.938,664.801 583.140,665.507 578.957 C 665.912 576.562,667.494 573.560,669.562 571.264 C 671.427 569.194,672.964 567.085,672.977 566.579 C 672.990 566.072,673.625 564.947,674.389 564.079 C 676.090 562.145,677.419 556.362,676.309 555.730 C 675.864 555.477,674.938 555.472,674.250 555.718 M655.500 562.000 C 654.684 563.320,655.777 565.000,657.452 565.000 C 658.915 565.000,660.219 562.552,659.264 561.598 C 658.332 560.665,656.183 560.895,655.500 562.000 M543.750 569.383 C 539.096 573.093,540.920 575.846,545.777 572.443 C 547.977 570.903,548.700 568.551,547.250 567.654 C 546.837 567.399,545.262 568.177,543.750 569.383 M530.500 575.517 C 528.850 576.283,526.502 576.930,525.281 576.955 C 521.977 577.022,523.567 580.000,526.907 580.000 C 528.388 580.000,530.109 580.509,530.732 581.132 C 531.575 581.975,532.638 581.656,534.893 579.882 C 540.247 575.672,537.037 572.483,530.500 575.517 M544.679 579.151 C 542.042 582.335,541.977 584.000,544.491 584.000 C 545.954 584.000,550.000 578.929,550.000 577.096 C 550.000 574.976,547.262 576.034,544.679 579.151 M497.624 578.538 C 496.756 580.801,498.485 581.101,510.552 580.786 C 520.027 580.538,521.521 580.268,521.811 578.750 C 522.116 577.162,521.038 577.000,510.180 577.000 C 500.335 577.000,498.109 577.273,497.624 578.538 M521.445 587.628 C 519.275 589.623,516.042 592.373,514.260 593.739 C 512.478 595.105,511.267 596.622,511.569 597.111 C 512.719 598.973,515.454 597.849,519.907 593.683 C 522.446 591.309,525.374 588.890,526.416 588.307 C 527.604 587.642,528.077 586.643,527.686 585.624 C 526.784 583.274,525.856 583.573,521.445 587.628 M642.810 585.524 C 642.062 586.271,643.070 590.925,644.119 591.574 C 644.604 591.873,645.000 593.355,645.000 594.868 C 645.000 596.380,645.605 598.446,646.346 599.458 C 647.616 601.195,648.007 601.059,653.346 597.029 C 656.699 594.497,659.000 591.995,659.000 590.880 C 659.000 588.457,657.456 588.496,654.273 591.000 C 650.564 593.917,649.208 593.485,648.000 589.000 C 647.251 586.219,646.376 585.000,645.128 585.000 C 644.141 585.000,643.098 585.236,642.810 585.524 M622.464 592.058 C 622.105 592.639,622.886 594.777,624.200 596.808 C 630.495 606.536,631.413 616.956,626.328 620.957 C 622.241 624.172,619.409 623.608,616.500 619.000 C 614.025 615.080,611.756 613.967,610.473 616.044 C 610.118 616.618,610.541 618.177,611.414 619.509 C 614.034 623.508,613.438 627.713,609.777 631.056 C 605.490 634.972,602.860 634.816,599.530 630.451 C 597.397 627.654,596.533 627.142,595.454 628.038 C 594.316 628.983,594.500 629.831,596.542 633.067 C 599.341 637.500,599.633 640.875,597.566 644.872 C 595.421 649.020,593.533 650.177,588.073 650.690 C 583.234 651.144,583.068 651.068,580.697 647.313 C 577.394 642.080,575.209 640.291,574.471 642.215 C 574.167 643.007,574.387 644.887,574.959 646.393 C 577.874 654.059,575.547 660.209,568.466 663.559 C 562.579 666.344,560.173 666.614,559.391 664.577 C 558.042 661.061,553.000 662.226,553.000 666.054 C 553.000 668.429,547.931 671.975,543.510 672.692 C 540.952 673.107,540.000 673.769,540.000 675.131 C 540.000 676.159,540.658 677.000,541.462 677.000 C 543.958 677.000,553.753 673.003,555.031 671.462 C 555.759 670.585,558.004 670.000,560.641 670.000 C 566.919 670.000,574.147 665.930,578.572 659.902 C 582.009 655.219,582.384 655.000,586.946 655.000 C 590.452 655.000,592.750 654.302,595.594 652.372 C 600.472 649.061,601.769 647.350,602.603 643.126 C 603.077 640.723,604.165 639.285,606.384 638.126 C 608.098 637.232,611.589 634.362,614.143 631.750 C 616.697 629.138,619.678 627.000,620.767 627.000 C 624.534 627.000,631.709 622.136,632.971 618.727 C 635.001 613.243,635.345 612.911,640.951 611.015 C 646.709 609.067,649.734 606.334,648.024 604.624 C 647.378 603.978,645.363 604.425,642.167 605.922 C 636.413 608.617,633.992 608.387,632.399 604.993 C 631.755 603.622,630.057 599.913,628.625 596.750 C 626.174 591.337,623.955 589.647,622.464 592.058 M607.500 609.000 C 606.577 610.494,607.861 612.000,610.059 612.000 C 612.387 612.000,612.655 609.465,610.418 608.607 C 608.344 607.811,608.225 607.827,607.500 609.000 M678.967 610.250 C 678.949 610.938,677.609 613.300,675.991 615.500 C 674.373 617.700,671.907 621.188,670.512 623.250 C 669.117 625.313,667.531 627.000,666.987 627.000 C 665.177 627.000,665.970 624.377,668.500 622.000 C 669.875 620.708,671.000 619.211,671.000 618.674 C 671.000 617.407,677.267 609.071,678.250 609.031 C 678.663 609.014,678.985 609.563,678.967 610.250 M466.763 625.250 C 466.077 627.379,439.378 640.000,435.562 640.000 C 435.253 640.000,435.000 639.331,435.000 638.513 C 435.000 637.694,436.762 635.913,438.916 634.553 C 441.070 633.193,443.125 631.606,443.484 631.025 C 444.413 629.522,450.766 627.014,453.872 626.924 C 455.317 626.882,458.075 626.241,460.000 625.500 C 464.515 623.761,467.277 623.659,466.763 625.250 M563.000 627.500 C 563.000 629.056,563.567 630.000,564.500 630.000 C 565.433 630.000,566.000 629.056,566.000 627.500 C 566.000 625.944,565.433 625.000,564.500 625.000 C 563.567 625.000,563.000 625.944,563.000 627.500 M427.816 638.717 C 427.612 639.774,425.569 641.051,422.493 642.043 C 419.747 642.928,416.825 643.953,416.000 644.322 C 411.972 646.124,403.332 647.342,392.000 647.706 C 380.648 648.071,379.684 647.968,381.500 646.586 C 382.600 645.749,385.161 645.049,387.191 645.032 C 389.221 645.014,391.124 644.608,391.420 644.129 C 391.716 643.650,394.105 642.996,396.729 642.676 C 399.353 642.355,406.225 640.986,412.000 639.632 C 425.093 636.564,428.266 636.380,427.816 638.717 M345.685 642.493 C 347.330 643.313,349.437 644.825,350.365 645.851 C 351.993 647.650,351.827 647.738,345.777 648.299 C 338.480 648.975,336.496 647.855,337.550 643.656 C 338.328 640.558,341.031 640.171,345.685 642.493 M454.689 642.604 C 451.049 644.577,451.553 647.153,455.817 648.376 C 458.639 649.186,459.440 649.000,461.310 647.101 L 463.500 644.878 461.139 642.939 C 458.349 640.647,458.303 640.645,454.689 642.604 M420.006 656.794 C 417.143 659.112,417.824 661.542,421.534 662.251 C 424.660 662.849,428.316 659.896,427.803 657.189 C 427.346 654.777,422.782 654.546,420.006 656.794 M414.200 685.200 C 412.717 686.683,412.628 690.652,414.057 691.535 C 415.930 692.693,419.846 691.059,420.556 688.824 C 421.668 685.319,416.836 682.564,414.200 685.200 M420.223 704.557 C 417.308 706.598,417.414 708.386,420.570 710.454 C 422.931 712.001,423.338 712.008,425.570 710.546 C 428.470 708.646,428.649 706.897,426.171 704.655 C 423.905 702.604,423.030 702.590,420.223 704.557 M414.441 727.441 C 411.928 729.307,413.545 732.361,417.284 732.810 C 420.729 733.223,422.735 729.878,420.427 727.569 C 418.478 725.620,416.938 725.588,414.441 727.441 M432.637 729.276 C 429.355 731.676,433.302 735.972,437.359 734.416 C 439.456 733.611,439.498 729.405,437.418 728.607 C 435.188 727.751,434.612 727.832,432.637 729.276 M449.163 732.857 C 448.427 733.335,447.977 734.800,448.163 736.113 C 448.569 738.990,451.657 739.712,454.507 737.596 C 456.104 736.411,456.281 735.758,455.398 734.309 C 454.150 732.260,451.155 731.563,449.163 732.857 " stroke="none" fill="#000000" fill-rule="evenodd"/></svg>