<svg width="800" height="714" xmlns="http://www.w3.org/2000/svg" xmlns:xlink="http://www.w3.org/1999/xlink" xml:space="preserve" overflow="hidden"><g transform="translate(-1098 -555)"><path d="M1795 557.5C1795 558.875 1795.45 560 1796 560 1796.55 560 1797 558.875 1797 557.5 1797 556.125 1796.55 555 1796 555 1795.45 555 1795 556.125 1795 557.5M1800.99 566.824C1796.86 568.795 1796.07 569.279 1781.58 578.726 1766.83 588.347 1761.75 591.81 1756.17 596.059 1753.6 598.016 1750.76 599.895 1749.86 600.234 1748.96 600.573 1743.34 604.042 1737.36 607.943 1731.39 611.844 1725.82 615.471 1725 616.002 1724.18 616.534 1720.12 619.432 1716 622.443 1711.88 625.454 1704.45 630.642 1699.5 633.972 1694.55 637.303 1690.05 640.383 1689.5 640.817 1688.95 641.251 1684.93 644.057 1680.56 647.053 1666.48 656.709 1664.57 658.079 1664.03 658.897 1663.74 659.339 1662.38 660.282 1661 660.992 1659.62 661.703 1653.4 666.158 1647.17 670.892 1640.94 675.626 1634.87 680.148 1633.67 680.94 1619.25 690.499 1612.03 695.068 1609.75 696.091 1608.24 696.767 1607 697.68 1607 698.118 1607 698.557 1604.86 700.161 1602.25 701.682 1599.64 703.204 1594.37 707.068 1590.54 710.27 1586.72 713.471 1582.59 716.632 1581.39 717.295 1578.71 718.764 1551.56 739.77 1547.8 743.293 1546.31 744.684 1541.36 748.775 1536.8 752.384 1532.23 755.993 1526.03 761.231 1523 764.023 1519.97 766.815 1515.57 770.54 1513.21 772.3 1508.56 775.771 1499.1 783.403 1486.5 793.862 1482.1 797.513 1472.88 806.125 1466 813 1459.12 819.875 1448.32 830.399 1442 836.386 1435.68 842.373 1421.12 856.425 1409.66 867.613 1389.6 887.198 1388.65 887.977 1384.06 888.586 1379.61 889.177 1379.15 889.52 1377.08 893.765 1374.32 899.462 1365.62 908.599 1361 910.671 1358.17 911.94 1353.88 912.206 1338.5 912.065 1320.08 911.896 1313.33 912.571 1304.5 915.466 1302.3 916.187 1298.13 917.32 1295.24 917.983 1292.35 918.647 1287.74 920.272 1285 921.595 1282.25 922.918 1279.83 924 1279.61 924 1278.84 924 1265.94 932.06 1258.23 937.353 1253.98 940.272 1245.55 945.638 1239.5 949.278 1233.45 952.918 1225.65 958.403 1222.17 961.466 1213.86 968.771 1203.87 973.997 1198.22 973.999 1193.77 974.001 1188.41 977.17 1181.67 983.793 1177.92 987.482 1174.01 992.119 1172.98 994.097 1171.95 996.076 1169.96 998.449 1168.56 999.37 1166.78 1000.54 1166 1001.94 1166 1003.97 1166 1009.43 1168.13 1017.48 1171.09 1023.17L1174.03 1028.83 1168.76 1030.57C1160.77 1033.21 1156.27 1035.86 1155.63 1038.29 1154.88 1041.17 1156.26 1042.23 1163.5 1044.37 1166.8 1045.34 1171.07 1046.61 1173 1047.19 1180.01 1049.29 1192.62 1054.49 1197.29 1057.21 1199.93 1058.74 1202.68 1060 1203.4 1060 1204.12 1060 1208.26 1061.8 1212.6 1064 1216.95 1066.19 1221.05 1067.99 1221.72 1068 1223.92 1068 1237.37 1072.73 1244.07 1075.86 1247.69 1077.54 1253.63 1080.96 1257.28 1083.46 1260.93 1085.96 1264.88 1088 1266.06 1088 1267.24 1088 1269.92 1086.65 1272 1085 1274.08 1083.35 1276.18 1082 1276.67 1082 1277.15 1082 1279.11 1080.72 1281.02 1079.15 1287.48 1073.86 1288.72 1073.54 1293.89 1075.8 1296.42 1076.91 1301.88 1078.74 1306 1079.87 1313.54 1081.93 1319.55 1081.71 1325.5 1079.15 1326.6 1078.68 1329.53 1077.39 1332 1076.28 1335.98 1074.5 1337.97 1074.32 1349 1074.76 1363.53 1075.34 1364.81 1075.83 1376.17 1085.18 1380.38 1088.66 1387.36 1093.67 1391.67 1096.31 1395.97 1098.96 1405.67 1105.26 1413.21 1110.31 1420.75 1115.36 1429.9 1121.3 1433.53 1123.5 1437.16 1125.7 1441.12 1128.33 1442.32 1129.34 1443.52 1130.36 1447.65 1133.01 1451.5 1135.23 1455.35 1137.46 1462.32 1141.65 1467 1144.55 1477.99 1151.38 1483.63 1154.48 1499.67 1162.5 1506.92 1166.12 1514.34 1170.09 1516.17 1171.32 1522.83 1175.78 1538.69 1184.74 1546.5 1188.44 1550.9 1190.53 1555.18 1192.61 1556 1193.07 1560.4 1195.54 1569.32 1199.5 1575.5 1201.74 1589.37 1206.74 1591.52 1207.55 1592.5 1208.15 1593.05 1208.48 1596.17 1209.52 1599.44 1210.46 1602.71 1211.4 1608.43 1213.7 1612.17 1215.58 1615.9 1217.46 1619.39 1219 1619.93 1219 1620.47 1219 1623.2 1220.35 1626 1222 1628.8 1223.65 1631.88 1225 1632.85 1225 1633.82 1225 1637.11 1226.5 1640.17 1228.34 1651.18 1234.98 1670.01 1244.86 1682 1250.3 1687.64 1252.87 1697.18 1256.15 1701.5 1257.02 1703.7 1257.46 1707.3 1258.52 1709.5 1259.37 1713.87 1261.05 1721 1261.52 1721 1260.12 1721 1258.61 1718.64 1257.3 1714.85 1256.72 1710.38 1256.03 1696.55 1249.39 1684.5 1242.14 1679.55 1239.16 1671.9 1235 1667.5 1232.9 1657.39 1228.05 1647.12 1222.42 1639.8 1217.68 1636.66 1215.66 1633.56 1214 1632.9 1214 1632.24 1214 1629.29 1212.4 1626.34 1210.44 1623.39 1208.48 1618.84 1205.94 1616.24 1204.78 1610.67 1202.32 1604.51 1198.44 1601 1195.17 1599.62 1193.9 1595.57 1191.48 1592 1189.8 1588.43 1188.13 1581.8 1185.01 1577.27 1182.88 1572.74 1180.74 1568.47 1178.99 1567.77 1178.97 1565.36 1178.92 1553.67 1173.18 1542.5 1166.55 1540.3 1165.25 1534.9 1162.34 1530.5 1160.08 1518.64 1154.01 1515.99 1152.38 1512.59 1149.1 1510.89 1147.46 1504.03 1143.28 1497.34 1139.81 1490.66 1136.34 1480.69 1130.91 1475.19 1127.75 1469.7 1124.59 1464.85 1122 1464.41 1122 1463.98 1122 1462.7 1121.14 1461.56 1120.08 1459.07 1117.76 1443.71 1110 1441.6 1110 1440.78 1110 1438.08 1108.64 1435.61 1106.97 1433.14 1105.3 1429.77 1103.47 1428.13 1102.9 1426.09 1102.18 1424.53 1100.53 1423.16 1097.61 1420.64 1092.26 1408 1080.43 1399.45 1075.43 1395.9 1073.36 1393 1071.38 1393 1071.03 1393 1070.22 1403.71 1068 1407.63 1068 1409.28 1068 1413.98 1067.11 1418.07 1066.02 1422.16 1064.94 1426.73 1064.04 1428.23 1064.02 1433.92 1063.97 1457.28 1056.43 1465.89 1051.86 1472.23 1048.5 1473.66 1048.39 1477 1051 1479.99 1053.34 1489.46 1053.74 1492.53 1051.66 1495.35 1049.75 1506.1 1046.42 1516 1044.39 1520.68 1043.43 1528.78 1041.11 1534 1039.23 1539.22 1037.35 1544.4 1035.58 1545.5 1035.3 1546.6 1035.01 1550.42 1033.65 1553.98 1032.27 1557.54 1030.89 1567.89 1028.25 1576.98 1026.42 1586.06 1024.59 1597.78 1022.15 1603 1021 1608.22 1019.85 1614.53 1018.51 1617 1018.02 1622.52 1016.93 1635.57 1011.69 1638.99 1009.19 1642.97 1006.27 1653.99 1000.4 1660 997.987 1663.03 996.774 1666.85 995.184 1668.5 994.453 1681.48 988.705 1686.55 987.112 1702 983.93 1714.35 981.386 1720.43 981.681 1736.06 985.589 1747.82 988.529 1774.08 990.168 1788.95 988.89 1809 987.167 1822.33 977.718 1834.74 956.449 1840.78 946.094 1843 936.242 1843 919.756 1843 908.25 1842.67 905.389 1840.65 899.621 1839.36 895.923 1837.78 892.381 1837.15 891.749 1836.52 891.117 1836 890.224 1836 889.763 1836 888.252 1826.03 876.449 1821.72 872.857 1815.09 867.334 1806.16 861.516 1798 857.404 1791.46 854.11 1789.28 853.542 1781 852.969 1771.16 852.288 1762.3 853.476 1754.76 856.485 1748.97 858.793 1733.84 868.47 1730.5 872.003 1724.92 877.892 1704.29 889.112 1693.93 891.887 1689.76 893.002 1685.26 894.324 1683.93 894.823 1680.18 896.223 1646.53 897.124 1637 896.079 1632.32 895.567 1623.35 894.43 1617.05 893.554 1607.66 892.245 1603.28 892.145 1592.55 892.993 1563.19 895.315 1554.33 896.294 1551 897.585 1546.59 899.294 1529.44 903.005 1526.05 902.984 1524.65 902.975 1519.45 903.856 1514.5 904.942 1509.55 906.028 1502.8 907.498 1499.5 908.208 1491.32 909.969 1455.59 909.902 1441.73 908.099L1430.95 906.699 1423.81 899.955C1416.13 892.705 1415.18 890.199 1418.08 884.865 1418.86 883.433 1420.55 880.348 1421.83 878.008 1423.72 874.563 1447.77 849.748 1467.6 830.775 1469.75 828.726 1473.17 825.291 1475.22 823.143 1477.26 820.994 1481.31 817.599 1484.22 815.598 1487.12 813.596 1495.35 806.807 1502.5 800.511 1509.65 794.215 1516.05 789.049 1516.72 789.032 1517.39 789.014 1518.97 787.606 1520.22 785.903 1521.47 784.2 1526.32 780.244 1531 777.112 1535.68 773.979 1540.66 770.31 1542.08 768.958 1547.1 764.163 1560.08 753.626 1563.51 751.554 1565.43 750.398 1567.72 748.419 1568.6 747.156 1570.17 744.913 1585.04 733.548 1592 729.263 1593.93 728.078 1597.42 725.059 1599.76 722.554 1602.1 720.049 1607.95 715.439 1612.76 712.31 1617.57 709.181 1623.32 705.019 1625.54 703.06 1639.27 690.96 1653.57 680.009 1658 678.206 1658.82 677.87 1662.2 675.648 1665.5 673.268 1671.86 668.681 1682.86 660.897 1689.5 656.281 1691.7 654.751 1694.69 652.888 1696.14 652.14 1697.59 651.392 1701.19 648.806 1704.14 646.394 1707.09 643.982 1711.29 640.769 1713.47 639.254 1715.65 637.739 1722.35 632.573 1728.36 627.773 1734.37 622.973 1742.26 617.021 1745.89 614.546 1749.53 612.07 1757.68 606.436 1764 602.025 1770.32 597.614 1777.75 592.826 1780.5 591.385 1783.25 589.943 1787.3 587.306 1789.5 585.525 1791.7 583.744 1796.2 580.586 1799.5 578.508 1809.93 571.942 1811.58 569.727 1808.43 566.571 1806.51 564.648 1805.47 564.683 1800.99 566.824M1804.49 570.012C1804.15 570.568 1801.42 572.587 1798.43 574.499 1795.45 576.411 1793 578.431 1793 578.988 1793 579.544 1792.27 580 1791.38 580 1788.84 580 1791.47 577.325 1798.41 572.827 1804.65 568.777 1805.5 568.387 1804.49 570.012M1789 579.88C1789 581.164 1778.35 589 1776.6 589 1775.79 589 1774.84 589.45 1774.5 590 1773.74 591.234 1772 591.318 1772 590.121 1772 589.638 1773.38 588.671 1775.07 587.972 1776.76 587.272 1780.24 584.984 1782.82 582.886 1787.59 578.999 1789 578.313 1789 579.88M1752.55 605.913C1751.78 607.167 1749 607.392 1749 606.2 1749 605.76 1749.54 604.86 1750.2 604.2 1751.6 602.802 1753.58 604.247 1752.55 605.913M1739 613.031C1739 614.229 1736.18 615.513 1735.36 614.69 1734.48 613.814 1735.97 612 1737.56 612 1738.35 612 1739 612.464 1739 613.031M1735.5 617C1735.85 617.569 1734.99 618 1733.5 618 1732.01 618 1731.15 617.569 1731.5 617 1731.84 616.45 1732.74 616 1733.5 616 1734.26 616 1735.16 616.45 1735.5 617M1729.06 620.25C1728.58 621.487 1727.69 622.383 1727.07 622.241 1726.45 622.098 1725.67 622.773 1725.32 623.741 1724.56 625.895 1720.96 630 1719.83 630 1719.37 630 1719.01 628.763 1719.02 627.25 1719.03 625.17 1719.26 624.857 1719.96 625.966 1720.7 627.143 1721.09 626.896 1721.92 624.717 1722.49 623.223 1724.42 621.102 1726.22 620.004 1730.26 617.545 1730.12 617.533 1729.06 620.25M1709.09 634.75C1708.46 637.117 1707.82 637.515 1704.51 637.609 1701.03 637.708 1700.84 637.588 1702.52 636.359 1703.55 635.612 1704.92 635 1705.57 635 1706.22 635 1707.31 634.325 1708 633.5 1709.75 631.395 1709.93 631.607 1709.09 634.75M1700.43 640.107C1701.56 638.289 1703 638.851 1703 641.107 1703 642.486 1702.52 643.031 1701.62 642.685 1700.86 642.394 1699.74 642.661 1699.12 643.278 1697.28 645.118 1695.31 642.531 1697 640.495 1697.95 639.36 1698.53 639.235 1699.04 640.059 1699.55 640.894 1699.94 640.907 1700.43 640.107M1694 646.062C1694 648.313 1693.18 648.454 1690.77 646.619 1688.76 645.099 1689.07 644.496 1691.95 644.279 1693.36 644.172 1694 644.725 1694 646.062M1683.42 655.648 1680.62 657.876 1679.5 655.688C1678.34 653.42 1679.8 651.061 1681.08 653.137 1681.46 653.745 1681.99 653.472 1682.37 652.471 1682.92 651.04 1683.27 650.982 1684.62 652.097 1686.05 653.283 1685.92 653.651 1683.42 655.648M1676.52 657.928C1676.13 659.679 1675.2 661 1674.35 661 1672.76 661 1673.28 657.705 1675.27 655.226 1676.77 653.345 1677.28 654.447 1676.52 657.928M1672.32 663.292C1671.61 663.728 1670.12 663.6 1669.01 663.007 1667.91 662.414 1667 662.287 1667 662.724 1667 664.004 1663.15 666.044 1662.55 665.079 1662.25 664.596 1663.87 663.098 1666.15 661.75 1669.96 659.501 1670.44 659.431 1671.96 660.9 1673.27 662.165 1673.34 662.666 1672.32 663.292M1669.36 666.5C1669.04 667.325 1668.17 668 1667.42 668 1666.62 668 1666.3 667.381 1666.64 666.5 1666.96 665.675 1667.83 665 1668.58 665 1669.38 665 1669.7 665.619 1669.36 666.5M1660.56 667.337C1661.44 667.002 1662 667.404 1662 668.363 1662 669.523 1661.07 669.904 1658.49 669.807 1655.1 669.68 1655.04 669.611 1656.72 667.761 1657.67 666.708 1658.6 666.306 1658.79 666.867 1658.98 667.428 1659.78 667.64 1660.56 667.337M1655 672.918C1655 674.871 1653.75 676.963 1652.9 676.435 1651.41 675.518 1651.89 672 1653.5 672 1654.32 672 1655 672.413 1655 672.918M1659.77 674.188C1659.15 676.042 1657 676.349 1657 674.583 1657 673.713 1657.71 673 1658.58 673 1659.45 673 1659.99 673.534 1659.77 674.188M1648.36 676.5C1648.78 677.595 1648.24 678 1646.35 678 1644.16 678 1643.95 677.768 1645 676.5 1645.69 675.675 1646.59 675 1647.02 675 1647.44 675 1648.04 675.675 1648.36 676.5M1642 685.599C1642 686.642 1636.09 691.761 1635.53 691.202 1634.57 690.235 1634.97 689 1636.26 689 1636.95 689 1638.08 688.1 1638.77 687 1639.93 685.139 1642 684.241 1642 685.599M1633.77 688.188C1633.15 690.042 1631 690.349 1631 688.583 1631 687.713 1631.71 687 1632.58 687 1633.45 687 1633.99 687.534 1633.77 688.188M1625.75 692.25C1625.52 692.938 1624.49 693.664 1623.45 693.865 1621.82 694.181 1621.74 694.013 1622.9 692.615 1624.49 690.704 1626.34 690.466 1625.75 692.25M1629 692.918C1629 695.962 1627.91 698 1626.29 698 1625.25 698 1625.01 697.459 1625.51 696.25 1625.9 695.287 1626.45 693.713 1626.73 692.75 1627.41 690.4 1629 690.519 1629 692.918M1621.61 696.591C1622.09 698.488 1621.7 699.745 1620.16 701.285 1617.6 703.845 1616.2 702.861 1617.9 699.693 1618.57 698.426 1619.05 696.964 1618.95 696.445 1618.28 693.036 1620.75 693.172 1621.61 696.591M1612 703C1612 703.55 1611.55 704 1611 704 1610.45 704 1610 704.675 1610 705.5 1610 707.223 1608.43 707.503 1607.47 705.952 1606.4 704.219 1607.8 702 1609.97 702 1611.09 702 1612 702.45 1612 703M1604.74 708.822C1603.95 709.745 1603.03 711.287 1602.68 712.25 1602.34 713.213 1601.55 714 1600.92 714 1599.48 714 1600.48 709.722 1602.71 706.317 1604.14 704.139 1604.44 704.04 1605.26 705.493 1605.89 706.616 1605.72 707.68 1604.74 708.822M1614 708.5C1613.31 709.325 1612.36 710 1611.88 710 1611.4 710 1611 709.325 1611 708.5 1611 707.638 1611.9 707 1613.12 707 1614.9 707 1615.04 707.247 1614 708.5M1594.18 714.774C1593.06 715.146 1593.33 715.635 1596.69 719.401 1597.61 720.436 1597.54 721.207 1596.38 722.866 1594.03 726.219 1592.91 725.433 1593.62 720.942 1594.2 717.372 1594.02 716.818 1592.16 716.332L1590.05 715.78 1592.28 713.966C1593.72 712.789 1594.64 712.547 1594.9 713.276 1595.12 713.894 1594.8 714.568 1594.18 714.774M1589.81 721.265C1589.98 722.145 1589.08 723.419 1587.81 724.097 1585 725.596 1576.01 733.108 1570.76 738.337 1567.03 742.056 1566.84 742.125 1564.46 740.564 1563.11 739.678 1562 738.368 1562 737.651 1562 736.17 1565.09 733.234 1569.5 730.528 1571.15 729.515 1574.41 726.844 1576.75 724.593 1582.11 719.437 1589.11 717.653 1589.81 721.265M1591 725.912C1591 726.894 1578.08 736.43 1577.54 735.849 1577.05 735.324 1588.95 725 1590.05 725 1590.57 725 1591 725.411 1591 725.912M1558.27 745.906C1547.31 754.385 1544.4 757.012 1542.35 760.25 1541.04 762.313 1539.28 764 1538.42 764 1537.57 764 1535.43 765.065 1533.68 766.368 1531.93 767.67 1529.26 769.522 1527.75 770.483 1525.02 772.22 1525 772.215 1525 769.719 1525 767.785 1527.24 765.277 1534.75 758.797 1540.11 754.171 1546.53 749.002 1549 747.31 1551.47 745.617 1554.36 743.28 1555.41 742.116L1557.31 739.999 1558.82 742.156C1560.2 744.129 1560.16 744.448 1558.27 745.906M1566 745.411C1566 746.188 1563.55 748.55 1560.56 750.661 1557.57 752.773 1552.61 756.702 1549.54 759.392 1541.86 766.117 1541.08 764.212 1548.63 757.181 1561.95 744.786 1566 742.042 1566 745.411M1539 767.966C1539 768.497 1535.26 771.37 1530.69 774.35 1526.11 777.331 1521.16 781.206 1519.69 782.961 1517.74 785.273 1517 785.684 1517 784.452 1517 782.552 1524.45 775.453 1531.73 770.412 1536.59 767.047 1539 766.236 1539 767.966M1522.09 772.611C1523.25 774.009 1522.89 774.704 1519.33 777.861 1517.08 779.863 1514.97 782.287 1514.65 783.25 1514.33 784.213 1513.23 785 1512.21 785 1511.2 785 1506.75 787.694 1502.34 790.988 1496.2 795.569 1493.94 797.931 1492.71 801.045 1491.83 803.283 1490.53 805.035 1489.81 804.939 1489.09 804.842 1487.9 804.816 1487.16 804.882 1484.97 805.076 1473 817.165 1473 819.19 1473 820.22 1472.21 821.314 1471.25 821.622 1465.19 823.559 1458.57 829.573 1454.92 836.454 1453.17 839.751 1451.84 840.981 1449.55 841.439 1446.46 842.059 1436 851.42 1436 853.573 1436 854.471 1425.64 865.964 1419.83 871.5 1415.19 875.933 1411 880.67 1410.99 881.5 1410.99 882.05 1409.59 883.293 1407.89 884.262 1405.78 885.462 1404.99 886.528 1405.4 887.605 1405.8 888.634 1405.35 889.357 1404.13 889.677 1403.09 889.947 1401.67 891.256 1400.95 892.584 1400.24 893.913 1399.08 895 1398.38 895 1397.67 895 1396.79 896.688 1396.42 898.75 1396.05 900.813 1395.1 903.243 1394.31 904.151 1393.34 905.26 1393.22 906.017 1393.94 906.46 1395.56 907.468 1396.77 906.309 1398.85 901.709 1399.91 899.394 1402.51 895.627 1404.63 893.337 1406.76 891.048 1410.75 886.013 1413.5 882.149 1416.25 878.285 1419.06 875.096 1419.75 875.062 1421.48 874.976 1421.31 876.494 1419.43 878.061 1416.8 880.242 1414 886.704 1414 890.592 1414 893.493 1414.73 894.957 1417.5 897.565 1419.43 899.38 1421 901.121 1421 901.433 1421 901.745 1418.64 902.004 1415.75 902.009 1406.91 902.023 1400.16 903.151 1399.56 904.712 1399.09 905.932 1400.06 906.037 1405.75 905.382 1412.2 904.639 1420 904.67 1420.78 905.442 1420.97 905.642 1420.55 906.744 1419.84 907.891 1418.71 909.69 1418.81 910.249 1420.52 911.951 1421.61 913.036 1424.3 914.15 1426.5 914.426 1428.7 914.702 1433.65 915.385 1437.5 915.944 1446.17 917.202 1446 917.2 1446 916.061 1446 915.545 1443.86 914.851 1441.25 914.518 1424.15 912.341 1420.38 910.717 1422.08 906.25 1422.92 904.049 1425 903.099 1425 904.918 1425 907.329 1431.97 909.785 1442 910.906 1456.47 912.524 1480.87 913.943 1484.5 913.378 1494.46 911.828 1506.43 909.738 1512.5 908.49 1516.35 907.699 1525.12 906.114 1532 904.969 1538.88 903.824 1546.3 902.284 1548.5 901.549 1563.66 896.479 1610.78 894.039 1626 897.534 1635.14 899.633 1661.31 900.503 1673.5 899.114 1694.75 896.692 1716.86 887.349 1732.25 874.28 1744.65 863.753 1754.08 858.781 1766.32 856.315 1772.88 854.994 1775.4 854.912 1780.51 855.854 1783.93 856.484 1787.73 857 1788.95 857 1791.74 857 1803.75 862.987 1809.52 867.257 1811.93 869.041 1815.76 871.85 1818.04 873.5 1823.45 877.431 1832.38 888.546 1836.03 895.901 1839.7 903.304 1840.56 912.69 1839.18 930.514 1838.12 944.176 1837.66 945.818 1832.1 955.5 1825.07 967.731 1812.79 980.067 1806.03 981.675 1804.64 982.005 1802.99 982.679 1802.36 983.171 1800.26 984.819 1781.62 987.06 1774 986.582 1769.88 986.324 1761.78 985.841 1756 985.509 1746.63 984.971 1740.52 983.953 1729 981.008 1721.06 978.979 1713.36 978.783 1705.43 980.407 1685.52 984.483 1677.37 986.987 1664.18 993.08 1660.7 994.686 1657.46 996 1656.97 996 1656.11 996 1637.56 1006.4 1635.5 1008.04 1632.03 1010.79 1618.85 1014.69 1598.5 1018.97 1593 1020.13 1585.71 1021.74 1582.29 1022.54 1578.88 1023.34 1575.13 1024 1573.96 1024 1571.61 1024 1557.67 1027.68 1554.5 1029.13 1546.11 1032.98 1519.16 1041.24 1511.12 1042.42 1506.24 1043.14 1497.83 1045.84 1490.98 1048.88 1486.15 1051.03 1481.73 1050.72 1477.24 1047.92 1475.42 1046.78 1475 1045.61 1475 1041.7 1475 1039.05 1475.5 1034.89 1476.11 1032.46 1477.55 1026.75 1476.52 1020.05 1473.53 1015.65 1472.23 1013.73 1471.45 1011.88 1471.8 1011.53 1473.31 1010.02 1481.36 1007.07 1485.73 1006.43 1488.35 1006.04 1491.62 1005.28 1493 1004.73 1494.38 1004.18 1503.15 1003.09 1512.5 1002.31 1550.19 999.179 1551.62 999.028 1561.5 997.125 1576.26 994.282 1578.11 994.095 1580.54 995.202 1582.52 996.102 1583.35 995.997 1584.82 994.659 1586.84 992.83 1590 992.429 1590 994 1590 994.55 1590.68 995 1591.5 995 1592.32 995 1593 994.514 1593 993.921 1593 993.241 1594.11 993.085 1596 993.5 1597.89 993.915 1599 993.759 1599 993.079 1599 992.486 1598.49 992 1597.88 992 1596.22 992 1598.82 989.144 1601.94 987.531 1603.36 986.795 1606.66 985.873 1609.28 985.481 1611.89 985.09 1614.27 984.371 1614.57 983.885 1615.55 982.295 1617.02 982.952 1618.18 985.5 1619.65 988.717 1621 988.702 1621 985.469 1621 982.375 1623.27 981.347 1626.68 982.898 1628.46 983.711 1629.6 983.745 1630.48 983.012 1631.18 982.437 1632.48 982.248 1633.38 982.593 1634.64 983.077 1634.96 982.683 1634.76 980.86 1634.53 978.729 1634.98 978.44 1639.5 977.884 1642.25 977.545 1645.85 976.785 1647.5 976.195 1663.51 970.47 1670.92 967.999 1672.1 967.996 1672.87 967.994 1674.85 967.169 1676.5 966.162 1679.91 964.087 1690.65 962.627 1691.57 964.114 1691.9 964.646 1692.99 964.82 1694 964.5 1695.01 964.18 1696.12 964.387 1696.47 964.959 1697.29 966.275 1700 966.326 1700 965.026 1700 964.49 1698.58 963.32 1696.86 962.426L1693.71 960.8 1699.11 957.789C1702.07 956.132 1705.85 954.429 1707.5 954.004 1709.15 953.578 1711.31 952.897 1712.3 952.489 1713.84 951.853 1714.01 952.121 1713.44 954.374 1712.71 957.31 1714.34 958.003 1715.81 955.378 1716.61 953.951 1716.91 954.031 1718.32 956.051 1719.63 957.914 1720.04 958.059 1720.52 956.822 1720.84 955.984 1721.02 954.894 1720.93 954.399 1720.84 953.905 1720.82 952.429 1720.88 951.119 1720.99 948.966 1721.34 948.793 1724.54 949.313 1726.48 949.628 1729.39 950.99 1730.99 952.338 1732.59 953.686 1735.28 955.397 1736.95 956.139 1740.64 957.771 1740.82 959.417 1737.55 961.56 1734.82 963.35 1732.8 963.015 1726.21 959.674L1721.91 957.5 1720.03 959.972C1717.8 962.908 1718.46 964.802 1720.93 962.565 1722.91 960.772 1724.68 960.54 1725.17 962.01 1725.35 962.565 1726.41 963.2 1727.5 963.421 1728.6 963.642 1730.77 964.312 1732.31 964.911 1736.74 966.622 1742.39 963.056 1743.54 957.829 1743.9 956.199 1744.86 953.658 1745.68 952.183L1747.18 949.5 1746.61 952.75C1746.3 954.538 1746.46 956 1746.97 956 1748.24 956 1748.82 954.858 1749.51 950.957 1750.23 946.826 1751.65 945 1754.12 945 1755.59 945 1756 944.26 1756 941.605 1756 939.289 1756.79 937.461 1758.48 935.855 1760.95 933.514 1761.8 931 1760.12 931 1759.64 931 1758.69 931.675 1758 932.5 1756.71 934.055 1753.99 934.566 1754.01 933.25 1754.03 932.177 1762.08 928.933 1763.13 929.579 1764.79 930.604 1763.99 933.647 1761.5 935.813 1759.65 937.425 1759.01 938.958 1759.03 941.743 1759.06 945.263 1759.16 945.378 1760.53 943.559 1761.34 942.491 1762 940.859 1762 939.931 1762 939.004 1762.72 937.646 1763.6 936.914 1765.93 934.98 1767.3 930.899 1766.04 929.637 1764.38 927.977 1764.72 927.521 1770.25 923.954 1781.74 916.551 1799.04 902.686 1799.61 900.426 1801 894.888 1796.74 894.633 1784.14 899.5 1779.15 901.425 1773.97 903 1772.62 903 1771.27 903 1768.22 903.83 1765.83 904.843 1761.22 906.807 1754.19 908.505 1736.5 911.931 1730.45 913.103 1722.35 914.733 1718.5 915.554 1706.34 918.147 1652.49 923.583 1630 924.486 1577.24 926.606 1540.23 926.862 1523.5 925.222 1516.9 924.574 1502.95 923.302 1492.5 922.394 1482.05 921.486 1472.98 920.329 1472.34 919.823 1471.61 919.246 1470.92 919.324 1470.48 920.034 1469.67 921.338 1452.7 920.764 1441.78 919.063 1438.08 918.488 1424.76 917.562 1412.16 917.007 1399.56 916.452 1386.89 915.548 1383.99 914.999 1381.1 914.449 1374.63 913.963 1369.61 913.918 1360.93 913.841 1360.65 913.771 1363.68 912.443 1365.43 911.676 1368.32 909.238 1370.1 907.024 1371.88 904.811 1374 903 1374.81 903 1375.62 903 1376.82 902.258 1377.48 901.351 1378.54 899.909 1378.77 900.086 1379.3 902.771 1379.9 905.725 1382.9 907.799 1384.84 906.597 1385.32 906.305 1386.52 903.913 1387.52 901.283 1388.51 898.652 1390.49 894.748 1391.91 892.607 1393.34 890.466 1394.99 887.89 1395.58 886.884 1396.17 885.877 1398.21 883.804 1400.11 882.277 1402.02 880.75 1412.38 870.725 1423.15 860 1445.43 837.807 1464.45 819.486 1475.06 810 1479.06 806.425 1483.76 802.15 1485.51 800.5 1487.25 798.85 1490.67 795.732 1493.09 793.572 1495.52 791.411 1500.27 787.024 1503.66 783.822 1508.44 779.315 1510.52 778 1512.91 778 1515.13 778 1516 777.529 1516 776.329 1516 774.616 1518.74 771 1520.03 771 1520.43 771 1521.36 771.725 1522.09 772.611M1511.44 789.303C1511.16 790.02 1509.71 791.349 1508.22 792.258 1506.72 793.166 1503.06 796.179 1500.08 798.953 1494.4 804.247 1492.23 804.872 1495.65 800.234 1497.71 797.434 1509.64 788 1511.12 788 1511.57 788 1511.71 788.586 1511.44 789.303M1488.44 807.907C1489.03 808.864 1476.16 819.497 1475.37 818.706 1474.98 818.318 1486.82 807 1487.61 807 1487.76 807 1488.13 807.408 1488.44 807.907M1469 825.85C1469 826.318 1466.24 829.101 1462.86 832.036 1456.12 837.903 1456.35 835.799 1463.19 829.168 1467.4 825.074 1469 824.163 1469 825.85M1450 844.278C1450 844.98 1447.3 847.932 1444 850.837 1436.65 857.306 1436.13 855.855 1443.15 848.44 1448.34 842.95 1450 841.94 1450 844.278M1431.5 864C1430.5 865.107 1429.45 865.787 1429.18 865.512 1428.9 865.237 1429.5 864.107 1430.5 863 1431.5 861.893 1432.55 861.213 1432.82 861.488 1433.1 861.763 1432.5 862.893 1431.5 864M1387.05 895.642C1385.92 897.747 1385 900.238 1385 901.176 1385 902.114 1384.57 903.146 1384.05 903.469 1382.57 904.381 1381 900.558 1381 896.066 1381 892.521 1381.29 891.998 1383.25 891.985 1384.49 891.976 1386.18 891.541 1387 891.017 1389.3 889.556 1389.32 891.409 1387.05 895.642M1795.57 900.881C1793.85 903.664 1776.51 914.034 1769.5 916.467 1765.1 917.995 1759.25 920.232 1756.5 921.438 1753.75 922.645 1750.15 924.123 1748.5 924.725 1746.85 925.326 1740.78 927.686 1735 929.969 1716.4 937.322 1693.11 944.712 1692.01 943.611 1691.46 943.055 1691 941.34 1691 939.8 1691 938.26 1690.58 937 1690.06 937 1688.52 937 1687.75 938.995 1688.79 940.294 1690.4 942.311 1688.59 945.154 1684.89 946.426 1680.06 948.087 1679 947.455 1679 942.917 1679 940.237 1678.56 939 1677.61 939 1675.81 939 1674.59 943.805 1675.97 945.463 1677.73 947.59 1674.96 948.879 1667.45 949.417 1663.63 949.691 1658.47 950.561 1656 951.35 1653.53 952.14 1647.22 953.543 1642 954.47 1636.78 955.396 1631.32 956.389 1629.88 956.676 1627.66 957.118 1627.1 956.735 1626.21 954.167 1625.63 952.5 1625.4 950.206 1625.69 949.068 1626 947.889 1625.75 947 1625.12 947 1624.5 947 1623.94 948.238 1623.86 949.75 1623.78 951.262 1623.67 953.584 1623.61 954.91 1623.52 956.932 1622.66 957.553 1618.28 958.779 1611.01 960.813 1609.62 960.076 1610.24 954.522 1610.8 949.571 1610.33 948.481 1608.34 950.131 1607.56 950.778 1607 953.245 1607 956.015 1607 959.634 1606.58 960.95 1605.25 961.465 1603.79 962.03 1582.38 965 1579.76 965 1579.32 965 1578.51 963.848 1577.98 962.44 1576.79 959.321 1574.6 960.262 1575.42 963.537 1575.97 965.712 1575.64 965.896 1570.25 966.502 1558.73 967.797 1559.54 968.072 1559.2 962.75 1559.01 959.893 1559.31 958 1559.95 958 1560.53 958 1561 957.325 1561 956.5 1561 955.675 1560.55 955 1560 955 1559.45 955 1559 955.637 1559 956.417 1559 957.196 1558.53 957.99 1557.96 958.181 1556.76 958.579 1556.43 961.777 1557.36 964 1557.7 964.825 1557.61 966.075 1557.16 966.778 1556.31 968.113 1544.17 970.499 1543.19 969.523 1542.88 969.214 1542.59 966.522 1542.54 963.54 1542.49 960.558 1542.14 957.804 1541.75 957.42 1540.48 956.148 1538.88 962.348 1539.52 966.099L1540.14 969.787 1534.32 970.277C1531.12 970.546 1525.57 970.873 1522 971.004 1518.43 971.135 1514.17 971.3 1512.54 971.371 1509.8 971.49 1509.53 971.177 1508.82 967.126 1508.36 964.47 1508.47 961.982 1509.11 960.791 1510.36 958.451 1509.71 957.515 1507.43 958.389 1506.05 958.916 1505.84 960.147 1506.18 965.513L1506.59 972 1502.55 972.099C1500.32 972.153 1496.47 972.425 1494 972.703 1488.08 973.367 1462.78 973.118 1462.06 972.389 1461.75 972.077 1461.57 968.936 1461.66 965.41 1461.74 961.885 1461.41 959 1460.93 959 1459.55 959 1458.7 963.702 1459.28 968.06 1459.87 972.471 1458.88 973.229 1457.24 969.622 1456.64 968.314 1453.87 965.276 1451.08 962.872 1448.29 960.467 1446 957.952 1446 957.281 1446 956.605 1445.33 956.321 1444.49 956.643 1442.67 957.343 1432 953.182 1432 951.77 1432 951.182 1433.33 951.032 1435.25 951.404 1437.04 951.751 1442.78 952.461 1448 952.981 1460.36 954.21 1462.14 954.688 1461.79 956.675 1461.63 957.564 1462.06 958.489 1462.75 958.73 1463.49 958.988 1464 958.316 1464 957.083 1464 955.297 1464.61 955.002 1468.25 955.014 1473.95 955.032 1477 955.94 1477 957.617 1477 958.377 1477.45 959 1478 959 1478.55 959 1479 958.325 1479 957.5 1479 956.212 1479.94 955.679 1482 955.79 1483.71 955.882 1493.54 957.224 1493.71 957.389 1493.83 957.5 1493.27 958.86 1492.46 960.41 1490.61 963.976 1490.58 968.409 1492.4 969.918 1493.56 970.882 1493.9 970.179 1494.39 965.79 1494.71 962.881 1495.07 959.712 1495.2 958.749 1495.33 957.787 1496.12 956.789 1496.96 956.532 1498.51 956.062 1519.88 954.961 1536.5 954.495 1541.45 954.356 1546.18 953.981 1547 953.661 1547.82 953.341 1552.1 952.85 1556.5 952.569 1560.9 952.289 1567.31 951.781 1570.74 951.442L1576.97 950.824 1575.49 953.662C1573.68 957.136 1573.55 960.312 1575.25 959.759 1575.94 959.535 1576.95 957.507 1577.51 955.252 1578.06 952.997 1578.85 950.812 1579.27 950.397 1580 949.667 1584.63 949.113 1607.12 947.063 1612.97 946.53 1622.07 945.398 1627.36 944.547 1632.65 943.696 1638.81 943 1641.04 943 1643.27 943 1646.39 942.333 1647.97 941.517 1649.54 940.702 1653.24 939.894 1656.18 939.722 1659.12 939.551 1662.13 939.037 1662.87 938.581 1664.15 937.787 1676.52 935.552 1686 934.4 1688.47 934.1 1691.4 933.465 1692.5 932.99 1693.6 932.516 1696.97 931.666 1700 931.103 1706.78 929.84 1715.3 927.731 1724.5 925.039 1728.35 923.912 1733.53 922.481 1736 921.859 1741.67 920.434 1749.14 917.98 1760 913.974 1764.68 912.25 1769.62 910.485 1771 910.052 1772.38 909.619 1775.88 907.855 1778.79 906.133 1781.71 904.41 1784.66 903 1785.35 903 1786.05 903 1787.49 902.339 1788.56 901.532 1790.64 899.957 1796.48 899.415 1795.57 900.881M1773.41 905.989C1772.87 906.532 1767.27 908.827 1760.96 911.087 1748.95 915.395 1748.61 915.5 1735 919.046 1730.32 920.264 1721.23 922.777 1714.78 924.63 1700.94 928.614 1696 928.974 1696 926 1696 924.9 1695.55 924 1695 924 1694.45 924 1694 924.675 1694 925.5 1694 928.429 1690.14 931.089 1686.21 930.863 1684.17 930.745 1681.6 931.126 1680.5 931.709 1679.4 932.293 1676.03 933.07 1673 933.437L1667.5 934.105 1671 931.114C1673.73 928.78 1674.24 927.857 1673.3 926.91 1672.36 925.96 1671.84 926.267 1670.9 928.317 1670.24 929.758 1669.32 930.701 1668.86 930.412 1668.39 930.123 1667.53 930.942 1666.94 932.232 1666.14 933.985 1664.31 934.984 1659.69 936.194 1655.47 937.295 1653.11 937.49 1652.28 936.806 1651.43 936.113 1650.6 936.254 1649.59 937.263 1648.79 938.067 1645.74 939.027 1642.82 939.397 1639.89 939.767 1635.93 940.336 1634 940.662L1630.5 941.255 1633.44 938.128C1635.05 936.407 1636.74 935 1637.2 935 1637.65 935 1639.37 933.796 1641.02 932.324 1643.17 930.407 1643.85 929.09 1643.4 927.678 1642.81 925.819 1643.15 925.738 1649.4 926.24 1653.11 926.538 1656.28 926.356 1656.61 925.825 1656.93 925.305 1659.96 924.917 1663.35 924.964 1670.61 925.064 1675.19 924.639 1684 923.045 1687.57 922.399 1695.22 921.507 1701 921.063 1711.3 920.272 1714.13 919.781 1730.71 915.915 1735.23 914.862 1739.96 914.001 1741.21 914.003 1743.88 914.007 1755.68 910.775 1765 907.49 1772.26 904.932 1774.95 904.451 1773.41 905.989M1355.84 915.984C1362.25 916.525 1371.45 917.241 1376.27 917.575 1381.76 917.956 1385.57 918.709 1386.45 919.591 1388.27 921.416 1389 921.373 1389 919.439 1389 918.149 1389.83 917.994 1393.75 918.545 1396.36 918.913 1399.02 919.867 1399.65 920.666 1400.46 921.688 1401.01 921.786 1401.5 920.997 1401.99 920.214 1405.41 920.071 1412.85 920.522 1418.71 920.877 1427.1 921.156 1431.5 921.142 1439.83 921.115 1449.98 923.44 1450.03 925.387 1450.05 925.999 1450.71 925.649 1451.49 924.609 1452.71 923.006 1453.66 922.831 1457.71 923.46 1460.35 923.868 1463.28 924.297 1464.23 924.414 1465.18 924.53 1466.27 924.931 1466.64 925.304 1467.01 925.677 1467.93 925.475 1468.67 924.856 1470.3 923.502 1481.09 924.524 1482.08 926.126 1482.53 926.849 1483.39 926.773 1484.81 925.884 1486.52 924.817 1488.47 924.818 1495.7 925.89 1500.54 926.608 1508.14 927.314 1512.59 927.458 1517.04 927.602 1521.51 928.185 1522.52 928.753 1523.81 929.473 1524.9 929.453 1526.13 928.688 1527.44 927.868 1529.61 928.001 1534.69 929.216 1539.14 930.282 1541.89 930.509 1542.65 929.876 1543.99 928.764 1551.71 928.933 1554.12 930.126 1555.01 930.568 1556.06 930.608 1556.45 930.215 1556.84 929.822 1562.87 929.393 1569.83 929.262 1576.8 929.13 1585.65 928.861 1589.5 928.662 1593.35 928.463 1597.08 928.754 1597.79 929.308 1598.67 929.995 1599.45 929.947 1600.24 929.158 1601.04 928.358 1607.57 928 1621.34 928L1641.28 928 1634.39 934.645C1628.15 940.667 1627.01 941.351 1622.25 941.947 1616.83 942.627 1615.91 942.149 1618.5 940 1620.04 938.72 1620.57 936 1619.27 936 1618.88 936 1616.96 937.744 1615.02 939.875 1612.03 943.169 1610.72 943.836 1606.28 944.324 1603.35 944.647 1600.8 944.478 1600.46 943.939 1600.11 943.37 1598.99 943.595 1597.71 944.489 1595.46 946.063 1585 946.647 1585 945.199 1585 944.758 1587.03 942.467 1589.5 940.109 1595.12 934.749 1595.74 931.231 1590.19 936.134 1588.1 937.985 1585.29 940.943 1583.94 942.707 1580.3 947.487 1571.33 950.312 1568.94 947.432 1567.89 946.167 1567.48 946.152 1566.11 947.331 1563.86 949.264 1550.46 950.698 1519.03 952.369 1515.91 952.535 1515.01 949.492 1517.95 948.723 1519.08 948.428 1520 947.47 1520 946.594 1520 943.962 1518.28 944.771 1514.88 949 1511.85 952.765 1511.35 953 1506.33 953 1502.26 953 1501 952.646 1501 951.5 1501 950.675 1501.44 950 1501.97 950 1502.5 950 1505.12 948.087 1507.8 945.75 1510.47 943.413 1513.95 940.569 1515.53 939.431 1517.22 938.209 1517.96 937.094 1517.34 936.708 1515.46 935.551 1498 949.497 1498 952.149 1498 953.062 1481.56 952.827 1463.5 951.656 1461.3 951.513 1458.04 951.307 1456.25 951.198 1454.16 951.07 1453 950.48 1453 949.537 1453 947.862 1460.16 940.656 1464.25 938.212 1468.75 935.522 1467.34 933.66 1462.76 936.25 1459.09 938.328 1450 947.239 1450 948.763 1450 949.887 1449 950.051 1445.25 949.54 1442.64 949.184 1437.31 948.726 1433.42 948.522 1429.52 948.319 1424.66 947.839 1422.61 947.455 1419.14 946.803 1418.94 946.57 1419.53 943.879 1420.38 940.014 1418.49 940.148 1416.45 944.097 1415.19 946.532 1414.38 947.069 1412.67 946.61 1411.48 946.29 1408.33 946.021 1405.68 946.014L1400.86 946 1403.01 942.99C1404.19 941.335 1407.59 937.539 1410.57 934.555 1416.21 928.921 1416.8 928 1414.81 928 1413.14 928 1409 932.078 1409 933.733 1409 934.495 1408.62 934.884 1408.16 934.598 1406.97 933.864 1401.33 939.941 1400.05 943.337 1399.04 946.017 1398.75 946.134 1394.74 945.471 1392.41 945.085 1390.17 944.577 1389.78 944.341 1388.73 943.725 1394.19 936.425 1400.64 929.808 1408.12 922.138 1406.59 920.341 1398.89 927.745 1393.05 933.357 1391.68 935.22 1388.68 941.598 1387.45 944.237 1386.52 944.793 1382.47 945.348 1379.86 945.707 1376.21 946 1374.36 946 1372.2 946 1371 946.484 1371 947.353 1371 948.404 1372.88 948.648 1379.44 948.447 1384.09 948.305 1388.25 947.995 1388.69 947.759 1389.53 947.316 1407.66 948.773 1411.87 949.621 1415.17 950.285 1414.21 950.844 1407.72 952.045 1402.44 953.02 1393.71 957.044 1392.45 959.08 1391.26 961.009 1390.15 959.853 1389.5 956 1389.06 953.383 1388.3 952 1387.3 952 1385.81 952 1385.9 953.977 1387.6 958.407 1388.11 959.721 1387.41 960 1383.64 960 1378.8 960 1377 958.394 1377 954.066 1377 952.896 1376.35 952 1375.5 952 1373.66 952 1373.65 951.586 1375.63 960.26 1376.79 965.386 1376.94 967.522 1376.13 967.791 1374.14 968.453 1374.92 969.999 1377.25 970.015 1378.49 970.024 1380.12 970.421 1380.87 970.897 1381.97 971.597 1381.83 972.172 1380.12 973.882 1378.95 975.047 1377.26 976 1376.34 976 1374.86 976 1374.87 976.204 1376.5 978.005 1378.14 979.809 1378.21 980.685 1377.19 986.755 1375.11 999.143 1374.94 1001.84 1376.19 1002.62 1376.84 1003.02 1377.54 1002.88 1377.73 1002.3 1378.75 999.256 1387.65 989.252 1390.79 987.62 1394.39 985.751 1394.42 985.753 1395.83 987.87 1397.76 990.783 1400 990.584 1400 987.5 1400 985.944 1399.43 985 1398.5 985 1397.68 985 1397 984.56 1397 984.023 1397 982.147 1402.22 979.643 1405.85 979.783 1407.86 979.86 1410.74 979.959 1412.25 980.002 1415.18 980.086 1416.18 982 1413.3 982 1411.98 982 1411.87 982.267 1412.8 983.2 1413.73 984.133 1414.27 984.133 1415.2 983.2 1417.4 981 1417.87 981.954 1417.43 987.729 1416.9 994.69 1413.65 998.954 1410.26 997.137 1407.86 995.853 1407 996.535 1407 999.732 1407 1001.05 1406.51 1003.04 1405.92 1004.15 1404.48 1006.84 1405.54 1007.72 1407.78 1005.7 1408.87 1004.71 1410.45 1004.3 1411.79 1004.66 1413.67 1005.15 1414 1004.83 1414 1002.52 1414 1000.65 1414.62 999.65 1416 999.29 1417.1 999.002 1418.03 998.032 1418.07 997.133 1418.12 995.88 1418.33 995.965 1418.96 997.5 1419.89 999.745 1420.17 999.282 1421.86 992.75 1422.61 989.862 1422.54 989 1421.56 989 1420.73 989 1420.45 988.115 1420.75 986.512 1421.02 985.143 1421.63 984.274 1422.13 984.58 1423.85 985.641 1425.98 992.221 1425.38 994.605 1424.95 996.327 1425.2 997 1426.27 997 1429.33 997 1430.02 999.347 1428.86 1005.92 1427.5 1013.63 1424.31 1019.51 1418.18 1025.57 1412.21 1031.49 1410.26 1032.22 1400.5 1032.2 1393.67 1032.18 1391.8 1031.78 1387.68 1029.46 1384.33 1027.58 1382.53 1027.07 1381.81 1027.79 1381.08 1028.52 1382.33 1029.96 1385.88 1032.51 1388.7 1034.53 1391 1036.56 1391 1037.02 1391 1037.48 1392.24 1038.48 1393.75 1039.24 1398.16 1041.47 1401.36 1043.39 1403.36 1045 1404.79 1046.16 1407.99 1046.49 1417.36 1046.44 1428.15 1046.39 1430.2 1046.08 1435.81 1043.74 1443.68 1040.44 1453.53 1033.47 1458.8 1027.49L1462.82 1022.92 1464.05 1026.71C1465.62 1031.59 1468.85 1037.99 1470.62 1039.76 1471.38 1040.52 1472 1042.24 1472 1043.57 1472 1046.54 1470.07 1046.68 1460.38 1044.44 1452.02 1042.5 1449.97 1042.99 1442.7 1048.67 1439.52 1051.17 1434.11 1054.61 1430.7 1056.32 1424.02 1059.67 1421.65 1059.95 1387.5 1061.52 1370.27 1062.32 1370.47 1062.26 1372.55 1065.44 1373.44 1066.8 1373.89 1068.37 1373.54 1068.94 1372.66 1070.36 1374.77 1074 1376.47 1074 1377.24 1074 1378.15 1074.9 1378.5 1076 1378.85 1077.1 1379.71 1078 1380.41 1078 1381.11 1078 1382.51 1078.9 1383.5 1080 1384.49 1081.1 1385.86 1082 1386.54 1082 1387.22 1082 1388.44 1083.02 1389.25 1084.26 1390.06 1085.5 1392.03 1087.19 1393.61 1088.01 1395.2 1088.83 1397.67 1090.71 1399.1 1092.19 1400.53 1093.67 1403 1095.2 1404.6 1095.59 1406.19 1095.98 1409.4 1098.03 1411.73 1100.15 1414.05 1102.27 1416.33 1104 1416.8 1104 1417.26 1104 1419.66 1105.93 1422.12 1108.29 1424.58 1110.65 1429.05 1113.85 1432.05 1115.4 1435.05 1116.95 1438.4 1118.99 1439.5 1119.94 1442.64 1122.64 1456.08 1131.29 1460.5 1133.46 1462.7 1134.54 1466.3 1136.6 1468.5 1138.03 1474.37 1141.85 1482.73 1146 1484.55 1146 1485.42 1146 1487.59 1147.11 1489.37 1148.47 1491.15 1149.83 1494.16 1151.65 1496.05 1152.53 1497.95 1153.41 1501.75 1155.42 1504.5 1157 1507.25 1158.59 1510.05 1159.91 1510.73 1159.94 1512.47 1160.02 1522.12 1166.34 1524.43 1168.9 1526.3 1170.99 1535 1174.1 1538 1173.75 1538.82 1173.66 1542.86 1175.25 1546.97 1177.29 1551.08 1179.33 1555.26 1181 1556.25 1181 1558.59 1181 1559.58 1183.6 1557.97 1185.54 1556.41 1187.42 1557.46 1188.69 1559.32 1187.15 1560.07 1186.53 1560.97 1186.3 1561.32 1186.65 1561.67 1187 1562.6 1186.74 1563.4 1186.09 1564.55 1185.13 1565.88 1185.41 1569.95 1187.48 1572.77 1188.9 1575.95 1190.95 1577.03 1192.03 1579.3 1194.3 1579.7 1199 1577.62 1199 1576.29 1199 1569.79 1196.3 1559.5 1191.47 1556.75 1190.17 1553.38 1188.64 1552 1188.06 1550.62 1187.48 1548.82 1186.58 1548 1186.06 1547.18 1185.55 1544.03 1183.92 1541 1182.46 1533.31 1178.72 1529.55 1176.53 1517 1168.45 1513.43 1166.15 1506.22 1162.22 1501 1159.71 1495.78 1157.2 1489.59 1153.77 1487.26 1152.07 1484.93 1150.38 1482.4 1149 1481.64 1149 1480.89 1149 1479.2 1148.19 1477.89 1147.19 1476.57 1146.2 1470.78 1142.74 1465 1139.5 1455.9 1134.4 1440.07 1124.45 1425.13 1114.43 1422.72 1112.82 1418.49 1110.07 1415.73 1108.32 1412.97 1106.57 1410.44 1104.76 1410.1 1104.3 1409.77 1103.84 1406.46 1101.5 1402.75 1099.11 1399.04 1096.72 1396 1094.4 1396 1093.95 1396 1093.5 1395 1092.82 1393.78 1092.43 1390.51 1091.39 1381.23 1085.04 1380.6 1083.41 1380.3 1082.63 1379.55 1082 1378.92 1082 1378.29 1082 1375.69 1080.3 1373.14 1078.22 1366.94 1073.17 1363.24 1072.1 1352.16 1072.12 1347.02 1072.13 1342.52 1071.85 1342.16 1071.49 1341.8 1071.13 1342.85 1069.88 1344.5 1068.7 1349.16 1065.38 1354.72 1059.14 1359.63 1051.72 1365.43 1042.95 1367.01 1035.38 1364.59 1027.97 1363.22 1023.79 1363.13 1021.89 1364.05 1016.24 1364.66 1012.53 1365.63 1007.83 1366.22 1005.79 1368.43 998.149 1364.79 982.562 1360.23 980.121 1357.4 978.608 1356.65 979.994 1358.96 982.454 1361.9 985.589 1364 992.511 1364 999.091 1364 1003.91 1363.65 1005.12 1362 1006 1359.85 1007.15 1359.31 1010.45 1361.09 1011.56 1362.36 1012.34 1361.49 1018.16 1359.52 1021.96 1358.8 1023.36 1355.75 1027.18 1352.75 1030.45L1347.3 1036.4 1341.71 1033.47C1333.49 1029.17 1331.32 1022.7 1336.97 1019.36 1341.02 1016.97 1341.28 1015.69 1338.55 1011.67 1336.44 1008.56 1334.46 1002.93 1332.55 994.605 1332.14 992.807 1331.54 992.065 1330.95 992.647 1329.48 994.119 1332.7 1009.05 1335.02 1011.53 1337.61 1014.28 1337.53 1015.01 1334.27 1017.6 1332.11 1019.33 1331.55 1020.61 1331.55 1023.84 1331.55 1029.12 1334.32 1032.82 1340.59 1035.93 1346.37 1038.78 1344.72 1039.75 1336.93 1038.08 1329.52 1036.49 1324.9 1036.76 1321.23 1039 1319.43 1040.1 1317.74 1041 1317.48 1041 1316.22 1041 1317.21 1034.99 1318.81 1032.89 1323.36 1026.91 1328 1008.44 1328 996.353 1328 989.984 1327.69 987.938 1326.75 988.246 1325.91 988.525 1325.29 992.208 1324.86 999.58 1324.23 1010.41 1322.17 1019.31 1318.2 1028.27 1317.12 1030.73 1315.73 1033.05 1315.11 1033.43 1314.5 1033.81 1314 1035.89 1314 1038.06 1314 1041.62 1313.75 1042 1311.45 1042 1308.52 1042 1296.56 1051.09 1292.53 1056.37 1291.12 1058.22 1287.27 1061.62 1283.98 1063.93 1280.69 1066.24 1278 1068.55 1278 1069.06 1278 1070.31 1280.72 1070.26 1281.5 1069 1281.84 1068.45 1282.88 1067.98 1283.81 1067.96 1284.74 1067.94 1287.06 1066.59 1288.96 1064.96 1292.29 1062.11 1297 1060.95 1297 1062.98 1297 1063.51 1295.76 1064.74 1294.25 1065.71 1292.74 1066.67 1288.27 1069.95 1284.31 1072.98 1275.6 1079.67 1267.24 1085 1265.46 1085 1264.74 1085 1262.14 1083.46 1259.67 1081.58 1253.83 1077.12 1238.73 1069.97 1228 1066.57 1223.32 1065.09 1218.92 1063.69 1218.21 1063.46 1216.14 1062.78 1219.55 1057.21 1225.64 1051.34 1231.09 1046.08 1232.43 1042.43 1229.73 1040.19 1229.04 1039.62 1225.1 1038 1220.98 1036.6 1200.7 1029.72 1196.94 1027.84 1191.47 1021.79 1185.9 1015.64 1179.02 1005.21 1179.01 1002.91 1179 1002.03 1178.1 1000.49 1177 999.5 1173.94 996.736 1174.54 995.013 1180.81 988.5 1189.49 979.484 1190.02 979.152 1199.09 976.873 1206.88 974.916 1221 968.001 1221 966.141 1221 965.077 1236.2 954.138 1243.5 949.945 1252.17 944.966 1251.78 945.216 1264.67 936.606 1277.1 928.314 1290.1 921.69 1296 920.651 1297.93 920.312 1303.32 918.943 1308 917.608 1315.04 915.597 1318.88 915.165 1330.34 915.09 1337.96 915.041 1349.43 915.443 1355.84 915.984M1447.22 916.172C1447.5 916.988 1449.37 917.535 1452.08 917.591 1454.51 917.641 1458.23 918.007 1460.35 918.404 1462.89 918.882 1463.98 918.78 1463.56 918.103 1462.94 917.087 1461.05 916.67 1451.64 915.466 1447.85 914.981 1446.88 915.136 1447.22 916.172M1773.45 918.908C1771.67 920.607 1745 935 1743.63 935 1742.88 935 1741.13 935.9 1739.73 937 1738.33 938.1 1736.57 939 1735.82 939 1735.06 939 1730.63 940.925 1725.97 943.278 1721.31 945.631 1715.37 948.365 1712.77 949.354 1708.32 951.045 1707.7 951.055 1702.41 949.517 1696.51 947.802 1694.33 948.034 1697.97 949.987 1700.97 951.592 1700.26 955.092 1696.69 956.276 1694.42 957.028 1693.61 956.856 1692.54 955.392 1691.42 953.852 1690.97 953.779 1689.61 954.91 1688.22 956.061 1688 955.969 1688 954.239 1688 953.042 1687.15 952.012 1685.9 951.684 1684.74 951.382 1684.06 950.712 1684.38 950.196 1684.92 949.317 1689.63 947.858 1693 947.525 1693.82 947.443 1695.18 947.11 1696 946.785 1696.82 946.459 1703.35 944.32 1710.5 942.03 1724.66 937.496 1733.96 934.054 1735.45 932.8 1735.97 932.36 1737.41 932 1738.64 932 1739.87 932 1741.14 931.584 1741.45 931.076 1741.77 930.569 1744.38 929.381 1747.26 928.438 1750.14 927.494 1755.2 925.482 1758.5 923.966 1770.27 918.558 1771.52 918.045 1772.95 918.023 1773.85 918.009 1774.04 918.345 1773.45 918.908M1384.22 927.588C1380.8 931.193 1378 934.863 1378 935.743 1378 936.623 1377.28 938.137 1376.4 939.108 1374.93 940.733 1375.17 943.035 1376.81 942.974 1377.19 942.96 1378.37 941.048 1379.44 938.724 1380.51 936.401 1383.85 931.901 1386.86 928.726 1390.37 925.04 1392 922.604 1391.39 921.992 1390.78 921.38 1388.18 923.404 1384.22 927.588M1412 921.737C1412 922.664 1418.3 928.037 1418.8 927.537 1419.8 926.528 1417.96 924.128 1415.07 922.687 1413.38 921.843 1412 921.416 1412 921.737M1311.3 924.647C1310.11 925.666 1306.8 931 1303.96 936.5 1301.11 942 1298.39 946.989 1297.91 947.586 1295.42 950.653 1294.18 956.859 1295.22 960.966 1296.58 966.313 1300.77 969.693 1309.68 972.63 1315.59 974.582 1317.89 974.81 1327 974.35 1332.78 974.058 1338.88 973.404 1340.55 972.897 1345.22 971.486 1351.97 963.985 1354.03 957.927 1355.62 953.22 1355.65 952.267 1354.36 948.606 1353.57 946.363 1351.73 943.284 1350.27 941.764 1348.19 939.591 1347.98 939 1349.28 939 1350.35 939 1350.73 938.462 1350.36 937.487 1350.04 936.655 1350.28 935.374 1350.89 934.639 1351.72 933.63 1351.54 932.89 1350.12 931.61 1349.09 930.679 1347.86 930.009 1347.38 930.122 1346.89 930.235 1345.24 929.975 1343.7 929.544 1340.02 928.51 1339.04 929.64 1341.9 931.639 1343.42 932.703 1343.84 933.564 1343.17 934.234 1342.16 935.245 1332 931.377 1332 929.981 1332 928.605 1322.04 923.967 1317.84 923.392 1314.44 922.925 1313 923.201 1311.3 924.647M1424 923.839C1424 925.198 1428.85 927.058 1429.52 925.96 1429.85 925.43 1428.94 924.547 1427.49 923.998 1424.3 922.785 1424 922.771 1424 923.839M1435 924C1435 924.55 1435.68 925 1436.5 925 1437.32 925 1438 925.402 1438 925.893 1438 926.975 1445.19 929.978 1446.25 929.337 1447.58 928.528 1447.05 927 1445.43 927 1444.56 927 1443.16 926.299 1442.3 925.442 1441.44 924.586 1440.14 924.116 1439.4 924.399 1438.67 924.681 1437.8 924.482 1437.47 923.956 1436.7 922.697 1435 922.727 1435 924M1680.33 925.381C1680.56 925.996 1681.23 926.397 1681.81 926.27 1682.4 926.144 1683.16 926.931 1683.51 928.02 1683.85 929.109 1684.53 930 1685.01 930 1686.57 930 1687.2 927.945 1686.06 926.567 1684.62 924.843 1679.76 923.835 1680.33 925.381M1289.5 926.424C1287.69 927.791 1287.67 927.939 1289.28 927.968 1290.25 927.986 1291.48 929.141 1292.01 930.536 1292.78 932.561 1293.53 932.998 1295.74 932.706 1297.58 932.463 1298.6 931.672 1298.8 930.333 1299.36 926.516 1292.95 923.817 1289.5 926.424M1323.39 927.888C1324.99 928.533 1327.91 930.306 1329.89 931.829 1333.23 934.394 1338.69 937.057 1343.5 938.472 1344.6 938.796 1346.68 940.959 1348.12 943.28 1353.3 951.627 1353.35 951.792 1351.47 956.86 1349.63 961.822 1343.87 968.652 1340.37 970.024 1336.63 971.491 1313.47 971.104 1309.5 969.508 1308.4 969.066 1306.05 968.123 1304.27 967.413 1301.14 966.16 1297.01 960.895 1297 958.151 1297 956.681 1299.31 950.968 1301.52 947 1302.29 945.625 1304.78 940.9 1307.07 936.5 1309.36 932.1 1311.64 927.985 1312.15 927.356 1313.26 925.978 1319.39 926.268 1323.39 927.888M1431.17 927.656C1431.36 928.657 1432.3 929.628 1433.26 929.812 1435.68 930.278 1435.44 928.306 1432.91 926.952 1431.12 925.995 1430.87 926.096 1431.17 927.656M1453.5 927C1453.84 927.55 1454.94 928 1455.95 928 1456.96 928 1458.02 928.618 1458.31 929.374 1458.6 930.129 1460.41 931.041 1462.32 931.4 1464.23 931.759 1466.34 932.711 1467.01 933.515 1468.24 934.991 1470 934.664 1470 932.961 1470 931.72 1462.58 928 1460.1 928 1459.01 928 1457.84 927.55 1457.5 927 1457.16 926.45 1455.98 926 1454.88 926 1453.78 926 1453.16 926.45 1453.5 927M1657 927.451C1657 928.314 1656.1 929.79 1655 930.732 1652.99 932.454 1652.29 935 1653.83 935 1654.28 935 1655.63 933.958 1656.83 932.686 1659.14 930.226 1659.65 927.52 1658 926.5 1657.45 926.16 1657 926.588 1657 927.451M1471 928C1471 928.55 1471.85 929 1472.89 929 1473.93 929 1475.05 929.675 1475.36 930.5 1475.99 932.131 1479 932.592 1479 931.057 1479 929.696 1474.86 927 1472.78 927 1471.8 927 1471 927.45 1471 928M1316.47 930.75C1316.85 931.712 1317.41 934.765 1317.7 937.533 1318.2 942.288 1318.04 942.764 1314.62 946.183 1312.63 948.172 1311 950.52 1311 951.4 1311 954.099 1312.95 953.18 1314.61 949.698 1315.47 947.882 1317.15 945.967 1318.34 945.442 1320.23 944.608 1320.48 943.764 1320.31 938.787 1320.2 935.652 1319.62 932.168 1319.02 931.044 1317.68 928.538 1315.51 928.287 1316.47 930.75M1449 930.113C1449 930.725 1446.07 934.066 1442.5 937.536 1436.76 943.112 1434.74 946 1436.59 946 1436.91 946 1438.6 944.714 1440.34 943.143 1442.08 941.572 1445.49 938.49 1447.92 936.294 1450.98 933.526 1452.14 931.796 1451.7 930.651 1450.98 928.795 1449 928.399 1449 930.113M1770.31 930.11C1769.66 930.902 1768.82 933.882 1768.44 936.731 1768.03 939.828 1767 942.596 1765.88 943.611 1761.75 947.343 1763.71 949.535 1781.5 961.137 1792.35 968.211 1800.33 973 1801.27 973 1802.04 973 1801.53 968.197 1800.67 967.332 1800.3 966.966 1800 967.192 1800 967.833 1800 968.475 1799.5 969 1798.89 969 1798.28 969 1798.04 968.339 1798.35 967.532 1799.07 965.662 1797.29 964.515 1795.71 965.824 1794.85 966.529 1792.04 965.18 1786.11 961.222 1779.53 956.829 1778.12 955.485 1779.55 954.984 1780.72 954.573 1780.97 954.1 1780.25 953.656 1779.64 953.277 1778.86 953.425 1778.51 953.984 1777.54 955.549 1776.42 955.223 1773.07 952.409 1771.38 950.984 1770.29 949.332 1770.66 948.739 1771.08 948.06 1770.72 947.892 1769.7 948.286 1767.81 949.011 1766.34 947.264 1767.69 945.907 1768.44 945.157 1786.85 953.73 1797.5 959.789 1800.88 961.709 1808.32 965 1809.29 965 1809.8 965 1809.96 964.325 1809.64 963.5 1809.27 962.544 1809.66 962 1810.7 962 1811.6 962 1812.02 961.687 1811.64 961.304 1810.82 960.488 1808.22 959.852 1805.75 959.866 1804.79 959.871 1804 959.176 1804 958.321 1804 957.215 1803.37 956.932 1801.81 957.339 1800.35 957.721 1795.83 956.087 1788.21 952.426 1778.24 947.631 1776.97 946.744 1778.1 945.38 1779.27 943.971 1779.52 943.984 1780.63 945.51 1781.31 946.44 1782.35 946.902 1782.94 946.537 1783.53 946.172 1784.29 946.603 1784.64 947.494 1784.98 948.386 1785.89 948.872 1786.67 948.574 1787.44 948.277 1788.33 948.701 1788.65 949.517 1788.96 950.333 1790.04 951 1791.05 951 1792.06 951 1793.13 951.4 1793.43 951.89 1794.16 953.068 1800.98 953.836 1801.62 952.811 1801.89 952.369 1800.85 951.512 1799.31 950.905 1790.17 947.31 1786.14 944.843 1786.28 942.932 1786.38 941.586 1786.92 941.141 1787.97 941.545 1788.81 941.872 1790.85 942.397 1792.5 942.711 1794.15 943.025 1795.99 943.664 1796.59 944.132 1798.17 945.359 1799.19 943.93 1797.87 942.342 1797.02 941.313 1797.13 941 1798.38 941 1799.27 941 1800 940.55 1800 940 1800 939.45 1799.12 939 1798.05 939 1796.97 939 1794.87 938.443 1793.38 937.762 1791.22 936.777 1790.57 936.777 1790.25 937.762 1790.02 938.443 1789.17 939 1788.35 939 1787.32 939 1787.06 938.387 1787.5 937 1787.95 935.581 1787.68 935 1786.57 935 1785.71 935 1785 935.45 1785 936 1785 936.55 1783.88 937 1782.5 937 1779.9 937 1779.07 935.497 1781.25 934.72 1781.94 934.475 1782.17 933.923 1781.77 933.494 1781.38 933.066 1780.36 933.284 1779.52 933.98 1778.26 935.029 1778 934.954 1778 933.543 1778 932.182 1777.41 931.97 1775.08 932.483 1772.58 933.031 1772.11 932.799 1771.83 930.897 1771.55 929.025 1771.31 928.9 1770.31 930.11M1356 933C1356 935.329 1359.47 935.81 1360.32 933.598 1361 931.841 1360.19 931 1357.83 931 1356.67 931 1356 931.727 1356 933M1500 933.031C1500 934.114 1499.62 935 1499.15 935 1498.68 935 1497.15 936.012 1495.75 937.25 1494.35 938.488 1490.69 941.525 1487.61 944 1482.66 947.979 1480.54 951.023 1482.75 950.988 1483.16 950.982 1487.55 947.607 1492.5 943.49 1497.45 939.372 1501.84 936.002 1502.25 936.001 1503.66 935.999 1503.01 932.216 1501.5 931.638 1500.48 931.247 1500 931.692 1500 933.031M1528 931.701C1528 932.174 1529.46 933.188 1531.25 933.953 1533.04 934.719 1534.84 935.53 1535.25 935.756 1535.66 935.982 1536 935.481 1536 934.642 1536 932.801 1535.44 932.438 1531.25 931.538 1529.46 931.155 1528 931.228 1528 931.701M1425.18 934.5C1424.1 935.875 1422.71 937 1422.11 937 1420.74 937 1420.63 940.655 1421.97 941.482 1422.51 941.812 1423.23 940.938 1423.58 939.541 1423.93 938.143 1424.77 937 1425.43 937 1426.1 937 1427.71 935.875 1429 934.5 1431.31 932.038 1431.32 932 1429.25 932 1428.09 932 1426.26 933.125 1425.18 934.5M1482.39 934.239C1481.3 935.483 1478.29 938.258 1475.7 940.407 1471.54 943.863 1469.61 947.073 1471.75 946.961 1472.16 946.939 1475.65 944.042 1479.5 940.524 1484.46 935.993 1486.19 933.813 1485.44 933.053 1484.69 932.29 1483.8 932.634 1482.39 934.239M1517.24 933.25C1517.47 933.938 1518.63 934.644 1519.82 934.819 1521.45 935.058 1521.84 934.743 1521.39 933.569 1520.68 931.713 1516.64 931.402 1517.24 933.25M1561.6 933.59C1560.92 935.363 1561.62 937 1563.06 937 1563.58 937 1564 935.875 1564 934.5 1564 931.703 1562.54 931.149 1561.6 933.59M1577.38 934.373C1577.87 936.322 1577.26 937.239 1573.99 939.509 1571.79 941.029 1570 942.886 1570 943.636 1570 945.685 1570.86 945.346 1575.9 941.314 1578.43 939.287 1580.69 937.489 1580.91 937.318 1581.14 937.148 1580.81 935.882 1580.18 934.504 1578.71 931.276 1576.58 931.176 1577.38 934.373M1608.23 933.188C1608.85 935.042 1611 935.349 1611 933.583 1611 932.712 1610.29 932 1609.42 932 1608.55 932 1608.01 932.534 1608.23 933.188M1546.5 934C1545.42 935.749 1547.02 937.227 1548.59 935.926 1549.36 935.282 1550 934.36 1550 933.878 1550 932.672 1547.26 932.768 1546.5 934M1621 935.122C1621 936.896 1621.25 937.04 1622.5 936 1623.32 935.315 1624 934.36 1624 933.878 1624 933.395 1623.32 933 1622.5 933 1621.64 933 1621 933.902 1621 935.122M1604.27 936.75C1603.9 937.712 1602.68 939.273 1601.55 940.217 1600.01 941.505 1599.88 941.937 1601 941.949 1601.82 941.958 1603.43 940.961 1604.57 939.733 1607.79 936.254 1608.31 935 1606.53 935 1605.65 935 1604.64 935.788 1604.27 936.75M1773.5 938C1773.02 938.783 1772.44 938.841 1771.77 938.174 1771.22 937.624 1771.1 936.646 1771.5 936 1771.98 935.217 1772.56 935.159 1773.23 935.826 1773.78 936.376 1773.9 937.354 1773.5 938M1541.95 937.563C1540.76 938.994 1540.87 939.15 1542.84 938.846 1544.07 938.656 1545.09 938.061 1545.11 937.525 1545.18 935.842 1543.36 935.864 1541.95 937.563M1525.99 939.25C1522.38 941.713 1520.21 944.547 1521.2 945.534 1521.88 946.214 1531.85 938.991 1531.94 937.75 1532.05 936.314 1529.27 937.015 1525.99 939.25M1557.34 938.543C1557.02 939.392 1557.02 940.356 1557.35 940.686 1558.22 941.55 1561.08 938.944 1560.43 937.887 1559.58 936.506 1558 936.842 1557.34 938.543M1778.95 939.563C1777.61 941.176 1774.93 940.341 1775.63 938.528 1775.91 937.793 1776.98 937.445 1778.09 937.733 1779.58 938.122 1779.78 938.559 1778.95 939.563M1745.69 939.908C1745.96 940.957 1747.12 942.059 1748.26 942.357 1749.94 942.796 1750.1 943.172 1749.13 944.346 1748.47 945.142 1747.04 945.563 1745.96 945.28 1744.88 944.996 1744 945.266 1744 945.883 1744 946.498 1744.45 947 1745 947 1745.55 947 1746 947.45 1746 948 1746 948.55 1745.32 949 1744.5 949 1743.5 949 1743 950 1743 952 1743 955.326 1742.34 955.601 1738.86 953.721 1732.89 950.492 1732 949.522 1732 946.259 1732 943.132 1732.16 943 1735.94 943 1738.11 943 1740.16 943.45 1740.5 944 1741.76 946.045 1743.21 944.97 1742.58 942.454 1742.23 941.054 1742.2 939.479 1742.53 938.954 1743.5 937.377 1745.16 937.875 1745.69 939.908M1537.34 940.543C1537.02 941.392 1537.02 942.356 1537.35 942.686 1538.22 943.55 1541.08 940.944 1540.43 939.887 1539.58 938.506 1538 938.842 1537.34 940.543M1785 940.878C1785 941.36 1784.42 942.234 1783.72 942.82 1782.16 944.108 1779.45 942.697 1780.43 941.112 1781.24 939.799 1785 939.606 1785 940.878M1551.72 944.29C1548.81 947.653 1548.34 949 1550.09 949 1550.7 949 1551.42 948.105 1551.71 947.011 1551.99 945.917 1552.6 945.255 1553.06 945.539 1553.52 945.823 1554.37 945.171 1554.95 944.089 1556.71 940.812 1554.61 940.942 1551.72 944.29M1775.8 942.2C1777.27 943.673 1777.37 946 1775.97 946 1774.17 946 1769.99 942.821 1770.57 941.891 1771.36 940.613 1774.39 940.793 1775.8 942.2M1532 944.5C1532 945.325 1532.68 946 1533.5 946 1534.32 946 1535 945.325 1535 944.5 1535 943.675 1534.32 943 1533.5 943 1532.68 943 1532 943.675 1532 944.5M1328 945.047C1328 945.661 1329.52 948.039 1331.38 950.332 1333.24 952.624 1335.07 955.512 1335.45 956.75 1336.54 960.321 1338.26 959.465 1337.45 955.75 1337.07 953.962 1336.46 952.275 1336.1 952 1335.74 951.725 1334.68 950.278 1333.73 948.785 1331.76 945.69 1328 943.237 1328 945.047M1643.67 944.667C1643.3 945.033 1643 946.888 1643 948.789 1643 951.748 1643.22 952.066 1644.5 951 1645.32 950.315 1646 948.46 1646 946.878 1646 944.118 1645.08 943.25 1643.67 944.667M1364 945.706C1362.05 946.419 1358 950.111 1358 951.174 1358 951.628 1358.68 952 1359.5 952 1360.32 952 1361 951.658 1361 951.241 1361 950.823 1361.89 949.928 1362.97 949.252 1364.8 948.107 1364.92 948.272 1364.72 951.652 1364.47 955.7 1366.44 957.332 1367.51 953.968 1368.27 951.573 1367.3 944.956 1366.2 945.079 1365.82 945.122 1364.82 945.405 1364 945.706M1468.41 947.376C1467.56 949.584 1468.69 950.711 1470.22 949.183 1471.12 948.281 1471.12 947.722 1470.23 946.833 1469.34 945.943 1468.91 946.072 1468.41 947.376M1250.05 956.673C1244.85 960.904 1241.11 964.538 1241.75 964.749 1242.38 964.96 1246.86 962.163 1251.7 958.535L1260.5 951.937 1266 952.567C1272.93 953.361 1285 956.836 1287.08 958.635 1288.83 960.152 1291 960.45 1291 959.174 1291 955.768 1277.22 950.724 1264.5 949.472 1259.51 948.981 1259.49 948.992 1250.05 956.673M1427.5 951.265C1428.17 951.94 1427.68 952.067 1426 951.65 1424.62 951.307 1421.81 951.021 1419.75 951.014 1417.69 951.006 1416 950.571 1416 950.047 1416 948.828 1426.15 949.902 1427.5 951.265M1682.53 951.615C1683.89 952.503 1685 953.765 1685 954.419 1685 956.491 1678.68 961.799 1673.67 963.938 1667.9 966.4 1668 966.39 1668 964.5 1668 962.417 1665.92 962.613 1665.35 964.75 1664.84 966.673 1653.52 971.978 1649.8 972.035 1648.53 972.055 1646.38 972.714 1645 973.5 1641.79 975.336 1639 975.386 1639 973.607 1639 971.869 1636.83 971 1632.48 971 1630.63 971 1628.84 970.543 1628.49 969.985 1627.83 968.923 1621.46 966 1619.79 966 1617.59 966 1619.85 968.35 1623.04 969.383 1627.23 970.736 1627.62 973.448 1623.95 975.677 1621.59 977.104 1621.04 977.066 1616.95 975.196 1614.5 974.079 1610.75 971.977 1608.62 970.525 1604.92 968.004 1602 967.759 1602 969.969 1602 970.536 1603.12 971 1604.5 971 1605.88 971 1607 971.473 1607 972.051 1607 972.629 1608.62 973.778 1610.59 974.604 1613.79 975.941 1614.12 976.402 1613.51 978.801 1612.6 982.424 1612.53 982.465 1607.18 982.544 1604.61 982.582 1601.79 982.946 1600.91 983.351 1600.04 983.757 1597.36 984.181 1594.95 984.295 1591.08 984.476 1590.43 984.185 1589.24 981.75 1587.67 978.538 1586.43 978.235 1585.74 980.891 1585.32 982.503 1584.56 982.705 1580.62 982.261 1575.62 981.697 1574.01 983.463 1578.5 984.589 1579.88 984.934 1581 985.758 1581 986.42 1581 988.588 1576.98 991.996 1574.21 992.174 1567.09 992.631 1565.1 992.963 1559.75 994.586 1553.62 996.445 1551.04 995.765 1554.75 993.269 1555.99 992.437 1557 991.361 1557 990.878 1557 989.079 1554.49 990.098 1551.3 993.197 1548.65 995.762 1546.86 996.526 1542.25 997.057 1539.09 997.421 1536.29 997.537 1536.04 997.315 1535.79 997.093 1536.87 995.881 1538.45 994.621 1540.03 993.362 1541.02 991.837 1540.64 991.233 1540.21 990.534 1538.65 991.342 1536.35 993.45 1532.32 997.14 1527.23 999.016 1521.38 998.968 1517.94 998.94 1517.7 998.786 1519.25 997.608 1520.21 996.877 1521 995.582 1521 994.729 1521 992.687 1515.37 988 1512.92 988 1511.86 988 1511 987.536 1511 986.969 1511 986.401 1510.22 985.639 1509.27 985.274 1508.32 984.909 1506.48 983.348 1505.18 981.805 1502.94 979.144 1500 978.027 1500 979.839 1500 981.265 1507.66 987.857 1511.87 990.05 1517.93 993.208 1518.93 994.829 1516.19 997.05 1513.92 998.887 1503.3 1001.63 1502.3 1000.64 1502.01 1000.34 1503.03 999.018 1504.57 997.693L1507.37 995.283 1502.94 992.038C1500.5 990.253 1497.95 988.573 1497.29 988.304 1496.62 988.035 1493.49 985.405 1490.32 982.459 1484.25 976.807 1484.26 976.691 1491.11 975.559 1493.7 975.131 1495.08 975.395 1495.99 976.492 1497.1 977.822 1497.41 977.833 1498.38 976.575 1499.2 975.512 1502.69 974.988 1511.5 974.605 1524.07 974.058 1526.2 973.971 1528.25 973.923 1528.94 973.907 1532.33 973.652 1535.79 973.356 1540.04 972.993 1542.56 973.221 1543.57 974.058 1544.79 975.067 1545.32 974.95 1546.43 973.428 1547.51 971.946 1549.32 971.506 1555.15 971.3 1559.19 971.157 1565.66 970.397 1569.53 969.612 1573.4 968.827 1577.67 968.21 1579.03 968.243 1580.39 968.275 1587.57 967.286 1595 966.045 1602.43 964.804 1609.38 963.815 1610.45 963.847 1611.53 963.88 1612.88 963.526 1613.45 963.062 1614.53 962.19 1618.35 961.403 1635.5 958.521 1641 957.596 1649.32 955.997 1654 954.968 1658.68 953.939 1664.97 952.793 1668 952.422 1671.03 952.051 1674.4 951.382 1675.5 950.937 1678.51 949.716 1679.83 949.844 1682.53 951.615M1757.88 950.75C1757.82 951.163 1757.82 951.837 1757.88 952.25 1757.95 952.663 1757.56 953 1757.03 953 1753.7 953 1760.77 958.744 1774.87 967.5 1775.76 968.05 1779.19 970.497 1782.49 972.939 1787.36 976.532 1789.43 977.435 1793.4 977.68 1798.26 977.981 1798.28 977.97 1796.46 975.954 1795.14 974.493 1793.88 974.087 1791.97 974.507 1789.13 975.13 1786.71 973.267 1787.22 970.855 1787.4 970 1786.58 969.5 1785 969.5 1783.17 969.5 1782.58 969.028 1782.79 967.75 1782.97 966.712 1782.46 966 1781.54 966 1780.7 966 1780 965.52 1780 964.933 1780 964.319 1779.15 964.136 1777.99 964.502 1776.64 964.93 1775.79 964.607 1775.37 963.511 1775.02 962.617 1774.16 962.108 1773.45 962.379 1772.74 962.651 1771.92 962.227 1771.61 961.437 1771.31 960.647 1770.18 960 1769.09 960 1768.01 960 1766.83 959.539 1766.48 958.975 1766.14 958.412 1766.22 958.074 1766.68 958.225 1767.13 958.376 1767.5 958.05 1767.5 957.5 1767.5 956.95 1766.35 956.63 1764.94 956.789 1762.09 957.11 1758.08 953.688 1759.95 952.53 1760.55 952.163 1760.77 951.443 1760.46 950.931 1759.77 949.816 1758.05 949.695 1757.88 950.75M1425 953.604 1428.5 954.186 1428.55 962.157C1428.6 969.716 1428.49 970.1 1426.55 969.578 1425.42 969.275 1423.55 969.021 1422.38 969.014 1420.79 969.003 1419.75 967.759 1418.19 964 1417.05 961.25 1415.64 959 1415.05 959 1413.27 959 1413.78 960.868 1418.31 970.75 1419.92 974.263 1417.47 978.004 1413.58 977.985 1409.2 977.964 1405.45 975.792 1405.74 973.442 1406.27 969.062 1406.71 967.797 1407.95 967.03 1409.58 966.022 1408.28 963.68 1406.47 964.372 1404.75 965.033 1403.4 963.287 1402.55 959.307 1401.89 956.211 1402 956.079 1406.18 955.003 1408.56 954.392 1410.95 953.727 1411.5 953.525 1413.12 952.928 1421.22 952.976 1425 953.604M1669 955.399C1669 955.619 1670.86 956.77 1673.14 957.957 1675.87 959.381 1677.62 959.779 1678.27 959.126 1678.93 958.474 1677.99 957.603 1675.51 956.568 1671.92 955.07 1669 954.545 1669 955.399M1439.37 958.726C1440.94 959.521 1442.44 960.981 1442.7 961.97 1443.02 963.18 1443.81 963.601 1445.12 963.258 1446.52 962.891 1448.47 964.183 1452.04 967.844 1454.77 970.647 1457 973.467 1457 974.11 1457 974.753 1457.6 975.779 1458.34 976.39 1460.02 977.772 1463.87 988.628 1463.88 992 1463.88 993.375 1464.18 995.928 1464.55 997.672 1465.06 1000.17 1464.76 1001.22 1463.1 1002.65 1461.95 1003.64 1461 1005.08 1461 1005.84 1461 1006.99 1461.28 1007.01 1462.52 1005.98 1464.46 1004.37 1465.08 1004.99 1464.34 1007.79 1463.42 1011.33 1460.38 1010.38 1456.55 1005.36 1454.6 1002.8 1453 1000.29 1453 999.774 1453 998.814 1447.98 992.248 1442.47 986 1440.54 983.816 1438.28 982.378 1436.45 982.175 1434.84 981.996 1431.64 980.308 1429.34 978.425 1427.04 976.541 1424.73 975 1424.2 975 1423.68 975 1422.73 974.378 1422.1 973.617 1420.52 971.715 1422.62 971.005 1427.77 971.696 1430.79 972.101 1432.07 972.851 1432.92 974.719 1433.84 976.749 1434.32 976.982 1435.51 975.994 1436.53 975.142 1439.49 974.966 1445.48 975.398 1452.4 975.897 1454 975.75 1454 974.615 1454 973.08 1450.25 972.219 1440 971.403 1436.43 971.118 1433.19 970.573 1432.8 970.193 1432.42 969.812 1431.79 966.438 1431.41 962.695L1430.71 955.89 1433.61 956.585C1435.2 956.968 1437.79 957.931 1439.37 958.726M1782 956.334C1782 956.851 1792.56 964 1793.32 964 1795.08 964 1793.7 961.825 1791.25 960.736 1789.74 960.064 1787.63 958.724 1786.56 957.757 1784.89 956.239 1782 955.338 1782 956.334M1259.7 958.497C1257.13 959.15 1252.74 961.105 1249.95 962.842 1247.15 964.579 1244.48 966 1244.02 966 1242.37 966 1239.05 972.708 1237.55 979.068 1235.46 987.928 1235.58 996.851 1237.86 1002.17 1239.85 1006.83 1254.26 1020.96 1257.03 1020.99 1257.87 1020.99 1259.6 1021.73 1260.87 1022.62 1265.24 1025.68 1283.72 1022.2 1289.51 1017.23 1293.22 1014.03 1298.75 1006.54 1300.88 1001.8 1304.95 992.785 1302.89 978.346 1296.61 971.905 1291.25 966.393 1283.73 961.401 1277.46 959.182 1270.85 956.844 1266.82 956.688 1259.7 958.497M1523.67 957.75C1522.82 959.176 1523.13 966.962 1524.06 967.539 1524.6 967.873 1525 965.761 1525 962.559 1525 957.268 1524.67 956.076 1523.67 957.75M1750.48 958.028C1749.92 958.936 1753.58 962.88 1755.07 962.967 1755.38 962.985 1757.18 964.396 1759.07 966.103 1768.11 974.279 1777.04 981 1778.86 981 1781.86 981 1782.38 979.269 1779.78 977.897 1778.53 977.235 1775.94 975.412 1774.02 973.847 1772.11 972.281 1769.75 971 1768.77 971 1766.69 971 1766.5 969.932 1768.25 968.064 1769.28 966.967 1769.08 966.83 1767.14 967.299 1765.45 967.707 1764.65 967.389 1764.31 966.185 1763.85 964.541 1753.74 957 1752 957 1751.51 957 1750.83 957.463 1750.48 958.028M1400.48 961.75C1400.86 963.813 1401.64 966.057 1402.2 966.737 1403.81 968.681 1402.32 971 1399.46 971 1397.33 971 1396.98 971.352 1397.5 972.988 1398.05 974.732 1397.78 974.905 1395.26 974.401 1393.3 974.011 1391.97 974.335 1391.07 975.414 1389.91 976.812 1390.18 977 1393.32 977 1398.24 977 1398.58 978.286 1394.56 981.811 1390.03 985.787 1387 986.724 1385.47 984.623 1384.81 983.73 1383.71 983 1383.02 983 1381.83 983 1381.94 984.462 1383.39 988 1383.74 988.854 1382.94 990.792 1381.54 992.5L1379.07 995.5 1379.04 991C1379.01 985.864 1380.32 980.182 1382.79 974.761 1384.48 971.061 1384.56 971.023 1390.41 971.011 1396.06 971 1396.24 970.923 1394.66 969.171 1391.96 966.189 1392.51 961.329 1395.75 959.572 1399.58 957.493 1399.69 957.545 1400.48 961.75M1714.54 958.931C1713.8 960.128 1715.68 961.313 1717.02 960.49 1718.14 959.799 1717.4 958 1716 958 1715.52 958 1714.86 958.419 1714.54 958.931M1475 963.917C1475 966.808 1475.42 968 1476.44 968 1477.48 968 1477.82 966.969 1477.65 964.319 1477.31 959.064 1475 958.712 1475 963.917M1279.06 963.104C1282.56 964.377 1287.01 967.148 1290.35 970.128 1305.33 983.475 1302.33 1004.99 1284 1015.74 1277.57 1019.51 1270.02 1021.13 1266.91 1019.41 1265.59 1018.67 1263.5 1018.05 1262.27 1018.04 1259.43 1017.99 1249.39 1011.6 1246.05 1007.71 1240.47 1001.2 1239.01 997.792 1239.01 991.25 1239 987.747 1239.44 985 1240 985 1240.55 985 1241.01 986.913 1241.02 989.25 1241.04 995.68 1242.99 999.965 1248.55 1005.75 1251.32 1008.64 1253.93 1011 1254.36 1011 1254.79 1011 1256.57 1012.08 1258.32 1013.39 1260.46 1015.01 1263.52 1016.02 1267.7 1016.49L1273.9 1017.18 1272.71 1014.67C1271.84 1012.81 1271.19 1012.42 1270.27 1013.19 1268.78 1014.43 1267.66 1012.26 1268.17 1009.09 1268.49 1007.09 1268.59 1007.1 1271.75 1009.59 1273.54 1010.99 1275 1013.01 1275 1014.07 1275 1016.37 1274.76 1016.35 1279.75 1014.59 1281.95 1013.81 1286.24 1010.86 1289.28 1008.03 1294.4 1003.27 1294.9 1002.39 1295.93 996.491 1297.05 990.078 1296.57 983.225 1294.75 979.5 1292.53 974.956 1283.67 967.124 1279.29 965.83 1276.87 965.115 1274.17 963.735 1273.29 962.765 1271.23 960.496 1272.04 960.543 1279.06 963.104M1632.5 962.007C1632.15 962.561 1632.6 963.292 1633.48 963.631 1635.39 964.365 1636.46 963.556 1635.54 962.067 1634.71 960.723 1633.31 960.696 1632.5 962.007M1660.54 961.931C1660.23 962.443 1660.43 963.144 1660.98 963.49 1662.18 964.227 1664 963.291 1664 961.941 1664 960.724 1661.29 960.716 1660.54 961.931M1747 962.071C1747 963.405 1759.32 977.096 1762.06 978.807 1763.71 979.833 1764.33 979.808 1765.47 978.668 1767.16 976.983 1765.66 975 1762.69 975 1761.43 975 1760.97 974.506 1761.35 973.532 1761.66 972.725 1761.48 971.798 1760.96 971.473 1760.43 971.148 1760 971.461 1760 972.169 1760 972.877 1758.7 971.891 1757.12 969.978 1750.21 961.65 1747 959.142 1747 962.071M1261.5 963C1261.16 963.55 1260.01 964 1258.94 964 1257.87 964 1257 963.55 1257 963 1257 962.45 1258.15 962 1259.56 962 1261.01 962 1261.85 962.433 1261.5 963M1386.78 963.491C1386.93 963.615 1386.17 964.793 1385.09 966.108 1383.49 968.055 1382.79 968.295 1381.31 967.398 1380.32 966.792 1379.35 965.302 1379.17 964.088 1378.87 962.042 1379.13 961.931 1382.67 962.573 1384.78 962.954 1386.62 963.367 1386.78 963.491M1396 963.417C1396 964.288 1396.71 965 1397.58 965 1399.35 965 1399.04 962.847 1397.19 962.229 1396.53 962.011 1396 962.546 1396 963.417M1638 964.056C1638 964.61 1638.79 965.306 1639.75 965.604 1640.71 965.902 1642.28 966.563 1643.24 967.073 1644.19 967.583 1645.66 968 1646.5 968 1647.34 968 1648.9 968.545 1649.97 969.212 1652.34 970.694 1653.74 969.599 1652.06 967.575 1650.05 965.155 1638 962.139 1638 964.056M1254 964.813C1254 965.26 1252.65 966.922 1250.99 968.506 1248.89 970.525 1247.67 971.071 1246.93 970.333 1246.2 969.595 1246.82 968.489 1249.02 966.64 1252.18 963.98 1254 963.312 1254 964.813M1273.29 966.073 1275.5 968.146 1272.74 967.461C1271.15 967.068 1269.41 967.247 1268.64 967.885 1267.63 968.723 1266.88 968.528 1265.58 967.084 1263.94 965.273 1263.94 965.152 1265.68 964.704 1269.4 963.74 1271.14 964.052 1273.29 966.073M1391 965.941C1391 968.127 1389.5 969.425 1388.02 968.513 1387.4 968.131 1387.49 967.184 1388.26 965.954 1389.82 963.46 1391 963.455 1391 965.941M1614.54 964.931C1613.8 966.128 1615.68 967.313 1617.02 966.49 1618.14 965.799 1617.4 964 1616 964 1615.52 964 1614.86 964.419 1614.54 964.931M1442 967C1442 968.949 1443.06 969.606 1444.26 968.402 1445.07 967.601 1444.02 965 1442.89 965 1442.4 965 1442 965.9 1442 967M1743.31 966.636C1742.96 967.536 1743.18 968.998 1743.8 969.886 1744.41 970.774 1746.31 973.918 1748.03 976.872 1750.34 980.843 1751.45 981.952 1752.28 981.123 1753.11 980.294 1752.76 978.799 1750.95 975.394 1749.6 972.86 1747.82 969.494 1747 967.915 1745.29 964.647 1744.22 964.274 1743.31 966.636M1263 967.55C1263 968.219 1263.99 969.026 1265.21 969.344 1266.42 969.661 1267.11 970.219 1266.75 970.584 1266.39 970.949 1265.28 970.885 1264.29 970.442 1263.31 969.999 1261.39 969.606 1260.02 969.569 1256.2 969.463 1256.14 966.333 1259.96 966.333 1261.68 966.333 1263 966.861 1263 967.55M1279.39 968.826C1280.29 970.278 1278.82 974 1277.35 974 1276.32 974 1276.18 973.517 1276.83 972.25 1277.32 971.288 1277.53 969.938 1277.28 969.25 1276.79 967.87 1278.58 967.511 1279.39 968.826M1276 970.75C1276 972.15 1271.42 972.48 1270.59 971.139 1269.78 969.838 1270.84 969.203 1273.56 969.359 1274.9 969.437 1276 970.063 1276 970.75M1256 972.594C1256 973.792 1255.6 973.855 1253.86 972.928 1252.21 972.044 1252.03 971.598 1253.07 970.958 1254.72 969.934 1256 970.645 1256 972.594M1286 974C1286 976.089 1282.57 978.471 1280.98 977.487 1279.54 976.598 1279.79 975 1281.36 975 1282.29 975 1282.56 974.17 1282.22 972.391 1281.77 969.991 1281.9 969.874 1283.86 970.926 1285.04 971.556 1286 972.939 1286 974M1582 971.417C1582 972.288 1582.71 973 1583.58 973 1585.35 973 1585.04 970.847 1583.19 970.229 1582.53 970.011 1582 970.546 1582 971.417M1243.13 978.462C1241.28 983.297 1239 985.639 1239 982.705 1239 980.866 1241.83 973.96 1243.35 972.094 1245.35 969.647 1245.23 972.961 1243.13 978.462M1408.6 972.589C1407.7 974.932 1407.77 975 1410.8 975 1412.34 975 1414.09 975.489 1414.69 976.087 1416.27 977.671 1417.19 975.61 1415.72 973.767 1413.85 971.429 1409.34 970.681 1408.6 972.589M1264.31 973.641C1264.66 973.993 1263 975.519 1260.61 977.033 1255.44 980.309 1253.79 984.165 1254.69 990.818 1255.27 995.075 1255.18 995.378 1253.69 994.15 1247.82 989.315 1254.11 973.552 1262.08 973.091 1262.95 973.041 1263.95 973.288 1264.31 973.641M1586.5 973.995C1585.84 975.075 1598.69 981.647 1599.63 980.706 1600.7 979.635 1599.11 978.356 1595.04 977.012 1592.8 976.274 1590.47 975.07 1589.86 974.335 1588.55 972.749 1587.35 972.627 1586.5 973.995M1252.5 975.833C1252.5 977.642 1250.54 977.312 1250.15 975.438 1249.94 974.395 1250.31 973.938 1251.15 974.218 1251.9 974.465 1252.5 975.192 1252.5 975.833M1277 976.889C1280.19 979.181 1283.97 985.754 1283.97 989 1283.97 996.497 1277.5 1005 1271.79 1005 1267.85 1005 1268.32 1003.82 1273.21 1001.47 1275.63 1000.3 1278.26 998.01 1279.38 996.083 1281.12 993.11 1281.21 992.219 1280.14 988.232 1278.67 982.741 1275.83 978.969 1271.94 977.331 1268.13 975.732 1267.99 973.544 1271.75 974.437 1273.26 974.796 1275.62 975.9 1277 976.889M1564 974.881C1564 976.496 1571.07 981.187 1572.61 980.595 1574.75 979.776 1573.34 978 1570.56 978 1569.07 978 1568.04 977.276 1567.71 976 1567.2 974.065 1564 973.099 1564 974.881M1231.97 977.565C1231.44 978.976 1231 980.345 1231 980.607 1231 981.352 1228.83 983.97 1224.86 988.011 1221.69 991.229 1220.4 991.81 1215.01 992.419 1211.6 992.805 1205.36 992.82 1201.13 992.451 1195.25 991.938 1192.59 992.146 1189.73 993.34 1185.31 995.184 1184.58 997.573 1188.75 996.526 1190.26 996.146 1197.16 995.881 1204.08 995.936 1218.09 996.048 1223.13 994.661 1228.15 989.312 1231.24 986.018 1236.19 976.524 1235.29 975.622 1234.05 974.389 1232.93 975.047 1231.97 977.565M1421.92 978.187C1422.75 980.592 1423.31 981.091 1424.18 980.222 1425.65 978.755 1427.92 981.476 1427.97 984.75 1428.01 987.707 1426.6 987.619 1425.22 984.577 1424.61 983.244 1423.07 982.007 1421.81 981.827 1420.02 981.574 1419.43 980.767 1419.19 978.25 1418.79 974.084 1420.47 974.045 1421.92 978.187M1481.52 976.765C1482.09 977.169 1483.29 978.674 1484.2 980.109 1485.11 981.544 1489.72 985.574 1494.43 989.065 1499.14 992.555 1503 995.717 1503 996.091 1503 996.464 1500.28 998.161 1496.96 999.86 1492.54 1002.12 1489.33 1003.01 1484.96 1003.19 1481.68 1003.32 1479 1003.73 1479 1004.1 1479 1004.48 1477.24 1005.49 1475.08 1006.35 1472.93 1007.21 1470.88 1008.39 1470.53 1008.96 1470.17 1009.53 1469.29 1010 1468.56 1010 1466.85 1010 1467.66 1000.96 1469.5 999.471 1470.52 998.654 1470.39 997.964 1468.89 996.111 1467.85 994.828 1467 992.994 1467 992.036 1467 991.078 1465.88 987.192 1464.5 983.401 1463.12 979.61 1462 976.394 1462 976.254 1462 975.624 1480.61 976.111 1481.52 976.765M1514 977.375C1514 978.82 1517.59 982 1519.22 982 1520.94 982 1519.83 980.018 1517 978 1514.6 976.29 1514 976.166 1514 977.375M1548.5 976.993C1548.17 977.542 1549.04 978.516 1550.44 979.156 1551.85 979.797 1553 980.666 1553 981.087 1553 982.064 1558.83 985 1560.78 985 1563.15 985 1560.61 982.612 1556.55 981.019 1554.6 980.253 1553 979.277 1553 978.849 1553 977.475 1549.18 975.898 1548.5 976.993M1249.58 979.137C1249.97 979.768 1249.22 981.145 1247.89 982.23 1246.27 983.559 1246.06 984.006 1247.25 983.624 1248.65 983.175 1249 983.657 1249 986.031 1249 987.664 1248.52 989 1247.94 989 1247.36 989 1247.22 989.54 1247.62 990.2 1248.03 990.859 1248.41 992.422 1248.46 993.672 1248.52 994.922 1249.6 996.91 1250.86 998.089 1253.91 1000.92 1252.24 1002.86 1248.73 1000.56 1246.04 998.794 1242.85 990.282 1243.28 986 1243.55 983.295 1246.71 978 1248.06 978 1248.51 978 1249.2 978.512 1249.58 979.137M1288.8 982.648C1291.42 986.242 1291.86 987.463 1290.93 988.586 1289.33 990.514 1288.01 990.363 1287.98 988.25 1287.97 987.288 1287.08 985.375 1286 984 1284.06 981.521 1283.31 977.943 1284.75 978.062 1285.16 978.096 1286.99 980.16 1288.8 982.648M1448.88 979.75C1449.95 981.706 1459.46 991 1460.4 991 1462.28 991 1460.35 987.789 1455.72 983.216 1450.43 977.996 1446.97 976.242 1448.88 979.75M1467.01 980.75C1470.83 985.632 1490.01 999.805 1489.98 997.728 1489.96 995.938 1488.78 994.449 1486.4 993.193 1485.24 992.584 1482.48 990.604 1480.26 988.793 1478.04 986.982 1474.77 984.375 1473.01 983 1471.24 981.625 1469.2 979.938 1468.47 979.25 1465.96 976.879 1464.86 978.006 1467.01 980.75M1370.61 981.582C1369.58 984.244 1369.93 986 1371.46 986 1373.19 986 1375.36 982.393 1374.49 980.979 1373.55 979.468 1371.28 979.82 1370.61 981.582M1268 983.929C1268 988.334 1261.72 990.858 1260.48 986.952 1259.6 984.173 1261.64 982 1265.12 982 1267.3 982 1268 982.471 1268 983.929M1521.22 983.154C1521.74 984.712 1523.97 984.984 1524.05 983.5 1524.08 982.95 1523.35 982.345 1522.44 982.154 1521.4 981.939 1520.94 982.313 1521.22 983.154M1539.6 982.841C1538.93 983.926 1544.75 988.251 1546.22 987.761 1546.83 987.557 1546.03 986.177 1544.43 984.695 1541.34 981.836 1540.44 981.487 1539.6 982.841M1434.24 985.992C1434.09 987.242 1434.77 988.864 1435.74 989.6 1437.35 990.821 1437.27 990.939 1434.81 990.968 1433.33 990.986 1431.84 991.45 1431.5 992 1430.65 993.374 1429 993.26 1429 991.828 1429 991.183 1429.79 988.945 1430.75 986.856 1432.63 982.777 1434.67 982.272 1434.24 985.992M1275.84 987.547C1277.22 990.579 1277.34 993.669 1276.11 994.43 1274.86 995.204 1272.69 992.317 1273.51 990.977 1273.89 990.367 1273.41 989.29 1272.45 988.585 1271.48 987.88 1271.02 986.785 1271.41 986.152 1272.6 984.224 1274.61 984.859 1275.84 987.547M1438.22 988.183C1436.69 989.711 1435.56 988.584 1436.41 986.376 1436.91 985.072 1437.34 984.943 1438.23 985.833 1439.12 986.722 1439.12 987.281 1438.22 988.183M1526 985.953C1526 986.998 1534.43 991 1536.63 991 1539.3 991 1537.95 989.372 1533.47 987.199 1528.64 984.849 1526 984.41 1526 985.953M1564.26 986.69C1565.19 987.62 1566.23 988.1 1566.58 987.757 1567.56 986.773 1566.05 985 1564.23 985 1562.7 985 1562.7 985.132 1564.26 986.69M1568 987.409C1568 988.149 1568.68 989.315 1569.5 990 1570.75 991.037 1571 990.908 1571 989.229 1571 988.121 1570.32 986.955 1569.5 986.638 1568.62 986.302 1568 986.623 1568 987.409M1405.02 987.75C1405.03 988.163 1405.91 989.625 1406.97 991 1408.41 992.876 1409.18 993.215 1410.04 992.357 1411.66 990.742 1409.51 987 1406.96 987 1405.88 987 1405.01 987.337 1405.02 987.75M1548.56 987.895C1548.26 988.388 1548.57 988.996 1549.26 989.248 1551.01 989.892 1553.12 989.009 1552.45 987.915 1551.72 986.743 1549.29 986.731 1548.56 987.895M1293.62 992.125C1293.28 993.844 1293 995.924 1293 996.747 1293 997.965 1292.72 998.012 1291.5 997 1289.68 995.485 1289.59 993.622 1291.24 990.986 1293.1 988.006 1294.33 988.594 1293.62 992.125M1442.75 990.75C1443.01 991.532 1442.21 992 1440.61 992 1438.72 992 1438.22 991.6 1438.66 990.451 1439.34 988.678 1442.13 988.882 1442.75 990.75M1268.67 991.563C1268.83 992.078 1268.54 993.171 1268.03 993.992 1266.77 995.985 1264.47 993.82 1265.37 991.484 1266.01 989.806 1268.13 989.856 1268.67 991.563M1261.85 996.866C1260.26 997.423 1257.66 994.368 1258.53 992.96 1259.07 992.073 1259.79 992.397 1261.09 994.114 1262.17 995.53 1262.47 996.649 1261.85 996.866M1287.4 995.561C1286.97 997.256 1287.2 998 1288.15 998 1288.9 998 1290.05 998.848 1290.7 999.885 1291.68 1001.45 1291.49 1002.13 1289.61 1003.89 1287 1006.35 1285.78 1005.72 1286.63 1002.35 1286.99 1000.91 1286.77 1000 1286.08 1000 1284.31 1000 1283.81 997.62 1284.96 994.612 1286.21 991.316 1288.26 992.114 1287.4 995.561M1441.4 994.71C1444.71 994.173 1445 994.323 1445 996.563 1445 997.903 1444.55 999 1444 999 1443.45 999 1443 998.255 1443 997.345 1443 995.834 1442.85 995.827 1441.25 997.269 1439.8 998.576 1439.2 998.627 1437.75 997.563 1436.79 996.857 1436.01 995.429 1436.02 994.39 1436.03 992.906 1436.22 992.8 1436.92 993.897 1437.53 994.87 1438.89 995.117 1441.4 994.71M1272.52 996.925C1271.8 999.209 1270 999.762 1270 997.7 1270 996.277 1272.12 993.787 1272.78 994.441 1273 994.666 1272.89 995.783 1272.52 996.925M1434.33 996.417C1434.63 997.197 1434.23 998.083 1433.44 998.386 1432.49 998.75 1432 998.269 1432 996.969 1432 994.693 1433.53 994.331 1434.33 996.417M1257 997.276C1257 997.978 1258.89 999.44 1261.21 1000.53 1263.52 1001.61 1265.58 1003.06 1265.79 1003.75 1266.47 1006 1262.39 1005.07 1258.15 1001.99 1254 998.986 1252.68 996 1255.5 996 1256.32 996 1257 996.574 1257 997.276M1449.45 1002.14C1449.13 1003.16 1449.25 1004 1449.71 1004 1450.18 1004 1451.18 1006.14 1451.93 1008.75 1452.68 1011.36 1453.73 1014.06 1454.26 1014.74 1455.55 1016.39 1457 1015.38 1457 1012.83 1457 1011.38 1457.46 1010.96 1458.58 1011.39 1459.45 1011.73 1461.1 1012 1462.24 1012 1464.18 1012 1464.21 1012.11 1462.66 1013.83 1461.74 1014.83 1461 1016.9 1461 1018.41 1461 1020.42 1459.46 1022.7 1455.25 1026.91 1445.13 1037.03 1437.05 1041.3 1423.67 1043.61 1412.96 1045.46 1409.34 1044.81 1399.27 1039.24L1392.5 1035.5 1401.5 1034.95C1412.14 1034.31 1414.01 1033.58 1420.19 1027.62 1426.51 1021.54 1431.02 1013.21 1431.73 1006.32 1432.33 1000.55 1433.9 998.836 1436.88 1000.69 1437.77 1001.24 1440.19 1001.55 1442.25 1001.39 1444.31 1001.22 1446 1001.52 1446 1002.04 1446 1002.57 1444.79 1003 1443.31 1003 1440.19 1003 1436 1006.53 1436 1009.17 1436 1011.78 1437.67 1011.43 1439.65 1008.41 1440.94 1006.45 1441.99 1005.92 1444.05 1006.22 1446.54 1006.59 1446.75 1006.35 1446.79 1003.06 1446.84 997.742 1446.88 997.654 1448.52 999.019 1449.4 999.748 1449.8 1001.07 1449.45 1002.14M1176.2 1003.75C1179 1010.11 1183.94 1017.62 1188.53 1022.5 1193.78 1028.07 1206.77 1050.56 1205.49 1051.84 1204.76 1052.57 1195.79 1043.67 1191.03 1037.5 1182.99 1027.1 1174.88 1011.48 1172.47 1001.75 1171.32 997.148 1173.91 998.532 1176.2 1003.75M1572.2 1000.67C1570.38 1001.43 1568.49 1001.8 1567.99 1001.5 1567.5 1001.19 1566.59 1001.9 1565.96 1003.07 1564.93 1005 1565.04 1005.13 1567.16 1004.56 1574 1002.72 1577 1001.6 1577 1000.9 1577 999.373 1575.46 999.298 1572.2 1000.67M1171 1004.02C1171 1005.07 1171.95 1008.46 1173.11 1011.56 1174.54 1015.38 1174.89 1017.51 1174.19 1018.21 1172.45 1019.95 1171.21 1018.2 1170.5 1013 1170.12 1010.25 1169.48 1007.8 1169.07 1007.55 1168.67 1007.29 1168.53 1005.72 1168.78 1004.05 1169.25 1000.83 1171 1000.81 1171 1004.02M1255 1002.88C1255 1004.18 1252.42 1006.08 1251.67 1005.33 1250.92 1004.58 1252.82 1002 1254.12 1002 1254.6 1002 1255 1002.4 1255 1002.88M1284 1003.92C1284 1004.42 1284.3 1005.62 1284.67 1006.58 1285.13 1007.77 1284.97 1008.1 1284.17 1007.6 1283.48 1007.18 1283 1007.48 1283 1008.32 1283 1009.11 1282.32 1010.32 1281.5 1011 1280.26 1012.03 1280 1011.92 1280 1010.32 1280 1009.27 1280.5 1007.9 1281.11 1007.29 1281.72 1006.67 1281.9 1005.64 1281.49 1004.98 1281.01 1004.21 1280.22 1004.89 1279.23 1006.95 1278.27 1008.92 1277.35 1009.75 1276.76 1009.16 1275.22 1007.62 1278.87 1003 1281.61 1003 1282.93 1003 1284 1003.41 1284 1003.92M1258.45 1007.75C1258.83 1008.99 1258.71 1010 1258.19 1010 1256.5 1010 1254.76 1007.07 1255.42 1005.35 1256.17 1003.41 1257.45 1004.42 1258.45 1007.75M1264.12 1008.25C1264.18 1008.94 1264.16 1010.06 1264.07 1010.75 1263.98 1011.44 1264.47 1012 1265.16 1012 1266.07 1012 1266.1 1012.3 1265.29 1013.11 1264.08 1014.32 1261.64 1013.39 1262.48 1012.04 1262.76 1011.58 1262.27 1010.93 1261.38 1010.59 1260.08 1010.09 1260.01 1009.69 1261.01 1008.49 1262.52 1006.67 1263.96 1006.56 1264.12 1008.25M1471.46 1017.34C1474.1 1021.85 1474.48 1025.58 1473.13 1034L1472.41 1038.5 1470.21 1034.29C1468.99 1031.97 1467.99 1029.27 1467.98 1028.29 1467.97 1027.3 1467.08 1025.38 1466 1024 1463.83 1021.22 1463.47 1017.86 1465.04 1014.93 1466.67 1011.88 1468.71 1012.65 1471.46 1017.34M1180.06 1026.27C1181.48 1028.88 1184.76 1033.48 1187.37 1036.51 1190.21 1039.8 1191.53 1042 1190.66 1042 1187.19 1042 1174 1026.15 1174 1021.98 1174 1019.29 1177.71 1021.92 1180.06 1026.27M1362.38 1029.12C1364.17 1038.1 1361.79 1045.26 1353.69 1055.3 1346.52 1064.18 1340.03 1069.45 1330.01 1074.49 1321.06 1079 1313.31 1079.26 1301.18 1075.44 1292.26 1072.63 1290.87 1071.54 1293.63 1069.53 1295.17 1068.41 1295.9 1068.42 1298.18 1069.59 1299.68 1070.37 1301.99 1071 1303.32 1071 1304.66 1071 1307.72 1071.7 1310.12 1072.55 1315.18 1074.33 1326.92 1075 1326.94 1073.5 1326.95 1072.95 1326.18 1072.48 1325.23 1072.45 1321.47 1072.34 1313.37 1070.82 1311 1069.79 1309.62 1069.19 1306.72 1068.51 1304.54 1068.28 1302.35 1068.05 1299.88 1067.47 1299.04 1067 1297.7 1066.25 1297.74 1066.04 1299.32 1065.43 1300.32 1065.05 1301.64 1065.24 1302.27 1065.87 1303.93 1067.53 1304.88 1067.25 1304.35 1065.25 1303.93 1063.63 1305.31 1063.5 1323.2 1063.5 1335.25 1063.5 1342.58 1063.12 1342.73 1062.5 1342.87 1061.89 1339.19 1061.49 1333.23 1061.48 1327.88 1061.48 1319.9 1061.35 1315.5 1061.21L1307.5 1060.95 1315.5 1056.85C1322.25 1053.39 1324.59 1052.7 1330.5 1052.46 1334.35 1052.3 1338.77 1051.68 1340.31 1051.08 1341.86 1050.49 1345.37 1050 1348.11 1050 1352.95 1050 1353.84 1049.61 1358.26 1045.56 1359.7 1044.24 1359.98 1043.49 1359.13 1043.21 1358.45 1042.98 1357.12 1043.49 1356.19 1044.33 1355.23 1045.2 1351.67 1046.13 1348.05 1046.47 1344.51 1046.8 1341.14 1047.45 1340.56 1047.91 1339.98 1048.36 1337.7 1049.03 1335.5 1049.39 1331.79 1050 1331.64 1049.94 1333.44 1048.52 1334.51 1047.69 1335.8 1047 1336.31 1047 1336.82 1047 1338.77 1045.65 1340.65 1044 1344.24 1040.85 1348.58 1040.13 1353.27 1041.91 1354.59 1042.41 1356.27 1042.45 1357 1042 1357.99 1041.39 1357.5 1040.67 1355.1 1039.2 1353.31 1038.12 1351.78 1037.01 1351.68 1036.73 1351.43 1036.02 1360.15 1026 1361.03 1026 1361.43 1026 1362.03 1027.41 1362.38 1029.12M1203.02 1032.82C1204.93 1033.83 1209.43 1035.67 1213 1036.91 1216.57 1038.16 1221.41 1039.85 1223.75 1040.67 1229.29 1042.62 1229.22 1044.6 1223.42 1049.57 1220.91 1051.73 1217.97 1055.19 1216.9 1057.25 1215.83 1059.31 1214.3 1061 1213.5 1061 1211.51 1061 1209.11 1057.09 1207.56 1051.31 1206.1 1045.93 1201.93 1036.68 1199.41 1033.25 1197.41 1030.52 1198.4 1030.41 1203.02 1032.82M1179.31 1034.8C1182.45 1038.08 1182.66 1038.99 1180.25 1039.01 1177.4 1039.03 1164 1035.69 1164 1034.96 1164 1034.24 1171.14 1032.32 1174.56 1032.12 1175.7 1032.05 1177.83 1033.26 1179.31 1034.8M1170 1039.65C1173.57 1040.49 1178.3 1041.31 1180.5 1041.47 1186.15 1041.88 1193.98 1046.17 1201.11 1052.77 1207.78 1058.94 1207.6 1060.85 1200.79 1056.26 1198.43 1054.67 1194.93 1052.65 1193 1051.78 1185.79 1048.51 1181.41 1046.76 1178.5 1045.98 1176.85 1045.54 1174.15 1044.69 1172.5 1044.1 1170.85 1043.51 1166.93 1042.34 1163.79 1041.5 1159.34 1040.31 1158.21 1039.62 1158.68 1038.4 1159.08 1037.35 1159.96 1037.05 1161.39 1037.48 1162.55 1037.83 1166.43 1038.8 1170 1039.65M1367.99 1043.17C1367.31 1046.1 1365.83 1049.51 1364.7 1050.75 1363.58 1051.98 1362.99 1053.32 1363.4 1053.73 1364.48 1054.81 1367.43 1050.48 1369.47 1044.8 1370.67 1041.48 1370.92 1039.52 1370.25 1038.85 1369.57 1038.17 1368.83 1039.59 1367.99 1043.17M1337.39 1040.88C1339.14 1041.57 1339.08 1041.79 1336.51 1043.81 1334.98 1045.02 1333.17 1046 1332.49 1046 1331.8 1046 1330.73 1046.62 1330.1 1047.38 1329.47 1048.14 1327.59 1049.03 1325.93 1049.36 1322.37 1050.08 1309.28 1056.48 1306.75 1058.74 1305.59 1059.79 1305 1059.91 1305 1059.1 1305 1055.04 1312.57 1046.75 1320 1042.68 1324.6 1040.15 1333.26 1039.26 1337.39 1040.88M1312 1044.65C1312 1045 1309.97 1047.46 1307.5 1050.1 1305.03 1052.75 1302.97 1055.5 1302.92 1056.21 1302.81 1058.19 1302.19 1061.14 1301.82 1061.52 1301.32 1062.01 1294 1059.61 1294 1058.95 1294 1057.64 1309.64 1044.11 1311.25 1044.04 1311.66 1044.02 1312 1044.29 1312 1044.65M1459.95 1047.08C1462.73 1047.68 1465 1048.54 1465 1049 1465 1049.46 1462.86 1050.59 1460.25 1051.52 1457.64 1052.44 1453.93 1053.83 1452 1054.61 1446.26 1056.91 1431.8 1061 1429.57 1060.95 1428.26 1060.92 1429.51 1059.91 1433 1058.18 1436.03 1056.68 1441.36 1053.33 1444.86 1050.73 1451.74 1045.61 1452.38 1045.46 1459.95 1047.08M1422.63 1062.7C1422.25 1063.09 1419.58 1063.7 1416.72 1064.06 1413.85 1064.42 1406.32 1065.49 1400 1066.43 1391.7 1067.67 1386.7 1067.92 1382.01 1067.32 1370.8 1065.9 1374.48 1064.52 1390.15 1064.26 1398.21 1064.12 1407.21 1063.61 1410.15 1063.12 1416.88 1062.01 1423.55 1061.78 1422.63 1062.7M1391.06 1072.57C1391.77 1073.43 1396.21 1076.78 1400.93 1080.02 1409.65 1086 1421.89 1097.44 1420.77 1098.56 1420.43 1098.9 1418.44 1098.01 1416.35 1096.59 1414.25 1095.17 1412.04 1094 1411.42 1094 1410.81 1094 1409.45 1093.04 1408.41 1091.87 1407.36 1090.7 1404.51 1088.88 1402.08 1087.83 1399.65 1086.78 1395.99 1084.42 1393.95 1082.58 1391.92 1080.74 1388.21 1078.03 1385.72 1076.57 1379.12 1072.71 1378.87 1071 1384.91 1071 1388.09 1071 1390.2 1071.54 1391.06 1072.57M1404.5 1092C1405.49 1093.1 1406.04 1094 1405.7 1094 1404.3 1094 1400 1091.61 1400 1090.84 1400 1089.29 1402.67 1089.98 1404.5 1092M1418 1101.25C1418 1102.39 1414.64 1100.48 1412.92 1098.37 1411.66 1096.83 1411.88 1096.85 1414.75 1098.53 1416.54 1099.57 1418 1100.8 1418 1101.25M1434.25 1109.42C1436.13 1110.56 1436.67 1114 1434.96 1114 1432.31 1114 1421 1105.36 1421 1103.34 1421 1101.96 1424.76 1103.69 1434.25 1109.42M1450.64 1117.02C1460.04 1121.58 1461 1122.29 1460.98 1124.77 1460.95 1130.62 1459.72 1130.67 1451.45 1125.16 1447.19 1122.32 1443.42 1120 1443.07 1120 1442.23 1120 1439 1114.51 1439 1113.1 1439 1111.45 1439.46 1111.6 1450.64 1117.02M1475.53 1131.11C1485.16 1136.73 1486 1137.46 1486 1140.23 1486 1143.02 1485.78 1143.21 1483.15 1142.68 1479.12 1141.87 1467.97 1135.16 1467.35 1133.16 1466.91 1131.74 1465.49 1128.41 1464.2 1125.75 1463.48 1124.27 1465.21 1125.09 1475.53 1131.11M1464 1131.12C1464 1132.22 1463.55 1132.84 1463 1132.5 1462.45 1132.16 1462 1130.98 1462 1129.88 1462 1128.78 1462.45 1128.16 1463 1128.5 1463.55 1128.84 1464 1130.02 1464 1131.12M1497.71 1143.13C1508.64 1148.92 1512 1151.61 1512 1154.55 1512 1156.31 1511.45 1157 1510.06 1157 1508.99 1157 1507.81 1156.5 1507.44 1155.9 1507.06 1155.29 1505.35 1154.15 1503.63 1153.36 1497.52 1150.57 1491.48 1146.92 1490.25 1145.28 1489.07 1143.71 1488.47 1139 1489.46 1139 1489.71 1139 1493.43 1140.86 1497.71 1143.13M1520.05 1157.56C1520.76 1158.42 1522.84 1159.74 1524.67 1160.51 1527.89 1161.85 1529.03 1164.25 1527.04 1165.48 1525.6 1166.37 1518.45 1161.29 1517.17 1158.46 1516.27 1156.51 1516.32 1156 1517.4 1156 1518.15 1156 1519.34 1156.7 1520.05 1157.56M1536.47 1165.96C1537.53 1167.14 1537.98 1168.62 1537.58 1169.65 1536.99 1171.18 1536.63 1171.09 1534.34 1168.79 1532.92 1167.37 1532.06 1165.71 1532.44 1165.1 1533.42 1163.51 1534.45 1163.73 1536.47 1165.96M1549.42 1173.42C1558.56 1178.63 1559.52 1179.42 1555.5 1178.41 1551.08 1177.31 1543.66 1173.39 1541.54 1171.05 1538.7 1167.91 1540.92 1168.58 1549.42 1173.42M1577.07 1185.84C1581.24 1187.95 1585.62 1189.93 1586.82 1190.24 1588.24 1190.61 1589 1191.59 1589 1193.06 1589 1195.11 1588.85 1195.18 1587.25 1193.8 1586.29 1192.96 1584.02 1191.79 1582.21 1191.18 1580.39 1190.57 1577.69 1189.21 1576.21 1188.15 1574.72 1187.09 1571.81 1185.53 1569.75 1184.67 1567.69 1183.81 1566 1182.85 1566 1182.55 1566 1181.11 1570.18 1182.35 1577.07 1185.84M1596.51 1195.01C1598.6 1197.33 1597.71 1198.94 1595.2 1197.36 1593.34 1196.19 1592.3 1193 1593.77 1193 1594.28 1193 1595.51 1193.9 1596.51 1195.01M1590.81 1197.9C1594.25 1199.66 1600.52 1206.82 1599.5 1207.83 1599.26 1208.07 1596.69 1207.13 1593.78 1205.73 1590.88 1204.34 1586.93 1202.63 1585 1201.94 1580.23 1200.22 1579.41 1199.32 1581.9 1198.53 1583.05 1198.17 1584 1197.45 1584 1196.93 1584 1195.45 1586.77 1195.84 1590.81 1197.9M1606.44 1203.97C1610.3 1205.45 1609.59 1207.17 1605.26 1206.81 1602.64 1206.59 1601.42 1205.97 1601.19 1204.75 1600.81 1202.77 1602.57 1202.51 1606.44 1203.97M1621 1214C1621 1215.33 1620.33 1216 1619 1216 1616.54 1216 1616.45 1215.14 1618.75 1213.39 1621.02 1211.67 1621 1211.66 1621 1214M1628.45 1216.66C1629.25 1219.83 1628.54 1220.69 1626.52 1219.02 1625.69 1218.32 1625 1216.41 1625 1214.76 1625 1212.29 1625.25 1211.97 1626.4 1212.92 1627.17 1213.56 1628.09 1215.24 1628.45 1216.66M1634.5 1220.83C1634.5 1222.64 1632.54 1222.31 1632.15 1220.44 1631.94 1219.4 1632.31 1218.94 1633.15 1219.22 1633.9 1219.47 1634.5 1220.19 1634.5 1220.83M1657.14 1232.07C1659.37 1233.21 1660.97 1234.36 1660.69 1234.64 1660.16 1235.18 1652 1231.28 1652 1230.48 1652 1229.64 1652.97 1229.95 1657.14 1232.07M1666.46 1235.93C1666.77 1236.44 1666.62 1237.12 1666.11 1237.43 1664.92 1238.17 1662 1237.07 1662 1235.89 1662 1234.71 1665.72 1234.74 1666.46 1235.93M1671 1239.58C1671 1241.35 1668.85 1241.04 1668.23 1239.19 1668.01 1238.53 1668.55 1238 1669.42 1238 1670.29 1238 1671 1238.71 1671 1239.58M1675.97 1241.25C1677.49 1242.49 1679.58 1244.06 1680.62 1244.75 1682.2 1245.8 1679.73 1244.98 1673.25 1242.3 1672 1241.79 1671.46 1239 1672.61 1239 1672.94 1239 1674.45 1240.01 1675.97 1241.25" stroke="#000000" stroke-width="8" fill-rule="evenodd"/></g></svg>