<svg xmlns="http://www.w3.org/2000/svg" width="1200" height="1071" viewBox="0 0 1200 1071" version="1.1">
	<path d="M 1045.015 4.750 C 1045.062 7.025, 1047.003 8.496, 1047.985 7 C 1049.461 4.752, 1049.214 4, 1047 4 C 1045.900 4, 1045.007 4.338, 1045.015 4.750 M 1054.402 17.393 C 1048.849 19.979, 1016.505 40.660, 1000.500 51.858 C 986.697 61.516, 979.262 66.428, 959 79.277 C 949.375 85.380, 936.100 94.249, 929.500 98.986 C 922.900 103.722, 908.950 113.470, 898.500 120.648 C 862.704 145.234, 853.687 151.627, 823.500 173.818 C 803.561 188.476, 776.152 206.879, 768.433 210.792 C 766.196 211.926, 763.753 213.593, 763.003 214.497 C 762.253 215.400, 758.233 218.425, 754.070 221.218 C 749.906 224.011, 743.350 228.859, 739.500 231.992 C 735.650 235.125, 728.675 240.405, 724 243.724 C 705.631 256.766, 670.247 285.091, 640.546 310.530 C 632.821 317.147, 620.875 327.020, 614 332.471 C 587.585 353.413, 571.766 367.283, 549.531 389 C 444.467 491.614, 436.426 498.957, 427.661 500.311 C 422.790 501.062, 421.731 501.978, 417.808 508.836 C 414.137 515.252, 401.473 528.921, 396.116 532.249 C 392.630 534.415, 391.347 534.519, 360.500 535.153 C 325.907 535.863, 325.741 535.882, 303.500 542.017 C 279.082 548.752, 271.887 552.371, 234.766 576.585 C 225.563 582.588, 212.963 590.744, 206.766 594.708 C 200.570 598.672, 191 605.519, 185.500 609.923 C 173.296 619.695, 159.926 626.767, 151.412 627.954 C 139.860 629.564, 121.325 643.838, 112.544 657.886 C 111.037 660.299, 107.986 664.053, 105.765 666.230 L 101.727 670.188 102.275 677.844 C 102.640 682.947, 103.893 688.334, 106.031 694 C 107.796 698.675, 109.451 704.588, 109.709 707.140 L 110.178 711.780 104.839 713.528 C 92.926 717.429, 86 722.259, 86 726.666 C 86 730.019, 88.905 731.469, 106.587 736.943 C 123.436 742.158, 138.284 747.983, 149 753.581 C 152.575 755.449, 158.200 758.050, 161.500 759.361 C 164.800 760.672, 171.550 763.549, 176.500 765.755 C 181.450 767.961, 190.225 771.231, 196 773.022 C 210.325 777.464, 221.711 782.540, 233 789.516 C 243.937 796.274, 250.853 800, 252.460 800 C 253.924 800, 267.795 791.394, 275.719 785.570 C 283.894 779.562, 287.369 779.511, 304.147 785.155 C 322.287 791.257, 330.171 791.167, 345.709 784.680 L 356.919 780 370.209 780.020 C 395.437 780.057, 398.580 781.078, 416.407 795.012 C 426.367 802.798, 462.296 826.864, 500.145 851.103 C 506 854.853, 513.650 859.892, 517.145 862.301 C 531.587 872.256, 575.206 897.666, 599.500 910.276 C 613.800 917.698, 631.575 927.446, 639 931.938 C 671.908 951.846, 705.251 967.042, 752.500 983.666 C 763.031 987.372, 779.429 994.554, 792 1000.968 C 796.125 1003.073, 800.850 1005.080, 802.500 1005.429 C 804.150 1005.778, 812.250 1009.903, 820.500 1014.596 C 845.787 1028.983, 879.357 1045.264, 892 1049.274 C 916.521 1057.051, 924.702 1059.124, 929.641 1058.809 C 938.587 1058.240, 935.414 1055.201, 921.500 1051.012 C 915.033 1049.066, 896.469 1039.924, 880.423 1030.785 C 872.215 1026.110, 857.625 1018.238, 848 1013.292 C 838.375 1008.346, 825.325 1001.217, 819 997.451 C 812.675 993.684, 805.250 989.515, 802.500 988.185 C 799.750 986.855, 794.325 983.843, 790.444 981.491 C 786.564 979.139, 779.316 975.170, 774.339 972.670 C 769.362 970.170, 761.625 965.364, 757.147 961.989 C 748.287 955.314, 720.593 941.384, 705.801 936.163 C 696.150 932.756, 686.060 927.851, 668.500 918.027 C 661.900 914.335, 650.343 908.051, 642.819 904.062 C 635.294 900.073, 627.419 895.340, 625.319 893.544 C 620.065 889.051, 609.406 882.333, 597.500 876.011 C 592 873.090, 579.098 866.043, 568.829 860.350 C 558.560 854.658, 549.898 850, 549.581 850 C 549.264 850, 546.866 848.466, 544.252 846.590 C 538.920 842.765, 517.507 832, 515.229 832 C 514.417 832, 510.415 829.973, 506.334 827.496 C 502.253 825.018, 497.393 822.355, 495.533 821.578 C 493.186 820.598, 490.754 818.044, 487.585 813.235 C 482.343 805.277, 468.607 791.652, 458.750 784.632 C 452.195 779.963, 452 779.699, 452 775.492 L 452 771.159 458.750 770.538 C 462.462 770.196, 471.800 768.628, 479.500 767.054 C 487.200 765.479, 496.647 763.667, 500.492 763.026 C 509.680 761.495, 537.473 752.280, 548.528 747.100 C 558.546 742.405, 563.417 741.927, 570.141 744.978 C 576.550 747.886, 586.575 747.710, 593.442 744.569 C 600.176 741.489, 612.026 737.912, 628.109 734.104 C 638.451 731.656, 666.257 722.753, 685.500 715.729 C 691.305 713.611, 716.034 707.918, 751.685 700.492 C 791.187 692.265, 794.294 691.147, 823.500 674.636 C 870.687 647.960, 917.283 637.128, 951.436 644.896 C 990.696 653.825, 1040.705 654.011, 1061.498 645.303 C 1108.810 625.491, 1133.511 551.875, 1108.689 504.664 C 1094.697 478.053, 1054.290 449.461, 1027.084 446.920 C 998.964 444.295, 972.477 453.845, 948.394 475.294 C 934.361 487.792, 911.404 499.716, 888.065 506.630 C 866.696 512.959, 823.875 513.741, 786 508.493 C 763.407 505.363, 751.298 505.445, 713.500 508.989 C 689.054 511.280, 687.365 511.552, 670.977 515.826 C 664.639 517.479, 654.514 519.577, 648.477 520.489 C 642.440 521.400, 628.725 524.026, 618 526.323 L 598.500 530.500 560 530.431 C 530.268 530.378, 519.043 530, 510.713 528.771 L 499.926 527.179 492.296 520.350 C 476.038 505.799, 475.348 500.606, 487.332 483 C 492.848 474.896, 567.522 400.528, 579.500 391.209 C 585.550 386.502, 597.625 376.542, 606.334 369.076 C 615.043 361.609, 624.043 354.240, 626.334 352.699 C 628.625 351.159, 632.975 347.491, 636 344.549 C 639.025 341.607, 646.348 335.773, 652.272 331.585 C 658.197 327.397, 667.872 319.797, 673.772 314.697 C 679.673 309.597, 688.100 302.760, 692.500 299.505 C 696.900 296.249, 703.200 291.067, 706.500 287.988 C 712.886 282.029, 728.275 270.197, 739 263 C 742.575 260.600, 748.425 255.871, 752 252.491 C 759.148 245.732, 766.561 239.978, 778.021 232.292 C 782.158 229.517, 791.620 222.129, 799.048 215.874 C 816.401 201.260, 829.397 191.443, 839.773 185.111 C 844.323 182.334, 857.148 173.627, 868.273 165.762 C 879.398 157.897, 891.427 149.643, 895.005 147.420 C 900.973 143.713, 917.374 131.411, 953.126 103.825 C 968.119 92.257, 991.829 75.603, 1010.692 63.392 C 1069.062 25.607, 1072.018 23.123, 1065.686 17.174 C 1062.744 14.411, 1060.722 14.450, 1054.402 17.393" stroke="none" fill="#FFFFFF" fill-rule="nonzero"/>
</svg>