<svg xmlns="http://www.w3.org/2000/svg" width="400" height="355" viewBox="0 0 400 355" version="1.1">
	<path d="M 345.315 3.554 C 345.978 7.637, 343.508 11, 339.847 11 C 338.634 11, 335.383 13.185, 332.406 16 C 329.411 18.833, 326.181 21, 324.954 21 C 323.763 21, 321.452 22.125, 319.818 23.500 C 318.184 24.875, 315.901 26, 314.745 26 C 313.482 26, 309.570 28.991, 304.937 33.500 C 299.939 38.364, 296.432 41, 294.961 41 C 293.611 41, 290.554 43.023, 287.406 46 C 284.302 48.936, 281.196 51, 279.882 51 C 278.448 51, 274.873 53.696, 269.937 58.500 C 264.939 63.364, 261.432 66, 259.961 66 C 258.611 66, 255.554 68.023, 252.406 71 C 249.302 73.936, 246.196 76, 244.882 76 C 243.448 76, 239.873 78.696, 234.937 83.500 C 229.841 88.459, 226.444 91, 224.912 91 C 223.286 91, 218.825 94.730, 209.961 103.500 C 200.827 112.538, 196.662 116, 194.921 116 C 193.111 116, 186.413 122.099, 167.904 140.596 C 148.374 160.114, 142.598 165.335, 139.930 165.880 C 137.137 166.452, 136.454 167.128, 135.891 169.877 C 134.881 174.817, 134.683 174.877, 118.500 175.137 C 103.658 175.376, 103.465 175.409, 100.215 178.189 C 98.409 179.735, 95.891 181, 94.620 181 C 93.350 181, 91.495 181.900, 90.500 183 C 89.505 184.100, 87.582 185, 86.227 185 C 84.872 185, 82.226 186.350, 80.347 188 C 78.468 189.650, 75.924 191, 74.695 191 C 73.261 191, 69.958 193.503, 65.480 197.983 C 58.702 204.764, 58.355 204.966, 53.473 204.983 C 48.603 204.999, 48.238 205.210, 41.738 211.760 L 35.030 218.520 35.643 225.079 C 36.232 231.391, 36.137 231.774, 33.128 235.202 C 28.595 240.364, 29.303 245, 34.623 245 C 35.846 245, 38.184 246.125, 39.818 247.500 C 41.452 248.875, 43.702 250, 44.818 250 C 45.934 250, 48.184 251.125, 49.818 252.500 C 51.452 253.875, 53.721 255, 54.860 255 C 55.999 255, 58.508 256.385, 60.436 258.078 C 62.779 260.135, 64.864 261.096, 66.721 260.972 C 71.666 260.644, 72.798 260.959, 75.818 263.500 C 80.306 267.277, 91.168 267.172, 95.195 263.313 L 98 260.626 100.805 263.313 C 104.925 267.260, 111.003 267.082, 115.797 262.873 C 119.273 259.821, 119.529 259.762, 126.429 260.401 L 133.500 261.056 140.524 268.028 C 144.844 272.317, 148.374 275, 149.697 275 C 150.879 275, 153.184 276.125, 154.818 277.500 C 156.452 278.875, 158.763 280, 159.954 280 C 161.181 280, 164.411 282.167, 167.406 285 C 170.474 287.901, 173.622 290, 174.906 290 C 176.191 290, 179.339 292.099, 182.406 295 C 185.314 297.750, 188.628 300, 189.770 300 C 190.912 300, 193.184 301.125, 194.818 302.500 C 196.452 303.875, 198.702 305, 199.818 305 C 200.934 305, 203.184 306.125, 204.818 307.500 C 206.452 308.875, 208.702 310, 209.818 310 C 210.934 310, 213.184 311.125, 214.818 312.500 C 216.452 313.875, 218.702 315, 219.818 315 C 220.934 315, 223.184 316.125, 224.818 317.500 C 226.452 318.875, 228.702 320, 229.818 320 C 230.934 320, 233.184 321.125, 234.818 322.500 C 236.452 323.875, 238.721 325, 239.860 325 C 240.999 325, 243.514 326.391, 245.450 328.090 C 248.525 330.790, 249.459 331.098, 252.834 330.528 C 256.075 329.980, 257.189 330.288, 259.743 332.438 C 261.418 333.847, 263.702 335, 264.818 335 C 265.934 335, 268.184 336.125, 269.818 337.500 C 271.452 338.875, 273.702 340, 274.818 340 C 275.934 340, 278.184 341.125, 279.818 342.500 C 281.452 343.875, 283.721 345, 284.860 345 C 285.999 345, 288.468 346.350, 290.347 348 C 293.087 350.405, 294.678 351, 298.374 351 C 301.900 351, 303.277 351.470, 304.232 353 C 306.471 356.585, 311 355.684, 311 351.655 C 311 347.737, 308.461 345, 304.826 345 C 303.442 345, 301.495 344.100, 300.500 343 C 299.505 341.900, 297.669 341, 296.422 341 C 295.174 341, 292.816 339.875, 291.182 338.500 C 289.548 337.125, 287.298 336, 286.182 336 C 285.066 336, 282.816 334.875, 281.182 333.500 C 279.548 332.125, 277.237 331, 276.046 331 C 274.819 331, 271.589 328.833, 268.594 326 C 265.686 323.250, 262.372 321, 261.230 321 C 260.088 321, 257.816 319.875, 256.182 318.500 C 254.548 317.125, 252.298 316, 251.182 316 C 250.066 316, 247.816 314.875, 246.182 313.500 C 244.548 312.125, 242.298 311, 241.182 311 C 240.066 311, 237.816 309.875, 236.182 308.500 C 234.548 307.125, 232.298 306, 231.182 306 C 230.066 306, 227.816 304.875, 226.182 303.500 C 224.548 302.125, 222.237 301, 221.046 301 C 219.819 301, 216.589 298.833, 213.594 296 C 210.686 293.250, 207.372 291, 206.230 291 C 205.088 291, 202.816 289.875, 201.182 288.500 C 199.548 287.125, 197.298 286, 196.182 286 C 195.066 286, 192.816 284.875, 191.182 283.500 C 189.548 282.125, 187.298 281, 186.182 281 C 185.066 281, 182.816 279.875, 181.182 278.500 C 179.548 277.125, 177.199 276, 175.961 276 C 174.473 276, 170.714 273.036, 164.862 267.250 C 154.158 256.665, 154.172 255.405, 164.986 255.847 C 171.686 256.121, 172.277 255.964, 175.616 253.032 L 179.152 249.928 190.512 250.607 C 201.781 251.280, 201.897 251.265, 205.013 248.643 C 207.396 246.637, 209.245 246, 212.682 246 C 216.054 246, 217.970 245.361, 220.182 243.500 C 222.394 241.639, 224.310 241, 227.682 241 C 231.054 241, 232.970 240.361, 235.182 238.500 C 237.897 236.216, 238.977 236, 247.682 236 C 256.388 236, 257.468 235.784, 260.182 233.500 C 261.816 232.125, 264.165 231, 265.402 231 C 266.639 231, 268.708 229.875, 270 228.500 C 271.292 227.125, 273.443 226, 274.780 226 C 276.117 226, 278.548 224.875, 280.182 223.500 C 282.394 221.639, 284.310 221, 287.682 221 C 291.054 221, 292.970 220.361, 295.182 218.500 C 297.932 216.186, 298.923 216, 308.495 216 C 314.183 216, 319.485 215.751, 320.278 215.447 C 321.071 215.142, 323.215 216.151, 325.041 217.688 C 330.097 221.942, 345.822 222.004, 350.785 217.790 C 352.591 216.255, 355.079 215, 356.314 215 C 359.567 215, 371 203.243, 371 199.897 C 371 198.496, 372.025 196.385, 373.279 195.208 C 376.668 192.024, 376.628 174.362, 373.224 170.738 C 372.001 169.436, 371 167.263, 371 165.909 C 371 162.730, 358.438 150, 355.302 150 C 354.120 150, 351.816 148.875, 350.182 147.500 C 347.481 145.227, 346.370 145, 337.952 145 L 328.693 145 323.406 150 C 320.411 152.833, 317.181 155, 315.954 155 C 314.763 155, 312.452 156.125, 310.818 157.500 C 309.184 158.875, 306.826 160, 305.578 160 C 304.331 160, 302.511 160.883, 301.534 161.962 C 297.938 165.936, 294.326 166.270, 263.133 165.514 L 233.500 164.795 231.076 167.398 C 228.778 169.864, 228.131 170, 218.708 170 C 209.085 170, 208.654 170.097, 205.347 173 L 201.930 176 187.834 176 L 173.737 176 169.368 171.632 C 166.966 169.229, 165 166.427, 165 165.404 C 165 162.438, 212.967 115, 215.966 115 C 217.687 115, 221.320 112.113, 228.548 105 C 235.540 98.119, 239.435 95, 241.033 95 C 242.573 95, 245.957 92.469, 251.063 87.500 C 256.140 82.560, 259.558 80, 261.078 80 C 262.657 80, 266.595 76.842, 273.548 70 C 280.477 63.182, 284.441 60, 286.008 60 C 287.395 60, 290.404 58.016, 293.594 55 C 296.698 52.064, 299.804 50, 301.118 50 C 302.552 50, 306.127 47.304, 311.063 42.500 C 316.061 37.636, 319.568 35, 321.039 35 C 322.389 35, 325.446 32.977, 328.594 30 C 331.661 27.099, 334.809 25, 336.094 25 C 337.378 25, 340.526 22.901, 343.594 20 C 346.865 16.906, 349.780 15, 351.240 15 C 356.334 15, 357.622 9.872, 353.500 6 C 352.125 4.708, 351 2.830, 351 1.826 C 351 0.447, 350.234 0, 347.869 0 C 344.840 0, 344.757 0.116, 345.315 3.554 M 335.500 153 C 334.505 154.100, 332.650 155, 331.380 155 C 330.109 155, 327.532 156.350, 325.653 158 C 323.774 159.650, 321.317 161, 320.195 161 C 319.072 161, 316.816 162.125, 315.182 163.500 C 313.548 164.875, 311.298 166, 310.182 166 C 309.066 166, 306.816 167.125, 305.182 168.500 C 303.548 169.875, 301.108 171, 299.761 171 C 298.413 171, 296.495 171.900, 295.500 173 C 293.837 174.838, 292.420 175, 278 175 C 263.580 175, 262.163 174.838, 260.500 173 C 257.780 169.994, 243.626 170.063, 240.396 173.098 C 238.384 174.988, 236.955 175.199, 226.029 175.222 C 216.668 175.242, 213.556 175.587, 212.413 176.730 C 208.565 180.578, 211.111 180.812, 257.550 180.873 L 302.009 180.931 305.259 178.077 C 308.441 175.284, 308.702 175.234, 317.574 175.740 C 326.515 176.250, 326.685 176.216, 330.069 173.282 C 336.169 167.993, 351 169.510, 351 175.422 C 351 178.347, 349.166 180, 345.922 180 C 340.414 180, 340.216 182.636, 345.336 187.834 C 348.109 190.648, 350 193.483, 350 194.823 C 350 196.065, 351.763 198.968, 353.924 201.284 L 357.848 205.491 360.519 202.996 C 366.099 197.782, 368.642 176.009, 364.587 168.169 C 362.482 164.097, 353.399 156, 350.937 156 C 349.756 156, 347.452 154.875, 345.818 153.500 C 342.236 150.486, 337.962 150.279, 335.500 153 M 156.446 177.087 C 155.416 178.755, 157.733 180.667, 159.113 179.287 C 160.267 178.133, 159.545 176, 158 176 C 157.515 176, 156.816 176.489, 156.446 177.087 M 117.537 181.606 C 114.646 184.497, 117.366 186, 125.488 186 C 131.328 186, 133.247 186.406, 135.396 188.097 C 140.075 191.777, 143.308 186.308, 139 182 C 136.318 179.318, 120.123 179.020, 117.537 181.606 M 196.446 187.087 C 195.416 188.755, 197.733 190.667, 199.113 189.287 C 200.267 188.133, 199.545 186, 198 186 C 197.515 186, 196.816 186.489, 196.446 187.087 M 87.537 191.606 C 85.024 194.119, 87.363 196, 93 196 C 98.478 196, 101.102 194.032, 99 191.500 C 97.300 189.452, 89.620 189.523, 87.537 191.606 M 166.446 192.087 C 165.416 193.755, 167.733 195.667, 169.113 194.287 C 170.267 193.133, 169.545 191, 168 191 C 167.515 191, 166.816 191.489, 166.446 192.087 M 109.212 199.281 C 105.383 203.232, 106.064 204.553, 112.286 205.237 C 118.896 205.963, 128.068 199.014, 123.899 196.438 C 123.294 196.063, 121.859 196.696, 120.711 197.844 C 118.634 199.922, 118.610 199.922, 115.484 197.990 L 112.344 196.050 109.212 199.281 M 127.664 205.833 L 122.904 210.667 115.310 210.667 C 106.367 210.667, 105 211.768, 105 218.972 C 105 223.259, 104.601 223.958, 98.969 229.531 L 92.938 235.500 85.469 235.612 L 78.001 235.725 74 231.385 C 71.590 228.770, 70 226.065, 70 224.581 C 70 221.074, 68.992 220.760, 57.726 220.760 C 43.704 220.760, 41.415 223.678, 49.271 231.535 C 53.284 235.547, 53.814 235.776, 58.021 235.319 C 62.206 234.864, 62.755 235.095, 66.381 238.842 L 70.261 242.852 68.101 245.598 L 65.941 248.344 69.167 251.672 C 71.064 253.629, 73.385 255, 74.802 255 C 76.127 255, 78.548 256.125, 80.182 257.500 C 85.338 261.838, 91 260.202, 91 254.373 C 91 253.405, 95.500 248.041, 101 242.452 L 111 232.290 111 225.267 C 111 217.425, 112.105 215.649, 116.654 216.178 C 118.895 216.438, 119.558 217.138, 120.101 219.815 C 120.471 221.639, 121.803 224.226, 123.061 225.565 L 125.349 228 123.070 230.426 C 120.834 232.805, 120.953 235.050, 123.309 234.948 C 127.211 234.779, 131.249 226.606, 130.644 220.105 C 130.079 214.041, 130.203 213.533, 133.024 210.320 C 136.191 206.713, 136.751 204.151, 134.800 202.200 C 133.053 200.453, 132.874 200.544, 127.664 205.833 M 191.446 202.087 C 190.416 203.755, 192.733 205.667, 194.113 204.287 C 195.267 203.133, 194.545 201, 193 201 C 192.515 201, 191.816 201.489, 191.446 202.087 M 216.446 202.087 C 215.416 203.755, 217.733 205.667, 219.113 204.287 C 220.267 203.133, 219.545 201, 218 201 C 217.515 201, 216.816 201.489, 216.446 202.087 M 276.446 202.087 C 275.416 203.755, 277.733 205.667, 279.113 204.287 C 280.267 203.133, 279.545 201, 278 201 C 277.515 201, 276.816 201.489, 276.446 202.087 M 300.139 203.033 C 298.841 204.115, 296.782 205, 295.564 205 C 294.345 205, 292.292 206.125, 291 207.500 C 288.911 209.723, 287.844 210, 281.360 210 C 274.638 210, 273.795 210.241, 270.550 213.090 C 267.465 215.799, 266.548 216.099, 263.128 215.522 C 259.695 214.942, 258.794 215.242, 255.628 218.022 C 252.473 220.792, 251.554 221.100, 248.166 220.528 C 244.888 219.974, 243.814 220.285, 241.088 222.579 L 237.875 225.283 218.308 225.139 L 198.742 224.995 194.371 229.366 C 185.308 238.429, 191.256 250.546, 200.818 242.500 C 203.030 240.639, 204.946 240, 208.318 240 C 211.690 240, 213.606 239.361, 215.818 237.500 C 218.017 235.649, 219.950 235, 223.259 235 C 226.295 235, 228.592 234.322, 230.415 232.889 C 232.591 231.176, 235.060 230.656, 243.473 230.134 C 252.331 229.586, 254.197 229.163, 256.238 227.246 C 258.035 225.558, 259.829 225, 263.461 225 C 267.808 225, 268.775 224.549, 273.103 220.500 C 277.319 216.557, 278.467 216, 282.380 216 C 285.793 216, 287.617 215.352, 290.113 213.252 C 293.289 210.579, 293.718 210.504, 305.725 210.502 C 315.495 210.500, 318.262 210.194, 318.979 209.034 C 320.484 206.599, 318.119 205, 313.012 205 C 309.784 205, 307.458 204.361, 305.727 203 C 302.683 200.606, 303.056 200.604, 300.139 203.033 M 59.694 208.534 C 58.151 209.890, 55.789 211, 54.444 211 C 51.651 211, 50.939 214.379, 53.524 215.371 C 59.532 217.676, 68.083 212.525, 65.374 208.232 C 63.830 205.783, 62.759 205.840, 59.694 208.534 M 145.343 223.102 C 144.187 224.258, 141.726 225.513, 139.874 225.892 C 136.714 226.538, 136.454 226.905, 135.669 231.837 C 134.436 239.588, 137.884 242.878, 141.483 237.385 C 142.943 235.158, 143.709 234.853, 146.654 235.331 C 154.658 236.630, 160 235.070, 160 231.433 C 160 229.079, 160.742 227.561, 162.613 226.089 C 164.206 224.837, 165 223.441, 164.645 222.517 C 163.795 220.303, 162.058 220.657, 159.821 223.500 C 158.740 224.875, 156.841 226, 155.602 226 C 154.363 226, 152.292 224.875, 151 223.500 C 148.154 220.470, 147.986 220.458, 145.343 223.102 M 166.327 232.330 C 164.772 233.611, 162.693 234.955, 161.707 235.315 C 159.463 236.135, 160.943 239.530, 163.961 240.488 C 167.891 241.735, 176.294 234.264, 174.030 231.536 C 172.224 229.360, 169.603 229.630, 166.327 232.330 M 56.446 242.087 C 55.416 243.755, 57.733 245.667, 59.113 244.287 C 60.267 243.133, 59.545 241, 58 241 C 57.515 241, 56.816 241.489, 56.446 242.087 M 136.228 246.813 C 133.328 249.909, 131.176 253.017, 131.446 253.721 C 132.143 255.535, 133.410 255.310, 135.500 253 C 137.115 251.216, 138.580 251, 149.073 251 C 162.091 251, 164 250.616, 164 248 C 164 245.618, 162.053 245, 154.553 245 C 149.784 245, 147.657 244.518, 145.727 243 C 142.332 240.330, 142.283 240.350, 136.228 246.813" stroke="none" fill="#FFFFFF" fill-rule="nonzero"/>
</svg>