<svg width="800" height="297" xmlns="http://www.w3.org/2000/svg" xmlns:xlink="http://www.w3.org/1999/xlink" xml:space="preserve" overflow="hidden"><g transform="translate(-240 -211)"><path d="M424.5 226.165C414.17 227.092 379.477 228.194 365.636 228.034 361.311 227.985 357.261 228.333 356.636 228.809 356.011 229.285 352.575 230.708 349 231.971 345.425 233.234 337.55 237.519 331.5 241.493 322.355 247.499 311.344 254.433 302.906 259.5 298.38 262.217 289.846 269.336 287.636 272.236 282.681 278.741 278 287.443 278 290.151 278 292.137 276.81 293.99 273.79 296.71 259.282 309.77 256.481 313.236 251.209 324.661 243.348 341.693 241.701 348.77 241.704 365.5 241.707 379.744 243.558 389.74 247.565 397.154 248.354 398.614 249 400.571 249 401.502 249 403.951 256.775 419.575 261.159 425.937 263.22 428.927 267.965 434.579 271.703 438.496 275.441 442.413 280.573 447.842 283.108 450.559 289.955 457.901 301.694 468.229 310.514 474.67 326.088 486.044 327.58 487.045 332.5 489.417 345.505 495.687 357.282 497.711 388 498.958 401.475 499.504 416.775 500.404 422 500.957 439.101 502.768 452.697 503.076 466.713 501.971 483.728 500.63 500.866 498.382 504.442 497.022 505.921 496.46 508.306 496 509.744 496 511.182 496 515.315 495.1 518.929 494 538.048 488.179 542.322 486.815 551.5 483.6 568.343 477.7 569.634 477.18 579.215 472.439 584.322 469.912 591.2 467.153 594.5 466.309 599.972 464.908 606.742 462.53 617.5 458.229 619.7 457.35 622.4 455.862 623.5 454.923 625.989 452.798 678.439 426.222 686.55 422.975 689.823 421.666 693.241 419.983 694.147 419.236 695.052 418.489 698.427 417.472 701.647 416.977 704.866 416.482 710.65 415.361 714.5 414.485 747.85 406.897 809.138 403.633 864 406.522 911.89 409.044 930.447 409.84 931.158 409.402 931.519 409.179 937.074 408.93 943.501 408.85 957.244 408.678 966.26 406.956 985.707 400.786 997.927 396.91 1001.29 395.357 1009.73 389.68 1020.97 382.129 1028.18 375.339 1030.52 370.116 1031.41 368.127 1032.66 365.438 1033.3 364.139 1034.9 360.87 1034.77 343.413 1033.1 338.5 1029.21 327.068 1026.28 322.483 1020.03 318.103 1013.67 313.638 999.819 307.19 989.5 303.886 980.763 301.088 965.451 299.116 943.663 297.983 922.793 296.898 897.496 293.138 881 288.668 872.019 286.234 860.937 284.094 854 283.454 850.425 283.124 843.9 282.251 839.5 281.514 835.1 280.777 827.45 279.885 822.5 279.532 813.035 278.857 792.285 276.084 777.176 273.477 765.06 271.386 751.512 267.924 732.5 262.059 728.65 260.871 723.7 259.451 721.5 258.902 719.3 258.353 713.225 256.631 708 255.075 677.568 246.011 662.482 243.273 608.5 237.016 597.141 235.699 581.712 234.869 562 234.514 545.775 234.223 527.325 233.55 521 233.02 514.675 232.49 502.525 231.546 494 230.921 485.475 230.297 476.309 229.385 473.631 228.896 470.953 228.407 462.628 227.558 455.131 227.01 447.634 226.462 439.925 225.845 438 225.64 436.075 225.435 430 225.671 424.5 226.165M390 231.052C384.067 235.091 383.163 235.211 378.722 232.55L374.5 230.019 383 230.025C389.099 230.029 391.076 230.319 390 231.052M471.5 232.097C482.414 233.859 483 234.059 483 236.02 483 237.044 482.55 238.16 482 238.5 481.45 238.84 481 239.782 481 240.594 481 241.76 481.42 241.846 483 241 484.1 240.411 485 239.34 485 238.62 485 237.899 485.886 236.508 486.968 235.529 488.748 233.918 489.68 233.858 496.678 234.899 500.936 235.532 505.926 236.939 507.767 238.025 509.608 239.111 512.344 240 513.847 240 517.306 240 528.204 242.808 529.408 244.009 529.951 244.552 529.769 245.574 528.954 246.556 527.812 247.932 526.373 248.088 520.046 247.521 509.15 246.546 507.825 246.127 508.537 243.884 509.307 241.457 508.583 241.509 505.029 244.137 502.487 246.016 501.375 246.187 495.819 245.55 492.344 245.152 479.209 244.874 466.631 244.931L443.763 245.036 441.511 242.606C439.877 240.844 437.718 239.984 433.648 239.475 426.358 238.564 424.39 239.179 419.164 244 415.416 247.458 414.197 248.004 410.164 248.03 405.256 248.061 382.588 250.355 372.66 251.825L366.819 252.69 362.809 248.411C360.603 246.058 357.313 243.428 355.498 242.566 351.685 240.757 344.782 240.511 341.849 242.081 340.738 242.676 339.57 242.903 339.254 242.587 338.507 241.841 341.977 238.002 343.405 237.994 344.007 237.99 345.85 237.232 347.5 236.308 349.15 235.385 353.875 234.295 358 233.886 362.125 233.478 366.951 232.837 368.725 232.462 373.451 231.463 380.584 235.796 381.535 240.245 381.918 242.035 382.741 244.137 383.365 244.917 384.261 246.034 384.606 245.298 385 241.43 385.462 236.903 385.82 236.35 389.666 234.235 393.561 232.092 395.279 231.91 416.118 231.436 428.375 231.157 438.651 230.679 438.952 230.372 439.702 229.609 464.096 230.902 471.5 232.097M542.361 236.948C552.184 237.526 568.609 238.003 578.861 238.006 590.276 238.01 601.342 238.591 607.413 239.506 612.865 240.328 618.86 241 620.736 241 624.07 241 642.019 243.499 661 246.606 677.447 249.299 706.298 256.747 736 265.968 762.326 274.141 780.796 277.621 824 282.547 860.294 286.685 863.322 287.174 888.5 292.964 909.975 297.903 923.488 299.675 949.57 300.973 970.36 302.008 982.924 304.051 993 308.035 996.025 309.231 1000.24 310.854 1002.37 311.641 1012.89 315.533 1022.51 322.15 1025.25 327.377 1029.81 336.101 1031.09 341.215 1031.19 351.108 1031.35 369.053 1025.89 376.843 1003.88 390.074 995.882 394.879 994.817 395.32 983.5 398.518 980.2 399.45 975.825 400.832 973.777 401.587 960.297 406.564 927.564 408.248 894.41 405.669 826.245 400.367 755.737 402.694 715.507 411.574 699.645 415.075 699.276 415.026 698.422 409.329 697.553 403.535 698.625 386.106 700.083 382.313 700.678 380.766 701.54 377.226 701.998 374.446 703.237 366.93 706.438 362.789 714.331 358.491 718.088 356.446 722.695 353.238 724.569 351.364 727.105 348.829 728.556 348.101 730.239 348.521 731.482 348.831 734.525 349.287 737 349.534 746.525 350.484 757.629 352.141 760.571 353.05 762.26 353.573 766.126 354 769.162 354 772.198 354 776.891 354.67 779.591 355.489 782.291 356.308 785.785 356.983 787.356 356.989 788.926 356.995 792.751 357.615 795.856 358.366 802.995 360.094 814.873 362.62 822 363.925 829.805 365.354 860.649 367.362 872.5 367.212 883.747 367.071 908.906 364.663 916.5 363.002 919.25 362.4 923.527 361.574 926.004 361.165 928.482 360.756 931.182 360.001 932.004 359.488 932.827 358.974 946.1 358.317 961.5 358.027 989.237 357.505 989.531 357.477 992.75 355.062 996.496 352.252 996.798 350.285 994.026 346.76 991.616 343.697 986.969 342.462 972.5 341.042 966.45 340.449 957.225 339.53 952 339.001 942.302 338.018 929.46 337.144 913.625 336.388 908.744 336.154 904.244 335.647 903.625 335.261 903.006 334.874 900.925 334.45 899 334.319 889.585 333.678 883.223 332.715 880.5 331.52 878.85 330.796 873.675 329.883 869 329.491 864.325 329.099 859.946 328.33 859.269 327.782 858.592 327.235 855.442 326.434 852.269 326.004 849.096 325.573 842.675 324.239 838 323.038 829.706 320.909 818.645 318.083 804.5 314.48 800.65 313.5 796.15 312.521 794.5 312.304 792.85 312.088 788.575 311.044 785 309.984 781.425 308.925 774.675 306.918 770 305.524 765.325 304.131 760.481 302.993 759.236 302.996 757.991 302.998 756.191 302.592 755.236 302.092 752.618 300.723 743.034 298 740.836 298 739.771 298 737.486 297.268 735.756 296.374 734.027 295.479 729.886 293.953 726.556 292.982 723.225 292.011 718.325 290.268 715.667 289.108 713.009 287.949 709.717 287 708.351 287 706.986 287 704.886 286.454 703.684 285.786 700.163 283.829 687.734 280.028 684.809 280.013 683.329 280.006 681.858 279.579 681.539 279.064 681.221 278.549 677.707 277.158 673.73 275.972 663.977 273.065 659.514 271.596 653 269.149 649.975 268.013 644.35 266.405 640.5 265.576 631.956 263.736 617.005 259.634 611.275 257.558 607.036 256.022 596.716 254.095 579 251.531 573.775 250.774 566.35 249.208 562.5 248.05 558.65 246.892 553.025 245.549 550 245.064 546.975 244.58 543.233 243.693 541.685 243.092 540.137 242.491 537.395 242 535.591 242 533.788 242 529.697 241.1 526.5 240 523.303 238.9 518.845 237.997 516.593 237.993 512.776 237.987 506.318 235.016 507.516 233.817 507.809 233.524 511.75 233.872 516.274 234.59 520.798 235.308 532.537 236.369 542.361 236.948M433.458 241.932C434.249 243.211 430.053 246 427.337 246 424.294 246 423.301 243.984 425.538 242.348 427.648 240.805 432.601 240.545 433.458 241.932M358.88 248.414 362.401 251.934 358.733 253.467C356.715 254.31 354.412 255 353.615 255 352.818 255 350.066 255.9 347.5 257 341.924 259.39 339.667 259.509 338 257.5 336.248 255.388 330.144 255.633 325.5 258 323.342 259.1 319.899 260 317.848 260 313.147 260 311.843 261.763 316.231 262.185 318.929 262.445 319.5 262.92 319.5 264.902 319.5 266.939 318.44 267.734 312.551 270.12 308.729 271.668 305.415 272.749 305.188 272.521 304.961 272.294 305.314 269.858 305.974 267.109 306.992 262.864 307.952 261.514 312.337 258.162 319.77 252.478 333.682 245.666 339.5 244.861 342.25 244.48 346.943 244.332 349.93 244.531 354.566 244.84 355.874 245.407 358.88 248.414M543.654 246.5C545.629 247.325 548.677 248 550.428 248 554.373 248 565.887 251.741 568.248 253.79 569.533 254.905 570.571 255.051 572.161 254.341 574.773 253.176 585.673 254.484 587.756 256.213 588.55 256.871 590.617 257.3 592.35 257.166 594.082 257.031 599.428 257.678 604.228 258.603 610.657 259.842 613.1 260.741 613.505 262.015 613.917 263.313 615.111 263.728 618.277 263.674 620.6 263.634 627 264.871 632.5 266.423 638 267.974 644.075 269.558 646 269.943 652.073 271.156 658.925 274.187 659.469 275.902 659.869 277.162 660.929 277.464 663.939 277.177 668.136 276.777 677.452 279.346 680.079 281.628 680.947 282.383 683.075 283 684.808 283 689.399 283 701.283 287.1 702.816 289.212 703.731 290.473 704.608 290.759 705.696 290.15 707.506 289.137 715.508 291.264 717.927 293.4 718.792 294.163 720.625 294.793 722 294.799 723.375 294.805 727.875 296.202 732 297.902 736.125 299.602 740.728 300.995 742.23 300.997 745.305 301 752.725 303.659 755 305.571 755.825 306.265 757.706 306.599 759.179 306.313 760.753 306.008 765.834 307.074 771.496 308.897 776.796 310.604 781.971 312 782.995 312 784.019 312 785.547 312.69 786.391 313.534 787.35 314.493 790.313 315.202 794.303 315.425 797.81 315.622 801.99 316.445 803.59 317.254 805.191 318.062 809.037 318.973 812.137 319.278 815.238 319.583 819.153 320.545 820.838 321.416 822.522 322.287 825.161 323 826.7 323 829.166 323 836.032 324.924 845.5 328.268 847.15 328.851 850.269 329.259 852.432 329.173 854.829 329.079 857.057 329.647 858.141 330.628 859.336 331.709 860.781 332.021 862.545 331.578 866.781 330.515 869.276 331.764 868.566 334.594 867.831 337.52 869.5 337.774 871.232 335 872.05 333.69 873.564 333 875.618 333 878.633 333 881.618 335.048 880.391 336.275 880.066 336.601 880.134 337.408 880.543 338.07 881.066 338.915 881.815 338.571 883.069 336.909 884.761 334.665 885.084 334.608 889.44 335.773 891.964 336.448 896.021 337 898.455 337 903.683 337 904.76 338.191 902.563 341.544 900.716 344.363 897.473 344.72 894.248 342.461 892.287 341.087 891.739 341.084 889.144 342.425 886.948 343.561 885.416 343.693 882.876 342.964 881.027 342.434 878.122 342.262 876.419 342.581 874.557 342.931 871.765 342.508 869.412 341.522 867.055 340.534 864.261 340.112 862.384 340.461 857.868 341.301 856 340.257 856 336.893 856 333.311 854.284 333.124 852.976 336.563 852.163 338.7 851.46 339.075 848.751 338.813 845.892 338.538 845.523 338.169 845.688 335.75 845.913 332.469 843.605 332 842 335 840.674 337.477 836.359 337.64 833.072 335.338 831.615 334.317 828.232 333.564 824.302 333.385 820.783 333.225 816.463 332.652 814.702 332.112 812.941 331.571 809.7 330.652 807.5 330.068 801.535 328.485 800.58 327.653 801.899 325.188 803.616 321.98 801.456 321.595 798.659 324.612 795.851 327.64 794.057 327.488 785.532 323.496 782.403 322.031 779.496 321.34 777.844 321.669 776.354 321.965 772.516 321.248 769.1 320.036 765.752 318.847 762.527 318.174 761.934 318.541 761.341 318.907 757.964 318.378 754.428 317.366 748.453 315.655 746.593 313.988 749 312.5 750.392 311.64 750.252 310 748.788 310 748.121 310 746.601 311.222 745.409 312.716 743.382 315.258 743.06 315.345 740.372 314.076 736.451 312.225 730.397 310.835 725 310.546 719.985 310.278 711.673 308.398 708.284 306.766 706.641 305.974 705.672 306.027 704.535 306.971 703.388 307.923 702.309 307.977 700.251 307.184 698.738 306.602 696.055 305.84 694.289 305.492 691.363 304.914 691.13 304.599 691.664 301.929 692.391 298.294 690.432 297.958 688.843 301.445 687.249 304.943 685.195 305.356 680.564 303.108 678.329 302.024 673.8 300.601 670.5 299.948 662.884 298.439 647.78 294.005 646.61 292.935 646.109 292.476 646.872 290.753 648.36 288.984 649.812 287.258 651 285.503 651 285.084 651 284.664 652.125 283.808 653.5 283.182 654.875 282.555 656 281.583 656 281.021 656 278.757 653.219 280.326 648.024 285.522 645.012 288.535 642.087 291 641.524 291.001 640.961 291.001 637.222 289.988 633.216 288.751 626.596 286.705 625.982 286.295 626.485 284.25 627.135 281.606 626.328 281.393 623.919 283.573 622.33 285.011 621.397 284.912 613.09 282.419 608.091 280.918 604 279.365 604 278.968 604 278.57 604.675 277.685 605.5 277 607.391 275.431 607.43 274 605.583 274 604.804 274 603.309 275.178 602.26 276.617 600.399 279.172 600.28 279.196 597.227 277.617 595.507 276.728 592.839 275.984 591.3 275.965 589.76 275.945 587.375 275.286 586 274.5 584.625 273.714 582.6 273.051 581.5 273.026 580.4 273.001 577.602 271.522 575.283 269.74 572.964 267.958 569.923 265.689 568.527 264.699 566.568 263.309 566.128 262.337 566.602 260.449 567.32 257.588 566.396 257.331 563.809 259.673 562.073 261.244 561.778 261.212 558.977 259.141 551.882 253.896 548.585 252 546.555 252 543.722 252 532 248.033 532 247.075 532 244.557 538.264 244.248 543.654 246.5M435.527 248.044C437.442 251.143 427.393 254.351 423.05 252.027 421.256 251.067 421.09 250.596 422.111 249.366 422.832 248.498 424.241 248.095 425.472 248.404 426.639 248.696 428.922 248.539 430.546 248.054 434.571 246.852 434.79 246.852 435.527 248.044M471.801 250.086C472.184 253.382 470.489 254.759 465.487 255.213L461.5 255.575 464.206 256.746C466.496 257.737 466.865 258.438 466.607 261.309 466.152 266.386 465.292 267.217 461.147 266.585 452.956 265.335 440.135 264.972 439.517 265.972 438.915 266.947 441.477 267.32 449.665 267.45 451.406 267.477 453.168 267.837 453.582 268.25 453.995 268.663 456.171 269.006 458.417 269.014 465.778 269.038 467 269.762 467 274.098 467 277.386 466.627 278.055 464.5 278.589 461.088 279.446 461.342 281 464.893 281 467.998 281 469.441 283.034 468.482 286.057 467.731 288.424 469.45 289.367 471.035 287.457 472.02 286.271 472.045 285.092 471.149 282.102 470.517 279.993 470 276.183 470 273.634 470 269.318 470.177 269 472.583 269 474.208 269 475.01 268.536 474.746 267.75 474.514 267.063 473.239 266.481 471.912 266.459 469.705 266.421 469.517 266.046 469.706 262.045 469.819 259.64 470.494 257.294 471.206 256.832 471.918 256.369 475.2 256.105 478.5 256.245 485.683 256.55 487.131 254.718 480.275 254 475.972 253.549 475.469 253.232 475.187 250.785 474.932 248.576 475.357 247.949 477.463 247.42 480.748 246.595 494.804 247.874 495.54 249.064 496.501 250.62 494.152 253.745 491.526 254.404 487.459 255.425 488.614 256.595 493.75 256.657 502.439 256.763 513.344 258.04 514.624 259.103 516.002 260.247 514.905 263.946 512.236 267.156 510.603 269.121 510.964 275.17 512.75 275.756 513.568 276.025 514 275.102 514 273.083 514 270.481 514.381 270 516.441 270 519.573 270 520.681 268.218 518.528 266.644 514.876 263.974 520.092 255.909 524.089 258.048 525.068 258.571 526.816 259 527.974 259 529.132 259 531.87 259.914 534.059 261.03 537.375 262.722 537.877 263.36 537.074 264.862 535.163 268.433 533.214 269.256 528.259 268.588L523.5 267.946 527.339 271.141C529.45 272.899 531.576 275.386 532.064 276.668 533.356 280.065 535 279.52 535 275.694 535 273.738 536.021 271.005 537.5 269 538.875 267.136 540 265.052 540 264.369 540 263.516 541.058 263.297 543.373 263.673 547.616 264.362 549.105 262.402 545.02 261.504 543.372 261.142 541.766 260.431 541.452 259.923 541.139 259.415 539.965 259 538.845 259 536.267 259 526.984 256.294 525 254.965 523.723 254.109 523.863 253.655 525.943 251.913 527.286 250.788 529.086 250.083 529.943 250.346 530.799 250.609 535.1 251.794 539.5 252.979 548.143 255.307 554.147 258.36 557.825 262.299 560.553 265.22 559.631 266.237 554.109 266.396 549.638 266.525 548.999 269.328 553.329 269.824 554.987 270.014 555.975 270.634 555.716 271.324 553.994 275.912 553.927 277 555.365 277 556.19 277 557.151 276.1 557.5 275 558.562 271.653 561.383 272.481 569.75 278.599 571.685 280.014 572 280.034 572 278.744 572 277.92 571.325 276.685 570.5 276 569.675 275.315 569 274.135 569 273.378 569 272.611 567.99 272 566.723 272 565.47 272 563.443 271.298 562.219 270.441 560.422 269.182 560.193 268.508 561.032 266.941 561.603 265.873 562.546 265 563.127 265 564.295 265 568.48 268.047 573.015 272.198 574.636 273.682 577.571 275.34 579.538 275.883 581.505 276.426 584.805 278.362 586.872 280.185 588.939 282.008 591.948 284.447 593.56 285.604 596.194 287.496 596.387 288 595.474 290.604 594.061 294.639 590.4 295.034 587.55 291.46 585.764 289.22 585.043 288.928 583.442 289.799 582.374 290.379 580.712 291.098 579.75 291.396 576.768 292.319 577.824 294 581.386 294 583.248 294 586.06 294.672 587.636 295.494 589.211 296.315 591.77 296.99 593.323 296.994 595.484 296.999 598.095 298.866 604.447 304.949 613.326 313.453 617.422 315.511 619.582 312.557 621.327 310.171 622.79 311.165 630.632 320.06 638.383 328.853 640.9 333 638.485 333 636.047 333 631 328.828 631 326.812 631 324.031 629.123 324.662 628.361 327.699 627.853 329.72 628.133 330.662 629.476 331.449 630.461 332.027 632.548 333.545 634.113 334.822 635.679 336.099 637.429 336.853 638.004 336.498 640.22 335.128 644.838 337.096 645.785 339.814 646.301 341.292 647.865 344.186 649.262 346.244 651.942 350.193 654.525 357.904 657.925 372.106 659.68 379.437 659.825 381.58 658.903 386.566 657.779 392.649 653.635 402 652.064 402 651.567 402 650.388 399.637 649.445 396.75 648.501 393.863 646.44 389.724 644.864 387.553 643.289 385.382 642 382.795 642 381.803 642 380.811 641.522 380 640.938 380 640.354 380 637.317 378.763 634.188 377.251 628.764 374.629 627.85 374.507 614.5 374.623 599.868 374.749 596.648 375.451 584 381.274 576.951 384.519 575.119 386.378 571.27 394.192 562.526 411.94 564.209 427.603 576.196 440.046 581.777 445.839 588.448 449.565 594.453 450.242 601.392 451.024 602.198 452.405 597.987 456.298 592.343 461.516 587.913 465 586.923 465 585.677 465 585.742 460.277 587 459.5 587.55 459.16 588 457.971 588 456.858 588 454.177 585.596 455.005 585.18 457.828 585.005 459.023 584.391 460 583.817 460 583.222 460 582.966 461.313 583.221 463.056 583.614 465.729 583.268 466.279 580.457 467.454 578.69 468.192 576.936 469.295 576.559 469.905 575.159 472.171 565.955 475.816 535.5 486.17 526.066 489.377 509.582 493.517 496 496.089 480.521 499.021 435.893 500.107 418.119 497.984 413.379 497.418 398.7 496.543 385.5 496.041 345.861 494.531 337.916 491.805 308.5 469.62 298.961 462.426 271.005 434.818 265.227 426.885 260.425 420.293 254.029 408.18 252.35 402.5 251.7 400.3 250.039 395.244 248.659 391.264 243.334 375.907 242.783 360.828 246.952 344.5 248.34 339.062 249.76 335.825 251.386 334.394 253.094 332.89 253.64 331.567 253.296 329.77 252.538 325.8 259.03 314.374 265.717 307.911 275.322 298.629 280 295.848 280 299.423 280 301.327 284.843 307 286.468 307 288.501 307 298.67 302.103 300.023 300.472 302.075 298 298.401 298.659 292.904 301.749 287.31 304.894 285.779 304.481 282.72 299.006 280.17 294.441 281.118 291.908 286.743 288.263 289.383 286.553 292.784 284.002 294.303 282.595 299.084 278.164 303 276.724 303 279.396 303 280.164 304.688 282.175 306.75 283.864 308.813 285.554 311.625 288.034 313 289.375 315.161 291.483 316.042 291.712 319.5 291.06 323.421 290.322 323.307 290.033 318.5 288.531 316.264 287.833 316.651 286.467 320.244 282.375 323.056 279.172 323.489 277.95 323.494 273.201 323.501 267.058 323.171 267.37 333 264.199 338.645 262.378 339.69 262.291 340.949 263.536 342.029 264.605 342.156 265.645 341.449 267.632 340.046 271.57 335.609 274.373 329.709 275.048 325.081 275.577 324.766 275.755 326.883 276.643 330.898 278.327 337.792 276.67 341.28 273.182 343.731 270.731 344.412 269.166 344.497 265.795 344.618 260.953 344.858 260.775 356.331 257.006 360.936 255.493 363.491 255.091 364.173 255.773 364.855 256.455 364.607 259.182 363.412 264.142 361.532 271.95 361.151 272.458 350.048 281.974 346.233 285.244 343.191 286.863 338.742 287.992 331.736 289.769 329.136 292.746 335.622 291.565 341.619 290.472 349.038 286.508 354.131 281.673 356.678 279.255 359.94 276.981 361.381 276.619 363.28 276.143 364 275.314 364 273.603 364 272.306 364.62 269.727 365.377 267.872 366.134 266.017 367.054 262.415 367.421 259.866 367.998 255.854 368.451 255.161 370.794 254.698 374.057 254.053 389.167 252.434 405.408 250.989 417.28 249.932 417.325 249.936 419.908 252.336 421.334 253.659 423.719 255.029 425.21 255.38 429.051 256.284 435.959 253.627 438.625 250.22L440.886 247.331 456.193 247.415 471.5 247.5 471.801 250.086M513.368 248.95C521.208 249.961 522.673 250.874 521.116 253.783 520.153 255.583 519.233 255.743 511.774 255.403 507.223 255.196 502.825 255.014 502 254.998 499.259 254.946 497.758 253.339 498.44 251.189 499.449 248.011 502.511 247.551 513.368 248.95M454 257.5C454 258.733 454.787 259.051 457.25 258.813 459.037 258.641 460.5 258.05 460.5 257.5 460.5 256.95 459.037 256.359 457.25 256.187 454.787 255.949 454 256.267 454 257.5M335.27 260.13C334.649 260.751 331.859 262.032 329.07 262.976 324.315 264.586 324 264.588 324 262.999 324 260.787 327.513 259.152 332.45 259.068 335.386 259.017 336.11 259.29 335.27 260.13M303.572 266.44C302.707 268.986 302 271.719 302 272.512 302 273.305 300.763 274.725 299.25 275.668 297.737 276.611 293.487 279.771 289.803 282.691 286.12 285.611 282.858 288 282.553 288 279.969 288 289.606 273.147 294.744 269.21 296.689 267.72 299.68 265.3 301.39 263.833 303.1 262.366 304.644 261.31 304.821 261.488 304.999 261.665 304.436 263.894 303.572 266.44M410.5 263.878C405.618 264.922 407.584 266.531 413.27 266.146 418.899 265.765 420 265.404 420 263.941 420 262.907 415.193 262.875 410.5 263.878M488.322 265.604C487.852 266.828 486.851 267.073 484.103 266.636 479.771 265.948 476.598 267.408 479 268.985 479.825 269.526 482.148 269.976 484.162 269.985 487.646 269.999 487.857 270.193 488.494 273.963 489.326 278.889 488.672 280 484.941 280 483.323 280 482 280.441 482 280.981 482 282.475 486.991 283.409 488.249 282.151 489.697 280.703 492 282.528 492 285.122 492 286.811 491.15 287 483.559 287 478.916 287 474.875 287.393 474.578 287.873 473.811 289.115 485.236 290.237 490.544 289.441 494.673 288.822 495 288.554 495 285.791 495 284.151 494.38 281.614 493.623 280.154 491.619 276.292 490.009 268.68 490.666 266.17 491.326 263.644 489.265 263.147 488.322 265.604M388.496 268.007C387.75 269.214 390.198 270.302 392.609 269.835 393.558 269.651 394.522 268.938 394.75 268.25 395.258 266.725 389.428 266.499 388.496 268.007M608.494 269.006C606.395 271.326 607.288 272.938 609.798 271.357 611.658 270.186 612.704 267 611.228 267 610.723 267 609.493 267.903 608.494 269.006M541.028 268.94C539.758 269.762 539.785 269.98 541.22 270.531 543.341 271.345 546.047 270.796 546.303 269.5 546.569 268.149 542.86 267.756 541.028 268.94M378.244 269.664C376.178 270.497 377.911 272 380.937 272 382.487 272 384.315 271.325 385 270.5 386.066 269.215 385.761 269.011 382.872 269.079 381.018 269.122 378.935 269.386 378.244 269.664M320 273.987C320 276.705 319.125 279.238 317.25 281.949 315.737 284.135 314.275 285.934 314 285.947 313.725 285.96 311.834 284.514 309.798 282.735 304.104 277.759 304.421 276.366 312 273.047 315.575 271.482 318.838 270.156 319.25 270.101 319.662 270.045 320 271.794 320 273.987M594.04 279.02C597.926 281.003 598.866 282.346 597.123 283.424 596.053 284.085 589.815 279.989 589.244 278.25 588.685 276.548 589.427 276.667 594.04 279.02M425.143 279.89C424.145 280.523 424.094 280.94 424.95 281.469 426.442 282.391 431 281.27 431 279.981 431 278.776 426.999 278.714 425.143 279.89M341 281.5C341 283.07 342.738 283.421 345.418 282.393 348.03 281.391 347.206 280 344 280 342 280 341 280.5 341 281.5M511 281.481C511 283.066 515.625 284.708 516.795 283.538 517.626 282.708 514.193 280 512.309 280 511.589 280 511 280.666 511 281.481M334.5 281.713C331.528 282.428 330.411 283.837 332.255 284.544 334.038 285.228 338 283.449 338 281.965 338 280.953 337.739 280.934 334.5 281.713M519.976 282.471C520.718 283.365 522.264 283.962 523.412 283.798 526.746 283.322 525.825 281.531 522.063 281.173 518.989 280.88 518.769 281.017 519.976 282.471M612 284.87C618.553 287.287 619.54 287.975 619.816 290.318 620.214 293.685 621.755 293.775 622.999 290.504 623.91 288.107 624.079 288.063 627.224 289.406 629.026 290.174 633.2 291.58 636.5 292.529 639.8 293.477 644.525 295.051 647 296.026 652.409 298.158 662.945 301.252 672.5 303.516 676.35 304.428 679.707 305.38 679.961 305.632 680.214 305.883 679.111 307.134 677.509 308.411 674.604 310.728 674.601 310.741 676.41 313.504L678.225 316.273 675.863 315.708C674.563 315.398 671.25 314.829 668.5 314.446 662.14 313.558 660.934 312.581 661.667 308.913 662.319 305.655 660.513 304.808 659.529 307.91 658.397 311.476 656.79 311.861 651 309.949 647.975 308.95 644.015 308.103 642.2 308.066 640.386 308.03 637.534 307.294 635.865 306.43 634.195 305.567 630.055 304.553 626.664 304.177 620.981 303.548 620.492 303.3 620.392 300.997 620.209 296.79 620.064 296.632 618.048 298.456 616.177 300.15 615.95 300.133 612.565 298.04 610.622 296.839 608.238 294.848 607.266 293.614 606.295 292.38 604.262 290.561 602.75 289.57 599.83 287.659 599.225 285.175 601.2 283.2 602.808 281.592 603.33 281.672 612 284.87M531.22 285.621C532.716 287.146 534.275 288.059 534.684 287.649 535.915 286.418 533.465 283.523 530.898 283.175L528.5 282.849 531.22 285.621M553.219 284.224C551.728 286.035 547.197 287.128 546.417 285.866 545.71 284.722 540 284.744 540 285.891 540 287.432 553.206 289.128 554.572 287.761 554.896 287.437 555.013 286.159 554.831 284.921 554.54 282.939 554.347 282.856 553.219 284.224M574 284.434C574 285.517 574.951 286 577.083 286 580.909 286 580.566 283.644 576.673 283.184 574.779 282.959 574 283.323 574 284.434M325.152 285.885C323.337 287.035 324.094 290.394 326.261 290.812 327.608 291.071 328 290.454 328 288.073 328 284.879 327.43 284.441 325.152 285.885M438.25 286.732C431.527 287.338 433.198 289.134 440.171 288.798 443.991 288.613 446.498 288.024 446.754 287.25 447.173 285.98 446.835 285.959 438.25 286.732M452.245 287.25C452.725 288.705 463 289.59 463 288.177 463 287.179 458.285 286 454.292 286 452.772 286 451.991 286.477 452.245 287.25M559.431 288.112C558.634 289.401 560.71 290.962 563.25 290.985 565.432 291.004 565.56 288.429 563.418 287.607 561.142 286.734 560.21 286.852 559.431 288.112M510.192 288.713C506.98 289.327 508.038 291.488 511.584 291.556 513.188 291.587 515.548 292.184 516.828 292.883 519.28 294.222 522 293.774 522 292.031 522 291.464 521.186 291 520.191 291 519.196 291 517.509 290.339 516.441 289.532 514.438 288.016 514.083 287.97 510.192 288.713M570.273 292.912C571.94 297.328 574.21 297.86 573.813 293.743 573.576 291.291 572.967 290.424 571.314 290.189 569.273 289.898 569.204 290.079 570.273 292.912M603.04 293.188C606.74 295.923 606.864 298 603.329 298 599.547 298 596.771 295.296 598.067 292.874 599.325 290.524 599.448 290.532 603.04 293.188M306.25 295.22C303.146 296.717 303.427 298.199 306.741 297.816 308.395 297.626 309.615 296.805 309.815 295.75 310.19 293.77 309.477 293.664 306.25 295.22M436.008 294.974C434.891 295.68 434.803 296.203 435.658 297.058 437.109 298.509 441 297.326 441 295.433 441 293.811 438.248 293.558 436.008 294.974M443.412 295.143C442.418 296.75 445.882 297.299 457.642 297.397 466.423 297.47 470 297.164 470 296.338 470 295.699 468.313 294.893 466.25 294.546 461.449 293.74 443.997 294.196 443.412 295.143M525 294.955C525 295.48 526.688 296.18 528.75 296.51 530.813 296.841 534.028 297.785 535.896 298.609 540.772 300.76 542.041 298.811 537.507 296.136 533.796 293.947 525 293.116 525 294.955M426 296.122C419.986 297.779 419.594 297.994 420.657 299.057 421.837 300.237 432.61 297.766 432.303 296.386 432.018 295.107 429.995 295.022 426 296.122M640.25 297.137C638.744 298.659 638.582 303 640.031 303 641.396 303 642.238 300.663 641.829 298.01 641.565 296.294 641.254 296.123 640.25 297.137M409.5 298.878C406.492 299.521 405.684 301.573 408.5 301.417 409.325 301.371 411.35 301.258 413 301.167 414.926 301.06 416 300.463 416 299.5 416 297.937 414.55 297.798 409.5 298.878M393.75 301.115C392.238 302.244 391 303.579 391 304.083 391 305.534 393.631 305.15 395 303.5 395.685 302.675 397.765 302 399.622 302 403.142 302 404.151 300.656 401.418 299.607 398.716 298.57 396.604 298.985 393.75 301.115M612.578 301.598C617.092 304.244 619.222 308.178 617.223 310.177 615.989 311.411 614.75 310.748 609.008 305.779 605.376 302.636 604.905 301.82 605.976 300.529 607.594 298.579 607.362 298.542 612.578 301.598M711.2 300.2C709.82 301.58 709.594 304 710.845 304 711.813 304 715 300.68 715 299.671 715 298.564 712.487 298.913 711.2 300.2M489 303.714C489 305.436 500.504 309.829 501.75 308.583 502.755 307.578 500.484 305.905 496.872 304.99 495.018 304.52 492.488 303.827 491.25 303.451 490.012 303.075 489 303.193 489 303.714M554.667 303.667C554.3 304.033 554 304.665 554 305.071 554 306.283 565.004 312.116 566.059 311.464 567.612 310.504 566.245 309.202 561.459 307.085 559.006 306 557 304.637 557 304.056 557 302.871 555.682 302.651 554.667 303.667M383.964 305.349C383.159 306.091 379.912 307.719 376.75 308.965 371.318 311.107 369.285 313 372.417 313 374.479 313 382.665 309.352 383.449 308.083 383.817 307.487 384.936 307 385.937 307 386.937 307 388.315 306.325 389 305.5 390.048 304.237 389.864 304 387.837 304 386.512 304 384.77 304.607 383.964 305.349M628.068 306.603C631.056 307.485 634.625 308.785 636 309.493 638.179 310.614 643.459 311.741 655.696 313.696 658.522 314.147 658.927 314.619 659.196 317.776 659.582 322.305 662 323.432 662 319.083 662 315.422 662.44 315.372 673 317.822 679.813 319.403 680.528 319.802 680.806 322.177 680.975 323.615 682.042 325.626 683.179 326.646 685.241 328.497 685.243 328.494 684.522 324.179 683.852 320.166 683.932 319.934 685.65 320.921 688.131 322.347 699.09 324.974 706.522 325.924 709.835 326.348 714.124 327.216 716.055 327.853 717.985 328.49 723.15 329.418 727.532 329.916 731.915 330.414 739.1 331.723 743.5 332.827 747.9 333.93 756 335.523 761.5 336.366 767 337.209 774.2 338.421 777.5 339.058 780.8 339.695 784.483 340.393 785.684 340.61 787.176 340.88 787.968 341.851 788.184 343.675 788.605 347.232 791 348.004 791 344.583 791 341.607 790.901 341.626 797.5 343.329 801.791 344.436 802.545 345.001 802.816 347.31 803.316 351.554 805.652 350.523 806.351 345.75 806.693 343.412 807.256 340.488 807.603 339.25 808.473 336.144 806.588 336.413 805.135 339.602 804.127 341.816 803.543 342.093 801.225 341.461 799.726 341.052 796.925 340.435 795 340.089 792.963 339.724 791.444 338.842 791.365 337.98 791.291 337.166 791.179 336.093 791.115 335.595 791.052 335.097 790.152 335.457 789.116 336.395 787.618 337.751 786.135 337.972 781.866 337.475 778.915 337.131 775.6 336.468 774.5 336.001 771.481 334.72 756.447 332 752.384 332 750.417 332 746.376 331.293 743.404 330.429 738.618 329.038 737.996 328.552 737.967 326.179L737.933 323.5 735.942 325.892 733.95 328.284 724.725 326.598C719.651 325.671 713.541 324.464 711.147 323.916 706.323 322.812 692.702 320.183 686.5 319.16 682.667 318.528 682.488 318.331 682.202 314.448 681.731 308.037 685.21 305.765 692.5 307.725 694.7 308.316 697.63 309.051 699.012 309.359 700.965 309.794 701.522 310.54 701.512 312.709 701.497 316.113 703.364 316.977 703.846 313.79 704.461 309.719 705.742 308.994 709.527 310.576 711.402 311.359 714.188 312.007 715.718 312.015 720.162 312.04 721.318 313.276 720.477 317.105 719.795 320.21 719.87 320.353 721.474 319.021 722.428 318.23 723.62 316.5 724.122 315.178 724.823 313.336 725.559 312.903 727.268 313.327 728.496 313.631 731.668 314.4 734.318 315.036 736.968 315.671 739.368 316.796 739.652 317.536 740.059 318.596 740.695 318.64 742.658 317.746 744.442 316.933 745.635 316.915 746.863 317.682 747.805 318.271 750.503 319.078 752.858 319.476 757.551 320.269 758.728 321.772 757.074 324.861 755.091 328.567 757.899 328.286 760.098 324.559 761.253 322.601 762.406 321 762.661 321 762.916 321 765.346 321.727 768.062 322.615 772.147 323.951 773 324.642 773 326.615 773 329.718 774.377 329.662 775.818 326.5 777.006 323.893 778.82 323.395 781.764 324.87 788.538 328.264 793.546 330 796.562 330 798.492 330 801.067 330.652 802.285 331.449 803.503 332.246 806.975 333.336 810 333.871 813.025 334.406 819.502 335.543 824.394 336.397 829.285 337.251 834.064 338.653 835.014 339.513 836.442 340.805 837.2 340.866 839.393 339.867 841.688 338.821 842.446 338.954 845.007 340.847 847.534 342.715 848.268 342.851 850.012 341.768 851.746 340.692 852.681 340.841 856.177 342.749 859.286 344.445 860.628 344.724 861.638 343.885 863.206 342.584 868.82 343.417 871.453 345.342 872.943 346.431 873.053 347.033 872.091 348.829 871.156 350.577 870.028 351 866.297 351 861.829 351 850.088 349.389 847 348.353 846.175 348.076 839.054 347.65 831.175 347.407 821.691 347.114 815.651 346.463 813.303 345.482 809.118 343.733 808 343.637 808 345.025 808 345.588 809.013 346.446 810.25 346.93 811.487 347.414 813.85 348.36 815.5 349.033 817.15 349.705 824.575 350.447 832 350.682 839.425 350.917 849.55 351.758 854.5 352.551 859.45 353.343 864.972 353.994 866.771 353.996 869.288 353.999 870.306 354.577 871.182 356.5 872.834 360.127 874 359.568 874 355.149 874 353.031 874.494 349.881 875.098 348.149 876.078 345.338 876.617 345 880.123 345 883.391 345 884.209 345.419 885 347.5 886.206 350.671 886.804 350.646 888.048 347.373 888.957 344.983 889.383 344.808 892.774 345.44 894.823 345.822 903.025 346.346 911 346.604 918.975 346.862 926.063 347.267 926.75 347.505 927.438 347.743 928 349.046 928 350.401 928 353.542 924.236 355.043 922.458 352.611 921.396 351.16 921.124 351.146 920.009 352.489 919.319 353.32 918.135 354 917.378 354 916.62 354 916 354.45 916 355 916 355.55 917.125 356 918.5 356 921.468 356 921.878 358.46 919.153 359.918 917.266 360.928 915 359.679 915 357.629 915 357.095 914.296 355.88 913.436 354.929 912.171 353.532 910.752 353.303 906.015 353.732 900.168 354.263 900.158 354.259 899.785 351.382L899.412 348.5 898.045 351.251C896.562 354.235 895.978 354.275 881.25 352.393 875.132 351.61 873.909 353.32 879.75 354.489 887.506 356.041 897.72 357.093 904.083 356.994 908.952 356.919 911.007 357.303 911.976 358.47 912.696 359.338 913.017 360.316 912.69 360.644 912.362 360.971 908.209 361.633 903.46 362.114 898.712 362.595 894.396 363.255 893.869 363.581 893.343 363.906 892.221 363.598 891.375 362.896 890.124 361.858 889.434 361.879 887.669 363.009 884.906 364.779 865.165 365.382 863.207 363.757 862.22 362.938 860.944 362.98 858.35 363.918 855.187 365.062 854.613 364.986 852.666 363.167 850.745 361.372 850.28 361.305 848.559 362.572 846.22 364.292 840.848 364.448 839.241 362.841 838.547 362.147 835.428 361.768 831.46 361.897 827.569 362.023 824.259 361.63 823.432 360.944 822.659 360.302 820.915 360.055 819.558 360.396 818.171 360.744 814.333 360.158 810.795 359.058 807.333 357.982 802.373 356.827 799.773 356.493 797.174 356.158 794.785 355.46 794.464 354.942 794.144 354.424 791.463 354 788.506 354 785.549 354 781.863 353.502 780.315 352.893 778.767 352.285 774.22 351.616 770.212 351.408 766.203 351.2 762.005 350.538 760.883 349.938 759.762 349.337 758.141 349.116 757.281 349.446 756.422 349.775 753.021 349.515 749.725 348.866 745.354 348.006 743.6 347.188 743.249 345.843 742.657 343.582 742.155 343.55 739.861 345.626 738.276 347.06 737.207 347.108 730.782 346.035 726.777 345.366 720.8 344.461 717.5 344.022 709.832 343.004 708.345 342.355 707.543 339.681L706.89 337.5 705.792 339.75C704.572 342.252 702.556 342.462 694.5 340.929 691.75 340.406 685.972 339.785 681.659 339.549 676.515 339.267 672.404 338.419 669.704 337.083 666.815 335.654 665.382 335.382 664.894 336.172 663.927 337.736 651.506 336.386 646.953 334.222 644.911 333.252 642.172 330.618 640.501 328.018 637.752 323.741 634.351 319.736 625.75 310.645 622.526 307.237 621.166 305 622.318 305 622.494 305 625.081 305.721 628.068 306.603M279.572 309.324C276.821 311.335 277.878 313.259 280.888 311.721 283.259 310.508 283.943 308.814 282.285 308.262 281.809 308.103 280.588 308.581 279.572 309.324M290.211 311.132C290.418 311.754 292.486 313.639 294.806 315.32 297.79 317.481 299.336 318.064 300.089 317.311 300.842 316.558 299.799 315.331 296.527 313.123 291.713 309.874 289.566 309.197 290.211 311.132M364.408 313.807C362.707 314.738 359.224 316.4 356.667 317.5 351.845 319.575 350.682 321 353.81 321 356.569 321 370.132 314.022 369.466 312.945 368.694 311.696 368.073 311.801 364.408 313.807M536.226 314.179C536.737 315.712 541.879 315.986 542.25 314.5 542.387 313.95 540.989 313.355 539.143 313.179 536.708 312.946 535.907 313.22 536.226 314.179M571.75 314.392C570.788 315.123 570 315.985 570 316.309 570 317.364 580.954 320.381 581.738 319.542 582.157 319.093 581.851 318.496 581.057 318.215 580.263 317.934 578.555 316.646 577.261 315.352 574.562 312.653 574.139 312.579 571.75 314.392M621.07 318.415C620.416 319.204 620.196 320.933 620.564 322.398L621.214 324.987 617.366 323.38C614.334 322.113 612.881 322.003 610.509 322.859 606.826 324.189 603.077 323.317 600.895 320.622 599.323 318.68 599.186 318.671 597.471 320.386 596.225 321.633 594.901 321.977 593.092 321.526 586.159 319.795 584.741 319.722 585.2 321.118 585.637 322.448 593.035 324.031 607.5 325.89 610.8 326.315 615.525 327.406 618 328.316 620.475 329.226 622.837 329.977 623.25 329.985 624.315 330.006 624.185 318.233 623.113 317.57 622.626 317.269 621.706 317.649 621.07 318.415M259.711 323.975C256.546 326.963 255.951 327.956 257.317 327.975 259.137 328 266.948 322.161 266.982 320.75 267.028 318.821 263.526 320.374 259.711 323.975M319 321.813C319 323.149 321.239 323.893 327.451 324.623 330.735 325.009 332.977 324.846 333.382 324.191 334.316 322.679 333.312 322.331 325.75 321.543 321.562 321.107 319 321.21 319 321.813M341.517 322.133C336.814 323.234 334.987 324.674 337.211 325.527 339.049 326.233 349 323.158 349 321.885 349 320.817 346.834 320.889 341.517 322.133M663 339.976C671.668 340.846 697.43 344.019 700.75 344.626 702.894 345.019 703 345.48 703 354.397 703 361.23 702.62 364.071 701.59 364.925 700.438 365.881 700.053 365.492 699.486 362.798 698.734 359.228 694.866 355.193 691.562 354.53 690.428 354.303 684.775 353.022 679 351.685 673.225 350.347 665.8 348.699 662.5 348.022 654.595 346.4 652.12 345.133 650.415 341.835 648.418 337.973 648.591 337.657 652.25 338.487 654.038 338.892 658.875 339.563 663 339.976M912.71 339.974C914.291 341.821 914.518 341.841 916.236 340.286 917.762 338.905 918.615 338.815 921.286 339.753 923.054 340.373 925.685 340.64 927.133 340.346 930.122 339.739 931.725 341.421 930.064 343.423 929.212 344.449 926.364 344.64 917.728 344.249 911.553 343.969 906.314 343.575 906.088 343.374 905.861 343.173 906.189 341.882 906.816 340.504 908.188 337.493 910.414 337.293 912.71 339.974M955.474 342.038C957.688 342.562 965.419 343.409 972.653 343.92 988.988 345.073 994.341 347.359 991.892 352.134 990.689 354.479 987.02 354.915 963.5 355.506 951.95 355.796 940.805 356.292 938.734 356.608 935.603 357.084 934.638 356.786 933.017 354.841 930.926 352.331 930.381 348.501 931.975 347.516 932.511 347.184 937.573 347.384 943.225 347.96 948.876 348.536 956.626 349.276 960.446 349.604 965.798 350.064 966.982 350.43 965.607 351.2 964.625 351.75 962.746 351.993 961.431 351.742 957.818 351.051 936.008 352.592 934.989 353.61 934.468 354.13 939.792 354.366 947.799 354.177 967.833 353.705 978.266 352.718 978.752 351.25 979.023 350.433 978.111 350 976.118 350 974.442 350 971.142 349.37 968.785 348.6 966.428 347.83 960.225 346.927 955 346.592 932.94 345.181 930.854 344.629 934.25 341.101 935.611 339.688 947.827 340.226 955.474 342.038M637 342.429C637 344.047 639.973 347.36 640.739 346.594 641.015 346.319 640.953 344.947 640.601 343.547 639.93 340.875 637 339.965 637 342.429M716.5 346.556C722.738 347.428 723.224 347.713 722.089 349.833 721.308 351.294 708.269 359 706.579 359 705.736 359 705.868 346.466 706.72 345.613 707.116 345.218 708.353 345.11 709.47 345.375 710.586 345.64 713.75 346.171 716.5 346.556M675 353.604C691.832 357.452 694.004 358.167 695.543 360.364 697.605 363.309 697.357 367.218 694.658 374.329 693.369 377.723 691.794 382.644 691.158 385.264 689.517 392.017 689.723 404.706 691.576 410.943 692.442 413.861 692.78 416.584 692.326 416.993 691.872 417.402 686.775 419.869 681 422.475 671.031 426.974 660.262 432.485 649.75 438.468 644.578 441.411 643.428 440.418 646.75 435.878 653.273 426.962 654.308 423.635 653.554 414.004 653.09 408.067 653.218 404.984 653.947 404.533 655.413 403.627 659.161 396.402 660.708 391.5 662.991 384.263 661.655 370.647 657.488 358.688 656.686 356.385 656.023 353.482 656.015 352.238 656.001 350.146 656.319 350.022 660.25 350.59 662.587 350.928 669.225 352.284 675 353.604M641 352.429C641 354.047 643.973 357.36 644.739 356.594 645.015 356.319 644.953 354.947 644.601 353.547 643.93 350.875 641 349.965 641 352.429M928.569 356.112C929.32 357.327 927.105 359.159 925.5 358.651 924.95 358.477 924.355 357.584 924.177 356.667 923.805 354.752 927.444 354.292 928.569 356.112M642.184 372.673C642.644 376.566 645 376.909 645 373.083 645 370.951 644.517 370 643.434 370 642.323 370 641.959 370.779 642.184 372.673M697.326 383.273C695.953 387.218 695.506 391.493 695.503 400.7 695.5 413.477 694.921 414.89 693.156 406.432 691.528 398.624 694.177 380.177 697.712 374.715 699.371 372.15 699.099 378.178 697.326 383.273M622 376.914C623.925 377.411 627.173 378.101 629.218 378.448 633.737 379.214 636.286 381.523 635.467 384.105 634.969 385.674 635.375 386 637.834 386 640.144 386 641.243 386.747 642.789 389.366 645.126 393.327 649 403.902 649 406.319 649 407.246 647.2 409.631 645 411.619 642.8 413.607 641 415.63 641 416.116 641 417.835 643.682 416.968 646 414.5 650.277 409.948 651.774 411.89 651.012 421 650.488 427.272 636.807 445.909 632.636 446.034 632.011 446.053 629.7 446.937 627.5 448 625.3 449.063 621.389 449.947 618.809 449.966 614.266 449.999 611.903 448.796 613.984 447.51 614.543 447.165 615 446.459 615 445.941 615 444.226 613.018 444.964 610.813 447.5 608.154 450.558 604.429 450.728 597.5 448.107 591.692 445.909 590.895 443.69 593.34 436.516 594.736 432.419 594.635 431 592.948 431 592.039 431 589 440.189 589 442.938 589 445.72 587.63 445.536 582.68 442.089 575.661 437.201 571.989 431.608 569.405 421.869 567.717 415.508 567.72 414.922 569.472 407.483 570.476 403.218 572.918 396.808 574.899 393.239 578.088 387.491 579.129 386.47 584 384.3 587.025 382.953 590.907 381.214 592.628 380.437 595.05 379.341 608.72 376.962 617.5 376.108 618.05 376.055 620.075 376.418 622 376.914M625.302 391.275C622.443 393.599 620.081 396.304 620.052 397.286 620.013 398.62 621.584 397.761 626.25 393.895 629.688 391.048 632.65 388.331 632.833 387.859 633.642 385.774 630.084 387.388 625.302 391.275M634.537 422.54C633.052 424.487 628.274 429.765 623.919 434.269 619.563 438.773 616 442.58 616 442.729 616 442.878 616.74 443 617.645 443 619.576 443 631 431.321 631 429.347 631 428.606 631.622 428 632.381 428 633.861 428 639 421.84 639 420.067 639 418.033 637.224 419.017 634.537 422.54M620.998 453.098C620.999 453.427 619.087 454.493 616.75 455.468 614.413 456.442 611.6 457.621 610.5 458.088 606.585 459.75 597.488 462.999 596.75 462.999 596.337 463 596 462.642 596 462.205 596 461.268 605.588 453.77 607.902 452.898 609.935 452.132 620.995 452.301 620.998 453.098" stroke="#000000" stroke-width="8" fill-rule="evenodd"/></g></svg>