<svg id="svg" version="1.1" width="800" height="297" xmlns="http://www.w3.org/2000/svg"><path d="M184.500 15.165 C 174.170 16.092,139.477 17.194,125.636 17.034 C 121.311 16.985,117.261 17.333,116.636 17.809 C 116.011 18.285,112.575 19.708,109.000 20.971 C 105.425 22.234,97.550 26.519,91.500 30.493 C 82.355 36.499,71.344 43.433,62.906 48.500 C 58.380 51.217,49.846 58.336,47.636 61.236 C 42.681 67.741,38.000 76.443,38.000 79.151 C 38.000 81.137,36.810 82.990,33.790 85.710 C 19.282 98.770,16.481 102.236,11.209 113.661 C 3.348 130.693,1.701 137.770,1.704 154.500 C 1.707 168.744,3.558 178.740,7.565 186.154 C 8.354 187.614,9.000 189.571,9.000 190.502 C 9.000 192.951,16.775 208.575,21.159 214.937 C 23.220 217.927,27.965 223.579,31.703 227.496 C 35.441 231.413,40.573 236.842,43.108 239.559 C 49.955 246.901,61.694 257.229,70.514 263.670 C 86.088 275.044,87.580 276.045,92.500 278.417 C 105.505 284.687,117.282 286.711,148.000 287.958 C 161.475 288.504,176.775 289.404,182.000 289.957 C 199.101 291.768,212.697 292.076,226.713 290.971 C 243.728 289.630,260.866 287.382,264.442 286.022 C 265.921 285.460,268.306 285.000,269.744 285.000 C 271.182 285.000,275.315 284.100,278.929 283.000 C 298.048 277.179,302.322 275.815,311.500 272.600 C 328.343 266.700,329.634 266.180,339.215 261.439 C 344.322 258.912,351.200 256.153,354.500 255.309 C 359.972 253.908,366.742 251.530,377.500 247.229 C 379.700 246.350,382.400 244.862,383.500 243.923 C 385.989 241.798,438.439 215.222,446.550 211.975 C 449.823 210.666,453.241 208.983,454.147 208.236 C 455.052 207.489,458.427 206.472,461.647 205.977 C 464.866 205.482,470.650 204.361,474.500 203.485 C 507.850 195.897,569.138 192.633,624.000 195.522 C 671.890 198.044,690.447 198.840,691.158 198.402 C 691.519 198.179,697.074 197.930,703.501 197.850 C 717.244 197.678,726.260 195.956,745.707 189.786 C 757.927 185.910,761.286 184.357,769.732 178.680 C 780.966 171.129,788.180 164.339,790.517 159.116 C 791.407 157.127,792.658 154.438,793.296 153.139 C 794.903 149.870,794.769 132.413,793.099 127.500 C 789.213 116.068,786.276 111.483,780.031 107.103 C 773.666 102.638,759.819 96.190,749.500 92.886 C 740.763 90.088,725.451 88.116,703.663 86.983 C 682.793 85.898,657.496 82.138,641.000 77.668 C 632.019 75.234,620.937 73.094,614.000 72.454 C 610.425 72.124,603.900 71.251,599.500 70.514 C 595.100 69.777,587.450 68.885,582.500 68.532 C 573.035 67.857,552.285 65.084,537.176 62.477 C 525.060 60.386,511.512 56.924,492.500 51.059 C 488.650 49.871,483.700 48.451,481.500 47.902 C 479.300 47.353,473.225 45.631,468.000 44.075 C 437.568 35.011,422.482 32.273,368.500 26.016 C 357.141 24.699,341.712 23.869,322.000 23.514 C 305.775 23.223,287.325 22.550,281.000 22.020 C 274.675 21.490,262.525 20.546,254.000 19.921 C 245.475 19.297,236.309 18.385,233.631 17.896 C 230.953 17.407,222.628 16.558,215.131 16.010 C 207.634 15.462,199.925 14.845,198.000 14.640 C 196.075 14.435,190.000 14.671,184.500 15.165 M150.000 20.052 C 144.067 24.091,143.163 24.211,138.722 21.550 L 134.500 19.019 143.000 19.025 C 149.099 19.029,151.076 19.319,150.000 20.052 M231.500 21.097 C 242.414 22.859,243.000 23.059,243.000 25.020 C 243.000 26.044,242.550 27.160,242.000 27.500 C 241.450 27.840,241.000 28.782,241.000 29.594 C 241.000 30.760,241.420 30.846,243.000 30.000 C 244.100 29.411,245.000 28.340,245.000 27.620 C 245.000 26.899,245.886 25.508,246.968 24.529 C 248.748 22.918,249.680 22.858,256.678 23.899 C 260.936 24.532,265.926 25.939,267.767 27.025 C 269.608 28.111,272.344 29.000,273.847 29.000 C 277.306 29.000,288.204 31.808,289.408 33.009 C 289.951 33.552,289.769 34.574,288.954 35.556 C 287.812 36.932,286.373 37.088,280.046 36.521 C 269.150 35.546,267.825 35.127,268.537 32.884 C 269.307 30.457,268.583 30.509,265.029 33.137 C 262.487 35.016,261.375 35.187,255.819 34.550 C 252.344 34.152,239.209 33.874,226.631 33.931 L 203.763 34.036 201.511 31.606 C 199.877 29.844,197.718 28.984,193.648 28.475 C 186.358 27.564,184.390 28.179,179.164 33.000 C 175.416 36.458,174.197 37.004,170.164 37.030 C 165.256 37.061,142.588 39.355,132.660 40.825 L 126.819 41.690 122.809 37.411 C 120.603 35.058,117.313 32.428,115.498 31.566 C 111.685 29.757,104.782 29.511,101.849 31.081 C 100.738 31.676,99.570 31.903,99.254 31.587 C 98.507 30.841,101.977 27.002,103.405 26.994 C 104.007 26.990,105.850 26.232,107.500 25.308 C 109.150 24.385,113.875 23.295,118.000 22.886 C 122.125 22.478,126.951 21.837,128.725 21.462 C 133.451 20.463,140.584 24.796,141.535 29.245 C 141.918 31.035,142.741 33.137,143.365 33.917 C 144.261 35.034,144.606 34.298,145.000 30.430 C 145.462 25.903,145.820 25.350,149.666 23.235 C 153.561 21.092,155.279 20.910,176.118 20.436 C 188.375 20.157,198.651 19.679,198.952 19.372 C 199.702 18.609,224.096 19.902,231.500 21.097 M302.361 25.948 C 312.184 26.526,328.609 27.003,338.861 27.006 C 350.276 27.010,361.342 27.591,367.413 28.506 C 372.865 29.328,378.860 30.000,380.736 30.000 C 384.070 30.000,402.019 32.499,421.000 35.606 C 437.447 38.299,466.298 45.747,496.000 54.968 C 522.326 63.141,540.796 66.621,584.000 71.547 C 620.294 75.685,623.322 76.174,648.500 81.964 C 669.975 86.903,683.488 88.675,709.570 89.973 C 730.360 91.008,742.924 93.051,753.000 97.035 C 756.025 98.231,760.242 99.854,762.370 100.641 C 772.892 104.533,782.511 111.150,785.248 116.377 C 789.815 125.101,791.095 130.215,791.186 140.108 C 791.350 158.053,785.891 165.843,763.877 179.074 C 755.882 183.879,754.817 184.320,743.500 187.518 C 740.200 188.450,735.825 189.832,733.777 190.587 C 720.297 195.564,687.564 197.248,654.410 194.669 C 586.245 189.367,515.737 191.694,475.507 200.574 C 459.645 204.075,459.276 204.026,458.422 198.329 C 457.553 192.535,458.625 175.106,460.083 171.313 C 460.678 169.766,461.540 166.226,461.998 163.446 C 463.237 155.930,466.438 151.789,474.331 147.491 C 478.088 145.446,482.695 142.238,484.569 140.364 C 487.105 137.829,488.556 137.101,490.239 137.521 C 491.482 137.831,494.525 138.287,497.000 138.534 C 506.525 139.484,517.629 141.141,520.571 142.050 C 522.260 142.573,526.126 143.000,529.162 143.000 C 532.198 143.000,536.891 143.670,539.591 144.489 C 542.291 145.308,545.785 145.983,547.356 145.989 C 548.926 145.995,552.751 146.615,555.856 147.366 C 562.995 149.094,574.873 151.620,582.000 152.925 C 589.805 154.354,620.649 156.362,632.500 156.212 C 643.747 156.071,668.906 153.663,676.500 152.002 C 679.250 151.400,683.527 150.574,686.004 150.165 C 688.482 149.756,691.182 149.001,692.004 148.488 C 692.827 147.974,706.100 147.317,721.500 147.027 C 749.237 146.505,749.531 146.477,752.750 144.062 C 756.496 141.252,756.798 139.285,754.026 135.760 C 751.616 132.697,746.969 131.462,732.500 130.042 C 726.450 129.449,717.225 128.530,712.000 128.001 C 702.302 127.018,689.460 126.144,673.625 125.388 C 668.744 125.154,664.244 124.647,663.625 124.261 C 663.006 123.874,660.925 123.450,659.000 123.319 C 649.585 122.678,643.223 121.715,640.500 120.520 C 638.850 119.796,633.675 118.883,629.000 118.491 C 624.325 118.099,619.946 117.330,619.269 116.782 C 618.592 116.235,615.442 115.434,612.269 115.004 C 609.096 114.573,602.675 113.239,598.000 112.038 C 589.706 109.909,578.645 107.083,564.500 103.480 C 560.650 102.500,556.150 101.521,554.500 101.304 C 552.850 101.088,548.575 100.044,545.000 98.984 C 541.425 97.925,534.675 95.918,530.000 94.524 C 525.325 93.131,520.481 91.993,519.236 91.996 C 517.991 91.998,516.191 91.592,515.236 91.092 C 512.618 89.723,503.034 87.000,500.836 87.000 C 499.771 87.000,497.486 86.268,495.756 85.374 C 494.027 84.479,489.886 82.953,486.556 81.982 C 483.225 81.011,478.325 79.268,475.667 78.108 C 473.009 76.949,469.717 76.000,468.351 76.000 C 466.986 76.000,464.886 75.454,463.684 74.786 C 460.163 72.829,447.734 69.028,444.809 69.013 C 443.329 69.006,441.858 68.579,441.539 68.064 C 441.221 67.549,437.707 66.158,433.730 64.972 C 423.977 62.065,419.514 60.596,413.000 58.149 C 409.975 57.013,404.350 55.405,400.500 54.576 C 391.956 52.736,377.005 48.634,371.275 46.558 C 367.036 45.022,356.716 43.095,339.000 40.531 C 333.775 39.774,326.350 38.208,322.500 37.050 C 318.650 35.892,313.025 34.549,310.000 34.064 C 306.975 33.580,303.233 32.693,301.685 32.092 C 300.137 31.491,297.395 31.000,295.591 31.000 C 293.788 31.000,289.697 30.100,286.500 29.000 C 283.303 27.900,278.845 26.997,276.593 26.993 C 272.776 26.987,266.318 24.016,267.516 22.817 C 267.809 22.524,271.750 22.872,276.274 23.590 C 280.798 24.308,292.537 25.369,302.361 25.948 M193.458 30.932 C 194.249 32.211,190.053 35.000,187.337 35.000 C 184.294 35.000,183.301 32.984,185.538 31.348 C 187.648 29.805,192.601 29.545,193.458 30.932 M118.880 37.414 L 122.401 40.934 118.733 42.467 C 116.715 43.310,114.412 44.000,113.615 44.000 C 112.818 44.000,110.066 44.900,107.500 46.000 C 101.924 48.390,99.667 48.509,98.000 46.500 C 96.248 44.388,90.144 44.633,85.500 47.000 C 83.342 48.100,79.899 49.000,77.848 49.000 C 73.147 49.000,71.843 50.763,76.231 51.185 C 78.929 51.445,79.500 51.920,79.500 53.902 C 79.500 55.939,78.440 56.734,72.551 59.120 C 68.729 60.668,65.415 61.749,65.188 61.521 C 64.961 61.294,65.314 58.858,65.974 56.109 C 66.992 51.864,67.952 50.514,72.337 47.162 C 79.770 41.478,93.682 34.666,99.500 33.861 C 102.250 33.480,106.943 33.332,109.930 33.531 C 114.566 33.840,115.874 34.407,118.880 37.414 M303.654 35.500 C 305.629 36.325,308.677 37.000,310.428 37.000 C 314.373 37.000,325.887 40.741,328.248 42.790 C 329.533 43.905,330.571 44.051,332.161 43.341 C 334.773 42.176,345.673 43.484,347.756 45.213 C 348.550 45.871,350.617 46.300,352.350 46.166 C 354.082 46.031,359.428 46.678,364.228 47.603 C 370.657 48.842,373.100 49.741,373.505 51.015 C 373.917 52.313,375.111 52.728,378.277 52.674 C 380.600 52.634,387.000 53.871,392.500 55.423 C 398.000 56.974,404.075 58.558,406.000 58.943 C 412.073 60.156,418.925 63.187,419.469 64.902 C 419.869 66.162,420.929 66.464,423.939 66.177 C 428.136 65.777,437.452 68.346,440.079 70.628 C 440.947 71.383,443.075 72.000,444.808 72.000 C 449.399 72.000,461.283 76.100,462.816 78.212 C 463.731 79.473,464.608 79.759,465.696 79.150 C 467.506 78.137,475.508 80.264,477.927 82.400 C 478.792 83.163,480.625 83.793,482.000 83.799 C 483.375 83.805,487.875 85.202,492.000 86.902 C 496.125 88.602,500.728 89.995,502.230 89.997 C 505.305 90.000,512.725 92.659,515.000 94.571 C 515.825 95.265,517.706 95.599,519.179 95.313 C 520.753 95.008,525.834 96.074,531.496 97.897 C 536.796 99.604,541.971 101.000,542.995 101.000 C 544.019 101.000,545.547 101.690,546.391 102.534 C 547.350 103.493,550.313 104.202,554.303 104.425 C 557.810 104.622,561.990 105.445,563.590 106.254 C 565.191 107.062,569.037 107.973,572.137 108.278 C 575.238 108.583,579.153 109.545,580.838 110.416 C 582.522 111.287,585.161 112.000,586.700 112.000 C 589.166 112.000,596.032 113.924,605.500 117.268 C 607.150 117.851,610.269 118.259,612.432 118.173 C 614.829 118.079,617.057 118.647,618.141 119.628 C 619.336 120.709,620.781 121.021,622.545 120.578 C 626.781 119.515,629.276 120.764,628.566 123.594 C 627.831 126.520,629.500 126.774,631.232 124.000 C 632.050 122.690,633.564 122.000,635.618 122.000 C 638.633 122.000,641.618 124.048,640.391 125.275 C 640.066 125.601,640.134 126.408,640.543 127.070 C 641.066 127.915,641.815 127.571,643.069 125.909 C 644.761 123.665,645.084 123.608,649.440 124.773 C 651.964 125.448,656.021 126.000,658.455 126.000 C 663.683 126.000,664.760 127.191,662.563 130.544 C 660.716 133.363,657.473 133.720,654.248 131.461 C 652.287 130.087,651.739 130.084,649.144 131.425 C 646.948 132.561,645.416 132.693,642.876 131.964 C 641.027 131.434,638.122 131.262,636.419 131.581 C 634.557 131.931,631.765 131.508,629.412 130.522 C 627.055 129.534,624.261 129.112,622.384 129.461 C 617.868 130.301,616.000 129.257,616.000 125.893 C 616.000 122.311,614.284 122.124,612.976 125.563 C 612.163 127.700,611.460 128.075,608.751 127.813 C 605.892 127.538,605.523 127.169,605.688 124.750 C 605.913 121.469,603.605 121.000,602.000 124.000 C 600.674 126.477,596.359 126.640,593.072 124.338 C 591.615 123.317,588.232 122.564,584.302 122.385 C 580.783 122.225,576.463 121.652,574.702 121.112 C 572.941 120.571,569.700 119.652,567.500 119.068 C 561.535 117.485,560.580 116.653,561.899 114.188 C 563.616 110.980,561.456 110.595,558.659 113.612 C 555.851 116.640,554.057 116.488,545.532 112.496 C 542.403 111.031,539.496 110.340,537.844 110.669 C 536.354 110.965,532.516 110.248,529.100 109.036 C 525.752 107.847,522.527 107.174,521.934 107.541 C 521.341 107.907,517.964 107.378,514.428 106.366 C 508.453 104.655,506.593 102.988,509.000 101.500 C 510.392 100.640,510.252 99.000,508.788 99.000 C 508.121 99.000,506.601 100.222,505.409 101.716 C 503.382 104.258,503.060 104.345,500.372 103.076 C 496.451 101.225,490.397 99.835,485.000 99.546 C 479.985 99.278,471.673 97.398,468.284 95.766 C 466.641 94.974,465.672 95.027,464.535 95.971 C 463.388 96.923,462.309 96.977,460.251 96.184 C 458.738 95.602,456.055 94.840,454.289 94.492 C 451.363 93.914,451.130 93.599,451.664 90.929 C 452.391 87.294,450.432 86.958,448.843 90.445 C 447.249 93.943,445.195 94.356,440.564 92.108 C 438.329 91.024,433.800 89.601,430.500 88.948 C 422.884 87.439,407.780 83.005,406.610 81.935 C 406.109 81.476,406.872 79.753,408.360 77.984 C 409.812 76.258,411.000 74.503,411.000 74.084 C 411.000 73.664,412.125 72.808,413.500 72.182 C 414.875 71.555,416.000 70.583,416.000 70.021 C 416.000 67.757,413.219 69.326,408.024 74.522 C 405.012 77.535,402.087 80.000,401.524 80.001 C 400.961 80.001,397.222 78.988,393.216 77.751 C 386.596 75.705,385.982 75.295,386.485 73.250 C 387.135 70.606,386.328 70.393,383.919 72.573 C 382.330 74.011,381.397 73.912,373.090 71.419 C 368.091 69.918,364.000 68.365,364.000 67.968 C 364.000 67.570,364.675 66.685,365.500 66.000 C 367.391 64.431,367.430 63.000,365.583 63.000 C 364.804 63.000,363.309 64.178,362.260 65.617 C 360.399 68.172,360.280 68.196,357.227 66.617 C 355.507 65.728,352.839 64.984,351.300 64.965 C 349.760 64.945,347.375 64.286,346.000 63.500 C 344.625 62.714,342.600 62.051,341.500 62.026 C 340.400 62.001,337.602 60.522,335.283 58.740 C 332.964 56.958,329.923 54.689,328.527 53.699 C 326.568 52.309,326.128 51.337,326.602 49.449 C 327.320 46.588,326.396 46.331,323.809 48.673 C 322.073 50.244,321.778 50.212,318.977 48.141 C 311.882 42.896,308.585 41.000,306.555 41.000 C 303.722 41.000,292.000 37.033,292.000 36.075 C 292.000 33.557,298.264 33.248,303.654 35.500 M195.527 37.044 C 197.442 40.143,187.393 43.351,183.050 41.027 C 181.256 40.067,181.090 39.596,182.111 38.366 C 182.832 37.498,184.241 37.095,185.472 37.404 C 186.639 37.696,188.922 37.539,190.546 37.054 C 194.571 35.852,194.790 35.852,195.527 37.044 M231.801 39.086 C 232.184 42.382,230.489 43.759,225.487 44.213 L 221.500 44.575 224.206 45.746 C 226.496 46.737,226.865 47.438,226.607 50.309 C 226.152 55.386,225.292 56.217,221.147 55.585 C 212.956 54.335,200.135 53.972,199.517 54.972 C 198.915 55.947,201.477 56.320,209.665 56.450 C 211.406 56.477,213.168 56.837,213.582 57.250 C 213.995 57.663,216.171 58.006,218.417 58.014 C 225.778 58.038,227.000 58.762,227.000 63.098 C 227.000 66.386,226.627 67.055,224.500 67.589 C 221.088 68.446,221.342 70.000,224.893 70.000 C 227.998 70.000,229.441 72.034,228.482 75.057 C 227.731 77.424,229.450 78.367,231.035 76.457 C 232.020 75.271,232.045 74.092,231.149 71.102 C 230.517 68.993,230.000 65.183,230.000 62.634 C 230.000 58.318,230.177 58.000,232.583 58.000 C 234.208 58.000,235.010 57.536,234.746 56.750 C 234.514 56.063,233.239 55.481,231.912 55.459 C 229.705 55.421,229.517 55.046,229.706 51.045 C 229.819 48.640,230.494 46.294,231.206 45.832 C 231.918 45.369,235.200 45.105,238.500 45.245 C 245.683 45.550,247.131 43.718,240.275 43.000 C 235.972 42.549,235.469 42.232,235.187 39.785 C 234.932 37.576,235.357 36.949,237.463 36.420 C 240.748 35.595,254.804 36.874,255.540 38.064 C 256.501 39.620,254.152 42.745,251.526 43.404 C 247.459 44.425,248.614 45.595,253.750 45.657 C 262.439 45.763,273.344 47.040,274.624 48.103 C 276.002 49.247,274.905 52.946,272.236 56.156 C 270.603 58.121,270.964 64.170,272.750 64.756 C 273.568 65.025,274.000 64.102,274.000 62.083 C 274.000 59.481,274.381 59.000,276.441 59.000 C 279.573 59.000,280.681 57.218,278.528 55.644 C 274.876 52.974,280.092 44.909,284.089 47.048 C 285.068 47.571,286.816 48.000,287.974 48.000 C 289.132 48.000,291.870 48.914,294.059 50.030 C 297.375 51.722,297.877 52.360,297.074 53.862 C 295.163 57.433,293.214 58.256,288.259 57.588 L 283.500 56.946 287.339 60.141 C 289.450 61.899,291.576 64.386,292.064 65.668 C 293.356 69.065,295.000 68.520,295.000 64.694 C 295.000 62.738,296.021 60.005,297.500 58.000 C 298.875 56.136,300.000 54.052,300.000 53.369 C 300.000 52.516,301.058 52.297,303.373 52.673 C 307.616 53.362,309.105 51.402,305.020 50.504 C 303.372 50.142,301.766 49.431,301.452 48.923 C 301.139 48.415,299.965 48.000,298.845 48.000 C 296.267 48.000,286.984 45.294,285.000 43.965 C 283.723 43.109,283.863 42.655,285.943 40.913 C 287.286 39.788,289.086 39.083,289.943 39.346 C 290.799 39.609,295.100 40.794,299.500 41.979 C 308.143 44.307,314.147 47.360,317.825 51.299 C 320.553 54.220,319.631 55.237,314.109 55.396 C 309.638 55.525,308.999 58.328,313.329 58.824 C 314.987 59.014,315.975 59.634,315.716 60.324 C 313.994 64.912,313.927 66.000,315.365 66.000 C 316.190 66.000,317.151 65.100,317.500 64.000 C 318.562 60.653,321.383 61.481,329.750 67.599 C 331.685 69.014,332.000 69.034,332.000 67.744 C 332.000 66.920,331.325 65.685,330.500 65.000 C 329.675 64.315,329.000 63.135,329.000 62.378 C 329.000 61.611,327.990 61.000,326.723 61.000 C 325.470 61.000,323.443 60.298,322.219 59.441 C 320.422 58.182,320.193 57.508,321.032 55.941 C 321.603 54.873,322.546 54.000,323.127 54.000 C 324.295 54.000,328.480 57.047,333.015 61.198 C 334.636 62.682,337.571 64.340,339.538 64.883 C 341.505 65.426,344.805 67.362,346.872 69.185 C 348.939 71.008,351.948 73.447,353.560 74.604 C 356.194 76.496,356.387 77.000,355.474 79.604 C 354.061 83.639,350.400 84.034,347.550 80.460 C 345.764 78.220,345.043 77.928,343.442 78.799 C 342.374 79.379,340.712 80.098,339.750 80.396 C 336.768 81.319,337.824 83.000,341.386 83.000 C 343.248 83.000,346.060 83.672,347.636 84.494 C 349.211 85.315,351.770 85.990,353.323 85.994 C 355.484 85.999,358.095 87.866,364.447 93.949 C 373.326 102.453,377.422 104.511,379.582 101.557 C 381.327 99.171,382.790 100.165,390.632 109.060 C 398.383 117.853,400.900 122.000,398.485 122.000 C 396.047 122.000,391.000 117.828,391.000 115.812 C 391.000 113.031,389.123 113.662,388.361 116.699 C 387.853 118.720,388.133 119.662,389.476 120.449 C 390.461 121.027,392.548 122.545,394.113 123.822 C 395.679 125.099,397.429 125.853,398.004 125.498 C 400.220 124.128,404.838 126.096,405.785 128.814 C 406.301 130.292,407.865 133.186,409.262 135.244 C 411.942 139.193,414.525 146.904,417.925 161.106 C 419.680 168.437,419.825 170.580,418.903 175.566 C 417.779 181.649,413.635 191.000,412.064 191.000 C 411.567 191.000,410.388 188.637,409.445 185.750 C 408.501 182.863,406.440 178.724,404.864 176.553 C 403.289 174.382,402.000 171.795,402.000 170.803 C 402.000 169.811,401.522 169.000,400.938 169.000 C 400.354 169.000,397.317 167.763,394.188 166.251 C 388.764 163.629,387.850 163.507,374.500 163.623 C 359.868 163.749,356.648 164.451,344.000 170.274 C 336.951 173.519,335.119 175.378,331.270 183.192 C 322.526 200.940,324.209 216.603,336.196 229.046 C 341.777 234.839,348.448 238.565,354.453 239.242 C 361.392 240.024,362.198 241.405,357.987 245.298 C 352.343 250.516,347.913 254.000,346.923 254.000 C 345.677 254.000,345.742 249.277,347.000 248.500 C 347.550 248.160,348.000 246.971,348.000 245.858 C 348.000 243.177,345.596 244.005,345.180 246.828 C 345.005 248.023,344.391 249.000,343.817 249.000 C 343.222 249.000,342.966 250.313,343.221 252.056 C 343.614 254.729,343.268 255.279,340.457 256.454 C 338.690 257.192,336.936 258.295,336.559 258.905 C 335.159 261.171,325.955 264.816,295.500 275.170 C 286.066 278.377,269.582 282.517,256.000 285.089 C 240.521 288.021,195.893 289.107,178.119 286.984 C 173.379 286.418,158.700 285.543,145.500 285.041 C 105.861 283.531,97.916 280.805,68.500 258.620 C 58.961 251.426,31.005 223.818,25.227 215.885 C 20.425 209.293,14.029 197.180,12.350 191.500 C 11.700 189.300,10.039 184.244,8.659 180.264 C 3.334 164.907,2.783 149.828,6.952 133.500 C 8.340 128.062,9.760 124.825,11.386 123.394 C 13.094 121.890,13.640 120.567,13.296 118.770 C 12.538 114.800,19.030 103.374,25.717 96.911 C 35.322 87.629,40.000 84.848,40.000 88.423 C 40.000 90.327,44.843 96.000,46.468 96.000 C 48.501 96.000,58.670 91.103,60.023 89.472 C 62.075 87.000,58.401 87.659,52.904 90.749 C 47.310 93.894,45.779 93.481,42.720 88.006 C 40.170 83.441,41.118 80.908,46.743 77.263 C 49.383 75.553,52.784 73.002,54.303 71.595 C 59.084 67.164,63.000 65.724,63.000 68.396 C 63.000 69.164,64.688 71.175,66.750 72.864 C 68.813 74.554,71.625 77.034,73.000 78.375 C 75.161 80.483,76.042 80.712,79.500 80.060 C 83.421 79.322,83.307 79.033,78.500 77.531 C 76.264 76.833,76.651 75.467,80.244 71.375 C 83.056 68.172,83.489 66.950,83.494 62.201 C 83.501 56.058,83.171 56.370,93.000 53.199 C 98.645 51.378,99.690 51.291,100.949 52.536 C 102.029 53.605,102.156 54.645,101.449 56.632 C 100.046 60.570,95.609 63.373,89.709 64.048 C 85.081 64.577,84.766 64.755,86.883 65.643 C 90.898 67.327,97.792 65.670,101.280 62.182 C 103.731 59.731,104.412 58.166,104.497 54.795 C 104.618 49.953,104.858 49.775,116.331 46.006 C 120.936 44.493,123.491 44.091,124.173 44.773 C 124.855 45.455,124.607 48.182,123.412 53.142 C 121.532 60.950,121.151 61.458,110.048 70.974 C 106.233 74.244,103.191 75.863,98.742 76.992 C 91.736 78.769,89.136 81.746,95.622 80.565 C 101.619 79.472,109.038 75.508,114.131 70.673 C 116.678 68.255,119.940 65.981,121.381 65.619 C 123.280 65.143,124.000 64.314,124.000 62.603 C 124.000 61.306,124.620 58.727,125.377 56.872 C 126.134 55.017,127.054 51.415,127.421 48.866 C 127.998 44.854,128.451 44.161,130.794 43.698 C 134.057 43.053,149.167 41.434,165.408 39.989 C 177.280 38.932,177.325 38.936,179.908 41.336 C 181.334 42.659,183.719 44.029,185.210 44.380 C 189.051 45.284,195.959 42.627,198.625 39.220 L 200.886 36.331 216.193 36.415 L 231.500 36.500 231.801 39.086 M273.368 37.950 C 281.208 38.961,282.673 39.874,281.116 42.783 C 280.153 44.583,279.233 44.743,271.774 44.403 C 267.223 44.196,262.825 44.014,262.000 43.998 C 259.259 43.946,257.758 42.339,258.440 40.189 C 259.449 37.011,262.511 36.551,273.368 37.950 M214.000 46.500 C 214.000 47.733,214.787 48.051,217.250 47.813 C 219.037 47.641,220.500 47.050,220.500 46.500 C 220.500 45.950,219.037 45.359,217.250 45.187 C 214.787 44.949,214.000 45.267,214.000 46.500 M95.270 49.130 C 94.649 49.751,91.859 51.032,89.070 51.976 C 84.315 53.586,84.000 53.588,84.000 51.999 C 84.000 49.787,87.513 48.152,92.450 48.068 C 95.386 48.017,96.110 48.290,95.270 49.130 M63.572 55.440 C 62.707 57.986,62.000 60.719,62.000 61.512 C 62.000 62.305,60.763 63.725,59.250 64.668 C 57.737 65.611,53.487 68.771,49.803 71.691 C 46.120 74.611,42.858 77.000,42.553 77.000 C 39.969 77.000,49.606 62.147,54.744 58.210 C 56.689 56.720,59.680 54.300,61.390 52.833 C 63.100 51.366,64.644 50.310,64.821 50.488 C 64.999 50.665,64.436 52.894,63.572 55.440 M170.500 52.878 C 165.618 53.922,167.584 55.531,173.270 55.146 C 178.899 54.765,180.000 54.404,180.000 52.941 C 180.000 51.907,175.193 51.875,170.500 52.878 M248.322 54.604 C 247.852 55.828,246.851 56.073,244.103 55.636 C 239.771 54.948,236.598 56.408,239.000 57.985 C 239.825 58.526,242.148 58.976,244.162 58.985 C 247.646 58.999,247.857 59.193,248.494 62.963 C 249.326 67.889,248.672 69.000,244.941 69.000 C 243.323 69.000,242.000 69.441,242.000 69.981 C 242.000 71.475,246.991 72.409,248.249 71.151 C 249.697 69.703,252.000 71.528,252.000 74.122 C 252.000 75.811,251.150 76.000,243.559 76.000 C 238.916 76.000,234.875 76.393,234.578 76.873 C 233.811 78.115,245.236 79.237,250.544 78.441 C 254.673 77.822,255.000 77.554,255.000 74.791 C 255.000 73.151,254.380 70.614,253.623 69.154 C 251.619 65.292,250.009 57.680,250.666 55.170 C 251.326 52.644,249.265 52.147,248.322 54.604 M148.496 57.007 C 147.750 58.214,150.198 59.302,152.609 58.835 C 153.558 58.651,154.522 57.938,154.750 57.250 C 155.258 55.725,149.428 55.499,148.496 57.007 M368.494 58.006 C 366.395 60.326,367.288 61.938,369.798 60.357 C 371.658 59.186,372.704 56.000,371.228 56.000 C 370.723 56.000,369.493 56.903,368.494 58.006 M301.028 57.940 C 299.758 58.762,299.785 58.980,301.220 59.531 C 303.341 60.345,306.047 59.796,306.303 58.500 C 306.569 57.149,302.860 56.756,301.028 57.940 M138.244 58.664 C 136.178 59.497,137.911 61.000,140.937 61.000 C 142.487 61.000,144.315 60.325,145.000 59.500 C 146.066 58.215,145.761 58.011,142.872 58.079 C 141.018 58.122,138.935 58.386,138.244 58.664 M80.000 62.987 C 80.000 65.705,79.125 68.238,77.250 70.949 C 75.737 73.135,74.275 74.934,74.000 74.947 C 73.725 74.960,71.834 73.514,69.798 71.735 C 64.104 66.759,64.421 65.366,72.000 62.047 C 75.575 60.482,78.838 59.156,79.250 59.101 C 79.662 59.045,80.000 60.794,80.000 62.987 M354.040 68.020 C 357.926 70.003,358.866 71.346,357.123 72.424 C 356.053 73.085,349.815 68.989,349.244 67.250 C 348.685 65.548,349.427 65.667,354.040 68.020 M185.143 68.890 C 184.145 69.523,184.094 69.940,184.950 70.469 C 186.442 71.391,191.000 70.270,191.000 68.981 C 191.000 67.776,186.999 67.714,185.143 68.890 M101.000 70.500 C 101.000 72.070,102.738 72.421,105.418 71.393 C 108.030 70.391,107.206 69.000,104.000 69.000 C 102.000 69.000,101.000 69.500,101.000 70.500 M271.000 70.481 C 271.000 72.066,275.625 73.708,276.795 72.538 C 277.626 71.708,274.193 69.000,272.309 69.000 C 271.589 69.000,271.000 69.666,271.000 70.481 M94.500 70.713 C 91.528 71.428,90.411 72.837,92.255 73.544 C 94.038 74.228,98.000 72.449,98.000 70.965 C 98.000 69.953,97.739 69.934,94.500 70.713 M279.976 71.471 C 280.718 72.365,282.264 72.962,283.412 72.798 C 286.746 72.322,285.825 70.531,282.063 70.173 C 278.989 69.880,278.769 70.017,279.976 71.471 M372.000 73.870 C 378.553 76.287,379.540 76.975,379.816 79.318 C 380.214 82.685,381.755 82.775,382.999 79.504 C 383.910 77.107,384.079 77.063,387.224 78.406 C 389.026 79.174,393.200 80.580,396.500 81.529 C 399.800 82.477,404.525 84.051,407.000 85.026 C 412.409 87.158,422.945 90.252,432.500 92.516 C 436.350 93.428,439.707 94.380,439.961 94.632 C 440.214 94.883,439.111 96.134,437.509 97.411 C 434.604 99.728,434.601 99.741,436.410 102.504 L 438.225 105.273 435.863 104.708 C 434.563 104.398,431.250 103.829,428.500 103.446 C 422.140 102.558,420.934 101.581,421.667 97.913 C 422.319 94.655,420.513 93.808,419.529 96.910 C 418.397 100.476,416.790 100.861,411.000 98.949 C 407.975 97.950,404.015 97.103,402.200 97.066 C 400.386 97.030,397.534 96.294,395.865 95.430 C 394.195 94.567,390.055 93.553,386.664 93.177 C 380.981 92.548,380.492 92.300,380.392 89.997 C 380.209 85.790,380.064 85.632,378.048 87.456 C 376.177 89.150,375.950 89.133,372.565 87.040 C 370.622 85.839,368.238 83.848,367.266 82.614 C 366.295 81.380,364.262 79.561,362.750 78.570 C 359.830 76.659,359.225 74.175,361.200 72.200 C 362.808 70.592,363.330 70.672,372.000 73.870 M291.220 74.621 C 292.716 76.146,294.275 77.059,294.684 76.649 C 295.915 75.418,293.465 72.523,290.898 72.175 L 288.500 71.849 291.220 74.621 M313.219 73.224 C 311.728 75.035,307.197 76.128,306.417 74.866 C 305.710 73.722,300.000 73.744,300.000 74.891 C 300.000 76.432,313.206 78.128,314.572 76.761 C 314.896 76.437,315.013 75.159,314.831 73.921 C 314.540 71.939,314.347 71.856,313.219 73.224 M334.000 73.434 C 334.000 74.517,334.951 75.000,337.083 75.000 C 340.909 75.000,340.566 72.644,336.673 72.184 C 334.779 71.959,334.000 72.323,334.000 73.434 M85.152 74.885 C 83.337 76.035,84.094 79.394,86.261 79.812 C 87.608 80.071,88.000 79.454,88.000 77.073 C 88.000 73.879,87.430 73.441,85.152 74.885 M198.250 75.732 C 191.527 76.338,193.198 78.134,200.171 77.798 C 203.991 77.613,206.498 77.024,206.754 76.250 C 207.173 74.980,206.835 74.959,198.250 75.732 M212.245 76.250 C 212.725 77.705,223.000 78.590,223.000 77.177 C 223.000 76.179,218.285 75.000,214.292 75.000 C 212.772 75.000,211.991 75.477,212.245 76.250 M319.431 77.112 C 318.634 78.401,320.710 79.962,323.250 79.985 C 325.432 80.004,325.560 77.429,323.418 76.607 C 321.142 75.734,320.210 75.852,319.431 77.112 M270.192 77.713 C 266.980 78.327,268.038 80.488,271.584 80.556 C 273.188 80.587,275.548 81.184,276.828 81.883 C 279.280 83.222,282.000 82.774,282.000 81.031 C 282.000 80.464,281.186 80.000,280.191 80.000 C 279.196 80.000,277.509 79.339,276.441 78.532 C 274.438 77.016,274.083 76.970,270.192 77.713 M330.273 81.912 C 331.940 86.328,334.210 86.860,333.813 82.743 C 333.576 80.291,332.967 79.424,331.314 79.189 C 329.273 78.898,329.204 79.079,330.273 81.912 M363.040 82.188 C 366.740 84.923,366.864 87.000,363.329 87.000 C 359.547 87.000,356.771 84.296,358.067 81.874 C 359.325 79.524,359.448 79.532,363.040 82.188 M66.250 84.220 C 63.146 85.717,63.427 87.199,66.741 86.816 C 68.395 86.626,69.615 85.805,69.815 84.750 C 70.190 82.770,69.477 82.664,66.250 84.220 M196.008 83.974 C 194.891 84.680,194.803 85.203,195.658 86.058 C 197.109 87.509,201.000 86.326,201.000 84.433 C 201.000 82.811,198.248 82.558,196.008 83.974 M203.412 84.143 C 202.418 85.750,205.882 86.299,217.642 86.397 C 226.423 86.470,230.000 86.164,230.000 85.338 C 230.000 84.699,228.313 83.893,226.250 83.546 C 221.449 82.740,203.997 83.196,203.412 84.143 M285.000 83.955 C 285.000 84.480,286.688 85.180,288.750 85.510 C 290.813 85.841,294.028 86.785,295.896 87.609 C 300.772 89.760,302.041 87.811,297.507 85.136 C 293.796 82.947,285.000 82.116,285.000 83.955 M186.000 85.122 C 179.986 86.779,179.594 86.994,180.657 88.057 C 181.837 89.237,192.610 86.766,192.303 85.386 C 192.018 84.107,189.995 84.022,186.000 85.122 M400.250 86.137 C 398.744 87.659,398.582 92.000,400.031 92.000 C 401.396 92.000,402.238 89.663,401.829 87.010 C 401.565 85.294,401.254 85.123,400.250 86.137 M169.500 87.878 C 166.492 88.521,165.684 90.573,168.500 90.417 C 169.325 90.371,171.350 90.258,173.000 90.167 C 174.926 90.060,176.000 89.463,176.000 88.500 C 176.000 86.937,174.550 86.798,169.500 87.878 M153.750 90.115 C 152.238 91.244,151.000 92.579,151.000 93.083 C 151.000 94.534,153.631 94.150,155.000 92.500 C 155.685 91.675,157.765 91.000,159.622 91.000 C 163.142 91.000,164.151 89.656,161.418 88.607 C 158.716 87.570,156.604 87.985,153.750 90.115 M372.578 90.598 C 377.092 93.244,379.222 97.178,377.223 99.177 C 375.989 100.411,374.750 99.748,369.008 94.779 C 365.376 91.636,364.905 90.820,365.976 89.529 C 367.594 87.579,367.362 87.542,372.578 90.598 M471.200 89.200 C 469.820 90.580,469.594 93.000,470.845 93.000 C 471.813 93.000,475.000 89.680,475.000 88.671 C 475.000 87.564,472.487 87.913,471.200 89.200 M249.000 92.714 C 249.000 94.436,260.504 98.829,261.750 97.583 C 262.755 96.578,260.484 94.905,256.872 93.990 C 255.018 93.520,252.488 92.827,251.250 92.451 C 250.012 92.075,249.000 92.193,249.000 92.714 M314.667 92.667 C 314.300 93.033,314.000 93.665,314.000 94.071 C 314.000 95.283,325.004 101.116,326.059 100.464 C 327.612 99.504,326.245 98.202,321.459 96.085 C 319.006 95.000,317.000 93.637,317.000 93.056 C 317.000 91.871,315.682 91.651,314.667 92.667 M143.964 94.349 C 143.159 95.091,139.912 96.719,136.750 97.965 C 131.318 100.107,129.285 102.000,132.417 102.000 C 134.479 102.000,142.665 98.352,143.449 97.083 C 143.817 96.487,144.936 96.000,145.937 96.000 C 146.937 96.000,148.315 95.325,149.000 94.500 C 150.048 93.237,149.864 93.000,147.837 93.000 C 146.512 93.000,144.770 93.607,143.964 94.349 M388.068 95.603 C 391.056 96.485,394.625 97.785,396.000 98.493 C 398.179 99.614,403.459 100.741,415.696 102.696 C 418.522 103.147,418.927 103.619,419.196 106.776 C 419.582 111.305,422.000 112.432,422.000 108.083 C 422.000 104.422,422.440 104.372,433.000 106.822 C 439.813 108.403,440.528 108.802,440.806 111.177 C 440.975 112.615,442.042 114.626,443.179 115.646 C 445.241 117.497,445.243 117.494,444.522 113.179 C 443.852 109.166,443.932 108.934,445.650 109.921 C 448.131 111.347,459.090 113.974,466.522 114.924 C 469.835 115.348,474.124 116.216,476.055 116.853 C 477.985 117.490,483.150 118.418,487.532 118.916 C 491.915 119.414,499.100 120.723,503.500 121.827 C 507.900 122.930,516.000 124.523,521.500 125.366 C 527.000 126.209,534.200 127.421,537.500 128.058 C 540.800 128.695,544.483 129.393,545.684 129.610 C 547.176 129.880,547.968 130.851,548.184 132.675 C 548.605 136.232,551.000 137.004,551.000 133.583 C 551.000 130.607,550.901 130.626,557.500 132.329 C 561.791 133.436,562.545 134.001,562.816 136.310 C 563.316 140.554,565.652 139.523,566.351 134.750 C 566.693 132.412,567.256 129.488,567.603 128.250 C 568.473 125.144,566.588 125.413,565.135 128.602 C 564.127 130.816,563.543 131.093,561.225 130.461 C 559.726 130.052,556.925 129.435,555.000 129.089 C 552.963 128.724,551.444 127.842,551.365 126.980 C 551.291 126.166,551.179 125.093,551.115 124.595 C 551.052 124.097,550.152 124.457,549.116 125.395 C 547.618 126.751,546.135 126.972,541.866 126.475 C 538.915 126.131,535.600 125.468,534.500 125.001 C 531.481 123.720,516.447 121.000,512.384 121.000 C 510.417 121.000,506.376 120.293,503.404 119.429 C 498.618 118.038,497.996 117.552,497.967 115.179 L 497.933 112.500 495.942 114.892 L 493.950 117.284 484.725 115.598 C 479.651 114.671,473.541 113.464,471.147 112.916 C 466.323 111.812,452.702 109.183,446.500 108.160 C 442.667 107.528,442.488 107.331,442.202 103.448 C 441.731 97.037,445.210 94.765,452.500 96.725 C 454.700 97.316,457.630 98.051,459.012 98.359 C 460.965 98.794,461.522 99.540,461.512 101.709 C 461.497 105.113,463.364 105.977,463.846 102.790 C 464.461 98.719,465.742 97.994,469.527 99.576 C 471.402 100.359,474.188 101.007,475.718 101.015 C 480.162 101.040,481.318 102.276,480.477 106.105 C 479.795 109.210,479.870 109.353,481.474 108.021 C 482.428 107.230,483.620 105.500,484.122 104.178 C 484.823 102.336,485.559 101.903,487.268 102.327 C 488.496 102.631,491.668 103.400,494.318 104.036 C 496.968 104.671,499.368 105.796,499.652 106.536 C 500.059 107.596,500.695 107.640,502.658 106.746 C 504.442 105.933,505.635 105.915,506.863 106.682 C 507.805 107.271,510.503 108.078,512.858 108.476 C 517.551 109.269,518.728 110.772,517.074 113.861 C 515.091 117.567,517.899 117.286,520.098 113.559 C 521.253 111.601,522.406 110.000,522.661 110.000 C 522.916 110.000,525.346 110.727,528.062 111.615 C 532.147 112.951,533.000 113.642,533.000 115.615 C 533.000 118.718,534.377 118.662,535.818 115.500 C 537.006 112.893,538.820 112.395,541.764 113.870 C 548.538 117.264,553.546 119.000,556.562 119.000 C 558.492 119.000,561.067 119.652,562.285 120.449 C 563.503 121.246,566.975 122.336,570.000 122.871 C 573.025 123.406,579.502 124.543,584.394 125.397 C 589.285 126.251,594.064 127.653,595.014 128.513 C 596.442 129.805,597.200 129.866,599.393 128.867 C 601.688 127.821,602.446 127.954,605.007 129.847 C 607.534 131.715,608.268 131.851,610.012 130.768 C 611.746 129.692,612.681 129.841,616.177 131.749 C 619.286 133.445,620.628 133.724,621.638 132.885 C 623.206 131.584,628.820 132.417,631.453 134.342 C 632.943 135.431,633.053 136.033,632.091 137.829 C 631.156 139.577,630.028 140.000,626.297 140.000 C 621.829 140.000,610.088 138.389,607.000 137.353 C 606.175 137.076,599.054 136.650,591.175 136.407 C 581.691 136.114,575.651 135.463,573.303 134.482 C 569.118 132.733,568.000 132.637,568.000 134.025 C 568.000 134.588,569.013 135.446,570.250 135.930 C 571.487 136.414,573.850 137.360,575.500 138.033 C 577.150 138.705,584.575 139.447,592.000 139.682 C 599.425 139.917,609.550 140.758,614.500 141.551 C 619.450 142.343,624.972 142.994,626.771 142.996 C 629.288 142.999,630.306 143.577,631.182 145.500 C 632.834 149.127,634.000 148.568,634.000 144.149 C 634.000 142.031,634.494 138.881,635.098 137.149 C 636.078 134.338,636.617 134.000,640.123 134.000 C 643.391 134.000,644.209 134.419,645.000 136.500 C 646.206 139.671,646.804 139.646,648.048 136.373 C 648.957 133.983,649.383 133.808,652.774 134.440 C 654.823 134.822,663.025 135.346,671.000 135.604 C 678.975 135.862,686.063 136.267,686.750 136.505 C 687.438 136.743,688.000 138.046,688.000 139.401 C 688.000 142.542,684.236 144.043,682.458 141.611 C 681.396 140.160,681.124 140.146,680.009 141.489 C 679.319 142.320,678.135 143.000,677.378 143.000 C 676.620 143.000,676.000 143.450,676.000 144.000 C 676.000 144.550,677.125 145.000,678.500 145.000 C 681.468 145.000,681.878 147.460,679.153 148.918 C 677.266 149.928,675.000 148.679,675.000 146.629 C 675.000 146.095,674.296 144.880,673.436 143.929 C 672.171 142.532,670.752 142.303,666.015 142.732 C 660.168 143.263,660.158 143.259,659.785 140.382 L 659.412 137.500 658.045 140.251 C 656.562 143.235,655.978 143.275,641.250 141.393 C 635.132 140.610,633.909 142.320,639.750 143.489 C 647.506 145.041,657.720 146.093,664.083 145.994 C 668.952 145.919,671.007 146.303,671.976 147.470 C 672.696 148.338,673.017 149.316,672.690 149.644 C 672.362 149.971,668.209 150.633,663.460 151.114 C 658.712 151.595,654.396 152.255,653.869 152.581 C 653.343 152.906,652.221 152.598,651.375 151.896 C 650.124 150.858,649.434 150.879,647.669 152.009 C 644.906 153.779,625.165 154.382,623.207 152.757 C 622.220 151.938,620.944 151.980,618.350 152.918 C 615.187 154.062,614.613 153.986,612.666 152.167 C 610.745 150.372,610.280 150.305,608.559 151.572 C 606.220 153.292,600.848 153.448,599.241 151.841 C 598.547 151.147,595.428 150.768,591.460 150.897 C 587.569 151.023,584.259 150.630,583.432 149.944 C 582.659 149.302,580.915 149.055,579.558 149.396 C 578.171 149.744,574.333 149.158,570.795 148.058 C 567.333 146.982,562.373 145.827,559.773 145.493 C 557.174 145.158,554.785 144.460,554.464 143.942 C 554.144 143.424,551.463 143.000,548.506 143.000 C 545.549 143.000,541.863 142.502,540.315 141.893 C 538.767 141.285,534.220 140.616,530.212 140.408 C 526.203 140.200,522.005 139.538,520.883 138.938 C 519.762 138.337,518.141 138.116,517.281 138.446 C 516.422 138.775,513.021 138.515,509.725 137.866 C 505.354 137.006,503.600 136.188,503.249 134.843 C 502.657 132.582,502.155 132.550,499.861 134.626 C 498.276 136.060,497.207 136.108,490.782 135.035 C 486.777 134.366,480.800 133.461,477.500 133.022 C 469.832 132.004,468.345 131.355,467.543 128.681 L 466.890 126.500 465.792 128.750 C 464.572 131.252,462.556 131.462,454.500 129.929 C 451.750 129.406,445.972 128.785,441.659 128.549 C 436.515 128.267,432.404 127.419,429.704 126.083 C 426.815 124.654,425.382 124.382,424.894 125.172 C 423.927 126.736,411.506 125.386,406.953 123.222 C 404.911 122.252,402.172 119.618,400.501 117.018 C 397.752 112.741,394.351 108.736,385.750 99.645 C 382.526 96.237,381.166 94.000,382.318 94.000 C 382.494 94.000,385.081 94.721,388.068 95.603 M39.572 98.324 C 36.821 100.335,37.878 102.259,40.888 100.721 C 43.259 99.508,43.943 97.814,42.285 97.262 C 41.809 97.103,40.588 97.581,39.572 98.324 M50.211 100.132 C 50.418 100.754,52.486 102.639,54.806 104.320 C 57.790 106.481,59.336 107.064,60.089 106.311 C 60.842 105.558,59.799 104.331,56.527 102.123 C 51.713 98.874,49.566 98.197,50.211 100.132 M124.408 102.807 C 122.707 103.738,119.224 105.400,116.667 106.500 C 111.845 108.575,110.682 110.000,113.810 110.000 C 116.569 110.000,130.132 103.022,129.466 101.945 C 128.694 100.696,128.073 100.801,124.408 102.807 M296.226 103.179 C 296.737 104.712,301.879 104.986,302.250 103.500 C 302.387 102.950,300.989 102.355,299.143 102.179 C 296.708 101.946,295.907 102.220,296.226 103.179 M331.750 103.392 C 330.788 104.123,330.000 104.985,330.000 105.309 C 330.000 106.364,340.954 109.381,341.738 108.542 C 342.157 108.093,341.851 107.496,341.057 107.215 C 340.263 106.934,338.555 105.646,337.261 104.352 C 334.562 101.653,334.139 101.579,331.750 103.392 M381.070 107.415 C 380.416 108.204,380.196 109.933,380.564 111.398 L 381.214 113.987 377.366 112.380 C 374.334 111.113,372.881 111.003,370.509 111.859 C 366.826 113.189,363.077 112.317,360.895 109.622 C 359.323 107.680,359.186 107.671,357.471 109.386 C 356.225 110.633,354.901 110.977,353.092 110.526 C 346.159 108.795,344.741 108.722,345.200 110.118 C 345.637 111.448,353.035 113.031,367.500 114.890 C 370.800 115.315,375.525 116.406,378.000 117.316 C 380.475 118.226,382.837 118.977,383.250 118.985 C 384.315 119.006,384.185 107.233,383.113 106.570 C 382.626 106.269,381.706 106.649,381.070 107.415 M19.711 112.975 C 16.546 115.963,15.951 116.956,17.317 116.975 C 19.137 117.000,26.948 111.161,26.982 109.750 C 27.028 107.821,23.526 109.374,19.711 112.975 M79.000 110.813 C 79.000 112.149,81.239 112.893,87.451 113.623 C 90.735 114.009,92.977 113.846,93.382 113.191 C 94.316 111.679,93.312 111.331,85.750 110.543 C 81.562 110.107,79.000 110.210,79.000 110.813 M101.517 111.133 C 96.814 112.234,94.987 113.674,97.211 114.527 C 99.049 115.233,109.000 112.158,109.000 110.885 C 109.000 109.817,106.834 109.889,101.517 111.133 M423.000 128.976 C 431.668 129.846,457.430 133.019,460.750 133.626 C 462.894 134.019,463.000 134.480,463.000 143.397 C 463.000 150.230,462.620 153.071,461.590 153.925 C 460.438 154.881,460.053 154.492,459.486 151.798 C 458.734 148.228,454.866 144.193,451.562 143.530 C 450.428 143.303,444.775 142.022,439.000 140.685 C 433.225 139.347,425.800 137.699,422.500 137.022 C 414.595 135.400,412.120 134.133,410.415 130.835 C 408.418 126.973,408.591 126.657,412.250 127.487 C 414.038 127.892,418.875 128.563,423.000 128.976 M672.710 128.974 C 674.291 130.821,674.518 130.841,676.236 129.286 C 677.762 127.905,678.615 127.815,681.286 128.753 C 683.054 129.373,685.685 129.640,687.133 129.346 C 690.122 128.739,691.725 130.421,690.064 132.423 C 689.212 133.449,686.364 133.640,677.728 133.249 C 671.553 132.969,666.314 132.575,666.088 132.374 C 665.861 132.173,666.189 130.882,666.816 129.504 C 668.188 126.493,670.414 126.293,672.710 128.974 M715.474 131.038 C 717.688 131.562,725.419 132.409,732.653 132.920 C 748.988 134.073,754.341 136.359,751.892 141.134 C 750.689 143.479,747.020 143.915,723.500 144.506 C 711.950 144.796,700.805 145.292,698.734 145.608 C 695.603 146.084,694.638 145.786,693.017 143.841 C 690.926 141.331,690.381 137.501,691.975 136.516 C 692.511 136.184,697.573 136.384,703.225 136.960 C 708.876 137.536,716.626 138.276,720.446 138.604 C 725.798 139.064,726.982 139.430,725.607 140.200 C 724.625 140.750,722.746 140.993,721.431 140.742 C 717.818 140.051,696.008 141.592,694.989 142.610 C 694.468 143.130,699.792 143.366,707.799 143.177 C 727.833 142.705,738.266 141.718,738.752 140.250 C 739.023 139.433,738.111 139.000,736.118 139.000 C 734.442 139.000,731.142 138.370,728.785 137.600 C 726.428 136.830,720.225 135.927,715.000 135.592 C 692.940 134.181,690.854 133.629,694.250 130.101 C 695.611 128.688,707.827 129.226,715.474 131.038 M397.000 131.429 C 397.000 133.047,399.973 136.360,400.739 135.594 C 401.015 135.319,400.953 133.947,400.601 132.547 C 399.930 129.875,397.000 128.965,397.000 131.429 M476.500 135.556 C 482.738 136.428,483.224 136.713,482.089 138.833 C 481.308 140.294,468.269 148.000,466.579 148.000 C 465.736 148.000,465.868 135.466,466.720 134.613 C 467.116 134.218,468.353 134.110,469.470 134.375 C 470.586 134.640,473.750 135.171,476.500 135.556 M435.000 142.604 C 451.832 146.452,454.004 147.167,455.543 149.364 C 457.605 152.309,457.357 156.218,454.658 163.329 C 453.369 166.723,451.794 171.644,451.158 174.264 C 449.517 181.017,449.723 193.706,451.576 199.943 C 452.442 202.861,452.780 205.584,452.326 205.993 C 451.872 206.402,446.775 208.869,441.000 211.475 C 431.031 215.974,420.262 221.485,409.750 227.468 C 404.578 230.411,403.428 229.418,406.750 224.878 C 413.273 215.962,414.308 212.635,413.554 203.004 C 413.090 197.067,413.218 193.984,413.947 193.533 C 415.413 192.627,419.161 185.402,420.708 180.500 C 422.991 173.263,421.655 159.647,417.488 147.688 C 416.686 145.385,416.023 142.482,416.015 141.238 C 416.001 139.146,416.319 139.022,420.250 139.590 C 422.587 139.928,429.225 141.284,435.000 142.604 M401.000 141.429 C 401.000 143.047,403.973 146.360,404.739 145.594 C 405.015 145.319,404.953 143.947,404.601 142.547 C 403.930 139.875,401.000 138.965,401.000 141.429 M688.569 145.112 C 689.320 146.327,687.105 148.159,685.500 147.651 C 684.950 147.477,684.355 146.584,684.177 145.667 C 683.805 143.752,687.444 143.292,688.569 145.112 M402.184 161.673 C 402.644 165.566,405.000 165.909,405.000 162.083 C 405.000 159.951,404.517 159.000,403.434 159.000 C 402.323 159.000,401.959 159.779,402.184 161.673 M457.326 172.273 C 455.953 176.218,455.506 180.493,455.503 189.700 C 455.500 202.477,454.921 203.890,453.156 195.432 C 451.528 187.624,454.177 169.177,457.712 163.715 C 459.371 161.150,459.099 167.178,457.326 172.273 M382.000 165.914 C 383.925 166.411,387.173 167.101,389.218 167.448 C 393.737 168.214,396.286 170.523,395.467 173.105 C 394.969 174.674,395.375 175.000,397.834 175.000 C 400.144 175.000,401.243 175.747,402.789 178.366 C 405.126 182.327,409.000 192.902,409.000 195.319 C 409.000 196.246,407.200 198.631,405.000 200.619 C 402.800 202.607,401.000 204.630,401.000 205.116 C 401.000 206.835,403.682 205.968,406.000 203.500 C 410.277 198.948,411.774 200.890,411.012 210.000 C 410.488 216.272,396.807 234.909,392.636 235.034 C 392.011 235.053,389.700 235.937,387.500 237.000 C 385.300 238.063,381.389 238.947,378.809 238.966 C 374.266 238.999,371.903 237.796,373.984 236.510 C 374.543 236.165,375.000 235.459,375.000 234.941 C 375.000 233.226,373.018 233.964,370.813 236.500 C 368.154 239.558,364.429 239.728,357.500 237.107 C 351.692 234.909,350.895 232.690,353.340 225.516 C 354.736 221.419,354.635 220.000,352.948 220.000 C 352.039 220.000,349.000 229.189,349.000 231.938 C 349.000 234.720,347.630 234.536,342.680 231.089 C 335.661 226.201,331.989 220.608,329.405 210.869 C 327.717 204.508,327.720 203.922,329.472 196.483 C 330.476 192.218,332.918 185.808,334.899 182.239 C 338.088 176.491,339.129 175.470,344.000 173.300 C 347.025 171.953,350.907 170.214,352.628 169.437 C 355.050 168.341,368.720 165.962,377.500 165.108 C 378.050 165.055,380.075 165.418,382.000 165.914 M385.302 180.275 C 382.443 182.599,380.081 185.304,380.052 186.286 C 380.013 187.620,381.584 186.761,386.250 182.895 C 389.688 180.048,392.650 177.331,392.833 176.859 C 393.642 174.774,390.084 176.388,385.302 180.275 M394.537 211.540 C 393.052 213.487,388.274 218.765,383.919 223.269 C 379.563 227.773,376.000 231.580,376.000 231.729 C 376.000 231.878,376.740 232.000,377.645 232.000 C 379.576 232.000,391.000 220.321,391.000 218.347 C 391.000 217.606,391.622 217.000,392.381 217.000 C 393.861 217.000,399.000 210.840,399.000 209.067 C 399.000 207.033,397.224 208.017,394.537 211.540 M380.998 242.098 C 380.999 242.427,379.087 243.493,376.750 244.468 C 374.413 245.442,371.600 246.621,370.500 247.088 C 366.585 248.750,357.488 251.999,356.750 251.999 C 356.337 252.000,356.000 251.642,356.000 251.205 C 356.000 250.268,365.588 242.770,367.902 241.898 C 369.935 241.132,380.995 241.301,380.998 242.098 " stroke="none" fill="#000000" fill-rule="evenodd"/></svg>