<svg xmlns="http://www.w3.org/2000/svg" width="400" height="160" viewBox="0 0 400 160" version="1.1">
	<path d="M 190.089 13.159 C 186.812 16.137, 186.424 16.235, 180.194 15.654 C 173.978 15.073, 173.563 15.177, 170.175 18.151 C 166.774 21.137, 166.392 21.231, 160.022 20.639 L 153.402 20.023 148.488 25.012 C 142.706 30.882, 138.857 31.605, 135.036 27.539 L 132.724 25.078 107.726 25.492 C 83.523 25.894, 82.653 25.978, 80.352 28.139 C 78.190 30.170, 77.120 30.348, 68.448 30.117 C 59.084 29.867, 58.860 29.915, 55.425 32.931 C 53.503 34.619, 50.891 36, 49.620 36 C 48.350 36, 46.495 36.900, 45.500 38 C 44.135 39.508, 42.420 40, 38.530 40 C 33.666 40, 33.087 40.286, 28.435 44.988 C 25.191 48.267, 22.656 49.981, 21.038 49.988 C 18.008 50.003, 10 57.559, 10 60.403 C 10 61.496, 11.194 63.636, 12.652 65.159 C 15.786 68.430, 14.634 71, 10.033 71 C 8.535 71, 6.495 71.900, 5.500 73 C 4.505 74.100, 2.860 75, 1.845 75 C 0.462 75, 0 75.751, 0 78 C 0 80.207, 0.469 81, 1.775 81 C 2.751 81, 6.903 84.375, 11 88.500 C 16.414 93.950, 19.151 96, 21.017 96 C 22.738 96, 25.039 97.482, 28 100.500 C 30.601 103.150, 33.327 105, 34.631 105 C 35.850 105, 38.184 106.125, 39.818 107.500 C 41.452 108.875, 43.721 110, 44.860 110 C 45.999 110, 48.468 111.350, 50.347 113 C 53.158 115.468, 54.641 116, 58.708 116 C 62.688 116, 64.109 116.487, 66 118.500 C 67.899 120.522, 69.308 121, 73.360 121 C 77.125 121, 78.945 121.539, 80.681 123.170 C 82.860 125.217, 83.970 125.344, 100.428 125.420 L 117.865 125.500 120.845 128.353 C 123.457 130.854, 124.314 131.123, 127.799 130.534 C 131.318 129.939, 132.186 130.224, 135.372 133.022 C 138.527 135.792, 139.446 136.100, 142.834 135.528 C 146.075 134.980, 147.189 135.288, 149.743 137.438 C 151.418 138.847, 153.721 140, 154.860 140 C 155.999 140, 158.409 141.255, 160.215 142.790 C 163.325 145.431, 164.012 145.577, 173.106 145.531 C 185.458 145.469, 186.043 145.022, 185.344 136.181 C 184.567 126.343, 184.593 126.326, 202.105 125.497 L 216.710 124.807 220.340 127.994 C 223.538 130.802, 224.434 131.102, 227.872 130.522 C 231.305 129.942, 232.206 130.242, 235.372 133.022 C 238.527 135.792, 239.446 136.100, 242.834 135.528 C 246.075 134.980, 247.189 135.288, 249.743 137.438 C 251.418 138.847, 253.721 140, 254.860 140 C 255.999 140, 258.409 141.241, 260.215 142.757 C 263.418 145.446, 263.805 145.513, 275.765 145.464 L 288.029 145.413 294.414 139.085 L 300.799 132.757 300.419 122.985 C 299.956 111.058, 301.204 108.906, 305.948 113.450 C 308.445 115.842, 309.343 116.118, 312.761 115.540 C 316.087 114.979, 317.171 115.273, 319.743 117.438 C 321.418 118.847, 323.721 120, 324.860 120 C 325.999 120, 328.514 121.391, 330.450 123.090 C 333.558 125.819, 334.436 126.102, 337.957 125.507 C 341.740 124.868, 342.218 125.093, 347.319 129.917 C 350.275 132.713, 353.628 135, 354.770 135 C 355.912 135, 358.304 136.226, 360.084 137.725 C 363.117 140.276, 363.947 140.453, 373.174 140.503 L 383.026 140.557 386.703 136.792 L 390.380 133.026 390.108 108.642 L 389.835 84.258 393.027 80.622 C 395.760 77.510, 396.126 76.484, 395.567 73.507 C 394.842 69.640, 396.281 66, 398.535 66 C 400.886 66, 400.445 60.350, 398.046 59.722 C 396.904 59.424, 395.839 58.023, 395.486 56.356 C 394.254 50.542, 394.804 50.700, 375.777 50.700 L 358.145 50.700 354.849 53.474 C 351.774 56.061, 351.120 56.207, 345.131 55.648 C 338.988 55.074, 338.556 55.183, 335.174 58.152 C 331.788 61.125, 331.368 61.230, 325.174 60.652 C 319.030 60.078, 318.541 60.196, 315.320 63.024 C 308.721 68.818, 297.601 66.157, 303.348 60.159 C 306.764 56.593, 306.691 54.551, 303 50.347 C 301.350 48.468, 300 45.947, 300 44.744 C 300 41.793, 289.288 31, 286.358 31 C 285.146 31, 282.736 29.808, 281.004 28.350 C 276.089 24.214, 244.911 24.214, 239.996 28.350 C 238.264 29.807, 235.934 31, 234.818 31 C 233.702 31, 231.452 32.125, 229.818 33.500 C 227.043 35.835, 226.120 36, 215.858 36 C 203.812 36, 201 35.156, 201 31.542 C 201 30.228, 199.827 27.760, 198.394 26.057 C 195.353 22.442, 196.372 20, 200.922 20 C 204.155 20, 206 18.349, 206 15.455 C 206 9.357, 195.879 7.896, 190.089 13.159 M 115.180 33.308 C 112.984 35.646, 112.601 35.697, 100.967 35.218 L 89.011 34.726 84.505 39.231 C 78.803 44.934, 78.282 49.948, 82.846 55.215 C 85.436 58.204, 85.684 59.151, 85.596 65.721 L 85.500 72.942 79.100 79.400 L 72.700 85.857 62.752 85.491 L 52.805 85.125 46.765 79.085 L 40.725 73.045 40.613 65.572 C 40.478 56.642, 39.442 55.078, 35.640 58.068 C 32.405 60.613, 29.648 59.250, 30.574 55.561 C 31.627 51.364, 28.338 50.194, 25.001 53.578 C 20.565 58.078, 20.326 57.705, 40.860 78.397 L 60.219 97.906 58.066 100.643 L 55.913 103.380 59.433 106.900 L 62.953 110.419 65.781 107.710 C 68.092 105.496, 69.532 105, 73.650 105 C 77.420 105, 79.146 104.496, 80.500 103 C 81.495 101.900, 83.424 101, 84.787 101 C 87.974 101, 96 93.145, 96 90.026 C 96 88.795, 97.169 86.400, 98.597 84.702 C 100.782 82.106, 101.094 80.990, 100.564 77.673 C 99.564 71.421, 101.639 69.860, 109.926 70.630 C 116.146 71.208, 116.757 71.075, 119.845 68.477 L 123.135 65.708 128.055 70.554 L 132.974 75.399 135.792 72.700 C 137.341 71.215, 139.744 70, 141.130 70 C 142.526 70, 144.699 68.884, 146 67.500 C 149.619 63.647, 171.381 63.647, 175 67.500 C 176.312 68.897, 178.485 70.007, 179.924 70.015 C 183.010 70.034, 183.566 70.408, 187.752 75.285 C 190.246 78.191, 191 80, 191 83.075 C 191 85.595, 191.791 88.151, 193.132 89.965 L 195.264 92.849 193.089 95.614 L 190.913 98.380 194.322 101.789 C 196.197 103.664, 199.254 105.506, 201.115 105.884 C 204 106.469, 204.546 107.035, 204.808 109.711 C 205.287 114.596, 207.505 115.813, 210.611 112.897 C 213.100 110.560, 213.519 110.509, 227.427 110.856 L 241.689 111.212 245.199 108.130 C 248.553 105.186, 248.996 105.075, 255.131 105.648 C 261.120 106.207, 261.774 106.061, 264.849 103.474 L 268.145 100.700 285.599 100.700 C 302.636 100.700, 303.112 100.757, 305.602 103.096 L 308.152 105.491 312.076 101.284 L 316 97.077 316 88.039 C 316 74.576, 316.212 74.707, 295.085 75.144 L 278.371 75.490 274.962 72.621 C 271.760 69.927, 271.162 69.789, 265.131 70.352 C 259.036 70.921, 258.537 70.800, 255.320 67.976 C 253.456 66.339, 250.999 65, 249.860 65 C 248.721 65, 246.386 63.819, 244.671 62.376 C 241.797 59.959, 241.048 59.800, 235.131 60.352 C 229.036 60.921, 228.537 60.800, 225.320 57.976 C 223.456 56.339, 220.999 55, 219.860 55 C 218.721 55, 216.396 53.828, 214.693 52.395 C 211.625 49.814, 211.474 49.794, 197.381 50.145 C 183.470 50.492, 183.108 50.448, 180.575 48.069 L 177.987 45.639 175.101 48.403 C 171.888 51.482, 168.385 51.607, 166.602 48.708 C 165.702 47.244, 165.957 46.568, 168 45.012 C 170.084 43.425, 170.276 42.891, 169.155 41.804 C 168.043 40.727, 167.544 40.891, 166.283 42.750 C 164.104 45.960, 162.961 45.615, 157.332 40.045 L 152.325 35.089 144.912 35.671 C 138.910 36.143, 136.997 36.721, 134.858 38.711 C 130.428 42.830, 127.412 41.495, 125.349 34.500 C 124.131 30.372, 118.553 29.718, 115.180 33.308 M 62.537 36.606 C 60.024 39.119, 62.363 41, 68 41 C 73.637 41, 75.976 39.119, 73.463 36.606 C 72.544 35.686, 70.208 35, 68 35 C 65.792 35, 63.456 35.686, 62.537 36.606 M 38.250 45.662 C 35.953 46.589, 36.853 49.925, 39.585 50.611 C 43.288 51.540, 45.825 48.968, 43.500 46.643 C 41.841 44.984, 40.535 44.740, 38.250 45.662 M 142 51.500 C 139.898 54.032, 142.522 56, 148 56 C 151.007 56, 153.213 55.448, 154 54.500 C 156.102 51.968, 153.478 50, 148 50 C 144.993 50, 142.787 50.552, 142 51.500 M 187.200 66.200 C 185.189 68.211, 185.847 69.719, 189.009 70.352 C 190.664 70.683, 193.345 71.935, 194.967 73.134 C 199.858 76.750, 203.731 70.782, 199.171 66.655 C 197.015 64.704, 189.001 64.399, 187.200 66.200 M 153.250 70.743 C 150.823 71.566, 151.877 74.936, 154.750 75.541 C 159.219 76.481, 160.482 77.535, 160.812 80.601 C 161.413 86.176, 165.245 87.348, 169.943 83.394 C 173.616 80.304, 176 81.386, 176 86.144 C 176 89.791, 179.576 91.832, 182.874 90.068 C 186.915 87.905, 185.697 83.505, 179.250 76.985 L 173.500 71.169 164 70.744 C 158.775 70.510, 153.938 70.509, 153.250 70.743 M 207 71.500 C 205.267 73.588, 207.384 76, 210.948 76 C 212.539 76, 214.618 77.029, 216 78.500 C 218.206 80.848, 218.965 81, 228.500 81 C 238.035 81, 238.794 81.152, 241 83.500 C 243.641 86.311, 247.134 86.748, 249 84.500 C 250.733 82.412, 248.616 80, 245.052 80 C 243.461 80, 241.382 78.971, 240 77.500 C 237.794 75.152, 237.035 75, 227.500 75 C 217.965 75, 217.206 74.848, 215 72.500 C 212.359 69.689, 208.866 69.252, 207 71.500 M 141.200 77.200 C 140.540 77.860, 140 79.483, 140 80.806 C 140 82.129, 138.893 84.527, 137.540 86.134 C 132.231 92.445, 137.499 110, 144.702 110 C 146.096 110, 148.774 111.350, 150.653 113 C 152.532 114.650, 155.001 116, 156.140 116 C 157.279 116, 159.548 117.125, 161.182 118.500 C 168.657 124.790, 181 117.659, 181 107.050 C 181 100.410, 175.883 98.408, 170.653 103 C 164.656 108.266, 159.366 105.815, 160.564 98.327 C 161.094 95.010, 160.782 93.894, 158.597 91.298 C 157.169 89.600, 156 87.526, 156 86.687 C 156 82.673, 152.254 80.161, 150.500 83 C 149.087 85.287, 146 84.052, 146 81.200 C 146 78.640, 144.477 76, 143 76 C 142.670 76, 141.860 76.540, 141.200 77.200 M 262 81.500 C 259.898 84.032, 262.522 86, 268 86 C 271.007 86, 273.213 85.448, 274 84.500 C 276.102 81.968, 273.478 80, 268 80 C 264.993 80, 262.787 80.552, 262 81.500 M 16.385 82.439 C 14.970 86.126, 25.901 92.528, 28.749 89.680 C 30.899 87.530, 28.811 85, 24.886 85 C 23.100 85, 21.545 84.245, 20.768 83 C 19.307 80.661, 17.172 80.388, 16.385 82.439 M 111.200 82.200 C 107.753 85.647, 110.919 96.972, 114.500 94 C 117.291 91.684, 116.058 81, 113 81 C 112.670 81, 111.860 81.540, 111.200 82.200 M 46.200 92.200 C 43.208 95.192, 46.332 101.629, 49.500 99 C 51.958 96.960, 50.840 91, 48 91 C 47.670 91, 46.860 91.540, 46.200 92.200 M 126.122 97.278 C 125.505 97.895, 125 99.483, 125 100.806 C 125 102.129, 123.875 104.548, 122.500 106.182 C 121.125 107.816, 120 110.102, 120 111.262 C 120 112.422, 119.075 114.356, 117.945 115.559 C 116.046 117.580, 116.013 117.870, 117.518 119.375 C 119.542 121.399, 142.428 121.394, 144.109 119.369 C 145.682 117.473, 139.450 111, 136.051 111 C 132.136 111, 129.642 107.906, 130.480 104.090 C 131.635 98.832, 128.877 94.523, 126.122 97.278 M 187 112 C 183.041 115.959, 185.342 119.553, 192.296 120.270 C 200.024 121.067, 201.426 118.721, 196.160 113.808 C 191.527 109.487, 189.845 109.155, 187 112 M 76.446 112.087 C 75.416 113.755, 77.733 115.667, 79.113 114.287 C 80.267 113.133, 79.545 111, 78 111 C 77.515 111, 76.816 111.489, 76.446 112.087" stroke="none" fill="#FFFFFF" fill-rule="nonzero"/>
</svg>