<svg xmlns="http://www.w3.org/2000/svg" width="1200" height="473" viewBox="0 0 1200 473" version="1.1">
	<path d="M 595 34.983 C 593.075 35.408, 588.800 36.444, 585.500 37.285 C 582.200 38.127, 570.275 40.931, 559 43.517 C 531.100 49.917, 510.333 55.267, 499.160 58.934 C 487.142 62.879, 481 63.070, 481 59.500 C 481 58.125, 480.638 57, 480.196 57 C 478.729 57, 459.682 68.919, 447 77.773 L 434.500 86.500 423 86.279 C 416.675 86.157, 403.175 85.257, 393 84.279 C 371.556 82.217, 281.983 81.929, 260.500 83.852 C 217.737 87.682, 199.905 90.208, 186.500 94.338 C 182.100 95.694, 176.732 97.108, 174.571 97.480 C 170.189 98.236, 163.123 101.644, 135.855 116.151 C 120.659 124.236, 115.388 126.519, 107.355 128.496 C 91.135 132.488, 74.423 142.363, 57.972 157.678 C 54.412 160.992, 49.657 164.857, 47.404 166.267 C 36.873 172.859, 38.737 185.092, 53.353 205.311 C 58.017 211.762, 59 213.832, 59 217.202 L 59 221.283 48.250 220.745 C 42.337 220.450, 34.534 219.449, 30.910 218.522 C 20.718 215.916, 9 221.464, 9 228.895 C 9 233.652, 30.552 252.820, 47.225 262.890 C 52.876 266.304, 61.550 272.476, 66.500 276.606 C 71.450 280.737, 80 286.630, 85.500 289.703 C 91 292.776, 100 297.894, 105.500 301.077 C 111 304.260, 121.563 309.631, 128.974 313.012 C 136.385 316.394, 150.859 323.645, 161.138 329.125 C 184.221 341.433, 187.436 342.574, 203.016 343.979 C 218.218 345.350, 221.294 346.124, 230.943 351 C 249.698 360.479, 280.558 365.243, 306.147 362.610 C 314.002 361.802, 315.651 361.961, 324.147 364.338 C 329.291 365.777, 338.808 367.874, 345.296 368.999 C 357.576 371.128, 380.366 377.768, 393.738 383.114 C 398.007 384.821, 407.305 388.214, 414.399 390.655 C 421.494 393.095, 429.977 396.421, 433.252 398.046 C 436.526 399.671, 440.438 401, 441.944 401 C 446.332 401, 462.929 406.775, 476.500 413.024 C 484.312 416.621, 532.364 433, 535.105 433 C 538.002 433, 539.669 430.441, 540.313 425.008 C 540.648 422.178, 541.840 418.378, 542.961 416.563 C 544.082 414.749, 545 412.587, 545 411.759 C 545 410.932, 547.250 407.440, 550 404 C 557.686 394.385, 556.591 388.050, 545.125 375.793 C 539.606 369.893, 539 368.823, 539 364.981 L 539 360.717 559.750 361.363 C 571.163 361.718, 585.343 362.291, 591.261 362.636 C 601.432 363.229, 602.344 363.119, 607.886 360.632 C 618.843 355.714, 634.343 359.025, 656.685 371.055 C 664.485 375.254, 666.692 376, 671.323 376 C 675.858 376, 678.940 376.993, 689.638 381.903 C 706.038 389.430, 712.732 391.668, 714.264 390.136 C 717.811 386.589, 754.219 401.572, 772.767 414.212 C 780.916 419.765, 793.613 422.548, 834.136 427.666 C 855.727 430.393, 878.113 414.028, 891.579 385.672 C 898.167 371.799, 899.877 343.341, 894.750 332.900 C 893.091 329.523, 892 325.654, 892 323.150 L 892 319 895.872 319 C 901.285 319, 912.175 322.745, 930.127 330.781 C 938.582 334.565, 947.525 338.367, 950 339.228 C 952.475 340.089, 962.375 344.005, 972 347.931 C 981.625 351.856, 995.350 357.123, 1002.500 359.636 C 1018.325 365.197, 1024.343 368.147, 1044.980 380.458 C 1067.621 393.963, 1099.895 408.136, 1121.516 414.068 C 1141.364 419.513, 1159.421 407.183, 1165.550 384 C 1168.728 371.982, 1167.164 340.045, 1162.620 324.174 C 1156.031 301.156, 1154.557 292.308, 1155.744 282.905 C 1157.156 271.719, 1164.848 248.551, 1169.989 240 C 1183.702 217.192, 1190.855 178.712, 1184.858 160.013 C 1181.782 150.419, 1164.402 145.163, 1148 148.867 C 1145.525 149.426, 1131.575 151.268, 1117 152.961 C 1090.681 156.018, 1085.940 156.865, 1072.500 160.918 C 1068.650 162.079, 1059.200 164.355, 1051.500 165.975 C 1015.511 173.547, 968.165 185.564, 939 194.528 C 917.914 201.009, 905.269 204.384, 900.750 204.739 L 894 205.269 894 201.199 C 894 198.961, 894.488 195.863, 895.084 194.315 C 895.680 192.767, 896.798 188.233, 897.569 184.239 C 898.340 180.246, 899.877 175.201, 900.985 173.029 C 902.555 169.953, 903 167.128, 903 160.249 L 903 151.418 898 143.500 C 895.250 139.145, 893 135.244, 893 134.832 C 893 131.894, 864.522 101.290, 854.658 93.629 C 837.057 79.957, 824.393 75.895, 790.072 72.911 C 758.235 70.144, 726.249 79.019, 687.327 101.419 C 672.381 110.020, 668.180 110.949, 664.059 106.562 L 661.769 104.125 657.694 106.812 C 653.817 109.370, 653.014 109.500, 641.060 109.500 C 634.152 109.500, 624.337 109.902, 619.250 110.393 L 610 111.287 610 107.750 C 610 104.132, 608.789 103, 604.918 103 C 603.336 103, 603 102.275, 603 98.864 L 603 94.728 591.500 95.436 L 580 96.144 580 91.641 C 580 87.219, 587.931 78.431, 597.078 72.719 C 600.317 70.696, 599.290 70.394, 591.750 71.149 C 587.763 71.549, 580.563 71.904, 575.750 71.938 L 567 72 567 67.580 C 567 59.904, 582.700 48.186, 596.161 45.815 C 604.553 44.337, 609.576 39.320, 605.750 36.238 C 603.842 34.701, 598.896 34.124, 595 34.983" stroke="none" fill="#FFFFFF" fill-rule="nonzero"/>
</svg>