<svg xmlns="http://www.w3.org/2000/svg" width="1200" height="750" viewBox="0 0 1200 750" version="1.1">
	<path d="M 286.734 15.030 C 281.079 16.450, 275.889 19.377, 269.894 24.528 C 260.704 32.425, 261.035 32.346, 240.408 31.536 C 219.909 30.732, 220.686 30.551, 211.800 38.203 C 204.116 44.820, 203.134 45, 174.724 45 C 147.006 45, 145.950 45.200, 137.931 51.961 C 130.589 58.152, 124.125 61.832, 118.566 62.986 C 115.714 63.578, 111.158 65.596, 108.441 67.471 C 98.856 74.082, 94.975 76.187, 89.908 77.524 C 77.415 80.820, 45 112.923, 45 122 C 45 130.681, 63.573 147.745, 76.515 150.955 C 78.724 151.503, 82.738 153.424, 85.436 155.225 C 88.134 157.026, 92.177 159.724, 94.421 161.220 C 96.664 162.716, 100.806 164.423, 103.625 165.015 C 109.226 166.190, 114.892 169.446, 123.413 176.386 C 130.273 181.974, 133.234 182.805, 144.194 182.219 C 155.388 181.622, 156.419 181.931, 165.087 188.498 C 174.680 195.766, 175.391 195.927, 205 197.506 C 231.664 198.928, 235.259 199.579, 241 204.019 C 245.923 207.827, 249.821 209.651, 254.805 210.479 C 257.416 210.913, 261.548 212.904, 265.305 215.539 C 268.712 217.929, 273.938 221.597, 276.918 223.692 L 282.336 227.500 292.918 227.431 C 309.560 227.321, 311.677 225.771, 316.905 209.866 C 319.539 201.854, 321.095 200.309, 327.819 199.034 C 334.079 197.847, 337.878 196.001, 344.592 190.882 C 351.746 185.428, 356.531 185.448, 363.067 190.960 C 375.107 201.112, 379.386 200.381, 396.761 185.205 L 403.022 179.736 424.261 180.442 C 477.877 182.223, 478.993 181.989, 480.296 168.709 C 481.714 154.253, 486.979 151.419, 511.833 151.729 C 532.689 151.989, 533.541 151.786, 541.881 144.571 C 551.315 136.409, 550.298 136.636, 580.179 136.036 C 617.918 135.278, 616.235 137.083, 616.835 96.720 L 617.233 69.940 607.366 60.098 C 588.461 41.240, 574.095 39.045, 557.500 52.479 C 539.703 66.887, 515.157 66.907, 494.584 52.530 C 491.879 50.640, 487.477 48.625, 484.800 48.051 C 477.980 46.588, 473.458 44.067, 465.038 37.032 L 457.736 30.931 452.118 31.439 C 449.028 31.719, 419.841 32.221, 387.258 32.555 L 328.016 33.163 320.307 26.559 C 308.135 16.131, 297.242 12.391, 286.734 15.030 M 828.905 80.705 C 816.953 91.535, 817.422 91.342, 804.531 90.773 C 791.579 90.201, 789.744 90.732, 783 97.001 C 776.815 102.751, 773.461 103.975, 762.212 104.587 C 748.926 105.310, 744.926 106.518, 737.379 112.089 C 729.291 118.060, 727.010 118.811, 713.845 119.838 C 702.166 120.750, 698.594 122.113, 689.927 128.964 C 683.679 133.902, 679.851 134.987, 668.651 134.994 C 657.066 135.002, 655.434 135.854, 640.631 149.632 C 625.794 163.442, 624.080 163.896, 614.602 156.537 L 608.854 152.073 602.453 157.503 C 594.740 164.046, 589.533 166.828, 583.436 167.664 C 580.922 168.008, 577.433 169.337, 575.682 170.617 C 566.548 177.294, 564.967 178.111, 559.411 179.020 C 556.160 179.553, 550.744 179.991, 547.376 179.994 C 539.640 180.002, 534.001 181.984, 527.540 186.969 C 522.097 191.169, 514.638 194.942, 511.710 194.978 C 508.965 195.012, 502.300 198.714, 495.232 204.132 C 487.271 210.234, 484.425 211.716, 478.035 213.086 C 474.641 213.814, 470.486 215.954, 465.439 219.576 C 453.877 227.871, 456.449 227.381, 428.421 226.624 C 400.092 225.858, 400.590 225.772, 391.981 232.936 C 386.474 237.519, 381.149 239.981, 376.710 239.994 C 374.320 240.002, 367.567 243.474, 361.858 247.631 C 354.879 252.714, 351.202 253.879, 339.210 254.811 C 327.137 255.750, 323.661 257.060, 314.927 263.964 C 308.629 268.942, 304.862 269.987, 293.200 269.994 C 282.695 270.001, 280.430 270.823, 272.500 277.511 C 264.971 283.861, 263.646 284.300, 249.904 284.997 C 236.096 285.698, 236.423 285.577, 225.100 294.194 C 220.614 297.608, 217.647 299.075, 214.216 299.575 C 208.765 300.370, 203.428 302.847, 196.858 307.631 C 189.879 312.714, 186.202 313.879, 174.210 314.811 C 162.360 315.732, 158.277 317.223, 150.579 323.441 C 143.866 328.863, 142.255 329.345, 128.800 329.957 C 118.211 330.438, 115.683 330.864, 113.584 332.517 C 112.199 333.608, 108.682 336.386, 105.767 338.691 C 102.502 341.274, 98.554 343.341, 95.484 344.076 C 87.502 345.987, 85.199 347.044, 76.743 352.671 C 72.347 355.597, 66.894 358.445, 64.625 359 C 56.038 361.102, 51.501 364.487, 33.128 382.494 L 14.756 400.500 15.445 434.500 C 16.490 486.056, 16.830 488.101, 26.384 500.332 C 32.004 507.526, 32.163 508.395, 31.797 530.013 L 31.500 547.526 35.257 552.513 C 43.642 563.644, 46.919 569.292, 47.993 574.468 C 48.782 578.266, 50.853 582.313, 55.186 588.523 L 61.272 597.245 60.763 607.973 C 60.180 620.274, 60.915 622.894, 66.964 630.071 C 73.154 637.414, 76.833 643.877, 77.986 649.434 C 78.578 652.286, 80.596 656.842, 82.471 659.559 C 89.136 669.221, 91.392 673.380, 92.695 678.408 C 94.167 684.088, 98.237 690.415, 106.450 699.791 C 116.442 711.199, 120 717.705, 120 724.572 C 120 729.263, 124.039 733.602, 130.325 735.665 C 134.758 737.120, 141.344 737.421, 176.278 737.760 L 217.055 738.157 223.778 732.266 C 235.938 721.611, 235.325 721.860, 248.729 722.138 C 261.891 722.412, 263.299 721.979, 271 715.296 C 280.748 706.836, 280.662 706.867, 293.729 707.138 C 306.891 707.412, 308.299 706.979, 316 700.296 C 325.748 691.836, 325.662 691.867, 338.729 692.138 C 351.891 692.412, 353.299 691.979, 361 685.296 C 370.750 676.834, 370.661 676.866, 383.729 677.144 C 396.701 677.421, 397.606 677.159, 405.071 670.972 C 412.621 664.713, 418.948 661.153, 424.604 659.978 C 428.488 659.172, 432.229 657.232, 438.229 652.912 L 446.500 646.957 458.500 647.168 C 472.101 647.407, 473.107 647.078, 481.881 639.539 C 490.544 632.095, 491.859 631.663, 504.056 632.241 C 516.272 632.820, 518.257 632.241, 525 626.134 C 530.347 621.292, 534.845 618.965, 540.260 618.238 C 545.786 617.497, 552.838 612.433, 567.235 598.869 L 579.580 587.238 606.540 586.733 C 637.314 586.158, 637.977 586.026, 647.913 578.498 C 656.581 571.931, 657.612 571.622, 668.806 572.219 C 679.700 572.801, 682.735 571.967, 689.360 566.571 C 698.067 559.479, 702.124 557.211, 709.710 555.194 C 714.481 553.926, 718.122 552.222, 720.473 550.157 C 725.212 545.997, 728.399 544.455, 735.125 543.069 C 741.029 541.853, 747.283 538.366, 754.929 532.028 C 762.405 525.832, 762.291 525.855, 783.307 526.192 L 802.529 526.500 807.515 522.743 C 818.694 514.319, 824.283 511.083, 829.546 509.991 C 833.496 509.170, 837.192 507.258, 843.229 502.912 L 851.500 496.957 863.500 497.168 C 876.908 497.403, 878.300 496.978, 886 490.296 C 895.750 481.834, 895.661 481.866, 908.729 482.144 C 921.672 482.420, 922.599 482.155, 930 476.047 C 937.729 469.669, 942.257 467.175, 949.710 465.194 C 954.481 463.926, 958.122 462.222, 960.473 460.157 C 965.004 456.179, 968.558 454.355, 973.535 453.452 C 982.901 451.753, 988.746 446.875, 1025.267 410.279 L 1054.034 381.453 1053.017 376.090 C 1052.458 373.140, 1052.018 367.526, 1052.041 363.614 C 1052.085 355.898, 1052.042 355.985, 1061.716 344.091 C 1067.323 337.196, 1068.154 333.819, 1066.776 323.523 C 1065.286 312.382, 1065.925 311.085, 1080.051 296.582 L 1091.659 284.665 1108.224 285.978 C 1128.561 287.590, 1131.610 287.240, 1137.747 282.589 C 1147.915 274.882, 1154.523 270.940, 1158.284 270.339 C 1163.577 269.492, 1171.298 264.146, 1184.750 252.010 L 1196 241.861 1196 219.284 L 1196 196.707 1191.541 191.940 C 1186.032 186.051, 1185.436 183.787, 1186.818 174.014 C 1188.197 164.259, 1187.262 160.627, 1181.571 153.640 C 1174.723 145.232, 1171.977 140.600, 1170.481 134.928 C 1168.494 127.397, 1163.507 120.739, 1150.098 107.718 C 1127.893 86.156, 1114.803 83.509, 1097.924 97.169 C 1086.327 106.555, 1087.348 106.182, 1074.244 105.822 L 1062.500 105.500 1058 108.652 C 1055.525 110.385, 1049.225 115.821, 1044 120.732 C 1022.557 140.883, 1020.621 140.949, 1000.500 122.214 C 990.831 113.211, 979.453 105.008, 976.593 104.978 C 973.642 104.947, 966.563 101.579, 961.123 97.618 C 954.571 92.847, 949.230 90.369, 943.784 89.575 C 940.353 89.075, 937.386 87.608, 932.900 84.194 C 920.320 74.621, 925.932 75.538, 877.905 75.201 L 835.310 74.902 828.905 80.705" stroke="none" fill="#FFFFFF" fill-rule="nonzero"/>
</svg>