<?xml version="1.0" standalone="no"?>
<!DOCTYPE svg PUBLIC "-//W3C//DTD SVG 20010904//EN"
 "http://www.w3.org/TR/2001/REC-SVG-20010904/DTD/svg10.dtd">
<svg version="1.0" xmlns="http://www.w3.org/2000/svg"
 width="300.000000pt" height="292.000000pt" viewBox="0 0 300.000000 292.000000"
 preserveAspectRatio="xMidYMid meet">
<g transform="translate(0.000000,292.000000) scale(0.100000,-0.100000)"
fill="#000000" stroke="none">
<path d="M581 2717 c-52 -30 -50 -8 -51 -809 l0 -748 94 0 94 0 5 128 c5 147
21 215 78 329 140 287 423 463 744 463 392 0 718 -263 810 -652 8 -35 15 -109
15 -165 l0 -103 95 0 95 0 0 745 c0 527 -3 751 -11 769 -6 13 -26 32 -43 41
-28 15 -62 17 -326 12 -238 -4 -307 -8 -355 -22 -75 -21 -181 -76 -233 -121
-22 -19 -43 -34 -46 -34 -4 0 -30 18 -58 41 -63 50 -121 80 -213 110 -65 21
-90 23 -370 26 -242 3 -305 1 -324 -10z"/>
<path d="M374 2439 c-41 -12 -100 -77 -113 -126 -7 -25 -11 -260 -11 -686 0
-691 1 -701 48 -726 13 -7 108 -11 262 -11 227 0 242 1 234 18 -4 9 -19 50
-33 89 l-26 73 -147 0 -148 0 0 690 c0 651 -1 690 -17 689 -10 0 -32 -5 -49
-10z"/>
<path d="M2650 1760 l0 -690 -147 0 -148 0 -26 -73 c-14 -39 -29 -80 -33 -89
-8 -17 7 -18 236 -18 245 0 245 0 271 24 14 13 28 39 32 57 3 19 5 329 3 689
-3 721 0 680 -65 743 -27 25 -78 47 -110 47 -10 0 -13 -143 -13 -690z"/>
<path d="M1367 1969 c-245 -60 -452 -254 -527 -494 -34 -107 -38 -274 -11
-389 62 -261 271 -473 531 -542 81 -22 272 -24 350 -5 71 18 183 64 221 92
l31 22 44 -44 c39 -38 44 -48 44 -88 0 -44 2 -47 133 -178 72 -74 152 -146
177 -161 158 -94 346 74 275 245 -17 40 -249 281 -303 315 -24 15 -42 19 -65
14 -27 -5 -36 -1 -73 35 l-41 41 47 92 c63 126 85 228 77 373 -14 275 -170
506 -422 623 -151 71 -328 89 -488 49z m286 -174 c220 -46 386 -212 432 -432
18 -85 18 -130 0 -215 -43 -203 -202 -371 -400 -423 -33 -8 -98 -15 -145 -15
-159 0 -267 45 -381 159 -86 87 -131 166 -154 276 -20 94 -19 147 4 238 34
131 94 225 193 303 133 104 292 143 451 109z"/>
<path d="M1454 1705 c-251 -54 -411 -291 -360 -533 31 -148 120 -263 255 -330
74 -37 77 -37 195 -37 114 0 125 2 186 31 85 40 178 127 219 203 147 276 -8
601 -318 667 -79 16 -98 16 -177 -1z m247 -117 c110 -50 196 -171 206 -289 5
-53 3 -64 -12 -76 -39 -28 -75 -2 -75 55 0 79 -76 189 -157 227 -19 9 -60 20
-90 24 -30 5 -59 14 -64 22 -12 20 -11 43 4 58 19 20 125 8 188 -21z"/>
</g>
</svg>
