<svg xmlns="http://www.w3.org/2000/svg" width="1200" height="1168" viewBox="0 0 1200 1168" version="1.1">
	<path d="M 260 76.974 C 221.842 78.579, 217.349 83.744, 213.872 130 C 213.040 141.068, 212.588 225.353, 212.294 424.750 L 211.882 704 249.797 704 L 287.711 704 288.401 682.750 C 290.779 609.556, 293.748 587.676, 305.713 555.188 C 406.302 282.047, 783.209 259.576, 913.476 518.953 C 939.198 570.167, 947.959 611.619, 947.990 682.250 L 948 704 986.076 704 L 1024.153 704 1023.693 422.750 C 1023.223 134.810, 1022.851 106.667, 1019.409 98.065 C 1016.267 90.213, 1004.147 81.115, 993 78.241 C 978.377 74.472, 799.412 76.632, 756 81.101 C 719.426 84.867, 671.693 105.983, 637.500 133.525 C 617.924 149.292, 618.909 149.304, 597.562 133.048 C 558.545 103.334, 513.678 83.757, 476 80.006 C 452.775 77.693, 295.406 75.484, 260 76.974 M 164.500 188.479 C 163.950 188.655, 160.125 189.566, 156 190.503 C 130.362 196.326, 105.242 225.764, 102.997 252.614 C 99.845 290.314, 98.904 720.947, 101.889 759.500 C 104.739 796.304, 109.071 806.099, 123.784 809.005 C 140.120 812.231, 307.046 813.195, 314.750 810.107 C 319.109 808.360, 319.239 809.023, 308.999 780.780 C 304.049 767.126, 298.761 752.365, 297.249 747.978 L 294.500 740.001 235.301 740 L 176.102 740 175.699 474.750 C 175.298 210.372, 175.107 195.806, 171.974 189.952 C 171.021 188.171, 167.576 187.492, 164.500 188.479 M 1063.532 190.852 C 1061.103 201.915, 1060.743 234.186, 1060.313 479.750 L 1059.857 740 1000.678 740.014 L 941.500 740.028 934.157 760.764 C 930.118 772.169, 924.680 787.219, 922.073 794.209 C 916.995 807.819, 916.982 808.197, 921.520 810.172 C 925.483 811.897, 1084.342 812.683, 1099.377 811.052 C 1115.667 809.285, 1123.318 803.930, 1130.655 789.162 L 1134.462 781.500 1135.140 747.500 C 1136.749 666.851, 1135.177 312.343, 1133.045 275 C 1130.592 232.052, 1127.351 222.246, 1110.929 208.077 C 1093.521 193.057, 1065.301 182.801, 1063.532 190.852 M 586.761 373.085 C 452.885 387.247, 342.542 493.604, 326.352 624.086 C 314.006 723.586, 349.157 820.009, 420.884 883.395 C 487.206 942.003, 554.945 963.661, 651 956.970 C 689.358 954.298, 740.178 937.207, 771.655 916.392 C 784.699 907.766, 785.650 907.992, 800.623 923.250 C 818.265 941.228, 818.591 941.863, 819.908 960.816 C 821.158 978.810, 821.864 979.753, 870.747 1028.751 C 936.422 1094.581, 950.194 1104.371, 979.025 1105.718 C 1043.333 1108.722, 1084.313 1032.659, 1044.804 983.626 C 1027.124 961.684, 978.350 910.534, 954.683 889.117 C 929.765 866.567, 926.053 864.687, 906.858 864.905 L 894.217 865.048 889.358 861.414 C 886.686 859.415, 879.888 853.225, 874.250 847.658 C 861.055 834.627, 861.020 836.747, 874.885 809.158 C 901.158 756.879, 909.531 727.730, 911.555 681.500 C 917.253 551.393, 844.838 439.413, 724.500 392.241 C 682.680 375.847, 629.957 368.515, 586.761 373.085" stroke="none" fill="#FFFFFF" fill-rule="nonzero"/>
</svg>