<svg xmlns="http://www.w3.org/2000/svg" width="400" height="165" viewBox="0 0 400 165" version="1.1">
	<path d="M 371 8 C 371 9.333, 371.667 10, 373 10 C 374.333 10, 375 9.333, 375 8 C 375 6.667, 374.333 6, 373 6 C 371.667 6, 371 6.667, 371 8 M 0 18 C 0 21.289, 1.918 22.008, 4 19.500 C 4.993 18.303, 4.993 17.697, 4 16.500 C 1.918 13.992, 0 14.711, 0 18 M 249.966 18.322 C 247.234 20.763, 246.279 21.054, 242.889 20.481 C 239.449 19.900, 238.540 20.197, 235.450 22.910 C 233.514 24.609, 230.999 26, 229.860 26 C 228.721 26, 226.452 27.125, 224.818 28.500 C 220.984 31.725, 219.811 31.651, 215.550 27.910 C 212.465 25.201, 211.548 24.901, 208.128 25.478 C 204.767 26.046, 203.760 25.741, 200.863 23.279 C 195.773 18.953, 180.146 19.016, 174.955 23.384 C 171.628 26.184, 171.336 26.240, 162.529 25.737 C 153.635 25.230, 153.463 25.264, 150.126 28.194 L 146.742 31.165 122.490 30.894 L 98.237 30.623 94.892 33.437 C 91.639 36.175, 91.301 36.238, 82.529 35.737 C 73.608 35.229, 73.473 35.256, 70.075 38.239 C 66.801 41.113, 66.335 41.227, 60.174 40.652 C 54.030 40.078, 53.541 40.196, 50.320 43.024 C 48.456 44.661, 45.977 46, 44.812 46 C 43.641 46, 40.328 48.237, 37.406 51 C 34.180 54.052, 31.213 56, 29.794 56 C 25.027 56, 4.608 78.095, 5.412 82.383 C 6.186 86.507, 4.893 89.582, 2.001 90.500 C -1.214 91.520, -0.859 99.288, 2.472 100.805 C 3.922 101.466, 5.188 103.083, 5.532 104.716 C 6.613 109.842, 7.423 110.490, 12.973 110.674 C 17.117 110.810, 18.801 111.393, 20.920 113.424 C 23.080 115.493, 24.598 116, 28.630 116 C 32.733 116, 34.094 116.471, 36.072 118.577 C 38.174 120.814, 39.041 121.071, 42.657 120.529 C 46.349 119.975, 47.227 120.260, 50.396 123.043 C 53.537 125.800, 54.443 126.101, 57.872 125.522 C 61.305 124.942, 62.206 125.242, 65.372 128.022 C 68.527 130.792, 69.446 131.100, 72.834 130.528 C 76.105 129.975, 77.186 130.286, 79.881 132.553 C 83.061 135.229, 83.080 135.231, 103.237 135.634 C 121.995 136.009, 123.566 136.183, 125.626 138.119 C 129.160 141.439, 181.938 141.346, 185.485 138.014 C 189.438 134.300, 217.024 134.690, 221.018 138.517 C 223.450 140.847, 224.354 141.116, 227.799 140.534 C 231.318 139.939, 232.186 140.224, 235.372 143.022 C 238.537 145.801, 239.439 146.102, 242.872 145.522 C 246.305 144.942, 247.206 145.242, 250.372 148.022 C 253.537 150.801, 254.439 151.102, 257.872 150.522 C 261.233 149.954, 262.240 150.259, 265.137 152.721 C 270.138 156.972, 285.853 156.984, 290.895 152.742 C 292.687 151.234, 295.112 150, 296.285 150 C 297.457 150, 300.083 148.372, 302.121 146.382 L 305.826 142.764 305.274 133.521 C 304.515 120.802, 308.007 116.770, 314.818 122.500 C 316.452 123.875, 318.702 125, 319.818 125 C 320.934 125, 323.184 126.125, 324.818 127.500 C 326.452 128.875, 328.702 130, 329.818 130 C 330.934 130, 333.184 131.125, 334.818 132.500 C 336.452 133.875, 338.702 135, 339.818 135 C 340.934 135, 343.184 136.125, 344.818 137.500 C 346.452 138.875, 348.702 140, 349.818 140 C 350.934 140, 353.285 141.210, 355.042 142.689 C 358.125 145.283, 358.678 145.380, 370.660 145.439 L 383.083 145.500 386.747 141.747 L 390.412 137.993 390.118 116.132 L 389.824 94.270 393.003 90.650 C 395.822 87.439, 396.105 86.580, 395.507 83.044 C 394.922 79.579, 395.172 78.745, 397.417 76.664 C 402.127 72.300, 401.120 67.932, 393.855 61.206 L 387.711 55.517 378.105 55.469 C 368.957 55.423, 368.340 55.557, 365.137 58.279 C 362.240 60.741, 361.233 61.046, 357.872 60.478 C 354.429 59.897, 353.539 60.197, 350.305 63.037 C 346.771 66.140, 346.408 66.234, 340.174 65.652 C 334.054 65.080, 333.532 65.204, 330.386 67.966 C 327.175 70.786, 326.741 70.878, 317.478 70.730 C 306.261 70.550, 304.301 69.437, 308.095 65.399 C 311.962 61.283, 311.763 44.894, 307.790 40.215 C 306.255 38.409, 305 35.947, 305 34.744 C 305 31.793, 294.288 21, 291.358 21 C 290.146 21, 287.729 19.802, 285.988 18.337 C 282.884 15.724, 282.539 15.672, 267.973 15.587 L 253.124 15.500 249.966 18.322 M 286.446 37.087 C 285.416 38.755, 287.733 40.667, 289.113 39.287 C 290.267 38.133, 289.545 36, 288 36 C 287.515 36, 286.816 36.489, 286.446 37.087 M 131.446 67.087 C 130.416 68.755, 132.733 70.667, 134.113 69.287 C 135.267 68.133, 134.545 66, 133 66 C 132.515 66, 131.816 66.489, 131.446 67.087 M 191.200 72.200 C 188.341 75.059, 194.870 86.031, 198.582 84.607 C 200.532 83.859, 200.359 82.635, 198 80.500 C 196.900 79.505, 196 77.500, 196 76.045 C 196 73.614, 194.446 71, 193 71 C 192.670 71, 191.860 71.540, 191.200 72.200 M 102.012 76.486 C 101.004 77.700, 104.318 82.988, 107.484 85.215 C 108.983 86.270, 123.380 84.879, 124.222 83.598 C 124.626 82.983, 123.438 80.989, 121.521 79.066 C 117.708 75.240, 104.496 73.493, 102.012 76.486 M 205.950 77.560 C 202.568 81.636, 209.977 88.452, 213.721 84.708 C 215.307 83.122, 215.202 82.803, 212.009 79.509 C 208.151 75.529, 207.744 75.398, 205.950 77.560 M 26.404 82.390 C 25.573 84.554, 37.912 95.980, 41.091 95.991 C 44.642 96.003, 56 107.726, 56 111.378 C 56 116.455, 64.715 117.794, 69.818 113.500 C 71.452 112.125, 73.674 111, 74.757 111 C 75.839 111, 78.424 109.650, 80.500 108 C 82.576 106.350, 85.322 105, 86.602 105 C 91.001 105, 92.805 95.805, 89.128 92.128 C 86.136 89.136, 73.740 89.925, 70.147 93.336 C 66.210 97.074, 49.231 96.554, 45.071 92.568 C 43.597 91.156, 41.279 90, 39.920 90 C 38.287 90, 36.016 88.476, 33.216 85.500 C 28.766 80.772, 27.284 80.095, 26.404 82.390 M 76.446 82.087 C 75.416 83.755, 77.733 85.667, 79.113 84.287 C 80.267 83.133, 79.545 81, 78 81 C 77.515 81, 76.816 81.489, 76.446 82.087 M 101.229 87.171 C 99.541 88.859, 99.685 92.494, 101.500 94 C 103.782 95.894, 106.177 93.439, 105.801 89.593 C 105.478 86.287, 103.278 85.122, 101.229 87.171 M 141.446 87.087 C 140.416 88.755, 142.733 90.667, 144.113 89.287 C 145.267 88.133, 144.545 86, 143 86 C 142.515 86, 141.816 86.489, 141.446 87.087 M 117.606 91.299 C 116.629 92.013, 115.515 94.135, 115.131 96.015 C 114.546 98.876, 113.888 99.543, 111.091 100.115 C 108.797 100.584, 105.510 103.023, 100.601 107.899 C 95.414 113.052, 92.739 115, 90.849 115 C 87.370 115, 85.287 117.436, 87 119.500 C 88.866 121.748, 92.359 121.311, 95 118.500 C 96.292 117.125, 98.438 116, 99.769 116 C 102.033 116, 116.232 103.543, 122.759 95.831 C 126.218 91.744, 122.031 88.063, 117.606 91.299 M 221.200 92.200 C 218.208 95.192, 221.332 101.629, 224.500 99 C 226.958 96.960, 225.840 91, 223 91 C 222.670 91, 221.860 91.540, 221.200 92.200 M 241.446 92.087 C 240.416 93.755, 242.733 95.667, 244.113 94.287 C 245.267 93.133, 244.545 91, 243 91 C 242.515 91, 241.816 91.489, 241.446 92.087 M 201.446 97.087 C 200.416 98.755, 202.733 100.667, 204.113 99.287 C 205.267 98.133, 204.545 96, 203 96 C 202.515 96, 201.816 96.489, 201.446 97.087 M 286.446 97.087 C 285.416 98.755, 287.733 100.667, 289.113 99.287 C 290.267 98.133, 289.545 96, 288 96 C 287.515 96, 286.816 96.489, 286.446 97.087 M 17.088 101.394 C 15.119 103.767, 18.430 106, 23.916 106 C 27.420 106, 29.172 106.532, 30.500 108 C 32.635 110.359, 33.859 110.532, 34.607 108.582 C 36.500 103.649, 20.623 97.135, 17.088 101.394 M 119.368 109.368 C 116.692 112.045, 115 114.646, 115 116.084 C 115 117.519, 113.266 120.193, 110.535 122.966 C 104.277 129.321, 105.193 130.240, 117.785 130.240 C 129.879 130.240, 130 130.176, 130 123.823 C 130 119.628, 130.512 118.181, 133 115.347 C 141.181 106.029, 128.340 100.397, 119.368 109.368 M 206.087 122.580 L 203.020 125.161 200.338 123.051 L 197.656 120.941 194.406 124.091 C 191.332 127.071, 190.840 129.887, 193.357 130.094 C 205.085 131.058, 213.618 129.755, 216.923 126.496 C 223.183 120.324, 213.099 116.680, 206.087 122.580 M 136.446 122.087 C 135.416 123.755, 137.733 125.667, 139.113 124.287 C 140.267 123.133, 139.545 121, 138 121 C 137.515 121, 136.816 121.489, 136.446 122.087 M 146.446 127.087 C 145.416 128.755, 147.733 130.667, 149.113 129.287 C 150.267 128.133, 149.545 126, 148 126 C 147.515 126, 146.816 126.489, 146.446 127.087" stroke="none" fill="#FFFFFF" fill-rule="nonzero"/>
</svg>