<svg xmlns="http://www.w3.org/2000/svg" viewBox="0 0 800 339" width="800" height="339">
  <g transform="scale(0.6666666666666666, 0.6660117878192534)">
    <path d="M 491.113 17.085 C 473.395 44.683, 450.878 72.850, 436.300 85.651 C 417.520 102.143, 421.076 100.880, 387.500 102.988 C 378.150 103.575, 367.575 104.683, 364 105.451 C 360.425 106.219, 354.125 107.141, 350 107.500 C 316.139 110.451, 244.433 130.181, 207.500 146.709 C 194.224 152.651, 150.944 174.321, 139 181.007 C 126.429 188.044, 31.617 235.597, 20.335 240.524 C 7.211 246.254, 8 244.903, 8 261.655 C 8 275.404, 7.916 276, 5.970 276 C 4.022 276, 3.951 276.512, 4.220 288.750 L 4.500 301.500 10.500 305.315 C 41.240 324.861, 110.781 361.547, 142.500 374.951 C 180.745 391.114, 228.101 403.750, 331.500 425.381 C 384.240 436.415, 395.377 438.057, 427 439.465 C 464.583 441.138, 463.959 440.891, 492.500 465.440 C 512.707 482.821, 526.541 493.257, 537.720 499.554 L 546.500 504.500 561.750 504.820 L 577 505.141 576.964 500.820 C 576.945 498.444, 576.284 493.800, 575.496 490.500 C 574.016 484.303, 572.090 435, 573.328 435 C 573.681 435, 580.663 433.650, 588.844 431.999 C 609.984 427.734, 639.573 424.214, 668 422.582 C 694.329 421.070, 696.587 420.609, 707.775 414.459 L 714.069 411 729.843 411 C 751.754 411, 760.656 414.120, 779.500 428.404 C 797.538 442.076, 805.037 444.722, 810.242 439.250 C 811.680 437.738, 813.165 435.254, 813.542 433.731 C 814.701 429.043, 864.587 379.578, 875.500 372.297 C 887.078 364.572, 926.209 342.791, 940.750 335.978 L 952 330.707 952 324.749 L 952 318.792 975.750 319.205 C 998.382 319.599, 999.866 319.745, 1007.268 322.308 C 1018.269 326.117, 1031.933 333.194, 1038.300 338.380 C 1052.751 350.151, 1091.765 376.959, 1109.124 387.048 C 1113.181 389.405, 1119.200 392.968, 1122.500 394.965 C 1133.764 401.782, 1159.239 412, 1164.970 412 C 1166.166 412, 1172.050 414.279, 1178.045 417.065 C 1185.715 420.629, 1189.917 422.037, 1192.223 421.815 L 1195.500 421.500 1195.781 408.641 L 1196.061 395.781 1190.977 386.265 C 1179.422 364.639, 1149.192 319.146, 1130.997 296 L 1118.026 279.500 1118.263 263.997 C 1118.477 250.014, 1118.696 248.297, 1120.500 246.481 C 1121.600 245.374, 1124.203 241.550, 1126.285 237.984 C 1128.367 234.418, 1137.980 220.250, 1147.648 206.500 C 1166.750 179.331, 1173.011 168.028, 1175.522 156.181 C 1177.933 144.801, 1182.588 129.211, 1188.105 114.035 C 1193.015 100.527, 1194.145 93.545, 1191.800 91.200 C 1188.478 87.878, 1185.286 89.645, 1146.634 116.189 C 1089.075 155.718, 1090.231 154.818, 1057.063 185.880 C 1027.476 213.587, 1022.516 216.873, 1002.082 222.297 C 990.733 225.309, 990.018 225.372, 966.500 225.435 C 939.793 225.507, 942.077 225.878, 914.500 216.997 C 906.250 214.340, 891.400 210.131, 881.500 207.643 C 837.594 196.612, 782.729 180.089, 736.100 163.855 C 697.479 150.409, 644.556 135, 636.997 135 C 635.100 135, 635 134.326, 635 121.573 C 635 104.779, 637.401 107.345, 611.543 96.502 C 592.865 88.669, 575.692 75.614, 547.167 47.562 C 530.195 30.870, 523.756 22.612, 518.491 10.777 L 515.500 4.054 507.500 4.038 L 499.500 4.021 491.113 17.085" stroke="none" fill="black" fill-rule="evenodd"/>
  </g>
</svg>