<svg xmlns="http://www.w3.org/2000/svg" viewBox="0 0 800 417" width="800" height="417">
  <g transform="scale(0.6666666666666666, 0.6661341853035144)">
    <path d="M 374.984 28.853 L 369.134 35 354.001 35 C 345.206 35, 338.035 35.446, 336.878 36.065 C 335.135 36.998, 319.374 59.814, 313.263 70.250 L 311.067 74 296.593 74 C 288.038 74, 281.866 74.408, 281.501 74.998 C 279.665 77.970, 270.810 113.553, 269.058 125 C 268.427 129.125, 267.714 133.443, 267.475 134.595 C 267.105 136.378, 265.060 137.181, 253.770 139.979 C 225.864 146.894, 199.130 158.537, 173.956 174.736 C 167.057 179.175, 156.707 185.385, 150.956 188.536 C 123.177 203.755, 99.051 219.136, 84.332 231.010 C 80.030 234.481, 76.679 236.305, 73.254 237.039 C 67.432 238.288, 61.716 242.677, 59.014 247.973 C 57.953 250.052, 56.391 252.020, 55.543 252.345 C 53.517 253.123, 53.483 258.864, 55.500 259.638 C 56.418 259.991, 57 261.507, 57 263.548 C 57 265.382, 57.450 267.160, 58 267.500 C 58.550 267.840, 59 270.341, 59 273.059 C 59 277.663, 59.171 278, 61.500 278 C 63.750 278, 64 278.400, 64 282 C 64 285.778, 64.167 286, 67 286 C 69.889 286, 70 286.167, 70 290.500 C 70 294.796, 70.131 295, 72.893 295 C 76.020 295, 77 296.423, 77 300.965 C 77 302.926, 77.600 303.924, 79 304.290 C 80.885 304.783, 81 305.654, 81 319.406 L 81 334 65.500 334 L 50 334 50 331.500 C 50 327.052, 43.862 327.971, 40.315 332.951 L 37.500 336.903 29.500 337.201 L 21.500 337.500 21.785 347 C 22.032 355.210, 22.485 357.356, 25.122 362.799 C 32.113 377.231, 41.835 381.931, 71 384.981 C 102.443 388.269, 117.601 392.234, 138 402.503 C 174.180 420.717, 212.749 433.939, 250.333 441.011 C 259.225 442.685, 271 444.917, 276.500 445.973 C 285.421 447.685, 302.539 449.771, 322.307 451.557 L 329.113 452.171 334.761 458.336 C 350.819 475.864, 373.729 495.621, 384 500.799 C 385.925 501.769, 392.450 505.506, 398.500 509.102 C 418.156 520.787, 441.383 532.869, 446.500 534.071 C 456.099 536.326, 461.461 538.201, 472.301 543.092 C 499.230 555.242, 545.142 569.453, 573.500 574.416 C 584.500 576.341, 606.550 580.418, 622.500 583.476 C 672.278 593.018, 708.917 596.799, 738 595.394 L 756.500 594.500 756.500 591.544 C 756.500 588.901, 756.023 588.449, 752 587.280 C 743.690 584.863, 683.606 573.138, 673.578 571.975 C 648.556 569.074, 614.560 556.761, 574.500 536.090 C 535.484 515.957, 523.711 507.802, 500.250 484.660 L 484 468.630 484 454.334 C 484 440.314, 484.043 440.029, 486.250 439.571 C 520.789 432.396, 529.966 431, 542.577 431 L 555.633 431 560.677 438.250 C 563.451 442.238, 566.528 447.075, 567.514 449 C 570.447 454.725, 571.136 454.933, 587.234 454.968 L 601.968 455 610.234 461.371 C 621.386 469.966, 624.916 471.992, 628.750 471.996 L 632 472 632 466.431 L 632 460.862 647.750 461.431 C 678.960 462.557, 695.701 463.684, 707 465.418 C 720.844 467.543, 751.445 467.999, 760.771 466.219 C 771.991 464.078, 789.620 455.793, 802.779 446.476 C 807.285 443.286, 817.914 429.736, 821.827 422.194 C 829.110 408.156, 829.492 405.809, 829.153 377.250 L 828.853 352 842.954 352 L 857.056 352 867.580 357.038 C 914.014 379.268, 1000.350 403.512, 1082.717 417.452 C 1118.218 423.460, 1165.962 429.960, 1174.750 429.982 C 1181.806 430, 1182 429.934, 1182 427.520 C 1182 423.310, 1167.491 417.940, 1133.211 409.464 C 1114.029 404.722, 1097.596 399.043, 1082.500 391.939 C 1077 389.351, 1065.525 384.014, 1057 380.079 C 1037.573 371.113, 1021.597 362.299, 1010.260 354.295 C 992.253 341.582, 959.638 308.936, 948.173 292.149 C 937.700 276.813, 937.821 277.219, 938.184 258.660 L 938.500 242.500 942.238 234.672 C 957.578 202.544, 995.524 163.675, 1033.685 140.999 C 1039.633 137.465, 1049.450 131.249, 1055.500 127.186 C 1077.616 112.334, 1113.599 96.625, 1146.172 87.602 C 1164.513 82.522, 1166 81.795, 1166 77.914 L 1166 74.726 1159.750 75.248 C 1156.313 75.535, 1145.567 77.612, 1135.872 79.865 C 1126.177 82.118, 1113.603 84.658, 1107.931 85.510 C 1041.628 95.469, 914.881 144.357, 857.443 182.126 L 839.386 194 825.278 194 L 811.169 194 810.733 167.250 C 810.122 129.814, 808.013 123.337, 790.500 105.112 C 768.587 82.307, 750.042 72.551, 690 52.239 L 670.500 45.643 655.500 45.224 C 645.112 44.934, 636.976 45.297, 629.040 46.403 C 622.737 47.281, 611.375 48, 603.790 48 L 590 48 590 45.500 L 590 43 578.500 43 L 567 43 567 39.500 L 567 36 556.500 36 C 550.167 36, 546 35.603, 546 35 C 546 34.396, 541.748 33.999, 535.250 33.997 C 529.337 33.996, 516.085 33.700, 505.799 33.341 C 487.824 32.713, 487.086 32.606, 486.799 30.594 C 486.549 28.841, 485.930 28.559, 483 28.860 C 481.075 29.058, 465.438 29.407, 448.250 29.637 L 417 30.055 417 27.028 L 417 24 403.640 24 C 396.291 24, 388.154 23.709, 385.556 23.353 L 380.834 22.705 374.984 28.853" stroke="none" fill="black" fill-rule="evenodd"/>
  </g>
</svg>