<svg xmlns="http://www.w3.org/2000/svg" viewBox="0 0 800 303" width="800" height="303">
  <g transform="scale(0.6666666666666666, 0.6659340659340659)">
    <path d="M 602.127 28.250 C 594.656 34.510, 590.814 39.434, 581.871 54.207 C 572.995 68.870, 553 108.295, 553 111.132 C 553 112.121, 551.987 113.474, 550.750 114.140 C 547.055 116.128, 509.270 116.871, 407.500 116.956 C 262.307 117.077, 220.026 118.810, 173.961 126.530 C 131.799 133.597, 109.745 139.005, 86.700 147.931 C 81.090 150.103, 70.650 153.984, 63.500 156.554 C 50.489 161.232, 40.790 165.637, 35.889 169.095 C 33.667 170.664, 33.203 171.883, 32.768 177.301 C 32.405 181.822, 31.062 186.320, 28.129 192.834 L 24 202.003 24 215.435 L 24 228.867 21.256 229.184 C 15.983 229.792, 12.166 239.789, 10.885 256.346 C 9.258 277.373, 9.753 278.485, 22.167 281.683 L 29 283.443 29 292.562 C 29 311.941, 37.809 333.952, 55.989 360 C 71.496 382.218, 110 404.258, 110 390.915 C 110 386.065, 108.776 384.760, 96.024 376.017 C 83.314 367.302, 70.651 355.625, 62.742 345.326 L 58 339.152 58 325.076 L 58 311 72.438 311 C 81.529 311, 89.214 311.540, 93.188 312.457 C 107.196 315.691, 138.664 319.756, 167 321.991 C 174.425 322.576, 186.350 323.707, 193.500 324.503 C 211.944 326.556, 231.757 327.765, 268.500 329.080 C 299.347 330.184, 300.554 330.302, 302 332.353 C 327.202 368.101, 391.487 424, 407.395 424 C 414.233 424, 412.816 420.137, 397.096 395.919 C 389.449 384.139, 380.899 371.701, 378.096 368.279 L 373 362.058 373 348.123 L 373 334.189 426.750 333.582 C 456.313 333.248, 490.906 332.720, 503.625 332.407 L 526.749 331.839 528.763 334.670 C 529.871 336.226, 537.870 349.650, 546.538 364.500 C 570.393 405.367, 572.055 407.561, 585.969 416.537 C 603.770 428.020, 626.797 437.009, 638.347 436.985 C 646.547 436.967, 647.092 436.726, 649.482 432.064 C 655.720 419.896, 635.710 369.972, 619.397 357.005 L 615 353.509 615 339.316 L 615 325.123 619.250 324.564 C 621.587 324.257, 631.926 323.094, 642.225 321.979 C 652.524 320.865, 670.524 318.363, 682.225 316.419 C 713.752 311.181, 724.757 310, 742.038 310 C 757.224 310, 757.713 310.066, 759.905 312.399 C 766.355 319.264, 778.294 321.997, 801.886 322.008 L 819.500 322.016 824.286 328.018 C 826.918 331.319, 830.856 335.147, 833.036 336.523 C 835.217 337.899, 841.031 342.845, 845.956 347.513 L 854.912 356 860.481 356 C 868.219 356, 875.261 352.241, 899.038 335.420 C 926.916 315.698, 953.364 298.094, 961.646 293.749 L 968.792 290 983.919 290 L 999.045 290 1003.272 293.847 C 1010.378 300.313, 1048.126 322.270, 1062 328.006 C 1065.575 329.484, 1080.875 337.810, 1096 346.507 C 1143.355 373.739, 1150.785 377, 1165.478 377 L 1173.745 377 1177.873 372.522 C 1181.990 368.056, 1182 368.025, 1182 360.072 C 1182 338.591, 1173.658 325.176, 1134.750 284.084 L 1122 270.618 1122 256.415 L 1122 242.212 1146.306 217.856 C 1180.623 183.469, 1187.955 171.748, 1187.988 151.218 C 1188.010 137.996, 1185.312 135, 1173.382 135 C 1158.384 135, 1133.636 144.223, 1083.500 168.498 C 1073.600 173.291, 1058.075 180.570, 1049 184.673 C 1030.007 193.261, 1022.268 197.405, 1012.593 204.170 L 1005.686 209 991.343 209 L 977 209 977 205.934 C 977 201.291, 975.484 199.350, 970.311 197.375 C 963.196 194.657, 946.354 194.894, 939 197.815 C 934.251 199.701, 931.555 199.999, 919.250 199.999 L 905 200 905 190.763 L 905 181.525 898.208 175.013 C 885.091 162.434, 842.242 128.689, 825.460 117.720 C 807.558 106.019, 735.141 68.190, 706.500 55.579 C 673.490 41.043, 638.248 28.073, 624.865 25.534 C 611.162 22.934, 608.023 23.309, 602.127 28.250" stroke="none" fill="black" fill-rule="evenodd"/>
  </g>
</svg>