<svg xmlns="http://www.w3.org/2000/svg" viewBox="0 0 800 249" width="800" height="249">
  <g transform="scale(0.6666666666666666, 0.6657754010695187)">
    <path d="M 593.420 69.943 C 581.445 70.453, 580.009 70.722, 576.420 73.130 C 569.565 77.728, 557.252 88.785, 552.125 94.945 C 547.076 101.013, 531.658 123.532, 530.801 126.091 C 530.398 127.294, 512.868 127.471, 410.915 127.303 C 290.372 127.104, 249.115 126.076, 197.105 121.977 C 160.298 119.076, 106.723 121.682, 83 127.528 C 77.775 128.815, 68.388 130.824, 62.140 131.993 C 50.368 134.194, 36.890 138.557, 31.250 141.992 C 28.146 143.882, 28 144.248, 28 150.171 C 28 155.224, 27.584 156.814, 25.750 158.767 C 21.673 163.107, 22.592 172.299, 28.373 185.016 C 30.994 190.782, 33.747 196.902, 34.489 198.616 C 36.134 202.410, 48.998 217.965, 55.151 223.599 C 69.052 236.328, 93.948 249.972, 118 258.044 C 160.560 272.326, 173.429 276.148, 182.220 277.115 C 187.324 277.676, 193.300 278.569, 195.500 279.100 C 197.700 279.630, 209.400 280.458, 221.500 280.940 C 237.277 281.568, 247.601 282.534, 258 284.356 C 274.321 287.215, 288.833 288.438, 326.500 290.127 C 348.326 291.106, 352.682 291.551, 353.632 292.897 C 354.255 293.779, 359.430 300.365, 365.132 307.533 C 387.152 335.213, 389.212 337.002, 399.054 336.996 L 405.500 336.992 411.065 342.996 C 418.924 351.476, 424 351.446, 424 342.918 C 424 340.048, 424.090 340, 429.500 340 L 435 340 435.031 335.750 C 435.103 325.773, 436.945 306.655, 437.930 305.670 C 438.519 305.081, 439 303.142, 439 301.359 C 439 299.576, 439.450 297.840, 440 297.500 C 440.550 297.160, 441 295.373, 441 293.529 C 441 290.422, 441.275 290.134, 444.750 289.607 C 455.041 288.047, 567.564 284.044, 602.038 284.012 L 614.575 284 619.500 289 C 622.209 291.750, 625.240 294, 626.237 294 C 627.234 294, 628.449 295.012, 628.938 296.250 C 630.987 301.442, 650.066 317.720, 658.490 321.465 C 661.246 322.690, 668.598 327.128, 674.829 331.327 C 682.695 336.628, 688.239 339.582, 692.963 340.989 C 696.706 342.104, 700.325 343.687, 701.006 344.508 C 702.407 346.196, 708 346.555, 708 344.957 C 708 344.384, 710.025 341.749, 712.500 339.103 C 716.627 334.691, 717 333.866, 717 329.146 C 717 324.324, 717.157 324, 719.500 324 C 721.286 324, 722 323.459, 722 322.108 C 722 320.952, 722.922 319.985, 724.372 319.622 C 725.676 319.294, 728.397 317.108, 730.417 314.763 C 734.650 309.852, 733.806 310.695, 741.361 303.828 C 745.235 300.305, 748.624 298.161, 751.361 297.500 C 754.470 296.749, 755.578 295.955, 755.811 294.311 C 756.006 292.948, 756.948 292.006, 758.311 291.811 C 759.828 291.596, 760.594 290.693, 760.804 288.874 C 761.064 286.632, 761.699 286.170, 765.153 285.706 C 772.573 284.711, 774 282.249, 774 270.441 L 774 260.230 779.250 259.607 C 782.138 259.264, 798.675 257.852, 816 256.470 C 833.325 255.087, 853.507 253.291, 860.848 252.478 C 868.190 251.665, 887.315 250.104, 903.348 249.010 C 919.382 247.916, 941.725 246.287, 953 245.391 C 975.049 243.639, 1002.771 243.915, 1009 245.948 C 1010.925 246.577, 1030.950 251.779, 1053.500 257.509 C 1105.071 270.614, 1109.496 271.874, 1120.500 276.600 L 1129.500 280.466 1147.353 280.815 C 1166.311 281.187, 1170 280.816, 1170 278.538 C 1170 277.579, 1171.384 277.015, 1174.250 276.807 C 1178.101 276.529, 1178.531 276.230, 1178.828 273.628 C 1179.009 272.049, 1178.671 270.271, 1178.078 269.678 C 1177.485 269.085, 1177 266.890, 1177 264.800 C 1177 261.124, 1176.886 261, 1173.500 261 C 1170.019 261, 1170 260.976, 1170 256.500 C 1170 252.167, 1169.889 252, 1167 252 C 1165.102 252, 1164 251.488, 1164 250.607 C 1164 249.841, 1163.325 248.955, 1162.500 248.638 C 1161.511 248.259, 1161 246.694, 1161 244.045 C 1161 240.380, 1160.685 239.895, 1157.413 238.528 C 1155.441 237.704, 1151.567 234.998, 1148.805 232.515 C 1146.043 230.032, 1143.382 228, 1142.892 228 C 1142.401 228, 1142 221.270, 1142 213.045 L 1142 198.091 1145.250 197.565 C 1147.037 197.276, 1149.625 196.918, 1151 196.770 C 1153.108 196.542, 1153.549 195.912, 1153.810 192.750 C 1154.013 190.297, 1154.619 189, 1155.560 189 C 1156.479 189, 1157 187.960, 1157 186.125 C 1157 183.780, 1157.513 183.147, 1159.784 182.693 C 1162.292 182.192, 1172.406 175.074, 1174.235 172.525 C 1174.639 171.961, 1174.976 169.588, 1174.985 167.250 C 1174.996 164.146, 1175.404 163, 1176.500 163 C 1178.088 163, 1178.541 159.399, 1177.214 157.313 C 1176.249 155.794, 1171.552 154, 1168.542 154 C 1167.262 154, 1165.955 153.325, 1165.638 152.500 C 1165.163 151.261, 1162.492 150.998, 1150.281 150.991 C 1130.068 150.979, 1125.190 150.333, 1124.802 147.617 C 1124.385 144.696, 1121.094 144.447, 1114.670 146.850 C 1111.744 147.945, 1099.034 151.153, 1086.425 153.979 C 1073.816 156.805, 1060.050 159.991, 1055.833 161.059 C 1045.771 163.607, 1020 163.924, 1020 161.500 C 1020 159.085, 1015.468 159.689, 1004.067 163.626 C 978.477 172.462, 918.551 172.238, 871.947 163.133 C 863.451 161.473, 852.450 159.620, 847.500 159.015 C 832.616 157.196, 834 158.327, 834 147.981 C 834 139.134, 833.964 139, 831.567 139 C 830.013 139, 828.906 138.278, 828.500 137 C 828.055 135.599, 826.987 135, 824.933 135 C 822.559 135, 821.999 134.571, 821.996 132.750 C 821.994 131.512, 821.094 129.027, 819.996 127.226 C 818.898 125.425, 817.995 123.400, 817.989 122.726 C 817.983 122.052, 815.963 118.125, 813.500 114 C 811.037 109.875, 809.017 105.768, 809.011 104.872 C 809.005 103.977, 808.325 102.685, 807.500 102 C 806.574 101.232, 806 99.036, 806 96.263 C 806 91.307, 801.655 82, 799.341 82 C 798.603 82, 798 81.155, 798 80.122 C 798 76.795, 795.331 75.479, 791.173 76.756 C 774.114 81.993, 762.441 87.513, 752.391 95.096 C 749.032 97.632, 744.874 100.197, 743.153 100.797 C 737.249 102.855, 714.585 119.931, 711.492 124.653 C 710.646 125.944, 709.392 127, 708.705 127 C 708.018 127, 705.891 128.284, 703.978 129.854 C 695.739 136.616, 697.770 136.384, 653.310 135.649 C 631.206 135.283, 612.419 134.714, 611.560 134.385 C 610.229 133.874, 610 131.229, 610 116.379 L 610 98.972 614.500 93.447 C 619.716 87.043, 620.490 83, 616.500 83 C 614.071 83, 614 82.800, 614 76 L 614 69 610.250 69.193 C 608.188 69.299, 600.614 69.636, 593.420 69.943" stroke="none" fill="black" fill-rule="evenodd"/>
  </g>
</svg>