<svg xmlns="http://www.w3.org/2000/svg" viewBox="0 0 800 257" width="800" height="257">
  <g transform="scale(0.6666666666666666, 0.6658031088082902)">
    <path d="M 482.544 44.500 L 478.756 50 469.946 50 C 462.167 50, 461.064 50.223, 460.532 51.900 C 460.200 52.945, 458.158 56.541, 455.993 59.890 C 453.828 63.239, 448.146 73.071, 443.366 81.739 C 438.586 90.408, 433.623 99.099, 432.337 101.054 C 431.052 103.008, 430 105.496, 430 106.581 C 430 107.667, 429.214 109.668, 428.254 111.027 C 427.294 112.387, 424.867 117.550, 422.862 122.500 C 418.412 133.486, 421.912 132.548, 382 133.454 C 365.775 133.822, 346.425 134.526, 339 135.019 C 302.224 137.459, 281.762 139.197, 274.500 140.497 C 270.100 141.285, 261.550 142.649, 255.500 143.528 C 242.088 145.477, 201.648 153.269, 190.036 156.143 C 180.468 158.510, 175 160.828, 175 162.516 C 175 164.104, 171.476 165.686, 165.091 166.964 C 162.116 167.560, 157.616 168.983, 155.091 170.128 C 152.566 171.272, 146.900 173.450, 142.500 174.967 C 138.100 176.484, 129.031 180.231, 122.346 183.292 C 105.372 191.065, 82.912 198.617, 68.073 201.542 C 50.730 204.959, 40.912 209.437, 32.009 217.991 C 29.626 220.281, 26.858 222, 25.553 222 C 20.278 222, 14.051 230.651, 14.037 238 C 14.026 243.878, 14.578 244.146, 30.806 246.137 C 39.059 247.149, 50.467 248.898, 56.156 250.023 C 61.845 251.148, 73.191 252.510, 81.369 253.049 C 89.547 253.588, 96.590 254.247, 97.021 254.513 C 97.452 254.780, 104.711 255.436, 113.153 255.971 C 125.159 256.733, 130.241 257.518, 136.500 259.577 C 143.225 261.790, 147.210 262.335, 161.500 262.997 C 170.850 263.430, 187.050 264.945, 197.500 266.364 C 207.950 267.783, 219.762 268.957, 223.750 268.972 C 229.568 268.994, 231 269.301, 231 270.525 C 231 273.906, 246.769 276.694, 273 277.950 C 293.189 278.917, 295 279.264, 295 282.164 C 295 285.154, 301.326 299.844, 310.002 317 C 314.313 325.525, 318.095 333.676, 318.405 335.113 C 319.131 338.476, 325.654 348.167, 331.285 354.250 C 335.207 358.487, 336.143 359, 339.947 359 C 343.037 359, 345.030 359.689, 347.182 361.500 C 349.610 363.542, 351.223 364, 355.996 364 C 359.209 364, 363.112 364.625, 364.669 365.389 C 373.179 369.564, 376.865 370.023, 390.250 368.572 C 396.875 367.854, 397 367.787, 397 364.920 L 397 362 404.500 362 L 412 362 412 354.560 L 412 347.121 415.750 346.810 L 419.500 346.500 419.785 336.291 L 420.069 326.082 416.457 322.084 C 414.470 319.885, 411.979 317.811, 410.922 317.475 C 409.142 316.910, 409 315.790, 409 302.273 L 409 287.681 442.250 288.440 C 460.538 288.857, 504.300 289.495, 539.500 289.858 C 587.598 290.353, 604.043 290.825, 605.684 291.758 C 606.886 292.441, 608.750 293, 609.827 293 C 612.063 293, 613 294.832, 613 299.201 C 613 303.659, 625.655 323.570, 634.323 332.750 C 637.229 335.827, 637.772 336, 644.540 336 L 651.688 336 656.500 342 L 661.312 348 702.906 348.011 C 725.783 348.017, 746.188 348.301, 748.250 348.642 C 751.527 349.183, 752 349.012, 752 347.287 C 752 345.016, 766.581 344, 799.159 344 C 815.333 344, 816 343.921, 816 342 C 816 340.149, 816.667 340, 824.941 340 C 829.859 340, 834.160 339.550, 834.500 339 C 834.840 338.450, 839.141 338, 844.059 338 C 852.333 338, 853 337.851, 853 336 C 853 334.157, 853.667 334, 861.500 334 C 869.900 334, 870 333.971, 870 331.500 L 870 329 882 329 C 892 329, 894 328.750, 894 327.500 C 894 326.278, 895.667 326, 903 326 C 910.333 326, 912 325.722, 912 324.500 C 912 323.284, 913.611 323, 920.500 323 C 928.900 323, 929 322.971, 929 320.500 C 929 318.121, 929.280 318, 934.801 318 C 947.932 318, 949.473 313.417, 940.033 302.439 L 934.066 295.500 934.033 281.250 L 934 267 948.935 267 C 966.311 267, 974.497 268.427, 986.949 273.627 C 991.652 275.591, 999.325 278.448, 1004 279.977 C 1008.675 281.505, 1015.744 284.163, 1019.708 285.883 C 1031.627 291.055, 1054.856 298.916, 1061.787 300.123 C 1065.362 300.746, 1071.259 302.608, 1074.893 304.261 C 1083.719 308.276, 1105.756 317, 1107.072 317 C 1107.649 317, 1113.916 319.475, 1121 322.500 C 1133.760 327.949, 1133.974 328, 1143.940 328 C 1152.037 328, 1154 327.719, 1154 326.557 C 1154 325.575, 1155.356 325.017, 1158.250 324.807 C 1162.053 324.532, 1162.533 324.211, 1162.816 321.750 C 1163.040 319.807, 1163.700 319, 1165.066 319 C 1166.712 319, 1167 318.278, 1167 314.158 C 1167 309.408, 1167.073 309.295, 1170.847 308.164 L 1174.693 307.012 1175.317 295.367 C 1175.765 287.017, 1176.374 283.244, 1177.471 282.032 C 1178.312 281.103, 1179 279.230, 1179 277.871 C 1179 276.512, 1179.410 274.973, 1179.912 274.450 C 1180.755 273.572, 1181.091 271.230, 1182.559 256 C 1182.851 252.975, 1183.559 249.555, 1184.133 248.400 C 1186.524 243.591, 1183.765 202.342, 1180.744 197.732 C 1179.628 196.029, 1179 193.121, 1179 189.657 C 1179 184.584, 1178.811 184.164, 1176 183 C 1174.172 182.243, 1173 181.023, 1173 179.879 C 1173 178.845, 1172.550 178, 1172 178 C 1171.450 178, 1171 176.290, 1171 174.200 C 1171 170.059, 1169.605 168, 1166.800 168 C 1165.810 168, 1165 167.334, 1165 166.519 C 1165 165.705, 1163.875 164.756, 1162.500 164.411 C 1160.575 163.928, 1160 163.136, 1160 160.974 C 1160 158.220, 1159.866 158.154, 1153.250 157.675 C 1149.537 157.406, 1145.150 156.887, 1143.500 156.522 C 1140.559 155.872, 1124.791 160.289, 1108 166.466 C 1095.520 171.058, 1047.431 184.024, 1039 185.070 C 1022.835 187.076, 1010.431 189.982, 993.500 195.729 L 976.500 201.500 943.059 201.325 C 924.666 201.229, 908.129 200.871, 906.309 200.530 L 903 199.909 903 185.658 L 903 171.406 907 167.500 C 913.482 161.171, 912.487 158.436, 902.445 154.981 C 899.234 153.876, 895.683 152.370, 894.553 151.633 C 893.424 150.896, 888.675 149.967, 884 149.568 C 879.286 149.166, 873.519 147.973, 871.051 146.890 C 868.604 145.815, 863.525 144.500, 859.765 143.967 C 856.005 143.433, 851.315 142.323, 849.342 141.499 C 847.370 140.674, 844.556 140, 843.089 140 C 841.623 140, 838.658 139.100, 836.500 138 C 834.342 136.900, 830.907 136, 828.865 136 C 826.433 136, 824.179 135.188, 822.327 133.644 C 820.316 131.968, 817.624 131.082, 813 130.573 C 809.425 130.179, 804.475 128.941, 802 127.821 C 799.444 126.665, 794.475 125.588, 790.500 125.328 C 786.650 125.076, 781.925 124.257, 780 123.508 C 778.075 122.758, 773.931 121.886, 770.792 121.569 C 766.655 121.151, 764.439 120.348, 762.743 118.652 C 761.228 117.138, 758.653 116.073, 755.451 115.636 C 752.491 115.233, 748.730 113.763, 746.100 111.981 C 743.679 110.341, 740.730 109, 739.545 109 C 738.361 109, 735.167 107.589, 732.448 105.865 C 728.611 103.431, 725.716 102.518, 719.503 101.780 C 709.411 100.581, 706.594 99.304, 706.184 95.743 C 705.873 93.053, 705.735 93, 699.089 93 C 693.470 93, 691.984 92.640, 690.407 90.898 C 689.361 89.741, 687.154 88.103, 685.502 87.257 C 683.851 86.411, 681.273 84.695, 679.774 83.444 C 678.275 82.193, 675.734 80.881, 674.128 80.528 C 672.522 80.175, 670.410 79.005, 669.435 77.928 C 668.460 76.851, 665.939 75.694, 663.831 75.357 C 660.421 74.812, 660 74.429, 660 71.872 L 660 69 652.700 69 C 644.461 69, 643 68.142, 643 63.300 C 643 60.328, 642.713 60, 640.112 60 C 637.155 60, 626.755 73.079, 607.114 101.500 C 603.693 106.450, 597.993 114.675, 594.447 119.779 C 588.813 127.887, 588 129.633, 588 133.624 C 588 136.144, 587.231 139.494, 586.284 141.096 L 584.569 144 570.284 144 L 556 144 555.868 140.250 C 555.795 138.188, 555.457 129.525, 555.118 121 L 554.500 105.500 545.668 105.210 C 533.133 104.798, 532.075 103.521, 532.032 88.750 L 532 78 526.500 78 L 521 78 521 63 L 521 48 506.500 48 L 492 48 492 43.500 C 492 39.225, 491.858 39, 489.166 39 C 486.857 39, 485.631 40.018, 482.544 44.500" stroke="none" fill="black" fill-rule="evenodd"/>
  </g>
</svg>