<svg xmlns="http://www.w3.org/2000/svg" viewBox="0 0 800 282" width="800" height="282">
  <g transform="scale(0.6666666666666666, 0.6666666666666666)">
    <path d="M 410.498 55.925 C 403.434 56.376, 400.831 56.975, 398.408 58.704 C 396.710 59.916, 392.885 61.828, 389.910 62.952 C 382.865 65.613, 372.658 73.361, 364.678 82.104 C 359.017 88.307, 357.419 89.421, 350.402 92.055 C 339.234 96.248, 337.119 96.728, 322.209 98.451 C 314.147 99.383, 307.237 100.753, 304.645 101.934 C 302.296 103.004, 295.186 104.560, 288.846 105.392 C 282.506 106.223, 275.036 107.804, 272.245 108.904 C 269.454 110.004, 263.195 111.645, 258.335 112.552 C 253.476 113.459, 246.843 115.316, 243.596 116.678 C 240.349 118.040, 235.174 119.565, 232.096 120.066 C 229.018 120.566, 224.250 122.151, 221.500 123.586 C 218.750 125.022, 213.838 126.578, 210.585 127.046 C 207.332 127.513, 201.257 129.239, 197.085 130.883 C 192.913 132.526, 187.475 134.545, 185 135.370 C 168.088 141.007, 159.592 144.578, 151.615 149.403 C 146.298 152.619, 140.316 155.384, 137.259 156.039 C 133.813 156.777, 131.366 157.990, 130.115 159.581 C 128.225 161.983, 128.085 162, 109.793 162 L 91.374 162 88.500 159 C 85.029 155.377, 79.695 154.834, 78.035 157.934 C 77.466 158.998, 77 164.912, 77 171.076 L 77 182.284 72.500 187.552 C 70.025 190.449, 68 193.310, 68 193.909 C 68 194.509, 66.750 195, 65.223 195 C 63.695 195, 61.406 195.728, 60.135 196.618 C 58.377 197.850, 54.066 198.410, 42.061 198.967 C 24.557 199.780, 24 199.933, 24 203.937 C 24 207.258, 25.536 208.757, 29.817 209.613 L 32.944 210.239 33.222 223.369 L 33.500 236.500 40.750 236.794 L 48 237.088 48 254.479 C 48 264.044, 48.439 273.024, 48.975 274.435 L 49.950 277 62.975 277 L 76 277 76 279.365 C 76 282.600, 79.662 287, 82.354 287 C 85.499 287, 109 258.179, 109 254.322 C 109 252.018, 142.687 252.439, 143.421 254.752 C 144.349 257.674, 148.104 259.274, 155.226 259.784 C 161.449 260.229, 162 260.453, 162 262.527 C 162 265.278, 163.390 265.916, 173 267.571 C 177.125 268.281, 184.192 269.998, 188.705 271.386 C 193.218 272.773, 200.418 274.210, 204.705 274.578 C 210.823 275.104, 213.425 275.849, 216.800 278.043 C 220.169 280.234, 222.765 280.979, 228.800 281.488 C 241.120 282.528, 247.220 283.858, 249.500 286 C 250.671 287.100, 252.145 288, 252.776 288 C 253.407 288, 258.197 292.017, 263.421 296.926 C 283.124 315.442, 315.668 335.613, 331.978 339.418 C 335.258 340.183, 339.085 341.708, 340.482 342.808 C 341.880 343.907, 345.380 345.361, 348.262 346.040 C 351.143 346.719, 355.667 348.360, 358.315 349.687 C 361.949 351.508, 364.403 352.026, 368.315 351.800 C 373.497 351.500, 373.500 351.498, 373.805 347.847 C 374.254 342.460, 369.596 337.498, 362.144 335.422 C 359.040 334.557, 355.038 333.399, 353.250 332.847 L 350 331.845 350 317.341 L 350 302.837 437.250 303.443 C 542.089 304.171, 545 304.305, 545 308.415 C 545 313.802, 567.618 329.512, 578.772 331.872 C 581.671 332.486, 586.396 334.228, 589.272 335.744 L 594.500 338.500 623.500 338.354 C 650 338.221, 653.060 338.027, 659 336.107 C 665.465 334.017, 671.896 333.385, 710.653 331.029 C 722.578 330.304, 728.120 329.529, 731.827 328.068 C 734.880 326.865, 742.633 325.482, 751.608 324.539 C 760.642 323.590, 767.256 322.407, 768.656 321.490 C 771.841 319.403, 778.346 318.238, 793.714 317.002 C 802.450 316.300, 809.407 315.131, 814.243 313.552 C 818.266 312.239, 824.919 310.856, 829.029 310.479 C 838.911 309.571, 844.641 308.316, 849.500 305.995 C 851.700 304.944, 857.775 303.577, 863 302.957 C 868.225 302.336, 874.502 300.953, 876.949 299.882 C 881.626 297.837, 888.880 296.613, 903 295.489 C 907.675 295.117, 914.650 293.752, 918.500 292.457 C 922.350 291.162, 929.775 289.380, 935 288.497 C 940.225 287.614, 946.227 286.003, 948.337 284.917 C 950.447 283.830, 954.497 282.453, 957.337 281.855 C 960.177 281.257, 965.110 279.680, 968.300 278.350 C 971.490 277.020, 978.635 275.254, 984.176 274.426 C 989.718 273.597, 996.783 271.855, 999.876 270.554 C 1002.969 269.254, 1008.099 267.710, 1011.276 267.124 C 1014.453 266.538, 1019.847 264.695, 1023.261 263.029 C 1026.676 261.363, 1030.751 260, 1032.317 260 C 1033.883 260, 1038.165 258.689, 1041.832 257.086 C 1045.500 255.483, 1051.125 253.692, 1054.334 253.105 C 1057.542 252.517, 1062.717 250.914, 1065.834 249.542 C 1068.950 248.170, 1074.721 246.395, 1078.657 245.597 C 1082.594 244.799, 1088.262 242.988, 1091.254 241.573 C 1094.245 240.158, 1097.775 238.995, 1099.096 238.989 C 1100.418 238.983, 1105.325 237.188, 1110 235 C 1114.675 232.812, 1119.077 231.017, 1119.783 231.011 C 1120.489 231.005, 1123.294 229.871, 1126.016 228.492 C 1128.739 227.112, 1133.336 225.357, 1136.233 224.591 C 1139.130 223.825, 1144.425 221.804, 1148 220.100 C 1151.575 218.396, 1155.034 217.001, 1155.687 217.001 C 1157.059 217, 1170.139 208.254, 1171.235 206.605 C 1174.238 202.086, 1171.136 196.036, 1164 192.499 C 1162.075 191.545, 1159.107 189.722, 1157.405 188.450 C 1155.703 187.177, 1151.519 185.412, 1148.107 184.528 C 1144.694 183.643, 1139.281 181.588, 1136.077 179.960 C 1132.874 178.332, 1129.673 177, 1128.964 177 C 1128.256 177, 1125.836 175.924, 1123.588 174.609 C 1121.340 173.294, 1117.250 171.538, 1114.500 170.707 C 1109.256 169.123, 1100.264 165.226, 1088.500 159.441 C 1084.650 157.548, 1080.450 155.999, 1079.167 155.999 C 1077.883 156, 1073.448 154.645, 1069.311 152.988 C 1065.174 151.331, 1058.636 149.259, 1054.783 148.382 C 1050.930 147.506, 1045.872 145.946, 1043.543 144.916 C 1041.214 143.886, 1036.250 142.334, 1032.513 141.467 C 1028.776 140.600, 1023.636 138.836, 1021.092 137.547 C 1018.547 136.257, 1013.773 134.881, 1010.483 134.488 C 1007.192 134.095, 1001.479 132.466, 997.787 130.867 C 994.058 129.252, 987.712 127.534, 983.511 127.001 C 979.351 126.474, 973.020 124.872, 969.443 123.440 C 965.866 122.009, 959.157 120.226, 954.533 119.478 C 949.910 118.729, 944.861 117.479, 943.313 116.699 C 939.359 114.706, 936.469 114.113, 923.055 112.546 C 915.690 111.686, 909.489 110.362, 906.544 109.020 C 903.751 107.748, 897.069 106.261, 890.164 105.376 C 883.191 104.482, 876.962 103.091, 874.676 101.918 C 872.076 100.583, 866.320 99.464, 856.676 98.419 C 847.354 97.408, 841.249 96.240, 838.847 95.008 C 834.182 92.614, 822.648 91.012, 809.678 90.956 C 802.973 90.927, 798.135 90.384, 795.500 89.364 C 787.713 86.349, 782.358 85.231, 770 84.041 C 762.009 83.271, 754.975 81.952, 750.500 80.383 C 744.145 78.155, 740.729 77.802, 713.408 76.544 C 690.187 75.475, 682.424 74.784, 679.408 73.519 C 674.785 71.578, 656.091 70.108, 634.500 69.986 C 609.700 69.847, 593.224 68.502, 587.280 66.134 C 583.016 64.434, 578.349 63.868, 561.780 63.042 C 530.462 61.480, 526.920 61.086, 523 58.729 C 519.772 56.788, 517.440 56.568, 493 55.901 C 462.658 55.072, 423.689 55.084, 410.498 55.925" stroke="none" fill="black" fill-rule="evenodd"/>
  </g>
</svg>