<svg xmlns="http://www.w3.org/2000/svg" viewBox="0 0 800 346" width="800" height="346">
  <g transform="scale(0.6666666666666666, 0.6666666666666666)">
    <path d="M 726.184 51.727 C 726.428 53.832, 729.462 56.936, 739.500 65.348 C 779.571 98.930, 789.698 107.786, 804.597 122.274 L 821 138.224 821 154.612 C 821 170.936, 820.991 171, 818.750 171.015 C 814.153 171.047, 811 175.607, 811 182.223 C 811 186.305, 810.714 187, 809.035 187 C 805.757 187, 805 190.270, 805 204.434 C 805 217.333, 804.902 218, 803 218 C 801.533 218, 801 218.667, 801 220.500 C 801 221.875, 800.550 223, 800 223 C 799.392 223, 799 227.485, 799 234.455 L 799 245.909 795.750 246.441 C 787.619 247.771, 737.043 251.361, 696.034 253.519 C 679.828 254.372, 665.653 255.277, 664.534 255.530 C 663.415 255.783, 644.050 256.891, 621.500 257.992 C 546.407 261.658, 500.342 264.341, 475.500 266.495 C 416.807 271.584, 319.711 277, 287.166 277 L 267.748 277 258.624 273.367 C 253.606 271.369, 246.125 268.058, 242 266.009 C 224.919 257.528, 211.398 254.389, 200.637 256.408 C 197.307 257.033, 197 257.375, 197 260.469 C 197 262.327, 196.473 266.132, 195.828 268.924 L 194.657 274 179.927 274 L 165.198 274 159.349 269.644 C 150.046 262.716, 135.531 254.611, 110.646 242.447 C 82.406 228.643, 74.446 225.799, 65.192 226.206 L 58.500 226.500 58.192 231.328 C 57.756 238.160, 61.896 246.412, 71.323 257.500 C 75.532 262.450, 80.556 269.491, 82.488 273.146 L 86 279.792 86 293.857 L 86 307.921 81.369 316.373 C 78.822 321.021, 73.618 328.352, 69.805 332.662 C 59.465 344.350, 57.837 347.508, 58.200 355.173 L 58.500 361.500 61.903 361.825 C 64.176 362.042, 66.239 361.460, 68.113 360.075 C 69.777 358.845, 72.462 357.994, 74.710 357.985 C 78.972 357.967, 80.355 357.288, 81.292 354.750 C 81.807 353.354, 83.131 353, 87.846 353 C 91.776 353, 94.156 352.516, 94.953 351.556 C 95.612 350.762, 99.155 349.125, 102.826 347.919 C 112.084 344.875, 116.411 342.547, 118.370 339.558 C 119.419 337.956, 120.970 337, 122.517 337 C 125.145 337, 140.854 330.199, 150 325.102 C 155.409 322.087, 155.735 322.036, 169.687 322.018 L 183.873 322 184.187 325.118 C 184.448 327.721, 185.161 328.490, 188.500 329.773 C 190.700 330.618, 195.559 333.377, 199.297 335.904 C 203.035 338.432, 208.024 341.625, 210.383 343 C 212.742 344.375, 216.084 346.699, 217.811 348.164 C 219.811 349.862, 223.552 351.420, 228.128 352.461 C 237.952 354.695, 239 355.377, 239 359.535 L 239 363 244.845 363 C 249.420 363, 251.083 363.435, 252.500 365 C 253.495 366.100, 255.304 367, 256.518 367 C 259.734 367, 267.644 358.062, 271.023 350.610 C 272.593 347.146, 275.480 342.214, 277.439 339.648 C 279.398 337.082, 281 333.862, 281 332.491 L 281 330 295.750 330.003 C 308.538 330.005, 365.597 333.525, 432.500 338.439 C 455.490 340.128, 489.511 341.543, 543 343.038 C 563.625 343.614, 587.250 344.510, 595.500 345.028 C 603.750 345.547, 621.638 346.507, 635.250 347.162 L 660 348.353 659.991 362.427 L 659.982 376.500 641.839 392.500 C 631.861 401.300, 619.875 411.981, 615.204 416.236 C 610.532 420.491, 604.413 425.284, 601.605 426.887 C 594.895 430.717, 547.988 464.638, 541.250 470.533 C 536.583 474.615, 536 475.562, 536 479.063 L 536 483 542 483 C 546.816 483, 548 483.314, 548 484.589 C 548 486.442, 556.132 486.136, 564 483.987 C 566.475 483.311, 578.625 482.368, 591 481.892 C 632.235 480.306, 633.135 480.214, 636.214 477.280 C 637.707 475.858, 642.495 469.476, 646.855 463.097 C 651.214 456.719, 655.730 450.643, 656.890 449.595 C 658.051 448.547, 659 446.889, 659 445.911 C 659 444.932, 660.184 441.402, 661.631 438.066 C 663.912 432.806, 664.618 432, 666.944 432 C 670.762 432, 680 421.223, 680 416.768 C 680 415.796, 680.644 415, 681.432 415 C 683.611 415, 687 409.580, 687 406.096 C 687 404.016, 687.490 403, 688.494 403 C 690.895 403, 695.556 395.665, 704.183 378.312 C 708.621 369.385, 713.095 361.319, 714.126 360.386 C 715.157 359.453, 716 357.860, 716 356.845 C 716 355.161, 716.981 355, 727.250 355.001 C 739.081 355.002, 794.015 358.966, 817 361.477 C 865.393 366.764, 932.175 369.428, 1017.500 369.477 C 1064.660 369.503, 1064.323 369.545, 1092.500 360.271 C 1109.019 354.834, 1109.882 354.662, 1122.996 354.199 L 1136.492 353.722 1142.496 348.238 C 1145.798 345.222, 1149.954 342.132, 1151.730 341.372 C 1158.093 338.649, 1158.521 336.812, 1156.539 320.747 C 1154.107 301.035, 1154.087 301, 1145.318 301 L 1140.800 301 1141.141 282.872 L 1141.483 264.743 1133.991 259.799 C 1129.871 257.080, 1124.025 252.715, 1121 250.099 C 1111.720 242.075, 1103.517 237.305, 1097.034 236.163 C 1089.704 234.872, 1080.857 231.387, 1065.682 223.814 C 1033.916 207.961, 1015.096 206.911, 983.597 219.231 C 961.970 227.690, 959.392 228.193, 934.886 228.724 C 908.305 229.299, 909.930 229.945, 898.849 214.409 C 894.297 208.026, 887.743 199.488, 884.286 195.436 C 880.829 191.384, 878 187.384, 878 186.546 C 878 180.712, 811.907 112.871, 780 85.954 C 747.471 58.512, 734.409 49, 729.256 49 C 726.155 49, 725.894 49.232, 726.184 51.727" stroke="none" fill="black" fill-rule="evenodd"/>
  </g>
</svg>