<svg xmlns="http://www.w3.org/2000/svg" viewBox="0 0 800 262" width="800" height="262">
  <g transform="scale(0.6666666666666666, 0.6666666666666666)">
    <path d="M 860 22.079 C 850.375 22.568, 834.175 23.382, 824 23.889 C 813.821 24.397, 804.151 25.368, 802.500 26.049 C 800.478 26.884, 789.231 27.521, 768 28.003 C 744.817 28.529, 734.256 29.166, 728 30.414 C 723.325 31.346, 710.500 32.532, 699.500 33.050 C 663.981 34.719, 629.120 38.087, 623.635 40.379 C 621.729 41.176, 616.643 42.338, 612.334 42.963 C 582.869 47.233, 556.322 53.155, 549.785 56.916 C 547.978 57.956, 544.982 59.123, 543.127 59.510 C 541.271 59.897, 538.346 61.034, 536.627 62.038 C 528.454 66.806, 518.368 68.162, 447.500 74.018 C 427.700 75.655, 404.750 77.651, 396.500 78.455 C 376.049 80.448, 269.764 81.544, 233 80.141 C 205.230 79.081, 168.032 75.443, 153.266 72.341 C 143.040 70.194, 71.180 69.159, 58.726 70.980 C 31.785 74.919, 7 88.146, 7 98.584 C 7 102.086, 9.826 105, 13.223 105 C 14.707 105, 15 105.893, 15 110.427 C 15 115.101, 15.366 116.143, 17.638 117.930 C 28.849 126.748, 88.248 131.932, 134.162 128.098 C 165.733 125.463, 199.267 127.376, 237.500 133.994 C 246.850 135.612, 261.700 137.656, 270.500 138.535 C 279.300 139.415, 288.075 140.533, 290 141.021 C 299.241 143.362, 387.032 150.779, 444 154.032 C 463.525 155.147, 485.350 156.523, 492.500 157.090 C 529.370 160.013, 639.681 159.221, 714.500 155.496 C 740.504 154.201, 760.860 153.612, 856.500 151.385 C 889.495 150.617, 947.668 153.410, 972.777 156.967 C 976.475 157.491, 985.751 158.419, 993.391 159.028 C 1008.294 160.217, 1023.382 163.528, 1031.500 167.390 C 1034.250 168.698, 1038.210 170.021, 1040.301 170.330 C 1047.384 171.375, 1074.109 180.166, 1083.607 184.575 C 1088.804 186.987, 1095.448 189.656, 1098.373 190.506 C 1104.996 192.431, 1111.628 196.589, 1118.611 203.193 L 1124 208.290 1123.963 222.395 L 1123.925 236.500 1118.213 239.931 C 1115.071 241.818, 1108.900 245.204, 1104.500 247.454 C 1100.100 249.705, 1095.375 252.301, 1094 253.224 C 1089.711 256.103, 1078.078 260.028, 1067.624 262.123 C 1062.106 263.230, 1057.222 264.363, 1056.771 264.641 C 1051.700 267.775, 986.170 270.015, 953.574 268.168 C 942.533 267.543, 919.550 266.333, 902.500 265.480 C 885.450 264.627, 864.300 263.213, 855.500 262.338 C 842.387 261.034, 824.165 260.724, 754.500 260.623 C 665.712 260.495, 645.745 261.237, 621.500 265.570 C 605.988 268.342, 594.373 269.928, 582.500 270.894 C 566.302 272.213, 533.972 279.552, 520.327 285.009 C 509.174 289.470, 505 292.450, 505 295.954 C 505 299.597, 504.807 299.487, 516.677 302.626 C 531.758 306.615, 535.569 306.871, 595.500 307.928 C 638.034 308.678, 652.943 309.263, 657.500 310.358 C 660.800 311.152, 665.975 312.127, 669 312.525 C 672.025 312.923, 675.573 313.654, 676.884 314.151 C 678.196 314.647, 685.473 315.948, 693.055 317.043 C 700.638 318.137, 709.680 319.939, 713.149 321.048 C 716.618 322.156, 723.741 323.531, 728.978 324.103 C 734.215 324.676, 740.525 325.789, 743 326.577 C 745.475 327.365, 750.313 328.008, 753.750 328.005 C 757.188 328.002, 760 328.434, 760 328.965 C 760 330.822, 764.403 332.254, 774.410 333.652 C 779.960 334.427, 790.125 336.379, 797 337.989 C 803.875 339.599, 811.975 341.368, 815 341.919 C 818.025 342.471, 824.775 343.880, 830 345.051 C 854.146 350.459, 890.932 358.231, 900.792 360.006 C 906.777 361.084, 913.403 362.688, 915.518 363.572 C 917.721 364.492, 924.531 365.544, 931.470 366.036 C 938.129 366.508, 948.285 367.782, 954.039 368.866 C 959.793 369.951, 969.900 371.346, 976.500 371.967 C 983.100 372.588, 995.475 373.818, 1004 374.701 C 1029.210 377.314, 1068.175 377.093, 1079.222 374.275 C 1090.576 371.379, 1105.051 365.759, 1110.320 362.200 C 1140.220 342.008, 1156.761 322.477, 1174.404 286.534 C 1187.512 259.830, 1189.298 250.131, 1188.771 208.500 C 1188.337 174.240, 1188.288 173.980, 1178.544 153.408 C 1172.451 140.546, 1166.503 131.414, 1159.942 124.849 C 1156.655 121.561, 1155.117 119.107, 1154.689 116.471 C 1154.073 112.677, 1145.564 98.713, 1141.818 95.351 C 1140.685 94.333, 1137.928 90.800, 1135.693 87.500 C 1125.767 72.845, 1111.308 61, 1103.345 61 C 1099.412 61, 1099 60.770, 1099 58.574 C 1099 56.008, 1098.317 55.599, 1081.249 47.952 C 1077.261 46.165, 1073.517 44.123, 1072.928 43.413 C 1070.125 40.036, 1035.228 31.760, 1016 29.912 C 1009.675 29.305, 1004.262 28.661, 1003.972 28.482 C 1001.239 26.797, 968.689 24.639, 921.496 23.014 C 905.544 22.465, 889.119 21.830, 884.996 21.603 C 880.873 21.376, 869.625 21.590, 860 22.079" stroke="none" fill="black" fill-rule="evenodd"/>
  </g>
</svg>