<svg xmlns="http://www.w3.org/2000/svg" viewBox="0 0 800 338" width="800" height="338">
  <g transform="scale(0.6666666666666666, 0.6666666666666666)">
    <path d="M 576.186 65.681 C 556.864 86.054, 521.970 137.825, 500.482 178 C 495.629 187.075, 490.604 196.188, 489.316 198.250 L 486.975 202 471.737 201.956 C 463.357 201.932, 451.775 201.505, 446 201.007 C 419.998 198.765, 390.408 198.714, 363 200.864 C 348.425 202.007, 321.650 203.856, 303.500 204.973 C 285.350 206.090, 269.150 207.225, 267.500 207.494 C 265.850 207.763, 253.475 208.452, 240 209.025 C 226.180 209.612, 210.051 210.915, 203 212.012 C 196.125 213.082, 185.100 214.673, 178.500 215.547 C 161.624 217.783, 150.832 220.269, 140.458 224.311 C 134.751 226.536, 123.879 229.314, 110.500 231.966 C 98.950 234.256, 84.325 237.401, 78 238.954 C 71.675 240.508, 64.716 242.092, 62.535 242.475 C 50.051 244.667, 42.017 253.333, 42.007 264.615 L 42 271.731 36.750 275.115 C 28.070 280.711, 28.773 287.663, 39.006 297.424 C 46.227 304.312, 92.826 328.078, 102.738 329.929 C 105.907 330.520, 115.925 332.781, 125 334.951 C 134.075 337.122, 143.075 339.183, 145 339.533 C 146.925 339.882, 153.225 341.671, 159 343.508 C 167.883 346.333, 172.472 347.096, 188.796 348.458 C 206.570 349.942, 217.102 351.327, 218.857 352.411 C 220.342 353.329, 253.143 357.952, 266 359.055 C 273.425 359.692, 292.325 360.587, 308 361.044 C 323.675 361.501, 344.600 362.344, 354.500 362.919 C 364.400 363.493, 395.888 364.381, 424.473 364.893 L 476.447 365.823 478.762 368.661 C 480.035 370.223, 488.950 383.200, 498.573 397.500 C 522.182 432.583, 534.478 449.085, 543.510 457.806 C 550.735 464.782, 551.266 465.097, 555.288 464.806 L 559.500 464.500 568.228 447.045 C 581.700 420.100, 581.211 422.132, 581.750 390.860 L 582.210 364.221 608.855 363.569 C 623.510 363.210, 643.825 362.486, 654 361.961 C 664.175 361.435, 679.724 361.003, 688.554 361.002 L 704.608 361 707.653 364.250 C 709.328 366.038, 713.836 371.775, 717.672 377 C 728.741 392.078, 742.931 408.317, 752.844 417.250 C 756.480 420.526, 757.636 421, 761.996 421 C 766.821 421, 767.258 420.749, 775.243 413.395 C 789.586 400.184, 807.885 385.881, 825.478 374.130 C 840.408 364.157, 848.492 359.745, 872.776 348.312 C 881.516 344.197, 884 341.563, 884 336.411 L 884 332 901.780 332 C 929.566 332, 949.836 335.067, 995 346.105 C 1028.560 354.307, 1048.050 357.750, 1071 359.528 C 1081.725 360.358, 1093.425 361.457, 1097 361.969 C 1108.303 363.588, 1114.004 364.046, 1133.819 364.922 C 1157.228 365.958, 1157 365.999, 1157 360.723 C 1157 356.895, 1156.343 356.010, 1144.750 344.216 C 1118.711 317.725, 1105.427 306.882, 1090.369 299.826 L 1082 295.904 1082 281.657 L 1082 267.411 1087.236 263.455 C 1090.116 261.280, 1102.491 249.412, 1114.736 237.082 C 1134.473 217.208, 1137 214.299, 1137 211.454 C 1137 206.150, 1135.899 205.863, 1119.883 206.982 C 1099.820 208.385, 1079.151 210.664, 1075.013 211.930 C 1073.095 212.516, 1066.345 213.707, 1060.013 214.577 C 1045.801 216.527, 1040.337 217.658, 1012 224.509 C 999.625 227.501, 985 230.643, 979.500 231.491 C 974 232.340, 965.675 233.901, 961 234.961 C 956.325 236.022, 949.125 237.544, 945 238.345 C 940.875 239.147, 935.700 240.286, 933.500 240.877 C 927.321 242.538, 879.083 242.266, 860.411 240.466 C 851.660 239.622, 836.564 238.514, 826.864 238.003 C 817.164 237.492, 806.364 236.621, 802.864 236.067 C 799.364 235.513, 786.449 233.902, 774.164 232.488 C 761.879 231.074, 742.359 228.353, 730.788 226.442 C 697.014 220.863, 664.260 216.179, 653.750 215.425 L 644 214.726 644 210.984 C 644 208.240, 641.623 202.615, 635.076 189.872 C 623.765 167.854, 610.994 139.006, 607.687 128 C 602.995 112.390, 599.923 99.780, 598.959 92.175 C 597.819 83.184, 594.596 71.219, 591.639 65 C 589.705 60.932, 589.126 60.469, 585.602 60.181 C 581.991 59.885, 581.299 60.290, 576.186 65.681" stroke="none" fill="black" fill-rule="evenodd"/>
  </g>
</svg>