<svg xmlns="http://www.w3.org/2000/svg" viewBox="0 0 800 253" width="800" height="253">
  <g transform="scale(0.6666666666666666, 0.6657894736842105)">
    <path d="M 465.161 71.077 C 460.456 73.428, 456.714 76.616, 449.310 84.577 L 439.618 95 426.059 94.964 C 417.755 94.943, 410.174 94.366, 406.500 93.478 C 403.200 92.680, 389.700 91.117, 376.500 90.005 C 363.300 88.894, 348.900 87.514, 344.500 86.939 C 340.100 86.364, 322.907 85.634, 306.293 85.317 L 276.085 84.740 275.793 78.120 L 275.500 71.500 271.889 71.198 C 267.737 70.851, 262 74.835, 262 78.066 C 262 82.905, 252.843 85.369, 227 87.481 C 199.533 89.726, 189.878 90.845, 179 93.042 C 173.775 94.097, 163.425 95.382, 156 95.897 C 148.575 96.411, 141.216 97.327, 139.647 97.931 C 138.077 98.535, 132.227 99.711, 126.647 100.544 C 121.066 101.377, 112.900 103.167, 108.500 104.522 C 104.100 105.877, 96.900 107.886, 92.500 108.986 C 76.490 112.991, 67.430 115.677, 64.171 117.386 C 61.319 118.883, 58.528 119.087, 44.644 118.816 L 28.445 118.500 23.385 115.250 C 17.629 111.553, 15.027 111.208, 12.655 113.829 C 10.372 116.352, 10.584 119.423, 13.250 122.411 C 15.857 125.333, 32.657 136, 34.653 136 C 35.722 136, 36 139.076, 36 150.923 C 36 167.879, 36.855 170.027, 45.045 173.640 C 48.927 175.353, 49 175.482, 49 180.627 C 49 188.063, 50.232 190.510, 57.447 197.413 L 63.825 203.515 64.403 211.507 C 64.721 215.903, 65.253 224, 65.586 229.500 C 66.264 240.715, 66.871 242, 71.488 242 C 78.539 242, 80 239.316, 80 226.361 L 80 214.868 110.250 215.226 C 140.421 215.583, 140.516 215.591, 146.599 218.239 C 161.445 224.700, 166.151 225.411, 194.429 225.457 L 220.359 225.500 223.929 236.526 C 229.864 254.853, 248.502 283.912, 267.820 304.956 C 284.930 323.595, 330.184 367.128, 339.335 373.750 C 348.666 380.503, 351.595 371.980, 343.599 361.343 C 337.668 353.454, 323.463 339.845, 305.171 324.528 C 300.591 320.694, 295.305 315.458, 293.422 312.894 L 290 308.232 289.996 291.866 C 289.993 277.274, 289.776 275.145, 287.996 272.226 C 286.250 269.362, 286 267.183, 286 254.834 L 286 240.717 307.250 241.585 C 339.916 242.919, 480.340 242.548, 493 241.094 C 498.775 240.431, 519.362 239.627, 538.750 239.307 L 574 238.725 574 241.685 C 574 246.652, 593.519 262, 599.835 262 C 600.985 262, 605.656 262.877, 610.213 263.950 C 617.946 265.769, 638.357 267.596, 679.500 270.150 C 706.544 271.830, 784.042 268.997, 810 265.380 C 822.212 263.679, 833.996 262.592, 857.177 261.027 C 866.349 260.409, 875.349 259.469, 877.177 258.940 C 879.005 258.411, 889.500 257.553, 900.500 257.033 C 924.180 255.914, 959.700 251.888, 976.500 248.419 C 983.100 247.056, 992.914 245.052, 998.308 243.966 C 1003.703 242.880, 1009.418 241.318, 1011.009 240.496 C 1012.599 239.673, 1014.936 238.996, 1016.200 238.990 C 1022.285 238.964, 1034.023 231.025, 1040.986 222.227 C 1046.884 214.773, 1048 211.880, 1048 204.050 L 1048 197 1063.518 197 C 1078.486 197, 1079.418 197.123, 1089.768 200.460 C 1101.868 204.362, 1107.191 205.262, 1131.923 207.585 C 1158.313 210.063, 1163.971 208.762, 1177.575 197.085 C 1192.926 183.909, 1196.185 176.098, 1194.093 157.503 C 1193.443 151.726, 1192.243 145.106, 1191.427 142.793 C 1186.178 127.915, 1169.675 114.003, 1153.500 110.820 C 1143.445 108.841, 1113.856 109.165, 1105 111.352 C 1099.426 112.728, 1092.171 113.335, 1076.750 113.715 L 1056 114.227 1056 111.966 C 1056 105.924, 1051.794 97.511, 1046.018 92 C 1039.432 85.716, 1029.362 79.429, 1023.500 77.941 C 1021.300 77.382, 1017.425 76.279, 1014.890 75.488 C 1000.015 70.851, 846.302 68.085, 600.410 68.029 L 471.319 68 465.161 71.077" stroke="none" fill="black" fill-rule="evenodd"/>
  </g>
</svg>