<svg xmlns="http://www.w3.org/2000/svg" viewBox="0 0 800 313" width="800" height="313">
  <g transform="scale(0.6666666666666666, 0.6659574468085107)">
    <path d="M 747.505 14.031 C 731.008 15.002, 714.808 16.098, 711.505 16.466 C 702.856 17.430, 666.199 24.823, 663.859 26.075 C 662.772 26.657, 657.746 27.557, 652.691 28.074 C 639.351 29.439, 626.363 31.767, 610.817 35.582 C 603.291 37.428, 590.691 40.104, 582.817 41.527 C 555.440 46.475, 524.766 54.641, 514.783 59.639 C 510.267 61.900, 509.158 62, 488.708 62 L 467.349 62 465 59.500 C 462.574 56.917, 456.739 55.996, 455.500 58 C 455.131 58.596, 448.691 59, 439.546 59 C 424.515 59, 424.163 58.951, 421.855 56.517 C 415.185 49.486, 409.743 54.628, 385.089 91.261 C 379.995 98.830, 375.079 105.419, 374.164 105.903 C 373.249 106.388, 362.375 109.584, 350 113.007 C 337.625 116.429, 318.500 122.357, 307.500 126.179 C 296.500 130.001, 282.339 134.914, 276.030 137.096 C 262.606 141.739, 205.216 164.150, 190 170.690 C 184.225 173.173, 171.850 178.237, 162.500 181.944 C 116.364 200.237, 110.622 202.215, 85.091 208.612 C 71.116 212.113, 58.932 215.657, 58.015 216.487 C 57.098 217.317, 54.132 218.408, 51.424 218.911 C 47.473 219.646, 45.803 220.635, 42.973 223.914 C 39.638 227.777, 39.144 228, 33.919 228 C 22.819 228, 11 236.925, 11 245.307 C 11 253.692, 16.915 259.910, 36.221 271.820 C 39.265 273.697, 44.467 278.525, 48.196 282.931 C 65.162 302.983, 105.253 335.016, 127.343 346.172 C 134.957 350.017, 157.294 356.432, 170.232 358.489 C 178.866 359.861, 182.304 361.023, 192.472 366.006 C 209.539 374.368, 228.634 379.550, 273.840 388.087 C 290.308 391.197, 296.024 392.667, 298.101 394.328 C 299.596 395.523, 307.752 404.600, 316.226 414.500 C 333.789 435.019, 349.064 449.857, 356.378 453.501 C 363.246 456.923, 372.673 457.045, 375.759 453.750 C 379.719 449.523, 380.019 446.980, 379.334 423.451 L 378.681 401 394.090 401.041 C 402.566 401.064, 415.800 401.726, 423.500 402.513 C 457.974 406.036, 581.999 406.714, 607.500 403.519 C 614.100 402.692, 626.033 402.012, 634.017 402.008 L 648.534 402 653.517 406.292 C 677.203 426.691, 687.461 432.299, 723.132 444.342 C 751.054 453.770, 764.828 456.447, 794 458.118 C 842.834 460.913, 870.148 454.556, 914.963 429.965 C 939.759 416.359, 948.046 406.414, 953.014 384.305 C 954.225 378.912, 955.618 374.072, 956.108 373.550 C 956.599 373.027, 957 363.465, 957 352.300 L 957 332 971.335 332 L 985.669 332 995.585 336.040 C 1036.466 352.699, 1064.182 357.743, 1096.422 354.393 C 1101.882 353.826, 1105.504 352.987, 1105.756 352.233 C 1105.982 351.555, 1107.157 351, 1108.367 351 C 1109.577 351, 1113.012 349.425, 1116 347.500 C 1118.988 345.575, 1121.843 344, 1122.345 344 C 1122.847 344, 1125.001 342.425, 1127.132 340.500 C 1129.262 338.575, 1131.664 337, 1132.468 337 C 1134.308 337, 1136 333.917, 1136 330.566 C 1136 328.667, 1136.520 328, 1138 328 C 1139.687 328, 1140 327.333, 1140 323.737 C 1140 320.276, 1140.423 319.289, 1142.250 318.487 C 1145.636 317.001, 1162.638 282.629, 1164.503 273.500 C 1166.817 262.164, 1167.545 222.686, 1165.663 210.472 C 1164.099 200.315, 1160.929 191, 1159.036 191 C 1158.466 191, 1158 189.902, 1158 188.559 C 1158 187.216, 1157.550 185.840, 1157 185.500 C 1156.450 185.160, 1155.988 182.996, 1155.973 180.691 C 1155.942 175.844, 1151.749 165.402, 1147.150 158.718 C 1145.401 156.176, 1143.121 152.116, 1142.084 149.695 C 1139.466 143.587, 1134.360 138, 1131.396 138 C 1129.559 138, 1129 137.461, 1129 135.687 C 1129 131.615, 1116.208 122.037, 1103.519 116.609 C 1097.070 113.850, 1095.362 113.574, 1082.500 113.210 C 1061.875 112.628, 1061.269 112.809, 1019.500 132.045 C 1009.600 136.604, 999.425 141.609, 996.889 143.167 C 992.379 145.939, 991.961 146, 977.639 146 L 963 146 963 126.088 C 963 83.257, 958.603 76.145, 913.333 45.753 C 899.800 36.668, 893.287 33.881, 867.364 26.085 C 818.927 11.518, 808.317 10.451, 747.505 14.031" stroke="none" fill="black" fill-rule="evenodd"/>
  </g>
</svg>