<svg xmlns="http://www.w3.org/2000/svg" viewBox="0 0 800 502" width="800" height="502">
  <g transform="scale(0.6666666666666666, 0.6666666666666666)">
    <path d="M 283.500 67.870 C 269.904 71.783, 257.642 81.023, 236.118 103.575 C 220.952 119.464, 215.499 126.265, 201.300 147 C 194.708 156.625, 186.835 168.100, 183.803 172.500 C 176.752 182.732, 168.515 196.861, 162.378 209.250 L 157.549 219 142.225 219 C 130.866 219, 126.182 219.371, 124.125 220.435 C 120.563 222.277, 114.397 229.100, 112.278 233.544 L 110.630 237 96.334 237 C 82.309 237, 82.030 236.957, 81.585 234.750 C 79.742 225.587, 77.870 199.437, 78.161 186.906 L 78.500 172.313 81.935 166.906 C 89.059 155.695, 88.961 156.128, 88.299 138.750 L 87.699 123 83.900 123 C 79.484 123, 77.768 124.861, 70.398 137.639 L 65.864 145.500 66.309 184.500 C 66.776 225.533, 68.054 241.655, 73.281 272.500 C 74.934 282.252, 75.486 289.622, 75.492 302 L 75.500 318.500 71.028 328.500 L 66.557 338.500 66.189 353.750 L 65.821 369 56.058 369 C 45.069 369, 42.386 370.145, 36.638 377.287 C 32.804 382.052, 31.732 391.648, 34.448 396.900 C 35.362 398.667, 36.475 403.368, 36.921 407.347 C 37.856 415.683, 38.907 417.975, 47.499 430.398 C 54.330 440.277, 58 448.322, 61.003 460 C 64.466 473.467, 67.958 482.359, 73.043 490.658 C 79.742 501.591, 83.469 509.968, 88.541 525.500 C 96.370 549.470, 119.873 591.657, 136.834 612.183 C 149.214 627.166, 173.767 645.025, 195.092 654.560 C 218.431 664.995, 220.869 666.594, 226.175 674.946 L 229 679.392 229 700.649 C 229 723.810, 229.442 726.143, 234.308 728.659 C 241.590 732.425, 245.895 733.273, 261.500 734.014 C 278.629 734.828, 278.439 734.863, 285.723 729.575 C 287.496 728.288, 290.886 726.944, 293.256 726.589 C 300.704 725.472, 303.352 723.120, 305.883 715.375 C 309.104 705.517, 312.410 700.341, 316.977 698.012 C 322.693 695.095, 324 692.650, 324 684.866 L 324 678.177 330.750 675.673 C 348.483 669.096, 353.240 668.024, 371.519 666.488 C 394.344 664.571, 422.813 660.588, 436.712 657.368 C 442.645 655.993, 455.150 653.125, 464.500 650.993 C 491.107 644.928, 533.011 632.174, 546.718 625.969 C 559.481 620.192, 594.790 597.585, 627.900 573.992 C 635.819 568.349, 646.619 561.654, 651.900 559.116 L 661.500 554.500 678.823 554.185 C 688.351 554.011, 698.026 554.320, 700.323 554.872 C 713.886 558.127, 724.295 561.991, 738.500 569.044 C 762.218 580.820, 762.199 580.815, 782.836 580.219 C 796.839 579.815, 801.992 580.061, 809.633 581.499 C 822.033 583.833, 829.213 582.755, 840.468 576.868 L 848.500 572.666 864 571.868 C 895.559 570.244, 907.726 566.153, 921.831 552.426 C 926.049 548.322, 932.875 542.637, 937 539.793 C 954.037 528.050, 976.800 503.417, 985.624 487.178 L 991.425 476.500 991.772 456.648 L 992.118 436.797 1008.309 437.236 C 1022.891 437.632, 1025.842 438.031, 1038 441.249 C 1077.311 451.654, 1094.492 451.342, 1113.616 439.877 C 1116.715 438.020, 1121.556 433.822, 1124.375 430.548 C 1127.194 427.275, 1132.738 421.425, 1136.695 417.548 C 1142.353 412.006, 1144.136 409.539, 1145.043 406 C 1146.973 398.468, 1150.621 391.826, 1157.973 382.463 C 1168.905 368.541, 1174.594 353.767, 1175.673 336.500 L 1176.236 327.500 1172.620 322.500 C 1170.631 319.750, 1166.416 313.068, 1163.252 307.652 C 1160.088 302.236, 1156.150 295.842, 1154.500 293.444 C 1140.906 273.686, 1137.458 269.393, 1126.585 258.683 L 1114.500 246.781 1099.500 247.412 C 1065.508 248.841, 1041.542 258.023, 1012 280.936 C 998.859 291.129, 996.309 292, 979.610 292 L 965 292 965 278.078 L 965 264.157 960.500 255.554 C 958.025 250.822, 956 246.162, 956 245.198 C 956 242.201, 953.143 239.157, 945.470 233.980 C 938.981 229.601, 937.940 228.469, 936.978 224.745 C 936.374 222.410, 935.656 219.723, 935.381 218.773 C 934.389 215.353, 927.507 211.001, 918.171 207.890 C 909.501 205.002, 897.622 197.052, 894.550 192.081 C 893.951 191.112, 890.623 189.918, 883.145 187.989 C 880.347 187.268, 877.411 185.460, 874.934 182.933 C 871.171 179.093, 870.912 179, 864.040 179 C 857.243 179, 857 178.916, 857 176.559 C 857 173.034, 856.104 172.770, 841.091 171.872 C 828.051 171.091, 819.675 169.876, 804.500 166.563 C 800.470 165.683, 792.500 165.027, 785.717 165.017 C 775.308 165.002, 773.383 164.722, 769.217 162.617 C 766.623 161.306, 759.100 158.326, 752.500 155.995 C 745.900 153.663, 736 149.561, 730.500 146.880 C 720.540 142.023, 720.443 141.999, 706.211 140.999 C 690.753 139.912, 687.440 138.962, 679.961 133.471 C 676.138 130.665, 673.417 129.628, 666.842 128.472 C 659.951 127.261, 657.442 126.258, 652.023 122.550 C 643.381 116.637, 642.568 116.386, 623.070 113.596 C 605.355 111.061, 603.215 110.330, 593.500 103.492 L 587.500 99.268 569.500 98.647 C 559.600 98.305, 549.700 97.544, 547.500 96.956 C 545.300 96.368, 541.903 95.480, 539.952 94.984 C 538 94.487, 529.251 93.580, 520.510 92.969 C 511.460 92.336, 502.868 91.202, 500.558 90.334 C 498.326 89.496, 495.262 88.577, 493.750 88.292 C 491.677 87.901, 491 87.194, 491 85.422 C 491 84.120, 490.136 82.608, 489.066 82.035 C 484.529 79.607, 448.090 81.614, 425.295 85.548 C 409.448 88.282, 403.663 90.072, 391.274 96.076 L 379.048 102 364.161 102 L 349.274 102 344.887 97.158 C 342.474 94.495, 338.025 89.064, 335 85.090 C 328.614 76.701, 321.241 70.659, 314.054 67.929 C 307.442 65.416, 292.126 65.387, 283.500 67.870" stroke="none" fill="black" fill-rule="evenodd"/>
  </g>
</svg>