<svg xmlns="http://www.w3.org/2000/svg" viewBox="0 0 800 317" width="800" height="317">
  <g transform="scale(0.6666666666666666, 0.6659663865546218)">
    <path d="M 696.500 36.425 C 684.940 39.036, 682.238 40.029, 678.385 43.087 C 676.248 44.782, 674.166 46.760, 673.758 47.482 C 673.349 48.204, 670.508 50.460, 667.443 52.494 C 656.365 59.847, 646.380 75.485, 638.866 97.248 L 635.500 106.996 621.888 106.998 L 608.275 107 598.665 97.218 C 593.379 91.838, 587.196 86.326, 584.925 84.968 C 582.654 83.611, 577.804 80.291, 574.148 77.591 C 564.583 70.529, 561.850 69.008, 558.717 69.004 C 557.186 69.002, 553.708 67.872, 550.988 66.494 C 548.268 65.116, 543.717 63.489, 540.873 62.879 C 538.030 62.270, 533.408 60.702, 530.602 59.395 C 527.345 57.879, 523.653 57.016, 520.394 57.010 C 516.068 57.001, 514.559 56.443, 510.518 53.358 C 506.717 50.456, 504.503 49.572, 499.624 49.010 C 496.256 48.621, 492.150 47.726, 490.500 47.020 C 488.850 46.313, 481.875 45.373, 475 44.931 C 468.125 44.488, 459.350 43.689, 455.500 43.155 C 438.779 40.836, 386.876 42.254, 375.500 45.341 C 372.200 46.236, 367.700 46.986, 365.500 47.006 C 361.299 47.045, 348.562 49.642, 338.467 52.518 C 333.384 53.966, 331.611 55.159, 326.500 60.573 C 322.637 64.666, 318.720 67.696, 315.500 69.082 C 308.951 71.901, 305.660 75.074, 300.946 83.117 L 297.067 89.735 286.522 90.204 C 277.105 90.623, 275.701 90.931, 273.397 93.086 C 268.751 97.432, 268.521 98.598, 268 120.500 L 267.500 141.500 251.250 141.775 L 235 142.050 235 129.525 L 235 117 223 117 L 211 117 211 104.500 L 211 92 207.940 92 C 204.242 92, 196.642 98.794, 188.718 109.186 L 183.521 116 169.260 116 L 155 116 155 111 C 155 106.144, 154.916 106, 152.085 106 C 149.884 106, 148.200 107.102, 145.209 110.500 C 141.690 114.498, 140.776 115, 137.025 115 C 133.556 115, 132.255 115.580, 129.738 118.250 C 125.604 122.635, 118.900 137.193, 115.119 150 C 113.413 155.775, 110.265 165.450, 108.123 171.500 L 104.227 182.500 98.199 182.796 C 93.076 183.047, 91.929 183.460, 90.562 185.546 C 89.678 186.895, 88.120 188, 87.100 188 C 85.059 188, 81.003 196.097, 80.996 200.185 C 80.991 203.240, 78.548 207.108, 71.640 215 C 64.136 223.571, 51.582 241.616, 50.143 245.899 C 48.235 251.573, 48.714 254.846, 51.885 257.806 C 53.472 259.288, 55.081 261.524, 55.461 262.777 C 56.577 266.457, 60.201 268.032, 71.052 269.555 C 76.672 270.344, 88.972 272.758, 98.385 274.920 C 107.798 277.082, 117.750 279.139, 120.500 279.491 C 123.250 279.842, 130.225 281.216, 136 282.543 C 141.775 283.871, 151 285.842, 156.500 286.922 C 162 288.003, 171 289.845, 176.500 291.015 C 183.884 292.585, 192.262 293.343, 208.521 293.913 C 234.004 294.806, 232.264 294.233, 244.377 305.722 C 257.336 318.016, 271.167 328, 275.239 328 C 275.975 328, 278.342 328.900, 280.500 330 C 284.044 331.807, 286.407 332.001, 304.961 332.009 C 332.981 332.021, 336 332.425, 336 336.171 C 336 337.819, 336.645 339.310, 337.500 339.638 C 338.458 340.006, 338.994 341.530, 338.985 343.857 C 338.963 348.999, 351.660 375, 354.192 375 C 355.635 375, 356 375.808, 356 379 C 356 381.667, 356.667 383.667, 358 385 C 359.100 386.100, 360 387.810, 360 388.800 C 360 391.104, 361.896 393, 364.200 393 C 365.599 393, 366 393.800, 366 396.594 C 366 399.346, 366.468 400.310, 368 400.710 C 369.294 401.049, 370 402.074, 370 403.617 C 370 405.333, 370.559 406, 372 406 C 373.509 406, 374.007 406.676, 374.027 408.750 C 374.066 412.721, 380.147 419, 383.953 419 C 386.613 419, 386.908 419.342, 387.190 422.750 C 387.476 426.204, 387.766 426.525, 390.871 426.822 C 392.966 427.023, 396.183 428.686, 399.371 431.219 C 407.818 437.928, 410.994 438.951, 423.500 438.993 C 430.472 439.017, 435.965 439.558, 438.500 440.471 C 445.389 442.953, 447 442.562, 447 438.406 C 447 435.654, 446.532 434.690, 445 434.290 C 443.136 433.802, 443 432.926, 443 421.442 C 443 414.305, 442.579 408.858, 442 408.500 C 441.450 408.160, 441 403.886, 441 399.003 L 441 390.124 432.009 382.062 C 427.063 377.628, 422.183 374, 421.164 374 C 418.948 374, 416 370.988, 416 368.723 C 416 367.833, 410.394 362.018, 403.541 355.802 L 391.083 344.500 391.041 328.378 L 391 312.257 404.250 311.557 C 417.995 310.832, 424.233 309.629, 426.134 307.338 C 426.745 306.602, 428.902 306, 430.927 306 C 436.180 306, 443.856 300.969, 444.649 297.007 L 445.250 294 460.006 294 L 474.763 294 475.881 298.443 C 476.497 300.886, 477 306.061, 477 309.943 C 477 313.824, 477.392 317, 477.872 317 C 478.352 317, 479.016 318.696, 479.347 320.768 C 480.326 326.894, 484.471 335.991, 488.876 341.684 L 492.990 347 502.092 347 L 511.194 347 515.735 352.050 C 518.232 354.827, 521.995 357.977, 524.098 359.050 C 528.181 361.133, 533 361.647, 533 360 C 533 359.364, 540.833 359, 554.500 359 C 572.944 359, 576 358.787, 576 357.500 C 576 355.320, 631.186 355.320, 635 357.500 C 638.420 359.455, 644 359.455, 644 357.500 C 644 356.262, 645.833 356, 654.500 356 C 663.167 356, 665 355.738, 665 354.500 C 665 353.284, 666.611 353, 673.500 353 C 681.900 353, 682 352.971, 682 350.500 L 682 348 692 348 C 698 348, 702 347.600, 702 347 C 702 346.391, 706.500 346, 713.500 346 L 725 346 725 343.500 C 725 341.009, 725.033 341, 734.500 341 C 740.167 341, 744 340.596, 744 340 C 744 339.400, 748 339, 754 339 C 763.333 339, 764 338.867, 764 337 C 764 335.127, 764.667 335, 774.500 335 C 783.167 335, 785 334.738, 785 333.500 C 785 332.250, 787 332, 797 332 C 808.333 332, 809 331.889, 809 330 C 809 328.127, 809.667 328, 819.500 328 L 830 328 830 325.500 L 830 323 840.500 323 C 846.833 323, 851 322.603, 851 322 C 851 321.392, 855.473 321, 862.418 321 C 874.649 321, 877 320.580, 877 318.393 C 877 317.271, 879.627 317, 890.500 317 C 903.333 317, 904 316.901, 904 315 C 904 313.103, 904.667 313, 917 313 L 930 313 930 308.500 L 930 304 935 304 C 939.867 304, 940 303.922, 940 301.057 C 940 299.208, 939.225 297.571, 937.916 296.654 C 935.961 295.284, 935.797 293.984, 935.264 275.597 L 934.696 256 949.789 256 C 958.090 256, 965.139 256.415, 965.452 256.923 C 965.766 257.431, 967.480 258.153, 969.261 258.529 C 974.053 259.538, 1000.221 272.819, 1010 279.204 C 1028.102 291.023, 1056.393 303.828, 1068 305.455 C 1070.475 305.802, 1076.550 307.369, 1081.500 308.938 C 1101.258 315.201, 1109.305 315.976, 1124.375 313.067 C 1132.249 311.547, 1133.903 310.559, 1142.138 302.452 C 1151.165 293.566, 1154.116 287.663, 1157.629 271.457 C 1160.401 258.669, 1160.436 258.089, 1160.271 227 C 1160.179 209.675, 1159.651 193.250, 1159.097 190.500 C 1158.542 187.750, 1157.401 181.919, 1156.560 177.541 C 1154.157 165.035, 1147.530 154, 1142.423 154 C 1141.640 154, 1141 153.360, 1141 152.578 C 1141 149.905, 1134.238 148.829, 1116.723 148.714 C 1097.292 148.586, 1095.757 148.931, 1070 159.198 C 1049.457 167.387, 1026.604 175.564, 1007.500 181.560 C 997.600 184.668, 983.728 189.638, 976.674 192.605 L 963.848 198 949.424 198 L 935 198 935 186.968 C 935 172.025, 930.822 159, 926.029 159 C 924.412 159, 924.056 158.160, 923.802 153.750 C 923.520 148.853, 923.315 148.479, 920.750 148.184 C 918.447 147.919, 918 147.390, 918 144.934 C 918 142.667, 917.545 142, 916 142 C 914.636 142, 914 141.333, 914 139.904 C 914 136.617, 910.199 132, 907.492 132 C 905.474 132, 905.075 131.442, 904.810 128.250 C 904.541 124.994, 904.138 124.458, 901.750 124.184 C 900.113 123.995, 899 123.260, 899 122.367 C 899 119.258, 893.898 114, 890.881 114 C 888.347 114, 888 113.639, 888 111 C 888 108.238, 887.722 108, 884.500 108 C 882.519 108, 881 107.498, 881 106.844 C 881 103.710, 875.866 99, 872.449 99 C 869.667 99, 869 98.613, 869 97 C 869 95.746, 868.333 95, 867.212 95 C 866.229 95, 863.027 92.750, 860.098 90 C 857.169 87.250, 853.924 85, 852.886 85 C 851.667 85, 851 84.293, 851 83 C 851 81.330, 850.333 81, 846.958 81 C 844.299 81, 842.182 80.316, 840.770 79 C 839.589 77.900, 837.583 77, 836.311 77 C 834.731 77, 834 76.416, 834 75.155 C 834 71.690, 830.777 70, 824.171 70 L 818 70 818 66.500 C 818 63.278, 817.762 63, 815 63 C 813 63, 812 62.500, 812 61.500 C 812 60.310, 810.556 60, 805 60 L 798 60 798 56.636 C 798 53.392, 797.834 53.249, 793.360 52.636 C 790.809 52.286, 786.564 52, 783.927 52 C 779.440 52, 779.113 51.824, 778.816 49.250 C 778.505 46.544, 778.348 46.484, 768.890 45.500 C 763.605 44.950, 758.629 43.954, 757.833 43.287 C 754.121 40.178, 747.276 38.043, 740.950 38.022 C 737.070 38.009, 733.891 37.490, 733.152 36.750 C 731.320 34.916, 704.248 34.676, 696.500 36.425" stroke="none" fill="black" fill-rule="evenodd"/>
  </g>
</svg>