<svg xmlns="http://www.w3.org/2000/svg" viewBox="0 0 800 288" width="800" height="288">
  <g transform="scale(0.6666666666666666, 0.6666666666666666)">
    <path d="M 565 49.604 C 542.991 50.304, 512.466 52.094, 505.136 53.114 C 496.886 54.261, 463.340 61.946, 456 64.370 C 433.749 71.719, 424.250 77.948, 413.937 91.951 L 406.536 102 392.268 102 L 378 102 378 94.019 C 378 86.403, 377.889 86.010, 375.572 85.429 C 369.651 83.943, 365.863 88.946, 364.538 100 C 363.154 111.554, 361.141 113.026, 344 115.018 C 331.788 116.437, 290.037 123.465, 279 125.959 C 274.325 127.015, 265.100 128.604, 258.500 129.489 C 251.900 130.375, 244.700 131.581, 242.500 132.171 C 240.300 132.760, 234.225 133.807, 229 134.497 C 218.221 135.921, 194.692 141.283, 178.448 146.016 C 167.413 149.231, 146.858 154.635, 133 157.964 C 123.996 160.127, 115.609 163.082, 107.500 166.950 C 104.200 168.524, 98.800 170.352, 95.500 171.012 C 87.052 172.703, 60.133 181.983, 49.941 186.718 C 27.345 197.216, 19.604 205.126, 16.936 220.444 C 14.456 234.689, 17.228 242.033, 26.802 246.576 L 30.286 248.230 29.762 267.546 C 29.185 288.787, 29.284 289.253, 35.637 295.211 C 39.074 298.434, 43.814 300.218, 55 302.500 C 59.559 303.430, 65.117 304.836, 67.352 305.624 C 69.587 306.413, 75.509 307.482, 80.512 308.001 C 85.515 308.520, 93.409 309.843, 98.054 310.942 C 125.090 317.334, 159.762 322.142, 204.368 325.683 C 239.541 328.475, 246.509 328.627, 263.356 326.970 C 278.087 325.520, 299.417 325.727, 303.282 327.357 C 305.052 328.103, 313.250 333.806, 321.500 340.030 C 342.361 355.769, 352.119 362, 355.903 362 C 357.607 362, 359 362.397, 359 362.883 C 359 364.005, 367.623 369.556, 386 380.266 C 414.843 397.075, 419.798 399, 434.230 399 C 440.216 399, 447.104 399.501, 449.537 400.114 C 455.888 401.713, 459 400.706, 459 397.054 C 459 393.214, 456.338 391.223, 444.258 386.028 C 438.891 383.719, 426.962 378.187, 417.750 373.734 L 401 365.637 401 351.318 L 401 337 411.250 336.995 C 416.887 336.993, 440.850 337.478, 464.500 338.074 L 507.500 339.158 522.500 354.251 C 543.868 375.753, 546.031 376.902, 570 379.473 C 577.975 380.329, 588.325 381.454, 593 381.973 C 634.241 386.555, 722.470 386.066, 761.500 381.040 C 769.750 379.978, 782.800 378.834, 790.500 378.497 C 806.212 377.811, 863.003 371.631, 873 369.520 C 876.575 368.765, 882.200 367.879, 885.500 367.552 C 897.700 366.342, 977.707 346.333, 990.500 341.293 C 1014.246 331.938, 1037.603 318.572, 1045.441 309.854 C 1049.849 304.952, 1050 304.571, 1050 298.392 L 1050 292 1064.366 292 L 1078.732 292 1088.535 296.644 C 1100.601 302.360, 1114.026 304.007, 1135.189 302.370 C 1150.305 301.201, 1156.079 298.744, 1165.439 289.500 C 1195.276 260.030, 1186.542 192.601, 1150.604 174.966 C 1143.858 171.655, 1143.379 171.573, 1128.514 171.174 C 1111.587 170.719, 1107.797 171.417, 1093.702 177.587 C 1086.051 180.935, 1085.639 181, 1071.952 181 L 1058 181 1058 169.468 C 1058 155.777, 1057.137 153.223, 1050.393 146.944 C 1044.155 141.136, 1037.567 137.314, 1016.500 127.284 C 998.435 118.683, 996.599 117.983, 971.173 110.012 C 962.193 107.196, 950.943 103.177, 946.173 101.080 C 934.486 95.942, 911.109 88.398, 902.500 86.987 C 898.650 86.356, 892.853 84.956, 889.618 83.875 C 886.383 82.795, 874.908 80.108, 864.118 77.905 C 853.328 75.701, 841.125 73.053, 837 72.020 C 832.875 70.988, 827.250 69.842, 824.500 69.474 C 821.750 69.107, 814.775 67.760, 809 66.482 C 803.225 65.204, 793.550 63.645, 787.500 63.018 C 781.450 62.392, 774.700 61.482, 772.500 60.997 C 770.300 60.513, 759.950 59.397, 749.500 58.519 C 739.050 57.641, 723.975 56.273, 716 55.479 C 675.005 51.396, 600.153 48.484, 565 49.604" stroke="none" fill="black" fill-rule="evenodd"/>
  </g>
</svg>