<svg xmlns="http://www.w3.org/2000/svg" viewBox="0 0 800 540" width="800" height="540">
  <g transform="scale(0.6666666666666666, 0.6666666666666666)">
    <path d="M 197.947 32.295 C 186.271 38.657, 179.831 43.335, 173.642 49.951 L 168.920 55 155.344 55 L 141.768 55 135.134 49.157 C 126.084 41.185, 123.732 39.806, 119.821 40.181 C 116.603 40.490, 116.490 40.652, 116.188 45.417 C 115.959 49.037, 116.553 51.840, 118.438 56.042 C 119.847 59.181, 121 62.902, 121 64.311 C 121 65.732, 122.985 69.683, 125.458 73.186 C 132.806 83.593, 144.482 101.131, 147.969 107 L 151.237 112.500 150.634 135.500 C 150.302 148.150, 149.755 167.050, 149.417 177.500 C 148.974 191.221, 149.282 202.751, 150.523 219 C 151.469 231.375, 152.464 250.838, 152.735 262.250 L 153.227 283 149.113 283 C 145.210 283, 145 283.153, 145 286 C 145 288.933, 144.889 289, 140 289 C 135.023 289, 135 289.015, 135.011 292.250 C 135.026 296.935, 147.124 311, 151.138 311 C 151.612 311, 152 317.570, 152 325.599 L 152 340.198 134.250 339.558 C 124.487 339.206, 114.508 338.838, 112.073 338.741 C 109.342 338.631, 107.490 339.030, 107.239 339.782 C 106.944 340.669, 102.655 341, 91.454 341 C 68.460 341, 62.343 343.785, 64.520 353.263 C 64.929 355.043, 65.452 363.137, 65.682 371.250 L 66.100 386 59.127 386 C 51.190 386, 46 388.983, 46 393.545 C 46 395.790, 45.626 395.928, 38.750 396.206 L 31.500 396.500 31.193 400.196 C 30.894 403.792, 31.002 403.921, 35.193 404.980 C 41.700 406.624, 43.763 407.681, 49.948 412.541 C 55.382 416.809, 55.910 417, 62.312 417 L 69 417 69 427.800 C 69 434.867, 69.415 439.015, 70.200 439.800 C 71.032 440.632, 76.234 441, 87.153 441 L 102.906 441 103.947 444.750 C 104.520 446.813, 104.991 448.866, 104.994 449.313 C 104.997 449.760, 106.057 452.460, 107.349 455.313 C 112.210 466.045, 113 470.102, 113 484.347 L 113 497.925 108.714 503.213 C 106.357 506.121, 101.866 510.215, 98.735 512.311 C 95.603 514.408, 92.291 517.392, 91.374 518.944 C 90.458 520.495, 88.311 522.380, 86.604 523.132 C 83.759 524.386, 83.474 524.947, 83.194 529.859 C 82.627 539.782, 88.200 541.862, 96.910 534.977 C 99.710 532.764, 102 530.514, 102 529.977 C 102 528.879, 124.359 528.640, 132.750 529.648 L 138 530.279 138 545.174 C 138 557.006, 137.678 560.562, 136.435 562.459 C 135.504 563.880, 134.998 566.397, 135.185 568.674 C 135.498 572.479, 135.527 572.503, 140.500 573 C 145.238 573.474, 145.603 573.723, 147.474 577.750 L 149.448 582 163.176 582 L 176.904 582 179.952 586.430 C 182.987 590.841, 183 590.920, 183 604.609 C 183 612.435, 182.506 619.724, 181.854 621.528 C 179.911 626.901, 181.351 630.006, 185.769 629.968 C 187.821 629.951, 190.374 629.276, 191.441 628.468 C 194.325 626.287, 223 626.313, 223 628.497 C 223 631.019, 229.808 637.703, 236.832 642.077 C 240.500 644.360, 245.750 648.355, 248.500 650.954 C 251.250 653.553, 258.057 658.220, 263.627 661.326 L 273.754 666.974 274.181 675.898 C 274.745 687.697, 275.041 688, 286.045 688 L 294.845 688 296.073 691.750 C 298.447 699.003, 303.920 710.037, 309.698 719.221 C 316.408 729.887, 316.565 730.143, 322.126 739.500 C 326.797 747.360, 331.402 753.477, 337.372 759.750 L 341.416 764 356.819 764 L 372.221 764 380.193 771.500 L 388.166 779 398.833 779.022 C 407.879 779.041, 409.880 779.342, 412 781 C 413.571 782.229, 416.079 782.964, 418.750 782.978 L 423 783 423 775 L 423 767 432.378 767 C 443.467 767, 444.579 766.278, 443.518 759.769 C 443.135 757.421, 442.525 747.229, 442.161 737.120 L 441.500 718.740 436 713.795 C 432.975 711.075, 429.262 708.112, 427.750 707.209 L 425 705.569 425 691.141 L 425 676.714 445.250 677.293 C 467.949 677.943, 471.163 678.631, 477.480 684.191 L 481.807 688 496.403 688 C 507.964 688, 511 688.280, 511 689.345 C 511 691.719, 514.552 694, 518.247 694 C 524.528 694, 525 693.469, 525 686.393 L 525 680 539.345 680 C 552.420 680, 553.850 680.177, 555.500 682 C 556.595 683.210, 558.580 684, 560.524 684 C 564.057 684, 564.964 681.635, 564.989 672.358 C 565.003 667.139, 564.308 667.312, 588.750 666.415 C 606.575 665.761, 608 665.571, 608 663.854 C 608 662.119, 609.127 662, 625.566 662 C 647.629 662, 647 662.304, 647 651.639 C 647 639.244, 647.383 639, 666.839 639 L 682.050 639 682.650 636 L 683.250 633 695.625 633 L 708 633 708 628 L 708 623 721.946 623 L 735.891 623 747.912 628.500 C 754.523 631.525, 760.310 634, 760.772 634 C 761.233 634, 763.104 635.101, 764.929 636.448 C 766.754 637.794, 769.654 639.202, 771.373 639.576 C 773.093 639.951, 781.126 643.326, 789.223 647.078 C 797.321 650.829, 806.096 654.579, 808.723 655.410 C 811.351 656.240, 816.650 657.939, 820.500 659.184 C 826.787 661.217, 829.884 661.483, 850.911 661.792 C 876.659 662.170, 879 661.936, 879 658.981 C 879 657.187, 879.690 657, 886.300 657 C 895.077 657, 896 656.268, 896 649.300 L 896 644 911.935 644 C 933.132 644, 933 644.059, 933 634.525 L 933 627 944.300 627 C 951.756 627, 956.008 626.592, 956.800 625.800 C 957.570 625.030, 958 621.089, 958 614.800 L 958 605 961.640 605 C 966.268 605, 967.927 602.873, 967.968 596.889 L 968 592.279 973.024 591.684 C 975.787 591.356, 978.487 590.817, 979.024 590.485 C 980.881 589.338, 980.008 585.151, 977.500 583.179 C 975.032 581.238, 975 581.018, 975 566.261 C 975 549.556, 974.418 548, 968.171 548 L 965 548 965 531.345 L 965 514.690 993.250 515.595 C 1008.788 516.093, 1036.125 516.500, 1054 516.500 C 1085.790 516.500, 1086.592 516.451, 1090.710 514.250 C 1093.026 513.012, 1095.658 512, 1096.560 512 C 1098.430 512, 1120.091 500.409, 1126.633 495.909 C 1129.021 494.265, 1134.018 490.250, 1137.738 486.984 C 1141.457 483.719, 1147.102 479.653, 1150.281 477.949 C 1160.565 472.436, 1160 474.355, 1160 444.934 C 1160 423.319, 1160.238 419.047, 1161.500 418 C 1164.265 415.705, 1163.291 411.271, 1159 406.616 L 1155 402.276 1155 391.227 L 1155 380.178 1151.923 377.589 C 1150.231 376.165, 1148.206 375, 1147.423 375 C 1146.280 375, 1146 372.871, 1146 364.174 C 1146 349.894, 1145.305 349.120, 1131.333 347.836 C 1119.030 346.705, 1116.070 345.128, 1113.865 338.532 C 1111.740 332.175, 1110.663 331.501, 1099.164 329.327 C 1085.384 326.722, 1048.520 326.672, 1042.230 329.250 C 1038.713 330.691, 1034.818 331, 1020.149 331 L 1002.338 331 989.529 339.500 L 976.720 348 961.360 348 L 946 348 946 329.517 L 946 311.034 951.250 308.405 C 954.137 306.959, 957.962 304.679, 959.750 303.337 L 963 300.898 963 283.130 L 963 265.361 966.250 263.930 C 969.482 262.508, 971.790 256, 969.063 256 C 965.489 256, 964 252.061, 964 242.607 C 964 231.764, 964.213 232, 954.418 232 L 948 232 948 221.607 C 948 209.479, 948.496 210, 936.957 210 L 929.078 210 928.789 201.250 L 928.500 192.500 915.250 192.221 L 902 191.942 902 186.662 C 902 177.666, 901.762 177.550, 882.583 177.183 L 866 176.865 866 167.088 C 866 154.011, 865.987 154, 850.726 154 L 839.110 154 838.805 149.250 L 838.500 144.500 818.250 144.229 L 798 143.959 798 136.561 C 798 125.251, 799.213 126, 780.893 126 L 765 126 765 120.500 L 765 115 747.617 115 C 731.074 115, 730.208 114.903, 729.710 113 C 729.260 111.278, 728.346 111, 723.139 111 L 717.091 111 716.796 104.250 L 716.500 97.500 709 97.569 C 701.926 97.633, 701.047 97.903, 693.524 102.319 L 685.548 107 671.318 107 L 657.088 107 656.794 99.750 L 656.500 92.500 642.804 92.222 L 629.107 91.944 628.804 87.222 L 628.500 82.500 620.750 82.208 L 613 81.916 613 74.892 C 613 71.029, 612.534 66.998, 611.965 65.934 C 609.444 61.225, 602.922 65.396, 599.025 74.210 L 596.942 78.920 588.763 79.210 C 578.848 79.562, 579.242 78.805, 579.100 97.750 L 579 111 565.078 111 L 551.155 111 547.138 114.250 C 528.418 129.392, 523.767 133.483, 523.012 135.468 C 522.534 136.724, 519.749 140.305, 516.822 143.425 L 511.500 149.098 483.250 149.709 L 455 150.320 455 135.695 C 455 118.175, 454.297 119, 469.234 119 C 475.963 119, 480.021 118.579, 480.800 117.800 C 481.576 117.024, 482 113.012, 482 106.455 C 482 97.415, 482.229 96.103, 484.102 94.407 C 487.863 91.004, 489 87.459, 489 79.139 C 489 71.477, 488.884 71.081, 485.923 68.589 C 482.895 66.041, 482.595 66, 466.923 66 L 451 66 451 57.200 C 451 51.689, 450.552 47.952, 449.800 47.200 C 448.224 45.624, 442.514 45.658, 441.261 47.250 C 439.527 49.453, 436.004 62.651, 434.865 71.206 C 433.562 80.999, 432.797 82.668, 426.121 90.279 C 402.913 116.735, 403.012 116.580, 403.005 126.750 L 403 135 389.158 135 C 381.545 135, 369.186 134.706, 361.692 134.347 L 348.069 133.693 347.784 124.097 L 347.500 114.500 344.366 114.195 C 336.970 113.476, 332 130.746, 332 157.161 L 332 173.284 327.250 178.818 C 317.629 190.027, 318 189.109, 318 201.694 L 318 213 306.200 213 C 292.028 213, 292 213.019, 292 222.700 L 292 230 276.594 230 L 261.187 230 260.780 206.750 C 260.556 193.963, 260.015 182.713, 259.579 181.750 C 258.879 180.205, 257.156 180, 244.893 180 L 231 180 231 171.464 C 231 162.080, 231.095 162.257, 222.612 155.909 C 217.237 151.887, 211.403 151.809, 209.909 155.740 C 208.497 159.453, 209.601 164.739, 211.944 165.482 C 214.321 166.237, 215.274 177.535, 214.814 199.500 L 214.500 214.500 207.500 215 L 200.500 215.500 200.201 219.567 C 199.793 225.137, 197.061 226, 179.832 226 L 166.306 226 165.657 214.750 C 165.301 208.563, 165.007 184.996, 165.005 162.381 L 165 121.261 171.668 109.381 C 175.336 102.846, 183.610 88.500, 190.055 77.500 C 196.500 66.500, 202.786 55.475, 204.024 53 C 205.261 50.525, 208.464 45.871, 211.141 42.658 C 213.818 39.444, 216.269 35.778, 216.587 34.509 C 218.886 25.348, 212.163 24.549, 197.947 32.295" stroke="none" fill="black" fill-rule="evenodd"/>
  </g>
</svg>