<svg xmlns="http://www.w3.org/2000/svg" viewBox="0 0 800 475" width="800" height="475">
  <g transform="scale(0.6666666666666666, 0.6661991584852734)">
    <path d="M 543.047 26.972 C 516.557 42.892, 493.548 61.680, 457.961 96.447 C 421.452 132.114, 425.379 129.939, 397.407 129.976 C 372.789 130.009, 365.095 127.186, 351.842 113.260 C 342.619 103.569, 338.387 94.090, 333.423 72 C 330.410 58.594, 328.495 56.496, 319.981 57.268 C 309.830 58.188, 297.331 66.814, 276.946 86.966 C 256.567 107.111, 247.896 120.489, 239.346 144.975 L 235.500 155.989 221.250 155.995 L 207 156 207 140.500 L 207 125 198.500 125 L 190 125 190 120.500 C 190 116.069, 189.949 116, 186.674 116 C 183.034 116, 180.352 118.288, 177.591 123.750 L 175.949 127 158.042 127 C 140.982 127, 140.105 127.095, 139.497 129.010 C 138.599 131.838, 139.901 141.335, 142.229 148.945 C 143.977 154.659, 144.132 157.213, 143.590 171.445 C 143.253 180.275, 142.713 195.150, 142.388 204.500 L 141.799 221.500 137.496 226.500 C 135.130 229.250, 126.116 239.150, 117.466 248.500 C 87.920 280.435, 85.046 289.193, 92.500 324.570 C 95.601 339.286, 96 342.882, 96 356.091 L 96 371 81.562 371 C 71.619 371, 65.003 370.490, 60.312 369.361 C 55.916 368.303, 48.712 367.682, 40 367.611 C 26.978 367.504, 26.334 367.597, 21.823 370.249 C 15.138 374.179, 13 377.283, 13 383.057 C 13 388.226, 13.059 388.320, 25.296 402.692 C 35.187 414.309, 48.645 435.898, 66.009 468 C 79.518 492.974, 91.818 508.444, 117.066 532.212 C 131.680 545.969, 139.136 552.020, 155.750 563.605 L 168 572.148 168 586.190 L 168 600.233 162.500 606.173 C 156.925 612.195, 155.130 617.727, 158.147 619.591 C 158.977 620.104, 159.141 625.768, 158.741 640.122 L 158.190 659.945 161.845 660.510 C 171.131 661.947, 176.173 669.262, 177 682.500 L 177.500 690.500 181 690.166 C 182.925 689.983, 190.952 689.622, 198.837 689.364 L 213.175 688.895 215.337 683.971 L 217.500 679.047 227.015 679.024 L 236.531 679 238.279 674.077 C 241.559 664.843, 243.556 664, 262.172 664 C 283.384 664, 285.072 665.104, 286.413 679.855 C 286.731 683.350, 287.561 687.400, 288.258 688.855 L 289.525 691.500 305.211 691.775 L 320.897 692.050 327.953 698.525 C 336.067 705.972, 337.197 706.213, 348.264 702.851 C 354.835 700.855, 356.802 700.743, 375.929 701.265 C 392.366 701.713, 397.024 701.548, 399.011 700.449 C 400.784 699.467, 405.545 699.061, 415.562 699.035 L 429.624 699 431.894 695.929 C 435.718 690.758, 441.468 689, 454.560 689 C 467.358 689, 468.105 688.589, 469.537 680.750 C 469.949 678.496, 470.790 677, 471.645 677 C 472.427 677, 475.287 675.875, 478 674.500 C 481.964 672.491, 484.414 672, 490.467 672 L 498 672 498 663.519 C 498 653.952, 496.828 655.130, 508.500 652.967 C 546.994 645.832, 640.592 608.275, 676.358 585.613 L 685.216 580 698.702 580 L 712.189 580 720.344 585.855 C 746.667 604.751, 779.985 622.754, 803.706 630.899 C 815.125 634.820, 816.916 634.783, 823.276 630.500 L 828.473 627 840.896 627 L 853.319 627 859.085 621.500 C 864.827 616.023, 864.878 616, 871.176 615.994 C 882.531 615.984, 884.912 614.777, 894.214 604.310 C 895.890 602.423, 898.634 600.826, 901.388 600.133 C 907.980 598.473, 909 596.997, 909 589.125 C 909 582.733, 909.179 582.219, 912.527 578.973 C 916.631 574.996, 919 568.170, 919 560.322 C 919 555.237, 919.222 554.793, 924.112 550.079 C 929.101 545.271, 929.208 545.047, 928.537 540.826 C 928.158 538.447, 927.626 529.638, 927.354 521.250 L 926.859 506 941.241 506 C 967.892 506, 978.965 510.123, 1064.802 552.006 C 1099.856 569.110, 1099.585 569.047, 1112 562.988 C 1130.564 553.928, 1139.803 546.254, 1144.208 536.233 C 1145.353 533.630, 1147.784 529.152, 1149.611 526.283 C 1154.372 518.806, 1157.616 512.139, 1159.003 506.983 C 1159.666 504.517, 1161.710 499.575, 1163.545 496 C 1165.379 492.425, 1167.196 488.150, 1167.582 486.500 C 1167.968 484.850, 1169.313 481.700, 1170.572 479.500 C 1174.094 473.346, 1174.683 421.781, 1171.337 412.500 C 1170.148 409.200, 1168.672 402.900, 1168.059 398.500 C 1166.289 385.808, 1150.110 352.009, 1140.500 340.926 C 1137.750 337.755, 1134.691 333.999, 1133.703 332.580 C 1129.732 326.878, 1107.481 331.159, 1064.500 345.898 C 1030.652 357.504, 1016.345 362.336, 998.500 368.189 L 982.500 373.437 961.092 373.791 C 937.637 374.180, 928.221 373.324, 911.724 369.306 L 900.948 366.681 901.224 352.156 L 901.500 337.632 918 333.836 C 939.664 328.851, 942.001 327.806, 941.998 323.098 C 941.997 319.923, 941.468 319.166, 937.498 316.658 L 933 313.816 933 302.458 L 933 291.100 928.474 287.317 C 920.069 280.291, 919 277.878, 919 265.935 L 919 255.477 912.618 247.831 C 909.108 243.626, 905.441 238.006, 904.469 235.343 C 900.110 223.401, 899.419 222.389, 891.752 216.718 C 883.870 210.890, 880.655 206.754, 879.533 201 C 878.293 194.640, 877.973 194.221, 872.301 191.536 C 857.343 184.454, 850.664 177.966, 847.437 167.385 L 844.882 159.011 835.607 152.131 C 826.805 145.601, 826.093 144.787, 821.651 136.188 C 816.823 126.839, 816.549 126.607, 809 125.465 C 790.175 122.617, 775.988 113.715, 774.576 103.865 C 773.725 97.929, 772.154 96.657, 763 94.495 C 744.278 90.073, 734.407 82.544, 732.531 71.255 C 731.613 65.730, 732.193 65.943, 715.183 64.889 C 685.126 63.027, 674.757 59.503, 669.680 49.427 C 667.190 44.485, 666.437 44.290, 645.976 43.277 C 623.824 42.182, 623.362 42.034, 618.525 34.472 C 614.568 28.286, 614.331 28.223, 603.500 30.517 C 599.156 31.437, 591 32, 582.003 32 L 567.505 32 562.909 27 C 556.746 20.297, 554.159 20.294, 543.047 26.972" stroke="none" fill="black" fill-rule="evenodd"/>
  </g>
</svg>