<svg xmlns="http://www.w3.org/2000/svg" viewBox="0 0 800 471" width="800" height="471">
  <g transform="scale(0.333333, 0.333333)">
    <path d="M 658.437 39.250 C 655.033 42.567, 650.619 48.735, 646.450 56 C 637.507 71.582, 615.371 116.011, 613.632 121.869 C 611.907 127.676, 606.403 138.790, 599.838 149.721 C 593.093 160.952, 589.379 169.438, 586.499 180.201 C 585.159 185.206, 582.657 192.218, 580.938 195.783 C 579.216 199.353, 577.391 205.237, 576.876 208.882 C 575.702 217.180, 575.127 219.321, 567.980 242 C 552.906 289.829, 548.546 305.221, 543.051 330 C 540.917 339.625, 537.780 351.675, 536.081 356.778 L 532.992 366.055 531.989 382.278 C 530.998 398.312, 530.543 400.877, 525.555 418.500 C 524.154 423.450, 521.178 438.525, 518.942 452 C 513.910 482.327, 509.833 501.349, 505.435 515.017 C 501.045 528.658, 498.433 541.551, 495.922 561.969 C 493.722 579.863, 491.540 590.963, 489.399 595.160 C 488.653 596.623, 487.586 601.798, 487.029 606.660 C 485.704 618.223, 485.706 701.593, 487.031 709.758 C 487.613 713.346, 489.489 718.678, 491.428 722.258 C 493.288 725.691, 495.113 729.961, 495.484 731.747 C 496.433 736.324, 494.407 741.860, 491.516 742.585 C 486.680 743.799, 480.901 737.402, 472.471 721.500 C 469.847 716.550, 465.325 708.675, 462.423 704 C 459.521 699.325, 456.551 693.250, 455.823 690.500 C 454.788 686.586, 454.500 670.728, 454.500 617.500 C 454.500 545.108, 454.561 544.115, 459.356 538.295 C 462.847 534.059, 463.105 532.779, 464.054 515 C 464.985 497.537, 465.360 495.044, 469.311 480 C 470.684 474.775, 473.680 460.150, 475.970 447.500 C 483.545 405.649, 486.744 394.521, 497.138 373.859 C 500.993 366.195, 504 358.923, 504 357.264 C 504 353.790, 501.550 351.260, 497.379 350.426 L 494.388 349.828 490.711 353.898 C 482.662 362.808, 467.545 399.921, 457.066 436.500 C 451.296 456.641, 442.700 493.432, 440.478 507.500 C 439.609 513, 437.958 522.450, 436.810 528.500 C 435.662 534.550, 434.141 542.650, 433.430 546.500 C 430.796 560.759, 429.765 590.789, 430.287 638.091 C 430.825 686.941, 431.420 694.563, 435.544 705.522 C 436.882 709.076, 438.419 715.877, 438.960 720.637 C 439.702 727.164, 440.866 731.257, 443.701 737.297 C 448.133 746.743, 448.354 751.019, 444.727 757.191 C 441.070 763.415, 433.915 768.086, 420.271 773.157 C 417.097 774.337, 405.050 780.164, 393.500 786.108 C 381.158 792.459, 369.820 797.591, 366 798.557 C 362.425 799.461, 358.150 801, 356.500 801.977 C 351.665 804.840, 344.465 806.782, 328.721 809.468 C 320.593 810.854, 312.265 812.845, 310.214 813.891 C 301.293 818.442, 286.036 822.098, 259.500 826.043 C 251.800 827.188, 242.800 828.803, 239.500 829.633 C 226.373 832.935, 212.246 843.211, 183.792 870.154 C 167.103 885.957, 158.915 892.909, 146.890 901.482 C 136.290 909.040, 98.766 946.427, 94.172 954.008 C 92.342 957.029, 86.823 966.025, 81.908 974 C 76.993 981.975, 72.486 990.281, 71.892 992.458 C 69.523 1001.133, 72.654 1007.546, 85.143 1019.601 C 94.043 1028.192, 97.306 1029.975, 106.169 1031.087 C 113.219 1031.973, 117.971 1033.839, 121.593 1037.144 C 122.744 1038.194, 126.119 1039.452, 129.093 1039.938 C 135.067 1040.915, 141.998 1043.456, 150.773 1047.886 C 153.951 1049.490, 158.564 1051.332, 161.025 1051.980 C 163.486 1052.628, 169.804 1055.117, 175.065 1057.512 C 194.562 1066.386, 217.341 1070.965, 267 1075.990 C 289.433 1078.261, 301.808 1080.174, 309.500 1082.561 C 312.908 1083.618, 321.821 1084.400, 337.500 1085.017 C 377.058 1086.574, 375.977 1086.415, 401.500 1094.435 C 421.424 1100.696, 446.318 1107.026, 470.355 1111.945 C 481.162 1114.157, 494.391 1117.075, 499.752 1118.431 C 515.498 1122.411, 522.984 1122.973, 573.575 1123.976 C 600.017 1124.500, 622.292 1125.132, 623.075 1125.381 C 623.859 1125.629, 625.669 1126.087, 627.097 1126.397 C 629.989 1127.025, 637.799 1136.126, 676.535 1184 C 736.618 1258.257, 740.265 1261.974, 753.054 1261.994 C 759.501 1262.005, 766.305 1266.522, 780.739 1280.375 C 796.252 1295.264, 800.914 1298.755, 809.500 1301.911 C 812.800 1303.125, 817.222 1305.245, 819.327 1306.624 C 821.431 1308.002, 825.683 1309.542, 828.775 1310.045 C 837.295 1311.431, 843.097 1314.837, 859.500 1328.077 C 876.553 1341.841, 893.788 1353.735, 897.790 1354.500 C 899.280 1354.785, 903.200 1355.948, 906.500 1357.085 C 909.800 1358.222, 914.182 1359.659, 916.239 1360.280 L 919.978 1361.407 922.739 1359.354 C 928.858 1354.804, 926.397 1347.339, 912.081 1327.027 C 908 1321.237, 897.165 1305.700, 888.002 1292.500 C 878.839 1279.300, 869.917 1266.475, 868.176 1264 L 865.010 1259.500 867.396 1245.500 C 871.135 1223.567, 872.322 1210.127, 871.706 1196.713 C 871.068 1182.829, 869.351 1175.557, 865.347 1169.779 C 859.556 1161.422, 823.028 1133.756, 815.905 1132.331 C 814.332 1132.016, 812.482 1131.081, 811.794 1130.252 L 810.543 1128.745 814.022 1125.831 C 821.439 1119.617, 866.671 1099.122, 877.385 1097.120 C 889.430 1094.870, 929.376 1064.200, 941.361 1048 C 943.599 1044.975, 951.765 1036.200, 959.507 1028.500 C 974.122 1013.965, 984.897 1001.029, 1003.656 975.500 C 1022.197 950.266, 1027.573 941.995, 1036.024 925.697 L 1044.156 910.016 1040.920 904.258 C 1035.265 894.193, 1029.479 886.717, 1021.298 878.905 C 1007.155 865.397, 993.597 857.648, 981.435 856.121 C 977.609 855.640, 970.209 853.885, 964.990 852.219 C 952.714 848.302, 942.458 847.085, 915.500 846.343 C 887.837 845.583, 872.223 846.882, 860.590 850.913 C 855.998 852.504, 846.224 854.994, 838.870 856.446 C 821.989 859.779, 807.151 864.750, 785.147 874.445 C 775.603 878.650, 766.378 882.362, 764.647 882.692 C 762.916 883.023, 758.350 885.002, 754.500 887.090 C 750.584 889.213, 744.359 891.537, 740.372 892.364 C 736.452 893.176, 728.381 895.919, 722.436 898.458 C 716.492 900.997, 709.591 903.531, 707.101 904.089 C 701.316 905.386, 692.487 908.940, 672.500 918.016 C 656.098 925.464, 623.759 939.629, 609.500 945.611 C 605.100 947.456, 600.126 948.974, 598.446 948.983 C 594.305 949.006, 587.117 953.756, 583.665 958.751 C 580.199 963.765, 579.099 970.007, 581.350 971.876 L 582.908 973.169 588.584 971.519 C 598.107 968.750, 614.729 961.004, 623.098 955.435 L 631.027 950.158 640.542 947.990 C 646.824 946.559, 651.036 944.999, 652.939 943.398 C 656.565 940.347, 662.101 938.003, 665.718 937.989 C 671.685 937.964, 698.537 927.857, 717.377 918.544 C 739.821 907.450, 749.744 903.409, 757.701 902.121 C 760.891 901.605, 766.677 899.567, 770.561 897.591 C 775.599 895.028, 779.832 893.719, 785.338 893.021 C 791.325 892.261, 795.380 890.909, 803.428 886.989 L 813.801 881.935 821.676 881.037 C 827.064 880.422, 830.965 879.326, 834.026 877.565 C 842.436 872.728, 870.642 864.574, 895 859.938 C 904.144 858.198, 908.754 857.854, 917.500 858.260 C 954.646 859.984, 1010.041 883.960, 1020.260 902.737 C 1025.291 911.979, 1024.448 914.571, 1008.393 939.234 C 1002.402 948.438, 995.133 959.688, 992.239 964.234 C 982.407 979.684, 955.737 1010.161, 925 1041.070 C 903.301 1062.891, 889.278 1075.257, 883.004 1078.103 C 880.527 1079.227, 875.350 1081.695, 871.500 1083.588 C 866.607 1085.994, 863.134 1087.026, 859.960 1087.015 C 852.339 1086.990, 845.156 1089.559, 829.615 1097.866 C 810.388 1108.145, 800.285 1112.141, 791.967 1112.755 C 780.762 1113.583, 751.625 1108.319, 738.648 1103.123 C 734.538 1101.477, 727.711 1099.649, 723.476 1099.060 C 719.241 1098.471, 713.014 1096.808, 709.638 1095.364 C 698.671 1090.672, 687.578 1087.044, 684 1086.977 C 679.478 1086.893, 673.851 1084.862, 669.187 1081.630 C 666.775 1079.958, 663.176 1078.733, 658.889 1078.126 C 655.264 1077.613, 650.393 1076.137, 648.064 1074.847 C 645.734 1073.556, 642.404 1071.702, 640.664 1070.727 C 636.537 1068.415, 628.189 1068.731, 626.603 1071.259 C 625.767 1072.592, 625.867 1073.672, 627.017 1075.721 C 629.730 1080.556, 636.455 1084.653, 647.981 1088.494 C 654.081 1090.526, 660.358 1093.272, 661.930 1094.595 C 663.502 1095.918, 665.624 1096.992, 666.644 1096.981 C 667.665 1096.971, 675.700 1100.563, 684.500 1104.964 C 706.140 1115.787, 720.421 1119.709, 753.500 1123.918 C 762.300 1125.038, 772.853 1126.891, 776.950 1128.036 C 787.939 1131.107, 802.059 1138.842, 814.500 1148.604 C 820.550 1153.352, 827.750 1158.263, 830.500 1159.517 C 836.670 1162.332, 841.678 1165.956, 849.838 1173.511 L 856.138 1179.343 855.819 1224.422 L 855.500 1269.500 857.383 1275 C 859.810 1282.092, 865.212 1289.637, 878.504 1304.500 C 897.271 1325.486, 904.724 1336.848, 903.836 1343.121 C 903.111 1348.247, 899.888 1346.540, 886.452 1333.916 C 868.088 1316.659, 859.050 1308.770, 849.728 1301.859 C 840.374 1294.922, 835.118 1292.099, 823.772 1287.916 C 808.788 1282.391, 800.390 1277.301, 790.221 1267.579 C 778.562 1256.433, 768.396 1243.857, 755.799 1225 C 750.471 1217.025, 739.099 1201.500, 730.527 1190.500 C 721.955 1179.500, 710.567 1164.239, 705.221 1156.587 C 695.392 1142.519, 682.066 1127.839, 672.097 1120.097 C 665.583 1115.037, 662.650 1114.939, 662.186 1119.765 L 661.871 1123.029 665.936 1127.053 C 668.470 1129.563, 670 1131.992, 670 1133.509 C 670 1135.067, 671.109 1136.759, 673.088 1138.220 C 674.787 1139.474, 678.120 1143.200, 680.496 1146.500 C 682.871 1149.800, 688.481 1156.775, 692.963 1162 C 697.445 1167.225, 705.024 1177.073, 709.806 1183.885 C 723.608 1203.546, 729.153 1210.787, 738.993 1222 C 749.724 1234.229, 752.858 1239.675, 751.446 1243.639 C 750.926 1245.099, 749.726 1246.778, 748.780 1247.372 L 747.061 1248.451 743.456 1244.976 C 741.473 1243.064, 731.680 1231.600, 721.695 1219.500 C 711.709 1207.400, 696.951 1189.511, 688.898 1179.746 C 680.846 1169.982, 669.372 1155.132, 663.401 1146.746 C 657.430 1138.361, 648.750 1127.554, 644.112 1122.731 L 635.679 1113.962 630.589 1112.524 C 623.247 1110.450, 613.939 1109.395, 573 1105.998 C 508.216 1100.622, 489.127 1098.265, 479.500 1094.452 C 472.579 1091.711, 463.103 1089.467, 454.500 1088.533 C 444.474 1087.444, 433.030 1085.127, 421.993 1081.950 C 415.713 1080.143, 407.284 1078.581, 401 1078.060 C 389.557 1077.111, 387.435 1076.575, 386.609 1074.423 C 385.626 1071.861, 387.102 1070.126, 391.793 1068.335 C 398.678 1065.705, 413.042 1056.808, 426 1047.145 C 444.665 1033.227, 467.912 1008.819, 496.616 973 C 518.602 945.565, 528.057 931.755, 530.420 923.626 C 531.268 920.709, 533.298 916.642, 534.931 914.587 C 539.811 908.447, 540.358 895.428, 535.965 890 C 532.848 886.148, 530.046 879.815, 530.022 876.566 C 529.988 872.006, 526.391 865.639, 521.001 860.598 L 516.086 856 512.165 856 C 509.889 856, 507.719 856.633, 506.992 857.510 C 504.860 860.079, 506.475 866.336, 510.982 872.974 C 513.293 876.376, 516.153 881.262, 517.338 883.830 L 519.493 888.500 519.489 900.500 L 519.485 912.500 516.614 918 C 515.035 921.025, 509.814 928.450, 505.013 934.500 C 500.211 940.550, 492.112 951.350, 487.015 958.500 C 474.590 975.930, 461.965 990.187, 435.577 1016.588 L 413.500 1038.675 405.620 1042.381 C 401.286 1044.420, 391.885 1049.919, 384.730 1054.602 C 377.575 1059.284, 368.644 1064.665, 364.885 1066.558 L 358.050 1070 345.775 1069.990 C 325.275 1069.974, 294.119 1065.850, 269.988 1059.957 C 255.368 1056.387, 237.863 1054.003, 226.199 1053.992 C 214.272 1053.982, 206.368 1052.535, 198.739 1048.965 C 194.263 1046.870, 189.595 1045.637, 183.542 1044.949 C 177.463 1044.258, 171.114 1042.576, 162.673 1039.418 C 156 1036.922, 147.412 1034.013, 143.587 1032.953 C 135.182 1030.624, 133.387 1028.756, 136.532 1025.611 C 137.909 1024.234, 139.749 1023.741, 147.932 1022.559 C 151.639 1022.024, 159.803 1024.466, 162.372 1026.880 C 165.923 1030.216, 177.525 1031.094, 213.916 1030.780 L 246.333 1030.500 250.325 1024 C 252.521 1020.425, 254.926 1015.502, 255.668 1013.059 C 257.870 1005.821, 256.686 1002.858, 247.870 993.544 L 239.986 985.215 195.243 984.717 C 147.922 984.191, 146.434 984.054, 132.500 978.971 C 128.435 977.488, 123.172 976.608, 116.179 976.244 C 108.576 975.847, 105.307 975.259, 103.765 974.011 L 101.672 972.316 105.004 966.408 C 114.627 949.342, 126.239 936.376, 137.600 930.015 C 141.345 927.917, 147.517 922.603, 154.500 915.464 C 165.798 903.912, 168.288 902, 172.033 902 C 178.936 902, 190.858 891.397, 202.392 875 C 206.841 868.675, 212.748 861.208, 215.518 858.407 C 225.394 848.422, 239.015 844.342, 259.501 845.235 L 270.502 845.714 275.647 848.321 C 281.638 851.357, 295.423 862.189, 297.681 865.636 L 299.234 868.007 298.723 894.253 C 298.191 921.559, 297.578 926.055, 293.225 934.568 C 290.935 939.046, 284.855 944.990, 279.988 947.506 C 277.543 948.771, 276.543 948.866, 275.428 947.940 C 272.883 945.828, 273.895 943.097, 279.471 937.032 C 282.480 933.759, 285.246 929.866, 285.619 928.381 C 286.328 925.556, 285.378 892.336, 284.327 883.224 L 283.719 877.949 277.109 872.981 C 268.394 866.431, 257.965 861, 254.104 861 C 249.754 861, 250.245 862.187, 255.488 864.343 C 263.797 867.759, 273.840 881.526, 278.504 895.890 C 279.856 900.056, 280.147 903.463, 279.782 910.890 L 279.310 920.500 276.741 925.500 C 275.329 928.250, 272.446 932.141, 270.336 934.147 C 264.046 940.126, 253.180 947.766, 248.332 949.617 L 243.797 951.349 231.148 950.154 C 213.920 948.526, 208.524 947.090, 202.099 942.423 C 192.722 935.612, 189.388 932.205, 186.143 926.116 C 181.043 916.549, 173.806 911.594, 170.200 915.200 C 167.843 917.557, 168.779 925.259, 172.048 930.415 C 176.764 937.852, 184.745 945.719, 190.384 948.491 C 193.198 949.874, 196.947 952.074, 198.714 953.379 C 206.054 958.799, 252.865 972.216, 265.077 972.401 L 271.654 972.500 278.903 966.575 C 287.111 959.865, 296.988 948.754, 303.709 938.668 C 311.242 927.365, 318 903.700, 318 888.622 C 318 873.731, 314.148 865.581, 300.026 850.588 C 288.775 838.643, 289.078 837.455, 304 835.038 C 321.967 832.128, 360.882 819.764, 367 815.022 C 371.293 811.694, 375.540 809.505, 379.500 808.579 C 381.150 808.193, 387.225 805.701, 393 803.042 C 398.775 800.383, 406.344 797.487, 409.820 796.606 C 422.692 793.346, 449.357 779.835, 462.492 769.918 C 470.374 763.967, 476.141 762.144, 490.770 760.979 C 521.322 758.547, 528.935 757.779, 536 756.421 C 550.021 753.725, 592.576 752.800, 680.956 753.268 L 766.500 753.721 789 756.323 C 801.375 757.754, 822.525 760.074, 836 761.480 C 862.628 764.257, 876.818 766.387, 883.934 768.674 C 893.041 771.603, 895.766 772.026, 911.645 772.986 L 927.789 773.961 936.779 776.875 C 948.275 780.601, 963.932 783.361, 991.404 786.502 C 1016.272 789.345, 1020.015 790.141, 1025.220 793.692 L 1028.940 796.230 1047.322 797.044 C 1065.077 797.831, 1075.462 799.085, 1080.694 801.074 C 1086.434 803.256, 1111.543 807.104, 1142 810.469 C 1180.436 814.715, 1201.921 817.935, 1219 822.012 C 1233.156 825.390, 1252.141 827.482, 1282 828.954 C 1293.275 829.510, 1305.200 830.634, 1308.500 831.452 C 1311.800 832.270, 1322.150 833.411, 1331.500 833.986 C 1340.850 834.561, 1355.894 835.488, 1364.931 836.045 C 1373.968 836.602, 1384.543 837.683, 1388.431 838.447 C 1401.822 841.079, 1414.377 842.138, 1466 844.987 C 1507.897 847.299, 1522.451 848.437, 1536.500 850.496 C 1549.480 852.399, 1566.264 853.723, 1593.500 854.994 C 1635.826 856.969, 1652.875 858.384, 1690 863.004 C 1719.503 866.675, 1752.306 870.154, 1794 874.033 C 1832.023 877.571, 1872.132 878.937, 1939.119 878.975 L 1983.738 879 1996.119 873.883 C 2018.045 864.820, 2036.078 858.113, 2043.127 856.400 L 2050.002 854.729 2054.561 856.470 C 2059.973 858.537, 2065.427 864.918, 2070.035 874.574 C 2078.982 893.321, 2077.491 917.596, 2065.893 941.999 C 2061.545 951.146, 2053.367 963.946, 2047.576 970.667 L 2043.986 974.834 1949.243 975.282 C 1889.960 975.561, 1849.447 976.161, 1841 976.885 C 1822.485 978.470, 1794.058 981.650, 1772.500 984.546 C 1727.476 990.596, 1712.234 992.143, 1679.500 993.985 C 1630.519 996.742, 1621.250 997.654, 1604.500 1001.360 C 1600.650 1002.212, 1587.375 1003.833, 1575 1004.963 C 1549.333 1007.306, 1547.568 1007.522, 1505.500 1013.493 C 1488.450 1015.913, 1463.250 1019.044, 1449.500 1020.450 C 1394.567 1026.066, 1384.164 1027.226, 1376 1028.644 C 1360.991 1031.252, 1352.075 1031.990, 1323.500 1032.990 C 1295.061 1033.985, 1291.015 1034.526, 1278.641 1038.986 C 1275.255 1040.206, 1268.125 1041.506, 1261.745 1042.066 C 1250.578 1043.046, 1248.619 1043.397, 1223.500 1048.931 C 1198.069 1054.533, 1188.636 1056.933, 1176.209 1060.964 C 1169.449 1063.157, 1159.999 1065.663, 1155.209 1066.532 C 1145.648 1068.268, 1137.598 1070.615, 1134.500 1072.568 C 1130.216 1075.270, 1120.687 1077.126, 1101 1079.094 C 1089.725 1080.221, 1077.575 1081.819, 1074 1082.646 C 1063.015 1085.184, 1049.207 1087.825, 1033 1090.486 C 1024.475 1091.886, 1012.775 1094.140, 1007 1095.495 C 1001.225 1096.849, 991.325 1098.413, 985 1098.968 C 978.335 1099.554, 967.825 1101.430, 960 1103.431 C 942.945 1107.793, 926.315 1110.931, 893.500 1115.982 C 849.727 1122.719, 831.631 1126.831, 832.218 1129.908 C 832.624 1132.041, 839.366 1132.779, 859.500 1132.893 C 876.612 1132.990, 890.334 1131.801, 898.469 1129.515 C 904.093 1127.935, 915.679 1126.560, 936.500 1125.002 C 955.552 1123.576, 970.655 1121.355, 982 1118.312 C 989.560 1116.283, 994.052 1115.736, 1004 1115.632 L 1016.500 1115.500 1021.678 1117.842 C 1027.114 1120.301, 1028.985 1122.502, 1034.991 1133.500 C 1040.174 1142.990, 1049.998 1156.916, 1056.104 1163.428 L 1061.709 1169.404 1065.681 1168.214 C 1067.866 1167.559, 1072.447 1165.218, 1075.861 1163.012 C 1079.274 1160.805, 1082.894 1159, 1083.904 1159 C 1084.952 1159, 1088.203 1161.958, 1091.484 1165.897 C 1094.644 1169.690, 1098.510 1173.740, 1100.074 1174.897 C 1103.234 1177.233, 1109.857 1177.743, 1111.800 1175.800 C 1112.638 1174.962, 1113 1169.546, 1113 1157.859 C 1113 1147.245, 1113.384 1140.881, 1114.050 1140.469 C 1114.628 1140.112, 1117.289 1141.867, 1119.964 1144.369 C 1129.503 1153.292, 1134.889 1151.862, 1145.488 1137.590 C 1152.602 1128.011, 1155.549 1125, 1157.808 1125 C 1160.069 1125, 1166.015 1129.361, 1179.202 1140.691 C 1191.846 1151.555, 1203.106 1159.994, 1204.995 1160.023 C 1205.823 1160.036, 1208.750 1161.370, 1211.500 1162.988 C 1214.250 1164.605, 1218.075 1166.732, 1220 1167.714 L 1223.500 1169.500 1279 1169.405 C 1339.540 1169.302, 1369.094 1168.248, 1416.500 1164.504 C 1433.550 1163.157, 1459.650 1161.343, 1474.500 1160.472 C 1510.900 1158.336, 1525.571 1156.724, 1546.125 1152.603 C 1580.194 1145.771, 1632.142 1140.498, 1690 1137.999 C 1733.909 1136.102, 1764.876 1137.152, 1780.500 1141.068 C 1801.207 1146.258, 1828.286 1145.920, 1855.500 1140.133 C 1863.200 1138.495, 1875.966 1136.218, 1883.868 1135.072 C 1899.353 1132.827, 1905.696 1130.643, 1910.647 1125.852 C 1919.820 1116.977, 1917.049 1097.493, 1903.905 1078.440 C 1897.493 1069.146, 1884.482 1055.837, 1876.912 1050.829 C 1864.085 1042.343, 1842.511 1033, 1835.743 1033 C 1833.918 1033, 1830.416 1031.901, 1827.962 1030.557 C 1816.832 1024.464, 1808.239 1020.799, 1791.500 1015.002 C 1767.452 1006.675, 1755.773 1002.170, 1754.200 1000.614 L 1752.900 999.328 1754.209 998.241 C 1755.773 996.943, 1777.757 995.385, 1814 994.004 C 1849.776 992.640, 1870.900 991.136, 1880.500 989.269 C 1886.560 988.091, 1897.717 987.605, 1926.500 987.268 C 1978.629 986.658, 2016.879 988.706, 2034.500 993.049 C 2049.134 996.656, 2055.062 1000.490, 2087 1027.001 C 2131.446 1063.896, 2142.745 1070.524, 2185.500 1084.781 C 2195.400 1088.082, 2211.467 1094.192, 2221.204 1098.358 C 2243.535 1107.913, 2282.508 1121.439, 2295.157 1124.026 C 2301.166 1125.254, 2308.787 1126, 2315.329 1126 L 2325.844 1126 2329.482 1121.750 C 2331.483 1119.413, 2334.446 1114.800, 2336.067 1111.500 C 2340.831 1101.798, 2341.965 1094.009, 2341.965 1071 C 2341.965 1048.623, 2340.956 1035.877, 2338.398 1025.939 L 2336.740 1019.500 2337.316 989 C 2337.842 961.162, 2339.294 940.082, 2341.999 921.004 C 2344.165 905.737, 2345.077 860.085, 2344.078 817 C 2343.086 774.208, 2342.326 765.511, 2339.012 759.032 C 2336.288 753.707, 2329.005 745.900, 2325.327 744.363 C 2318.453 741.491, 2294.068 743.842, 2283.176 748.426 C 2279.383 750.022, 2271.935 751.673, 2262.383 753.034 C 2253.245 754.337, 2243.574 756.448, 2237.329 758.505 C 2231.734 760.348, 2221.159 763.042, 2213.829 764.491 C 2206.498 765.940, 2198.025 768.187, 2195 769.484 C 2191.975 770.781, 2186.141 772.820, 2182.035 774.015 C 2177.908 775.216, 2164.646 781.289, 2152.381 787.594 C 2140.177 793.867, 2129.311 799, 2128.233 799 C 2127.155 799, 2117.574 803.288, 2106.941 808.529 C 2096.308 813.770, 2085.290 818.732, 2082.455 819.556 C 2078.805 820.617, 2074.849 823.099, 2068.901 828.060 C 2058.648 836.611, 2051.284 840.375, 2039.500 843.087 C 2034.550 844.226, 2024.200 847.163, 2016.500 849.614 C 1999.215 855.114, 1995.493 855.706, 1970.500 856.927 C 1911.721 859.798, 1860.257 859.223, 1851.583 855.599 C 1847.264 853.795, 1844 849.468, 1844 845.546 C 1844 838.278, 1828.591 818.954, 1806.741 798.820 C 1791.068 784.378, 1777.605 773.591, 1755.763 757.973 C 1746.268 751.184, 1735.416 743.125, 1731.647 740.065 C 1710.222 722.667, 1702.387 717.783, 1667 699.766 C 1644.651 688.387, 1632.944 683.432, 1624.009 681.569 C 1620.313 680.798, 1612.651 678.042, 1606.981 675.443 C 1593.155 669.105, 1590.317 668.869, 1580.802 673.265 C 1570.918 677.832, 1563.400 683.021, 1553 692.455 C 1548.325 696.696, 1541.885 701.816, 1538.690 703.833 C 1535.494 705.850, 1530.994 708.712, 1528.690 710.192 C 1526.385 711.673, 1520.900 716.117, 1516.500 720.067 C 1506.252 729.266, 1504.556 730.356, 1501.634 729.623 C 1499.049 728.974, 1496.402 724.002, 1497.340 721.557 C 1498.107 719.558, 1513.517 707.364, 1518.500 704.813 C 1524.218 701.885, 1551.401 674.466, 1553.413 669.596 C 1554.300 667.450, 1554.778 665.444, 1554.474 665.140 C 1553.624 664.290, 1548.001 667.612, 1539.874 673.764 C 1527.120 683.417, 1482.221 720.149, 1464.500 735.426 C 1455.150 743.486, 1444.350 752.196, 1440.500 754.781 C 1432.503 760.150, 1425.303 766.164, 1405.500 784.013 C 1379.651 807.311, 1364.931 819, 1361.438 819 C 1357.899 819, 1352.614 814.422, 1343.464 803.431 C 1338.265 797.186, 1333.138 791.609, 1332.071 791.038 C 1326.639 788.131, 1317.718 790.885, 1309.493 798.010 C 1298.502 807.530, 1289.207 809.252, 1248 809.403 L 1221.500 809.500 1217.736 807.795 C 1210.699 804.608, 1211.832 800.788, 1220.327 799.052 C 1223.172 798.471, 1229.728 797.310, 1234.896 796.472 C 1240.064 795.635, 1247.559 793.642, 1251.551 792.043 C 1255.544 790.444, 1261.365 788.664, 1264.488 788.087 C 1267.611 787.510, 1273.616 785.509, 1277.833 783.642 C 1282.050 781.774, 1286.583 779.989, 1287.908 779.676 C 1291.563 778.809, 1296.808 781.500, 1301.210 786.501 C 1305.760 791.670, 1308.528 792.196, 1311.960 788.542 L 1314.270 786.084 1313.762 781.577 C 1313.206 776.650, 1308.040 767.627, 1304.774 765.879 C 1303.687 765.297, 1298.350 764.243, 1292.915 763.536 C 1287.240 762.798, 1281.914 761.518, 1280.407 760.531 C 1276.819 758.180, 1265 731.764, 1265 726.095 C 1265 725.122, 1263.206 721.820, 1261.014 718.759 C 1254.063 709.053, 1243.983 706.174, 1237.347 712 C 1235.468 713.650, 1232.806 715, 1231.432 715 C 1226.736 715, 1218.841 709.887, 1208.538 700.175 C 1196.338 688.673, 1194.447 687.506, 1189.513 688.432 C 1179.715 690.270, 1139.413 715.253, 1117.328 733.179 C 1100.891 746.521, 1058.988 776.492, 1052.217 779.750 C 1048.212 781.676, 1042.959 783.476, 1040.543 783.748 L 1036.152 784.243 1033.576 781.667 C 1030.285 778.376, 1030.346 776.673, 1033.984 770.330 C 1036.160 766.535, 1038.967 763.743, 1044.536 759.830 C 1056.421 751.481, 1075.335 736.227, 1089 723.972 C 1103.748 710.745, 1115.018 701.559, 1119.064 699.467 L 1121.974 697.962 1128.860 701.430 C 1136.519 705.286, 1144.068 706.719, 1148.250 705.108 C 1154.465 702.715, 1148.856 696.077, 1139.891 695.215 C 1137.221 694.959, 1134.489 694.089, 1133.819 693.282 L 1132.602 691.815 1134.820 687.633 C 1136.040 685.333, 1140.180 679.959, 1144.019 675.690 C 1148.722 670.461, 1151 667.114, 1151 665.433 C 1151 659.310, 1142.712 661.489, 1128.048 671.467 C 1114.902 680.413, 1101.170 687.570, 1099.793 686.193 C 1099.186 685.586, 1099.596 683.751, 1100.919 681.159 C 1103.734 675.641, 1103.545 673.636, 1099.923 670.589 C 1096.263 667.509, 1091.988 667.250, 1089.536 669.960 C 1087.129 672.620, 1088.073 677.138, 1092.485 684.062 C 1096.717 690.706, 1096.807 692.605, 1093.124 697.600 C 1089.434 702.605, 1086.604 705.176, 1069 719.517 C 1061.025 726.013, 1048.713 736.543, 1041.640 742.915 C 1012.140 769.492, 1006.157 773.558, 997.742 772.749 C 992.049 772.202, 987.620 769.320, 987.218 765.901 C 986.870 762.941, 989.906 759.203, 1011.503 736 C 1035.018 710.737, 1072.684 673.817, 1079.188 669.656 C 1091.223 661.958, 1098.303 649.299, 1093.171 644.655 C 1090.251 642.012, 1088.501 642.640, 1081.519 648.838 C 1075.247 654.406, 1058.941 664, 1055.752 664 C 1052.583 664, 1051.717 660.944, 1050.857 646.728 C 1050.384 638.902, 1049.787 631.938, 1049.530 631.250 C 1048.625 628.827, 1044.253 630.066, 1031 636.500 C 1023.636 640.075, 1017.009 643, 1016.274 643 C 1014.144 643, 1013.608 640.090, 1015.379 638.134 C 1017.519 635.769, 1017.434 632.702, 1015.171 630.655 C 1012.653 628.376, 1008.687 628.582, 1006.405 631.110 L 1004.500 633.220 1004.723 642.703 L 1004.946 652.185 1002.841 656.343 C 1001.683 658.629, 992.793 668.600, 983.085 678.500 C 962.578 699.414, 952.241 710.797, 935.072 731.377 C 922.547 746.390, 914.280 753.762, 907.438 756.020 C 903.271 757.396, 900.324 756.830, 896.662 753.949 C 893.222 751.243, 893.244 748.023, 896.749 741.096 C 899.901 734.865, 932.197 694.233, 950.475 673.500 C 966.720 655.074, 990.888 631.363, 995.306 629.517 C 1000.829 627.209, 1003 623.693, 1003 617.056 C 1003 613.936, 1002.430 610.602, 1001.733 609.649 L 1000.465 607.916 984.054 617.708 C 965.395 628.842, 959.861 633.712, 951.622 646.251 C 948.460 651.064, 941.063 660.071, 935.186 666.266 C 921.591 680.596, 914.478 689.351, 903.567 705.185 C 898.760 712.162, 891.267 721.767, 886.916 726.530 C 882.566 731.293, 877.179 738.014, 874.947 741.467 C 871.986 746.045, 869.581 748.455, 866.058 750.372 C 859.187 754.112, 854.690 753.890, 850.400 749.600 C 848.530 747.730, 847 745.335, 847 744.277 C 847 738.469, 862.893 711.121, 889.022 671.967 C 906.996 645.034, 914.622 636, 919.386 636 C 921.752 636, 924.394 637.600, 930.430 642.688 C 937.415 648.575, 941 646.439, 941 636.388 L 941 631.907 937.863 630.203 C 936.138 629.267, 933.603 627.571, 932.229 626.436 L 929.731 624.372 931.009 621.936 C 931.713 620.596, 934.881 616.041, 938.051 611.812 C 946.137 601.024, 950.423 591.972, 950.466 585.590 L 950.500 580.500 948.500 580.653 C 947.346 580.742, 941.637 586.025, 935 593.146 C 915.972 613.563, 905.763 623.445, 900.641 626.404 L 895.783 629.212 894.141 627.570 L 892.500 625.929 892.519 610.214 C 892.540 592.854, 893.317 588.883, 898.116 581.639 C 901.631 576.333, 903.040 568.958, 901.007 566.508 C 897.343 562.093, 892.853 565.476, 874.502 586.476 C 859.803 603.297, 857.728 605.285, 855.339 604.832 L 853.500 604.482 853 598.410 L 852.500 592.338 848.500 586.544 L 844.500 580.749 844.538 572.624 L 844.577 564.500 848.855 554.645 C 851.208 549.224, 852.892 544.162, 852.598 543.395 C 852.257 542.507, 850.530 542, 847.848 542 L 843.632 542 839.035 546.770 C 833.953 552.042, 807.414 590.025, 800.227 602.313 C 797.410 607.128, 794.563 610.692, 792.806 611.600 L 789.956 613.074 785.728 611.195 C 777.473 607.527, 771 599.461, 771 592.844 C 771 588.523, 776.602 578.968, 786.151 567 C 791.198 560.675, 797.861 551.654, 800.958 546.954 C 810.084 533.102, 811.006 529, 804.992 529 C 795.997 529, 787.595 537.658, 761.228 574.097 C 753.194 585.200, 746.405 592.785, 744.215 593.104 C 739.096 593.851, 725.668 593.305, 724.849 592.318 C 724.165 591.493, 724.177 588.311, 724.887 582.507 C 726.253 571.340, 729.246 565.193, 741.933 547.500 C 751.398 534.300, 753.660 529.704, 752.834 525.350 C 752.371 522.906, 747.089 522.385, 743.195 524.399 C 738.382 526.888, 730.700 533.965, 723.004 543 C 705.786 563.214, 701.576 566.158, 687.092 568.107 C 678.402 569.277, 673.849 568.172, 673.187 564.732 C 672.814 562.793, 677.835 553.182, 691.140 530.370 C 702.417 511.035, 710.137 495.150, 710.340 490.864 L 710.500 487.500 706.674 487.185 L 702.847 486.870 695.674 494.188 C 680.101 510.074, 663.299 540.050, 660.495 556.948 C 659.154 565.029, 650.978 569.962, 646.733 565.250 C 644.930 563.248, 642.475 543.191, 642.541 531 L 642.581 523.500 646.689 514 C 652.353 500.902, 661.776 483.640, 670.576 470.238 C 674.643 464.045, 678.927 457.070, 680.096 454.738 C 681.265 452.407, 684.877 446.817, 688.122 442.315 C 694.924 432.881, 696.291 428.761, 693.172 427.092 C 685.467 422.968, 677.928 428.867, 665.288 448.910 C 661.614 454.734, 652.678 468.725, 645.430 480 C 629.031 505.508, 626.387 510.233, 625.004 516.500 C 623.202 524.668, 617.053 535.972, 611.251 541.784 L 605.976 547.067 596.572 565.857 C 590.518 577.952, 586.791 586.676, 586.114 590.342 C 585.535 593.474, 583.453 599.695, 581.487 604.165 C 579.299 609.143, 577.560 615.087, 577 619.503 C 576.497 623.468, 574.737 630.772, 573.089 635.733 C 571.440 640.695, 568.690 650.322, 566.976 657.127 C 562.971 673.032, 555.592 695.571, 553.018 699.763 C 550.220 704.319, 545.390 706.436, 539.730 705.587 C 532.771 704.543, 531.790 702.785, 530.884 689.736 C 530.455 683.556, 529.393 656.900, 528.524 630.500 C 527.656 604.100, 526.504 575.750, 525.965 567.500 C 525.426 559.250, 524.720 548.225, 524.396 543 L 523.807 533.500 526.832 520 C 530.829 502.158, 531.816 496.426, 532.963 484.387 C 533.589 477.821, 534.850 471.891, 536.577 467.400 C 542.627 451.662, 543.960 446.826, 546.024 433.136 C 547.215 425.236, 549.093 415.786, 550.197 412.136 C 555.595 394.289, 558.247 381.840, 562.501 354.376 C 573.120 285.823, 581.125 250.197, 592.586 220.500 C 600.976 198.761, 603.807 190.493, 604.914 184.508 C 605.515 181.258, 607.111 177.001, 608.462 175.049 C 609.812 173.097, 611.855 168.458, 613.002 164.739 C 616.792 152.451, 623.748 137.220, 641.477 102.391 C 651.114 83.457, 659.007 67.185, 659.016 66.233 C 659.032 64.556, 661.564 59.915, 665.322 54.672 C 667.681 51.382, 668.888 37.775, 667.020 35.524 C 665.099 33.209, 664.264 33.571, 658.437 39.250 M 650 791.026 C 624.098 791.820, 616.607 792.502, 605.500 795.078 C 595.765 797.336, 578.965 798.991, 565.500 799.019 C 541.257 799.069, 532.410 803.408, 544.395 809.369 L 548.152 811.237 557.826 809.869 L 567.500 808.500 695 808.574 C 837.859 808.656, 852.833 809.116, 872.962 814.031 C 879.617 815.656, 888.760 817.409, 893.281 817.926 C 904.006 819.153, 912.352 820.917, 938.422 827.469 C 950.258 830.444, 964.793 833.607, 970.721 834.498 C 982.779 836.310, 995.777 839.006, 1006.997 842.021 C 1011.121 843.129, 1019.475 844.472, 1025.562 845.005 C 1032.104 845.579, 1040.896 847.194, 1047.065 848.956 C 1057.403 851.909, 1070.456 854.279, 1083 855.482 C 1094.794 856.613, 1111.273 859.076, 1127 862.058 C 1135.525 863.675, 1152.835 866.581, 1165.467 868.515 C 1178.099 870.450, 1193.399 873.203, 1199.467 874.633 C 1219.057 879.252, 1224.127 879.924, 1247 880.933 C 1269.931 881.944, 1275.743 882.658, 1289 886.092 C 1301.079 889.221, 1316.424 890.823, 1355.122 892.995 C 1389.206 894.908, 1421.408 897.516, 1422.986 898.491 C 1425.086 899.790, 1455.559 901.148, 1502 902.013 C 1554.663 902.994, 1575.620 903.771, 1623 906.499 C 1637.025 907.307, 1669.875 908.884, 1696 910.005 C 1767.523 913.073, 1822.690 915.740, 1882 918.997 C 1942.141 922.300, 1990.276 924.588, 2028 925.938 L 2053.500 926.850 2054.749 925.235 C 2056.641 922.789, 2060.193 912.880, 2060.356 909.594 L 2060.500 906.689 2057.500 905.828 C 2055.850 905.354, 2017.825 904.547, 1973 904.034 C 1873.726 902.898, 1847.353 902.329, 1808 900.475 C 1768.940 898.634, 1732.685 897.367, 1666 895.510 C 1569.861 892.833, 1515.735 890.364, 1490.500 887.504 C 1465.243 884.641, 1454.178 883.897, 1423.500 883 C 1390.819 882.044, 1378.550 880.836, 1352.500 876.006 C 1329.613 871.762, 1326.746 871.373, 1293.764 868.026 C 1262.943 864.898, 1251.159 863.285, 1235 859.984 C 1223.195 857.573, 1208.591 856, 1198 856 C 1186.472 856, 1172.092 854.283, 1160.416 851.512 C 1148.647 848.719, 1137.983 847.330, 1122 846.508 C 1093.232 845.028, 1045.615 835.504, 1024.230 826.952 C 1011.995 822.059, 1005.504 820.855, 986.500 819.957 C 967.559 819.061, 965.809 818.746, 957 814.645 C 951.490 812.080, 942.199 810.237, 923.500 808.001 C 918 807.343, 910.193 805.728, 906.151 804.412 C 898.378 801.881, 879.963 799.627, 858 798.518 C 838.948 797.557, 802.584 795.115, 782.500 793.448 C 747.624 790.553, 696.146 789.612, 650 791.026 M 226.602 881.022 C 209.101 899.044, 204.299 907.531, 205.232 918.787 L 205.672 924.090 209.947 928.446 C 215.306 933.906, 220.276 935.415, 230.884 934.801 C 240.390 934.250, 247.319 931.226, 254.217 924.617 L 258.851 920.176 259.553 915.498 C 260.666 908.074, 259.563 890.938, 257.751 887.500 C 255.304 882.858, 242.048 869, 240.055 869 C 239.076 869, 233.023 874.410, 226.602 881.022" stroke="none" fill="black" fill-rule="evenodd"/>
  </g>
</svg>